  0
SECTION
  2
HEADER
  9
$ACADVER
  1
AC1015
  9
$ACADMAINTVER
 70
     6
  9
$DWGCODEPAGE
  3
ANSI_1252
  9
$INSBASE
 10
0.0
 20
0.0
 30
0.0
  9
$EXTMIN
 10
1.000000E+20
 20
1.000000E+20
 30
1.000000E+20
  9
$EXTMAX
 10
-1.000000E+20
 20
-1.000000E+20
 30
-1.000000E+20
  9
$LIMMIN
 10
0.0
 20
0.0
  9
$LIMMAX
 10
420.0
 20
297.0
  9
$ORTHOMODE
 70
     0
  9
$REGENMODE
 70
     1
  9
$FILLMODE
 70
     1
  9
$QTEXTMODE
 70
     0
  9
$MIRRTEXT
 70
     1
  9
$LTSCALE
 40
1.0
  9
$ATTMODE
 70
     1
  9
$TEXTSIZE
 40
2.5
  9
$TRACEWID
 40
1.0
  9
$TEXTSTYLE
  7
Standard
  9
$CLAYER
  8
0
  9
$CELTYPE
  6
ByLayer
  9
$CECOLOR
 62
   256
  9
$CELTSCALE
 40
1.0
  9
$DISPSILH
 70
     0
  9
$DIMSCALE
 40
1.0
  9
$DIMASZ
 40
2.5
  9
$DIMEXO
 40
0.625
  9
$DIMDLI
 40
3.75
  9
$DIMRND
 40
0.0
  9
$DIMDLE
 40
0.0
  9
$DIMEXE
 40
1.25
  9
$DIMTP
 40
0.0
  9
$DIMTM
 40
0.0
  9
$DIMTXT
 40
2.5
  9
$DIMCEN
 40
2.5
  9
$DIMTSZ
 40
0.0
  9
$DIMTOL
 70
     0
  9
$DIMLIM
 70
     0
  9
$DIMTIH
 70
     0
  9
$DIMTOH
 70
     0
  9
$DIMSE1
 70
     0
  9
$DIMSE2
 70
     0
  9
$DIMTAD
 70
     1
  9
$DIMZIN
 70
     8
  9
$DIMBLK
  1

  9
$DIMASO
 70
     1
  9
$DIMSHO
 70
     1
  9
$DIMPOST
  1

  9
$DIMAPOST
  1

  9
$DIMALT
 70
     0
  9
$DIMALTD
 70
     3
  9
$DIMALTF
 40
0.03937
  9
$DIMLFAC
 40
1.0
  9
$DIMTOFL
 70
     1
  9
$DIMTVP
 40
0.0
  9
$DIMTIX
 70
     0
  9
$DIMSOXD
 70
     0
  9
$DIMSAH
 70
     0
  9
$DIMBLK1
  1

  9
$DIMBLK2
  1

  9
$DIMSTYLE
  2
ISO-25
  9
$DIMCLRD
 70
     0
  9
$DIMCLRE
 70
     0
  9
$DIMCLRT
 70
     0
  9
$DIMTFAC
 40
1.0
  9
$DIMGAP
 40
0.625
  9
$DIMJUST
 70
     0
  9
$DIMSD1
 70
     0
  9
$DIMSD2
 70
     0
  9
$DIMTOLJ
 70
     0
  9
$DIMTZIN
 70
     8
  9
$DIMALTZ
 70
     0
  9
$DIMALTTZ
 70
     0
  9
$DIMUPT
 70
     0
  9
$DIMDEC
 70
     2
  9
$DIMTDEC
 70
     2
  9
$DIMALTU
 70
     2
  9
$DIMALTTD
 70
     3
  9
$DIMTXSTY
  7
Standard
  9
$DIMAUNIT
 70
     0
  9
$DIMADEC
 70
     0
  9
$DIMALTRND
 40
0.0
  9
$DIMAZIN
 70
     0
  9
$DIMDSEP
 70
    44
  9
$DIMATFIT
 70
     3
  9
$DIMFRAC
 70
     0
  9
$DIMLDRBLK
  1

  9
$DIMLUNIT
 70
     2
  9
$DIMLWD
 70
    -2
  9
$DIMLWE
 70
    -2
  9
$DIMTMOVE
 70
     0
  9
$LUNITS
 70
     2
  9
$LUPREC
 70
     4
  9
$SKETCHINC
 40
1.0
  9
$FILLETRAD
 40
10.0
  9
$AUNITS
 70
     0
  9
$AUPREC
 70
     0
  9
$MENU
  1
.
  9
$ELEVATION
 40
0.0
  9
$PELEVATION
 40
0.0
  9
$THICKNESS
 40
0.0
  9
$LIMCHECK
 70
     0
  9
$CHAMFERA
 40
10.0
  9
$CHAMFERB
 40
10.0
  9
$CHAMFERC
 40
20.0
  9
$CHAMFERD
 40
0.0
  9
$SKPOLY
 70
     0
  9
$TDCREATE
 40
2455270.092869641
  9
$TDUCREATE
 40
2455269.551202975
  9
$TDUPDATE
 40
2455270.092869653
  9
$TDUUPDATE
 40
2455269.551202986
  9
$TDINDWG
 40
0.0000000116
  9
$TDUSRTIMER
 40
0.0000000116
  9
$USRTIMER
 70
     1
  9
$ANGBASE
 50
0.0
  9
$ANGDIR
 70
     0
  9
$PDMODE
 70
     3
  9
$PDSIZE
 40
-0.7
  9
$PLINEWID
 40
0.0
  9
$SPLFRAME
 70
     0
  9
$SPLINETYPE
 70
     6
  9
$SPLINESEGS
 70
     8
  9
$HANDSEED
  5
50
  9
$SURFTAB1
 70
     6
  9
$SURFTAB2
 70
     6
  9
$SURFTYPE
 70
     6
  9
$SURFU
 70
     6
  9
$SURFV
 70
     6
  9
$UCSBASE
  2

  9
$UCSNAME
  2

  9
$UCSORG
 10
0.0
 20
0.0
 30
0.0
  9
$UCSXDIR
 10
1.0
 20
0.0
 30
0.0
  9
$UCSYDIR
 10
0.0
 20
1.0
 30
0.0
  9
$UCSORTHOREF
  2

  9
$UCSORTHOVIEW
 70
     0
  9
$UCSORGTOP
 10
0.0
 20
0.0
 30
0.0
  9
$UCSORGBOTTOM
 10
0.0
 20
0.0
 30
0.0
  9
$UCSORGLEFT
 10
0.0
 20
0.0
 30
0.0
  9
$UCSORGRIGHT
 10
0.0
 20
0.0
 30
0.0
  9
$UCSORGFRONT
 10
0.0
 20
0.0
 30
0.0
  9
$UCSORGBACK
 10
0.0
 20
0.0
 30
0.0
  9
$PUCSBASE
  2

  9
$PUCSNAME
  2

  9
$PUCSORG
 10
0.0
 20
0.0
 30
0.0
  9
$PUCSXDIR
 10
1.0
 20
0.0
 30
0.0
  9
$PUCSYDIR
 10
0.0
 20
1.0
 30
0.0
  9
$PUCSORTHOREF
  2

  9
$PUCSORTHOVIEW
 70
     0
  9
$PUCSORGTOP
 10
0.0
 20
0.0
 30
0.0
  9
$PUCSORGBOTTOM
 10
0.0
 20
0.0
 30
0.0
  9
$PUCSORGLEFT
 10
0.0
 20
0.0
 30
0.0
  9
$PUCSORGRIGHT
 10
0.0
 20
0.0
 30
0.0
  9
$PUCSORGFRONT
 10
0.0
 20
0.0
 30
0.0
  9
$PUCSORGBACK
 10
0.0
 20
0.0
 30
0.0
  9
$USERI1
 70
     0
  9
$USERI2
 70
     0
  9
$USERI3
 70
     0
  9
$USERI4
 70
     0
  9
$USERI5
 70
     0
  9
$USERR1
 40
0.0
  9
$USERR2
 40
0.0
  9
$USERR3
 40
0.0
  9
$USERR4
 40
0.0
  9
$USERR5
 40
0.0
  9
$WORLDVIEW
 70
     1
  9
$SHADEDGE
 70
     3
  9
$SHADEDIF
 70
    70
  9
$TILEMODE
 70
     1
  9
$MAXACTVP
 70
    64
  9
$PINSBASE
 10
0.0
 20
0.0
 30
0.0
  9
$PLIMCHECK
 70
     0
  9
$PEXTMIN
 10
1.000000E+20
 20
1.000000E+20
 30
1.000000E+20
  9
$PEXTMAX
 10
-1.000000E+20
 20
-1.000000E+20
 30
-1.000000E+20
  9
$PLIMMIN
 10
0.0
 20
0.0
  9
$PLIMMAX
 10
420.0
 20
297.0
  9
$UNITMODE
 70
     0
  9
$VISRETAIN
 70
     1
  9
$PLINEGEN
 70
     0
  9
$PSLTSCALE
 70
     1
  9
$TREEDEPTH
 70
  3020
  9
$CMLSTYLE
  2
Standard
  9
$CMLJUST
 70
     1
  9
$CMLSCALE
 40
1.0
  9
$PROXYGRAPHICS
 70
     1
  9
$MEASUREMENT
 70
     1
  9
$CELWEIGHT
370
    -1
  9
$ENDCAPS
280
     0
  9
$JOINSTYLE
280
     0
  9
$LWDISPLAY
290
     0
  9
$INSUNITS
 70
     4
  9
$HYPERLINKBASE
  1

  9
$STYLESHEET
  1

  9
$XEDIT
290
     1
  9
$CEPSNTYPE
380
     0
  9
$PSTYLEMODE
290
     1
  9
$FINGERPRINTGUID
  2
{FAEB1C30-E019-11D5-929B-00C0DF256EC4}
  9
$VERSIONGUID
  2
{FAEB1C32-E019-11D5-929B-00C0DF256EC4}
  9
$EXTNAMES
290
     1
  9
$PSVPSCALE
 40
0.0
  9
$OLESTARTUP
290
     0
  0
ENDSEC
  0
SECTION
  2
CLASSES
  0
CLASS
  1
ACDBDICTIONARYWDFLT
  2
AcDbDictionaryWithDefault
  3
ObjectDBX Classes
 90
        0
280
     0
281
     0
  0
CLASS
  1
ACDBPLACEHOLDER
  2
AcDbPlaceHolder
  3
ObjectDBX Classes
 90
        0
280
     0
281
     0
  0
CLASS
  1
LAYOUT
  2
AcDbLayout
  3
ObjectDBX Classes
 90
        0
280
     0
281
     0
  0
ENDSEC
  0
SECTION
  2
TABLES
  0
TABLE
  2
VPORT
  5
8
330
0
100
AcDbSymbolTable
 70
     2
  0
VPORT
  5
29
330
8
100
AcDbSymbolTableRecord
100
AcDbViewportTableRecord
  2
*Active
 70
     0
 10
0.0
 20
0.0
 11
1.0
 21
1.0
 12
50.0
 22
50.0
 13
0.0
 23
0.0
 14
10.0
 24
10.0
 15
10.0
 25
10.0
 16
0.0
 26
0.0
 36
1.0
 17
0.0
 27
0.0
 37
0.0
 40
103.921569
 41
1.0
 42
50.0
 43
0.0
 44
0.0
 50
0.0
 51
0.0
 71
     0
 72
   100
 73
     1
 74
     3
 75
     0
 76
     0
 77
     0
 78
     0
281
     0
 65
     1
110
0.0
120
0.0
130
0.0
111
1.0
121
0.0
131
0.0
112
0.0
122
1.0
132
0.0
 79
     0
146
0.0
  0
ENDTAB
  0
TABLE
  2
LTYPE
  5
5
330
0
100
AcDbSymbolTable
 70
     1
  0
LTYPE
  5
14
330
5
100
AcDbSymbolTableRecord
100
AcDbLinetypeTableRecord
  2
ByBlock
 70
     0
  3

 72
    65
 73
     0
 40
0.0
  0
LTYPE
  5
15
330
5
100
AcDbSymbolTableRecord
100
AcDbLinetypeTableRecord
  2
ByLayer
 70
     0
  3

 72
    65
 73
     0
 40
0.0
  0
LTYPE
  5
16
330
5
100
AcDbSymbolTableRecord
100
AcDbLinetypeTableRecord
  2
Continuous
 70
     0
  3

 72
    65
 73
     0
 40
0.0
  0
ENDTAB
  0
TABLE
  2
LAYER
  5
2
330
0
100
AcDbSymbolTable
 70
     1
  0
LAYER
  5
10
330
2
100
AcDbSymbolTableRecord
100
AcDbLayerTableRecord
  2
0
 70
     0
 62
     7
  6
Continuous
370
    -3
390
F
  0
ENDTAB
  0
TABLE
  2
STYLE
  5
3
330
0
100
AcDbSymbolTable
 70
     1
  0
STYLE
  5
11
330
3
100
AcDbSymbolTableRecord
100
AcDbTextStyleTableRecord
  2
Standard
 70
     0
 40
1.0
 41
1.0
 50
0.0
 71
     0
 42
2.5
  3
RomanS
  4

  0
ENDTAB
  0
TABLE
  2
VIEW
  5
6
330
0
100
AcDbSymbolTable
 70
     0
  0
ENDTAB
  0
TABLE
  2
UCS
  5
7
330
0
100
AcDbSymbolTable
 70
     0
  0
ENDTAB
  0
TABLE
  2
APPID
  5
9
330
0
100
AcDbSymbolTable
 70
     1
  0
APPID
  5
12
330
9
100
AcDbSymbolTableRecord
100
AcDbRegAppTableRecord
  2
ACAD
 70
     0
  0
ENDTAB
  0
TABLE
  2
DIMSTYLE
  5
A
330
0
100
AcDbSymbolTable
 70
     1
100
AcDbDimStyleTable
  0
DIMSTYLE
105
27
330
A
100
AcDbSymbolTableRecord
100
AcDbDimStyleTableRecord
  2
ISO-25
 70
     0
 41
2.5
 42
0.625
 44
1.25
 73
     0
 74
     0
 77
     1
 78
     8
 79
     2
140
2.5
141
2.5
146
0.0
147
0.625
271
     2
272
     0
273
     0
274
     0
278
    44
283
     0
289
     0
340
11
  0
ENDTAB
  0
TABLE
  2
BLOCK_RECORD
  5
1
330
0
100
AcDbSymbolTable
 70
     1
  0
BLOCK_RECORD
  5
1F
330
1
100
AcDbSymbolTableRecord
100
AcDbBlockTableRecord
  2
*Model_Space
340
22
  0
BLOCK_RECORD
  5
1B
330
1
100
AcDbSymbolTableRecord
100
AcDbBlockTableRecord
  2
*Paper_Space
340
1E
  0
BLOCK_RECORD
  5
23
330
1
100
AcDbSymbolTableRecord
100
AcDbBlockTableRecord
  2
*Paper_Space0
340
26
  0
ENDTAB
  0
ENDSEC
  0
SECTION
  2
BLOCKS
  0
BLOCK
  5
20
330
1F
100
AcDbEntity
  8
0
100
AcDbBlockBegin
  2
*Model_Space
 70
     0
 71
     0
 10
0.0
 20
0.0
 30
0.0
  3
*Model_Space
  1

  0
ENDBLK
  5
21
330
1F
100
AcDbEntity
  8
0
100
AcDbBlockEnd
  0
BLOCK
  5
1C
330
1B
100
AcDbEntity
 67
     1
  8
0
100
AcDbBlockBegin
  2
*Paper_Space
 70
     0
 71
     0
 10
0.0
 20
0.0
 30
0.0
  3
*Paper_Space
  1

  0
ENDBLK
  5
1D
330
1B
100
AcDbEntity
 67
     1
  8
0
100
AcDbBlockEnd
  0
BLOCK
  5
24
330
23
100
AcDbEntity
  8
0
100
AcDbBlockBegin
  2
*Paper_Space0
 70
     0
 71
     0
 10
0.0
 20
0.0
 30
0.0
  3
*Paper_Space0
  1

  0
ENDBLK
  5
25
330
23
100
AcDbEntity
  8
0
100
AcDbBlockEnd
  0
ENDSEC
  0
SECTION
  2
ENTITIES
  0
LWPOLYLINE
  5
2A
330
1F
100
AcDbEntity
  8
0
100
AcDbPolyline
 90
      245
 70
   128
 43
0.0
 10
1413.142106
 20
255.232443
 10
1413.145267
 20
254.647858
 10
1413.145824
 20
254.555873
 10
1413.14678
 20
254.455643
 10
1413.14849
 20
254.347692
 10
1413.151306
 20
254.23254
 10
1413.155579
 20
254.110714
 10
1413.161664
 20
253.982735
 10
1413.169913
 20
253.849128
 10
1413.180679
 20
253.710416
 10
1413.194315
 20
253.567121
 10
1413.211172
 20
253.419768
 10
1413.231604
 20
253.26888
 10
1413.255964
 20
253.11498
 10
1413.284605
 20
252.958591
 10
1413.317879
 20
252.800236
 10
1413.356138
 20
252.64044
 10
1413.399737
 20
252.479725
 10
1413.449027
 20
252.318615
 10
1413.504361
 20
252.157633
 10
1413.566093
 20
251.997303
 10
1413.634574
 20
251.838147
 10
1413.710053
 20
251.680648
 10
1413.79236
 20
251.525117
 10
1413.881222
 20
251.371828
 10
1413.976363
 20
251.221048
 10
1414.077511
 20
251.073052
 10
1414.184391
 20
250.928108
 10
1414.296727
 20
250.78649
 10
1414.414247
 20
250.648466
 10
1414.536676
 20
250.514309
 10
1414.66374
 20
250.384288
 10
1414.795165
 20
250.258676
 10
1414.930676
 20
250.137744
 10
1415.07
 20
250.021762
 10
1415.212862
 20
249.911002
 10
1415.358989
 20
249.805734
 10
1415.508105
 20
249.70623
 10
1415.659937
 20
249.61276
 10
1415.81421
 20
249.525595
 10
1415.970651
 20
249.445008
 10
1416.128985
 20
249.371267
 10
1416.288897
 20
249.304541
 10
1416.44991
 20
249.244574
 10
1416.611502
 20
249.19101
 10
1416.773155
 20
249.143489
 10
1416.934349
 20
249.101654
 10
1417.094566
 20
249.065145
 10
1417.253285
 20
249.033605
 10
1417.409987
 20
249.006675
 10
1417.564154
 20
248.983998
 10
1417.715264
 20
248.965214
 10
1417.8628
 20
248.949964
 10
1418.006241
 20
248.937893
 10
1418.145069
 20
248.928641
 10
1418.278763
 20
248.921847
 10
1418.406805
 20
248.917156
 10
1418.528675
 20
248.91421
 10
1418.643853
 20
248.912647
 10
1418.751821
 20
248.912113
 10
1418.852059
 20
248.912247
 10
1419.528646
 20
248.91589
 10
1420.113184
 20
248.919159
 10
1420.205161
 20
248.919732
 10
1420.305383
 20
248.920708
 10
1420.413327
 20
248.922436
 10
1420.528469
 20
248.925273
 10
1420.650286
 20
248.929568
 10
1420.778253
 20
248.935675
 10
1420.91185
 20
248.943947
 10
1421.050551
 20
248.954736
 10
1421.193834
 20
248.968395
 10
1421.341175
 20
248.985275
 10
1421.49205
 20
249.00573
 10
1421.645938
 20
249.030114
 10
1421.802313
 20
249.058776
 10
1421.960654
 20
249.092072
 10
1422.120436
 20
249.130353
 10
1422.281137
 20
249.173971
 10
1422.442232
 20
249.223278
 10
1422.6032
 20
249.278631
 10
1422.763515
 20
249.340377
 10
1422.922656
 20
249.408871
 10
1423.08014
 20
249.484363
 10
1423.235656
 20
249.56668
 10
1423.38893
 20
249.655549
 10
1423.539694
 20
249.750697
 10
1423.687676
 20
249.851849
 10
1423.832604
 20
249.95873
 10
1423.974209
 20
250.071067
 10
1424.112218
 20
250.188587
 10
1424.246362
 20
250.311014
 10
1424.376368
 20
250.438073
 10
1424.501967
 20
250.569494
 10
1424.622886
 20
250.704998
 10
1424.738855
 20
250.844313
 10
1424.849604
 20
250.987166
 10
1424.954861
 20
251.133281
 10
1425.054355
 20
251.282385
 10
1425.147815
 20
251.434204
 10
1425.234971
 20
251.588463
 10
1425.31555
 20
251.744889
 10
1425.389283
 20
251.903205
 10
1425.456003
 20
252.0631
 10
1425.515964
 20
252.224093
 10
1425.569523
 20
252.385667
 10
1425.617041
 20
252.547299
 10
1425.658873
 20
252.708473
 10
1425.695379
 20
252.868668
 10
1425.726916
 20
253.027366
 10
1425.753845
 20
253.184046
 10
1425.776522
 20
253.338192
 10
1425.795306
 20
253.48928
 10
1425.810554
 20
253.636794
 10
1425.822626
 20
253.780215
 10
1425.83188
 20
253.919022
 10
1425.838674
 20
254.052696
 10
1425.843365
 20
254.180718
 10
1425.846313
 20
254.302569
 10
1425.847877
 20
254.417729
 10
1425.848413
 20
254.52568
 10
1425.848281
 20
254.625902
 10
1425.844646
 20
255.302383
 10
1425.841408
 20
255.886997
 10
1425.84084
 20
255.978987
 10
1425.83987
 20
256.079223
 10
1425.838145
 20
256.18718
 10
1425.835316
 20
256.302337
 10
1425.831026
 20
256.424169
 10
1425.824925
 20
256.552153
 10
1425.81666
 20
256.685766
 10
1425.805877
 20
256.824484
 10
1425.792227
 20
256.967784
 10
1425.775352
 20
257.115142
 10
1425.754903
 20
257.266035
 10
1425.730527
 20
257.419939
 10
1425.701871
 20
257.576332
 10
1425.668582
 20
257.73469
 10
1425.630309
 20
257.894487
 10
1425.586697
 20
258.055204
 10
1425.537394
 20
258.216314
 10
1425.482048
 20
258.377295
 10
1425.420307
 20
258.537624
 10
1425.351817
 20
258.696776
 10
1425.276331
 20
258.854272
 10
1425.194017
 20
259.009797
 10
1425.105151
 20
259.163081
 10
1425.010006
 20
259.313852
 10
1424.908857
 20
259.46184
 10
1424.801977
 20
259.606774
 10
1424.689642
 20
259.748384
 10
1424.572124
 20
259.886397
 10
1424.449698
 20
260.020544
 10
1424.322639
 20
260.150552
 10
1424.19122
 20
260.276151
 10
1424.055716
 20
260.39707
 10
1423.9164
 20
260.513039
 10
1423.773547
 20
260.623786
 10
1423.62743
 20
260.729041
 10
1423.478325
 20
260.828532
 10
1423.326506
 20
260.921989
 10
1423.172245
 20
261.00914
 10
1423.015818
 20
261.089715
 10
1422.857498
 20
261.163443
 10
1422.697602
 20
261.230157
 10
1422.536605
 20
261.290111
 10
1422.37503
 20
261.343663
 10
1422.213394
 20
261.391173
 10
1422.052217
 20
261.432998
 10
1421.892019
 20
261.469496
 10
1421.733317
 20
261.501025
 10
1421.576633
 20
261.527945
 10
1421.422486
 20
261.550613
 10
1421.271393
 20
261.569388
 10
1421.123875
 20
261.584628
 10
1420.980452
 20
261.596691
 10
1420.841642
 20
261.605936
 10
1420.707964
 20
261.612722
 10
1420.579938
 20
261.617406
 10
1420.458085
 20
261.620346
 10
1420.342921
 20
261.621902
 10
1420.234967
 20
261.622431
 10
1420.134743
 20
261.622292
 10
1419.458245
 20
261.618613
 10
1418.873707
 20
261.615344
 10
1418.78173
 20
261.614771
 10
1418.681508
 20
261.613796
 10
1418.573564
 20
261.612067
 10
1418.458422
 20
261.609232
 10
1418.336603
 20
261.604937
 10
1418.208634
 20
261.598831
 10
1418.075037
 20
261.59056
 10
1417.936333
 20
261.579773
 10
1417.793048
 20
261.566117
 10
1417.645704
 20
261.549239
 10
1417.494824
 20
261.528787
 10
1417.340931
 20
261.504408
 10
1417.18455
 20
261.47575
 10
1417.026202
 20
261.442461
 10
1416.866412
 20
261.404187
 10
1416.705702
 20
261.360576
 10
1416.544597
 20
261.311276
 10
1416.383619
 20
261.255935
 10
1416.22329
 20
261.194198
 10
1416.064135
 20
261.125716
 10
1415.906635
 20
261.050238
 10
1415.751103
 20
260.967935
 10
1415.59781
 20
260.879081
 10
1415.447027
 20
260.78395
 10
1415.299026
 20
260.682815
 10
1415.154077
 20
260.57595
 10
1415.012452
 20
260.46363
 10
1414.874422
 20
260.346129
 10
1414.740259
 20
260.223721
 10
1414.610233
 20
260.096678
 10
1414.484615
 20
259.965277
 10
1414.363676
 20
259.829789
 10
1414.24769
 20
259.69049
 10
1414.136925
 20
259.547654
 10
1414.031653
 20
259.401553
 10
1413.932146
 20
259.252463
 10
1413.838674
 20
259.100659
 10
1413.751509
 20
258.946412
 10
1413.670922
 20
258.789997
 10
1413.597184
 20
258.631688
 10
1413.530462
 20
258.471801
 10
1413.470501
 20
258.310813
 10
1413.416945
 20
258.149244
 10
1413.369432
 20
257.987614
 10
1413.327606
 20
257.826442
 10
1413.291109
 20
257.666246
 10
1413.25958
 20
257.507548
 10
1413.232664
 20
257.350866
 10
1413.209999
 20
257.196719
 10
1413.191229
 20
257.045626
 10
1413.175994
 20
256.898108
 10
1413.163935
 20
256.754683
 10
1413.154697
 20
256.615872
 10
1413.147918
 20
256.482192
 10
1413.143241
 20
256.354164
 10
1413.140308
 20
256.232308
 10
1413.138759
 20
256.117142
 10
1413.138237
 20
256.009186
 10
1413.138383
 20
255.908959
 10
1413.142106
 20
255.232443
  0
LWPOLYLINE
  5
2B
330
1F
100
AcDbEntity
  8
0
100
AcDbPolyline
 90
      245
 70
   128
 43
0.0
 10
1386.286699
 20
466.969296
 10
1386.288593
 20
466.628257
 10
1386.288926
 20
466.574594
 10
1386.289493
 20
466.516122
 10
1386.2905
 20
466.453143
 10
1386.292152
 20
466.385966
 10
1386.294655
 20
466.314895
 10
1386.298215
 20
466.240234
 10
1386.303037
 20
466.16229
 10
1386.309327
 20
466.081368
 10
1386.317292
 20
465.997773
 10
1386.327135
 20
465.91181
 10
1386.339064
 20
465.823786
 10
1386.353283
 20
465.734003
 10
1386.369999
 20
465.64277
 10
1386.389417
 20
465.550391
 10
1386.411743
 20
465.457171
 10
1386.437183
 20
465.363415
 10
1386.465941
 20
465.269429
 10
1386.498225
 20
465.175519
 10
1386.534239
 20
465.081989
 10
1386.574189
 20
464.989145
 10
1386.61822
 20
464.897268
 10
1386.666233
 20
464.806539
 10
1386.718068
 20
464.717119
 10
1386.773565
 20
464.629164
 10
1386.832565
 20
464.542833
 10
1386.894906
 20
464.458283
 10
1386.960431
 20
464.375673
 10
1387.028979
 20
464.295162
 10
1387.100389
 20
464.216908
 10
1387.174503
 20
464.141067
 10
1387.251159
 20
464.067799
 10
1387.330198
 20
463.997261
 10
1387.411461
 20
463.929613
 10
1387.494788
 20
463.865011
 10
1387.580018
 20
463.803614
 10
1387.666992
 20
463.74558
 10
1387.75555
 20
463.691068
 10
1387.845532
 20
463.640235
 10
1387.936777
 20
463.593241
 10
1388.029127
 20
463.55024
 10
1388.122399
 20
463.511333
 10
1388.216311
 20
463.476371
 10
1388.310562
 20
463.445144
 10
1388.404847
 20
463.417444
 10
1388.498866
 20
463.39306
 10
1388.592315
 20
463.371785
 10
1388.68489
 20
463.353408
 10
1388.776289
 20
463.337721
 10
1388.866208
 20
463.324515
 10
1388.954346
 20
463.31358
 10
1389.040399
 20
463.304707
 10
1389.124063
 20
463.297687
 10
1389.205037
 20
463.292311
 10
1389.283016
 20
463.28837
 10
1389.357698
 20
463.285653
 10
1389.428781
 20
463.283955
 10
1389.49596
 20
463.283062
 10
1389.558934
 20
463.282768
 10
1389.617399
 20
463.282862
 10
1390.012029
 20
463.2851
 10
1390.353038
 20
463.286918
 10
1390.406696
 20
463.287239
 10
1390.465163
 20
463.287792
 10
1390.528136
 20
463.288784
 10
1390.595308
 20
463.290422
 10
1390.666373
 20
463.292909
 10
1390.741027
 20
463.296453
 10
1390.818965
 20
463.301259
 10
1390.89988
 20
463.307532
 10
1390.983469
 20
463.315479
 10
1391.069424
 20
463.325305
 10
1391.157442
 20
463.337217
 10
1391.247217
 20
463.351419
 10
1391.338443
 20
463.368119
 10
1391.430816
 20
463.38752
 10
1391.52403
 20
463.409829
 10
1391.617779
 20
463.435254
 10
1391.711759
 20
463.463998
 10
1391.805664
 20
463.496267
 10
1391.899189
 20
463.532268
 10
1391.992028
 20
463.572205
 10
1392.083901
 20
463.616226
 10
1392.174626
 20
463.664229
 10
1392.264043
 20
463.716056
 10
1392.351995
 20
463.771544
 10
1392.438325
 20
463.830538
 10
1392.522873
 20
463.892874
 10
1392.605482
 20
463.958395
 10
1392.685994
 20
464.026938
 10
1392.76425
 20
464.098346
 10
1392.840094
 20
464.172458
 10
1392.913364
 20
464.249113
 10
1392.983907
 20
464.328153
 10
1393.051561
 20
464.409418
 10
1393.11617
 20
464.492745
 10
1393.177575
 20
464.577978
 10
1393.235617
 20
464.664956
 10
1393.29014
 20
464.753518
 10
1393.340985
 20
464.843506
 10
1393.387995
 20
464.934757
 10
1393.43101
 20
465.027115
 10
1393.469934
 20
465.120392
 10
1393.504914
 20
465.214312
 10
1393.536161
 20
465.308571
 10
1393.563883
 20
465.402867
 10
1393.588288
 20
465.496895
 10
1393.609585
 20
465.590354
 10
1393.627985
 20
465.682939
 10
1393.643695
 20
465.774347
 10
1393.656925
 20
465.864277
 10
1393.667885
 20
465.952426
 10
1393.676782
 20
466.038488
 10
1393.683826
 20
466.122164
 10
1393.689226
 20
466.203147
 10
1393.693191
 20
466.281136
 10
1393.695928
 20
466.355829
 10
1393.69765
 20
466.42692
 10
1393.698563
 20
466.494109
 10
1393.698877
 20
466.557091
 10
1393.6988
 20
466.615564
 10
1393.696687
 20
467.010248
 10
1393.6948
 20
467.351195
 10
1393.694469
 20
467.404843
 10
1393.693903
 20
467.4633
 10
1393.692898
 20
467.526262
 10
1393.691247
 20
467.593421
 10
1393.688746
 20
467.664474
 10
1393.685186
 20
467.739115
 10
1393.680366
 20
467.81704
 10
1393.674077
 20
467.897942
 10
1393.666113
 20
467.981517
 10
1393.65627
 20
468.067459
 10
1393.644341
 20
468.155465
 10
1393.630122
 20
468.245226
 10
1393.613404
 20
468.33644
 10
1393.593986
 20
468.428801
 10
1393.571658
 20
468.522002
 10
1393.546218
 20
468.615741
 10
1393.517456
 20
468.70971
 10
1393.48517
 20
468.803605
 10
1393.449153
 20
468.897122
 10
1393.409198
 20
468.989954
 10
1393.365162
 20
469.081821
 10
1393.317144
 20
469.17254
 10
1393.265303
 20
469.261952
 10
1393.209799
 20
469.349902
 10
1393.150792
 20
469.436228
 10
1393.088443
 20
469.520774
 10
1393.02291
 20
469.603383
 10
1392.954354
 20
469.683894
 10
1392.882936
 20
469.76215
 10
1392.808814
 20
469.837993
 10
1392.732148
 20
469.911265
 10
1392.6531
 20
469.981809
 10
1392.571828
 20
470.049464
 10
1392.488494
 20
470.114074
 10
1392.403255
 20
470.17548
 10
1392.316273
 20
470.233525
 10
1392.227706
 20
470.288049
 10
1392.137717
 20
470.338894
 10
1392.046463
 20
470.385904
 10
1391.954105
 20
470.42892
 10
1391.860828
 20
470.467843
 10
1391.766909
 20
470.502823
 10
1391.672653
 20
470.534068
 10
1391.578361
 20
470.561789
 10
1391.484337
 20
470.586192
 10
1391.390884
 20
470.607488
 10
1391.298305
 20
470.625886
 10
1391.206901
 20
470.641594
 10
1391.116979
 20
470.654821
 10
1391.028838
 20
470.665777
 10
1390.942782
 20
470.674672
 10
1390.859115
 20
470.681713
 10
1390.778139
 20
470.687109
 10
1390.700157
 20
470.691071
 10
1390.625473
 20
470.693806
 10
1390.554388
 20
470.695524
 10
1390.487207
 20
470.696435
 10
1390.424232
 20
470.696745
 10
1390.365765
 20
470.696667
 10
1389.971126
 20
470.694535
 10
1389.630125
 20
470.692625
 10
1389.576469
 20
470.69229
 10
1389.518002
 20
470.691721
 10
1389.455031
 20
470.690712
 10
1389.387861
 20
470.689056
 10
1389.316797
 20
470.68655
 10
1389.242145
 20
470.682988
 10
1389.164209
 20
470.678162
 10
1389.083295
 20
470.671868
 10
1388.999709
 20
470.663901
 10
1388.913755
 20
470.654053
 10
1388.825738
 20
470.642122
 10
1388.735966
 20
470.627899
 10
1388.644741
 20
470.61118
 10
1388.55237
 20
470.591757
 10
1388.459158
 20
470.569429
 10
1388.36541
 20
470.543986
 10
1388.271432
 20
470.515224
 10
1388.177528
 20
470.482938
 10
1388.084005
 20
470.446922
 10
1387.991166
 20
470.406969
 10
1387.899294
 20
470.362936
 10
1387.808571
 20
470.314921
 10
1387.719155
 20
470.263084
 10
1387.631204
 20
470.207585
 10
1387.544875
 20
470.148586
 10
1387.460328
 20
470.086242
 10
1387.37772
 20
470.020717
 10
1387.297209
 20
469.95217
 10
1387.218954
 20
469.880759
 10
1387.143113
 20
469.806647
 10
1387.069843
 20
469.729991
 10
1386.999302
 20
469.650952
 10
1386.93165
 20
469.56969
 10
1386.867044
 20
469.486366
 10
1386.805641
 20
469.401138
 10
1386.747601
 20
469.314167
 10
1386.693081
 20
469.225612
 10
1386.642239
 20
469.135634
 10
1386.595234
 20
469.044392
 10
1386.552223
 20
468.952046
 10
1386.513304
 20
468.85878
 10
1386.478328
 20
468.764872
 10
1386.447088
 20
468.670628
 10
1386.419372
 20
468.576347
 10
1386.394974
 20
468.482335
 10
1386.373681
 20
468.388892
 10
1386.355289
 20
468.296324
 10
1386.339585
 20
468.204931
 10
1386.326361
 20
468.115019
 10
1386.315409
 20
468.026888
 10
1386.306519
 20
467.940842
 10
1386.299481
 20
467.857185
 10
1386.294088
 20
467.776218
 10
1386.290131
 20
467.698246
 10
1386.287399
 20
467.62357
 10
1386.285684
 20
467.552493
 10
1386.284777
 20
467.485319
 10
1386.284469
 20
467.422351
 10
1386.284551
 20
467.363891
 10
1386.286699
 20
466.969296
  0
LWPOLYLINE
  5
2C
330
1F
100
AcDbEntity
  8
0
100
AcDbPolyline
 90
      245
 70
   128
 43
0.0
 10
1769.406388
 20
255.232443
 10
1769.403227
 20
254.647858
 10
1769.40267
 20
254.555873
 10
1769.401714
 20
254.455643
 10
1769.400004
 20
254.347692
 10
1769.397188
 20
254.23254
 10
1769.392915
 20
254.110714
 10
1769.38683
 20
253.982735
 10
1769.378581
 20
253.849128
 10
1769.367815
 20
253.710416
 10
1769.354179
 20
253.567121
 10
1769.337322
 20
253.419768
 10
1769.31689
 20
253.26888
 10
1769.29253
 20
253.11498
 10
1769.263889
 20
252.958591
 10
1769.230615
 20
252.800236
 10
1769.192356
 20
252.64044
 10
1769.148757
 20
252.479725
 10
1769.099467
 20
252.318615
 10
1769.044133
 20
252.157633
 10
1768.982401
 20
251.997303
 10
1768.91392
 20
251.838147
 10
1768.838441
 20
251.680648
 10
1768.756134
 20
251.525117
 10
1768.667272
 20
251.371828
 10
1768.572131
 20
251.221048
 10
1768.470983
 20
251.073052
 10
1768.364103
 20
250.928108
 10
1768.251767
 20
250.78649
 10
1768.134247
 20
250.648466
 10
1768.011818
 20
250.514309
 10
1767.884754
 20
250.384288
 10
1767.753329
 20
250.258676
 10
1767.617818
 20
250.137744
 10
1767.478494
 20
250.021762
 10
1767.335632
 20
249.911002
 10
1767.189505
 20
249.805734
 10
1767.040389
 20
249.70623
 10
1766.888557
 20
249.61276
 10
1766.734284
 20
249.525595
 10
1766.577843
 20
249.445008
 10
1766.419509
 20
249.371267
 10
1766.259597
 20
249.304541
 10
1766.098584
 20
249.244574
 10
1765.936992
 20
249.19101
 10
1765.775339
 20
249.143489
 10
1765.614145
 20
249.101654
 10
1765.453928
 20
249.065145
 10
1765.295209
 20
249.033605
 10
1765.138507
 20
249.006675
 10
1764.98434
 20
248.983998
 10
1764.83323
 20
248.965214
 10
1764.685694
 20
248.949964
 10
1764.542253
 20
248.937893
 10
1764.403425
 20
248.928641
 10
1764.269731
 20
248.921847
 10
1764.141689
 20
248.917156
 10
1764.019819
 20
248.91421
 10
1763.904641
 20
248.912647
 10
1763.796673
 20
248.912113
 10
1763.696435
 20
248.912247
 10
1763.019848
 20
248.91589
 10
1762.43531
 20
248.919159
 10
1762.343333
 20
248.919732
 10
1762.243111
 20
248.920708
 10
1762.135167
 20
248.922436
 10
1762.020025
 20
248.925273
 10
1761.898208
 20
248.929568
 10
1761.770241
 20
248.935675
 10
1761.636644
 20
248.943947
 10
1761.497943
 20
248.954736
 10
1761.35466
 20
248.968395
 10
1761.207319
 20
248.985275
 10
1761.056444
 20
249.00573
 10
1760.902556
 20
249.030114
 10
1760.746181
 20
249.058776
 10
1760.58784
 20
249.092072
 10
1760.428058
 20
249.130353
 10
1760.267357
 20
249.173971
 10
1760.106262
 20
249.223278
 10
1759.945294
 20
249.278631
 10
1759.784979
 20
249.340377
 10
1759.625838
 20
249.408871
 10
1759.468354
 20
249.484363
 10
1759.312838
 20
249.56668
 10
1759.159564
 20
249.655549
 10
1759.0088
 20
249.750697
 10
1758.860818
 20
249.851849
 10
1758.71589
 20
249.95873
 10
1758.574285
 20
250.071067
 10
1758.436276
 20
250.188587
 10
1758.302132
 20
250.311014
 10
1758.172126
 20
250.438073
 10
1758.046527
 20
250.569494
 10
1757.925608
 20
250.704998
 10
1757.809639
 20
250.844313
 10
1757.69889
 20
250.987166
 10
1757.593633
 20
251.133281
 10
1757.494139
 20
251.282385
 10
1757.400679
 20
251.434204
 10
1757.313523
 20
251.588463
 10
1757.232944
 20
251.744889
 10
1757.159211
 20
251.903205
 10
1757.092491
 20
252.0631
 10
1757.03253
 20
252.224093
 10
1756.978971
 20
252.385667
 10
1756.931453
 20
252.547299
 10
1756.889621
 20
252.708473
 10
1756.853115
 20
252.868668
 10
1756.821578
 20
253.027366
 10
1756.794649
 20
253.184046
 10
1756.771972
 20
253.338192
 10
1756.753188
 20
253.48928
 10
1756.73794
 20
253.636794
 10
1756.725868
 20
253.780215
 10
1756.716614
 20
253.919022
 10
1756.70982
 20
254.052696
 10
1756.705129
 20
254.180718
 10
1756.702181
 20
254.302569
 10
1756.700617
 20
254.417729
 10
1756.700081
 20
254.52568
 10
1756.700213
 20
254.625902
 10
1756.703848
 20
255.302383
 10
1756.707086
 20
255.886997
 10
1756.707654
 20
255.978987
 10
1756.708624
 20
256.079223
 10
1756.710349
 20
256.18718
 10
1756.713178
 20
256.302337
 10
1756.717468
 20
256.424169
 10
1756.723569
 20
256.552153
 10
1756.731834
 20
256.685766
 10
1756.742617
 20
256.824484
 10
1756.756267
 20
256.967784
 10
1756.773142
 20
257.115142
 10
1756.793591
 20
257.266035
 10
1756.817967
 20
257.419939
 10
1756.846623
 20
257.576332
 10
1756.879912
 20
257.73469
 10
1756.918185
 20
257.894487
 10
1756.961797
 20
258.055204
 10
1757.0111
 20
258.216314
 10
1757.066446
 20
258.377295
 10
1757.128187
 20
258.537624
 10
1757.196677
 20
258.696776
 10
1757.272163
 20
258.854272
 10
1757.354477
 20
259.009797
 10
1757.443343
 20
259.163081
 10
1757.538488
 20
259.313852
 10
1757.639637
 20
259.46184
 10
1757.746517
 20
259.606774
 10
1757.858852
 20
259.748384
 10
1757.97637
 20
259.886397
 10
1758.098796
 20
260.020544
 10
1758.225855
 20
260.150552
 10
1758.357274
 20
260.276151
 10
1758.492778
 20
260.39707
 10
1758.632094
 20
260.513039
 10
1758.774947
 20
260.623786
 10
1758.921064
 20
260.729041
 10
1759.070169
 20
260.828532
 10
1759.221988
 20
260.921989
 10
1759.376249
 20
261.00914
 10
1759.532676
 20
261.089715
 10
1759.690996
 20
261.163443
 10
1759.850892
 20
261.230157
 10
1760.011889
 20
261.290111
 10
1760.173464
 20
261.343663
 10
1760.3351
 20
261.391173
 10
1760.496277
 20
261.432998
 10
1760.656475
 20
261.469496
 10
1760.815177
 20
261.501025
 10
1760.971861
 20
261.527945
 10
1761.126008
 20
261.550613
 10
1761.277101
 20
261.569388
 10
1761.424619
 20
261.584628
 10
1761.568042
 20
261.596691
 10
1761.706852
 20
261.605936
 10
1761.84053
 20
261.612722
 10
1761.968556
 20
261.617406
 10
1762.090409
 20
261.620346
 10
1762.205573
 20
261.621902
 10
1762.313527
 20
261.622431
 10
1762.413751
 20
261.622292
 10
1763.090249
 20
261.618613
 10
1763.674787
 20
261.615344
 10
1763.766764
 20
261.614771
 10
1763.866986
 20
261.613796
 10
1763.97493
 20
261.612067
 10
1764.090072
 20
261.609232
 10
1764.211891
 20
261.604937
 10
1764.33986
 20
261.598831
 10
1764.473457
 20
261.59056
 10
1764.612161
 20
261.579773
 10
1764.755446
 20
261.566117
 10
1764.90279
 20
261.549239
 10
1765.05367
 20
261.528787
 10
1765.207563
 20
261.504408
 10
1765.363944
 20
261.47575
 10
1765.522292
 20
261.442461
 10
1765.682082
 20
261.404187
 10
1765.842792
 20
261.360576
 10
1766.003897
 20
261.311276
 10
1766.164875
 20
261.255935
 10
1766.325204
 20
261.194198
 10
1766.484359
 20
261.125716
 10
1766.641859
 20
261.050238
 10
1766.797391
 20
260.967935
 10
1766.950684
 20
260.879081
 10
1767.101467
 20
260.78395
 10
1767.249468
 20
260.682815
 10
1767.394417
 20
260.57595
 10
1767.536042
 20
260.46363
 10
1767.674072
 20
260.346129
 10
1767.808235
 20
260.223721
 10
1767.938261
 20
260.096678
 10
1768.063879
 20
259.965277
 10
1768.184818
 20
259.829789
 10
1768.300804
 20
259.69049
 10
1768.411569
 20
259.547654
 10
1768.516841
 20
259.401553
 10
1768.616348
 20
259.252463
 10
1768.70982
 20
259.100659
 10
1768.796985
 20
258.946412
 10
1768.877572
 20
258.789997
 10
1768.95131
 20
258.631688
 10
1769.018032
 20
258.471801
 10
1769.077993
 20
258.310813
 10
1769.131549
 20
258.149244
 10
1769.179062
 20
257.987614
 10
1769.220888
 20
257.826442
 10
1769.257385
 20
257.666246
 10
1769.288914
 20
257.507548
 10
1769.31583
 20
257.350866
 10
1769.338495
 20
257.196719
 10
1769.357265
 20
257.045626
 10
1769.3725
 20
256.898108
 10
1769.384559
 20
256.754683
 10
1769.393797
 20
256.615872
 10
1769.400576
 20
256.482192
 10
1769.405253
 20
256.354164
 10
1769.408186
 20
256.232308
 10
1769.409735
 20
256.117142
 10
1769.410257
 20
256.009186
 10
1769.410111
 20
255.908959
 10
1769.406388
 20
255.232443
  0
LWPOLYLINE
  5
2D
330
1F
100
AcDbEntity
  8
0
100
AcDbPolyline
 90
      245
 70
   128
 43
0.0
 10
1796.261795
 20
466.969296
 10
1796.259901
 20
466.628257
 10
1796.259568
 20
466.574594
 10
1796.259001
 20
466.516122
 10
1796.257994
 20
466.453143
 10
1796.256342
 20
466.385966
 10
1796.253839
 20
466.314895
 10
1796.250279
 20
466.240234
 10
1796.245457
 20
466.16229
 10
1796.239167
 20
466.081368
 10
1796.231202
 20
465.997773
 10
1796.221359
 20
465.91181
 10
1796.20943
 20
465.823786
 10
1796.195211
 20
465.734003
 10
1796.178495
 20
465.64277
 10
1796.159077
 20
465.550391
 10
1796.136751
 20
465.457171
 10
1796.111311
 20
465.363415
 10
1796.082553
 20
465.269429
 10
1796.050269
 20
465.175519
 10
1796.014255
 20
465.081989
 10
1795.974305
 20
464.989145
 10
1795.930274
 20
464.897268
 10
1795.882261
 20
464.806539
 10
1795.830426
 20
464.717119
 10
1795.774929
 20
464.629164
 10
1795.715929
 20
464.542833
 10
1795.653588
 20
464.458283
 10
1795.588063
 20
464.375673
 10
1795.519515
 20
464.295162
 10
1795.448105
 20
464.216908
 10
1795.373991
 20
464.141067
 10
1795.297335
 20
464.067799
 10
1795.218296
 20
463.997261
 10
1795.137033
 20
463.929613
 10
1795.053706
 20
463.865011
 10
1794.968476
 20
463.803614
 10
1794.881502
 20
463.74558
 10
1794.792944
 20
463.691068
 10
1794.702962
 20
463.640235
 10
1794.611717
 20
463.593241
 10
1794.519367
 20
463.55024
 10
1794.426095
 20
463.511333
 10
1794.332183
 20
463.476371
 10
1794.237932
 20
463.445144
 10
1794.143647
 20
463.417444
 10
1794.049628
 20
463.39306
 10
1793.956179
 20
463.371785
 10
1793.863604
 20
463.353408
 10
1793.772205
 20
463.337721
 10
1793.682286
 20
463.324515
 10
1793.594148
 20
463.31358
 10
1793.508095
 20
463.304707
 10
1793.424431
 20
463.297687
 10
1793.343457
 20
463.292311
 10
1793.265478
 20
463.28837
 10
1793.190796
 20
463.285653
 10
1793.119713
 20
463.283955
 10
1793.052534
 20
463.283062
 10
1792.98956
 20
463.282768
 10
1792.931095
 20
463.282862
 10
1792.536465
 20
463.2851
 10
1792.195456
 20
463.286918
 10
1792.141798
 20
463.287239
 10
1792.083331
 20
463.287792
 10
1792.020358
 20
463.288784
 10
1791.953186
 20
463.290422
 10
1791.882121
 20
463.292909
 10
1791.807467
 20
463.296453
 10
1791.729529
 20
463.301259
 10
1791.648614
 20
463.307532
 10
1791.565025
 20
463.315479
 10
1791.47907
 20
463.325305
 10
1791.391052
 20
463.337217
 10
1791.301277
 20
463.351419
 10
1791.210051
 20
463.368119
 10
1791.117678
 20
463.38752
 10
1791.024464
 20
463.409829
 10
1790.930715
 20
463.435254
 10
1790.836735
 20
463.463998
 10
1790.74283
 20
463.496267
 10
1790.649305
 20
463.532268
 10
1790.556466
 20
463.572205
 10
1790.464593
 20
463.616226
 10
1790.373868
 20
463.664229
 10
1790.284451
 20
463.716056
 10
1790.196499
 20
463.771544
 10
1790.110169
 20
463.830538
 10
1790.025621
 20
463.892874
 10
1789.943012
 20
463.958395
 10
1789.8625
 20
464.026938
 10
1789.784244
 20
464.098346
 10
1789.7084
 20
464.172458
 10
1789.63513
 20
464.249113
 10
1789.564587
 20
464.328153
 10
1789.496933
 20
464.409418
 10
1789.432324
 20
464.492745
 10
1789.370919
 20
464.577978
 10
1789.312877
 20
464.664956
 10
1789.258354
 20
464.753518
 10
1789.207509
 20
464.843506
 10
1789.160499
 20
464.934757
 10
1789.117484
 20
465.027115
 10
1789.07856
 20
465.120392
 10
1789.04358
 20
465.214312
 10
1789.012333
 20
465.308571
 10
1788.984611
 20
465.402867
 10
1788.960206
 20
465.496895
 10
1788.938909
 20
465.590354
 10
1788.920509
 20
465.682939
 10
1788.904799
 20
465.774347
 10
1788.891569
 20
465.864277
 10
1788.880609
 20
465.952426
 10
1788.871712
 20
466.038488
 10
1788.864668
 20
466.122164
 10
1788.859268
 20
466.203147
 10
1788.855303
 20
466.281136
 10
1788.852566
 20
466.355829
 10
1788.850844
 20
466.42692
 10
1788.849931
 20
466.494109
 10
1788.849617
 20
466.557091
 10
1788.849694
 20
466.615564
 10
1788.851807
 20
467.010248
 10
1788.853694
 20
467.351195
 10
1788.854025
 20
467.404843
 10
1788.854591
 20
467.4633
 10
1788.855596
 20
467.526262
 10
1788.857247
 20
467.593421
 10
1788.859748
 20
467.664474
 10
1788.863308
 20
467.739115
 10
1788.868128
 20
467.81704
 10
1788.874417
 20
467.897942
 10
1788.882381
 20
467.981517
 10
1788.892224
 20
468.067459
 10
1788.904153
 20
468.155465
 10
1788.918372
 20
468.245226
 10
1788.93509
 20
468.33644
 10
1788.954508
 20
468.428801
 10
1788.976836
 20
468.522002
 10
1789.002276
 20
468.615741
 10
1789.031038
 20
468.70971
 10
1789.063324
 20
468.803605
 10
1789.099341
 20
468.897122
 10
1789.139296
 20
468.989954
 10
1789.183332
 20
469.081821
 10
1789.23135
 20
469.17254
 10
1789.283191
 20
469.261952
 10
1789.338695
 20
469.349902
 10
1789.397702
 20
469.436228
 10
1789.460051
 20
469.520774
 10
1789.525584
 20
469.603383
 10
1789.59414
 20
469.683894
 10
1789.665558
 20
469.76215
 10
1789.73968
 20
469.837993
 10
1789.816346
 20
469.911265
 10
1789.895394
 20
469.981809
 10
1789.976666
 20
470.049464
 10
1790.06
 20
470.114074
 10
1790.145239
 20
470.17548
 10
1790.232221
 20
470.233525
 10
1790.320788
 20
470.288049
 10
1790.410777
 20
470.338894
 10
1790.502031
 20
470.385904
 10
1790.594389
 20
470.42892
 10
1790.687666
 20
470.467843
 10
1790.781585
 20
470.502823
 10
1790.875841
 20
470.534068
 10
1790.970133
 20
470.561789
 10
1791.064157
 20
470.586192
 10
1791.15761
 20
470.607488
 10
1791.250189
 20
470.625886
 10
1791.341593
 20
470.641594
 10
1791.431515
 20
470.654821
 10
1791.519656
 20
470.665777
 10
1791.605712
 20
470.674672
 10
1791.689379
 20
470.681713
 10
1791.770355
 20
470.687109
 10
1791.848337
 20
470.691071
 10
1791.923021
 20
470.693806
 10
1791.994106
 20
470.695524
 10
1792.061287
 20
470.696435
 10
1792.124262
 20
470.696745
 10
1792.182729
 20
470.696667
 10
1792.577368
 20
470.694535
 10
1792.918369
 20
470.692625
 10
1792.972025
 20
470.69229
 10
1793.030492
 20
470.691721
 10
1793.093463
 20
470.690712
 10
1793.160633
 20
470.689056
 10
1793.231697
 20
470.68655
 10
1793.306349
 20
470.682988
 10
1793.384285
 20
470.678162
 10
1793.465199
 20
470.671868
 10
1793.548785
 20
470.663901
 10
1793.634739
 20
470.654053
 10
1793.722756
 20
470.642122
 10
1793.812528
 20
470.627899
 10
1793.903753
 20
470.61118
 10
1793.996124
 20
470.591757
 10
1794.089336
 20
470.569429
 10
1794.183084
 20
470.543986
 10
1794.277062
 20
470.515224
 10
1794.370966
 20
470.482938
 10
1794.464489
 20
470.446922
 10
1794.557328
 20
470.406969
 10
1794.6492
 20
470.362936
 10
1794.739923
 20
470.314921
 10
1794.829339
 20
470.263084
 10
1794.91729
 20
470.207585
 10
1795.003619
 20
470.148586
 10
1795.088166
 20
470.086242
 10
1795.170774
 20
470.020717
 10
1795.251285
 20
469.95217
 10
1795.32954
 20
469.880759
 10
1795.405381
 20
469.806647
 10
1795.478651
 20
469.729991
 10
1795.549192
 20
469.650952
 10
1795.616844
 20
469.56969
 10
1795.68145
 20
469.486366
 10
1795.742853
 20
469.401138
 10
1795.800893
 20
469.314167
 10
1795.855413
 20
469.225612
 10
1795.906255
 20
469.135634
 10
1795.95326
 20
469.044392
 10
1795.996271
 20
468.952046
 10
1796.03519
 20
468.85878
 10
1796.070166
 20
468.764872
 10
1796.101406
 20
468.670628
 10
1796.129122
 20
468.576347
 10
1796.15352
 20
468.482335
 10
1796.174813
 20
468.388892
 10
1796.193205
 20
468.296324
 10
1796.208909
 20
468.204931
 10
1796.222133
 20
468.115019
 10
1796.233085
 20
468.026888
 10
1796.241975
 20
467.940842
 10
1796.249013
 20
467.857185
 10
1796.254406
 20
467.776218
 10
1796.258363
 20
467.698246
 10
1796.261095
 20
467.62357
 10
1796.26281
 20
467.552493
 10
1796.263717
 20
467.485319
 10
1796.264025
 20
467.422351
 10
1796.263943
 20
467.363891
 10
1796.261795
 20
466.969296
  0
LWPOLYLINE
  5
2E
330
1F
100
AcDbEntity
  8
0
100
AcDbPolyline
 90
        5
 70
   128
 43
0.0
 10
1799.122073
 20
405.063409
 10
1807.12195
 20
405.019012
 10
1807.400949
 20
455.291657
 10
1799.401073
 20
455.336054
 10
1799.122073
 20
405.063409
  0
LWPOLYLINE
  5
2F
330
1F
100
AcDbEntity
  8
0
100
AcDbPolyline
 90
        5
 70
   128
 43
0.0
 10
1788.122242
 20
405.124455
 10
1788.401242
 20
455.3971
 10
1796.401119
 20
455.352703
 10
1796.122119
 20
405.080058
 10
1788.122242
 20
405.124455
  0
LWPOLYLINE
  5
30
330
1F
100
AcDbEntity
  8
0
100
AcDbPolyline
 90
        5
 70
   128
 43
0.0
 10
1798.843073
 20
354.790763
 10
1806.84295
 20
354.746366
 10
1807.105301
 20
402.019058
 10
1799.105424
 20
402.063455
 10
1798.843073
 20
354.790763
  0
LWPOLYLINE
  5
31
330
1F
100
AcDbEntity
  8
0
100
AcDbPolyline
 90
        5
 70
   128
 43
0.0
 10
1787.843243
 20
354.851809
 10
1788.105593
 20
402.124501
 10
1796.10547
 20
402.080104
 10
1795.84312
 20
354.807412
 10
1787.843243
 20
354.851809
  0
LWPOLYLINE
  5
32
330
1F
100
AcDbEntity
  8
0
100
AcDbPolyline
 90
        5
 70
   128
 43
0.0
 10
1798.564074
 20
304.518118
 10
1806.56395
 20
304.47372
 10
1806.826301
 20
351.746412
 10
1798.826424
 20
351.790809
 10
1798.564074
 20
304.518118
  0
LWPOLYLINE
  5
33
330
1F
100
AcDbEntity
  8
0
100
AcDbPolyline
 90
        5
 70
   128
 43
0.0
 10
1787.564243
 20
304.579164
 10
1795.56412
 20
304.534767
 10
1795.826471
 20
351.807458
 10
1787.826594
 20
351.851855
 10
1787.564243
 20
304.579164
  0
LWPOLYLINE
  5
34
330
1F
100
AcDbEntity
  8
0
100
AcDbPolyline
 90
        5
 70
   128
 43
0.0
 10
1798.285074
 20
254.245472
 10
1806.284951
 20
254.201075
 10
1806.547302
 20
301.473767
 10
1798.547425
 20
301.518164
 10
1798.285074
 20
254.245472
  0
LWPOLYLINE
  5
35
330
1F
100
AcDbEntity
  8
0
100
AcDbPolyline
 90
        5
 70
   128
 43
0.0
 10
1787.285243
 20
254.306518
 10
1787.547594
 20
301.57921
 10
1795.547471
 20
301.534813
 10
1795.28512
 20
254.262121
 10
1787.285243
 20
254.306518
  0
LWPOLYLINE
  5
36
330
1F
100
AcDbEntity
  8
0
100
AcDbPolyline
 90
        5
 70
   128
 43
0.0
 10
1798.006074
 20
203.972826
 10
1798.268425
 20
251.245518
 10
1806.268302
 20
251.201121
 10
1806.005951
 20
203.928429
 10
1798.006074
 20
203.972826
  0
LWPOLYLINE
  5
37
330
1F
100
AcDbEntity
  8
0
100
AcDbPolyline
 90
        5
 70
   128
 43
0.0
 10
1787.006244
 20
204.033872
 10
1795.006121
 20
203.989475
 10
1795.268471
 20
251.262167
 10
1787.268594
 20
251.306564
 10
1787.006244
 20
204.033872
  0
LWPOLYLINE
  5
38
330
1F
100
AcDbEntity
  8
0
100
AcDbPolyline
 90
        5
 70
   128
 43
0.0
 10
1797.727075
 20
153.700181
 10
1805.726952
 20
153.655784
 10
1805.989302
 20
200.928475
 10
1797.989425
 20
200.972873
 10
1797.727075
 20
153.700181
  0
LWPOLYLINE
  5
39
330
1F
100
AcDbEntity
  8
0
100
AcDbPolyline
 90
        5
 70
   128
 43
0.0
 10
1786.727244
 20
153.761227
 10
1794.727121
 20
153.71683
 10
1794.989472
 20
200.989522
 10
1786.989595
 20
201.033919
 10
1786.727244
 20
153.761227
  0
LWPOLYLINE
  5
3A
330
1F
100
AcDbEntity
  8
0
100
AcDbPolyline
 90
        5
 70
   128
 43
0.0
 10
1797.448075
 20
103.427535
 10
1805.447952
 20
103.383138
 10
1805.710303
 20
150.65583
 10
1797.710426
 20
150.700227
 10
1797.448075
 20
103.427535
  0
LWPOLYLINE
  5
3B
330
1F
100
AcDbEntity
  8
0
100
AcDbPolyline
 90
        5
 70
   128
 43
0.0
 10
1786.448244
 20
103.488581
 10
1786.710595
 20
150.761273
 10
1794.710472
 20
150.716876
 10
1794.448121
 20
103.444184
 10
1786.448244
 20
103.488581
  0
LWPOLYLINE
  5
3C
330
1F
100
AcDbEntity
  8
0
100
AcDbPolyline
 90
        5
 70
   128
 43
0.0
 10
1386.426375
 20
405.080058
 10
1386.147375
 20
455.352703
 10
1394.147252
 20
455.3971
 10
1394.426252
 20
405.124455
 10
1386.426375
 20
405.080058
  0
LWPOLYLINE
  5
3D
330
1F
100
AcDbEntity
  8
0
100
AcDbPolyline
 90
        5
 70
   128
 43
0.0
 10
1375.426544
 20
405.019012
 10
1375.147545
 20
455.291657
 10
1383.147421
 20
455.336054
 10
1383.426421
 20
405.063409
 10
1375.426544
 20
405.019012
  0
LWPOLYLINE
  5
3E
330
1F
100
AcDbEntity
  8
0
100
AcDbPolyline
 90
        5
 70
   128
 43
0.0
 10
1386.705374
 20
354.807412
 10
1394.705251
 20
354.851809
 10
1394.442901
 20
402.124501
 10
1386.443024
 20
402.080104
 10
1386.705374
 20
354.807412
  0
LWPOLYLINE
  5
3F
330
1F
100
AcDbEntity
  8
0
100
AcDbPolyline
 90
        5
 70
   128
 43
0.0
 10
1375.705544
 20
354.746366
 10
1375.443193
 20
402.019058
 10
1383.44307
 20
402.063455
 10
1383.705421
 20
354.790763
 10
1375.705544
 20
354.746366
  0
LWPOLYLINE
  5
40
330
1F
100
AcDbEntity
  8
0
100
AcDbPolyline
 90
        5
 70
   128
 43
0.0
 10
1779.359
 20
33.369552
 10
1779.656918
 20
87.0511
 10
1784.356845
 20
87.025016
 10
1784.058927
 20
33.343468
 10
1779.359
 20
33.369552
  0
LWPOLYLINE
  5
41
330
1F
100
AcDbEntity
  8
0
100
AcDbPolyline
 90
      314
 70
   128
 43
0.0
 10
1777.670752
 20
22.132868
 10
1777.159944
 20
22.506693
 10
1776.650855
 20
22.899922
 10
1776.143397
 20
23.312549
 10
1775.637479
 20
23.744569
 10
1775.133012
 20
24.195975
 10
1774.629908
 20
24.666762
 10
1774.128075
 20
25.156924
 10
1773.627425
 20
25.666456
 10
1773.127869
 20
26.195353
 10
1772.629316
 20
26.743608
 10
1772.131888
 20
27.310742
 10
1771.636551
 20
27.894383
 10
1771.144482
 20
28.491684
 10
1770.656855
 20
29.099799
 10
1770.174851
 20
29.715882
 10
1769.699644
 20
30.337086
 10
1769.23241
 20
30.960565
 10
1768.774328
 20
31.583474
 10
1768.326572
 20
32.202964
 10
1767.890321
 20
32.816191
 10
1767.466749
 20
33.420308
 10
1767.057035
 20
34.012469
 10
1766.662355
 20
34.589826
 10
1766.283885
 20
35.149535
 10
1765.922803
 20
35.688749
 10
1765.580285
 20
36.204621
 10
1765.257506
 20
36.694304
 10
1764.955646
 20
37.154954
 10
1764.675878
 20
37.583724
 10
1762.789583
 20
40.482637
 10
1758.876836
 20
65.549935
 10
1758.261414
 20
69.494609
 10
1757.592307
 20
73.794734
 10
1756.874524
 20
78.429757
 10
1756.113072
 20
83.37912
 10
1755.312957
 20
88.622265
 10
1754.479188
 20
94.138636
 10
1753.616772
 20
99.907678
 10
1752.730716
 20
105.908833
 10
1751.826027
 20
112.121546
 10
1750.907713
 20
118.525258
 10
1749.980781
 20
125.099414
 10
1749.05024
 20
131.823456
 10
1748.121094
 20
138.676829
 10
1747.198352
 20
145.638976
 10
1746.287021
 20
152.68934
 10
1745.39211
 20
159.807364
 10
1744.518624
 20
166.972493
 10
1743.671572
 20
174.16417
 10
1742.855961
 20
181.361837
 10
1742.076797
 20
188.544938
 10
1741.338447
 20
195.696179
 10
1740.642711
 20
202.811316
 10
1739.990747
 20
209.889368
 10
1739.383713
 20
216.929351
 10
1738.822767
 20
223.930286
 10
1738.309067
 20
230.89119
 10
1737.843774
 20
237.811081
 10
1737.428044
 20
244.688978
 10
1737.063034
 20
251.523898
 10
1736.749905
 20
258.314862
 10
1736.489814
 20
265.060885
 10
1736.283919
 20
271.760986
 10
1736.133379
 20
278.414186
 10
1736.039352
 20
285.0195
 10
1736.002997
 20
291.575948
 10
1736.02547
 20
298.082547
 10
1736.107932
 20
304.538318
 10
1736.25154
 20
310.942275
 10
1736.457452
 20
317.29344
 10
1736.726827
 20
323.59083
 10
1737.059696
 20
329.831699
 10
1737.451586
 20
336.006242
 10
1737.896897
 20
342.102891
 10
1738.390027
 20
348.110077
 10
1738.925378
 20
354.016232
 10
1739.497347
 20
359.809786
 10
1740.100336
 20
365.479172
 10
1740.728743
 20
371.01282
 10
1741.37697
 20
376.399162
 10
1742.039414
 20
381.626629
 10
1742.710477
 20
386.683653
 10
1743.384556
 20
391.558663
 10
1744.056054
 20
396.240093
 10
1744.719369
 20
400.716375
 10
1745.368899
 20
404.975937
 10
1745.999047
 20
409.007212
 10
1746.604211
 20
412.798633
 10
1747.17879
 20
416.338627
 10
1747.717185
 20
419.61563
 10
1751.372801
 20
441.693429
 10
1751.967066
 20
445.282133
 10
1752.060587
 20
445.84687
 10
1752.162566
 20
446.462534
 10
1752.272548
 20
447.126222
 10
1752.390076
 20
447.835028
 10
1752.514695
 20
448.58605
 10
1752.645949
 20
449.376384
 10
1752.783384
 20
450.203126
 10
1752.926541
 20
451.063372
 10
1753.074966
 20
451.95422
 10
1753.228204
 20
452.872764
 10
1753.385799
 20
453.816101
 10
1753.547294
 20
454.781327
 10
1753.712234
 20
455.76554
 10
1753.880163
 20
456.765835
 10
1754.050626
 20
457.779307
 10
1754.223167
 20
458.803054
 10
1754.397329
 20
459.834172
 10
1754.572658
 20
460.869756
 10
1754.748698
 20
461.906905
 10
1754.924991
 20
462.942712
 10
1755.101346
 20
463.97477
 10
1755.278605
 20
465.002641
 10
1755.457878
 20
466.026387
 10
1755.64027
 20
467.046065
 10
1755.826891
 20
468.061736
 10
1756.018845
 20
469.073456
 10
1756.21724
 20
470.081286
 10
1756.423184
 20
471.085285
 10
1756.637782
 20
472.08551
 10
1756.862143
 20
473.082022
 10
1757.097373
 20
474.07488
 10
1757.344579
 20
475.06414
 10
1757.604869
 20
476.049866
 10
1757.879348
 20
477.032112
 10
1758.169125
 20
478.01094
 10
1758.475307
 20
478.986407
 10
1758.799
 20
479.958575
 10
1759.141311
 20
480.9275
 10
1759.503348
 20
481.893241
 10
1759.886216
 20
482.855858
 10
1760.290403
 20
483.815038
 10
1760.713898
 20
484.76898
 10
1761.154074
 20
485.715511
 10
1761.6083
 20
486.652459
 10
1762.073948
 20
487.57765
 10
1762.548387
 20
488.488912
 10
1763.028988
 20
489.384071
 10
1763.513122
 20
490.260956
 10
1763.998157
 20
491.117394
 10
1764.481465
 20
491.951211
 10
1764.960418
 20
492.760234
 10
1765.432384
 20
493.542292
 10
1765.894735
 20
494.295211
 10
1766.344841
 20
495.016819
 10
1766.780072
 20
495.704942
 10
1767.197798
 20
496.357408
 10
1767.59539
 20
496.972045
 10
1767.970218
 20
497.546677
 10
1768.319653
 20
498.079136
 10
1770.684561
 20
501.668652
 10
1771.277198
 20
502.568291
 10
1771.370473
 20
502.709857
 10
1771.472247
 20
502.86415
 10
1771.582131
 20
503.030405
 10
1771.699733
 20
503.207855
 10
1771.824663
 20
503.395735
 10
1771.956531
 20
503.593276
 10
1772.094945
 20
503.799714
 10
1772.239517
 20
504.014282
 10
1772.389856
 20
504.236212
 10
1772.545571
 20
504.464739
 10
1772.706271
 20
504.699096
 10
1772.871568
 20
504.938517
 10
1773.04107
 20
505.182235
 10
1773.214386
 20
505.429485
 10
1773.391128
 20
505.679499
 10
1773.570903
 20
505.93151
 10
1773.753321
 20
506.184753
 10
1773.937994
 20
506.438462
 10
1774.124529
 20
506.69187
 10
1774.312538
 20
506.94421
 10
1774.501695
 20
507.194839
 10
1774.691949
 20
507.443611
 10
1774.883311
 20
507.690505
 10
1775.075796
 20
507.935497
 10
1775.269418
 20
508.178566
 10
1775.464189
 20
508.419688
 10
1775.660123
 20
508.65884
 10
1775.857233
 20
508.896001
 10
1776.055534
 20
509.131148
 10
1776.255037
 20
509.364258
 10
1776.455757
 20
509.59531
 10
1776.657707
 20
509.82428
 10
1776.860902
 20
510.051146
 10
1777.065353
 20
510.275886
 10
1777.271075
 20
510.498476
 10
1777.478082
 20
510.718896
 10
1777.686384
 20
510.937121
 10
1777.895999
 20
511.15313
 10
1778.106937
 20
511.3669
 10
1778.319214
 20
511.578409
 10
1778.532733
 20
511.78758
 10
1778.74697
 20
511.994111
 10
1778.961291
 20
512.197648
 10
1779.175063
 20
512.397839
 10
1779.38765
 20
512.594328
 10
1779.598421
 20
512.786759
 10
1779.80674
 20
512.974778
 10
1780.011973
 20
513.158031
 10
1780.213489
 20
513.336163
 10
1780.410653
 20
513.50882
 10
1780.60283
 20
513.675646
 10
1780.789389
 20
513.836288
 10
1780.969693
 20
513.990389
 10
1781.143111
 20
514.137597
 10
1781.309007
 20
514.277557
 10
1781.466749
 20
514.409911
 10
1781.615703
 20
514.534309
 10
1781.755235
 20
514.650394
 10
1781.884711
 20
514.757812
 10
1782.758372
 20
515.481315
 10
1783.938
 20
516.458117
 10
1784.123675
 20
516.611789
 10
1784.326341
 20
516.779065
 10
1784.545296
 20
516.958898
 10
1784.779836
 20
517.150243
 10
1785.02926
 20
517.352051
 10
1785.292864
 20
517.563275
 10
1785.569944
 20
517.782866
 10
1785.8598
 20
518.00978
 10
1786.161727
 20
518.242969
 10
1786.475022
 20
518.481385
 10
1786.798984
 20
518.723979
 10
1787.132909
 20
518.969708
 10
1787.476093
 20
519.217521
 10
1787.827835
 20
519.466373
 10
1788.187432
 20
519.715216
 10
1788.55418
 20
519.963004
 10
1788.927376
 20
520.208687
 10
1789.306319
 20
520.45122
 10
1789.690304
 20
520.689556
 10
1790.078631
 20
520.922646
 10
1790.470717
 20
521.149606
 10
1790.866477
 20
521.370199
 10
1791.265948
 20
521.58435
 10
1791.669168
 20
521.791983
 10
1792.076171
 20
521.993023
 10
1792.486996
 20
522.187395
 10
1792.90168
 20
522.375025
 10
1793.320259
 20
522.555837
 10
1793.74277
 20
522.729755
 10
1794.16925
 20
522.896704
 10
1794.599735
 20
523.056611
 10
1795.034263
 20
523.209398
 10
1795.472871
 20
523.354991
 10
1795.915594
 20
523.493316
 10
1796.362472
 20
523.624296
 10
1796.813539
 20
523.747858
 10
1797.268833
 20
523.863925
 10
1797.728389
 20
523.972422
 10
1798.192248
 20
524.073275
 10
1798.660443
 20
524.166407
 10
1799.132756
 20
524.251819
 10
1799.607938
 20
524.329797
 10
1800.084488
 20
524.400702
 10
1800.560899
 20
524.464897
 10
1801.035668
 20
524.522743
 10
1801.507291
 20
524.574602
 10
1801.974266
 20
524.620834
 10
1802.435085
 20
524.661802
 10
1802.888247
 20
524.697867
 10
1803.332247
 20
524.729391
 10
1826.585884
 20
524.60034
 10
1826.385869
 20
488.560023
 10
1831.085942
 20
488.560022
 10
1831.285811
 20
524.574256
 10
1836.285734
 20
524.546508
 42
-0.414214
 10
1839.269039
 20
521.529905
 10
1839.037892
 20
479.879745
 42
-0.224815
 10
1837.925932
 20
477.564982
 10
1810.400903
 20
455.275008
 10
1810.121904
 20
405.002363
 42
-1.0
 10
1810.105255
 20
402.002409
 10
1809.842904
 20
354.729717
 42
-1.0
 10
1809.826255
 20
351.729763
 10
1809.563904
 20
304.457071
 42
-0.414214
 10
1811.055557
 20
302.94877
 42
-0.414214
 10
1809.547255
 20
301.457118
 10
1809.284905
 20
254.184426
 42
-1.0
 10
1809.268256
 20
251.184472
 10
1809.005905
 20
203.91178
 42
-1.0
 10
1808.989256
 20
200.911826
 10
1808.726905
 20
153.639135
 42
-1.0
 10
1808.710256
 20
150.639181
 10
1808.447906
 20
103.366489
 10
1809.947883
 20
103.358165
 10
1809.493125
 20
21.415944
 42
-0.414214
 10
1806.476523
 20
18.432639
 10
1789.055944
 20
18.529319
 10
1788.592375
 20
18.543734
 10
1788.114585
 20
18.566225
 10
1787.624116
 20
18.597824
 10
1787.122504
 20
18.639569
 10
1786.611289
 20
18.692496
 10
1786.092008
 20
18.75764
 10
1785.566202
 20
18.836035
 10
1785.035407
 20
18.928718
 10
1784.501162
 20
19.036725
 10
1783.965006
 20
19.161091
 10
1783.428478
 20
19.30285
 10
1782.893116
 20
19.463039
 10
1782.360187
 20
19.64252
 10
1781.829872
 20
19.841462
 10
1781.302083
 20
20.059857
 10
1780.77673
 20
20.297701
 10
1780.253723
 20
20.554987
 10
1779.732973
 20
20.831712
 10
1779.214391
 20
21.127867
 10
1778.697887
 20
21.443448
 10
1778.183369
 20
21.77845
 10
1777.670752
 20
22.132868
  0
LWPOLYLINE
  5
42
330
1F
100
AcDbEntity
  8
0
100
AcDbPolyline
 90
        5
 70
   128
 43
0.0
 10
1386.984374
 20
304.534767
 10
1386.722023
 20
351.807458
 10
1394.7219
 20
351.851855
 10
1394.984251
 20
304.579164
 10
1386.984374
 20
304.534767
  0
LWPOLYLINE
  5
43
330
1F
100
AcDbEntity
  8
0
100
AcDbPolyline
 90
        5
 70
   128
 43
0.0
 10
1375.984543
 20
304.47372
 10
1375.722193
 20
351.746412
 10
1383.72207
 20
351.790809
 10
1383.98442
 20
304.518118
 10
1375.984543
 20
304.47372
  0
LWPOLYLINE
  5
44
330
1F
100
AcDbEntity
  8
0
100
AcDbPolyline
 90
        5
 70
   128
 43
0.0
 10
1387.263374
 20
254.262121
 10
1387.001023
 20
301.534813
 10
1395.0009
 20
301.57921
 10
1395.263251
 20
254.306518
 10
1387.263374
 20
254.262121
  0
LWPOLYLINE
  5
45
330
1F
100
AcDbEntity
  8
0
100
AcDbPolyline
 90
        5
 70
   128
 43
0.0
 10
1376.263543
 20
254.201075
 10
1376.001192
 20
301.473767
 10
1384.001069
 20
301.518164
 10
1384.26342
 20
254.245472
 10
1376.263543
 20
254.201075
  0
LWPOLYLINE
  5
46
330
1F
100
AcDbEntity
  8
0
100
AcDbPolyline
 90
        5
 70
   128
 43
0.0
 10
1387.542373
 20
203.989475
 10
1387.280023
 20
251.262167
 10
1395.279899
 20
251.306564
 10
1395.54225
 20
204.033872
 10
1387.542373
 20
203.989475
  0
LWPOLYLINE
  5
47
330
1F
100
AcDbEntity
  8
0
100
AcDbPolyline
 90
        5
 70
   128
 43
0.0
 10
1376.542543
 20
203.928429
 10
1376.280192
 20
251.201121
 10
1384.280069
 20
251.245518
 10
1384.54242
 20
203.972826
 10
1376.542543
 20
203.928429
  0
LWPOLYLINE
  5
48
330
1F
100
AcDbEntity
  8
0
100
AcDbPolyline
 90
        5
 70
   128
 43
0.0
 10
1387.821373
 20
153.71683
 10
1387.559022
 20
200.989522
 10
1395.558899
 20
201.033919
 10
1395.82125
 20
153.761227
 10
1387.821373
 20
153.71683
  0
LWPOLYLINE
  5
49
330
1F
100
AcDbEntity
  8
0
100
AcDbPolyline
 90
        5
 70
   128
 43
0.0
 10
1376.821542
 20
153.655784
 10
1376.559192
 20
200.928475
 10
1384.559069
 20
200.972873
 10
1384.821419
 20
153.700181
 10
1376.821542
 20
153.655784
  0
LWPOLYLINE
  5
4A
330
1F
100
AcDbEntity
  8
0
100
AcDbPolyline
 90
        5
 70
   128
 43
0.0
 10
1388.100373
 20
103.444184
 10
1387.838022
 20
150.716876
 10
1395.837899
 20
150.761273
 10
1396.10025
 20
103.488581
 10
1388.100373
 20
103.444184
  0
LWPOLYLINE
  5
4B
330
1F
100
AcDbEntity
  8
0
100
AcDbPolyline
 90
        5
 70
   128
 43
0.0
 10
1377.100542
 20
103.383138
 10
1376.838191
 20
150.65583
 10
1384.838068
 20
150.700227
 10
1385.100419
 20
103.427535
 10
1377.100542
 20
103.383138
  0
LWPOLYLINE
  5
4C
330
1F
100
AcDbEntity
  8
0
100
AcDbPolyline
 90
        5
 70
   128
 43
0.0
 10
1398.489567
 20
33.343468
 10
1398.191649
 20
87.025016
 10
1402.891576
 20
87.0511
 10
1403.189494
 20
33.369552
 10
1398.489567
 20
33.343468
  0
LWPOLYLINE
  5
4D
330
1F
100
AcDbEntity
  8
0
100
AcDbPolyline
 90
      314
 70
   128
 43
0.0
 10
1376.071971
 20
18.432639
 10
1393.49255
 20
18.529319
 10
1393.956119
 20
18.543734
 10
1394.433909
 20
18.566225
 10
1394.924378
 20
18.597824
 10
1395.42599
 20
18.639569
 10
1395.937205
 20
18.692496
 10
1396.456486
 20
18.75764
 10
1396.982292
 20
18.836035
 10
1397.513087
 20
18.928718
 10
1398.047332
 20
19.036725
 10
1398.583488
 20
19.161091
 10
1399.120016
 20
19.30285
 10
1399.655378
 20
19.463039
 10
1400.188307
 20
19.64252
 10
1400.718622
 20
19.841462
 10
1401.246411
 20
20.059857
 10
1401.771764
 20
20.297701
 10
1402.294771
 20
20.554987
 10
1402.815521
 20
20.831712
 10
1403.334103
 20
21.127867
 10
1403.850607
 20
21.443448
 10
1404.365125
 20
21.77845
 10
1404.877742
 20
22.132868
 10
1405.38855
 20
22.506693
 10
1405.897639
 20
22.899922
 10
1406.405097
 20
23.312549
 10
1406.911015
 20
23.744569
 10
1407.415482
 20
24.195975
 10
1407.918586
 20
24.666762
 10
1408.420419
 20
25.156924
 10
1408.921069
 20
25.666456
 10
1409.420625
 20
26.195353
 10
1409.919178
 20
26.743608
 10
1410.416606
 20
27.310742
 10
1410.911943
 20
27.894383
 10
1411.404012
 20
28.491684
 10
1411.891639
 20
29.099799
 10
1412.373643
 20
29.715882
 10
1412.84885
 20
30.337086
 10
1413.316084
 20
30.960565
 10
1413.774166
 20
31.583474
 10
1414.221922
 20
32.202964
 10
1414.658173
 20
32.816191
 10
1415.081745
 20
33.420308
 10
1415.491459
 20
34.012469
 10
1415.886139
 20
34.589826
 10
1416.264609
 20
35.149535
 10
1416.625691
 20
35.688749
 10
1416.968209
 20
36.204621
 10
1417.290988
 20
36.694304
 10
1417.592848
 20
37.154954
 10
1417.872616
 20
37.583724
 10
1419.758911
 20
40.482637
 10
1423.671658
 20
65.549935
 10
1424.28708
 20
69.494609
 10
1424.956187
 20
73.794734
 10
1425.67397
 20
78.429757
 10
1426.435422
 20
83.37912
 10
1427.235537
 20
88.622265
 10
1428.069306
 20
94.138636
 10
1428.931722
 20
99.907678
 10
1429.817778
 20
105.908833
 10
1430.722467
 20
112.121546
 10
1431.640781
 20
118.525258
 10
1432.567713
 20
125.099414
 10
1433.498254
 20
131.823456
 10
1434.4274
 20
138.676829
 10
1435.350142
 20
145.638976
 10
1436.261473
 20
152.68934
 10
1437.156384
 20
159.807364
 10
1438.02987
 20
166.972493
 10
1438.876922
 20
174.16417
 10
1439.692533
 20
181.361837
 10
1440.471697
 20
188.544938
 10
1441.210047
 20
195.696179
 10
1441.905783
 20
202.811316
 10
1442.557747
 20
209.889368
 10
1443.164781
 20
216.929351
 10
1443.725727
 20
223.930286
 10
1444.239427
 20
230.89119
 10
1444.70472
 20
237.811081
 10
1445.12045
 20
244.688978
 10
1445.48546
 20
251.523898
 10
1445.798589
 20
258.314862
 10
1446.05868
 20
265.060885
 10
1446.264575
 20
271.760986
 10
1446.415115
 20
278.414186
 10
1446.509142
 20
285.0195
 10
1446.545497
 20
291.575948
 10
1446.523024
 20
298.082547
 10
1446.440562
 20
304.538318
 10
1446.296954
 20
310.942275
 10
1446.091042
 20
317.29344
 10
1445.821667
 20
323.59083
 10
1445.488798
 20
329.831699
 10
1445.096908
 20
336.006242
 10
1444.651597
 20
342.102891
 10
1444.158467
 20
348.110077
 10
1443.623116
 20
354.016232
 10
1443.051147
 20
359.809786
 10
1442.448158
 20
365.479172
 10
1441.819751
 20
371.01282
 10
1441.171524
 20
376.399162
 10
1440.50908
 20
381.626629
 10
1439.838017
 20
386.683653
 10
1439.163938
 20
391.558663
 10
1438.49244
 20
396.240093
 10
1437.829125
 20
400.716375
 10
1437.179595
 20
404.975937
 10
1436.549447
 20
409.007212
 10
1435.944283
 20
412.798633
 10
1435.369704
 20
416.338627
 10
1434.831309
 20
419.61563
 10
1431.175693
 20
441.693429
 10
1430.581428
 20
445.282133
 10
1430.487907
 20
445.84687
 10
1430.385928
 20
446.462534
 10
1430.275946
 20
447.126222
 10
1430.158418
 20
447.835028
 10
1430.033799
 20
448.58605
 10
1429.902545
 20
449.376384
 10
1429.76511
 20
450.203126
 10
1429.621953
 20
451.063372
 10
1429.473528
 20
451.95422
 10
1429.32029
 20
452.872764
 10
1429.162695
 20
453.816101
 10
1429.0012
 20
454.781327
 10
1428.83626
 20
455.76554
 10
1428.668331
 20
456.765835
 10
1428.497868
 20
457.779307
 10
1428.325327
 20
458.803054
 10
1428.151165
 20
459.834172
 10
1427.975836
 20
460.869756
 10
1427.799796
 20
461.906905
 10
1427.623503
 20
462.942712
 10
1427.447148
 20
463.97477
 10
1427.269889
 20
465.002641
 10
1427.090616
 20
466.026387
 10
1426.908224
 20
467.046065
 10
1426.721603
 20
468.061736
 10
1426.529649
 20
469.073456
 10
1426.331254
 20
470.081286
 10
1426.12531
 20
471.085285
 10
1425.910712
 20
472.08551
 10
1425.686351
 20
473.082022
 10
1425.451121
 20
474.07488
 10
1425.203915
 20
475.06414
 10
1424.943625
 20
476.049866
 10
1424.669146
 20
477.032112
 10
1424.379369
 20
478.01094
 10
1424.073187
 20
478.986407
 10
1423.749494
 20
479.958575
 10
1423.407183
 20
480.9275
 10
1423.045146
 20
481.893241
 10
1422.662278
 20
482.855858
 10
1422.258091
 20
483.815038
 10
1421.834596
 20
484.76898
 10
1421.39442
 20
485.715511
 10
1420.940194
 20
486.652459
 10
1420.474546
 20
487.57765
 10
1420.000107
 20
488.488912
 10
1419.519506
 20
489.384071
 10
1419.035372
 20
490.260956
 10
1418.550337
 20
491.117394
 10
1418.067029
 20
491.951211
 10
1417.588076
 20
492.760234
 10
1417.11611
 20
493.542292
 10
1416.653759
 20
494.295211
 10
1416.203653
 20
495.016819
 10
1415.768422
 20
495.704942
 10
1415.350696
 20
496.357408
 10
1414.953104
 20
496.972045
 10
1414.578276
 20
497.546677
 10
1414.228841
 20
498.079136
 10
1411.863933
 20
501.668652
 10
1411.271296
 20
502.568291
 10
1411.178021
 20
502.709857
 10
1411.076247
 20
502.86415
 10
1410.966363
 20
503.030405
 10
1410.848761
 20
503.207855
 10
1410.723831
 20
503.395735
 10
1410.591963
 20
503.593276
 10
1410.453549
 20
503.799714
 10
1410.308977
 20
504.014282
 10
1410.158638
 20
504.236212
 10
1410.002923
 20
504.464739
 10
1409.842223
 20
504.699096
 10
1409.676926
 20
504.938517
 10
1409.507424
 20
505.182235
 10
1409.334108
 20
505.429485
 10
1409.157366
 20
505.679499
 10
1408.977591
 20
505.93151
 10
1408.795173
 20
506.184753
 10
1408.6105
 20
506.438462
 10
1408.423965
 20
506.69187
 10
1408.235956
 20
506.94421
 10
1408.046799
 20
507.194839
 10
1407.856545
 20
507.443611
 10
1407.665183
 20
507.690505
 10
1407.472698
 20
507.935497
 10
1407.279076
 20
508.178566
 10
1407.084305
 20
508.419688
 10
1406.888371
 20
508.65884
 10
1406.691261
 20
508.896001
 10
1406.49296
 20
509.131148
 10
1406.293457
 20
509.364258
 10
1406.092737
 20
509.59531
 10
1405.890787
 20
509.82428
 10
1405.687592
 20
510.051146
 10
1405.483141
 20
510.275886
 10
1405.277419
 20
510.498476
 10
1405.070412
 20
510.718896
 10
1404.86211
 20
510.937121
 10
1404.652495
 20
511.15313
 10
1404.441557
 20
511.3669
 10
1404.22928
 20
511.578409
 10
1404.015761
 20
511.78758
 10
1403.801524
 20
511.994111
 10
1403.587203
 20
512.197648
 10
1403.373431
 20
512.397839
 10
1403.160844
 20
512.594328
 10
1402.950073
 20
512.786759
 10
1402.741754
 20
512.974778
 10
1402.536521
 20
513.158031
 10
1402.335005
 20
513.336163
 10
1402.137841
 20
513.50882
 10
1401.945664
 20
513.675646
 10
1401.759105
 20
513.836288
 10
1401.578801
 20
513.990389
 10
1401.405383
 20
514.137597
 10
1401.239487
 20
514.277557
 10
1401.081745
 20
514.409911
 10
1400.932791
 20
514.534309
 10
1400.793259
 20
514.650394
 10
1400.663783
 20
514.757812
 10
1399.790122
 20
515.481315
 10
1398.610494
 20
516.458117
 10
1398.424819
 20
516.611789
 10
1398.222153
 20
516.779065
 10
1398.003198
 20
516.958898
 10
1397.768658
 20
517.150243
 10
1397.519234
 20
517.352051
 10
1397.25563
 20
517.563275
 10
1396.97855
 20
517.782866
 10
1396.688694
 20
518.00978
 10
1396.386767
 20
518.242969
 10
1396.073472
 20
518.481385
 10
1395.74951
 20
518.723979
 10
1395.415585
 20
518.969708
 10
1395.072401
 20
519.217521
 10
1394.720659
 20
519.466373
 10
1394.361062
 20
519.715216
 10
1393.994314
 20
519.963004
 10
1393.621118
 20
520.208687
 10
1393.242175
 20
520.45122
 10
1392.85819
 20
520.689556
 10
1392.469863
 20
520.922646
 10
1392.077777
 20
521.149606
 10
1391.682017
 20
521.370199
 10
1391.282546
 20
521.58435
 10
1390.879326
 20
521.791983
 10
1390.472323
 20
521.993023
 10
1390.061498
 20
522.187395
 10
1389.646814
 20
522.375025
 10
1389.228235
 20
522.555837
 10
1388.805724
 20
522.729755
 10
1388.379244
 20
522.896704
 10
1387.948759
 20
523.056611
 10
1387.514231
 20
523.209398
 10
1387.075623
 20
523.354991
 10
1386.6329
 20
523.493316
 10
1386.186022
 20
523.624296
 10
1385.734955
 20
523.747858
 10
1385.279661
 20
523.863925
 10
1384.820105
 20
523.972422
 10
1384.356246
 20
524.073275
 10
1383.888051
 20
524.166407
 10
1383.415738
 20
524.251819
 10
1382.940556
 20
524.329797
 10
1382.464006
 20
524.400702
 10
1381.987595
 20
524.464897
 10
1381.512826
 20
524.522743
 10
1381.041203
 20
524.574602
 10
1380.574228
 20
524.620834
 10
1380.113409
 20
524.661802
 10
1379.660247
 20
524.697867
 10
1379.216247
 20
524.729391
 10
1355.96261
 20
524.60034
 10
1356.162625
 20
488.560023
 10
1351.462552
 20
488.560022
 10
1351.262683
 20
524.574256
 10
1346.26276
 20
524.546508
 42
0.414214
 10
1343.279455
 20
521.529905
 10
1343.510602
 20
479.879745
 42
0.224815
 10
1344.622562
 20
477.564982
 10
1372.147591
 20
455.275008
 10
1372.42659
 20
405.002363
 42
1.0
 10
1372.443239
 20
402.002409
 10
1372.70559
 20
354.729717
 42
1.0
 10
1372.722239
 20
351.729763
 10
1372.98459
 20
304.457071
 42
0.414214
 10
1371.492937
 20
302.94877
 42
0.414214
 10
1373.001239
 20
301.457118
 10
1373.263589
 20
254.184426
 42
1.0
 10
1373.280238
 20
251.184472
 10
1373.542589
 20
203.91178
 42
1.0
 10
1373.559238
 20
200.911826
 10
1373.821589
 20
153.639135
 42
1.0
 10
1373.838238
 20
150.639181
 10
1374.100588
 20
103.366489
 10
1372.600611
 20
103.358165
 10
1373.055369
 20
21.415944
 42
0.414214
 10
1376.071971
 20
18.432639
  0
LWPOLYLINE
  5
4E
330
1F
100
AcDbEntity
  8
0
100
AcDbPolyline
 90
       17
 70
   128
 43
0.0
 10
1113.751174
 20
84.665482
 42
0.011282
 10
1118.436389
 20
81.829157
 10
1118.436389
 20
113.176489
 10
1123.136389
 20
113.176489
 10
1123.136389
 20
79.263115
 42
0.243488
 10
1234.736389
 20
79.263115
 10
1234.736389
 20
113.176489
 10
1239.436389
 20
113.176489
 10
1239.436389
 20
81.829157
 42
0.011282
 10
1244.121603
 20
84.665482
 42
0.256372
 10
1246.436389
 20
88.883257
 10
1246.436389
 20
118.176489
 42
0.414214
 10
1241.436389
 20
123.176489
 10
1116.436389
 20
123.176489
 42
0.414214
 10
1111.436389
 20
118.176489
 10
1111.436389
 20
88.883257
 42
0.256372
 10
1113.751174
 20
84.665482
  0
LWPOLYLINE
  5
4F
330
1F
100
AcDbEntity
  8
0
100
AcDbPolyline
 90
     2824
 70
   128
 43
0.0
 10
747.650846
 20
-313.410549
 10
781.95619
 20
-313.205378
 10
781.927483
 20
-308.405464
 10
747.689985
 20
-308.610229
 10
747.703483
 20
-306.948742
 10
747.704046
 20
-306.879584
 10
747.704721
 20
-306.796635
 10
747.705518
 20
-306.698642
 10
747.706448
 20
-306.584353
 10
747.707521
 20
-306.452512
 10
747.708747
 20
-306.301867
 10
747.710135
 20
-306.131164
 10
747.711698
 20
-305.939148
 10
747.713444
 20
-305.724568
 10
747.715383
 20
-305.486168
 10
747.717522
 20
-305.223323
 10
747.719844
 20
-304.937912
 10
747.72233
 20
-304.632443
 10
747.724958
 20
-304.309423
 10
747.727708
 20
-303.971359
 10
747.730561
 20
-303.62076
 10
747.733495
 20
-303.260131
 10
747.73649
 20
-302.89198
 10
747.739527
 20
-302.518814
 10
747.742583
 20
-302.143142
 10
747.74564
 20
-301.767469
 10
747.748676
 20
-301.394304
 10
747.751671
 20
-301.026153
 10
747.754606
 20
-300.665524
 10
747.757458
 20
-300.314924
 10
747.760209
 20
-299.976861
 10
747.762837
 20
-299.653841
 10
747.765322
 20
-299.348372
 10
747.767645
 20
-299.062961
 10
747.769783
 20
-298.800115
 10
747.771723
 20
-298.561716
 10
747.773469
 20
-298.347135
 10
747.775031
 20
-298.15512
 10
747.77642
 20
-297.984417
 10
747.777646
 20
-297.833772
 10
747.778718
 20
-297.701931
 10
747.779648
 20
-297.587642
 10
747.780446
 20
-297.489649
 10
747.78112
 20
-297.4067
 10
747.781683
 20
-297.337541
 10
747.782144
 20
-297.280919
 10
747.782513
 20
-297.235579
 10
747.7828
 20
-297.200268
 10
747.783016
 20
-297.173733
 10
747.783171
 20
-297.15472
 10
747.783274
 20
-297.141974
 10
747.783337
 20
-297.134244
 10
747.78337
 20
-297.130274
 10
747.783381
 20
-297.128811
 10
747.783383
 20
-297.128602
 10
747.792105
 20
-296.049452
 10
747.793547
 20
-295.879661
 10
747.795527
 20
-295.694738
 10
747.798452
 20
-295.495736
 10
747.802729
 20
-295.283711
 10
747.808766
 20
-295.059715
 10
747.81697
 20
-294.824805
 10
747.827749
 20
-294.580033
 10
747.841508
 20
-294.326456
 10
747.858657
 20
-294.065126
 10
747.879601
 20
-293.797098
 10
747.904748
 20
-293.523428
 10
747.934506
 20
-293.245169
 10
747.969281
 20
-292.963375
 10
748.00948
 20
-292.679102
 10
748.055512
 20
-292.393403
 10
748.107783
 20
-292.107333
 10
748.1667
 20
-291.821946
 10
748.232671
 20
-291.538297
 10
748.306103
 20
-291.25744
 10
748.387403
 20
-290.98043
 10
748.476906
 20
-290.708205
 10
748.574659
 20
-290.441244
 10
748.680635
 20
-290.179911
 10
748.794809
 20
-289.924567
 10
748.917154
 20
-289.675577
 10
749.047646
 20
-289.433302
 10
749.186258
 20
-289.198107
 10
749.332964
 20
-288.970354
 10
749.487739
 20
-288.750407
 10
749.650556
 20
-288.538628
 10
749.82139
 20
-288.33538
 10
750.000215
 20
-288.141026
 10
750.187005
 20
-287.955931
 10
750.381734
 20
-287.780455
 10
750.584376
 20
-287.614963
 10
750.794906
 20
-287.459818
 10
751.013297
 20
-287.315383
 10
751.239525
 20
-287.18202
 10
751.473562
 20
-287.060093
 10
751.715383
 20
-286.949965
 10
751.964767
 20
-286.851829
 10
752.220713
 20
-286.765203
 10
752.482026
 20
-286.689436
 10
752.747508
 20
-286.623874
 10
753.015963
 20
-286.567868
 10
753.286197
 20
-286.520763
 10
753.557011
 20
-286.481909
 10
753.827211
 20
-286.450654
 10
754.0956
 20
-286.426346
 10
754.360983
 20
-286.408333
 10
754.622162
 20
-286.395963
 10
754.877942
 20
-286.388584
 10
755.127126
 20
-286.385545
 10
755.36852
 20
-286.386193
 10
755.600925
 20
-286.389877
 10
755.823147
 20
-286.395945
 10
756.033989
 20
-286.403745
 10
756.232255
 20
-286.412624
 10
756.41675
 20
-286.421932
 10
757.663896
 20
-286.489385
 10
761.088399
 20
-286.674906
 10
761.627333
 20
-286.704058
 10
762.21509
 20
-286.735581
 10
762.849121
 20
-286.769066
 10
763.526882
 20
-286.804102
 10
764.245827
 20
-286.840279
 10
765.003408
 20
-286.877185
 10
765.797081
 20
-286.914411
 10
766.624299
 20
-286.951545
 10
767.482516
 20
-286.988177
 10
768.369186
 20
-287.023896
 10
769.281763
 20
-287.058293
 10
770.217701
 20
-287.090955
 10
771.174454
 20
-287.121473
 10
772.149476
 20
-287.149436
 10
773.14022
 20
-287.174434
 10
774.144142
 20
-287.196055
 10
775.158693
 20
-287.213889
 10
776.18133
 20
-287.227526
 10
777.209505
 20
-287.236555
 10
778.240672
 20
-287.240565
 10
779.272699
 20
-287.23934
 10
780.305104
 20
-287.233434
 10
781.33782
 20
-287.223598
 10
782.370776
 20
-287.21058
 10
783.403907
 20
-287.195129
 10
784.437142
 20
-287.177996
 10
785.470415
 20
-287.159928
 10
786.503656
 20
-287.141676
 10
787.536798
 20
-287.123989
 10
788.569772
 20
-287.107615
 10
789.602511
 20
-287.093304
 10
790.634945
 20
-287.081805
 10
791.667007
 20
-287.073867
 10
792.698628
 20
-287.07024
 10
793.72974
 20
-287.071673
 10
794.760275
 20
-287.078915
 10
795.790165
 20
-287.092715
 10
796.819341
 20
-287.113823
 10
797.847735
 20
-287.142987
 10
798.875279
 20
-287.180957
 10
799.9015
 20
-287.22822
 10
800.924304
 20
-287.284215
 10
801.941191
 20
-287.348119
 10
802.949664
 20
-287.419109
 10
803.947223
 20
-287.49636
 10
804.931369
 20
-287.579051
 10
805.899604
 20
-287.666358
 10
806.849428
 20
-287.757458
 10
807.778343
 20
-287.851527
 10
808.68385
 20
-287.947743
 10
809.56345
 20
-288.045281
 10
810.414644
 20
-288.14332
 10
811.234934
 20
-288.241036
 10
812.02182
 20
-288.337605
 10
812.772803
 20
-288.432205
 10
813.485385
 20
-288.524012
 10
814.157067
 20
-288.612203
 10
814.78535
 20
-288.695955
 10
815.367734
 20
-288.774444
 10
819.294767
 20
-289.307428
 10
819.85406
 20
-289.383323
 10
819.942081
 20
-289.395284
 10
820.038083
 20
-289.408424
 10
820.14166
 20
-289.422787
 10
820.252403
 20
-289.438412
 10
820.369905
 20
-289.455343
 10
820.493758
 20
-289.47362
 10
820.623555
 20
-289.493285
 10
820.758888
 20
-289.51438
 10
820.89935
 20
-289.536947
 10
821.044532
 20
-289.561027
 10
821.194027
 20
-289.586662
 10
821.347428
 20
-289.613893
 10
821.504326
 20
-289.642762
 10
821.664315
 20
-289.673311
 10
821.826986
 20
-289.705582
 10
821.991933
 20
-289.739615
 10
822.158747
 20
-289.775453
 10
822.32702
 20
-289.813137
 10
822.496346
 20
-289.852709
 10
822.666316
 20
-289.894211
 10
822.836584
 20
-289.937657
 10
823.007043
 20
-289.982956
 10
823.17765
 20
-290.029989
 10
823.348359
 20
-290.078639
 10
823.519126
 20
-290.128787
 10
823.689905
 20
-290.180315
 10
823.860652
 20
-290.233104
 10
824.031323
 20
-290.287037
 10
824.201871
 20
-290.341994
 10
824.372253
 20
-290.397859
 10
824.542423
 20
-290.454511
 10
824.712338
 20
-290.511834
 10
824.881951
 20
-290.569708
 10
825.051218
 20
-290.628016
 10
825.220094
 20
-290.68664
 10
825.388535
 20
-290.74546
 10
825.556495
 20
-290.80436
 10
825.723931
 20
-290.863219
 10
825.890796
 20
-290.921921
 10
826.057046
 20
-290.980347
 10
826.222583
 20
-291.038379
 10
826.387095
 20
-291.0959
 10
826.550216
 20
-291.152795
 10
826.711582
 20
-291.208948
 10
826.870827
 20
-291.264242
 10
827.027585
 20
-291.318561
 10
827.181491
 20
-291.37179
 10
827.33218
 20
-291.423812
 10
827.479287
 20
-291.474511
 10
827.622446
 20
-291.523772
 10
827.761292
 20
-291.571477
 10
827.89546
 20
-291.617512
 10
828.024583
 20
-291.661761
 10
828.148298
 20
-291.704106
 10
828.266238
 20
-291.744432
 10
828.378038
 20
-291.782623
 10
828.483333
 20
-291.818563
 10
828.581758
 20
-291.852136
 10
828.672946
 20
-291.883226
 10
829.287635
 20
-292.092732
 10
835.517242
 20
-294.216599
 10
836.497583
 20
-294.550453
 10
837.566436
 20
-294.912237
 10
838.718867
 20
-295.298019
 10
839.949945
 20
-295.703873
 10
841.254737
 20
-296.125868
 10
842.628311
 20
-296.560076
 10
844.065733
 20
-297.002567
 10
845.562072
 20
-297.449413
 10
847.112394
 20
-297.896683
 10
849.06424
 20
-298.438248
 10
1331.347289
 20
-303.562503
 10
1331.428751
 20
-303.573994
 10
1331.511852
 20
-303.587619
 10
1331.596312
 20
-303.603567
 10
1331.68185
 20
-303.622029
 10
1331.768183
 20
-303.643193
 10
1331.855033
 20
-303.667248
 10
1331.942117
 20
-303.694385
 10
1332.029155
 20
-303.724793
 10
1332.115865
 20
-303.75866
 10
1332.201968
 20
-303.796177
 10
1332.287203
 20
-303.837477
 10
1332.371399
 20
-303.882465
 10
1332.454407
 20
-303.930992
 10
1332.536077
 20
-303.982908
 10
1332.61626
 20
-304.038064
 10
1332.694807
 20
-304.09631
 10
1332.771567
 20
-304.157495
 10
1332.846391
 20
-304.22147
 10
1332.91913
 20
-304.288086
 10
1332.989633
 20
-304.357191
 10
1333.057753
 20
-304.428637
 10
1333.123338
 20
-304.502274
 10
1333.18624
 20
-304.577951
 10
1333.246309
 20
-304.655519
 10
1333.303395
 20
-304.734828
 10
1333.35735
 20
-304.815729
 10
1333.408022
 20
-304.898071
 10
1333.455264
 20
-304.981704
 10
1333.498925
 20
-305.066479
 10
1333.538856
 20
-305.152246
 10
1333.574964
 20
-305.238834
 10
1333.607389
 20
-305.325984
 10
1333.636326
 20
-305.41342
 10
1333.661971
 20
-305.500862
 10
1333.68452
 20
-305.58803
 10
1333.70417
 20
-305.674648
 10
1333.721115
 20
-305.760435
 10
1333.735552
 20
-305.845114
 10
1333.747676
 20
-305.928405
 10
1333.757685
 20
-306.01003
 10
1333.765773
 20
-306.08971
 10
1333.772137
 20
-306.167167
 10
1333.776972
 20
-306.242122
 10
1333.780475
 20
-306.314295
 10
1333.782841
 20
-306.38341
 10
1333.784267
 20
-306.449186
 10
1333.784948
 20
-306.511344
 10
1333.78508
 20
-306.569608
 10
1333.784859
 20
-306.623697
 10
1333.781877
 20
-306.988778
 10
1333.781877
 20
-306.988869
 10
1333.781871
 20
-306.989511
 10
1333.781857
 20
-306.991253
 10
1333.78183
 20
-306.994646
 10
1333.781785
 20
-307.00024
 10
1333.781718
 20
-307.008585
 10
1333.781624
 20
-307.020231
 10
1333.781499
 20
-307.035729
 10
1333.781339
 20
-307.055628
 10
1333.781138
 20
-307.080479
 10
1333.780894
 20
-307.110832
 10
1333.780601
 20
-307.147238
 10
1333.780254
 20
-307.190246
 10
1333.77985
 20
-307.240407
 10
1333.779384
 20
-307.29827
 10
1333.778851
 20
-307.364387
 10
1333.778247
 20
-307.439307
 10
1333.777568
 20
-307.523581
 10
1333.776809
 20
-307.617758
 10
1333.775966
 20
-307.72239
 10
1333.775037
 20
-307.83775
 10
1333.774027
 20
-307.963015
 10
1333.772947
 20
-308.097082
 10
1333.771805
 20
-308.238853
 10
1333.770609
 20
-308.387226
 10
1333.769369
 20
-308.541101
 10
1333.768094
 20
-308.699378
 10
1333.766792
 20
-308.860956
 10
1333.765472
 20
-309.024735
 10
1333.764144
 20
-309.189614
 10
1333.762815
 20
-309.354494
 10
1333.761495
 20
-309.518273
 10
1333.760194
 20
-309.679851
 10
1333.758918
 20
-309.838128
 10
1333.757678
 20
-309.992003
 10
1333.756483
 20
-310.140376
 10
1333.75534
 20
-310.282146
 10
1333.75426
 20
-310.416214
 10
1333.753251
 20
-310.541478
 10
1333.752321
 20
-310.656839
 10
1333.751478
 20
-310.76147
 10
1333.750719
 20
-310.855648
 10
1333.75004
 20
-310.939921
 10
1333.749437
 20
-311.014842
 10
1333.748904
 20
-311.080958
 10
1333.748438
 20
-311.138822
 10
1333.748033
 20
-311.188983
 10
1333.747687
 20
-311.231991
 10
1333.747394
 20
-311.268396
 10
1333.747149
 20
-311.29875
 10
1333.746949
 20
-311.323601
 10
1333.746788
 20
-311.3435
 10
1333.746663
 20
-311.358997
 10
1333.74657
 20
-311.370644
 10
1333.746502
 20
-311.378988
 10
1333.746457
 20
-311.384582
 10
1333.74643
 20
-311.387975
 10
1333.746416
 20
-311.389718
 10
1333.746411
 20
-311.390359
 10
1333.74641
 20
-311.390451
 10
1333.743971
 20
-311.689071
 10
1333.743558
 20
-311.73606
 10
1333.742938
 20
-311.787264
 10
1333.741938
 20
-311.84242
 10
1333.740388
 20
-311.901262
 10
1333.738117
 20
-311.963528
 10
1333.734952
 20
-312.028954
 10
1333.730724
 20
-312.097274
 10
1333.72526
 20
-312.168226
 10
1333.718389
 20
-312.241546
 10
1333.70994
 20
-312.316969
 10
1333.699742
 20
-312.394231
 10
1333.687624
 20
-312.473069
 10
1333.673414
 20
-312.553218
 10
1333.656941
 20
-312.634415
 10
1333.638034
 20
-312.716395
 10
1333.616521
 20
-312.798894
 10
1333.592232
 20
-312.881649
 10
1333.564995
 20
-312.964395
 10
1333.534638
 20
-313.046869
 10
1333.500991
 20
-313.128807
 10
1333.463932
 20
-313.209966
 10
1333.42354
 20
-313.290199
 10
1333.379943
 20
-313.369379
 10
1333.333271
 20
-313.447378
 10
1333.283651
 20
-313.52407
 10
1333.231213
 20
-313.59933
 10
1333.176085
 20
-313.67303
 10
1333.118396
 20
-313.745043
 10
1333.058275
 20
-313.815244
 10
1332.995849
 20
-313.883506
 10
1332.931249
 20
-313.949702
 10
1332.864602
 20
-314.013706
 10
1332.796037
 20
-314.075391
 10
1332.725683
 20
-314.134631
 10
1332.653669
 20
-314.191299
 10
1332.580122
 20
-314.245268
 10
1332.505173
 20
-314.296413
 10
1332.428949
 20
-314.344606
 10
1332.351579
 20
-314.389722
 10
1332.273192
 20
-314.431633
 10
1332.193938
 20
-314.470259
 10
1332.11406
 20
-314.505703
 10
1332.033821
 20
-314.538115
 10
1331.953485
 20
-314.567643
 10
1331.873316
 20
-314.594436
 10
1331.793576
 20
-314.618645
 10
1331.714531
 20
-314.640418
 10
1331.636444
 20
-314.659903
 10
1331.559578
 20
-314.677251
 10
1331.484198
 20
-314.692611
 10
1331.410567
 20
-314.706131
 10
1331.338948
 20
-314.71796
 10
1331.269607
 20
-314.728249
 10
1331.202806
 20
-314.737146
 10
1331.138809
 20
-314.744799
 10
1331.077881
 20
-314.75136
 10
1331.020284
 20
-314.756976
 10
1330.966283
 20
-314.761796
 10
1330.916141
 20
-314.76597
 10
1330.577661
 20
-314.792838
 10
1330.576926
 20
-314.792854
 10
1330.571774
 20
-314.792966
 10
1330.557792
 20
-314.793272
 10
1330.530563
 20
-314.793866
 10
1330.485672
 20
-314.794847
 10
1330.418705
 20
-314.796309
 10
1330.325244
 20
-314.79835
 10
1330.200875
 20
-314.801066
 10
1330.041182
 20
-314.804553
 10
1329.84175
 20
-314.808908
 10
1329.598163
 20
-314.814227
 10
1329.306006
 20
-314.820607
 10
1328.960864
 20
-314.828143
 10
1328.55832
 20
-314.836934
 10
1328.09396
 20
-314.847074
 10
1327.563367
 20
-314.85866
 10
1326.962128
 20
-314.871789
 10
1326.285825
 20
-314.886557
 10
1325.530043
 20
-314.903061
 10
1324.690368
 20
-314.921397
 10
1323.764591
 20
-314.941613
 10
1322.759336
 20
-314.963564
 10
1321.683433
 20
-314.987058
 10
1320.545714
 20
-315.011902
 10
1319.355009
 20
-315.037903
 10
1318.120149
 20
-315.064868
 10
1316.849966
 20
-315.092605
 10
1315.553289
 20
-315.12092
 10
1314.238951
 20
-315.149621
 10
1312.915782
 20
-315.178514
 10
1311.592613
 20
-315.207408
 10
1310.278275
 20
-315.236109
 10
1308.981598
 20
-315.264424
 10
1307.711415
 20
-315.292161
 10
1306.476555
 20
-315.319126
 10
1305.28585
 20
-315.345127
 10
1304.148131
 20
-315.369971
 10
1303.072228
 20
-315.393465
 10
1302.066972
 20
-315.415416
 10
1301.141196
 20
-315.435632
 10
1300.30152
 20
-315.453968
 10
1299.545739
 20
-315.470472
 10
1298.869436
 20
-315.48524
 10
1298.268197
 20
-315.498369
 10
1297.737604
 20
-315.509955
 10
1297.273244
 20
-315.520095
 10
1296.8707
 20
-315.528886
 10
1296.525558
 20
-315.536422
 10
1296.233401
 20
-315.542802
 10
1295.989814
 20
-315.548121
 10
1295.790382
 20
-315.552476
 10
1295.630689
 20
-315.555963
 10
1295.50632
 20
-315.558679
 10
1295.412859
 20
-315.56072
 10
1295.345891
 20
-315.562182
 10
1295.301001
 20
-315.563163
 10
1295.273772
 20
-315.563757
 10
1295.25979
 20
-315.564062
 10
1295.254638
 20
-315.564175
 10
1295.253902
 20
-315.564191
 10
1295.036427
 20
-315.568986
 10
1295.002207
 20
-315.569761
 10
1294.964916
 20
-315.570728
 10
1294.924746
 20
-315.572005
 10
1294.881889
 20
-315.573712
 10
1294.836536
 20
-315.575968
 10
1294.78888
 20
-315.578892
 10
1294.739111
 20
-315.582605
 10
1294.687421
 20
-315.587225
 10
1294.634002
 20
-315.592871
 10
1294.579046
 20
-315.599664
 10
1294.522744
 20
-315.607721
 10
1294.465288
 20
-315.617163
 10
1294.406869
 20
-315.628109
 10
1294.347679
 20
-315.640678
 10
1294.28791
 20
-315.65499
 10
1294.227753
 20
-315.671164
 10
1294.1674
 20
-315.689319
 10
1294.107042
 20
-315.709574
 10
1294.046872
 20
-315.73205
 10
1293.987081
 20
-315.756864
 10
1293.927846
 20
-315.784103
 10
1293.869285
 20
-315.813712
 10
1293.811505
 20
-315.845605
 10
1293.754609
 20
-315.879695
 10
1293.698703
 20
-315.915893
 10
1293.643891
 20
-315.954112
 10
1293.590278
 20
-315.994265
 10
1293.537968
 20
-316.036265
 10
1293.487066
 20
-316.080023
 10
1293.437678
 20
-316.125453
 10
1293.389907
 20
-316.172466
 10
1293.343859
 20
-316.220977
 10
1293.299638
 20
-316.270896
 10
1293.257348
 20
-316.322136
 10
1293.217096
 20
-316.374611
 10
1293.178985
 20
-316.428233
 10
1293.143119
 20
-316.482913
 10
1293.109605
 20
-316.538566
 10
1293.078546
 20
-316.595102
 10
1293.050048
 20
-316.652436
 10
1293.024175
 20
-316.71046
 10
1293.000835
 20
-316.768996
 10
1292.979897
 20
-316.827847
 10
1292.961228
 20
-316.886815
 10
1292.944696
 20
-316.945702
 10
1292.930169
 20
-317.004311
 10
1292.917516
 20
-317.062445
 10
1292.906604
 20
-317.119906
 10
1292.897303
 20
-317.176497
 10
1292.889479
 20
-317.23202
 10
1292.883
 20
-317.286278
 10
1292.877736
 20
-317.339073
 10
1292.873554
 20
-317.390208
 10
1292.870322
 20
-317.439485
 10
1292.867908
 20
-317.486707
 10
1292.86618
 20
-317.531677
 10
1292.865007
 20
-317.574197
 10
1292.864255
 20
-317.614069
 10
1292.863795
 20
-317.651097
 10
1292.861716
 20
-317.901069
 10
1292.860021
 20
-318.117056
 10
1292.859776
 20
-318.151042
 10
1292.859642
 20
-318.188077
 10
1292.859753
 20
-318.22797
 10
1292.860244
 20
-318.270531
 10
1292.861252
 20
-318.315568
 10
1292.862911
 20
-318.36289
 10
1292.865356
 20
-318.412307
 10
1292.868724
 20
-318.463628
 10
1292.873149
 20
-318.516662
 10
1292.878767
 20
-318.571218
 10
1292.885713
 20
-318.627105
 10
1292.894123
 20
-318.684133
 10
1292.904131
 20
-318.74211
 10
1292.915874
 20
-318.800846
 10
1292.929487
 20
-318.86015
 10
1292.945104
 20
-318.919831
 10
1292.962862
 20
-318.979698
 10
1292.982895
 20
-319.03956
 10
1293.005339
 20
-319.099226
 10
1293.03033
 20
-319.158507
 10
1293.057963
 20
-319.217224
 10
1293.088173
 20
-319.275262
 10
1293.120856
 20
-319.332518
 10
1293.155909
 20
-319.388889
 10
1293.193227
 20
-319.444274
 10
1293.232705
 20
-319.498569
 10
1293.27424
 20
-319.551671
 10
1293.317727
 20
-319.60348
 10
1293.363063
 20
-319.653892
 10
1293.410142
 20
-319.702805
 10
1293.458861
 20
-319.750116
 10
1293.509116
 20
-319.795723
 10
1293.560802
 20
-319.839523
 10
1293.613815
 20
-319.881415
 10
1293.668051
 20
-319.921295
 10
1293.723406
 20
-319.959062
 10
1293.779775
 20
-319.994612
 10
1293.837055
 20
-320.027844
 10
1293.895141
 20
-320.058654
 10
1293.953928
 20
-320.086941
 10
1294.013299
 20
-320.112641
 10
1294.073075
 20
-320.135844
 10
1294.133064
 20
-320.156681
 10
1294.193072
 20
-320.175279
 10
1294.252908
 20
-320.19177
 10
1294.312379
 20
-320.206282
 10
1294.371291
 20
-320.218945
 10
1294.429454
 20
-320.229888
 10
1294.486673
 20
-320.239241
 10
1294.542757
 20
-320.247134
 10
1294.597513
 20
-320.253695
 10
1294.650748
 20
-320.259054
 10
1294.702269
 20
-320.263341
 10
1294.751885
 20
-320.266685
 10
1294.799402
 20
-320.269215
 10
1294.844628
 20
-320.271062
 10
1294.88737
 20
-320.272354
 10
1294.927436
 20
-320.273222
 10
1294.964633
 20
-320.273793
 10
1295.215707
 20
-320.276638
 10
1295.215955
 20
-320.276641
 10
1295.217688
 20
-320.27666
 10
1295.222394
 20
-320.276711
 10
1295.231558
 20
-320.276811
 10
1295.246665
 20
-320.276977
 10
1295.269203
 20
-320.277223
 10
1295.300657
 20
-320.277567
 10
1295.342512
 20
-320.278024
 10
1295.396256
 20
-320.278612
 10
1295.463374
 20
-320.279346
 10
1295.545352
 20
-320.280242
 10
1295.643675
 20
-320.281317
 10
1295.759831
 20
-320.282587
 10
1295.895305
 20
-320.284068
 10
1296.051583
 20
-320.285776
 10
1296.230151
 20
-320.287728
 10
1296.432495
 20
-320.28994
 10
1296.660101
 20
-320.292429
 10
1296.914455
 20
-320.295209
 10
1297.197043
 20
-320.298299
 10
1297.508608
 20
-320.301705
 10
1297.846921
 20
-320.305404
 10
1298.20901
 20
-320.309362
 10
1298.591903
 20
-320.313548
 10
1298.992629
 20
-320.317929
 10
1299.408214
 20
-320.322472
 10
1299.835687
 20
-320.327145
 10
1300.272076
 20
-320.331916
 10
1300.714409
 20
-320.336752
 10
1301.159715
 20
-320.34162
 10
1301.60502
 20
-320.346489
 10
1302.047353
 20
-320.351324
 10
1302.483742
 20
-320.356095
 10
1302.911216
 20
-320.360768
 10
1303.326801
 20
-320.365312
 10
1303.727526
 20
-320.369693
 10
1304.110419
 20
-320.373878
 10
1304.472508
 20
-320.377837
 10
1304.810822
 20
-320.381536
 10
1305.122387
 20
-320.384942
 10
1305.404975
 20
-320.388031
 10
1305.659329
 20
-320.390812
 10
1305.886935
 20
-320.3933
 10
1306.089279
 20
-320.395512
 10
1306.267846
 20
-320.397464
 10
1306.424124
 20
-320.399173
 10
1306.559598
 20
-320.400654
 10
1306.675754
 20
-320.401924
 10
1306.774078
 20
-320.402999
 10
1306.856056
 20
-320.403895
 10
1306.923173
 20
-320.404629
 10
1306.976917
 20
-320.405216
 10
1307.018773
 20
-320.405674
 10
1307.050227
 20
-320.406018
 10
1307.072764
 20
-320.406264
 10
1307.087872
 20
-320.406429
 10
1307.097036
 20
-320.406529
 10
1307.101741
 20
-320.406581
 10
1307.103475
 20
-320.4066
 10
1307.103723
 20
-320.406602
 10
1307.107691
 20
-323.190543
 10
1307.107735
 20
-323.6282
 10
1307.104356
 20
-324.102737
 10
1307.094069
 20
-324.609274
 10
1307.073392
 20
-325.142931
 10
1307.03884
 20
-325.69883
 10
1306.986931
 20
-326.27209
 10
1306.91418
 20
-326.857832
 10
1306.817105
 20
-327.451176
 10
1306.692223
 20
-328.047243
 10
1306.536048
 20
-328.641154
 10
1306.3451
 20
-329.228029
 10
1306.115892
 20
-329.802988
 10
1305.844944
 20
-330.361152
 10
1305.52877
 20
-330.897641
 10
1305.163888
 20
-331.407576
 10
1304.746814
 20
-331.886077
 10
1304.274064
 20
-332.328265
 10
1303.742156
 20
-332.72926
 10
1303.147606
 20
-333.084183
 10
1302.48693
 20
-333.388154
 10
1301.758278
 20
-333.637468
 10
1300.96633
 20
-333.833115
 10
1300.1174
 20
-333.977261
 10
1299.217801
 20
-334.072071
 10
1298.273847
 20
-334.11971
 10
1297.29185
 20
-334.122342
 10
1296.278125
 20
-334.082133
 10
1295.238985
 20
-334.001247
 10
1294.180743
 20
-333.88185
 10
1293.109713
 20
-333.726107
 10
1292.032208
 20
-333.536182
 10
1290.954541
 20
-333.314241
 10
1289.883026
 20
-333.062449
 10
1288.823977
 20
-332.78297
 10
1287.783706
 20
-332.47797
 10
1286.768527
 20
-332.149613
 10
1285.784753
 20
-331.800065
 10
1284.838699
 20
-331.431491
 10
1283.936677
 20
-331.046055
 10
1283.085
 20
-330.645923
 10
1282.288566
 20
-330.233225
 10
1281.546602
 20
-329.809952
 10
1280.856921
 20
-329.378061
 10
1280.217333
 20
-328.93951
 10
1279.625651
 20
-328.496253
 10
1279.079685
 20
-328.05025
 10
1278.577248
 20
-327.603455
 10
1278.116152
 20
-327.157826
 10
1277.694206
 20
-326.71532
 10
1277.309224
 20
-326.277893
 10
1276.959017
 20
-325.847502
 10
1276.641396
 20
-325.426104
 10
1276.354173
 20
-325.015656
 10
1276.09516
 20
-324.618114
 10
1275.862167
 20
-324.235435
 10
1275.653007
 20
-323.869576
 10
1275.465492
 20
-323.522494
 10
1275.297432
 20
-323.196145
 10
1275.146639
 20
-322.892486
 10
1274.151565
 20
-320.8399
 10
1273.931609
 20
-320.385727
 10
1273.896987
 20
-320.314264
 10
1273.859188
 20
-320.236401
 10
1273.818336
 20
-320.152553
 10
1273.774554
 20
-320.063133
 10
1273.727966
 20
-319.968554
 10
1273.678693
 20
-319.86923
 10
1273.62686
 20
-319.765574
 10
1273.572589
 20
-319.657999
 10
1273.516004
 20
-319.546919
 10
1273.457228
 20
-319.432748
 10
1273.396383
 20
-319.315899
 10
1273.333594
 20
-319.196786
 10
1273.268982
 20
-319.075821
 10
1273.202671
 20
-318.953418
 10
1273.134785
 20
-318.829992
 10
1273.065446
 20
-318.705954
 10
1272.994778
 20
-318.58172
 10
1272.922903
 20
-318.457701
 10
1272.849945
 20
-318.334312
 10
1272.776026
 20
-318.211966
 10
1272.701217
 20
-318.091028
 10
1272.625369
 20
-317.971663
 10
1272.548281
 20
-317.85399
 10
1272.469753
 20
-317.738126
 10
1272.389584
 20
-317.624188
 10
1272.30757
 20
-317.512294
 10
1272.223513
 20
-317.402562
 10
1272.13721
 20
-317.295109
 10
1272.04846
 20
-317.190053
 10
1271.957063
 20
-317.08751
 10
1271.862816
 20
-316.987599
 10
1271.765519
 20
-316.890437
 10
1271.66497
 20
-316.796142
 10
1271.560968
 20
-316.704831
 10
1271.453313
 20
-316.616621
 10
1271.341802
 20
-316.53163
 10
1271.226235
 20
-316.449976
 10
1271.10641
 20
-316.371776
 10
1270.982126
 20
-316.297147
 10
1270.853182
 20
-316.226207
 10
1270.719526
 20
-316.159036
 10
1270.581702
 20
-316.095558
 10
1270.440402
 20
-316.035661
 10
1270.29632
 20
-315.979232
 10
1270.150149
 20
-315.926158
 10
1270.002581
 20
-315.876327
 10
1269.854309
 20
-315.829624
 10
1269.706027
 20
-315.785939
 10
1269.558427
 20
-315.745157
 10
1269.412202
 20
-315.707166
 10
1269.268045
 20
-315.671853
 10
1269.12665
 20
-315.639106
 10
1268.988709
 20
-315.60881
 10
1268.854914
 20
-315.580855
 10
1268.72596
 20
-315.555125
 10
1268.602539
 20
-315.53151
 10
1268.485343
 20
-315.509895
 10
1268.375067
 20
-315.490169
 10
1268.272402
 20
-315.472218
 10
1267.578197
 20
-315.352627
 10
1267.576823
 20
-315.352627
 10
1267.567202
 20
-315.352626
 10
1267.541089
 20
-315.352623
 10
1267.490237
 20
-315.352617
 10
1267.406401
 20
-315.352608
 10
1267.281333
 20
-315.352595
 10
1267.106788
 20
-315.352576
 10
1266.874519
 20
-315.35255
 10
1266.576281
 20
-315.352518
 10
1266.203826
 20
-315.352477
 10
1265.74891
 20
-315.352428
 10
1265.203284
 20
-315.352368
 10
1264.558705
 20
-315.352298
 10
1263.806924
 20
-315.352216
 10
1262.939696
 20
-315.352121
 10
1261.948775
 20
-315.352013
 10
1260.825914
 20
-315.351891
 10
1259.562867
 20
-315.351753
 10
1258.151388
 20
-315.351599
 10
1256.583231
 20
-315.351428
 10
1254.854273
 20
-315.35124
 10
1252.976883
 20
-315.351035
 10
1250.967553
 20
-315.350816
 10
1248.842775
 20
-315.350584
 10
1246.619044
 20
-315.350342
 10
1244.31285
 20
-315.35009
 10
1241.940686
 20
-315.349832
 10
1239.519045
 20
-315.349568
 10
1237.064418
 20
-315.3493
 10
1234.5933
 20
-315.349031
 10
1232.122181
 20
-315.348761
 10
1229.667555
 20
-315.348494
 10
1227.245914
 20
-315.34823
 10
1224.87375
 20
-315.347971
 10
1222.567556
 20
-315.347719
 10
1220.343824
 20
-315.347477
 10
1218.219047
 20
-315.347245
 10
1216.209717
 20
-315.347026
 10
1214.332327
 20
-315.346822
 10
1212.603369
 20
-315.346633
 10
1211.035212
 20
-315.346462
 10
1209.623733
 20
-315.346308
 10
1208.360686
 20
-315.346171
 10
1207.237825
 20
-315.346048
 10
1206.246904
 20
-315.34594
 10
1205.379676
 20
-315.345845
 10
1204.627895
 20
-315.345764
 10
1203.983315
 20
-315.345693
 10
1203.43769
 20
-315.345634
 10
1202.982774
 20
-315.345584
 10
1202.610319
 20
-315.345544
 10
1202.312081
 20
-315.345511
 10
1202.079812
 20
-315.345486
 10
1201.905267
 20
-315.345467
 10
1201.780199
 20
-315.345453
 10
1201.696363
 20
-315.345444
 10
1201.645511
 20
-315.345438
 10
1201.619398
 20
-315.345436
 10
1201.609777
 20
-315.345434
 10
1201.608403
 20
-315.345434
 10
1201.608403
 20
-315.345435
 10
1201.608402
 20
-315.345438
 10
1201.608401
 20
-315.345447
 10
1201.608399
 20
-315.345463
 10
1201.608394
 20
-315.345491
 10
1201.608388
 20
-315.345533
 10
1201.60838
 20
-315.34559
 10
1201.608368
 20
-315.345667
 10
1201.608354
 20
-315.345766
 10
1201.608336
 20
-315.345889
 10
1201.608313
 20
-315.34604
 10
1201.608287
 20
-315.34622
 10
1201.608255
 20
-315.346433
 10
1201.608219
 20
-315.346682
 10
1201.608176
 20
-315.346969
 10
1201.608128
 20
-315.347297
 10
1201.608073
 20
-315.347668
 10
1201.608011
 20
-315.348086
 10
1201.607942
 20
-315.348553
 10
1201.607865
 20
-315.349072
 10
1201.607781
 20
-315.349644
 10
1201.607689
 20
-315.350265
 10
1201.607591
 20
-315.35093
 10
1201.607487
 20
-315.351633
 10
1201.607378
 20
-315.352369
 10
1201.607266
 20
-315.353132
 10
1201.60715
 20
-315.353916
 10
1201.607031
 20
-315.354718
 10
1201.606911
 20
-315.35553
 10
1201.606791
 20
-315.356347
 10
1201.60667
 20
-315.357165
 10
1201.60655
 20
-315.357977
 10
1201.606432
 20
-315.358778
 10
1201.606316
 20
-315.359563
 10
1201.606203
 20
-315.360326
 10
1201.606094
 20
-315.361062
 10
1201.60599
 20
-315.361765
 10
1201.605892
 20
-315.36243
 10
1201.6058
 20
-315.363051
 10
1201.605716
 20
-315.363623
 10
1201.605639
 20
-315.364142
 10
1201.60557
 20
-315.364609
 10
1201.605509
 20
-315.365026
 10
1201.605454
 20
-315.365398
 10
1201.605405
 20
-315.365726
 10
1201.605363
 20
-315.366013
 10
1201.605326
 20
-315.366261
 10
1201.605295
 20
-315.366475
 10
1201.605268
 20
-315.366655
 10
1201.605246
 20
-315.366806
 10
1201.605228
 20
-315.366929
 10
1201.605213
 20
-315.367028
 10
1201.605202
 20
-315.367104
 10
1201.605193
 20
-315.367162
 10
1201.605187
 20
-315.367204
 10
1201.605183
 20
-315.367231
 10
1201.60518
 20
-315.367248
 10
1201.605179
 20
-315.367257
 10
1201.605179
 20
-315.36726
 10
1201.60495
 20
-315.367259
 10
1201.60335
 20
-315.367245
 10
1201.599006
 20
-315.36721
 10
1201.590548
 20
-315.367141
 10
1201.576603
 20
-315.367028
 10
1201.5558
 20
-315.366859
 10
1201.526767
 20
-315.366622
 10
1201.488133
 20
-315.366308
 10
1201.438525
 20
-315.365904
 10
1201.376573
 20
-315.3654
 10
1201.300905
 20
-315.364784
 10
1201.210149
 20
-315.364046
 10
1201.102933
 20
-315.363174
 10
1200.977885
 20
-315.362156
 10
1200.833635
 20
-315.360982
 10
1200.668811
 20
-315.359641
 10
1200.48204
 20
-315.358121
 10
1200.271952
 20
-315.356412
 10
1200.037174
 20
-315.354501
 10
1199.776336
 20
-315.352379
 10
1199.48875
 20
-315.350039
 10
1199.176475
 20
-315.347498
 10
1198.842254
 20
-315.344778
 10
1198.48883
 20
-315.341902
 10
1198.118947
 20
-315.338893
 10
1197.735347
 20
-315.335771
 10
1197.340774
 20
-315.332561
 10
1196.937972
 20
-315.329283
 10
1196.529683
 20
-315.325961
 10
1196.11865
 20
-315.322616
 10
1195.707618
 20
-315.319272
 10
1195.299328
 20
-315.315949
 10
1194.896526
 20
-315.312672
 10
1194.501953
 20
-315.309461
 10
1194.118353
 20
-315.30634
 10
1193.74847
 20
-315.30333
 10
1193.395046
 20
-315.300454
 10
1193.060825
 20
-315.297734
 10
1192.74855
 20
-315.295193
 10
1192.460964
 20
-315.292853
 10
1192.200126
 20
-315.290731
 10
1191.965348
 20
-315.28882
 10
1191.75526
 20
-315.287111
 10
1191.568489
 20
-315.285591
 10
1191.403665
 20
-315.28425
 10
1191.259415
 20
-315.283076
 10
1191.134368
 20
-315.282059
 10
1191.027152
 20
-315.281186
 10
1190.936395
 20
-315.280448
 10
1190.860727
 20
-315.279832
 10
1190.798775
 20
-315.279328
 10
1190.749168
 20
-315.278924
 10
1190.710533
 20
-315.27861
 10
1190.6815
 20
-315.278374
 10
1190.660697
 20
-315.278204
 10
1190.646752
 20
-315.278091
 10
1190.638294
 20
-315.278022
 10
1190.63395
 20
-315.277987
 10
1190.63235
 20
-315.277974
 10
1190.632122
 20
-315.277972
 10
1190.414605
 20
-315.276194
 10
1190.380378
 20
-315.275937
 10
1190.34308
 20
-315.275787
 10
1190.302903
 20
-315.275878
 10
1190.260038
 20
-315.276345
 10
1190.214677
 20
-315.277322
 10
1190.167013
 20
-315.278943
 10
1190.117235
 20
-315.281342
 10
1190.065537
 20
-315.284653
 10
1190.01211
 20
-315.28901
 10
1189.957146
 20
-315.294548
 10
1189.900837
 20
-315.3014
 10
1189.843373
 20
-315.309701
 10
1189.784947
 20
-315.319585
 10
1189.725752
 20
-315.331186
 10
1189.665977
 20
-315.344637
 10
1189.605815
 20
-315.360074
 10
1189.545459
 20
-315.37763
 10
1189.485099
 20
-315.397439
 10
1189.424927
 20
-315.419636
 10
1189.365135
 20
-315.444354
 10
1189.3059
 20
-315.471689
 10
1189.247342
 20
-315.501577
 10
1189.189564
 20
-315.533917
 10
1189.132673
 20
-315.568605
 10
1189.076771
 20
-315.60554
 10
1189.021965
 20
-315.644619
 10
1188.968358
 20
-315.685741
 10
1188.916056
 20
-315.728803
 10
1188.865163
 20
-315.773702
 10
1188.815783
 20
-315.820337
 10
1188.768022
 20
-315.868606
 10
1188.721984
 20
-315.918405
 10
1188.677773
 20
-315.969633
 10
1188.635495
 20
-316.022187
 10
1188.595254
 20
-316.075966
 10
1188.557155
 20
-316.130866
 10
1188.521302
 20
-316.186787
 10
1188.4878
 20
-316.243625
 10
1188.456753
 20
-316.301278
 10
1188.428267
 20
-316.359644
 10
1188.402407
 20
-316.418606
 10
1188.379079
 20
-316.477986
 10
1188.358153
 20
-316.537592
 10
1188.339496
 20
-316.597231
 10
1188.322976
 20
-316.65671
 10
1188.308461
 20
-316.715838
 10
1188.29582
 20
-316.774421
 10
1188.28492
 20
-316.832268
 10
1188.27563
 20
-316.889184
 10
1188.267817
 20
-316.944979
 10
1188.261349
 20
-316.99946
 10
1188.256095
 20
-317.052433
 10
1188.251923
 20
-317.103707
 10
1188.2487
 20
-317.153088
 10
1188.246295
 20
-317.200385
 10
1188.244576
 20
-317.245405
 10
1188.243411
 20
-317.287955
 10
1188.242668
 20
-317.327843
 10
1188.242214
 20
-317.364877
 10
1188.240183
 20
-317.61485
 10
1188.238405
 20
-317.830837
 10
1188.238148
 20
-317.864823
 10
1188.237999
 20
-317.901859
 10
1188.238095
 20
-317.941753
 10
1188.238571
 20
-317.984317
 10
1188.239563
 20
-318.029359
 10
1188.241205
 20
-318.076689
 10
1188.243634
 20
-318.126116
 10
1188.246985
 20
-318.177451
 10
1188.251394
 20
-318.230503
 10
1188.256997
 20
-318.285082
 10
1188.263928
 20
-318.340996
 10
1188.272323
 20
-318.398057
 10
1188.282318
 20
-318.456073
 10
1188.294049
 20
-318.514854
 10
1188.30765
 20
-318.57421
 10
1188.323258
 20
-318.63395
 10
1188.341008
 20
-318.693885
 10
1188.361036
 20
-318.753823
 10
1188.383477
 20
-318.813574
 10
1188.408467
 20
-318.872949
 10
1188.4361
 20
-318.931771
 10
1188.466314
 20
-318.989921
 10
1188.499003
 20
-319.047296
 10
1188.534063
 20
-319.103791
 10
1188.571389
 20
-319.159304
 10
1188.610877
 20
-319.213729
 10
1188.652423
 20
-319.266963
 10
1188.695922
 20
-319.318901
 10
1188.741269
 20
-319.369441
 10
1188.788361
 20
-319.418477
 10
1188.837093
 20
-319.465906
 10
1188.887359
 20
-319.511623
 10
1188.939057
 20
-319.555526
 10
1188.992081
 20
-319.597509
 10
1189.046327
 20
-319.63747
 10
1189.10169
 20
-319.675303
 10
1189.158067
 20
-319.710905
 10
1189.215352
 20
-319.744172
 10
1189.273441
 20
-319.775
 10
1189.33223
 20
-319.803285
 10
1189.3916
 20
-319.828962
 10
1189.451372
 20
-319.852123
 10
1189.511355
 20
-319.8729
 10
1189.571356
 20
-319.891422
 10
1189.631183
 20
-319.907822
 10
1189.690642
 20
-319.92223
 10
1189.749543
 20
-319.934778
 10
1189.807692
 20
-319.945596
 10
1189.864897
 20
-319.954816
 10
1189.920966
 20
-319.962568
 10
1189.975706
 20
-319.968984
 10
1190.028924
 20
-319.974195
 10
1190.08043
 20
-319.978332
 10
1190.130029
 20
-319.981526
 10
1190.177529
 20
-319.983908
 10
1190.222739
 20
-319.98561
 10
1190.265466
 20
-319.986761
 10
1190.305517
 20
-319.987494
 10
1190.3427
 20
-319.987939
 10
1190.593678
 20
-319.989923
 10
1190.59394
 20
-319.989925
 10
1190.595778
 20
-319.98994
 10
1190.600766
 20
-319.989981
 10
1190.61048
 20
-319.990059
 10
1190.626495
 20
-319.99019
 10
1190.650385
 20
-319.990384
 10
1190.683727
 20
-319.990655
 10
1190.728095
 20
-319.991016
 10
1190.785064
 20
-319.991479
 10
1190.856211
 20
-319.992057
 10
1190.943109
 20
-319.992763
 10
1191.047335
 20
-319.993611
 10
1191.170463
 20
-319.994611
 10
1191.314068
 20
-319.995779
 10
1191.479727
 20
-319.997125
 10
1191.669013
 20
-319.998664
 10
1191.883502
 20
-320.000407
 10
1192.12477
 20
-320.002369
 10
1192.394391
 20
-320.00456
 10
1192.693941
 20
-320.006995
 10
1193.024208
 20
-320.00968
 10
1193.382828
 20
-320.012595
 10
1193.766651
 20
-320.015715
 10
1194.172527
 20
-320.019014
 10
1194.597305
 20
-320.022467
 10
1195.037835
 20
-320.026048
 10
1195.490967
 20
-320.029731
 10
1195.95355
 20
-320.033491
 10
1196.422434
 20
-320.037303
 10
1196.894468
 20
-320.04114
 10
1197.366502
 20
-320.044977
 10
1197.835386
 20
-320.048788
 10
1198.297969
 20
-320.052548
 10
1198.7511
 20
-320.056232
 10
1199.191631
 20
-320.059813
 10
1199.616409
 20
-320.063265
 10
1200.022285
 20
-320.066565
 10
1200.406108
 20
-320.069685
 10
1200.764728
 20
-320.0726
 10
1201.094994
 20
-320.075284
 10
1201.394544
 20
-320.077719
 10
1201.664165
 20
-320.079911
 10
1201.905433
 20
-320.081872
 10
1202.119923
 20
-320.083616
 10
1202.309209
 20
-320.085154
 10
1202.474867
 20
-320.086501
 10
1202.618473
 20
-320.087668
 10
1202.741601
 20
-320.088669
 10
1202.845826
 20
-320.089516
 10
1202.932724
 20
-320.090223
 10
1203.003871
 20
-320.090801
 10
1203.060841
 20
-320.091264
 10
1203.105209
 20
-320.091625
 10
1203.13855
 20
-320.091896
 10
1203.162441
 20
-320.09209
 10
1203.178455
 20
-320.09222
 10
1203.188169
 20
-320.092299
 10
1203.193157
 20
-320.09234
 10
1203.194995
 20
-320.092354
 10
1203.195257
 20
-320.092357
 10
1203.199267
 20
-322.999358
 10
1203.199456
 20
-323.456435
 10
1203.197048
 20
-323.952464
 10
1203.189386
 20
-324.482793
 10
1203.173814
 20
-325.042769
 10
1203.147674
 20
-325.627739
 10
1203.108309
 20
-326.233049
 10
1203.053064
 20
-326.854049
 10
1202.979279
 20
-327.486084
 10
1202.8843
 20
-328.124501
 10
1202.765469
 20
-328.764649
 10
1202.620128
 20
-329.401874
 10
1202.445622
 20
-330.031524
 10
1202.239292
 20
-330.648946
 10
1201.998483
 20
-331.249487
 10
1201.720537
 20
-331.828493
 10
1201.402798
 20
-332.381314
 10
1201.042607
 20
-332.903295
 10
1200.63731
 20
-333.389784
 10
1200.184248
 20
-333.836129
 10
1199.680764
 20
-334.237676
 10
1199.125344
 20
-334.590778
 10
1198.521037
 20
-334.895812
 10
1197.872037
 20
-335.154158
 10
1197.182535
 20
-335.367199
 10
1196.456724
 20
-335.536315
 10
1195.698795
 20
-335.662889
 10
1194.912941
 20
-335.748303
 10
1194.103354
 20
-335.793936
 10
1193.274226
 20
-335.801172
 10
1192.42975
 20
-335.771391
 10
1191.574117
 20
-335.705976
 10
1190.71152
 20
-335.606307
 10
1189.846151
 20
-335.473767
 10
1188.982202
 20
-335.309737
 10
1188.123865
 20
-335.115598
 10
1187.275333
 20
-334.892732
 10
1186.440798
 20
-334.64252
 10
1185.624452
 20
-334.366345
 10
1184.830486
 20
-334.065587
 10
1184.063094
 20
-333.741629
 10
1183.325698
 20
-333.396033
 10
1182.618642
 20
-333.031092
 10
1181.9415
 20
-332.649281
 10
1181.293846
 20
-332.253073
 10
1180.675255
 20
-331.844942
 10
1180.085302
 20
-331.427363
 10
1179.52356
 20
-331.00281
 10
1178.989604
 20
-330.573757
 10
1178.483008
 20
-330.142678
 10
1178.003347
 20
-329.712047
 10
1177.550196
 20
-329.28434
 10
1177.123127
 20
-328.862029
 10
1176.721717
 20
-328.447589
 10
1176.345538
 20
-328.043494
 10
1175.994166
 20
-327.652219
 10
1175.667175
 20
-327.276237
 10
1175.364139
 20
-326.918024
 10
1175.084633
 20
-326.580052
 10
1174.828231
 20
-326.264796
 10
1173.110995
 20
-324.130428
 10
1172.79026
 20
-323.731689
 10
1172.739799
 20
-323.668941
 10
1172.684856
 20
-323.600532
 10
1172.625759
 20
-323.526783
 10
1172.562839
 20
-323.448015
 10
1172.496423
 20
-323.364547
 10
1172.426841
 20
-323.276701
 10
1172.354421
 20
-323.184796
 10
1172.279493
 20
-323.089154
 10
1172.202386
 20
-322.990095
 10
1172.123428
 20
-322.887938
 10
1172.042948
 20
-322.783006
 10
1171.961276
 20
-322.675617
 10
1171.87874
 20
-322.566093
 10
1171.795669
 20
-322.454755
 10
1171.712392
 20
-322.341922
 10
1171.629238
 20
-322.227915
 10
1171.546537
 20
-322.113054
 10
1171.464616
 20
-321.997661
 10
1171.383805
 20
-321.882055
 10
1171.304433
 20
-321.766557
 10
1171.226756
 20
-321.651477
 10
1171.150734
 20
-321.537081
 10
1171.076257
 20
-321.423627
 10
1171.003212
 20
-321.311369
 10
1170.931488
 20
-321.200566
 10
1170.860973
 20
-321.091472
 10
1170.791555
 20
-320.984344
 10
1170.723122
 20
-320.879439
 10
1170.655564
 20
-320.777012
 10
1170.588767
 20
-320.67732
 10
1170.52262
 20
-320.580619
 10
1170.457011
 20
-320.487166
 10
1170.39183
 20
-320.397217
 10
1170.326963
 20
-320.311027
 10
1170.262299
 20
-320.228854
 10
1170.197726
 20
-320.150953
 10
1170.133133
 20
-320.077581
 10
1170.068408
 20
-320.008994
 10
1170.003438
 20
-319.945448
 10
1169.938113
 20
-319.8872
 10
1169.872372
 20
-319.834417
 10
1169.806363
 20
-319.786909
 10
1169.740284
 20
-319.744401
 10
1169.674334
 20
-319.706613
 10
1169.608712
 20
-319.673267
 10
1169.543617
 20
-319.644087
 10
1169.479249
 20
-319.618794
 10
1169.415805
 20
-319.597111
 10
1169.353485
 20
-319.578759
 10
1169.292487
 20
-319.563462
 10
1169.233011
 20
-319.550941
 10
1169.175256
 20
-319.540918
 10
1169.119421
 20
-319.533117
 10
1169.065703
 20
-319.527258
 10
1169.014303
 20
-319.523064
 10
1168.965419
 20
-319.520259
 10
1168.91925
 20
-319.518563
 10
1168.875996
 20
-319.517698
 10
1168.835854
 20
-319.517389
 10
1168.564972
 20
-319.517438
 10
1159.132761
 20
-319.519381
 10
1157.6502
 20
-319.519693
 10
1156.044227
 20
-319.520067
 10
1154.332913
 20
-319.520537
 10
1152.534331
 20
-319.521138
 10
1150.66655
 20
-319.521902
 10
1148.747643
 20
-319.522863
 10
1146.795681
 20
-319.524054
 10
1144.828735
 20
-319.52551
 10
1142.864876
 20
-319.527264
 10
1140.922176
 20
-319.529348
 10
1139.018707
 20
-319.531798
 10
1137.172539
 20
-319.534646
 10
1135.401744
 20
-319.537927
 10
1133.724393
 20
-319.541672
 10
1132.158558
 20
-319.545918
 10
1130.722309
 20
-319.550695
 10
1129.433719
 20
-319.55604
 10
1128.310858
 20
-319.561984
 10
1127.371798
 20
-319.568561
 10
1126.634611
 20
-319.575806
 10
1126.110691
 20
-319.583725
 10
1125.784732
 20
-319.592215
 10
1125.634752
 20
-319.601148
 10
1125.638769
 20
-319.610394
 10
1125.774799
 20
-319.619826
 10
1126.020861
 20
-319.629314
 10
1126.354971
 20
-319.638728
 10
1126.755149
 20
-319.647941
 10
1127.19941
 20
-319.656823
 10
1127.665774
 20
-319.665245
 10
1128.132256
 20
-319.673078
 10
1128.576876
 20
-319.680193
 10
1128.97765
 20
-319.686462
 10
1129.312596
 20
-319.691756
 10
1129.559732
 20
-319.695945
 10
1129.697075
 20
-319.6989
 10
1129.702644
 20
-319.700493
 10
1129.554454
 20
-319.700595
 10
1129.230525
 20
-319.699076
 10
1128.708873
 20
-319.695808
 10
1127.974188
 20
-319.690709
 10
1127.037845
 20
-319.683883
 10
1125.917893
 20
-319.675481
 10
1124.632378
 20
-319.665656
 10
1123.199348
 20
-319.654557
 10
1121.636851
 20
-319.642337
 10
1119.962934
 20
-319.629146
 10
1118.195644
 20
-319.615137
 10
1116.353029
 20
-319.60046
 10
1114.453136
 20
-319.585267
 10
1112.514014
 20
-319.569709
 10
1110.553708
 20
-319.553938
 10
1108.590267
 20
-319.538104
 10
1106.641739
 20
-319.522359
 10
1104.72617
 20
-319.506855
 10
1102.861608
 20
-319.491743
 10
1101.066101
 20
-319.477173
 10
1099.357695
 20
-319.463298
 10
1097.75444
 20
-319.450268
 10
1086.858085
 20
-319.361679
 10
1086.857835
 20
-319.361677
 10
1086.856085
 20
-319.361663
 10
1086.851333
 20
-319.361624
 10
1086.842081
 20
-319.361549
 10
1086.826827
 20
-319.361425
 10
1086.804071
 20
-319.361241
 10
1086.772313
 20
-319.360983
 10
1086.730052
 20
-319.36064
 10
1086.675788
 20
-319.360199
 10
1086.608021
 20
-319.359649
 10
1086.525249
 20
-319.358976
 10
1086.425974
 20
-319.35817
 10
1086.308693
 20
-319.357218
 10
1086.171908
 20
-319.356107
 10
1086.014117
 20
-319.354826
 10
1085.833821
 20
-319.353362
 10
1085.629518
 20
-319.351703
 10
1085.399709
 20
-319.349836
 10
1085.142892
 20
-319.347751
 10
1084.857569
 20
-319.345434
 10
1084.542988
 20
-319.342879
 10
1084.201399
 20
-319.340105
 10
1083.835805
 20
-319.337136
 10
1083.449205
 20
-319.333997
 10
1083.044601
 20
-319.330711
 10
1082.624992
 20
-319.327304
 10
1082.193381
 20
-319.323799
 10
1081.752767
 20
-319.320221
 10
1081.306152
 20
-319.316594
 10
1080.856536
 20
-319.312943
 10
1080.40692
 20
-319.309291
 10
1079.960304
 20
-319.305665
 10
1079.519691
 20
-319.302087
 10
1079.088079
 20
-319.298582
 10
1078.668471
 20
-319.295174
 10
1078.263867
 20
-319.291888
 10
1077.877267
 20
-319.288749
 10
1077.511672
 20
-319.28578
 10
1077.170084
 20
-319.283006
 10
1076.855503
 20
-319.280452
 10
1076.570179
 20
-319.278135
 10
1076.313363
 20
-319.276049
 10
1076.083554
 20
-319.274183
 10
1075.879251
 20
-319.272524
 10
1075.698954
 20
-319.27106
 10
1075.541164
 20
-319.269778
 10
1075.404378
 20
-319.268667
 10
1075.287098
 20
-319.267715
 10
1075.187822
 20
-319.266909
 10
1075.105051
 20
-319.266237
 10
1075.037284
 20
-319.265686
 10
1074.98302
 20
-319.265246
 10
1074.940759
 20
-319.264903
 10
1074.909
 20
-319.264645
 10
1074.886245
 20
-319.26446
 10
1074.870991
 20
-319.264336
 10
1074.861738
 20
-319.264261
 10
1074.856987
 20
-319.264222
 10
1074.855237
 20
-319.264208
 10
1074.854987
 20
-319.264206
 10
1074.63747
 20
-319.262387
 10
1074.603243
 20
-319.262123
 10
1074.565945
 20
-319.261966
 10
1074.525768
 20
-319.26205
 10
1074.482903
 20
-319.262509
 10
1074.437543
 20
-319.263478
 10
1074.389879
 20
-319.265091
 10
1074.340102
 20
-319.267481
 10
1074.288405
 20
-319.270784
 10
1074.234979
 20
-319.275134
 10
1074.180016
 20
-319.280663
 10
1074.123708
 20
-319.287508
 10
1074.066247
 20
-319.295802
 10
1074.007824
 20
-319.305679
 10
1073.948631
 20
-319.317273
 10
1073.888859
 20
-319.33072
 10
1073.828702
 20
-319.346152
 10
1073.768349
 20
-319.363704
 10
1073.707994
 20
-319.38351
 10
1073.647827
 20
-319.405705
 10
1073.588041
 20
-319.430423
 10
1073.528813
 20
-319.457758
 10
1073.470261
 20
-319.487648
 10
1073.412491
 20
-319.519991
 10
1073.355608
 20
-319.554683
 10
1073.299714
 20
-319.591623
 10
1073.244916
 20
-319.630708
 10
1073.191318
 20
-319.671837
 10
1073.139024
 20
-319.714906
 10
1073.088139
 20
-319.759814
 10
1073.038767
 20
-319.806458
 10
1072.991013
 20
-319.854736
 10
1072.944982
 20
-319.904545
 10
1072.900779
 20
-319.955783
 10
1072.858507
 20
-320.008349
 10
1072.818271
 20
-320.062139
 10
1072.780176
 20
-320.117051
 10
1072.744327
 20
-320.172984
 10
1072.710828
 20
-320.229834
 10
1072.679783
 20
-320.287499
 10
1072.651297
 20
-320.345878
 10
1072.625436
 20
-320.404852
 10
1072.602107
 20
-320.464245
 10
1072.581178
 20
-320.523863
 10
1072.562517
 20
-320.583514
 10
1072.545993
 20
-320.643006
 10
1072.531473
 20
-320.702145
 10
1072.518825
 20
-320.76074
 10
1072.507919
 20
-320.818598
 10
1072.498621
 20
-320.875526
 10
1072.4908
 20
-320.931332
 10
1072.484325
 20
-320.985823
 10
1072.479063
 20
-321.038807
 10
1072.474882
 20
-321.090091
 10
1072.471652
 20
-321.139482
 10
1072.469238
 20
-321.186788
 10
1072.467511
 20
-321.231817
 10
1072.466338
 20
-321.274375
 10
1072.465587
 20
-321.314271
 10
1072.465127
 20
-321.351311
 10
1072.463048
 20
-321.601332
 10
1072.463048
 20
-321.601334
 10
1072.463048
 20
-321.601346
 10
1072.463048
 20
-321.601381
 10
1072.463049
 20
-321.601448
 10
1072.463051
 20
-321.601558
 10
1072.463053
 20
-321.601722
 10
1072.463056
 20
-321.601952
 10
1072.463061
 20
-321.602258
 10
1072.463066
 20
-321.60265
 10
1072.463073
 20
-321.60314
 10
1072.463082
 20
-321.603739
 10
1072.463092
 20
-321.604457
 10
1072.463104
 20
-321.605305
 10
1072.463118
 20
-321.606294
 10
1072.463135
 20
-321.607435
 10
1072.463153
 20
-321.608739
 10
1072.463175
 20
-321.610217
 10
1072.463198
 20
-321.611879
 10
1072.463225
 20
-321.613736
 10
1072.463254
 20
-321.6158
 10
1072.463287
 20
-321.618075
 10
1072.463322
 20
-321.620545
 10
1072.46336
 20
-321.623189
 10
1072.4634
 20
-321.625985
 10
1072.463442
 20
-321.628911
 10
1072.463485
 20
-321.631946
 10
1072.46353
 20
-321.635068
 10
1072.463575
 20
-321.638254
 10
1072.463621
 20
-321.641484
 10
1072.463668
 20
-321.644736
 10
1072.463714
 20
-321.647988
 10
1072.46376
 20
-321.651218
 10
1072.463806
 20
-321.654404
 10
1072.46385
 20
-321.657526
 10
1072.463894
 20
-321.66056
 10
1072.463936
 20
-321.663486
 10
1072.463975
 20
-321.666282
 10
1072.464013
 20
-321.668926
 10
1072.464049
 20
-321.671397
 10
1072.464081
 20
-321.673672
 10
1072.464111
 20
-321.675735
 10
1072.464137
 20
-321.677593
 10
1072.464161
 20
-321.679255
 10
1072.464182
 20
-321.680732
 10
1072.464201
 20
-321.682036
 10
1072.464217
 20
-321.683177
 10
1072.464231
 20
-321.684167
 10
1072.464243
 20
-321.685015
 10
1072.464253
 20
-321.685733
 10
1072.464262
 20
-321.686331
 10
1072.464269
 20
-321.686822
 10
1072.464274
 20
-321.687214
 10
1072.464279
 20
-321.68752
 10
1072.464282
 20
-321.687749
 10
1072.464284
 20
-321.687914
 10
1072.464286
 20
-321.688024
 10
1072.464287
 20
-321.688091
 10
1072.464288
 20
-321.688126
 10
1072.464288
 20
-321.688138
 10
1072.464288
 20
-321.68814
 10
1072.464288
 20
-321.688142
 10
1072.464287
 20
-321.688154
 10
1072.464286
 20
-321.688189
 10
1072.464284
 20
-321.688256
 10
1072.464281
 20
-321.688366
 10
1072.464277
 20
-321.688531
 10
1072.46427
 20
-321.68876
 10
1072.464261
 20
-321.689066
 10
1072.46425
 20
-321.689458
 10
1072.464236
 20
-321.689949
 10
1072.464219
 20
-321.690547
 10
1072.464198
 20
-321.691265
 10
1072.464174
 20
-321.692113
 10
1072.464146
 20
-321.693103
 10
1072.464113
 20
-321.694244
 10
1072.464076
 20
-321.695548
 10
1072.464034
 20
-321.697025
 10
1072.463986
 20
-321.698687
 10
1072.463933
 20
-321.700545
 10
1072.463874
 20
-321.702608
 10
1072.463809
 20
-321.704883
 10
1072.463739
 20
-321.707354
 10
1072.463663
 20
-321.709998
 10
1072.463583
 20
-321.712794
 10
1072.4635
 20
-321.71572
 10
1072.463413
 20
-321.718754
 10
1072.463324
 20
-321.721876
 10
1072.463233
 20
-321.725062
 10
1072.46314
 20
-321.728292
 10
1072.463048
 20
-321.731544
 10
1072.462955
 20
-321.734796
 10
1072.462862
 20
-321.738026
 10
1072.462771
 20
-321.741212
 10
1072.462682
 20
-321.744334
 10
1072.462595
 20
-321.747369
 10
1072.462512
 20
-321.750295
 10
1072.462432
 20
-321.753091
 10
1072.462356
 20
-321.755735
 10
1072.462286
 20
-321.758205
 10
1072.462221
 20
-321.76048
 10
1072.462162
 20
-321.762544
 10
1072.462109
 20
-321.764401
 10
1072.462061
 20
-321.766063
 10
1072.462019
 20
-321.767541
 10
1072.461982
 20
-321.768845
 10
1072.461949
 20
-321.769986
 10
1072.461921
 20
-321.770975
 10
1072.461897
 20
-321.771823
 10
1072.461876
 20
-321.772541
 10
1072.461859
 20
-321.77314
 10
1072.461845
 20
-321.77363
 10
1072.461834
 20
-321.774022
 10
1072.461825
 20
-321.774328
 10
1072.461819
 20
-321.774558
 10
1072.461814
 20
-321.774722
 10
1072.461811
 20
-321.774832
 10
1072.461809
 20
-321.774899
 10
1072.461808
 20
-321.774934
 10
1072.461808
 20
-321.774946
 10
1072.461807
 20
-321.774948
 10
1072.460071
 20
-321.990935
 10
1072.45982
 20
-322.024922
 10
1072.459679
 20
-322.061957
 10
1072.459783
 20
-322.101852
 10
1072.460266
 20
-322.144415
 10
1072.461266
 20
-322.189457
 10
1072.462917
 20
-322.236786
 10
1072.465355
 20
-322.286213
 10
1072.468716
 20
-322.337547
 10
1072.473134
 20
-322.390598
 10
1072.478745
 20
-322.445175
 10
1072.485686
 20
-322.501088
 10
1072.49409
 20
-322.558146
 10
1072.504095
 20
-322.61616
 10
1072.515834
 20
-322.674938
 10
1072.529444
 20
-322.734291
 10
1072.545061
 20
-322.794028
 10
1072.562819
 20
-322.853958
 10
1072.582854
 20
-322.913891
 10
1072.605302
 20
-322.973638
 10
1072.630298
 20
-323.033006
 10
1072.657938
 20
-323.091821
 10
1072.688157
 20
-323.149965
 10
1072.72085
 20
-323.207332
 10
1072.755913
 20
-323.26382
 10
1072.793242
 20
-323.319324
 10
1072.832733
 20
-323.37374
 10
1072.874279
 20
-323.426965
 10
1072.917778
 20
-323.478894
 10
1072.963124
 20
-323.529424
 10
1073.010213
 20
-323.578451
 10
1073.058941
 20
-323.625871
 10
1073.109203
 20
-323.67158
 10
1073.160894
 20
-323.715473
 10
1073.21391
 20
-323.757448
 10
1073.268147
 20
-323.797399
 10
1073.323499
 20
-323.835224
 10
1073.379863
 20
-323.870818
 10
1073.437134
 20
-323.904078
 10
1073.495208
 20
-323.934899
 10
1073.553979
 20
-323.963177
 10
1073.613329
 20
-323.988848
 10
1073.67308
 20
-324.012004
 10
1073.733041
 20
-324.032776
 10
1073.793018
 20
-324.051294
 10
1073.852819
 20
-324.06769
 10
1073.912253
 20
-324.082095
 10
1073.971127
 20
-324.09464
 10
1074.029248
 20
-324.105455
 10
1074.086426
 20
-324.114673
 10
1074.142467
 20
-324.122424
 10
1074.197179
 20
-324.128839
 10
1074.25037
 20
-324.134048
 10
1074.301847
 20
-324.138185
 10
1074.35142
 20
-324.141378
 10
1074.398894
 20
-324.14376
 10
1074.444079
 20
-324.145461
 10
1074.486782
 20
-324.146612
 10
1074.52681
 20
-324.147345
 10
1074.563972
 20
-324.14779
 10
1074.814807
 20
-324.149774
 10
1074.815042
 20
-324.149775
 10
1074.816688
 20
-324.149789
 10
1074.821156
 20
-324.149825
 10
1074.829857
 20
-324.149896
 10
1074.844202
 20
-324.150013
 10
1074.865602
 20
-324.150186
 10
1074.895467
 20
-324.150429
 10
1074.93521
 20
-324.150752
 10
1074.98624
 20
-324.151167
 10
1075.049969
 20
-324.151685
 10
1075.127808
 20
-324.152318
 10
1075.221167
 20
-324.153077
 10
1075.331459
 20
-324.153974
 10
1075.460093
 20
-324.15502
 10
1075.60848
 20
-324.156226
 10
1075.778032
 20
-324.157604
 10
1075.97016
 20
-324.159166
 10
1076.186274
 20
-324.160923
 10
1076.427786
 20
-324.162887
 10
1076.696106
 20
-324.165068
 10
1076.991941
 20
-324.167473
 10
1077.313173
 20
-324.170085
 10
1077.65698
 20
-324.17288
 10
1078.020542
 20
-324.175836
 10
1078.401034
 20
-324.178929
 10
1078.795637
 20
-324.182137
 10
1079.201528
 20
-324.185437
 10
1079.615884
 20
-324.188806
 10
1080.035884
 20
-324.19222
 10
1080.458706
 20
-324.195658
 10
1080.881528
 20
-324.199095
 10
1081.301528
 20
-324.20251
 10
1081.715885
 20
-324.205879
 10
1082.121775
 20
-324.209178
 10
1082.516378
 20
-324.212387
 10
1082.896871
 20
-324.21548
 10
1083.260432
 20
-324.218436
 10
1083.604239
 20
-324.221231
 10
1083.925471
 20
-324.223842
 10
1084.221306
 20
-324.226247
 10
1084.489626
 20
-324.228429
 10
1084.731138
 20
-324.230392
 10
1084.947252
 20
-324.232149
 10
1085.13938
 20
-324.233711
 10
1085.308932
 20
-324.23509
 10
1085.45732
 20
-324.236296
 10
1085.585954
 20
-324.237342
 10
1085.696245
 20
-324.238239
 10
1085.789604
 20
-324.238998
 10
1085.867443
 20
-324.23963
 10
1085.931172
 20
-324.240148
 10
1085.982202
 20
-324.240563
 10
1086.021945
 20
-324.240886
 10
1086.05181
 20
-324.241129
 10
1086.07321
 20
-324.241303
 10
1086.087555
 20
-324.24142
 10
1086.096256
 20
-324.241491
 10
1086.100724
 20
-324.241527
 10
1086.10237
 20
-324.24154
 10
1086.102605
 20
-324.241542
 10
1084.861206
 20
-327.967269
 10
1084.665615
 20
-328.552881
 10
1084.450978
 20
-329.187237
 10
1084.216869
 20
-329.863196
 10
1083.962863
 20
-330.573617
 10
1083.688536
 20
-331.311357
 10
1083.393461
 20
-332.069277
 10
1083.077214
 20
-332.840233
 10
1082.739369
 20
-333.617085
 10
1082.379501
 20
-334.392691
 10
1081.997186
 20
-335.15991
 10
1081.591997
 20
-335.9116
 10
1081.163509
 20
-336.64062
 10
1080.711297
 20
-337.339828
 10
1080.234937
 20
-338.002083
 10
1079.734002
 20
-338.620244
 10
1079.208068
 20
-339.187168
 10
1078.656708
 20
-339.695715
 10
1078.079499
 20
-340.138743
 10
1077.476015
 20
-340.50911
 10
1076.84583
 20
-340.799676
 10
1076.189145
 20
-341.005341
 10
1075.508664
 20
-341.12918
 10
1074.807714
 20
-341.176309
 10
1074.089626
 20
-341.151847
 10
1073.357729
 20
-341.06091
 10
1072.61535
 20
-340.908615
 10
1071.86582
 20
-340.700079
 10
1071.112467
 20
-340.44042
 10
1070.358621
 20
-340.134754
 10
1069.60761
 20
-339.7882
 10
1068.862763
 20
-339.405873
 10
1068.127409
 20
-338.992891
 10
1067.404878
 20
-338.554371
 10
1066.698498
 20
-338.09543
 10
1066.011598
 20
-337.621186
 10
1065.347508
 20
-337.136756
 10
1064.709556
 20
-336.647256
 10
1064.101072
 20
-336.157804
 10
1063.525383
 20
-335.673516
 10
1062.985821
 20
-335.199511
 10
1062.484881
 20
-334.740054
 10
1062.021737
 20
-334.29601
 10
1061.594732
 20
-333.86739
 10
1061.202207
 20
-333.454209
 10
1060.842503
 20
-333.056478
 10
1060.513964
 20
-332.674211
 10
1060.21493
 20
-332.307422
 10
1059.943744
 20
-331.956122
 10
1059.698747
 20
-331.620325
 10
1059.478282
 20
-331.300044
 10
1059.28069
 20
-330.995291
 10
1059.104314
 20
-330.706081
 10
1058.947494
 20
-330.432425
 10
1058.808574
 20
-330.174336
 10
1058.685895
 20
-329.931828
 10
1058.577798
 20
-329.704914
 10
1058.482626
 20
-329.493606
 10
1058.398721
 20
-329.297918
 10
1058.324425
 20
-329.117862
 10
1057.838588
 20
-327.909562
 10
1057.527608
 20
-327.135853
 10
1057.478594
 20
-327.014168
 10
1057.424711
 20
-326.881921
 10
1057.365752
 20
-326.740159
 10
1057.301513
 20
-326.589924
 10
1057.231788
 20
-326.432261
 10
1057.156372
 20
-326.268216
 10
1057.075059
 20
-326.098831
 10
1056.987645
 20
-325.925153
 10
1056.893924
 20
-325.748226
 10
1056.793691
 20
-325.569093
 10
1056.68674
 20
-325.3888
 10
1056.572867
 20
-325.208392
 10
1056.451866
 20
-325.028911
 10
1056.323532
 20
-324.851404
 10
1056.187659
 20
-324.676915
 10
1056.044042
 20
-324.506487
 10
1055.892477
 20
-324.341167
 10
1055.732757
 20
-324.181997
 10
1055.564677
 20
-324.030023
 10
1055.388033
 20
-323.88629
 10
1055.202809
 20
-323.751597
 10
1055.009751
 20
-323.625765
 10
1054.809795
 20
-323.508373
 10
1054.603877
 20
-323.398996
 10
1054.392934
 20
-323.297213
 10
1054.177902
 20
-323.202601
 10
1053.959717
 20
-323.114735
 10
1053.739314
 20
-323.033195
 10
1053.517631
 20
-322.957556
 10
1053.295603
 20
-322.887396
 10
1053.074167
 20
-322.822292
 10
1052.854258
 20
-322.761821
 10
1052.636814
 20
-322.70556
 10
1052.422769
 20
-322.653086
 10
1052.213061
 20
-322.603977
 10
1052.008625
 20
-322.55781
 10
1051.810397
 20
-322.514161
 10
1051.619314
 20
-322.472608
 10
1051.436312
 20
-322.432728
 10
1051.262327
 20
-322.394098
 10
1051.098085
 20
-322.356371
 10
1050.943473
 20
-322.319504
 10
1050.798167
 20
-322.283532
 10
1050.661843
 20
-322.248486
 10
1050.534178
 20
-322.214401
 10
1050.414849
 20
-322.18131
 10
1050.303531
 20
-322.149246
 10
1050.199901
 20
-322.118243
 10
1050.103636
 20
-322.088333
 10
1050.014412
 20
-322.05955
 10
1049.931905
 20
-322.031928
 10
1049.855793
 20
-322.005499
 10
1049.78575
 20
-321.980298
 10
1049.721454
 20
-321.956357
 10
1049.662581
 20
-321.93371
 10
1049.608808
 20
-321.91239
 10
1049.55981
 20
-321.89243
 10
1049.515265
 20
-321.873864
 10
1049.474849
 20
-321.856725
 10
1049.206129
 20
-321.741465
 10
1049.204967
 20
-321.741463
 10
1049.196828
 20
-321.741448
 10
1049.174736
 20
-321.741406
 10
1049.131716
 20
-321.741326
 10
1049.06079
 20
-321.741194
 10
1048.954983
 20
-321.740996
 10
1048.807319
 20
-321.740721
 10
1048.61082
 20
-321.740354
 10
1048.358511
 20
-321.739883
 10
1048.043416
 20
-321.739295
 10
1047.658557
 20
-321.738577
 10
1047.19696
 20
-321.737715
 10
1046.651647
 20
-321.736697
 10
1046.015643
 20
-321.73551
 10
1045.281971
 20
-321.734141
 10
1044.443654
 20
-321.732576
 10
1043.493717
 20
-321.730803
 10
1042.425183
 20
-321.728808
 10
1041.231077
 20
-321.72658
 10
1039.90442
 20
-321.724103
 10
1038.441727
 20
-321.721373
 10
1036.85346
 20
-321.718409
 10
1035.153572
 20
-321.715236
 10
1033.356017
 20
-321.711881
 10
1031.474746
 20
-321.708369
 10
1029.523713
 20
-321.704728
 10
1027.516869
 20
-321.700982
 10
1025.468168
 20
-321.697158
 10
1023.391561
 20
-321.693282
 10
1021.301002
 20
-321.68938
 10
1019.210443
 20
-321.685478
 10
1017.133836
 20
-321.681602
 10
1015.085135
 20
-321.677778
 10
1013.078291
 20
-321.674032
 10
1011.127258
 20
-321.670391
 10
1009.245987
 20
-321.666879
 10
1007.448432
 20
-321.663524
 10
1005.748545
 20
-321.660351
 10
1004.160278
 20
-321.657387
 10
1002.697584
 20
-321.654657
 10
1001.370928
 20
-321.652181
 10
1000.176821
 20
-321.649952
 10
999.108287
 20
-321.647957
 10
998.15835
 20
-321.646184
 10
997.320033
 20
-321.64462
 10
996.586361
 20
-321.64325
 10
995.950357
 20
-321.642063
 10
995.405044
 20
-321.641045
 10
994.943447
 20
-321.640184
 10
994.558589
 20
-321.639465
 10
994.243493
 20
-321.638877
 10
993.991184
 20
-321.638406
 10
993.794686
 20
-321.63804
 10
993.647021
 20
-321.637764
 10
993.541214
 20
-321.637566
 10
993.470289
 20
-321.637434
 10
993.427268
 20
-321.637354
 10
993.405177
 20
-321.637313
 10
993.397038
 20
-321.637297
 10
993.395875
 20
-321.637295
 10
993.370039
 20
-321.631715
 10
993.365973
 20
-321.630837
 10
993.361538
 20
-321.629881
 10
993.356753
 20
-321.628854
 10
993.351637
 20
-321.627762
 10
993.346208
 20
-321.62661
 10
993.340485
 20
-321.625405
 10
993.334487
 20
-321.624153
 10
993.328233
 20
-321.622861
 10
993.321741
 20
-321.621533
 10
993.31503
 20
-321.620176
 10
993.308118
 20
-321.618797
 10
993.301025
 20
-321.617402
 10
993.293769
 20
-321.615996
 10
993.286369
 20
-321.614585
 10
993.278844
 20
-321.613177
 10
993.271212
 20
-321.611776
 10
993.263492
 20
-321.61039
 10
993.255703
 20
-321.609023
 10
993.247863
 20
-321.607683
 10
993.239992
 20
-321.606375
 10
993.232105
 20
-321.605104
 10
993.224204
 20
-321.603873
 10
993.216291
 20
-321.602679
 10
993.208365
 20
-321.601525
 10
993.200427
 20
-321.60041
 10
993.192475
 20
-321.599334
 10
993.184512
 20
-321.598298
 10
993.176536
 20
-321.597301
 10
993.168548
 20
-321.596343
 10
993.160547
 20
-321.595426
 10
993.152535
 20
-321.594548
 10
993.14451
 20
-321.593711
 10
993.136474
 20
-321.592914
 10
993.128425
 20
-321.592157
 10
993.120365
 20
-321.591441
 10
993.112294
 20
-321.590766
 10
993.104211
 20
-321.590132
 10
993.096116
 20
-321.589538
 10
993.08801
 20
-321.588986
 10
993.079893
 20
-321.588476
 10
993.071768
 20
-321.588006
 10
993.063653
 20
-321.587577
 10
993.05557
 20
-321.587185
 10
993.047538
 20
-321.586829
 10
993.03958
 20
-321.586507
 10
993.031717
 20
-321.586217
 10
993.023969
 20
-321.585957
 10
993.016358
 20
-321.585725
 10
993.008905
 20
-321.58552
 10
993.001631
 20
-321.585339
 10
992.994558
 20
-321.585181
 10
992.987706
 20
-321.585044
 10
992.981096
 20
-321.584926
 10
992.97475
 20
-321.584824
 10
992.968689
 20
-321.584738
 10
992.962934
 20
-321.584665
 10
992.957507
 20
-321.584603
 10
992.952427
 20
-321.584551
 10
992.947717
 20
-321.584506
 10
992.915949
 20
-321.584218
 10
992.915246
 20
-321.584212
 10
992.910323
 20
-321.584172
 10
992.89696
 20
-321.584064
 10
992.870938
 20
-321.583853
 10
992.828036
 20
-321.583504
 10
992.764035
 20
-321.582985
 10
992.674715
 20
-321.58226
 10
992.555856
 20
-321.581295
 10
992.403239
 20
-321.580056
 10
992.212643
 20
-321.578508
 10
991.979848
 20
-321.576619
 10
991.700635
 20
-321.574352
 10
991.370784
 20
-321.571674
 10
990.986075
 20
-321.568551
 10
990.542289
 20
-321.564948
 10
990.035204
 20
-321.560831
 10
989.460603
 20
-321.556166
 10
988.814264
 20
-321.550919
 10
988.091967
 20
-321.545055
 10
987.289494
 20
-321.53854
 10
986.404734
 20
-321.531358
 10
985.444017
 20
-321.523558
 10
984.415782
 20
-321.515211
 10
983.32847
 20
-321.506383
 10
982.190519
 20
-321.497145
 10
981.01037
 20
-321.487564
 10
979.796463
 20
-321.477709
 10
978.557236
 20
-321.467649
 10
977.30113
 20
-321.457451
 10
976.036584
 20
-321.447185
 10
974.772038
 20
-321.436919
 10
973.515932
 20
-321.426722
 10
972.276706
 20
-321.416661
 10
971.062798
 20
-321.406806
 10
969.882649
 20
-321.397225
 10
968.744698
 20
-321.387987
 10
967.657386
 20
-321.37916
 10
966.629151
 20
-321.370812
 10
965.668434
 20
-321.363013
 10
964.783674
 20
-321.35583
 10
963.981201
 20
-321.349315
 10
963.258905
 20
-321.343451
 10
962.612566
 20
-321.338204
 10
962.037964
 20
-321.333539
 10
961.53088
 20
-321.329422
 10
961.087093
 20
-321.32582
 10
960.702384
 20
-321.322696
 10
960.372533
 20
-321.320019
 10
960.09332
 20
-321.317752
 10
959.860526
 20
-321.315862
 10
959.66993
 20
-321.314315
 10
959.517312
 20
-321.313076
 10
959.398453
 20
-321.312111
 10
959.309133
 20
-321.311385
 10
959.245132
 20
-321.310866
 10
959.202231
 20
-321.310518
 10
959.176208
 20
-321.310306
 10
959.162845
 20
-321.310198
 10
959.157922
 20
-321.310158
 10
959.157219
 20
-321.310152
 10
958.939702
 20
-321.308333
 10
958.905475
 20
-321.308069
 10
958.868177
 20
-321.307912
 10
958.828
 20
-321.307996
 10
958.785136
 20
-321.308455
 10
958.739775
 20
-321.309424
 10
958.692111
 20
-321.311037
 10
958.642334
 20
-321.313428
 10
958.590637
 20
-321.31673
 10
958.537211
 20
-321.32108
 10
958.482249
 20
-321.32661
 10
958.425941
 20
-321.333454
 10
958.368479
 20
-321.341748
 10
958.310056
 20
-321.351625
 10
958.250863
 20
-321.36322
 10
958.191092
 20
-321.376666
 10
958.130934
 20
-321.392098
 10
958.070581
 20
-321.40965
 10
958.010226
 20
-321.429456
 10
957.950059
 20
-321.451651
 10
957.890273
 20
-321.476369
 10
957.831045
 20
-321.503705
 10
957.772494
 20
-321.533594
 10
957.714724
 20
-321.565937
 10
957.65784
 20
-321.600629
 10
957.601947
 20
-321.637569
 10
957.547149
 20
-321.676654
 10
957.49355
 20
-321.717783
 10
957.441256
 20
-321.760852
 10
957.390371
 20
-321.80576
 10
957.340999
 20
-321.852404
 10
957.293246
 20
-321.900682
 10
957.247215
 20
-321.950491
 10
957.203011
 20
-322.00173
 10
957.160739
 20
-322.054295
 10
957.120503
 20
-322.108085
 10
957.082409
 20
-322.162998
 10
957.046559
 20
-322.21893
 10
957.01306
 20
-322.27578
 10
956.982015
 20
-322.333446
 10
956.95353
 20
-322.391824
 10
956.927669
 20
-322.450798
 10
956.90434
 20
-322.510191
 10
956.883411
 20
-322.569809
 10
956.86475
 20
-322.62946
 10
956.848225
 20
-322.688952
 10
956.833705
 20
-322.748091
 10
956.821058
 20
-322.806686
 10
956.810151
 20
-322.864544
 10
956.800853
 20
-322.921473
 10
956.793033
 20
-322.977278
 10
956.786557
 20
-323.03177
 10
956.781295
 20
-323.084753
 10
956.777115
 20
-323.136037
 10
956.773884
 20
-323.185428
 10
956.771471
 20
-323.232734
 10
956.769744
 20
-323.277763
 10
956.768571
 20
-323.320321
 10
956.76782
 20
-323.360217
 10
956.767359
 20
-323.397257
 10
956.76528
 20
-323.647278
 10
956.763585
 20
-323.863265
 10
956.763341
 20
-323.897251
 10
956.763206
 20
-323.934287
 10
956.763317
 20
-323.974182
 10
956.763809
 20
-324.016745
 10
956.764816
 20
-324.061787
 10
956.766475
 20
-324.109116
 10
956.768921
 20
-324.158543
 10
956.772289
 20
-324.209877
 10
956.776714
 20
-324.262928
 10
956.782332
 20
-324.317505
 10
956.789278
 20
-324.373418
 10
956.797687
 20
-324.430476
 10
956.807696
 20
-324.48849
 10
956.819439
 20
-324.547268
 10
956.833051
 20
-324.606621
 10
956.848669
 20
-324.666357
 10
956.866426
 20
-324.726288
 10
956.88646
 20
-324.786221
 10
956.908904
 20
-324.845967
 10
956.933895
 20
-324.905336
 10
956.961527
 20
-324.964151
 10
956.991737
 20
-325.022294
 10
957.024421
 20
-325.079662
 10
957.059473
 20
-325.13615
 10
957.096791
 20
-325.191654
 10
957.136268
 20
-325.246071
 10
957.177803
 20
-325.299296
 10
957.221289
 20
-325.351227
 10
957.266623
 20
-325.401758
 10
957.313701
 20
-325.450786
 10
957.362419
 20
-325.498207
 10
957.412671
 20
-325.543918
 10
957.464355
 20
-325.587814
 10
957.517365
 20
-325.629791
 10
957.571598
 20
-325.669746
 10
957.626949
 20
-325.707575
 10
957.683314
 20
-325.743173
 10
957.740589
 20
-325.776438
 10
957.79867
 20
-325.807264
 10
957.857452
 20
-325.835548
 10
957.916816
 20
-325.861226
 10
957.976585
 20
-325.884389
 10
958.036566
 20
-325.905168
 10
958.096566
 20
-325.923694
 10
958.156394
 20
-325.940098
 10
958.215856
 20
-325.954512
 10
958.274759
 20
-325.967066
 10
958.332913
 20
-325.97789
 10
958.390123
 20
-325.987117
 10
958.446197
 20
-325.994877
 10
958.500944
 20
-326.001301
 10
958.55417
 20
-326.006521
 10
958.605682
 20
-326.010666
 10
958.655289
 20
-326.013868
 10
958.702797
 20
-326.016258
 10
958.748015
 20
-326.017968
 10
958.790749
 20
-326.019127
 10
958.830808
 20
-326.019867
 10
958.867998
 20
-326.02032
 10
959.119023
 20
-326.022351
 10
959.119274
 20
-326.022353
 10
959.121033
 20
-326.022367
 10
959.125804
 20
-326.022406
 10
959.135097
 20
-326.022482
 10
959.150418
 20
-326.022606
 10
959.173273
 20
-326.022792
 10
959.205169
 20
-326.023051
 10
959.247615
 20
-326.023396
 10
959.302115
 20
-326.023839
 10
959.370178
 20
-326.024392
 10
959.45331
 20
-326.025068
 10
959.553019
 20
-326.025878
 10
959.67081
 20
-326.026835
 10
959.808192
 20
-326.027952
 10
959.966671
 20
-326.02924
 10
960.147753
 20
-326.030711
 10
960.352947
 20
-326.032379
 10
960.583758
 20
-326.034254
 10
960.841694
 20
-326.036351
 10
961.128262
 20
-326.038679
 10
961.444215
 20
-326.041247
 10
961.787292
 20
-326.044035
 10
962.154481
 20
-326.047019
 10
962.542766
 20
-326.050174
 10
962.949134
 20
-326.053477
 10
963.370572
 20
-326.056902
 10
963.804065
 20
-326.060424
 10
964.2466
 20
-326.064021
 10
964.695163
 20
-326.067666
 10
965.146739
 20
-326.071336
 10
965.598315
 20
-326.075006
 10
966.046878
 20
-326.078651
 10
966.489413
 20
-326.082247
 10
966.922906
 20
-326.08577
 10
967.344344
 20
-326.089195
 10
967.750712
 20
-326.092497
 10
968.138998
 20
-326.095653
 10
968.506186
 20
-326.098637
 10
968.849264
 20
-326.101425
 10
969.165216
 20
-326.103992
 10
969.451784
 20
-326.106321
 10
969.70972
 20
-326.108417
 10
969.940531
 20
-326.110293
 10
970.145725
 20
-326.11196
 10
970.326807
 20
-326.113432
 10
970.485286
 20
-326.11472
 10
970.622668
 20
-326.115836
 10
970.740459
 20
-326.116794
 10
970.840168
 20
-326.117604
 10
970.9233
 20
-326.118279
 10
970.991363
 20
-326.118833
 10
971.045864
 20
-326.119275
 10
971.088309
 20
-326.11962
 10
971.120205
 20
-326.11988
 10
971.143061
 20
-326.120065
 10
971.158381
 20
-326.12019
 10
971.167674
 20
-326.120265
 10
971.172446
 20
-326.120304
 10
971.174204
 20
-326.120318
 10
971.174455
 20
-326.12032
 10
971.054536
 20
-328.011293
 10
971.035178
 20
-328.308728
 10
971.011202
 20
-328.632164
 10
970.979786
 20
-328.979241
 10
970.93811
 20
-329.347594
 10
970.883353
 20
-329.734862
 10
970.812697
 20
-330.138683
 10
970.723319
 20
-330.556693
 10
970.6124
 20
-330.986531
 10
970.477119
 20
-331.425834
 10
970.314656
 20
-331.872239
 10
970.12219
 20
-332.323385
 10
969.896902
 20
-332.776908
 10
969.63597
 20
-333.230446
 10
969.336575
 20
-333.681636
 10
968.995896
 20
-334.128117
 10
968.611112
 20
-334.567526
 10
968.179404
 20
-334.9975
 10
967.697951
 20
-335.415677
 10
967.163932
 20
-335.819694
 10
966.574528
 20
-336.207189
 10
965.928234
 20
-336.575976
 10
965.228817
 20
-336.924575
 10
964.481358
 20
-337.251681
 10
963.690941
 20
-337.555991
 10
962.862646
 20
-337.836199
 10
962.001557
 20
-338.091004
 10
961.112756
 20
-338.3191
 10
960.201325
 20
-338.519183
 10
959.272346
 20
-338.689949
 10
958.330903
 20
-338.830095
 10
957.382077
 20
-338.938316
 10
956.43095
 20
-339.013309
 10
955.482605
 20
-339.053769
 10
954.542125
 20
-339.058392
 10
953.614591
 20
-339.025874
 10
952.705087
 20
-338.954912
 10
951.818693
 20
-338.844201
 10
950.960493
 20
-338.692437
 10
950.13557
 20
-338.498316
 10
949.349004
 20
-338.260535
 10
948.604809
 20
-337.978676
 10
947.90271
 20
-337.655876
 10
947.241364
 20
-337.296155
 10
946.619428
 20
-336.903537
 10
946.035557
 20
-336.482044
 10
945.488407
 20
-336.035699
 10
944.976636
 20
-335.568523
 10
944.498898
 20
-335.084541
 10
944.05385
 20
-334.587773
 10
943.640149
 20
-334.082243
 10
943.25645
 20
-333.571972
 10
942.90141
 20
-333.060984
 10
942.573684
 20
-332.553301
 10
942.27193
 20
-332.052946
 10
941.994803
 20
-331.56394
 10
941.740959
 20
-331.090307
 10
941.509055
 20
-330.636068
 10
941.297746
 20
-330.205247
 10
941.105689
 20
-329.801866
 10
939.827257
 20
-327.064298
 10
939.632807
 20
-326.64766
 10
939.602188
 20
-326.582111
 10
939.568694
 20
-326.510746
 10
939.532366
 20
-326.433997
 10
939.493248
 20
-326.352297
 10
939.451379
 20
-326.266079
 10
939.406802
 20
-326.175775
 10
939.359559
 20
-326.081819
 10
939.309691
 20
-325.984643
 10
939.25724
 20
-325.88468
 10
939.202248
 20
-325.782363
 10
939.144757
 20
-325.678124
 10
939.084808
 20
-325.572397
 10
939.022443
 20
-325.465615
 10
938.957703
 20
-325.35821
 10
938.890631
 20
-325.250615
 10
938.821268
 20
-325.143263
 10
938.749657
 20
-325.036586
 10
938.675837
 20
-324.931019
 10
938.599853
 20
-324.826992
 10
938.521744
 20
-324.72494
 10
938.441555
 20
-324.625234
 10
938.359339
 20
-324.528005
 10
938.275148
 20
-324.433322
 10
938.189038
 20
-324.341255
 10
938.101063
 20
-324.251873
 10
938.011276
 20
-324.165246
 10
937.919732
 20
-324.081443
 10
937.826486
 20
-324.000534
 10
937.731591
 20
-323.922588
 10
937.635101
 20
-323.847676
 10
937.537072
 20
-323.775865
 10
937.437556
 20
-323.707227
 10
937.336608
 20
-323.64183
 10
937.234283
 20
-323.579745
 10
937.130634
 20
-323.52104
 10
937.025716
 20
-323.465785
 10
936.919583
 20
-323.41405
 10
936.812289
 20
-323.365904
 10
936.703889
 20
-323.321417
 10
936.594436
 20
-323.280658
 10
936.484034
 20
-323.243654
 10
936.372983
 20
-323.21026
 10
936.261634
 20
-323.180289
 10
936.150336
 20
-323.153553
 10
936.039438
 20
-323.129864
 10
935.929291
 20
-323.109035
 10
935.820245
 20
-323.090877
 10
935.712648
 20
-323.075204
 10
935.606852
 20
-323.061827
 10
935.503205
 20
-323.050559
 10
935.402057
 20
-323.041213
 10
935.303759
 20
-323.0336
 10
935.20866
 20
-323.027532
 10
935.11711
 20
-323.022824
 10
935.029458
 20
-323.019286
 10
934.946054
 20
-323.01673
 10
934.867249
 20
-323.01497
 10
934.793391
 20
-323.013818
 10
934.724832
 20
-323.013086
 10
934.262105
 20
-323.009609
 10
934.260508
 20
-323.009598
 10
934.249324
 20
-323.009515
 10
934.218968
 20
-323.009292
 10
934.159853
 20
-323.008856
 10
934.062393
 20
-323.008139
 10
933.917003
 20
-323.007068
 10
933.714096
 20
-323.005574
 10
933.444085
 20
-323.003585
 10
933.097385
 20
-323.001032
 10
932.66441
 20
-322.997844
 10
932.135573
 20
-322.993949
 10
931.501288
 20
-322.989278
 10
930.751969
 20
-322.98376
 10
929.87803
 20
-322.977325
 10
928.869884
 20
-322.9699
 10
927.717946
 20
-322.961417
 10
926.412629
 20
-322.951805
 10
924.944347
 20
-322.940992
 10
923.303514
 20
-322.928909
 10
921.480543
 20
-322.915484
 10
919.470643
 20
-322.900683
 10
917.288191
 20
-322.884611
 10
914.952361
 20
-322.86741
 10
912.482324
 20
-322.84922
 10
909.897253
 20
-322.830184
 10
907.21632
 20
-322.810441
 10
904.458698
 20
-322.790134
 10
901.643559
 20
-322.769403
 10
898.790076
 20
-322.748389
 10
895.91742
 20
-322.727235
 10
893.044764
 20
-322.70608
 10
890.19128
 20
-322.685067
 10
887.376141
 20
-322.664336
 10
884.618519
 20
-322.644028
 10
881.937586
 20
-322.624285
 10
879.352516
 20
-322.605249
 10
876.882479
 20
-322.587059
 10
874.546648
 20
-322.569858
 10
872.364197
 20
-322.553786
 10
870.354296
 20
-322.538985
 10
868.531326
 20
-322.52556
 10
866.890493
 20
-322.513477
 10
865.422211
 20
-322.502664
 10
864.116894
 20
-322.493052
 10
862.964956
 20
-322.484569
 10
861.95681
 20
-322.477145
 10
861.082871
 20
-322.470709
 10
860.333552
 20
-322.465191
 10
859.699267
 20
-322.46052
 10
859.170429
 20
-322.456625
 10
858.737454
 20
-322.453437
 10
858.390754
 20
-322.450884
 10
858.120744
 20
-322.448895
 10
857.917836
 20
-322.447401
 10
857.772446
 20
-322.44633
 10
857.674987
 20
-322.445613
 10
857.615872
 20
-322.445177
 10
857.585516
 20
-322.444954
 10
857.574332
 20
-322.444872
 10
857.572734
 20
-322.44486
 10
857.572315
 20
-322.444856
 10
857.569379
 20
-322.444833
 10
857.561409
 20
-322.444768
 10
857.545889
 20
-322.444642
 10
857.520302
 20
-322.444435
 10
857.482131
 20
-322.444125
 10
857.42886
 20
-322.443694
 10
857.357971
 20
-322.443119
 10
857.266948
 20
-322.442381
 10
857.153275
 20
-322.44146
 10
857.014434
 20
-322.440334
 10
856.847908
 20
-322.438985
 10
856.651182
 20
-322.43739
 10
856.421737
 20
-322.43553
 10
856.157059
 20
-322.433385
 10
855.854628
 20
-322.430933
 10
855.51193
 20
-322.428156
 10
855.126447
 20
-322.425031
 10
854.695662
 20
-322.421539
 10
854.217059
 20
-322.41766
 10
853.689379
 20
-322.413383
 10
853.116397
 20
-322.408738
 10
852.503147
 20
-322.403768
 10
851.854663
 20
-322.398511
 10
851.175977
 20
-322.39301
 10
850.472124
 20
-322.387305
 10
849.748137
 20
-322.381436
 10
849.00905
 20
-322.375446
 10
848.259895
 20
-322.369373
 10
847.505707
 20
-322.36326
 10
846.751519
 20
-322.357147
 10
846.002364
 20
-322.351074
 10
845.263277
 20
-322.345084
 10
844.53929
 20
-322.339215
 10
843.835437
 20
-322.33351
 10
843.156752
 20
-322.328009
 10
842.508267
 20
-322.322753
 10
841.895017
 20
-322.317782
 10
841.322036
 20
-322.313137
 10
840.794356
 20
-322.30886
 10
840.315753
 20
-322.304981
 10
839.884968
 20
-322.301489
 10
839.499485
 20
-322.298364
 10
839.156786
 20
-322.295587
 10
838.854356
 20
-322.293135
 10
838.589677
 20
-322.29099
 10
838.360233
 20
-322.28913
 10
838.163506
 20
-322.287535
 10
837.996981
 20
-322.286186
 10
837.85814
 20
-322.28506
 10
837.744466
 20
-322.284139
 10
837.653443
 20
-322.283401
 10
837.582555
 20
-322.282826
 10
837.529283
 20
-322.282395
 10
837.491113
 20
-322.282085
 10
837.465526
 20
-322.281878
 10
837.450006
 20
-322.281752
 10
837.442036
 20
-322.281688
 10
837.4391
 20
-322.281664
 10
837.43868
 20
-322.28166
 10
837.221164
 20
-322.279883
 10
837.186937
 20
-322.279625
 10
837.149639
 20
-322.279475
 10
837.109462
 20
-322.279566
 10
837.066597
 20
-322.280034
 10
837.021237
 20
-322.281011
 10
836.973572
 20
-322.282631
 10
836.923796
 20
-322.28503
 10
836.872099
 20
-322.288341
 10
836.818673
 20
-322.292699
 10
836.76371
 20
-322.298237
 10
836.707402
 20
-322.305089
 10
836.649941
 20
-322.31339
 10
836.591517
 20
-322.323273
 10
836.532324
 20
-322.334874
 10
836.472553
 20
-322.348326
 10
836.412395
 20
-322.363762
 10
836.352043
 20
-322.381318
 10
836.291687
 20
-322.401128
 10
836.231521
 20
-322.423324
 10
836.171735
 20
-322.448043
 10
836.112506
 20
-322.475377
 10
836.053955
 20
-322.505266
 10
835.996185
 20
-322.537605
 10
835.939301
 20
-322.572293
 10
835.883408
 20
-322.609228
 10
835.82861
 20
-322.648307
 10
835.775012
 20
-322.689428
 10
835.722718
 20
-322.732489
 10
835.671832
 20
-322.777387
 10
835.622461
 20
-322.824021
 10
835.574707
 20
-322.872287
 10
835.528676
 20
-322.922084
 10
835.484472
 20
-322.97331
 10
835.4422
 20
-323.025861
 10
835.401965
 20
-323.079637
 10
835.36387
 20
-323.134534
 10
835.32802
 20
-323.19045
 10
835.294521
 20
-323.247283
 10
835.263477
 20
-323.304931
 10
835.234991
 20
-323.363291
 10
835.20913
 20
-323.422246
 10
835.185801
 20
-323.481619
 10
835.164872
 20
-323.541218
 10
835.146211
 20
-323.600849
 10
835.129686
 20
-323.66032
 10
835.115166
 20
-323.719439
 10
835.102519
 20
-323.778013
 10
835.091612
 20
-323.83585
 10
835.082315
 20
-323.892758
 10
835.074494
 20
-323.948544
 10
835.068019
 20
-324.003015
 10
835.062757
 20
-324.055979
 10
835.058576
 20
-324.107244
 10
835.055345
 20
-324.156616
 10
835.052932
 20
-324.203905
 10
835.051205
 20
-324.248916
 10
835.050032
 20
-324.291458
 10
835.049281
 20
-324.331339
 10
835.048821
 20
-324.368365
 10
835.046741
 20
-324.61829
 10
835.045005
 20
-324.834277
 10
835.044754
 20
-324.868263
 10
835.044613
 20
-324.905299
 10
835.044718
 20
-324.945194
 10
835.045204
 20
-324.987757
 10
835.046208
 20
-325.032799
 10
835.047865
 20
-325.080129
 10
835.05031
 20
-325.129557
 10
835.053681
 20
-325.180892
 10
835.058113
 20
-325.233943
 10
835.063741
 20
-325.288522
 10
835.070702
 20
-325.344437
 10
835.079131
 20
-325.401497
 10
835.089165
 20
-325.459513
 10
835.100938
 20
-325.518294
 10
835.114587
 20
-325.57765
 10
835.130248
 20
-325.637391
 10
835.148057
 20
-325.697325
 10
835.16815
 20
-325.757263
 10
835.190661
 20
-325.817015
 10
835.215728
 20
-325.876389
 10
835.243446
 20
-325.935211
 10
835.273749
 20
-325.993361
 10
835.306532
 20
-326.050736
 10
835.341689
 20
-326.107232
 10
835.379115
 20
-326.162745
 10
835.418705
 20
-326.217171
 10
835.460352
 20
-326.270407
 10
835.503951
 20
-326.322347
 10
835.549397
 20
-326.372888
 10
835.596584
 20
-326.421927
 10
835.645406
 20
-326.46936
 10
835.695758
 20
-326.515082
 10
835.747534
 20
-326.558989
 10
835.800629
 20
-326.600978
 10
835.854937
 20
-326.640945
 10
835.910353
 20
-326.678786
 10
835.96677
 20
-326.714396
 10
836.024084
 20
-326.747673
 10
836.082189
 20
-326.778512
 10
836.14098
 20
-326.806808
 10
836.200336
 20
-326.832498
 10
836.26008
 20
-326.855674
 10
836.320022
 20
-326.876465
 10
836.379969
 20
-326.895003
 10
836.439732
 20
-326.91142
 10
836.499118
 20
-326.925845
 10
836.557937
 20
-326.938411
 10
836.615996
 20
-326.949247
 10
836.673106
 20
-326.958485
 10
836.729075
 20
-326.966256
 10
836.78371
 20
-326.972691
 10
836.836823
 20
-326.977921
 10
836.88822
 20
-326.982076
 10
836.937711
 20
-326.985288
 10
836.985105
 20
-326.987687
 10
837.03021
 20
-326.989405
 10
837.072835
 20
-326.990573
 10
837.112789
 20
-326.991321
 10
837.149881
 20
-326.99178
 10
837.400237
 20
-326.993859
 10
837.400436
 20
-326.993861
 10
837.401835
 20
-326.993872
 10
837.405631
 20
-326.993903
 10
837.413023
 20
-326.993963
 10
837.425209
 20
-326.994062
 10
837.44339
 20
-326.99421
 10
837.468762
 20
-326.994416
 10
837.502525
 20
-326.99469
 10
837.545878
 20
-326.995042
 10
837.60002
 20
-326.995482
 10
837.666148
 20
-326.996019
 10
837.745461
 20
-326.996663
 10
837.83916
 20
-326.997424
 10
837.948441
 20
-326.998311
 10
838.074504
 20
-326.999335
 10
838.218548
 20
-327.000505
 10
838.38177
 20
-327.001831
 10
838.565371
 20
-327.003322
 10
838.770548
 20
-327.004988
 10
838.9985
 20
-327.006839
 10
839.249827
 20
-327.00888
 10
839.522731
 20
-327.011097
 10
839.814813
 20
-327.013469
 10
840.123678
 20
-327.015977
 10
840.446927
 20
-327.018602
 10
840.782162
 20
-327.021325
 10
841.126988
 20
-327.024125
 10
841.479005
 20
-327.026984
 10
841.835818
 20
-327.029882
 10
842.195027
 20
-327.032799
 10
842.554237
 20
-327.035716
 10
842.91105
 20
-327.038614
 10
843.263067
 20
-327.041473
 10
843.607892
 20
-327.044273
 10
843.943128
 20
-327.046996
 10
844.266377
 20
-327.049621
 10
844.575241
 20
-327.052129
 10
844.867324
 20
-327.054501
 10
845.140228
 20
-327.056718
 10
845.391555
 20
-327.058759
 10
845.619507
 20
-327.06061
 10
845.824684
 20
-327.062276
 10
846.008285
 20
-327.063767
 10
846.171507
 20
-327.065093
 10
846.315551
 20
-327.066263
 10
846.441614
 20
-327.067287
 10
846.550895
 20
-327.068174
 10
846.644593
 20
-327.068935
 10
846.723907
 20
-327.069579
 10
846.790035
 20
-327.070116
 10
846.844176
 20
-327.070556
 10
846.887529
 20
-327.070908
 10
846.921293
 20
-327.071182
 10
846.946665
 20
-327.071388
 10
846.964845
 20
-327.071536
 10
846.977032
 20
-327.071635
 10
846.984424
 20
-327.071695
 10
846.98822
 20
-327.071726
 10
846.989618
 20
-327.071737
 10
846.989818
 20
-327.071739
 10
847.424231
 20
-329.914998
 10
847.492208
 20
-330.362009
 10
847.56404
 20
-330.846857
 10
847.637066
 20
-331.364729
 10
847.708626
 20
-331.910814
 10
847.776059
 20
-332.480298
 10
847.836704
 20
-333.06837
 10
847.8879
 20
-333.670217
 10
847.926986
 20
-334.281028
 10
847.951301
 20
-334.89599
 10
847.958185
 20
-335.51029
 10
847.944976
 20
-336.119116
 10
847.909014
 20
-336.717657
 10
847.847638
 20
-337.3011
 10
847.758187
 20
-337.864632
 10
847.638001
 20
-338.403442
 10
847.484417
 20
-338.912717
 10
847.294776
 20
-339.387645
 10
847.066417
 20
-339.823414
 10
846.796678
 20
-340.215211
 10
846.4829
 20
-340.558225
 10
846.123331
 20
-340.848974
 10
845.719869
 20
-341.089305
 10
845.27532
 20
-341.282395
 10
844.792491
 20
-341.431424
 10
844.274189
 20
-341.539567
 10
843.723222
 20
-341.610004
 10
843.142396
 20
-341.645912
 10
842.534519
 20
-341.650469
 10
841.902397
 20
-341.626853
 10
841.248838
 20
-341.578242
 10
840.576649
 20
-341.507814
 10
839.888636
 20
-341.418745
 10
839.187608
 20
-341.314216
 10
838.47637
 20
-341.197402
 10
837.75773
 20
-341.071482
 10
837.034495
 20
-340.939635
 10
836.309473
 20
-340.805037
 10
835.585469
 20
-340.670867
 10
834.865292
 20
-340.540302
 10
834.151748
 20
-340.416521
 10
833.447355
 20
-340.302096
 10
832.753466
 20
-340.197184
 10
832.071149
 20
-340.101336
 10
831.401468
 20
-340.014102
 10
830.745488
 20
-339.935035
 10
830.104274
 20
-339.863686
 10
829.478892
 20
-339.799604
 10
828.870406
 20
-339.742343
 10
828.279883
 20
-339.691453
 10
827.708386
 20
-339.646485
 10
827.156983
 20
-339.606991
 10
826.626736
 20
-339.572521
 10
826.118713
 20
-339.542628
 10
825.633977
 20
-339.516862
 10
825.173595
 20
-339.494774
 10
824.738631
 20
-339.475916
 10
824.330151
 20
-339.459839
 10
823.949219
 20
-339.446094
 10
823.596902
 20
-339.434233
 10
821.224638
 20
-339.35808
 10
817.743173
 20
-339.246428
 10
817.195125
 20
-339.228842
 10
816.596551
 20
-339.209573
 10
815.949148
 20
-339.188613
 10
815.254613
 20
-339.165955
 10
814.51464
 20
-339.14159
 10
813.730927
 20
-339.115511
 10
812.90517
 20
-339.08771
 10
812.039065
 20
-339.058178
 10
811.134309
 20
-339.026909
 10
810.192598
 20
-338.993894
 10
809.215628
 20
-338.959125
 10
808.205096
 20
-338.922594
 10
807.162698
 20
-338.884293
 10
806.09013
 20
-338.844215
 10
804.989088
 20
-338.802352
 10
803.86127
 20
-338.758695
 10
802.708371
 20
-338.713237
 10
801.532087
 20
-338.66597
 10
800.334115
 20
-338.616885
 10
799.116151
 20
-338.565976
 10
797.880081
 20
-338.513277
 10
796.628544
 20
-338.459
 10
795.36437
 20
-338.403397
 10
794.090386
 20
-338.346723
 10
792.809422
 20
-338.289232
 10
791.524307
 20
-338.231177
 10
790.237869
 20
-338.172814
 10
788.952938
 20
-338.114394
 10
787.672342
 20
-338.056173
 10
786.39891
 20
-337.998405
 10
785.135471
 20
-337.941343
 10
783.884854
 20
-337.88524
 10
782.649887
 20
-337.830352
 10
781.4334
 20
-337.776932
 10
780.23822
 20
-337.725234
 10
779.067178
 20
-337.675512
 10
777.923102
 20
-337.628019
 10
776.80882
 20
-337.58301
 10
775.727162
 20
-337.540739
 10
774.680956
 20
-337.501459
 10
773.67251
 20
-337.465357
 10
772.702042
 20
-337.432352
 10
771.769251
 20
-337.402293
 10
770.873835
 20
-337.375033
 10
770.015491
 20
-337.350421
 10
769.193917
 20
-337.328309
 10
768.40881
 20
-337.308547
 10
767.659869
 20
-337.290987
 10
766.946791
 20
-337.275478
 10
766.269274
 20
-337.261873
 10
765.627016
 20
-337.250022
 10
765.019714
 20
-337.239775
 10
764.447067
 20
-337.230984
 10
763.908771
 20
-337.223499
 10
763.404526
 20
-337.217172
 10
762.934027
 20
-337.211852
 10
762.496974
 20
-337.207391
 10
762.093064
 20
-337.20364
 10
761.721995
 20
-337.20045
 10
759.234381
 20
-337.180186
 10
758.154859
 20
-337.171463
 10
757.984995
 20
-337.169925
 10
757.799903
 20
-337.167271
 10
757.600549
 20
-337.162515
 10
757.387896
 20
-337.154672
 10
757.16291
 20
-337.142756
 10
756.926557
 20
-337.125782
 10
756.6798
 20
-337.102764
 10
756.423605
 20
-337.072718
 10
756.158937
 20
-337.034657
 10
755.886761
 20
-336.987595
 10
755.608042
 20
-336.930549
 10
755.323745
 20
-336.862531
 10
755.034834
 20
-336.782558
 10
754.742275
 20
-336.689642
 10
754.447033
 20
-336.582799
 10
754.150073
 20
-336.461043
 10
753.852359
 20
-336.32339
 10
753.554857
 20
-336.168852
 10
753.258531
 20
-335.996446
 10
752.964347
 20
-335.805185
 10
752.673192
 20
-335.594445
 10
752.38565
 20
-335.365046
 10
752.102226
 20
-335.118169
 10
751.823425
 20
-334.854996
 10
751.549753
 20
-334.576708
 10
751.281715
 20
-334.284487
 10
751.019818
 20
-333.979512
 10
750.764567
 20
-333.662966
 10
750.516467
 20
-333.336029
 10
750.276025
 20
-332.999883
 10
750.043745
 20
-332.65571
 10
749.820133
 20
-332.30469
 10
749.605696
 20
-331.948004
 10
749.400938
 20
-331.586834
 10
749.206366
 20
-331.222361
 10
749.022484
 20
-330.855766
 10
748.849799
 20
-330.48823
 10
748.688816
 20
-330.120935
 10
748.540041
 20
-329.755062
 10
748.403979
 20
-329.391792
 10
748.280941
 20
-329.032213
 10
748.170454
 20
-328.677038
 10
748.071851
 20
-328.326887
 10
747.984465
 20
-327.982381
 10
747.907627
 20
-327.64414
 10
747.84067
 20
-327.312783
 10
747.782927
 20
-326.988931
 10
747.733729
 20
-326.673205
 10
747.69241
 20
-326.366224
 10
747.658302
 20
-326.068608
 10
747.630737
 20
-325.780977
 10
747.609047
 20
-325.503952
 10
747.592565
 20
-325.238153
 10
747.580624
 20
-324.984199
 10
747.572556
 20
-324.742711
 10
747.567693
 20
-324.51431
 10
747.565367
 20
-324.299614
 10
747.564912
 20
-324.099245
 10
747.565659
 20
-323.913822
 10
747.575787
 20
-322.664857
 10
747.575789
 20
-322.664632
 10
747.575802
 20
-322.663058
 10
747.575837
 20
-322.658785
 10
747.575904
 20
-322.650464
 10
747.576015
 20
-322.636745
 10
747.576181
 20
-322.61628
 10
747.576413
 20
-322.587719
 10
747.576721
 20
-322.549713
 10
747.577117
 20
-322.500912
 10
747.577611
 20
-322.439966
 10
747.578215
 20
-322.365528
 10
747.578939
 20
-322.276246
 10
747.579795
 20
-322.170773
 10
747.580793
 20
-322.047758
 10
747.581943
 20
-321.905852
 10
747.583259
 20
-321.743707
 10
747.584749
 20
-321.559971
 10
747.586425
 20
-321.353297
 10
747.588298
 20
-321.122335
 10
747.590379
 20
-320.865735
 10
747.592674
 20
-320.582823
 10
747.595166
 20
-320.275624
 10
747.597832
 20
-319.946834
 10
747.600652
 20
-319.599154
 10
747.603604
 20
-319.235282
 10
747.606664
 20
-318.857916
 10
747.609812
 20
-318.469755
 10
747.613026
 20
-318.073499
 10
747.616284
 20
-317.671845
 10
747.619564
 20
-317.267493
 10
747.622843
 20
-316.86314
 10
747.626101
 20
-316.461486
 10
747.629315
 20
-316.06523
 10
747.632463
 20
-315.677069
 10
747.635524
 20
-315.299704
 10
747.638475
 20
-314.935831
 10
747.641295
 20
-314.588151
 10
747.643961
 20
-314.259362
 10
747.646453
 20
-313.952162
 10
747.648748
 20
-313.66925
 10
747.650846
 20
-313.410549
  0
ENDSEC
  0
SECTION
  2
OBJECTS
  0
DICTIONARY
  5
C
330
0
100
AcDbDictionary
281
     1
  3
ACAD_GROUP
350
D
  3
ACAD_LAYOUT
350
1A
  3
ACAD_MLINESTYLE
350
17
  3
ACAD_PLOTSETTINGS
350
19
  3
ACAD_PLOTSTYLENAME
350
E
  0
DICTIONARY
  5
D
102
{ACAD_REACTORS
330
C
102
}
330
C
100
AcDbDictionary
281
     1
  0
DICTIONARY
  5
1A
102
{ACAD_REACTORS
330
C
102
}
330
C
100
AcDbDictionary
281
     1
  3
Layout1
350
1E
  3
Layout2
350
26
  3
Model
350
22
  0
DICTIONARY
  5
17
102
{ACAD_REACTORS
330
C
102
}
330
C
100
AcDbDictionary
281
     1
  3
Standard
350
18
  0
DICTIONARY
  5
19
102
{ACAD_REACTORS
330
C
102
}
330
C
100
AcDbDictionary
281
     1
  0
ACDBDICTIONARYWDFLT
  5
E
102
{ACAD_REACTORS
330
C
102
}
330
C
100
AcDbDictionary
281
     1
  3
Normal
350
F
100
AcDbDictionaryWithDefault
340
F
  0
LAYOUT
  5
1E
102
{ACAD_REACTORS
330
1A
102
}
330
1A
100
AcDbPlotSettings
  1

  2

  4

  6

 40
0.0
 41
0.0
 42
0.0
 43
0.0
 44
0.0
 45
0.0
 46
0.0
 47
0.0
 48
0.0
 49
0.0
140
0.0
141
0.0
142
1.0
143
1.0
 70
   688
 72
     0
 73
     0
 74
     5
  7

 75
    16
147
1.0
148
0.0
149
0.0
100
AcDbLayout
  1
Layout1
 70
     1
 71
     1
 10
0.0
 20
0.0
 11
420.0
 21
297.0
 12
0.0
 22
0.0
 32
0.0
 14
1.000000E+20
 24
1.000000E+20
 34
1.000000E+20
 15
-1.000000E+20
 25
-1.000000E+20
 35
-1.000000E+20
146
0.0
 13
0.0
 23
0.0
 33
0.0
 16
1.0
 26
0.0
 36
0.0
 17
0.0
 27
1.0
 37
0.0
 76
     0
330
1B
  0
LAYOUT
  5
26
102
{ACAD_REACTORS
330
1A
102
}
330
1A
100
AcDbPlotSettings
  1

  2

  4

  6

 40
0.0
 41
0.0
 42
0.0
 43
0.0
 44
0.0
 45
0.0
 46
0.0
 47
0.0
 48
0.0
 49
0.0
140
0.0
141
0.0
142
1.0
143
1.0
 70
   688
 72
     0
 73
     0
 74
     5
  7

 75
    16
147
1.0
148
0.0
149
0.0
100
AcDbLayout
  1
Layout2
 70
     1
 71
     2
 10
0.0
 20
0.0
 11
0.0
 21
0.0
 12
0.0
 22
0.0
 32
0.0
 14
0.0
 24
0.0
 34
0.0
 15
0.0
 25
0.0
 35
0.0
146
0.0
 13
0.0
 23
0.0
 33
0.0
 16
1.0
 26
0.0
 36
0.0
 17
0.0
 27
1.0
 37
0.0
 76
     0
330
23
  0
LAYOUT
  5
22
102
{ACAD_REACTORS
330
1A
102
}
330
1A
100
AcDbPlotSettings
  1

  2

  4

  6

 40
0.0
 41
0.0
 42
0.0
 43
0.0
 44
0.0
 45
0.0
 46
0.0
 47
0.0
 48
0.0
 49
0.0
140
0.0
141
0.0
142
1.0
143
1.0
 70
  1712
 72
     0
 73
     0
 74
     0
  7

 75
     0
147
1.0
148
0.0
149
0.0
100
AcDbLayout
  1
Model
 70
     1
 71
     0
 10
0.0
 20
0.0
 11
0.0
 21
0.0
 12
0.0
 22
0.0
 32
0.0
 14
0.0
 24
0.0
 34
0.0
 15
0.0
 25
0.0
 35
0.0
146
0.0
 13
0.0
 23
0.0
 33
0.0
 16
1.0
 26
0.0
 36
0.0
 17
0.0
 27
1.0
 37
0.0
 76
     0
330
1F
  0
MLINESTYLE
  5
18
102
{ACAD_REACTORS
330
17
102
}
330
17
100
AcDbMlineStyle
  2
Standard
 70
     0
  3

 62
   256
 51
90.0
 52
90.0
 71
     2
 49
1.0
 62
   256
  6
BYLAYER
 49
-1.0
 62
   256
  6
BYLAYER
  0
ACDBPLACEHOLDER
  5
F
102
{ACAD_REACTORS
330
E
102
}
330
E
  0
ENDSEC
  0
EOF
