  0
SECTION
  2
HEADER
  9
$ACADVER
  1
AC1015
  9
$ACADMAINTVER
 70
     6
  9
$DWGCODEPAGE
  3
ANSI_1252
  9
$INSBASE
 10
0.0
 20
0.0
 30
0.0
  9
$EXTMIN
 10
0.0
 20
0.0
 30
0.0
  9
$EXTMAX
 10
17.0
 20
11.0
 30
0.0
  9
$LIMMIN
 10
0.0
 20
0.0
  9
$LIMMAX
 10
0.0
 20
0.0
  9
$ORTHOMODE
 70
     0
  9
$REGENMODE
 70
     1
  9
$FILLMODE
 70
     1
  9
$QTEXTMODE
 70
     0
  9
$MIRRTEXT
 70
     1
  9
$LTSCALE
 40
1.0
  9
$ATTMODE
 70
     1
  9
$TEXTSIZE
 40
0.1377952756
  9
$TRACEWID
 40
0.05
  9
$TEXTSTYLE
  7
Standard
  9
$CLAYER
  8
0
  9
$CELTYPE
  6
ByLayer
  9
$CECOLOR
 62
   256
  9
$CELTSCALE
 40
1.0
  9
$DISPSILH
 70
     0
  9
$DIMSCALE
 40
1.0
  9
$DIMASZ
 40
0.156
  9
$DIMEXO
 40
0.05
  9
$DIMDLI
 40
0.38
  9
$DIMRND
 40
0.0
  9
$DIMDLE
 40
0.0
  9
$DIMEXE
 40
0.125
  9
$DIMTP
 40
0.0
  9
$DIMTM
 40
0.0
  9
$DIMTXT
 40
0.1377952756
  9
$DIMCEN
 40
0.09
  9
$DIMTSZ
 40
0.0
  9
$DIMTOL
 70
     0
  9
$DIMLIM
 70
     0
  9
$DIMTIH
 70
     1
  9
$DIMTOH
 70
     1
  9
$DIMSE1
 70
     0
  9
$DIMSE2
 70
     0
  9
$DIMTAD
 70
     0
  9
$DIMZIN
 70
     0
  9
$DIMBLK
  1

  9
$DIMASO
 70
     1
  9
$DIMSHO
 70
     1
  9
$DIMPOST
  1

  9
$DIMAPOST
  1

  9
$DIMALT
 70
     0
  9
$DIMALTD
 70
     2
  9
$DIMALTF
 40
25.4
  9
$DIMLFAC
 40
1.0
  9
$DIMTOFL
 70
     0
  9
$DIMTVP
 40
0.0
  9
$DIMTIX
 70
     0
  9
$DIMSOXD
 70
     0
  9
$DIMSAH
 70
     0
  9
$DIMBLK1
  1

  9
$DIMBLK2
  1

  9
$DIMSTYLE
  2
Standard
  9
$DIMCLRD
 70
     0
  9
$DIMCLRE
 70
     0
  9
$DIMCLRT
 70
     0
  9
$DIMTFAC
 40
1.0
  9
$DIMGAP
 40
0.06
  9
$DIMJUST
 70
     0
  9
$DIMSD1
 70
     0
  9
$DIMSD2
 70
     0
  9
$DIMTOLJ
 70
     1
  9
$DIMTZIN
 70
     0
  9
$DIMALTZ
 70
     0
  9
$DIMALTTZ
 70
     0
  9
$DIMUPT
 70
     0
  9
$DIMDEC
 70
     4
  9
$DIMTDEC
 70
     4
  9
$DIMALTU
 70
     2
  9
$DIMALTTD
 70
     2
  9
$DIMTXSTY
  7
Standard
  9
$DIMAUNIT
 70
     0
  9
$DIMADEC
 70
     0
  9
$DIMALTRND
 40
0.0
  9
$DIMAZIN
 70
     0
  9
$DIMDSEP
 70
    46
  9
$DIMATFIT
 70
     3
  9
$DIMFRAC
 70
     0
  9
$DIMLDRBLK
  1

  9
$DIMLUNIT
 70
     2
  9
$DIMLWD
 70
    -2
  9
$DIMLWE
 70
    -2
  9
$DIMTMOVE
 70
     0
  9
$LUNITS
 70
     2
  9
$LUPREC
 70
     2
  9
$SKETCHINC
 40
0.1
  9
$FILLETRAD
 40
0.5
  9
$AUNITS
 70
     0
  9
$AUPREC
 70
     0
  9
$MENU
  1
.
  9
$ELEVATION
 40
0.0
  9
$PELEVATION
 40
0.0
  9
$THICKNESS
 40
0.0
  9
$LIMCHECK
 70
     0
  9
$CHAMFERA
 40
0.5
  9
$CHAMFERB
 40
0.5
  9
$CHAMFERC
 40
1.0
  9
$CHAMFERD
 40
0.0
  9
$SKPOLY
 70
     0
  9
$TDCREATE
 40
2454529.839830544
  9
$TDUCREATE
 40
2454530.048163877
  9
$TDUPDATE
 40
2454529.839830555
  9
$TDUUPDATE
 40
2454530.048163889
  9
$TDINDWG
 40
0.0000000116
  9
$TDUSRTIMER
 40
0.0000000116
  9
$USRTIMER
 70
     1
  9
$ANGBASE
 50
0.0
  9
$ANGDIR
 70
     0
  9
$PDMODE
 70
     0
  9
$PDSIZE
 40
-1.0
  9
$PLINEWID
 40
0.0
  9
$SPLFRAME
 70
     0
  9
$SPLINETYPE
 70
     6
  9
$SPLINESEGS
 70
     8
  9
$HANDSEED
  5
141
  9
$SURFTAB1
 70
     6
  9
$SURFTAB2
 70
     6
  9
$SURFTYPE
 70
     6
  9
$SURFU
 70
     6
  9
$SURFV
 70
     6
  9
$UCSBASE
  2

  9
$UCSNAME
  2

  9
$UCSORG
 10
0.0
 20
0.0
 30
0.0
  9
$UCSXDIR
 10
1.0
 20
0.0
 30
0.0
  9
$UCSYDIR
 10
0.0
 20
1.0
 30
0.0
  9
$UCSORTHOREF
  2

  9
$UCSORTHOVIEW
 70
     0
  9
$UCSORGTOP
 10
0.0
 20
0.0
 30
0.0
  9
$UCSORGBOTTOM
 10
0.0
 20
0.0
 30
0.0
  9
$UCSORGLEFT
 10
0.0
 20
0.0
 30
0.0
  9
$UCSORGRIGHT
 10
0.0
 20
0.0
 30
0.0
  9
$UCSORGFRONT
 10
0.0
 20
0.0
 30
0.0
  9
$UCSORGBACK
 10
0.0
 20
0.0
 30
0.0
  9
$PUCSBASE
  2

  9
$PUCSNAME
  2

  9
$PUCSORG
 10
0.0
 20
0.0
 30
0.0
  9
$PUCSXDIR
 10
1.0
 20
0.0
 30
0.0
  9
$PUCSYDIR
 10
0.0
 20
1.0
 30
0.0
  9
$PUCSORTHOREF
  2

  9
$PUCSORTHOVIEW
 70
     0
  9
$PUCSORGTOP
 10
0.0
 20
0.0
 30
0.0
  9
$PUCSORGBOTTOM
 10
0.0
 20
0.0
 30
0.0
  9
$PUCSORGLEFT
 10
0.0
 20
0.0
 30
0.0
  9
$PUCSORGRIGHT
 10
0.0
 20
0.0
 30
0.0
  9
$PUCSORGFRONT
 10
0.0
 20
0.0
 30
0.0
  9
$PUCSORGBACK
 10
0.0
 20
0.0
 30
0.0
  9
$USERI1
 70
     0
  9
$USERI2
 70
     0
  9
$USERI3
 70
     0
  9
$USERI4
 70
     0
  9
$USERI5
 70
     0
  9
$USERR1
 40
0.0
  9
$USERR2
 40
0.0
  9
$USERR3
 40
0.0
  9
$USERR4
 40
0.0
  9
$USERR5
 40
0.0
  9
$WORLDVIEW
 70
     1
  9
$SHADEDGE
 70
     3
  9
$SHADEDIF
 70
    70
  9
$TILEMODE
 70
     1
  9
$MAXACTVP
 70
    64
  9
$PINSBASE
 10
0.0
 20
0.0
 30
0.0
  9
$PLIMCHECK
 70
     0
  9
$PEXTMIN
 10
1.0000000000E+20
 20
1.0000000000E+20
 30
1.0000000000E+20
  9
$PEXTMAX
 10
-1.0000000000E+20
 20
-1.0000000000E+20
 30
-1.0000000000E+20
  9
$PLIMMIN
 10
0.0
 20
0.0
  9
$PLIMMAX
 10
12.0
 20
9.0
  9
$UNITMODE
 70
     0
  9
$VISRETAIN
 70
     1
  9
$PLINEGEN
 70
     0
  9
$PSLTSCALE
 70
     1
  9
$TREEDEPTH
 70
  3020
  9
$CMLSTYLE
  2
Standard
  9
$CMLJUST
 70
     0
  9
$CMLSCALE
 40
1.0
  9
$PROXYGRAPHICS
 70
     1
  9
$MEASUREMENT
 70
     0
  9
$CELWEIGHT
370
    -1
  9
$ENDCAPS
280
     0
  9
$JOINSTYLE
280
     0
  9
$LWDISPLAY
290
     1
  9
$INSUNITS
 70
     1
  9
$HYPERLINKBASE
  1

  9
$STYLESHEET
  1

  9
$XEDIT
290
     1
  9
$CEPSNTYPE
380
     0
  9
$PSTYLEMODE
290
     1
  9
$FINGERPRINTGUID
  2
{FA58C3C4-FCDB-4431-968E-3658A64B3BDD}
  9
$VERSIONGUID
  2
{FAEB1C32-E019-11D5-929B-00C0DF256EC4}
  9
$EXTNAMES
290
     1
  9
$PSVPSCALE
 40
0.0
  9
$OLESTARTUP
290
     0
  0
ENDSEC
  0
SECTION
  2
CLASSES
  0
CLASS
  1
ACDBDICTIONARYWDFLT
  2
AcDbDictionaryWithDefault
  3
ObjectDBX Classes
 90
        0
280
     0
281
     0
  0
CLASS
  1
ACDBPLACEHOLDER
  2
AcDbPlaceHolder
  3
ObjectDBX Classes
 90
        0
280
     0
281
     0
  0
CLASS
  1
LAYOUT
  2
AcDbLayout
  3
ObjectDBX Classes
 90
        0
280
     0
281
     0
  0
ENDSEC
  0
SECTION
  2
TABLES
  0
TABLE
  2
VPORT
  5
8
330
0
100
AcDbSymbolTable
 70
     1
  0
VPORT
  5
29
330
8
100
AcDbSymbolTableRecord
100
AcDbViewportTableRecord
  2
*Active
 70
     0
 10
0.0
 20
0.0
 11
1.0
 21
1.0
 12
8.5
 22
5.5
 13
0.0
 23
0.0
 14
0.5
 24
0.5
 15
0.5
 25
0.5
 16
0.0
 26
0.0
 36
1.0
 17
0.0
 27
0.0
 37
0.0
 40
11.0
 41
1.5454545455
 42
50.0
 43
0.0
 44
0.0
 50
0.0
 51
0.0
 71
     0
 72
  2000
 73
     1
 74
     3
 75
     0
 76
     0
 77
     0
 78
     0
281
     0
 65
     1
110
0.0
120
0.0
130
0.0
111
1.0
121
0.0
131
0.0
112
0.0
122
1.0
132
0.0
 79
     0
146
0.0
  0
ENDTAB
  0
TABLE
  2
LTYPE
  5
5
330
0
100
AcDbSymbolTable
 70
     6
  0
LTYPE
  5
14
330
5
100
AcDbSymbolTableRecord
100
AcDbLinetypeTableRecord
  2
ByBlock
 70
     0
  3

 72
    65
 73
     0
 40
0.0
  0
LTYPE
  5
15
330
5
100
AcDbSymbolTableRecord
100
AcDbLinetypeTableRecord
  2
ByLayer
 70
     0
  3

 72
    65
 73
     0
 40
0.0
  0
LTYPE
  5
16
330
5
100
AcDbSymbolTableRecord
100
AcDbLinetypeTableRecord
  2
Continuous
 70
     0
  3
Solid line
 72
    65
 73
     0
 40
0.0
  0
LTYPE
  5
2A
330
5
100
AcDbSymbolTableRecord
100
AcDbLinetypeTableRecord
  2
HIDDEN
 70
     0
  3
Hidden __ __ __ __ __ __ __ __ __ __ __ __ __ __
 72
    65
 73
     2
 40
0.075
 49
0.05
 74
     0
 49
-0.025
 74
     0
  0
LTYPE
  5
2B
330
5
100
AcDbSymbolTableRecord
100
AcDbLinetypeTableRecord
  2
PHANTOM
 70
     0
  3
Phantom ______  __  __  ______  __  __  ______
 72
    65
 73
     6
 40
0.5
 49
0.25
 74
     0
 49
-0.05
 74
     0
 49
0.05
 74
     0
 49
-0.05
 74
     0
 49
0.05
 74
     0
 49
-0.05
 74
     0
  0
LTYPE
  5
2C
330
5
100
AcDbSymbolTableRecord
100
AcDbLinetypeTableRecord
  2
CENTER
 70
     0
  3
Center ____ _ ____ _ ____ _ ____ _ ____ _ ____
 72
    65
 73
     4
 40
0.4
 49
0.25
 74
     0
 49
-0.05
 74
     0
 49
0.05
 74
     0
 49
-0.05
 74
     0
  0
LTYPE
  5
2D
330
5
100
AcDbSymbolTableRecord
100
AcDbLinetypeTableRecord
  2
CENTERX2
 70
     0
  3
Center (2x) ________  __  ________  __  _____
 72
    65
 73
     4
 40
0.8
 49
0.5
 74
     0
 49
-0.1
 74
     0
 49
0.1
 74
     0
 49
-0.1
 74
     0
  0
LTYPE
  5
2E
330
5
100
AcDbSymbolTableRecord
100
AcDbLinetypeTableRecord
  2
DOT2
 70
     0
  3
Dot (.5x) ........................................
 72
    65
 73
     2
 40
0.025
 49
0.0
 74
     0
 49
-0.025
 74
     0
  0
ENDTAB
  0
TABLE
  2
LAYER
  5
2
330
0
100
AcDbSymbolTable
 70
     2
  0
LAYER
  5
10
330
2
100
AcDbSymbolTableRecord
100
AcDbLayerTableRecord
  2
0
 70
     0
 62
     7
  6
Continuous
370
    -3
390
F
  0
LAYER
  5
2F
330
2
100
AcDbSymbolTableRecord
100
AcDbLayerTableRecord
  2
FORMAT
 70
     0
 62
     7
  6
Continuous
370
     0
390
F
  0
ENDTAB
  0
TABLE
  2
STYLE
  5
3
330
0
100
AcDbSymbolTable
 70
     1
  0
STYLE
  5
11
330
3
100
AcDbSymbolTableRecord
100
AcDbTextStyleTableRecord
  2
Standard
 70
     0
 40
0.0
 41
1.0
 50
0.0
 71
     0
 42
0.2
  3
txt
  4

  0
ENDTAB
  0
TABLE
  2
VIEW
  5
6
330
0
100
AcDbSymbolTable
 70
     0
  0
ENDTAB
  0
TABLE
  2
UCS
  5
7
330
0
100
AcDbSymbolTable
 70
     0
  0
ENDTAB
  0
TABLE
  2
APPID
  5
9
330
0
100
AcDbSymbolTable
 70
     1
  0
APPID
  5
12
330
9
100
AcDbSymbolTableRecord
100
AcDbRegAppTableRecord
  2
ACAD
 70
     0
  0
ENDTAB
  0
TABLE
  2
DIMSTYLE
  5
A
330
0
100
AcDbSymbolTable
 70
     1
100
AcDbDimStyleTable
  0
DIMSTYLE
105
27
330
A
100
AcDbSymbolTableRecord
100
AcDbDimStyleTableRecord
  2
Standard
 70
     0
340
11
  0
ENDTAB
  0
TABLE
  2
BLOCK_RECORD
  5
1
330
0
100
AcDbSymbolTable
 70
     1
  0
BLOCK_RECORD
  5
1F
330
1
100
AcDbSymbolTableRecord
100
AcDbBlockTableRecord
  2
*Model_Space
340
22
  0
BLOCK_RECORD
  5
1B
330
1
100
AcDbSymbolTableRecord
100
AcDbBlockTableRecord
  2
*Paper_Space
340
1E
  0
BLOCK_RECORD
  5
23
330
1
100
AcDbSymbolTableRecord
100
AcDbBlockTableRecord
  2
*Paper_Space0
340
26
  0
ENDTAB
  0
ENDSEC
  0
SECTION
  2
BLOCKS
  0
BLOCK
  5
20
330
1F
100
AcDbEntity
  8
0
100
AcDbBlockBegin
  2
*Model_Space
 70
     0
 71
     0
 10
0.0
 20
0.0
 30
0.0
  3
*Model_Space
  1

  0
ENDBLK
  5
21
330
1F
100
AcDbEntity
  8
0
100
AcDbBlockEnd
  0
BLOCK
  5
1C
330
1B
100
AcDbEntity
 67
     1
  8
0
100
AcDbBlockBegin
  2
*Paper_Space
 70
     0
 71
     0
 10
0.0
 20
0.0
 30
0.0
  3
*Paper_Space
  1

  0
ENDBLK
  5
1D
330
1B
100
AcDbEntity
 67
     1
  8
0
100
AcDbBlockEnd
  0
BLOCK
  5
24
330
23
100
AcDbEntity
  8
0
100
AcDbBlockBegin
  2
*Paper_Space0
 70
     0
 71
     0
 10
0.0
 20
0.0
 30
0.0
  3
*Paper_Space0
  1

  0
ENDBLK
  5
25
330
23
100
AcDbEntity
  8
0
100
AcDbBlockEnd
  0
ENDSEC
  0
SECTION
  2
ENTITIES
  0
LINE
  5
30
330
1F
100
AcDbEntity
  8
0
  6
Continuous
 62
     7
370
    15
100
AcDbLine
 10
13.8480460934
 20
2.6666817994
 30
0.0
 11
13.8480460934
 21
1.041506232
 31
0.0
  0
LINE
  5
31
330
1F
100
AcDbEntity
  8
0
  6
Continuous
 62
     7
370
    15
100
AcDbLine
 10
13.8480460934
 20
1.041506232
 30
0.0
 11
13.3480460934
 21
1.041506232
 31
0.0
  0
LINE
  5
32
330
1F
100
AcDbEntity
  8
0
  6
Continuous
 62
     7
370
    15
100
AcDbLine
 10
13.3480460934
 20
1.041506232
 30
0.0
 11
13.3480460934
 21
0.729006232
 31
0.0
  0
LINE
  5
33
330
1F
100
AcDbEntity
  8
0
  6
Continuous
 62
     7
370
    15
100
AcDbLine
 10
10.5980460934
 20
0.729006232
 30
0.0
 11
13.3480460934
 21
0.729006232
 31
0.0
  0
LINE
  5
34
330
1F
100
AcDbEntity
  8
0
  6
Continuous
 62
     7
370
    15
100
AcDbLine
 10
10.5980460934
 20
0.729006232
 30
0.0
 11
10.5980460934
 21
1.041506232
 31
0.0
  0
LINE
  5
35
330
1F
100
AcDbEntity
  8
0
  6
Continuous
 62
     7
370
    15
100
AcDbLine
 10
10.5980460934
 20
1.041506232
 30
0.0
 11
9.5980460934
 21
1.041506232
 31
0.0
  0
LINE
  5
36
330
1F
100
AcDbEntity
  8
0
  6
Continuous
 62
     7
370
    15
100
AcDbLine
 10
9.5980460934
 20
1.041506232
 30
0.0
 11
9.5980460934
 21
0.729006232
 31
0.0
  0
LINE
  5
37
330
1F
100
AcDbEntity
  8
0
  6
Continuous
 62
     7
370
    15
100
AcDbLine
 10
6.8480460934
 20
0.729006232
 30
0.0
 11
9.5980460934
 21
0.729006232
 31
0.0
  0
LINE
  5
38
330
1F
100
AcDbEntity
  8
0
  6
Continuous
 62
     7
370
    15
100
AcDbLine
 10
6.8480460934
 20
0.729006232
 30
0.0
 11
6.8480460934
 21
1.041506232
 31
0.0
  0
LINE
  5
39
330
1F
100
AcDbEntity
  8
0
  6
Continuous
 62
     7
370
    15
100
AcDbLine
 10
6.8480460934
 20
1.041506232
 30
0.0
 11
5.8480460934
 21
1.041506232
 31
0.0
  0
LINE
  5
3A
330
1F
100
AcDbEntity
  8
0
  6
Continuous
 62
     7
370
    15
100
AcDbLine
 10
5.8480460934
 20
1.041506232
 30
0.0
 11
5.8480460934
 21
0.729006232
 31
0.0
  0
LINE
  5
3B
330
1F
100
AcDbEntity
  8
0
  6
Continuous
 62
     7
370
    15
100
AcDbLine
 10
3.0980460934
 20
0.729006232
 30
0.0
 11
5.8480460934
 21
0.729006232
 31
0.0
  0
LINE
  5
3C
330
1F
100
AcDbEntity
  8
0
  6
Continuous
 62
     7
370
    15
100
AcDbLine
 10
3.0980460934
 20
0.729006232
 30
0.0
 11
3.0980460934
 21
1.041506232
 31
0.0
  0
LINE
  5
3D
330
1F
100
AcDbEntity
  8
0
  6
Continuous
 62
     7
370
    15
100
AcDbLine
 10
3.0980460934
 20
1.041506232
 30
0.0
 11
2.7855460934
 21
1.041506232
 31
0.0
  0
LINE
  5
3E
330
1F
100
AcDbEntity
  8
0
  6
Continuous
 62
     7
370
    15
100
AcDbLine
 10
2.7855460934
 20
1.041506232
 30
0.0
 11
2.7855460934
 21
1.541506232
 31
0.0
  0
LINE
  5
3F
330
1F
100
AcDbEntity
  8
0
  6
Continuous
 62
     7
370
    15
100
AcDbLine
 10
2.7855460934
 20
1.541506232
 30
0.0
 11
2.5980460934
 21
1.541506232
 31
0.0
  0
LINE
  5
40
330
1F
100
AcDbEntity
  8
0
  6
Continuous
 62
     7
370
    15
100
AcDbLine
 10
2.5980460934
 20
4.854006232
 30
0.0
 11
2.5980460934
 21
1.541506232
 31
0.0
  0
LINE
  5
41
330
1F
100
AcDbEntity
  8
0
  6
Continuous
 62
     7
370
    15
100
AcDbLine
 10
2.5980460934
 20
4.854006232
 30
0.0
 11
2.7855460934
 21
4.854006232
 31
0.0
  0
LINE
  5
42
330
1F
100
AcDbEntity
  8
0
  6
Continuous
 62
     7
370
    15
100
AcDbLine
 10
2.7855460934
 20
4.854006232
 30
0.0
 11
2.7855460934
 21
6.104006232
 31
0.0
  0
LINE
  5
43
330
1F
100
AcDbEntity
  8
0
  6
Continuous
 62
     7
370
    15
100
AcDbLine
 10
2.7855460934
 20
6.104006232
 30
0.0
 11
2.5980460934
 21
6.104006232
 31
0.0
  0
LINE
  5
44
330
1F
100
AcDbEntity
  8
0
  6
Continuous
 62
     7
370
    15
100
AcDbLine
 10
2.5980460934
 20
9.416506232
 30
0.0
 11
2.5980460934
 21
6.104006232
 31
0.0
  0
LINE
  5
45
330
1F
100
AcDbEntity
  8
0
  6
Continuous
 62
     7
370
    15
100
AcDbLine
 10
2.5980460934
 20
9.416506232
 30
0.0
 11
2.7855460934
 21
9.416506232
 31
0.0
  0
LINE
  5
46
330
1F
100
AcDbEntity
  8
0
  6
Continuous
 62
     7
370
    15
100
AcDbLine
 10
2.7855460934
 20
9.416506232
 30
0.0
 11
2.7855460934
 21
9.854006232
 31
0.0
  0
LINE
  5
47
330
1F
100
AcDbEntity
  8
0
  6
Continuous
 62
     7
370
    15
100
AcDbLine
 10
2.7855460934
 20
9.854006232
 30
0.0
 11
3.0980460934
 21
9.854006232
 31
0.0
  0
LINE
  5
48
330
1F
100
AcDbEntity
  8
0
  6
Continuous
 62
     7
370
    15
100
AcDbLine
 10
3.0980460934
 20
9.854006232
 30
0.0
 11
3.0980460934
 21
10.166506232
 31
0.0
  0
LINE
  5
49
330
1F
100
AcDbEntity
  8
0
  6
Continuous
 62
     7
370
    15
100
AcDbLine
 10
3.0980460934
 20
10.166506232
 30
0.0
 11
5.8480460934
 21
10.166506232
 31
0.0
  0
LINE
  5
4A
330
1F
100
AcDbEntity
  8
0
  6
Continuous
 62
     7
370
    15
100
AcDbLine
 10
5.8480460934
 20
10.166506232
 30
0.0
 11
5.8480460934
 21
9.854006232
 31
0.0
  0
LINE
  5
4B
330
1F
100
AcDbEntity
  8
0
  6
Continuous
 62
     7
370
    15
100
AcDbLine
 10
5.8480460934
 20
9.854006232
 30
0.0
 11
6.8480460934
 21
9.854006232
 31
0.0
  0
LINE
  5
4C
330
1F
100
AcDbEntity
  8
0
  6
Continuous
 62
     7
370
    15
100
AcDbLine
 10
6.8480460934
 20
9.854006232
 30
0.0
 11
6.8480460934
 21
10.166506232
 31
0.0
  0
LINE
  5
4D
330
1F
100
AcDbEntity
  8
0
  6
Continuous
 62
     7
370
    15
100
AcDbLine
 10
6.8480460934
 20
10.166506232
 30
0.0
 11
9.5980460934
 21
10.166506232
 31
0.0
  0
LINE
  5
4E
330
1F
100
AcDbEntity
  8
0
  6
Continuous
 62
     7
370
    15
100
AcDbLine
 10
9.5980460934
 20
10.166506232
 30
0.0
 11
9.5980460934
 21
9.854006232
 31
0.0
  0
LINE
  5
4F
330
1F
100
AcDbEntity
  8
0
  6
Continuous
 62
     7
370
    15
100
AcDbLine
 10
9.5980460934
 20
9.854006232
 30
0.0
 11
10.5980460934
 21
9.854006232
 31
0.0
  0
LINE
  5
50
330
1F
100
AcDbEntity
  8
0
  6
Continuous
 62
     7
370
    15
100
AcDbLine
 10
10.5980460934
 20
9.854006232
 30
0.0
 11
10.5980460934
 21
10.166506232
 31
0.0
  0
LINE
  5
51
330
1F
100
AcDbEntity
  8
0
  6
Continuous
 62
     7
370
    15
100
AcDbLine
 10
10.5980460934
 20
10.166506232
 30
0.0
 11
13.3480460934
 21
10.166506232
 31
0.0
  0
LINE
  5
52
330
1F
100
AcDbEntity
  8
0
  6
Continuous
 62
     7
370
    15
100
AcDbLine
 10
13.3480460934
 20
10.166506232
 30
0.0
 11
13.3480460934
 21
9.854006232
 31
0.0
  0
LINE
  5
53
330
1F
100
AcDbEntity
  8
0
  6
Continuous
 62
     7
370
    15
100
AcDbLine
 10
13.3480460934
 20
9.854006232
 30
0.0
 11
13.8480460934
 21
9.854006232
 31
0.0
  0
LINE
  5
54
330
1F
100
AcDbEntity
  8
0
  6
Continuous
 62
     7
370
    15
100
AcDbLine
 10
13.8480460934
 20
9.854006232
 30
0.0
 11
13.8480460934
 21
8.2288306647
 31
0.0
  0
ARC
  5
55
330
1F
100
AcDbEntity
  8
0
  6
Continuous
 62
     7
370
    15
100
AcDbCircle
 10
11.3480460934
 20
8.2288306647
 30
0.0
 40
2.500000000000002
100
AcDbArc
 50
307.3831984179
 51
0.0
  0
ARC
  5
56
330
1F
100
AcDbEntity
  8
0
  6
Continuous
 62
     7
370
    15
100
AcDbCircle
 10
13.4730460934
 20
5.447756232
 30
0.0
 40
0.9999999999999994
100
AcDbArc
 50
127.3831984179
 51
232.6168015821
  0
ARC
  5
57
330
1F
100
AcDbEntity
  8
0
  6
Continuous
 62
     7
370
    15
100
AcDbCircle
 10
11.3480460934
 20
2.6666817994
 30
0.0
 40
2.500000000000001
100
AcDbArc
 50
0.0
 51
52.6168015821
  0
LINE
  5
58
330
1F
100
AcDbEntity
  8
0
  6
Continuous
 62
     7
370
    15
100
AcDbLine
 10
5.4407472774
 20
5.8664256542
 30
0.0
 11
4.7230460934
 21
5.979006232
 31
0.0
  0
ARC
  5
59
330
1F
100
AcDbEntity
  8
0
  6
Continuous
 62
     7
370
    15
100
AcDbCircle
 10
5.0573278231
 20
5.0365330361
 30
0.0
 40
1.0
100
AcDbArc
 50
109.5288662295
 51
153.7382124437
  0
ARC
  5
5A
330
1F
100
AcDbEntity
  8
0
  6
Continuous
 62
     7
370
    15
100
AcDbCircle
 10
5.0573278231
 20
5.921479428
 30
0.0
 40
1.0
100
AcDbArc
 50
206.2617875563
 51
250.4711337705
  0
LINE
  5
5B
330
1F
100
AcDbEntity
  8
0
  6
Continuous
 62
     7
370
    15
100
AcDbLine
 10
4.7230460934
 20
4.979006232
 30
0.0
 11
5.4407472774
 21
5.0915868099
 31
0.0
  0
ARC
  5
5C
330
1F
100
AcDbEntity
  8
0
  6
Continuous
 62
     7
370
    15
100
AcDbCircle
 10
7.9105460934
 20
5.479006232
 30
0.0
 40
2.5
100
AcDbArc
 50
171.0850730429
 51
188.9149269571
  0
LINE
  5
5D
330
1F
100
AcDbEntity
  8
0
  6
Continuous
 62
     7
370
    15
100
AcDbLine
 10
6.9843715374
 20
5.6242885153
 30
0.0
 11
5.6259821886
 21
5.8373691975
 31
0.0
  0
ARC
  5
5E
330
1F
100
AcDbEntity
  8
0
  6
Continuous
 62
     7
370
    15
100
AcDbCircle
 10
7.9105460934
 20
5.479006232
 30
0.0
 40
2.3125
100
AcDbArc
 50
171.0850730429
 51
188.9149269571
  0
LINE
  5
5F
330
1F
100
AcDbEntity
  8
0
  6
Continuous
 62
     7
370
    15
100
AcDbLine
 10
5.6259821886
 20
5.1206432666
 30
0.0
 11
6.9843715374
 21
5.3337239488
 31
0.0
  0
ARC
  5
60
330
1F
100
AcDbEntity
  8
0
  6
Continuous
 62
     7
370
    15
100
AcDbCircle
 10
7.9105460934
 20
5.479006232
 30
0.0
 40
0.9375000000000007
100
AcDbArc
 50
171.0850730429
 51
188.9149269571
  0
ARC
  5
61
330
1F
100
AcDbEntity
  8
0
  6
Continuous
 62
     7
370
    15
100
AcDbCircle
 10
4.1111676597
 20
6.1076794443
 30
0.0
 40
0.1875000000000001
100
AcDbArc
 50
99.0394697813
 51
0.6779553164
  0
ARC
  5
62
330
1F
100
AcDbEntity
  8
0
  6
Continuous
 62
     7
370
    15
100
AcDbCircle
 10
4.4549176597
 20
6.2135227303
 30
0.0
 40
0.1875000000000013
100
AcDbArc
 50
213.5500530344
 51
122.4499469656
  0
ARC
  5
63
330
1F
100
AcDbEntity
  8
0
  6
Continuous
 62
     7
370
    15
100
AcDbCircle
 10
4.1839367514
 20
6.4500311046
 30
0.0
 40
0.1874999999999984
100
AcDbArc
 50
335.3220446836
 51
236.9605302187
  0
ARC
  5
64
330
1F
100
AcDbEntity
  8
0
  6
Continuous
 62
     7
370
    15
100
AcDbCircle
 10
4.2146533232
 20
4.3969327032
 30
0.0
 40
0.1875000000000001
100
AcDbArc
 50
124.7537554956
 51
26.3922410307
  0
ARC
  5
65
330
1F
100
AcDbEntity
  8
0
  6
Continuous
 62
     7
370
    15
100
AcDbCircle
 10
4.4784376908
 20
4.6414417441
 30
0.0
 40
0.1875000000000009
100
AcDbArc
 50
239.2643387486
 51
148.1642326799
  0
ARC
  5
66
330
1F
100
AcDbEntity
  8
0
  6
Continuous
 62
     7
370
    15
100
AcDbCircle
 10
4.131675191
 20
4.7369542166
 30
0.0
 40
0.187499999999999
100
AcDbArc
 50
1.0363303979
 51
262.674815933
  0
ARC
  5
67
330
1F
100
AcDbEntity
  8
0
  6
Continuous
 62
     7
370
    15
100
AcDbCircle
 10
5.050155877
 20
2.9005038953
 30
0.0
 40
0.1875000000000007
100
AcDbArc
 50
150.4680412099
 51
52.106526745
  0
ARC
  5
68
330
1F
100
AcDbEntity
  8
0
  6
Continuous
 62
     7
370
    15
100
AcDbCircle
 10
5.1817288832
 20
3.2352506768
 30
0.0
 40
0.1875000000000002
100
AcDbArc
 50
264.9786244629
 51
173.8785183942
  0
ARC
  5
69
330
1F
100
AcDbEntity
  8
0
  6
Continuous
 62
     7
370
    15
100
AcDbCircle
 10
4.8278653576
 20
3.170849831
 30
0.0
 40
0.1875000000000002
100
AcDbArc
 50
26.7506161121
 51
288.3891016473
  0
ARC
  5
6A
330
1F
100
AcDbEntity
  8
0
  6
Continuous
 62
     7
370
    15
100
AcDbCircle
 10
6.4521937936
 20
1.9147790984
 30
0.0
 40
0.1875000000000001
100
AcDbArc
 50
176.1823269242
 51
77.8208124593
  0
ARC
  5
6B
330
1F
100
AcDbEntity
  8
0
  6
Continuous
 62
     7
370
    15
100
AcDbCircle
 10
6.4254957908
 20
2.2734629151
 30
0.0
 40
0.1875000000000014
100
AcDbArc
 50
290.6929101772
 51
199.5928041085
  0
ARC
  5
6C
330
1F
100
AcDbEntity
  8
0
  6
Continuous
 62
     7
370
    15
100
AcDbCircle
 10
6.1346182505
 20
2.0619041283
 30
0.0
 40
0.1874999999999991
100
AcDbArc
 50
52.4649018264
 51
314.1033873615
  0
ARC
  5
6D
330
1F
100
AcDbEntity
  8
0
  6
Continuous
 62
     7
370
    15
100
AcDbCircle
 10
8.1430762686
 20
1.6349931978
 30
0.0
 40
0.1875000000000017
100
AcDbArc
 50
201.8966126385
 51
103.5350981736
  0
ARC
  5
6E
330
1F
100
AcDbEntity
  8
0
  6
Continuous
 62
     7
370
    15
100
AcDbCircle
 10
7.9633951237
 20
1.9465723207
 30
0.0
 40
0.1875000000000016
100
AcDbArc
 50
316.4071958915
 51
225.3070898228
  0
ARC
  5
6F
330
1F
100
AcDbEntity
  8
0
  6
Continuous
 62
     7
370
    15
100
AcDbCircle
 10
7.793115433
 20
1.6297574053
 30
0.0
 40
0.1874999999999984
100
AcDbArc
 50
78.1791875407
 51
339.8176730758
  0
ARC
  5
70
330
1F
100
AcDbEntity
  8
0
  6
Continuous
 62
     7
370
    15
100
AcDbCircle
 10
9.7879032906
 20
2.1165612222
 30
0.0
 40
0.1875000000000007
100
AcDbArc
 50
227.6108983527
 51
129.2493838879
  0
ARC
  5
71
330
1F
100
AcDbEntity
  8
0
  6
Continuous
 62
     7
370
    15
100
AcDbCircle
 10
9.490827058
 20
2.3193235849
 30
0.0
 40
0.1875000000000011
100
AcDbArc
 50
342.1214816058
 51
251.0213755371
  0
ARC
  5
72
330
1F
100
AcDbEntity
  8
0
  6
Continuous
 62
     7
370
    15
100
AcDbCircle
 10
9.474871198
 20
1.9600016203
 30
0.0
 40
0.1874999999999999
100
AcDbArc
 50
103.893473255
 51
5.5319587901
  0
ARC
  5
73
330
1F
100
AcDbEntity
  8
0
  6
Continuous
 62
     7
370
    15
100
AcDbCircle
 10
11.0608966955
 20
3.2641027186
 30
0.0
 40
0.1874999999999999
100
AcDbArc
 50
253.325184067
 51
154.9636696021
  0
ARC
  5
74
330
1F
100
AcDbEntity
  8
0
  6
Continuous
 62
     7
370
    15
100
AcDbCircle
 10
10.7052649664
 20
3.3178887483
 30
0.0
 40
0.1875000000000014
100
AcDbArc
 50
7.8357673201
 51
276.7356612514
  0
ARC
  5
75
330
1F
100
AcDbEntity
  8
0
  6
Continuous
 62
     7
370
    15
100
AcDbCircle
 10
10.8467931908
 20
2.9872278565
 30
0.0
 40
0.1875000000000003
100
AcDbArc
 50
129.6077589693
 51
31.2462445044
  0
ARC
  5
76
330
1F
100
AcDbEntity
  8
0
  6
Continuous
 62
     7
370
    15
100
AcDbCircle
 10
11.709924527
 20
4.8503330198
 30
0.0
 40
0.1874999999999995
100
AcDbArc
 50
279.0394697813
 51
180.6779553164
  0
ARC
  5
77
330
1F
100
AcDbEntity
  8
0
  6
Continuous
 62
     7
370
    15
100
AcDbCircle
 10
11.366174527
 20
4.7444897338
 30
0.0
 40
0.1875000000000017
100
AcDbArc
 50
33.5500530344
 51
302.4499469656
  0
ARC
  5
78
330
1F
100
AcDbEntity
  8
0
  6
Continuous
 62
     7
370
    15
100
AcDbCircle
 10
11.6371554353
 20
4.5079813595
 30
0.0
 40
0.1875000000000005
100
AcDbArc
 50
155.3220446836
 51
56.9605302187
  0
ARC
  5
79
330
1F
100
AcDbEntity
  8
0
  6
Continuous
 62
     7
370
    15
100
AcDbCircle
 10
11.6064388635
 20
6.5610797609
 30
0.0
 40
0.1875000000000017
100
AcDbArc
 50
304.7537554956
 51
206.3922410307
  0
ARC
  5
7A
330
1F
100
AcDbEntity
  8
0
  6
Continuous
 62
     7
370
    15
100
AcDbCircle
 10
11.3426544959
 20
6.31657072
 30
0.0
 40
0.1874999999999998
100
AcDbArc
 50
59.2643387486
 51
328.1642326799
  0
ARC
  5
7B
330
1F
100
AcDbEntity
  8
0
  6
Continuous
 62
     7
370
    15
100
AcDbCircle
 10
11.6894169957
 20
6.2210582475
 30
0.0
 40
0.1875000000000001
100
AcDbArc
 50
181.0363303979
 51
82.674815933
  0
ARC
  5
7C
330
1F
100
AcDbEntity
  8
0
  6
Continuous
 62
     7
370
    15
100
AcDbCircle
 10
10.7709363097
 20
8.0575085688
 30
0.0
 40
0.1874999999999998
100
AcDbArc
 50
330.4680412099
 51
232.106526745
  0
ARC
  5
7D
330
1F
100
AcDbEntity
  8
0
  6
Continuous
 62
     7
370
    15
100
AcDbCircle
 10
10.6393633035
 20
7.7227617873
 30
0.0
 40
0.1875000000000041
100
AcDbArc
 50
84.9786244629
 51
353.8785183942
  0
ARC
  5
7E
330
1F
100
AcDbEntity
  8
0
  6
Continuous
 62
     7
370
    15
100
AcDbCircle
 10
10.9932268291
 20
7.7871626331
 30
0.0
 40
0.1874999999999979
100
AcDbArc
 50
206.7506161121
 51
108.3891016473
  0
ARC
  5
7F
330
1F
100
AcDbEntity
  8
0
  6
Continuous
 62
     7
370
    15
100
AcDbCircle
 10
9.3688983931
 20
9.0432333657
 30
0.0
 40
0.1875000000000011
100
AcDbArc
 50
356.1823269242
 51
257.8208124593
  0
ARC
  5
80
330
1F
100
AcDbEntity
  8
0
  6
Continuous
 62
     7
370
    15
100
AcDbCircle
 10
9.395596396
 20
8.684549549
 30
0.0
 40
0.1875000000000017
100
AcDbArc
 50
110.6929101772
 51
19.5928041085
  0
ARC
  5
81
330
1F
100
AcDbEntity
  8
0
  6
Continuous
 62
     7
370
    15
100
AcDbCircle
 10
9.6864739362
 20
8.8961083357
 30
0.0
 40
0.1875000000000019
100
AcDbArc
 50
232.4649018264
 51
134.1033873615
  0
ARC
  5
82
330
1F
100
AcDbEntity
  8
0
  6
Continuous
 62
     7
370
    15
100
AcDbCircle
 10
7.6780159181
 20
9.3230192663
 30
0.0
 40
0.1875000000000009
100
AcDbArc
 50
21.8966126385
 51
283.5350981736
  0
ARC
  5
83
330
1F
100
AcDbEntity
  8
0
  6
Continuous
 62
     7
370
    15
100
AcDbCircle
 10
7.857697063
 20
9.0114401434
 30
0.0
 40
0.1875
100
AcDbArc
 50
136.4071958915
 51
45.3070898228
  0
ARC
  5
84
330
1F
100
AcDbEntity
  8
0
  6
Continuous
 62
     7
370
    15
100
AcDbCircle
 10
8.0279767537
 20
9.3282550588
 30
0.0
 40
0.1874999999999989
100
AcDbArc
 50
258.1791875407
 51
159.8176730758
  0
ARC
  5
85
330
1F
100
AcDbEntity
  8
0
  6
Continuous
 62
     7
370
    15
100
AcDbCircle
 10
6.0331888961
 20
8.8414512419
 30
0.0
 40
0.1875000000000025
100
AcDbArc
 50
47.6108983527
 51
309.2493838879
  0
ARC
  5
86
330
1F
100
AcDbEntity
  8
0
  6
Continuous
 62
     7
370
    15
100
AcDbCircle
 10
6.3302651287
 20
8.6386888792
 30
0.0
 40
0.1875000000000003
100
AcDbArc
 50
162.1214816058
 51
71.0213755371
  0
ARC
  5
87
330
1F
100
AcDbEntity
  8
0
  6
Continuous
 62
     7
370
    15
100
AcDbCircle
 10
6.3462209887
 20
8.9980108438
 30
0.0
 40
0.1874999999999991
100
AcDbArc
 50
283.893473255
 51
185.5319587901
  0
ARC
  5
88
330
1F
100
AcDbEntity
  8
0
  6
Continuous
 62
     7
370
    15
100
AcDbCircle
 10
4.7601954912
 20
7.6939097455
 30
0.0
 40
0.1875000000000006
100
AcDbArc
 50
73.325184067
 51
334.9636696021
  0
ARC
  5
89
330
1F
100
AcDbEntity
  8
0
  6
Continuous
 62
     7
370
    15
100
AcDbCircle
 10
5.1158272203
 20
7.6401237158
 30
0.0
 40
0.187500000000002
100
AcDbArc
 50
187.8357673201
 51
96.7356612514
  0
ARC
  5
8A
330
1F
100
AcDbEntity
  8
0
  6
Continuous
 62
     7
370
    15
100
AcDbCircle
 10
4.9742989959
 20
7.9707846076
 30
0.0
 40
0.1874999999999995
100
AcDbArc
 50
309.6077589693
 51
211.2462445044
  0
LINE
  5
8B
330
1F
100
AcDbEntity
  8
0
  6
Continuous
 62
     7
370
    15
100
AcDbLine
 10
5.5172392627
 20
4.7564535251
 30
0.0
 11
4.8217659574
 21
4.5464862476
 31
0.0
  0
ARC
  5
8C
330
1F
100
AcDbEntity
  8
0
  6
Continuous
 62
     7
370
    15
100
AcDbCircle
 10
5.5318671833
 20
3.842386646
 30
0.0
 40
0.999999999999999
100
AcDbArc
 50
135.2431519437
 51
179.452498158
  0
ARC
  5
8D
330
1F
100
AcDbEntity
  8
0
  6
Continuous
 62
     7
370
    15
100
AcDbCircle
 10
5.1479033338
 20
4.6396957949
 30
0.0
 40
1.0
100
AcDbArc
 50
231.9760732706
 51
276.1854194848
  0
LINE
  5
8E
330
1F
100
AcDbEntity
  8
0
  6
Continuous
 62
     7
370
    15
100
AcDbLine
 10
5.2556496965
 20
3.6455173797
 30
0.0
 11
5.8534292377
 21
4.0583478488
 31
0.0
  0
ARC
  5
8F
330
1F
100
AcDbEntity
  8
0
  6
Continuous
 62
     7
370
    15
100
AcDbCircle
 10
7.9105460934
 20
5.479006232
 30
0.0
 40
2.5
100
AcDbArc
 50
196.7993587571
 51
214.6292126714
  0
LINE
  5
90
330
1F
100
AcDbEntity
  8
0
  6
Continuous
 62
     7
370
    15
100
AcDbLine
 10
6.0677550178
 20
3.7895918211
 30
0.0
 11
5.5322566087
 21
3.2986632826
 31
0.0
  0
ARC
  5
91
330
1F
100
AcDbEntity
  8
0
  6
Continuous
 62
     7
370
    15
100
AcDbCircle
 10
6.4775330742
 20
2.9723928367
 30
0.0
 40
1.0
100
AcDbArc
 50
160.957437658
 51
205.1667838723
  0
ARC
  5
92
330
1F
100
AcDbEntity
  8
0
  6
Continuous
 62
     7
370
    15
100
AcDbCircle
 10
5.7856541246
 20
3.5241478873
 30
0.0
 40
0.9999999999999999
100
AcDbArc
 50
257.6903589849
 51
301.8997051991
  0
LINE
  5
93
330
1F
100
AcDbEntity
  8
0
  6
Continuous
 62
     7
370
    15
100
AcDbLine
 10
6.3140880912
 20
2.6751734808
 30
0.0
 11
6.6735484201
 21
3.3064877036
 31
0.0
  0
ARC
  5
94
330
1F
100
AcDbEntity
  8
0
  6
Continuous
 62
     7
370
    15
100
AcDbCircle
 10
7.9105460934
 20
5.479006232
 30
0.0
 40
2.499999999999999
100
AcDbArc
 50
222.5136444714
 51
240.3434983857
  0
LINE
  5
95
330
1F
100
AcDbEntity
  8
0
  6
Continuous
 62
     7
370
    15
100
AcDbLine
 10
6.9832581458
 20
3.1573393605
 30
0.0
 11
6.7137966603
 21
2.4826839789
 31
0.0
  0
ARC
  5
96
330
1F
100
AcDbEntity
  8
0
  6
Continuous
 62
     7
370
    15
100
AcDbCircle
 10
7.7070247682
 20
2.598864552
 30
0.0
 40
0.9999999999999979
100
AcDbArc
 50
186.6717233723
 51
230.8810695865
  0
ARC
  5
97
330
1F
100
AcDbEntity
  8
0
  6
Continuous
 62
     7
370
    15
100
AcDbCircle
 10
6.8442658299
 20
2.7957836497
 30
0.0
 40
0.9999999999999992
100
AcDbArc
 50
283.4046446992
 51
327.6139909134
  0
LINE
  5
98
330
1F
100
AcDbEntity
  8
0
  6
Continuous
 62
     7
370
    15
100
AcDbLine
 10
7.6887245725
 20
2.260163045
 30
0.0
 11
7.7386701625
 21
2.9849214972
 31
0.0
  0
ARC
  5
99
330
1F
100
AcDbEntity
  8
0
  6
Continuous
 62
     7
370
    15
100
AcDbCircle
 10
7.9105460934
 20
5.479006232
 30
0.0
 40
2.5
100
AcDbArc
 50
248.2279301857
 51
266.0577841
  0
LINE
  5
9A
330
1F
100
AcDbEntity
  8
0
  6
Continuous
 62
     7
370
    15
100
AcDbLine
 10
8.0824220242
 20
2.9849214972
 30
0.0
 11
8.1323676142
 21
2.260163045
 31
0.0
  0
ARC
  5
9B
330
1F
100
AcDbEntity
  8
0
  6
Continuous
 62
     7
370
    15
100
AcDbCircle
 10
8.9768263568
 20
2.7957836497
 30
0.0
 40
1.000000000000001
100
AcDbArc
 50
212.3860090866
 51
256.5953553008
  0
ARC
  5
9C
330
1F
100
AcDbEntity
  8
0
  6
Continuous
 62
     7
370
    15
100
AcDbCircle
 10
8.1140674185
 20
2.598864552
 30
0.0
 40
1.000000000000002
100
AcDbArc
 50
309.1189304135
 51
353.3282766277
  0
LINE
  5
9D
330
1F
100
AcDbEntity
  8
0
  6
Continuous
 62
     7
370
    15
100
AcDbLine
 10
9.1072955264
 20
2.4826839789
 30
0.0
 11
8.8378340409
 21
3.1573393605
 31
0.0
  0
ARC
  5
9E
330
1F
100
AcDbEntity
  8
0
  6
Continuous
 62
     7
370
    15
100
AcDbCircle
 10
7.9105460934
 20
5.479006232
 30
0.0
 40
2.499999999999999
100
AcDbArc
 50
273.9422159
 51
291.7720698143
  0
LINE
  5
9F
330
1F
100
AcDbEntity
  8
0
  6
Continuous
 62
     7
370
    15
100
AcDbLine
 10
9.1475437666
 20
3.3064877036
 30
0.0
 11
9.5070040955
 21
2.6751734808
 31
0.0
  0
ARC
  5
A0
330
1F
100
AcDbEntity
  8
0
  6
Continuous
 62
     7
370
    15
100
AcDbCircle
 10
10.0354380621
 20
3.5241478873
 30
0.0
 40
0.9999999999999988
100
AcDbArc
 50
238.1002948009
 51
282.3096410151
  0
ARC
  5
A1
330
1F
100
AcDbEntity
  8
0
  6
Continuous
 62
     7
370
    15
100
AcDbCircle
 10
9.3435591126
 20
2.9723928367
 30
0.0
 40
1.000000000000001
100
AcDbArc
 50
334.8332161277
 51
19.042562342
  0
LINE
  5
A2
330
1F
100
AcDbEntity
  8
0
  6
Continuous
 62
     7
370
    15
100
AcDbLine
 10
10.288835578
 20
3.2986632826
 30
0.0
 11
9.7533371689
 21
3.7895918211
 31
0.0
  0
ARC
  5
A3
330
1F
100
AcDbEntity
  8
0
  6
Continuous
 62
     7
370
    15
100
AcDbCircle
 10
7.9105460934
 20
5.479006232
 30
0.0
 40
2.5
100
AcDbArc
 50
299.6565016143
 51
317.4863555286
  0
LINE
  5
A4
330
1F
100
AcDbEntity
  8
0
  6
Continuous
 62
     7
370
    15
100
AcDbLine
 10
9.9676629491
 20
4.0583478488
 30
0.0
 11
10.5654424902
 21
3.6455173797
 31
0.0
  0
ARC
  5
A5
330
1F
100
AcDbEntity
  8
0
  6
Continuous
 62
     7
370
    15
100
AcDbCircle
 10
10.6731888529
 20
4.6396957949
 30
0.0
 40
1.0
100
AcDbArc
 50
263.8145805152
 51
308.0239267294
  0
ARC
  5
A6
330
1F
100
AcDbEntity
  8
0
  6
Continuous
 62
     7
370
    15
100
AcDbCircle
 10
10.2892250034
 20
3.842386646
 30
0.0
 40
0.9999999999999999
100
AcDbArc
 50
0.547501842
 51
44.7568480563
  0
LINE
  5
A7
330
1F
100
AcDbEntity
  8
0
  6
Continuous
 62
     7
370
    15
100
AcDbLine
 10
10.9993262294
 20
4.5464862476
 30
0.0
 11
10.303852924
 21
4.7564535251
 31
0.0
  0
ARC
  5
A8
330
1F
100
AcDbEntity
  8
0
  6
Continuous
 62
     7
370
    15
100
AcDbCircle
 10
7.9105460934
 20
5.479006232
 30
0.0
 40
2.500000000000001
100
AcDbArc
 50
325.3707873286
 51
343.2006412429
  0
LINE
  5
A9
330
1F
100
AcDbEntity
  8
0
  6
Continuous
 62
     7
370
    15
100
AcDbLine
 10
10.3803449093
 20
5.0915868099
 30
0.0
 11
11.0980460934
 21
4.979006232
 31
0.0
  0
ARC
  5
AA
330
1F
100
AcDbEntity
  8
0
  6
Continuous
 62
     7
370
    15
100
AcDbCircle
 10
10.7637643636
 20
5.921479428
 30
0.0
 40
1.000000000000002
100
AcDbArc
 50
289.5288662295
 51
333.7382124437
  0
ARC
  5
AB
330
1F
100
AcDbEntity
  8
0
  6
Continuous
 62
     7
370
    15
100
AcDbCircle
 10
10.7637643636
 20
5.0365330361
 30
0.0
 40
1.000000000000001
100
AcDbArc
 50
26.2617875563
 51
70.4711337705
  0
LINE
  5
AC
330
1F
100
AcDbEntity
  8
0
  6
Continuous
 62
     7
370
    15
100
AcDbLine
 10
11.0980460934
 20
5.979006232
 30
0.0
 11
10.3803449093
 21
5.8664256542
 31
0.0
  0
ARC
  5
AD
330
1F
100
AcDbEntity
  8
0
  6
Continuous
 62
     7
370
    15
100
AcDbCircle
 10
7.9105460934
 20
5.479006232
 30
0.0
 40
2.5
100
AcDbArc
 50
351.0850730429
 51
8.9149269571
  0
LINE
  5
AE
330
1F
100
AcDbEntity
  8
0
  6
Continuous
 62
     7
370
    15
100
AcDbLine
 10
10.303852924
 20
6.201558939
 30
0.0
 11
10.9993262294
 21
6.4115262165
 31
0.0
  0
ARC
  5
AF
330
1F
100
AcDbEntity
  8
0
  6
Continuous
 62
     7
370
    15
100
AcDbCircle
 10
10.2892250034
 20
7.1156258181
 30
0.0
 40
1.000000000000001
100
AcDbArc
 50
315.2431519437
 51
359.452498158
  0
ARC
  5
B0
330
1F
100
AcDbEntity
  8
0
  6
Continuous
 62
     7
370
    15
100
AcDbCircle
 10
10.6731888529
 20
6.3183166692
 30
0.0
 40
1.000000000000001
100
AcDbArc
 50
51.9760732706
 51
96.1854194848
  0
LINE
  5
B1
330
1F
100
AcDbEntity
  8
0
  6
Continuous
 62
     7
370
    15
100
AcDbLine
 10
10.5654424902
 20
7.3124950844
 30
0.0
 11
9.9676629491
 21
6.8996646153
 31
0.0
  0
ARC
  5
B2
330
1F
100
AcDbEntity
  8
0
  6
Continuous
 62
     7
370
    15
100
AcDbCircle
 10
7.9105460934
 20
5.479006232
 30
0.0
 40
2.500000000000001
100
AcDbArc
 50
16.7993587571
 51
34.6292126714
  0
LINE
  5
B3
330
1F
100
AcDbEntity
  8
0
  6
Continuous
 62
     7
370
    15
100
AcDbLine
 10
9.7533371689
 20
7.168420643
 30
0.0
 11
10.288835578
 21
7.6593491815
 31
0.0
  0
ARC
  5
B4
330
1F
100
AcDbEntity
  8
0
  6
Continuous
 62
     7
370
    15
100
AcDbCircle
 10
9.3435591126
 20
7.9856196274
 30
0.0
 40
1.000000000000001
100
AcDbArc
 50
340.957437658
 51
25.1667838723
  0
ARC
  5
B5
330
1F
100
AcDbEntity
  8
0
  6
Continuous
 62
     7
370
    15
100
AcDbCircle
 10
10.0354380621
 20
7.4338645768
 30
0.0
 40
1.0
100
AcDbArc
 50
77.6903589849
 51
121.8997051991
  0
LINE
  5
B6
330
1F
100
AcDbEntity
  8
0
  6
Continuous
 62
     7
370
    15
100
AcDbLine
 10
9.5070040955
 20
8.2828389833
 30
0.0
 11
9.1475437666
 21
7.6515247605
 31
0.0
  0
ARC
  5
B7
330
1F
100
AcDbEntity
  8
0
  6
Continuous
 62
     7
370
    15
100
AcDbCircle
 10
7.9105460934
 20
5.479006232
 30
0.0
 40
2.5
100
AcDbArc
 50
42.5136444714
 51
60.3434983857
  0
LINE
  5
B8
330
1F
100
AcDbEntity
  8
0
  6
Continuous
 62
     7
370
    15
100
AcDbLine
 10
8.8378340409
 20
7.8006731036
 30
0.0
 11
9.1072955264
 21
8.4753284852
 31
0.0
  0
ARC
  5
B9
330
1F
100
AcDbEntity
  8
0
  6
Continuous
 62
     7
370
    15
100
AcDbCircle
 10
8.1140674185
 20
8.3591479121
 30
0.0
 40
0.9999999999999999
100
AcDbArc
 50
6.6717233723
 51
50.8810695865
  0
ARC
  5
BA
330
1F
100
AcDbEntity
  8
0
  6
Continuous
 62
     7
370
    15
100
AcDbCircle
 10
8.9768263568
 20
8.1622288144
 30
0.0
 40
1.000000000000002
100
AcDbArc
 50
103.4046446992
 51
147.6139909134
  0
LINE
  5
BB
330
1F
100
AcDbEntity
  8
0
  6
Continuous
 62
     7
370
    15
100
AcDbLine
 10
8.1323676142
 20
8.6978494191
 30
0.0
 11
8.0824220242
 21
7.9730909669
 31
0.0
  0
ARC
  5
BC
330
1F
100
AcDbEntity
  8
0
  6
Continuous
 62
     7
370
    15
100
AcDbCircle
 10
7.9105460934
 20
5.479006232
 30
0.0
 40
2.500000000000001
100
AcDbArc
 50
68.2279301857
 51
86.0577841
  0
LINE
  5
BD
330
1F
100
AcDbEntity
  8
0
  6
Continuous
 62
     7
370
    15
100
AcDbLine
 10
7.7386701625
 20
7.9730909669
 30
0.0
 11
7.6887245725
 21
8.6978494191
 31
0.0
  0
ARC
  5
BE
330
1F
100
AcDbEntity
  8
0
  6
Continuous
 62
     7
370
    15
100
AcDbCircle
 10
6.8442658299
 20
8.1622288144
 30
0.0
 40
0.9999999999999986
100
AcDbArc
 50
32.3860090866
 51
76.5953553008
  0
ARC
  5
BF
330
1F
100
AcDbEntity
  8
0
  6
Continuous
 62
     7
370
    15
100
AcDbCircle
 10
7.7070247682
 20
8.3591479121
 30
0.0
 40
1.0
100
AcDbArc
 50
129.1189304135
 51
173.3282766277
  0
LINE
  5
C0
330
1F
100
AcDbEntity
  8
0
  6
Continuous
 62
     7
370
    15
100
AcDbLine
 10
6.7137966603
 20
8.4753284852
 30
0.0
 11
6.9832581458
 21
7.8006731036
 31
0.0
  0
ARC
  5
C1
330
1F
100
AcDbEntity
  8
0
  6
Continuous
 62
     7
370
    15
100
AcDbCircle
 10
7.9105460934
 20
5.479006232
 30
0.0
 40
2.5
100
AcDbArc
 50
93.9422159
 51
111.7720698143
  0
LINE
  5
C2
330
1F
100
AcDbEntity
  8
0
  6
Continuous
 62
     7
370
    15
100
AcDbLine
 10
6.6735484201
 20
7.6515247605
 30
0.0
 11
6.3140880912
 21
8.2828389833
 31
0.0
  0
ARC
  5
C3
330
1F
100
AcDbEntity
  8
0
  6
Continuous
 62
     7
370
    15
100
AcDbCircle
 10
5.7856541246
 20
7.4338645768
 30
0.0
 40
1.0
100
AcDbArc
 50
58.1002948009
 51
102.3096410151
  0
ARC
  5
C4
330
1F
100
AcDbEntity
  8
0
  6
Continuous
 62
     7
370
    15
100
AcDbCircle
 10
6.4775330742
 20
7.9856196274
 30
0.0
 40
1.000000000000001
100
AcDbArc
 50
154.8332161277
 51
199.042562342
  0
LINE
  5
C5
330
1F
100
AcDbEntity
  8
0
  6
Continuous
 62
     7
370
    15
100
AcDbLine
 10
5.5322566087
 20
7.6593491815
 30
0.0
 11
6.0677550178
 21
7.168420643
 31
0.0
  0
ARC
  5
C6
330
1F
100
AcDbEntity
  8
0
  6
Continuous
 62
     7
370
    15
100
AcDbCircle
 10
7.9105460934
 20
5.479006232
 30
0.0
 40
2.5
100
AcDbArc
 50
119.6565016143
 51
137.4863555286
  0
LINE
  5
C7
330
1F
100
AcDbEntity
  8
0
  6
Continuous
 62
     7
370
    15
100
AcDbLine
 10
5.8534292377
 20
6.8996646153
 30
0.0
 11
5.2556496965
 21
7.3124950844
 31
0.0
  0
ARC
  5
C8
330
1F
100
AcDbEntity
  8
0
  6
Continuous
 62
     7
370
    15
100
AcDbCircle
 10
5.1479033338
 20
6.3183166692
 30
0.0
 40
1.000000000000002
100
AcDbArc
 50
83.8145805152
 51
128.0239267294
  0
ARC
  5
C9
330
1F
100
AcDbEntity
  8
0
  6
Continuous
 62
     7
370
    15
100
AcDbCircle
 10
5.5318671833
 20
7.1156258181
 30
0.0
 40
1.000000000000001
100
AcDbArc
 50
180.547501842
 51
224.7568480563
  0
LINE
  5
CA
330
1F
100
AcDbEntity
  8
0
  6
Continuous
 62
     7
370
    15
100
AcDbLine
 10
4.8217659574
 20
6.4115262165
 30
0.0
 11
5.5172392627
 21
6.201558939
 31
0.0
  0
ARC
  5
CB
330
1F
100
AcDbEntity
  8
0
  6
Continuous
 62
     7
370
    15
100
AcDbCircle
 10
7.9105460934
 20
5.479006232
 30
0.0
 40
2.5
100
AcDbArc
 50
145.3707873286
 51
163.2006412429
  0
LINE
  5
CC
330
1F
100
AcDbEntity
  8
0
  6
Continuous
 62
     7
370
    15
100
AcDbLine
 10
7.0130560319
 20
5.2080489669
 30
0.0
 11
5.696737275
 21
4.8106449781
 31
0.0
  0
ARC
  5
CD
330
1F
100
AcDbEntity
  8
0
  6
Continuous
 62
     7
370
    15
100
AcDbCircle
 10
7.9105460934
 20
5.479006232
 30
0.0
 40
2.3125
100
AcDbArc
 50
196.7993587571
 51
214.6292126714
  0
LINE
  5
CE
330
1F
100
AcDbEntity
  8
0
  6
Continuous
 62
     7
370
    15
100
AcDbLine
 10
6.0077130018
 20
4.1648972275
 30
0.0
 11
7.1391272725
 21
4.9462593383
 31
0.0
  0
ARC
  5
CF
330
1F
100
AcDbEntity
  8
0
  6
Continuous
 62
     7
370
    15
100
AcDbCircle
 10
7.9105460934
 20
5.479006232
 30
0.0
 40
0.9374999999999996
100
AcDbArc
 50
196.7993587571
 51
214.6292126714
  0
LINE
  5
D0
330
1F
100
AcDbEntity
  8
0
  6
Continuous
 62
     7
370
    15
100
AcDbLine
 10
7.21949944
 20
4.8454758279
 30
0.0
 11
6.2059643485
 21
3.9162979019
 31
0.0
  0
ARC
  5
D1
330
1F
100
AcDbEntity
  8
0
  6
Continuous
 62
     7
370
    15
100
AcDbCircle
 10
7.9105460934
 20
5.479006232
 30
0.0
 40
2.312499999999999
100
AcDbArc
 50
222.5136444714
 51
240.3434983857
  0
LINE
  5
D2
330
1F
100
AcDbEntity
  8
0
  6
Continuous
 62
     7
370
    15
100
AcDbLine
 10
6.7663232456
 20
3.4694265933
 30
0.0
 11
7.4466719659
 21
4.6643117839
 31
0.0
  0
ARC
  5
D3
330
1F
100
AcDbEntity
  8
0
  6
Continuous
 62
     7
370
    15
100
AcDbCircle
 10
7.9105460934
 20
5.479006232
 30
0.0
 40
0.9374999999999994
100
AcDbArc
 50
222.5136444714
 51
240.3434983857
  0
LINE
  5
D4
330
1F
100
AcDbEntity
  8
0
  6
Continuous
 62
     7
370
    15
100
AcDbLine
 10
7.562813113
 20
4.6083811552
 30
0.0
 11
7.0528047419
 21
3.3314643759
 31
0.0
  0
ARC
  5
D5
330
1F
100
AcDbEntity
  8
0
  6
Continuous
 62
     7
370
    15
100
AcDbCircle
 10
7.9105460934
 20
5.479006232
 30
0.0
 40
2.312499999999999
100
AcDbArc
 50
248.2279301857
 51
266.0577841
  0
LINE
  5
D6
330
1F
100
AcDbEntity
  8
0
  6
Continuous
 62
     7
370
    15
100
AcDbLine
 10
7.7515608573
 20
3.1719778524
 30
0.0
 11
7.8460926193
 21
4.5437244565
 31
0.0
  0
ARC
  5
D7
330
1F
100
AcDbEntity
  8
0
  6
Continuous
 62
     7
370
    15
100
AcDbCircle
 10
7.9105460934
 20
5.479006232
 30
0.0
 40
0.9375000000000007
100
AcDbArc
 50
248.2279301857
 51
266.0577841
  0
LINE
  5
D8
330
1F
100
AcDbEntity
  8
0
  6
Continuous
 62
     7
370
    15
100
AcDbLine
 10
7.9749995674
 20
4.5437244565
 30
0.0
 11
8.0695313294
 21
3.1719778524
 31
0.0
  0
ARC
  5
D9
330
1F
100
AcDbEntity
  8
0
  6
Continuous
 62
     7
370
    15
100
AcDbCircle
 10
7.9105460934
 20
5.479006232
 30
0.0
 40
2.3125
100
AcDbArc
 50
273.9422159
 51
291.7720698143
  0
LINE
  5
DA
330
1F
100
AcDbEntity
  8
0
  6
Continuous
 62
     7
370
    15
100
AcDbLine
 10
8.7682874448
 20
3.3314643759
 30
0.0
 11
8.2582790737
 21
4.6083811552
 31
0.0
  0
ARC
  5
DB
330
1F
100
AcDbEntity
  8
0
  6
Continuous
 62
     7
370
    15
100
AcDbCircle
 10
7.9105460934
 20
5.479006232
 30
0.0
 40
0.9374999999999996
100
AcDbArc
 50
273.9422159
 51
291.7720698143
  0
LINE
  5
DC
330
1F
100
AcDbEntity
  8
0
  6
Continuous
 62
     7
370
    15
100
AcDbLine
 10
8.3744202208
 20
4.6643117839
 30
0.0
 11
9.0547689411
 21
3.4694265933
 31
0.0
  0
ARC
  5
DD
330
1F
100
AcDbEntity
  8
0
  6
Continuous
 62
     7
370
    15
100
AcDbCircle
 10
7.9105460934
 20
5.479006232
 30
0.0
 40
2.312499999999999
100
AcDbArc
 50
299.6565016143
 51
317.4863555286
  0
LINE
  5
DE
330
1F
100
AcDbEntity
  8
0
  6
Continuous
 62
     7
370
    15
100
AcDbLine
 10
9.6151278382
 20
3.9162979019
 30
0.0
 11
8.6015927467
 21
4.8454758279
 31
0.0
  0
ARC
  5
DF
330
1F
100
AcDbEntity
  8
0
  6
Continuous
 62
     7
370
    15
100
AcDbCircle
 10
7.9105460934
 20
5.479006232
 30
0.0
 40
0.9374999999999989
100
AcDbArc
 50
299.6565016143
 51
317.4863555286
  0
LINE
  5
E0
330
1F
100
AcDbEntity
  8
0
  6
Continuous
 62
     7
370
    15
100
AcDbLine
 10
8.6819649142
 20
4.9462593383
 30
0.0
 11
9.8133791849
 21
4.1648972275
 31
0.0
  0
ARC
  5
E1
330
1F
100
AcDbEntity
  8
0
  6
Continuous
 62
     7
370
    15
100
AcDbCircle
 10
7.9105460934
 20
5.479006232
 30
0.0
 40
2.3125
100
AcDbArc
 50
325.3707873286
 51
343.2006412429
  0
LINE
  5
E2
330
1F
100
AcDbEntity
  8
0
  6
Continuous
 62
     7
370
    15
100
AcDbLine
 10
10.1243549117
 20
4.8106449781
 30
0.0
 11
8.8080361548
 21
5.2080489669
 31
0.0
  0
ARC
  5
E3
330
1F
100
AcDbEntity
  8
0
  6
Continuous
 62
     7
370
    15
100
AcDbCircle
 10
7.9105460934
 20
5.479006232
 30
0.0
 40
0.9375000000000019
100
AcDbArc
 50
325.3707873286
 51
343.2006412429
  0
LINE
  5
E4
330
1F
100
AcDbEntity
  8
0
  6
Continuous
 62
     7
370
    15
100
AcDbLine
 10
8.8367206493
 20
5.3337239488
 30
0.0
 11
10.1951099981
 21
5.1206432666
 31
0.0
  0
ARC
  5
E5
330
1F
100
AcDbEntity
  8
0
  6
Continuous
 62
     7
370
    15
100
AcDbCircle
 10
7.9105460934
 20
5.479006232
 30
0.0
 40
2.312499999999999
100
AcDbArc
 50
351.0850730429
 51
8.9149269571
  0
LINE
  5
E6
330
1F
100
AcDbEntity
  8
0
  6
Continuous
 62
     7
370
    15
100
AcDbLine
 10
10.1951099981
 20
5.8373691975
 30
0.0
 11
8.8367206493
 21
5.6242885153
 31
0.0
  0
ARC
  5
E7
330
1F
100
AcDbEntity
  8
0
  6
Continuous
 62
     7
370
    15
100
AcDbCircle
 10
7.9105460934
 20
5.479006232
 30
0.0
 40
0.9375000000000008
100
AcDbArc
 50
351.0850730429
 51
8.9149269571
  0
LINE
  5
E8
330
1F
100
AcDbEntity
  8
0
  6
Continuous
 62
     7
370
    15
100
AcDbLine
 10
8.8080361548
 20
5.7499634972
 30
0.0
 11
10.1243549117
 21
6.147367486
 31
0.0
  0
ARC
  5
E9
330
1F
100
AcDbEntity
  8
0
  6
Continuous
 62
     7
370
    15
100
AcDbCircle
 10
7.9105460934
 20
5.479006232
 30
0.0
 40
2.312500000000001
100
AcDbArc
 50
16.7993587571
 51
34.6292126714
  0
LINE
  5
EA
330
1F
100
AcDbEntity
  8
0
  6
Continuous
 62
     7
370
    15
100
AcDbLine
 10
9.8133791849
 20
6.7931152366
 30
0.0
 11
8.6819649142
 21
6.0117531258
 31
0.0
  0
ARC
  5
EB
330
1F
100
AcDbEntity
  8
0
  6
Continuous
 62
     7
370
    15
100
AcDbCircle
 10
7.9105460934
 20
5.479006232
 30
0.0
 40
0.9375000000000011
100
AcDbArc
 50
16.7993587571
 51
34.6292126714
  0
LINE
  5
EC
330
1F
100
AcDbEntity
  8
0
  6
Continuous
 62
     7
370
    15
100
AcDbLine
 10
8.6015927467
 20
6.1125366362
 30
0.0
 11
9.6151278382
 21
7.0417145622
 31
0.0
  0
ARC
  5
ED
330
1F
100
AcDbEntity
  8
0
  6
Continuous
 62
     7
370
    15
100
AcDbCircle
 10
7.9105460934
 20
5.479006232
 30
0.0
 40
2.3125
100
AcDbArc
 50
42.5136444714
 51
60.3434983857
  0
LINE
  5
EE
330
1F
100
AcDbEntity
  8
0
  6
Continuous
 62
     7
370
    15
100
AcDbLine
 10
9.0547689411
 20
7.4885858708
 30
0.0
 11
8.3744202208
 21
6.2937006802
 31
0.0
  0
ARC
  5
EF
330
1F
100
AcDbEntity
  8
0
  6
Continuous
 62
     7
370
    15
100
AcDbCircle
 10
7.9105460934
 20
5.479006232
 30
0.0
 40
0.937500000000001
100
AcDbArc
 50
42.5136444714
 51
60.3434983857
  0
LINE
  5
F0
330
1F
100
AcDbEntity
  8
0
  6
Continuous
 62
     7
370
    15
100
AcDbLine
 10
8.2582790737
 20
6.3496313089
 30
0.0
 11
8.7682874448
 21
7.6265480882
 31
0.0
  0
ARC
  5
F1
330
1F
100
AcDbEntity
  8
0
  6
Continuous
 62
     7
370
    15
100
AcDbCircle
 10
7.9105460934
 20
5.479006232
 30
0.0
 40
2.312500000000002
100
AcDbArc
 50
68.2279301857
 51
86.0577841
  0
LINE
  5
F2
330
1F
100
AcDbEntity
  8
0
  6
Continuous
 62
     7
370
    15
100
AcDbLine
 10
8.0695313294
 20
7.7860346117
 30
0.0
 11
7.9749995674
 21
6.4142880076
 31
0.0
  0
ARC
  5
F3
330
1F
100
AcDbEntity
  8
0
  6
Continuous
 62
     7
370
    15
100
AcDbCircle
 10
7.9105460934
 20
5.479006232
 30
0.0
 40
0.9375000000000009
100
AcDbArc
 50
68.2279301857
 51
86.0577841
  0
LINE
  5
F4
330
1F
100
AcDbEntity
  8
0
  6
Continuous
 62
     7
370
    15
100
AcDbLine
 10
7.8460926193
 20
6.4142880076
 30
0.0
 11
7.7515608573
 21
7.7860346117
 31
0.0
  0
ARC
  5
F5
330
1F
100
AcDbEntity
  8
0
  6
Continuous
 62
     7
370
    15
100
AcDbCircle
 10
7.9105460934
 20
5.479006232
 30
0.0
 40
2.312500000000001
100
AcDbArc
 50
93.9422159
 51
111.7720698143
  0
LINE
  5
F6
330
1F
100
AcDbEntity
  8
0
  6
Continuous
 62
     7
370
    15
100
AcDbLine
 10
7.0528047419
 20
7.6265480882
 30
0.0
 11
7.562813113
 21
6.3496313089
 31
0.0
  0
ARC
  5
F7
330
1F
100
AcDbEntity
  8
0
  6
Continuous
 62
     7
370
    15
100
AcDbCircle
 10
7.9105460934
 20
5.479006232
 30
0.0
 40
0.9375000000000016
100
AcDbArc
 50
93.9422159
 51
111.7720698143
  0
LINE
  5
F8
330
1F
100
AcDbEntity
  8
0
  6
Continuous
 62
     7
370
    15
100
AcDbLine
 10
7.4466719659
 20
6.2937006802
 30
0.0
 11
6.7663232456
 21
7.4885858708
 31
0.0
  0
ARC
  5
F9
330
1F
100
AcDbEntity
  8
0
  6
Continuous
 62
     7
370
    15
100
AcDbCircle
 10
7.9105460934
 20
5.479006232
 30
0.0
 40
2.312499999999999
100
AcDbArc
 50
119.6565016143
 51
137.4863555286
  0
LINE
  5
FA
330
1F
100
AcDbEntity
  8
0
  6
Continuous
 62
     7
370
    15
100
AcDbLine
 10
6.2059643485
 20
7.0417145622
 30
0.0
 11
7.21949944
 21
6.1125366362
 31
0.0
  0
ARC
  5
FB
330
1F
100
AcDbEntity
  8
0
  6
Continuous
 62
     7
370
    15
100
AcDbCircle
 10
7.9105460934
 20
5.479006232
 30
0.0
 40
0.9375000000000016
100
AcDbArc
 50
119.6565016143
 51
137.4863555286
  0
LINE
  5
FC
330
1F
100
AcDbEntity
  8
0
  6
Continuous
 62
     7
370
    15
100
AcDbLine
 10
7.1391272725
 20
6.0117531258
 30
0.0
 11
6.0077130018
 21
6.7931152366
 31
0.0
  0
ARC
  5
FD
330
1F
100
AcDbEntity
  8
0
  6
Continuous
 62
     7
370
    15
100
AcDbCircle
 10
7.9105460934
 20
5.479006232
 30
0.0
 40
2.3125
100
AcDbArc
 50
145.3707873286
 51
163.2006412429
  0
LINE
  5
FE
330
1F
100
AcDbEntity
  8
0
  6
Continuous
 62
     7
370
    15
100
AcDbLine
 10
5.696737275
 20
6.147367486
 30
0.0
 11
7.0130560319
 21
5.7499634972
 31
0.0
  0
ARC
  5
FF
330
1F
100
AcDbEntity
  8
0
  6
Continuous
 62
     7
370
    15
100
AcDbCircle
 10
7.9105460934
 20
5.479006232
 30
0.0
 40
0.9374999999999998
100
AcDbArc
 50
145.3707873286
 51
163.2006412429
  0
ARC
  5
100
330
1F
100
AcDbEntity
  8
0
  6
Continuous
 62
     7
370
    15
100
AcDbCircle
 10
8.2644910284
 20
5.2218501842
 30
0.0
 40
0.3124999999999983
100
AcDbArc
 50
232.6239077608
 51
55.3760922392
  0
ARC
  5
101
330
1F
100
AcDbEntity
  8
0
  6
Continuous
 62
     7
370
    15
100
AcDbCircle
 10
8.2644910284
 20
5.7361622799
 30
0.0
 40
0.3124999999999999
100
AcDbArc
 50
304.6239077608
 51
127.3760922392
  0
ARC
  5
102
330
1F
100
AcDbEntity
  8
0
  6
Continuous
 62
     7
370
    15
100
AcDbCircle
 10
7.7753511583
 20
5.8950934579
 30
0.0
 40
0.3124999999999996
100
AcDbArc
 50
16.6239077608
 51
199.3760922392
  0
ARC
  5
103
330
1F
100
AcDbEntity
  8
0
  6
Continuous
 62
     7
370
    15
100
AcDbCircle
 10
7.4730460934
 20
5.479006232
 30
0.0
 40
0.3124999999999989
100
AcDbArc
 50
88.6239077608
 51
271.3760922392
  0
ARC
  5
104
330
1F
100
AcDbEntity
  8
0
  6
Continuous
 62
     7
370
    15
100
AcDbCircle
 10
7.7753511583
 20
5.0629190062
 30
0.0
 40
0.3124999999999996
100
AcDbArc
 50
160.6239077608
 51
343.3760922392
  0
LINE
  5
105
330
1F
100
AcDbEntity
  8
0
  6
Continuous
 62
     7
370
    15
100
AcDbLine
 10
8.9413224998
 20
1.291506232
 30
0.0
 11
9.5582243842
 21
1.291506232
 31
0.0
  0
ARC
  5
106
330
1F
100
AcDbEntity
  8
0
  6
Continuous
 62
     7
370
    15
100
AcDbCircle
 10
7.9105460934
 20
5.479006232
 30
0.0
 40
4.499999999999998
100
AcDbArc
 50
291.4784178411
 51
306.0
  0
LINE
  5
107
330
1F
100
AcDbEntity
  8
0
  6
Continuous
 62
     7
370
    15
100
AcDbLine
 10
10.5555797287
 20
1.8384297574
 30
0.0
 11
10.4453699939
 21
1.9901204438
 31
0.0
  0
ARC
  5
108
330
1F
100
AcDbEntity
  8
0
  6
Continuous
 62
     7
370
    15
100
AcDbCircle
 10
7.9105460934
 20
5.479006232
 30
0.0
 40
4.312500000000001
100
AcDbArc
 50
283.8287435443
 51
306.0
  0
LINE
  5
109
330
1F
100
AcDbEntity
  8
0
  6
Continuous
 62
     7
370
    15
100
AcDbLine
 10
9.7089829146
 20
9.604006232
 30
0.0
 11
9.1683343307
 21
9.604006232
 31
0.0
  0
ARC
  5
10A
330
1F
100
AcDbEntity
  8
0
  6
Continuous
 62
     7
370
    15
100
AcDbCircle
 10
7.9105460934
 20
5.479006232
 30
0.0
 40
4.312500000000004
100
AcDbArc
 50
54.0
 51
73.0425737058
  0
LINE
  5
10B
330
1F
100
AcDbEntity
  8
0
  6
Continuous
 62
     7
370
    15
100
AcDbLine
 10
10.4453699939
 20
8.9678920203
 30
0.0
 11
10.5555797287
 21
9.1195827067
 31
0.0
  0
ARC
  5
10C
330
1F
100
AcDbEntity
  8
0
  6
Continuous
 62
     7
370
    15
100
AcDbCircle
 10
7.9105460934
 20
5.479006232
 30
0.0
 40
4.5
100
AcDbArc
 50
54.0
 51
66.4435356909
  0
ARC
  5
10D
330
1F
100
AcDbEntity
  8
0
  6
Continuous
 62
     7
370
    15
100
AcDbCircle
 10
13.4730460934
 20
5.447756232
 30
0.0
 40
1.3125
100
AcDbArc
 50
147.9159790592
 51
164.129011541
  0
ARC
  5
10E
330
1F
100
AcDbEntity
  8
0
  6
Continuous
 62
     7
370
    15
100
AcDbCircle
 10
7.9105460934
 20
5.479006232
 30
0.0
 40
4.5
100
AcDbArc
 50
8.5097607634
 51
23.0
  0
LINE
  5
10F
330
1F
100
AcDbEntity
  8
0
  6
Continuous
 62
     7
370
    15
100
AcDbLine
 10
12.0528179339
 20
7.2372963103
 30
0.0
 11
11.8802232739
 21
7.1640342237
 31
0.0
  0
ARC
  5
110
330
1F
100
AcDbEntity
  8
0
  6
Continuous
 62
     7
370
    15
100
AcDbCircle
 10
7.9105460934
 20
5.479006232
 30
0.0
 40
4.312500000000002
100
AcDbArc
 50
4.3577796742
 51
23.0
  0
LINE
  5
111
330
1F
100
AcDbEntity
  8
0
  6
Continuous
 62
     7
370
    15
100
AcDbLine
 10
5.3757221928
 20
1.9901204438
 30
0.0
 11
5.265512458
 21
1.8384297574
 31
0.0
  0
ARC
  5
112
330
1F
100
AcDbEntity
  8
0
  6
Continuous
 62
     7
370
    15
100
AcDbCircle
 10
7.9105460934
 20
5.479006232
 30
0.0
 40
4.499999999999998
100
AcDbArc
 50
234.0
 51
248.5215821589
  0
LINE
  5
113
330
1F
100
AcDbEntity
  8
0
  6
Continuous
 62
     7
370
    15
100
AcDbLine
 10
6.2628678025
 20
1.291506232
 30
0.0
 11
6.8797696869
 21
1.291506232
 31
0.0
  0
ARC
  5
114
330
1F
100
AcDbEntity
  8
0
  6
Continuous
 62
     7
370
    15
100
AcDbCircle
 10
7.9105460934
 20
5.479006232
 30
0.0
 40
4.3125
100
AcDbArc
 50
234.0
 51
256.1712564557
  0
LINE
  5
115
330
1F
100
AcDbEntity
  8
0
  6
Continuous
 62
     7
370
    15
100
AcDbLine
 10
5.265512458
 20
9.1195827067
 30
0.0
 11
5.3757221928
 21
8.9678920203
 31
0.0
  0
ARC
  5
116
330
1F
100
AcDbEntity
  8
0
  6
Continuous
 62
     7
370
    15
100
AcDbCircle
 10
7.9105460934
 20
5.479006232
 30
0.0
 40
4.312500000000001
100
AcDbArc
 50
106.9574262942
 51
126.0
  0
LINE
  5
117
330
1F
100
AcDbEntity
  8
0
  6
Continuous
 62
     7
370
    15
100
AcDbLine
 10
6.652757856
 20
9.604006232
 30
0.0
 11
6.1121092721
 21
9.604006232
 31
0.0
  0
ARC
  5
118
330
1F
100
AcDbEntity
  8
0
  6
Continuous
 62
     7
370
    15
100
AcDbCircle
 10
7.9105460934
 20
5.479006232
 30
0.0
 40
4.500000000000004
100
AcDbArc
 50
113.5564643091
 51
126.0
  0
LINE
  5
119
330
1F
100
AcDbEntity
  8
0
  6
Continuous
 62
     7
370
    15
100
AcDbLine
 10
11.8802232739
 20
3.7939782404
 30
0.0
 11
12.0528179339
 21
3.7207161538
 31
0.0
  0
ARC
  5
11A
330
1F
100
AcDbEntity
  8
0
  6
Continuous
 62
     7
370
    15
100
AcDbCircle
 10
7.9105460934
 20
5.479006232
 30
0.0
 40
4.499999999999999
100
AcDbArc
 50
337.0
 51
350.8464732058
  0
ARC
  5
11B
330
1F
100
AcDbEntity
  8
0
  6
Continuous
 62
     7
370
    15
100
AcDbCircle
 10
13.4730460934
 20
5.447756232
 30
0.0
 40
1.3125
100
AcDbArc
 50
195.2272224282
 51
211.44025491
  0
ARC
  5
11C
330
1F
100
AcDbEntity
  8
0
  6
Continuous
 62
     7
370
    15
100
AcDbCircle
 10
7.9105460934
 20
5.479006232
 30
0.0
 40
4.3125
100
AcDbArc
 50
337.0
 51
354.998454295
  0
LINE
  5
11D
330
1F
100
AcDbEntity
  8
0
  6
Continuous
 62
     7
370
    15
100
AcDbLine
 10
10.8628117238
 20
8.8751993431
 30
0.0
 11
10.7398006559
 21
8.7336912968
 31
0.0
  0
ARC
  5
11E
330
1F
100
AcDbEntity
  8
0
  6
Continuous
 62
     7
370
    15
100
AcDbCircle
 10
7.9105460934
 20
5.479006232
 30
0.0
 40
4.312500000000003
100
AcDbArc
 50
28.0
 51
49.0
  0
LINE
  5
11F
330
1F
100
AcDbEntity
  8
0
  6
Continuous
 62
     7
370
    15
100
AcDbLine
 10
11.7182575876
 20
7.5036023466
 30
0.0
 11
11.8838102612
 21
7.5916282646
 31
0.0
  0
ARC
  5
120
330
1F
100
AcDbEntity
  8
0
  6
Continuous
 62
     7
370
    15
100
AcDbCircle
 10
7.9105460934
 20
5.479006232
 30
0.0
 40
4.5
100
AcDbArc
 50
28.0
 51
49.0
  0
LINE
  5
121
330
1F
100
AcDbEntity
  8
0
  6
Continuous
 62
     7
370
    15
100
AcDbLine
 10
11.8838102612
 20
3.3663841995
 30
0.0
 11
11.7182575876
 21
3.4544101175
 31
0.0
  0
ARC
  5
122
330
1F
100
AcDbEntity
  8
0
  6
Continuous
 62
     7
370
    15
100
AcDbCircle
 10
7.9105460934
 20
5.479006232
 30
0.0
 40
4.312500000000002
100
AcDbArc
 50
311.0
 51
332.0
  0
LINE
  5
123
330
1F
100
AcDbEntity
  8
0
  6
Continuous
 62
     7
370
    15
100
AcDbLine
 10
10.7398006559
 20
2.2243211673
 30
0.0
 11
10.8628117238
 21
2.082813121
 31
0.0
  0
ARC
  5
124
330
1F
100
AcDbEntity
  8
0
  6
Continuous
 62
     7
370
    15
100
AcDbCircle
 10
7.9105460934
 20
5.479006232
 30
0.0
 40
4.499999999999999
100
AcDbArc
 50
311.0
 51
332.0
  0
LINE
  5
125
330
1F
100
AcDbEntity
  8
0
  6
Continuous
 62
     7
370
    15
100
AcDbLine
 10
3.9372819255
 20
7.5916282646
 30
0.0
 11
4.1028345991
 21
7.5036023466
 31
0.0
  0
ARC
  5
126
330
1F
100
AcDbEntity
  8
0
  6
Continuous
 62
     7
370
    15
100
AcDbCircle
 10
7.9105460934
 20
5.479006232
 30
0.0
 40
4.3125
100
AcDbArc
 50
131.0
 51
152.0
  0
LINE
  5
127
330
1F
100
AcDbEntity
  8
0
  6
Continuous
 62
     7
370
    15
100
AcDbLine
 10
5.0812915308
 20
8.7336912968
 30
0.0
 11
4.9582804629
 21
8.8751993431
 31
0.0
  0
ARC
  5
128
330
1F
100
AcDbEntity
  8
0
  6
Continuous
 62
     7
370
    15
100
AcDbCircle
 10
7.9105460934
 20
5.479006232
 30
0.0
 40
4.500000000000003
100
AcDbArc
 50
131.0
 51
152.0
  0
LINE
  5
129
330
1F
100
AcDbEntity
  8
0
  6
Continuous
 62
     7
370
    15
100
AcDbLine
 10
3.4148290962
 20
5.6752934752
 30
0.0
 11
3.6021506378
 21
5.6671148401
 31
0.0
  0
ARC
  5
12A
330
1F
100
AcDbEntity
  8
0
  6
Continuous
 62
     7
370
    15
100
AcDbCircle
 10
7.9105460934
 20
5.479006232
 30
0.0
 40
4.3125
100
AcDbArc
 50
157.0
 51
177.5
  0
LINE
  5
12B
330
1F
100
AcDbEntity
  8
0
  6
Continuous
 62
     7
370
    15
100
AcDbLine
 10
3.9408689128
 20
7.1640342237
 30
0.0
 11
3.7682742528
 21
7.2372963103
 31
0.0
  0
ARC
  5
12C
330
1F
100
AcDbEntity
  8
0
  6
Continuous
 62
     7
370
    15
100
AcDbCircle
 10
7.9105460934
 20
5.479006232
 30
0.0
 40
4.5
100
AcDbArc
 50
157.0
 51
177.5
  0
LINE
  5
12D
330
1F
100
AcDbEntity
  8
0
  6
Continuous
 62
     7
370
    15
100
AcDbLine
 10
4.9582804629
 20
2.082813121
 30
0.0
 11
5.0812915308
 21
2.2243211673
 31
0.0
  0
ARC
  5
12E
330
1F
100
AcDbEntity
  8
0
  6
Continuous
 62
     7
370
    15
100
AcDbCircle
 10
7.9105460934
 20
5.479006232
 30
0.0
 40
4.3125
100
AcDbArc
 50
208.0
 51
229.0
  0
LINE
  5
12F
330
1F
100
AcDbEntity
  8
0
  6
Continuous
 62
     7
370
    15
100
AcDbLine
 10
4.1028345991
 20
3.4544101175
 30
0.0
 11
3.9372819255
 21
3.3663841995
 31
0.0
  0
ARC
  5
130
330
1F
100
AcDbEntity
  8
0
  6
Continuous
 62
     7
370
    15
100
AcDbCircle
 10
7.9105460934
 20
5.479006232
 30
0.0
 40
4.5
100
AcDbArc
 50
208.0
 51
229.0
  0
LINE
  5
131
330
1F
100
AcDbEntity
  8
0
  6
Continuous
 62
     7
370
    15
100
AcDbLine
 10
3.6021506378
 20
5.290897624
 30
0.0
 11
3.4148290962
 21
5.2827189889
 31
0.0
  0
ARC
  5
132
330
1F
100
AcDbEntity
  8
0
  6
Continuous
 62
     7
370
    15
100
AcDbCircle
 10
7.9105460934
 20
5.479006232
 30
0.0
 40
4.5
100
AcDbArc
 50
182.5
 51
203.0
  0
LINE
  5
133
330
1F
100
AcDbEntity
  8
0
  6
Continuous
 62
     7
370
    15
100
AcDbLine
 10
3.7682742528
 20
3.7207161538
 30
0.0
 11
3.9408689128
 21
3.7939782404
 31
0.0
  0
ARC
  5
134
330
1F
100
AcDbEntity
  8
0
  6
Continuous
 62
     7
370
    15
100
AcDbCircle
 10
7.9105460934
 20
5.479006232
 30
0.0
 40
4.312500000000001
100
AcDbArc
 50
182.5
 51
203.0
  0
ARC
  5
135
330
1F
100
AcDbEntity
  8
0
  6
Continuous
 62
     7
370
    15
100
AcDbCircle
 10
4.2208797118
 20
9.0806883617
 30
0.0
 40
0.3750000000000054
100
AcDbArc
 50
253.0704527671
 51
150.3253077767
  0
ARC
  5
136
330
1F
100
AcDbEntity
  8
0
  6
Continuous
 62
     7
370
    15
100
AcDbCircle
 10
3.5223429549
 20
9.2250333015
 30
0.0
 40
0.375
100
AcDbArc
 50
6.3242566253
 51
272.7037202907
  0
ARC
  5
137
330
1F
100
AcDbEntity
  8
0
  6
Continuous
 62
     7
370
    15
100
AcDbCircle
 10
3.7745118256
 20
8.5578002664
 30
0.0
 40
0.3750000000000031
100
AcDbArc
 50
128.7026691393
 51
25.9575241489
  0
ARC
  5
138
330
1F
100
AcDbEntity
  8
0
  6
Continuous
 62
     7
370
    15
100
AcDbCircle
 10
3.7745118256
 20
2.4002121977
 30
0.0
 40
0.375000000000004
100
AcDbArc
 50
334.0424758511
 51
231.2973308607
  0
ARC
  5
139
330
1F
100
AcDbEntity
  8
0
  6
Continuous
 62
     7
370
    15
100
AcDbCircle
 10
3.5223429549
 20
1.7329791626
 30
0.0
 40
0.3750000000000001
100
AcDbArc
 50
87.2962797093
 51
353.6757433747
  0
ARC
  5
13A
330
1F
100
AcDbEntity
  8
0
  6
Continuous
 62
     7
370
    15
100
AcDbCircle
 10
4.2208797118
 20
1.8773241024
 30
0.0
 40
0.3750000000000053
100
AcDbArc
 50
209.6746922233
 51
106.9295472329
  0
ARC
  5
13B
330
1F
100
AcDbEntity
  8
0
  6
Continuous
 62
     7
370
    15
100
AcDbCircle
 10
12.2987492318
 20
1.7329791626
 30
0.0
 40
0.3750000000000014
100
AcDbArc
 50
186.3242566253
 51
92.7037202907
  0
ARC
  5
13C
330
1F
100
AcDbEntity
  8
0
  6
Continuous
 62
     7
370
    15
100
AcDbCircle
 10
12.0465803611
 20
2.4002121977
 30
0.0
 40
0.375000000000002
100
AcDbArc
 50
308.7026691393
 51
205.9575241489
  0
ARC
  5
13D
330
1F
100
AcDbEntity
  8
0
  6
Continuous
 62
     7
370
    15
100
AcDbCircle
 10
11.6002124749
 20
1.8773241024
 30
0.0
 40
0.3750000000000056
100
AcDbArc
 50
73.0704527671
 51
330.3253077767
  0
ARC
  5
13E
330
1F
100
AcDbEntity
  8
0
  6
Continuous
 62
     7
370
    15
100
AcDbCircle
 10
12.0465803611
 20
8.5578002664
 30
0.0
 40
0.3750000000000032
100
AcDbArc
 50
154.0424758511
 51
51.2973308607
  0
ARC
  5
13F
330
1F
100
AcDbEntity
  8
0
  6
Continuous
 62
     7
370
    15
100
AcDbCircle
 10
12.2987492318
 20
9.2250333015
 30
0.0
 40
0.3750000000000017
100
AcDbArc
 50
267.2962797093
 51
173.6757433747
  0
ARC
  5
140
330
1F
100
AcDbEntity
  8
0
  6
Continuous
 62
     7
370
    15
100
AcDbCircle
 10
11.6002124749
 20
9.0806883617
 30
0.0
 40
0.3750000000000054
100
AcDbArc
 50
29.6746922233
 51
286.9295472329
  0
ENDSEC
  0
SECTION
  2
OBJECTS
  0
DICTIONARY
  5
C
330
0
100
AcDbDictionary
281
     1
  3
ACAD_GROUP
350
D
  3
ACAD_LAYOUT
350
1A
  3
ACAD_MLINESTYLE
350
17
  3
ACAD_PLOTSETTINGS
350
19
  3
ACAD_PLOTSTYLENAME
350
E
  0
DICTIONARY
  5
D
102
{ACAD_REACTORS
330
C
102
}
330
C
100
AcDbDictionary
281
     1
  0
DICTIONARY
  5
1A
102
{ACAD_REACTORS
330
C
102
}
330
C
100
AcDbDictionary
281
     1
  3
Layout1
350
1E
  3
Layout2
350
26
  3
Model
350
22
  0
DICTIONARY
  5
17
102
{ACAD_REACTORS
330
C
102
}
330
C
100
AcDbDictionary
281
     1
  3
Standard
350
18
  0
DICTIONARY
  5
19
102
{ACAD_REACTORS
330
C
102
}
330
C
100
AcDbDictionary
281
     1
  0
ACDBDICTIONARYWDFLT
  5
E
102
{ACAD_REACTORS
330
C
102
}
330
C
100
AcDbDictionary
281
     1
  3
Normal
350
F
100
AcDbDictionaryWithDefault
340
F
  0
LAYOUT
  5
1E
102
{ACAD_REACTORS
330
1A
102
}
330
1A
100
AcDbPlotSettings
  1

  2

  4

  6

 40
0.0
 41
0.0
 42
0.0
 43
0.0
 44
0.0
 45
0.0
 46
0.0
 47
0.0
 48
0.0
 49
0.0
140
0.0
141
0.0
142
1.0
143
1.0
 70
   688
 72
     0
 73
     0
 74
     5
  7

 75
    16
147
1.0
148
0.0
149
0.0
100
AcDbLayout
  1
Layout1
 70
     1
 71
     1
 10
0.0
 20
0.0
 11
12.0
 21
9.0
 12
0.0
 22
0.0
 32
0.0
 14
1.0000000000E+20
 24
1.0000000000E+20
 34
1.0000000000E+20
 15
-1.0000000000E+20
 25
-1.0000000000E+20
 35
-1.0000000000E+20
146
0.0
 13
0.0
 23
0.0
 33
0.0
 16
1.0
 26
0.0
 36
0.0
 17
0.0
 27
1.0
 37
0.0
 76
     0
330
1B
  0
LAYOUT
  5
26
102
{ACAD_REACTORS
330
1A
102
}
330
1A
100
AcDbPlotSettings
  1

  2

  4

  6

 40
0.0
 41
0.0
 42
0.0
 43
0.0
 44
0.0
 45
0.0
 46
0.0
 47
0.0
 48
0.0
 49
0.0
140
0.0
141
0.0
142
1.0
143
1.0
 70
   688
 72
     0
 73
     0
 74
     5
  7

 75
    16
147
1.0
148
0.0
149
0.0
100
AcDbLayout
  1
Layout2
 70
     1
 71
     2
 10
0.0
 20
0.0
 11
0.0
 21
0.0
 12
0.0
 22
0.0
 32
0.0
 14
0.0
 24
0.0
 34
0.0
 15
0.0
 25
0.0
 35
0.0
146
0.0
 13
0.0
 23
0.0
 33
0.0
 16
1.0
 26
0.0
 36
0.0
 17
0.0
 27
1.0
 37
0.0
 76
     0
330
23
  0
LAYOUT
  5
22
102
{ACAD_REACTORS
330
1A
102
}
330
1A
100
AcDbPlotSettings
  1

  2

  4

  6

 40
0.0
 41
0.0
 42
0.0
 43
0.0
 44
0.0
 45
0.0
 46
0.0
 47
0.0
 48
0.0
 49
0.0
140
0.0
141
0.0
142
1.0
143
1.0
 70
  1712
 72
     0
 73
     0
 74
     0
  7

 75
     0
147
1.0
148
0.0
149
0.0
100
AcDbLayout
  1
Model
 70
     1
 71
     0
 10
0.0
 20
0.0
 11
0.0
 21
0.0
 12
0.0
 22
0.0
 32
0.0
 14
0.0
 24
0.0
 34
0.0
 15
17.0
 25
11.0
 35
0.0
146
0.0
 13
0.0
 23
0.0
 33
0.0
 16
1.0
 26
0.0
 36
0.0
 17
0.0
 27
1.0
 37
0.0
 76
     0
330
1F
  0
MLINESTYLE
  5
18
102
{ACAD_REACTORS
330
17
102
}
330
17
100
AcDbMlineStyle
  2
Standard
 70
     0
  3

 62
   256
 51
90.0
 52
90.0
 71
     2
 49
0.5
 62
   256
  6
BYLAYER
 49
-0.5
 62
   256
  6
BYLAYER
  0
ACDBPLACEHOLDER
  5
F
102
{ACAD_REACTORS
330
E
102
}
330
E
  0
ENDSEC
  0
EOF
