  0
SECTION
  2
HEADER
  9
$ACADVER
  1
AC1015
  9
$ACADMAINTVER
 70
     6
  9
$DWGCODEPAGE
  3
ANSI_1252
  9
$INSBASE
 10
0.0
 20
0.0
 30
0.0
  9
$EXTMIN
 10
1.000000E+20
 20
1.000000E+20
 30
1.000000E+20
  9
$EXTMAX
 10
-1.000000E+20
 20
-1.000000E+20
 30
-1.000000E+20
  9
$LIMMIN
 10
0.0
 20
0.0
  9
$LIMMAX
 10
420.0
 20
297.0
  9
$ORTHOMODE
 70
     0
  9
$REGENMODE
 70
     1
  9
$FILLMODE
 70
     1
  9
$QTEXTMODE
 70
     0
  9
$MIRRTEXT
 70
     1
  9
$LTSCALE
 40
1.0
  9
$ATTMODE
 70
     1
  9
$TEXTSIZE
 40
2.5
  9
$TRACEWID
 40
1.0
  9
$TEXTSTYLE
  7
Standard
  9
$CLAYER
  8
0
  9
$CELTYPE
  6
ByLayer
  9
$CECOLOR
 62
   256
  9
$CELTSCALE
 40
1.0
  9
$DISPSILH
 70
     0
  9
$DIMSCALE
 40
1.0
  9
$DIMASZ
 40
2.5
  9
$DIMEXO
 40
0.625
  9
$DIMDLI
 40
3.75
  9
$DIMRND
 40
0.0
  9
$DIMDLE
 40
0.0
  9
$DIMEXE
 40
1.25
  9
$DIMTP
 40
0.0
  9
$DIMTM
 40
0.0
  9
$DIMTXT
 40
2.5
  9
$DIMCEN
 40
2.5
  9
$DIMTSZ
 40
0.0
  9
$DIMTOL
 70
     0
  9
$DIMLIM
 70
     0
  9
$DIMTIH
 70
     0
  9
$DIMTOH
 70
     0
  9
$DIMSE1
 70
     0
  9
$DIMSE2
 70
     0
  9
$DIMTAD
 70
     1
  9
$DIMZIN
 70
     8
  9
$DIMBLK
  1

  9
$DIMASO
 70
     1
  9
$DIMSHO
 70
     1
  9
$DIMPOST
  1

  9
$DIMAPOST
  1

  9
$DIMALT
 70
     0
  9
$DIMALTD
 70
     3
  9
$DIMALTF
 40
0.03937
  9
$DIMLFAC
 40
1.0
  9
$DIMTOFL
 70
     1
  9
$DIMTVP
 40
0.0
  9
$DIMTIX
 70
     0
  9
$DIMSOXD
 70
     0
  9
$DIMSAH
 70
     0
  9
$DIMBLK1
  1

  9
$DIMBLK2
  1

  9
$DIMSTYLE
  2
ISO-25
  9
$DIMCLRD
 70
     0
  9
$DIMCLRE
 70
     0
  9
$DIMCLRT
 70
     0
  9
$DIMTFAC
 40
1.0
  9
$DIMGAP
 40
0.625
  9
$DIMJUST
 70
     0
  9
$DIMSD1
 70
     0
  9
$DIMSD2
 70
     0
  9
$DIMTOLJ
 70
     0
  9
$DIMTZIN
 70
     8
  9
$DIMALTZ
 70
     0
  9
$DIMALTTZ
 70
     0
  9
$DIMUPT
 70
     0
  9
$DIMDEC
 70
     2
  9
$DIMTDEC
 70
     2
  9
$DIMALTU
 70
     2
  9
$DIMALTTD
 70
     3
  9
$DIMTXSTY
  7
Standard
  9
$DIMAUNIT
 70
     0
  9
$DIMADEC
 70
     0
  9
$DIMALTRND
 40
0.0
  9
$DIMAZIN
 70
     0
  9
$DIMDSEP
 70
    44
  9
$DIMATFIT
 70
     3
  9
$DIMFRAC
 70
     0
  9
$DIMLDRBLK
  1

  9
$DIMLUNIT
 70
     2
  9
$DIMLWD
 70
    -2
  9
$DIMLWE
 70
    -2
  9
$DIMTMOVE
 70
     0
  9
$LUNITS
 70
     2
  9
$LUPREC
 70
     4
  9
$SKETCHINC
 40
1.0
  9
$FILLETRAD
 40
10.0
  9
$AUNITS
 70
     0
  9
$AUPREC
 70
     0
  9
$MENU
  1
.
  9
$ELEVATION
 40
0.0
  9
$PELEVATION
 40
0.0
  9
$THICKNESS
 40
0.0
  9
$LIMCHECK
 70
     0
  9
$CHAMFERA
 40
10.0
  9
$CHAMFERB
 40
10.0
  9
$CHAMFERC
 40
20.0
  9
$CHAMFERD
 40
0.0
  9
$SKPOLY
 70
     0
  9
$TDCREATE
 40
2455270.088168935
  9
$TDUCREATE
 40
2455269.546502268
  9
$TDUPDATE
 40
2455270.088168947
  9
$TDUUPDATE
 40
2455269.54650228
  9
$TDINDWG
 40
0.0000000116
  9
$TDUSRTIMER
 40
0.0000000116
  9
$USRTIMER
 70
     1
  9
$ANGBASE
 50
0.0
  9
$ANGDIR
 70
     0
  9
$PDMODE
 70
     3
  9
$PDSIZE
 40
-0.7
  9
$PLINEWID
 40
0.0
  9
$SPLFRAME
 70
     0
  9
$SPLINETYPE
 70
     6
  9
$SPLINESEGS
 70
     8
  9
$HANDSEED
  5
32
  9
$SURFTAB1
 70
     6
  9
$SURFTAB2
 70
     6
  9
$SURFTYPE
 70
     6
  9
$SURFU
 70
     6
  9
$SURFV
 70
     6
  9
$UCSBASE
  2

  9
$UCSNAME
  2

  9
$UCSORG
 10
0.0
 20
0.0
 30
0.0
  9
$UCSXDIR
 10
1.0
 20
0.0
 30
0.0
  9
$UCSYDIR
 10
0.0
 20
1.0
 30
0.0
  9
$UCSORTHOREF
  2

  9
$UCSORTHOVIEW
 70
     0
  9
$UCSORGTOP
 10
0.0
 20
0.0
 30
0.0
  9
$UCSORGBOTTOM
 10
0.0
 20
0.0
 30
0.0
  9
$UCSORGLEFT
 10
0.0
 20
0.0
 30
0.0
  9
$UCSORGRIGHT
 10
0.0
 20
0.0
 30
0.0
  9
$UCSORGFRONT
 10
0.0
 20
0.0
 30
0.0
  9
$UCSORGBACK
 10
0.0
 20
0.0
 30
0.0
  9
$PUCSBASE
  2

  9
$PUCSNAME
  2

  9
$PUCSORG
 10
0.0
 20
0.0
 30
0.0
  9
$PUCSXDIR
 10
1.0
 20
0.0
 30
0.0
  9
$PUCSYDIR
 10
0.0
 20
1.0
 30
0.0
  9
$PUCSORTHOREF
  2

  9
$PUCSORTHOVIEW
 70
     0
  9
$PUCSORGTOP
 10
0.0
 20
0.0
 30
0.0
  9
$PUCSORGBOTTOM
 10
0.0
 20
0.0
 30
0.0
  9
$PUCSORGLEFT
 10
0.0
 20
0.0
 30
0.0
  9
$PUCSORGRIGHT
 10
0.0
 20
0.0
 30
0.0
  9
$PUCSORGFRONT
 10
0.0
 20
0.0
 30
0.0
  9
$PUCSORGBACK
 10
0.0
 20
0.0
 30
0.0
  9
$USERI1
 70
     0
  9
$USERI2
 70
     0
  9
$USERI3
 70
     0
  9
$USERI4
 70
     0
  9
$USERI5
 70
     0
  9
$USERR1
 40
0.0
  9
$USERR2
 40
0.0
  9
$USERR3
 40
0.0
  9
$USERR4
 40
0.0
  9
$USERR5
 40
0.0
  9
$WORLDVIEW
 70
     1
  9
$SHADEDGE
 70
     3
  9
$SHADEDIF
 70
    70
  9
$TILEMODE
 70
     1
  9
$MAXACTVP
 70
    64
  9
$PINSBASE
 10
0.0
 20
0.0
 30
0.0
  9
$PLIMCHECK
 70
     0
  9
$PEXTMIN
 10
1.000000E+20
 20
1.000000E+20
 30
1.000000E+20
  9
$PEXTMAX
 10
-1.000000E+20
 20
-1.000000E+20
 30
-1.000000E+20
  9
$PLIMMIN
 10
0.0
 20
0.0
  9
$PLIMMAX
 10
420.0
 20
297.0
  9
$UNITMODE
 70
     0
  9
$VISRETAIN
 70
     1
  9
$PLINEGEN
 70
     0
  9
$PSLTSCALE
 70
     1
  9
$TREEDEPTH
 70
  3020
  9
$CMLSTYLE
  2
Standard
  9
$CMLJUST
 70
     1
  9
$CMLSCALE
 40
1.0
  9
$PROXYGRAPHICS
 70
     1
  9
$MEASUREMENT
 70
     1
  9
$CELWEIGHT
370
    -1
  9
$ENDCAPS
280
     0
  9
$JOINSTYLE
280
     0
  9
$LWDISPLAY
290
     0
  9
$INSUNITS
 70
     4
  9
$HYPERLINKBASE
  1

  9
$STYLESHEET
  1

  9
$XEDIT
290
     1
  9
$CEPSNTYPE
380
     0
  9
$PSTYLEMODE
290
     1
  9
$FINGERPRINTGUID
  2
{FAEB1C30-E019-11D5-929B-00C0DF256EC4}
  9
$VERSIONGUID
  2
{FAEB1C32-E019-11D5-929B-00C0DF256EC4}
  9
$EXTNAMES
290
     1
  9
$PSVPSCALE
 40
0.0
  9
$OLESTARTUP
290
     0
  0
ENDSEC
  0
SECTION
  2
CLASSES
  0
CLASS
  1
ACDBDICTIONARYWDFLT
  2
AcDbDictionaryWithDefault
  3
ObjectDBX Classes
 90
        0
280
     0
281
     0
  0
CLASS
  1
ACDBPLACEHOLDER
  2
AcDbPlaceHolder
  3
ObjectDBX Classes
 90
        0
280
     0
281
     0
  0
CLASS
  1
LAYOUT
  2
AcDbLayout
  3
ObjectDBX Classes
 90
        0
280
     0
281
     0
  0
ENDSEC
  0
SECTION
  2
TABLES
  0
TABLE
  2
VPORT
  5
8
330
0
100
AcDbSymbolTable
 70
     2
  0
VPORT
  5
29
330
8
100
AcDbSymbolTableRecord
100
AcDbViewportTableRecord
  2
*Active
 70
     0
 10
0.0
 20
0.0
 11
1.0
 21
1.0
 12
50.0
 22
50.0
 13
0.0
 23
0.0
 14
10.0
 24
10.0
 15
10.0
 25
10.0
 16
0.0
 26
0.0
 36
1.0
 17
0.0
 27
0.0
 37
0.0
 40
103.921569
 41
1.0
 42
50.0
 43
0.0
 44
0.0
 50
0.0
 51
0.0
 71
     0
 72
   100
 73
     1
 74
     3
 75
     0
 76
     0
 77
     0
 78
     0
281
     0
 65
     1
110
0.0
120
0.0
130
0.0
111
1.0
121
0.0
131
0.0
112
0.0
122
1.0
132
0.0
 79
     0
146
0.0
  0
ENDTAB
  0
TABLE
  2
LTYPE
  5
5
330
0
100
AcDbSymbolTable
 70
     1
  0
LTYPE
  5
14
330
5
100
AcDbSymbolTableRecord
100
AcDbLinetypeTableRecord
  2
ByBlock
 70
     0
  3

 72
    65
 73
     0
 40
0.0
  0
LTYPE
  5
15
330
5
100
AcDbSymbolTableRecord
100
AcDbLinetypeTableRecord
  2
ByLayer
 70
     0
  3

 72
    65
 73
     0
 40
0.0
  0
LTYPE
  5
16
330
5
100
AcDbSymbolTableRecord
100
AcDbLinetypeTableRecord
  2
Continuous
 70
     0
  3

 72
    65
 73
     0
 40
0.0
  0
ENDTAB
  0
TABLE
  2
LAYER
  5
2
330
0
100
AcDbSymbolTable
 70
     1
  0
LAYER
  5
10
330
2
100
AcDbSymbolTableRecord
100
AcDbLayerTableRecord
  2
0
 70
     0
 62
     7
  6
Continuous
370
    -3
390
F
  0
ENDTAB
  0
TABLE
  2
STYLE
  5
3
330
0
100
AcDbSymbolTable
 70
     1
  0
STYLE
  5
11
330
3
100
AcDbSymbolTableRecord
100
AcDbTextStyleTableRecord
  2
Standard
 70
     0
 40
1.0
 41
1.0
 50
0.0
 71
     0
 42
2.5
  3
RomanS
  4

  0
ENDTAB
  0
TABLE
  2
VIEW
  5
6
330
0
100
AcDbSymbolTable
 70
     0
  0
ENDTAB
  0
TABLE
  2
UCS
  5
7
330
0
100
AcDbSymbolTable
 70
     0
  0
ENDTAB
  0
TABLE
  2
APPID
  5
9
330
0
100
AcDbSymbolTable
 70
     1
  0
APPID
  5
12
330
9
100
AcDbSymbolTableRecord
100
AcDbRegAppTableRecord
  2
ACAD
 70
     0
  0
ENDTAB
  0
TABLE
  2
DIMSTYLE
  5
A
330
0
100
AcDbSymbolTable
 70
     1
100
AcDbDimStyleTable
  0
DIMSTYLE
105
27
330
A
100
AcDbSymbolTableRecord
100
AcDbDimStyleTableRecord
  2
ISO-25
 70
     0
 41
2.5
 42
0.625
 44
1.25
 73
     0
 74
     0
 77
     1
 78
     8
 79
     2
140
2.5
141
2.5
146
0.0
147
0.625
271
     2
272
     0
273
     0
274
     0
278
    44
283
     0
289
     0
340
11
  0
ENDTAB
  0
TABLE
  2
BLOCK_RECORD
  5
1
330
0
100
AcDbSymbolTable
 70
     1
  0
BLOCK_RECORD
  5
1F
330
1
100
AcDbSymbolTableRecord
100
AcDbBlockTableRecord
  2
*Model_Space
340
22
  0
BLOCK_RECORD
  5
1B
330
1
100
AcDbSymbolTableRecord
100
AcDbBlockTableRecord
  2
*Paper_Space
340
1E
  0
BLOCK_RECORD
  5
23
330
1
100
AcDbSymbolTableRecord
100
AcDbBlockTableRecord
  2
*Paper_Space0
340
26
  0
ENDTAB
  0
ENDSEC
  0
SECTION
  2
BLOCKS
  0
BLOCK
  5
20
330
1F
100
AcDbEntity
  8
0
100
AcDbBlockBegin
  2
*Model_Space
 70
     0
 71
     0
 10
0.0
 20
0.0
 30
0.0
  3
*Model_Space
  1

  0
ENDBLK
  5
21
330
1F
100
AcDbEntity
  8
0
100
AcDbBlockEnd
  0
BLOCK
  5
1C
330
1B
100
AcDbEntity
 67
     1
  8
0
100
AcDbBlockBegin
  2
*Paper_Space
 70
     0
 71
     0
 10
0.0
 20
0.0
 30
0.0
  3
*Paper_Space
  1

  0
ENDBLK
  5
1D
330
1B
100
AcDbEntity
 67
     1
  8
0
100
AcDbBlockEnd
  0
BLOCK
  5
24
330
23
100
AcDbEntity
  8
0
100
AcDbBlockBegin
  2
*Paper_Space0
 70
     0
 71
     0
 10
0.0
 20
0.0
 30
0.0
  3
*Paper_Space0
  1

  0
ENDBLK
  5
25
330
23
100
AcDbEntity
  8
0
100
AcDbBlockEnd
  0
ENDSEC
  0
SECTION
  2
ENTITIES
  0
LWPOLYLINE
  5
2A
330
1F
100
AcDbEntity
  8
0
100
AcDbPolyline
 90
      791
 70
   128
 43
0.0
 10
-2365.24367
 20
-199.115695
 10
-2365.24367
 20
-198.698932
 10
-2365.243652
 20
-198.633354
 10
-2365.243524
 20
-198.561893
 10
-2365.243177
 20
-198.48492
 10
-2365.242502
 20
-198.402804
 10
-2365.241388
 20
-198.315915
 10
-2365.239727
 20
-198.224621
 10
-2365.237408
 20
-198.129293
 10
-2365.234323
 20
-198.030299
 10
-2365.230362
 20
-197.92801
 10
-2365.225415
 20
-197.822794
 10
-2365.219372
 20
-197.715022
 10
-2365.212124
 20
-197.605062
 10
-2365.203563
 20
-197.493285
 10
-2365.193577
 20
-197.380059
 10
-2365.182058
 20
-197.265754
 10
-2365.168895
 20
-197.150739
 10
-2365.15398
 20
-197.035384
 10
-2365.137204
 20
-196.920059
 10
-2365.118455
 20
-196.805133
 10
-2365.097626
 20
-196.690975
 10
-2365.074513
 20
-196.577927
 10
-2365.048548
 20
-196.466215
 10
-2365.019069
 20
-196.356038
 10
-2364.985414
 20
-196.247596
 10
-2364.946921
 20
-196.141086
 10
-2364.902928
 20
-196.036709
 10
-2364.852773
 20
-195.934662
 10
-2364.795795
 20
-195.835144
 10
-2364.731332
 20
-195.738354
 10
-2364.658722
 20
-195.644492
 10
-2364.577303
 20
-195.553755
 10
-2364.486413
 20
-195.466342
 10
-2364.385391
 20
-195.382453
 10
-2364.273574
 20
-195.302286
 10
-2364.150302
 20
-195.22604
 10
-2364.014911
 20
-195.153913
 10
-2363.86674
 20
-195.086105
 10
-2363.705128
 20
-195.022814
 10
-2363.529413
 20
-194.96424
 10
-2363.338932
 20
-194.91058
 10
-2363.13341
 20
-194.861958
 10
-2362.914113
 20
-194.818193
 10
-2362.682693
 20
-194.779032
 10
-2362.440803
 20
-194.744216
 10
-2362.190095
 20
-194.713492
 10
-2361.932222
 20
-194.686603
 10
-2361.668834
 20
-194.663293
 10
-2361.401585
 20
-194.643307
 10
-2361.132127
 20
-194.62639
 10
-2360.862112
 20
-194.612285
 10
-2360.593193
 20
-194.600737
 10
-2360.327021
 20
-194.591489
 10
-2360.065248
 20
-194.584288
 10
-2359.809528
 20
-194.578876
 10
-2359.561512
 20
-194.574998
 10
-2359.322853
 20
-194.572399
 10
-2359.095203
 20
-194.570822
 10
-2358.880213
 20
-194.570012
 10
-2358.679537
 20
-194.569714
 10
-2357.32031
 20
-194.569671
 10
-2357.314433
 20
-194.569671
 10
-2357.273292
 20
-194.569671
 10
-2357.161623
 20
-194.569671
 10
-2356.944161
 20
-194.569671
 10
-2356.585644
 20
-194.569671
 10
-2356.050807
 20
-194.569671
 10
-2355.304386
 20
-194.569671
 10
-2354.311117
 20
-194.569671
 10
-2353.035736
 20
-194.569671
 10
-2351.44298
 20
-194.569671
 10
-2349.497583
 20
-194.569671
 10
-2347.164283
 20
-194.569671
 10
-2344.407815
 20
-194.569671
 10
-2341.192915
 20
-194.569671
 10
-2337.484319
 20
-194.569671
 10
-2333.246763
 20
-194.569671
 10
-2328.444984
 20
-194.569671
 10
-2323.043717
 20
-194.569671
 10
-2317.007698
 20
-194.569671
 10
-2310.301663
 20
-194.569671
 10
-2302.907981
 20
-194.569671
 10
-2294.879547
 20
-194.569671
 10
-2286.286889
 20
-194.569671
 10
-2277.200536
 20
-194.569671
 10
-2267.691015
 20
-194.569671
 10
-2257.828853
 20
-194.569671
 10
-2247.68458
 20
-194.569671
 10
-2237.328723
 20
-194.569671
 10
-2226.83181
 20
-194.569671
 10
-2216.264369
 20
-194.569671
 10
-2205.696928
 20
-194.569671
 10
-2195.200015
 20
-194.569671
 10
-2184.844158
 20
-194.569671
 10
-2174.699885
 20
-194.569671
 10
-2164.837724
 20
-194.569671
 10
-2155.328203
 20
-194.569671
 10
-2146.241849
 20
-194.569671
 10
-2137.649191
 20
-194.569671
 10
-2129.620757
 20
-194.569671
 10
-2122.227075
 20
-194.569671
 10
-2115.521041
 20
-194.569671
 10
-2109.485022
 20
-194.569671
 10
-2104.083755
 20
-194.569671
 10
-2099.281975
 20
-194.569671
 10
-2095.04442
 20
-194.569671
 10
-2091.335824
 20
-194.569671
 10
-2088.120924
 20
-194.569671
 10
-2085.364456
 20
-194.569671
 10
-2083.031156
 20
-194.569671
 10
-2081.085759
 20
-194.569671
 10
-2079.493002
 20
-194.569671
 10
-2078.217622
 20
-194.569671
 10
-2077.224353
 20
-194.569671
 10
-2076.477932
 20
-194.569671
 10
-2075.943094
 20
-194.569671
 10
-2075.584577
 20
-194.569671
 10
-2075.367116
 20
-194.569671
 10
-2075.255447
 20
-194.569671
 10
-2075.214305
 20
-194.569671
 10
-2075.208428
 20
-194.569671
 10
-2074.033913
 20
-194.569671
 10
-2073.849208
 20
-194.569714
 10
-2073.64857
 20
-194.570012
 10
-2073.433687
 20
-194.570822
 10
-2073.206244
 20
-194.572399
 10
-2072.967926
 20
-194.574998
 10
-2072.72042
 20
-194.578876
 10
-2072.465411
 20
-194.584288
 10
-2072.204586
 20
-194.591489
 10
-2071.939629
 20
-194.600737
 10
-2071.672228
 20
-194.612285
 10
-2071.404067
 20
-194.62639
 10
-2071.136832
 20
-194.643307
 10
-2070.87221
 20
-194.663293
 10
-2070.611887
 20
-194.686603
 10
-2070.357547
 20
-194.713492
 10
-2070.110878
 20
-194.744216
 10
-2069.873564
 20
-194.779032
 10
-2069.647292
 20
-194.818193
 10
-2069.433747
 20
-194.861958
 10
-2069.234616
 20
-194.91058
 10
-2069.051182
 20
-194.96424
 10
-2068.883117
 20
-195.022814
 10
-2068.729694
 20
-195.086105
 10
-2068.590183
 20
-195.153913
 10
-2068.463855
 20
-195.22604
 10
-2068.349981
 20
-195.302286
 10
-2068.247832
 20
-195.382453
 10
-2068.156679
 20
-195.466342
 10
-2068.075793
 20
-195.553755
 10
-2068.004445
 20
-195.644492
 10
-2067.941906
 20
-195.738354
 10
-2067.887447
 20
-195.835144
 10
-2067.840338
 20
-195.934662
 10
-2067.799851
 20
-196.036709
 10
-2067.765257
 20
-196.141086
 10
-2067.735826
 20
-196.247596
 10
-2067.710831
 20
-196.356038
 10
-2067.689541
 20
-196.466215
 10
-2067.671227
 20
-196.577927
 10
-2067.655161
 20
-196.690975
 10
-2067.640722
 20
-196.805133
 10
-2067.627726
 20
-196.920059
 10
-2067.616097
 20
-197.035384
 10
-2067.605758
 20
-197.150739
 10
-2067.596634
 20
-197.265754
 10
-2067.58865
 20
-197.380059
 10
-2067.581728
 20
-197.493285
 10
-2067.575793
 20
-197.605062
 10
-2067.570769
 20
-197.715022
 10
-2067.56658
 20
-197.822794
 10
-2067.563151
 20
-197.92801
 10
-2067.560405
 20
-198.030299
 10
-2067.558266
 20
-198.129293
 10
-2067.556659
 20
-198.224621
 10
-2067.555508
 20
-198.315915
 10
-2067.554736
 20
-198.402804
 10
-2067.554268
 20
-198.48492
 10
-2067.554027
 20
-198.561893
 10
-2067.553939
 20
-198.633354
 10
-2067.553926
 20
-199.115695
 10
-2067.553926
 20
-199.532415
 10
-2067.553945
 20
-199.597971
 10
-2067.554077
 20
-199.669311
 10
-2067.554436
 20
-199.745968
 10
-2067.555135
 20
-199.827474
 10
-2067.556287
 20
-199.913365
 10
-2067.558005
 20
-200.003171
 10
-2067.560404
 20
-200.096428
 10
-2067.563596
 20
-200.192667
 10
-2067.567694
 20
-200.291421
 10
-2067.572812
 20
-200.392225
 10
-2067.579063
 20
-200.494611
 10
-2067.586561
 20
-200.598112
 10
-2067.595418
 20
-200.702261
 10
-2067.605749
 20
-200.806592
 10
-2067.617666
 20
-200.910638
 10
-2067.631283
 20
-201.013931
 10
-2067.646713
 20
-201.116005
 10
-2067.664069
 20
-201.216393
 10
-2067.683465
 20
-201.314628
 10
-2067.705014
 20
-201.410243
 10
-2067.728913
 20
-201.502865
 10
-2067.755695
 20
-201.592494
 10
-2067.785977
 20
-201.679223
 10
-2067.820377
 20
-201.763147
 10
-2067.85951
 20
-201.844359
 10
-2067.903993
 20
-201.922952
 10
-2067.954445
 20
-201.99902
 10
-2068.01148
 20
-202.072657
 10
-2068.075717
 20
-202.143957
 10
-2068.147772
 20
-202.213012
 10
-2068.228262
 20
-202.279917
 10
-2068.317803
 20
-202.344766
 10
-2068.417014
 20
-202.407651
 10
-2068.52651
 20
-202.468667
 10
-2068.646908
 20
-202.527907
 10
-2068.778826
 20
-202.585464
 10
-2068.92288
 20
-202.641433
 10
-2069.079687
 20
-202.695908
 10
-2069.249863
 20
-202.74898
 10
-2069.434027
 20
-202.800745
 10
-2069.632429
 20
-202.851275
 10
-2069.843861
 20
-202.900553
 10
-2070.066749
 20
-202.948544
 10
-2070.29952
 20
-202.99521
 10
-2070.5406
 20
-203.040515
 10
-2070.788415
 20
-203.084422
 10
-2071.041392
 20
-203.126894
 10
-2071.297956
 20
-203.167894
 10
-2071.556535
 20
-203.207386
 10
-2071.815554
 20
-203.245333
 10
-2072.07344
 20
-203.281697
 10
-2072.328619
 20
-203.316443
 10
-2072.579518
 20
-203.349533
 10
-2072.824563
 20
-203.38093
 10
-2073.062179
 20
-203.410598
 10
-2073.290794
 20
-203.438501
 10
-2073.508834
 20
-203.4646
 10
-2073.714725
 20
-203.488859
 10
-2073.906893
 20
-203.511242
 10
-2075.208428
 20
-203.661718
 10
-2078.312773
 20
-204.020525
 10
-2078.802353
 20
-204.076979
 10
-2079.342371
 20
-204.138464
 10
-2079.936699
 20
-204.20463
 10
-2080.58921
 20
-204.275126
 10
-2081.303778
 20
-204.349602
 10
-2082.084273
 20
-204.427707
 10
-2082.93457
 20
-204.509089
 10
-2083.858541
 20
-204.5934
 10
-2084.860058
 20
-204.680287
 10
-2085.942995
 20
-204.769401
 10
-2087.111223
 20
-204.860391
 10
-2088.368616
 20
-204.952905
 10
-2089.719047
 20
-205.046594
 10
-2091.166387
 20
-205.141107
 10
-2092.714509
 20
-205.236092
 10
-2094.367287
 20
-205.331201
 10
-2096.128593
 20
-205.426081
 10
-2098.0023
 20
-205.520382
 10
-2099.992279
 20
-205.613753
 10
-2102.102405
 20
-205.705845
 10
-2104.333836
 20
-205.796364
 10
-2106.676885
 20
-205.885251
 10
-2109.119149
 20
-205.972505
 10
-2111.648226
 20
-206.058124
 10
-2114.251715
 20
-206.142107
 10
-2116.917214
 20
-206.224454
 10
-2119.632322
 20
-206.305162
 10
-2122.384636
 20
-206.38423
 10
-2125.161755
 20
-206.461657
 10
-2127.951277
 20
-206.537442
 10
-2130.740801
 20
-206.611584
 10
-2133.517925
 20
-206.684081
 10
-2136.270247
 20
-206.754931
 10
-2138.985365
 20
-206.824135
 10
-2141.650878
 20
-206.89169
 10
-2144.254384
 20
-206.957595
 10
-2146.783482
 20
-207.021849
 10
-2149.225769
 20
-207.084451
 10
-2151.568844
 20
-207.145399
 10
-2153.800305
 20
-207.204693
 10
-2155.910463
 20
-207.262326
 10
-2157.900478
 20
-207.318282
 10
-2159.774222
 20
-207.372537
 10
-2161.535568
 20
-207.42507
 10
-2163.188388
 20
-207.47586
 10
-2164.736554
 20
-207.524883
 10
-2166.183938
 20
-207.572119
 10
-2167.534414
 20
-207.617545
 10
-2168.791853
 20
-207.661139
 10
-2169.960128
 20
-207.702879
 10
-2171.043111
 20
-207.742743
 10
-2172.044675
 20
-207.78071
 10
-2172.968691
 20
-207.816758
 10
-2173.819033
 20
-207.850864
 10
-2174.599572
 20
-207.883006
 10
-2175.314181
 20
-207.913163
 10
-2175.966732
 20
-207.941312
 10
-2176.561098
 20
-207.967433
 10
-2177.101151
 20
-207.991502
 10
-2180.695315
 20
-208.153176
 10
-2183.573049
 20
-208.715321
 10
-2184.025546
 20
-208.804123
 10
-2184.516728
 20
-208.902941
 10
-2185.042114
 20
-209.013358
 10
-2185.597225
 20
-209.136959
 10
-2186.177579
 20
-209.275327
 10
-2186.778697
 20
-209.430046
 10
-2187.396096
 20
-209.6027
 10
-2188.025298
 20
-209.794872
 10
-2188.661821
 20
-210.008147
 10
-2189.301184
 20
-210.244107
 10
-2189.938907
 20
-210.504337
 10
-2190.570509
 20
-210.790421
 10
-2191.191511
 20
-211.103942
 10
-2191.79743
 20
-211.446484
 10
-2192.383787
 20
-211.81963
 10
-2192.946101
 20
-212.224965
 10
-2193.479891
 20
-212.664073
 10
-2193.980676
 20
-213.138536
 10
-2194.443977
 20
-213.649939
 10
-2194.865313
 20
-214.199865
 10
-2195.24172
 20
-214.788937
 10
-2195.576306
 20
-215.413923
 10
-2195.873697
 20
-216.070634
 10
-2196.138519
 20
-216.754876
 10
-2196.375397
 20
-217.462459
 10
-2196.588957
 20
-218.189189
 10
-2196.783825
 20
-218.930877
 10
-2196.964625
 20
-219.683329
 10
-2197.135983
 20
-220.442354
 10
-2197.302526
 20
-221.203761
 10
-2197.468879
 20
-221.963356
 10
-2197.639666
 20
-222.71695
 10
-2197.819514
 20
-223.460349
 10
-2198.013049
 20
-224.189362
 10
-2198.224896
 20
-224.899798
 10
-2198.45968
 20
-225.587464
 10
-2198.722028
 20
-226.248169
 10
-2199.016564
 20
-226.877721
 10
-2199.347914
 20
-227.471928
 10
-2199.720704
 20
-228.026598
 10
-2200.138048
 20
-228.538563
 10
-2200.597015
 20
-229.008746
 10
-2201.093162
 20
-229.439091
 10
-2201.622048
 20
-229.831546
 10
-2202.179228
 20
-230.188056
 10
-2202.760261
 20
-230.510567
 10
-2203.360705
 20
-230.801025
 10
-2203.976116
 20
-231.061375
 10
-2204.602052
 20
-231.293564
 10
-2205.234071
 20
-231.499538
 10
-2205.867729
 20
-231.681241
 10
-2206.498586
 20
-231.840621
 10
-2207.122197
 20
-231.979623
 10
-2207.734121
 20
-232.100192
 10
-2208.329914
 20
-232.204276
 10
-2208.905136
 20
-232.293819
 10
-2209.455341
 20
-232.370767
 10
-2209.97609
 20
-232.437067
 10
-2210.462938
 20
-232.494664
 10
-2213.763796
 20
-232.86624
 10
-2213.763796
 20
-232.865816
 10
-2213.763796
 20
-232.862848
 10
-2213.763796
 20
-232.854792
 10
-2213.763796
 20
-232.839103
 10
-2213.763796
 20
-232.813239
 10
-2213.763796
 20
-232.774654
 10
-2213.763796
 20
-232.720804
 10
-2213.763796
 20
-232.649146
 10
-2213.763796
 20
-232.557136
 10
-2213.763796
 20
-232.442229
 10
-2213.763796
 20
-232.301881
 10
-2213.763796
 20
-232.133548
 10
-2213.763796
 20
-231.934686
 10
-2213.763796
 20
-231.702752
 10
-2213.763796
 20
-231.435201
 10
-2213.763796
 20
-231.129488
 10
-2213.763796
 20
-230.783071
 10
-2213.763796
 20
-230.393404
 10
-2213.763796
 20
-229.957944
 10
-2213.763796
 20
-229.474146
 10
-2213.763796
 20
-228.94074
 10
-2213.763796
 20
-228.36154
 10
-2213.763796
 20
-227.741635
 10
-2213.763796
 20
-227.086112
 10
-2213.763796
 20
-226.400061
 10
-2213.763796
 20
-225.68857
 10
-2213.763796
 20
-224.956726
 10
-2213.763796
 20
-224.209617
 10
-2213.763796
 20
-223.452332
 10
-2213.763796
 20
-222.689959
 10
-2213.763796
 20
-221.927586
 10
-2213.763796
 20
-221.170301
 10
-2213.763796
 20
-220.423192
 10
-2213.763796
 20
-219.691348
 10
-2213.763796
 20
-218.979856
 10
-2213.763796
 20
-218.293805
 10
-2213.763796
 20
-217.638283
 10
-2213.763796
 20
-217.018378
 10
-2213.763796
 20
-216.439178
 10
-2213.763796
 20
-215.905771
 10
-2213.763796
 20
-215.421974
 10
-2213.763796
 20
-214.986514
 10
-2213.763796
 20
-214.596847
 10
-2213.763796
 20
-214.25043
 10
-2213.763796
 20
-213.944717
 10
-2213.763796
 20
-213.677166
 10
-2213.763796
 20
-213.445231
 10
-2213.763796
 20
-213.24637
 10
-2213.763796
 20
-213.078037
 10
-2213.763796
 20
-212.937689
 10
-2213.763796
 20
-212.822782
 10
-2213.763796
 20
-212.730772
 10
-2213.763796
 20
-212.659114
 10
-2213.763796
 20
-212.605264
 10
-2213.763796
 20
-212.566679
 10
-2213.763796
 20
-212.540814
 10
-2213.763796
 20
-212.525126
 10
-2213.763796
 20
-212.51707
 10
-2213.763796
 20
-212.514102
 10
-2213.763796
 20
-212.513678
 10
-2213.763796
 20
-212.296905
 10
-2213.763818
 20
-212.262795
 10
-2213.763973
 20
-212.225625
 10
-2213.764392
 20
-212.185585
 10
-2213.76521
 20
-212.142867
 10
-2213.766557
 20
-212.097663
 10
-2213.768567
 20
-212.050162
 10
-2213.771373
 20
-212.000556
 10
-2213.775106
 20
-211.949037
 10
-2213.779899
 20
-211.895795
 10
-2213.785886
 20
-211.841022
 10
-2213.793197
 20
-211.784909
 10
-2213.801967
 20
-211.727646
 10
-2213.812327
 20
-211.669426
 10
-2213.82441
 20
-211.610438
 10
-2213.838348
 20
-211.550875
 10
-2213.854275
 20
-211.490928
 10
-2213.872322
 20
-211.430787
 10
-2213.892623
 20
-211.370643
 10
-2213.915309
 20
-211.310688
 10
-2213.940513
 20
-211.251114
 10
-2213.968329
 20
-211.192096
 10
-2213.998692
 20
-211.133754
 10
-2214.0315
 20
-211.076195
 10
-2214.066649
 20
-211.019523
 10
-2214.104037
 20
-210.963844
 10
-2214.14356
 20
-210.909264
 10
-2214.185116
 20
-210.855887
 10
-2214.2286
 20
-210.80382
 10
-2214.273911
 20
-210.753168
 10
-2214.320945
 20
-210.704036
 10
-2214.369598
 20
-210.65653
 10
-2214.419769
 20
-210.610755
 10
-2214.471353
 20
-210.566816
 10
-2214.524248
 20
-210.52482
 10
-2214.57835
 20
-210.484872
 10
-2214.633557
 20
-210.447077
 10
-2214.689765
 20
-210.41154
 10
-2214.746871
 20
-210.378368
 10
-2214.804773
 20
-210.347665
 10
-2214.863367
 20
-210.319537
 10
-2214.922535
 20
-210.29405
 10
-2214.982101
 20
-210.271109
 10
-2215.041873
 20
-210.250581
 10
-2215.10166
 20
-210.232331
 10
-2215.16127
 20
-210.216226
 10
-2215.220512
 20
-210.202131
 10
-2215.279194
 20
-210.189912
 10
-2215.337125
 20
-210.179436
 10
-2215.394114
 20
-210.170568
 10
-2215.449969
 20
-210.163174
 10
-2215.504498
 20
-210.157121
 10
-2215.557511
 20
-210.152273
 10
-2215.608815
 20
-210.148498
 10
-2215.658219
 20
-210.145661
 10
-2215.705533
 20
-210.143629
 10
-2215.750564
 20
-210.142266
 10
-2215.793121
 20
-210.14144
 10
-2215.833012
 20
-210.141015
 10
-2215.870046
 20
-210.140859
 10
-2216.12002
 20
-210.140836
 10
-2216.336007
 20
-210.140836
 10
-2216.369993
 20
-210.140859
 10
-2216.407027
 20
-210.141014
 10
-2216.446919
 20
-210.141437
 10
-2216.489475
 20
-210.14226
 10
-2216.534506
 20
-210.143617
 10
-2216.58182
 20
-210.145641
 10
-2216.631224
 20
-210.148466
 10
-2216.682529
 20
-210.152226
 10
-2216.735541
 20
-210.157053
 10
-2216.790071
 20
-210.163081
 10
-2216.845925
 20
-210.170444
 10
-2216.902914
 20
-210.179275
 10
-2216.960845
 20
-210.189708
 10
-2217.019528
 20
-210.201876
 10
-2217.078769
 20
-210.215912
 10
-2217.138379
 20
-210.23195
 10
-2217.198166
 20
-210.250124
 10
-2217.257938
 20
-210.270567
 10
-2217.317504
 20
-210.293412
 10
-2217.376672
 20
-210.318793
 10
-2217.435266
 20
-210.346804
 10
-2217.493168
 20
-210.377381
 10
-2217.550274
 20
-210.410419
 10
-2217.606482
 20
-210.445815
 10
-2217.661689
 20
-210.483465
 10
-2217.715792
 20
-210.523266
 10
-2217.768686
 20
-210.565113
 10
-2217.82027
 20
-210.608903
 10
-2217.870441
 20
-210.654532
 10
-2217.919094
 20
-210.701897
 10
-2217.966128
 20
-210.750892
 10
-2218.011439
 20
-210.801415
 10
-2218.054923
 20
-210.853362
 10
-2218.096479
 20
-210.906629
 10
-2218.136002
 20
-210.961112
 10
-2218.17339
 20
-211.016708
 10
-2218.208539
 20
-211.073312
 10
-2218.241347
 20
-211.130821
 10
-2218.271711
 20
-211.18913
 10
-2218.299526
 20
-211.248137
 10
-2218.324731
 20
-211.307723
 10
-2218.347417
 20
-211.367709
 10
-2218.367717
 20
-211.427903
 10
-2218.385764
 20
-211.488112
 10
-2218.401691
 20
-211.548143
 10
-2218.415629
 20
-211.607804
 10
-2218.427712
 20
-211.666901
 10
-2218.438072
 20
-211.725241
 10
-2218.446842
 20
-211.782633
 10
-2218.454154
 20
-211.838883
 10
-2218.46014
 20
-211.893798
 10
-2218.464933
 20
-211.947186
 10
-2218.468666
 20
-211.998853
 10
-2218.471472
 20
-212.048607
 10
-2218.473482
 20
-212.096256
 10
-2218.474829
 20
-212.141606
 10
-2218.475647
 20
-212.184464
 10
-2218.476066
 20
-212.224637
 10
-2218.476221
 20
-212.261934
 10
-2218.476243
 20
-212.513678
 10
-2218.476243
 20
-212.514103
 10
-2218.476243
 20
-212.517081
 10
-2218.476243
 20
-212.525166
 10
-2218.476243
 20
-212.540909
 10
-2218.476243
 20
-212.566863
 10
-2218.476243
 20
-212.605582
 10
-2218.476243
 20
-212.659619
 10
-2218.476243
 20
-212.731526
 10
-2218.476243
 20
-212.823856
 10
-2218.476243
 20
-212.939162
 10
-2218.476243
 20
-213.079997
 10
-2218.476243
 20
-213.248914
 10
-2218.476243
 20
-213.448467
 10
-2218.476243
 20
-213.681207
 10
-2218.476243
 20
-213.949687
 10
-2218.476243
 20
-214.256461
 10
-2218.476243
 20
-214.604082
 10
-2218.476243
 20
-214.995102
 10
-2218.476243
 20
-215.432075
 10
-2218.476243
 20
-215.917552
 10
-2218.476243
 20
-216.452812
 10
-2218.476243
 20
-217.034023
 10
-2218.476243
 20
-217.656082
 10
-2218.476243
 20
-218.31388
 10
-2218.476243
 20
-219.002314
 10
-2218.476243
 20
-219.716277
 10
-2218.476243
 20
-220.450663
 10
-2218.476243
 20
-221.200366
 10
-2218.476243
 20
-221.960281
 10
-2218.476243
 20
-222.725302
 10
-2218.476243
 20
-223.490323
 10
-2218.476243
 20
-224.250238
 10
-2218.476243
 20
-224.999942
 10
-2218.476243
 20
-225.734328
 10
-2218.476243
 20
-226.44829
 10
-2218.476243
 20
-227.136724
 10
-2218.476243
 20
-227.794523
 10
-2218.476243
 20
-228.416581
 10
-2218.476243
 20
-228.997793
 10
-2218.476243
 20
-229.533052
 10
-2218.476243
 20
-230.01853
 10
-2218.476243
 20
-230.455502
 10
-2218.476243
 20
-230.846522
 10
-2218.476243
 20
-231.194143
 10
-2218.476243
 20
-231.500917
 10
-2218.476243
 20
-231.769398
 10
-2218.476243
 20
-232.002138
 10
-2218.476243
 20
-232.20169
 10
-2218.476243
 20
-232.370607
 10
-2218.476243
 20
-232.511443
 10
-2218.476243
 20
-232.626749
 10
-2218.476243
 20
-232.719079
 10
-2218.476243
 20
-232.790986
 10
-2218.476243
 20
-232.845022
 10
-2218.476243
 20
-232.883741
 10
-2218.476243
 20
-232.909696
 10
-2218.476243
 20
-232.925439
 10
-2218.476243
 20
-232.933523
 10
-2218.476243
 20
-232.936501
 10
-2218.476243
 20
-232.936927
 10
-2221.354349
 20
-232.679768
 10
-2221.80683
 20
-232.638865
 10
-2222.297551
 20
-232.591705
 10
-2222.821585
 20
-232.535887
 10
-2223.374001
 20
-232.469012
 10
-2223.949869
 20
-232.388678
 10
-2224.544259
 20
-232.292486
 10
-2225.152241
 20
-232.178036
 10
-2225.768886
 20
-232.042927
 10
-2226.389263
 20
-231.88476
 10
-2227.008444
 20
-231.701134
 10
-2227.621497
 20
-231.489649
 10
-2228.223493
 20
-231.247905
 10
-2228.809502
 20
-230.973502
 10
-2229.374595
 20
-230.664039
 10
-2229.913841
 20
-230.317117
 10
-2230.422311
 20
-229.930335
 10
-2230.895074
 20
-229.501293
 10
-2231.327201
 20
-229.027592
 10
-2231.713762
 20
-228.50683
 10
-2232.049827
 20
-227.936607
 10
-2232.332265
 20
-227.315802
 10
-2232.565138
 20
-226.648403
 10
-2232.75431
 20
-225.939675
 10
-2232.905642
 20
-225.194886
 10
-2233.024995
 20
-224.4193
 10
-2233.118231
 20
-223.618185
 10
-2233.191213
 20
-222.796807
 10
-2233.249802
 20
-221.960431
 10
-2233.299859
 20
-221.114324
 10
-2233.347248
 20
-220.263751
 10
-2233.39783
 20
-219.41398
 10
-2233.457465
 20
-218.570276
 10
-2233.532018
 20
-217.737906
 10
-2233.627348
 20
-216.922135
 10
-2233.749319
 20
-216.12823
 10
-2233.903791
 20
-215.361457
 10
-2234.096628
 20
-214.627082
 10
-2234.33369
 20
-213.930371
 10
-2234.620839
 20
-213.276591
 10
-2234.963938
 20
-212.671007
 10
-2235.366943
 20
-212.117582
 10
-2235.82619
 20
-211.615058
 10
-2236.336113
 20
-211.160877
 10
-2236.891141
 20
-210.752477
 10
-2237.485706
 20
-210.387299
 10
-2238.114241
 20
-210.062781
 10
-2238.771176
 20
-209.776364
 10
-2239.450944
 20
-209.525487
 10
-2240.147976
 20
-209.307589
 10
-2240.856703
 20
-209.120111
 10
-2241.571557
 20
-208.960492
 10
-2242.28697
 20
-208.826171
 10
-2242.997374
 20
-208.714589
 10
-2243.697199
 20
-208.623184
 10
-2244.380878
 20
-208.549397
 10
-2245.042842
 20
-208.490666
 10
-2245.677522
 20
-208.444433
 10
-2246.279351
 20
-208.408136
 10
-2246.842759
 20
-208.379214
 10
-2250.665977
 20
-208.204765
 10
-2253.835304
 20
-208.066781
 10
-2254.33511
 20
-208.045051
 10
-2254.886281
 20
-208.021269
 10
-2255.492639
 20
-207.995452
 10
-2256.158008
 20
-207.967616
 10
-2256.886213
 20
-207.93778
 10
-2257.681078
 20
-207.905959
 10
-2258.546425
 20
-207.872173
 10
-2259.48608
 20
-207.836437
 10
-2260.503867
 20
-207.798768
 10
-2261.603608
 20
-207.759185
 10
-2262.789128
 20
-207.717705
 10
-2264.064251
 20
-207.674343
 10
-2265.4328
 20
-207.629119
 10
-2266.898601
 20
-207.582048
 10
-2268.465476
 20
-207.533149
 10
-2270.137249
 20
-207.482438
 10
-2271.917745
 20
-207.429932
 10
-2273.810787
 20
-207.375649
 10
-2275.820199
 20
-207.319606
 10
-2277.949805
 20
-207.261821
 10
-2280.200725
 20
-207.202307
 10
-2282.563261
 20
-207.141069
 10
-2285.025011
 20
-207.078108
 10
-2287.573573
 20
-207.013425
 10
-2290.196546
 20
-206.947023
 10
-2292.881527
 20
-206.878903
 10
-2295.616115
 20
-206.809065
 10
-2298.387908
 20
-206.737511
 10
-2301.184504
 20
-206.664244
 10
-2303.9935
 20
-206.589263
 10
-2306.802496
 20
-206.512572
 10
-2309.599088
 20
-206.43417
 10
-2312.370877
 20
-206.35406
 10
-2315.105458
 20
-206.272243
 10
-2317.790431
 20
-206.18872
 10
-2320.413393
 20
-206.103493
 10
-2322.961944
 20
-206.016563
 10
-2325.42368
 20
-205.927931
 10
-2327.7862
 20
-205.8376
 10
-2330.037102
 20
-205.74557
 10
-2332.166689
 20
-205.651903
 10
-2334.17608
 20
-205.556898
 10
-2336.069099
 20
-205.460915
 10
-2337.849571
 20
-205.364313
 10
-2339.521319
 20
-205.267452
 10
-2341.088168
 20
-205.170692
 10
-2342.553942
 20
-205.074391
 10
-2343.922464
 20
-204.97891
 10
-2345.197559
 20
-204.884607
 10
-2346.383052
 20
-204.791842
 10
-2347.482765
 20
-204.700975
 10
-2348.500523
 20
-204.612366
 10
-2349.440151
 20
-204.526372
 10
-2350.305472
 20
-204.443355
 10
-2351.100311
 20
-204.363674
 10
-2351.82849
 20
-204.287688
 10
-2352.493836
 20
-204.215756
 10
-2353.100171
 20
-204.148238
 10
-2353.65132
 20
-204.085494
 10
-2357.32031
 20
-203.661718
 10
-2358.44489
 20
-203.531795
 10
-2358.621755
 20
-203.511338
 10
-2358.813949
 20
-203.488969
 10
-2359.019931
 20
-203.464724
 10
-2359.238163
 20
-203.438641
 10
-2359.467103
 20
-203.410755
 10
-2359.705213
 20
-203.381103
 10
-2359.950953
 20
-203.349722
 10
-2360.202781
 20
-203.316649
 10
-2360.45916
 20
-203.281919
 10
-2360.718548
 20
-203.24557
 10
-2360.979406
 20
-203.207639
 10
-2361.240194
 20
-203.168162
 10
-2361.499372
 20
-203.127175
 10
-2361.7554
 20
-203.084715
 10
-2362.006739
 20
-203.040819
 10
-2362.251848
 20
-202.995523
 10
-2362.489187
 20
-202.948864
 10
-2362.717218
 20
-202.900879
 10
-2362.934399
 20
-202.851604
 10
-2363.13919
 20
-202.801076
 10
-2363.330402
 20
-202.74931
 10
-2363.508233
 20
-202.696234
 10
-2363.673235
 20
-202.641754
 10
-2363.825955
 20
-202.585777
 10
-2363.966945
 20
-202.52821
 10
-2364.096753
 20
-202.468959
 10
-2364.215929
 20
-202.407932
 10
-2364.325022
 20
-202.345033
 10
-2364.424582
 20
-202.28017
 10
-2364.515158
 20
-202.21325
 10
-2364.597299
 20
-202.144179
 10
-2364.671556
 20
-202.072863
 10
-2364.738478
 20
-201.99921
 10
-2364.798613
 20
-201.923125
 10
-2364.852512
 20
-201.844515
 10
-2364.900724
 20
-201.763287
 10
-2364.943798
 20
-201.679348
 10
-2364.982284
 20
-201.592604
 10
-2365.016732
 20
-201.502961
 10
-2365.04769
 20
-201.410326
 10
-2365.075642
 20
-201.314698
 10
-2365.100801
 20
-201.216453
 10
-2365.123314
 20
-201.116055
 10
-2365.143328
 20
-201.013973
 10
-2365.160991
 20
-200.910672
 10
-2365.176449
 20
-200.806621
 10
-2365.189849
 20
-200.702284
 10
-2365.201338
 20
-200.59813
 10
-2365.211064
 20
-200.494625
 10
-2365.219173
 20
-200.392235
 10
-2365.225811
 20
-200.291429
 10
-2365.231127
 20
-200.192672
 10
-2365.235267
 20
-200.096431
 10
-2365.238379
 20
-200.003174
 10
-2365.240608
 20
-199.913366
 10
-2365.242102
 20
-199.827475
 10
-2365.243009
 20
-199.745968
 10
-2365.243474
 20
-199.669311
 10
-2365.243646
 20
-199.597971
 10
-2365.24367
 20
-199.115695
  0
LWPOLYLINE
  5
2B
330
1F
100
AcDbEntity
  8
0
100
AcDbPolyline
 90
      791
 70
   128
 43
0.0
 10
-2474.860208
 20
-270.411526
 10
-2474.86032
 20
-270.828294
 10
-2474.860356
 20
-270.893873
 10
-2474.860503
 20
-270.965335
 10
-2474.86087
 20
-271.042309
 10
-2474.861568
 20
-271.124426
 10
-2474.862704
 20
-271.211317
 10
-2474.86439
 20
-271.302611
 10
-2474.866734
 20
-271.39794
 10
-2474.869845
 20
-271.496934
 10
-2474.873834
 20
-271.599225
 10
-2474.878807
 20
-271.704441
 10
-2474.884878
 20
-271.812213
 10
-2474.892154
 20
-271.922173
 10
-2474.900744
 20
-272.033951
 10
-2474.910758
 20
-272.147176
 10
-2474.922306
 20
-272.261481
 10
-2474.935496
 20
-272.376494
 10
-2474.950438
 20
-272.491848
 10
-2474.967243
 20
-272.607171
 10
-2474.986019
 20
-272.722096
 10
-2475.006875
 20
-272.836251
 10
-2475.030013
 20
-272.949297
 10
-2475.056003
 20
-273.061005
 10
-2475.085506
 20
-273.171177
 10
-2475.119184
 20
-273.279615
 10
-2475.157701
 20
-273.386118
 10
-2475.201716
 20
-273.490488
 10
-2475.251891
 20
-273.592526
 10
-2475.30889
 20
-273.692034
 10
-2475.373373
 20
-273.788811
 10
-2475.446002
 20
-273.882659
 10
-2475.527439
 20
-273.973379
 10
-2475.618346
 20
-274.060773
 10
-2475.719385
 20
-274.144642
 10
-2475.831217
 20
-274.224785
 10
-2475.954506
 20
-274.301005
 10
-2476.089911
 20
-274.373103
 10
-2476.238095
 20
-274.440878
 10
-2476.39972
 20
-274.504133
 10
-2476.575448
 20
-274.562669
 10
-2476.76594
 20
-274.616286
 10
-2476.971472
 20
-274.664861
 10
-2477.19078
 20
-274.708576
 10
-2477.422208
 20
-274.747685
 10
-2477.664107
 20
-274.782445
 10
-2477.914822
 20
-274.813113
 10
-2478.172703
 20
-274.839942
 10
-2478.436098
 20
-274.863191
 10
-2478.703353
 20
-274.883115
 10
-2478.972817
 20
-274.89997
 10
-2479.242837
 20
-274.914013
 10
-2479.511762
 20
-274.925499
 10
-2479.777938
 20
-274.934685
 10
-2480.039714
 20
-274.941826
 10
-2480.295437
 20
-274.947178
 10
-2480.543456
 20
-274.950998
 10
-2480.782118
 20
-274.953542
 10
-2481.009772
 20
-274.955066
 10
-2481.224763
 20
-274.955826
 10
-2481.425442
 20
-274.956077
 10
-2482.784681
 20
-274.955803
 10
-2482.790352
 20
-274.955802
 10
-2482.830046
 20
-274.955792
 10
-2482.937789
 20
-274.955766
 10
-2483.147603
 20
-274.955716
 10
-2483.493512
 20
-274.955632
 10
-2484.009541
 20
-274.955507
 10
-2484.729713
 20
-274.955333
 10
-2485.688051
 20
-274.955102
 10
-2486.918581
 20
-274.954804
 10
-2488.455326
 20
-274.954433
 10
-2490.332308
 20
-274.953979
 10
-2492.583554
 20
-274.953435
 10
-2495.243086
 20
-274.952792
 10
-2498.344929
 20
-274.952042
 10
-2501.923105
 20
-274.951177
 10
-2506.011639
 20
-274.950189
 10
-2510.644556
 20
-274.949069
 10
-2515.855878
 20
-274.94781
 10
-2521.679628
 20
-274.946402
 10
-2528.149834
 20
-274.944839
 10
-2535.283504
 20
-274.943114
 10
-2543.029603
 20
-274.941241
 10
-2551.320084
 20
-274.939238
 10
-2560.0869
 20
-274.937119
 10
-2569.262003
 20
-274.934902
 10
-2578.777343
 20
-274.932602
 10
-2588.564875
 20
-274.930237
 10
-2598.55655
 20
-274.927821
 10
-2608.68432
 20
-274.925373
 10
-2618.880138
 20
-274.922909
 10
-2629.075955
 20
-274.920445
 10
-2639.203726
 20
-274.917997
 10
-2649.195401
 20
-274.915582
 10
-2658.982932
 20
-274.913217
 10
-2668.498273
 20
-274.910916
 10
-2677.673375
 20
-274.908699
 10
-2686.44019
 20
-274.906581
 10
-2694.730672
 20
-274.904577
 10
-2702.476772
 20
-274.902704
 10
-2709.610441
 20
-274.90098
 10
-2716.080646
 20
-274.899416
 10
-2721.904398
 20
-274.898009
 10
-2727.115719
 20
-274.896749
 10
-2731.748636
 20
-274.89563
 10
-2735.83717
 20
-274.894641
 10
-2739.415347
 20
-274.893777
 10
-2742.517189
 20
-274.893027
 10
-2745.176721
 20
-274.892384
 10
-2747.427967
 20
-274.89184
 10
-2749.30495
 20
-274.891386
 10
-2750.841694
 20
-274.891014
 10
-2752.072224
 20
-274.890717
 10
-2753.030563
 20
-274.890486
 10
-2753.750734
 20
-274.890312
 10
-2754.266763
 20
-274.890187
 10
-2754.612673
 20
-274.890103
 10
-2754.822486
 20
-274.890053
 10
-2754.930228
 20
-274.890026
 10
-2754.969923
 20
-274.890017
 10
-2754.975593
 20
-274.890015
 10
-2756.150121
 20
-274.889742
 10
-2756.334828
 20
-274.889656
 10
-2756.535467
 20
-274.889311
 10
-2756.750352
 20
-274.888451
 10
-2756.977796
 20
-274.886821
 10
-2757.216116
 20
-274.884166
 10
-2757.463623
 20
-274.880229
 10
-2757.718632
 20
-274.874756
 10
-2757.979457
 20
-274.867492
 10
-2758.244413
 20
-274.858181
 10
-2758.511813
 20
-274.846568
 10
-2758.77997
 20
-274.832397
 10
-2759.047201
 20
-274.815413
 10
-2759.311818
 20
-274.795361
 10
-2759.572135
 20
-274.771986
 10
-2759.826466
 20
-274.74503
 10
-2760.073126
 20
-274.714241
 10
-2760.310429
 20
-274.679362
 10
-2760.536687
 20
-274.640138
 10
-2760.750218
 20
-274.596313
 10
-2760.949332
 20
-274.547633
 10
-2761.132747
 20
-274.493918
 10
-2761.300789
 20
-274.435289
 10
-2761.45419
 20
-274.371948
 10
-2761.593677
 20
-274.304091
 10
-2761.719979
 20
-274.231919
 10
-2761.833825
 20
-274.155629
 10
-2761.935946
 20
-274.07542
 10
-2762.02707
 20
-273.991493
 10
-2762.107926
 20
-273.904044
 10
-2762.179244
 20
-273.813272
 10
-2762.241753
 20
-273.719378
 10
-2762.296182
 20
-273.622558
 10
-2762.34326
 20
-273.523013
 10
-2762.383717
 20
-273.42094
 10
-2762.418281
 20
-273.316539
 10
-2762.447683
 20
-273.210008
 10
-2762.47265
 20
-273.101546
 10
-2762.493913
 20
-272.991353
 10
-2762.512202
 20
-272.879626
 10
-2762.528243
 20
-272.766564
 10
-2762.542658
 20
-272.652395
 10
-2762.555633
 20
-272.537459
 10
-2762.567243
 20
-272.422127
 10
-2762.577562
 20
-272.306766
 10
-2762.586669
 20
-272.191747
 10
-2762.594639
 20
-272.077439
 10
-2762.601547
 20
-271.964211
 10
-2762.607468
 20
-271.852432
 10
-2762.612479
 20
-271.742473
 10
-2762.616657
 20
-271.634702
 10
-2762.620076
 20
-271.529488
 10
-2762.622813
 20
-271.427202
 10
-2762.624944
 20
-271.328211
 10
-2762.626543
 20
-271.232887
 10
-2762.627688
 20
-271.141598
 10
-2762.628453
 20
-271.054712
 10
-2762.628916
 20
-270.9726
 10
-2762.629152
 20
-270.895631
 10
-2762.629236
 20
-270.824175
 10
-2762.62922
 20
-270.341864
 10
-2762.629077
 20
-269.925183
 10
-2762.629036
 20
-269.859634
 10
-2762.628878
 20
-269.7883
 10
-2762.628493
 20
-269.711651
 10
-2762.627765
 20
-269.63015
 10
-2762.626581
 20
-269.544266
 10
-2762.62483
 20
-269.454466
 10
-2762.622395
 20
-269.361215
 10
-2762.619165
 20
-269.264981
 10
-2762.615026
 20
-269.166229
 10
-2762.609864
 20
-269.065427
 10
-2762.603568
 20
-268.963043
 10
-2762.596022
 20
-268.85954
 10
-2762.587114
 20
-268.755388
 10
-2762.57673
 20
-268.651051
 10
-2762.564758
 20
-268.546998
 10
-2762.551083
 20
-268.443695
 10
-2762.535592
 20
-268.341608
 10
-2762.518173
 20
-268.241203
 10
-2762.49871
 20
-268.142949
 10
-2762.477093
 20
-268.047311
 10
-2762.453123
 20
-267.954662
 10
-2762.426266
 20
-267.865004
 10
-2762.395909
 20
-267.778242
 10
-2762.361433
 20
-267.694285
 10
-2762.322224
 20
-267.61304
 10
-2762.277664
 20
-267.534412
 10
-2762.227137
 20
-267.45831
 10
-2762.170027
 20
-267.384641
 10
-2762.105717
 20
-267.313311
 10
-2762.033592
 20
-267.244227
 10
-2761.953035
 20
-267.177298
 10
-2761.863431
 20
-267.112429
 10
-2761.764161
 20
-267.049528
 10
-2761.65461
 20
-266.988503
 10
-2761.534162
 20
-266.929259
 10
-2761.402202
 20
-266.871703
 10
-2761.258111
 20
-266.815744
 10
-2761.101274
 20
-266.76129
 10
-2760.931075
 20
-266.708244
 10
-2760.746897
 20
-266.656517
 10
-2760.54849
 20
-266.606035
 10
-2760.33706
 20
-266.556813
 10
-2760.114181
 20
-266.508888
 10
-2759.881427
 20
-266.462296
 10
-2759.640371
 20
-266.41707
 10
-2759.392585
 20
-266.37325
 10
-2759.139641
 20
-266.330869
 10
-2758.883115
 20
-266.289965
 10
-2758.624578
 20
-266.250572
 10
-2758.365604
 20
-266.212726
 10
-2758.107765
 20
-266.176465
 10
-2757.852634
 20
-266.141822
 10
-2757.601786
 20
-266.108835
 10
-2757.356792
 20
-266.07754
 10
-2757.119226
 20
-266.047971
 10
-2756.890661
 20
-266.020167
 10
-2756.67267
 20
-265.994161
 10
-2756.466825
 20
-265.96999
 10
-2756.2747
 20
-265.94769
 10
-2754.973466
 20
-265.79778
 10
-2751.869136
 20
-265.439942
 10
-2751.379662
 20
-265.383641
 10
-2750.84037
 20
-265.322324
 10
-2750.248007
 20
-265.25634
 10
-2749.599322
 20
-265.186043
 10
-2748.891059
 20
-265.111781
 10
-2748.119968
 20
-265.033906
 10
-2747.282796
 20
-264.95277
 10
-2746.37629
 20
-264.868722
 10
-2745.397195
 20
-264.782114
 10
-2744.342262
 20
-264.693296
 10
-2743.208234
 20
-264.60262
 10
-2741.991862
 20
-264.510437
 10
-2740.689891
 20
-264.417097
 10
-2739.299069
 20
-264.322952
 10
-2737.816143
 20
-264.228352
 10
-2736.23786
 20
-264.133648
 10
-2734.560968
 20
-264.039192
 10
-2732.782214
 20
-263.945334
 10
-2730.898344
 20
-263.852424
 10
-2728.906106
 20
-263.760814
 10
-2726.804651
 20
-263.670797
 10
-2724.602736
 20
-263.58243
 10
-2722.311525
 20
-263.495712
 10
-2719.942179
 20
-263.410641
 10
-2717.505859
 20
-263.327219
 10
-2715.013728
 20
-263.245442
 10
-2712.476948
 20
-263.165311
 10
-2709.906681
 20
-263.086824
 10
-2707.314088
 20
-263.009981
 10
-2704.71033
 20
-262.934781
 10
-2702.106571
 20
-262.861222
 10
-2699.513973
 20
-262.789304
 10
-2696.943696
 20
-262.719027
 10
-2694.406903
 20
-262.650388
 10
-2691.914755
 20
-262.583387
 10
-2689.478416
 20
-262.518024
 10
-2687.109045
 20
-262.454296
 10
-2684.817806
 20
-262.392205
 10
-2682.61586
 20
-262.331747
 10
-2680.514369
 20
-262.272924
 10
-2678.522093
 20
-262.215737
 10
-2676.638182
 20
-262.160205
 10
-2674.859381
 20
-262.106352
 10
-2673.182441
 20
-262.054198
 10
-2671.604109
 20
-262.003767
 10
-2670.121131
 20
-261.955083
 10
-2668.730256
 20
-261.908165
 10
-2667.428231
 20
-261.863039
 10
-2666.211803
 20
-261.819726
 10
-2665.077721
 20
-261.778248
 10
-2664.022731
 20
-261.738629
 10
-2663.043582
 20
-261.700891
 10
-2662.137021
 20
-261.665057
 10
-2661.299795
 20
-261.631148
 10
-2660.528653
 20
-261.599189
 10
-2659.820341
 20
-261.5692
 10
-2659.171607
 20
-261.541205
 10
-2658.5792
 20
-261.515226
 10
-2658.039866
 20
-261.491287
 10
-2654.445776
 20
-261.330474
 10
-2651.567959
 20
-260.76905
 10
-2651.11545
 20
-260.680362
 10
-2650.624254
 20
-260.581667
 10
-2650.098849
 20
-260.471382
 10
-2649.543719
 20
-260.34792
 10
-2648.963342
 20
-260.209697
 10
-2648.362198
 20
-260.055129
 10
-2647.744767
 20
-259.882629
 10
-2647.11553
 20
-259.690615
 10
-2646.478966
 20
-259.4775
 10
-2645.839557
 20
-259.2417
 10
-2645.201781
 20
-258.981629
 10
-2644.57012
 20
-258.695704
 10
-2643.949053
 20
-258.382338
 10
-2643.343058
 20
-258.039948
 10
-2642.75662
 20
-257.666948
 10
-2642.194215
 20
-257.261754
 10
-2641.660326
 20
-256.822779
 10
-2641.159431
 20
-256.348441
 10
-2640.696011
 20
-255.837154
 10
-2640.274545
 20
-255.287332
 10
-2639.897998
 20
-254.698354
 10
-2639.56326
 20
-254.073451
 10
-2639.265709
 20
-253.416814
 10
-2639.000719
 20
-252.732637
 10
-2638.763668
 20
-252.025113
 10
-2638.549927
 20
-251.298434
 10
-2638.354876
 20
-250.556795
 10
-2638.173888
 20
-249.804387
 10
-2638.00234
 20
-249.045403
 10
-2637.835606
 20
-248.284038
 10
-2637.669063
 20
-247.524482
 10
-2637.498085
 20
-246.770931
 10
-2637.318049
 20
-246.027575
 10
-2637.12433
 20
-245.298608
 10
-2636.912303
 20
-244.588225
 10
-2636.677344
 20
-243.900617
 10
-2636.414828
 20
-243.239975
 10
-2636.120132
 20
-242.610496
 10
-2635.78863
 20
-242.016371
 10
-2635.415698
 20
-241.461793
 10
-2634.998222
 20
-240.949931
 10
-2634.539134
 20
-240.479862
 10
-2634.042876
 20
-240.04964
 10
-2633.51389
 20
-239.657316
 10
-2632.956618
 20
-239.300945
 10
-2632.375501
 20
-238.978578
 10
-2631.774982
 20
-238.688269
 10
-2631.159503
 20
-238.428072
 10
-2630.533506
 20
-238.196039
 10
-2629.901433
 20
-237.990223
 10
-2629.267727
 20
-237.808677
 10
-2628.636828
 20
-237.649455
 10
-2628.01318
 20
-237.510607
 10
-2627.401223
 20
-237.39019
 10
-2626.805402
 20
-237.286256
 10
-2626.230156
 20
-237.196856
 10
-2625.679929
 20
-237.120044
 10
-2625.159162
 20
-237.053874
 10
-2624.672299
 20
-236.996398
 10
-2621.371336
 20
-236.625645
 10
-2621.371337
 20
-236.626069
 10
-2621.371337
 20
-236.629037
 10
-2621.371338
 20
-236.637093
 10
-2621.371343
 20
-236.652781
 10
-2621.37135
 20
-236.678646
 10
-2621.371359
 20
-236.71723
 10
-2621.371372
 20
-236.77108
 10
-2621.371389
 20
-236.842737
 10
-2621.371412
 20
-236.934746
 10
-2621.371441
 20
-237.049652
 10
-2621.371475
 20
-237.189998
 10
-2621.371517
 20
-237.358329
 10
-2621.371566
 20
-237.557188
 10
-2621.371623
 20
-237.78912
 10
-2621.37169
 20
-238.056669
 10
-2621.371765
 20
-238.362377
 10
-2621.371851
 20
-238.708792
 10
-2621.371947
 20
-239.098453
 10
-2621.372054
 20
-239.533909
 10
-2621.372174
 20
-240.017701
 10
-2621.372305
 20
-240.551102
 10
-2621.372448
 20
-241.130295
 10
-2621.372601
 20
-241.750193
 10
-2621.372763
 20
-242.405709
 10
-2621.372933
 20
-243.091752
 10
-2621.373108
 20
-243.803235
 10
-2621.373289
 20
-244.535071
 10
-2621.373474
 20
-245.282172
 10
-2621.373661
 20
-246.039449
 10
-2621.373849
 20
-246.801813
 10
-2621.374037
 20
-247.564177
 10
-2621.374224
 20
-248.321454
 10
-2621.374409
 20
-249.068554
 10
-2621.37459
 20
-249.800391
 10
-2621.374766
 20
-250.511874
 10
-2621.374935
 20
-251.197918
 10
-2621.375097
 20
-251.853433
 10
-2621.37525
 20
-252.47333
 10
-2621.375393
 20
-253.052524
 10
-2621.375524
 20
-253.585925
 10
-2621.375644
 20
-254.069717
 10
-2621.375752
 20
-254.505172
 10
-2621.375848
 20
-254.894834
 10
-2621.375934
 20
-255.241248
 10
-2621.376009
 20
-255.546957
 10
-2621.376075
 20
-255.814506
 10
-2621.376132
 20
-256.046437
 10
-2621.376182
 20
-256.245297
 10
-2621.376223
 20
-256.413628
 10
-2621.376257
 20
-256.553974
 10
-2621.376286
 20
-256.66888
 10
-2621.376309
 20
-256.760889
 10
-2621.376326
 20
-256.832547
 10
-2621.376339
 20
-256.886395
 10
-2621.37635
 20
-256.92498
 10
-2621.376356
 20
-256.950844
 10
-2621.37636
 20
-256.966533
 10
-2621.376362
 20
-256.974589
 10
-2621.376363
 20
-256.977557
 10
-2621.376362
 20
-256.977981
 10
-2621.376417
 20
-257.194755
 10
-2621.376403
 20
-257.228864
 10
-2621.376257
 20
-257.266036
 10
-2621.375847
 20
-257.306076
 10
-2621.375041
 20
-257.348794
 10
-2621.373704
 20
-257.393999
 10
-2621.371706
 20
-257.441501
 10
-2621.368913
 20
-257.491107
 10
-2621.365194
 20
-257.542628
 10
-2621.360413
 20
-257.595871
 10
-2621.354441
 20
-257.650646
 10
-2621.347142
 20
-257.706762
 10
-2621.338388
 20
-257.764027
 10
-2621.328042
 20
-257.82225
 10
-2621.315975
 20
-257.88124
 10
-2621.302051
 20
-257.940808
 10
-2621.28614
 20
-258.000759
 10
-2621.268108
 20
-258.060905
 10
-2621.247823
 20
-258.121053
 10
-2621.225153
 20
-258.181013
 10
-2621.199964
 20
-258.240594
 10
-2621.172163
 20
-258.299619
 10
-2621.141815
 20
-258.357968
 10
-2621.109022
 20
-258.415535
 10
-2621.073888
 20
-258.472215
 10
-2621.036515
 20
-258.527903
 10
-2620.997005
 20
-258.582492
 10
-2620.955463
 20
-258.635878
 10
-2620.911993
 20
-258.687954
 10
-2620.866695
 20
-258.738616
 10
-2620.819673
 20
-258.787758
 10
-2620.771031
 20
-258.835273
 10
-2620.720872
 20
-258.881058
 10
-2620.669298
 20
-258.925006
 10
-2620.616413
 20
-258.967012
 10
-2620.562319
 20
-259.00697
 10
-2620.507121
 20
-259.044774
 10
-2620.450919
 20
-259.080319
 10
-2620.393819
 20
-259.113501
 10
-2620.335922
 20
-259.144211
 10
-2620.277333
 20
-259.172347
 10
-2620.218167
 20
-259.197841
 10
-2620.158603
 20
-259.220789
 10
-2620.098832
 20
-259.241324
 10
-2620.039045
 20
-259.25958
 10
-2619.979434
 20
-259.275691
 10
-2619.920191
 20
-259.289791
 10
-2619.861506
 20
-259.302014
 10
-2619.803572
 20
-259.312495
 10
-2619.74658
 20
-259.321367
 10
-2619.690721
 20
-259.328764
 10
-2619.636188
 20
-259.334821
 10
-2619.583171
 20
-259.339671
 10
-2619.531862
 20
-259.34345
 10
-2619.482452
 20
-259.346289
 10
-2619.435134
 20
-259.348324
 10
-2619.390098
 20
-259.349688
 10
-2619.347536
 20
-259.350517
 10
-2619.30764
 20
-259.350943
 10
-2619.270601
 20
-259.351101
 10
-2619.020598
 20
-259.351134
 10
-2618.804641
 20
-259.351261
 10
-2618.770659
 20
-259.351258
 10
-2618.73363
 20
-259.351124
 10
-2618.693745
 20
-259.350725
 10
-2618.651194
 20
-259.349926
 10
-2618.606168
 20
-259.348594
 10
-2618.55886
 20
-259.346597
 10
-2618.509461
 20
-259.3438
 10
-2618.458163
 20
-259.340068
 10
-2618.405156
 20
-259.33527
 10
-2618.350632
 20
-259.32927
 10
-2618.294782
 20
-259.321937
 10
-2618.237798
 20
-259.313134
 10
-2618.179871
 20
-259.30273
 10
-2618.121192
 20
-259.290589
 10
-2618.061953
 20
-259.276581
 10
-2618.002345
 20
-259.260569
 10
-2617.94256
 20
-259.24242
 10
-2617.882788
 20
-259.222002
 10
-2617.823221
 20
-259.199179
 10
-2617.764052
 20
-259.173819
 10
-2617.705455
 20
-259.145828
 10
-2617.64755
 20
-259.115269
 10
-2617.590439
 20
-259.082247
 10
-2617.534225
 20
-259.046866
 10
-2617.479011
 20
-259.009229
 10
-2617.424902
 20
-258.96944
 10
-2617.371999
 20
-258.927604
 10
-2617.320406
 20
-258.883824
 10
-2617.270226
 20
-258.838204
 10
-2617.221562
 20
-258.790849
 10
-2617.174518
 20
-258.741861
 10
-2617.129197
 20
-258.691345
 10
-2617.0857
 20
-258.639405
 10
-2617.044133
 20
-258.586145
 10
-2617.004597
 20
-258.531668
 10
-2616.967197
 20
-258.47608
 10
-2616.932035
 20
-258.419481
 10
-2616.899214
 20
-258.361979
 10
-2616.868838
 20
-258.303676
 10
-2616.841009
 20
-258.244677
 10
-2616.815792
 20
-258.185098
 10
-2616.793093
 20
-258.125121
 10
-2616.77278
 20
-258.064935
 10
-2616.754721
 20
-258.004735
 10
-2616.738781
 20
-257.944713
 10
-2616.724831
 20
-257.885062
 10
-2616.712736
 20
-257.825974
 10
-2616.702364
 20
-257.767643
 10
-2616.693584
 20
-257.710261
 10
-2616.68626
 20
-257.65402
 10
-2616.680264
 20
-257.599115
 10
-2616.67546
 20
-257.545737
 10
-2616.671717
 20
-257.494078
 10
-2616.668901
 20
-257.444333
 10
-2616.666882
 20
-257.396693
 10
-2616.665526
 20
-257.351352
 10
-2616.664701
 20
-257.308502
 10
-2616.664273
 20
-257.268335
 10
-2616.664112
 20
-257.231046
 10
-2616.664042
 20
-256.97935
 10
-2616.664041
 20
-256.978924
 10
-2616.66404
 20
-256.975946
 10
-2616.664038
 20
-256.967862
 10
-2616.664035
 20
-256.952119
 10
-2616.664028
 20
-256.926164
 10
-2616.664019
 20
-256.887445
 10
-2616.664005
 20
-256.833408
 10
-2616.663988
 20
-256.761501
 10
-2616.663965
 20
-256.66917
 10
-2616.663938
 20
-256.553863
 10
-2616.663903
 20
-256.413027
 10
-2616.663861
 20
-256.244108
 10
-2616.663813
 20
-256.044555
 10
-2616.663755
 20
-255.811814
 10
-2616.66369
 20
-255.543332
 10
-2616.663615
 20
-255.236555
 10
-2616.663529
 20
-254.888932
 10
-2616.663434
 20
-254.49791
 10
-2616.663327
 20
-254.060935
 10
-2616.663208
 20
-253.575454
 10
-2616.663077
 20
-253.040192
 10
-2616.662935
 20
-252.458976
 10
-2616.662783
 20
-251.836915
 10
-2616.662622
 20
-251.179112
 10
-2616.662454
 20
-250.490674
 10
-2616.662279
 20
-249.776707
 10
-2616.662099
 20
-249.042316
 10
-2616.661915
 20
-248.292608
 10
-2616.66173
 20
-247.532688
 10
-2616.661542
 20
-246.767663
 10
-2616.661355
 20
-246.002637
 10
-2616.661169
 20
-245.242718
 10
-2616.660986
 20
-244.493009
 10
-2616.660806
 20
-243.758618
 10
-2616.660632
 20
-243.044651
 10
-2616.660463
 20
-242.356214
 10
-2616.660302
 20
-241.698411
 10
-2616.66015
 20
-241.076349
 10
-2616.660008
 20
-240.495134
 10
-2616.659876
 20
-239.959871
 10
-2616.659758
 20
-239.474391
 10
-2616.659651
 20
-239.037415
 10
-2616.659555
 20
-238.646393
 10
-2616.65947
 20
-238.29877
 10
-2616.659395
 20
-237.991994
 10
-2616.659329
 20
-237.723512
 10
-2616.659272
 20
-237.49077
 10
-2616.659224
 20
-237.291217
 10
-2616.659182
 20
-237.122299
 10
-2616.659148
 20
-236.981462
 10
-2616.659119
 20
-236.866155
 10
-2616.659097
 20
-236.773824
 10
-2616.659079
 20
-236.701918
 10
-2616.659066
 20
-236.64788
 10
-2616.659057
 20
-236.609161
 10
-2616.659051
 20
-236.583206
 10
-2616.659047
 20
-236.567463
 10
-2616.659045
 20
-236.559379
 10
-2616.659043
 20
-236.556401
 10
-2616.659044
 20
-236.555975
 10
-2613.781001
 20
-236.813871
 10
-2613.32853
 20
-236.854889
 10
-2612.837821
 20
-236.902175
 10
-2612.313801
 20
-236.958127
 10
-2611.761402
 20
-237.025144
 10
-2611.185554
 20
-237.105624
 10
-2610.591188
 20
-237.201968
 10
-2609.983234
 20
-237.316573
 10
-2609.366624
 20
-237.451838
 10
-2608.746286
 20
-237.610163
 10
-2608.127151
 20
-237.793946
 10
-2607.514151
 20
-238.005585
 10
-2606.912215
 20
-238.247481
 10
-2606.326275
 20
-238.52203
 10
-2605.76126
 20
-238.831634
 10
-2605.222101
 20
-239.17869
 10
-2604.713729
 20
-239.565597
 10
-2604.241074
 20
-239.994754
 10
-2603.809065
 20
-240.46856
 10
-2603.422635
 20
-240.989414
 10
-2603.086714
 20
-241.559714
 10
-2602.804432
 20
-242.180583
 10
-2602.571726
 20
-242.848031
 10
-2602.382732
 20
-243.556797
 10
-2602.231588
 20
-244.301615
 10
-2602.112429
 20
-245.077219
 10
-2602.019393
 20
-245.878346
 10
-2601.946618
 20
-246.699731
 10
-2601.888238
 20
-247.53611
 10
-2601.838391
 20
-248.382216
 10
-2601.791214
 20
-249.232787
 10
-2601.740844
 20
-250.082558
 10
-2601.681417
 20
-250.926263
 10
-2601.607071
 20
-251.758639
 10
-2601.51194
 20
-252.574421
 10
-2601.390165
 20
-253.368344
 10
-2601.235879
 20
-254.135144
 10
-2601.043221
 20
-254.869556
 10
-2600.806327
 20
-255.566315
 10
-2600.519334
 20
-256.220157
 10
-2600.176378
 20
-256.825817
 10
-2599.773502
 20
-257.379335
 10
-2599.31437
 20
-257.881966
 10
-2598.80455
 20
-258.336269
 10
-2598.249611
 20
-258.744801
 10
-2597.655125
 20
-259.110123
 10
-2597.026657
 20
-259.434794
 10
-2596.36978
 20
-259.721372
 10
-2595.690061
 20
-259.972416
 10
-2594.99307
 20
-260.190485
 10
-2594.284375
 20
-260.378138
 10
-2593.569546
 20
-260.537935
 10
-2592.854152
 20
-260.672433
 10
-2592.143762
 20
-260.784192
 10
-2591.443946
 20
-260.875772
 10
-2590.760271
 20
-260.94973
 10
-2590.098309
 20
-261.008626
 10
-2589.463628
 20
-261.055018
 10
-2588.861796
 20
-261.091467
 10
-2588.298383
 20
-261.120529
 10
-2584.475134
 20
-261.295938
 10
-2581.305803
 20
-261.434667
 10
-2580.806099
 20
-261.456515
 10
-2580.255652
 20
-261.480427
 10
-2579.651256
 20
-261.506388
 10
-2578.989708
 20
-261.534382
 10
-2578.267805
 20
-261.564393
 10
-2577.482341
 20
-261.596406
 10
-2576.630115
 20
-261.630404
 10
-2575.70792
 20
-261.666371
 10
-2574.712553
 20
-261.704292
 10
-2573.640811
 20
-261.744149
 10
-2572.489488
 20
-261.785928
 10
-2571.255382
 20
-261.829613
 10
-2569.935289
 20
-261.875187
 10
-2568.526003
 20
-261.922634
 10
-2567.024322
 20
-261.971939
 10
-2565.427041
 20
-262.023085
 10
-2563.730957
 20
-262.076058
 10
-2561.932865
 20
-262.13084
 10
-2560.029562
 20
-262.187415
 10
-2558.017843
 20
-262.245769
 10
-2555.896898
 20
-262.305886
 10
-2553.675496
 20
-262.367759
 10
-2551.3648
 20
-262.431384
 10
-2548.975971
 20
-262.496754
 10
-2546.520173
 20
-262.563863
 10
-2544.008566
 20
-262.632708
 10
-2541.452314
 20
-262.703281
 10
-2538.862578
 20
-262.775577
 10
-2536.250522
 20
-262.849592
 10
-2533.627308
 20
-262.925321
 10
-2531.004098
 20
-263.002755
 10
-2528.392053
 20
-263.081891
 10
-2525.802339
 20
-263.162725
 10
-2523.246115
 20
-263.245248
 10
-2520.734544
 20
-263.329457
 10
-2518.278789
 20
-263.415346
 10
-2515.890012
 20
-263.50291
 10
-2513.579376
 20
-263.592142
 10
-2511.358042
 20
-263.683038
 10
-2509.237174
 20
-263.775593
 10
-2507.225539
 20
-263.869741
 10
-2505.322327
 20
-263.965184
 10
-2503.524333
 20
-264.061565
 10
-2501.828351
 20
-264.158526
 10
-2500.231179
 20
-264.25571
 10
-2498.72961
 20
-264.352761
 10
-2497.320439
 20
-264.449319
 10
-2496.000463
 20
-264.545028
 10
-2494.766476
 20
-264.639531
 10
-2493.615274
 20
-264.73247
 10
-2492.543652
 20
-264.823487
 10
-2491.548405
 20
-264.912225
 10
-2490.626327
 20
-264.998328
 10
-2489.774216
 20
-265.081436
 10
-2488.988864
 20
-265.161193
 10
-2488.267069
 20
-265.237243
 10
-2487.605625
 20
-265.309227
 10
-2487.001327
 20
-265.376787
 10
-2486.45097
 20
-265.439567
 10
-2482.782553
 20
-265.863567
 10
-2481.65856
 20
-265.993453
 10
-2481.481788
 20
-266.013905
 10
-2481.289695
 20
-266.036267
 10
-2481.083818
 20
-266.060506
 10
-2480.865698
 20
-266.086585
 10
-2480.636872
 20
-266.114466
 10
-2480.39888
 20
-266.144114
 10
-2480.153261
 20
-266.175492
 10
-2479.901552
 20
-266.208565
 10
-2479.645293
 20
-266.243295
 10
-2479.386021
 20
-266.279648
 10
-2479.125277
 20
-266.317586
 10
-2478.864598
 20
-266.357072
 10
-2478.605523
 20
-266.398071
 10
-2478.349591
 20
-266.440546
 10
-2478.098341
 20
-266.484462
 10
-2477.85331
 20
-266.529781
 10
-2477.616039
 20
-266.576467
 10
-2477.388065
 20
-266.624486
 10
-2477.170928
 20
-266.673798
 10
-2476.966165
 20
-266.724369
 10
-2476.774968
 20
-266.776185
 10
-2476.597137
 20
-266.829315
 10
-2476.432122
 20
-266.883853
 10
-2476.279375
 20
-266.939892
 10
-2476.138349
 20
-266.997525
 10
-2476.008495
 20
-267.056845
 10
-2475.889263
 20
-267.117945
 10
-2475.780108
 20
-267.180917
 10
-2475.680479
 20
-267.245855
 10
-2475.589828
 20
-267.312851
 10
-2475.507608
 20
-267.381999
 10
-2475.43327
 20
-267.453391
 10
-2475.366265
 20
-267.52712
 10
-2475.306045
 20
-267.603279
 10
-2475.252062
 20
-267.681962
 10
-2475.203767
 20
-267.76326
 10
-2475.160613
 20
-267.847267
 10
-2475.12205
 20
-267.934076
 10
-2475.087531
 20
-268.02378
 10
-2475.056506
 20
-268.116471
 10
-2475.028495
 20
-268.212149
 10
-2475.003284
 20
-268.310442
 10
-2474.980724
 20
-268.410881
 10
-2474.960669
 20
-268.513002
 10
-2474.942972
 20
-268.616337
 10
-2474.927483
 20
-268.720419
 10
-2474.914058
 20
-268.824783
 10
-2474.902549
 20
-268.92896
 10
-2474.892807
 20
-269.032486
 10
-2474.884685
 20
-269.134894
 10
-2474.878038
 20
-269.235716
 10
-2474.872715
 20
-269.334485
 10
-2474.868572
 20
-269.430737
 10
-2474.865458
 20
-269.524003
 10
-2474.863229
 20
-269.613818
 10
-2474.861736
 20
-269.699715
 10
-2474.860833
 20
-269.781227
 10
-2474.860371
 20
-269.857888
 10
-2474.860204
 20
-269.929231
 10
-2474.860208
 20
-270.411526
  0
LWPOLYLINE
  5
2C
330
1F
100
AcDbEntity
  8
0
100
AcDbPolyline
 90
      791
 70
   128
 43
0.0
 10
-2553.431252
 20
-241.556476
 10
-2553.431306
 20
-241.973243
 10
-2553.431296
 20
-242.038821
 10
-2553.431177
 20
-242.110283
 10
-2553.430841
 20
-242.187257
 10
-2553.430176
 20
-242.269375
 10
-2553.429075
 20
-242.356265
 10
-2553.427426
 20
-242.447561
 10
-2553.425122
 20
-242.542892
 10
-2553.422051
 20
-242.641887
 10
-2553.418106
 20
-242.74418
 10
-2553.413177
 20
-242.8494
 10
-2553.407152
 20
-242.957176
 10
-2553.399925
 20
-243.06714
 10
-2553.391384
 20
-243.178923
 10
-2553.381421
 20
-243.292155
 10
-2553.369925
 20
-243.406467
 10
-2553.356788
 20
-243.521489
 10
-2553.341899
 20
-243.636853
 10
-2553.32515
 20
-243.752187
 10
-2553.30643
 20
-243.867124
 10
-2553.285632
 20
-243.981293
 10
-2553.262551
 20
-244.094353
 10
-2553.23662
 20
-244.206079
 10
-2553.207176
 20
-244.31627
 10
-2553.173555
 20
-244.424729
 10
-2553.135099
 20
-244.531256
 10
-2553.091142
 20
-244.635652
 10
-2553.041025
 20
-244.737721
 10
-2552.984084
 20
-244.83726
 10
-2552.919659
 20
-244.934074
 10
-2552.847085
 20
-245.027963
 10
-2552.765702
 20
-245.118728
 10
-2552.674848
 20
-245.20617
 10
-2552.57386
 20
-245.290093
 10
-2552.462077
 20
-245.370294
 10
-2552.338837
 20
-245.446578
 10
-2552.203477
 20
-245.518743
 10
-2552.055336
 20
-245.586594
 10
-2551.893751
 20
-245.64993
 10
-2551.718061
 20
-245.708553
 10
-2551.527603
 20
-245.762263
 10
-2551.3221
 20
-245.810939
 10
-2551.102822
 20
-245.854759
 10
-2550.871418
 20
-245.893979
 10
-2550.629542
 20
-245.928855
 10
-2550.378846
 20
-245.959641
 10
-2550.120981
 20
-245.986594
 10
-2549.857602
 20
-246.009968
 10
-2549.59036
 20
-246.030018
 10
-2549.320906
 20
-246.047
 10
-2549.050895
 20
-246.06117
 10
-2548.781979
 20
-246.072783
 10
-2548.515808
 20
-246.082093
 10
-2548.254037
 20
-246.089356
 10
-2547.998316
 20
-246.094829
 10
-2547.750301
 20
-246.098764
 10
-2547.51164
 20
-246.10142
 10
-2547.283987
 20
-246.103049
 10
-2547.068996
 20
-246.103909
 10
-2546.868318
 20
-246.104254
 10
-2545.509078
 20
-246.104614
 10
-2545.503408
 20
-246.104614
 10
-2545.463714
 20
-246.104624
 10
-2545.355971
 20
-246.10465
 10
-2545.146157
 20
-246.104701
 10
-2544.800247
 20
-246.104784
 10
-2544.284219
 20
-246.104909
 10
-2543.564047
 20
-246.105084
 10
-2542.605709
 20
-246.105315
 10
-2541.375178
 20
-246.105613
 10
-2539.838434
 20
-246.105984
 10
-2537.961452
 20
-246.106438
 10
-2535.710206
 20
-246.106982
 10
-2533.050674
 20
-246.107624
 10
-2529.948831
 20
-246.108375
 10
-2526.370655
 20
-246.10924
 10
-2522.28212
 20
-246.110227
 10
-2517.649204
 20
-246.111348
 10
-2512.437882
 20
-246.112607
 10
-2506.614131
 20
-246.114014
 10
-2500.143926
 20
-246.115578
 10
-2493.010256
 20
-246.117302
 10
-2485.264156
 20
-246.119175
 10
-2476.973675
 20
-246.121178
 10
-2468.206859
 20
-246.123297
 10
-2459.031757
 20
-246.125514
 10
-2449.516417
 20
-246.127814
 10
-2439.728885
 20
-246.13018
 10
-2429.73721
 20
-246.132595
 10
-2419.60944
 20
-246.135043
 10
-2409.413622
 20
-246.137507
 10
-2399.217804
 20
-246.139971
 10
-2389.090034
 20
-246.14242
 10
-2379.098359
 20
-246.144835
 10
-2369.310828
 20
-246.1472
 10
-2359.795487
 20
-246.1495
 10
-2350.620385
 20
-246.151717
 10
-2341.85357
 20
-246.153836
 10
-2333.563088
 20
-246.15584
 10
-2325.816988
 20
-246.157712
 10
-2318.683319
 20
-246.159436
 10
-2312.213113
 20
-246.161
 10
-2306.389362
 20
-246.162408
 10
-2301.17804
 20
-246.163667
 10
-2296.545124
 20
-246.164787
 10
-2292.456589
 20
-246.165775
 10
-2288.878413
 20
-246.16664
 10
-2285.776571
 20
-246.16739
 10
-2283.117039
 20
-246.168033
 10
-2280.865793
 20
-246.168577
 10
-2278.98881
 20
-246.169031
 10
-2277.452065
 20
-246.169402
 10
-2276.221536
 20
-246.1697
 10
-2275.263197
 20
-246.169931
 10
-2274.543026
 20
-246.170105
 10
-2274.026996
 20
-246.17023
 10
-2273.681087
 20
-246.170314
 10
-2273.471273
 20
-246.170364
 10
-2273.363531
 20
-246.17039
 10
-2273.323837
 20
-246.1704
 10
-2273.318166
 20
-246.170401
 10
-2272.143637
 20
-246.170733
 10
-2271.95893
 20
-246.170743
 10
-2271.758292
 20
-246.170501
 10
-2271.543406
 20
-246.169752
 10
-2271.315959
 20
-246.168239
 10
-2271.077639
 20
-246.165706
 10
-2270.830129
 20
-246.161897
 10
-2270.575116
 20
-246.156556
 10
-2270.314286
 20
-246.149426
 10
-2270.049324
 20
-246.140252
 10
-2269.781917
 20
-246.128776
 10
-2269.513749
 20
-246.114743
 10
-2269.246508
 20
-246.097897
 10
-2268.981878
 20
-246.07798
 10
-2268.721547
 20
-246.054738
 10
-2268.467198
 20
-246.027913
 10
-2268.220518
 20
-245.997251
 10
-2267.983194
 20
-245.962494
 10
-2267.75691
 20
-245.923385
 10
-2267.543352
 20
-245.87967
 10
-2267.344208
 20
-245.831092
 10
-2267.160758
 20
-245.777469
 10
-2266.992678
 20
-245.718926
 10
-2266.839239
 20
-245.655663
 10
-2266.699709
 20
-245.587877
 10
-2266.573363
 20
-245.515767
 10
-2266.459469
 20
-245.439535
 10
-2266.3573
 20
-245.359377
 10
-2266.266125
 20
-245.275494
 10
-2266.185217
 20
-245.188083
 10
-2266.113846
 20
-245.097346
 10
-2266.051283
 20
-245.003481
 10
-2265.996799
 20
-244.906686
 10
-2265.949666
 20
-244.807162
 10
-2265.909153
 20
-244.705106
 10
-2265.874533
 20
-244.600719
 10
-2265.845076
 20
-244.494199
 10
-2265.820052
 20
-244.385746
 10
-2265.798733
 20
-244.275558
 10
-2265.780391
 20
-244.163835
 10
-2265.764297
 20
-244.050775
 10
-2265.749828
 20
-243.936608
 10
-2265.736802
 20
-243.821673
 10
-2265.725143
 20
-243.70634
 10
-2265.714775
 20
-243.590978
 10
-2265.705621
 20
-243.475956
 10
-2265.697605
 20
-243.361645
 10
-2265.690653
 20
-243.248414
 10
-2265.684689
 20
-243.136631
 10
-2265.679636
 20
-243.026668
 10
-2265.67542
 20
-242.918891
 10
-2265.671962
 20
-242.813672
 10
-2265.669188
 20
-242.71138
 10
-2265.667023
 20
-242.612384
 10
-2265.665391
 20
-242.517053
 10
-2265.664215
 20
-242.425757
 10
-2265.66342
 20
-242.338866
 10
-2265.662929
 20
-242.256749
 10
-2265.662669
 20
-242.179775
 10
-2265.66256
 20
-242.108313
 10
-2265.662418
 20
-241.625966
 10
-2265.662334
 20
-241.209228
 10
-2265.66234
 20
-241.14367
 10
-2265.662458
 20
-241.072326
 10
-2265.662803
 20
-240.995666
 10
-2265.663486
 20
-240.914155
 10
-2265.664622
 20
-240.82826
 10
-2265.666326
 20
-240.738448
 10
-2265.66871
 20
-240.645185
 10
-2265.671887
 20
-240.548939
 10
-2265.675971
 20
-240.450175
 10
-2265.681078
 20
-240.349362
 10
-2265.687318
 20
-240.246965
 10
-2265.694807
 20
-240.143452
 10
-2265.703657
 20
-240.039289
 10
-2265.713983
 20
-239.934942
 10
-2265.725897
 20
-239.83088
 10
-2265.739515
 20
-239.727568
 10
-2265.754949
 20
-239.625472
 10
-2265.772312
 20
-239.525062
 10
-2265.791718
 20
-239.426802
 10
-2265.813281
 20
-239.33116
 10
-2265.837198
 20
-239.238508
 10
-2265.864003
 20
-239.148848
 10
-2265.89431
 20
-239.062085
 10
-2265.928737
 20
-238.978126
 10
-2265.967899
 20
-238.896877
 10
-2266.012414
 20
-238.818246
 10
-2266.062896
 20
-238.742138
 10
-2266.119962
 20
-238.66846
 10
-2266.184231
 20
-238.597119
 10
-2266.256316
 20
-238.528022
 10
-2266.336834
 20
-238.461075
 10
-2266.426403
 20
-238.396183
 10
-2266.525637
 20
-238.333256
 10
-2266.635154
 20
-238.272198
 10
-2266.755569
 20
-238.212915
 10
-2266.887499
 20
-238.155316
 10
-2267.031561
 20
-238.099304
 10
-2267.18837
 20
-238.044791
 10
-2267.358543
 20
-237.991679
 10
-2267.542696
 20
-237.939875
 10
-2267.741081
 20
-237.889309
 10
-2267.952488
 20
-237.839995
 10
-2268.175347
 20
-237.79197
 10
-2268.408082
 20
-237.745271
 10
-2268.649122
 20
-237.699935
 10
-2268.896892
 20
-237.655998
 10
-2269.149819
 20
-237.613497
 10
-2269.406332
 20
-237.572469
 10
-2269.664857
 20
-237.532951
 10
-2269.923819
 20
-237.494979
 10
-2270.181648
 20
-237.458592
 10
-2270.436768
 20
-237.423824
 10
-2270.687608
 20
-237.390713
 10
-2270.932594
 20
-237.359296
 10
-2271.170153
 20
-237.329609
 10
-2271.398712
 20
-237.30169
 10
-2271.616697
 20
-237.275575
 10
-2271.822537
 20
-237.2513
 10
-2272.014656
 20
-237.228904
 10
-2273.31586
 20
-237.078337
 10
-2276.419983
 20
-236.719021
 10
-2276.909425
 20
-236.662486
 10
-2277.44868
 20
-236.600912
 10
-2278.041005
 20
-236.534646
 10
-2278.68965
 20
-236.464038
 10
-2279.397869
 20
-236.389438
 10
-2280.168916
 20
-236.311194
 10
-2281.006042
 20
-236.229656
 10
-2281.912501
 20
-236.145173
 10
-2282.891546
 20
-236.058094
 10
-2283.946431
 20
-235.968769
 10
-2285.080408
 20
-235.877547
 10
-2286.296729
 20
-235.784777
 10
-2287.598649
 20
-235.690808
 10
-2288.98942
 20
-235.595991
 10
-2290.472296
 20
-235.500673
 10
-2292.050529
 20
-235.405204
 10
-2293.727372
 20
-235.309934
 10
-2295.506078
 20
-235.215211
 10
-2297.389901
 20
-235.121385
 10
-2299.382094
 20
-235.028806
 10
-2301.483506
 20
-234.937765
 10
-2303.685378
 20
-234.848323
 10
-2305.976549
 20
-234.760488
 10
-2308.345857
 20
-234.674261
 10
-2310.782139
 20
-234.589648
 10
-2313.274234
 20
-234.506654
 10
-2315.81098
 20
-234.425284
 10
-2318.381214
 20
-234.345541
 10
-2320.973775
 20
-234.267432
 10
-2323.577499
 20
-234.19096
 10
-2326.181228
 20
-234.11613
 10
-2328.773797
 20
-234.042947
 10
-2331.344045
 20
-233.971415
 10
-2333.880809
 20
-233.901538
 10
-2336.372929
 20
-233.833323
 10
-2338.809241
 20
-233.766774
 10
-2341.178585
 20
-233.701894
 10
-2343.469797
 20
-233.638688
 10
-2345.671716
 20
-233.577163
 10
-2347.77318
 20
-233.517321
 10
-2349.76543
 20
-233.459171
 10
-2351.649316
 20
-233.402729
 10
-2353.428089
 20
-233.348019
 10
-2355.105002
 20
-233.295059
 10
-2356.68331
 20
-233.243871
 10
-2358.166262
 20
-233.194476
 10
-2359.557112
 20
-233.146897
 10
-2360.859112
 20
-233.10115
 10
-2362.075516
 20
-233.057259
 10
-2363.209576
 20
-233.015244
 10
-2364.264542
 20
-232.975127
 10
-2365.24367
 20
-232.936927
 10
-2366.15021
 20
-232.900666
 10
-2366.987414
 20
-232.866365
 10
-2367.758538
 20
-232.834044
 10
-2368.466831
 20
-232.803726
 10
-2369.115547
 20
-232.775428
 10
-2369.707938
 20
-232.749175
 10
-2370.247257
 20
-232.724984
 10
-2373.841245
 20
-232.562506
 10
-2376.718837
 20
-231.999628
 10
-2377.17131
 20
-231.910711
 10
-2377.662466
 20
-231.811768
 10
-2378.187825
 20
-231.701217
 10
-2378.742904
 20
-231.577475
 10
-2379.323223
 20
-231.438959
 10
-2379.924301
 20
-231.284088
 10
-2380.541657
 20
-231.111277
 10
-2381.17081
 20
-230.918944
 10
-2381.80728
 20
-230.705509
 10
-2382.446584
 20
-230.469386
 10
-2383.084242
 20
-230.208994
 10
-2383.715772
 20
-229.92275
 10
-2384.336695
 20
-229.609073
 10
-2384.942529
 20
-229.266377
 10
-2385.528793
 20
-228.893083
 10
-2386.091006
 20
-228.487606
 10
-2386.624687
 20
-228.048364
 10
-2387.125356
 20
-227.573775
 10
-2387.588531
 20
-227.062256
 10
-2388.00973
 20
-226.512224
 10
-2388.385992
 20
-225.923059
 10
-2388.720425
 20
-225.297989
 10
-2389.017654
 20
-224.641206
 10
-2389.282308
 20
-223.956899
 10
-2389.519012
 20
-223.249259
 10
-2389.732394
 20
-222.522478
 10
-2389.927079
 20
-221.780745
 10
-2390.107696
 20
-221.028251
 10
-2390.278869
 20
-220.269186
 10
-2390.445225
 20
-219.507742
 10
-2390.611392
 20
-218.748109
 10
-2390.781997
 20
-217.994478
 10
-2390.961664
 20
-217.251039
 10
-2391.155022
 20
-216.521983
 10
-2391.366696
 20
-215.8115
 10
-2391.601314
 20
-215.123782
 10
-2391.863502
 20
-214.463017
 10
-2392.157887
 20
-213.833399
 10
-2392.489095
 20
-213.239117
 10
-2392.861753
 20
-212.684361
 10
-2393.278975
 20
-212.1723
 10
-2393.737832
 20
-211.702011
 10
-2394.233878
 20
-211.27155
 10
-2394.762672
 20
-210.878972
 10
-2395.319769
 20
-210.522332
 10
-2395.900729
 20
-210.199684
 10
-2396.501107
 20
-209.909087
 10
-2397.116459
 20
-209.648591
 10
-2397.742344
 20
-209.416256
 10
-2398.374318
 20
-209.210134
 10
-2399.007938
 20
-209.028281
 10
-2399.638761
 20
-208.868753
 10
-2400.262343
 20
-208.729604
 10
-2400.874243
 20
-208.608889
 10
-2401.470017
 20
-208.504665
 10
-2402.045221
 20
-208.414987
 10
-2402.595413
 20
-208.337909
 10
-2403.116149
 20
-208.271485
 10
-2403.602988
 20
-208.213773
 10
-2406.903784
 20
-207.841417
 10
-2406.903783
 20
-207.841841
 10
-2406.903784
 20
-207.844808
 10
-2406.903786
 20
-207.852865
 10
-2406.90379
 20
-207.868553
 10
-2406.903795
 20
-207.894418
 10
-2406.903805
 20
-207.933004
 10
-2406.903817
 20
-207.986854
 10
-2406.903833
 20
-208.058512
 10
-2406.903854
 20
-208.150523
 10
-2406.903881
 20
-208.265431
 10
-2406.903913
 20
-208.40578
 10
-2406.903952
 20
-208.574113
 10
-2406.903997
 20
-208.772976
 10
-2406.90405
 20
-209.004912
 10
-2406.904112
 20
-209.272464
 10
-2406.904182
 20
-209.578179
 10
-2406.904262
 20
-209.924599
 10
-2406.904351
 20
-210.314267
 10
-2406.904451
 20
-210.74973
 10
-2406.904562
 20
-211.233531
 10
-2406.904684
 20
-211.76694
 10
-2406.904817
 20
-212.346143
 10
-2406.904959
 20
-212.966052
 10
-2406.90511
 20
-213.621577
 10
-2406.905267
 20
-214.307633
 10
-2406.90543
 20
-215.019129
 10
-2406.905598
 20
-215.750977
 10
-2406.905769
 20
-216.49809
 10
-2406.905944
 20
-217.25538
 10
-2406.906119
 20
-218.017757
 10
-2406.906293
 20
-218.780134
 10
-2406.906467
 20
-219.537424
 10
-2406.906638
 20
-220.284537
 10
-2406.906807
 20
-221.016385
 10
-2406.906969
 20
-221.727881
 10
-2406.907127
 20
-222.413935
 10
-2406.907277
 20
-223.069462
 10
-2406.90742
 20
-223.68937
 10
-2406.907553
 20
-224.268574
 10
-2406.907675
 20
-224.801983
 10
-2406.907786
 20
-225.285784
 10
-2406.907886
 20
-225.721247
 10
-2406.907975
 20
-226.110915
 10
-2406.908055
 20
-226.457335
 10
-2406.908125
 20
-226.763049
 10
-2406.908186
 20
-227.030602
 10
-2406.90824
 20
-227.262538
 10
-2406.908285
 20
-227.461401
 10
-2406.908324
 20
-227.629734
 10
-2406.908355
 20
-227.770083
 10
-2406.908382
 20
-227.884991
 10
-2406.908403
 20
-227.977002
 10
-2406.908419
 20
-228.04866
 10
-2406.908432
 20
-228.10251
 10
-2406.908441
 20
-228.141095
 10
-2406.908446
 20
-228.16696
 10
-2406.90845
 20
-228.182649
 10
-2406.908452
 20
-228.190704
 10
-2406.908453
 20
-228.193672
 10
-2406.908453
 20
-228.194098
 10
-2406.908537
 20
-228.410842
 10
-2406.908572
 20
-228.444948
 10
-2406.90874
 20
-228.482114
 10
-2406.909176
 20
-228.522148
 10
-2406.91001
 20
-228.564861
 10
-2406.911374
 20
-228.610061
 10
-2406.913402
 20
-228.657556
 10
-2406.916226
 20
-228.707155
 10
-2406.919978
 20
-228.758669
 10
-2406.924791
 20
-228.811905
 10
-2406.930797
 20
-228.866672
 10
-2406.938129
 20
-228.92278
 10
-2406.946919
 20
-228.980036
 10
-2406.957299
 20
-229.038251
 10
-2406.969402
 20
-229.097233
 10
-2406.98336
 20
-229.156791
 10
-2406.999307
 20
-229.216734
 10
-2407.017373
 20
-229.276871
 10
-2407.037693
 20
-229.33701
 10
-2407.060397
 20
-229.396961
 10
-2407.085618
 20
-229.456533
 10
-2407.113451
 20
-229.515548
 10
-2407.14383
 20
-229.573887
 10
-2407.176654
 20
-229.631444
 10
-2407.211818
 20
-229.688115
 10
-2407.249219
 20
-229.743791
 10
-2407.288755
 20
-229.798371
 10
-2407.330323
 20
-229.851745
 10
-2407.373819
 20
-229.903811
 10
-2407.419141
 20
-229.95446
 10
-2407.466185
 20
-230.003589
 10
-2407.514849
 20
-230.051092
 10
-2407.565027
 20
-230.096863
 10
-2407.61662
 20
-230.140797
 10
-2407.669523
 20
-230.182788
 10
-2407.723633
 20
-230.22273
 10
-2407.778846
 20
-230.260517
 10
-2407.835061
 20
-230.296045
 10
-2407.892173
 20
-230.329208
 10
-2407.95008
 20
-230.359899
 10
-2408.008678
 20
-230.388014
 10
-2408.067851
 20
-230.413488
 10
-2408.12742
 20
-230.436413
 10
-2408.187195
 20
-230.456924
 10
-2408.246985
 20
-230.475156
 10
-2408.306597
 20
-230.491243
 10
-2408.365841
 20
-230.505318
 10
-2408.424526
 20
-230.517516
 10
-2408.482459
 20
-230.527971
 10
-2408.539448
 20
-230.536818
 10
-2408.595304
 20
-230.544191
 10
-2408.649834
 20
-230.550222
 10
-2408.702847
 20
-230.555048
 10
-2408.754152
 20
-230.558802
 10
-2408.803557
 20
-230.561618
 10
-2408.85087
 20
-230.56363
 10
-2408.895901
 20
-230.564973
 10
-2408.938457
 20
-230.565781
 10
-2408.978348
 20
-230.566188
 10
-2409.015383
 20
-230.566328
 10
-2409.265354
 20
-230.566238
 10
-2409.481368
 20
-230.56617
 10
-2409.515359
 20
-230.566138
 10
-2409.552398
 20
-230.565971
 10
-2409.592294
 20
-230.565535
 10
-2409.634855
 20
-230.564699
 10
-2409.679891
 20
-230.563327
 10
-2409.727209
 20
-230.561289
 10
-2409.776619
 20
-230.558449
 10
-2409.827927
 20
-230.554674
 10
-2409.880943
 20
-230.54983
 10
-2409.935476
 20
-230.543785
 10
-2409.991333
 20
-230.536404
 10
-2410.048323
 20
-230.527555
 10
-2410.106255
 20
-230.517104
 10
-2410.164937
 20
-230.504918
 10
-2410.224177
 20
-230.490863
 10
-2410.283784
 20
-230.474806
 10
-2410.343567
 20
-230.456613
 10
-2410.403333
 20
-230.436152
 10
-2410.462892
 20
-230.413289
 10
-2410.522051
 20
-230.387889
 10
-2410.580635
 20
-230.35986
 10
-2410.638525
 20
-230.329265
 10
-2410.695618
 20
-230.29621
 10
-2410.751811
 20
-230.260795
 10
-2410.807002
 20
-230.223128
 10
-2410.861087
 20
-230.18331
 10
-2410.913964
 20
-230.141446
 10
-2410.96553
 20
-230.097641
 10
-2411.01568
 20
-230.051997
 10
-2411.064314
 20
-230.004617
 10
-2411.111328
 20
-229.955607
 10
-2411.156619
 20
-229.905071
 10
-2411.200083
 20
-229.853111
 10
-2411.241619
 20
-229.799832
 10
-2411.281122
 20
-229.745337
 10
-2411.31849
 20
-229.689731
 10
-2411.353622
 20
-229.633118
 10
-2411.386412
 20
-229.5756
 10
-2411.416757
 20
-229.517282
 10
-2411.444557
 20
-229.458268
 10
-2411.469747
 20
-229.398676
 10
-2411.49242
 20
-229.338685
 10
-2411.512707
 20
-229.278487
 10
-2411.530743
 20
-229.218275
 10
-2411.546659
 20
-229.158241
 10
-2411.560587
 20
-229.098579
 10
-2411.572662
 20
-229.039481
 10
-2411.583014
 20
-228.981139
 10
-2411.591776
 20
-228.923748
 10
-2411.599081
 20
-228.867498
 10
-2411.605063
 20
-228.812584
 10
-2411.609851
 20
-228.759198
 10
-2411.61358
 20
-228.707532
 10
-2411.616381
 20
-228.657779
 10
-2411.618388
 20
-228.610133
 10
-2411.619731
 20
-228.564786
 10
-2411.620547
 20
-228.521929
 10
-2411.620964
 20
-228.481758
 10
-2411.621116
 20
-228.444464
 10
-2411.621125
 20
-228.192734
 10
-2411.621125
 20
-228.192309
 10
-2411.621124
 20
-228.18933
 10
-2411.621122
 20
-228.181246
 10
-2411.621118
 20
-228.165503
 10
-2411.621112
 20
-228.139549
 10
-2411.621101
 20
-228.100829
 10
-2411.621088
 20
-228.046793
 10
-2411.621069
 20
-227.974887
 10
-2411.621046
 20
-227.882556
 10
-2411.621017
 20
-227.76725
 10
-2411.620981
 20
-227.626415
 10
-2411.620939
 20
-227.457499
 10
-2411.620889
 20
-227.257947
 10
-2411.620828
 20
-227.025208
 10
-2411.620761
 20
-226.756728
 10
-2411.620683
 20
-226.449954
 10
-2411.620595
 20
-226.102334
 10
-2411.620496
 20
-225.711315
 10
-2411.620386
 20
-225.274344
 10
-2411.620263
 20
-224.788867
 10
-2411.620127
 20
-224.253609
 10
-2411.61998
 20
-223.672399
 10
-2411.619821
 20
-223.050342
 10
-2411.619654
 20
-222.392545
 10
-2411.619481
 20
-221.704112
 10
-2411.6193
 20
-220.990151
 10
-2411.619113
 20
-220.255767
 10
-2411.618924
 20
-219.506066
 10
-2411.618731
 20
-218.746152
 10
-2411.618537
 20
-217.981133
 10
-2411.618343
 20
-217.216114
 10
-2411.61815
 20
-216.4562
 10
-2411.61796
 20
-215.706498
 10
-2411.617774
 20
-214.972114
 10
-2411.617594
 20
-214.258153
 10
-2411.617419
 20
-213.569721
 10
-2411.617252
 20
-212.911923
 10
-2411.617094
 20
-212.289867
 10
-2411.616948
 20
-211.708656
 10
-2411.616812
 20
-211.173398
 10
-2411.616688
 20
-210.687922
 10
-2411.616578
 20
-210.250951
 10
-2411.616479
 20
-209.859931
 10
-2411.61639
 20
-209.512311
 10
-2411.616313
 20
-209.205537
 10
-2411.616245
 20
-208.937057
 10
-2411.616186
 20
-208.704318
 10
-2411.616135
 20
-208.504767
 10
-2411.616093
 20
-208.335849
 10
-2411.616057
 20
-208.195015
 10
-2411.616027
 20
-208.079709
 10
-2411.616004
 20
-207.987379
 10
-2411.615986
 20
-207.915472
 10
-2411.615972
 20
-207.861436
 10
-2411.615962
 20
-207.822717
 10
-2411.615956
 20
-207.796762
 10
-2411.615952
 20
-207.781019
 10
-2411.61595
 20
-207.772935
 10
-2411.615949
 20
-207.769957
 10
-2411.615949
 20
-207.769532
 10
-2414.49416
 20
-208.026018
 10
-2414.946658
 20
-208.066815
 10
-2415.437398
 20
-208.11386
 10
-2415.961453
 20
-208.169556
 10
-2416.513893
 20
-208.236302
 10
-2417.089788
 20
-208.316501
 10
-2417.68421
 20
-208.412555
 10
-2418.292229
 20
-208.526862
 10
-2418.908915
 20
-208.661827
 10
-2419.529339
 20
-208.819849
 10
-2420.148571
 20
-209.00333
 10
-2420.761683
 20
-209.214671
 10
-2421.363745
 20
-209.456274
 10
-2421.949827
 20
-209.730541
 10
-2422.515001
 20
-210.03987
 10
-2423.054337
 20
-210.386666
 10
-2423.562905
 20
-210.773329
 10
-2424.035775
 20
-211.202259
 10
-2424.468019
 20
-211.675859
 10
-2424.854708
 20
-212.19653
 10
-2425.19091
 20
-212.766672
 10
-2425.473497
 20
-213.38741
 10
-2425.706531
 20
-214.054755
 10
-2425.895871
 20
-214.763436
 10
-2426.047378
 20
-215.508189
 10
-2426.166913
 20
-216.283745
 10
-2426.260338
 20
-217.084836
 10
-2426.333513
 20
-217.906196
 10
-2426.392297
 20
-218.742555
 10
-2426.442553
 20
-219.588648
 10
-2426.49014
 20
-220.439207
 10
-2426.540921
 20
-221.288962
 10
-2426.600754
 20
-222.132649
 10
-2426.675502
 20
-222.964998
 10
-2426.771024
 20
-223.780743
 10
-2426.893181
 20
-224.574615
 10
-2427.047835
 20
-225.341347
 10
-2427.240846
 20
-226.075672
 10
-2427.478074
 20
-226.772321
 10
-2427.76538
 20
-227.426028
 10
-2428.108625
 20
-228.031526
 10
-2428.511766
 20
-228.58485
 10
-2428.971139
 20
-229.087259
 10
-2429.481174
 20
-229.541313
 10
-2430.036306
 20
-229.949575
 10
-2430.630966
 20
-230.314607
 10
-2431.259587
 20
-230.638969
 10
-2431.9166
 20
-230.925225
 10
-2432.596437
 20
-231.175933
 10
-2433.293531
 20
-231.39366
 10
-2434.002313
 20
-231.580964
 10
-2434.717216
 20
-231.740407
 10
-2435.432672
 20
-231.874552
 10
-2436.143113
 20
-231.98596
 10
-2436.84297
 20
-232.077193
 10
-2437.526677
 20
-232.150813
 10
-2438.188666
 20
-232.209381
 10
-2438.823367
 20
-232.255458
 10
-2439.425214
 20
-232.291608
 10
-2439.988638
 20
-232.320392
 10
-2443.811957
 20
-232.493904
 10
-2446.981321
 20
-232.631032
 10
-2447.48103
 20
-232.652627
 10
-2448.031483
 20
-232.67626
 10
-2448.635885
 20
-232.701917
 10
-2449.297439
 20
-232.729578
 10
-2450.01935
 20
-232.759227
 10
-2450.804821
 20
-232.790846
 10
-2451.657058
 20
-232.824419
 10
-2452.579263
 20
-232.859927
 10
-2453.574641
 20
-232.897353
 10
-2454.646395
 20
-232.93668
 10
-2455.797731
 20
-232.977891
 10
-2457.031852
 20
-233.020968
 10
-2458.351961
 20
-233.065894
 10
-2459.761264
 20
-233.112652
 10
-2461.262963
 20
-233.161224
 10
-2462.860264
 20
-233.211593
 10
-2464.556369
 20
-233.263741
 10
-2466.354484
 20
-233.317653
 10
-2468.257811
 20
-233.373309
 10
-2470.269557
 20
-233.430692
 10
-2472.390529
 20
-233.48979
 10
-2474.61196
 20
-233.550598
 10
-2476.922688
 20
-233.613115
 10
-2479.311549
 20
-233.677341
 10
-2481.767383
 20
-233.743276
 10
-2484.279026
 20
-233.810921
 10
-2486.835316
 20
-233.880274
 10
-2489.42509
 20
-233.951335
 10
-2492.037188
 20
-234.024104
 10
-2494.660445
 20
-234.098581
 10
-2497.2837
 20
-234.174765
 10
-2499.895791
 20
-234.252657
 10
-2502.485554
 20
-234.332254
 10
-2505.041827
 20
-234.413559
 10
-2507.553449
 20
-234.496569
 10
-2510.009257
 20
-234.581285
 10
-2512.398088
 20
-234.667707
 10
-2514.70878
 20
-234.755834
 10
-2516.930171
 20
-234.845666
 10
-2519.051098
 20
-234.937202
 10
-2521.062794
 20
-235.030383
 10
-2522.966069
 20
-235.124908
 10
-2524.764126
 20
-235.220422
 10
-2526.460171
 20
-235.316563
 10
-2528.057408
 20
-235.412973
 10
-2529.559042
 20
-235.509292
 10
-2530.968276
 20
-235.605164
 10
-2532.288317
 20
-235.700229
 10
-2533.522367
 20
-235.794126
 10
-2534.673632
 20
-235.8865
 10
-2535.745316
 20
-235.976991
 10
-2536.740624
 20
-236.065238
 10
-2537.66276
 20
-236.150884
 10
-2538.514928
 20
-236.23357
 10
-2539.300334
 20
-236.312938
 10
-2540.022182
 20
-236.388628
 10
-2540.683675
 20
-236.460281
 10
-2541.28802
 20
-236.527539
 10
-2541.83842
 20
-236.590043
 10
-2545.507129
 20
-237.012206
 10
-2546.631097
 20
-237.141569
 10
-2546.807865
 20
-237.161937
 10
-2546.999955
 20
-237.184212
 10
-2547.205827
 20
-237.208354
 10
-2547.423943
 20
-237.234331
 10
-2547.652764
 20
-237.262106
 10
-2547.890752
 20
-237.291644
 10
-2548.136369
 20
-237.322908
 10
-2548.388076
 20
-237.355864
 10
-2548.644334
 20
-237.390474
 10
-2548.903605
 20
-237.426706
 10
-2549.16435
 20
-237.464522
 10
-2549.425031
 20
-237.503887
 10
-2549.684109
 20
-237.544765
 10
-2549.940046
 20
-237.587121
 10
-2550.191303
 20
-237.63092
 10
-2550.436343
 20
-237.676125
 10
-2550.673625
 20
-237.722701
 10
-2550.901612
 20
-237.770613
 10
-2551.118765
 20
-237.819824
 10
-2551.323546
 20
-237.870299
 10
-2551.514764
 20
-237.922025
 10
-2551.692619
 20
-237.975073
 10
-2551.85766
 20
-238.029533
 10
-2552.010434
 20
-238.085501
 10
-2552.15149
 20
-238.143068
 10
-2552.281377
 20
-238.202326
 10
-2552.400643
 20
-238.263371
 10
-2552.509834
 20
-238.326292
 10
-2552.609501
 20
-238.391182
 10
-2552.70019
 20
-238.458136
 10
-2552.782452
 20
-238.527245
 10
-2552.856832
 20
-238.598602
 10
-2552.92388
 20
-238.6723
 10
-2552.984144
 20
-238.74843
 10
-2553.038173
 20
-238.827087
 10
-2553.086513
 20
-238.908363
 10
-2553.129715
 20
-238.992349
 10
-2553.168325
 20
-239.07914
 10
-2553.202893
 20
-239.168827
 10
-2553.233964
 20
-239.261504
 10
-2553.262024
 20
-239.357169
 10
-2553.287284
 20
-239.45545
 10
-2553.309892
 20
-239.555879
 10
-2553.329994
 20
-239.657991
 10
-2553.34774
 20
-239.761317
 10
-2553.363274
 20
-239.865394
 10
-2553.376746
 20
-239.969751
 10
-2553.388302
 20
-240.073924
 10
-2553.398088
 20
-240.177445
 10
-2553.406254
 20
-240.279848
 10
-2553.412945
 20
-240.380667
 10
-2553.418309
 20
-240.479435
 10
-2553.422492
 20
-240.575686
 10
-2553.425644
 20
-240.668951
 10
-2553.42791
 20
-240.758765
 10
-2553.429438
 20
-240.844662
 10
-2553.430374
 20
-240.926174
 10
-2553.430866
 20
-241.002835
 10
-2553.431063
 20
-241.074178
 10
-2553.431252
 20
-241.556476
  0
LWPOLYLINE
  5
2D
330
1F
100
AcDbEntity
  8
0
100
AcDbPolyline
 90
      791
 70
   128
 43
0.0
 10
-2502.856576
 20
-216.181892
 10
-2502.858715
 20
-215.765135
 10
-2502.859069
 20
-215.699557
 10
-2502.859563
 20
-215.628098
 10
-2502.860305
 20
-215.551128
 10
-2502.861402
 20
-215.469015
 10
-2502.862961
 20
-215.382132
 10
-2502.865091
 20
-215.290847
 10
-2502.867897
 20
-215.19553
 10
-2502.871489
 20
-215.096552
 10
-2502.875974
 20
-214.994281
 10
-2502.88146
 20
-214.889089
 10
-2502.888053
 20
-214.781345
 10
-2502.895863
 20
-214.671419
 10
-2502.904996
 20
-214.559681
 10
-2502.91556
 20
-214.446501
 10
-2502.927662
 20
-214.33225
 10
-2502.94141
 20
-214.217296
 10
-2502.956911
 20
-214.102009
 10
-2502.974275
 20
-213.986761
 10
-2502.993607
 20
-213.871921
 10
-2503.015016
 20
-213.757857
 10
-2503.038701
 20
-213.644914
 10
-2503.065231
 20
-213.533321
 10
-2503.095267
 20
-213.42328
 10
-2503.12947
 20
-213.314993
 10
-2503.1685
 20
-213.208664
 10
-2503.213019
 20
-213.104493
 10
-2503.263686
 20
-213.002684
 10
-2503.321164
 20
-212.903439
 10
-2503.386113
 20
-212.80696
 10
-2503.459194
 20
-212.71345
 10
-2503.541068
 20
-212.62311
 10
-2503.632394
 20
-212.536144
 10
-2503.733837
 20
-212.452753
 10
-2503.846054
 20
-212.373139
 10
-2503.969707
 20
-212.297506
 10
-2504.105457
 20
-212.226054
 10
-2504.253966
 20
-212.158988
 10
-2504.415893
 20
-212.096509
 10
-2504.591898
 20
-212.038818
 10
-2504.782646
 20
-211.986119
 10
-2504.988408
 20
-211.938537
 10
-2505.207923
 20
-211.895884
 10
-2505.439535
 20
-211.857897
 10
-2505.681597
 20
-211.824311
 10
-2505.932456
 20
-211.794861
 10
-2506.190462
 20
-211.769285
 10
-2506.453963
 20
-211.747318
 10
-2506.721309
 20
-211.728695
 10
-2506.990849
 20
-211.713152
 10
-2507.260932
 20
-211.700426
 10
-2507.529906
 20
-211.69025
 10
-2507.796122
 20
-211.682364
 10
-2508.057927
 20
-211.6765
 10
-2508.313672
 20
-211.672394
 10
-2508.561705
 20
-211.669785
 10
-2508.800375
 20
-211.668406
 10
-2509.028031
 20
-211.667995
 10
-2509.243023
 20
-211.668285
 10
-2509.443698
 20
-211.669014
 10
-2510.802911
 20
-211.675928
 10
-2510.809822
 20
-211.675964
 10
-2510.858196
 20
-211.676209
 10
-2510.989499
 20
-211.676874
 10
-2511.245194
 20
-211.67817
 10
-2511.666745
 20
-211.680305
 10
-2512.295616
 20
-211.683491
 10
-2513.173271
 20
-211.687938
 10
-2514.341176
 20
-211.693854
 10
-2515.840791
 20
-211.701453
 10
-2517.713584
 20
-211.710941
 10
-2520.001017
 20
-211.72253
 10
-2522.744553
 20
-211.73643
 10
-2525.98566
 20
-211.75285
 10
-2529.765797
 20
-211.772002
 10
-2534.126432
 20
-211.794095
 10
-2539.109027
 20
-211.819339
 10
-2544.755047
 20
-211.847944
 10
-2551.105955
 20
-211.88012
 10
-2558.203217
 20
-211.916078
 10
-2566.088295
 20
-211.956027
 10
-2574.781921
 20
-212.000073
 10
-2584.221899
 20
-212.047899
 10
-2594.325304
 20
-212.099088
 10
-2605.009204
 20
-212.153217
 10
-2616.190673
 20
-212.209866
 10
-2627.786782
 20
-212.268617
 10
-2639.714604
 20
-212.329048
 10
-2651.891209
 20
-212.39074
 10
-2664.233672
 20
-212.453272
 10
-2676.659061
 20
-212.516224
 10
-2689.084451
 20
-212.579177
 10
-2701.426912
 20
-212.641709
 10
-2713.603519
 20
-212.703401
 10
-2725.53134
 20
-212.763832
 10
-2737.127449
 20
-212.822582
 10
-2748.308918
 20
-212.879232
 10
-2758.992818
 20
-212.933362
 10
-2769.096222
 20
-212.98455
 10
-2778.536201
 20
-213.032377
 10
-2787.229828
 20
-213.076422
 10
-2795.114906
 20
-213.116371
 10
-2802.212167
 20
-213.152329
 10
-2808.563075
 20
-213.184505
 10
-2814.209095
 20
-213.21311
 10
-2819.19169
 20
-213.238354
 10
-2823.552325
 20
-213.260447
 10
-2827.332463
 20
-213.279599
 10
-2830.573568
 20
-213.296019
 10
-2833.317106
 20
-213.309919
 10
-2835.604539
 20
-213.321508
 10
-2837.477331
 20
-213.330997
 10
-2838.976947
 20
-213.338594
 10
-2840.14485
 20
-213.344511
 10
-2841.022506
 20
-213.348958
 10
-2841.651377
 20
-213.352144
 10
-2842.072928
 20
-213.35428
 10
-2842.328623
 20
-213.355576
 10
-2842.459926
 20
-213.356241
 10
-2842.5083
 20
-213.356486
 10
-2842.515211
 20
-213.356521
 10
-2843.689686
 20
-213.362502
 10
-2843.874385
 20
-213.363485
 10
-2844.075014
 20
-213.364805
 10
-2844.289885
 20
-213.366709
 10
-2844.517313
 20
-213.369445
 10
-2844.75561
 20
-213.373259
 10
-2845.003088
 20
-213.378397
 10
-2845.258062
 20
-213.385108
 10
-2845.518843
 20
-213.39364
 10
-2845.783745
 20
-213.404237
 10
-2846.05108
 20
-213.417149
 10
-2846.319163
 20
-213.432621
 10
-2846.586305
 20
-213.450902
 10
-2846.850819
 20
-213.472238
 10
-2847.111019
 20
-213.496876
 10
-2847.365217
 20
-213.525064
 10
-2847.611728
 20
-213.557048
 10
-2847.848862
 20
-213.593076
 10
-2848.074934
 20
-213.633395
 10
-2848.288256
 20
-213.678252
 10
-2848.487141
 20
-213.727894
 10
-2848.670305
 20
-213.782494
 10
-2848.838076
 20
-213.841932
 10
-2848.991182
 20
-213.906012
 10
-2849.130354
 20
-213.974538
 10
-2849.256323
 20
-214.047316
 10
-2849.369818
 20
-214.12415
 10
-2849.471568
 20
-214.204846
 10
-2849.562304
 20
-214.289208
 10
-2849.642755
 20
-214.37704
 10
-2849.713653
 20
-214.468149
 10
-2849.775725
 20
-214.562338
 10
-2849.829704
 20
-214.659412
 10
-2849.876318
 20
-214.759177
 10
-2849.916298
 20
-214.861436
 10
-2849.950373
 20
-214.965997
 10
-2849.979273
 20
-215.072661
 10
-2850.003729
 20
-215.181236
 10
-2850.02447
 20
-215.291524
 10
-2850.042225
 20
-215.403331
 10
-2850.057726
 20
-215.516463
 10
-2850.071594
 20
-215.630696
 10
-2850.084014
 20
-215.745688
 10
-2850.095065
 20
-215.861071
 10
-2850.104825
 20
-215.976476
 10
-2850.11337
 20
-216.091533
 10
-2850.120781
 20
-216.205876
 10
-2850.127132
 20
-216.319132
 10
-2850.132504
 20
-216.430936
 10
-2850.136973
 20
-216.540915
 10
-2850.140618
 20
-216.648703
 10
-2850.143517
 20
-216.75393
 10
-2850.145747
 20
-216.856226
 10
-2850.147386
 20
-216.955225
 10
-2850.148511
 20
-217.050555
 10
-2850.149201
 20
-217.141848
 10
-2850.149534
 20
-217.228734
 10
-2850.149587
 20
-217.310847
 10
-2850.149438
 20
-217.387815
 10
-2850.149164
 20
-217.459271
 10
-2850.146736
 20
-217.941572
 10
-2850.14454
 20
-218.35827
 10
-2850.144176
 20
-218.423822
 10
-2850.143668
 20
-218.495158
 10
-2850.142905
 20
-218.571808
 10
-2850.141776
 20
-218.653308
 10
-2850.14017
 20
-218.739189
 10
-2850.137976
 20
-218.828984
 10
-2850.135085
 20
-218.922226
 10
-2850.131383
 20
-219.018447
 10
-2850.126761
 20
-219.117181
 10
-2850.121108
 20
-219.217958
 10
-2850.114313
 20
-219.320314
 10
-2850.106264
 20
-219.423779
 10
-2850.09685
 20
-219.527888
 10
-2850.085961
 20
-219.632172
 10
-2850.073486
 20
-219.736165
 10
-2850.059315
 20
-219.839399
 10
-2850.043335
 20
-219.941407
 10
-2850.025435
 20
-220.041721
 10
-2850.005507
 20
-220.139874
 10
-2849.983437
 20
-220.235398
 10
-2849.959031
 20
-220.327922
 10
-2849.931756
 20
-220.417438
 10
-2849.900995
 20
-220.504041
 10
-2849.866132
 20
-220.587818
 10
-2849.826548
 20
-220.66886
 10
-2849.781629
 20
-220.747258
 10
-2849.730755
 20
-220.8231
 10
-2849.67331
 20
-220.89648
 10
-2849.608677
 20
-220.967484
 10
-2849.536241
 20
-221.036205
 10
-2849.455382
 20
-221.102731
 10
-2849.365485
 20
-221.167153
 10
-2849.265931
 20
-221.229562
 10
-2849.156105
 20
-221.290047
 10
-2849.03539
 20
-221.348699
 10
-2848.903169
 20
-221.405607
 10
-2848.758822
 20
-221.460863
 10
-2848.601737
 20
-221.514555
 10
-2848.431292
 20
-221.566774
 10
-2848.246874
 20
-221.617611
 10
-2848.048229
 20
-221.667136
 10
-2847.836566
 20
-221.71534
 10
-2847.613458
 20
-221.762193
 10
-2847.380479
 20
-221.807669
 10
-2847.139202
 20
-221.851738
 10
-2846.891199
 20
-221.894372
 10
-2846.638046
 20
-221.935543
 10
-2846.381315
 20
-221.975222
 10
-2846.12258
 20
-222.01338
 10
-2845.863414
 20
-222.049989
 10
-2845.60539
 20
-222.085021
 10
-2845.350082
 20
-222.118446
 10
-2845.099063
 20
-222.150237
 10
-2844.853906
 20
-222.180365
 10
-2844.616186
 20
-222.208802
 10
-2844.387475
 20
-222.235519
 10
-2844.169347
 20
-222.260486
 10
-2843.963375
 20
-222.283677
 10
-2843.771133
 20
-222.305063
 10
-2842.469102
 20
-222.448781
 10
-2839.363136
 20
-222.791606
 10
-2838.872785
 20
-222.845537
 10
-2838.328872
 20
-222.904224
 10
-2837.724428
 20
-222.967283
 10
-2837.052479
 20
-223.034329
 10
-2836.306055
 20
-223.104975
 10
-2835.478184
 20
-223.178837
 10
-2834.561895
 20
-223.25553
 10
-2833.550216
 20
-223.334666
 10
-2832.436176
 20
-223.415863
 10
-2831.212803
 20
-223.498733
 10
-2829.873125
 20
-223.582892
 10
-2828.410172
 20
-223.667955
 10
-2826.816973
 20
-223.753535
 10
-2825.086554
 20
-223.839248
 10
-2823.211946
 20
-223.924708
 10
-2821.186175
 20
-224.00953
 10
-2819.002273
 20
-224.093328
 10
-2816.653265
 20
-224.175718
 10
-2814.132181
 20
-224.256313
 10
-2811.43205
 20
-224.334729
 10
-2808.550163
 20
-224.410659
 10
-2805.500858
 20
-224.484116
 10
-2802.302741
 20
-224.555193
 10
-2798.974412
 20
-224.623982
 10
-2795.534473
 20
-224.690575
 10
-2792.001527
 20
-224.755064
 10
-2788.394177
 20
-224.817543
 10
-2784.731025
 20
-224.878101
 10
-2781.030674
 20
-224.936833
 10
-2777.311725
 20
-224.993831
 10
-2773.592783
 20
-225.049187
 10
-2769.892448
 20
-225.102993
 10
-2766.229322
 20
-225.155341
 10
-2762.62201
 20
-225.206324
 10
-2759.089112
 20
-225.256034
 10
-2755.649233
 20
-225.304564
 10
-2752.320973
 20
-225.352005
 10
-2749.122936
 20
-225.398448
 10
-2746.073723
 20
-225.443989
 10
-2743.191937
 20
-225.488719
 10
-2740.491919
 20
-225.532704
 10
-2737.970958
 20
-225.575913
 10
-2735.622081
 20
-225.618289
 10
-2733.438316
 20
-225.659774
 10
-2731.412691
 20
-225.700313
 10
-2729.538232
 20
-225.739848
 10
-2727.807968
 20
-225.778321
 10
-2726.214926
 20
-225.815677
 10
-2724.752132
 20
-225.851859
 10
-2723.412616
 20
-225.886808
 10
-2722.189404
 20
-225.920469
 10
-2721.075524
 20
-225.952783
 10
-2720.064002
 20
-225.983696
 10
-2719.147867
 20
-226.01315
 10
-2718.320146
 20
-226.041086
 10
-2717.573867
 20
-226.067449
 10
-2716.902057
 20
-226.092182
 10
-2716.297743
 20
-226.115227
 10
-2715.753952
 20
-226.136529
 10
-2712.158464
 20
-226.279901
 10
-2709.277987
 20
-226.827467
 10
-2708.825057
 20
-226.913977
 10
-2708.333393
 20
-227.010306
 10
-2707.807466
 20
-227.118061
 10
-2707.251749
 20
-227.23885
 10
-2706.670715
 20
-227.374278
 10
-2706.068837
 20
-227.525951
 10
-2705.450585
 20
-227.695476
 10
-2704.820434
 20
-227.884459
 10
-2704.182854
 20
-228.094507
 10
-2703.542319
 20
-228.327227
 10
-2702.903302
 20
-228.584224
 10
-2702.270274
 20
-228.867105
 10
-2701.647708
 20
-229.177478
 10
-2701.040076
 20
-229.516947
 10
-2700.451852
 20
-229.887118
 10
-2699.887506
 20
-230.2896
 10
-2699.351512
 20
-230.725999
 10
-2698.848343
 20
-231.197919
 10
-2698.38247
 20
-231.706969
 10
-2697.958366
 20
-232.254754
 10
-2697.578991
 20
-232.84191
 10
-2697.241253
 20
-233.465194
 10
-2696.940548
 20
-234.120389
 10
-2696.672272
 20
-234.80328
 10
-2696.43182
 20
-235.509653
 10
-2696.214588
 20
-236.235292
 10
-2696.015973
 20
-236.975983
 10
-2695.831369
 20
-237.72751
 10
-2695.656173
 20
-238.485657
 10
-2695.485781
 20
-239.24621
 10
-2695.315586
 20
-240.004954
 10
-2695.140987
 20
-240.757672
 10
-2694.957379
 20
-241.500153
 10
-2694.760157
 20
-242.228178
 10
-2694.544717
 20
-242.937534
 10
-2694.306456
 20
-243.624004
 10
-2694.040767
 20
-244.283375
 10
-2693.743048
 20
-244.911431
 10
-2693.408695
 20
-245.503955
 10
-2693.033102
 20
-246.056735
 10
-2692.613172
 20
-246.566586
 10
-2692.151831
 20
-247.034444
 10
-2691.653512
 20
-247.462277
 10
-2691.122648
 20
-247.852056
 10
-2690.563672
 20
-248.205746
 10
-2689.981015
 20
-248.525319
 10
-2689.379109
 20
-248.812739
 10
-2688.762391
 20
-249.069978
 10
-2688.135288
 20
-249.299003
 10
-2687.502236
 20
-249.50178
 10
-2686.867667
 20
-249.680282
 10
-2686.236014
 20
-249.836473
 10
-2685.611708
 20
-249.972323
 10
-2684.999184
 20
-250.089801
 10
-2684.402872
 20
-250.190873
 10
-2683.827207
 20
-250.27751
 10
-2683.27662
 20
-250.351679
 10
-2682.755544
 20
-250.415348
 10
-2682.268412
 20
-250.470485
 10
-2678.965723
 20
-250.825385
 10
-2678.965725
 20
-250.82496
 10
-2678.96574
 20
-250.821992
 10
-2678.965781
 20
-250.813936
 10
-2678.965861
 20
-250.798248
 10
-2678.965992
 20
-250.772383
 10
-2678.966186
 20
-250.733798
 10
-2678.966459
 20
-250.679949
 10
-2678.966822
 20
-250.608291
 10
-2678.967287
 20
-250.516281
 10
-2678.967869
 20
-250.401374
 10
-2678.96858
 20
-250.261026
 10
-2678.969433
 20
-250.092694
 10
-2678.970439
 20
-249.893833
 10
-2678.971613
 20
-249.661898
 10
-2678.972967
 20
-249.394347
 10
-2678.974515
 20
-249.088635
 10
-2678.976268
 20
-248.742218
 10
-2678.978241
 20
-248.352552
 10
-2678.980445
 20
-247.917093
 10
-2678.982894
 20
-247.433297
 10
-2678.985595
 20
-246.89989
 10
-2678.988527
 20
-246.320692
 10
-2678.991664
 20
-245.700788
 10
-2678.994983
 20
-245.045266
 10
-2678.998456
 20
-244.359217
 10
-2679.002057
 20
-243.647726
 10
-2679.005762
 20
-242.915883
 10
-2679.009544
 20
-242.168776
 10
-2679.013377
 20
-241.411492
 10
-2679.017237
 20
-240.64912
 10
-2679.021096
 20
-239.886748
 10
-2679.024929
 20
-239.129465
 10
-2679.028711
 20
-238.382357
 10
-2679.032416
 20
-237.650515
 10
-2679.036018
 20
-236.939024
 10
-2679.039491
 20
-236.252974
 10
-2679.042809
 20
-235.597453
 10
-2679.045947
 20
-234.977549
 10
-2679.04888
 20
-234.39835
 10
-2679.051579
 20
-233.864943
 10
-2679.054028
 20
-233.381147
 10
-2679.056233
 20
-232.945688
 10
-2679.058206
 20
-232.556022
 10
-2679.059959
 20
-232.209605
 10
-2679.061506
 20
-231.903893
 10
-2679.062861
 20
-231.636342
 10
-2679.064035
 20
-231.404408
 10
-2679.065042
 20
-231.205546
 10
-2679.065894
 20
-231.037215
 10
-2679.066605
 20
-230.896866
 10
-2679.067186
 20
-230.78196
 10
-2679.067652
 20
-230.68995
 10
-2679.068014
 20
-230.618292
 10
-2679.068287
 20
-230.564442
 10
-2679.068483
 20
-230.525857
 10
-2679.068613
 20
-230.499992
 10
-2679.068692
 20
-230.484304
 10
-2679.068733
 20
-230.476247
 10
-2679.068748
 20
-230.473279
 10
-2679.068751
 20
-230.472855
 10
-2679.069837
 20
-230.256072
 10
-2679.069986
 20
-230.22196
 10
-2679.070018
 20
-230.184787
 10
-2679.069799
 20
-230.144744
 10
-2679.069195
 20
-230.10202
 10
-2679.068075
 20
-230.056806
 10
-2679.066302
 20
-230.009293
 10
-2679.063745
 20
-229.959671
 10
-2679.060271
 20
-229.90813
 10
-2679.055744
 20
-229.854862
 10
-2679.050032
 20
-229.800055
 10
-2679.043001
 20
-229.743902
 10
-2679.034518
 20
-229.686594
 10
-2679.02445
 20
-229.628318
 10
-2679.012662
 20
-229.569267
 10
-2678.999022
 20
-229.509631
 10
-2678.983395
 20
-229.4496
 10
-2678.965649
 20
-229.389365
 10
-2678.945649
 20
-229.329117
 10
-2678.923264
 20
-229.269045
 10
-2678.898357
 20
-229.20934
 10
-2678.870836
 20
-229.15018
 10
-2678.840765
 20
-229.091683
 10
-2678.808244
 20
-229.033956
 10
-2678.773378
 20
-228.977104
 10
-2678.736268
 20
-228.921235
 10
-2678.697017
 20
-228.866453
 10
-2678.655729
 20
-228.812865
 10
-2678.612504
 20
-228.760576
 10
-2678.567446
 20
-228.709693
 10
-2678.520658
 20
-228.660321
 10
-2678.472241
 20
-228.612567
 10
-2678.422298
 20
-228.566537
 10
-2678.370933
 20
-228.522336
 10
-2678.318247
 20
-228.480072
 10
-2678.264344
 20
-228.439847
 10
-2678.209325
 20
-228.401772
 10
-2678.153293
 20
-228.36595
 10
-2678.096351
 20
-228.332486
 10
-2678.038602
 20
-228.301489
 10
-2677.980147
 20
-228.273062
 10
-2677.921105
 20
-228.247274
 10
-2677.861653
 20
-228.22403
 10
-2677.801982
 20
-228.203198
 10
-2677.742285
 20
-228.184643
 10
-2677.682754
 20
-228.168234
 10
-2677.623581
 20
-228.153837
 10
-2677.564958
 20
-228.141319
 10
-2677.507078
 20
-228.130547
 10
-2677.450131
 20
-228.121389
 10
-2677.394313
 20
-228.113711
 10
-2677.339812
 20
-228.107379
 10
-2677.286823
 20
-228.102262
 10
-2677.235535
 20
-228.098225
 10
-2677.186144
 20
-228.095136
 10
-2677.138839
 20
-228.092863
 10
-2677.093813
 20
-228.09127
 10
-2677.051259
 20
-228.090226
 10
-2677.011369
 20
-228.089599
 10
-2676.974334
 20
-228.089253
 10
-2676.724353
 20
-228.087955
 10
-2676.508388
 20
-228.086884
 10
-2676.474405
 20
-228.086737
 10
-2676.437374
 20
-228.08671
 10
-2676.397485
 20
-228.086934
 10
-2676.354928
 20
-228.087546
 10
-2676.309896
 20
-228.08868
 10
-2676.262576
 20
-228.09047
 10
-2676.213162
 20
-228.09305
 10
-2676.161845
 20
-228.096556
 10
-2676.108812
 20
-228.101121
 10
-2676.054258
 20
-228.106879
 10
-2675.998372
 20
-228.113967
 10
-2675.941344
 20
-228.122517
 10
-2675.883366
 20
-228.132664
 10
-2675.824628
 20
-228.144543
 10
-2675.76532
 20
-228.158289
 10
-2675.705635
 20
-228.174035
 10
-2675.645762
 20
-228.191916
 10
-2675.585892
 20
-228.212066
 10
-2675.526216
 20
-228.234621
 10
-2675.466924
 20
-228.259714
 10
-2675.408194
 20
-228.28744
 10
-2675.350143
 20
-228.317736
 10
-2675.292874
 20
-228.350497
 10
-2675.236492
 20
-228.385621
 10
-2675.181099
 20
-228.423005
 10
-2675.126799
 20
-228.462545
 10
-2675.073697
 20
-228.504136
 10
-2675.021894
 20
-228.547678
 10
-2674.971496
 20
-228.593065
 10
-2674.922607
 20
-228.640194
 10
-2674.875327
 20
-228.688962
 10
-2674.829764
 20
-228.739266
 10
-2674.786018
 20
-228.791002
 10
-2674.744194
 20
-228.844067
 10
-2674.704396
 20
-228.898356
 10
-2674.666728
 20
-228.953768
 10
-2674.631292
 20
-229.010199
 10
-2674.598192
 20
-229.067545
 10
-2674.567533
 20
-229.125703
 10
-2674.539416
 20
-229.184569
 10
-2674.513908
 20
-229.244025
 10
-2674.490916
 20
-229.303892
 10
-2674.470308
 20
-229.363979
 10
-2674.451952
 20
-229.424091
 10
-2674.435717
 20
-229.484034
 10
-2674.421472
 20
-229.543615
 10
-2674.409085
 20
-229.602642
 10
-2674.398425
 20
-229.660919
 10
-2674.38936
 20
-229.718255
 10
-2674.381758
 20
-229.774457
 10
-2674.375488
 20
-229.82933
 10
-2674.370419
 20
-229.882681
 10
-2674.366418
 20
-229.934317
 10
-2674.363356
 20
-229.984044
 10
-2674.361099
 20
-230.031671
 10
-2674.359517
 20
-230.077002
 10
-2674.358478
 20
-230.119844
 10
-2674.35785
 20
-230.160005
 10
-2674.357502
 20
-230.19729
 10
-2674.356175
 20
-230.448962
 10
-2674.356173
 20
-230.449387
 10
-2674.356157
 20
-230.452366
 10
-2674.356116
 20
-230.46045
 10
-2674.356037
 20
-230.476193
 10
-2674.355906
 20
-230.502147
 10
-2674.355709
 20
-230.540866
 10
-2674.355435
 20
-230.594903
 10
-2674.355072
 20
-230.666809
 10
-2674.354604
 20
-230.759139
 10
-2674.35402
 20
-230.874446
 10
-2674.353308
 20
-231.01528
 10
-2674.352452
 20
-231.184197
 10
-2674.351442
 20
-231.383749
 10
-2674.350264
 20
-231.616489
 10
-2674.348904
 20
-231.884969
 10
-2674.347351
 20
-232.191742
 10
-2674.345591
 20
-232.539362
 10
-2674.343611
 20
-232.930381
 10
-2674.341399
 20
-233.367354
 10
-2674.338941
 20
-233.85283
 10
-2674.336231
 20
-234.388088
 10
-2674.333288
 20
-234.9693
 10
-2674.330139
 20
-235.591356
 10
-2674.326809
 20
-236.249154
 10
-2674.323323
 20
-236.937587
 10
-2674.319709
 20
-237.651548
 10
-2674.31599
 20
-238.385932
 10
-2674.312194
 20
-239.135634
 10
-2674.308347
 20
-239.895548
 10
-2674.304474
 20
-240.660567
 10
-2674.300601
 20
-241.425587
 10
-2674.296753
 20
-242.185501
 10
-2674.292958
 20
-242.935203
 10
-2674.28924
 20
-243.669587
 10
-2674.285625
 20
-244.383549
 10
-2674.282139
 20
-245.071981
 10
-2674.278809
 20
-245.729779
 10
-2674.27566
 20
-246.351836
 10
-2674.272717
 20
-246.933046
 10
-2674.270007
 20
-247.468304
 10
-2674.267549
 20
-247.953782
 10
-2674.265337
 20
-248.390753
 10
-2674.263357
 20
-248.781772
 10
-2674.261597
 20
-249.129392
 10
-2674.260045
 20
-249.436166
 10
-2674.258685
 20
-249.704646
 10
-2674.257506
 20
-249.937386
 10
-2674.256497
 20
-250.136938
 10
-2674.255641
 20
-250.305855
 10
-2674.254928
 20
-250.44669
 10
-2674.254344
 20
-250.561996
 10
-2674.253877
 20
-250.654325
 10
-2674.253512
 20
-250.726232
 10
-2674.253239
 20
-250.780268
 10
-2674.253043
 20
-250.818988
 10
-2674.252912
 20
-250.844942
 10
-2674.252831
 20
-250.860685
 10
-2674.252791
 20
-250.86877
 10
-2674.252776
 20
-250.871748
 10
-2674.252774
 20
-250.872173
 10
-2671.376061
 20
-250.600395
 10
-2670.923802
 20
-250.557193
 10
-2670.433334
 20
-250.507541
 10
-2669.9096
 20
-250.449061
 10
-2669.35754
 20
-250.379379
 10
-2668.782098
 20
-250.29612
 10
-2668.188214
 20
-250.196909
 10
-2667.580831
 20
-250.079371
 10
-2666.96489
 20
-249.941131
 10
-2666.345333
 20
-249.779812
 10
-2665.727103
 20
-249.593042
 10
-2665.115142
 20
-249.378444
 10
-2664.514389
 20
-249.133642
 10
-2663.929789
 20
-248.856264
 10
-2663.366283
 20
-248.543932
 10
-2662.828813
 20
-248.194272
 10
-2662.322319
 20
-247.804909
 10
-2661.851746
 20
-247.373467
 10
-2661.422033
 20
-246.897573
 10
-2661.038124
 20
-246.374849
 10
-2660.70496
 20
-245.802923
 10
-2660.425678
 20
-245.180686
 10
-2660.196194
 20
-244.512107
 10
-2660.010621
 20
-243.802423
 10
-2659.863069
 20
-243.056868
 10
-2659.74765
 20
-242.28068
 10
-2659.658475
 20
-241.479096
 10
-2659.589657
 20
-240.657351
 10
-2659.535307
 20
-239.820683
 10
-2659.489535
 20
-238.974327
 10
-2659.446454
 20
-238.12352
 10
-2659.400177
 20
-237.273497
 10
-2659.344812
 20
-236.429497
 10
-2659.274472
 20
-235.596754
 10
-2659.18327
 20
-234.780506
 10
-2659.065316
 20
-233.985988
 10
-2658.914722
 20
-233.218437
 10
-2658.7256
 20
-232.48309
 10
-2658.49206
 20
-231.785183
 10
-2658.208215
 20
-231.129951
 10
-2657.868176
 20
-230.522634
 10
-2657.467965
 20
-229.967169
 10
-2657.011255
 20
-229.462321
 10
-2656.503625
 20
-229.005558
 10
-2655.950656
 20
-228.594349
 10
-2655.357931
 20
-228.226159
 10
-2654.731029
 20
-227.898458
 10
-2654.075535
 20
-227.608712
 10
-2653.397028
 20
-227.354391
 10
-2652.70109
 20
-227.132962
 10
-2651.993302
 20
-226.941893
 10
-2651.279247
 20
-226.778651
 10
-2650.564504
 20
-226.640705
 10
-2649.854657
 20
-226.525522
 10
-2649.155285
 20
-226.43057
 10
-2648.471971
 20
-226.353319
 10
-2647.810296
 20
-226.291233
 10
-2647.175842
 20
-226.241783
 10
-2646.574189
 20
-226.202435
 10
-2646.01092
 20
-226.170658
 10
-2642.188538
 20
-225.976829
 10
-2639.01994
 20
-225.822818
 10
-2638.519733
 20
-225.798559
 10
-2637.965071
 20
-225.771971
 10
-2637.349033
 20
-225.743036
 10
-2636.664692
 20
-225.711737
 10
-2635.905126
 20
-225.678055
 10
-2635.06341
 20
-225.641973
 10
-2634.132619
 20
-225.603471
 10
-2633.10583
 20
-225.562532
 10
-2631.976118
 20
-225.519139
 10
-2630.736559
 20
-225.473271
 10
-2629.38023
 20
-225.424913
 10
-2627.900204
 20
-225.374045
 10
-2626.289559
 20
-225.320649
 10
-2624.54137
 20
-225.264707
 10
-2622.648713
 20
-225.206201
 10
-2620.604663
 20
-225.145113
 10
-2618.402297
 20
-225.081424
 10
-2616.034691
 20
-225.015118
 10
-2613.494918
 20
-224.946175
 10
-2610.776057
 20
-224.874577
 10
-2607.875437
 20
-224.800324
 10
-2604.807406
 20
-224.723496
 10
-2601.590566
 20
-224.644188
 10
-2598.243519
 20
-224.562496
 10
-2594.784869
 20
-224.478517
 10
-2591.233218
 20
-224.392346
 10
-2587.607166
 20
-224.304081
 10
-2583.925318
 20
-224.213817
 10
-2580.206276
 20
-224.121651
 10
-2576.468641
 20
-224.02768
 10
-2572.731017
 20
-223.931999
 10
-2569.012006
 20
-223.834705
 10
-2565.330209
 20
-223.735895
 10
-2561.704231
 20
-223.635664
 10
-2558.152671
 20
-223.534109
 10
-2554.694134
 20
-223.431326
 10
-2551.347221
 20
-223.327412
 10
-2548.130535
 20
-223.222464
 10
-2545.062679
 20
-223.116576
 10
-2542.162254
 20
-223.009846
 10
-2539.443608
 20
-222.902408
 10
-2536.904071
 20
-222.794548
 10
-2534.536714
 20
-222.68659
 10
-2532.334614
 20
-222.578856
 10
-2530.290842
 20
-222.471672
 10
-2528.398472
 20
-222.365361
 10
-2526.650578
 20
-222.260246
 10
-2525.040236
 20
-222.156652
 10
-2523.560516
 20
-222.0549
 10
-2522.204494
 20
-221.955318
 10
-2520.965243
 20
-221.858227
 10
-2519.835838
 20
-221.76395
 10
-2518.809351
 20
-221.672813
 10
-2517.878855
 20
-221.585139
 10
-2517.037427
 20
-221.50125
 10
-2516.278139
 20
-221.421473
 10
-2515.594063
 20
-221.346129
 10
-2514.978275
 20
-221.275543
 10
-2514.423848
 20
-221.210037
 10
-2510.756629
 20
-220.76801
 10
-2509.632975
 20
-220.632483
 10
-2509.456256
 20
-220.611146
 10
-2509.264221
 20
-220.587819
 10
-2509.05841
 20
-220.562547
 10
-2508.840362
 20
-220.535375
 10
-2508.611614
 20
-220.506348
 10
-2508.373709
 20
-220.475508
 10
-2508.128183
 20
-220.4429
 10
-2507.876577
 20
-220.40857
 10
-2507.620429
 20
-220.37256
 10
-2507.361279
 20
-220.334914
 10
-2507.100665
 20
-220.295678
 10
-2506.840127
 20
-220.254895
 10
-2506.581205
 20
-220.212609
 10
-2506.325436
 20
-220.168865
 10
-2506.074361
 20
-220.123706
 10
-2505.829519
 20
-220.077178
 10
-2505.592448
 20
-220.029325
 10
-2505.364688
 20
-219.980189
 10
-2505.147778
 20
-219.929816
 10
-2504.943257
 20
-219.87825
 10
-2504.752316
 20
-219.825512
 10
-2504.574756
 20
-219.771528
 10
-2504.410026
 20
-219.716204
 10
-2504.257579
 20
-219.659442
 10
-2504.116867
 20
-219.601148
 10
-2503.98734
 20
-219.541225
 10
-2503.86845
 20
-219.479577
 10
-2503.759649
 20
-219.416109
 10
-2503.660388
 20
-219.350722
 10
-2503.570118
 20
-219.283324
 10
-2503.488292
 20
-219.213817
 10
-2503.41436
 20
-219.142105
 10
-2503.347773
 20
-219.068092
 10
-2503.287985
 20
-218.991682
 10
-2503.234445
 20
-218.91278
 10
-2503.186605
 20
-218.831289
 10
-2503.143918
 20
-218.747113
 10
-2503.105833
 20
-218.660157
 10
-2503.071803
 20
-218.570324
 10
-2503.04128
 20
-218.477518
 10
-2503.013781
 20
-218.381738
 10
-2502.98909
 20
-218.283354
 10
-2502.967058
 20
-218.182834
 10
-2502.947535
 20
-218.080643
 10
-2502.930372
 20
-217.977249
 10
-2502.915419
 20
-217.873114
 10
-2502.902527
 20
-217.768707
 10
-2502.891548
 20
-217.664493
 10
-2502.88233
 20
-217.560938
 10
-2502.874726
 20
-217.458508
 10
-2502.868584
 20
-217.357669
 10
-2502.863756
 20
-217.258887
 10
-2502.860093
 20
-217.162627
 10
-2502.857444
 20
-217.069356
 10
-2502.855661
 20
-216.979541
 10
-2502.854593
 20
-216.893646
 10
-2502.854093
 20
-216.812137
 10
-2502.85401
 20
-216.735482
 10
-2502.854193
 20
-216.664145
 10
-2502.856576
 20
-216.181892
  0
LWPOLYLINE
  5
2E
330
1F
100
AcDbEntity
  8
0
100
AcDbPolyline
 90
      791
 70
   128
 43
0.0
 10
-2220.006774
 20
-469.379332
 10
-2220.006774
 20
-469.796095
 10
-2220.006756
 20
-469.861673
 10
-2220.006628
 20
-469.933134
 10
-2220.006281
 20
-470.010107
 10
-2220.005606
 20
-470.092223
 10
-2220.004493
 20
-470.179113
 10
-2220.002833
 20
-470.270407
 10
-2220.000516
 20
-470.365736
 10
-2219.997432
 20
-470.46473
 10
-2219.993473
 20
-470.567021
 10
-2219.988529
 20
-470.672238
 10
-2219.982489
 20
-470.780012
 10
-2219.975246
 20
-470.889974
 10
-2219.966689
 20
-471.001754
 10
-2219.956709
 20
-471.114983
 10
-2219.945196
 20
-471.229291
 10
-2219.932041
 20
-471.344309
 10
-2219.917135
 20
-471.459668
 10
-2219.900368
 20
-471.574998
 10
-2219.88163
 20
-471.689929
 10
-2219.860812
 20
-471.804093
 10
-2219.837713
 20
-471.917148
 10
-2219.811762
 20
-472.028867
 10
-2219.782298
 20
-472.139051
 10
-2219.748659
 20
-472.247502
 10
-2219.710183
 20
-472.354019
 10
-2219.666208
 20
-472.458406
 10
-2219.616072
 20
-472.560462
 10
-2219.559113
 20
-472.659989
 10
-2219.494669
 20
-472.756787
 10
-2219.422079
 20
-472.850659
 10
-2219.34068
 20
-472.941406
 10
-2219.249811
 20
-473.028827
 10
-2219.148809
 20
-473.112726
 10
-2219.037013
 20
-473.192902
 10
-2218.913761
 20
-473.269156
 10
-2218.778391
 20
-473.341291
 10
-2218.630241
 20
-473.409107
 10
-2218.468649
 20
-473.472406
 10
-2218.292952
 20
-473.530988
 10
-2218.102491
 20
-473.584654
 10
-2217.896987
 20
-473.633282
 10
-2217.677707
 20
-473.677051
 10
-2217.446305
 20
-473.716218
 10
-2217.204431
 20
-473.751037
 10
-2216.953739
 20
-473.781766
 10
-2216.695881
 20
-473.808658
 10
-2216.432508
 20
-473.83197
 10
-2216.165273
 20
-473.851959
 10
-2215.895828
 20
-473.868878
 10
-2215.625826
 20
-473.882985
 10
-2215.356918
 20
-473.894535
 10
-2215.090758
 20
-473.903783
 10
-2214.828996
 20
-473.910985
 10
-2214.573286
 20
-473.916398
 10
-2214.32528
 20
-473.920276
 10
-2214.08663
 20
-473.922876
 10
-2213.858988
 20
-473.924453
 10
-2213.644006
 20
-473.925263
 10
-2213.443337
 20
-473.925561
 10
-2212.084158
 20
-473.925604
 10
-2212.080348
 20
-473.925604
 10
-2212.053675
 20
-473.925604
 10
-2211.981276
 20
-473.925604
 10
-2211.840288
 20
-473.925604
 10
-2211.607849
 20
-473.925604
 10
-2211.261096
 20
-473.925604
 10
-2210.777166
 20
-473.925604
 10
-2210.133196
 20
-473.925604
 10
-2209.306323
 20
-473.925604
 10
-2208.273685
 20
-473.925604
 10
-2207.012418
 20
-473.925604
 10
-2205.49966
 20
-473.925604
 10
-2203.712548
 20
-473.925604
 10
-2201.62822
 20
-473.925604
 10
-2199.223811
 20
-473.925604
 10
-2196.47646
 20
-473.925604
 10
-2193.363303
 20
-473.925604
 10
-2189.861478
 20
-473.925604
 10
-2185.948122
 20
-473.925604
 10
-2181.600372
 20
-473.925604
 10
-2176.806796
 20
-473.925604
 10
-2171.60169
 20
-473.925604
 10
-2166.030778
 20
-473.925604
 10
-2160.139786
 20
-473.925604
 10
-2153.97444
 20
-473.925604
 10
-2147.580466
 20
-473.925604
 10
-2141.003589
 20
-473.925604
 10
-2134.289535
 20
-473.925604
 10
-2127.48403
 20
-473.925604
 10
-2120.632799
 20
-473.925604
 10
-2113.781568
 20
-473.925604
 10
-2106.976063
 20
-473.925604
 10
-2100.262009
 20
-473.925604
 10
-2093.685132
 20
-473.925604
 10
-2087.291157
 20
-473.925604
 10
-2081.125812
 20
-473.925604
 10
-2075.23482
 20
-473.925604
 10
-2069.663908
 20
-473.925604
 10
-2064.458801
 20
-473.925604
 10
-2059.665226
 20
-473.925604
 10
-2055.317476
 20
-473.925604
 10
-2051.40412
 20
-473.925604
 10
-2047.902295
 20
-473.925604
 10
-2044.789138
 20
-473.925604
 10
-2042.041787
 20
-473.925604
 10
-2039.637378
 20
-473.925604
 10
-2037.553049
 20
-473.925604
 10
-2035.765937
 20
-473.925604
 10
-2034.253179
 20
-473.925604
 10
-2032.991913
 20
-473.925604
 10
-2031.959274
 20
-473.925604
 10
-2031.132402
 20
-473.925604
 10
-2030.488432
 20
-473.925604
 10
-2030.004502
 20
-473.925604
 10
-2029.657749
 20
-473.925604
 10
-2029.42531
 20
-473.925604
 10
-2029.284322
 20
-473.925604
 10
-2029.211923
 20
-473.925604
 10
-2029.18525
 20
-473.925604
 10
-2029.181439
 20
-473.925604
 10
-2028.006883
 20
-473.925604
 10
-2027.822171
 20
-473.925561
 10
-2027.621527
 20
-473.925263
 10
-2027.406636
 20
-473.924453
 10
-2027.179185
 20
-473.922876
 10
-2026.940859
 20
-473.920276
 10
-2026.693344
 20
-473.916398
 10
-2026.438326
 20
-473.910985
 10
-2026.177492
 20
-473.903783
 10
-2025.912526
 20
-473.894535
 10
-2025.645115
 20
-473.882985
 10
-2025.376945
 20
-473.868878
 10
-2025.109701
 20
-473.851959
 10
-2024.84507
 20
-473.83197
 10
-2024.584737
 20
-473.808658
 10
-2024.330389
 20
-473.781766
 10
-2024.083711
 20
-473.751037
 10
-2023.84639
 20
-473.716218
 10
-2023.62011
 20
-473.677051
 10
-2023.406558
 20
-473.633282
 10
-2023.207421
 20
-473.584654
 10
-2023.02398
 20
-473.530988
 10
-2022.855911
 20
-473.472406
 10
-2022.702483
 20
-473.409107
 10
-2022.562968
 20
-473.341291
 10
-2022.436636
 20
-473.269156
 10
-2022.322759
 20
-473.192902
 10
-2022.220607
 20
-473.112726
 10
-2022.129452
 20
-473.028827
 10
-2022.048563
 20
-472.941406
 10
-2021.977214
 20
-472.850659
 10
-2021.914673
 20
-472.756787
 10
-2021.860212
 20
-472.659989
 10
-2021.813103
 20
-472.560462
 10
-2021.772615
 20
-472.458406
 10
-2021.738021
 20
-472.354019
 10
-2021.70859
 20
-472.247502
 10
-2021.683594
 20
-472.139051
 10
-2021.662304
 20
-472.028867
 10
-2021.64399
 20
-471.917148
 10
-2021.627924
 20
-471.804093
 10
-2021.613486
 20
-471.689929
 10
-2021.600489
 20
-471.574998
 10
-2021.58886
 20
-471.459668
 10
-2021.578522
 20
-471.344309
 10
-2021.569398
 20
-471.229291
 10
-2021.561413
 20
-471.114983
 10
-2021.554491
 20
-471.001754
 10
-2021.548556
 20
-470.889974
 10
-2021.543532
 20
-470.780012
 10
-2021.539344
 20
-470.672238
 10
-2021.535914
 20
-470.567021
 10
-2021.533168
 20
-470.46473
 10
-2021.53103
 20
-470.365736
 10
-2021.529423
 20
-470.270407
 10
-2021.528271
 20
-470.179113
 10
-2021.527499
 20
-470.092223
 10
-2021.527031
 20
-470.010107
 10
-2021.52679
 20
-469.933134
 10
-2021.526702
 20
-469.861673
 10
-2021.526689
 20
-469.379332
 10
-2021.526689
 20
-468.962612
 10
-2021.526708
 20
-468.897056
 10
-2021.52684
 20
-468.825716
 10
-2021.527197
 20
-468.74906
 10
-2021.527894
 20
-468.667554
 10
-2021.529042
 20
-468.581666
 10
-2021.530754
 20
-468.491862
 10
-2021.533144
 20
-468.39861
 10
-2021.536324
 20
-468.302376
 10
-2021.540408
 20
-468.203628
 10
-2021.545508
 20
-468.102833
 10
-2021.551737
 20
-468.000457
 10
-2021.559208
 20
-467.896969
 10
-2021.568034
 20
-467.792834
 10
-2021.578328
 20
-467.68852
 10
-2021.590203
 20
-467.584494
 10
-2021.603771
 20
-467.481223
 10
-2021.619146
 20
-467.379175
 10
-2021.63644
 20
-467.278815
 10
-2021.655767
 20
-467.180612
 10
-2021.67724
 20
-467.085032
 10
-2021.701054
 20
-466.992449
 10
-2021.727745
 20
-466.902862
 10
-2021.757931
 20
-466.816177
 10
-2021.792229
 20
-466.7323
 10
-2021.831258
 20
-466.651136
 10
-2021.875635
 20
-466.572592
 10
-2021.92598
 20
-466.496572
 10
-2021.982909
 20
-466.422984
 10
-2022.047042
 20
-466.351732
 10
-2022.118995
 20
-466.282722
 10
-2022.199388
 20
-466.215861
 10
-2022.288839
 20
-466.151054
 10
-2022.387965
 20
-466.088206
 10
-2022.497384
 20
-466.027224
 10
-2022.617716
 20
-465.968014
 10
-2022.749577
 20
-465.91048
 10
-2022.893586
 20
-465.854529
 10
-2023.050361
 20
-465.800067
 10
-2023.22052
 20
-465.747
 10
-2023.404682
 20
-465.695232
 10
-2023.603098
 20
-465.644693
 10
-2023.81456
 20
-465.595397
 10
-2024.037493
 20
-465.547382
 10
-2024.270321
 20
-465.500685
 10
-2024.511469
 20
-465.455344
 10
-2024.759363
 20
-465.411396
 10
-2025.012428
 20
-465.368878
 10
-2025.269088
 20
-465.327829
 10
-2025.527769
 20
-465.288285
 10
-2025.786896
 20
-465.250283
 10
-2026.044894
 20
-465.213862
 10
-2026.300188
 20
-465.179059
 10
-2026.551203
 20
-465.14591
 10
-2026.796364
 20
-465.114454
 10
-2027.034096
 20
-465.084728
 10
-2027.262824
 20
-465.056769
 10
-2027.480973
 20
-465.030615
 10
-2027.686968
 20
-465.006304
 10
-2027.879235
 20
-464.983871
 10
-2029.181439
 20
-464.833061
 10
-2032.286033
 20
-464.473716
 10
-2032.774618
 20
-464.417178
 10
-2033.307444
 20
-464.355602
 10
-2033.882181
 20
-464.289339
 10
-2034.496503
 20
-464.218742
 10
-2035.148079
 20
-464.144162
 10
-2035.834581
 20
-464.065952
 10
-2036.553682
 20
-463.984463
 10
-2037.303053
 20
-463.900047
 10
-2038.080364
 20
-463.813057
 10
-2038.883288
 20
-463.723843
 10
-2039.709496
 20
-463.632759
 10
-2040.55666
 20
-463.540155
 10
-2041.422451
 20
-463.446384
 10
-2042.304541
 20
-463.351798
 10
-2043.200601
 20
-463.256748
 10
-2044.108302
 20
-463.161587
 10
-2045.025317
 20
-463.066667
 10
-2045.949317
 20
-462.972339
 10
-2046.877973
 20
-462.878955
 10
-2047.808957
 20
-462.786867
 10
-2048.740329
 20
-462.696369
 10
-2049.671699
 20
-462.607519
 10
-2050.60307
 20
-462.520316
 10
-2051.53444
 20
-462.434762
 10
-2052.465809
 20
-462.350855
 10
-2053.397178
 20
-462.268596
 10
-2054.328546
 20
-462.187985
 10
-2055.259914
 20
-462.109021
 10
-2056.191282
 20
-462.031704
 10
-2057.122649
 20
-461.956035
 10
-2058.054016
 20
-461.882013
 10
-2058.985382
 20
-461.809637
 10
-2059.916749
 20
-461.738909
 10
-2060.848115
 20
-461.669828
 10
-2061.779481
 20
-461.602394
 10
-2062.710847
 20
-461.536606
 10
-2063.642213
 20
-461.472465
 10
-2064.573578
 20
-461.409971
 10
-2065.504944
 20
-461.349123
 10
-2066.43631
 20
-461.289921
 10
-2067.367287
 20
-461.232369
 10
-2068.295936
 20
-461.176486
 10
-2069.219928
 20
-461.122295
 10
-2070.136935
 20
-461.069817
 10
-2071.044629
 20
-461.019075
 10
-2071.94068
 20
-460.970092
 10
-2072.822761
 20
-460.922889
 10
-2073.688543
 20
-460.877491
 10
-2074.535697
 20
-460.833919
 10
-2075.361896
 20
-460.792195
 10
-2076.164811
 20
-460.752342
 10
-2076.942113
 20
-460.714382
 10
-2077.691474
 20
-460.678339
 10
-2078.410566
 20
-460.644234
 10
-2079.09706
 20
-460.61209
 10
-2079.748628
 20
-460.58193
 10
-2080.362941
 20
-460.553775
 10
-2080.937671
 20
-460.527649
 10
-2081.47049
 20
-460.503573
 10
-2085.063621
 20
-460.341851
 10
-2087.941355
 20
-459.779706
 10
-2088.393851
 20
-459.690904
 10
-2088.885033
 20
-459.592086
 10
-2089.41042
 20
-459.481669
 10
-2089.965531
 20
-459.358068
 10
-2090.545885
 20
-459.2197
 10
-2091.147002
 20
-459.064982
 10
-2091.764402
 20
-458.892329
 10
-2092.393603
 20
-458.700157
 10
-2093.030126
 20
-458.486884
 10
-2093.669489
 20
-458.250925
 10
-2094.307212
 20
-457.990696
 10
-2094.938815
 20
-457.704615
 10
-2095.559816
 20
-457.391097
 10
-2096.165736
 20
-457.048558
 10
-2096.752092
 20
-456.675414
 10
-2097.314406
 20
-456.270083
 10
-2097.848196
 20
-455.83098
 10
-2098.348982
 20
-455.356521
 10
-2098.812283
 20
-454.845123
 10
-2099.233618
 20
-454.295203
 10
-2099.610025
 20
-453.706138
 10
-2099.944611
 20
-453.081158
 10
-2100.242003
 20
-452.424455
 10
-2100.506825
 20
-451.740221
 10
-2100.743703
 20
-451.032646
 10
-2100.957263
 20
-450.305924
 10
-2101.15213
 20
-449.564245
 10
-2101.33293
 20
-448.811801
 10
-2101.504289
 20
-448.052784
 10
-2101.670832
 20
-447.291385
 10
-2101.837184
 20
-446.531797
 10
-2102.007972
 20
-445.778211
 10
-2102.18782
 20
-445.034818
 10
-2102.381355
 20
-444.305811
 10
-2102.593201
 20
-443.595381
 10
-2102.827986
 20
-442.907719
 10
-2103.090333
 20
-442.247018
 10
-2103.384869
 20
-441.617469
 10
-2103.716219
 20
-441.023264
 10
-2104.089009
 20
-440.468594
 10
-2104.506354
 20
-439.956628
 10
-2104.965321
 20
-439.486444
 10
-2105.461468
 20
-439.056096
 10
-2105.990353
 20
-438.663637
 10
-2106.547534
 20
-438.307122
 10
-2107.128567
 20
-437.984606
 10
-2107.72901
 20
-437.694142
 10
-2108.344421
 20
-437.433785
 10
-2108.970357
 20
-437.201589
 10
-2109.602376
 20
-436.995608
 10
-2110.236035
 20
-436.813897
 10
-2110.866891
 20
-436.654509
 10
-2111.490503
 20
-436.515499
 10
-2112.102426
 20
-436.394921
 10
-2112.69822
 20
-436.290829
 10
-2113.273441
 20
-436.201278
 10
-2113.823647
 20
-436.124322
 10
-2114.344395
 20
-436.058015
 10
-2114.831243
 20
-436.00041
 10
-2118.132102
 20
-435.628787
 10
-2118.132102
 20
-435.629211
 10
-2118.132102
 20
-435.632179
 10
-2118.132102
 20
-435.640235
 10
-2118.132102
 20
-435.655924
 10
-2118.132102
 20
-435.681789
 10
-2118.132102
 20
-435.720374
 10
-2118.132102
 20
-435.774224
 10
-2118.132102
 20
-435.845883
 10
-2118.132102
 20
-435.937895
 10
-2118.132102
 20
-436.052804
 10
-2118.132102
 20
-436.193153
 10
-2118.132102
 20
-436.361488
 10
-2118.132102
 20
-436.560352
 10
-2118.132102
 20
-436.792289
 10
-2118.132102
 20
-437.059844
 10
-2118.132102
 20
-437.36556
 10
-2118.132102
 20
-437.711982
 10
-2118.132102
 20
-438.101653
 10
-2118.132102
 20
-438.537119
 10
-2118.132102
 20
-439.020922
 10
-2118.132102
 20
-439.554335
 10
-2118.132102
 20
-440.133542
 10
-2118.132102
 20
-440.753455
 10
-2118.132102
 20
-441.408985
 10
-2118.132102
 20
-442.095044
 10
-2118.132102
 20
-442.806545
 10
-2118.132102
 20
-443.538398
 10
-2118.132102
 20
-444.285516
 10
-2118.132102
 20
-445.04281
 10
-2118.132102
 20
-445.805192
 10
-2118.132102
 20
-446.567574
 10
-2118.132102
 20
-447.324869
 10
-2118.132102
 20
-448.071986
 10
-2118.132102
 20
-448.80384
 10
-2118.132102
 20
-449.51534
 10
-2118.132102
 20
-450.201399
 10
-2118.132102
 20
-450.856929
 10
-2118.132102
 20
-451.476842
 10
-2118.132102
 20
-452.056049
 10
-2118.132102
 20
-452.589462
 10
-2118.132102
 20
-453.073266
 10
-2118.132102
 20
-453.508731
 10
-2118.132102
 20
-453.898402
 10
-2118.132102
 20
-454.244824
 10
-2118.132102
 20
-454.55054
 10
-2118.132102
 20
-454.818095
 10
-2118.132102
 20
-455.050032
 10
-2118.132102
 20
-455.248896
 10
-2118.132102
 20
-455.417231
 10
-2118.132102
 20
-455.557581
 10
-2118.132102
 20
-455.672489
 10
-2118.132102
 20
-455.764501
 10
-2118.132102
 20
-455.83616
 10
-2118.132102
 20
-455.89001
 10
-2118.132102
 20
-455.928595
 10
-2118.132102
 20
-455.95446
 10
-2118.132102
 20
-455.970149
 10
-2118.132102
 20
-455.978205
 10
-2118.132102
 20
-455.981173
 10
-2118.132102
 20
-455.981597
 10
-2118.132102
 20
-456.198329
 10
-2118.132124
 20
-456.232432
 10
-2118.132278
 20
-456.269595
 10
-2118.132698
 20
-456.309627
 10
-2118.133515
 20
-456.352337
 10
-2118.134862
 20
-456.397534
 10
-2118.136872
 20
-456.445026
 10
-2118.139677
 20
-456.494622
 10
-2118.143409
 20
-456.546132
 10
-2118.148201
 20
-456.599365
 10
-2118.154186
 20
-456.654129
 10
-2118.161496
 20
-456.710233
 10
-2118.170264
 20
-456.767486
 10
-2118.180621
 20
-456.825698
 10
-2118.192701
 20
-456.884676
 10
-2118.206637
 20
-456.94423
 10
-2118.222559
 20
-457.00417
 10
-2118.240602
 20
-457.064303
 10
-2118.260898
 20
-457.124439
 10
-2118.283579
 20
-457.184386
 10
-2118.308777
 20
-457.243955
 10
-2118.336586
 20
-457.302967
 10
-2118.366943
 20
-457.361303
 10
-2118.399743
 20
-457.418857
 10
-2118.434884
 20
-457.475525
 10
-2118.472264
 20
-457.5312
 10
-2118.511778
 20
-457.585777
 10
-2118.553325
 20
-457.639151
 10
-2118.5968
 20
-457.691216
 10
-2118.642102
 20
-457.741866
 10
-2118.689126
 20
-457.790996
 10
-2118.737771
 20
-457.838501
 10
-2118.787932
 20
-457.884275
 10
-2118.839507
 20
-457.928212
 10
-2118.892393
 20
-457.970208
 10
-2118.946486
 20
-458.010155
 10
-2119.001685
 20
-458.04795
 10
-2119.057885
 20
-458.083487
 10
-2119.114984
 20
-458.116659
 10
-2119.172879
 20
-458.147362
 10
-2119.231466
 20
-458.17549
 10
-2119.290628
 20
-458.200977
 10
-2119.350189
 20
-458.223918
 10
-2119.409956
 20
-458.244446
 10
-2119.469738
 20
-458.262696
 10
-2119.529345
 20
-458.278801
 10
-2119.588583
 20
-458.292896
 10
-2119.647263
 20
-458.305115
 10
-2119.705192
 20
-458.315591
 10
-2119.762178
 20
-458.324459
 10
-2119.818031
 20
-458.331853
 10
-2119.872559
 20
-458.337906
 10
-2119.925571
 20
-458.342754
 10
-2119.976874
 20
-458.346529
 10
-2120.026278
 20
-458.349366
 10
-2120.073591
 20
-458.351398
 10
-2120.118622
 20
-458.352761
 10
-2120.161178
 20
-458.353587
 10
-2120.201069
 20
-458.354012
 10
-2120.238104
 20
-458.354168
 10
-2120.488077
 20
-458.354191
 10
-2120.704064
 20
-458.354191
 10
-2120.73805
 20
-458.354168
 10
-2120.775085
 20
-458.354013
 10
-2120.814976
 20
-458.35359
 10
-2120.857533
 20
-458.352767
 10
-2120.902564
 20
-458.351409
 10
-2120.949878
 20
-458.349385
 10
-2120.999284
 20
-458.346559
 10
-2121.050589
 20
-458.342799
 10
-2121.103603
 20
-458.33797
 10
-2121.158133
 20
-458.331941
 10
-2121.21399
 20
-458.324576
 10
-2121.270981
 20
-458.315743
 10
-2121.328914
 20
-458.305308
 10
-2121.387599
 20
-458.293137
 10
-2121.446844
 20
-458.279098
 10
-2121.506458
 20
-458.263055
 10
-2121.566249
 20
-458.244877
 10
-2121.626026
 20
-458.22443
 10
-2121.685597
 20
-458.201579
 10
-2121.744771
 20
-458.176192
 10
-2121.803371
 20
-458.148175
 10
-2121.86128
 20
-458.117591
 10
-2121.918394
 20
-458.084546
 10
-2121.97461
 20
-458.049142
 10
-2122.029826
 20
-458.011484
 10
-2122.083937
 20
-457.971676
 10
-2122.13684
 20
-457.929821
 10
-2122.188434
 20
-457.886023
 10
-2122.238613
 20
-457.840387
 10
-2122.287276
 20
-457.793017
 10
-2122.334319
 20
-457.744015
 10
-2122.379639
 20
-457.693487
 10
-2122.423133
 20
-457.641536
 10
-2122.464697
 20
-457.588266
 10
-2122.504229
 20
-457.53378
 10
-2122.541625
 20
-457.478184
 10
-2122.576782
 20
-457.42158
 10
-2122.609598
 20
-457.364073
 10
-2122.639968
 20
-457.305767
 10
-2122.667791
 20
-457.246765
 10
-2122.693001
 20
-457.187187
 10
-2122.715692
 20
-457.12721
 10
-2122.735997
 20
-457.067026
 10
-2122.754049
 20
-457.006829
 10
-2122.769979
 20
-456.946811
 10
-2122.783921
 20
-456.887164
 10
-2122.796006
 20
-456.828082
 10
-2122.806369
 20
-456.769757
 10
-2122.815141
 20
-456.712382
 10
-2122.822454
 20
-456.656149
 10
-2122.828442
 20
-456.601251
 10
-2122.833236
 20
-456.547881
 10
-2122.83697
 20
-456.496231
 10
-2122.839776
 20
-456.446494
 10
-2122.841787
 20
-456.398862
 10
-2122.843135
 20
-456.353529
 10
-2122.843952
 20
-456.310687
 10
-2122.844372
 20
-456.270528
 10
-2122.844527
 20
-456.233245
 10
-2122.844549
 20
-455.981597
 10
-2122.844549
 20
-455.981172
 10
-2122.844549
 20
-455.978194
 10
-2122.844549
 20
-455.970109
 10
-2122.844549
 20
-455.954366
 10
-2122.844549
 20
-455.928412
 10
-2122.844549
 20
-455.889693
 10
-2122.844549
 20
-455.835656
 10
-2122.844549
 20
-455.763749
 10
-2122.844549
 20
-455.671419
 10
-2122.844549
 20
-455.556113
 10
-2122.844549
 20
-455.415278
 10
-2122.844549
 20
-455.24636
 10
-2122.844549
 20
-455.046808
 10
-2122.844549
 20
-454.814068
 10
-2122.844549
 20
-454.545588
 10
-2122.844549
 20
-454.238813
 10
-2122.844549
 20
-453.891193
 10
-2122.844549
 20
-453.500173
 10
-2122.844549
 20
-453.0632
 10
-2122.844549
 20
-452.577723
 10
-2122.844549
 20
-452.042463
 10
-2122.844549
 20
-451.461252
 10
-2122.844549
 20
-450.839193
 10
-2122.844549
 20
-450.181395
 10
-2122.844549
 20
-449.492961
 10
-2122.844549
 20
-448.778998
 10
-2122.844549
 20
-448.044612
 10
-2122.844549
 20
-447.294909
 10
-2122.844549
 20
-446.534994
 10
-2122.844549
 20
-445.769973
 10
-2122.844549
 20
-445.004952
 10
-2122.844549
 20
-444.245037
 10
-2122.844549
 20
-443.495333
 10
-2122.844549
 20
-442.760947
 10
-2122.844549
 20
-442.046985
 10
-2122.844549
 20
-441.358551
 10
-2122.844549
 20
-440.700752
 10
-2122.844549
 20
-440.078694
 10
-2122.844549
 20
-439.497482
 10
-2122.844549
 20
-438.962223
 10
-2122.844549
 20
-438.476745
 10
-2122.844549
 20
-438.039773
 10
-2122.844549
 20
-437.648753
 10
-2122.844549
 20
-437.301132
 10
-2122.844549
 20
-436.994358
 10
-2122.844549
 20
-436.725877
 10
-2122.844549
 20
-436.493137
 10
-2122.844549
 20
-436.293585
 10
-2122.844549
 20
-436.124668
 10
-2122.844549
 20
-435.983832
 10
-2122.844549
 20
-435.868526
 10
-2122.844549
 20
-435.776196
 10
-2122.844549
 20
-435.704289
 10
-2122.844549
 20
-435.650253
 10
-2122.844549
 20
-435.611534
 10
-2122.844549
 20
-435.585579
 10
-2122.844549
 20
-435.569836
 10
-2122.844549
 20
-435.561752
 10
-2122.844549
 20
-435.558773
 10
-2122.844549
 20
-435.558348
 10
-2125.722614
 20
-435.815466
 10
-2126.175087
 20
-435.856362
 10
-2126.665802
 20
-435.903515
 10
-2127.189828
 20
-435.959325
 10
-2127.742236
 20
-436.026193
 10
-2128.318095
 20
-436.106518
 10
-2128.912477
 20
-436.202701
 10
-2129.52045
 20
-436.317142
 10
-2130.137086
 20
-436.452242
 10
-2130.757454
 20
-436.6104
 10
-2131.376625
 20
-436.794017
 10
-2131.989669
 20
-437.005492
 10
-2132.591656
 20
-437.247227
 10
-2133.177656
 20
-437.521621
 10
-2133.74274
 20
-437.831075
 10
-2134.281977
 20
-438.177989
 10
-2134.790439
 20
-438.564762
 10
-2135.263194
 20
-438.993796
 10
-2135.695313
 20
-439.46749
 10
-2136.081867
 20
-439.988245
 10
-2136.417926
 20
-440.558461
 10
-2136.700358
 20
-441.17926
 10
-2136.933226
 20
-441.846654
 10
-2137.122393
 20
-442.555377
 10
-2137.273721
 20
-443.300162
 10
-2137.39307
 20
-444.075744
 10
-2137.486304
 20
-444.876856
 10
-2137.559283
 20
-445.698232
 10
-2137.617871
 20
-446.534605
 10
-2137.667928
 20
-447.38071
 10
-2137.715316
 20
-448.231281
 10
-2137.765898
 20
-449.08105
 10
-2137.825535
 20
-449.924753
 10
-2137.900088
 20
-450.757123
 10
-2137.995421
 20
-451.572893
 10
-2138.117394
 20
-452.366797
 10
-2138.27187
 20
-453.13357
 10
-2138.464711
 20
-453.867945
 10
-2138.701777
 20
-454.564656
 10
-2138.988932
 20
-455.218436
 10
-2139.332037
 20
-455.82402
 10
-2139.735048
 20
-456.377445
 10
-2140.194303
 20
-456.879969
 10
-2140.704233
 20
-457.33415
 10
-2141.259269
 20
-457.74255
 10
-2141.853842
 20
-458.107728
 10
-2142.482386
 20
-458.432246
 10
-2143.13933
 20
-458.718663
 10
-2143.819107
 20
-458.96954
 10
-2144.516148
 20
-459.187438
 10
-2145.224885
 20
-459.374916
 10
-2145.939748
 20
-459.534535
 10
-2146.655171
 20
-459.668856
 10
-2147.365583
 20
-459.780438
 10
-2148.065417
 20
-459.871843
 10
-2148.749105
 20
-459.94563
 10
-2149.411077
 20
-460.004361
 10
-2150.045765
 20
-460.050594
 10
-2150.647601
 20
-460.086891
 10
-2151.211017
 20
-460.115813
 10
-2155.034282
 20
-460.290262
 10
-2158.203651
 20
-460.428205
 10
-2158.70243
 20
-460.449928
 10
-2159.246373
 20
-460.473702
 10
-2159.833103
 20
-460.499511
 10
-2160.460242
 20
-460.527336
 10
-2161.125415
 20
-460.55716
 10
-2161.826243
 20
-460.588966
 10
-2162.56035
 20
-460.622735
 10
-2163.325359
 20
-460.65845
 10
-2164.118893
 20
-460.696095
 10
-2164.938575
 20
-460.73565
 10
-2165.782028
 20
-460.7771
 10
-2166.646876
 20
-460.820425
 10
-2167.530741
 20
-460.865609
 10
-2168.431246
 20
-460.912634
 10
-2169.346015
 20
-460.961482
 10
-2170.27267
 20
-461.012137
 10
-2171.208835
 20
-461.064579
 10
-2172.152133
 20
-461.118793
 10
-2173.100186
 20
-461.17476
 10
-2174.050618
 20
-461.232462
 10
-2175.001448
 20
-461.291886
 10
-2175.95228
 20
-461.353027
 10
-2176.903114
 20
-461.415887
 10
-2177.853949
 20
-461.480463
 10
-2178.804785
 20
-461.546757
 10
-2179.755623
 20
-461.614768
 10
-2180.706461
 20
-461.684495
 10
-2181.657301
 20
-461.755939
 10
-2182.608141
 20
-461.8291
 10
-2183.558983
 20
-461.903976
 10
-2184.509825
 20
-461.980567
 10
-2185.460667
 20
-462.058875
 10
-2186.41151
 20
-462.138897
 10
-2187.362353
 20
-462.220635
 10
-2188.313196
 20
-462.304087
 10
-2189.264039
 20
-462.389253
 10
-2190.214882
 20
-462.476134
 10
-2191.165725
 20
-462.564729
 10
-2192.116567
 20
-462.655037
 10
-2193.067409
 20
-462.747059
 10
-2194.017854
 20
-462.840734
 10
-2194.965922
 20
-462.935762
 10
-2195.909234
 20
-463.031781
 10
-2196.845415
 20
-463.128432
 10
-2197.772087
 20
-463.225353
 10
-2198.686873
 20
-463.322184
 10
-2199.587397
 20
-463.418564
 10
-2200.47128
 20
-463.514133
 10
-2201.336146
 20
-463.608529
 10
-2202.179618
 20
-463.701392
 10
-2202.999318
 20
-463.792361
 10
-2203.792871
 20
-463.881076
 10
-2204.557898
 20
-463.967176
 10
-2205.292023
 20
-464.050301
 10
-2205.992868
 20
-464.130089
 10
-2206.658057
 20
-464.20618
 10
-2207.285213
 20
-464.278213
 10
-2207.871957
 20
-464.345827
 10
-2208.415915
 20
-464.408663
 10
-2212.084158
 20
-464.833061
 10
-2213.209317
 20
-464.963315
 10
-2213.386273
 20
-464.983824
 10
-2213.578564
 20
-465.006249
 10
-2213.784651
 20
-465.030553
 10
-2214.002991
 20
-465.056699
 10
-2214.232043
 20
-465.08465
 10
-2214.470267
 20
-465.114368
 10
-2214.71612
 20
-465.145816
 10
-2214.968061
 20
-465.178956
 10
-2215.22455
 20
-465.213751
 10
-2215.484044
 20
-465.250164
 10
-2215.745003
 20
-465.288158
 10
-2216.005886
 20
-465.327695
 10
-2216.26515
 20
-465.368738
 10
-2216.521255
 20
-465.411249
 10
-2216.772659
 20
-465.455192
 10
-2217.017822
 20
-465.500528
 10
-2217.255202
 20
-465.547222
 10
-2217.483257
 20
-465.595234
 10
-2217.700447
 20
-465.644528
 10
-2217.905229
 20
-465.695067
 10
-2218.096412
 20
-465.746835
 10
-2218.274198
 20
-465.799904
 10
-2218.439138
 20
-465.854369
 10
-2218.591782
 20
-465.910324
 10
-2218.732682
 20
-465.967862
 10
-2218.862388
 20
-466.027078
 10
-2218.981452
 20
-466.088066
 10
-2219.090424
 20
-466.15092
 10
-2219.189855
 20
-466.215735
 10
-2219.280297
 20
-466.282604
 10
-2219.362301
 20
-466.351621
 10
-2219.436416
 20
-466.422881
 10
-2219.503195
 20
-466.496478
 10
-2219.563188
 20
-466.572505
 10
-2219.616946
 20
-466.651058
 10
-2219.66502
 20
-466.73223
 10
-2219.707961
 20
-466.816115
 10
-2219.746321
 20
-466.902807
 10
-2219.780649
 20
-466.992401
 10
-2219.811497
 20
-467.084991
 10
-2219.839348
 20
-467.180577
 10
-2219.864417
 20
-467.278785
 10
-2219.886849
 20
-467.379149
 10
-2219.906792
 20
-467.481202
 10
-2219.924391
 20
-467.584477
 10
-2219.939794
 20
-467.688506
 10
-2219.953146
 20
-467.792822
 10
-2219.964594
 20
-467.89696
 10
-2219.974285
 20
-468.00045
 10
-2219.982364
 20
-468.102828
 10
-2219.988979
 20
-468.203624
 10
-2219.994276
 20
-468.302374
 10
-2219.998401
 20
-468.398608
 10
-2220.001501
 20
-468.491861
 10
-2220.003723
 20
-468.581665
 10
-2220.005212
 20
-468.667554
 10
-2220.006115
 20
-468.74906
 10
-2220.006579
 20
-468.825716
 10
-2220.006749
 20
-468.897056
 10
-2220.006774
 20
-469.379332
  0
LWPOLYLINE
  5
2F
330
1F
100
AcDbEntity
  8
0
100
AcDbPolyline
 90
      791
 70
   128
 43
0.0
 10
-2292.996447
 20
-338.898804
 10
-2292.996447
 20
-338.482042
 10
-2292.996428
 20
-338.416464
 10
-2292.996301
 20
-338.345003
 10
-2292.995954
 20
-338.26803
 10
-2292.995279
 20
-338.185914
 10
-2292.994166
 20
-338.099025
 10
-2292.992506
 20
-338.007731
 10
-2292.990188
 20
-337.912403
 10
-2292.987105
 20
-337.813409
 10
-2292.983146
 20
-337.71112
 10
-2292.978201
 20
-337.605904
 10
-2292.972162
 20
-337.498132
 10
-2292.964919
 20
-337.388172
 10
-2292.956362
 20
-337.276394
 10
-2292.946382
 20
-337.163168
 10
-2292.934869
 20
-337.048863
 10
-2292.921714
 20
-336.933849
 10
-2292.906808
 20
-336.818494
 10
-2292.89004
 20
-336.703169
 10
-2292.871302
 20
-336.588243
 10
-2292.850485
 20
-336.474085
 10
-2292.827385
 20
-336.361036
 10
-2292.801435
 20
-336.249324
 10
-2292.771971
 20
-336.139148
 10
-2292.738332
 20
-336.030706
 10
-2292.699856
 20
-335.924196
 10
-2292.65588
 20
-335.819818
 10
-2292.605744
 20
-335.717771
 10
-2292.548786
 20
-335.618254
 10
-2292.484342
 20
-335.521464
 10
-2292.411752
 20
-335.427601
 10
-2292.330353
 20
-335.336864
 10
-2292.239484
 20
-335.249452
 10
-2292.138482
 20
-335.165563
 10
-2292.026686
 20
-335.085396
 10
-2291.903434
 20
-335.009149
 10
-2291.768064
 20
-334.937023
 10
-2291.619913
 20
-334.869215
 10
-2291.458321
 20
-334.805924
 10
-2291.282625
 20
-334.747349
 10
-2291.092163
 20
-334.693689
 10
-2290.886659
 20
-334.645067
 10
-2290.66738
 20
-334.601303
 10
-2290.435978
 20
-334.562141
 10
-2290.194104
 20
-334.527326
 10
-2289.943412
 20
-334.496602
 10
-2289.685553
 20
-334.469713
 10
-2289.42218
 20
-334.446403
 10
-2289.154945
 20
-334.426417
 10
-2288.885501
 20
-334.4095
 10
-2288.615498
 20
-334.395395
 10
-2288.346591
 20
-334.383846
 10
-2288.08043
 20
-334.374599
 10
-2287.818669
 20
-334.367397
 10
-2287.562959
 20
-334.361986
 10
-2287.314953
 20
-334.358108
 10
-2287.076302
 20
-334.355508
 10
-2286.84866
 20
-334.353932
 10
-2286.633678
 20
-334.353122
 10
-2286.433009
 20
-334.352824
 10
-2285.073831
 20
-334.352781
 10
-2285.07002
 20
-334.352781
 10
-2285.043347
 20
-334.352781
 10
-2284.970948
 20
-334.352781
 10
-2284.829961
 20
-334.352781
 10
-2284.597522
 20
-334.352781
 10
-2284.250769
 20
-334.352781
 10
-2283.766839
 20
-334.352781
 10
-2283.122869
 20
-334.352781
 10
-2282.295996
 20
-334.352781
 10
-2281.263358
 20
-334.352781
 10
-2280.002091
 20
-334.352781
 10
-2278.489333
 20
-334.352781
 10
-2276.702221
 20
-334.352781
 10
-2274.617892
 20
-334.352781
 10
-2272.213484
 20
-334.352781
 10
-2269.466132
 20
-334.352781
 10
-2266.352976
 20
-334.352781
 10
-2262.851151
 20
-334.352781
 10
-2258.937795
 20
-334.352781
 10
-2254.590044
 20
-334.352781
 10
-2249.796469
 20
-334.352781
 10
-2244.591362
 20
-334.352781
 10
-2239.020451
 20
-334.352781
 10
-2233.129459
 20
-334.352781
 10
-2226.964113
 20
-334.352781
 10
-2220.570139
 20
-334.352781
 10
-2213.993262
 20
-334.352781
 10
-2207.279208
 20
-334.352781
 10
-2200.473703
 20
-334.352781
 10
-2193.622471
 20
-334.352781
 10
-2186.77124
 20
-334.352781
 10
-2179.965735
 20
-334.352781
 10
-2173.251681
 20
-334.352781
 10
-2166.674804
 20
-334.352781
 10
-2160.28083
 20
-334.352781
 10
-2154.115484
 20
-334.352781
 10
-2148.224492
 20
-334.352781
 10
-2142.65358
 20
-334.352781
 10
-2137.448474
 20
-334.352781
 10
-2132.654899
 20
-334.352781
 10
-2128.307148
 20
-334.352781
 10
-2124.393792
 20
-334.352781
 10
-2120.891967
 20
-334.352781
 10
-2117.778811
 20
-334.352781
 10
-2115.031459
 20
-334.352781
 10
-2112.627051
 20
-334.352781
 10
-2110.542722
 20
-334.352781
 10
-2108.75561
 20
-334.352781
 10
-2107.242852
 20
-334.352781
 10
-2105.981585
 20
-334.352781
 10
-2104.948947
 20
-334.352781
 10
-2104.122074
 20
-334.352781
 10
-2103.478104
 20
-334.352781
 10
-2102.994174
 20
-334.352781
 10
-2102.647421
 20
-334.352781
 10
-2102.414982
 20
-334.352781
 10
-2102.273995
 20
-334.352781
 10
-2102.201596
 20
-334.352781
 10
-2102.174923
 20
-334.352781
 10
-2102.171112
 20
-334.352781
 10
-2100.996555
 20
-334.352781
 10
-2100.811844
 20
-334.352824
 10
-2100.611199
 20
-334.353122
 10
-2100.396309
 20
-334.353932
 10
-2100.168857
 20
-334.355508
 10
-2099.930531
 20
-334.358108
 10
-2099.683017
 20
-334.361986
 10
-2099.427999
 20
-334.367397
 10
-2099.167164
 20
-334.374599
 10
-2098.902198
 20
-334.383846
 10
-2098.634787
 20
-334.395395
 10
-2098.366617
 20
-334.4095
 10
-2098.099374
 20
-334.426417
 10
-2097.834743
 20
-334.446403
 10
-2097.57441
 20
-334.469713
 10
-2097.320062
 20
-334.496602
 10
-2097.073384
 20
-334.527326
 10
-2096.836062
 20
-334.562141
 10
-2096.609783
 20
-334.601303
 10
-2096.396231
 20
-334.645067
 10
-2096.197093
 20
-334.693689
 10
-2096.013653
 20
-334.747349
 10
-2095.845583
 20
-334.805924
 10
-2095.692155
 20
-334.869215
 10
-2095.55264
 20
-334.937023
 10
-2095.426309
 20
-335.009149
 10
-2095.312431
 20
-335.085396
 10
-2095.21028
 20
-335.165563
 10
-2095.119124
 20
-335.249452
 10
-2095.038236
 20
-335.336864
 10
-2094.966886
 20
-335.427601
 10
-2094.904346
 20
-335.521464
 10
-2094.849885
 20
-335.618254
 10
-2094.802776
 20
-335.717771
 10
-2094.762288
 20
-335.819818
 10
-2094.727693
 20
-335.924196
 10
-2094.698263
 20
-336.030706
 10
-2094.673267
 20
-336.139148
 10
-2094.651976
 20
-336.249324
 10
-2094.633663
 20
-336.361036
 10
-2094.617597
 20
-336.474085
 10
-2094.603158
 20
-336.588243
 10
-2094.590162
 20
-336.703169
 10
-2094.578533
 20
-336.818494
 10
-2094.568194
 20
-336.933849
 10
-2094.55907
 20
-337.048863
 10
-2094.551085
 20
-337.163168
 10
-2094.544164
 20
-337.276394
 10
-2094.538229
 20
-337.388172
 10
-2094.533205
 20
-337.498132
 10
-2094.529016
 20
-337.605904
 10
-2094.525587
 20
-337.71112
 10
-2094.522841
 20
-337.813409
 10
-2094.520702
 20
-337.912403
 10
-2094.519095
 20
-338.007731
 10
-2094.517944
 20
-338.099025
 10
-2094.517172
 20
-338.185914
 10
-2094.516704
 20
-338.26803
 10
-2094.516463
 20
-338.345003
 10
-2094.516375
 20
-338.416464
 10
-2094.516362
 20
-338.898804
 10
-2094.516362
 20
-339.315525
 10
-2094.516381
 20
-339.381081
 10
-2094.516512
 20
-339.45242
 10
-2094.51687
 20
-339.529077
 10
-2094.517566
 20
-339.610583
 10
-2094.518714
 20
-339.696471
 10
-2094.520427
 20
-339.786276
 10
-2094.522817
 20
-339.879529
 10
-2094.525997
 20
-339.975763
 10
-2094.530081
 20
-340.074512
 10
-2094.535181
 20
-340.175309
 10
-2094.54141
 20
-340.277686
 10
-2094.548881
 20
-340.381177
 10
-2094.557707
 20
-340.485314
 10
-2094.568001
 20
-340.589631
 10
-2094.579875
 20
-340.69366
 10
-2094.593444
 20
-340.796935
 10
-2094.608819
 20
-340.898987
 10
-2094.626113
 20
-340.999352
 10
-2094.64544
 20
-341.09756
 10
-2094.666912
 20
-341.193146
 10
-2094.690727
 20
-341.285735
 10
-2094.717418
 20
-341.375329
 10
-2094.747603
 20
-341.462022
 10
-2094.781901
 20
-341.545906
 10
-2094.82093
 20
-341.627078
 10
-2094.865308
 20
-341.70563
 10
-2094.915652
 20
-341.781657
 10
-2094.972582
 20
-341.855253
 10
-2095.036714
 20
-341.926512
 10
-2095.108668
 20
-341.995528
 10
-2095.189061
 20
-342.062395
 10
-2095.278511
 20
-342.127208
 10
-2095.377637
 20
-342.190059
 10
-2095.487057
 20
-342.251045
 10
-2095.607388
 20
-342.310257
 10
-2095.739249
 20
-342.367792
 10
-2095.883259
 20
-342.423742
 10
-2096.040034
 20
-342.478202
 10
-2096.210193
 20
-342.531266
 10
-2096.394355
 20
-342.583028
 10
-2096.592771
 20
-342.633561
 10
-2096.804233
 20
-342.682848
 10
-2097.027165
 20
-342.730853
 10
-2097.259993
 20
-342.777538
 10
-2097.501142
 20
-342.822866
 10
-2097.749036
 20
-342.8668
 10
-2098.0021
 20
-342.909302
 10
-2098.258761
 20
-342.950336
 10
-2098.517442
 20
-342.989864
 10
-2098.776569
 20
-343.027848
 10
-2099.034567
 20
-343.064252
 10
-2099.289861
 20
-343.099038
 10
-2099.540876
 20
-343.13217
 10
-2099.786036
 20
-343.163608
 10
-2100.023768
 20
-343.193317
 10
-2100.252496
 20
-343.22126
 10
-2100.470645
 20
-343.247398
 10
-2100.676641
 20
-343.271695
 10
-2100.868908
 20
-343.294113
 10
-2102.171112
 20
-343.444828
 10
-2105.275705
 20
-343.804172
 10
-2105.764291
 20
-343.86071
 10
-2106.297116
 20
-343.922287
 10
-2106.871854
 20
-343.98855
 10
-2107.486175
 20
-344.059147
 10
-2108.137751
 20
-344.133728
 10
-2108.824254
 20
-344.211939
 10
-2109.543355
 20
-344.293429
 10
-2110.292725
 20
-344.377847
 10
-2111.070037
 20
-344.46484
 10
-2111.872961
 20
-344.554056
 10
-2112.699169
 20
-344.645144
 10
-2113.546333
 20
-344.737752
 10
-2114.412124
 20
-344.831527
 10
-2115.294213
 20
-344.926119
 10
-2116.190273
 20
-345.021175
 10
-2117.097975
 20
-345.116344
 10
-2118.01499
 20
-345.211273
 10
-2118.93899
 20
-345.30561
 10
-2119.867646
 20
-345.399005
 10
-2120.79863
 20
-345.491104
 10
-2121.730001
 20
-345.581616
 10
-2122.661372
 20
-345.67048
 10
-2123.592742
 20
-345.757697
 10
-2124.524112
 20
-345.843268
 10
-2125.455481
 20
-345.927191
 10
-2126.38685
 20
-346.009467
 10
-2127.318219
 20
-346.090097
 10
-2128.249587
 20
-346.169079
 10
-2129.180954
 20
-346.246414
 10
-2130.112321
 20
-346.322102
 10
-2131.043688
 20
-346.396143
 10
-2131.975055
 20
-346.468536
 10
-2132.906422
 20
-346.539283
 10
-2133.837788
 20
-346.608382
 10
-2134.769154
 20
-346.675833
 10
-2135.70052
 20
-346.741638
 10
-2136.631885
 20
-346.805795
 10
-2137.563251
 20
-346.868304
 10
-2138.494617
 20
-346.929166
 10
-2139.425982
 20
-346.988381
 10
-2140.35696
 20
-347.045944
 10
-2141.285609
 20
-347.101838
 10
-2142.209601
 20
-347.156039
 10
-2143.126608
 20
-347.208526
 10
-2144.034301
 20
-347.259275
 10
-2144.930353
 20
-347.308265
 10
-2145.812433
 20
-347.355473
 10
-2146.678215
 20
-347.400876
 10
-2147.52537
 20
-347.444452
 10
-2148.351569
 20
-347.48618
 10
-2149.154483
 20
-347.526035
 10
-2149.931786
 20
-347.563997
 10
-2150.681147
 20
-347.600042
 10
-2151.400239
 20
-347.634148
 10
-2152.086733
 20
-347.666293
 10
-2152.7383
 20
-347.696454
 10
-2153.352614
 20
-347.72461
 10
-2153.927344
 20
-347.750736
 10
-2154.460163
 20
-347.774812
 10
-2158.053293
 20
-347.936534
 10
-2160.931028
 20
-348.498638
 10
-2161.383524
 20
-348.587433
 10
-2161.874706
 20
-348.686244
 10
-2162.400092
 20
-348.796654
 10
-2162.955203
 20
-348.920247
 10
-2163.535558
 20
-349.058606
 10
-2164.136675
 20
-349.213317
 10
-2164.754075
 20
-349.385962
 10
-2165.383276
 20
-349.578125
 10
-2166.019799
 20
-349.79139
 10
-2166.659162
 20
-350.027341
 10
-2167.296885
 20
-350.287562
 10
-2167.928488
 20
-350.573636
 10
-2168.549489
 20
-350.887148
 10
-2169.155408
 20
-351.229681
 10
-2169.741765
 20
-351.602819
 10
-2170.304079
 20
-352.008145
 10
-2170.837869
 20
-352.447245
 10
-2171.338655
 20
-352.9217
 10
-2171.801955
 20
-353.433096
 10
-2172.223291
 20
-353.983017
 10
-2172.599698
 20
-354.572082
 10
-2172.934284
 20
-355.197063
 10
-2173.231675
 20
-355.853769
 10
-2173.496497
 20
-356.538007
 10
-2173.733376
 20
-357.245586
 10
-2173.946936
 20
-357.972313
 10
-2174.141803
 20
-358.713998
 10
-2174.322603
 20
-359.466448
 10
-2174.493962
 20
-360.225471
 10
-2174.660504
 20
-360.986875
 10
-2174.826857
 20
-361.74647
 10
-2174.997644
 20
-362.500062
 10
-2175.177493
 20
-363.243461
 10
-2175.371027
 20
-363.972473
 10
-2175.582874
 20
-364.682909
 10
-2175.817658
 20
-365.370574
 10
-2176.080006
 20
-366.031279
 10
-2176.374542
 20
-366.660831
 10
-2176.705892
 20
-367.255038
 10
-2177.078682
 20
-367.809708
 10
-2177.496026
 20
-368.321673
 10
-2177.954993
 20
-368.791856
 10
-2178.451141
 20
-369.222201
 10
-2178.980026
 20
-369.614656
 10
-2179.537206
 20
-369.971166
 10
-2180.118239
 20
-370.293677
 10
-2180.718683
 20
-370.584135
 10
-2181.334094
 20
-370.844485
 10
-2181.96003
 20
-371.076674
 10
-2182.592049
 20
-371.282647
 10
-2183.225708
 20
-371.464351
 10
-2183.856564
 20
-371.623731
 10
-2184.480175
 20
-371.762732
 10
-2185.092099
 20
-371.883302
 10
-2185.687893
 20
-371.987386
 10
-2186.263114
 20
-372.076929
 10
-2186.81332
 20
-372.153877
 10
-2187.334068
 20
-372.220177
 10
-2187.820916
 20
-372.277774
 10
-2191.121774
 20
-372.64935
 10
-2191.121774
 20
-372.648926
 10
-2191.121774
 20
-372.645958
 10
-2191.121774
 20
-372.637902
 10
-2191.121774
 20
-372.622213
 10
-2191.121774
 20
-372.596349
 10
-2191.121774
 20
-372.557763
 10
-2191.121774
 20
-372.503914
 10
-2191.121774
 20
-372.432256
 10
-2191.121774
 20
-372.340245
 10
-2191.121774
 20
-372.225338
 10
-2191.121774
 20
-372.08499
 10
-2191.121774
 20
-371.916658
 10
-2191.121774
 20
-371.717796
 10
-2191.121774
 20
-371.485862
 10
-2191.121774
 20
-371.21831
 10
-2191.121774
 20
-370.912598
 10
-2191.121774
 20
-370.56618
 10
-2191.121774
 20
-370.176514
 10
-2191.121774
 20
-369.741054
 10
-2191.121774
 20
-369.257256
 10
-2191.121774
 20
-368.723849
 10
-2191.121774
 20
-368.144649
 10
-2191.121774
 20
-367.524744
 10
-2191.121774
 20
-366.869222
 10
-2191.121774
 20
-366.183171
 10
-2191.121774
 20
-365.47168
 10
-2191.121774
 20
-364.739835
 10
-2191.121774
 20
-363.992727
 10
-2191.121774
 20
-363.235442
 10
-2191.121774
 20
-362.473069
 10
-2191.121774
 20
-361.710696
 10
-2191.121774
 20
-360.953411
 10
-2191.121774
 20
-360.206302
 10
-2191.121774
 20
-359.474458
 10
-2191.121774
 20
-358.762966
 10
-2191.121774
 20
-358.076915
 10
-2191.121774
 20
-357.421393
 10
-2191.121774
 20
-356.801488
 10
-2191.121774
 20
-356.222288
 10
-2191.121774
 20
-355.688881
 10
-2191.121774
 20
-355.205084
 10
-2191.121774
 20
-354.769624
 10
-2191.121774
 20
-354.379957
 10
-2191.121774
 20
-354.033539
 10
-2191.121774
 20
-353.727827
 10
-2191.121774
 20
-353.460275
 10
-2191.121774
 20
-353.228341
 10
-2191.121774
 20
-353.02948
 10
-2191.121774
 20
-352.861147
 10
-2191.121774
 20
-352.720799
 10
-2191.121774
 20
-352.605892
 10
-2191.121774
 20
-352.513881
 10
-2191.121774
 20
-352.442223
 10
-2191.121774
 20
-352.388374
 10
-2191.121774
 20
-352.349789
 10
-2191.121774
 20
-352.323924
 10
-2191.121774
 20
-352.308236
 10
-2191.121774
 20
-352.300179
 10
-2191.121774
 20
-352.297211
 10
-2191.121774
 20
-352.296787
 10
-2191.121774
 20
-352.080056
 10
-2191.121796
 20
-352.045953
 10
-2191.121951
 20
-352.008789
 10
-2191.122371
 20
-351.968757
 10
-2191.123188
 20
-351.926047
 10
-2191.124535
 20
-351.880851
 10
-2191.126545
 20
-351.833358
 10
-2191.129349
 20
-351.783761
 10
-2191.133081
 20
-351.73225
 10
-2191.137874
 20
-351.679016
 10
-2191.143859
 20
-351.624251
 10
-2191.151169
 20
-351.568145
 10
-2191.159936
 20
-351.51089
 10
-2191.170294
 20
-351.452676
 10
-2191.182374
 20
-351.393695
 10
-2191.196309
 20
-351.334137
 10
-2191.212232
 20
-351.274194
 10
-2191.230275
 20
-351.214057
 10
-2191.250571
 20
-351.153916
 10
-2191.273251
 20
-351.093963
 10
-2191.29845
 20
-351.034389
 10
-2191.326259
 20
-350.97537
 10
-2191.356615
 20
-350.917027
 10
-2191.389416
 20
-350.859465
 10
-2191.424557
 20
-350.802789
 10
-2191.461937
 20
-350.747106
 10
-2191.501451
 20
-350.69252
 10
-2191.542998
 20
-350.639137
 10
-2191.586473
 20
-350.587064
 10
-2191.631775
 20
-350.536404
 10
-2191.678799
 20
-350.487264
 10
-2191.727443
 20
-350.43975
 10
-2191.777604
 20
-350.393967
 10
-2191.829179
 20
-350.350021
 10
-2191.882065
 20
-350.308017
 10
-2191.936159
 20
-350.26806
 10
-2191.991357
 20
-350.230257
 10
-2192.047558
 20
-350.194713
 10
-2192.104656
 20
-350.161533
 10
-2192.162551
 20
-350.130823
 10
-2192.221139
 20
-350.102688
 10
-2192.280301
 20
-350.077195
 10
-2192.339861
 20
-350.054249
 10
-2192.399629
 20
-350.033716
 10
-2192.459411
 20
-350.015462
 10
-2192.519017
 20
-349.999353
 10
-2192.578256
 20
-349.985255
 10
-2192.636935
 20
-349.973033
 10
-2192.694864
 20
-349.962555
 10
-2192.751851
 20
-349.953684
 10
-2192.807704
 20
-349.946289
 10
-2192.862232
 20
-349.940234
 10
-2192.915243
 20
-349.935386
 10
-2192.966547
 20
-349.93161
 10
-2193.015951
 20
-349.928772
 10
-2193.063264
 20
-349.926739
 10
-2193.108294
 20
-349.925376
 10
-2193.150851
 20
-349.924549
 10
-2193.190742
 20
-349.924125
 10
-2193.227777
 20
-349.923969
 10
-2193.47775
 20
-349.923946
 10
-2193.693737
 20
-349.923946
 10
-2193.727723
 20
-349.923968
 10
-2193.764757
 20
-349.924124
 10
-2193.804649
 20
-349.924547
 10
-2193.847206
 20
-349.92537
 10
-2193.892237
 20
-349.926727
 10
-2193.939551
 20
-349.928751
 10
-2193.988956
 20
-349.931576
 10
-2194.040262
 20
-349.935335
 10
-2194.093275
 20
-349.940162
 10
-2194.147806
 20
-349.946191
 10
-2194.203662
 20
-349.953554
 10
-2194.260653
 20
-349.962385
 10
-2194.318587
 20
-349.972818
 10
-2194.377272
 20
-349.984985
 10
-2194.436517
 20
-349.999022
 10
-2194.496131
 20
-350.01506
 10
-2194.555922
 20
-350.033234
 10
-2194.615698
 20
-350.053677
 10
-2194.67527
 20
-350.076522
 10
-2194.734444
 20
-350.101903
 10
-2194.793044
 20
-350.129914
 10
-2194.850953
 20
-350.16049
 10
-2194.908067
 20
-350.193529
 10
-2194.964283
 20
-350.228925
 10
-2195.019498
 20
-350.266575
 10
-2195.073609
 20
-350.306376
 10
-2195.126513
 20
-350.348223
 10
-2195.178106
 20
-350.392013
 10
-2195.228286
 20
-350.437642
 10
-2195.276949
 20
-350.485006
 10
-2195.323992
 20
-350.534002
 10
-2195.369311
 20
-350.584525
 10
-2195.412805
 20
-350.636472
 10
-2195.45437
 20
-350.689739
 10
-2195.493901
 20
-350.744222
 10
-2195.531298
 20
-350.799817
 10
-2195.566455
 20
-350.856422
 10
-2195.599271
 20
-350.91393
 10
-2195.629641
 20
-350.97224
 10
-2195.657463
 20
-351.031247
 10
-2195.682673
 20
-351.090833
 10
-2195.705365
 20
-351.150819
 10
-2195.72567
 20
-351.211013
 10
-2195.743721
 20
-351.271222
 10
-2195.759651
 20
-351.331253
 10
-2195.773593
 20
-351.390913
 10
-2195.785679
 20
-351.45001
 10
-2195.796042
 20
-351.508351
 10
-2195.804813
 20
-351.565743
 10
-2195.812127
 20
-351.621993
 10
-2195.818114
 20
-351.676908
 10
-2195.822909
 20
-351.730296
 10
-2195.826643
 20
-351.781963
 10
-2195.829449
 20
-351.831717
 10
-2195.831459
 20
-351.879366
 10
-2195.832807
 20
-351.924715
 10
-2195.833625
 20
-351.967573
 10
-2195.834045
 20
-352.007747
 10
-2195.834199
 20
-352.045044
 10
-2195.834221
 20
-352.296787
 10
-2195.834221
 20
-352.297213
 10
-2195.834221
 20
-352.300191
 10
-2195.834221
 20
-352.308275
 10
-2195.834221
 20
-352.324018
 10
-2195.834221
 20
-352.349973
 10
-2195.834221
 20
-352.388692
 10
-2195.834221
 20
-352.442728
 10
-2195.834221
 20
-352.514635
 10
-2195.834221
 20
-352.606965
 10
-2195.834221
 20
-352.722272
 10
-2195.834221
 20
-352.863107
 10
-2195.834221
 20
-353.032024
 10
-2195.834221
 20
-353.231576
 10
-2195.834221
 20
-353.464316
 10
-2195.834221
 20
-353.732797
 10
-2195.834221
 20
-354.039571
 10
-2195.834221
 20
-354.387192
 10
-2195.834221
 20
-354.778212
 10
-2195.834221
 20
-355.215185
 10
-2195.834221
 20
-355.700662
 10
-2195.834221
 20
-356.235922
 10
-2195.834221
 20
-356.817133
 10
-2195.834221
 20
-357.439191
 10
-2195.834221
 20
-358.09699
 10
-2195.834221
 20
-358.785424
 10
-2195.834221
 20
-359.499387
 10
-2195.834221
 20
-360.233773
 10
-2195.834221
 20
-360.983476
 10
-2195.834221
 20
-361.743391
 10
-2195.834221
 20
-362.508412
 10
-2195.834221
 20
-363.273433
 10
-2195.834221
 20
-364.033348
 10
-2195.834221
 20
-364.783051
 10
-2195.834221
 20
-365.517437
 10
-2195.834221
 20
-366.2314
 10
-2195.834221
 20
-366.919834
 10
-2195.834221
 20
-367.577633
 10
-2195.834221
 20
-368.199691
 10
-2195.834221
 20
-368.780902
 10
-2195.834221
 20
-369.316162
 10
-2195.834221
 20
-369.801639
 10
-2195.834221
 20
-370.238612
 10
-2195.834221
 20
-370.629632
 10
-2195.834221
 20
-370.977253
 10
-2195.834221
 20
-371.284027
 10
-2195.834221
 20
-371.552508
 10
-2195.834221
 20
-371.785248
 10
-2195.834221
 20
-371.9848
 10
-2195.834221
 20
-372.153717
 10
-2195.834221
 20
-372.294552
 10
-2195.834221
 20
-372.409859
 10
-2195.834221
 20
-372.502189
 10
-2195.834221
 20
-372.574096
 10
-2195.834221
 20
-372.628132
 10
-2195.834221
 20
-372.666851
 10
-2195.834221
 20
-372.692806
 10
-2195.834221
 20
-372.708549
 10
-2195.834221
 20
-372.716633
 10
-2195.834221
 20
-372.719611
 10
-2195.834221
 20
-372.720037
 10
-2198.712286
 20
-372.462878
 10
-2199.16476
 20
-372.421975
 10
-2199.655475
 20
-372.374815
 10
-2200.179501
 20
-372.318997
 10
-2200.731909
 20
-372.252121
 10
-2201.307768
 20
-372.171788
 10
-2201.902149
 20
-372.075596
 10
-2202.510123
 20
-371.961146
 10
-2203.126759
 20
-371.826037
 10
-2203.747127
 20
-371.66787
 10
-2204.366298
 20
-371.484244
 10
-2204.979342
 20
-371.272759
 10
-2205.581329
 20
-371.031015
 10
-2206.167329
 20
-370.756612
 10
-2206.732413
 20
-370.447149
 10
-2207.27165
 20
-370.100227
 10
-2207.780111
 20
-369.713445
 10
-2208.252866
 20
-369.284403
 10
-2208.684986
 20
-368.810701
 10
-2209.07154
 20
-368.289939
 10
-2209.407598
 20
-367.719717
 10
-2209.69003
 20
-367.098912
 10
-2209.922899
 20
-366.431513
 10
-2210.112066
 20
-365.722785
 10
-2210.263393
 20
-364.977996
 10
-2210.382743
 20
-364.202411
 10
-2210.475976
 20
-363.401296
 10
-2210.548956
 20
-362.579918
 10
-2210.607543
 20
-361.743543
 10
-2210.6576
 20
-360.897437
 10
-2210.704989
 20
-360.046866
 10
-2210.75557
 20
-359.197097
 10
-2210.815207
 20
-358.353395
 10
-2210.889761
 20
-357.521027
 10
-2210.985094
 20
-356.705259
 10
-2211.107067
 20
-355.911358
 10
-2211.261543
 20
-355.144588
 10
-2211.454383
 20
-354.410217
 10
-2211.69145
 20
-353.713511
 10
-2211.978605
 20
-353.059736
 10
-2212.321709
 20
-352.454158
 10
-2212.724721
 20
-351.900739
 10
-2213.183976
 20
-351.398223
 10
-2213.693905
 20
-350.944049
 10
-2214.248941
 20
-350.535658
 10
-2214.843515
 20
-350.170487
 10
-2215.472058
 20
-349.845978
 10
-2216.129003
 20
-349.55957
 10
-2216.80878
 20
-349.308702
 10
-2217.505821
 20
-349.090814
 10
-2218.214557
 20
-348.903345
 10
-2218.929421
 20
-348.743735
 10
-2219.644843
 20
-348.609423
 10
-2220.355256
 20
-348.49785
 10
-2221.05509
 20
-348.406454
 10
-2221.738777
 20
-348.332676
 10
-2222.400749
 20
-348.273954
 10
-2223.035438
 20
-348.227728
 10
-2223.637274
 20
-348.191438
 10
-2224.20069
 20
-348.162524
 10
-2228.023955
 20
-347.988123
 10
-2231.193324
 20
-347.850097
 10
-2231.692103
 20
-347.828361
 10
-2232.236046
 20
-347.804573
 10
-2232.822776
 20
-347.778749
 10
-2233.449915
 20
-347.750909
 10
-2234.115087
 20
-347.721068
 10
-2234.815915
 20
-347.689246
 10
-2235.550022
 20
-347.655461
 10
-2236.315031
 20
-347.619729
 10
-2237.108565
 20
-347.582068
 10
-2237.928248
 20
-347.542497
 10
-2238.771701
 20
-347.501032
 10
-2239.636549
 20
-347.457692
 10
-2240.520413
 20
-347.412495
 10
-2241.420919
 20
-347.365458
 10
-2242.335688
 20
-347.316599
 10
-2243.262343
 20
-347.265935
 10
-2244.198508
 20
-347.213485
 10
-2245.141805
 20
-347.159266
 10
-2246.089859
 20
-347.103296
 10
-2247.040291
 20
-347.045592
 10
-2247.991121
 20
-346.986169
 10
-2248.941953
 20
-346.925031
 10
-2249.892786
 20
-346.862177
 10
-2250.843621
 20
-346.797608
 10
-2251.794458
 20
-346.731323
 10
-2252.745295
 20
-346.663322
 10
-2253.696134
 20
-346.593605
 10
-2254.646973
 20
-346.522173
 10
-2255.597814
 20
-346.449025
 10
-2256.548655
 20
-346.374161
 10
-2257.499497
 20
-346.297582
 10
-2258.45034
 20
-346.219287
 10
-2259.401182
 20
-346.139276
 10
-2260.352025
 20
-346.057549
 10
-2261.302868
 20
-345.974107
 10
-2262.253712
 20
-345.888949
 10
-2263.204555
 20
-345.802075
 10
-2264.155397
 20
-345.713486
 10
-2265.10624
 20
-345.623181
 10
-2266.057082
 20
-345.53116
 10
-2267.007527
 20
-345.437484
 10
-2267.955594
 20
-345.342453
 10
-2268.898907
 20
-345.246428
 10
-2269.835088
 20
-345.149769
 10
-2270.76176
 20
-345.052839
 10
-2271.676546
 20
-344.955997
 10
-2272.577069
 20
-344.859605
 10
-2273.460952
 20
-344.764023
 10
-2274.325818
 20
-344.669613
 10
-2275.16929
 20
-344.576735
 10
-2275.988991
 20
-344.485749
 10
-2276.782544
 20
-344.397018
 10
-2277.547571
 20
-344.310901
 10
-2278.281696
 20
-344.227761
 10
-2278.982541
 20
-344.147956
 10
-2279.64773
 20
-344.071849
 10
-2280.274885
 20
-343.999801
 10
-2280.86163
 20
-343.932171
 10
-2281.405587
 20
-343.869322
 10
-2285.073831
 20
-343.444828
 10
-2286.19899
 20
-343.314657
 10
-2286.375945
 20
-343.294161
 10
-2286.568237
 20
-343.27175
 10
-2286.774324
 20
-343.24746
 10
-2286.992664
 20
-343.22133
 10
-2287.221716
 20
-343.193396
 10
-2287.459939
 20
-343.163695
 10
-2287.705792
 20
-343.132264
 10
-2287.957734
 20
-343.099141
 10
-2288.214222
 20
-343.064363
 10
-2288.473717
 20
-343.027967
 10
-2288.734676
 20
-342.98999
 10
-2288.995558
 20
-342.95047
 10
-2289.254822
 20
-342.909443
 10
-2289.510928
 20
-342.866946
 10
-2289.762332
 20
-342.823018
 10
-2290.007495
 20
-342.777694
 10
-2290.244874
 20
-342.731013
 10
-2290.47293
 20
-342.683011
 10
-2290.690119
 20
-342.633726
 10
-2290.894902
 20
-342.583194
 10
-2291.086085
 20
-342.531431
 10
-2291.263871
 20
-342.478365
 10
-2291.42881
 20
-342.423902
 10
-2291.581454
 20
-342.367948
 10
-2291.722354
 20
-342.310409
 10
-2291.85206
 20
-342.251191
 10
-2291.971124
 20
-342.1902
 10
-2292.080096
 20
-342.127341
 10
-2292.179528
 20
-342.062521
 10
-2292.26997
 20
-341.995647
 10
-2292.351973
 20
-341.926623
 10
-2292.426089
 20
-341.855356
 10
-2292.492868
 20
-341.781752
 10
-2292.552861
 20
-341.705716
 10
-2292.606619
 20
-341.627156
 10
-2292.654693
 20
-341.545977
 10
-2292.697634
 20
-341.462084
 10
-2292.735993
 20
-341.375384
 10
-2292.770321
 20
-341.285783
 10
-2292.801169
 20
-341.193187
 10
-2292.829021
 20
-341.097596
 10
-2292.854089
 20
-340.999382
 10
-2292.876522
 20
-340.899013
 10
-2292.896465
 20
-340.796956
 10
-2292.914064
 20
-340.693678
 10
-2292.929466
 20
-340.589645
 10
-2292.942819
 20
-340.485326
 10
-2292.954267
 20
-340.381186
 10
-2292.963957
 20
-340.277693
 10
-2292.972037
 20
-340.175314
 10
-2292.978652
 20
-340.074516
 10
-2292.983949
 20
-339.975766
 10
-2292.988074
 20
-339.87953
 10
-2292.991174
 20
-339.786277
 10
-2292.993395
 20
-339.696472
 10
-2292.994884
 20
-339.610583
 10
-2292.995787
 20
-339.529077
 10
-2292.996251
 20
-339.45242
 10
-2292.996422
 20
-339.381081
 10
-2292.996447
 20
-338.898804
  0
LWPOLYLINE
  5
30
330
1F
100
AcDbEntity
  8
0
100
AcDbPolyline
 90
      634
 70
   128
 43
0.0
 10
-2023.634659
 20
-421.310115
 42
0.058089
 10
-2018.8763
 20
-421.501979
 10
-1979.342663
 20
-412.222187
 42
0.39249
 10
-1977.448243
 20
-408.815809
 10
-1977.622864
 20
-408.3744
 10
-1977.800354
 20
-407.938538
 10
-1977.979841
 20
-407.509248
 10
-1978.160455
 20
-407.087551
 10
-1978.341325
 20
-406.67447
 10
-1978.52158
 20
-406.271029
 10
-1978.70035
 20
-405.87825
 10
-1978.876763
 20
-405.497155
 10
-1979.04995
 20
-405.128768
 10
-1979.219039
 20
-404.774111
 10
-1979.383159
 20
-404.434207
 10
-1979.54144
 20
-404.110079
 10
-1979.693011
 20
-403.802749
 10
-1979.837002
 20
-403.513241
 10
-1979.972541
 20
-403.242576
 10
-1980.098757
 20
-402.991779
 10
-1980.952362
 20
-401.301053
 10
-1980.952824
 20
-401.301162
 10
-1980.956058
 20
-401.301921
 10
-1980.964836
 20
-401.303981
 10
-1980.981929
 20
-401.307994
 10
-1981.01011
 20
-401.314609
 10
-1981.052151
 20
-401.324477
 10
-1981.110823
 20
-401.338249
 10
-1981.188898
 20
-401.356576
 10
-1981.289149
 20
-401.380108
 10
-1981.414347
 20
-401.409496
 10
-1981.567264
 20
-401.445391
 10
-1981.750672
 20
-401.488443
 10
-1981.967343
 20
-401.539303
 10
-1982.220049
 20
-401.598621
 10
-1982.511562
 20
-401.667049
 10
-1982.844653
 20
-401.745236
 10
-1983.222095
 20
-401.833834
 10
-1983.646659
 20
-401.933494
 10
-1984.121118
 20
-402.044865
 10
-1984.648243
 20
-402.168598
 10
-1985.229421
 20
-402.30502
 10
-1985.860492
 20
-402.453153
 10
-1986.535915
 20
-402.611697
 10
-1987.250144
 20
-402.77935
 10
-1987.997636
 20
-402.954811
 10
-1988.772847
 20
-403.136778
 10
-1989.570233
 20
-403.323951
 10
-1990.384251
 20
-403.515028
 10
-1991.209356
 20
-403.708707
 10
-1992.040006
 20
-403.903688
 10
-1992.870655
 20
-404.098669
 10
-1993.695761
 20
-404.292348
 10
-1994.509778
 20
-404.483425
 10
-1995.307165
 20
-404.670598
 10
-1996.082376
 20
-404.852565
 10
-1996.829868
 20
-405.028026
 10
-1997.544097
 20
-405.195679
 10
-1998.219519
 20
-405.354223
 10
-1998.850591
 20
-405.502357
 10
-1999.431768
 20
-405.638778
 10
-1999.958893
 20
-405.762512
 10
-2000.433352
 20
-405.873883
 10
-2000.857916
 20
-405.973542
 10
-2001.235358
 20
-406.06214
 10
-2001.56845
 20
-406.140327
 10
-2001.859962
 20
-406.208755
 10
-2002.112668
 20
-406.268073
 10
-2002.329339
 20
-406.318933
 10
-2002.512747
 20
-406.361985
 10
-2002.665664
 20
-406.39788
 10
-2002.790862
 20
-406.427268
 10
-2002.891113
 20
-406.4508
 10
-2002.969189
 20
-406.469127
 10
-2003.027861
 20
-406.482899
 10
-2003.069901
 20
-406.492768
 10
-2003.098083
 20
-406.499383
 10
-2003.115176
 20
-406.503395
 10
-2003.123954
 20
-406.505455
 10
-2003.127188
 20
-406.506215
 10
-2003.12765
 20
-406.506323
 10
-2003.338924
 20
-406.555886
 10
-2003.372174
 20
-406.563664
 10
-2003.408437
 20
-406.572012
 10
-2003.447556
 20
-406.580758
 10
-2003.489375
 20
-406.589729
 10
-2003.533738
 20
-406.598752
 10
-2003.580488
 20
-406.607655
 10
-2003.62947
 20
-406.616265
 10
-2003.680527
 20
-406.624409
 10
-2003.733502
 20
-406.631914
 10
-2003.78824
 20
-406.638607
 10
-2003.844583
 20
-406.644316
 10
-2003.902376
 20
-406.648868
 10
-2003.961463
 20
-406.65209
 10
-2004.021686
 20
-406.65381
 10
-2004.08289
 20
-406.653854
 10
-2004.144919
 20
-406.652049
 10
-2004.207615
 20
-406.648224
 10
-2004.270824
 20
-406.642205
 10
-2004.334387
 20
-406.633819
 10
-2004.39815
 20
-406.622894
 10
-2004.461961
 20
-406.609298
 10
-2004.525689
 20
-406.593067
 10
-2004.589208
 20
-406.574276
 10
-2004.652393
 20
-406.553002
 10
-2004.715118
 20
-406.529321
 10
-2004.777257
 20
-406.503309
 10
-2004.838685
 20
-406.475044
 10
-2004.899276
 20
-406.4446
 10
-2004.958904
 20
-406.412055
 10
-2005.017444
 20
-406.377485
 10
-2005.07477
 20
-406.340966
 10
-2005.130756
 20
-406.302575
 10
-2005.185277
 20
-406.262387
 10
-2005.238206
 20
-406.220479
 10
-2005.289419
 20
-406.176928
 10
-2005.338789
 20
-406.13181
 10
-2005.386191
 20
-406.085201
 10
-2005.431499
 20
-406.037177
 10
-2005.474587
 20
-405.987815
 10
-2005.515331
 20
-405.937192
 10
-2005.553638
 20
-405.885406
 10
-2005.589562
 20
-405.832651
 10
-2005.623187
 20
-405.779145
 10
-2005.654601
 20
-405.725105
 10
-2005.68389
 20
-405.670747
 10
-2005.71114
 20
-405.616288
 10
-2005.736439
 20
-405.561945
 10
-2005.759872
 20
-405.507936
 10
-2005.781526
 20
-405.454478
 10
-2005.801488
 20
-405.401786
 10
-2005.819844
 20
-405.350079
 10
-2005.83668
 20
-405.299574
 10
-2005.852083
 20
-405.250486
 10
-2005.86614
 20
-405.203034
 10
-2005.878937
 20
-405.157435
 10
-2005.890561
 20
-405.113904
 10
-2005.901097
 20
-405.07266
 10
-2005.910633
 20
-405.033919
 10
-2005.919255
 20
-404.997899
 10
-2005.976448
 20
-404.754533
 10
-2006.025805
 20
-404.544209
 10
-2006.033549
 20
-404.511109
 10
-2006.041861
 20
-404.47501
 10
-2006.050565
 20
-404.436068
 10
-2006.059488
 20
-404.39444
 10
-2006.068457
 20
-404.35028
 10
-2006.077298
 20
-404.303746
 10
-2006.085837
 20
-404.254993
 10
-2006.093901
 20
-404.204177
 10
-2006.101315
 20
-404.151455
 10
-2006.107905
 20
-404.096981
 10
-2006.1135
 20
-404.040913
 10
-2006.117923
 20
-403.983406
 10
-2006.121003
 20
-403.924616
 10
-2006.122565
 20
-403.864699
 10
-2006.122435
 20
-403.803812
 10
-2006.12044
 20
-403.74211
 10
-2006.116406
 20
-403.679749
 10
-2006.110159
 20
-403.616886
 10
-2006.101525
 20
-403.553675
 10
-2006.090332
 20
-403.490274
 10
-2006.076447
 20
-403.426833
 10
-2006.059905
 20
-403.363481
 10
-2006.040784
 20
-403.300342
 10
-2006.019163
 20
-403.237541
 10
-2005.995117
 20
-403.1752
 10
-2005.968726
 20
-403.113445
 10
-2005.940066
 20
-403.052398
 10
-2005.909215
 20
-402.992185
 10
-2005.87625
 20
-402.932928
 10
-2005.841249
 20
-402.874752
 10
-2005.80429
 20
-402.817781
 10
-2005.76545
 20
-402.762139
 10
-2005.724806
 20
-402.707949
 10
-2005.682437
 20
-402.655336
 10
-2005.63842
 20
-402.604423
 10
-2005.592831
 20
-402.555335
 10
-2005.54575
 20
-402.508196
 10
-2005.497252
 20
-402.463129
 10
-2005.447417
 20
-402.420258
 10
-2005.396321
 20
-402.379708
 10
-2005.344065
 20
-402.341567
 10
-2005.290844
 20
-402.305785
 10
-2005.236876
 20
-402.272278
 10
-2005.182379
 20
-402.24096
 10
-2005.127571
 20
-402.211747
 10
-2005.07267
 20
-402.184553
 10
-2005.017893
 20
-402.159293
 10
-2004.96346
 20
-402.135884
 10
-2004.909587
 20
-402.114239
 10
-2004.856492
 20
-402.094274
 10
-2004.804395
 20
-402.075903
 10
-2004.753512
 20
-402.059043
 10
-2004.704062
 20
-402.043607
 10
-2004.656263
 20
-402.029512
 10
-2004.610332
 20
-402.016671
 10
-2004.566488
 20
-402.005
 10
-2004.524949
 20
-401.994415
 10
-2004.485932
 20
-401.984829
 10
-2004.449656
 20
-401.976159
 10
-2004.204568
 20
-401.918632
 10
-2004.204133
 20
-401.91853
 10
-2004.201093
 20
-401.917816
 10
-2004.192839
 20
-401.915878
 10
-2004.176766
 20
-401.912105
 10
-2004.150267
 20
-401.905884
 10
-2004.110737
 20
-401.896604
 10
-2004.055568
 20
-401.883653
 10
-2003.982153
 20
-401.866419
 10
-2003.887888
 20
-401.844289
 10
-2003.770165
 20
-401.816653
 10
-2003.626378
 20
-401.782898
 10
-2003.45392
 20
-401.742412
 10
-2003.250185
 20
-401.694584
 10
-2003.012566
 20
-401.638801
 10
-2002.738458
 20
-401.574453
 10
-2002.425254
 20
-401.500926
 10
-2002.070346
 20
-401.417609
 10
-2001.67113
 20
-401.32389
 10
-2001.224998
 20
-401.219158
 10
-2000.729345
 20
-401.1028
 10
-2000.182866
 20
-400.97451
 10
-1999.589472
 20
-400.835207
 10
-1998.954375
 20
-400.686114
 10
-1998.282788
 20
-400.528454
 10
-1997.579924
 20
-400.363452
 10
-1996.850996
 20
-400.192331
 10
-1996.101216
 20
-400.016315
 10
-1995.335799
 20
-399.836628
 10
-1994.559955
 20
-399.654494
 10
-1993.778899
 20
-399.471136
 10
-1992.997842
 20
-399.287777
 10
-1992.221999
 20
-399.105643
 10
-1991.456581
 20
-398.925956
 10
-1990.706802
 20
-398.74994
 10
-1989.977874
 20
-398.578819
 10
-1989.27501
 20
-398.413817
 10
-1988.603423
 20
-398.256158
 10
-1987.968326
 20
-398.107064
 10
-1987.374932
 20
-397.967761
 10
-1986.828453
 20
-397.839472
 10
-1986.332799
 20
-397.723113
 10
-1985.886667
 20
-397.618381
 10
-1985.487451
 20
-397.524662
 10
-1985.132544
 20
-397.441345
 10
-1984.819339
 20
-397.367819
 10
-1984.545231
 20
-397.30347
 10
-1984.307613
 20
-397.247687
 10
-1984.103878
 20
-397.199859
 10
-1983.93142
 20
-397.159374
 10
-1983.787633
 20
-397.125618
 10
-1983.669909
 20
-397.097982
 10
-1983.575644
 20
-397.075853
 10
-1983.50223
 20
-397.058618
 10
-1983.447061
 20
-397.045667
 10
-1983.40753
 20
-397.036387
 10
-1983.381031
 20
-397.030166
 10
-1983.364959
 20
-397.026393
 10
-1983.356705
 20
-397.024455
 10
-1983.353664
 20
-397.023741
 10
-1983.35323
 20
-397.023639
 10
-1984.070638
 20
-395.869917
 10
-1984.183568
 20
-395.68838
 10
-1984.306892
 20
-395.490583
 10
-1984.44024
 20
-395.277574
 10
-1984.583245
 20
-395.050397
 10
-1984.735538
 20
-394.8101
 10
-1984.896753
 20
-394.557728
 10
-1985.066519
 20
-394.294329
 10
-1985.24447
 20
-394.020948
 10
-1985.430236
 20
-393.738632
 10
-1985.623451
 20
-393.448427
 10
-1985.823746
 20
-393.151379
 10
-1986.030752
 20
-392.848535
 10
-1986.244102
 20
-392.54094
 10
-1986.463427
 20
-392.229643
 10
-1986.688359
 20
-391.915687
 10
-1986.918531
 20
-391.600121
 10
-1987.153574
 20
-391.28399
 10
-1987.39312
 20
-390.96834
 10
-1987.6368
 20
-390.654218
 10
-1987.884248
 20
-390.342671
 10
-1988.135113
 20
-390.034679
 10
-1988.389128
 20
-389.730962
 10
-1988.646042
 20
-389.432177
 10
-1988.905606
 20
-389.138977
 10
-1989.167572
 20
-388.852019
 10
-1989.431688
 20
-388.571957
 10
-1989.697706
 20
-388.299447
 10
-1989.965377
 20
-388.035144
 10
-1990.234451
 20
-387.779703
 10
-1990.504678
 20
-387.533779
 10
-1990.775809
 20
-387.298027
 10
-1991.047595
 20
-387.073103
 10
-1991.319786
 20
-386.859661
 10
-1991.592133
 20
-386.658358
 10
-1991.864386
 20
-386.469848
 10
-1992.136295
 20
-386.294785
 10
-1992.407612
 20
-386.133827
 10
-1992.678087
 20
-385.987627
 10
-1992.947471
 20
-385.856841
 10
-1993.215513
 20
-385.742124
 10
-1993.481915
 20
-385.643857
 10
-1993.746178
 20
-385.561327
 10
-1994.007752
 20
-385.493544
 10
-1994.266089
 20
-385.439521
 10
-1994.52064
 20
-385.39827
 10
-1994.770856
 20
-385.368802
 10
-1995.016188
 20
-385.350129
 10
-1995.256086
 20
-385.341264
 10
-1995.490003
 20
-385.341217
 10
-1995.717389
 20
-385.349001
 10
-1995.937695
 20
-385.363628
 10
-1996.150372
 20
-385.38411
 10
-1996.354871
 20
-385.409458
 10
-1996.550644
 20
-385.438684
 10
-1996.737141
 20
-385.4708
 10
-1996.913814
 20
-385.504818
 10
-1997.080113
 20
-385.539749
 10
-1997.23549
 20
-385.574606
 10
-1997.379396
 20
-385.608401
 10
-1998.349228
 20
-385.842739
 10
-2000.368843
 20
-386.074145
 10
-2000.686668
 20
-386.110593
 10
-2001.033206
 20
-386.150525
 10
-2001.406873
 20
-386.193951
 10
-2001.806088
 20
-386.240884
 10
-2002.229268
 20
-386.291335
 10
-2002.674832
 20
-386.345317
 10
-2003.141196
 20
-386.402841
 10
-2003.62678
 20
-386.46392
 10
-2004.13
 20
-386.528565
 10
-2004.649274
 20
-386.596787
 10
-2005.18302
 20
-386.6686
 10
-2005.729657
 20
-386.744014
 10
-2006.287601
 20
-386.823041
 10
-2006.855271
 20
-386.905694
 10
-2007.431084
 20
-386.991985
 10
-2008.013458
 20
-387.081925
 10
-2008.600811
 20
-387.175525
 10
-2009.191561
 20
-387.272799
 10
-2009.784126
 20
-387.373757
 10
-2010.376923
 20
-387.478413
 10
-2010.968626
 20
-387.586793
 10
-2011.558939
 20
-387.698997
 10
-2012.147819
 20
-387.815136
 10
-2012.735226
 20
-387.935327
 10
-2013.321118
 20
-388.059681
 10
-2013.905454
 20
-388.188314
 10
-2014.488193
 20
-388.321338
 10
-2015.069293
 20
-388.458869
 10
-2015.648713
 20
-388.601021
 10
-2016.226413
 20
-388.747906
 10
-2016.80235
 20
-388.899639
 10
-2017.376484
 20
-389.056333
 10
-2017.948773
 20
-389.218104
 10
-2018.519176
 20
-389.385064
 10
-2019.087652
 20
-389.557328
 10
-2019.65416
 20
-389.73501
 10
-2020.218658
 20
-389.918223
 10
-2020.781105
 20
-390.107082
 10
-2021.341461
 20
-390.3017
 10
-2021.899682
 20
-390.502191
 10
-2022.455532
 20
-390.708492
 10
-2023.007977
 20
-390.919821
 10
-2023.555787
 20
-391.135223
 10
-2024.097734
 20
-391.353739
 10
-2024.632588
 20
-391.574411
 10
-2025.159118
 20
-391.796282
 10
-2025.676095
 20
-392.018394
 10
-2026.182289
 20
-392.239789
 10
-2026.67647
 20
-392.45951
 10
-2027.157409
 20
-392.676598
 10
-2027.623876
 20
-392.890097
 10
-2028.074641
 20
-393.099048
 10
-2028.508474
 20
-393.302494
 10
-2028.924146
 20
-393.499478
 10
-2029.320426
 20
-393.68904
 10
-2029.696086
 20
-393.870224
 10
-2030.049894
 20
-394.042072
 10
-2030.380623
 20
-394.203626
 10
-2030.687041
 20
-394.353929
 10
-2032.752572
 20
-395.369819
 10
-2033.440176
 20
-396.126662
 10
-2033.548429
 20
-396.245735
 10
-2033.666732
 20
-396.375378
 10
-2033.794818
 20
-396.514808
 10
-2033.932424
 20
-396.663244
 10
-2034.079283
 20
-396.819902
 10
-2034.235132
 20
-396.984001
 10
-2034.399704
 20
-397.154758
 10
-2034.572736
 20
-397.331391
 10
-2034.753961
 20
-397.513116
 10
-2034.943116
 20
-397.699152
 10
-2035.139934
 20
-397.888716
 10
-2035.344151
 20
-398.081026
 10
-2035.555502
 20
-398.275299
 10
-2035.773722
 20
-398.470753
 10
-2035.998546
 20
-398.666605
 10
-2036.229709
 20
-398.862074
 10
-2036.466946
 20
-399.056375
 10
-2036.709991
 20
-399.248727
 10
-2036.95858
 20
-399.438348
 10
-2037.212448
 20
-399.624456
 10
-2037.471394
 20
-399.80638
 10
-2037.735468
 20
-399.983909
 10
-2038.004788
 20
-400.156943
 10
-2038.279469
 20
-400.325384
 10
-2038.559626
 20
-400.489131
 10
-2038.845376
 20
-400.648087
 10
-2039.136833
 20
-400.802151
 10
-2039.434113
 20
-400.951225
 10
-2039.737333
 20
-401.095209
 10
-2040.046608
 20
-401.234004
 10
-2040.362053
 20
-401.367512
 10
-2040.683785
 20
-401.495632
 10
-2041.011918
 20
-401.618267
 10
-2041.346569
 20
-401.735316
 10
-2041.687853
 20
-401.84668
 10
-2042.035886
 20
-401.952261
 10
-2042.390783
 20
-402.05196
 10
-2042.752661
 20
-402.145676
 10
-2043.121634
 20
-402.233312
 10
-2043.497819
 20
-402.314767
 10
-2043.881062
 20
-402.390005
 10
-2044.270134
 20
-402.459239
 10
-2044.663534
 20
-402.522744
 10
-2045.059764
 20
-402.580795
 10
-2045.457325
 20
-402.633667
 10
-2045.854718
 20
-402.681635
 10
-2046.250443
 20
-402.724975
 10
-2046.643002
 20
-402.763961
 10
-2047.030895
 20
-402.798869
 10
-2047.412623
 20
-402.829974
 10
-2047.786687
 20
-402.85755
 10
-2048.151588
 20
-402.881874
 10
-2048.505827
 20
-402.903219
 10
-2048.847905
 20
-402.921862
 10
-2049.176322
 20
-402.938077
 10
-2049.48958
 20
-402.95214
 10
-2049.786179
 20
-402.964325
 10
-2050.06462
 20
-402.974908
 10
-2050.323405
 20
-402.984163
 10
-2052.071373
 20
-403.044163
 10
-2052.074875
 20
-403.044136
 10
-2052.099388
 20
-403.043951
 10
-2052.165926
 20
-403.043447
 10
-2052.295499
 20
-403.042467
 10
-2052.509119
 20
-403.040852
 10
-2052.827799
 20
-403.038441
 10
-2053.272549
 20
-403.035078
 10
-2053.864383
 20
-403.030601
 10
-2054.624311
 20
-403.024854
 10
-2055.573346
 20
-403.017676
 10
-2056.732499
 20
-403.008909
 10
-2058.122783
 20
-402.998393
 10
-2059.765208
 20
-402.985971
 10
-2061.680788
 20
-402.971483
 10
-2063.890533
 20
-402.954769
 10
-2066.415456
 20
-402.935672
 10
-2069.276568
 20
-402.914033
 10
-2072.494881
 20
-402.889691
 10
-2076.091408
 20
-402.862489
 10
-2080.08716
 20
-402.832268
 10
-2084.492642
 20
-402.798947
 10
-2089.276338
 20
-402.762766
 10
-2094.396223
 20
-402.724043
 10
-2099.810274
 20
-402.683094
 10
-2105.476467
 20
-402.640238
 10
-2111.352778
 20
-402.595793
 10
-2117.397184
 20
-402.550077
 10
-2123.567661
 20
-402.503407
 10
-2129.822186
 20
-402.456102
 10
-2136.118734
 20
-402.408478
 10
-2142.415282
 20
-402.360855
 10
-2148.669806
 20
-402.313549
 10
-2154.840283
 20
-402.26688
 10
-2160.884689
 20
-402.221163
 10
-2166.761001
 20
-402.176718
 10
-2172.427194
 20
-402.133863
 10
-2177.841245
 20
-402.092914
 10
-2182.96113
 20
-402.05419
 10
-2187.744825
 20
-402.018009
 10
-2192.150308
 20
-401.984689
 10
-2196.146059
 20
-401.954467
 10
-2199.742586
 20
-401.927265
 10
-2202.9609
 20
-401.902924
 10
-2205.822012
 20
-401.881284
 10
-2208.346935
 20
-401.862187
 10
-2210.55668
 20
-401.845474
 10
-2212.472259
 20
-401.830986
 10
-2214.114685
 20
-401.818563
 10
-2215.504968
 20
-401.808048
 10
-2216.664121
 20
-401.799281
 10
-2217.613156
 20
-401.792103
 10
-2218.373084
 20
-401.786355
 10
-2218.964918
 20
-401.781879
 10
-2219.409669
 20
-401.778515
 10
-2219.728348
 20
-401.776105
 10
-2219.941968
 20
-401.774489
 10
-2220.071541
 20
-401.773509
 10
-2220.138079
 20
-401.773006
 10
-2220.162593
 20
-401.77282
 10
-2220.166095
 20
-401.772794
 10
-2221.536714
 20
-401.762418
 10
-2221.752451
 20
-401.760863
 10
-2221.987934
 20
-401.759625
 10
-2222.242349
 20
-401.759176
 10
-2222.514883
 20
-401.75999
 10
-2222.804723
 20
-401.76254
 10
-2223.111054
 20
-401.767297
 10
-2223.433065
 20
-401.774735
 10
-2223.76994
 20
-401.785327
 10
-2224.120867
 20
-401.799545
 10
-2224.485032
 20
-401.817862
 10
-2224.861622
 20
-401.84075
 10
-2225.249823
 20
-401.868684
 10
-2225.648822
 20
-401.902134
 10
-2226.057805
 20
-401.941574
 10
-2226.475959
 20
-401.987476
 10
-2226.902471
 20
-402.040314
 10
-2227.336527
 20
-402.100561
 10
-2227.777313
 20
-402.168688
 10
-2228.224016
 20
-402.245168
 10
-2228.675823
 20
-402.330475
 10
-2229.131517
 20
-402.424954
 10
-2229.588263
 20
-402.528446
 10
-2230.042825
 20
-402.640665
 10
-2230.491966
 20
-402.761323
 10
-2230.932448
 20
-402.890136
 10
-2231.361035
 20
-403.026816
 10
-2231.774488
 20
-403.171078
 10
-2232.169572
 20
-403.322634
 10
-2232.543049
 20
-403.4812
 10
-2232.891681
 20
-403.646488
 10
-2233.212231
 20
-403.818212
 10
-2233.501463
 20
-403.996086
 10
-2233.756139
 20
-404.179823
 10
-2233.973022
 20
-404.369138
 10
-2234.148875
 20
-404.563745
 10
-2234.280461
 20
-404.763356
 10
-2234.364541
 20
-404.967685
 10
-2234.397881
 20
-405.176447
 10
-2234.377241
 20
-405.389354
 10
-2234.299385
 20
-405.606122
 10
-2234.162416
 20
-405.826374
 10
-2233.969796
 20
-406.049386
 10
-2233.726329
 20
-406.274342
 10
-2233.436817
 20
-406.500428
 10
-2233.106064
 20
-406.726829
 10
-2232.738871
 20
-406.952731
 10
-2232.340042
 20
-407.177319
 10
-2231.91438
 20
-407.399779
 10
-2231.466687
 20
-407.619297
 10
-2231.001767
 20
-407.835057
 10
-2230.524422
 20
-408.046246
 10
-2230.039456
 20
-408.252049
 10
-2229.55167
 20
-408.45165
 10
-2229.065868
 20
-408.644237
 10
-2228.586853
 20
-408.828994
 10
-2228.119427
 20
-409.005106
 10
-2227.668393
 20
-409.17176
 10
-2227.238555
 20
-409.328141
 10
-2226.834715
 20
-409.473433
 10
-2224.088091
 20
-410.45461
 10
-2213.335196
 20
-411.671206
 10
-2211.642941
 20
-411.862559
 10
-2209.797349
 20
-412.070596
 10
-2207.806374
 20
-412.293749
 10
-2205.677974
 20
-412.530454
 10
-2203.420103
 20
-412.779145
 10
-2201.040718
 20
-413.038256
 10
-2198.547774
 20
-413.30622
 10
-2195.949227
 20
-413.581474
 10
-2193.253033
 20
-413.862449
 10
-2190.467148
 20
-414.147582
 10
-2187.599527
 20
-414.435305
 10
-2184.658126
 20
-414.724054
 10
-2181.650902
 20
-415.012261
 10
-2178.585809
 20
-415.298363
 10
-2175.470804
 20
-415.580792
 10
-2172.313843
 20
-415.857982
 10
-2169.12288
 20
-416.128369
 10
-2165.905873
 20
-416.390387
 10
-2162.670776
 20
-416.642468
 10
-2159.425546
 20
-416.883049
 10
-2156.176819
 20
-417.110864
 10
-2152.925956
 20
-417.325861
 10
-2149.672998
 20
-417.528287
 10
-2146.417986
 20
-417.71839
 10
-2143.160962
 20
-417.896419
 10
-2139.901967
 20
-418.062622
 10
-2136.641042
 20
-418.217247
 10
-2133.378229
 20
-418.360541
 10
-2130.113569
 20
-418.492755
 10
-2126.847103
 20
-418.614134
 10
-2123.578872
 20
-418.724928
 10
-2120.308919
 20
-418.825385
 10
-2117.037284
 20
-418.915754
 10
-2113.764008
 20
-418.996281
 10
-2110.489134
 20
-419.067216
 10
-2107.212702
 20
-419.128806
 10
-2103.934753
 20
-419.1813
 10
-2100.655329
 20
-419.224946
 10
-2097.374472
 20
-419.259992
 10
-2094.092222
 20
-419.286686
 10
-2090.809998
 20
-419.305327
 10
-2087.534733
 20
-419.316416
 10
-2084.274733
 20
-419.320504
 10
-2081.038309
 20
-419.318142
 10
-2077.833768
 20
-419.309882
 10
-2074.669419
 20
-419.296275
 10
-2071.553571
 20
-419.277871
 10
-2068.494533
 20
-419.255223
 10
-2065.500612
 20
-419.228881
 10
-2062.580119
 20
-419.199397
 10
-2059.741361
 20
-419.167323
 10
-2056.992648
 20
-419.133208
 10
-2054.342287
 20
-419.097605
 10
-2051.798588
 20
-419.061065
 10
-2049.369859
 20
-419.02414
 10
-2047.064409
 20
-418.987379
 10
-2044.890546
 20
-418.951335
 10
-2042.85658
 20
-418.91656
 10
-2040.970818
 20
-418.883603
 10
-2028.253425
 20
-418.658236
 10
-2025.857063
 20
-420.0556
 10
-2025.47983
 20
-420.275241
 10
-2025.067812
 20
-420.513178
 10
-2024.62217
 20
-420.766745
 10
-2024.144065
 20
-421.033279
 10
-2023.634659
 20
-421.310115
  0
LWPOLYLINE
  5
31
330
1F
100
AcDbEntity
  8
0
100
AcDbPolyline
 90
        2
 70
   128
 43
0.0
 10
-1980.952824
 20
-401.301162
 10
-2003.338924
 20
-406.555886
  0
ENDSEC
  0
SECTION
  2
OBJECTS
  0
DICTIONARY
  5
C
330
0
100
AcDbDictionary
281
     1
  3
ACAD_GROUP
350
D
  3
ACAD_LAYOUT
350
1A
  3
ACAD_MLINESTYLE
350
17
  3
ACAD_PLOTSETTINGS
350
19
  3
ACAD_PLOTSTYLENAME
350
E
  0
DICTIONARY
  5
D
102
{ACAD_REACTORS
330
C
102
}
330
C
100
AcDbDictionary
281
     1
  0
DICTIONARY
  5
1A
102
{ACAD_REACTORS
330
C
102
}
330
C
100
AcDbDictionary
281
     1
  3
Layout1
350
1E
  3
Layout2
350
26
  3
Model
350
22
  0
DICTIONARY
  5
17
102
{ACAD_REACTORS
330
C
102
}
330
C
100
AcDbDictionary
281
     1
  3
Standard
350
18
  0
DICTIONARY
  5
19
102
{ACAD_REACTORS
330
C
102
}
330
C
100
AcDbDictionary
281
     1
  0
ACDBDICTIONARYWDFLT
  5
E
102
{ACAD_REACTORS
330
C
102
}
330
C
100
AcDbDictionary
281
     1
  3
Normal
350
F
100
AcDbDictionaryWithDefault
340
F
  0
LAYOUT
  5
1E
102
{ACAD_REACTORS
330
1A
102
}
330
1A
100
AcDbPlotSettings
  1

  2

  4

  6

 40
0.0
 41
0.0
 42
0.0
 43
0.0
 44
0.0
 45
0.0
 46
0.0
 47
0.0
 48
0.0
 49
0.0
140
0.0
141
0.0
142
1.0
143
1.0
 70
   688
 72
     0
 73
     0
 74
     5
  7

 75
    16
147
1.0
148
0.0
149
0.0
100
AcDbLayout
  1
Layout1
 70
     1
 71
     1
 10
0.0
 20
0.0
 11
420.0
 21
297.0
 12
0.0
 22
0.0
 32
0.0
 14
1.000000E+20
 24
1.000000E+20
 34
1.000000E+20
 15
-1.000000E+20
 25
-1.000000E+20
 35
-1.000000E+20
146
0.0
 13
0.0
 23
0.0
 33
0.0
 16
1.0
 26
0.0
 36
0.0
 17
0.0
 27
1.0
 37
0.0
 76
     0
330
1B
  0
LAYOUT
  5
26
102
{ACAD_REACTORS
330
1A
102
}
330
1A
100
AcDbPlotSettings
  1

  2

  4

  6

 40
0.0
 41
0.0
 42
0.0
 43
0.0
 44
0.0
 45
0.0
 46
0.0
 47
0.0
 48
0.0
 49
0.0
140
0.0
141
0.0
142
1.0
143
1.0
 70
   688
 72
     0
 73
     0
 74
     5
  7

 75
    16
147
1.0
148
0.0
149
0.0
100
AcDbLayout
  1
Layout2
 70
     1
 71
     2
 10
0.0
 20
0.0
 11
0.0
 21
0.0
 12
0.0
 22
0.0
 32
0.0
 14
0.0
 24
0.0
 34
0.0
 15
0.0
 25
0.0
 35
0.0
146
0.0
 13
0.0
 23
0.0
 33
0.0
 16
1.0
 26
0.0
 36
0.0
 17
0.0
 27
1.0
 37
0.0
 76
     0
330
23
  0
LAYOUT
  5
22
102
{ACAD_REACTORS
330
1A
102
}
330
1A
100
AcDbPlotSettings
  1

  2

  4

  6

 40
0.0
 41
0.0
 42
0.0
 43
0.0
 44
0.0
 45
0.0
 46
0.0
 47
0.0
 48
0.0
 49
0.0
140
0.0
141
0.0
142
1.0
143
1.0
 70
  1712
 72
     0
 73
     0
 74
     0
  7

 75
     0
147
1.0
148
0.0
149
0.0
100
AcDbLayout
  1
Model
 70
     1
 71
     0
 10
0.0
 20
0.0
 11
0.0
 21
0.0
 12
0.0
 22
0.0
 32
0.0
 14
0.0
 24
0.0
 34
0.0
 15
0.0
 25
0.0
 35
0.0
146
0.0
 13
0.0
 23
0.0
 33
0.0
 16
1.0
 26
0.0
 36
0.0
 17
0.0
 27
1.0
 37
0.0
 76
     0
330
1F
  0
MLINESTYLE
  5
18
102
{ACAD_REACTORS
330
17
102
}
330
17
100
AcDbMlineStyle
  2
Standard
 70
     0
  3

 62
   256
 51
90.0
 52
90.0
 71
     2
 49
1.0
 62
   256
  6
BYLAYER
 49
-1.0
 62
   256
  6
BYLAYER
  0
ACDBPLACEHOLDER
  5
F
102
{ACAD_REACTORS
330
E
102
}
330
E
  0
ENDSEC
  0
EOF
