  0
SECTION
  2
HEADER
  9
$ACADVER
  1
AC1015
  9
$ACADMAINTVER
 70
     6
  9
$DWGCODEPAGE
  3
ANSI_1251
  9
$INSBASE
 10
0.0
 20
0.0
 30
0.0
  9
$EXTMIN
 10
0.0
 20
0.0
 30
0.0
  9
$EXTMAX
 10
650.0
 20
1000.0
 30
0.0
  9
$LIMMIN
 10
0.0
 20
0.0
  9
$LIMMAX
 10
650.0
 20
1000.0
  9
$ORTHOMODE
 70
     0
  9
$REGENMODE
 70
     1
  9
$FILLMODE
 70
     1
  9
$QTEXTMODE
 70
     0
  9
$MIRRTEXT
 70
     1
  9
$LTSCALE
 40
1.0
  9
$ATTMODE
 70
     1
  9
$TEXTSIZE
 40
3.5
  9
$TRACEWID
 40
1.0
  9
$TEXTSTYLE
  7
Standard
  9
$CLAYER
  8
0
  9
$CELTYPE
  6
ByLayer
  9
$CECOLOR
 62
   256
  9
$CELTSCALE
 40
1.0
  9
$DISPSILH
 70
     0
  9
$DIMSCALE
 40
1.0
  9
$DIMASZ
 40
3.302
  9
$DIMEXO
 40
0.0
  9
$DIMDLI
 40
3.75
  9
$DIMRND
 40
0.0
  9
$DIMDLE
 40
0.0
  9
$DIMEXE
 40
1.0
  9
$DIMTP
 40
0.0
  9
$DIMTM
 40
0.0
  9
$DIMTXT
 40
3.5
  9
$DIMCEN
 40
2.5
  9
$DIMTSZ
 40
0.0
  9
$DIMTOL
 70
     0
  9
$DIMLIM
 70
     0
  9
$DIMTIH
 70
     1
  9
$DIMTOH
 70
     1
  9
$DIMSE1
 70
     0
  9
$DIMSE2
 70
     0
  9
$DIMTAD
 70
     1
  9
$DIMZIN
 70
     0
  9
$DIMBLK
  1

  9
$DIMASO
 70
     1
  9
$DIMSHO
 70
     1
  9
$DIMPOST
  1

  9
$DIMAPOST
  1

  9
$DIMALT
 70
     0
  9
$DIMALTD
 70
     3
  9
$DIMALTF
 40
0.0393700787
  9
$DIMLFAC
 40
2.0
  9
$DIMTOFL
 70
     1
  9
$DIMTVP
 40
0.0
  9
$DIMTIX
 70
     0
  9
$DIMSOXD
 70
     0
  9
$DIMSAH
 70
     0
  9
$DIMBLK1
  1

  9
$DIMBLK2
  1

  9
$DIMSTYLE
  2
ISO-25
  9
$DIMCLRD
 70
     0
  9
$DIMCLRE
 70
     0
  9
$DIMCLRT
 70
     0
  9
$DIMTFAC
 40
1.0
  9
$DIMGAP
 40
1.524
  9
$DIMJUST
 70
     0
  9
$DIMSD1
 70
     0
  9
$DIMSD2
 70
     0
  9
$DIMTOLJ
 70
     0
  9
$DIMTZIN
 70
     0
  9
$DIMALTZ
 70
     0
  9
$DIMALTTZ
 70
     0
  9
$DIMUPT
 70
     0
  9
$DIMDEC
 70
     3
  9
$DIMTDEC
 70
     3
  9
$DIMALTU
 70
     2
  9
$DIMALTTD
 70
     3
  9
$DIMTXSTY
  7
Standard
  9
$DIMAUNIT
 70
     0
  9
$DIMADEC
 70
     2
  9
$DIMALTRND
 40
0.0
  9
$DIMAZIN
 70
     0
  9
$DIMDSEP
 70
    44
  9
$DIMATFIT
 70
     3
  9
$DIMFRAC
 70
     0
  9
$DIMLDRBLK
  1

  9
$DIMLUNIT
 70
     2
  9
$DIMLWD
 70
    -2
  9
$DIMLWE
 70
    -2
  9
$DIMTMOVE
 70
     0
  9
$LUNITS
 70
     2
  9
$LUPREC
 70
     2
  9
$SKETCHINC
 40
1.0
  9
$FILLETRAD
 40
10.0
  9
$AUNITS
 70
     0
  9
$AUPREC
 70
     2
  9
$MENU
  1
.
  9
$ELEVATION
 40
0.0
  9
$PELEVATION
 40
0.0
  9
$THICKNESS
 40
0.0
  9
$LIMCHECK
 70
     0
  9
$CHAMFERA
 40
10.0
  9
$CHAMFERB
 40
10.0
  9
$CHAMFERC
 40
20.0
  9
$CHAMFERD
 40
0.0
  9
$SKPOLY
 70
     0
  9
$TDCREATE
 40
2456500.529198194
  9
$TDUCREATE
 40
2456500.362531528
  9
$TDUPDATE
 40
2456500.529198206
  9
$TDUUPDATE
 40
2456500.36253154
  9
$TDINDWG
 40
0.0000000116
  9
$TDUSRTIMER
 40
0.0000000116
  9
$USRTIMER
 70
     1
  9
$ANGBASE
 50
0.0
  9
$ANGDIR
 70
     0
  9
$PDMODE
 70
     0
  9
$PDSIZE
 40
-1.0
  9
$PLINEWID
 40
0.0
  9
$SPLFRAME
 70
     0
  9
$SPLINETYPE
 70
     6
  9
$SPLINESEGS
 70
     8
  9
$HANDSEED
  5
42A
  9
$SURFTAB1
 70
     6
  9
$SURFTAB2
 70
     6
  9
$SURFTYPE
 70
     6
  9
$SURFU
 70
     6
  9
$SURFV
 70
     6
  9
$UCSBASE
  2

  9
$UCSNAME
  2

  9
$UCSORG
 10
0.0
 20
0.0
 30
0.0
  9
$UCSXDIR
 10
1.0
 20
0.0
 30
0.0
  9
$UCSYDIR
 10
0.0
 20
1.0
 30
0.0
  9
$UCSORTHOREF
  2

  9
$UCSORTHOVIEW
 70
     0
  9
$UCSORGTOP
 10
0.0
 20
0.0
 30
0.0
  9
$UCSORGBOTTOM
 10
0.0
 20
0.0
 30
0.0
  9
$UCSORGLEFT
 10
0.0
 20
0.0
 30
0.0
  9
$UCSORGRIGHT
 10
0.0
 20
0.0
 30
0.0
  9
$UCSORGFRONT
 10
0.0
 20
0.0
 30
0.0
  9
$UCSORGBACK
 10
0.0
 20
0.0
 30
0.0
  9
$PUCSBASE
  2

  9
$PUCSNAME
  2

  9
$PUCSORG
 10
0.0
 20
0.0
 30
0.0
  9
$PUCSXDIR
 10
1.0
 20
0.0
 30
0.0
  9
$PUCSYDIR
 10
0.0
 20
1.0
 30
0.0
  9
$PUCSORTHOREF
  2

  9
$PUCSORTHOVIEW
 70
     0
  9
$PUCSORGTOP
 10
0.0
 20
0.0
 30
0.0
  9
$PUCSORGBOTTOM
 10
0.0
 20
0.0
 30
0.0
  9
$PUCSORGLEFT
 10
0.0
 20
0.0
 30
0.0
  9
$PUCSORGRIGHT
 10
0.0
 20
0.0
 30
0.0
  9
$PUCSORGFRONT
 10
0.0
 20
0.0
 30
0.0
  9
$PUCSORGBACK
 10
0.0
 20
0.0
 30
0.0
  9
$USERI1
 70
     0
  9
$USERI2
 70
     0
  9
$USERI3
 70
     0
  9
$USERI4
 70
     0
  9
$USERI5
 70
     0
  9
$USERR1
 40
0.0
  9
$USERR2
 40
0.0
  9
$USERR3
 40
0.0
  9
$USERR4
 40
0.0
  9
$USERR5
 40
0.0
  9
$WORLDVIEW
 70
     1
  9
$SHADEDGE
 70
     3
  9
$SHADEDIF
 70
    70
  9
$TILEMODE
 70
     1
  9
$MAXACTVP
 70
    64
  9
$PINSBASE
 10
0.0
 20
0.0
 30
0.0
  9
$PLIMCHECK
 70
     0
  9
$PEXTMIN
 10
1.0000000000E+20
 20
1.0000000000E+20
 30
1.0000000000E+20
  9
$PEXTMAX
 10
-1.0000000000E+20
 20
-1.0000000000E+20
 30
-1.0000000000E+20
  9
$PLIMMIN
 10
0.0
 20
0.0
  9
$PLIMMAX
 10
420.0
 20
297.0
  9
$UNITMODE
 70
     0
  9
$VISRETAIN
 70
     1
  9
$PLINEGEN
 70
     0
  9
$PSLTSCALE
 70
     1
  9
$TREEDEPTH
 70
  3020
  9
$CMLSTYLE
  2
Standard
  9
$CMLJUST
 70
     0
  9
$CMLSCALE
 40
20.0
  9
$PROXYGRAPHICS
 70
     1
  9
$MEASUREMENT
 70
     1
  9
$CELWEIGHT
370
    -1
  9
$ENDCAPS
280
     0
  9
$JOINSTYLE
280
     0
  9
$LWDISPLAY
290
     1
  9
$INSUNITS
 70
     4
  9
$HYPERLINKBASE
  1

  9
$STYLESHEET
  1

  9
$XEDIT
290
     1
  9
$CEPSNTYPE
380
     0
  9
$PSTYLEMODE
290
     1
  9
$FINGERPRINTGUID
  2
{93B5CA0D-5B91-43D8-90C9-CCD1A2E0A97B}
  9
$VERSIONGUID
  2
{FAEB1C32-E019-11D5-929B-00C0DF256EC4}
  9
$EXTNAMES
290
     1
  9
$PSVPSCALE
 40
0.0
  9
$OLESTARTUP
290
     0
  0
ENDSEC
  0
SECTION
  2
CLASSES
  0
CLASS
  1
ACDBDICTIONARYWDFLT
  2
AcDbDictionaryWithDefault
  3
ObjectDBX Classes
 90
        0
280
     0
281
     0
  0
CLASS
  1
VISUALSTYLE
  2
AcDbVisualStyle
  3
ObjectDBX Classes
 90
     4095
280
     0
281
     0
  0
CLASS
  1
MATERIAL
  2
AcDbMaterial
  3
ObjectDBX Classes
 90
     1153
280
     0
281
     0
  0
CLASS
  1
ACDBPLACEHOLDER
  2
AcDbPlaceHolder
  3
ObjectDBX Classes
 90
        0
280
     0
281
     0
  0
CLASS
  1
LAYOUT
  2
AcDbLayout
  3
ObjectDBX Classes
 90
        0
280
     0
281
     0
  0
ENDSEC
  0
SECTION
  2
TABLES
  0
TABLE
  2
VPORT
  5
8
330
0
100
AcDbSymbolTable
 70
     1
  0
VPORT
  5
29
330
8
100
AcDbSymbolTableRecord
100
AcDbViewportTableRecord
  2
*Active
 70
     0
 10
0.0
 20
0.0
 11
1.0
 21
1.0
 12
325.0
 22
500.0
 13
0.0
 23
0.0
 14
10.0
 24
10.0
 15
10.0
 25
10.0
 16
0.0
 26
0.0
 36
1.0
 17
0.0
 27
0.0
 37
0.0
 40
1000.0
 41
0.65
 42
50.0
 43
0.0
 44
0.0
 50
0.0
 51
0.0
 71
     0
 72
  2000
 73
     1
 74
     3
 75
     0
 76
     0
 77
     0
 78
     0
281
     0
 65
     1
110
0.0
120
0.0
130
0.0
111
1.0
121
0.0
131
0.0
112
0.0
122
1.0
132
0.0
 79
     0
146
0.0
  0
ENDTAB
  0
TABLE
  2
LTYPE
  5
5
330
0
100
AcDbSymbolTable
 70
     6
  0
LTYPE
  5
14
330
5
100
AcDbSymbolTableRecord
100
AcDbLinetypeTableRecord
  2
ByBlock
 70
     0
  3

 72
    65
 73
     0
 40
0.0
  0
LTYPE
  5
15
330
5
100
AcDbSymbolTableRecord
100
AcDbLinetypeTableRecord
  2
ByLayer
 70
     0
  3

 72
    65
 73
     0
 40
0.0
  0
LTYPE
  5
16
330
5
100
AcDbSymbolTableRecord
100
AcDbLinetypeTableRecord
  2
Continuous
 70
     0
  3
Solid line
 72
    65
 73
     0
 40
0.0
  0
LTYPE
  5
3F
330
5
100
AcDbSymbolTableRecord
100
AcDbLinetypeTableRecord
  2
HIDDEN
 70
     0
  3
Hidden __ __ __ __ __ __ __ __ __ __ __ __ __ __
 72
    65
 73
     2
 40
1.905
 49
1.27
 74
     0
 49
-0.635
 74
     0
  0
LTYPE
  5
40
330
5
100
AcDbSymbolTableRecord
100
AcDbLinetypeTableRecord
  2
PHANTOM
 70
     0
  3
Phantom ______  __  __  ______  __  __  ______
 72
    65
 73
     6
 40
12.7
 49
6.35
 74
     0
 49
-1.27
 74
     0
 49
1.27
 74
     0
 49
-1.27
 74
     0
 49
1.27
 74
     0
 49
-1.27
 74
     0
  0
LTYPE
  5
41
330
5
100
AcDbSymbolTableRecord
100
AcDbLinetypeTableRecord
  2
CENTER
 70
     0
  3
Center ____ _ ____ _ ____ _ ____ _ ____ _ ____
 72
    65
 73
     4
 40
10.16
 49
6.35
 74
     0
 49
-1.27
 74
     0
 49
1.27
 74
     0
 49
-1.27
 74
     0
  0
LTYPE
  5
42
330
5
100
AcDbSymbolTableRecord
100
AcDbLinetypeTableRecord
  2
CENTERX2
 70
     0
  3
Center (2x) ________  __  ________  __  _____
 72
    65
 73
     4
 40
20.32
 49
12.7
 74
     0
 49
-2.54
 74
     0
 49
2.54
 74
     0
 49
-2.54
 74
     0
  0
LTYPE
  5
43
330
5
100
AcDbSymbolTableRecord
100
AcDbLinetypeTableRecord
  2
DOT2
 70
     0
  3
Dot (.5x) ........................................
 72
    65
 73
     2
 40
0.635
 49
0.0
 74
     0
 49
-0.635
 74
     0
  0
ENDTAB
  0
TABLE
  2
LAYER
  5
2
330
0
100
AcDbSymbolTable
 70
     1
  0
LAYER
  5
10
330
2
100
AcDbSymbolTableRecord
100
AcDbLayerTableRecord
  2
0
 70
     0
 62
     7
  6
Continuous
370
    -3
390
F
  0
ENDTAB
  0
TABLE
  2
STYLE
  5
3
330
0
100
AcDbSymbolTable
 70
     1
  0
STYLE
  5
11
330
3
100
AcDbSymbolTableRecord
100
AcDbTextStyleTableRecord
  2
Standard
 70
     0
 40
0.0
 41
1.0
 50
0.0
 71
     0
 42
2.5
  3
txt
  4

  0
ENDTAB
  0
TABLE
  2
VIEW
  5
6
330
0
100
AcDbSymbolTable
 70
     0
  0
ENDTAB
  0
TABLE
  2
UCS
  5
7
330
0
100
AcDbSymbolTable
 70
     0
  0
ENDTAB
  0
TABLE
  2
APPID
  5
9
330
0
100
AcDbSymbolTable
 70
     1
  0
APPID
  5
12
330
9
100
AcDbSymbolTableRecord
100
AcDbRegAppTableRecord
  2
ACAD
 70
     0
  0
ENDTAB
  0
TABLE
  2
DIMSTYLE
  5
A
330
0
100
AcDbSymbolTable
 70
     1
100
AcDbDimStyleTable
  0
DIMSTYLE
105
27
330
A
100
AcDbSymbolTableRecord
100
AcDbDimStyleTableRecord
  2
ISO-25
 70
     0
 41
2.5
 42
0.625
 43
3.75
 44
1.25
 73
     0
 74
     0
 77
     1
 78
     8
140
2.5
141
2.5
143
0.0393700787
147
0.625
171
     3
172
     1
271
     2
272
     2
274
     3
278
    44
283
     0
284
     8
340
11
  0
ENDTAB
  0
TABLE
  2
BLOCK_RECORD
  5
1
330
0
100
AcDbSymbolTable
 70
     2
  0
BLOCK_RECORD
  5
1F
330
1
100
AcDbSymbolTableRecord
100
AcDbBlockTableRecord
  2
*Model_Space
340
22
  0
BLOCK_RECORD
  5
1B
330
1
100
AcDbSymbolTableRecord
100
AcDbBlockTableRecord
  2
*Paper_Space
340
1E
  0
BLOCK_RECORD
  5
23
330
1
100
AcDbSymbolTableRecord
100
AcDbBlockTableRecord
  2
*Paper_Space0
340
26
  0
BLOCK_RECORD
  5
2A6
330
1
100
AcDbSymbolTableRecord
100
AcDbBlockTableRecord
  2
SW_CENTERMARKSYMBOL_0
340
0
102
{BLKREFS
331
2B1
102
}
  0
ENDTAB
  0
ENDSEC
  0
SECTION
  2
BLOCKS
  0
BLOCK
  5
20
330
1F
100
AcDbEntity
  8
0
100
AcDbBlockBegin
  2
*Model_Space
 70
     0
 10
0.0
 20
0.0
 30
0.0
  3
*Model_Space
  1

  0
ENDBLK
  5
21
330
1F
100
AcDbEntity
  8
0
100
AcDbBlockEnd
  0
BLOCK
  5
1C
330
1B
100
AcDbEntity
 67
     1
  8
0
100
AcDbBlockBegin
  2
*Paper_Space
 70
     0
 10
0.0
 20
0.0
 30
0.0
  3
*Paper_Space
  1

  0
ENDBLK
  5
1D
330
1B
100
AcDbEntity
 67
     1
  8
0
100
AcDbBlockEnd
  0
BLOCK
  5
24
330
23
100
AcDbEntity
  8
0
100
AcDbBlockBegin
  2
*Paper_Space0
 70
     0
 10
0.0
 20
0.0
 30
0.0
  3
*Paper_Space0
  1

  0
ENDBLK
  5
25
330
23
100
AcDbEntity
  8
0
100
AcDbBlockEnd
  0
BLOCK
  5
2A7
330
2A6
100
AcDbEntity
  8
0
100
AcDbBlockBegin
  2
SW_CENTERMARKSYMBOL_0
 70
     0
 10
0.0
 20
0.0
 30
0.0
  3
SW_CENTERMARKSYMBOL_0
  1

  0
LINE
  5
2A9
330
2A6
100
AcDbEntity
  8
0
  6
Continuous
 62
     0
370
     0
100
AcDbLine
 10
0.0
 20
0.0
 30
0.0
 11
0.0
 21
2.5
 31
0.0
  0
LINE
  5
2AA
330
2A6
100
AcDbEntity
  8
0
  6
Continuous
 62
     0
370
     0
100
AcDbLine
 10
0.0
 20
0.0
 30
0.0
 11
-2.5
 21
0.0
 31
0.0
  0
LINE
  5
2AB
330
2A6
100
AcDbEntity
  8
0
  6
Continuous
 62
     0
370
     0
100
AcDbLine
 10
0.0
 20
0.0
 30
0.0
 11
0.0
 21
-2.5
 31
0.0
  0
LINE
  5
2AC
330
2A6
100
AcDbEntity
  8
0
  6
Continuous
 62
     0
370
     0
100
AcDbLine
 10
0.0
 20
0.0
 30
0.0
 11
2.5
 21
0.0
 31
0.0
  0
LINE
  5
2AD
330
2A6
100
AcDbEntity
  8
0
  6
Continuous
 62
     0
370
     0
100
AcDbLine
 10
0.0
 20
5.0
 30
0.0
 11
0.0
 21
7.5
 31
0.0
  0
LINE
  5
2AE
330
2A6
100
AcDbEntity
  8
0
  6
Continuous
 62
     0
370
     0
100
AcDbLine
 10
-5.0
 20
0.0
 30
0.0
 11
-7.5
 21
0.0
 31
0.0
  0
LINE
  5
2AF
330
2A6
100
AcDbEntity
  8
0
  6
Continuous
 62
     0
370
     0
100
AcDbLine
 10
0.0
 20
-5.0
 30
0.0
 11
0.0
 21
-7.5
 31
0.0
  0
LINE
  5
2B0
330
2A6
100
AcDbEntity
  8
0
  6
Continuous
 62
     0
370
     0
100
AcDbLine
 10
5.0
 20
0.0
 30
0.0
 11
7.5
 21
0.0
 31
0.0
  0
ENDBLK
  5
2A8
330
2A6
100
AcDbEntity
  8
0
100
AcDbBlockEnd
  0
ENDSEC
  0
SECTION
  2
ENTITIES
  0
LINE
  5
44
330
1F
100
AcDbEntity
  8
0
  6
Continuous
 62
     7
370
    15
100
AcDbLine
 10
362.9909097119
 20
717.0438457591
 30
0.0
 11
364.9909097119
 21
719.0438457591
 31
0.0
  0
LINE
  5
45
330
1F
100
AcDbEntity
  8
0
  6
Continuous
 62
     7
370
    15
100
AcDbLine
 10
364.9909097119
 20
719.0438457591
 30
0.0
 11
374.9909097119
 21
719.0438457591
 31
0.0
  0
ARC
  5
46
330
1F
100
AcDbEntity
  8
0
  6
Continuous
 62
     7
370
    15
100
AcDbCircle
 10
374.9909097119
 20
722.0938457591
 30
0.0
 40
3.050000000000068
100
AcDbArc
 50
270.0
 51
90.0
  0
LINE
  5
47
330
1F
100
AcDbEntity
  8
0
  6
Continuous
 62
     7
370
    15
100
AcDbLine
 10
374.9909097119
 20
732.9438457591
 30
0.0
 11
374.9909097119
 21
725.1438457591
 31
0.0
  0
ARC
  5
48
330
1F
100
AcDbEntity
  8
0
  6
Continuous
 62
     7
370
    15
100
AcDbCircle
 10
374.9909097119
 20
735.9938457591
 30
0.0
 40
3.049999999999955
100
AcDbArc
 50
270.0
 51
90.0
  0
LINE
  5
49
330
1F
100
AcDbEntity
  8
0
  6
Continuous
 62
     7
370
    15
100
AcDbLine
 10
374.9909097119
 20
739.0438457591
 30
0.0
 11
364.9909097119
 21
739.0438457591
 31
0.0
  0
LINE
  5
4A
330
1F
100
AcDbEntity
  8
0
  6
Continuous
 62
     7
370
    15
100
AcDbLine
 10
362.9909097119
 20
741.0438457591
 30
0.0
 11
364.9909097119
 21
739.0438457591
 31
0.0
  0
LINE
  5
4B
330
1F
100
AcDbEntity
  8
0
  6
Continuous
 62
     7
370
    15
100
AcDbLine
 10
362.9909097119
 20
757.0438457591
 30
0.0
 11
362.9909097119
 21
741.0438457591
 31
0.0
  0
LINE
  5
4C
330
1F
100
AcDbEntity
  8
0
  6
Continuous
 62
     7
370
    15
100
AcDbLine
 10
362.9909097119
 20
757.0438457591
 30
0.0
 11
364.9909097119
 21
759.0438457591
 31
0.0
  0
LINE
  5
4D
330
1F
100
AcDbEntity
  8
0
  6
Continuous
 62
     7
370
    15
100
AcDbLine
 10
364.9909097119
 20
759.0438457591
 30
0.0
 11
374.9909097119
 21
759.0438457591
 31
0.0
  0
ARC
  5
4E
330
1F
100
AcDbEntity
  8
0
  6
Continuous
 62
     7
370
    15
100
AcDbCircle
 10
374.9909097119
 20
762.0938457591
 30
0.0
 40
3.049999999999955
100
AcDbArc
 50
270.0
 51
90.0
  0
LINE
  5
4F
330
1F
100
AcDbEntity
  8
0
  6
Continuous
 62
     7
370
    15
100
AcDbLine
 10
374.9909097119
 20
772.9438457591
 30
0.0
 11
374.9909097119
 21
765.1438457591
 31
0.0
  0
ARC
  5
50
330
1F
100
AcDbEntity
  8
0
  6
Continuous
 62
     7
370
    15
100
AcDbCircle
 10
374.9909097119
 20
775.9938457591
 30
0.0
 40
3.050000000000068
100
AcDbArc
 50
270.0
 51
90.0
  0
LINE
  5
51
330
1F
100
AcDbEntity
  8
0
  6
Continuous
 62
     7
370
    15
100
AcDbLine
 10
374.9909097119
 20
779.0438457591
 30
0.0
 11
364.9909097119
 21
779.0438457591
 31
0.0
  0
LINE
  5
52
330
1F
100
AcDbEntity
  8
0
  6
Continuous
 62
     7
370
    15
100
AcDbLine
 10
362.9909097119
 20
781.0438457591
 30
0.0
 11
364.9909097119
 21
779.0438457591
 31
0.0
  0
LINE
  5
53
330
1F
100
AcDbEntity
  8
0
  6
Continuous
 62
     7
370
    15
100
AcDbLine
 10
362.9909097119
 20
797.0438457591
 30
0.0
 11
362.9909097119
 21
781.0438457591
 31
0.0
  0
LINE
  5
54
330
1F
100
AcDbEntity
  8
0
  6
Continuous
 62
     7
370
    15
100
AcDbLine
 10
362.9909097119
 20
797.0438457591
 30
0.0
 11
364.9909097119
 21
799.0438457591
 31
0.0
  0
LINE
  5
55
330
1F
100
AcDbEntity
  8
0
  6
Continuous
 62
     7
370
    15
100
AcDbLine
 10
364.9909097119
 20
799.0438457591
 30
0.0
 11
374.9909097119
 21
799.0438457591
 31
0.0
  0
ARC
  5
56
330
1F
100
AcDbEntity
  8
0
  6
Continuous
 62
     7
370
    15
100
AcDbCircle
 10
374.9909097119
 20
802.0938457591
 30
0.0
 40
3.050000000000068
100
AcDbArc
 50
270.0
 51
90.0
  0
LINE
  5
57
330
1F
100
AcDbEntity
  8
0
  6
Continuous
 62
     7
370
    15
100
AcDbLine
 10
374.9909097119
 20
812.9438457591
 30
0.0
 11
374.9909097119
 21
805.1438457591
 31
0.0
  0
ARC
  5
58
330
1F
100
AcDbEntity
  8
0
  6
Continuous
 62
     7
370
    15
100
AcDbCircle
 10
374.9909097119
 20
815.9938457591
 30
0.0
 40
3.050000000000068
100
AcDbArc
 50
270.0
 51
90.0
  0
LINE
  5
59
330
1F
100
AcDbEntity
  8
0
  6
Continuous
 62
     7
370
    15
100
AcDbLine
 10
374.9909097119
 20
819.0438457591
 30
0.0
 11
364.9909097119
 21
819.0438457591
 31
0.0
  0
LINE
  5
5A
330
1F
100
AcDbEntity
  8
0
  6
Continuous
 62
     7
370
    15
100
AcDbLine
 10
362.9909097119
 20
821.0438457591
 30
0.0
 11
364.9909097119
 21
819.0438457591
 31
0.0
  0
LINE
  5
5B
330
1F
100
AcDbEntity
  8
0
  6
Continuous
 62
     7
370
    15
100
AcDbLine
 10
362.9909097119
 20
837.0438457591
 30
0.0
 11
362.9909097119
 21
821.0438457591
 31
0.0
  0
LINE
  5
5C
330
1F
100
AcDbEntity
  8
0
  6
Continuous
 62
     7
370
    15
100
AcDbLine
 10
362.9909097119
 20
837.0438457591
 30
0.0
 11
364.9909097119
 21
839.0438457591
 31
0.0
  0
LINE
  5
5D
330
1F
100
AcDbEntity
  8
0
  6
Continuous
 62
     7
370
    15
100
AcDbLine
 10
364.9909097119
 20
839.0438457591
 30
0.0
 11
374.9909097119
 21
839.0438457591
 31
0.0
  0
ARC
  5
5E
330
1F
100
AcDbEntity
  8
0
  6
Continuous
 62
     7
370
    15
100
AcDbCircle
 10
374.9909097119
 20
842.0938457591
 30
0.0
 40
3.050000000000068
100
AcDbArc
 50
270.0
 51
90.0
  0
LINE
  5
5F
330
1F
100
AcDbEntity
  8
0
  6
Continuous
 62
     7
370
    15
100
AcDbLine
 10
374.9909097119
 20
852.9438457591
 30
0.0
 11
374.9909097119
 21
845.1438457591
 31
0.0
  0
ARC
  5
60
330
1F
100
AcDbEntity
  8
0
  6
Continuous
 62
     7
370
    15
100
AcDbCircle
 10
374.9909097119
 20
855.9938457591
 30
0.0
 40
3.049999999999955
100
AcDbArc
 50
270.0
 51
90.0
  0
LINE
  5
61
330
1F
100
AcDbEntity
  8
0
  6
Continuous
 62
     7
370
    15
100
AcDbLine
 10
374.9909097119
 20
859.0438457591
 30
0.0
 11
364.9909097119
 21
859.0438457591
 31
0.0
  0
LINE
  5
62
330
1F
100
AcDbEntity
  8
0
  6
Continuous
 62
     7
370
    15
100
AcDbLine
 10
362.9909097119
 20
861.0438457591
 30
0.0
 11
364.9909097119
 21
859.0438457591
 31
0.0
  0
LINE
  5
63
330
1F
100
AcDbEntity
  8
0
  6
Continuous
 62
     7
370
    15
100
AcDbLine
 10
362.9909097119
 20
877.0438457591
 30
0.0
 11
362.9909097119
 21
861.0438457591
 31
0.0
  0
LINE
  5
64
330
1F
100
AcDbEntity
  8
0
  6
Continuous
 62
     7
370
    15
100
AcDbLine
 10
362.9909097119
 20
877.0438457591
 30
0.0
 11
364.9909097119
 21
879.0438457591
 31
0.0
  0
LINE
  5
65
330
1F
100
AcDbEntity
  8
0
  6
Continuous
 62
     7
370
    15
100
AcDbLine
 10
364.9909097119
 20
879.0438457591
 30
0.0
 11
374.9909097119
 21
879.0438457591
 31
0.0
  0
ARC
  5
66
330
1F
100
AcDbEntity
  8
0
  6
Continuous
 62
     7
370
    15
100
AcDbCircle
 10
374.9909097119
 20
882.0938457591
 30
0.0
 40
3.049999999999955
100
AcDbArc
 50
270.0
 51
90.0
  0
LINE
  5
67
330
1F
100
AcDbEntity
  8
0
  6
Continuous
 62
     7
370
    15
100
AcDbLine
 10
374.9909097119
 20
892.9438457591
 30
0.0
 11
374.9909097119
 21
885.1438457591
 31
0.0
  0
ARC
  5
68
330
1F
100
AcDbEntity
  8
0
  6
Continuous
 62
     7
370
    15
100
AcDbCircle
 10
374.9909097119
 20
895.9938457591
 30
0.0
 40
3.050000000000068
100
AcDbArc
 50
270.0
 51
90.0
  0
LINE
  5
69
330
1F
100
AcDbEntity
  8
0
  6
Continuous
 62
     7
370
    15
100
AcDbLine
 10
374.9909097119
 20
899.0438457591
 30
0.0
 11
364.9909097119
 21
899.0438457591
 31
0.0
  0
LINE
  5
6A
330
1F
100
AcDbEntity
  8
0
  6
Continuous
 62
     7
370
    15
100
AcDbLine
 10
362.9909097119
 20
901.0438457591
 30
0.0
 11
364.9909097119
 21
899.0438457591
 31
0.0
  0
LINE
  5
6B
330
1F
100
AcDbEntity
  8
0
  6
Continuous
 62
     7
370
    15
100
AcDbLine
 10
362.9909097119
 20
917.0438457591
 30
0.0
 11
362.9909097119
 21
901.0438457591
 31
0.0
  0
LINE
  5
6C
330
1F
100
AcDbEntity
  8
0
  6
Continuous
 62
     7
370
    15
100
AcDbLine
 10
362.9909097119
 20
917.0438457591
 30
0.0
 11
364.9909097119
 21
919.0438457591
 31
0.0
  0
LINE
  5
6D
330
1F
100
AcDbEntity
  8
0
  6
Continuous
 62
     7
370
    15
100
AcDbLine
 10
364.9909097119
 20
919.0438457591
 30
0.0
 11
374.9909097119
 21
919.0438457591
 31
0.0
  0
ARC
  5
6E
330
1F
100
AcDbEntity
  8
0
  6
Continuous
 62
     7
370
    15
100
AcDbCircle
 10
374.9909097119
 20
922.0938457591
 30
0.0
 40
3.050000000000068
100
AcDbArc
 50
270.0
 51
90.0
  0
LINE
  5
6F
330
1F
100
AcDbEntity
  8
0
  6
Continuous
 62
     7
370
    15
100
AcDbLine
 10
374.9909097119
 20
932.9438457591
 30
0.0
 11
374.9909097119
 21
925.1438457591
 31
0.0
  0
ARC
  5
70
330
1F
100
AcDbEntity
  8
0
  6
Continuous
 62
     7
370
    15
100
AcDbCircle
 10
374.9909097119
 20
935.9938457591
 30
0.0
 40
3.050000000000068
100
AcDbArc
 50
270.0
 51
90.0
  0
LINE
  5
71
330
1F
100
AcDbEntity
  8
0
  6
Continuous
 62
     7
370
    15
100
AcDbLine
 10
374.9909097119
 20
939.0438457591
 30
0.0
 11
364.9909097119
 21
939.0438457591
 31
0.0
  0
LINE
  5
72
330
1F
100
AcDbEntity
  8
0
  6
Continuous
 62
     7
370
    15
100
AcDbLine
 10
362.9909097119
 20
941.0438457591
 30
0.0
 11
364.9909097119
 21
939.0438457591
 31
0.0
  0
LINE
  5
73
330
1F
100
AcDbEntity
  8
0
  6
Continuous
 62
     7
370
    15
100
AcDbLine
 10
362.9909097119
 20
957.0438457591
 30
0.0
 11
362.9909097119
 21
941.0438457591
 31
0.0
  0
LINE
  5
74
330
1F
100
AcDbEntity
  8
0
  6
Continuous
 62
     7
370
    15
100
AcDbLine
 10
362.9909097119
 20
957.0438457591
 30
0.0
 11
364.9909097119
 21
959.0438457591
 31
0.0
  0
LINE
  5
75
330
1F
100
AcDbEntity
  8
0
  6
Continuous
 62
     7
370
    15
100
AcDbLine
 10
364.9909097119
 20
959.0438457591
 30
0.0
 11
374.9909097119
 21
959.0438457591
 31
0.0
  0
ARC
  5
76
330
1F
100
AcDbEntity
  8
0
  6
Continuous
 62
     7
370
    15
100
AcDbCircle
 10
374.9909097119
 20
962.0938457591
 30
0.0
 40
3.050000000000068
100
AcDbArc
 50
270.0
 51
90.0
  0
LINE
  5
77
330
1F
100
AcDbEntity
  8
0
  6
Continuous
 62
     7
370
    15
100
AcDbLine
 10
374.9909097119
 20
972.9438457591
 30
0.0
 11
374.9909097119
 21
965.1438457591
 31
0.0
  0
ARC
  5
78
330
1F
100
AcDbEntity
  8
0
  6
Continuous
 62
     7
370
    15
100
AcDbCircle
 10
374.9909097119
 20
975.9938457591
 30
0.0
 40
3.049999999999955
100
AcDbArc
 50
270.0
 51
90.0
  0
LINE
  5
79
330
1F
100
AcDbEntity
  8
0
  6
Continuous
 62
     7
370
    15
100
AcDbLine
 10
610.9909097119
 20
979.0438457591
 30
0.0
 11
374.9909097119
 21
979.0438457591
 31
0.0
  0
ARC
  5
7A
330
1F
100
AcDbEntity
  8
0
  6
Continuous
 62
     7
370
    15
100
AcDbCircle
 10
610.9909097119
 20
975.9938457591
 30
0.0
 40
3.049999999999955
100
AcDbArc
 50
90.0
 51
270.0
  0
LINE
  5
7B
330
1F
100
AcDbEntity
  8
0
  6
Continuous
 62
     7
370
    15
100
AcDbLine
 10
610.9909097119
 20
972.9438457591
 30
0.0
 11
610.9909097119
 21
965.1438457591
 31
0.0
  0
ARC
  5
7C
330
1F
100
AcDbEntity
  8
0
  6
Continuous
 62
     7
370
    15
100
AcDbCircle
 10
610.9909097119
 20
962.0938457591
 30
0.0
 40
3.050000000000068
100
AcDbArc
 50
90.0
 51
270.0
  0
LINE
  5
7D
330
1F
100
AcDbEntity
  8
0
  6
Continuous
 62
     7
370
    15
100
AcDbLine
 10
620.9909097119
 20
959.0438457591
 30
0.0
 11
610.9909097119
 21
959.0438457591
 31
0.0
  0
LINE
  5
7E
330
1F
100
AcDbEntity
  8
0
  6
Continuous
 62
     7
370
    15
100
AcDbLine
 10
622.9909097119
 20
957.0438457591
 30
0.0
 11
620.9909097119
 21
959.0438457591
 31
0.0
  0
LINE
  5
7F
330
1F
100
AcDbEntity
  8
0
  6
Continuous
 62
     7
370
    15
100
AcDbLine
 10
622.9909097119
 20
941.0438457591
 30
0.0
 11
622.9909097119
 21
957.0438457591
 31
0.0
  0
LINE
  5
80
330
1F
100
AcDbEntity
  8
0
  6
Continuous
 62
     7
370
    15
100
AcDbLine
 10
622.9909097119
 20
941.0438457591
 30
0.0
 11
620.9909097119
 21
939.0438457591
 31
0.0
  0
LINE
  5
81
330
1F
100
AcDbEntity
  8
0
  6
Continuous
 62
     7
370
    15
100
AcDbLine
 10
610.9909097119
 20
939.0438457591
 30
0.0
 11
620.9909097119
 21
939.0438457591
 31
0.0
  0
ARC
  5
82
330
1F
100
AcDbEntity
  8
0
  6
Continuous
 62
     7
370
    15
100
AcDbCircle
 10
610.9909097119
 20
935.9938457591
 30
0.0
 40
3.050000000000068
100
AcDbArc
 50
90.0
 51
270.0
  0
LINE
  5
83
330
1F
100
AcDbEntity
  8
0
  6
Continuous
 62
     7
370
    15
100
AcDbLine
 10
610.9909097119
 20
932.9438457591
 30
0.0
 11
610.9909097119
 21
925.1438457591
 31
0.0
  0
ARC
  5
84
330
1F
100
AcDbEntity
  8
0
  6
Continuous
 62
     7
370
    15
100
AcDbCircle
 10
610.9909097119
 20
922.0938457591
 30
0.0
 40
3.050000000000068
100
AcDbArc
 50
90.0
 51
270.0
  0
LINE
  5
85
330
1F
100
AcDbEntity
  8
0
  6
Continuous
 62
     7
370
    15
100
AcDbLine
 10
620.9909097119
 20
919.0438457591
 30
0.0
 11
610.9909097119
 21
919.0438457591
 31
0.0
  0
LINE
  5
86
330
1F
100
AcDbEntity
  8
0
  6
Continuous
 62
     7
370
    15
100
AcDbLine
 10
622.9909097119
 20
917.0438457591
 30
0.0
 11
620.9909097119
 21
919.0438457591
 31
0.0
  0
LINE
  5
87
330
1F
100
AcDbEntity
  8
0
  6
Continuous
 62
     7
370
    15
100
AcDbLine
 10
622.9909097119
 20
901.0438457591
 30
0.0
 11
622.9909097119
 21
917.0438457591
 31
0.0
  0
LINE
  5
88
330
1F
100
AcDbEntity
  8
0
  6
Continuous
 62
     7
370
    15
100
AcDbLine
 10
622.9909097119
 20
901.0438457591
 30
0.0
 11
620.9909097119
 21
899.0438457591
 31
0.0
  0
LINE
  5
89
330
1F
100
AcDbEntity
  8
0
  6
Continuous
 62
     7
370
    15
100
AcDbLine
 10
610.9909097119
 20
899.0438457591
 30
0.0
 11
620.9909097119
 21
899.0438457591
 31
0.0
  0
ARC
  5
8A
330
1F
100
AcDbEntity
  8
0
  6
Continuous
 62
     7
370
    15
100
AcDbCircle
 10
610.9909097119
 20
895.9938457591
 30
0.0
 40
3.050000000000068
100
AcDbArc
 50
90.0
 51
270.0
  0
LINE
  5
8B
330
1F
100
AcDbEntity
  8
0
  6
Continuous
 62
     7
370
    15
100
AcDbLine
 10
610.9909097119
 20
892.9438457591
 30
0.0
 11
610.9909097119
 21
885.1438457591
 31
0.0
  0
ARC
  5
8C
330
1F
100
AcDbEntity
  8
0
  6
Continuous
 62
     7
370
    15
100
AcDbCircle
 10
610.9909097119
 20
882.0938457591
 30
0.0
 40
3.049999999999955
100
AcDbArc
 50
90.0
 51
270.0
  0
LINE
  5
8D
330
1F
100
AcDbEntity
  8
0
  6
Continuous
 62
     7
370
    15
100
AcDbLine
 10
620.9909097119
 20
879.0438457591
 30
0.0
 11
610.9909097119
 21
879.0438457591
 31
0.0
  0
LINE
  5
8E
330
1F
100
AcDbEntity
  8
0
  6
Continuous
 62
     7
370
    15
100
AcDbLine
 10
622.9909097119
 20
877.0438457591
 30
0.0
 11
620.9909097119
 21
879.0438457591
 31
0.0
  0
LINE
  5
8F
330
1F
100
AcDbEntity
  8
0
  6
Continuous
 62
     7
370
    15
100
AcDbLine
 10
622.9909097119
 20
861.0438457591
 30
0.0
 11
622.9909097119
 21
877.0438457591
 31
0.0
  0
LINE
  5
90
330
1F
100
AcDbEntity
  8
0
  6
Continuous
 62
     7
370
    15
100
AcDbLine
 10
622.9909097119
 20
861.0438457591
 30
0.0
 11
620.9909097119
 21
859.0438457591
 31
0.0
  0
LINE
  5
91
330
1F
100
AcDbEntity
  8
0
  6
Continuous
 62
     7
370
    15
100
AcDbLine
 10
610.9909097119
 20
859.0438457591
 30
0.0
 11
620.9909097119
 21
859.0438457591
 31
0.0
  0
ARC
  5
92
330
1F
100
AcDbEntity
  8
0
  6
Continuous
 62
     7
370
    15
100
AcDbCircle
 10
610.9909097119
 20
855.9938457591
 30
0.0
 40
3.049999999999955
100
AcDbArc
 50
90.0
 51
270.0
  0
LINE
  5
93
330
1F
100
AcDbEntity
  8
0
  6
Continuous
 62
     7
370
    15
100
AcDbLine
 10
610.9909097119
 20
852.9438457591
 30
0.0
 11
610.9909097119
 21
845.1438457591
 31
0.0
  0
ARC
  5
94
330
1F
100
AcDbEntity
  8
0
  6
Continuous
 62
     7
370
    15
100
AcDbCircle
 10
610.9909097119
 20
842.0938457591
 30
0.0
 40
3.050000000000068
100
AcDbArc
 50
90.0
 51
270.0
  0
LINE
  5
95
330
1F
100
AcDbEntity
  8
0
  6
Continuous
 62
     7
370
    15
100
AcDbLine
 10
620.9909097119
 20
839.0438457591
 30
0.0
 11
610.9909097119
 21
839.0438457591
 31
0.0
  0
LINE
  5
96
330
1F
100
AcDbEntity
  8
0
  6
Continuous
 62
     7
370
    15
100
AcDbLine
 10
622.9909097119
 20
837.0438457591
 30
0.0
 11
620.9909097119
 21
839.0438457591
 31
0.0
  0
LINE
  5
97
330
1F
100
AcDbEntity
  8
0
  6
Continuous
 62
     7
370
    15
100
AcDbLine
 10
622.9909097119
 20
821.0438457591
 30
0.0
 11
622.9909097119
 21
837.0438457591
 31
0.0
  0
LINE
  5
98
330
1F
100
AcDbEntity
  8
0
  6
Continuous
 62
     7
370
    15
100
AcDbLine
 10
622.9909097119
 20
821.0438457591
 30
0.0
 11
620.9909097119
 21
819.0438457591
 31
0.0
  0
LINE
  5
99
330
1F
100
AcDbEntity
  8
0
  6
Continuous
 62
     7
370
    15
100
AcDbLine
 10
610.9909097119
 20
819.0438457591
 30
0.0
 11
620.9909097119
 21
819.0438457591
 31
0.0
  0
ARC
  5
9A
330
1F
100
AcDbEntity
  8
0
  6
Continuous
 62
     7
370
    15
100
AcDbCircle
 10
610.9909097119
 20
815.9938457591
 30
0.0
 40
3.050000000000068
100
AcDbArc
 50
90.0
 51
270.0
  0
LINE
  5
9B
330
1F
100
AcDbEntity
  8
0
  6
Continuous
 62
     7
370
    15
100
AcDbLine
 10
610.9909097119
 20
812.9438457591
 30
0.0
 11
610.9909097119
 21
805.1438457591
 31
0.0
  0
ARC
  5
9C
330
1F
100
AcDbEntity
  8
0
  6
Continuous
 62
     7
370
    15
100
AcDbCircle
 10
610.9909097119
 20
802.0938457591
 30
0.0
 40
3.050000000000068
100
AcDbArc
 50
90.0
 51
270.0
  0
LINE
  5
9D
330
1F
100
AcDbEntity
  8
0
  6
Continuous
 62
     7
370
    15
100
AcDbLine
 10
620.9909097119
 20
799.0438457591
 30
0.0
 11
610.9909097119
 21
799.0438457591
 31
0.0
  0
LINE
  5
9E
330
1F
100
AcDbEntity
  8
0
  6
Continuous
 62
     7
370
    15
100
AcDbLine
 10
622.9909097119
 20
797.0438457591
 30
0.0
 11
620.9909097119
 21
799.0438457591
 31
0.0
  0
LINE
  5
9F
330
1F
100
AcDbEntity
  8
0
  6
Continuous
 62
     7
370
    15
100
AcDbLine
 10
622.9909097119
 20
781.0438457591
 30
0.0
 11
622.9909097119
 21
797.0438457591
 31
0.0
  0
LINE
  5
A0
330
1F
100
AcDbEntity
  8
0
  6
Continuous
 62
     7
370
    15
100
AcDbLine
 10
622.9909097119
 20
781.0438457591
 30
0.0
 11
620.9909097119
 21
779.0438457591
 31
0.0
  0
LINE
  5
A1
330
1F
100
AcDbEntity
  8
0
  6
Continuous
 62
     7
370
    15
100
AcDbLine
 10
610.9909097119
 20
779.0438457591
 30
0.0
 11
620.9909097119
 21
779.0438457591
 31
0.0
  0
ARC
  5
A2
330
1F
100
AcDbEntity
  8
0
  6
Continuous
 62
     7
370
    15
100
AcDbCircle
 10
610.9909097119
 20
775.9938457591
 30
0.0
 40
3.050000000000068
100
AcDbArc
 50
90.0
 51
270.0
  0
LINE
  5
A3
330
1F
100
AcDbEntity
  8
0
  6
Continuous
 62
     7
370
    15
100
AcDbLine
 10
610.9909097119
 20
772.9438457591
 30
0.0
 11
610.9909097119
 21
765.1438457591
 31
0.0
  0
ARC
  5
A4
330
1F
100
AcDbEntity
  8
0
  6
Continuous
 62
     7
370
    15
100
AcDbCircle
 10
610.9909097119
 20
762.0938457591
 30
0.0
 40
3.049999999999955
100
AcDbArc
 50
90.0
 51
270.0
  0
LINE
  5
A5
330
1F
100
AcDbEntity
  8
0
  6
Continuous
 62
     7
370
    15
100
AcDbLine
 10
620.9909097119
 20
759.0438457591
 30
0.0
 11
610.9909097119
 21
759.0438457591
 31
0.0
  0
LINE
  5
A6
330
1F
100
AcDbEntity
  8
0
  6
Continuous
 62
     7
370
    15
100
AcDbLine
 10
622.9909097119
 20
757.0438457591
 30
0.0
 11
620.9909097119
 21
759.0438457591
 31
0.0
  0
LINE
  5
A7
330
1F
100
AcDbEntity
  8
0
  6
Continuous
 62
     7
370
    15
100
AcDbLine
 10
622.9909097119
 20
741.0438457591
 30
0.0
 11
622.9909097119
 21
757.0438457591
 31
0.0
  0
LINE
  5
A8
330
1F
100
AcDbEntity
  8
0
  6
Continuous
 62
     7
370
    15
100
AcDbLine
 10
622.9909097119
 20
741.0438457591
 30
0.0
 11
620.9909097119
 21
739.0438457591
 31
0.0
  0
LINE
  5
A9
330
1F
100
AcDbEntity
  8
0
  6
Continuous
 62
     7
370
    15
100
AcDbLine
 10
610.9909097119
 20
739.0438457591
 30
0.0
 11
620.9909097119
 21
739.0438457591
 31
0.0
  0
ARC
  5
AA
330
1F
100
AcDbEntity
  8
0
  6
Continuous
 62
     7
370
    15
100
AcDbCircle
 10
610.9909097119
 20
735.9938457591
 30
0.0
 40
3.049999999999955
100
AcDbArc
 50
90.0
 51
270.0
  0
LINE
  5
AB
330
1F
100
AcDbEntity
  8
0
  6
Continuous
 62
     7
370
    15
100
AcDbLine
 10
610.9909097119
 20
732.9438457591
 30
0.0
 11
610.9909097119
 21
725.1438457591
 31
0.0
  0
ARC
  5
AC
330
1F
100
AcDbEntity
  8
0
  6
Continuous
 62
     7
370
    15
100
AcDbCircle
 10
610.9909097119
 20
722.0938457591
 30
0.0
 40
3.050000000000068
100
AcDbArc
 50
90.0
 51
270.0
  0
LINE
  5
AD
330
1F
100
AcDbEntity
  8
0
  6
Continuous
 62
     7
370
    15
100
AcDbLine
 10
620.9909097119
 20
719.0438457591
 30
0.0
 11
610.9909097119
 21
719.0438457591
 31
0.0
  0
LINE
  5
AE
330
1F
100
AcDbEntity
  8
0
  6
Continuous
 62
     7
370
    15
100
AcDbLine
 10
622.9909097119
 20
717.0438457591
 30
0.0
 11
620.9909097119
 21
719.0438457591
 31
0.0
  0
LINE
  5
AF
330
1F
100
AcDbEntity
  8
0
  6
Continuous
 62
     7
370
    15
100
AcDbLine
 10
622.9909097119
 20
709.0438457591
 30
0.0
 11
622.9909097119
 21
717.0438457591
 31
0.0
  0
ARC
  5
B0
330
1F
100
AcDbEntity
  8
0
  6
Continuous
 62
     7
370
    15
100
AcDbCircle
 10
592.9909097119
 20
709.0438457591
 30
0.0
 40
30.0
100
AcDbArc
 50
270.0
 51
0.0
  0
LINE
  5
B1
330
1F
100
AcDbEntity
  8
0
  6
Continuous
 62
     7
370
    15
100
AcDbLine
 10
392.9909097119
 20
679.0438457591
 30
0.0
 11
592.9909097119
 21
679.0438457591
 31
0.0
  0
ARC
  5
B2
330
1F
100
AcDbEntity
  8
0
  6
Continuous
 62
     7
370
    15
100
AcDbCircle
 10
392.9909097119
 20
709.0438457591
 30
0.0
 40
30.0
100
AcDbArc
 50
180.0
 51
270.0
  0
LINE
  5
B3
330
1F
100
AcDbEntity
  8
0
  6
Continuous
 62
     7
370
    15
100
AcDbLine
 10
362.9909097119
 20
717.0438457591
 30
0.0
 11
362.9909097119
 21
709.0438457591
 31
0.0
  0
ARC
  5
B4
330
1F
100
AcDbEntity
  8
0
  6
Continuous
 62
     7
370
    15
100
AcDbCircle
 10
337.3743793746
 20
720.952119738
 30
0.0
 40
3.25
100
AcDbArc
 50
0.0
 51
180.0
  0
LINE
  5
B5
330
1F
100
AcDbEntity
  8
0
  6
Continuous
 62
     7
370
    15
100
AcDbLine
 10
334.124385335
 20
720.9521190228
 30
0.0
 11
334.124385335
 21
710.9521136583
 31
0.0
  0
LINE
  5
B6
330
1F
100
AcDbEntity
  8
0
  6
Continuous
 62
     7
370
    15
100
AcDbLine
 10
332.1243812819
 20
708.9521245064
 30
0.0
 11
334.124385335
 21
710.9521136583
 31
0.0
  0
LINE
  5
B7
330
1F
100
AcDbEntity
  8
0
  6
Continuous
 62
     7
370
    15
100
AcDbLine
 10
332.1243812819
 20
708.9521245064
 30
0.0
 11
316.1243786593
 21
708.9521245064
 31
0.0
  0
LINE
  5
B8
330
1F
100
AcDbEntity
  8
0
  6
Continuous
 62
     7
370
    15
100
AcDbLine
 10
314.1243746062
 20
710.9521136583
 30
0.0
 11
316.1243786593
 21
708.9521245064
 31
0.0
  0
LINE
  5
B9
330
1F
100
AcDbEntity
  8
0
  6
Continuous
 62
     7
370
    15
100
AcDbLine
 10
314.1243746062
 20
710.9521136583
 30
0.0
 11
314.1243746062
 21
720.9521190228
 31
0.0
  0
ARC
  5
BA
330
1F
100
AcDbEntity
  8
0
  6
Continuous
 62
     7
370
    15
100
AcDbCircle
 10
310.8743793746
 20
720.952119738
 30
0.0
 40
3.250000000000057
100
AcDbArc
 50
0.0
 51
180.0
  0
LINE
  5
BB
330
1F
100
AcDbEntity
  8
0
  6
Continuous
 62
     7
370
    15
100
AcDbLine
 10
300.62437705
 20
720.9521190228
 30
0.0
 11
307.6243763347
 21
720.9521190228
 31
0.0
  0
ARC
  5
BC
330
1F
100
AcDbEntity
  8
0
  6
Continuous
 62
     7
370
    15
100
AcDbCircle
 10
297.3743793746
 20
720.952119738
 30
0.0
 40
3.250000000000057
100
AcDbArc
 50
0.0
 51
180.0
  0
LINE
  5
BD
330
1F
100
AcDbEntity
  8
0
  6
Continuous
 62
     7
370
    15
100
AcDbLine
 10
294.1243787785
 20
720.9521190228
 30
0.0
 11
294.1243787785
 21
710.9521136583
 31
0.0
  0
LINE
  5
BE
330
1F
100
AcDbEntity
  8
0
  6
Continuous
 62
     7
370
    15
100
AcDbLine
 10
292.124382176
 20
708.9521245064
 30
0.0
 11
294.1243787785
 21
710.9521136583
 31
0.0
  0
LINE
  5
BF
330
1F
100
AcDbEntity
  8
0
  6
Continuous
 62
     7
370
    15
100
AcDbLine
 10
292.124382176
 20
708.9521245064
 30
0.0
 11
276.1243795534
 21
708.9521245064
 31
0.0
  0
LINE
  5
C0
330
1F
100
AcDbEntity
  8
0
  6
Continuous
 62
     7
370
    15
100
AcDbLine
 10
274.1243829508
 20
710.9521136583
 30
0.0
 11
276.1243795534
 21
708.9521245064
 31
0.0
  0
LINE
  5
C1
330
1F
100
AcDbEntity
  8
0
  6
Continuous
 62
     7
370
    15
100
AcDbLine
 10
274.1243829508
 20
710.9521136583
 30
0.0
 11
274.1243829508
 21
720.9521190228
 31
0.0
  0
ARC
  5
C2
330
1F
100
AcDbEntity
  8
0
  6
Continuous
 62
     7
370
    15
100
AcDbCircle
 10
270.8743793746
 20
720.952119738
 30
0.0
 40
3.250000000000057
100
AcDbArc
 50
0.0
 51
180.0
  0
LINE
  5
C3
330
1F
100
AcDbEntity
  8
0
  6
Continuous
 62
     7
370
    15
100
AcDbLine
 10
260.624377944
 20
720.9521190228
 30
0.0
 11
267.6243772288
 21
720.9521190228
 31
0.0
  0
ARC
  5
C4
330
1F
100
AcDbEntity
  8
0
  6
Continuous
 62
     7
370
    15
100
AcDbCircle
 10
257.3743793746
 20
720.952119738
 30
0.0
 40
3.25
100
AcDbArc
 50
0.0
 51
180.0
  0
LINE
  5
C5
330
1F
100
AcDbEntity
  8
0
  6
Continuous
 62
     7
370
    15
100
AcDbLine
 10
254.1243796726
 20
720.9521190228
 30
0.0
 11
254.1243796726
 21
710.9521136583
 31
0.0
  0
LINE
  5
C6
330
1F
100
AcDbEntity
  8
0
  6
Continuous
 62
     7
370
    15
100
AcDbLine
 10
252.12438307
 20
708.9521245064
 30
0.0
 11
254.1243796726
 21
710.9521136583
 31
0.0
  0
LINE
  5
C7
330
1F
100
AcDbEntity
  8
0
  6
Continuous
 62
     7
370
    15
100
AcDbLine
 10
252.12438307
 20
708.9521245064
 30
0.0
 11
236.1243804474
 21
708.9521245064
 31
0.0
  0
LINE
  5
C8
330
1F
100
AcDbEntity
  8
0
  6
Continuous
 62
     7
370
    15
100
AcDbLine
 10
234.1243801196
 20
710.9521136583
 30
0.0
 11
236.1243804474
 21
708.9521245064
 31
0.0
  0
LINE
  5
C9
330
1F
100
AcDbEntity
  8
0
  6
Continuous
 62
     7
370
    15
100
AcDbLine
 10
234.1243801196
 20
710.9521136583
 30
0.0
 11
234.1243801196
 21
720.9521190228
 31
0.0
  0
ARC
  5
CA
330
1F
100
AcDbEntity
  8
0
  6
Continuous
 62
     7
370
    15
100
AcDbCircle
 10
230.8743793746
 20
720.952119738
 30
0.0
 40
3.250000000000028
100
AcDbArc
 50
0.0
 51
180.0
  0
LINE
  5
CB
330
1F
100
AcDbEntity
  8
0
  6
Continuous
 62
     7
370
    15
100
AcDbLine
 10
220.6243788381
 20
720.9521190228
 30
0.0
 11
227.6243781229
 21
720.9521190228
 31
0.0
  0
ARC
  5
CC
330
1F
100
AcDbEntity
  8
0
  6
Continuous
 62
     7
370
    15
100
AcDbCircle
 10
217.3743793746
 20
720.952119738
 30
0.0
 40
3.25
100
AcDbArc
 50
0.0
 51
180.0
  0
LINE
  5
CD
330
1F
100
AcDbEntity
  8
0
  6
Continuous
 62
     7
370
    15
100
AcDbLine
 10
214.124378704
 20
720.9521190228
 30
0.0
 11
214.124378704
 21
710.9521136583
 31
0.0
  0
LINE
  5
CE
330
1F
100
AcDbEntity
  8
0
  6
Continuous
 62
     7
370
    15
100
AcDbLine
 10
212.1243802388
 20
708.9521245064
 30
0.0
 11
214.124378704
 21
710.9521136583
 31
0.0
  0
LINE
  5
CF
330
1F
100
AcDbEntity
  8
0
  6
Continuous
 62
     7
370
    15
100
AcDbLine
 10
212.1243802388
 20
708.9521245064
 30
0.0
 11
196.1243794789
 21
708.9521245064
 31
0.0
  0
LINE
  5
D0
330
1F
100
AcDbEntity
  8
0
  6
Continuous
 62
     7
370
    15
100
AcDbLine
 10
194.124379151
 20
710.9521136583
 30
0.0
 11
196.1243794789
 21
708.9521245064
 31
0.0
  0
LINE
  5
D1
330
1F
100
AcDbEntity
  8
0
  6
Continuous
 62
     7
370
    15
100
AcDbLine
 10
194.124379151
 20
710.9521136583
 30
0.0
 11
194.124379151
 21
720.9521190228
 31
0.0
  0
ARC
  5
D2
330
1F
100
AcDbEntity
  8
0
  6
Continuous
 62
     7
370
    15
100
AcDbCircle
 10
190.8743793746
 20
720.952119738
 30
0.0
 40
3.25
100
AcDbArc
 50
0.0
 51
180.0
  0
LINE
  5
D3
330
1F
100
AcDbEntity
  8
0
  6
Continuous
 62
     7
370
    15
100
AcDbLine
 10
180.6243792665
 20
720.9521190228
 30
0.0
 11
187.6243794826
 21
720.9521190228
 31
0.0
  0
ARC
  5
D4
330
1F
100
AcDbEntity
  8
0
  6
Continuous
 62
     7
370
    15
100
AcDbCircle
 10
177.3743793746
 20
720.952119738
 30
0.0
 40
3.25
100
AcDbArc
 50
0.0
 51
180.0
  0
LINE
  5
D5
330
1F
100
AcDbEntity
  8
0
  6
Continuous
 62
     7
370
    15
100
AcDbLine
 10
174.1243795981
 20
720.9521190228
 30
0.0
 11
174.1243795981
 21
710.9521136583
 31
0.0
  0
LINE
  5
D6
330
1F
100
AcDbEntity
  8
0
  6
Continuous
 62
     7
370
    15
100
AcDbLine
 10
172.1243792702
 20
708.9521245064
 30
0.0
 11
174.1243795981
 21
710.9521136583
 31
0.0
  0
LINE
  5
D7
330
1F
100
AcDbEntity
  8
0
  6
Continuous
 62
     7
370
    15
100
AcDbLine
 10
172.1243792702
 20
708.9521245064
 30
0.0
 11
156.1243785103
 21
708.9521245064
 31
0.0
  0
LINE
  5
D8
330
1F
100
AcDbEntity
  8
0
  6
Continuous
 62
     7
370
    15
100
AcDbLine
 10
154.1243800451
 20
710.9521136583
 30
0.0
 11
156.1243785103
 21
708.9521245064
 31
0.0
  0
LINE
  5
D9
330
1F
100
AcDbEntity
  8
0
  6
Continuous
 62
     7
370
    15
100
AcDbLine
 10
154.1243800451
 20
710.9521136583
 30
0.0
 11
154.1243800451
 21
720.9521190228
 31
0.0
  0
ARC
  5
DA
330
1F
100
AcDbEntity
  8
0
  6
Continuous
 62
     7
370
    15
100
AcDbCircle
 10
150.8743793746
 20
720.952119738
 30
0.0
 40
3.25
100
AcDbArc
 50
0.0
 51
180.0
  0
LINE
  5
DB
330
1F
100
AcDbEntity
  8
0
  6
Continuous
 62
     7
370
    15
100
AcDbLine
 10
140.6243806263
 20
720.9521190228
 30
0.0
 11
147.624379911
 21
720.9521190228
 31
0.0
  0
ARC
  5
DC
330
1F
100
AcDbEntity
  8
0
  6
Continuous
 62
     7
370
    15
100
AcDbCircle
 10
137.3743793746
 20
720.952119738
 30
0.0
 40
3.25
100
AcDbArc
 50
0.0
 51
180.0
  0
LINE
  5
DD
330
1F
100
AcDbEntity
  8
0
  6
Continuous
 62
     7
370
    15
100
AcDbLine
 10
134.1243786295
 20
720.9521190228
 30
0.0
 11
134.1243786295
 21
710.9521136583
 31
0.0
  0
LINE
  5
DE
330
1F
100
AcDbEntity
  8
0
  6
Continuous
 62
     7
370
    15
100
AcDbLine
 10
132.1243783017
 20
708.9521245064
 30
0.0
 11
134.1243786295
 21
710.9521136583
 31
0.0
  0
LINE
  5
DF
330
1F
100
AcDbEntity
  8
0
  6
Continuous
 62
     7
370
    15
100
AcDbLine
 10
132.1243783017
 20
708.9521245064
 30
0.0
 11
116.1243756791
 21
708.9521245064
 31
0.0
  0
LINE
  5
E0
330
1F
100
AcDbEntity
  8
0
  6
Continuous
 62
     7
370
    15
100
AcDbLine
 10
114.1243790765
 20
710.9521136583
 30
0.0
 11
116.1243756791
 21
708.9521245064
 31
0.0
  0
LINE
  5
E1
330
1F
100
AcDbEntity
  8
0
  6
Continuous
 62
     7
370
    15
100
AcDbLine
 10
114.1243790765
 20
710.9521136583
 30
0.0
 11
114.1243790765
 21
720.9521190228
 31
0.0
  0
ARC
  5
E2
330
1F
100
AcDbEntity
  8
0
  6
Continuous
 62
     7
370
    15
100
AcDbCircle
 10
110.8743793746
 20
720.952119738
 30
0.0
 40
3.250000000000014
100
AcDbArc
 50
0.0
 51
180.0
  0
LINE
  5
E3
330
1F
100
AcDbEntity
  8
0
  6
Continuous
 62
     7
370
    15
100
AcDbLine
 10
100.6243815203
 20
720.9521190228
 30
0.0
 11
107.6243808051
 21
720.9521190228
 31
0.0
  0
ARC
  5
E4
330
1F
100
AcDbEntity
  8
0
  6
Continuous
 62
     7
370
    15
100
AcDbCircle
 10
97.3743793746
 20
720.952119738
 30
0.0
 40
3.250000000000014
100
AcDbArc
 50
0.0
 51
180.0
  0
LINE
  5
E5
330
1F
100
AcDbEntity
  8
0
  6
Continuous
 62
     7
370
    15
100
AcDbLine
 10
94.1243757983
 20
720.9521190228
 30
0.0
 11
94.1243757983
 21
710.9521136583
 31
0.0
  0
LINE
  5
E6
330
1F
100
AcDbEntity
  8
0
  6
Continuous
 62
     7
370
    15
100
AcDbLine
 10
92.1243791957
 20
708.9521245064
 30
0.0
 11
94.1243757983
 21
710.9521136583
 31
0.0
  0
LINE
  5
E7
330
1F
100
AcDbEntity
  8
0
  6
Continuous
 62
     7
370
    15
100
AcDbLine
 10
92.1243791957
 20
708.9521245064
 30
0.0
 11
76.1243765731
 21
708.9521245064
 31
0.0
  0
LINE
  5
E8
330
1F
100
AcDbEntity
  8
0
  6
Continuous
 62
     7
370
    15
100
AcDbLine
 10
74.1243799706
 20
710.9521136583
 30
0.0
 11
76.1243765731
 21
708.9521245064
 31
0.0
  0
LINE
  5
E9
330
1F
100
AcDbEntity
  8
0
  6
Continuous
 62
     7
370
    15
100
AcDbLine
 10
74.1243799706
 20
710.9521136583
 30
0.0
 11
74.1243799706
 21
720.9521190228
 31
0.0
  0
ARC
  5
EA
330
1F
100
AcDbEntity
  8
0
  6
Continuous
 62
     7
370
    15
100
AcDbCircle
 10
70.8743793746
 20
720.952119738
 30
0.0
 40
3.25
100
AcDbArc
 50
0.0
 51
180.0
  0
LINE
  5
EB
330
1F
100
AcDbEntity
  8
0
  6
Continuous
 62
     7
370
    15
100
AcDbLine
 10
60.6243824144
 20
720.9521190228
 30
0.0
 11
67.6243816991
 21
720.9521190228
 31
0.0
  0
ARC
  5
EC
330
1F
100
AcDbEntity
  8
0
  6
Continuous
 62
     7
370
    15
100
AcDbCircle
 10
57.3743793746
 20
720.952119738
 30
0.0
 40
3.25
100
AcDbArc
 50
0.0
 51
180.0
  0
LINE
  5
ED
330
1F
100
AcDbEntity
  8
0
  6
Continuous
 62
     7
370
    15
100
AcDbLine
 10
54.1243841429
 20
720.9521190228
 30
0.0
 11
54.1243841429
 21
710.9521136583
 31
0.0
  0
LINE
  5
EE
330
1F
100
AcDbEntity
  8
0
  6
Continuous
 62
     7
370
    15
100
AcDbLine
 10
52.1243800898
 20
708.9521245064
 30
0.0
 11
54.1243841429
 21
710.9521136583
 31
0.0
  0
LINE
  5
EF
330
1F
100
AcDbEntity
  8
0
  6
Continuous
 62
     7
370
    15
100
AcDbLine
 10
52.1243800898
 20
708.9521245064
 30
0.0
 11
36.1243774672
 21
708.9521245064
 31
0.0
  0
LINE
  5
F0
330
1F
100
AcDbEntity
  8
0
  6
Continuous
 62
     7
370
    15
100
AcDbLine
 10
34.1243734141
 20
710.9521136583
 30
0.0
 11
36.1243774672
 21
708.9521245064
 31
0.0
  0
LINE
  5
F1
330
1F
100
AcDbEntity
  8
0
  6
Continuous
 62
     7
370
    15
100
AcDbLine
 10
34.1243734141
 20
710.9521136583
 30
0.0
 11
34.1243734141
 21
720.9521190228
 31
0.0
  0
ARC
  5
F2
330
1F
100
AcDbEntity
  8
0
  6
Continuous
 62
     7
370
    15
100
AcDbCircle
 10
30.8743793746
 20
720.952119738
 30
0.0
 40
3.250000000000004
100
AcDbArc
 50
0.0
 51
180.0
  0
LINE
  5
F3
330
1F
100
AcDbEntity
  8
0
  6
Continuous
 62
     7
370
    15
100
AcDbLine
 10
24.1243829508
 20
720.9521190228
 30
0.0
 11
27.6243825932
 21
720.9521190228
 31
0.0
  0
LINE
  5
F4
330
1F
100
AcDbEntity
  8
0
  6
Continuous
 62
     7
370
    15
100
AcDbLine
 10
24.1243829508
 20
722.4521220626
 30
0.0
 11
24.1243829508
 21
720.9521190228
 31
0.0
  0
ARC
  5
F5
330
1F
100
AcDbEntity
  8
0
  6
Continuous
 62
     7
370
    15
100
AcDbCircle
 10
24.1243793746
 20
725.702119738
 30
0.0
 40
3.250000000000114
100
AcDbArc
 50
270.0
 51
90.0
  0
LINE
  5
F6
330
1F
100
AcDbEntity
  8
0
  6
Continuous
 62
     7
370
    15
100
AcDbLine
 10
16.1243816395
 20
728.9521203341
 30
0.0
 11
24.1243829508
 21
728.9521203341
 31
0.0
  0
LINE
  5
F7
330
1F
100
AcDbEntity
  8
0
  6
Continuous
 62
     7
370
    15
100
AcDbLine
 10
14.1243775864
 20
730.9521169366
 30
0.0
 11
16.1243816395
 21
728.9521203341
 31
0.0
  0
LINE
  5
F8
330
1F
100
AcDbEntity
  8
0
  6
Continuous
 62
     7
370
    15
100
AcDbLine
 10
14.1243775864
 20
730.9521169366
 30
0.0
 11
14.1243775864
 21
746.9521195592
 31
0.0
  0
LINE
  5
F9
330
1F
100
AcDbEntity
  8
0
  6
Continuous
 62
     7
370
    15
100
AcDbLine
 10
16.1243816395
 20
748.9521161617
 30
0.0
 11
14.1243775864
 21
746.9521195592
 31
0.0
  0
LINE
  5
FA
330
1F
100
AcDbEntity
  8
0
  6
Continuous
 62
     7
370
    15
100
AcDbLine
 10
16.1243816395
 20
748.9521161617
 30
0.0
 11
24.1243829508
 21
748.9521161617
 31
0.0
  0
ARC
  5
FB
330
1F
100
AcDbEntity
  8
0
  6
Continuous
 62
     7
370
    15
100
AcDbCircle
 10
24.1243793746
 20
752.202119738
 30
0.0
 40
3.250000000000114
100
AcDbArc
 50
270.0
 51
90.0
  0
LINE
  5
FC
330
1F
100
AcDbEntity
  8
0
  6
Continuous
 62
     7
370
    15
100
AcDbLine
 10
24.1243829508
 20
762.4521211685
 30
0.0
 11
24.1243829508
 21
755.4521218838
 31
0.0
  0
ARC
  5
FD
330
1F
100
AcDbEntity
  8
0
  6
Continuous
 62
     7
370
    15
100
AcDbCircle
 10
24.1243793746
 20
765.702119738
 30
0.0
 40
3.25
100
AcDbArc
 50
270.0
 51
90.0
  0
LINE
  5
FE
330
1F
100
AcDbEntity
  8
0
  6
Continuous
 62
     7
370
    15
100
AcDbLine
 10
16.1243816395
 20
768.95211944
 30
0.0
 11
24.1243829508
 21
768.95211944
 31
0.0
  0
LINE
  5
FF
330
1F
100
AcDbEntity
  8
0
  6
Continuous
 62
     7
370
    15
100
AcDbLine
 10
14.1243775864
 20
770.9521160425
 30
0.0
 11
16.1243816395
 21
768.95211944
 31
0.0
  0
LINE
  5
100
330
1F
100
AcDbEntity
  8
0
  6
Continuous
 62
     7
370
    15
100
AcDbLine
 10
14.1243775864
 20
770.9521160425
 30
0.0
 11
14.1243775864
 21
786.9521186651
 31
0.0
  0
LINE
  5
101
330
1F
100
AcDbEntity
  8
0
  6
Continuous
 62
     7
370
    15
100
AcDbLine
 10
16.1243816395
 20
788.952118993
 30
0.0
 11
14.1243775864
 21
786.9521186651
 31
0.0
  0
ARC
  5
102
330
1F
100
AcDbEntity
  8
0
  6
Continuous
 62
     7
370
    15
100
AcDbCircle
 10
24.1243793746
 20
792.202119738
 30
0.0
 40
3.25
100
AcDbArc
 50
270.0
 51
90.0
  0
LINE
  5
103
330
1F
100
AcDbEntity
  8
0
  6
Continuous
 62
     7
370
    15
100
AcDbLine
 10
24.1243829508
 20
802.4521202745
 30
0.0
 11
24.1243829508
 21
795.4521209897
 31
0.0
  0
ARC
  5
104
330
1F
100
AcDbEntity
  8
0
  6
Continuous
 62
     7
370
    15
100
AcDbCircle
 10
24.1243793746
 20
805.702119738
 30
0.0
 40
3.250000000000114
100
AcDbArc
 50
270.0
 51
90.0
  0
LINE
  5
105
330
1F
100
AcDbEntity
  8
0
  6
Continuous
 62
     7
370
    15
100
AcDbLine
 10
16.1243816395
 20
808.9521204086
 30
0.0
 11
24.1243829508
 21
808.9521204086
 31
0.0
  0
LINE
  5
106
330
1F
100
AcDbEntity
  8
0
  6
Continuous
 62
     7
370
    15
100
AcDbLine
 10
14.1243775864
 20
810.9521188738
 30
0.0
 11
16.1243816395
 21
808.9521204086
 31
0.0
  0
LINE
  5
107
330
1F
100
AcDbEntity
  8
0
  6
Continuous
 62
     7
370
    15
100
AcDbLine
 10
14.1243775864
 20
810.9521188738
 30
0.0
 11
14.1243775864
 21
826.9521196337
 31
0.0
  0
LINE
  5
108
330
1F
100
AcDbEntity
  8
0
  6
Continuous
 62
     7
370
    15
100
AcDbLine
 10
16.1243816395
 20
828.9521199615
 30
0.0
 11
14.1243775864
 21
826.9521196337
 31
0.0
  0
LINE
  5
109
330
1F
100
AcDbEntity
  8
0
  6
Continuous
 62
     7
370
    15
100
AcDbLine
 10
16.1243816395
 20
828.9521199615
 30
0.0
 11
24.1243829508
 21
828.9521199615
 31
0.0
  0
ARC
  5
10A
330
1F
100
AcDbEntity
  8
0
  6
Continuous
 62
     7
370
    15
100
AcDbCircle
 10
24.1243793746
 20
832.202119738
 30
0.0
 40
3.250000000000114
100
AcDbArc
 50
270.0
 51
90.0
  0
LINE
  5
10B
330
1F
100
AcDbEntity
  8
0
  6
Continuous
 62
     7
370
    15
100
AcDbLine
 10
24.1243829508
 20
842.4521198461
 30
0.0
 11
24.1243829508
 21
835.45211963
 31
0.0
  0
ARC
  5
10C
330
1F
100
AcDbEntity
  8
0
  6
Continuous
 62
     7
370
    15
100
AcDbCircle
 10
24.1243793746
 20
845.702119738
 30
0.0
 40
3.250000000000114
100
AcDbArc
 50
270.0
 51
90.0
  0
LINE
  5
10D
330
1F
100
AcDbEntity
  8
0
  6
Continuous
 62
     7
370
    15
100
AcDbLine
 10
16.1243816395
 20
848.9521195145
 30
0.0
 11
24.1243829508
 21
848.9521195145
 31
0.0
  0
LINE
  5
10E
330
1F
100
AcDbEntity
  8
0
  6
Continuous
 62
     7
370
    15
100
AcDbLine
 10
14.1243775864
 20
850.9521198423
 30
0.0
 11
16.1243816395
 21
848.9521195145
 31
0.0
  0
LINE
  5
10F
330
1F
100
AcDbEntity
  8
0
  6
Continuous
 62
     7
370
    15
100
AcDbLine
 10
14.1243775864
 20
850.9521198423
 30
0.0
 11
14.1243775864
 21
866.9521206023
 31
0.0
  0
LINE
  5
110
330
1F
100
AcDbEntity
  8
0
  6
Continuous
 62
     7
370
    15
100
AcDbLine
 10
16.1243816395
 20
868.9521190675
 30
0.0
 11
14.1243775864
 21
866.9521206023
 31
0.0
  0
LINE
  5
111
330
1F
100
AcDbEntity
  8
0
  6
Continuous
 62
     7
370
    15
100
AcDbLine
 10
16.1243816395
 20
868.9521190675
 30
0.0
 11
24.1243829508
 21
868.9521190675
 31
0.0
  0
ARC
  5
112
330
1F
100
AcDbEntity
  8
0
  6
Continuous
 62
     7
370
    15
100
AcDbCircle
 10
24.1243793746
 20
872.202119738
 30
0.0
 40
3.250000000000114
100
AcDbArc
 50
270.0
 51
90.0
  0
LINE
  5
113
330
1F
100
AcDbEntity
  8
0
  6
Continuous
 62
     7
370
    15
100
AcDbLine
 10
24.1243829508
 20
882.4521184863
 30
0.0
 11
24.1243829508
 21
875.4521192016
 31
0.0
  0
ARC
  5
114
330
1F
100
AcDbEntity
  8
0
  6
Continuous
 62
     7
370
    15
100
AcDbCircle
 10
24.1243793746
 20
885.702119738
 30
0.0
 40
3.25
100
AcDbArc
 50
270.0
 51
90.0
  0
LINE
  5
115
330
1F
100
AcDbEntity
  8
0
  6
Continuous
 62
     7
370
    15
100
AcDbLine
 10
16.1243816395
 20
888.9521204831
 30
0.0
 11
24.1243829508
 21
888.9521204831
 31
0.0
  0
LINE
  5
116
330
1F
100
AcDbEntity
  8
0
  6
Continuous
 62
     7
370
    15
100
AcDbLine
 10
14.1243775864
 20
890.9521208109
 30
0.0
 11
16.1243816395
 21
888.9521204831
 31
0.0
  0
LINE
  5
117
330
1F
100
AcDbEntity
  8
0
  6
Continuous
 62
     7
370
    15
100
AcDbLine
 10
14.1243775864
 20
890.9521208109
 30
0.0
 11
14.1243775864
 21
906.9521234335
 31
0.0
  0
LINE
  5
118
330
1F
100
AcDbEntity
  8
0
  6
Continuous
 62
     7
370
    15
100
AcDbLine
 10
16.1243816395
 20
908.952120036
 30
0.0
 11
14.1243775864
 21
906.9521234335
 31
0.0
  0
LINE
  5
119
330
1F
100
AcDbEntity
  8
0
  6
Continuous
 62
     7
370
    15
100
AcDbLine
 10
16.1243816395
 20
908.952120036
 30
0.0
 11
24.1243829508
 21
908.952120036
 31
0.0
  0
ARC
  5
11A
330
1F
100
AcDbEntity
  8
0
  6
Continuous
 62
     7
370
    15
100
AcDbCircle
 10
24.1243793746
 20
912.202119738
 30
0.0
 40
3.25
100
AcDbArc
 50
270.0
 51
90.0
  0
LINE
  5
11B
330
1F
100
AcDbEntity
  8
0
  6
Continuous
 62
     7
370
    15
100
AcDbLine
 10
24.1243829508
 20
922.4521175923
 30
0.0
 11
24.1243829508
 21
915.4521183075
 31
0.0
  0
ARC
  5
11C
330
1F
100
AcDbEntity
  8
0
  6
Continuous
 62
     7
370
    15
100
AcDbCircle
 10
24.1243793746
 20
925.702119738
 30
0.0
 40
3.25
100
AcDbArc
 50
270.0
 51
90.0
  0
LINE
  5
11D
330
1F
100
AcDbEntity
  8
0
  6
Continuous
 62
     7
370
    15
100
AcDbLine
 10
16.1243816395
 20
928.9521233143
 30
0.0
 11
24.1243829508
 21
928.9521233143
 31
0.0
  0
LINE
  5
11E
330
1F
100
AcDbEntity
  8
0
  6
Continuous
 62
     7
370
    15
100
AcDbLine
 10
14.1243775864
 20
930.9521199168
 30
0.0
 11
16.1243816395
 21
928.9521233143
 31
0.0
  0
LINE
  5
11F
330
1F
100
AcDbEntity
  8
0
  6
Continuous
 62
     7
370
    15
100
AcDbLine
 10
14.1243775864
 20
930.9521199168
 30
0.0
 11
14.1243775864
 21
946.9521225394
 31
0.0
  0
LINE
  5
120
330
1F
100
AcDbEntity
  8
0
  6
Continuous
 62
     7
370
    15
100
AcDbLine
 10
16.1243816395
 20
948.952119142
 30
0.0
 11
14.1243775864
 21
946.9521225394
 31
0.0
  0
LINE
  5
121
330
1F
100
AcDbEntity
  8
0
  6
Continuous
 62
     7
370
    15
100
AcDbLine
 10
16.1243816395
 20
948.952119142
 30
0.0
 11
24.1243829508
 21
948.952119142
 31
0.0
  0
ARC
  5
122
330
1F
100
AcDbEntity
  8
0
  6
Continuous
 62
     7
370
    15
100
AcDbCircle
 10
24.1243793746
 20
952.202119738
 30
0.0
 40
3.25
100
AcDbArc
 50
270.0
 51
90.0
  0
LINE
  5
123
330
1F
100
AcDbEntity
  8
0
  6
Continuous
 62
     7
370
    15
100
AcDbLine
 10
24.1243829508
 20
956.9521204533
 30
0.0
 11
24.1243829508
 21
955.4521174134
 31
0.0
  0
LINE
  5
124
330
1F
100
AcDbEntity
  8
0
  6
Continuous
 62
     7
370
    15
100
AcDbLine
 10
24.1243829508
 20
956.9521204533
 30
0.0
 11
27.6243825932
 21
956.9521204533
 31
0.0
  0
ARC
  5
125
330
1F
100
AcDbEntity
  8
0
  6
Continuous
 62
     7
370
    15
100
AcDbCircle
 10
30.8743793746
 20
956.952119738
 30
0.0
 40
3.250000000000004
100
AcDbArc
 50
180.0
 51
0.0
  0
LINE
  5
126
330
1F
100
AcDbEntity
  8
0
  6
Continuous
 62
     7
370
    15
100
AcDbLine
 10
34.1243734141
 20
966.9521258177
 30
0.0
 11
34.1243734141
 21
956.9521204533
 31
0.0
  0
LINE
  5
127
330
1F
100
AcDbEntity
  8
0
  6
Continuous
 62
     7
370
    15
100
AcDbLine
 10
34.1243734141
 20
966.9521258177
 30
0.0
 11
36.1243774672
 21
968.9521149696
 31
0.0
  0
LINE
  5
128
330
1F
100
AcDbEntity
  8
0
  6
Continuous
 62
     7
370
    15
100
AcDbLine
 10
36.1243774672
 20
968.9521149696
 30
0.0
 11
52.1243800898
 21
968.9521149696
 31
0.0
  0
LINE
  5
129
330
1F
100
AcDbEntity
  8
0
  6
Continuous
 62
     7
370
    15
100
AcDbLine
 10
52.1243800898
 20
968.9521149696
 30
0.0
 11
54.1243841429
 21
966.9521258177
 31
0.0
  0
LINE
  5
12A
330
1F
100
AcDbEntity
  8
0
  6
Continuous
 62
     7
370
    15
100
AcDbLine
 10
54.1243841429
 20
956.9521204533
 30
0.0
 11
54.1243841429
 21
966.9521258177
 31
0.0
  0
ARC
  5
12B
330
1F
100
AcDbEntity
  8
0
  6
Continuous
 62
     7
370
    15
100
AcDbCircle
 10
57.3743793746
 20
956.952119738
 30
0.0
 40
3.250000000000007
100
AcDbArc
 50
180.0
 51
0.0
  0
LINE
  5
12C
330
1F
100
AcDbEntity
  8
0
  6
Continuous
 62
     7
370
    15
100
AcDbLine
 10
60.6243824144
 20
956.9521204533
 30
0.0
 11
67.6243816991
 21
956.9521204533
 31
0.0
  0
ARC
  5
12D
330
1F
100
AcDbEntity
  8
0
  6
Continuous
 62
     7
370
    15
100
AcDbCircle
 10
70.8743793746
 20
956.952119738
 30
0.0
 40
3.25
100
AcDbArc
 50
180.0
 51
0.0
  0
LINE
  5
12E
330
1F
100
AcDbEntity
  8
0
  6
Continuous
 62
     7
370
    15
100
AcDbLine
 10
74.1243799706
 20
966.9521258177
 30
0.0
 11
74.1243799706
 21
956.9521204533
 31
0.0
  0
LINE
  5
12F
330
1F
100
AcDbEntity
  8
0
  6
Continuous
 62
     7
370
    15
100
AcDbLine
 10
74.1243799706
 20
966.9521258177
 30
0.0
 11
76.1243765731
 21
968.9521149696
 31
0.0
  0
LINE
  5
130
330
1F
100
AcDbEntity
  8
0
  6
Continuous
 62
     7
370
    15
100
AcDbLine
 10
76.1243765731
 20
968.9521149696
 30
0.0
 11
92.1243791957
 21
968.9521149696
 31
0.0
  0
LINE
  5
131
330
1F
100
AcDbEntity
  8
0
  6
Continuous
 62
     7
370
    15
100
AcDbLine
 10
92.1243791957
 20
968.9521149696
 30
0.0
 11
94.1243757983
 21
966.9521258177
 31
0.0
  0
LINE
  5
132
330
1F
100
AcDbEntity
  8
0
  6
Continuous
 62
     7
370
    15
100
AcDbLine
 10
94.1243757983
 20
956.9521204533
 30
0.0
 11
94.1243757983
 21
966.9521258177
 31
0.0
  0
ARC
  5
133
330
1F
100
AcDbEntity
  8
0
  6
Continuous
 62
     7
370
    15
100
AcDbCircle
 10
97.3743793746
 20
956.952119738
 30
0.0
 40
3.250000000000014
100
AcDbArc
 50
180.0
 51
0.0
  0
LINE
  5
134
330
1F
100
AcDbEntity
  8
0
  6
Continuous
 62
     7
370
    15
100
AcDbLine
 10
100.6243815203
 20
956.9521204533
 30
0.0
 11
107.6243808051
 21
956.9521204533
 31
0.0
  0
ARC
  5
135
330
1F
100
AcDbEntity
  8
0
  6
Continuous
 62
     7
370
    15
100
AcDbCircle
 10
110.8743793746
 20
956.952119738
 30
0.0
 40
3.250000000000014
100
AcDbArc
 50
180.0
 51
0.0
  0
LINE
  5
136
330
1F
100
AcDbEntity
  8
0
  6
Continuous
 62
     7
370
    15
100
AcDbLine
 10
114.1243790765
 20
966.9521258177
 30
0.0
 11
114.1243790765
 21
956.9521204533
 31
0.0
  0
LINE
  5
137
330
1F
100
AcDbEntity
  8
0
  6
Continuous
 62
     7
370
    15
100
AcDbLine
 10
114.1243790765
 20
966.9521258177
 30
0.0
 11
116.1243756791
 21
968.9521149696
 31
0.0
  0
LINE
  5
138
330
1F
100
AcDbEntity
  8
0
  6
Continuous
 62
     7
370
    15
100
AcDbLine
 10
116.1243756791
 20
968.9521149696
 30
0.0
 11
132.1243783017
 21
968.9521149696
 31
0.0
  0
LINE
  5
139
330
1F
100
AcDbEntity
  8
0
  6
Continuous
 62
     7
370
    15
100
AcDbLine
 10
132.1243783017
 20
968.9521149696
 30
0.0
 11
134.1243786295
 21
966.9521258177
 31
0.0
  0
LINE
  5
13A
330
1F
100
AcDbEntity
  8
0
  6
Continuous
 62
     7
370
    15
100
AcDbLine
 10
134.1243786295
 20
956.9521204533
 30
0.0
 11
134.1243786295
 21
966.9521258177
 31
0.0
  0
ARC
  5
13B
330
1F
100
AcDbEntity
  8
0
  6
Continuous
 62
     7
370
    15
100
AcDbCircle
 10
137.3743793746
 20
956.952119738
 30
0.0
 40
3.250000000000028
100
AcDbArc
 50
180.0
 51
0.0
  0
LINE
  5
13C
330
1F
100
AcDbEntity
  8
0
  6
Continuous
 62
     7
370
    15
100
AcDbLine
 10
140.6243806263
 20
956.9521204533
 30
0.0
 11
147.624379911
 21
956.9521204533
 31
0.0
  0
ARC
  5
13D
330
1F
100
AcDbEntity
  8
0
  6
Continuous
 62
     7
370
    15
100
AcDbCircle
 10
150.8743793746
 20
956.952119738
 30
0.0
 40
3.25
100
AcDbArc
 50
180.0
 51
0.0
  0
LINE
  5
13E
330
1F
100
AcDbEntity
  8
0
  6
Continuous
 62
     7
370
    15
100
AcDbLine
 10
154.1243800451
 20
966.9521258177
 30
0.0
 11
154.1243800451
 21
956.9521204533
 31
0.0
  0
LINE
  5
13F
330
1F
100
AcDbEntity
  8
0
  6
Continuous
 62
     7
370
    15
100
AcDbLine
 10
154.1243800451
 20
966.9521258177
 30
0.0
 11
156.1243785103
 21
968.9521149696
 31
0.0
  0
LINE
  5
140
330
1F
100
AcDbEntity
  8
0
  6
Continuous
 62
     7
370
    15
100
AcDbLine
 10
156.1243785103
 20
968.9521149696
 30
0.0
 11
172.1243792702
 21
968.9521149696
 31
0.0
  0
LINE
  5
141
330
1F
100
AcDbEntity
  8
0
  6
Continuous
 62
     7
370
    15
100
AcDbLine
 10
172.1243792702
 20
968.9521149696
 30
0.0
 11
174.1243795981
 21
966.9521258177
 31
0.0
  0
LINE
  5
142
330
1F
100
AcDbEntity
  8
0
  6
Continuous
 62
     7
370
    15
100
AcDbLine
 10
174.1243795981
 20
956.9521204533
 30
0.0
 11
174.1243795981
 21
966.9521258177
 31
0.0
  0
ARC
  5
143
330
1F
100
AcDbEntity
  8
0
  6
Continuous
 62
     7
370
    15
100
AcDbCircle
 10
177.3743793746
 20
956.952119738
 30
0.0
 40
3.25
100
AcDbArc
 50
180.0
 51
0.0
  0
LINE
  5
144
330
1F
100
AcDbEntity
  8
0
  6
Continuous
 62
     7
370
    15
100
AcDbLine
 10
180.6243792665
 20
956.9521204533
 30
0.0
 11
187.6243794826
 21
956.9521204533
 31
0.0
  0
ARC
  5
145
330
1F
100
AcDbEntity
  8
0
  6
Continuous
 62
     7
370
    15
100
AcDbCircle
 10
190.8743793746
 20
956.952119738
 30
0.0
 40
3.25
100
AcDbArc
 50
180.0
 51
0.0
  0
LINE
  5
146
330
1F
100
AcDbEntity
  8
0
  6
Continuous
 62
     7
370
    15
100
AcDbLine
 10
194.124379151
 20
966.9521258177
 30
0.0
 11
194.124379151
 21
956.9521204533
 31
0.0
  0
LINE
  5
147
330
1F
100
AcDbEntity
  8
0
  6
Continuous
 62
     7
370
    15
100
AcDbLine
 10
194.124379151
 20
966.9521258177
 30
0.0
 11
196.1243794789
 21
968.9521149696
 31
0.0
  0
LINE
  5
148
330
1F
100
AcDbEntity
  8
0
  6
Continuous
 62
     7
370
    15
100
AcDbLine
 10
196.1243794789
 20
968.9521149696
 30
0.0
 11
212.1243802388
 21
968.9521149696
 31
0.0
  0
LINE
  5
149
330
1F
100
AcDbEntity
  8
0
  6
Continuous
 62
     7
370
    15
100
AcDbLine
 10
212.1243802388
 20
968.9521149696
 30
0.0
 11
214.124378704
 21
966.9521258177
 31
0.0
  0
LINE
  5
14A
330
1F
100
AcDbEntity
  8
0
  6
Continuous
 62
     7
370
    15
100
AcDbLine
 10
214.124378704
 20
956.9521204533
 30
0.0
 11
214.124378704
 21
966.9521258177
 31
0.0
  0
ARC
  5
14B
330
1F
100
AcDbEntity
  8
0
  6
Continuous
 62
     7
370
    15
100
AcDbCircle
 10
217.3743793746
 20
956.952119738
 30
0.0
 40
3.25
100
AcDbArc
 50
180.0
 51
0.0
  0
LINE
  5
14C
330
1F
100
AcDbEntity
  8
0
  6
Continuous
 62
     7
370
    15
100
AcDbLine
 10
220.6243788381
 20
956.9521204533
 30
0.0
 11
227.6243781229
 21
956.9521204533
 31
0.0
  0
ARC
  5
14D
330
1F
100
AcDbEntity
  8
0
  6
Continuous
 62
     7
370
    15
100
AcDbCircle
 10
230.8743793746
 20
956.952119738
 30
0.0
 40
3.250000000000028
100
AcDbArc
 50
180.0
 51
0.0
  0
LINE
  5
14E
330
1F
100
AcDbEntity
  8
0
  6
Continuous
 62
     7
370
    15
100
AcDbLine
 10
234.1243801196
 20
966.9521258177
 30
0.0
 11
234.1243801196
 21
956.9521204533
 31
0.0
  0
LINE
  5
14F
330
1F
100
AcDbEntity
  8
0
  6
Continuous
 62
     7
370
    15
100
AcDbLine
 10
234.1243801196
 20
966.9521258177
 30
0.0
 11
236.1243804474
 21
968.9521149696
 31
0.0
  0
LINE
  5
150
330
1F
100
AcDbEntity
  8
0
  6
Continuous
 62
     7
370
    15
100
AcDbLine
 10
236.1243804474
 20
968.9521149696
 30
0.0
 11
252.12438307
 21
968.9521149696
 31
0.0
  0
LINE
  5
151
330
1F
100
AcDbEntity
  8
0
  6
Continuous
 62
     7
370
    15
100
AcDbLine
 10
252.12438307
 20
968.9521149696
 30
0.0
 11
254.1243796726
 21
966.9521258177
 31
0.0
  0
LINE
  5
152
330
1F
100
AcDbEntity
  8
0
  6
Continuous
 62
     7
370
    15
100
AcDbLine
 10
254.1243796726
 20
956.9521204533
 30
0.0
 11
254.1243796726
 21
966.9521258177
 31
0.0
  0
ARC
  5
153
330
1F
100
AcDbEntity
  8
0
  6
Continuous
 62
     7
370
    15
100
AcDbCircle
 10
257.3743793746
 20
956.952119738
 30
0.0
 40
3.25
100
AcDbArc
 50
180.0
 51
0.0
  0
LINE
  5
154
330
1F
100
AcDbEntity
  8
0
  6
Continuous
 62
     7
370
    15
100
AcDbLine
 10
260.624377944
 20
956.9521204533
 30
0.0
 11
267.6243772288
 21
956.9521204533
 31
0.0
  0
ARC
  5
155
330
1F
100
AcDbEntity
  8
0
  6
Continuous
 62
     7
370
    15
100
AcDbCircle
 10
270.8743793746
 20
956.952119738
 30
0.0
 40
3.250000000000057
100
AcDbArc
 50
180.0
 51
0.0
  0
LINE
  5
156
330
1F
100
AcDbEntity
  8
0
  6
Continuous
 62
     7
370
    15
100
AcDbLine
 10
274.1243829508
 20
966.9521258177
 30
0.0
 11
274.1243829508
 21
956.9521204533
 31
0.0
  0
LINE
  5
157
330
1F
100
AcDbEntity
  8
0
  6
Continuous
 62
     7
370
    15
100
AcDbLine
 10
274.1243829508
 20
966.9521258177
 30
0.0
 11
276.1243795534
 21
968.9521149696
 31
0.0
  0
LINE
  5
158
330
1F
100
AcDbEntity
  8
0
  6
Continuous
 62
     7
370
    15
100
AcDbLine
 10
276.1243795534
 20
968.9521149696
 30
0.0
 11
292.124382176
 21
968.9521149696
 31
0.0
  0
LINE
  5
159
330
1F
100
AcDbEntity
  8
0
  6
Continuous
 62
     7
370
    15
100
AcDbLine
 10
292.124382176
 20
968.9521149696
 30
0.0
 11
294.1243787785
 21
966.9521258177
 31
0.0
  0
LINE
  5
15A
330
1F
100
AcDbEntity
  8
0
  6
Continuous
 62
     7
370
    15
100
AcDbLine
 10
294.1243787785
 20
956.9521204533
 30
0.0
 11
294.1243787785
 21
966.9521258177
 31
0.0
  0
ARC
  5
15B
330
1F
100
AcDbEntity
  8
0
  6
Continuous
 62
     7
370
    15
100
AcDbCircle
 10
297.3743793746
 20
956.952119738
 30
0.0
 40
3.250000000000057
100
AcDbArc
 50
180.0
 51
0.0
  0
LINE
  5
15C
330
1F
100
AcDbEntity
  8
0
  6
Continuous
 62
     7
370
    15
100
AcDbLine
 10
300.62437705
 20
956.9521204533
 30
0.0
 11
307.6243763347
 21
956.9521204533
 31
0.0
  0
ARC
  5
15D
330
1F
100
AcDbEntity
  8
0
  6
Continuous
 62
     7
370
    15
100
AcDbCircle
 10
310.8743793746
 20
956.952119738
 30
0.0
 40
3.250000000000057
100
AcDbArc
 50
180.0
 51
0.0
  0
LINE
  5
15E
330
1F
100
AcDbEntity
  8
0
  6
Continuous
 62
     7
370
    15
100
AcDbLine
 10
314.1243746062
 20
966.9521258177
 30
0.0
 11
314.1243746062
 21
956.9521204533
 31
0.0
  0
LINE
  5
15F
330
1F
100
AcDbEntity
  8
0
  6
Continuous
 62
     7
370
    15
100
AcDbLine
 10
314.1243746062
 20
966.9521258177
 30
0.0
 11
316.1243786593
 21
968.9521149696
 31
0.0
  0
LINE
  5
160
330
1F
100
AcDbEntity
  8
0
  6
Continuous
 62
     7
370
    15
100
AcDbLine
 10
316.1243786593
 20
968.9521149696
 30
0.0
 11
332.1243812819
 21
968.9521149696
 31
0.0
  0
LINE
  5
161
330
1F
100
AcDbEntity
  8
0
  6
Continuous
 62
     7
370
    15
100
AcDbLine
 10
332.1243812819
 20
968.9521149696
 30
0.0
 11
334.124385335
 21
966.9521258177
 31
0.0
  0
LINE
  5
162
330
1F
100
AcDbEntity
  8
0
  6
Continuous
 62
     7
370
    15
100
AcDbLine
 10
334.124385335
 20
956.9521204533
 30
0.0
 11
334.124385335
 21
966.9521258177
 31
0.0
  0
ARC
  5
163
330
1F
100
AcDbEntity
  8
0
  6
Continuous
 62
     7
370
    15
100
AcDbCircle
 10
337.3743793746
 20
956.952119738
 30
0.0
 40
3.25
100
AcDbArc
 50
180.0
 51
0.0
  0
LINE
  5
164
330
1F
100
AcDbEntity
  8
0
  6
Continuous
 62
     7
370
    15
100
AcDbLine
 10
340.6243761559
 20
956.9521204533
 30
0.0
 11
344.1243757983
 21
956.9521204533
 31
0.0
  0
LINE
  5
165
330
1F
100
AcDbEntity
  8
0
  6
Continuous
 62
     7
370
    15
100
AcDbLine
 10
344.1243757983
 20
956.9521204533
 30
0.0
 11
344.1243757983
 21
955.4521174134
 31
0.0
  0
ARC
  5
166
330
1F
100
AcDbEntity
  8
0
  6
Continuous
 62
     7
370
    15
100
AcDbCircle
 10
344.1243793746
 20
952.202119738
 30
0.0
 40
3.25
100
AcDbArc
 50
90.0
 51
270.0
  0
LINE
  5
167
330
1F
100
AcDbEntity
  8
0
  6
Continuous
 62
     7
370
    15
100
AcDbLine
 10
352.1243771096
 20
948.952119142
 30
0.0
 11
344.1243757983
 21
948.952119142
 31
0.0
  0
LINE
  5
168
330
1F
100
AcDbEntity
  8
0
  6
Continuous
 62
     7
370
    15
100
AcDbLine
 10
352.1243771096
 20
948.952119142
 30
0.0
 11
354.1243811627
 21
946.9521225394
 31
0.0
  0
LINE
  5
169
330
1F
100
AcDbEntity
  8
0
  6
Continuous
 62
     7
370
    15
100
AcDbLine
 10
354.1243811627
 20
946.9521225394
 30
0.0
 11
354.1243811627
 21
930.9521199168
 31
0.0
  0
LINE
  5
16A
330
1F
100
AcDbEntity
  8
0
  6
Continuous
 62
     7
370
    15
100
AcDbLine
 10
354.1243811627
 20
930.9521199168
 30
0.0
 11
352.1243771096
 21
928.9521233143
 31
0.0
  0
LINE
  5
16B
330
1F
100
AcDbEntity
  8
0
  6
Continuous
 62
     7
370
    15
100
AcDbLine
 10
352.1243771096
 20
928.9521233143
 30
0.0
 11
344.1243757983
 21
928.9521233143
 31
0.0
  0
ARC
  5
16C
330
1F
100
AcDbEntity
  8
0
  6
Continuous
 62
     7
370
    15
100
AcDbCircle
 10
344.1243793746
 20
925.702119738
 30
0.0
 40
3.25
100
AcDbArc
 50
90.0
 51
270.0
  0
LINE
  5
16D
330
1F
100
AcDbEntity
  8
0
  6
Continuous
 62
     7
370
    15
100
AcDbLine
 10
344.1243757983
 20
922.4521175923
 30
0.0
 11
344.1243757983
 21
915.4521183075
 31
0.0
  0
ARC
  5
16E
330
1F
100
AcDbEntity
  8
0
  6
Continuous
 62
     7
370
    15
100
AcDbCircle
 10
344.1243793746
 20
912.202119738
 30
0.0
 40
3.25
100
AcDbArc
 50
90.0
 51
270.0
  0
LINE
  5
16F
330
1F
100
AcDbEntity
  8
0
  6
Continuous
 62
     7
370
    15
100
AcDbLine
 10
352.1243771096
 20
908.952120036
 30
0.0
 11
344.1243757983
 21
908.952120036
 31
0.0
  0
LINE
  5
170
330
1F
100
AcDbEntity
  8
0
  6
Continuous
 62
     7
370
    15
100
AcDbLine
 10
352.1243771096
 20
908.952120036
 30
0.0
 11
354.1243811627
 21
906.9521234335
 31
0.0
  0
LINE
  5
171
330
1F
100
AcDbEntity
  8
0
  6
Continuous
 62
     7
370
    15
100
AcDbLine
 10
354.1243811627
 20
906.9521234335
 30
0.0
 11
354.1243811627
 21
890.9521208109
 31
0.0
  0
LINE
  5
172
330
1F
100
AcDbEntity
  8
0
  6
Continuous
 62
     7
370
    15
100
AcDbLine
 10
354.1243811627
 20
890.9521208109
 30
0.0
 11
352.1243771096
 21
888.9521204831
 31
0.0
  0
LINE
  5
173
330
1F
100
AcDbEntity
  8
0
  6
Continuous
 62
     7
370
    15
100
AcDbLine
 10
352.1243771096
 20
888.9521204831
 30
0.0
 11
344.1243757983
 21
888.9521204831
 31
0.0
  0
ARC
  5
174
330
1F
100
AcDbEntity
  8
0
  6
Continuous
 62
     7
370
    15
100
AcDbCircle
 10
344.1243793746
 20
885.702119738
 30
0.0
 40
3.25
100
AcDbArc
 50
90.0
 51
270.0
  0
LINE
  5
175
330
1F
100
AcDbEntity
  8
0
  6
Continuous
 62
     7
370
    15
100
AcDbLine
 10
344.1243757983
 20
882.4521184863
 30
0.0
 11
344.1243757983
 21
875.4521192016
 31
0.0
  0
ARC
  5
176
330
1F
100
AcDbEntity
  8
0
  6
Continuous
 62
     7
370
    15
100
AcDbCircle
 10
344.1243793746
 20
872.202119738
 30
0.0
 40
3.250000000000114
100
AcDbArc
 50
90.0
 51
270.0
  0
LINE
  5
177
330
1F
100
AcDbEntity
  8
0
  6
Continuous
 62
     7
370
    15
100
AcDbLine
 10
352.1243771096
 20
868.9521190675
 30
0.0
 11
344.1243757983
 21
868.9521190675
 31
0.0
  0
LINE
  5
178
330
1F
100
AcDbEntity
  8
0
  6
Continuous
 62
     7
370
    15
100
AcDbLine
 10
352.1243771096
 20
868.9521190675
 30
0.0
 11
354.1243811627
 21
866.9521206023
 31
0.0
  0
LINE
  5
179
330
1F
100
AcDbEntity
  8
0
  6
Continuous
 62
     7
370
    15
100
AcDbLine
 10
354.1243811627
 20
866.9521206023
 30
0.0
 11
354.1243811627
 21
850.9521198423
 31
0.0
  0
LINE
  5
17A
330
1F
100
AcDbEntity
  8
0
  6
Continuous
 62
     7
370
    15
100
AcDbLine
 10
354.1243811627
 20
850.9521198423
 30
0.0
 11
352.1243771096
 21
848.9521195145
 31
0.0
  0
LINE
  5
17B
330
1F
100
AcDbEntity
  8
0
  6
Continuous
 62
     7
370
    15
100
AcDbLine
 10
352.1243771096
 20
848.9521195145
 30
0.0
 11
344.1243757983
 21
848.9521195145
 31
0.0
  0
ARC
  5
17C
330
1F
100
AcDbEntity
  8
0
  6
Continuous
 62
     7
370
    15
100
AcDbCircle
 10
344.1243793746
 20
845.702119738
 30
0.0
 40
3.250000000000114
100
AcDbArc
 50
90.0
 51
270.0
  0
LINE
  5
17D
330
1F
100
AcDbEntity
  8
0
  6
Continuous
 62
     7
370
    15
100
AcDbLine
 10
344.1243757983
 20
842.4521198461
 30
0.0
 11
344.1243757983
 21
835.45211963
 31
0.0
  0
ARC
  5
17E
330
1F
100
AcDbEntity
  8
0
  6
Continuous
 62
     7
370
    15
100
AcDbCircle
 10
344.1243793746
 20
832.202119738
 30
0.0
 40
3.250000000000114
100
AcDbArc
 50
90.0
 51
270.0
  0
LINE
  5
17F
330
1F
100
AcDbEntity
  8
0
  6
Continuous
 62
     7
370
    15
100
AcDbLine
 10
352.1243771096
 20
828.9521199615
 30
0.0
 11
344.1243757983
 21
828.9521199615
 31
0.0
  0
LINE
  5
180
330
1F
100
AcDbEntity
  8
0
  6
Continuous
 62
     7
370
    15
100
AcDbLine
 10
352.1243771096
 20
828.9521199615
 30
0.0
 11
354.1243811627
 21
826.9521196337
 31
0.0
  0
LINE
  5
181
330
1F
100
AcDbEntity
  8
0
  6
Continuous
 62
     7
370
    15
100
AcDbLine
 10
354.1243811627
 20
826.9521196337
 30
0.0
 11
354.1243811627
 21
810.9521188738
 31
0.0
  0
LINE
  5
182
330
1F
100
AcDbEntity
  8
0
  6
Continuous
 62
     7
370
    15
100
AcDbLine
 10
354.1243811627
 20
810.9521188738
 30
0.0
 11
352.1243771096
 21
808.9521204086
 31
0.0
  0
LINE
  5
183
330
1F
100
AcDbEntity
  8
0
  6
Continuous
 62
     7
370
    15
100
AcDbLine
 10
352.1243771096
 20
808.9521204086
 30
0.0
 11
344.1243757983
 21
808.9521204086
 31
0.0
  0
ARC
  5
184
330
1F
100
AcDbEntity
  8
0
  6
Continuous
 62
     7
370
    15
100
AcDbCircle
 10
344.1243793746
 20
805.702119738
 30
0.0
 40
3.250000000000114
100
AcDbArc
 50
90.0
 51
270.0
  0
LINE
  5
185
330
1F
100
AcDbEntity
  8
0
  6
Continuous
 62
     7
370
    15
100
AcDbLine
 10
344.1243757983
 20
802.4521202745
 30
0.0
 11
344.1243757983
 21
795.4521209897
 31
0.0
  0
ARC
  5
186
330
1F
100
AcDbEntity
  8
0
  6
Continuous
 62
     7
370
    15
100
AcDbCircle
 10
344.1243793746
 20
792.202119738
 30
0.0
 40
3.25
100
AcDbArc
 50
90.0
 51
270.0
  0
LINE
  5
187
330
1F
100
AcDbEntity
  8
0
  6
Continuous
 62
     7
370
    15
100
AcDbLine
 10
352.1243771096
 20
788.952118993
 30
0.0
 11
344.1243757983
 21
788.952118993
 31
0.0
  0
LINE
  5
188
330
1F
100
AcDbEntity
  8
0
  6
Continuous
 62
     7
370
    15
100
AcDbLine
 10
352.1243771096
 20
788.952118993
 30
0.0
 11
354.1243811627
 21
786.9521186651
 31
0.0
  0
LINE
  5
189
330
1F
100
AcDbEntity
  8
0
  6
Continuous
 62
     7
370
    15
100
AcDbLine
 10
354.1243811627
 20
786.9521186651
 30
0.0
 11
354.1243811627
 21
770.9521160425
 31
0.0
  0
LINE
  5
18A
330
1F
100
AcDbEntity
  8
0
  6
Continuous
 62
     7
370
    15
100
AcDbLine
 10
354.1243811627
 20
770.9521160425
 30
0.0
 11
352.1243771096
 21
768.95211944
 31
0.0
  0
LINE
  5
18B
330
1F
100
AcDbEntity
  8
0
  6
Continuous
 62
     7
370
    15
100
AcDbLine
 10
352.1243771096
 20
768.95211944
 30
0.0
 11
344.1243757983
 21
768.95211944
 31
0.0
  0
ARC
  5
18C
330
1F
100
AcDbEntity
  8
0
  6
Continuous
 62
     7
370
    15
100
AcDbCircle
 10
344.1243793746
 20
765.702119738
 30
0.0
 40
3.25
100
AcDbArc
 50
90.0
 51
270.0
  0
LINE
  5
18D
330
1F
100
AcDbEntity
  8
0
  6
Continuous
 62
     7
370
    15
100
AcDbLine
 10
344.1243757983
 20
762.4521211685
 30
0.0
 11
344.1243757983
 21
755.4521218838
 31
0.0
  0
ARC
  5
18E
330
1F
100
AcDbEntity
  8
0
  6
Continuous
 62
     7
370
    15
100
AcDbCircle
 10
344.1243793746
 20
752.202119738
 30
0.0
 40
3.250000000000114
100
AcDbArc
 50
90.0
 51
270.0
  0
LINE
  5
18F
330
1F
100
AcDbEntity
  8
0
  6
Continuous
 62
     7
370
    15
100
AcDbLine
 10
352.1243771096
 20
748.9521161617
 30
0.0
 11
344.1243757983
 21
748.9521161617
 31
0.0
  0
LINE
  5
190
330
1F
100
AcDbEntity
  8
0
  6
Continuous
 62
     7
370
    15
100
AcDbLine
 10
352.1243771096
 20
748.9521161617
 30
0.0
 11
354.1243811627
 21
746.9521195592
 31
0.0
  0
LINE
  5
191
330
1F
100
AcDbEntity
  8
0
  6
Continuous
 62
     7
370
    15
100
AcDbLine
 10
354.1243811627
 20
730.9521169366
 30
0.0
 11
352.1243771096
 21
728.9521203341
 31
0.0
  0
LINE
  5
192
330
1F
100
AcDbEntity
  8
0
  6
Continuous
 62
     7
370
    15
100
AcDbLine
 10
352.1243771096
 20
728.9521203341
 30
0.0
 11
344.1243757983
 21
728.9521203341
 31
0.0
  0
ARC
  5
193
330
1F
100
AcDbEntity
  8
0
  6
Continuous
 62
     7
370
    15
100
AcDbCircle
 10
344.1243793746
 20
725.702119738
 30
0.0
 40
3.250000000000114
100
AcDbArc
 50
90.0
 51
270.0
  0
LINE
  5
194
330
1F
100
AcDbEntity
  8
0
  6
Continuous
 62
     7
370
    15
100
AcDbLine
 10
344.1243757983
 20
722.4521220626
 30
0.0
 11
344.1243757983
 21
720.9521190228
 31
0.0
  0
LINE
  5
195
330
1F
100
AcDbEntity
  8
0
  6
Continuous
 62
     7
370
    15
100
AcDbLine
 10
340.6243761559
 20
720.9521190228
 30
0.0
 11
344.1243757983
 21
720.9521190228
 31
0.0
  0
LINE
  5
196
330
1F
100
AcDbEntity
  8
0
  6
Continuous
 62
     7
370
    15
100
AcDbLine
 10
16.1243816395
 20
788.952118993
 30
0.0
 11
24.1243829508
 21
788.952118993
 31
0.0
  0
LINE
  5
197
330
1F
100
AcDbEntity
  8
0
  6
Continuous
 62
     7
370
    15
100
AcDbLine
 10
354.1243811627
 20
746.9521195592
 30
0.0
 11
354.1243811627
 21
730.9521169366
 31
0.0
  0
LINE
  5
198
330
1F
100
AcDbEntity
  8
0
  6
Continuous
 62
     7
370
    15
100
AcDbLine
 10
231.8364732946
 20
327.9958964666
 30
0.0
 11
231.8364732946
 21
325.1674772581
 31
0.0
  0
LINE
  5
199
330
1F
100
AcDbEntity
  8
0
  6
Continuous
 62
     7
370
    15
100
AcDbLine
 10
231.8364732946
 20
325.1674772581
 30
0.0
 11
224.7654029215
 21
318.0964143356
 31
0.0
  0
ARC
  5
19A
330
1F
100
AcDbEntity
  8
0
  6
Continuous
 62
     7
370
    15
100
AcDbCircle
 10
227.2402771039
 20
315.6215340811
 30
0.0
 40
3.499999999999928
100
AcDbArc
 50
135.0
 51
315.0
  0
LINE
  5
19B
330
1F
100
AcDbEntity
  8
0
  6
Continuous
 62
     7
370
    15
100
AcDbLine
 10
229.7151514376
 20
313.1466658195
 30
0.0
 11
233.9577951515
 21
308.9040221056
 31
0.0
  0
ARC
  5
19C
330
1F
100
AcDbEntity
  8
0
  6
Continuous
 62
     7
370
    15
100
AcDbCircle
 10
236.4326652594
 20
306.4291459257
 30
0.0
 40
3.500000000000028
100
AcDbArc
 50
135.0
 51
315.0
  0
LINE
  5
19D
330
1F
100
AcDbEntity
  8
0
  6
Continuous
 62
     7
370
    15
100
AcDbLine
 10
245.9786140407
 20
311.025336512
 30
0.0
 11
238.907536217
 21
303.9542735895
 31
0.0
  0
LINE
  5
19E
330
1F
100
AcDbEntity
  8
0
  6
Continuous
 62
     7
370
    15
100
AcDbLine
 10
248.8070332492
 20
311.025336512
 30
0.0
 11
245.9786140407
 21
311.025336512
 31
0.0
  0
LINE
  5
19F
330
1F
100
AcDbEntity
  8
0
  6
Continuous
 62
     7
370
    15
100
AcDbLine
 10
260.1207398856
 20
299.7116298755
 30
0.0
 11
260.1207398856
 21
296.8832032164
 31
0.0
  0
LINE
  5
1A0
330
1F
100
AcDbEntity
  8
0
  6
Continuous
 62
     7
370
    15
100
AcDbLine
 10
260.1207398856
 20
296.8832032164
 30
0.0
 11
253.0496769631
 21
289.8121328434
 31
0.0
  0
ARC
  5
1A1
330
1F
100
AcDbEntity
  8
0
  6
Continuous
 62
     7
370
    15
100
AcDbCircle
 10
255.5245483514
 20
287.3372628336
 30
0.0
 40
3.499999999999908
100
AcDbArc
 50
135.0
 51
315.0
  0
LINE
  5
1A2
330
1F
100
AcDbEntity
  8
0
  6
Continuous
 62
     7
370
    15
100
AcDbLine
 10
257.9994254792
 20
284.8623917779
 30
0.0
 11
262.2420691932
 21
280.6197480639
 31
0.0
  0
ARC
  5
1A3
330
1F
100
AcDbEntity
  8
0
  6
Continuous
 62
     7
370
    15
100
AcDbCircle
 10
264.7169365068
 20
278.1448746782
 30
0.0
 40
3.500000000000028
100
AcDbArc
 50
135.0
 51
315.0
  0
LINE
  5
1A4
330
1F
100
AcDbEntity
  8
0
  6
Continuous
 62
     7
370
    15
100
AcDbLine
 10
274.2628806317
 20
282.7410699209
 30
0.0
 11
267.1918028081
 21
275.6699995478
 31
0.0
  0
LINE
  5
1A5
330
1F
100
AcDbEntity
  8
0
  6
Continuous
 62
     7
370
    15
100
AcDbLine
 10
277.0912998403
 20
282.7410699209
 30
0.0
 11
274.2628806317
 21
282.7410699209
 31
0.0
  0
LINE
  5
1A6
330
1F
100
AcDbEntity
  8
0
  6
Continuous
 62
     7
370
    15
100
AcDbLine
 10
288.4050064767
 20
271.4273632845
 30
0.0
 11
288.4050064767
 21
268.5989366254
 31
0.0
  0
LINE
  5
1A7
330
1F
100
AcDbEntity
  8
0
  6
Continuous
 62
     7
370
    15
100
AcDbLine
 10
288.4050064767
 20
268.5989366254
 30
0.0
 11
281.3339435542
 21
261.5278662523
 31
0.0
  0
ARC
  5
1A8
330
1F
100
AcDbEntity
  8
0
  6
Continuous
 62
     7
370
    15
100
AcDbCircle
 10
283.8088195989
 20
259.0529915862
 30
0.0
 40
3.499999999999948
100
AcDbArc
 50
135.0
 51
315.0
  0
LINE
  5
1A9
330
1F
100
AcDbEntity
  8
0
  6
Continuous
 62
     7
370
    15
100
AcDbLine
 10
286.2836920703
 20
256.5781177362
 30
0.0
 11
290.5263357843
 21
252.3354740223
 31
0.0
  0
ARC
  5
1AA
330
1F
100
AcDbEntity
  8
0
  6
Continuous
 62
     7
370
    15
100
AcDbCircle
 10
293.0012077543
 20
249.8606034307
 30
0.0
 40
3.500000000000028
100
AcDbArc
 50
135.0
 51
315.0
  0
LINE
  5
1AB
330
1F
100
AcDbEntity
  8
0
  6
Continuous
 62
     7
370
    15
100
AcDbLine
 10
302.5471472228
 20
254.4567958793
 30
0.0
 11
295.4760843003
 21
247.3857329568
 31
0.0
  0
LINE
  5
1AC
330
1F
100
AcDbEntity
  8
0
  6
Continuous
 62
     7
370
    15
100
AcDbLine
 10
305.3755813325
 20
254.4567958793
 30
0.0
 11
302.5471472228
 21
254.4567958793
 31
0.0
  0
LINE
  5
1AD
330
1F
100
AcDbEntity
  8
0
  6
Continuous
 62
     7
370
    15
100
AcDbLine
 10
316.6892879689
 20
243.1430892428
 30
0.0
 11
316.6892879689
 21
240.3146625837
 31
0.0
  0
LINE
  5
1AE
330
1F
100
AcDbEntity
  8
0
  6
Continuous
 62
     7
370
    15
100
AcDbLine
 10
316.6892879689
 20
240.3146625837
 30
0.0
 11
309.6182101453
 21
233.2435922107
 31
0.0
  0
ARC
  5
1AF
330
1F
100
AcDbEntity
  8
0
  6
Continuous
 62
     7
370
    15
100
AcDbCircle
 10
312.0930908463
 20
230.7687203387
 30
0.0
 40
3.499999999999888
100
AcDbArc
 50
135.0
 51
315.0
  0
LINE
  5
1B0
330
1F
100
AcDbEntity
  8
0
  6
Continuous
 62
     7
370
    15
100
AcDbLine
 10
314.5679586614
 20
228.2938474199
 30
0.0
 11
318.8106023753
 21
224.0512074312
 31
0.0
  0
ARC
  5
1B1
330
1F
100
AcDbEntity
  8
0
  6
Continuous
 62
     7
370
    15
100
AcDbCircle
 10
321.2854790017
 20
221.5763321833
 30
0.0
 40
3.500000000000008
100
AcDbArc
 50
135.0
 51
315.0
  0
LINE
  5
1B2
330
1F
100
AcDbEntity
  8
0
  6
Continuous
 62
     7
370
    15
100
AcDbLine
 10
330.8314138139
 20
226.1725255629
 30
0.0
 11
323.7603508914
 21
219.1014589151
 31
0.0
  0
LINE
  5
1B3
330
1F
100
AcDbEntity
  8
0
  6
Continuous
 62
     7
370
    15
100
AcDbLine
 10
333.6598479236
 20
226.1725255629
 30
0.0
 11
330.8314138139
 21
226.1725255629
 31
0.0
  0
LINE
  5
1B4
330
1F
100
AcDbEntity
  8
0
  6
Continuous
 62
     7
370
    15
100
AcDbLine
 10
344.97355456
 20
214.8588189265
 30
0.0
 11
344.97355456
 21
212.0303922674
 31
0.0
  0
LINE
  5
1B5
330
1F
100
AcDbEntity
  8
0
  6
Continuous
 62
     7
370
    15
100
AcDbLine
 10
344.97355456
 20
212.0303922674
 30
0.0
 11
337.9024916375
 21
204.9593218943
 31
0.0
  0
ARC
  5
1B6
330
1F
100
AcDbEntity
  8
0
  6
Continuous
 62
     7
370
    15
100
AcDbCircle
 10
340.3773620938
 20
202.4844490912
 30
0.0
 40
3.499999999999988
100
AcDbArc
 50
135.0
 51
315.0
  0
LINE
  5
1B7
330
1F
100
AcDbEntity
  8
0
  6
Continuous
 62
     7
370
    15
100
AcDbLine
 10
342.8522401536
 20
200.0095752409
 30
0.0
 11
347.0948838676
 21
195.7669352522
 31
0.0
  0
ARC
  5
1B8
330
1F
100
AcDbEntity
  8
0
  6
Continuous
 62
     7
370
    15
100
AcDbCircle
 10
349.5697502492
 20
193.2920609358
 30
0.0
 40
3.500000000000028
100
AcDbArc
 50
135.0
 51
315.0
  0
LINE
  5
1B9
330
1F
100
AcDbEntity
  8
0
  6
Continuous
 62
     7
370
    15
100
AcDbLine
 10
359.1156953061
 20
197.8882552465
 30
0.0
 11
352.0446174825
 21
190.8171867361
 31
0.0
  0
LINE
  5
1BA
330
1F
100
AcDbEntity
  8
0
  6
Continuous
 62
     7
370
    15
100
AcDbLine
 10
361.9441145146
 20
197.8882552465
 30
0.0
 11
359.1156953061
 21
197.8882552465
 31
0.0
  0
LINE
  5
1BB
330
1F
100
AcDbEntity
  8
0
  6
Continuous
 62
     7
370
    15
100
AcDbLine
 10
361.9441145146
 20
197.8882552465
 30
0.0
 11
383.1573330844
 21
176.6750515779
 31
0.0
  0
LINE
  5
1BC
330
1F
100
AcDbEntity
  8
0
  6
Continuous
 62
     7
370
    15
100
AcDbLine
 10
383.1573330844
 20
176.6750515779
 30
0.0
 11
370.4293870414
 21
163.9471297493
 31
0.0
  0
LINE
  5
1BD
330
1F
100
AcDbEntity
  8
0
  6
Continuous
 62
     7
370
    15
100
AcDbLine
 10
370.4293870414
 20
163.9471297493
 30
0.0
 11
367.6009678329
 21
163.9471297493
 31
0.0
  0
LINE
  5
1BE
330
1F
100
AcDbEntity
  8
0
  6
Continuous
 62
     7
370
    15
100
AcDbLine
 10
367.6009678329
 20
163.9471297493
 30
0.0
 11
360.5299049104
 21
171.0181973284
 31
0.0
  0
ARC
  5
1BF
330
1F
100
AcDbEntity
  8
0
  6
Continuous
 62
     7
370
    15
100
AcDbCircle
 10
358.0550316234
 20
168.5433235943
 30
0.0
 40
3.499999999999988
100
AcDbArc
 50
45.0
 51
225.0
  0
LINE
  5
1C0
330
1F
100
AcDbEntity
  8
0
  6
Continuous
 62
     7
370
    15
100
AcDbLine
 10
351.3375126803
 20
161.8258088237
 30
0.0
 11
355.5801563943
 21
166.0684497436
 31
0.0
  0
ARC
  5
1C1
330
1F
100
AcDbEntity
  8
0
  6
Continuous
 62
     7
370
    15
100
AcDbCircle
 10
348.862643468
 20
159.3509354389
 30
0.0
 40
3.500000000000008
100
AcDbArc
 50
45.0
 51
225.0
  0
LINE
  5
1C2
330
1F
100
AcDbEntity
  8
0
  6
Continuous
 62
     7
370
    15
100
AcDbLine
 10
353.4588419879
 20
149.8049945911
 30
0.0
 11
346.3877641643
 21
156.8760612389
 31
0.0
  0
LINE
  5
1C3
330
1F
100
AcDbEntity
  8
0
  6
Continuous
 62
     7
370
    15
100
AcDbLine
 10
353.4588419879
 20
149.8049945911
 30
0.0
 11
353.4588419879
 21
146.9765660694
 31
0.0
  0
LINE
  5
1C4
330
1F
100
AcDbEntity
  8
0
  6
Continuous
 62
     7
370
    15
100
AcDbLine
 10
353.4588419879
 20
146.9765660694
 30
0.0
 11
342.1451353515
 21
135.6628575703
 31
0.0
  0
LINE
  5
1C5
330
1F
100
AcDbEntity
  8
0
  6
Continuous
 62
     7
370
    15
100
AcDbLine
 10
342.1451353515
 20
135.6628575703
 30
0.0
 11
339.3167012418
 21
135.6628575703
 31
0.0
  0
LINE
  5
1C6
330
1F
100
AcDbEntity
  8
0
  6
Continuous
 62
     7
370
    15
100
AcDbLine
 10
339.3167012418
 20
135.6628575703
 30
0.0
 11
332.2456383193
 21
142.7339279434
 31
0.0
  0
ARC
  5
1C7
330
1F
100
AcDbEntity
  8
0
  6
Continuous
 62
     7
370
    15
100
AcDbCircle
 10
329.770760376
 20
140.2590523468
 30
0.0
 40
3.500000000000028
100
AcDbArc
 50
45.0
 51
225.0
  0
LINE
  5
1C8
330
1F
100
AcDbEntity
  8
0
  6
Continuous
 62
     7
370
    15
100
AcDbLine
 10
323.0532460893
 20
133.5415394386
 30
0.0
 11
327.2958898032
 21
137.7841794273
 31
0.0
  0
ARC
  5
1C9
330
1F
100
AcDbEntity
  8
0
  6
Continuous
 62
     7
370
    15
100
AcDbCircle
 10
320.5783722206
 20
131.0666641914
 30
0.0
 40
3.500000000000028
100
AcDbArc
 50
45.0
 51
225.0
  0
LINE
  5
1CA
330
1F
100
AcDbEntity
  8
0
  6
Continuous
 62
     7
370
    15
100
AcDbLine
 10
325.1745604957
 20
121.5207242748
 30
0.0
 11
325.1745604957
 21
118.6922938904
 31
0.0
  0
LINE
  5
1CB
330
1F
100
AcDbEntity
  8
0
  6
Continuous
 62
     7
370
    15
100
AcDbLine
 10
325.1745604957
 20
118.6922938904
 30
0.0
 11
313.8608538592
 21
107.3785872539
 31
0.0
  0
LINE
  5
1CC
330
1F
100
AcDbEntity
  8
0
  6
Continuous
 62
     7
370
    15
100
AcDbLine
 10
313.8608538592
 20
107.3785872539
 30
0.0
 11
311.0324346507
 21
107.3785872539
 31
0.0
  0
LINE
  5
1CD
330
1F
100
AcDbEntity
  8
0
  6
Continuous
 62
     7
370
    15
100
AcDbLine
 10
311.0324346507
 20
107.3785872539
 30
0.0
 11
303.9613568271
 21
114.4496539017
 31
0.0
  0
ARC
  5
1CE
330
1F
100
AcDbEntity
  8
0
  6
Continuous
 62
     7
370
    15
100
AcDbCircle
 10
301.4864891285
 20
111.9747810994
 30
0.0
 40
3.500000000000018
100
AcDbArc
 50
45.0
 51
225.0
  0
LINE
  5
1CF
330
1F
100
AcDbEntity
  8
0
  6
Continuous
 62
     7
370
    15
100
AcDbLine
 10
294.7689794982
 20
105.257265397
 30
0.0
 11
299.011608311
 21
109.4999091109
 31
0.0
  0
ARC
  5
1D0
330
1F
100
AcDbEntity
  8
0
  6
Continuous
 62
     7
370
    15
100
AcDbCircle
 10
292.2941009731
 20
102.7823929439
 30
0.0
 40
3.499999999999978
100
AcDbArc
 50
45.0
 51
225.0
  0
LINE
  5
1D1
330
1F
100
AcDbEntity
  8
0
  6
Continuous
 62
     7
370
    15
100
AcDbLine
 10
296.8902939046
 20
93.2364539584
 30
0.0
 11
289.8192309821
 21
100.3075168809
 31
0.0
  0
LINE
  5
1D2
330
1F
100
AcDbEntity
  8
0
  6
Continuous
 62
     7
370
    15
100
AcDbLine
 10
296.8902939046
 20
93.2364539584
 30
0.0
 11
296.8902939046
 21
90.4080272993
 31
0.0
  0
LINE
  5
1D3
330
1F
100
AcDbEntity
  8
0
  6
Continuous
 62
     7
370
    15
100
AcDbLine
 10
296.8902939046
 20
90.4080272993
 30
0.0
 11
285.5765872682
 21
79.0943132123
 31
0.0
  0
LINE
  5
1D4
330
1F
100
AcDbEntity
  8
0
  6
Continuous
 62
     7
370
    15
100
AcDbLine
 10
285.5765872682
 20
79.0943132123
 30
0.0
 11
282.7481531585
 21
79.0943132123
 31
0.0
  0
LINE
  5
1D5
330
1F
100
AcDbEntity
  8
0
  6
Continuous
 62
     7
370
    15
100
AcDbLine
 10
282.7481531585
 20
79.0943132123
 30
0.0
 11
275.677090236
 21
86.1653835853
 31
0.0
  0
ARC
  5
1D6
330
1F
100
AcDbEntity
  8
0
  6
Continuous
 62
     7
370
    15
100
AcDbCircle
 10
273.2022178811
 20
83.6905098519
 30
0.0
 40
3.500000000000099
100
AcDbArc
 50
45.0
 51
225.0
  0
LINE
  5
1D7
330
1F
100
AcDbEntity
  8
0
  6
Continuous
 62
     7
370
    15
100
AcDbLine
 10
266.484698006
 20
76.9729988059
 30
0.0
 11
270.7273417199
 21
81.2156350693
 31
0.0
  0
ARC
  5
1D8
330
1F
100
AcDbEntity
  8
0
  6
Continuous
 62
     7
370
    15
100
AcDbCircle
 10
264.0098297256
 20
74.4981216965
 30
0.0
 40
3.500000000000048
100
AcDbArc
 50
45.0
 51
225.0
  0
LINE
  5
1D9
330
1F
100
AcDbEntity
  8
0
  6
Continuous
 62
     7
370
    15
100
AcDbLine
 10
268.6060273135
 20
64.9521799167
 30
0.0
 11
261.5349494899
 21
72.0232502898
 31
0.0
  0
LINE
  5
1DA
330
1F
100
AcDbEntity
  8
0
  6
Continuous
 62
     7
370
    15
100
AcDbLine
 10
268.6060273135
 20
64.9521799167
 30
0.0
 11
268.6060273135
 21
62.1237532576
 31
0.0
  0
LINE
  5
1DB
330
1F
100
AcDbEntity
  8
0
  6
Continuous
 62
     7
370
    15
100
AcDbLine
 10
268.6060273135
 20
62.1237532576
 30
0.0
 11
257.2923206771
 21
50.8100391706
 31
0.0
  0
LINE
  5
1DC
330
1F
100
AcDbEntity
  8
0
  6
Continuous
 62
     7
370
    15
100
AcDbLine
 10
257.2923206771
 20
50.8100391706
 30
0.0
 11
254.4638865674
 21
50.8100391706
 31
0.0
  0
LINE
  5
1DD
330
1F
100
AcDbEntity
  8
0
  6
Continuous
 62
     7
370
    15
100
AcDbLine
 10
254.4638865674
 20
50.8100391706
 30
0.0
 11
247.3928236449
 21
57.8811095437
 31
0.0
  0
ARC
  5
1DE
330
1F
100
AcDbEntity
  8
0
  6
Continuous
 62
     7
370
    15
100
AcDbCircle
 10
244.9179466336
 20
55.4062386044
 30
0.0
 40
3.500000000000018
100
AcDbArc
 50
45.0
 51
225.0
  0
LINE
  5
1DF
330
1F
100
AcDbEntity
  8
0
  6
Continuous
 62
     7
370
    15
100
AcDbLine
 10
238.2004314149
 20
48.6887247642
 30
0.0
 11
242.4430751289
 21
52.9313684782
 31
0.0
  0
ARC
  5
1E0
330
1F
100
AcDbEntity
  8
0
  6
Continuous
 62
     7
370
    15
100
AcDbCircle
 10
235.7255584782
 20
46.213850449
 30
0.0
 40
3.499999999999998
100
AcDbArc
 50
45.0
 51
225.0
  0
LINE
  5
1E1
330
1F
100
AcDbEntity
  8
0
  6
Continuous
 62
     7
370
    15
100
AcDbLine
 10
240.3217458213
 20
36.6679133257
 30
0.0
 11
233.2506828988
 21
43.7389762482
 31
0.0
  0
LINE
  5
1E2
330
1F
100
AcDbEntity
  8
0
  6
Continuous
 62
     7
370
    15
100
AcDbLine
 10
240.3217458213
 20
36.6679133257
 30
0.0
 11
240.3217458213
 21
33.839479216
 31
0.0
  0
LINE
  5
1E3
330
1F
100
AcDbEntity
  8
0
  6
Continuous
 62
     7
370
    15
100
AcDbLine
 10
240.3217458213
 20
33.839479216
 30
0.0
 11
229.0080466354
 21
22.5257725796
 31
0.0
  0
LINE
  5
1E4
330
1F
100
AcDbEntity
  8
0
  6
Continuous
 62
     7
370
    15
100
AcDbLine
 10
229.0080466354
 20
22.5257725796
 30
0.0
 11
226.1796199763
 21
22.5257725796
 31
0.0
  0
LINE
  5
1E5
330
1F
100
AcDbEntity
  8
0
  6
Continuous
 62
     7
370
    15
100
AcDbLine
 10
226.1796199763
 20
22.5257725796
 30
0.0
 11
219.1085496033
 21
29.596835502
 31
0.0
  0
ARC
  5
1E6
330
1F
100
AcDbEntity
  8
0
  6
Continuous
 62
     7
370
    15
100
AcDbCircle
 10
216.6336753861
 20
27.121967357
 30
0.0
 40
3.500000000000018
100
AcDbArc
 50
45.0
 51
225.0
  0
LINE
  5
1E7
330
1F
100
AcDbEntity
  8
0
  6
Continuous
 62
     7
370
    15
100
AcDbLine
 10
209.9161573732
 20
20.4044581732
 30
0.0
 11
214.1588010872
 21
24.647086986
 31
0.0
  0
ARC
  5
1E8
330
1F
100
AcDbEntity
  8
0
  6
Continuous
 62
     7
370
    15
100
AcDbCircle
 10
207.4412872307
 20
17.9295792016
 30
0.0
 40
3.500000000000018
100
AcDbArc
 50
45.0
 51
225.0
  0
LINE
  5
1E9
330
1F
100
AcDbEntity
  8
0
  6
Continuous
 62
     7
370
    15
100
AcDbLine
 10
212.0374792302
 20
8.3836318334
 30
0.0
 11
204.9664163077
 21
15.4547096571
 31
0.0
  0
LINE
  5
1EA
330
1F
100
AcDbEntity
  8
0
  6
Continuous
 62
     7
370
    15
100
AcDbLine
 10
212.0374792302
 20
8.3836318334
 30
0.0
 11
212.0374792302
 21
6.6750497898
 31
0.0
  0
LINE
  5
1EB
330
1F
100
AcDbEntity
  8
0
  6
Continuous
 62
     7
370
    15
100
AcDbLine
 10
212.0374792302
 20
6.6750497898
 30
0.0
 11
55.1573240245
 21
6.6750497898
 31
0.0
  0
LINE
  5
1EC
330
1F
100
AcDbEntity
  8
0
  6
Continuous
 62
     7
370
    15
100
AcDbLine
 10
53.1573236967
 20
8.6750538429
 30
0.0
 11
55.1573240245
 21
6.6750497898
 31
0.0
  0
LINE
  5
1ED
330
1F
100
AcDbEntity
  8
0
  6
Continuous
 62
     7
370
    15
100
AcDbLine
 10
53.1573236967
 20
8.6750538429
 30
0.0
 11
53.1573236967
 21
18.6750443062
 31
0.0
  0
ARC
  5
1EE
330
1F
100
AcDbEntity
  8
0
  6
Continuous
 62
     7
370
    15
100
AcDbCircle
 10
49.9073223556
 20
18.6750515779
 30
0.0
 40
3.250000000000007
100
AcDbArc
 50
0.0
 51
180.0
  0
LINE
  5
1EF
330
1F
100
AcDbEntity
  8
0
  6
Continuous
 62
     7
370
    15
100
AcDbLine
 10
39.6573224152
 20
18.6750443062
 30
0.0
 11
46.6573216999
 21
18.6750443062
 31
0.0
  0
ARC
  5
1F0
330
1F
100
AcDbEntity
  8
0
  6
Continuous
 62
     7
370
    15
100
AcDbCircle
 10
36.4073223556
 20
18.6750515779
 30
0.0
 40
3.250000000000028
100
AcDbArc
 50
0.0
 51
180.0
  0
LINE
  5
1F1
330
1F
100
AcDbEntity
  8
0
  6
Continuous
 62
     7
370
    15
100
AcDbLine
 10
33.1573241437
 20
8.6750538429
 30
0.0
 11
33.1573241437
 21
18.6750443062
 31
0.0
  0
LINE
  5
1F2
330
1F
100
AcDbEntity
  8
0
  6
Continuous
 62
     7
370
    15
100
AcDbLine
 10
33.1573241437
 20
8.6750538429
 30
0.0
 11
31.1573200906
 21
6.6750497898
 31
0.0
  0
LINE
  5
1F3
330
1F
100
AcDbEntity
  8
0
  6
Continuous
 62
     7
370
    15
100
AcDbLine
 10
31.1573200906
 20
6.6750497898
 30
0.0
 11
13.1573208654
 21
6.6750497898
 31
0.0
  0
LINE
  5
1F4
330
1F
100
AcDbEntity
  8
0
  6
Continuous
 62
     7
370
    15
100
AcDbLine
 10
13.1573208654
 20
6.6750497898
 30
0.0
 11
13.1573208654
 21
24.6750564655
 31
0.0
  0
LINE
  5
1F5
330
1F
100
AcDbEntity
  8
0
  6
Continuous
 62
     7
370
    15
100
AcDbLine
 10
13.1573208654
 20
24.6750564655
 30
0.0
 11
15.1573249186
 21
26.6750456175
 31
0.0
  0
LINE
  5
1F6
330
1F
100
AcDbEntity
  8
0
  6
Continuous
 62
     7
370
    15
100
AcDbLine
 10
15.1573249186
 20
26.6750456175
 30
0.0
 11
25.1573228324
 21
26.6750456175
 31
0.0
  0
ARC
  5
1F7
330
1F
100
AcDbEntity
  8
0
  6
Continuous
 62
     7
370
    15
100
AcDbCircle
 10
25.1573223556
 20
29.9250515779
 30
0.0
 40
3.250000000000007
100
AcDbArc
 50
270.0
 51
90.0
  0
LINE
  5
1F8
330
1F
100
AcDbEntity
  8
0
  6
Continuous
 62
     7
370
    15
100
AcDbLine
 10
25.1573228324
 20
33.1750513395
 30
0.0
 11
25.1573228324
 21
40.1750506243
 31
0.0
  0
ARC
  5
1F9
330
1F
100
AcDbEntity
  8
0
  6
Continuous
 62
     7
370
    15
100
AcDbCircle
 10
25.1573223556
 20
43.4250515779
 30
0.0
 40
3.250000000000007
100
AcDbArc
 50
270.0
 51
90.0
  0
LINE
  5
1FA
330
1F
100
AcDbEntity
  8
0
  6
Continuous
 62
     7
370
    15
100
AcDbLine
 10
15.1573249186
 20
46.6750563463
 30
0.0
 11
25.1573228324
 21
46.6750563463
 31
0.0
  0
LINE
  5
1FB
330
1F
100
AcDbEntity
  8
0
  6
Continuous
 62
     7
370
    15
100
AcDbLine
 10
15.1573249186
 20
46.6750563463
 30
0.0
 11
13.1573208654
 21
48.6750454983
 31
0.0
  0
LINE
  5
1FC
330
1F
100
AcDbEntity
  8
0
  6
Continuous
 62
     7
370
    15
100
AcDbLine
 10
13.1573208654
 20
48.6750454983
 30
0.0
 11
13.1573208654
 21
64.6750481209
 31
0.0
  0
LINE
  5
1FD
330
1F
100
AcDbEntity
  8
0
  6
Continuous
 62
     7
370
    15
100
AcDbLine
 10
13.1573208654
 20
64.6750481209
 30
0.0
 11
15.1573249186
 21
66.675052174
 31
0.0
  0
LINE
  5
1FE
330
1F
100
AcDbEntity
  8
0
  6
Continuous
 62
     7
370
    15
100
AcDbLine
 10
15.1573249186
 20
66.675052174
 30
0.0
 11
25.1573228324
 21
66.675052174
 31
0.0
  0
ARC
  5
1FF
330
1F
100
AcDbEntity
  8
0
  6
Continuous
 62
     7
370
    15
100
AcDbCircle
 10
25.1573223556
 20
69.9250515779
 30
0.0
 40
3.250000000000014
100
AcDbArc
 50
270.0
 51
90.0
  0
LINE
  5
200
330
1F
100
AcDbEntity
  8
0
  6
Continuous
 62
     7
370
    15
100
AcDbLine
 10
25.1573228324
 20
73.1750504454
 30
0.0
 11
25.1573228324
 21
80.1750497302
 31
0.0
  0
ARC
  5
201
330
1F
100
AcDbEntity
  8
0
  6
Continuous
 62
     7
370
    15
100
AcDbCircle
 10
25.1573223556
 20
83.4250515779
 30
0.0
 40
3.250000000000014
100
AcDbArc
 50
270.0
 51
90.0
  0
LINE
  5
202
330
1F
100
AcDbEntity
  8
0
  6
Continuous
 62
     7
370
    15
100
AcDbLine
 10
15.1573249186
 20
86.6750480017
 30
0.0
 11
25.1573228324
 21
86.6750480017
 31
0.0
  0
LINE
  5
203
330
1F
100
AcDbEntity
  8
0
  6
Continuous
 62
     7
370
    15
100
AcDbLine
 10
15.1573249186
 20
86.6750480017
 30
0.0
 11
13.1573208654
 21
88.6750520548
 31
0.0
  0
LINE
  5
204
330
1F
100
AcDbEntity
  8
0
  6
Continuous
 62
     7
370
    15
100
AcDbLine
 10
13.1573208654
 20
88.6750520548
 30
0.0
 11
13.1573208654
 21
104.6750546774
 31
0.0
  0
LINE
  5
205
330
1F
100
AcDbEntity
  8
0
  6
Continuous
 62
     7
370
    15
100
AcDbLine
 10
13.1573208654
 20
104.6750546774
 30
0.0
 11
15.1573249186
 21
106.6750512799
 31
0.0
  0
LINE
  5
206
330
1F
100
AcDbEntity
  8
0
  6
Continuous
 62
     7
370
    15
100
AcDbLine
 10
15.1573249186
 20
106.6750512799
 30
0.0
 11
25.1573228324
 21
106.6750512799
 31
0.0
  0
ARC
  5
207
330
1F
100
AcDbEntity
  8
0
  6
Continuous
 62
     7
370
    15
100
AcDbCircle
 10
25.1573223556
 20
109.9250515779
 30
0.0
 40
3.25
100
AcDbArc
 50
270.0
 51
90.0
  0
LINE
  5
208
330
1F
100
AcDbEntity
  8
0
  6
Continuous
 62
     7
370
    15
100
AcDbLine
 10
25.1573228324
 20
113.1750495514
 30
0.0
 11
25.1573228324
 21
120.1750525614
 31
0.0
  0
ARC
  5
209
330
1F
100
AcDbEntity
  8
0
  6
Continuous
 62
     7
370
    15
100
AcDbCircle
 10
25.1573223556
 20
123.4250515779
 30
0.0
 40
3.25
100
AcDbArc
 50
270.0
 51
90.0
  0
LINE
  5
20A
330
1F
100
AcDbEntity
  8
0
  6
Continuous
 62
     7
370
    15
100
AcDbLine
 10
15.1573249186
 20
126.6750508329
 30
0.0
 11
25.1573228324
 21
126.6750508329
 31
0.0
  0
LINE
  5
20B
330
1F
100
AcDbEntity
  8
0
  6
Continuous
 62
     7
370
    15
100
AcDbLine
 10
15.1573249186
 20
126.6750508329
 30
0.0
 11
13.1573208654
 21
128.6750511607
 31
0.0
  0
LINE
  5
20C
330
1F
100
AcDbEntity
  8
0
  6
Continuous
 62
     7
370
    15
100
AcDbLine
 10
13.1573208654
 20
128.6750511607
 30
0.0
 11
13.1573208654
 21
144.675050058
 31
0.0
  0
LINE
  5
20D
330
1F
100
AcDbEntity
  8
0
  6
Continuous
 62
     7
370
    15
100
AcDbLine
 10
13.1573208654
 20
144.675050058
 30
0.0
 11
15.1573249186
 21
146.6750522485
 31
0.0
  0
LINE
  5
20E
330
1F
100
AcDbEntity
  8
0
  6
Continuous
 62
     7
370
    15
100
AcDbLine
 10
15.1573249186
 20
146.6750522485
 30
0.0
 11
25.1573228324
 21
146.6750522485
 31
0.0
  0
ARC
  5
20F
330
1F
100
AcDbEntity
  8
0
  6
Continuous
 62
     7
370
    15
100
AcDbCircle
 10
25.1573223556
 20
149.9250515779
 30
0.0
 40
3.250000000000028
100
AcDbArc
 50
270.0
 51
90.0
  0
LINE
  5
210
330
1F
100
AcDbEntity
  8
0
  6
Continuous
 62
     7
370
    15
100
AcDbLine
 10
25.1573228324
 20
153.1750523826
 30
0.0
 11
25.1573228324
 21
160.1750516673
 31
0.0
  0
ARC
  5
211
330
1F
100
AcDbEntity
  8
0
  6
Continuous
 62
     7
370
    15
100
AcDbCircle
 10
25.1573223556
 20
163.4250515779
 30
0.0
 40
3.25
100
AcDbArc
 50
270.0
 51
90.0
  0
LINE
  5
212
330
1F
100
AcDbEntity
  8
0
  6
Continuous
 62
     7
370
    15
100
AcDbLine
 10
15.1573249186
 20
166.6750518015
 30
0.0
 11
25.1573228324
 21
166.6750518015
 31
0.0
  0
LINE
  5
213
330
1F
100
AcDbEntity
  8
0
  6
Continuous
 62
     7
370
    15
100
AcDbLine
 10
15.1573249186
 20
166.6750518015
 30
0.0
 11
13.1573208654
 21
168.675051198
 31
0.0
  0
LINE
  5
214
330
1F
100
AcDbEntity
  8
0
  6
Continuous
 62
     7
370
    15
100
AcDbLine
 10
13.1573208654
 20
168.675051198
 30
0.0
 11
13.1573208654
 21
184.6750519579
 31
0.0
  0
LINE
  5
215
330
1F
100
AcDbEntity
  8
0
  6
Continuous
 62
     7
370
    15
100
AcDbLine
 10
13.1573208654
 20
184.6750519579
 30
0.0
 11
15.1573249186
 21
186.6750513544
 31
0.0
  0
LINE
  5
216
330
1F
100
AcDbEntity
  8
0
  6
Continuous
 62
     7
370
    15
100
AcDbLine
 10
15.1573249186
 20
186.6750513544
 30
0.0
 11
25.1573228324
 21
186.6750513544
 31
0.0
  0
ARC
  5
217
330
1F
100
AcDbEntity
  8
0
  6
Continuous
 62
     7
370
    15
100
AcDbCircle
 10
25.1573223556
 20
189.9250515779
 30
0.0
 40
3.25
100
AcDbArc
 50
270.0
 51
90.0
  0
LINE
  5
218
330
1F
100
AcDbEntity
  8
0
  6
Continuous
 62
     7
370
    15
100
AcDbLine
 10
25.1573228324
 20
193.1750514885
 30
0.0
 11
25.1573228324
 21
200.1750507733
 31
0.0
  0
ARC
  5
219
330
1F
100
AcDbEntity
  8
0
  6
Continuous
 62
     7
370
    15
100
AcDbCircle
 10
25.1573223556
 20
203.4250515779
 30
0.0
 40
3.250000000000028
100
AcDbArc
 50
270.0
 51
90.0
  0
LINE
  5
21A
330
1F
100
AcDbEntity
  8
0
  6
Continuous
 62
     7
370
    15
100
AcDbLine
 10
15.1573249186
 20
206.6750509074
 30
0.0
 11
25.1573228324
 21
206.6750509074
 31
0.0
  0
LINE
  5
21B
330
1F
100
AcDbEntity
  8
0
  6
Continuous
 62
     7
370
    15
100
AcDbLine
 10
15.1573249186
 20
206.6750509074
 30
0.0
 11
13.1573208654
 21
208.6750530979
 31
0.0
  0
LINE
  5
21C
330
1F
100
AcDbEntity
  8
0
  6
Continuous
 62
     7
370
    15
100
AcDbLine
 10
13.1573208654
 20
208.6750530979
 30
0.0
 11
13.1573208654
 21
224.6750519952
 31
0.0
  0
LINE
  5
21D
330
1F
100
AcDbEntity
  8
0
  6
Continuous
 62
     7
370
    15
100
AcDbLine
 10
13.1573208654
 20
224.6750519952
 30
0.0
 11
15.1573249186
 21
226.675052323
 31
0.0
  0
LINE
  5
21E
330
1F
100
AcDbEntity
  8
0
  6
Continuous
 62
     7
370
    15
100
AcDbLine
 10
15.1573249186
 20
226.675052323
 30
0.0
 11
25.1573228324
 21
226.675052323
 31
0.0
  0
ARC
  5
21F
330
1F
100
AcDbEntity
  8
0
  6
Continuous
 62
     7
370
    15
100
AcDbCircle
 10
25.1573223556
 20
229.9250515779
 30
0.0
 40
3.250000000000028
100
AcDbArc
 50
270.0
 51
90.0
  0
LINE
  5
220
330
1F
100
AcDbEntity
  8
0
  6
Continuous
 62
     7
370
    15
100
AcDbLine
 10
25.1573228324
 20
233.1750505945
 30
0.0
 11
25.1573228324
 21
240.1750536045
 31
0.0
  0
ARC
  5
221
330
1F
100
AcDbEntity
  8
0
  6
Continuous
 62
     7
370
    15
100
AcDbCircle
 10
25.1573223556
 20
243.4250515779
 30
0.0
 40
3.25
100
AcDbArc
 50
270.0
 51
90.0
  0
LINE
  5
222
330
1F
100
AcDbEntity
  8
0
  6
Continuous
 62
     7
370
    15
100
AcDbLine
 10
15.1573249186
 20
246.675051876
 30
0.0
 11
25.1573228324
 21
246.675051876
 31
0.0
  0
LINE
  5
223
330
1F
100
AcDbEntity
  8
0
  6
Continuous
 62
     7
370
    15
100
AcDbLine
 10
15.1573249186
 20
246.675051876
 30
0.0
 11
13.1573208654
 21
248.6750484785
 31
0.0
  0
LINE
  5
224
330
1F
100
AcDbEntity
  8
0
  6
Continuous
 62
     7
370
    15
100
AcDbLine
 10
13.1573208654
 20
248.6750484785
 30
0.0
 11
13.1573208654
 21
264.6750511011
 31
0.0
  0
LINE
  5
225
330
1F
100
AcDbEntity
  8
0
  6
Continuous
 62
     7
370
    15
100
AcDbLine
 10
13.1573208654
 20
264.6750511011
 30
0.0
 11
15.1573249186
 21
266.6750551542
 31
0.0
  0
LINE
  5
226
330
1F
100
AcDbEntity
  8
0
  6
Continuous
 62
     7
370
    15
100
AcDbLine
 10
15.1573249186
 20
266.6750551542
 30
0.0
 11
25.1573228324
 21
266.6750551542
 31
0.0
  0
ARC
  5
227
330
1F
100
AcDbEntity
  8
0
  6
Continuous
 62
     7
370
    15
100
AcDbCircle
 10
25.1573223556
 20
269.9250515779
 30
0.0
 40
3.250000000000057
100
AcDbArc
 50
270.0
 51
90.0
  0
LINE
  5
228
330
1F
100
AcDbEntity
  8
0
  6
Continuous
 62
     7
370
    15
100
AcDbLine
 10
25.1573228324
 20
273.1750534257
 30
0.0
 11
25.1573228324
 21
280.1750527104
 31
0.0
  0
ARC
  5
229
330
1F
100
AcDbEntity
  8
0
  6
Continuous
 62
     7
370
    15
100
AcDbCircle
 10
25.1573223556
 20
283.4250515779
 30
0.0
 40
3.25
100
AcDbArc
 50
270.0
 51
90.0
  0
LINE
  5
22A
330
1F
100
AcDbEntity
  8
0
  6
Continuous
 62
     7
370
    15
100
AcDbLine
 10
15.1573249186
 20
286.6750509819
 30
0.0
 11
25.1573228324
 21
286.6750509819
 31
0.0
  0
LINE
  5
22B
330
1F
100
AcDbEntity
  8
0
  6
Continuous
 62
     7
370
    15
100
AcDbLine
 10
15.1573249186
 20
286.6750509819
 30
0.0
 11
13.1573208654
 21
288.675055035
 31
0.0
  0
LINE
  5
22C
330
1F
100
AcDbEntity
  8
0
  6
Continuous
 62
     7
370
    15
100
AcDbLine
 10
13.1573208654
 20
288.675055035
 30
0.0
 11
13.1573208654
 21
304.6750576576
 31
0.0
  0
LINE
  5
22D
330
1F
100
AcDbEntity
  8
0
  6
Continuous
 62
     7
370
    15
100
AcDbLine
 10
13.1573208654
 20
304.6750576576
 30
0.0
 11
15.1573249186
 21
306.6750468096
 31
0.0
  0
LINE
  5
22E
330
1F
100
AcDbEntity
  8
0
  6
Continuous
 62
     7
370
    15
100
AcDbLine
 10
15.1573249186
 20
306.6750468096
 30
0.0
 11
25.1573228324
 21
306.6750468096
 31
0.0
  0
ARC
  5
22F
330
1F
100
AcDbEntity
  8
0
  6
Continuous
 62
     7
370
    15
100
AcDbCircle
 10
25.1573223556
 20
309.9250515779
 30
0.0
 40
3.250000000000057
100
AcDbArc
 50
270.0
 51
90.0
  0
LINE
  5
230
330
1F
100
AcDbEntity
  8
0
  6
Continuous
 62
     7
370
    15
100
AcDbLine
 10
25.1573228324
 20
313.1750525316
 30
0.0
 11
25.1573228324
 21
320.1750518164
 31
0.0
  0
ARC
  5
231
330
1F
100
AcDbEntity
  8
0
  6
Continuous
 62
     7
370
    15
100
AcDbCircle
 10
25.1573223556
 20
323.4250515779
 30
0.0
 40
3.25
100
AcDbArc
 50
270.0
 51
90.0
  0
LINE
  5
232
330
1F
100
AcDbEntity
  8
0
  6
Continuous
 62
     7
370
    15
100
AcDbLine
 10
15.1573249186
 20
326.6750575384
 30
0.0
 11
25.1573228324
 21
326.6750575384
 31
0.0
  0
LINE
  5
233
330
1F
100
AcDbEntity
  8
0
  6
Continuous
 62
     7
370
    15
100
AcDbLine
 10
15.1573249186
 20
326.6750575384
 30
0.0
 11
13.1573208654
 21
328.6750466904
 31
0.0
  0
LINE
  5
234
330
1F
100
AcDbEntity
  8
0
  6
Continuous
 62
     7
370
    15
100
AcDbLine
 10
13.1573208654
 20
328.6750466904
 30
0.0
 11
13.1573208654
 21
344.675049313
 31
0.0
  0
LINE
  5
235
330
1F
100
AcDbEntity
  8
0
  6
Continuous
 62
     7
370
    15
100
AcDbLine
 10
13.1573208654
 20
344.675049313
 30
0.0
 11
15.1573249186
 21
346.6750533661
 31
0.0
  0
LINE
  5
236
330
1F
100
AcDbEntity
  8
0
  6
Continuous
 62
     7
370
    15
100
AcDbLine
 10
15.1573249186
 20
346.6750533661
 30
0.0
 11
31.1573200906
 21
346.6750533661
 31
0.0
  0
LINE
  5
237
330
1F
100
AcDbEntity
  8
0
  6
Continuous
 62
     7
370
    15
100
AcDbLine
 10
33.1573241437
 20
344.675049313
 30
0.0
 11
31.1573200906
 21
346.6750533661
 31
0.0
  0
LINE
  5
238
330
1F
100
AcDbEntity
  8
0
  6
Continuous
 62
     7
370
    15
100
AcDbLine
 10
33.1573241437
 20
344.675049313
 30
0.0
 11
33.1573241437
 21
334.6750588497
 31
0.0
  0
ARC
  5
239
330
1F
100
AcDbEntity
  8
0
  6
Continuous
 62
     7
370
    15
100
AcDbCircle
 10
36.4073223556
 20
334.6750515779
 30
0.0
 40
3.250000000000028
100
AcDbArc
 50
180.0
 51
0.0
  0
LINE
  5
23A
330
1F
100
AcDbEntity
  8
0
  6
Continuous
 62
     7
370
    15
100
AcDbLine
 10
39.6573224152
 20
334.6750588497
 30
0.0
 11
46.6573216999
 21
334.6750588497
 31
0.0
  0
ARC
  5
23B
330
1F
100
AcDbEntity
  8
0
  6
Continuous
 62
     7
370
    15
100
AcDbCircle
 10
49.9073223556
 20
334.6750515779
 30
0.0
 40
3.250000000000007
100
AcDbArc
 50
180.0
 51
0.0
  0
LINE
  5
23C
330
1F
100
AcDbEntity
  8
0
  6
Continuous
 62
     7
370
    15
100
AcDbLine
 10
53.1573236967
 20
344.675049313
 30
0.0
 11
53.1573236967
 21
334.6750588497
 31
0.0
  0
LINE
  5
23D
330
1F
100
AcDbEntity
  8
0
  6
Continuous
 62
     7
370
    15
100
AcDbLine
 10
53.1573236967
 20
344.675049313
 30
0.0
 11
55.1573240245
 21
346.6750533661
 31
0.0
  0
LINE
  5
23E
330
1F
100
AcDbEntity
  8
0
  6
Continuous
 62
     7
370
    15
100
AcDbLine
 10
196.7755013192
 20
346.6750533661
 30
0.0
 11
196.4811288798
 21
346.3806809267
 31
0.0
  0
ARC
  5
23F
330
1F
100
AcDbEntity
  8
0
  6
Continuous
 62
     7
370
    15
100
AcDbCircle
 10
198.9560058565
 20
343.9058053285
 30
0.0
 40
3.499999999999988
100
AcDbArc
 50
135.0
 51
315.0
  0
LINE
  5
240
330
1F
100
AcDbEntity
  8
0
  6
Continuous
 62
     7
370
    15
100
AcDbLine
 10
201.4308773959
 20
341.4309324106
 30
0.0
 11
205.6735211099
 21
337.1882886967
 31
0.0
  0
ARC
  5
241
330
1F
100
AcDbEntity
  8
0
  6
Continuous
 62
     7
370
    15
100
AcDbCircle
 10
208.1483940119
 20
334.7134171731
 30
0.0
 40
3.500000000000008
100
AcDbArc
 50
135.0
 51
315.0
  0
LINE
  5
242
330
1F
100
AcDbEntity
  8
0
  6
Continuous
 62
     7
370
    15
100
AcDbLine
 10
217.6943325484
 20
339.3096180042
 30
0.0
 11
210.623269626
 21
332.2385401806
 31
0.0
  0
LINE
  5
243
330
1F
100
AcDbEntity
  8
0
  6
Continuous
 62
     7
370
    15
100
AcDbLine
 10
220.5227592075
 20
339.3096180042
 30
0.0
 11
217.6943325484
 21
339.3096180042
 31
0.0
  0
ARC
  5
244
330
1F
100
AcDbEntity
  8
0
  6
Continuous
 62
     7
370
    15
100
AcDbCircle
 10
141.0272001935
 20
146.6750515779
 30
0.0
 40
10.0
100
AcDbArc
 50
0.0
 51
90.0
  0
LINE
  5
245
330
1F
100
AcDbEntity
  8
0
  6
Continuous
 62
     7
370
    15
100
AcDbLine
 10
101.0272006551
 20
156.675052025
 30
0.0
 11
141.0272006924
 21
156.675052025
 31
0.0
  0
ARC
  5
246
330
1F
100
AcDbEntity
  8
0
  6
Continuous
 62
     7
370
    15
100
AcDbCircle
 10
101.0272001935
 20
146.6750515779
 30
0.0
 40
10.0
100
AcDbArc
 50
90.0
 51
180.0
  0
LINE
  5
247
330
1F
100
AcDbEntity
  8
0
  6
Continuous
 62
     7
370
    15
100
AcDbLine
 10
91.0271999473
 20
106.6750512799
 30
0.0
 11
91.0271999473
 21
146.6750522485
 31
0.0
  0
ARC
  5
248
330
1F
100
AcDbEntity
  8
0
  6
Continuous
 62
     7
370
    15
100
AcDbCircle
 10
101.0272001935
 20
106.6750515779
 30
0.0
 40
10.0
100
AcDbArc
 50
180.0
 51
270.0
  0
LINE
  5
249
330
1F
100
AcDbEntity
  8
0
  6
Continuous
 62
     7
370
    15
100
AcDbLine
 10
141.0272006924
 20
96.6750533661
 30
0.0
 11
101.0272006551
 21
96.6750533661
 31
0.0
  0
ARC
  5
24A
330
1F
100
AcDbEntity
  8
0
  6
Continuous
 62
     7
370
    15
100
AcDbCircle
 10
141.0272001935
 20
106.6750515779
 30
0.0
 40
10.0
100
AcDbArc
 50
270.0
 51
0.0
  0
LINE
  5
24B
330
1F
100
AcDbEntity
  8
0
  6
Continuous
 62
     7
370
    15
100
AcDbLine
 10
151.0272004688
 20
146.6750522485
 30
0.0
 11
151.0272004688
 21
106.6750512799
 31
0.0
  0
ARC
  5
24C
330
1F
100
AcDbEntity
  8
0
  6
Continuous
 62
     7
370
    15
100
AcDbCircle
 10
141.0272001935
 20
246.6750515779
 30
0.0
 40
10.0
100
AcDbArc
 50
0.0
 51
90.0
  0
LINE
  5
24D
330
1F
100
AcDbEntity
  8
0
  6
Continuous
 62
     7
370
    15
100
AcDbLine
 10
101.0272006551
 20
256.6750497898
 30
0.0
 11
141.0272006924
 21
256.6750497898
 31
0.0
  0
ARC
  5
24E
330
1F
100
AcDbEntity
  8
0
  6
Continuous
 62
     7
370
    15
100
AcDbCircle
 10
101.0272001935
 20
246.6750515779
 30
0.0
 40
10.0
100
AcDbArc
 50
90.0
 51
180.0
  0
LINE
  5
24F
330
1F
100
AcDbEntity
  8
0
  6
Continuous
 62
     7
370
    15
100
AcDbLine
 10
91.0271999473
 20
206.6750509074
 30
0.0
 11
91.0271999473
 21
246.675051876
 31
0.0
  0
ARC
  5
250
330
1F
100
AcDbEntity
  8
0
  6
Continuous
 62
     7
370
    15
100
AcDbCircle
 10
101.0272001935
 20
206.6750515779
 30
0.0
 40
10.0
100
AcDbArc
 50
180.0
 51
270.0
  0
LINE
  5
251
330
1F
100
AcDbEntity
  8
0
  6
Continuous
 62
     7
370
    15
100
AcDbLine
 10
141.0272006924
 20
196.6750511309
 30
0.0
 11
101.0272006551
 21
196.6750511309
 31
0.0
  0
ARC
  5
252
330
1F
100
AcDbEntity
  8
0
  6
Continuous
 62
     7
370
    15
100
AcDbCircle
 10
141.0272001935
 20
206.6750515779
 30
0.0
 40
10.00000000000003
100
AcDbArc
 50
270.0
 51
0.0
  0
LINE
  5
253
330
1F
100
AcDbEntity
  8
0
  6
Continuous
 62
     7
370
    15
100
AcDbLine
 10
151.0272004688
 20
246.675051876
 30
0.0
 11
151.0272004688
 21
206.6750509074
 31
0.0
  0
CIRCLE
  5
254
330
1F
100
AcDbEntity
  8
0
  6
Continuous
 62
     7
370
    15
100
AcDbCircle
 10
251.7812209425
 20
176.6750515779
 30
0.0
 40
40.00000000000003
  0
LINE
  5
255
330
1F
100
AcDbEntity
  8
0
  6
Continuous
 62
     7
370
    15
100
AcDbLine
 10
325.1745604957
 20
121.5207242748
 30
0.0
 11
318.1034975732
 21
128.5917909225
 31
0.0
  0
LINE
  5
256
330
1F
100
AcDbEntity
  8
0
  6
Continuous
 62
     7
370
    15
100
AcDbLine
 10
333.6598479236
 20
226.1725255629
 30
0.0
 11
344.97355456
 21
214.8588189265
 31
0.0
  0
LINE
  5
257
330
1F
100
AcDbEntity
  8
0
  6
Continuous
 62
     7
370
    15
100
AcDbLine
 10
305.3755813325
 20
254.4567958793
 30
0.0
 11
316.6892879689
 21
243.1430892428
 31
0.0
  0
LINE
  5
258
330
1F
100
AcDbEntity
  8
0
  6
Continuous
 62
     7
370
    15
100
AcDbLine
 10
277.0912998403
 20
282.7410699209
 30
0.0
 11
288.4050064767
 21
271.4273632845
 31
0.0
  0
LINE
  5
259
330
1F
100
AcDbEntity
  8
0
  6
Continuous
 62
     7
370
    15
100
AcDbLine
 10
248.8070332492
 20
311.025336512
 30
0.0
 11
260.1207398856
 21
299.7116298755
 31
0.0
  0
LINE
  5
25A
330
1F
100
AcDbEntity
  8
0
  6
Continuous
 62
     7
370
    15
100
AcDbLine
 10
220.5227592075
 20
339.3096180042
 30
0.0
 11
231.8364732946
 21
327.9958964666
 31
0.0
  0
LINE
  5
25B
330
1F
100
AcDbEntity
  8
0
  6
Continuous
 62
     7
370
    15
100
AcDbLine
 10
55.1573240245
 20
346.6750533661
 30
0.0
 11
196.7755013192
 21
346.6750533661
 31
0.0
  0
LINE
  5
25C
330
1F
100
AcDbEntity
  8
0
  6
Continuous
 62
     7
370
    15
100
AcDbLine
 10
344.4186139706
 20
533.7225375329
 30
0.0
 11
346.4186031226
 21
531.7225372051
 31
0.0
  0
LINE
  5
25D
330
1F
100
AcDbEntity
  8
0
  6
Continuous
 62
     7
370
    15
100
AcDbLine
 10
344.4186139706
 20
533.7225375329
 30
0.0
 11
344.4186139706
 21
549.7225366631
 31
0.0
  0
LINE
  5
25E
330
1F
100
AcDbEntity
  8
0
  6
Continuous
 62
     7
370
    15
100
AcDbLine
 10
346.4186031226
 20
551.7225367581
 30
0.0
 11
344.4186139706
 21
549.7225366631
 31
0.0
  0
LINE
  5
25F
330
1F
100
AcDbEntity
  8
0
  6
Continuous
 62
     7
370
    15
100
AcDbLine
 10
346.4186031226
 20
551.7225367581
 30
0.0
 11
354.4186118845
 21
551.7225367581
 31
0.0
  0
ARC
  5
260
330
1F
100
AcDbEntity
  8
0
  6
Continuous
 62
     7
370
    15
100
AcDbCircle
 10
354.4186092023
 20
554.9725367581
 30
0.0
 40
3.25
100
AcDbArc
 50
270.0
 51
90.0
  0
LINE
  5
261
330
1F
100
AcDbEntity
  8
0
  6
Continuous
 62
     7
370
    15
100
AcDbLine
 10
354.4186118845
 20
565.2225371082
 30
0.0
 11
354.4186118845
 21
558.2225368922
 31
0.0
  0
ARC
  5
262
330
1F
100
AcDbEntity
  8
0
  6
Continuous
 62
     7
370
    15
100
AcDbCircle
 10
354.4186092023
 20
568.4725367581
 30
0.0
 40
3.250000000000114
100
AcDbArc
 50
270.0
 51
90.0
  0
LINE
  5
263
330
1F
100
AcDbEntity
  8
0
  6
Continuous
 62
     7
370
    15
100
AcDbLine
 10
354.4186118845
 20
571.722536311
 30
0.0
 11
362.4186057452
 21
571.722536311
 31
0.0
  0
LINE
  5
264
330
1F
100
AcDbEntity
  8
0
  6
Continuous
 62
     7
370
    15
100
AcDbLine
 10
362.4186057452
 20
571.722536311
 30
0.0
 11
364.4186097983
 21
569.7225359832
 31
0.0
  0
LINE
  5
265
330
1F
100
AcDbEntity
  8
0
  6
Continuous
 62
     7
370
    15
100
AcDbLine
 10
364.4186097983
 20
569.7225359832
 30
0.0
 11
364.4186097983
 21
559.722537138
 31
0.0
  0
ARC
  5
266
330
1F
100
AcDbEntity
  8
0
  6
Continuous
 62
     7
370
    15
100
AcDbCircle
 10
367.6686092023
 20
559.7225367581
 30
0.0
 40
3.250000000000057
100
AcDbArc
 50
180.0
 51
0.0
  0
LINE
  5
267
330
1F
100
AcDbEntity
  8
0
  6
Continuous
 62
     7
370
    15
100
AcDbLine
 10
370.9186080698
 20
559.722537138
 30
0.0
 11
377.9186073545
 21
559.722537138
 31
0.0
  0
ARC
  5
268
330
1F
100
AcDbEntity
  8
0
  6
Continuous
 62
     7
370
    15
100
AcDbCircle
 10
381.1686092023
 20
559.7225367581
 30
0.0
 40
3.25
100
AcDbArc
 50
180.0
 51
0.0
  0
LINE
  5
269
330
1F
100
AcDbEntity
  8
0
  6
Continuous
 62
     7
370
    15
100
AcDbLine
 10
384.418605626
 20
569.7225359832
 30
0.0
 11
384.418605626
 21
559.722537138
 31
0.0
  0
LINE
  5
26A
330
1F
100
AcDbEntity
  8
0
  6
Continuous
 62
     7
370
    15
100
AcDbLine
 10
384.418605626
 20
569.7225359832
 30
0.0
 11
386.4186096791
 21
571.722536311
 31
0.0
  0
LINE
  5
26B
330
1F
100
AcDbEntity
  8
0
  6
Continuous
 62
     7
370
    15
100
AcDbLine
 10
386.4186096791
 20
571.722536311
 30
0.0
 11
402.4186123017
 21
571.722536311
 31
0.0
  0
LINE
  5
26C
330
1F
100
AcDbEntity
  8
0
  6
Continuous
 62
     7
370
    15
100
AcDbLine
 10
402.4186123017
 20
571.722536311
 30
0.0
 11
404.4186089042
 21
569.7225359832
 31
0.0
  0
LINE
  5
26D
330
1F
100
AcDbEntity
  8
0
  6
Continuous
 62
     7
370
    15
100
AcDbLine
 10
404.4186089042
 20
569.7225359832
 30
0.0
 11
404.4186089042
 21
559.722537138
 31
0.0
  0
ARC
  5
26E
330
1F
100
AcDbEntity
  8
0
  6
Continuous
 62
     7
370
    15
100
AcDbCircle
 10
407.6686092023
 20
559.7225367581
 30
0.0
 40
3.250000000000057
100
AcDbArc
 50
180.0
 51
0.0
  0
LINE
  5
26F
330
1F
100
AcDbEntity
  8
0
  6
Continuous
 62
     7
370
    15
100
AcDbLine
 10
410.9186071757
 20
559.722537138
 30
0.0
 11
417.9186101857
 21
559.722537138
 31
0.0
  0
ARC
  5
270
330
1F
100
AcDbEntity
  8
0
  6
Continuous
 62
     7
370
    15
100
AcDbCircle
 10
421.1686092023
 20
559.7225367581
 30
0.0
 40
3.250000000000057
100
AcDbArc
 50
180.0
 51
0.0
  0
LINE
  5
271
330
1F
100
AcDbEntity
  8
0
  6
Continuous
 62
     7
370
    15
100
AcDbLine
 10
424.4186084572
 20
569.7225359832
 30
0.0
 11
424.4186084572
 21
559.722537138
 31
0.0
  0
LINE
  5
272
330
1F
100
AcDbEntity
  8
0
  6
Continuous
 62
     7
370
    15
100
AcDbLine
 10
424.4186084572
 20
569.7225359832
 30
0.0
 11
426.418608785
 21
571.722536311
 31
0.0
  0
LINE
  5
273
330
1F
100
AcDbEntity
  8
0
  6
Continuous
 62
     7
370
    15
100
AcDbLine
 10
426.418608785
 20
571.722536311
 30
0.0
 11
442.4186076823
 21
571.722536311
 31
0.0
  0
LINE
  5
274
330
1F
100
AcDbEntity
  8
0
  6
Continuous
 62
     7
370
    15
100
AcDbLine
 10
442.4186076823
 20
571.722536311
 30
0.0
 11
444.4186098728
 21
569.7225359832
 31
0.0
  0
LINE
  5
275
330
1F
100
AcDbEntity
  8
0
  6
Continuous
 62
     7
370
    15
100
AcDbLine
 10
444.4186098728
 20
569.7225359832
 30
0.0
 11
444.4186098728
 21
559.722537138
 31
0.0
  0
ARC
  5
276
330
1F
100
AcDbEntity
  8
0
  6
Continuous
 62
     7
370
    15
100
AcDbCircle
 10
447.6686092023
 20
559.7225367581
 30
0.0
 40
3.250000000000057
100
AcDbArc
 50
180.0
 51
0.0
  0
LINE
  5
277
330
1F
100
AcDbEntity
  8
0
  6
Continuous
 62
     7
370
    15
100
AcDbLine
 10
450.9186100069
 20
559.722537138
 30
0.0
 11
457.9186092917
 21
559.722537138
 31
0.0
  0
ARC
  5
278
330
1F
100
AcDbEntity
  8
0
  6
Continuous
 62
     7
370
    15
100
AcDbCircle
 10
461.1686092023
 20
559.7225367581
 30
0.0
 40
3.250000000000057
100
AcDbArc
 50
180.0
 51
0.0
  0
LINE
  5
279
330
1F
100
AcDbEntity
  8
0
  6
Continuous
 62
     7
370
    15
100
AcDbLine
 10
464.4186094258
 20
569.7225359832
 30
0.0
 11
464.4186094258
 21
559.722537138
 31
0.0
  0
LINE
  5
27A
330
1F
100
AcDbEntity
  8
0
  6
Continuous
 62
     7
370
    15
100
AcDbLine
 10
464.4186094258
 20
569.7225359832
 30
0.0
 11
466.4186088223
 21
571.722536311
 31
0.0
  0
LINE
  5
27B
330
1F
100
AcDbEntity
  8
0
  6
Continuous
 62
     7
370
    15
100
AcDbLine
 10
466.4186088223
 20
571.722536311
 30
0.0
 11
482.4186095822
 21
571.722536311
 31
0.0
  0
LINE
  5
27C
330
1F
100
AcDbEntity
  8
0
  6
Continuous
 62
     7
370
    15
100
AcDbLine
 10
482.4186095822
 20
571.722536311
 30
0.0
 11
484.4186089788
 21
569.7225359832
 31
0.0
  0
LINE
  5
27D
330
1F
100
AcDbEntity
  8
0
  6
Continuous
 62
     7
370
    15
100
AcDbLine
 10
484.4186089788
 20
569.7225359832
 30
0.0
 11
484.4186089788
 21
559.722537138
 31
0.0
  0
ARC
  5
27E
330
1F
100
AcDbEntity
  8
0
  6
Continuous
 62
     7
370
    15
100
AcDbCircle
 10
487.6686092023
 20
559.7225367581
 30
0.0
 40
3.250000000000057
100
AcDbArc
 50
180.0
 51
0.0
  0
ARC
  5
27F
330
1F
100
AcDbEntity
  8
0
  6
Continuous
 62
     7
370
    15
100
AcDbCircle
 10
501.1686092023
 20
559.7225367581
 30
0.0
 40
3.25
100
AcDbArc
 50
180.0
 51
0.0
  0
LINE
  5
280
330
1F
100
AcDbEntity
  8
0
  6
Continuous
 62
     7
370
    15
100
AcDbLine
 10
504.4186085317
 20
569.7225359832
 30
0.0
 11
504.4186085317
 21
559.722537138
 31
0.0
  0
LINE
  5
281
330
1F
100
AcDbEntity
  8
0
  6
Continuous
 62
     7
370
    15
100
AcDbLine
 10
504.4186085317
 20
569.7225359832
 30
0.0
 11
506.4186107222
 21
571.722536311
 31
0.0
  0
LINE
  5
282
330
1F
100
AcDbEntity
  8
0
  6
Continuous
 62
     7
370
    15
100
AcDbLine
 10
506.4186107222
 20
571.722536311
 30
0.0
 11
522.4186096195
 21
571.722536311
 31
0.0
  0
LINE
  5
283
330
1F
100
AcDbEntity
  8
0
  6
Continuous
 62
     7
370
    15
100
AcDbLine
 10
522.4186096195
 20
571.722536311
 30
0.0
 11
524.4186099473
 21
569.7225359832
 31
0.0
  0
LINE
  5
284
330
1F
100
AcDbEntity
  8
0
  6
Continuous
 62
     7
370
    15
100
AcDbLine
 10
524.4186099473
 20
569.7225359832
 30
0.0
 11
524.4186099473
 21
559.722537138
 31
0.0
  0
ARC
  5
285
330
1F
100
AcDbEntity
  8
0
  6
Continuous
 62
     7
370
    15
100
AcDbCircle
 10
527.6686092023
 20
559.7225367581
 30
0.0
 40
3.250000000000114
100
AcDbArc
 50
180.0
 51
0.0
  0
LINE
  5
286
330
1F
100
AcDbEntity
  8
0
  6
Continuous
 62
     7
370
    15
100
AcDbLine
 10
530.9186082188
 20
559.722537138
 30
0.0
 11
537.9186112288
 21
559.722537138
 31
0.0
  0
ARC
  5
287
330
1F
100
AcDbEntity
  8
0
  6
Continuous
 62
     7
370
    15
100
AcDbCircle
 10
541.1686092023
 20
559.7225367581
 30
0.0
 40
3.250000000000114
100
AcDbArc
 50
180.0
 51
0.0
  0
LINE
  5
288
330
1F
100
AcDbEntity
  8
0
  6
Continuous
 62
     7
370
    15
100
AcDbLine
 10
544.4186095003
 20
569.7225359832
 30
0.0
 11
544.4186095003
 21
559.722537138
 31
0.0
  0
LINE
  5
289
330
1F
100
AcDbEntity
  8
0
  6
Continuous
 62
     7
370
    15
100
AcDbLine
 10
544.4186095003
 20
569.7225359832
 30
0.0
 11
546.4186061028
 21
571.722536311
 31
0.0
  0
LINE
  5
28A
330
1F
100
AcDbEntity
  8
0
  6
Continuous
 62
     7
370
    15
100
AcDbLine
 10
546.4186061028
 20
571.722536311
 30
0.0
 11
562.4186087254
 21
571.722536311
 31
0.0
  0
LINE
  5
28B
330
1F
100
AcDbEntity
  8
0
  6
Continuous
 62
     7
370
    15
100
AcDbLine
 10
562.4186087254
 20
571.722536311
 30
0.0
 11
564.4186127785
 21
569.7225359832
 31
0.0
  0
LINE
  5
28C
330
1F
100
AcDbEntity
  8
0
  6
Continuous
 62
     7
370
    15
100
AcDbLine
 10
564.4186127785
 20
569.7225359832
 30
0.0
 11
564.4186127785
 21
559.722537138
 31
0.0
  0
ARC
  5
28D
330
1F
100
AcDbEntity
  8
0
  6
Continuous
 62
     7
370
    15
100
AcDbCircle
 10
567.6686092023
 20
559.7225367581
 30
0.0
 40
3.25
100
AcDbArc
 50
180.0
 51
0.0
  0
LINE
  5
28E
330
1F
100
AcDbEntity
  8
0
  6
Continuous
 62
     7
370
    15
100
AcDbLine
 10
570.91861105
 20
559.722537138
 30
0.0
 11
577.9186103348
 21
559.722537138
 31
0.0
  0
ARC
  5
28F
330
1F
100
AcDbEntity
  8
0
  6
Continuous
 62
     7
370
    15
100
AcDbCircle
 10
581.1686092023
 20
559.7225367581
 30
0.0
 40
3.250000000000114
100
AcDbArc
 50
180.0
 51
0.0
  0
LINE
  5
290
330
1F
100
AcDbEntity
  8
0
  6
Continuous
 62
     7
370
    15
100
AcDbLine
 10
584.4186086062
 20
569.7225359832
 30
0.0
 11
584.4186086062
 21
559.722537138
 31
0.0
  0
LINE
  5
291
330
1F
100
AcDbEntity
  8
0
  6
Continuous
 62
     7
370
    15
100
AcDbLine
 10
584.4186086062
 20
569.7225359832
 30
0.0
 11
586.4186126593
 21
571.722536311
 31
0.0
  0
LINE
  5
292
330
1F
100
AcDbEntity
  8
0
  6
Continuous
 62
     7
370
    15
100
AcDbLine
 10
586.4186126593
 20
571.722536311
 30
0.0
 11
594.4186065201
 21
571.722536311
 31
0.0
  0
ARC
  5
293
330
1F
100
AcDbEntity
  8
0
  6
Continuous
 62
     7
370
    15
100
AcDbCircle
 10
594.4186092023
 20
568.4725367581
 30
0.0
 40
3.250000000000114
100
AcDbArc
 50
90.0
 51
270.0
  0
LINE
  5
294
330
1F
100
AcDbEntity
  8
0
  6
Continuous
 62
     7
370
    15
100
AcDbLine
 10
594.4186065201
 20
565.2225371082
 30
0.0
 11
594.4186065201
 21
558.2225368922
 31
0.0
  0
ARC
  5
295
330
1F
100
AcDbEntity
  8
0
  6
Continuous
 62
     7
370
    15
100
AcDbCircle
 10
594.4186092023
 20
554.9725367581
 30
0.0
 40
3.25
100
AcDbArc
 50
90.0
 51
270.0
  0
LINE
  5
296
330
1F
100
AcDbEntity
  8
0
  6
Continuous
 62
     7
370
    15
100
AcDbLine
 10
602.4186152819
 20
551.7225367581
 30
0.0
 11
594.4186065201
 21
551.7225367581
 31
0.0
  0
LINE
  5
297
330
1F
100
AcDbEntity
  8
0
  6
Continuous
 62
     7
370
    15
100
AcDbLine
 10
604.4186044339
 20
549.7225366631
 30
0.0
 11
602.4186152819
 21
551.7225367581
 31
0.0
  0
LINE
  5
298
330
1F
100
AcDbEntity
  8
0
  6
Continuous
 62
     7
370
    15
100
AcDbLine
 10
604.4186044339
 20
549.7225366631
 30
0.0
 11
604.4186044339
 21
533.7225375329
 31
0.0
  0
LINE
  5
299
330
1F
100
AcDbEntity
  8
0
  6
Continuous
 62
     7
370
    15
100
AcDbLine
 10
602.4186152819
 20
531.7225372051
 30
0.0
 11
604.4186044339
 21
533.7225375329
 31
0.0
  0
LINE
  5
29A
330
1F
100
AcDbEntity
  8
0
  6
Continuous
 62
     7
370
    15
100
AcDbLine
 10
602.4186152819
 20
531.7225372051
 30
0.0
 11
346.4186031226
 21
531.7225372051
 31
0.0
  0
LINE
  5
29B
330
1F
100
AcDbEntity
  8
0
  6
Continuous
 62
     7
370
    15
100
AcDbLine
 10
490.9186091129
 20
559.722537138
 30
0.0
 11
497.9186083976
 21
559.722537138
 31
0.0
  0
CIRCLE
  5
29C
330
1F
100
AcDbEntity
  8
0
  6
Continuous
 62
     7
370
    15
100
AcDbCircle
 10
349.7057504463
 20
69.3791394561
 30
0.0
 40
5.0
  0
ARC
  5
29D
330
1F
100
AcDbEntity
  8
0
  6
Continuous
 62
     7
370
    15
100
AcDbCircle
 10
350.2407208776
 20
29.9141098873
 30
0.0
 40
10.0
100
AcDbArc
 50
270.0
 51
0.0
  0
LINE
  5
29E
330
1F
100
AcDbEntity
  8
0
  6
Continuous
 62
     7
370
    15
100
AcDbLine
 10
340.2407199835
 20
19.9141107814
 30
0.0
 11
350.2407216226
 21
19.9141107814
 31
0.0
  0
LINE
  5
29F
330
1F
100
AcDbEntity
  8
0
  6
Continuous
 62
     7
370
    15
100
AcDbLine
 10
340.2407199835
 20
59.9141098873
 30
0.0
 11
340.2407199835
 21
19.9141107814
 31
0.0
  0
LINE
  5
2A0
330
1F
100
AcDbEntity
  8
0
  6
Continuous
 62
     7
370
    15
100
AcDbLine
 10
300.2407208776
 20
59.9141098873
 30
0.0
 11
340.2407199835
 21
59.9141098873
 31
0.0
  0
LINE
  5
2A1
330
1F
100
AcDbEntity
  8
0
  6
Continuous
 62
     7
370
    15
100
AcDbLine
 10
300.2407208776
 20
69.9141096638
 30
0.0
 11
300.2407208776
 21
59.9141098873
 31
0.0
  0
ARC
  5
2A2
330
1F
100
AcDbEntity
  8
0
  6
Continuous
 62
     7
370
    15
100
AcDbCircle
 10
310.2407208776
 20
69.9141098873
 30
0.0
 40
10.00000000000006
100
AcDbArc
 50
90.0
 51
180.0
  0
LINE
  5
2A3
330
1F
100
AcDbEntity
  8
0
  6
Continuous
 62
     7
370
    15
100
AcDbLine
 10
350.2407216226
 20
79.9141094403
 30
0.0
 11
310.240720654
 21
79.9141094403
 31
0.0
  0
ARC
  5
2A4
330
1F
100
AcDbEntity
  8
0
  6
Continuous
 62
     7
370
    15
100
AcDbCircle
 10
350.2407208776
 20
69.9141098873
 30
0.0
 40
10.0
100
AcDbArc
 50
0.0
 51
90.0
  0
LINE
  5
2A5
330
1F
100
AcDbEntity
  8
0
  6
Continuous
 62
     7
370
    15
100
AcDbLine
 10
360.2407195365
 20
29.9141105579
 30
0.0
 11
360.2407195365
 21
69.9141096638
 31
0.0
  0
INSERT
  5
2B1
330
1F
100
AcDbEntity
  8
0
  6
Continuous
 62
     7
370
     0
100
AcDbBlockReference
  2
SW_CENTERMARKSYMBOL_0
 10
349.7057504463
 20
69.3791394561
 30
0.0
  0
LINE
  5
2B2
330
1F
100
AcDbEntity
  8
0
  6
Continuous
 62
     7
370
    15
100
AcDbLine
 10
63.2225997356
 20
374.0392514946
 30
0.0
 11
123.2225983945
 21
374.0392514946
 31
0.0
  0
LINE
  5
2B3
330
1F
100
AcDbEntity
  8
0
  6
Continuous
 62
     7
370
    15
100
AcDbLine
 10
63.2225997356
 20
404.0392508241
 30
0.0
 11
63.2225997356
 21
374.0392514946
 31
0.0
  0
LINE
  5
2B4
330
1F
100
AcDbEntity
  8
0
  6
Continuous
 62
     7
370
    15
100
AcDbLine
 10
153.222597724
 20
404.0392508241
 30
0.0
 11
63.2225997356
 21
404.0392508241
 31
0.0
  0
LINE
  5
2B5
330
1F
100
AcDbEntity
  8
0
  6
Continuous
 62
     7
370
    15
100
AcDbLine
 10
123.2225983945
 20
374.0392514946
 30
0.0
 11
153.222597724
 21
404.0392508241
 31
0.0
  0
LINE
  5
2B6
330
1F
100
AcDbEntity
  8
0
  6
Continuous
 62
     7
370
    15
100
AcDbLine
 10
273.8223990047
 20
427.4605312444
 30
0.0
 11
271.8223990047
 21
429.4605312444
 31
0.0
  0
LINE
  5
2B7
330
1F
100
AcDbEntity
  8
0
  6
Continuous
 62
     7
370
    15
100
AcDbLine
 10
271.8223990047
 20
429.4605312444
 30
0.0
 11
271.8223990047
 21
439.4605312444
 31
0.0
  0
ARC
  5
2B8
330
1F
100
AcDbEntity
  8
0
  6
Continuous
 62
     7
370
    15
100
AcDbCircle
 10
268.7723990047
 20
439.4605312444
 30
0.0
 40
3.050000000000011
100
AcDbArc
 50
0.0
 51
180.0
  0
LINE
  5
2B9
330
1F
100
AcDbEntity
  8
0
  6
Continuous
 62
     7
370
    15
100
AcDbLine
 10
257.9223990047
 20
439.4605312444
 30
0.0
 11
265.7223990047
 21
439.4605312444
 31
0.0
  0
ARC
  5
2BA
330
1F
100
AcDbEntity
  8
0
  6
Continuous
 62
     7
370
    15
100
AcDbCircle
 10
254.8723990047
 20
439.4605312444
 30
0.0
 40
3.050000000000011
100
AcDbArc
 50
0.0
 51
180.0
  0
LINE
  5
2BB
330
1F
100
AcDbEntity
  8
0
  6
Continuous
 62
     7
370
    15
100
AcDbLine
 10
251.8223990047
 20
439.4605312444
 30
0.0
 11
251.8223990047
 21
429.4605312444
 31
0.0
  0
LINE
  5
2BC
330
1F
100
AcDbEntity
  8
0
  6
Continuous
 62
     7
370
    15
100
AcDbLine
 10
249.8223990047
 20
427.4605312444
 30
0.0
 11
251.8223990047
 21
429.4605312444
 31
0.0
  0
LINE
  5
2BD
330
1F
100
AcDbEntity
  8
0
  6
Continuous
 62
     7
370
    15
100
AcDbLine
 10
233.8223990047
 20
427.4605312444
 30
0.0
 11
249.8223990047
 21
427.4605312444
 31
0.0
  0
LINE
  5
2BE
330
1F
100
AcDbEntity
  8
0
  6
Continuous
 62
     7
370
    15
100
AcDbLine
 10
233.8223990047
 20
427.4605312444
 30
0.0
 11
231.8223990047
 21
429.4605312444
 31
0.0
  0
LINE
  5
2BF
330
1F
100
AcDbEntity
  8
0
  6
Continuous
 62
     7
370
    15
100
AcDbLine
 10
231.8223990047
 20
429.4605312444
 30
0.0
 11
231.8223990047
 21
439.4605312444
 31
0.0
  0
ARC
  5
2C0
330
1F
100
AcDbEntity
  8
0
  6
Continuous
 62
     7
370
    15
100
AcDbCircle
 10
228.7723990047
 20
439.4605312444
 30
0.0
 40
3.050000000000011
100
AcDbArc
 50
0.0
 51
180.0
  0
LINE
  5
2C1
330
1F
100
AcDbEntity
  8
0
  6
Continuous
 62
     7
370
    15
100
AcDbLine
 10
217.9223990047
 20
439.4605312444
 30
0.0
 11
225.7223990047
 21
439.4605312444
 31
0.0
  0
ARC
  5
2C2
330
1F
100
AcDbEntity
  8
0
  6
Continuous
 62
     7
370
    15
100
AcDbCircle
 10
214.8723990047
 20
439.4605312444
 30
0.0
 40
3.050000000000011
100
AcDbArc
 50
0.0
 51
180.0
  0
LINE
  5
2C3
330
1F
100
AcDbEntity
  8
0
  6
Continuous
 62
     7
370
    15
100
AcDbLine
 10
211.8223990047
 20
439.4605312444
 30
0.0
 11
211.8223990047
 21
429.4605312444
 31
0.0
  0
LINE
  5
2C4
330
1F
100
AcDbEntity
  8
0
  6
Continuous
 62
     7
370
    15
100
AcDbLine
 10
209.8223990047
 20
427.4605312444
 30
0.0
 11
211.8223990047
 21
429.4605312444
 31
0.0
  0
LINE
  5
2C5
330
1F
100
AcDbEntity
  8
0
  6
Continuous
 62
     7
370
    15
100
AcDbLine
 10
193.8223990047
 20
427.4605312444
 30
0.0
 11
209.8223990047
 21
427.4605312444
 31
0.0
  0
LINE
  5
2C6
330
1F
100
AcDbEntity
  8
0
  6
Continuous
 62
     7
370
    15
100
AcDbLine
 10
193.8223990047
 20
427.4605312444
 30
0.0
 11
191.8223990047
 21
429.4605312444
 31
0.0
  0
LINE
  5
2C7
330
1F
100
AcDbEntity
  8
0
  6
Continuous
 62
     7
370
    15
100
AcDbLine
 10
191.8223990047
 20
429.4605312444
 30
0.0
 11
191.8223990047
 21
439.4605312444
 31
0.0
  0
ARC
  5
2C8
330
1F
100
AcDbEntity
  8
0
  6
Continuous
 62
     7
370
    15
100
AcDbCircle
 10
188.7723990047
 20
439.4605312444
 30
0.0
 40
3.050000000000011
100
AcDbArc
 50
0.0
 51
180.0
  0
LINE
  5
2C9
330
1F
100
AcDbEntity
  8
0
  6
Continuous
 62
     7
370
    15
100
AcDbLine
 10
177.9223990047
 20
439.4605312444
 30
0.0
 11
185.7223990047
 21
439.4605312444
 31
0.0
  0
ARC
  5
2CA
330
1F
100
AcDbEntity
  8
0
  6
Continuous
 62
     7
370
    15
100
AcDbCircle
 10
174.8723990047
 20
439.4605312444
 30
0.0
 40
3.050000000000011
100
AcDbArc
 50
0.0
 51
180.0
  0
LINE
  5
2CB
330
1F
100
AcDbEntity
  8
0
  6
Continuous
 62
     7
370
    15
100
AcDbLine
 10
171.8223990047
 20
439.4605312444
 30
0.0
 11
171.8223990047
 21
429.4605312444
 31
0.0
  0
LINE
  5
2CC
330
1F
100
AcDbEntity
  8
0
  6
Continuous
 62
     7
370
    15
100
AcDbLine
 10
169.8223990047
 20
427.4605312444
 30
0.0
 11
171.8223990047
 21
429.4605312444
 31
0.0
  0
LINE
  5
2CD
330
1F
100
AcDbEntity
  8
0
  6
Continuous
 62
     7
370
    15
100
AcDbLine
 10
153.8223990047
 20
427.4605312444
 30
0.0
 11
169.8223990047
 21
427.4605312444
 31
0.0
  0
LINE
  5
2CE
330
1F
100
AcDbEntity
  8
0
  6
Continuous
 62
     7
370
    15
100
AcDbLine
 10
153.8223990047
 20
427.4605312444
 30
0.0
 11
151.8223990047
 21
429.4605312444
 31
0.0
  0
LINE
  5
2CF
330
1F
100
AcDbEntity
  8
0
  6
Continuous
 62
     7
370
    15
100
AcDbLine
 10
151.8223990047
 20
429.4605312444
 30
0.0
 11
151.8223990047
 21
439.4605312444
 31
0.0
  0
ARC
  5
2D0
330
1F
100
AcDbEntity
  8
0
  6
Continuous
 62
     7
370
    15
100
AcDbCircle
 10
148.7723990047
 20
439.4605312444
 30
0.0
 40
3.050000000000011
100
AcDbArc
 50
0.0
 51
180.0
  0
LINE
  5
2D1
330
1F
100
AcDbEntity
  8
0
  6
Continuous
 62
     7
370
    15
100
AcDbLine
 10
137.9223990047
 20
439.4605312444
 30
0.0
 11
145.7223990047
 21
439.4605312444
 31
0.0
  0
ARC
  5
2D2
330
1F
100
AcDbEntity
  8
0
  6
Continuous
 62
     7
370
    15
100
AcDbCircle
 10
134.8723990047
 20
439.4605312444
 30
0.0
 40
3.050000000000011
100
AcDbArc
 50
0.0
 51
180.0
  0
LINE
  5
2D3
330
1F
100
AcDbEntity
  8
0
  6
Continuous
 62
     7
370
    15
100
AcDbLine
 10
131.8223990047
 20
439.4605312444
 30
0.0
 11
131.8223990047
 21
429.4605312444
 31
0.0
  0
LINE
  5
2D4
330
1F
100
AcDbEntity
  8
0
  6
Continuous
 62
     7
370
    15
100
AcDbLine
 10
129.8223990047
 20
427.4605312444
 30
0.0
 11
131.8223990047
 21
429.4605312444
 31
0.0
  0
LINE
  5
2D5
330
1F
100
AcDbEntity
  8
0
  6
Continuous
 62
     7
370
    15
100
AcDbLine
 10
113.8223990047
 20
427.4605312444
 30
0.0
 11
129.8223990047
 21
427.4605312444
 31
0.0
  0
LINE
  5
2D6
330
1F
100
AcDbEntity
  8
0
  6
Continuous
 62
     7
370
    15
100
AcDbLine
 10
113.8223990047
 20
427.4605312444
 30
0.0
 11
111.8223990047
 21
429.4605312444
 31
0.0
  0
LINE
  5
2D7
330
1F
100
AcDbEntity
  8
0
  6
Continuous
 62
     7
370
    15
100
AcDbLine
 10
111.8223990047
 20
429.4605312444
 30
0.0
 11
111.8223990047
 21
439.4605312444
 31
0.0
  0
ARC
  5
2D8
330
1F
100
AcDbEntity
  8
0
  6
Continuous
 62
     7
370
    15
100
AcDbCircle
 10
108.7723990047
 20
439.4605312444
 30
0.0
 40
3.049999999999997
100
AcDbArc
 50
0.0
 51
180.0
  0
LINE
  5
2D9
330
1F
100
AcDbEntity
  8
0
  6
Continuous
 62
     7
370
    15
100
AcDbLine
 10
97.9223990047
 20
439.4605312444
 30
0.0
 11
105.7223990047
 21
439.4605312444
 31
0.0
  0
ARC
  5
2DA
330
1F
100
AcDbEntity
  8
0
  6
Continuous
 62
     7
370
    15
100
AcDbCircle
 10
94.8723990047
 20
439.4605312444
 30
0.0
 40
3.049999999999997
100
AcDbArc
 50
0.0
 51
180.0
  0
LINE
  5
2DB
330
1F
100
AcDbEntity
  8
0
  6
Continuous
 62
     7
370
    15
100
AcDbLine
 10
91.8223990047
 20
439.4605312444
 30
0.0
 11
91.8223990047
 21
429.4605312444
 31
0.0
  0
LINE
  5
2DC
330
1F
100
AcDbEntity
  8
0
  6
Continuous
 62
     7
370
    15
100
AcDbLine
 10
89.8223990047
 20
427.4605312444
 30
0.0
 11
91.8223990047
 21
429.4605312444
 31
0.0
  0
LINE
  5
2DD
330
1F
100
AcDbEntity
  8
0
  6
Continuous
 62
     7
370
    15
100
AcDbLine
 10
73.8223990047
 20
427.4605312444
 30
0.0
 11
89.8223990047
 21
427.4605312444
 31
0.0
  0
LINE
  5
2DE
330
1F
100
AcDbEntity
  8
0
  6
Continuous
 62
     7
370
    15
100
AcDbLine
 10
73.8223990047
 20
427.4605312444
 30
0.0
 11
71.8223990047
 21
429.4605312444
 31
0.0
  0
LINE
  5
2DF
330
1F
100
AcDbEntity
  8
0
  6
Continuous
 62
     7
370
    15
100
AcDbLine
 10
71.8223990047
 20
429.4605312444
 30
0.0
 11
71.8223990047
 21
439.4605312444
 31
0.0
  0
ARC
  5
2E0
330
1F
100
AcDbEntity
  8
0
  6
Continuous
 62
     7
370
    15
100
AcDbCircle
 10
68.7723990047
 20
439.4605312444
 30
0.0
 40
3.049999999999997
100
AcDbArc
 50
0.0
 51
180.0
  0
LINE
  5
2E1
330
1F
100
AcDbEntity
  8
0
  6
Continuous
 62
     7
370
    15
100
AcDbLine
 10
57.9223990047
 20
439.4605312444
 30
0.0
 11
65.7223990047
 21
439.4605312444
 31
0.0
  0
ARC
  5
2E2
330
1F
100
AcDbEntity
  8
0
  6
Continuous
 62
     7
370
    15
100
AcDbCircle
 10
54.8723990047
 20
439.4605312444
 30
0.0
 40
3.049999999999997
100
AcDbArc
 50
0.0
 51
180.0
  0
LINE
  5
2E3
330
1F
100
AcDbEntity
  8
0
  6
Continuous
 62
     7
370
    15
100
AcDbLine
 10
51.8223990047
 20
439.4605312444
 30
0.0
 11
51.8223990047
 21
429.4605312444
 31
0.0
  0
LINE
  5
2E4
330
1F
100
AcDbEntity
  8
0
  6
Continuous
 62
     7
370
    15
100
AcDbLine
 10
49.8223990047
 20
427.4605312444
 30
0.0
 11
51.8223990047
 21
429.4605312444
 31
0.0
  0
LINE
  5
2E5
330
1F
100
AcDbEntity
  8
0
  6
Continuous
 62
     7
370
    15
100
AcDbLine
 10
33.8223990047
 20
427.4605312444
 30
0.0
 11
49.8223990047
 21
427.4605312444
 31
0.0
  0
LINE
  5
2E6
330
1F
100
AcDbEntity
  8
0
  6
Continuous
 62
     7
370
    15
100
AcDbLine
 10
33.8223990047
 20
427.4605312444
 30
0.0
 11
31.8223990047
 21
429.4605312444
 31
0.0
  0
LINE
  5
2E7
330
1F
100
AcDbEntity
  8
0
  6
Continuous
 62
     7
370
    15
100
AcDbLine
 10
31.8223990047
 20
429.4605312444
 30
0.0
 11
31.8223990047
 21
439.4605312444
 31
0.0
  0
ARC
  5
2E8
330
1F
100
AcDbEntity
  8
0
  6
Continuous
 62
     7
370
    15
100
AcDbCircle
 10
28.7723990047
 20
439.4605312444
 30
0.0
 40
3.049999999999997
100
AcDbArc
 50
0.0
 51
180.0
  0
LINE
  5
2E9
330
1F
100
AcDbEntity
  8
0
  6
Continuous
 62
     7
370
    15
100
AcDbLine
 10
17.9223990047
 20
439.4605312444
 30
0.0
 11
25.7223990047
 21
439.4605312444
 31
0.0
  0
ARC
  5
2EA
330
1F
100
AcDbEntity
  8
0
  6
Continuous
 62
     7
370
    15
100
AcDbCircle
 10
14.8723990047
 20
439.4605312444
 30
0.0
 40
3.049999999999999
100
AcDbArc
 50
0.0
 51
180.0
  0
LINE
  5
2EB
330
1F
100
AcDbEntity
  8
0
  6
Continuous
 62
     7
370
    15
100
AcDbLine
 10
11.8223990047
 20
675.4605312444
 30
0.0
 11
11.8223990047
 21
439.4605312444
 31
0.0
  0
ARC
  5
2EC
330
1F
100
AcDbEntity
  8
0
  6
Continuous
 62
     7
370
    15
100
AcDbCircle
 10
14.8723990047
 20
675.4605312444
 30
0.0
 40
3.050000000000024
100
AcDbArc
 50
180.0
 51
0.0
  0
LINE
  5
2ED
330
1F
100
AcDbEntity
  8
0
  6
Continuous
 62
     7
370
    15
100
AcDbLine
 10
17.9223990047
 20
675.4605312444
 30
0.0
 11
25.7223990047
 21
675.4605312444
 31
0.0
  0
ARC
  5
2EE
330
1F
100
AcDbEntity
  8
0
  6
Continuous
 62
     7
370
    15
100
AcDbCircle
 10
28.7723990047
 20
675.4605312444
 30
0.0
 40
3.049999999999997
100
AcDbArc
 50
180.0
 51
0.0
  0
LINE
  5
2EF
330
1F
100
AcDbEntity
  8
0
  6
Continuous
 62
     7
370
    15
100
AcDbLine
 10
31.8223990047
 20
685.4605312444
 30
0.0
 11
31.8223990047
 21
675.4605312444
 31
0.0
  0
LINE
  5
2F0
330
1F
100
AcDbEntity
  8
0
  6
Continuous
 62
     7
370
    15
100
AcDbLine
 10
33.8223990047
 20
687.4605312444
 30
0.0
 11
31.8223990047
 21
685.4605312444
 31
0.0
  0
LINE
  5
2F1
330
1F
100
AcDbEntity
  8
0
  6
Continuous
 62
     7
370
    15
100
AcDbLine
 10
49.8223990047
 20
687.4605312444
 30
0.0
 11
33.8223990047
 21
687.4605312444
 31
0.0
  0
LINE
  5
2F2
330
1F
100
AcDbEntity
  8
0
  6
Continuous
 62
     7
370
    15
100
AcDbLine
 10
49.8223990047
 20
687.4605312444
 30
0.0
 11
51.8223990047
 21
685.4605312444
 31
0.0
  0
LINE
  5
2F3
330
1F
100
AcDbEntity
  8
0
  6
Continuous
 62
     7
370
    15
100
AcDbLine
 10
51.8223990047
 20
675.4605312444
 30
0.0
 11
51.8223990047
 21
685.4605312444
 31
0.0
  0
ARC
  5
2F4
330
1F
100
AcDbEntity
  8
0
  6
Continuous
 62
     7
370
    15
100
AcDbCircle
 10
54.8723990047
 20
675.4605312444
 30
0.0
 40
3.049999999999997
100
AcDbArc
 50
180.0
 51
0.0
  0
LINE
  5
2F5
330
1F
100
AcDbEntity
  8
0
  6
Continuous
 62
     7
370
    15
100
AcDbLine
 10
57.9223990047
 20
675.4605312444
 30
0.0
 11
65.7223990047
 21
675.4605312444
 31
0.0
  0
ARC
  5
2F6
330
1F
100
AcDbEntity
  8
0
  6
Continuous
 62
     7
370
    15
100
AcDbCircle
 10
68.7723990047
 20
675.4605312444
 30
0.0
 40
3.049999999999997
100
AcDbArc
 50
180.0
 51
0.0
  0
LINE
  5
2F7
330
1F
100
AcDbEntity
  8
0
  6
Continuous
 62
     7
370
    15
100
AcDbLine
 10
71.8223990047
 20
685.4605312444
 30
0.0
 11
71.8223990047
 21
675.4605312444
 31
0.0
  0
LINE
  5
2F8
330
1F
100
AcDbEntity
  8
0
  6
Continuous
 62
     7
370
    15
100
AcDbLine
 10
73.8223990047
 20
687.4605312444
 30
0.0
 11
71.8223990047
 21
685.4605312444
 31
0.0
  0
LINE
  5
2F9
330
1F
100
AcDbEntity
  8
0
  6
Continuous
 62
     7
370
    15
100
AcDbLine
 10
89.8223990047
 20
687.4605312444
 30
0.0
 11
73.8223990047
 21
687.4605312444
 31
0.0
  0
LINE
  5
2FA
330
1F
100
AcDbEntity
  8
0
  6
Continuous
 62
     7
370
    15
100
AcDbLine
 10
89.8223990047
 20
687.4605312444
 30
0.0
 11
91.8223990047
 21
685.4605312444
 31
0.0
  0
LINE
  5
2FB
330
1F
100
AcDbEntity
  8
0
  6
Continuous
 62
     7
370
    15
100
AcDbLine
 10
91.8223990047
 20
675.4605312444
 30
0.0
 11
91.8223990047
 21
685.4605312444
 31
0.0
  0
ARC
  5
2FC
330
1F
100
AcDbEntity
  8
0
  6
Continuous
 62
     7
370
    15
100
AcDbCircle
 10
94.8723990047
 20
675.4605312444
 30
0.0
 40
3.049999999999997
100
AcDbArc
 50
180.0
 51
0.0
  0
LINE
  5
2FD
330
1F
100
AcDbEntity
  8
0
  6
Continuous
 62
     7
370
    15
100
AcDbLine
 10
97.9223990047
 20
675.4605312444
 30
0.0
 11
105.7223990047
 21
675.4605312444
 31
0.0
  0
ARC
  5
2FE
330
1F
100
AcDbEntity
  8
0
  6
Continuous
 62
     7
370
    15
100
AcDbCircle
 10
108.7723990047
 20
675.4605312444
 30
0.0
 40
3.049999999999997
100
AcDbArc
 50
180.0
 51
0.0
  0
LINE
  5
2FF
330
1F
100
AcDbEntity
  8
0
  6
Continuous
 62
     7
370
    15
100
AcDbLine
 10
111.8223990047
 20
685.4605312444
 30
0.0
 11
111.8223990047
 21
675.4605312444
 31
0.0
  0
LINE
  5
300
330
1F
100
AcDbEntity
  8
0
  6
Continuous
 62
     7
370
    15
100
AcDbLine
 10
113.8223990047
 20
687.4605312444
 30
0.0
 11
111.8223990047
 21
685.4605312444
 31
0.0
  0
LINE
  5
301
330
1F
100
AcDbEntity
  8
0
  6
Continuous
 62
     7
370
    15
100
AcDbLine
 10
129.8223990047
 20
687.4605312444
 30
0.0
 11
113.8223990047
 21
687.4605312444
 31
0.0
  0
LINE
  5
302
330
1F
100
AcDbEntity
  8
0
  6
Continuous
 62
     7
370
    15
100
AcDbLine
 10
129.8223990047
 20
687.4605312444
 30
0.0
 11
131.8223990047
 21
685.4605312444
 31
0.0
  0
LINE
  5
303
330
1F
100
AcDbEntity
  8
0
  6
Continuous
 62
     7
370
    15
100
AcDbLine
 10
131.8223990047
 20
675.4605312444
 30
0.0
 11
131.8223990047
 21
685.4605312444
 31
0.0
  0
ARC
  5
304
330
1F
100
AcDbEntity
  8
0
  6
Continuous
 62
     7
370
    15
100
AcDbCircle
 10
134.8723990047
 20
675.4605312444
 30
0.0
 40
3.050000000000011
100
AcDbArc
 50
180.0
 51
0.0
  0
LINE
  5
305
330
1F
100
AcDbEntity
  8
0
  6
Continuous
 62
     7
370
    15
100
AcDbLine
 10
137.9223990047
 20
675.4605312444
 30
0.0
 11
145.7223990047
 21
675.4605312444
 31
0.0
  0
ARC
  5
306
330
1F
100
AcDbEntity
  8
0
  6
Continuous
 62
     7
370
    15
100
AcDbCircle
 10
148.7723990047
 20
675.4605312444
 30
0.0
 40
3.050000000000011
100
AcDbArc
 50
180.0
 51
0.0
  0
LINE
  5
307
330
1F
100
AcDbEntity
  8
0
  6
Continuous
 62
     7
370
    15
100
AcDbLine
 10
151.8223990047
 20
685.4605312444
 30
0.0
 11
151.8223990047
 21
675.4605312444
 31
0.0
  0
LINE
  5
308
330
1F
100
AcDbEntity
  8
0
  6
Continuous
 62
     7
370
    15
100
AcDbLine
 10
153.8223990047
 20
687.4605312444
 30
0.0
 11
151.8223990047
 21
685.4605312444
 31
0.0
  0
LINE
  5
309
330
1F
100
AcDbEntity
  8
0
  6
Continuous
 62
     7
370
    15
100
AcDbLine
 10
169.8223990047
 20
687.4605312444
 30
0.0
 11
153.8223990047
 21
687.4605312444
 31
0.0
  0
LINE
  5
30A
330
1F
100
AcDbEntity
  8
0
  6
Continuous
 62
     7
370
    15
100
AcDbLine
 10
169.8223990047
 20
687.4605312444
 30
0.0
 11
171.8223990047
 21
685.4605312444
 31
0.0
  0
LINE
  5
30B
330
1F
100
AcDbEntity
  8
0
  6
Continuous
 62
     7
370
    15
100
AcDbLine
 10
171.8223990047
 20
675.4605312444
 30
0.0
 11
171.8223990047
 21
685.4605312444
 31
0.0
  0
ARC
  5
30C
330
1F
100
AcDbEntity
  8
0
  6
Continuous
 62
     7
370
    15
100
AcDbCircle
 10
174.8723990047
 20
675.4605312444
 30
0.0
 40
3.050000000000011
100
AcDbArc
 50
180.0
 51
0.0
  0
LINE
  5
30D
330
1F
100
AcDbEntity
  8
0
  6
Continuous
 62
     7
370
    15
100
AcDbLine
 10
177.9223990047
 20
675.4605312444
 30
0.0
 11
185.7223990047
 21
675.4605312444
 31
0.0
  0
ARC
  5
30E
330
1F
100
AcDbEntity
  8
0
  6
Continuous
 62
     7
370
    15
100
AcDbCircle
 10
188.7723990047
 20
675.4605312444
 30
0.0
 40
3.050000000000011
100
AcDbArc
 50
180.0
 51
0.0
  0
LINE
  5
30F
330
1F
100
AcDbEntity
  8
0
  6
Continuous
 62
     7
370
    15
100
AcDbLine
 10
191.8223990047
 20
685.4605312444
 30
0.0
 11
191.8223990047
 21
675.4605312444
 31
0.0
  0
LINE
  5
310
330
1F
100
AcDbEntity
  8
0
  6
Continuous
 62
     7
370
    15
100
AcDbLine
 10
193.8223990047
 20
687.4605312444
 30
0.0
 11
191.8223990047
 21
685.4605312444
 31
0.0
  0
LINE
  5
311
330
1F
100
AcDbEntity
  8
0
  6
Continuous
 62
     7
370
    15
100
AcDbLine
 10
209.8223990047
 20
687.4605312444
 30
0.0
 11
193.8223990047
 21
687.4605312444
 31
0.0
  0
LINE
  5
312
330
1F
100
AcDbEntity
  8
0
  6
Continuous
 62
     7
370
    15
100
AcDbLine
 10
209.8223990047
 20
687.4605312444
 30
0.0
 11
211.8223990047
 21
685.4605312444
 31
0.0
  0
LINE
  5
313
330
1F
100
AcDbEntity
  8
0
  6
Continuous
 62
     7
370
    15
100
AcDbLine
 10
211.8223990047
 20
675.4605312444
 30
0.0
 11
211.8223990047
 21
685.4605312444
 31
0.0
  0
ARC
  5
314
330
1F
100
AcDbEntity
  8
0
  6
Continuous
 62
     7
370
    15
100
AcDbCircle
 10
214.8723990047
 20
675.4605312444
 30
0.0
 40
3.050000000000011
100
AcDbArc
 50
180.0
 51
0.0
  0
LINE
  5
315
330
1F
100
AcDbEntity
  8
0
  6
Continuous
 62
     7
370
    15
100
AcDbLine
 10
217.9223990047
 20
675.4605312444
 30
0.0
 11
225.7223990047
 21
675.4605312444
 31
0.0
  0
ARC
  5
316
330
1F
100
AcDbEntity
  8
0
  6
Continuous
 62
     7
370
    15
100
AcDbCircle
 10
228.7723990047
 20
675.4605312444
 30
0.0
 40
3.050000000000011
100
AcDbArc
 50
180.0
 51
0.0
  0
LINE
  5
317
330
1F
100
AcDbEntity
  8
0
  6
Continuous
 62
     7
370
    15
100
AcDbLine
 10
231.8223990047
 20
685.4605312444
 30
0.0
 11
231.8223990047
 21
675.4605312444
 31
0.0
  0
LINE
  5
318
330
1F
100
AcDbEntity
  8
0
  6
Continuous
 62
     7
370
    15
100
AcDbLine
 10
233.8223990047
 20
687.4605312444
 30
0.0
 11
231.8223990047
 21
685.4605312444
 31
0.0
  0
LINE
  5
319
330
1F
100
AcDbEntity
  8
0
  6
Continuous
 62
     7
370
    15
100
AcDbLine
 10
249.8223990047
 20
687.4605312444
 30
0.0
 11
233.8223990047
 21
687.4605312444
 31
0.0
  0
LINE
  5
31A
330
1F
100
AcDbEntity
  8
0
  6
Continuous
 62
     7
370
    15
100
AcDbLine
 10
249.8223990047
 20
687.4605312444
 30
0.0
 11
251.8223990047
 21
685.4605312444
 31
0.0
  0
LINE
  5
31B
330
1F
100
AcDbEntity
  8
0
  6
Continuous
 62
     7
370
    15
100
AcDbLine
 10
251.8223990047
 20
675.4605312444
 30
0.0
 11
251.8223990047
 21
685.4605312444
 31
0.0
  0
ARC
  5
31C
330
1F
100
AcDbEntity
  8
0
  6
Continuous
 62
     7
370
    15
100
AcDbCircle
 10
254.8723990047
 20
675.4605312444
 30
0.0
 40
3.050000000000011
100
AcDbArc
 50
180.0
 51
0.0
  0
LINE
  5
31D
330
1F
100
AcDbEntity
  8
0
  6
Continuous
 62
     7
370
    15
100
AcDbLine
 10
257.9223990047
 20
675.4605312444
 30
0.0
 11
265.7223990047
 21
675.4605312444
 31
0.0
  0
ARC
  5
31E
330
1F
100
AcDbEntity
  8
0
  6
Continuous
 62
     7
370
    15
100
AcDbCircle
 10
268.7723990047
 20
675.4605312444
 30
0.0
 40
3.050000000000011
100
AcDbArc
 50
180.0
 51
0.0
  0
LINE
  5
31F
330
1F
100
AcDbEntity
  8
0
  6
Continuous
 62
     7
370
    15
100
AcDbLine
 10
271.8223990047
 20
685.4605312444
 30
0.0
 11
271.8223990047
 21
675.4605312444
 31
0.0
  0
LINE
  5
320
330
1F
100
AcDbEntity
  8
0
  6
Continuous
 62
     7
370
    15
100
AcDbLine
 10
273.8223990047
 20
687.4605312444
 30
0.0
 11
271.8223990047
 21
685.4605312444
 31
0.0
  0
LINE
  5
321
330
1F
100
AcDbEntity
  8
0
  6
Continuous
 62
     7
370
    15
100
AcDbLine
 10
281.8223990047
 20
687.4605312444
 30
0.0
 11
273.8223990047
 21
687.4605312444
 31
0.0
  0
ARC
  5
322
330
1F
100
AcDbEntity
  8
0
  6
Continuous
 62
     7
370
    15
100
AcDbCircle
 10
281.8223990047
 20
657.4605312444
 30
0.0
 40
30.0
100
AcDbArc
 50
0.0
 51
90.0
  0
LINE
  5
323
330
1F
100
AcDbEntity
  8
0
  6
Continuous
 62
     7
370
    15
100
AcDbLine
 10
311.8223990047
 20
457.4605312444
 30
0.0
 11
311.8223990047
 21
657.4605312444
 31
0.0
  0
ARC
  5
324
330
1F
100
AcDbEntity
  8
0
  6
Continuous
 62
     7
370
    15
100
AcDbCircle
 10
281.8223990047
 20
457.4605312444
 30
0.0
 40
30.0
100
AcDbArc
 50
270.0
 51
0.0
  0
LINE
  5
325
330
1F
100
AcDbEntity
  8
0
  6
Continuous
 62
     7
370
    15
100
AcDbLine
 10
273.8223990047
 20
427.4605312444
 30
0.0
 11
281.8223990047
 21
427.4605312444
 31
0.0
  0
LINE
  5
326
330
1F
100
AcDbEntity
  8
0
  6
Continuous
 62
     7
370
    15
100
AcDbLine
 10
380.914758643
 20
196.3174796381
 30
0.0
 11
380.914758643
 21
199.1458988467
 31
0.0
  0
LINE
  5
327
330
1F
100
AcDbEntity
  8
0
  6
Continuous
 62
     7
370
    15
100
AcDbLine
 10
380.914758643
 20
199.1458988467
 30
0.0
 11
387.9858290161
 21
206.2169617691
 31
0.0
  0
ARC
  5
328
330
1F
100
AcDbEntity
  8
0
  6
Continuous
 62
     7
370
    15
100
AcDbCircle
 10
385.5109548336
 20
208.6918420237
 30
0.0
 40
3.499999999999868
100
AcDbArc
 50
315.0
 51
135.0
  0
LINE
  5
329
330
1F
100
AcDbEntity
  8
0
  6
Continuous
 62
     7
370
    15
100
AcDbLine
 10
383.0360805
 20
211.1667102852
 30
0.0
 11
378.793436786
 21
215.4093539992
 31
0.0
  0
ARC
  5
32A
330
1F
100
AcDbEntity
  8
0
  6
Continuous
 62
     7
370
    15
100
AcDbCircle
 10
376.3185666782
 20
217.8842301791
 30
0.0
 40
3.500000000000008
100
AcDbArc
 50
315.0
 51
135.0
  0
LINE
  5
32B
330
1F
100
AcDbEntity
  8
0
  6
Continuous
 62
     7
370
    15
100
AcDbLine
 10
366.7726178969
 20
213.2880395928
 30
0.0
 11
373.8436957205
 21
220.3591025153
 31
0.0
  0
LINE
  5
32C
330
1F
100
AcDbEntity
  8
0
  6
Continuous
 62
     7
370
    15
100
AcDbLine
 10
363.9441986884
 20
213.2880395928
 30
0.0
 11
366.7726178969
 21
213.2880395928
 31
0.0
  0
LINE
  5
32D
330
1F
100
AcDbEntity
  8
0
  6
Continuous
 62
     7
370
    15
100
AcDbLine
 10
352.6304920519
 20
224.6017462292
 30
0.0
 11
352.6304920519
 21
227.4301728883
 31
0.0
  0
LINE
  5
32E
330
1F
100
AcDbEntity
  8
0
  6
Continuous
 62
     7
370
    15
100
AcDbLine
 10
352.6304920519
 20
227.4301728883
 30
0.0
 11
359.7015549744
 21
234.5012432614
 31
0.0
  0
ARC
  5
32F
330
1F
100
AcDbEntity
  8
0
  6
Continuous
 62
     7
370
    15
100
AcDbCircle
 10
357.2266835862
 20
236.9761132711
 30
0.0
 40
3.499999999999928
100
AcDbArc
 50
315.0
 51
135.0
  0
LINE
  5
330
330
1F
100
AcDbEntity
  8
0
  6
Continuous
 62
     7
370
    15
100
AcDbLine
 10
354.7518064583
 20
239.4509843269
 30
0.0
 11
350.5091627444
 21
243.6936280408
 31
0.0
  0
ARC
  5
331
330
1F
100
AcDbEntity
  8
0
  6
Continuous
 62
     7
370
    15
100
AcDbCircle
 10
348.0342954307
 20
246.1685014266
 30
0.0
 40
3.500000000000028
100
AcDbArc
 50
315.0
 51
135.0
  0
LINE
  5
332
330
1F
100
AcDbEntity
  8
0
  6
Continuous
 62
     7
370
    15
100
AcDbLine
 10
338.4883513058
 20
241.5723061839
 30
0.0
 11
345.5594291295
 21
248.6433765569
 31
0.0
  0
LINE
  5
333
330
1F
100
AcDbEntity
  8
0
  6
Continuous
 62
     7
370
    15
100
AcDbLine
 10
335.6599320973
 20
241.5723061839
 30
0.0
 11
338.4883513058
 21
241.5723061839
 31
0.0
  0
LINE
  5
334
330
1F
100
AcDbEntity
  8
0
  6
Continuous
 62
     7
370
    15
100
AcDbLine
 10
324.3462254609
 20
252.8860128203
 30
0.0
 11
324.3462254609
 21
255.7144394794
 31
0.0
  0
LINE
  5
335
330
1F
100
AcDbEntity
  8
0
  6
Continuous
 62
     7
370
    15
100
AcDbLine
 10
324.3462254609
 20
255.7144394794
 30
0.0
 11
331.4172883833
 21
262.7855098525
 31
0.0
  0
ARC
  5
336
330
1F
100
AcDbEntity
  8
0
  6
Continuous
 62
     7
370
    15
100
AcDbCircle
 10
328.9424123387
 20
265.2603845186
 30
0.0
 40
3.499999999999908
100
AcDbArc
 50
315.0
 51
135.0
  0
LINE
  5
337
330
1F
100
AcDbEntity
  8
0
  6
Continuous
 62
     7
370
    15
100
AcDbLine
 10
326.4675398673
 20
267.7352583685
 30
0.0
 11
322.2248961533
 21
271.9779020825
 31
0.0
  0
ARC
  5
338
330
1F
100
AcDbEntity
  8
0
  6
Continuous
 62
     7
370
    15
100
AcDbCircle
 10
319.7500241833
 20
274.452772674
 30
0.0
 40
3.500000000000028
100
AcDbArc
 50
315.0
 51
135.0
  0
LINE
  5
339
330
1F
100
AcDbEntity
  8
0
  6
Continuous
 62
     7
370
    15
100
AcDbLine
 10
310.2040847147
 20
269.8565802255
 30
0.0
 11
317.2751476372
 21
276.927643148
 31
0.0
  0
LINE
  5
33A
330
1F
100
AcDbEntity
  8
0
  6
Continuous
 62
     7
370
    15
100
AcDbLine
 10
307.3756506051
 20
269.8565802255
 30
0.0
 11
310.2040847147
 21
269.8565802255
 31
0.0
  0
LINE
  5
33B
330
1F
100
AcDbEntity
  8
0
  6
Continuous
 62
     7
370
    15
100
AcDbLine
 10
296.0619439686
 20
281.1702868619
 30
0.0
 11
296.0619439686
 21
283.998713521
 31
0.0
  0
LINE
  5
33C
330
1F
100
AcDbEntity
  8
0
  6
Continuous
 62
     7
370
    15
100
AcDbLine
 10
296.0619439686
 20
283.998713521
 30
0.0
 11
303.1330217923
 21
291.0697838941
 31
0.0
  0
ARC
  5
33D
330
1F
100
AcDbEntity
  8
0
  6
Continuous
 62
     7
370
    15
100
AcDbCircle
 10
300.6581410912
 20
293.5446557661
 30
0.0
 40
3.499999999999908
100
AcDbArc
 50
315.0
 51
135.0
  0
LINE
  5
33E
330
1F
100
AcDbEntity
  8
0
  6
Continuous
 62
     7
370
    15
100
AcDbLine
 10
298.1832732762
 20
296.0195286849
 30
0.0
 11
293.9406295622
 21
300.2621686736
 31
0.0
  0
ARC
  5
33F
330
1F
100
AcDbEntity
  8
0
  6
Continuous
 62
     7
370
    15
100
AcDbCircle
 10
291.4657529358
 20
302.7370439215
 30
0.0
 40
3.499999999999988
100
AcDbArc
 50
315.0
 51
135.0
  0
LINE
  5
340
330
1F
100
AcDbEntity
  8
0
  6
Continuous
 62
     7
370
    15
100
AcDbLine
 10
281.9198181237
 20
298.1408505419
 30
0.0
 11
288.9908810461
 21
305.2119171896
 31
0.0
  0
LINE
  5
341
330
1F
100
AcDbEntity
  8
0
  6
Continuous
 62
     7
370
    15
100
AcDbLine
 10
279.091384014
 20
298.1408505419
 30
0.0
 11
281.9198181237
 21
298.1408505419
 31
0.0
  0
LINE
  5
342
330
1F
100
AcDbEntity
  8
0
  6
Continuous
 62
     7
370
    15
100
AcDbLine
 10
267.7776773776
 20
309.4545571783
 30
0.0
 11
267.7776773776
 21
312.2829838374
 31
0.0
  0
LINE
  5
343
330
1F
100
AcDbEntity
  8
0
  6
Continuous
 62
     7
370
    15
100
AcDbLine
 10
267.7776773776
 20
312.2829838374
 30
0.0
 11
274.8487403
 21
319.3540542105
 31
0.0
  0
ARC
  5
344
330
1F
100
AcDbEntity
  8
0
  6
Continuous
 62
     7
370
    15
100
AcDbCircle
 10
272.3738698438
 20
321.8289270135
 30
0.0
 40
3.499999999999988
100
AcDbArc
 50
315.0
 51
135.0
  0
LINE
  5
345
330
1F
100
AcDbEntity
  8
0
  6
Continuous
 62
     7
370
    15
100
AcDbLine
 10
269.8989917839
 20
324.3038008639
 30
0.0
 11
265.65634807
 21
328.5464408526
 31
0.0
  0
ARC
  5
346
330
1F
100
AcDbEntity
  8
0
  6
Continuous
 62
     7
370
    15
100
AcDbCircle
 10
263.1814816883
 20
331.0213151689
 30
0.0
 40
3.500000000000068
100
AcDbArc
 50
315.0
 51
135.0
  0
LINE
  5
347
330
1F
100
AcDbEntity
  8
0
  6
Continuous
 62
     7
370
    15
100
AcDbLine
 10
253.6355366314
 20
326.4251208582
 30
0.0
 11
260.7066144551
 21
333.4961893686
 31
0.0
  0
LINE
  5
348
330
1F
100
AcDbEntity
  8
0
  6
Continuous
 62
     7
370
    15
100
AcDbLine
 10
250.8071174229
 20
326.4251208582
 30
0.0
 11
253.6355366314
 21
326.4251208582
 31
0.0
  0
LINE
  5
349
330
1F
100
AcDbEntity
  8
0
  6
Continuous
 62
     7
370
    15
100
AcDbLine
 10
250.8071174229
 20
326.4251208582
 30
0.0
 11
229.5938988532
 21
347.6383245268
 31
0.0
  0
LINE
  5
34A
330
1F
100
AcDbEntity
  8
0
  6
Continuous
 62
     7
370
    15
100
AcDbLine
 10
229.5938988532
 20
347.6383245268
 30
0.0
 11
242.3218448962
 21
360.3662463555
 31
0.0
  0
LINE
  5
34B
330
1F
100
AcDbEntity
  8
0
  6
Continuous
 62
     7
370
    15
100
AcDbLine
 10
242.3218448962
 20
360.3662463555
 30
0.0
 11
245.1502641047
 21
360.3662463555
 31
0.0
  0
LINE
  5
34C
330
1F
100
AcDbEntity
  8
0
  6
Continuous
 62
     7
370
    15
100
AcDbLine
 10
245.1502641047
 20
360.3662463555
 30
0.0
 11
252.2213270272
 21
353.2951787764
 31
0.0
  0
ARC
  5
34D
330
1F
100
AcDbEntity
  8
0
  6
Continuous
 62
     7
370
    15
100
AcDbCircle
 10
254.6962003141
 20
355.7700525105
 30
0.0
 40
3.499999999999988
100
AcDbArc
 50
225.0
 51
45.0
  0
LINE
  5
34E
330
1F
100
AcDbEntity
  8
0
  6
Continuous
 62
     7
370
    15
100
AcDbLine
 10
261.4137192572
 20
362.4875672811
 30
0.0
 11
257.1710755433
 21
358.2449263611
 31
0.0
  0
ARC
  5
34F
330
1F
100
AcDbEntity
  8
0
  6
Continuous
 62
     7
370
    15
100
AcDbCircle
 10
263.8885884695
 20
364.9624406659
 30
0.0
 40
3.499999999999988
100
AcDbArc
 50
225.0
 51
45.0
  0
LINE
  5
350
330
1F
100
AcDbEntity
  8
0
  6
Continuous
 62
     7
370
    15
100
AcDbLine
 10
259.2923899496
 20
374.5083815136
 30
0.0
 11
266.3634677733
 21
367.4373148659
 31
0.0
  0
LINE
  5
351
330
1F
100
AcDbEntity
  8
0
  6
Continuous
 62
     7
370
    15
100
AcDbLine
 10
259.2923899496
 20
374.5083815136
 30
0.0
 11
259.2923899496
 21
377.3368100354
 31
0.0
  0
LINE
  5
352
330
1F
100
AcDbEntity
  8
0
  6
Continuous
 62
     7
370
    15
100
AcDbLine
 10
259.2923899496
 20
377.3368100354
 30
0.0
 11
270.6060965861
 21
388.6505185345
 31
0.0
  0
LINE
  5
353
330
1F
100
AcDbEntity
  8
0
  6
Continuous
 62
     7
370
    15
100
AcDbLine
 10
270.6060965861
 20
388.6505185345
 30
0.0
 11
273.4345306958
 21
388.6505185345
 31
0.0
  0
LINE
  5
354
330
1F
100
AcDbEntity
  8
0
  6
Continuous
 62
     7
370
    15
100
AcDbLine
 10
273.4345306958
 20
388.6505185345
 30
0.0
 11
280.5055936182
 21
381.5794481614
 31
0.0
  0
ARC
  5
355
330
1F
100
AcDbEntity
  8
0
  6
Continuous
 62
     7
370
    15
100
AcDbCircle
 10
282.9804715616
 20
384.0543237579
 30
0.0
 40
3.500000000000109
100
AcDbArc
 50
225.0
 51
45.0
  0
LINE
  5
356
330
1F
100
AcDbEntity
  8
0
  6
Continuous
 62
     7
370
    15
100
AcDbLine
 10
289.6979858483
 20
390.7718366661
 30
0.0
 11
285.4553421343
 21
386.5291966775
 31
0.0
  0
ARC
  5
357
330
1F
100
AcDbEntity
  8
0
  6
Continuous
 62
     7
370
    15
100
AcDbCircle
 10
292.172859717
 20
393.2467119134
 30
0.0
 40
3.499999999999988
100
AcDbArc
 50
225.0
 51
45.0
  0
LINE
  5
358
330
1F
100
AcDbEntity
  8
0
  6
Continuous
 62
     7
370
    15
100
AcDbLine
 10
287.5766714419
 20
402.79265183
 30
0.0
 11
287.5766714419
 21
405.6210822144
 31
0.0
  0
LINE
  5
359
330
1F
100
AcDbEntity
  8
0
  6
Continuous
 62
     7
370
    15
100
AcDbLine
 10
287.5766714419
 20
405.6210822144
 30
0.0
 11
298.8903780783
 21
416.9347888508
 31
0.0
  0
LINE
  5
35A
330
1F
100
AcDbEntity
  8
0
  6
Continuous
 62
     7
370
    15
100
AcDbLine
 10
298.8903780783
 20
416.9347888508
 30
0.0
 11
301.7187972868
 21
416.9347888508
 31
0.0
  0
LINE
  5
35B
330
1F
100
AcDbEntity
  8
0
  6
Continuous
 62
     7
370
    15
100
AcDbLine
 10
301.7187972868
 20
416.9347888508
 30
0.0
 11
308.7898751105
 21
409.8637222031
 31
0.0
  0
ARC
  5
35C
330
1F
100
AcDbEntity
  8
0
  6
Continuous
 62
     7
370
    15
100
AcDbCircle
 10
311.264742809
 20
412.3385950054
 30
0.0
 40
3.499999999999988
100
AcDbArc
 50
225.0
 51
45.0
  0
LINE
  5
35D
330
1F
100
AcDbEntity
  8
0
  6
Continuous
 62
     7
370
    15
100
AcDbLine
 10
317.9822524393
 20
419.0561107078
 30
0.0
 11
313.7396236266
 21
414.8134669939
 31
0.0
  0
ARC
  5
35E
330
1F
100
AcDbEntity
  8
0
  6
Continuous
 62
     7
370
    15
100
AcDbCircle
 10
320.4571309645
 20
421.5309831608
 30
0.0
 40
3.499999999999948
100
AcDbArc
 50
225.0
 51
45.0
  0
LINE
  5
35F
330
1F
100
AcDbEntity
  8
0
  6
Continuous
 62
     7
370
    15
100
AcDbLine
 10
315.860938033
 20
431.0769221464
 30
0.0
 11
322.9320009554
 21
424.0058592239
 31
0.0
  0
LINE
  5
360
330
1F
100
AcDbEntity
  8
0
  6
Continuous
 62
     7
370
    15
100
AcDbLine
 10
315.860938033
 20
431.0769221464
 30
0.0
 11
315.860938033
 21
433.9053488055
 31
0.0
  0
LINE
  5
361
330
1F
100
AcDbEntity
  8
0
  6
Continuous
 62
     7
370
    15
100
AcDbLine
 10
315.860938033
 20
433.9053488055
 30
0.0
 11
327.1746446694
 21
445.2190628925
 31
0.0
  0
LINE
  5
362
330
1F
100
AcDbEntity
  8
0
  6
Continuous
 62
     7
370
    15
100
AcDbLine
 10
327.1746446694
 20
445.2190628925
 30
0.0
 11
330.0030787791
 21
445.2190628925
 31
0.0
  0
LINE
  5
363
330
1F
100
AcDbEntity
  8
0
  6
Continuous
 62
     7
370
    15
100
AcDbLine
 10
330.0030787791
 20
445.2190628925
 30
0.0
 11
337.0741417015
 21
438.1479925194
 31
0.0
  0
ARC
  5
364
330
1F
100
AcDbEntity
  8
0
  6
Continuous
 62
     7
370
    15
100
AcDbCircle
 10
339.5490140565
 20
440.6228662529
 30
0.0
 40
3.500000000000068
100
AcDbArc
 50
225.0
 51
45.0
  0
LINE
  5
365
330
1F
100
AcDbEntity
  8
0
  6
Continuous
 62
     7
370
    15
100
AcDbLine
 10
346.2665339316
 20
447.3403772989
 30
0.0
 11
342.0238902176
 21
443.0977410355
 31
0.0
  0
ARC
  5
366
330
1F
100
AcDbEntity
  8
0
  6
Continuous
 62
     7
370
    15
100
AcDbCircle
 10
348.7414022119
 20
449.8152544083
 30
0.0
 40
3.500000000000109
100
AcDbArc
 50
225.0
 51
45.0
  0
LINE
  5
367
330
1F
100
AcDbEntity
  8
0
  6
Continuous
 62
     7
370
    15
100
AcDbLine
 10
344.145204624
 20
459.361196188
 30
0.0
 11
351.2162824477
 21
452.290125815
 31
0.0
  0
LINE
  5
368
330
1F
100
AcDbEntity
  8
0
  6
Continuous
 62
     7
370
    15
100
AcDbLine
 10
344.145204624
 20
459.361196188
 30
0.0
 11
344.145204624
 21
462.1896228471
 31
0.0
  0
LINE
  5
369
330
1F
100
AcDbEntity
  8
0
  6
Continuous
 62
     7
370
    15
100
AcDbLine
 10
344.145204624
 20
462.1896228471
 30
0.0
 11
355.4589112605
 21
473.5033369341
 31
0.0
  0
LINE
  5
36A
330
1F
100
AcDbEntity
  8
0
  6
Continuous
 62
     7
370
    15
100
AcDbLine
 10
355.4589112605
 20
473.5033369341
 30
0.0
 11
358.2873453701
 21
473.5033369341
 31
0.0
  0
LINE
  5
36B
330
1F
100
AcDbEntity
  8
0
  6
Continuous
 62
     7
370
    15
100
AcDbLine
 10
358.2873453701
 20
473.5033369341
 30
0.0
 11
365.3584082926
 21
466.4322665611
 31
0.0
  0
ARC
  5
36C
330
1F
100
AcDbEntity
  8
0
  6
Continuous
 62
     7
370
    15
100
AcDbCircle
 10
367.833285304
 20
468.9071375003
 30
0.0
 40
3.500000000000028
100
AcDbArc
 50
225.0
 51
45.0
  0
LINE
  5
36D
330
1F
100
AcDbEntity
  8
0
  6
Continuous
 62
     7
370
    15
100
AcDbLine
 10
374.5508005227
 20
475.6246513405
 30
0.0
 11
370.3081568087
 21
471.3820076266
 31
0.0
  0
ARC
  5
36E
330
1F
100
AcDbEntity
  8
0
  6
Continuous
 62
     7
370
    15
100
AcDbCircle
 10
377.0256734594
 20
478.0995256557
 30
0.0
 40
3.500000000000028
100
AcDbArc
 50
225.0
 51
45.0
  0
LINE
  5
36F
330
1F
100
AcDbEntity
  8
0
  6
Continuous
 62
     7
370
    15
100
AcDbLine
 10
372.4294861163
 20
487.6454627791
 30
0.0
 11
379.5005490387
 21
480.5743998566
 31
0.0
  0
LINE
  5
370
330
1F
100
AcDbEntity
  8
0
  6
Continuous
 62
     7
370
    15
100
AcDbLine
 10
372.4294861163
 20
487.6454627791
 30
0.0
 11
372.4294861163
 21
490.4738968888
 31
0.0
  0
LINE
  5
371
330
1F
100
AcDbEntity
  8
0
  6
Continuous
 62
     7
370
    15
100
AcDbLine
 10
372.4294861163
 20
490.4738968888
 30
0.0
 11
383.7431853021
 21
501.7876035252
 31
0.0
  0
LINE
  5
372
330
1F
100
AcDbEntity
  8
0
  6
Continuous
 62
     7
370
    15
100
AcDbLine
 10
383.7431853021
 20
501.7876035252
 30
0.0
 11
386.5716119612
 21
501.7876035252
 31
0.0
  0
LINE
  5
373
330
1F
100
AcDbEntity
  8
0
  6
Continuous
 62
     7
370
    15
100
AcDbLine
 10
386.5716119612
 20
501.7876035252
 30
0.0
 11
393.6426823343
 21
494.7165406027
 31
0.0
  0
ARC
  5
374
330
1F
100
AcDbEntity
  8
0
  6
Continuous
 62
     7
370
    15
100
AcDbCircle
 10
396.1175565514
 20
497.1914087478
 30
0.0
 40
3.499999999999988
100
AcDbArc
 50
225.0
 51
45.0
  0
LINE
  5
375
330
1F
100
AcDbEntity
  8
0
  6
Continuous
 62
     7
370
    15
100
AcDbLine
 10
402.8350745643
 20
503.9089179316
 30
0.0
 11
398.5924308504
 21
499.6662891188
 31
0.0
  0
ARC
  5
376
330
1F
100
AcDbEntity
  8
0
  6
Continuous
 62
     7
370
    15
100
AcDbCircle
 10
405.3099447068
 20
506.3837969032
 30
0.0
 40
3.500000000000028
100
AcDbArc
 50
225.0
 51
45.0
  0
LINE
  5
377
330
1F
100
AcDbEntity
  8
0
  6
Continuous
 62
     7
370
    15
100
AcDbLine
 10
400.7137527073
 20
515.9297442713
 30
0.0
 11
407.7848156298
 21
508.8586664477
 31
0.0
  0
LINE
  5
378
330
1F
100
AcDbEntity
  8
0
  6
Continuous
 62
     7
370
    15
100
AcDbLine
 10
400.7137527073
 20
515.9297442713
 30
0.0
 11
400.7137527073
 21
517.638326315
 31
0.0
  0
LINE
  5
379
330
1F
100
AcDbEntity
  8
0
  6
Continuous
 62
     7
370
    15
100
AcDbLine
 10
400.7137527073
 20
517.638326315
 30
0.0
 11
557.5939079131
 21
517.638326315
 31
0.0
  0
LINE
  5
37A
330
1F
100
AcDbEntity
  8
0
  6
Continuous
 62
     7
370
    15
100
AcDbLine
 10
559.5939082409
 20
515.6383222619
 30
0.0
 11
557.5939079131
 21
517.638326315
 31
0.0
  0
LINE
  5
37B
330
1F
100
AcDbEntity
  8
0
  6
Continuous
 62
     7
370
    15
100
AcDbLine
 10
559.5939082409
 20
515.6383222619
 30
0.0
 11
559.5939082409
 21
505.6383317986
 31
0.0
  0
ARC
  5
37C
330
1F
100
AcDbEntity
  8
0
  6
Continuous
 62
     7
370
    15
100
AcDbCircle
 10
562.843909582
 20
505.6383245268
 30
0.0
 40
3.25
100
AcDbArc
 50
180.0
 51
0.0
  0
LINE
  5
37D
330
1F
100
AcDbEntity
  8
0
  6
Continuous
 62
     7
370
    15
100
AcDbLine
 10
573.0939095224
 20
505.6383317986
 30
0.0
 11
566.0939102376
 21
505.6383317986
 31
0.0
  0
ARC
  5
37E
330
1F
100
AcDbEntity
  8
0
  6
Continuous
 62
     7
370
    15
100
AcDbCircle
 10
576.343909582
 20
505.6383245268
 30
0.0
 40
3.25
100
AcDbArc
 50
180.0
 51
0.0
  0
LINE
  5
37F
330
1F
100
AcDbEntity
  8
0
  6
Continuous
 62
     7
370
    15
100
AcDbLine
 10
579.5939077938
 20
515.6383222619
 30
0.0
 11
579.5939077938
 21
505.6383317986
 31
0.0
  0
LINE
  5
380
330
1F
100
AcDbEntity
  8
0
  6
Continuous
 62
     7
370
    15
100
AcDbLine
 10
579.5939077938
 20
515.6383222619
 30
0.0
 11
581.593911847
 21
517.638326315
 31
0.0
  0
LINE
  5
381
330
1F
100
AcDbEntity
  8
0
  6
Continuous
 62
     7
370
    15
100
AcDbLine
 10
581.593911847
 20
517.638326315
 30
0.0
 11
599.5939110721
 21
517.638326315
 31
0.0
  0
LINE
  5
382
330
1F
100
AcDbEntity
  8
0
  6
Continuous
 62
     7
370
    15
100
AcDbLine
 10
599.5939110721
 20
517.638326315
 30
0.0
 11
599.5939110721
 21
499.6383196392
 31
0.0
  0
LINE
  5
383
330
1F
100
AcDbEntity
  8
0
  6
Continuous
 62
     7
370
    15
100
AcDbLine
 10
599.5939110721
 20
499.6383196392
 30
0.0
 11
597.593907019
 21
497.6383304873
 31
0.0
  0
LINE
  5
384
330
1F
100
AcDbEntity
  8
0
  6
Continuous
 62
     7
370
    15
100
AcDbLine
 10
597.593907019
 20
497.6383304873
 30
0.0
 11
587.5939091052
 21
497.6383304873
 31
0.0
  0
ARC
  5
385
330
1F
100
AcDbEntity
  8
0
  6
Continuous
 62
     7
370
    15
100
AcDbCircle
 10
587.593909582
 20
494.3883245268
 30
0.0
 40
3.250000000000057
100
AcDbArc
 50
90.0
 51
270.0
  0
LINE
  5
386
330
1F
100
AcDbEntity
  8
0
  6
Continuous
 62
     7
370
    15
100
AcDbLine
 10
587.5939091052
 20
491.1383247652
 30
0.0
 11
587.5939091052
 21
484.1383254805
 31
0.0
  0
ARC
  5
387
330
1F
100
AcDbEntity
  8
0
  6
Continuous
 62
     7
370
    15
100
AcDbCircle
 10
587.593909582
 20
480.8883245268
 30
0.0
 40
3.25
100
AcDbArc
 50
90.0
 51
270.0
  0
LINE
  5
388
330
1F
100
AcDbEntity
  8
0
  6
Continuous
 62
     7
370
    15
100
AcDbLine
 10
597.593907019
 20
477.6383197585
 30
0.0
 11
587.5939091052
 21
477.6383197585
 31
0.0
  0
LINE
  5
389
330
1F
100
AcDbEntity
  8
0
  6
Continuous
 62
     7
370
    15
100
AcDbLine
 10
597.593907019
 20
477.6383197585
 30
0.0
 11
599.5939110721
 21
475.6383306065
 31
0.0
  0
LINE
  5
38A
330
1F
100
AcDbEntity
  8
0
  6
Continuous
 62
     7
370
    15
100
AcDbLine
 10
599.5939110721
 20
475.6383306065
 30
0.0
 11
599.5939110721
 21
459.6383279839
 31
0.0
  0
LINE
  5
38B
330
1F
100
AcDbEntity
  8
0
  6
Continuous
 62
     7
370
    15
100
AcDbLine
 10
599.5939110721
 20
459.6383279839
 30
0.0
 11
597.593907019
 21
457.6383239308
 31
0.0
  0
LINE
  5
38C
330
1F
100
AcDbEntity
  8
0
  6
Continuous
 62
     7
370
    15
100
AcDbLine
 10
597.593907019
 20
457.6383239308
 30
0.0
 11
587.5939091052
 21
457.6383239308
 31
0.0
  0
ARC
  5
38D
330
1F
100
AcDbEntity
  8
0
  6
Continuous
 62
     7
370
    15
100
AcDbCircle
 10
587.593909582
 20
454.3883245268
 30
0.0
 40
3.25
100
AcDbArc
 50
90.0
 51
270.0
  0
LINE
  5
38E
330
1F
100
AcDbEntity
  8
0
  6
Continuous
 62
     7
370
    15
100
AcDbLine
 10
587.5939091052
 20
451.1383256593
 30
0.0
 11
587.5939091052
 21
444.1383263746
 31
0.0
  0
ARC
  5
38F
330
1F
100
AcDbEntity
  8
0
  6
Continuous
 62
     7
370
    15
100
AcDbCircle
 10
587.593909582
 20
440.8883245268
 30
0.0
 40
3.250000000000057
100
AcDbArc
 50
90.0
 51
270.0
  0
LINE
  5
390
330
1F
100
AcDbEntity
  8
0
  6
Continuous
 62
     7
370
    15
100
AcDbLine
 10
597.593907019
 20
437.6383281031
 30
0.0
 11
587.5939091052
 21
437.6383281031
 31
0.0
  0
LINE
  5
391
330
1F
100
AcDbEntity
  8
0
  6
Continuous
 62
     7
370
    15
100
AcDbLine
 10
597.593907019
 20
437.6383281031
 30
0.0
 11
599.5939110721
 21
435.63832405
 31
0.0
  0
LINE
  5
392
330
1F
100
AcDbEntity
  8
0
  6
Continuous
 62
     7
370
    15
100
AcDbLine
 10
599.5939110721
 20
435.63832405
 30
0.0
 11
599.5939110721
 21
419.6383214274
 31
0.0
  0
LINE
  5
393
330
1F
100
AcDbEntity
  8
0
  6
Continuous
 62
     7
370
    15
100
AcDbLine
 10
599.5939110721
 20
419.6383214274
 30
0.0
 11
597.593907019
 21
417.6383248249
 31
0.0
  0
LINE
  5
394
330
1F
100
AcDbEntity
  8
0
  6
Continuous
 62
     7
370
    15
100
AcDbLine
 10
597.593907019
 20
417.6383248249
 30
0.0
 11
587.5939091052
 21
417.6383248249
 31
0.0
  0
ARC
  5
395
330
1F
100
AcDbEntity
  8
0
  6
Continuous
 62
     7
370
    15
100
AcDbCircle
 10
587.593909582
 20
414.3883245268
 30
0.0
 40
3.250000000000057
100
AcDbArc
 50
90.0
 51
270.0
  0
LINE
  5
396
330
1F
100
AcDbEntity
  8
0
  6
Continuous
 62
     7
370
    15
100
AcDbLine
 10
587.5939091052
 20
411.1383265534
 30
0.0
 11
587.5939091052
 21
404.1383235434
 31
0.0
  0
ARC
  5
397
330
1F
100
AcDbEntity
  8
0
  6
Continuous
 62
     7
370
    15
100
AcDbCircle
 10
587.593909582
 20
400.8883245268
 30
0.0
 40
3.250000000000057
100
AcDbArc
 50
90.0
 51
270.0
  0
LINE
  5
398
330
1F
100
AcDbEntity
  8
0
  6
Continuous
 62
     7
370
    15
100
AcDbLine
 10
597.593907019
 20
397.6383252719
 30
0.0
 11
587.5939091052
 21
397.6383252719
 31
0.0
  0
LINE
  5
399
330
1F
100
AcDbEntity
  8
0
  6
Continuous
 62
     7
370
    15
100
AcDbLine
 10
597.593907019
 20
397.6383252719
 30
0.0
 11
599.5939110721
 21
395.6383249441
 31
0.0
  0
LINE
  5
39A
330
1F
100
AcDbEntity
  8
0
  6
Continuous
 62
     7
370
    15
100
AcDbLine
 10
599.5939110721
 20
395.6383249441
 30
0.0
 11
599.5939110721
 21
379.6383260467
 31
0.0
  0
LINE
  5
39B
330
1F
100
AcDbEntity
  8
0
  6
Continuous
 62
     7
370
    15
100
AcDbLine
 10
599.5939110721
 20
379.6383260467
 30
0.0
 11
597.593907019
 21
377.6383238563
 31
0.0
  0
LINE
  5
39C
330
1F
100
AcDbEntity
  8
0
  6
Continuous
 62
     7
370
    15
100
AcDbLine
 10
597.593907019
 20
377.6383238563
 30
0.0
 11
587.5939091052
 21
377.6383238563
 31
0.0
  0
ARC
  5
39D
330
1F
100
AcDbEntity
  8
0
  6
Continuous
 62
     7
370
    15
100
AcDbCircle
 10
587.593909582
 20
374.3883245268
 30
0.0
 40
3.250000000000057
100
AcDbArc
 50
90.0
 51
270.0
  0
LINE
  5
39E
330
1F
100
AcDbEntity
  8
0
  6
Continuous
 62
     7
370
    15
100
AcDbLine
 10
587.5939091052
 20
371.1383237222
 30
0.0
 11
587.5939091052
 21
364.1383244374
 31
0.0
  0
ARC
  5
39F
330
1F
100
AcDbEntity
  8
0
  6
Continuous
 62
     7
370
    15
100
AcDbCircle
 10
587.593909582
 20
360.8883245268
 30
0.0
 40
3.25
100
AcDbArc
 50
90.0
 51
270.0
  0
LINE
  5
3A0
330
1F
100
AcDbEntity
  8
0
  6
Continuous
 62
     7
370
    15
100
AcDbLine
 10
597.593907019
 20
357.6383243033
 30
0.0
 11
587.5939091052
 21
357.6383243033
 31
0.0
  0
LINE
  5
3A1
330
1F
100
AcDbEntity
  8
0
  6
Continuous
 62
     7
370
    15
100
AcDbLine
 10
597.593907019
 20
357.6383243033
 30
0.0
 11
599.5939110721
 21
355.6383249068
 31
0.0
  0
LINE
  5
3A2
330
1F
100
AcDbEntity
  8
0
  6
Continuous
 62
     7
370
    15
100
AcDbLine
 10
599.5939110721
 20
355.6383249068
 30
0.0
 11
599.5939110721
 21
339.6383241468
 31
0.0
  0
LINE
  5
3A3
330
1F
100
AcDbEntity
  8
0
  6
Continuous
 62
     7
370
    15
100
AcDbLine
 10
599.5939110721
 20
339.6383241468
 30
0.0
 11
597.593907019
 21
337.6383247503
 31
0.0
  0
LINE
  5
3A4
330
1F
100
AcDbEntity
  8
0
  6
Continuous
 62
     7
370
    15
100
AcDbLine
 10
597.593907019
 20
337.6383247503
 30
0.0
 11
587.5939091052
 21
337.6383247503
 31
0.0
  0
ARC
  5
3A5
330
1F
100
AcDbEntity
  8
0
  6
Continuous
 62
     7
370
    15
100
AcDbCircle
 10
587.593909582
 20
334.3883245268
 30
0.0
 40
3.25
100
AcDbArc
 50
90.0
 51
270.0
  0
LINE
  5
3A6
330
1F
100
AcDbEntity
  8
0
  6
Continuous
 62
     7
370
    15
100
AcDbLine
 10
587.5939091052
 20
331.1383246162
 30
0.0
 11
587.5939091052
 21
324.1383253315
 31
0.0
  0
ARC
  5
3A7
330
1F
100
AcDbEntity
  8
0
  6
Continuous
 62
     7
370
    15
100
AcDbCircle
 10
587.593909582
 20
320.8883245268
 30
0.0
 40
3.25
100
AcDbArc
 50
90.0
 51
270.0
  0
LINE
  5
3A8
330
1F
100
AcDbEntity
  8
0
  6
Continuous
 62
     7
370
    15
100
AcDbLine
 10
597.593907019
 20
317.6383251974
 30
0.0
 11
587.5939091052
 21
317.6383251974
 31
0.0
  0
LINE
  5
3A9
330
1F
100
AcDbEntity
  8
0
  6
Continuous
 62
     7
370
    15
100
AcDbLine
 10
597.593907019
 20
317.6383251974
 30
0.0
 11
599.5939110721
 21
315.6383230069
 31
0.0
  0
LINE
  5
3AA
330
1F
100
AcDbEntity
  8
0
  6
Continuous
 62
     7
370
    15
100
AcDbLine
 10
599.5939110721
 20
315.6383230069
 30
0.0
 11
599.5939110721
 21
299.6383241096
 31
0.0
  0
LINE
  5
3AB
330
1F
100
AcDbEntity
  8
0
  6
Continuous
 62
     7
370
    15
100
AcDbLine
 10
599.5939110721
 20
299.6383241096
 30
0.0
 11
597.593907019
 21
297.6383237818
 31
0.0
  0
LINE
  5
3AC
330
1F
100
AcDbEntity
  8
0
  6
Continuous
 62
     7
370
    15
100
AcDbLine
 10
597.593907019
 20
297.6383237818
 30
0.0
 11
587.5939091052
 21
297.6383237818
 31
0.0
  0
ARC
  5
3AD
330
1F
100
AcDbEntity
  8
0
  6
Continuous
 62
     7
370
    15
100
AcDbCircle
 10
587.593909582
 20
294.3883245268
 30
0.0
 40
3.25
100
AcDbArc
 50
90.0
 51
270.0
  0
LINE
  5
3AE
330
1F
100
AcDbEntity
  8
0
  6
Continuous
 62
     7
370
    15
100
AcDbLine
 10
587.5939091052
 20
291.1383255103
 30
0.0
 11
587.5939091052
 21
284.1383225003
 31
0.0
  0
ARC
  5
3AF
330
1F
100
AcDbEntity
  8
0
  6
Continuous
 62
     7
370
    15
100
AcDbCircle
 10
587.593909582
 20
280.8883245268
 30
0.0
 40
3.250000000000057
100
AcDbArc
 50
90.0
 51
270.0
  0
LINE
  5
3B0
330
1F
100
AcDbEntity
  8
0
  6
Continuous
 62
     7
370
    15
100
AcDbLine
 10
597.593907019
 20
277.6383242288
 30
0.0
 11
587.5939091052
 21
277.6383242288
 31
0.0
  0
LINE
  5
3B1
330
1F
100
AcDbEntity
  8
0
  6
Continuous
 62
     7
370
    15
100
AcDbLine
 10
597.593907019
 20
277.6383242288
 30
0.0
 11
599.5939110721
 21
275.6383276263
 31
0.0
  0
LINE
  5
3B2
330
1F
100
AcDbEntity
  8
0
  6
Continuous
 62
     7
370
    15
100
AcDbLine
 10
599.5939110721
 20
275.6383276263
 30
0.0
 11
599.5939110721
 21
259.6383250037
 31
0.0
  0
LINE
  5
3B3
330
1F
100
AcDbEntity
  8
0
  6
Continuous
 62
     7
370
    15
100
AcDbLine
 10
599.5939110721
 20
259.6383250037
 30
0.0
 11
597.593907019
 21
257.6383209505
 31
0.0
  0
LINE
  5
3B4
330
1F
100
AcDbEntity
  8
0
  6
Continuous
 62
     7
370
    15
100
AcDbLine
 10
597.593907019
 20
257.6383209505
 30
0.0
 11
587.5939091052
 21
257.6383209505
 31
0.0
  0
ARC
  5
3B5
330
1F
100
AcDbEntity
  8
0
  6
Continuous
 62
     7
370
    15
100
AcDbCircle
 10
587.593909582
 20
254.3883245268
 30
0.0
 40
3.250000000000028
100
AcDbArc
 50
90.0
 51
270.0
  0
LINE
  5
3B6
330
1F
100
AcDbEntity
  8
0
  6
Continuous
 62
     7
370
    15
100
AcDbLine
 10
587.5939091052
 20
251.1383226791
 30
0.0
 11
587.5939091052
 21
244.1383233943
 31
0.0
  0
ARC
  5
3B7
330
1F
100
AcDbEntity
  8
0
  6
Continuous
 62
     7
370
    15
100
AcDbCircle
 10
587.593909582
 20
240.8883245268
 30
0.0
 40
3.25
100
AcDbArc
 50
90.0
 51
270.0
  0
LINE
  5
3B8
330
1F
100
AcDbEntity
  8
0
  6
Continuous
 62
     7
370
    15
100
AcDbLine
 10
597.593907019
 20
237.6383251229
 30
0.0
 11
587.5939091052
 21
237.6383251229
 31
0.0
  0
LINE
  5
3B9
330
1F
100
AcDbEntity
  8
0
  6
Continuous
 62
     7
370
    15
100
AcDbLine
 10
597.593907019
 20
237.6383251229
 30
0.0
 11
599.5939110721
 21
235.6383210698
 31
0.0
  0
LINE
  5
3BA
330
1F
100
AcDbEntity
  8
0
  6
Continuous
 62
     7
370
    15
100
AcDbLine
 10
599.5939110721
 20
235.6383210698
 30
0.0
 11
599.5939110721
 21
219.6383184472
 31
0.0
  0
LINE
  5
3BB
330
1F
100
AcDbEntity
  8
0
  6
Continuous
 62
     7
370
    15
100
AcDbLine
 10
599.5939110721
 20
219.6383184472
 30
0.0
 11
597.593907019
 21
217.6383292952
 31
0.0
  0
LINE
  5
3BC
330
1F
100
AcDbEntity
  8
0
  6
Continuous
 62
     7
370
    15
100
AcDbLine
 10
597.593907019
 20
217.6383292952
 30
0.0
 11
587.5939091052
 21
217.6383292952
 31
0.0
  0
ARC
  5
3BD
330
1F
100
AcDbEntity
  8
0
  6
Continuous
 62
     7
370
    15
100
AcDbCircle
 10
587.593909582
 20
214.3883245268
 30
0.0
 40
3.25
100
AcDbArc
 50
90.0
 51
270.0
  0
LINE
  5
3BE
330
1F
100
AcDbEntity
  8
0
  6
Continuous
 62
     7
370
    15
100
AcDbLine
 10
587.5939091052
 20
211.1383235732
 30
0.0
 11
587.5939091052
 21
204.1383242884
 31
0.0
  0
ARC
  5
3BF
330
1F
100
AcDbEntity
  8
0
  6
Continuous
 62
     7
370
    15
100
AcDbCircle
 10
587.593909582
 20
200.8883245268
 30
0.0
 40
3.25
100
AcDbArc
 50
90.0
 51
270.0
  0
LINE
  5
3C0
330
1F
100
AcDbEntity
  8
0
  6
Continuous
 62
     7
370
    15
100
AcDbLine
 10
597.593907019
 20
197.6383185664
 30
0.0
 11
587.5939091052
 21
197.6383185664
 31
0.0
  0
LINE
  5
3C1
330
1F
100
AcDbEntity
  8
0
  6
Continuous
 62
     7
370
    15
100
AcDbLine
 10
597.593907019
 20
197.6383185664
 30
0.0
 11
599.5939110721
 21
195.6383294144
 31
0.0
  0
LINE
  5
3C2
330
1F
100
AcDbEntity
  8
0
  6
Continuous
 62
     7
370
    15
100
AcDbLine
 10
599.5939110721
 20
195.6383294144
 30
0.0
 11
599.5939110721
 21
179.6383267918
 31
0.0
  0
LINE
  5
3C3
330
1F
100
AcDbEntity
  8
0
  6
Continuous
 62
     7
370
    15
100
AcDbLine
 10
599.5939110721
 20
179.6383267918
 30
0.0
 11
597.593907019
 21
177.6383227387
 31
0.0
  0
LINE
  5
3C4
330
1F
100
AcDbEntity
  8
0
  6
Continuous
 62
     7
370
    15
100
AcDbLine
 10
597.593907019
 20
177.6383227387
 30
0.0
 11
581.593911847
 21
177.6383227387
 31
0.0
  0
LINE
  5
3C5
330
1F
100
AcDbEntity
  8
0
  6
Continuous
 62
     7
370
    15
100
AcDbLine
 10
579.5939077938
 20
179.6383267918
 30
0.0
 11
581.593911847
 21
177.6383227387
 31
0.0
  0
LINE
  5
3C6
330
1F
100
AcDbEntity
  8
0
  6
Continuous
 62
     7
370
    15
100
AcDbLine
 10
579.5939077938
 20
179.6383267918
 30
0.0
 11
579.5939077938
 21
189.6383172551
 31
0.0
  0
ARC
  5
3C7
330
1F
100
AcDbEntity
  8
0
  6
Continuous
 62
     7
370
    15
100
AcDbCircle
 10
576.343909582
 20
189.6383245268
 30
0.0
 40
3.25
100
AcDbArc
 50
0.0
 51
180.0
  0
LINE
  5
3C8
330
1F
100
AcDbEntity
  8
0
  6
Continuous
 62
     7
370
    15
100
AcDbLine
 10
573.0939095224
 20
189.6383172551
 30
0.0
 11
566.0939102376
 21
189.6383172551
 31
0.0
  0
ARC
  5
3C9
330
1F
100
AcDbEntity
  8
0
  6
Continuous
 62
     7
370
    15
100
AcDbCircle
 10
562.843909582
 20
189.6383245268
 30
0.0
 40
3.25
100
AcDbArc
 50
0.0
 51
180.0
  0
LINE
  5
3CA
330
1F
100
AcDbEntity
  8
0
  6
Continuous
 62
     7
370
    15
100
AcDbLine
 10
559.5939082409
 20
179.6383267918
 30
0.0
 11
559.5939082409
 21
189.6383172551
 31
0.0
  0
LINE
  5
3CB
330
1F
100
AcDbEntity
  8
0
  6
Continuous
 62
     7
370
    15
100
AcDbLine
 10
559.5939082409
 20
179.6383267918
 30
0.0
 11
557.5939079131
 21
177.6383227387
 31
0.0
  0
LINE
  5
3CC
330
1F
100
AcDbEntity
  8
0
  6
Continuous
 62
     7
370
    15
100
AcDbLine
 10
415.9757306183
 20
177.6383227387
 30
0.0
 11
416.2701030577
 21
177.9326951781
 31
0.0
  0
ARC
  5
3CD
330
1F
100
AcDbEntity
  8
0
  6
Continuous
 62
     7
370
    15
100
AcDbCircle
 10
413.7952260811
 20
180.4075707762
 30
0.0
 40
3.499999999999968
100
AcDbArc
 50
315.0
 51
135.0
  0
LINE
  5
3CE
330
1F
100
AcDbEntity
  8
0
  6
Continuous
 62
     7
370
    15
100
AcDbLine
 10
411.3203545416
 20
182.8824436942
 30
0.0
 11
407.0777108277
 21
187.1250874081
 31
0.0
  0
ARC
  5
3CF
330
1F
100
AcDbEntity
  8
0
  6
Continuous
 62
     7
370
    15
100
AcDbCircle
 10
404.6028379257
 20
189.5999589316
 30
0.0
 40
3.500000000000028
100
AcDbArc
 50
315.0
 51
135.0
  0
LINE
  5
3D0
330
1F
100
AcDbEntity
  8
0
  6
Continuous
 62
     7
370
    15
100
AcDbLine
 10
395.0568993891
 20
185.0037581006
 30
0.0
 11
402.1279623116
 21
192.0748359242
 31
0.0
  0
LINE
  5
3D1
330
1F
100
AcDbEntity
  8
0
  6
Continuous
 62
     7
370
    15
100
AcDbLine
 10
392.22847273
 20
185.0037581006
 30
0.0
 11
395.0568993891
 21
185.0037581006
 31
0.0
  0
ARC
  5
3D2
330
1F
100
AcDbEntity
  8
0
  6
Continuous
 62
     7
370
    15
100
AcDbCircle
 10
471.7240317441
 20
377.6383245268
 30
0.0
 40
10.0
100
AcDbArc
 50
180.0
 51
270.0
  0
LINE
  5
3D3
330
1F
100
AcDbEntity
  8
0
  6
Continuous
 62
     7
370
    15
100
AcDbLine
 10
511.7240312825
 20
367.6383240798
 30
0.0
 11
471.7240312452
 21
367.6383240798
 31
0.0
  0
ARC
  5
3D4
330
1F
100
AcDbEntity
  8
0
  6
Continuous
 62
     7
370
    15
100
AcDbCircle
 10
511.7240317441
 20
377.6383245268
 30
0.0
 40
10.0
100
AcDbArc
 50
270.0
 51
0.0
  0
LINE
  5
3D5
330
1F
100
AcDbEntity
  8
0
  6
Continuous
 62
     7
370
    15
100
AcDbLine
 10
521.7240319903
 20
417.6383248249
 30
0.0
 11
521.7240319903
 21
377.6383238563
 31
0.0
  0
ARC
  5
3D6
330
1F
100
AcDbEntity
  8
0
  6
Continuous
 62
     7
370
    15
100
AcDbCircle
 10
511.7240317441
 20
417.6383245268
 30
0.0
 40
10.0
100
AcDbArc
 50
0.0
 51
90.0
  0
LINE
  5
3D7
330
1F
100
AcDbEntity
  8
0
  6
Continuous
 62
     7
370
    15
100
AcDbLine
 10
471.7240312452
 20
427.6383227387
 30
0.0
 11
511.7240312825
 21
427.6383227387
 31
0.0
  0
ARC
  5
3D8
330
1F
100
AcDbEntity
  8
0
  6
Continuous
 62
     7
370
    15
100
AcDbCircle
 10
471.7240317441
 20
417.6383245268
 30
0.0
 40
10.0
100
AcDbArc
 50
90.0
 51
180.0
  0
LINE
  5
3D9
330
1F
100
AcDbEntity
  8
0
  6
Continuous
 62
     7
370
    15
100
AcDbLine
 10
461.7240314687
 20
377.6383238563
 30
0.0
 11
461.7240314687
 21
417.6383248249
 31
0.0
  0
ARC
  5
3DA
330
1F
100
AcDbEntity
  8
0
  6
Continuous
 62
     7
370
    15
100
AcDbCircle
 10
471.7240317441
 20
277.6383245268
 30
0.0
 40
10.0
100
AcDbArc
 50
180.0
 51
270.0
  0
LINE
  5
3DB
330
1F
100
AcDbEntity
  8
0
  6
Continuous
 62
     7
370
    15
100
AcDbLine
 10
511.7240312825
 20
267.638326315
 30
0.0
 11
471.7240312452
 21
267.638326315
 31
0.0
  0
ARC
  5
3DC
330
1F
100
AcDbEntity
  8
0
  6
Continuous
 62
     7
370
    15
100
AcDbCircle
 10
511.7240317441
 20
277.6383245268
 30
0.0
 40
10.0
100
AcDbArc
 50
270.0
 51
0.0
  0
LINE
  5
3DD
330
1F
100
AcDbEntity
  8
0
  6
Continuous
 62
     7
370
    15
100
AcDbLine
 10
521.7240319903
 20
317.6383251974
 30
0.0
 11
521.7240319903
 21
277.6383242288
 31
0.0
  0
ARC
  5
3DE
330
1F
100
AcDbEntity
  8
0
  6
Continuous
 62
     7
370
    15
100
AcDbCircle
 10
511.7240317441
 20
317.6383245268
 30
0.0
 40
10.0
100
AcDbArc
 50
0.0
 51
90.0
  0
LINE
  5
3DF
330
1F
100
AcDbEntity
  8
0
  6
Continuous
 62
     7
370
    15
100
AcDbLine
 10
471.7240312452
 20
327.6383249739
 30
0.0
 11
511.7240312825
 21
327.6383249739
 31
0.0
  0
ARC
  5
3E0
330
1F
100
AcDbEntity
  8
0
  6
Continuous
 62
     7
370
    15
100
AcDbCircle
 10
471.7240317441
 20
317.6383245268
 30
0.0
 40
10.0
100
AcDbArc
 50
90.0
 51
180.0
  0
LINE
  5
3E1
330
1F
100
AcDbEntity
  8
0
  6
Continuous
 62
     7
370
    15
100
AcDbLine
 10
461.7240314687
 20
277.6383242288
 30
0.0
 11
461.7240314687
 21
317.6383251974
 31
0.0
  0
CIRCLE
  5
3E2
330
1F
100
AcDbEntity
  8
0
  6
Continuous
 62
     7
370
    15
100
AcDbCircle
 10
360.9700109951
 20
347.6383245268
 30
0.0
 40
40.00000000000006
  0
LINE
  5
3E3
330
1F
100
AcDbEntity
  8
0
  6
Continuous
 62
     7
370
    15
100
AcDbLine
 10
287.5766714419
 20
402.79265183
 30
0.0
 11
294.6477343644
 21
395.7215851822
 31
0.0
  0
LINE
  5
3E4
330
1F
100
AcDbEntity
  8
0
  6
Continuous
 62
     7
370
    15
100
AcDbLine
 10
279.091384014
 20
298.1408505419
 30
0.0
 11
267.7776773776
 21
309.4545571783
 31
0.0
  0
LINE
  5
3E5
330
1F
100
AcDbEntity
  8
0
  6
Continuous
 62
     7
370
    15
100
AcDbLine
 10
307.3756506051
 20
269.8565802255
 30
0.0
 11
296.0619439686
 21
281.1702868619
 31
0.0
  0
LINE
  5
3E6
330
1F
100
AcDbEntity
  8
0
  6
Continuous
 62
     7
370
    15
100
AcDbLine
 10
335.6599320973
 20
241.5723061839
 30
0.0
 11
324.3462254609
 21
252.8860128203
 31
0.0
  0
LINE
  5
3E7
330
1F
100
AcDbEntity
  8
0
  6
Continuous
 62
     7
370
    15
100
AcDbLine
 10
363.9441986884
 20
213.2880395928
 30
0.0
 11
352.6304920519
 21
224.6017462292
 31
0.0
  0
LINE
  5
3E8
330
1F
100
AcDbEntity
  8
0
  6
Continuous
 62
     7
370
    15
100
AcDbLine
 10
392.22847273
 20
185.0037581006
 30
0.0
 11
380.914758643
 21
196.3174796381
 31
0.0
  0
LINE
  5
3E9
330
1F
100
AcDbEntity
  8
0
  6
Continuous
 62
     7
370
    15
100
AcDbLine
 10
557.5939079131
 20
177.6383227387
 30
0.0
 11
415.9757306183
 21
177.6383227387
 31
0.0
  0
LINE
  5
3EA
330
1F
100
AcDbEntity
  8
0
  6
Continuous
 62
     7
370
    15
100
AcDbLine
 10
335.0810619195
 20
595.1945556786
 30
0.0
 11
337.0810510715
 21
593.1945553508
 31
0.0
  0
LINE
  5
3EB
330
1F
100
AcDbEntity
  8
0
  6
Continuous
 62
     7
370
    15
100
AcDbLine
 10
335.0810619195
 20
595.1945556786
 30
0.0
 11
335.0810619195
 21
611.1945548088
 31
0.0
  0
LINE
  5
3EC
330
1F
100
AcDbEntity
  8
0
  6
Continuous
 62
     7
370
    15
100
AcDbLine
 10
337.0810510715
 20
613.1945549038
 30
0.0
 11
335.0810619195
 21
611.1945548088
 31
0.0
  0
LINE
  5
3ED
330
1F
100
AcDbEntity
  8
0
  6
Continuous
 62
     7
370
    15
100
AcDbLine
 10
337.0810510715
 20
613.1945549038
 30
0.0
 11
345.0810598334
 21
613.1945549038
 31
0.0
  0
ARC
  5
3EE
330
1F
100
AcDbEntity
  8
0
  6
Continuous
 62
     7
370
    15
100
AcDbCircle
 10
345.0810571512
 20
616.4445549038
 30
0.0
 40
3.250000000000114
100
AcDbArc
 50
270.0
 51
90.0
  0
LINE
  5
3EF
330
1F
100
AcDbEntity
  8
0
  6
Continuous
 62
     7
370
    15
100
AcDbLine
 10
345.0810598334
 20
626.6945552539
 30
0.0
 11
345.0810598334
 21
619.6945550379
 31
0.0
  0
ARC
  5
3F0
330
1F
100
AcDbEntity
  8
0
  6
Continuous
 62
     7
370
    15
100
AcDbCircle
 10
345.0810571512
 20
629.9445549038
 30
0.0
 40
3.250000000000114
100
AcDbArc
 50
270.0
 51
90.0
  0
LINE
  5
3F1
330
1F
100
AcDbEntity
  8
0
  6
Continuous
 62
     7
370
    15
100
AcDbLine
 10
345.0810598334
 20
633.1945544567
 30
0.0
 11
353.0810536941
 21
633.1945544567
 31
0.0
  0
LINE
  5
3F2
330
1F
100
AcDbEntity
  8
0
  6
Continuous
 62
     7
370
    15
100
AcDbLine
 10
353.0810536941
 20
633.1945544567
 30
0.0
 11
355.0810577472
 21
631.1945541289
 31
0.0
  0
LINE
  5
3F3
330
1F
100
AcDbEntity
  8
0
  6
Continuous
 62
     7
370
    15
100
AcDbLine
 10
355.0810577472
 20
631.1945541289
 30
0.0
 11
355.0810577472
 21
621.1945552837
 31
0.0
  0
ARC
  5
3F4
330
1F
100
AcDbEntity
  8
0
  6
Continuous
 62
     7
370
    15
100
AcDbCircle
 10
358.3310571512
 20
621.1945549038
 30
0.0
 40
3.250000000000057
100
AcDbArc
 50
180.0
 51
0.0
  0
LINE
  5
3F5
330
1F
100
AcDbEntity
  8
0
  6
Continuous
 62
     7
370
    15
100
AcDbLine
 10
361.5810560187
 20
621.1945552837
 30
0.0
 11
368.5810553034
 21
621.1945552837
 31
0.0
  0
ARC
  5
3F6
330
1F
100
AcDbEntity
  8
0
  6
Continuous
 62
     7
370
    15
100
AcDbCircle
 10
371.8310571512
 20
621.1945549038
 30
0.0
 40
3.250000000000057
100
AcDbArc
 50
180.0
 51
0.0
  0
LINE
  5
3F7
330
1F
100
AcDbEntity
  8
0
  6
Continuous
 62
     7
370
    15
100
AcDbLine
 10
375.0810535749
 20
631.1945541289
 30
0.0
 11
375.0810535749
 21
621.1945552837
 31
0.0
  0
LINE
  5
3F8
330
1F
100
AcDbEntity
  8
0
  6
Continuous
 62
     7
370
    15
100
AcDbLine
 10
375.0810535749
 20
631.1945541289
 30
0.0
 11
377.081057628
 21
633.1945544567
 31
0.0
  0
LINE
  5
3F9
330
1F
100
AcDbEntity
  8
0
  6
Continuous
 62
     7
370
    15
100
AcDbLine
 10
377.081057628
 20
633.1945544567
 30
0.0
 11
393.0810602506
 21
633.1945544567
 31
0.0
  0
LINE
  5
3FA
330
1F
100
AcDbEntity
  8
0
  6
Continuous
 62
     7
370
    15
100
AcDbLine
 10
393.0810602506
 20
633.1945544567
 30
0.0
 11
395.0810568532
 21
631.1945541289
 31
0.0
  0
LINE
  5
3FB
330
1F
100
AcDbEntity
  8
0
  6
Continuous
 62
     7
370
    15
100
AcDbLine
 10
395.0810568532
 20
631.1945541289
 30
0.0
 11
395.0810568532
 21
621.1945552837
 31
0.0
  0
ARC
  5
3FC
330
1F
100
AcDbEntity
  8
0
  6
Continuous
 62
     7
370
    15
100
AcDbCircle
 10
398.3310571512
 20
621.1945549038
 30
0.0
 40
3.250000000000057
100
AcDbArc
 50
180.0
 51
0.0
  0
LINE
  5
3FD
330
1F
100
AcDbEntity
  8
0
  6
Continuous
 62
     7
370
    15
100
AcDbLine
 10
401.5810551246
 20
621.1945552837
 30
0.0
 11
408.5810581347
 21
621.1945552837
 31
0.0
  0
ARC
  5
3FE
330
1F
100
AcDbEntity
  8
0
  6
Continuous
 62
     7
370
    15
100
AcDbCircle
 10
411.8310571512
 20
621.1945549038
 30
0.0
 40
3.25
100
AcDbArc
 50
180.0
 51
0.0
  0
LINE
  5
3FF
330
1F
100
AcDbEntity
  8
0
  6
Continuous
 62
     7
370
    15
100
AcDbLine
 10
415.0810564061
 20
631.1945541289
 30
0.0
 11
415.0810564061
 21
621.1945552837
 31
0.0
  0
LINE
  5
400
330
1F
100
AcDbEntity
  8
0
  6
Continuous
 62
     7
370
    15
100
AcDbLine
 10
415.0810564061
 20
631.1945541289
 30
0.0
 11
417.0810567339
 21
633.1945544567
 31
0.0
  0
LINE
  5
401
330
1F
100
AcDbEntity
  8
0
  6
Continuous
 62
     7
370
    15
100
AcDbLine
 10
417.0810567339
 20
633.1945544567
 30
0.0
 11
433.0810556313
 21
633.1945544567
 31
0.0
  0
LINE
  5
402
330
1F
100
AcDbEntity
  8
0
  6
Continuous
 62
     7
370
    15
100
AcDbLine
 10
433.0810556313
 20
633.1945544567
 30
0.0
 11
435.0810578217
 21
631.1945541289
 31
0.0
  0
LINE
  5
403
330
1F
100
AcDbEntity
  8
0
  6
Continuous
 62
     7
370
    15
100
AcDbLine
 10
435.0810578217
 20
631.1945541289
 30
0.0
 11
435.0810578217
 21
621.1945552837
 31
0.0
  0
ARC
  5
404
330
1F
100
AcDbEntity
  8
0
  6
Continuous
 62
     7
370
    15
100
AcDbCircle
 10
438.3310571512
 20
621.1945549038
 30
0.0
 40
3.250000000000057
100
AcDbArc
 50
180.0
 51
0.0
  0
LINE
  5
405
330
1F
100
AcDbEntity
  8
0
  6
Continuous
 62
     7
370
    15
100
AcDbLine
 10
441.5810579558
 20
621.1945552837
 30
0.0
 11
448.5810572406
 21
621.1945552837
 31
0.0
  0
ARC
  5
406
330
1F
100
AcDbEntity
  8
0
  6
Continuous
 62
     7
370
    15
100
AcDbCircle
 10
451.8310571512
 20
621.1945549038
 30
0.0
 40
3.250000000000057
100
AcDbArc
 50
180.0
 51
0.0
  0
LINE
  5
407
330
1F
100
AcDbEntity
  8
0
  6
Continuous
 62
     7
370
    15
100
AcDbLine
 10
455.0810573747
 20
631.1945541289
 30
0.0
 11
455.0810573747
 21
621.1945552837
 31
0.0
  0
LINE
  5
408
330
1F
100
AcDbEntity
  8
0
  6
Continuous
 62
     7
370
    15
100
AcDbLine
 10
455.0810573747
 20
631.1945541289
 30
0.0
 11
457.0810567712
 21
633.1945544567
 31
0.0
  0
LINE
  5
409
330
1F
100
AcDbEntity
  8
0
  6
Continuous
 62
     7
370
    15
100
AcDbLine
 10
457.0810567712
 20
633.1945544567
 30
0.0
 11
473.0810575312
 21
633.1945544567
 31
0.0
  0
LINE
  5
40A
330
1F
100
AcDbEntity
  8
0
  6
Continuous
 62
     7
370
    15
100
AcDbLine
 10
473.0810575312
 20
633.1945544567
 30
0.0
 11
475.0810569277
 21
631.1945541289
 31
0.0
  0
LINE
  5
40B
330
1F
100
AcDbEntity
  8
0
  6
Continuous
 62
     7
370
    15
100
AcDbLine
 10
475.0810569277
 20
631.1945541289
 30
0.0
 11
475.0810569277
 21
621.1945552837
 31
0.0
  0
ARC
  5
40C
330
1F
100
AcDbEntity
  8
0
  6
Continuous
 62
     7
370
    15
100
AcDbCircle
 10
478.3310571512
 20
621.1945549038
 30
0.0
 40
3.25
100
AcDbArc
 50
180.0
 51
0.0
  0
ARC
  5
40D
330
1F
100
AcDbEntity
  8
0
  6
Continuous
 62
     7
370
    15
100
AcDbCircle
 10
491.8310571512
 20
621.1945549038
 30
0.0
 40
3.250000000000057
100
AcDbArc
 50
180.0
 51
0.0
  0
LINE
  5
40E
330
1F
100
AcDbEntity
  8
0
  6
Continuous
 62
     7
370
    15
100
AcDbLine
 10
495.0810564806
 20
631.1945541289
 30
0.0
 11
495.0810564806
 21
621.1945552837
 31
0.0
  0
LINE
  5
40F
330
1F
100
AcDbEntity
  8
0
  6
Continuous
 62
     7
370
    15
100
AcDbLine
 10
495.0810564806
 20
631.1945541289
 30
0.0
 11
497.0810586711
 21
633.1945544567
 31
0.0
  0
LINE
  5
410
330
1F
100
AcDbEntity
  8
0
  6
Continuous
 62
     7
370
    15
100
AcDbLine
 10
497.0810586711
 20
633.1945544567
 30
0.0
 11
513.0810575684
 21
633.1945544567
 31
0.0
  0
LINE
  5
411
330
1F
100
AcDbEntity
  8
0
  6
Continuous
 62
     7
370
    15
100
AcDbLine
 10
513.0810575684
 20
633.1945544567
 30
0.0
 11
515.0810578962
 21
631.1945541289
 31
0.0
  0
LINE
  5
412
330
1F
100
AcDbEntity
  8
0
  6
Continuous
 62
     7
370
    15
100
AcDbLine
 10
515.0810578962
 20
631.1945541289
 30
0.0
 11
515.0810578962
 21
621.1945552837
 31
0.0
  0
ARC
  5
413
330
1F
100
AcDbEntity
  8
0
  6
Continuous
 62
     7
370
    15
100
AcDbCircle
 10
518.3310571512
 20
621.1945549038
 30
0.0
 40
3.25
100
AcDbArc
 50
180.0
 51
0.0
  0
LINE
  5
414
330
1F
100
AcDbEntity
  8
0
  6
Continuous
 62
     7
370
    15
100
AcDbLine
 10
521.5810561677
 20
621.1945552837
 30
0.0
 11
528.5810591777
 21
621.1945552837
 31
0.0
  0
ARC
  5
415
330
1F
100
AcDbEntity
  8
0
  6
Continuous
 62
     7
370
    15
100
AcDbCircle
 10
531.8310571512
 20
621.1945549038
 30
0.0
 40
3.25
100
AcDbArc
 50
180.0
 51
0.0
  0
LINE
  5
416
330
1F
100
AcDbEntity
  8
0
  6
Continuous
 62
     7
370
    15
100
AcDbLine
 10
535.0810574492
 20
631.1945541289
 30
0.0
 11
535.0810574492
 21
621.1945552837
 31
0.0
  0
LINE
  5
417
330
1F
100
AcDbEntity
  8
0
  6
Continuous
 62
     7
370
    15
100
AcDbLine
 10
535.0810574492
 20
631.1945541289
 30
0.0
 11
537.0810540517
 21
633.1945544567
 31
0.0
  0
LINE
  5
418
330
1F
100
AcDbEntity
  8
0
  6
Continuous
 62
     7
370
    15
100
AcDbLine
 10
537.0810540517
 20
633.1945544567
 30
0.0
 11
553.0810566743
 21
633.1945544567
 31
0.0
  0
LINE
  5
419
330
1F
100
AcDbEntity
  8
0
  6
Continuous
 62
     7
370
    15
100
AcDbLine
 10
553.0810566743
 20
633.1945544567
 30
0.0
 11
555.0810607275
 21
631.1945541289
 31
0.0
  0
LINE
  5
41A
330
1F
100
AcDbEntity
  8
0
  6
Continuous
 62
     7
370
    15
100
AcDbLine
 10
555.0810607275
 20
631.1945541289
 30
0.0
 11
555.0810607275
 21
621.1945552837
 31
0.0
  0
ARC
  5
41B
330
1F
100
AcDbEntity
  8
0
  6
Continuous
 62
     7
370
    15
100
AcDbCircle
 10
558.3310571512
 20
621.1945549038
 30
0.0
 40
3.250000000000114
100
AcDbArc
 50
180.0
 51
0.0
  0
LINE
  5
41C
330
1F
100
AcDbEntity
  8
0
  6
Continuous
 62
     7
370
    15
100
AcDbLine
 10
561.5810589989
 20
621.1945552837
 30
0.0
 11
568.5810582837
 21
621.1945552837
 31
0.0
  0
ARC
  5
41D
330
1F
100
AcDbEntity
  8
0
  6
Continuous
 62
     7
370
    15
100
AcDbCircle
 10
571.8310571512
 20
621.1945549038
 30
0.0
 40
3.25
100
AcDbArc
 50
180.0
 51
0.0
  0
LINE
  5
41E
330
1F
100
AcDbEntity
  8
0
  6
Continuous
 62
     7
370
    15
100
AcDbLine
 10
575.0810565551
 20
631.1945541289
 30
0.0
 11
575.0810565551
 21
621.1945552837
 31
0.0
  0
LINE
  5
41F
330
1F
100
AcDbEntity
  8
0
  6
Continuous
 62
     7
370
    15
100
AcDbLine
 10
575.0810565551
 20
631.1945541289
 30
0.0
 11
577.0810606082
 21
633.1945544567
 31
0.0
  0
LINE
  5
420
330
1F
100
AcDbEntity
  8
0
  6
Continuous
 62
     7
370
    15
100
AcDbLine
 10
577.0810606082
 20
633.1945544567
 30
0.0
 11
585.081054469
 21
633.1945544567
 31
0.0
  0
ARC
  5
421
330
1F
100
AcDbEntity
  8
0
  6
Continuous
 62
     7
370
    15
100
AcDbCircle
 10
585.0810571512
 20
629.9445549038
 30
0.0
 40
3.250000000000114
100
AcDbArc
 50
90.0
 51
270.0
  0
LINE
  5
422
330
1F
100
AcDbEntity
  8
0
  6
Continuous
 62
     7
370
    15
100
AcDbLine
 10
585.081054469
 20
626.6945552539
 30
0.0
 11
585.081054469
 21
619.6945550379
 31
0.0
  0
ARC
  5
423
330
1F
100
AcDbEntity
  8
0
  6
Continuous
 62
     7
370
    15
100
AcDbCircle
 10
585.0810571512
 20
616.4445549038
 30
0.0
 40
3.250000000000114
100
AcDbArc
 50
90.0
 51
270.0
  0
LINE
  5
424
330
1F
100
AcDbEntity
  8
0
  6
Continuous
 62
     7
370
    15
100
AcDbLine
 10
593.0810632308
 20
613.1945549038
 30
0.0
 11
585.081054469
 21
613.1945549038
 31
0.0
  0
LINE
  5
425
330
1F
100
AcDbEntity
  8
0
  6
Continuous
 62
     7
370
    15
100
AcDbLine
 10
595.0810523828
 20
611.1945548088
 30
0.0
 11
593.0810632308
 21
613.1945549038
 31
0.0
  0
LINE
  5
426
330
1F
100
AcDbEntity
  8
0
  6
Continuous
 62
     7
370
    15
100
AcDbLine
 10
595.0810523828
 20
611.1945548088
 30
0.0
 11
595.0810523828
 21
595.1945556786
 31
0.0
  0
LINE
  5
427
330
1F
100
AcDbEntity
  8
0
  6
Continuous
 62
     7
370
    15
100
AcDbLine
 10
593.0810632308
 20
593.1945553508
 30
0.0
 11
595.0810523828
 21
595.1945556786
 31
0.0
  0
LINE
  5
428
330
1F
100
AcDbEntity
  8
0
  6
Continuous
 62
     7
370
    15
100
AcDbLine
 10
593.0810632308
 20
593.1945553508
 30
0.0
 11
337.0810510715
 21
593.1945553508
 31
0.0
  0
LINE
  5
429
330
1F
100
AcDbEntity
  8
0
  6
Continuous
 62
     7
370
    15
100
AcDbLine
 10
481.5810570618
 20
621.1945552837
 30
0.0
 11
488.5810563465
 21
621.1945552837
 31
0.0
  0
ENDSEC
  0
SECTION
  2
OBJECTS
  0
DICTIONARY
  5
C
330
0
100
AcDbDictionary
281
     1
  3
ACAD_GROUP
350
D
  3
ACAD_LAYOUT
350
1A
  3
ACAD_MLINESTYLE
350
17
  3
ACAD_PLOTSETTINGS
350
19
  3
ACAD_PLOTSTYLENAME
350
E
  0
DICTIONARY
  5
D
102
{ACAD_REACTORS
330
C
102
}
330
C
100
AcDbDictionary
281
     1
  0
DICTIONARY
  5
1A
102
{ACAD_REACTORS
330
C
102
}
330
C
100
AcDbDictionary
281
     1
  3
Layout1
350
1E
  3
Layout2
350
26
  3
Model
350
22
  0
DICTIONARY
  5
17
102
{ACAD_REACTORS
330
C
102
}
330
C
100
AcDbDictionary
281
     1
  3
Standard
350
18
  0
DICTIONARY
  5
19
102
{ACAD_REACTORS
330
C
102
}
330
C
100
AcDbDictionary
281
     1
  0
ACDBDICTIONARYWDFLT
  5
E
102
{ACAD_REACTORS
330
C
102
}
330
C
100
AcDbDictionary
281
     1
  3
Normal
350
F
100
AcDbDictionaryWithDefault
340
F
  0
LAYOUT
  5
1E
102
{ACAD_REACTORS
330
1A
102
}
330
1A
100
AcDbPlotSettings
  1

  2
none_device
  4

  6

 40
0.0
 41
0.0
 42
0.0
 43
0.0
 44
0.0
 45
0.0
 46
0.0
 47
0.0
 48
0.0
 49
0.0
140
0.0
141
0.0
142
1.0
143
1.0
 70
   688
 72
     0
 73
     0
 74
     5
  7

 75
    16
147
1.0
148
0.0
149
0.0
100
AcDbLayout
  1
Layout1
 70
     1
 71
     1
 10
0.0
 20
0.0
 11
420.0
 21
297.0
 12
0.0
 22
0.0
 32
0.0
 14
1.0000000000E+20
 24
1.0000000000E+20
 34
1.0000000000E+20
 15
-1.0000000000E+20
 25
-1.0000000000E+20
 35
-1.0000000000E+20
146
0.0
 13
0.0
 23
0.0
 33
0.0
 16
1.0
 26
0.0
 36
0.0
 17
0.0
 27
1.0
 37
0.0
 76
     0
330
1B
  0
LAYOUT
  5
26
102
{ACAD_REACTORS
330
1A
102
}
330
1A
100
AcDbPlotSettings
  1

  2
none_device
  4

  6

 40
0.0
 41
0.0
 42
0.0
 43
0.0
 44
0.0
 45
0.0
 46
0.0
 47
0.0
 48
0.0
 49
0.0
140
0.0
141
0.0
142
1.0
143
1.0
 70
   688
 72
     0
 73
     0
 74
     5
  7

 75
    16
147
1.0
148
0.0
149
0.0
100
AcDbLayout
  1
Layout2
 70
     1
 71
     2
 10
0.0
 20
0.0
 11
0.0
 21
0.0
 12
0.0
 22
0.0
 32
0.0
 14
0.0
 24
0.0
 34
0.0
 15
0.0
 25
0.0
 35
0.0
146
0.0
 13
0.0
 23
0.0
 33
0.0
 16
1.0
 26
0.0
 36
0.0
 17
0.0
 27
1.0
 37
0.0
 76
     0
330
23
  0
LAYOUT
  5
22
102
{ACAD_REACTORS
330
1A
102
}
330
1A
100
AcDbPlotSettings
  1

  2
none_device
  4

  6

 40
0.0
 41
0.0
 42
0.0
 43
0.0
 44
0.0
 45
0.0
 46
0.0
 47
0.0
 48
0.0
 49
0.0
140
0.0
141
0.0
142
1.0
143
1.0
 70
  1712
 72
     0
 73
     0
 74
     0
  7

 75
     0
147
1.0
148
0.0
149
0.0
100
AcDbLayout
  1
Model
 70
     1
 71
     0
 10
0.0
 20
0.0
 11
650.0
 21
1000.0
 12
0.0
 22
0.0
 32
0.0
 14
0.0
 24
0.0
 34
0.0
 15
650.0
 25
1000.0
 35
0.0
146
0.0
 13
0.0
 23
0.0
 33
0.0
 16
1.0
 26
0.0
 36
0.0
 17
0.0
 27
1.0
 37
0.0
 76
     0
330
1F
331
29
  0
MLINESTYLE
  5
18
102
{ACAD_REACTORS
330
17
102
}
330
17
100
AcDbMlineStyle
  2
Standard
 70
     0
  3

 62
   256
 51
90.0
 52
90.0
 71
     2
 49
0.5
 62
   256
  6
BYLAYER
 49
-0.5
 62
   256
  6
BYLAYER
  0
ACDBPLACEHOLDER
  5
F
102
{ACAD_REACTORS
330
E
102
}
330
E
  0
ENDSEC
  0
EOF
