  0
SECTION
  2
HEADER
  9
$ACADVER
  1
AC1014
  9
$HANDSEED
  5
FFFF
  9
$MEASUREMENT
 70
     1
  0
ENDSEC
  0
SECTION
  2
TABLES
  0
TABLE
  2
VPORT
  5
8
330
0
100
AcDbSymbolTable
 70
     4
  0
VPORT
  5
2E
330
8
100
AcDbSymbolTableRecord
100
AcDbViewportTableRecord
  2
*ACTIVE
 70
     0
 10
0.0
 20
0.0
 11
1.0
 21
1.0
 12
210.0
 22
148.5
 13
0.0
 23
0.0
 14
10.0
 24
10.0
 15
10.0
 25
10.0
 16
0.0
 26
0.0
 36
1.0
 17
0.0
 27
0.0
 37
0.0
 40
341.0
 41
1.24
 42
50.0
 43
0.0
 44
0.0
 50
0.0
 51
0.0
 71
     0
 72
   100
 73
     1
 74
     3
 75
     0
 76
     0
 77
     0
 78
     0
  0
ENDTAB
  0
TABLE
  2
LTYPE
  5
5
330
0
100
AcDbSymbolTable
 70
     1
  0
LTYPE
  5
14
330
5
100
AcDbSymbolTableRecord
100
AcDbLinetypeTableRecord
  2
BYBLOCK
 70
     0
  3

 72
    65
 73
     0
 40
0.0
  0
LTYPE
  5
15
330
5
100
AcDbSymbolTableRecord
100
AcDbLinetypeTableRecord
  2
BYLAYER
 70
     0
  3

 72
    65
 73
     0
 40
0.0
  0
LTYPE
  5
16
330
5
100
AcDbSymbolTableRecord
100
AcDbLinetypeTableRecord
  2
CONTINUOUS
 70
     0
  3
Solid line
 72
    65
 73
     0
 40
0.0
  0
ENDTAB
  0
TABLE
  2
LAYER
  5
2
100
AcDbSymbolTable
 70
2
  0
LAYER
  5
50
100
AcDbSymbolTableRecord
100
AcDbLayerTableRecord
  2
0
 70
0
  6
CONTINUOUS
  0
LAYER
  5
51
100
AcDbSymbolTableRecord
100
AcDbLayerTableRecord
  2
A0128_Printing
 70
0
  6
CONTINUOUS
  0
ENDTAB
  0
TABLE
  2
STYLE
  5
3
330
0
100
AcDbSymbolTable
 70
     1
  0
STYLE
  5
11
330
3
100
AcDbSymbolTableRecord
100
AcDbTextStyleTableRecord
  2
STANDARD
 70
     0
 40
0.0
 41
1.0
 50
0.0
 71
     0
 42
2.5
  3
txt
  4

  0
ENDTAB
  0
TABLE
  2
VIEW
  5
6
330
0
100
AcDbSymbolTable
 70
     0
  0
ENDTAB
  0
TABLE
  2
UCS
  5
7
330
0
100
AcDbSymbolTable
 70
     0
  0
ENDTAB
  0
TABLE
  2
APPID
  5
9
330
0
100
AcDbSymbolTable
 70
     2
  0
APPID
  5
12
330
9
100
AcDbSymbolTableRecord
100
AcDbRegAppTableRecord
  2
ACAD
 70
     0
  0
ENDTAB
  0
TABLE
  2
DIMSTYLE
  5
A
330
0
100
AcDbSymbolTable
 70
     1
  0
DIMSTYLE
105
27
330
A
100
AcDbSymbolTableRecord
100
AcDbDimStyleTableRecord
  2
ISO-25
 70
     0
  3

  4

  5

  6

  7

 40
1.0
 41
2.5
 42
0.625
 43
3.75
 44
1.25
 45
0.0
 46
0.0
 47
0.0
 48
0.0
140
2.5
141
2.5
142
0.0
143
0.03937007874016
144
1.0
145
0.0
146
1.0
147
0.625
 71
     0
 72
     0
 73
     0
 74
     0
 75
     0
 76
     0
 77
     1
 78
     8
170
     0
171
     3
172
     1
173
     0
174
     0
175
     0
176
     0
177
     0
178
     0
270
     2
271
     2
272
     2
273
     2
274
     3
340
11
275
     0
280
     0
281
     0
282
     0
283
     0
284
     8
285
     0
286
     0
287
     3
288
     0
  0
ENDTAB
  0
TABLE
  2
BLOCK_RECORD
  5
1
330
0
100
AcDbSymbolTable
 70
     1
  0
BLOCK_RECORD
  5
1F
330
1
100
AcDbSymbolTableRecord
100
AcDbBlockTableRecord
  2
*MODEL_SPACE
  0
BLOCK_RECORD
  5
1B
330
1
100
AcDbSymbolTableRecord
100
AcDbBlockTableRecord
  2
*PAPER_SPACE
  0
ENDTAB
  0
ENDSEC
  0
SECTION
  2
BLOCKS
  0
BLOCK
  5
20
330
1F
100
AcDbEntity
  8
0
100
AcDbBlockBegin
  2
*MODEL_SPACE
 70
     0
 10
0.0
 20
0.0
 30
0.0
  3
*MODEL_SPACE
  1

  0
ENDBLK
  5
21
330
1F
100
AcDbEntity
  8
0
100
AcDbBlockEnd
  0
BLOCK
  5
1C
330
1B
100
AcDbEntity
 67
     1
  8
0
100
AcDbBlockBegin
  2
*PAPER_SPACE
  1

  0
ENDBLK
  5
1D
330
1B
100
AcDbEntity
 67
     1
  8
0
100
AcDbBlockEnd
  0
ENDSEC
  0
SECTION
  2
ENTITIES
  0
LWPOLYLINE
  5
100
100
AcDbEntity
  8
A0128_Printing
 62
1
100
AcDbPolyline
 90
4
 70
1
 10
1925.810952
 20
841.766979
 30
0.0
 10
1869.117953
 20
841.766979
 30
0.0
 10
1869.117953
 20
855.939979
 30
0.0
 10
1925.810952
 20
855.939979
 30
0.0
  0
LWPOLYLINE
  5
101
100
AcDbEntity
  8
A0128_Printing
 62
1
100
AcDbPolyline
 90
4
 70
1
 10
1840.770954
 20
841.766979
 30
0.0
 10
1784.077955
 20
841.766979
 30
0.0
 10
1784.077955
 20
855.939979
 30
0.0
 10
1840.770954
 20
855.939979
 30
0.0
  0
LWPOLYLINE
  5
102
100
AcDbEntity
  8
A0128_Printing
 62
1
100
AcDbPolyline
 90
4
 70
1
 10
1755.731956
 20
841.766979
 30
0.0
 10
1699.038958
 20
841.766979
 30
0.0
 10
1699.038958
 20
855.939979
 30
0.0
 10
1755.731956
 20
855.939979
 30
0.0
  0
LWPOLYLINE
  5
103
100
AcDbEntity
  8
A0128_Printing
 62
1
100
AcDbPolyline
 90
52
 70
1
 10
1925.810952
 20
969.325976
 30
0.0
 10
1911.636952
 20
969.325976
 30
0.0
 10
1911.636952
 20
983.498975
 30
0.0
 10
1883.290953
 20
983.498975
 30
0.0
 10
1883.290953
 20
969.325976
 30
0.0
 10
1840.770954
 20
969.325976
 30
0.0
 10
1840.770954
 20
983.498975
 30
0.0
 10
1784.077955
 20
983.498975
 30
0.0
 10
1784.077955
 20
969.325976
 30
0.0
 10
1741.558956
 20
969.325976
 30
0.0
 10
1741.558956
 20
983.498975
 30
0.0
 10
1713.211957
 20
983.498975
 30
0.0
 10
1713.211957
 20
969.325976
 30
0.0
 10
1699.038958
 20
969.325976
 30
0.0
 10
1699.038958
 20
955.152976
 30
0.0
 10
1684.865958
 20
955.152976
 30
0.0
 10
1684.865958
 20
898.459978
 30
0.0
 10
1699.038958
 20
898.459978
 30
0.0
 10
1699.038958
 20
863.026978
 30
0.0
 10
1684.865958
 20
863.026978
 30
0.0
 10
1684.865958
 20
806.333980
 30
0.0
 10
1699.038958
 20
806.333980
 30
0.0
 10
1699.038958
 20
770.900981
 30
0.0
 10
1684.865958
 20
770.900981
 30
0.0
 10
1684.865958
 20
714.207982
 30
0.0
 10
1699.038958
 20
714.207982
 30
0.0
 10
1699.038958
 20
728.380982
 30
0.0
 10
1713.211957
 20
728.380982
 30
0.0
 10
1713.211957
 20
714.207982
 30
0.0
 10
1741.558956
 20
714.207982
 30
0.0
 10
1741.558956
 20
728.380982
 30
0.0
 10
1784.077955
 20
728.380982
 30
0.0
 10
1784.077955
 20
714.207982
 30
0.0
 10
1840.770954
 20
714.207982
 30
0.0
 10
1840.770954
 20
728.380982
 30
0.0
 10
1883.290953
 20
728.380982
 30
0.0
 10
1883.290953
 20
714.207982
 30
0.0
 10
1911.636952
 20
714.207982
 30
0.0
 10
1911.636952
 20
728.380982
 30
0.0
 10
1925.810952
 20
728.380982
 30
0.0
 10
1925.810952
 20
714.207982
 30
0.0
 10
1939.983952
 20
714.207982
 30
0.0
 10
1939.983952
 20
770.900981
 30
0.0
 10
1925.810952
 20
770.900981
 30
0.0
 10
1925.810952
 20
806.333980
 30
0.0
 10
1939.983952
 20
806.333980
 30
0.0
 10
1939.983952
 20
863.026978
 30
0.0
 10
1925.810952
 20
863.026978
 30
0.0
 10
1925.810952
 20
898.459978
 30
0.0
 10
1939.983952
 20
898.459978
 30
0.0
 10
1939.983952
 20
955.152976
 30
0.0
 10
1925.810952
 20
955.152976
 30
0.0
  0
LWPOLYLINE
  5
104
100
AcDbEntity
  8
A0128_Printing
 62
1
100
AcDbPolyline
 90
4
 70
1
 10
1047.070974
 20
756.726981
 30
0.0
 10
1032.897974
 20
756.726981
 30
0.0
 10
1032.897974
 20
813.419980
 30
0.0
 10
1047.070974
 20
813.419980
 30
0.0
  0
SPLINE
  5
105
100
AcDbEntity
  8
A0128_Printing
 62
1
100
AcDbSpline
 70
8
 71
3
 72
8
 73
4
 74
0
 40
0
 40
0
 40
0
 40
0
 40
1
 40
1
 40
1
 40
1
 10
905.904977
 20
848.529979
 30
0.0
 10
897.711978
 20
843.559979
 30
0.0
 10
889.452978
 20
842.196979
 30
0.0
 10
887.459978
 20
845.483979
 30
0.0
  0
SPLINE
  5
106
100
AcDbEntity
  8
A0128_Printing
 62
1
100
AcDbSpline
 70
8
 71
3
 72
8
 73
4
 74
0
 40
0
 40
0
 40
0
 40
0
 40
1
 40
1
 40
1
 40
1
 10
887.459978
 20
845.483979
 30
0.0
 10
886.431978
 20
847.177979
 30
0.0
 10
887.274978
 20
854.147979
 30
0.0
 10
889.449978
 20
859.421979
 30
0.0
  0
SPLINE
  5
107
100
AcDbEntity
  8
A0128_Printing
 62
1
100
AcDbSpline
 70
8
 71
3
 72
8
 73
4
 74
0
 40
0
 40
0
 40
0
 40
0
 40
1
 40
1
 40
1
 40
1
 10
889.449978
 20
859.421979
 30
0.0
 10
890.437978
 20
861.815978
 30
0.0
 10
888.707978
 20
864.443978
 30
0.0
 10
886.116978
 20
864.443978
 30
0.0
  0
LWPOLYLINE
  5
108
100
AcDbEntity
  8
A0128_Printing
 62
1
100
AcDbPolyline
 90
4
 70
1
 10
919.510977
 20
756.726981
 30
0.0
 10
905.337977
 20
756.726981
 30
0.0
 10
905.337977
 20
813.419980
 30
0.0
 10
919.510977
 20
813.419980
 30
0.0
  0
SPLINE
  5
109
100
AcDbEntity
  8
A0128_Printing
 62
1
100
AcDbSpline
 70
8
 71
3
 72
8
 73
4
 74
0
 40
0
 40
0
 40
0
 40
0
 40
1
 40
1
 40
1
 40
1
 10
882.332978
 20
864.443978
 30
0.0
 10
879.382978
 20
864.443978
 30
0.0
 10
876.991978
 20
862.051978
 30
0.0
 10
876.991978
 20
859.101979
 30
0.0
  0
LWPOLYLINE
  5
10a
100
AcDbEntity
  8
A0128_Printing
 62
1
100
AcDbPolyline
 90
2
 70
0
 10
886.116978
 20
864.443978
 30
0.0
 10
882.332978
 20
864.443978
 30
0.0
  0
SPLINE
  5
10b
100
AcDbEntity
  8
A0128_Printing
 62
1
100
AcDbSpline
 70
8
 71
3
 72
8
 73
4
 74
0
 40
0
 40
0
 40
0
 40
0
 40
1
 40
1
 40
1
 40
1
 10
1160.455971
 20
969.325976
 30
0.0
 10
1160.455971
 20
990.243975
 30
0.0
 10
1139.962972
 20
1005.013975
 30
0.0
 10
1120.117972
 20
998.399975
 30
0.0
  0
LWPOLYLINE
  5
10c
100
AcDbEntity
  8
A0128_Printing
 62
1
100
AcDbPolyline
 90
27
 70
0
 10
876.991978
 20
859.101979
 30
0.0
 10
876.991978
 20
714.207982
 30
0.0
 10
905.337977
 20
714.207982
 30
0.0
 10
905.337977
 20
728.380982
 30
0.0
 10
962.030976
 20
728.380982
 30
0.0
 10
962.030976
 20
714.207982
 30
0.0
 10
997.463975
 20
714.207982
 30
0.0
 10
997.463975
 20
728.380982
 30
0.0
 10
1054.156974
 20
728.380982
 30
0.0
 10
1054.156974
 20
714.207982
 30
0.0
 10
1089.589973
 20
714.207982
 30
0.0
 10
1089.589973
 20
728.380982
 30
0.0
 10
1146.282971
 20
728.380982
 30
0.0
 10
1146.282971
 20
714.207982
 30
0.0
 10
1174.628971
 20
714.207982
 30
0.0
 10
1174.628971
 20
728.380982
 30
0.0
 10
1160.455971
 20
728.380982
 30
0.0
 10
1160.455971
 20
785.073980
 30
0.0
 10
1174.628971
 20
785.073980
 30
0.0
 10
1174.628971
 20
820.506979
 30
0.0
 10
1160.455971
 20
820.506979
 30
0.0
 10
1160.455971
 20
877.199978
 30
0.0
 10
1174.628971
 20
877.199978
 30
0.0
 10
1174.628971
 20
912.632977
 30
0.0
 10
1160.455971
 20
912.632977
 30
0.0
 10
1160.455971
 20
969.325976
 30
0.0
 10
1160.455971
 20
969.325976
 30
0.0
  0
SPLINE
  5
10d
100
AcDbEntity
  8
A0128_Printing
 62
1
100
AcDbSpline
 70
8
 71
3
 72
8
 73
4
 74
0
 40
0
 40
0
 40
0
 40
0
 40
1
 40
1
 40
1
 40
1
 10
928.014977
 20
851.387979
 30
0.0
 10
928.014977
 20
853.820979
 30
0.0
 10
925.842977
 20
855.676979
 30
0.0
 10
923.440977
 20
855.291979
 30
0.0
  0
SPLINE
  5
10e
100
AcDbEntity
  8
A0128_Printing
 62
1
100
AcDbSpline
 70
8
 71
3
 72
8
 73
4
 74
0
 40
0
 40
0
 40
0
 40
0
 40
1
 40
1
 40
1
 40
1
 10
923.440977
 20
855.291979
 30
0.0
 10
919.035977
 20
854.585979
 30
0.0
 10
912.713977
 20
853.334979
 30
0.0
 10
910.419977
 20
851.687979
 30
0.0
  0
LWPOLYLINE
  5
10f
100
AcDbEntity
  8
A0128_Printing
 62
1
100
AcDbPolyline
 90
9
 70
0
 10
1120.117972
 20
998.399975
 30
0.0
 10
1032.896974
 20
969.325976
 30
0.0
 10
1032.897974
 20
933.892977
 30
0.0
 10
1047.070974
 20
933.892977
 30
0.0
 10
1047.070974
 20
877.199978
 30
0.0
 10
1032.897974
 20
877.199978
 30
0.0
 10
1032.896974
 20
841.766979
 30
0.0
 10
928.014977
 20
841.766979
 30
0.0
 10
928.014977
 20
851.387979
 30
0.0
  0
LWPOLYLINE
  5
110
100
AcDbEntity
  8
A0128_Printing
 62
1
100
AcDbPolyline
 90
2
 70
0
 10
910.419977
 20
851.687979
 30
0.0
 10
905.904977
 20
848.529979
 30
0.0
  0
LWPOLYLINE
  5
111
100
AcDbEntity
  8
A0128_Printing
 62
1
100
AcDbPolyline
 90
4
 70
1
 10
1004.548975
 20
1098.557973
 30
0.0
 10
1018.721975
 20
1098.557973
 30
0.0
 10
1018.721975
 20
1041.864974
 30
0.0
 10
1004.548975
 20
1041.864974
 30
0.0
  0
SPLINE
  5
112
100
AcDbEntity
  8
A0128_Printing
 62
1
100
AcDbSpline
 70
8
 71
3
 72
8
 73
4
 74
0
 40
0
 40
0
 40
0
 40
0
 40
1
 40
1
 40
1
 40
1
 10
1145.715971
 20
1006.754975
 30
0.0
 10
1153.908971
 20
1011.723975
 30
0.0
 10
1162.167971
 20
1013.087975
 30
0.0
 10
1164.160971
 20
1009.799975
 30
0.0
  0
SPLINE
  5
113
100
AcDbEntity
  8
A0128_Printing
 62
1
100
AcDbSpline
 70
8
 71
3
 72
8
 73
4
 74
0
 40
0
 40
0
 40
0
 40
0
 40
1
 40
1
 40
1
 40
1
 10
1164.160971
 20
1009.799975
 30
0.0
 10
1165.187971
 20
1008.106975
 30
0.0
 10
1164.345971
 20
1001.136975
 30
0.0
 10
1162.170971
 20
995.862975
 30
0.0
  0
SPLINE
  5
114
100
AcDbEntity
  8
A0128_Printing
 62
1
100
AcDbSpline
 70
8
 71
3
 72
8
 73
4
 74
0
 40
0
 40
0
 40
0
 40
0
 40
1
 40
1
 40
1
 40
1
 10
1162.170971
 20
995.862975
 30
0.0
 10
1161.182971
 20
993.467975
 30
0.0
 10
1162.912971
 20
990.840975
 30
0.0
 10
1165.503971
 20
990.840975
 30
0.0
  0
LWPOLYLINE
  5
115
100
AcDbEntity
  8
A0128_Printing
 62
1
100
AcDbPolyline
 90
4
 70
1
 10
1132.109972
 20
1098.557973
 30
0.0
 10
1146.282971
 20
1098.557973
 30
0.0
 10
1146.282971
 20
1041.864974
 30
0.0
 10
1132.109972
 20
1041.864974
 30
0.0
  0
SPLINE
  5
116
100
AcDbEntity
  8
A0128_Printing
 62
1
100
AcDbSpline
 70
8
 71
3
 72
8
 73
4
 74
0
 40
0
 40
0
 40
0
 40
0
 40
1
 40
1
 40
1
 40
1
 10
1169.287971
 20
990.840975
 30
0.0
 10
1172.237971
 20
990.840975
 30
0.0
 10
1174.628971
 20
993.231975
 30
0.0
 10
1174.628971
 20
996.181975
 30
0.0
  0
LWPOLYLINE
  5
117
100
AcDbEntity
  8
A0128_Printing
 62
1
100
AcDbPolyline
 90
2
 70
0
 10
1165.503971
 20
990.840975
 30
0.0
 10
1169.287971
 20
990.840975
 30
0.0
  0
SPLINE
  5
118
100
AcDbEntity
  8
A0128_Printing
 62
1
100
AcDbSpline
 70
8
 71
3
 72
8
 73
4
 74
0
 40
0
 40
0
 40
0
 40
0
 40
1
 40
1
 40
1
 40
1
 10
891.164978
 20
885.958978
 30
0.0
 10
891.164978
 20
865.040978
 30
0.0
 10
911.657977
 20
850.269979
 30
0.0
 10
931.502977
 20
856.884979
 30
0.0
  0
LWPOLYLINE
  5
119
100
AcDbEntity
  8
A0128_Printing
 62
1
100
AcDbPolyline
 90
27
 70
0
 10
1174.628971
 20
996.181975
 30
0.0
 10
1174.628971
 20
1141.076971
 30
0.0
 10
1146.282971
 20
1141.076971
 30
0.0
 10
1146.282971
 20
1126.903972
 30
0.0
 10
1089.589973
 20
1126.903972
 30
0.0
 10
1089.589973
 20
1141.076971
 30
0.0
 10
1054.156974
 20
1141.076971
 30
0.0
 10
1054.156974
 20
1126.903972
 30
0.0
 10
997.463975
 20
1126.903972
 30
0.0
 10
997.463975
 20
1141.076971
 30
0.0
 10
962.030976
 20
1141.076971
 30
0.0
 10
962.030976
 20
1126.903972
 30
0.0
 10
905.337977
 20
1126.903972
 30
0.0
 10
905.337977
 20
1141.076971
 30
0.0
 10
876.991978
 20
1141.076971
 30
0.0
 10
876.991978
 20
1126.903972
 30
0.0
 10
891.164978
 20
1126.903972
 30
0.0
 10
891.164978
 20
1070.210973
 30
0.0
 10
876.991978
 20
1070.210973
 30
0.0
 10
876.991978
 20
1034.777974
 30
0.0
 10
891.164978
 20
1034.777974
 30
0.0
 10
891.164978
 20
978.084976
 30
0.0
 10
876.991978
 20
978.084976
 30
0.0
 10
876.991978
 20
942.651976
 30
0.0
 10
891.164978
 20
942.651976
 30
0.0
 10
891.164978
 20
885.958978
 30
0.0
 10
891.164978
 20
885.958978
 30
0.0
  0
SPLINE
  5
11a
100
AcDbEntity
  8
A0128_Printing
 62
1
100
AcDbSpline
 70
8
 71
3
 72
8
 73
4
 74
0
 40
0
 40
0
 40
0
 40
0
 40
1
 40
1
 40
1
 40
1
 10
1123.605972
 20
1003.896975
 30
0.0
 10
1123.605972
 20
1001.463975
 30
0.0
 10
1125.777972
 20
999.607975
 30
0.0
 10
1128.179972
 20
999.992975
 30
0.0
  0
SPLINE
  5
11b
100
AcDbEntity
  8
A0128_Printing
 62
1
100
AcDbSpline
 70
8
 71
3
 72
8
 73
4
 74
0
 40
0
 40
0
 40
0
 40
0
 40
1
 40
1
 40
1
 40
1
 10
1128.179972
 20
999.992975
 30
0.0
 10
1132.584972
 20
1000.697975
 30
0.0
 10
1138.906972
 20
1001.949975
 30
0.0
 10
1141.200971
 20
1003.596975
 30
0.0
  0
LWPOLYLINE
  5
11c
100
AcDbEntity
  8
A0128_Printing
 62
1
100
AcDbPolyline
 90
9
 70
0
 10
931.502977
 20
856.884979
 30
0.0
 10
1018.723975
 20
885.958978
 30
0.0
 10
1018.723975
 20
921.391977
 30
0.0
 10
1004.549975
 20
921.391977
 30
0.0
 10
1004.549975
 20
978.084976
 30
0.0
 10
1018.723975
 20
978.084976
 30
0.0
 10
1018.723975
 20
1013.517975
 30
0.0
 10
1123.605972
 20
1013.517975
 30
0.0
 10
1123.605972
 20
1003.896975
 30
0.0
  0
LWPOLYLINE
  5
11d
100
AcDbEntity
  8
A0128_Printing
 62
1
100
AcDbPolyline
 90
2
 70
0
 10
1141.200971
 20
1003.596975
 30
0.0
 10
1145.715971
 20
1006.754975
 30
0.0
  0
SPLINE
  5
11e
100
AcDbEntity
  8
A0128_Printing
 62
1
100
AcDbSpline
 70
8
 71
3
 72
8
 73
4
 74
0
 40
0
 40
0
 40
0
 40
0
 40
1
 40
1
 40
1
 40
1
 10
1613.999560
 20
969.325776
 30
0.0
 10
1613.999560
 20
945.842776
 30
0.0
 10
1594.962560
 20
926.805777
 30
0.0
 10
1571.479561
 20
926.805777
 30
0.0
  0
LWPOLYLINE
  5
11f
100
AcDbEntity
  8
A0128_Printing
 62
1
100
AcDbPolyline
 90
6
 70
0
 10
1684.865558
 20
877.199778
 30
0.0
 10
1684.865558
 20
933.892777
 30
0.0
 10
1670.692558
 20
933.892777
 30
0.0
 10
1670.692558
 20
969.325776
 30
0.0
 10
1613.999560
 20
969.325776
 30
0.0
 10
1613.999560
 20
969.325776
 30
0.0
  0
SPLINE
  5
120
100
AcDbEntity
  8
A0128_Printing
 62
1
100
AcDbSpline
 70
8
 71
3
 72
8
 73
4
 74
0
 40
0
 40
0
 40
0
 40
0
 40
1
 40
1
 40
1
 40
1
 10
1571.479561
 20
912.632777
 30
0.0
 10
1571.479561
 20
904.804777
 30
0.0
 10
1565.134561
 20
898.459778
 30
0.0
 10
1557.306561
 20
898.459778
 30
0.0
  0
SPLINE
  5
121
100
AcDbEntity
  8
A0128_Printing
 62
1
100
AcDbSpline
 70
8
 71
3
 72
8
 73
4
 74
0
 40
0
 40
0
 40
0
 40
0
 40
1
 40
1
 40
1
 40
1
 10
1557.306561
 20
898.459778
 30
0.0
 10
1549.478561
 20
898.459778
 30
0.0
 10
1543.133561
 20
904.804777
 30
0.0
 10
1543.133561
 20
912.632777
 30
0.0
  0
LWPOLYLINE
  5
122
100
AcDbEntity
  8
A0128_Printing
 62
1
100
AcDbPolyline
 90
3
 70
0
 10
1571.479561
 20
926.805777
 30
0.0
 10
1571.479561
 20
926.805777
 30
0.0
 10
1571.479561
 20
912.632777
 30
0.0
  0
SPLINE
  5
123
100
AcDbEntity
  8
A0128_Printing
 62
1
100
AcDbSpline
 70
8
 71
3
 72
8
 73
4
 74
0
 40
0
 40
0
 40
0
 40
0
 40
1
 40
1
 40
1
 40
1
 10
1543.133561
 20
926.805777
 30
0.0
 10
1519.650562
 20
926.805777
 30
0.0
 10
1500.613562
 20
945.842776
 30
0.0
 10
1500.613562
 20
969.325776
 30
0.0
  0
LWPOLYLINE
  5
124
100
AcDbEntity
  8
A0128_Printing
 62
1
100
AcDbPolyline
 90
2
 70
0
 10
1543.133561
 20
912.632777
 30
0.0
 10
1543.133561
 20
926.805777
 30
0.0
  0
LWPOLYLINE
  5
125
100
AcDbEntity
  8
A0128_Printing
 62
1
100
AcDbPolyline
 90
27
 70
0
 10
1500.613562
 20
969.325776
 30
0.0
 10
1500.613562
 20
969.325776
 30
0.0
 10
1443.920564
 20
969.325776
 30
0.0
 10
1443.920564
 20
933.892777
 30
0.0
 10
1429.747564
 20
933.892777
 30
0.0
 10
1429.747564
 20
877.199778
 30
0.0
 10
1443.920564
 20
877.199778
 30
0.0
 10
1443.920564
 20
813.419780
 30
0.0
 10
1429.747564
 20
813.419780
 30
0.0
 10
1429.747564
 20
756.727781
 30
0.0
 10
1443.920564
 20
756.727781
 30
0.0
 10
1443.920564
 20
714.207782
 30
0.0
 10
1500.613562
 20
714.207782
 30
0.0
 10
1500.613562
 20
728.380782
 30
0.0
 10
1528.959562
 20
728.380782
 30
0.0
 10
1528.959562
 20
714.207782
 30
0.0
 10
1585.652560
 20
714.207782
 30
0.0
 10
1585.652560
 20
728.380782
 30
0.0
 10
1613.999560
 20
728.380782
 30
0.0
 10
1613.999560
 20
714.207782
 30
0.0
 10
1670.692558
 20
714.207782
 30
0.0
 10
1670.692558
 20
756.727781
 30
0.0
 10
1684.865558
 20
756.727781
 30
0.0
 10
1684.865558
 20
813.419780
 30
0.0
 10
1670.692558
 20
813.419780
 30
0.0
 10
1670.692558
 20
877.199778
 30
0.0
 10
1684.865558
 20
877.199778
 30
0.0
  0
SPLINE
  5
126
100
AcDbEntity
  8
A0128_Printing
 62
1
100
AcDbSpline
 70
8
 71
3
 72
8
 73
4
 74
0
 40
0
 40
0
 40
0
 40
0
 40
1
 40
1
 40
1
 40
1
 10
1302.188467
 20
985.822575
 30
0.0
 10
1294.360468
 20
985.822575
 30
0.0
 10
1288.015468
 20
992.168575
 30
0.0
 10
1288.015468
 20
999.995575
 30
0.0
  0
SPLINE
  5
127
100
AcDbEntity
  8
A0128_Printing
 62
1
100
AcDbSpline
 70
8
 71
3
 72
8
 73
4
 74
0
 40
0
 40
0
 40
0
 40
0
 40
1
 40
1
 40
1
 40
1
 10
1288.015468
 20
999.995575
 30
0.0
 10
1288.015468
 20
1007.823575
 30
0.0
 10
1294.360468
 20
1014.168575
 30
0.0
 10
1302.188467
 20
1014.168575
 30
0.0
  0
LWPOLYLINE
  5
128
100
AcDbEntity
  8
A0128_Printing
 62
1
100
AcDbPolyline
 90
1
 70
1
 10
1302.188467
 20
985.822575
 30
0.0
  0
SPLINE
  5
129
100
AcDbEntity
  8
A0128_Printing
 62
1
100
AcDbSpline
 70
8
 71
3
 72
8
 73
4
 74
0
 40
0
 40
0
 40
0
 40
0
 40
1
 40
1
 40
1
 40
1
 10
1302.188467
 20
1014.168575
 30
0.0
 10
1310.016467
 20
1014.168575
 30
0.0
 10
1316.361467
 20
1007.823575
 30
0.0
 10
1316.361467
 20
999.995575
 30
0.0
  0
SPLINE
  5
12a
100
AcDbEntity
  8
A0128_Printing
 62
1
100
AcDbSpline
 70
8
 71
3
 72
8
 73
4
 74
0
 40
0
 40
0
 40
0
 40
0
 40
1
 40
1
 40
1
 40
1
 10
1316.361467
 20
999.995575
 30
0.0
 10
1316.361467
 20
992.168575
 30
0.0
 10
1310.016467
 20
985.822575
 30
0.0
 10
1302.188467
 20
985.822575
 30
0.0
  0
LWPOLYLINE
  5
12b
100
AcDbEntity
  8
A0128_Printing
 62
1
100
AcDbPolyline
 90
1
 70
1
 10
1302.188467
 20
1014.168575
 30
0.0
  0
LWPOLYLINE
  5
12c
100
AcDbEntity
  8
A0128_Printing
 62
1
100
AcDbPolyline
 90
1
 70
1
 10
1302.188467
 20
985.822575
 30
0.0
  0
SPLINE
  5
12d
100
AcDbEntity
  8
A0128_Printing
 62
1
100
AcDbSpline
 70
8
 71
3
 72
8
 73
4
 74
0
 40
0
 40
0
 40
0
 40
0
 40
1
 40
1
 40
1
 40
1
 10
1358.881466
 20
999.975575
 30
0.0
 10
1358.881466
 20
1023.457574
 30
0.0
 10
1339.844467
 20
1042.494574
 30
0.0
 10
1316.361467
 20
1042.494574
 30
0.0
  0
LWPOLYLINE
  5
12e
100
AcDbEntity
  8
A0128_Printing
 62
1
100
AcDbPolyline
 90
3
 70
0
 10
1399.098465
 20
999.974575
 30
0.0
 10
1358.881466
 20
999.974575
 30
0.0
 10
1358.881466
 20
999.975575
 30
0.0
  0
SPLINE
  5
12f
100
AcDbEntity
  8
A0128_Printing
 62
1
100
AcDbSpline
 70
8
 71
3
 72
8
 73
4
 74
0
 40
0
 40
0
 40
0
 40
0
 40
1
 40
1
 40
1
 40
1
 10
1288.015468
 20
1042.494574
 30
0.0
 10
1264.532468
 20
1042.494574
 30
0.0
 10
1245.495469
 20
1023.457574
 30
0.0
 10
1245.495469
 20
999.975575
 30
0.0
  0
LWPOLYLINE
  5
130
100
AcDbEntity
  8
A0128_Printing
 62
1
100
AcDbPolyline
 90
2
 70
0
 10
1316.361467
 20
1042.494574
 30
0.0
 10
1288.015468
 20
1042.494574
 30
0.0
  0
SPLINE
  5
131
100
AcDbEntity
  8
A0128_Printing
 62
1
100
AcDbSpline
 70
8
 71
3
 72
8
 73
4
 74
0
 40
0
 40
0
 40
0
 40
0
 40
1
 40
1
 40
1
 40
1
 10
1205.277470
 20
999.974575
 30
0.0
 10
1188.351470
 20
999.974575
 30
0.0
 10
1174.629471
 20
986.253575
 30
0.0
 10
1174.629471
 20
969.326576
 30
0.0
  0
LWPOLYLINE
  5
132
100
AcDbEntity
  8
A0128_Printing
 62
1
100
AcDbPolyline
 90
3
 70
0
 10
1245.495469
 20
999.975575
 30
0.0
 10
1245.495469
 20
999.974575
 30
0.0
 10
1205.277470
 20
999.974575
 30
0.0
  0
SPLINE
  5
133
100
AcDbEntity
  8
A0128_Printing
 62
1
100
AcDbSpline
 70
8
 71
3
 72
8
 73
4
 74
0
 40
0
 40
0
 40
0
 40
0
 40
1
 40
1
 40
1
 40
1
 10
1429.747464
 20
969.326576
 30
0.0
 10
1429.747464
 20
986.253575
 30
0.0
 10
1416.025465
 20
999.974575
 30
0.0
 10
1399.098465
 20
999.974575
 30
0.0
  0
LWPOLYLINE
  5
134
100
AcDbEntity
  8
A0128_Printing
 62
1
100
AcDbPolyline
 90
38
 70
0
 10
1174.629471
 20
969.326576
 30
0.0
 10
1174.629471
 20
969.326576
 30
0.0
 10
1174.629471
 20
912.632577
 30
0.0
 10
1188.802470
 20
912.632577
 30
0.0
 10
1188.802470
 20
877.199578
 30
0.0
 10
1174.629471
 20
877.199578
 30
0.0
 10
1174.629471
 20
820.506579
 30
0.0
 10
1188.802470
 20
820.506579
 30
0.0
 10
1188.802470
 20
785.073580
 30
0.0
 10
1174.629471
 20
785.073580
 30
0.0
 10
1174.629471
 20
728.380582
 30
0.0
 10
1188.802470
 20
728.380582
 30
0.0
 10
1188.802470
 20
714.207582
 30
0.0
 10
1202.975470
 20
714.207582
 30
0.0
 10
1202.975470
 20
728.380582
 30
0.0
 10
1231.322469
 20
728.380582
 30
0.0
 10
1231.322469
 20
714.207582
 30
0.0
 10
1273.841468
 20
714.207582
 30
0.0
 10
1273.841468
 20
728.380582
 30
0.0
 10
1330.534467
 20
728.380582
 30
0.0
 10
1330.534467
 20
714.207582
 30
0.0
 10
1373.054466
 20
714.207582
 30
0.0
 10
1373.054466
 20
728.380582
 30
0.0
 10
1401.401465
 20
728.380582
 30
0.0
 10
1401.401465
 20
714.207582
 30
0.0
 10
1415.574465
 20
714.207582
 30
0.0
 10
1415.574465
 20
728.380582
 30
0.0
 10
1429.747464
 20
728.380582
 30
0.0
 10
1429.747464
 20
785.073580
 30
0.0
 10
1415.574465
 20
785.073580
 30
0.0
 10
1415.574465
 20
820.506579
 30
0.0
 10
1429.747464
 20
820.506579
 30
0.0
 10
1429.747464
 20
877.199578
 30
0.0
 10
1415.574465
 20
877.199578
 30
0.0
 10
1415.574465
 20
912.632577
 30
0.0
 10
1429.747464
 20
912.632577
 30
0.0
 10
1429.747464
 20
969.326576
 30
0.0
 10
1429.747464
 20
969.326576
 30
0.0
  0
LWPOLYLINE
  5
135
100
AcDbEntity
  8
A0128_Printing
 62
1
100
AcDbPolyline
 90
1
 70
1
 10
1399.098465
 20
999.974575
 30
0.0
  0
SPLINE
  5
136
100
AcDbEntity
  8
A0128_Printing
 62
1
100
AcDbSpline
 70
8
 71
3
 72
8
 73
4
 74
0
 40
0
 40
0
 40
0
 40
0
 40
1
 40
1
 40
1
 40
1
 10
1245.495569
 20
999.977975
 30
0.0
 10
1245.495569
 20
1023.459974
 30
0.0
 10
1264.532568
 20
1042.496974
 30
0.0
 10
1288.015568
 20
1042.496974
 30
0.0
  0
LWPOLYLINE
  5
137
100
AcDbEntity
  8
A0128_Printing
 62
1
100
AcDbPolyline
 90
3
 70
0
 10
1188.802570
 20
1028.323974
 30
0.0
 10
1188.802570
 20
999.977975
 30
0.0
 10
1245.495569
 20
999.977975
 30
0.0
  0
SPLINE
  5
138
100
AcDbEntity
  8
A0128_Printing
 62
1
100
AcDbSpline
 70
8
 71
3
 72
8
 73
4
 74
0
 40
0
 40
0
 40
0
 40
0
 40
1
 40
1
 40
1
 40
1
 10
1288.015568
 20
1056.669974
 30
0.0
 10
1288.015568
 20
1064.497973
 30
0.0
 10
1294.360568
 20
1070.843973
 30
0.0
 10
1302.188567
 20
1070.843973
 30
0.0
  0
LWPOLYLINE
  5
139
100
AcDbEntity
  8
A0128_Printing
 62
1
100
AcDbPolyline
 90
2
 70
0
 10
1288.015568
 20
1042.496974
 30
0.0
 10
1288.015568
 20
1056.669974
 30
0.0
  0
SPLINE
  5
13a
100
AcDbEntity
  8
A0128_Printing
 62
1
100
AcDbSpline
 70
8
 71
3
 72
8
 73
4
 74
0
 40
0
 40
0
 40
0
 40
0
 40
1
 40
1
 40
1
 40
1
 10
1302.188567
 20
1070.843973
 30
0.0
 10
1310.016567
 20
1070.843973
 30
0.0
 10
1316.361567
 20
1064.497973
 30
0.0
 10
1316.361567
 20
1056.669974
 30
0.0
  0
LWPOLYLINE
  5
13b
100
AcDbEntity
  8
A0128_Printing
 62
1
100
AcDbPolyline
 90
1
 70
1
 10
1302.188567
 20
1070.843973
 30
0.0
  0
SPLINE
  5
13c
100
AcDbEntity
  8
A0128_Printing
 62
1
100
AcDbSpline
 70
8
 71
3
 72
8
 73
4
 74
0
 40
0
 40
0
 40
0
 40
0
 40
1
 40
1
 40
1
 40
1
 10
1316.361567
 20
1042.496974
 30
0.0
 10
1339.844567
 20
1042.496974
 30
0.0
 10
1358.881566
 20
1023.459974
 30
0.0
 10
1358.881566
 20
999.977975
 30
0.0
  0
LWPOLYLINE
  5
13d
100
AcDbEntity
  8
A0128_Printing
 62
1
100
AcDbPolyline
 90
2
 70
0
 10
1316.361567
 20
1056.669974
 30
0.0
 10
1316.361567
 20
1042.496974
 30
0.0
  0
SPLINE
  5
13e
100
AcDbEntity
  8
A0128_Printing
 62
1
100
AcDbSpline
 70
8
 71
3
 72
8
 73
4
 74
0
 40
0
 40
0
 40
0
 40
0
 40
1
 40
1
 40
1
 40
1
 10
1368.508666
 20
1044.570274
 30
0.0
 10
1368.508666
 20
1044.570274
 30
0.0
 10
1366.492666
 20
1043.807274
 30
0.0
 10
1364.093666
 20
1044.352274
 30
0.0
  0
SPLINE
  5
13f
100
AcDbEntity
  8
A0128_Printing
 62
1
100
AcDbSpline
 70
8
 71
3
 72
8
 73
4
 74
0
 40
0
 40
0
 40
0
 40
0
 40
1
 40
1
 40
1
 40
1
 10
1364.093666
 20
1044.352274
 30
0.0
 10
1359.625666
 20
1045.279274
 30
0.0
 10
1354.120666
 20
1048.713274
 30
0.0
 10
1359.407666
 20
1055.633274
 30
0.0
  0
SPLINE
  5
140
100
AcDbEntity
  8
A0128_Printing
 62
1
100
AcDbSpline
 70
8
 71
3
 72
8
 73
4
 74
0
 40
0
 40
0
 40
0
 40
0
 40
1
 40
1
 40
1
 40
1
 10
1359.407666
 20
1055.633274
 30
0.0
 10
1368.454666
 20
1067.514273
 30
0.0
 10
1390.199665
 20
1053.835274
 30
0.0
 10
1382.406665
 20
1040.537274
 30
0.0
  0
SPLINE
  5
141
100
AcDbEntity
  8
A0128_Printing
 62
1
100
AcDbSpline
 70
8
 71
3
 72
8
 73
4
 74
0
 40
0
 40
0
 40
0
 40
0
 40
1
 40
1
 40
1
 40
1
 10
1382.406665
 20
1040.537274
 30
0.0
 10
1382.406665
 20
1040.537274
 30
0.0
 10
1381.752665
 20
1039.392274
 30
0.0
 10
1383.387665
 20
1038.629274
 30
0.0
  0
SPLINE
  5
142
100
AcDbEntity
  8
A0128_Printing
 62
1
100
AcDbSpline
 70
8
 71
3
 72
8
 73
4
 74
0
 40
0
 40
0
 40
0
 40
0
 40
1
 40
1
 40
1
 40
1
 10
1383.387665
 20
1038.629274
 30
0.0
 10
1385.076665
 20
1037.867274
 30
0.0
 10
1386.003665
 20
1038.794274
 30
0.0
 10
1386.820665
 20
1039.392274
 30
0.0
  0
SPLINE
  5
143
100
AcDbEntity
  8
A0128_Printing
 62
1
100
AcDbSpline
 70
8
 71
3
 72
8
 73
4
 74
0
 40
0
 40
0
 40
0
 40
0
 40
1
 40
1
 40
1
 40
1
 10
1386.820665
 20
1039.392274
 30
0.0
 10
1387.638665
 20
1039.992274
 30
0.0
 10
1388.837665
 20
1042.499274
 30
0.0
 10
1391.289665
 20
1042.717274
 30
0.0
  0
SPLINE
  5
144
100
AcDbEntity
  8
A0128_Printing
 62
1
100
AcDbSpline
 70
8
 71
3
 72
8
 73
4
 74
0
 40
0
 40
0
 40
0
 40
0
 40
1
 40
1
 40
1
 40
1
 10
1391.289665
 20
1042.717274
 30
0.0
 10
1393.687665
 20
1042.935274
 30
0.0
 10
1392.870665
 20
1038.957274
 30
0.0
 10
1395.540665
 20
1038.303274
 30
0.0
  0
SPLINE
  5
145
100
AcDbEntity
  8
A0128_Printing
 62
1
100
AcDbSpline
 70
8
 71
3
 72
8
 73
4
 74
0
 40
0
 40
0
 40
0
 40
0
 40
1
 40
1
 40
1
 40
1
 10
1395.540665
 20
1038.303274
 30
0.0
 10
1398.211665
 20
1037.594274
 30
0.0
 10
1399.900665
 20
1038.030274
 30
0.0
 10
1400.064665
 20
1038.520274
 30
0.0
  0
SPLINE
  5
146
100
AcDbEntity
  8
A0128_Printing
 62
1
100
AcDbSpline
 70
8
 71
3
 72
8
 73
4
 74
0
 40
0
 40
0
 40
0
 40
0
 40
1
 40
1
 40
1
 40
1
 10
1400.064665
 20
1038.520274
 30
0.0
 10
1400.282665
 20
1038.957274
 30
0.0
 10
1401.208665
 20
1043.044274
 30
0.0
 10
1399.410665
 20
1046.096274
 30
0.0
  0
SPLINE
  5
147
100
AcDbEntity
  8
A0128_Printing
 62
1
100
AcDbSpline
 70
8
 71
3
 72
8
 73
4
 74
0
 40
0
 40
0
 40
0
 40
0
 40
1
 40
1
 40
1
 40
1
 10
1399.410665
 20
1046.096274
 30
0.0
 10
1397.666665
 20
1049.148274
 30
0.0
 10
1394.723665
 20
1049.203274
 30
0.0
 10
1395.540665
 20
1050.075274
 30
0.0
  0
SPLINE
  5
148
100
AcDbEntity
  8
A0128_Printing
 62
1
100
AcDbSpline
 70
8
 71
3
 72
8
 73
4
 74
0
 40
0
 40
0
 40
0
 40
0
 40
1
 40
1
 40
1
 40
1
 10
1395.540665
 20
1050.075274
 30
0.0
 10
1396.358665
 20
1050.892274
 30
0.0
 10
1402.734665
 20
1054.707274
 30
0.0
 10
1400.827665
 20
1057.814274
 30
0.0
  0
SPLINE
  5
149
100
AcDbEntity
  8
A0128_Printing
 62
1
100
AcDbSpline
 70
8
 71
3
 72
8
 73
4
 74
0
 40
0
 40
0
 40
0
 40
0
 40
1
 40
1
 40
1
 40
1
 10
1400.827665
 20
1057.814274
 30
0.0
 10
1398.592665
 20
1061.411273
 30
0.0
 10
1394.232665
 20
1058.467274
 30
0.0
 10
1387.856665
 20
1059.830274
 30
0.0
  0
SPLINE
  5
14a
100
AcDbEntity
  8
A0128_Printing
 62
1
100
AcDbSpline
 70
8
 71
3
 72
8
 73
4
 74
0
 40
0
 40
0
 40
0
 40
0
 40
1
 40
1
 40
1
 40
1
 10
1387.856665
 20
1059.830274
 30
0.0
 10
1381.152665
 20
1061.192273
 30
0.0
 10
1376.356666
 20
1066.316273
 30
0.0
 10
1375.593666
 20
1071.003273
 30
0.0
  0
SPLINE
  5
14b
100
AcDbEntity
  8
A0128_Printing
 62
1
100
AcDbSpline
 70
8
 71
3
 72
8
 73
4
 74
0
 40
0
 40
0
 40
0
 40
0
 40
1
 40
1
 40
1
 40
1
 10
1375.593666
 20
1071.003273
 30
0.0
 10
1374.885666
 20
1075.744273
 30
0.0
 10
1376.520666
 20
1081.903273
 30
0.0
 10
1385.131665
 20
1083.810273
 30
0.0
  0
SPLINE
  5
14c
100
AcDbEntity
  8
A0128_Printing
 62
1
100
AcDbSpline
 70
8
 71
3
 72
8
 73
4
 74
0
 40
0
 40
0
 40
0
 40
0
 40
1
 40
1
 40
1
 40
1
 10
1385.131665
 20
1083.810273
 30
0.0
 10
1393.796665
 20
1085.773273
 30
0.0
 10
1398.211665
 20
1077.161273
 30
0.0
 10
1394.777665
 20
1074.273273
 30
0.0
  0
SPLINE
  5
14d
100
AcDbEntity
  8
A0128_Printing
 62
1
100
AcDbSpline
 70
8
 71
3
 72
8
 73
4
 74
0
 40
0
 40
0
 40
0
 40
0
 40
1
 40
1
 40
1
 40
1
 10
1394.777665
 20
1074.273273
 30
0.0
 10
1394.777665
 20
1074.273273
 30
0.0
 10
1386.275665
 20
1076.998273
 30
0.0
 10
1385.512665
 20
1070.948273
 30
0.0
  0
SPLINE
  5
14e
100
AcDbEntity
  8
A0128_Printing
 62
1
100
AcDbSpline
 70
8
 71
3
 72
8
 73
4
 74
0
 40
0
 40
0
 40
0
 40
0
 40
1
 40
1
 40
1
 40
1
 10
1385.512665
 20
1070.948273
 30
0.0
 10
1384.804665
 20
1064.954273
 30
0.0
 10
1395.431665
 20
1063.972273
 30
0.0
 10
1399.246665
 20
1067.133273
 30
0.0
  0
SPLINE
  5
14f
100
AcDbEntity
  8
A0128_Printing
 62
1
100
AcDbSpline
 70
8
 71
3
 72
8
 73
4
 74
0
 40
0
 40
0
 40
0
 40
0
 40
1
 40
1
 40
1
 40
1
 10
1399.246665
 20
1067.133273
 30
0.0
 10
1403.061665
 20
1070.349273
 30
0.0
 10
1406.277665
 20
1078.414273
 30
0.0
 10
1399.791665
 20
1085.500273
 30
0.0
  0
SPLINE
  5
150
100
AcDbEntity
  8
A0128_Printing
 62
1
100
AcDbSpline
 70
8
 71
3
 72
8
 73
4
 74
0
 40
0
 40
0
 40
0
 40
0
 40
1
 40
1
 40
1
 40
1
 10
1399.791665
 20
1085.500273
 30
0.0
 10
1393.306665
 20
1092.530273
 30
0.0
 10
1377.174666
 20
1091.767273
 30
0.0
 10
1365.020666
 20
1083.048273
 30
0.0
  0
SPLINE
  5
151
100
AcDbEntity
  8
A0128_Printing
 62
1
100
AcDbSpline
 70
8
 71
3
 72
8
 73
4
 74
0
 40
0
 40
0
 40
0
 40
0
 40
1
 40
1
 40
1
 40
1
 10
1365.020666
 20
1083.048273
 30
0.0
 10
1352.921666
 20
1074.327273
 30
0.0
 10
1349.760666
 20
1059.339274
 30
0.0
 10
1350.959666
 20
1051.273274
 30
0.0
  0
SPLINE
  5
152
100
AcDbEntity
  8
A0128_Printing
 62
1
100
AcDbSpline
 70
8
 71
3
 72
8
 73
4
 74
0
 40
0
 40
0
 40
0
 40
0
 40
1
 40
1
 40
1
 40
1
 10
1350.959666
 20
1051.273274
 30
0.0
 10
1352.158666
 20
1043.263274
 30
0.0
 10
1360.606666
 20
1035.686274
 30
0.0
 10
1372.432666
 20
1038.794274
 30
0.0
  0
SPLINE
  5
153
100
AcDbEntity
  8
A0128_Printing
 62
1
100
AcDbSpline
 70
8
 71
3
 72
8
 73
4
 74
0
 40
0
 40
0
 40
0
 40
0
 40
1
 40
1
 40
1
 40
1
 10
1372.432666
 20
1038.794274
 30
0.0
 10
1379.735666
 20
1040.646274
 30
0.0
 10
1379.517666
 20
1048.167274
 30
0.0
 10
1377.174666
 20
1050.456274
 30
0.0
  0
SPLINE
  5
154
100
AcDbEntity
  8
A0128_Printing
 62
1
100
AcDbSpline
 70
8
 71
3
 72
8
 73
4
 74
0
 40
0
 40
0
 40
0
 40
0
 40
1
 40
1
 40
1
 40
1
 10
1377.174666
 20
1050.456274
 30
0.0
 10
1374.885666
 20
1052.745274
 30
0.0
 10
1367.636666
 20
1054.707274
 30
0.0
 10
1366.437666
 20
1049.694274
 30
0.0
  0
SPLINE
  5
155
100
AcDbEntity
  8
A0128_Printing
 62
1
100
AcDbSpline
 70
8
 71
3
 72
8
 73
4
 74
0
 40
0
 40
0
 40
0
 40
0
 40
1
 40
1
 40
1
 40
1
 10
1366.437666
 20
1049.694274
 30
0.0
 10
1365.946666
 20
1047.786274
 30
0.0
 10
1368.508666
 20
1044.570274
 30
0.0
 10
1368.508666
 20
1044.570274
 30
0.0
  0
LWPOLYLINE
  5
156
100
AcDbEntity
  8
A0128_Printing
 62
1
100
AcDbPolyline
 90
24
 70
0
 10
1358.881566
 20
999.977975
 30
0.0
 10
1415.574565
 20
999.977975
 30
0.0
 10
1415.574565
 20
1028.323974
 30
0.0
 10
1429.747564
 20
1028.323974
 30
0.0
 10
1429.747564
 20
1085.016973
 30
0.0
 10
1415.574565
 20
1085.016973
 30
0.0
 10
1415.574565
 20
1127.536972
 30
0.0
 10
1401.400565
 20
1127.536972
 30
0.0
 10
1401.400565
 20
1113.362972
 30
0.0
 10
1373.054566
 20
1113.362972
 30
0.0
 10
1373.054566
 20
1127.536972
 30
0.0
 10
1330.534567
 20
1127.536972
 30
0.0
 10
1330.534567
 20
1113.362972
 30
0.0
 10
1273.841568
 20
1113.362972
 30
0.0
 10
1273.841568
 20
1127.536972
 30
0.0
 10
1231.322569
 20
1127.536972
 30
0.0
 10
1231.322569
 20
1113.362972
 30
0.0
 10
1202.975570
 20
1113.362972
 30
0.0
 10
1202.975570
 20
1127.536972
 30
0.0
 10
1188.802570
 20
1127.536972
 30
0.0
 10
1188.802570
 20
1085.016973
 30
0.0
 10
1174.629571
 20
1085.016973
 30
0.0
 10
1174.629571
 20
1028.323974
 30
0.0
 10
1188.802570
 20
1028.323974
 30
0.0
  0
SPLINE
  5
157
100
AcDbEntity
  8
A0128_Printing
 62
1
100
AcDbSpline
 70
8
 71
3
 72
8
 73
4
 74
0
 40
0
 40
0
 40
0
 40
0
 40
1
 40
1
 40
1
 40
1
 10
1235.485969
 20
1044.570274
 30
0.0
 10
1235.485969
 20
1044.570274
 30
0.0
 10
1237.501969
 20
1043.807274
 30
0.0
 10
1239.900969
 20
1044.352274
 30
0.0
  0
SPLINE
  5
158
100
AcDbEntity
  8
A0128_Printing
 62
1
100
AcDbSpline
 70
8
 71
3
 72
8
 73
4
 74
0
 40
0
 40
0
 40
0
 40
0
 40
1
 40
1
 40
1
 40
1
 10
1239.900969
 20
1044.352274
 30
0.0
 10
1244.368969
 20
1045.279274
 30
0.0
 10
1249.873969
 20
1048.713274
 30
0.0
 10
1244.586969
 20
1055.633274
 30
0.0
  0
SPLINE
  5
159
100
AcDbEntity
  8
A0128_Printing
 62
1
100
AcDbSpline
 70
8
 71
3
 72
8
 73
4
 74
0
 40
0
 40
0
 40
0
 40
0
 40
1
 40
1
 40
1
 40
1
 10
1244.586969
 20
1055.633274
 30
0.0
 10
1235.539969
 20
1067.514273
 30
0.0
 10
1213.794970
 20
1053.835274
 30
0.0
 10
1221.587969
 20
1040.537274
 30
0.0
  0
SPLINE
  5
15a
100
AcDbEntity
  8
A0128_Printing
 62
1
100
AcDbSpline
 70
8
 71
3
 72
8
 73
4
 74
0
 40
0
 40
0
 40
0
 40
0
 40
1
 40
1
 40
1
 40
1
 10
1221.587969
 20
1040.537274
 30
0.0
 10
1221.587969
 20
1040.537274
 30
0.0
 10
1222.241969
 20
1039.392274
 30
0.0
 10
1220.606969
 20
1038.629274
 30
0.0
  0
SPLINE
  5
15b
100
AcDbEntity
  8
A0128_Printing
 62
1
100
AcDbSpline
 70
8
 71
3
 72
8
 73
4
 74
0
 40
0
 40
0
 40
0
 40
0
 40
1
 40
1
 40
1
 40
1
 10
1220.606969
 20
1038.629274
 30
0.0
 10
1218.917970
 20
1037.867274
 30
0.0
 10
1217.990970
 20
1038.794274
 30
0.0
 10
1217.173970
 20
1039.392274
 30
0.0
  0
SPLINE
  5
15c
100
AcDbEntity
  8
A0128_Printing
 62
1
100
AcDbSpline
 70
8
 71
3
 72
8
 73
4
 74
0
 40
0
 40
0
 40
0
 40
0
 40
1
 40
1
 40
1
 40
1
 10
1217.173970
 20
1039.392274
 30
0.0
 10
1216.355970
 20
1039.992274
 30
0.0
 10
1215.156970
 20
1042.499274
 30
0.0
 10
1212.704970
 20
1042.717274
 30
0.0
  0
SPLINE
  5
15d
100
AcDbEntity
  8
A0128_Printing
 62
1
100
AcDbSpline
 70
8
 71
3
 72
8
 73
4
 74
0
 40
0
 40
0
 40
0
 40
0
 40
1
 40
1
 40
1
 40
1
 10
1212.704970
 20
1042.717274
 30
0.0
 10
1210.306970
 20
1042.935274
 30
0.0
 10
1211.123970
 20
1038.957274
 30
0.0
 10
1208.453970
 20
1038.303274
 30
0.0
  0
SPLINE
  5
15e
100
AcDbEntity
  8
A0128_Printing
 62
1
100
AcDbSpline
 70
8
 71
3
 72
8
 73
4
 74
0
 40
0
 40
0
 40
0
 40
0
 40
1
 40
1
 40
1
 40
1
 10
1208.453970
 20
1038.303274
 30
0.0
 10
1205.782970
 20
1037.594274
 30
0.0
 10
1204.093970
 20
1038.030274
 30
0.0
 10
1203.929970
 20
1038.520274
 30
0.0
  0
SPLINE
  5
15f
100
AcDbEntity
  8
A0128_Printing
 62
1
100
AcDbSpline
 70
8
 71
3
 72
8
 73
4
 74
0
 40
0
 40
0
 40
0
 40
0
 40
1
 40
1
 40
1
 40
1
 10
1203.929970
 20
1038.520274
 30
0.0
 10
1203.711970
 20
1038.957274
 30
0.0
 10
1202.785970
 20
1043.044274
 30
0.0
 10
1204.583970
 20
1046.096274
 30
0.0
  0
SPLINE
  5
160
100
AcDbEntity
  8
A0128_Printing
 62
1
100
AcDbSpline
 70
8
 71
3
 72
8
 73
4
 74
0
 40
0
 40
0
 40
0
 40
0
 40
1
 40
1
 40
1
 40
1
 10
1204.583970
 20
1046.096274
 30
0.0
 10
1206.327970
 20
1049.148274
 30
0.0
 10
1209.270970
 20
1049.203274
 30
0.0
 10
1208.453970
 20
1050.075274
 30
0.0
  0
SPLINE
  5
161
100
AcDbEntity
  8
A0128_Printing
 62
1
100
AcDbSpline
 70
8
 71
3
 72
8
 73
4
 74
0
 40
0
 40
0
 40
0
 40
0
 40
1
 40
1
 40
1
 40
1
 10
1208.453970
 20
1050.075274
 30
0.0
 10
1207.635970
 20
1050.892274
 30
0.0
 10
1201.259970
 20
1054.707274
 30
0.0
 10
1203.166970
 20
1057.814274
 30
0.0
  0
SPLINE
  5
162
100
AcDbEntity
  8
A0128_Printing
 62
1
100
AcDbSpline
 70
8
 71
3
 72
8
 73
4
 74
0
 40
0
 40
0
 40
0
 40
0
 40
1
 40
1
 40
1
 40
1
 10
1203.166970
 20
1057.814274
 30
0.0
 10
1205.401970
 20
1061.411273
 30
0.0
 10
1209.761970
 20
1058.467274
 30
0.0
 10
1216.137970
 20
1059.830274
 30
0.0
  0
SPLINE
  5
163
100
AcDbEntity
  8
A0128_Printing
 62
1
100
AcDbSpline
 70
8
 71
3
 72
8
 73
4
 74
0
 40
0
 40
0
 40
0
 40
0
 40
1
 40
1
 40
1
 40
1
 10
1216.137970
 20
1059.830274
 30
0.0
 10
1222.841969
 20
1061.192273
 30
0.0
 10
1227.637969
 20
1066.316273
 30
0.0
 10
1228.400969
 20
1071.003273
 30
0.0
  0
SPLINE
  5
164
100
AcDbEntity
  8
A0128_Printing
 62
1
100
AcDbSpline
 70
8
 71
3
 72
8
 73
4
 74
0
 40
0
 40
0
 40
0
 40
0
 40
1
 40
1
 40
1
 40
1
 10
1228.400969
 20
1071.003273
 30
0.0
 10
1229.108969
 20
1075.744273
 30
0.0
 10
1227.473969
 20
1081.903273
 30
0.0
 10
1218.862970
 20
1083.810273
 30
0.0
  0
SPLINE
  5
165
100
AcDbEntity
  8
A0128_Printing
 62
1
100
AcDbSpline
 70
8
 71
3
 72
8
 73
4
 74
0
 40
0
 40
0
 40
0
 40
0
 40
1
 40
1
 40
1
 40
1
 10
1218.862970
 20
1083.810273
 30
0.0
 10
1210.197970
 20
1085.773273
 30
0.0
 10
1205.782970
 20
1077.161273
 30
0.0
 10
1209.216970
 20
1074.273273
 30
0.0
  0
SPLINE
  5
166
100
AcDbEntity
  8
A0128_Printing
 62
1
100
AcDbSpline
 70
8
 71
3
 72
8
 73
4
 74
0
 40
0
 40
0
 40
0
 40
0
 40
1
 40
1
 40
1
 40
1
 10
1209.216970
 20
1074.273273
 30
0.0
 10
1209.216970
 20
1074.273273
 30
0.0
 10
1217.718970
 20
1076.998273
 30
0.0
 10
1218.481970
 20
1070.948273
 30
0.0
  0
SPLINE
  5
167
100
AcDbEntity
  8
A0128_Printing
 62
1
100
AcDbSpline
 70
8
 71
3
 72
8
 73
4
 74
0
 40
0
 40
0
 40
0
 40
0
 40
1
 40
1
 40
1
 40
1
 10
1218.481970
 20
1070.948273
 30
0.0
 10
1219.189970
 20
1064.954273
 30
0.0
 10
1208.562970
 20
1063.972273
 30
0.0
 10
1204.747970
 20
1067.133273
 30
0.0
  0
SPLINE
  5
168
100
AcDbEntity
  8
A0128_Printing
 62
1
100
AcDbSpline
 70
8
 71
3
 72
8
 73
4
 74
0
 40
0
 40
0
 40
0
 40
0
 40
1
 40
1
 40
1
 40
1
 10
1204.747970
 20
1067.133273
 30
0.0
 10
1200.932970
 20
1070.349273
 30
0.0
 10
1197.716970
 20
1078.414273
 30
0.0
 10
1204.202970
 20
1085.500273
 30
0.0
  0
SPLINE
  5
169
100
AcDbEntity
  8
A0128_Printing
 62
1
100
AcDbSpline
 70
8
 71
3
 72
8
 73
4
 74
0
 40
0
 40
0
 40
0
 40
0
 40
1
 40
1
 40
1
 40
1
 10
1204.202970
 20
1085.500273
 30
0.0
 10
1210.687970
 20
1092.530273
 30
0.0
 10
1226.819969
 20
1091.767273
 30
0.0
 10
1238.973969
 20
1083.048273
 30
0.0
  0
SPLINE
  5
16a
100
AcDbEntity
  8
A0128_Printing
 62
1
100
AcDbSpline
 70
8
 71
3
 72
8
 73
4
 74
0
 40
0
 40
0
 40
0
 40
0
 40
1
 40
1
 40
1
 40
1
 10
1238.973969
 20
1083.048273
 30
0.0
 10
1251.072969
 20
1074.327273
 30
0.0
 10
1254.233969
 20
1059.339274
 30
0.0
 10
1253.034969
 20
1051.273274
 30
0.0
  0
SPLINE
  5
16b
100
AcDbEntity
  8
A0128_Printing
 62
1
100
AcDbSpline
 70
8
 71
3
 72
8
 73
4
 74
0
 40
0
 40
0
 40
0
 40
0
 40
1
 40
1
 40
1
 40
1
 10
1253.034969
 20
1051.273274
 30
0.0
 10
1251.835969
 20
1043.263274
 30
0.0
 10
1243.387969
 20
1035.686274
 30
0.0
 10
1231.561969
 20
1038.794274
 30
0.0
  0
SPLINE
  5
16c
100
AcDbEntity
  8
A0128_Printing
 62
1
100
AcDbSpline
 70
8
 71
3
 72
8
 73
4
 74
0
 40
0
 40
0
 40
0
 40
0
 40
1
 40
1
 40
1
 40
1
 10
1231.561969
 20
1038.794274
 30
0.0
 10
1224.258969
 20
1040.646274
 30
0.0
 10
1224.476969
 20
1048.167274
 30
0.0
 10
1226.819969
 20
1050.456274
 30
0.0
  0
SPLINE
  5
16d
100
AcDbEntity
  8
A0128_Printing
 62
1
100
AcDbSpline
 70
8
 71
3
 72
8
 73
4
 74
0
 40
0
 40
0
 40
0
 40
0
 40
1
 40
1
 40
1
 40
1
 10
1226.819969
 20
1050.456274
 30
0.0
 10
1229.108969
 20
1052.745274
 30
0.0
 10
1236.357969
 20
1054.707274
 30
0.0
 10
1237.556969
 20
1049.694274
 30
0.0
  0
SPLINE
  5
16e
100
AcDbEntity
  8
A0128_Printing
 62
1
100
AcDbSpline
 70
8
 71
3
 72
8
 73
4
 74
0
 40
0
 40
0
 40
0
 40
0
 40
1
 40
1
 40
1
 40
1
 10
1237.556969
 20
1049.694274
 30
0.0
 10
1238.046969
 20
1047.786274
 30
0.0
 10
1235.485969
 20
1044.570274
 30
0.0
 10
1235.485969
 20
1044.570274
 30
0.0
  0
LWPOLYLINE
  5
16f
100
AcDbEntity
  8
A0128_Printing
 62
1
100
AcDbPolyline
 90
1
 70
1
 10
1368.508666
 20
1044.570274
 30
0.0
  0
SPLINE
  5
170
100
AcDbEntity
  8
A0128_Printing
 62
1
100
AcDbSpline
 70
8
 71
3
 72
8
 73
4
 74
0
 40
0
 40
0
 40
0
 40
0
 40
1
 40
1
 40
1
 40
1
 10
1288.756668
 20
1091.453873
 30
0.0
 10
1288.756668
 20
1094.399873
 30
0.0
 10
1291.452668
 20
1096.845873
 30
0.0
 10
1294.948668
 20
1097.295873
 30
0.0
  0
SPLINE
  5
171
100
AcDbEntity
  8
A0128_Printing
 62
1
100
AcDbSpline
 70
8
 71
3
 72
8
 73
4
 74
0
 40
0
 40
0
 40
0
 40
0
 40
1
 40
1
 40
1
 40
1
 10
1294.948668
 20
1097.295873
 30
0.0
 10
1295.497668
 20
1100.091872
 30
0.0
 10
1298.543668
 20
1102.238872
 30
0.0
 10
1302.188667
 20
1102.238872
 30
0.0
  0
SPLINE
  5
172
100
AcDbEntity
  8
A0128_Printing
 62
1
100
AcDbSpline
 70
8
 71
3
 72
8
 73
4
 74
0
 40
0
 40
0
 40
0
 40
0
 40
1
 40
1
 40
1
 40
1
 10
1302.188667
 20
1102.238872
 30
0.0
 10
1305.883667
 20
1102.238872
 30
0.0
 10
1308.879667
 20
1100.091872
 30
0.0
 10
1309.478667
 20
1097.295873
 30
0.0
  0
SPLINE
  5
173
100
AcDbEntity
  8
A0128_Printing
 62
1
100
AcDbSpline
 70
8
 71
3
 72
8
 73
4
 74
0
 40
0
 40
0
 40
0
 40
0
 40
1
 40
1
 40
1
 40
1
 10
1309.478667
 20
1097.295873
 30
0.0
 10
1312.973667
 20
1096.845873
 30
0.0
 10
1315.619667
 20
1094.399873
 30
0.0
 10
1315.619667
 20
1091.453873
 30
0.0
  0
SPLINE
  5
174
100
AcDbEntity
  8
A0128_Printing
 62
1
100
AcDbSpline
 70
8
 71
3
 72
8
 73
4
 74
0
 40
0
 40
0
 40
0
 40
0
 40
1
 40
1
 40
1
 40
1
 10
1315.619667
 20
1091.453873
 30
0.0
 10
1315.619667
 20
1088.557873
 30
0.0
 10
1312.973667
 20
1086.110873
 30
0.0
 10
1309.478667
 20
1085.661873
 30
0.0
  0
SPLINE
  5
175
100
AcDbEntity
  8
A0128_Printing
 62
1
100
AcDbSpline
 70
8
 71
3
 72
8
 73
4
 74
0
 40
0
 40
0
 40
0
 40
0
 40
1
 40
1
 40
1
 40
1
 10
1309.478667
 20
1085.661873
 30
0.0
 10
1308.879667
 20
1082.864873
 30
0.0
 10
1305.883667
 20
1080.717873
 30
0.0
 10
1302.188667
 20
1080.717873
 30
0.0
  0
SPLINE
  5
176
100
AcDbEntity
  8
A0128_Printing
 62
1
100
AcDbSpline
 70
8
 71
3
 72
8
 73
4
 74
0
 40
0
 40
0
 40
0
 40
0
 40
1
 40
1
 40
1
 40
1
 10
1302.188667
 20
1080.717873
 30
0.0
 10
1298.543668
 20
1080.717873
 30
0.0
 10
1295.497668
 20
1082.864873
 30
0.0
 10
1294.948668
 20
1085.661873
 30
0.0
  0
SPLINE
  5
177
100
AcDbEntity
  8
A0128_Printing
 62
1
100
AcDbSpline
 70
8
 71
3
 72
8
 73
4
 74
0
 40
0
 40
0
 40
0
 40
0
 40
1
 40
1
 40
1
 40
1
 10
1294.948668
 20
1085.661873
 30
0.0
 10
1291.452668
 20
1086.110873
 30
0.0
 10
1288.756668
 20
1088.557873
 30
0.0
 10
1288.756668
 20
1091.453873
 30
0.0
  0
LWPOLYLINE
  5
178
100
AcDbEntity
  8
A0128_Printing
 62
1
100
AcDbPolyline
 90
1
 70
1
 10
1235.485969
 20
1044.570274
 30
0.0
  0
LWPOLYLINE
  5
179
100
AcDbEntity
  8
A0128_Printing
 62
1
100
AcDbPolyline
 90
1
 70
1
 10
1288.756668
 20
1091.453873
 30
0.0
  0
ENDSEC
  0
SECTION
  2
OBJECTS
  0
DICTIONARY
  5
C
330
0
100
AcDbDictionary
  3
ACAD_GROUP
350
D
  3
ACAD_MLINESTYLE
350
17
  0
DICTIONARY
  5
D
330
C
100
AcDbDictionary
  0
DICTIONARY
  5
1A
330
C
100
AcDbDictionary
  0
DICTIONARY
  5
17
330
C
100
AcDbDictionary
  3
STANDARD
350
18
  0
DICTIONARY
  5
19
330
C
100
AcDbDictionary
  0
ENDSEC
  0
EOF
