  0
SECTION
  2
HEADER
  9
$ACADVER
  1
AC1009
  9
$DWGCODEPAGE
  3
ansi_1250
  9
$INSBASE
 10
0.0
 20
0.0
 30
0.0
  9
$EXTMIN
 10
12.37376007600881
 20
29.14951207725183
 30
0.0
  9
$EXTMAX
 10
393.6525198409088
 20
443.5802909578077
 30
0.0
  9
$LIMMIN
 10
0.0
 20
0.0
  9
$LIMMAX
 10
12.0
 20
9.0
  9
$ORTHOMODE
 70
     0
  9
$REGENMODE
 70
     1
  9
$FILLMODE
 70
     1
  9
$QTEXTMODE
 70
     0
  9
$MIRRTEXT
 70
     1
  9
$DRAGMODE
 70
     2
  9
$LTSCALE
 40
1.0
  9
$OSMODE
 70
    37
  9
$ATTMODE
 70
     1
  9
$TEXTSIZE
 40
0.2
  9
$TRACEWID
 40
0.05
  9
$TEXTSTYLE
  7
STANDARD
  9
$CLAYER
  8
0
  9
$CELTYPE
  6
BYLAYER
  9
$CECOLOR
 62
   256
  9
$DIMSCALE
 40
1.0
  9
$DIMASZ
 40
0.18
  9
$DIMEXO
 40
0.0625
  9
$DIMDLI
 40
0.38
  9
$DIMRND
 40
0.0
  9
$DIMDLE
 40
0.0
  9
$DIMEXE
 40
0.18
  9
$DIMTP
 40
0.0
  9
$DIMTM
 40
0.0
  9
$DIMTXT
 40
0.18
  9
$DIMCEN
 40
0.09
  9
$DIMTSZ
 40
0.0
  9
$DIMTOL
 70
     0
  9
$DIMLIM
 70
     0
  9
$DIMTIH
 70
     1
  9
$DIMTOH
 70
     1
  9
$DIMSE1
 70
     0
  9
$DIMSE2
 70
     0
  9
$DIMTAD
 70
     0
  9
$DIMZIN
 70
     0
  9
$DIMBLK
  1

  9
$DIMASO
 70
     1
  9
$DIMSHO
 70
     1
  9
$DIMPOST
  1

  9
$DIMAPOST
  1

  9
$DIMALT
 70
     0
  9
$DIMALTD
 70
     2
  9
$DIMALTF
 40
25.4
  9
$DIMLFAC
 40
1.0
  9
$DIMTOFL
 70
     0
  9
$DIMTVP
 40
0.0
  9
$DIMTIX
 70
     0
  9
$DIMSOXD
 70
     0
  9
$DIMSAH
 70
     0
  9
$DIMBLK1
  1

  9
$DIMBLK2
  1

  9
$DIMSTYLE
  2
STANDARD
  9
$DIMCLRD
 70
     0
  9
$DIMCLRE
 70
     0
  9
$DIMCLRT
 70
     0
  9
$DIMTFAC
 40
1.0
  9
$DIMGAP
 40
0.09
  9
$LUNITS
 70
     2
  9
$LUPREC
 70
     4
  9
$SKETCHINC
 40
0.1
  9
$FILLETRAD
 40
0.5
  9
$AUNITS
 70
     0
  9
$AUPREC
 70
     0
  9
$MENU
  1
.
  9
$ELEVATION
 40
0.0
  9
$PELEVATION
 40
0.0
  9
$THICKNESS
 40
0.0
  9
$LIMCHECK
 70
     0
  9
$CHAMFERA
 40
0.5
  9
$CHAMFERB
 40
0.5
  9
$SKPOLY
 70
     0
  9
$TDCREATE
 40
2454910.5
  9
$TDUPDATE
 40
2456018.407915752
  9
$TDINDWG
 40
0.0000000116
  9
$TDUSRTIMER
 40
0.0000000116
  9
$USRTIMER
 70
     1
  9
$ANGBASE
 50
0.0
  9
$ANGDIR
 70
     0
  9
$PDMODE
 70
     0
  9
$PDSIZE
 40
0.0
  9
$PLINEWID
 40
0.0
  9
$COORDS
 70
     1
  9
$SPLFRAME
 70
     0
  9
$SPLINETYPE
 70
     6
  9
$SPLINESEGS
 70
     8
  9
$ATTDIA
 70
     0
  9
$ATTREQ
 70
     1
  9
$HANDLING
 70
     1
  9
$HANDSEED
  5
884
  9
$SURFTAB1
 70
     6
  9
$SURFTAB2
 70
     6
  9
$SURFTYPE
 70
     6
  9
$SURFU
 70
     6
  9
$SURFV
 70
     6
  9
$UCSNAME
  2

  9
$UCSORG
 10
0.0
 20
0.0
 30
0.0
  9
$UCSXDIR
 10
1.0
 20
0.0
 30
0.0
  9
$UCSYDIR
 10
0.0
 20
1.0
 30
0.0
  9
$PUCSNAME
  2

  9
$PUCSORG
 10
0.0
 20
0.0
 30
0.0
  9
$PUCSXDIR
 10
1.0
 20
0.0
 30
0.0
  9
$PUCSYDIR
 10
0.0
 20
1.0
 30
0.0
  9
$USERI1
 70
     0
  9
$USERI2
 70
     0
  9
$USERI3
 70
     0
  9
$USERI4
 70
     0
  9
$USERI5
 70
     0
  9
$USERR1
 40
0.0
  9
$USERR2
 40
0.0
  9
$USERR3
 40
0.0
  9
$USERR4
 40
0.0
  9
$USERR5
 40
0.0
  9
$WORLDVIEW
 70
     1
  9
$SHADEDGE
 70
     3
  9
$SHADEDIF
 70
    70
  9
$TILEMODE
 70
     1
  9
$MAXACTVP
 70
    64
  9
$PLIMCHECK
 70
     0
  9
$PEXTMIN
 10
1.000000000000000E+20
 20
1.000000000000000E+20
 30
1.000000000000000E+20
  9
$PEXTMAX
 10
-1.000000000000000E+20
 20
-1.000000000000000E+20
 30
-1.000000000000000E+20
  9
$PLIMMIN
 10
0.0
 20
0.0
  9
$PLIMMAX
 10
12.0
 20
9.0
  9
$UNITMODE
 70
     0
  9
$VISRETAIN
 70
     1
  9
$PLINEGEN
 70
     0
  9
$PSLTSCALE
 70
     1
  0
ENDSEC
  0
SECTION
  2
TABLES
  0
TABLE
  2
VPORT
 70
     1
  0
VPORT
  2
*ACTIVE
 70
     0
 10
0.0
 20
0.0
 11
1.0
 21
1.0
 12
10.42990654205607
 22
4.5
 13
0.0
 23
0.0
 14
0.5
 24
0.5
 15
0.5
 25
0.5
 16
0.0
 26
0.0
 36
1.0
 17
0.0
 27
0.0
 37
0.0
 40
9.0
 41
1.972972972850329
 42
50.0
 43
0.0
 44
0.0
 50
0.0
 51
0.0
 71
     0
 72
   100
 73
     1
 74
     3
 75
     0
 76
     0
 77
     0
 78
     0
  0
ENDTAB
  0
TABLE
  2
LTYPE
 70
     2
  0
LTYPE
  2
CONTINUOUS
 70
     0
  3
Solid line
 72
    65
 73
     0
 40
0.0
  0
LTYPE
  2
CONTINUOUS2
 70
     0
  3
Solid Line
 72
    65
 73
     0
 40
0.0
  0
ENDTAB
  0
TABLE
  2
LAYER
 70
    16
  0
LAYER
  2
0
 70
     0
 62
     7
  6
CONTINUOUS
  0
LAYER
  2
BOK_A_DVERE
 70
     0
 62
    18
  6
CONTINUOUS
  0
LAYER
  2
BOK_A_OKNO
 70
     0
 62
    18
  6
CONTINUOUS
  0
LAYER
  2
DVERE
 70
     0
 62
    18
  6
CONTINUOUS
  0
LAYER
  2
MASKA
 70
     0
 62
    18
  6
CONTINUOUS
  0
LAYER
  2
NABOJ
 70
     0
 62
    18
  6
CONTINUOUS
  0
LAYER
  2
PANT
 70
     0
 62
    18
  6
CONTINUOUS
  0
LAYER
  2
PODLAHA
 70
     0
 62
    18
  6
CONTINUOUS
  0
LAYER
  2
PREDEK
 70
     0
 62
    18
  6
CONTINUOUS
  0
LAYER
  2
SCHODY
 70
     0
 62
    18
  6
CONTINUOUS
  0
LAYER
  2
SEDADLO_SPODEK_R
 70
     0
 62
    18
  6
CONTINUOUS
  0
LAYER
  2
SPODEK
 70
     0
 62
    18
  6
CONTINUOUS
  0
LAYER
  2
VOLANT
 70
     0
 62
    18
  6
CONTINUOUS
  0
LAYER
  2
ZADEK
 70
     0
 62
    18
  6
CONTINUOUS
  0
LAYER
  2
ZADNÍ_SEDADLO
 70
     0
 62
    18
  6
CONTINUOUS
  0
LAYER
  2
KOLO
 70
     0
 62
    18
  6
CONTINUOUS
  0
ENDTAB
  0
TABLE
  2
STYLE
 70
     1
  0
STYLE
  2
STANDARD
 70
     0
 40
0.0
 41
1.0
 50
0.0
 71
     0
 42
0.2
  3
txt
  4

  0
ENDTAB
  0
TABLE
  2
VIEW
 70
     0
  0
ENDTAB
  0
TABLE
  2
UCS
 70
     0
  0
ENDTAB
  0
TABLE
  2
APPID
 70
     1
  0
APPID
  2
ACAD
 70
     0
  0
ENDTAB
  0
TABLE
  2
DIMSTYLE
 70
     1
  0
DIMSTYLE
  2
STANDARD
 70
     0
  3

  4

  5

  6

  7

 40
1.0
 41
0.18
 42
0.0625
 43
0.38
 44
0.18
 45
0.0
 46
0.0
 47
0.0
 48
0.0
140
0.18
141
0.09
142
0.0
143
25.4
144
1.0
145
0.0
146
1.0
147
0.09
 71
     0
 72
     0
 73
     1
 74
     1
 75
     0
 76
     0
 77
     0
 78
     0
170
     0
171
     2
172
     0
173
     0
174
     0
175
     0
176
     0
177
     0
178
     0
  0
ENDTAB
  0
ENDSEC
  0
SECTION
  2
BLOCKS
  0
BLOCK
  8
0
  2
$MODEL_SPACE
 70
     0
 10
0.0
 20
0.0
 30
0.0
  3
$MODEL_SPACE
  1

  0
ENDBLK
  5
21
  8
0
  0
BLOCK
 67
     1
  8
0
  2
$PAPER_SPACE
 70
     0
 10
0.0
 20
0.0
 30
0.0
  3
$PAPER_SPACE
  1

  0
ENDBLK
  5
1D
 67
     1
  8
0
  0
ENDSEC
  0
SECTION
  2
ENTITIES
  0
POLYLINE
  5
41
  8
BOK_A_DVERE
 66
     1
 10
0.0
 20
0.0
 30
0.0
 70
     1
  0
VERTEX
  5
16F
  8
BOK_A_DVERE
 10
379.7623972097643
 20
220.9760365775641
 30
0.0
  0
VERTEX
  5
170
  8
BOK_A_DVERE
 10
379.7623972097643
 20
193.7740397866133
 30
0.0
  0
VERTEX
  5
171
  8
BOK_A_DVERE
 10
376.7399531218809
 20
193.7740397866134
 30
0.0
  0
VERTEX
  5
172
  8
BOK_A_DVERE
 10
376.7399531218809
 20
195.789002511869
 30
0.0
  0
VERTEX
  5
173
  8
BOK_A_DVERE
 10
332.4107731662574
 20
195.789002511869
 30
0.0
  0
VERTEX
  5
174
  8
BOK_A_DVERE
 10
332.4107731662574
 20
193.7740397866134
 30
0.0
  0
VERTEX
  5
175
  8
BOK_A_DVERE
 10
329.3883290783739
 20
193.7740397866134
 30
0.0
  0
VERTEX
  5
176
  8
BOK_A_DVERE
 10
329.3883290783739
 20
220.9760365775642
 30
0.0
  0
VERTEX
  5
177
  8
BOK_A_DVERE
 10
332.4107731662574
 20
220.9760365775641
 30
0.0
  0
VERTEX
  5
178
  8
BOK_A_DVERE
 10
332.4107731662574
 20
218.9610738523085
 30
0.0
  0
VERTEX
  5
179
  8
BOK_A_DVERE
 10
376.7399531218809
 20
218.9610738523085
 30
0.0
  0
VERTEX
  5
17A
  8
BOK_A_DVERE
 10
376.7399531218809
 20
220.9760365775641
 30
0.0
  0
SEQEND
  5
17B
  8
BOK_A_DVERE
  0
POLYLINE
  5
42
  8
BOK_A_DVERE
 66
     1
 10
0.0
 20
0.0
 30
0.0
 70
     1
  0
VERTEX
  5
17C
  8
BOK_A_DVERE
 10
359.6127699572082
 20
167.3484241155333
 30
0.0
  0
VERTEX
  5
17D
  8
BOK_A_DVERE
 10
362.6352140450917
 20
167.3484241155333
 30
0.0
  0
VERTEX
  5
17E
  8
BOK_A_DVERE
 10
362.6352140450917
 20
177.4232377418114
 30
0.0
  0
VERTEX
  5
17F
  8
BOK_A_DVERE
 10
359.6127699572082
 20
177.4232377418114
 30
0.0
  0
SEQEND
  5
180
  8
BOK_A_DVERE
  0
POLYLINE
  5
43
  8
BOK_A_DVERE
 66
     1
 10
0.0
 20
0.0
 30
0.0
 70
     1
  0
VERTEX
  5
181
  8
BOK_A_DVERE
 10
359.6127699572081
 20
52.49554877596325
 30
0.0
  0
VERTEX
  5
182
  8
BOK_A_DVERE
 10
362.6352140450916
 20
52.49554877596325
 30
0.0
  0
VERTEX
  5
183
  8
BOK_A_DVERE
 10
362.6352140450916
 20
62.57036240224132
 30
0.0
  0
VERTEX
  5
184
  8
BOK_A_DVERE
 10
359.6127699572081
 20
62.57036240224131
 30
0.0
  0
SEQEND
  5
185
  8
BOK_A_DVERE
  0
POLYLINE
  5
44
  8
BOK_A_DVERE
 66
     1
 10
0.0
 20
0.0
 30
0.0
 70
     1
  0
VERTEX
  5
186
  8
BOK_A_DVERE
 10
369.0465161896238
 20
242.6219424159086
 30
0.0
  0
VERTEX
  5
187
  8
BOK_A_DVERE
 10
378.7478315221636
 20
245.3397265175013
 30
0.0
  0
VERTEX
  5
188
  8
BOK_A_DVERE
 10
380.6540851965356
 20
238.5352242805711
 30
0.0
  0
VERTEX
  5
189
  8
BOK_A_DVERE
 10
370.6771866505836
 20
236.8011532163693
 30
0.0
  0
SEQEND
  5
18A
  8
BOK_A_DVERE
  0
POLYLINE
  5
45
  8
BOK_A_DVERE
 66
     1
 10
0.0
 20
0.0
 30
0.0
 70
     1
  0
VERTEX
  5
18B
  8
BOK_A_DVERE
 10
340.0553537826153
 20
231.3950740147507
 30
0.0
  0
VERTEX
  5
18C
  8
BOK_A_DVERE
 10
330.1345270962419
 20
229.6564746992794
 30
0.0
  0
VERTEX
  5
18D
  8
BOK_A_DVERE
 10
329.6539196653029
 20
232.3989254664569
 30
0.0
  0
VERTEX
  5
18E
  8
BOK_A_DVERE
 10
339.5747463516763
 20
234.1375247819282
 30
0.0
  0
SEQEND
  5
18F
  8
BOK_A_DVERE
  0
POLYLINE
  5
46
  8
BOK_A_DVERE
 66
     1
 10
0.0
 20
0.0
 30
0.0
 70
     1
  0
VERTEX
  5
190
  8
BOK_A_DVERE
 10
324.3509222652349
 20
223.9519683053118
 30
0.0
  0
VERTEX
  5
191
  8
BOK_A_DVERE
 10
324.3509222652349
 20
213.8771546790337
 30
0.0
  0
VERTEX
  5
192
  8
BOK_A_DVERE
 10
321.3284781773515
 20
213.8771546790337
 30
0.0
  0
VERTEX
  5
193
  8
BOK_A_DVERE
 10
321.3284781773515
 20
223.9519683053118
 30
0.0
  0
SEQEND
  5
194
  8
BOK_A_DVERE
  0
POLYLINE
  5
47
  8
BOK_A_DVERE
 66
     1
 10
0.0
 20
0.0
 30
0.0
 70
     1
  0
VERTEX
  5
195
  8
BOK_A_DVERE
 10
324.3509222652349
 20
136.1165018740713
 30
0.0
  0
VERTEX
  5
196
  8
BOK_A_DVERE
 10
324.3509222652349
 20
126.0416882477932
 30
0.0
  0
VERTEX
  5
197
  8
BOK_A_DVERE
 10
321.3284781773515
 20
126.0416882477932
 30
0.0
  0
VERTEX
  5
198
  8
BOK_A_DVERE
 10
321.3284781773515
 20
136.1165018740713
 30
0.0
  0
SEQEND
  5
199
  8
BOK_A_DVERE
  0
POLYLINE
  5
48
  8
BOK_A_DVERE
 66
     1
 10
0.0
 20
0.0
 30
0.0
 70
     1
  0
VERTEX
  5
19A
  8
BOK_A_DVERE
 10
324.3509222652349
 20
48.45090682268051
 30
0.0
  0
VERTEX
  5
19B
  8
BOK_A_DVERE
 10
324.3509222652349
 20
38.37609319640244
 30
0.0
  0
VERTEX
  5
19C
  8
BOK_A_DVERE
 10
321.3284781773515
 20
38.37609319640245
 30
0.0
  0
VERTEX
  5
19D
  8
BOK_A_DVERE
 10
321.3284781773515
 20
48.45090682268052
 30
0.0
  0
SEQEND
  5
19E
  8
BOK_A_DVERE
  0
POLYLINE
  5
49
  8
BOK_A_DVERE
 66
     1
 10
0.0
 20
0.0
 30
0.0
 70
     1
  0
VERTEX
  5
19F
  8
BOK_A_DVERE
 10
377.8584856851297
 20
32.34592152340709
 30
0.0
  0
VERTEX
  5
1A0
  8
BOK_A_DVERE
 10
367.7836720588516
 20
32.34592152340709
 30
0.0
  0
VERTEX
  5
1A1
  8
BOK_A_DVERE
 10
367.7836720588516
 20
35.36836561129051
 30
0.0
  0
VERTEX
  5
1A2
  8
BOK_A_DVERE
 10
377.8584856851297
 20
35.36836561129049
 30
0.0
  0
SEQEND
  5
1A3
  8
BOK_A_DVERE
  0
POLYLINE
  5
4A
  8
BOK_A_DVERE
 66
     1
 10
0.0
 20
0.0
 30
0.0
 70
     1
  0
VERTEX
  5
1A4
  8
BOK_A_DVERE
 10
337.5592311800174
 20
35.36836561129053
 30
0.0
  0
VERTEX
  5
1A5
  8
BOK_A_DVERE
 10
337.5592311800174
 20
32.34592152340713
 30
0.0
  0
VERTEX
  5
1A6
  8
BOK_A_DVERE
 10
327.4844175537394
 20
32.34592152340711
 30
0.0
  0
VERTEX
  5
1A7
  8
BOK_A_DVERE
 10
327.4844175537394
 20
35.36836561129054
 30
0.0
  0
SEQEND
  5
1A8
  8
BOK_A_DVERE
  0
POLYLINE
  5
4B
  8
BOK_A_DVERE
 66
     1
 10
0.0
 20
0.0
 30
0.0
 70
     1
  0
VERTEX
  5
1A9
  8
BOK_A_DVERE
 10
387.8222481107868
 20
232.266991762092
 30
0.0
  0
VERTEX
  5
1AA
  8
BOK_A_DVERE
 10
387.8222481107868
 20
222.1921781358139
 30
0.0
  0
VERTEX
  5
1AB
  8
BOK_A_DVERE
 10
384.7998040229033
 20
222.1921781358139
 30
0.0
  0
VERTEX
  5
1AC
  8
BOK_A_DVERE
 10
384.7998040229033
 20
232.266991762092
 30
0.0
  0
SEQEND
  5
1AD
  8
BOK_A_DVERE
  0
POLYLINE
  5
4C
  8
BOK_A_DVERE
 66
     1
 10
0.0
 20
0.0
 30
0.0
 70
     1
  0
VERTEX
  5
1AE
  8
BOK_A_DVERE
 10
387.8222481107868
 20
48.45090682268051
 30
0.0
  0
VERTEX
  5
1AF
  8
BOK_A_DVERE
 10
387.8222481107868
 20
38.37609319640244
 30
0.0
  0
VERTEX
  5
1B0
  8
BOK_A_DVERE
 10
384.7998040229033
 20
38.37609319640245
 30
0.0
  0
VERTEX
  5
1B1
  8
BOK_A_DVERE
 10
384.7998040229033
 20
48.45090682268052
 30
0.0
  0
SEQEND
  5
1B2
  8
BOK_A_DVERE
  0
POLYLINE
  5
4D
  8
BOK_A_DVERE
 66
     1
 10
0.0
 20
0.0
 30
0.0
 70
     1
  0
VERTEX
  5
1B3
  8
BOK_A_DVERE
 10
387.8222481107868
 20
136.1165018740713
 30
0.0
  0
VERTEX
  5
1B4
  8
BOK_A_DVERE
 10
387.8222481107868
 20
126.0416882477932
 30
0.0
  0
VERTEX
  5
1B5
  8
BOK_A_DVERE
 10
384.7998040229034
 20
126.0416882477932
 30
0.0
  0
VERTEX
  5
1B6
  8
BOK_A_DVERE
 10
384.7998040229033
 20
136.1165018740713
 30
0.0
  0
SEQEND
  5
1B7
  8
BOK_A_DVERE
  0
POLYLINE
  5
4E
  8
BOK_A_DVERE
 66
     1
 10
0.0
 20
0.0
 30
0.0
 70
     1
  0
VERTEX
  5
1B8
  8
BOK_A_DVERE
 10
354.5753631440691
 20
157.2736104892554
 30
0.0
  0
VERTEX
  5
1B9
  8
BOK_A_DVERE
 10
329.3883290783739
 20
157.2736104892554
 30
0.0
  0
VERTEX
  5
1BA
  8
BOK_A_DVERE
 10
329.3883290783739
 20
187.4980513680896
 30
0.0
  0
VERTEX
  5
1BB
  8
BOK_A_DVERE
 10
354.5753631440691
 20
187.4980513680896
 30
0.0
  0
SEQEND
  5
1BC
  8
BOK_A_DVERE
  0
POLYLINE
  5
4F
  8
BOK_A_DVERE
 66
     1
 10
0.0
 20
0.0
 30
0.0
 70
     1
  0
VERTEX
  5
1BD
  8
BOK_A_DVERE
 10
329.388329078374
 20
149.2137595882328
 30
0.0
  0
VERTEX
  5
1BE
  8
BOK_A_DVERE
 10
354.5753631440692
 20
149.2137595882328
 30
0.0
  0
VERTEX
  5
1BF
  8
BOK_A_DVERE
 10
354.5753631440692
 20
118.9893187093986
 30
0.0
  0
VERTEX
  5
1C0
  8
BOK_A_DVERE
 10
329.388329078374
 20
118.9893187093986
 30
0.0
  0
SEQEND
  5
1C1
  8
BOK_A_DVERE
  0
POLYLINE
  5
50
  8
BOK_A_DVERE
 66
     1
 10
0.0
 20
0.0
 30
0.0
 70
     1
  0
VERTEX
  5
1C2
  8
BOK_A_DVERE
 10
329.3883290783739
 20
110.9294678083761
 30
0.0
  0
VERTEX
  5
1C3
  8
BOK_A_DVERE
 10
354.5753631440691
 20
110.9294678083761
 30
0.0
  0
VERTEX
  5
1C4
  8
BOK_A_DVERE
 10
354.5753631440691
 20
80.70502692954189
 30
0.0
  0
VERTEX
  5
1C5
  8
BOK_A_DVERE
 10
329.3883290783739
 20
80.70502692954186
 30
0.0
  0
SEQEND
  5
1C6
  8
BOK_A_DVERE
  0
POLYLINE
  5
51
  8
BOK_A_DVERE
 66
     1
 10
0.0
 20
0.0
 30
0.0
 70
     1
  0
VERTEX
  5
1C7
  8
BOK_A_DVERE
 10
354.5753631440691
 20
72.64517602851939
 30
0.0
  0
VERTEX
  5
1C8
  8
BOK_A_DVERE
 10
354.5753631440691
 20
42.42073514968516
 30
0.0
  0
VERTEX
  5
1C9
  8
BOK_A_DVERE
 10
329.388329078374
 20
42.42073514968516
 30
0.0
  0
VERTEX
  5
1CA
  8
BOK_A_DVERE
 10
329.388329078374
 20
72.64517602851942
 30
0.0
  0
SEQEND
  5
1CB
  8
BOK_A_DVERE
  0
POLYLINE
  5
53
  8
BOK_A_OKNO
 66
     1
 10
0.0
 20
0.0
 30
0.0
 70
     1
  0
VERTEX
  5
1CC
  8
BOK_A_OKNO
 10
252.3995723169463
 20
197.2860124403221
 30
0.0
  0
VERTEX
  5
1CD
  8
BOK_A_OKNO
 10
277.4398720787433
 20
197.2860124403221
 30
0.0
  0
VERTEX
  5
1CE
  8
BOK_A_OKNO
 10
277.4398720787433
 20
222.4730465060173
 30
0.0
  0
VERTEX
  5
1CF
  8
BOK_A_OKNO
 10
252.3995723169463
 20
222.4730465060173
 30
0.0
  0
SEQEND
  5
1D0
  8
BOK_A_OKNO
  0
POLYLINE
  5
54
  8
BOK_A_OKNO
 66
     1
 10
0.0
 20
0.0
 30
0.0
 70
     1
  0
VERTEX
  5
1D1
  8
BOK_A_OKNO
 10
282.6240131957805
 20
167.3490847476782
 30
0.0
  0
VERTEX
  5
1D2
  8
BOK_A_OKNO
 10
285.6464572836639
 20
167.3490847476782
 30
0.0
  0
VERTEX
  5
1D3
  8
BOK_A_OKNO
 10
285.6464572836639
 20
177.4238983739563
 30
0.0
  0
VERTEX
  5
1D4
  8
BOK_A_OKNO
 10
282.6240131957805
 20
177.4238983739563
 30
0.0
  0
SEQEND
  5
1D5
  8
BOK_A_OKNO
  0
POLYLINE
  5
55
  8
BOK_A_OKNO
 66
     1
 10
0.0
 20
0.0
 30
0.0
 70
     1
  0
VERTEX
  5
1D6
  8
BOK_A_OKNO
 10
282.6240131957805
 20
52.49620940810812
 30
0.0
  0
VERTEX
  5
1D7
  8
BOK_A_OKNO
 10
285.6464572836639
 20
52.49620940810814
 30
0.0
  0
VERTEX
  5
1D8
  8
BOK_A_OKNO
 10
285.6464572836639
 20
62.57102303438621
 30
0.0
  0
VERTEX
  5
1D9
  8
BOK_A_OKNO
 10
282.6240131957805
 20
62.57102303438618
 30
0.0
  0
SEQEND
  5
1DA
  8
BOK_A_OKNO
  0
POLYLINE
  5
56
  8
BOK_A_OKNO
 66
     1
 10
0.0
 20
0.0
 30
0.0
 70
     1
  0
VERTEX
  5
1DB
  8
BOK_A_OKNO
 10
292.069606235441
 20
242.6219416817491
 30
0.0
  0
VERTEX
  5
1DC
  8
BOK_A_OKNO
 10
301.7735281113994
 20
245.3304043138599
 30
0.0
  0
VERTEX
  5
1DD
  8
BOK_A_OKNO
 10
303.6207793501457
 20
238.5242615760804
 30
0.0
  0
VERTEX
  5
1DE
  8
BOK_A_OKNO
 10
293.6946838147078
 20
236.7995885561736
 30
0.0
  0
SEQEND
  5
1DF
  8
BOK_A_OKNO
  0
POLYLINE
  5
57
  8
BOK_A_OKNO
 66
     1
 10
0.0
 20
0.0
 30
0.0
 70
     1
  0
VERTEX
  5
1E0
  8
BOK_A_OKNO
 10
252.5474594313799
 20
232.3675942026121
 30
0.0
  0
VERTEX
  5
1E1
  8
BOK_A_OKNO
 10
262.4682861177533
 20
234.1061935180834
 30
0.0
  0
VERTEX
  5
1E2
  8
BOK_A_OKNO
 10
262.9900107273808
 20
231.1291191662926
 30
0.0
  0
VERTEX
  5
1E3
  8
BOK_A_OKNO
 10
253.0691840410073
 20
229.3905198508213
 30
0.0
  0
SEQEND
  5
1E4
  8
BOK_A_OKNO
  0
POLYLINE
  5
58
  8
BOK_A_OKNO
 66
     1
 10
0.0
 20
0.0
 30
0.0
 70
     1
  0
VERTEX
  5
1E5
  8
BOK_A_OKNO
 10
247.3621655038072
 20
224.0412635216576
 30
0.0
  0
VERTEX
  5
1E6
  8
BOK_A_OKNO
 10
247.3621655038072
 20
213.9664498953795
 30
0.0
  0
VERTEX
  5
1E7
  8
BOK_A_OKNO
 10
244.3397214159238
 20
213.9664498953795
 30
0.0
  0
VERTEX
  5
1E8
  8
BOK_A_OKNO
 10
244.3397214159238
 20
224.0412635216576
 30
0.0
  0
SEQEND
  5
1E9
  8
BOK_A_OKNO
  0
POLYLINE
  5
59
  8
BOK_A_OKNO
 66
     1
 10
0.0
 20
0.0
 30
0.0
 70
     1
  0
VERTEX
  5
1EA
  8
BOK_A_OKNO
 10
247.3621655038072
 20
136.2057970904171
 30
0.0
  0
VERTEX
  5
1EB
  8
BOK_A_OKNO
 10
247.3621655038072
 20
126.130983464139
 30
0.0
  0
VERTEX
  5
1EC
  8
BOK_A_OKNO
 10
244.3397214159238
 20
126.130983464139
 30
0.0
  0
VERTEX
  5
1ED
  8
BOK_A_OKNO
 10
244.3397214159238
 20
136.2057970904171
 30
0.0
  0
SEQEND
  5
1EE
  8
BOK_A_OKNO
  0
POLYLINE
  5
5A
  8
BOK_A_OKNO
 66
     1
 10
0.0
 20
0.0
 30
0.0
 70
     1
  0
VERTEX
  5
1EF
  8
BOK_A_OKNO
 10
247.3621655038072
 20
48.5402020390263
 30
0.0
  0
VERTEX
  5
1F0
  8
BOK_A_OKNO
 10
247.3621655038072
 20
38.46538841274822
 30
0.0
  0
VERTEX
  5
1F1
  8
BOK_A_OKNO
 10
244.3397214159238
 20
38.46538841274822
 30
0.0
  0
VERTEX
  5
1F2
  8
BOK_A_OKNO
 10
244.3397214159238
 20
48.5402020390263
 30
0.0
  0
SEQEND
  5
1F3
  8
BOK_A_OKNO
  0
POLYLINE
  5
5B
  8
BOK_A_OKNO
 66
     1
 10
0.0
 20
0.0
 30
0.0
 70
     1
  0
VERTEX
  5
1F4
  8
BOK_A_OKNO
 10
300.8329757266287
 20
32.34658215555196
 30
0.0
  0
VERTEX
  5
1F5
  8
BOK_A_OKNO
 10
290.7581621003505
 20
32.34658215555196
 30
0.0
  0
VERTEX
  5
1F6
  8
BOK_A_OKNO
 10
290.7581621003505
 20
35.36902624343539
 30
0.0
  0
VERTEX
  5
1F7
  8
BOK_A_OKNO
 10
300.8329757266287
 20
35.3690262434354
 30
0.0
  0
SEQEND
  5
1F8
  8
BOK_A_OKNO
  0
POLYLINE
  5
5C
  8
BOK_A_OKNO
 66
     1
 10
0.0
 20
0.0
 30
0.0
 70
     1
  0
VERTEX
  5
1F9
  8
BOK_A_OKNO
 10
260.5337212215163
 20
35.36902624343539
 30
0.0
  0
VERTEX
  5
1FA
  8
BOK_A_OKNO
 10
260.5337212215163
 20
32.34658215555196
 30
0.0
  0
VERTEX
  5
1FB
  8
BOK_A_OKNO
 10
250.4589075952382
 20
32.34658215555196
 30
0.0
  0
VERTEX
  5
1FC
  8
BOK_A_OKNO
 10
250.4589075952382
 20
35.36902624343539
 30
0.0
  0
SEQEND
  5
1FD
  8
BOK_A_OKNO
  0
POLYLINE
  5
5D
  8
BOK_A_OKNO
 66
     1
 10
0.0
 20
0.0
 30
0.0
 70
     1
  0
VERTEX
  5
1FE
  8
BOK_A_OKNO
 10
310.8334913493592
 20
232.3562869784378
 30
0.0
  0
VERTEX
  5
1FF
  8
BOK_A_OKNO
 10
310.8334913493592
 20
222.2814733521597
 30
0.0
  0
VERTEX
  5
200
  8
BOK_A_OKNO
 10
307.8110472614758
 20
222.2814733521597
 30
0.0
  0
VERTEX
  5
201
  8
BOK_A_OKNO
 10
307.8110472614758
 20
232.3562869784378
 30
0.0
  0
SEQEND
  5
202
  8
BOK_A_OKNO
  0
POLYLINE
  5
5E
  8
BOK_A_OKNO
 66
     1
 10
0.0
 20
0.0
 30
0.0
 70
     1
  0
VERTEX
  5
203
  8
BOK_A_OKNO
 10
310.8334913493592
 20
48.54020203902629
 30
0.0
  0
VERTEX
  5
204
  8
BOK_A_OKNO
 10
310.8334913493592
 20
38.46538841274822
 30
0.0
  0
VERTEX
  5
205
  8
BOK_A_OKNO
 10
307.8110472614758
 20
38.46538841274821
 30
0.0
  0
VERTEX
  5
206
  8
BOK_A_OKNO
 10
307.8110472614758
 20
48.54020203902629
 30
0.0
  0
SEQEND
  5
207
  8
BOK_A_OKNO
  0
POLYLINE
  5
5F
  8
BOK_A_OKNO
 66
     1
 10
0.0
 20
0.0
 30
0.0
 70
     1
  0
VERTEX
  5
208
  8
BOK_A_OKNO
 10
310.8334913493592
 20
136.1171625062161
 30
0.0
  0
VERTEX
  5
209
  8
BOK_A_OKNO
 10
310.8334913493592
 20
126.0423488799381
 30
0.0
  0
VERTEX
  5
20A
  8
BOK_A_OKNO
 10
307.8110472614758
 20
126.0423488799381
 30
0.0
  0
VERTEX
  5
20B
  8
BOK_A_OKNO
 10
307.8110472614758
 20
136.1171625062161
 30
0.0
  0
SEQEND
  5
20C
  8
BOK_A_OKNO
  0
POLYLINE
  5
60
  8
BOK_A_OKNO
 66
     1
 10
0.0
 20
0.0
 30
0.0
 70
     1
  0
VERTEX
  5
20D
  8
BOK_A_OKNO
 10
277.5866063826415
 20
157.2742711214002
 30
0.0
  0
VERTEX
  5
20E
  8
BOK_A_OKNO
 10
252.3995723169463
 20
157.2742711214002
 30
0.0
  0
VERTEX
  5
20F
  8
BOK_A_OKNO
 10
252.3995723169463
 20
187.4987120002345
 30
0.0
  0
VERTEX
  5
210
  8
BOK_A_OKNO
 10
277.5866063826415
 20
187.4987120002345
 30
0.0
  0
SEQEND
  5
211
  8
BOK_A_OKNO
  0
POLYLINE
  5
61
  8
BOK_A_OKNO
 66
     1
 10
0.0
 20
0.0
 30
0.0
 70
     1
  0
VERTEX
  5
212
  8
BOK_A_OKNO
 10
252.1044077959827
 20
149.2144202203777
 30
0.0
  0
VERTEX
  5
213
  8
BOK_A_OKNO
 10
277.2914418616779
 20
149.2144202203777
 30
0.0
  0
VERTEX
  5
214
  8
BOK_A_OKNO
 10
277.2914418616778
 20
118.9899793415435
 30
0.0
  0
VERTEX
  5
215
  8
BOK_A_OKNO
 10
252.1044077959827
 20
118.9899793415435
 30
0.0
  0
SEQEND
  5
216
  8
BOK_A_OKNO
  0
POLYLINE
  5
62
  8
BOK_A_OKNO
 66
     1
 10
0.0
 20
0.0
 30
0.0
 70
     1
  0
VERTEX
  5
217
  8
BOK_A_OKNO
 10
252.3995723169463
 20
110.930128440521
 30
0.0
  0
VERTEX
  5
218
  8
BOK_A_OKNO
 10
277.5866063826415
 20
110.930128440521
 30
0.0
  0
VERTEX
  5
219
  8
BOK_A_OKNO
 10
277.5866063826414
 20
80.70568756168677
 30
0.0
  0
VERTEX
  5
21A
  8
BOK_A_OKNO
 10
252.3995723169463
 20
80.70568756168674
 30
0.0
  0
SEQEND
  5
21B
  8
BOK_A_OKNO
  0
POLYLINE
  5
63
  8
BOK_A_OKNO
 66
     1
 10
0.0
 20
0.0
 30
0.0
 70
     1
  0
VERTEX
  5
21C
  8
BOK_A_OKNO
 10
277.5866063826415
 20
72.64583666066429
 30
0.0
  0
VERTEX
  5
21D
  8
BOK_A_OKNO
 10
277.5866063826415
 20
42.42139578183003
 30
0.0
  0
VERTEX
  5
21E
  8
BOK_A_OKNO
 10
252.3995723169463
 20
42.42139578183004
 30
0.0
  0
VERTEX
  5
21F
  8
BOK_A_OKNO
 10
252.3995723169463
 20
72.64583666066429
 30
0.0
  0
SEQEND
  5
220
  8
BOK_A_OKNO
  0
POLYLINE
  5
65
  8
DVERE
 66
     1
 10
0.0
 20
0.0
 30
0.0
 70
     1
  0
VERTEX
  5
221
  8
DVERE
 10
380.8096922749629
 20
300.0132914421054
 30
0.0
 42
0.4142135623731011
  0
VERTEX
  5
222
  8
DVERE
 10
382.8246550002185
 20
302.028254167361
 30
0.0
  0
VERTEX
  5
223
  8
DVERE
 10
382.8246550002185
 20
305.0506982552445
 30
0.0
 42
0.4142135623731011
  0
VERTEX
  5
224
  8
DVERE
 10
380.8096922749629
 20
307.0656609805001
 30
0.0
  0
VERTEX
  5
225
  8
DVERE
 10
344.5403632203618
 20
307.0656609805001
 30
0.0
 42
0.4142135623731029
  0
VERTEX
  5
226
  8
DVERE
 10
342.5254004951062
 20
305.0506982552445
 30
0.0
  0
VERTEX
  5
227
  8
DVERE
 10
342.5254004951062
 20
302.028254167361
 30
0.0
 42
0.4142135623731029
  0
VERTEX
  5
228
  8
DVERE
 10
344.5403632203618
 20
300.0132914421054
 30
0.0
  0
SEQEND
  5
229
  8
DVERE
  0
POLYLINE
  5
66
  8
DVERE
 66
     1
 10
0.0
 20
0.0
 30
0.0
 70
     1
  0
VERTEX
  5
22A
  8
DVERE
 10
381.3471844024741
 20
283.0589877436749
 30
0.0
 42
0.4142135623730999
  0
VERTEX
  5
22B
  8
DVERE
 10
383.3621471277297
 20
285.0739504689305
 30
0.0
  0
VERTEX
  5
22C
  8
DVERE
 10
383.3621471277297
 20
288.0963945568139
 30
0.0
 42
0.4142135623731011
  0
VERTEX
  5
22D
  8
DVERE
 10
381.3471844024741
 20
290.1113572820695
 30
0.0
  0
VERTEX
  5
22E
  8
DVERE
 10
345.077855347873
 20
290.1113572820695
 30
0.0
 42
0.4142135623731029
  0
VERTEX
  5
22F
  8
DVERE
 10
343.0628926226174
 20
288.0963945568139
 30
0.0
  0
VERTEX
  5
230
  8
DVERE
 10
343.0628926226174
 20
285.0739504689305
 30
0.0
 42
0.4142135623731029
  0
VERTEX
  5
231
  8
DVERE
 10
345.077855347873
 20
283.0589877436749
 30
0.0
  0
SEQEND
  5
232
  8
DVERE
  0
POLYLINE
  5
68
  8
MASKA
 66
     1
 10
0.0
 20
0.0
 30
0.0
 70
     1
  0
VERTEX
  5
233
  8
MASKA
 10
323.9581053927513
 20
296.7301727331593
 30
0.0
  0
VERTEX
  5
234
  8
MASKA
 10
323.9581053927513
 20
266.5057318543251
 30
0.0
  0
VERTEX
  5
235
  8
MASKA
 10
324.965586755379
 20
266.5057318543251
 30
0.0
  0
VERTEX
  5
236
  8
MASKA
 10
324.965586755379
 20
296.7301727331593
 30
0.0
  0
SEQEND
  5
237
  8
MASKA
  0
POLYLINE
  5
69
  8
MASKA
 66
     1
 10
0.0
 20
0.0
 30
0.0
 70
     1
  0
VERTEX
  5
238
  8
MASKA
 10
322.9506240301234
 20
266.5057318543251
 30
0.0
  0
VERTEX
  5
239
  8
MASKA
 10
321.9431426674957
 20
266.5057318543251
 30
0.0
  0
VERTEX
  5
23A
  8
MASKA
 10
321.9431426674957
 20
296.7301727331593
 30
0.0
  0
VERTEX
  5
23B
  8
MASKA
 10
322.9506240301234
 20
296.7301727331593
 30
0.0
  0
SEQEND
  5
23C
  8
MASKA
  0
POLYLINE
  5
6A
  8
MASKA
 66
     1
 10
0.0
 20
0.0
 30
0.0
 70
     1
  0
VERTEX
  5
23D
  8
MASKA
 10
320.9356613048678
 20
266.5057318543251
 30
0.0
  0
VERTEX
  5
23E
  8
MASKA
 10
320.9356613048678
 20
296.7301727331593
 30
0.0
  0
VERTEX
  5
23F
  8
MASKA
 10
319.92817994224
 20
296.7301727331593
 30
0.0
  0
VERTEX
  5
240
  8
MASKA
 10
319.92817994224
 20
266.5057318543251
 30
0.0
  0
SEQEND
  5
241
  8
MASKA
  0
POLYLINE
  5
6B
  8
MASKA
 66
     1
 10
0.0
 20
0.0
 30
0.0
 70
     1
  0
VERTEX
  5
242
  8
MASKA
 10
318.4169578982983
 20
259.4533623159303
 30
0.0
 42
0.4142135623730951
  0
VERTEX
  5
243
  8
MASKA
 10
323.4543647114373
 20
254.4159555027913
 30
0.0
 42
0.4142135623730951
  0
VERTEX
  5
244
  8
MASKA
 10
328.4917715245763
 20
259.4533623159303
 30
0.0
 42
0.4142135623730951
  0
VERTEX
  5
245
  8
MASKA
 10
323.4543647114373
 20
264.4907691290695
 30
0.0
 42
0.4142135623730951
  0
SEQEND
  5
246
  8
MASKA
  0
POLYLINE
  5
6C
  8
MASKA
 66
     1
 10
0.0
 20
0.0
 30
0.0
 70
     1
  0
VERTEX
  5
247
  8
MASKA
 10
318.4169578982983
 20
303.7825422715538
 30
0.0
 42
0.4142135623730951
  0
VERTEX
  5
248
  8
MASKA
 10
323.4543647114373
 20
298.7451354584148
 30
0.0
 42
0.4142135623730951
  0
VERTEX
  5
249
  8
MASKA
 10
328.4917715245763
 20
303.7825422715538
 30
0.0
 42
0.4142135623730951
  0
VERTEX
  5
24A
  8
MASKA
 10
323.4543647114373
 20
308.8199490846928
 30
0.0
 42
0.4142135623730951
  0
SEQEND
  5
24B
  8
MASKA
  0
POLYLINE
  5
6D
  8
MASKA
 66
     1
 10
0.0
 20
0.0
 30
0.0
 70
     1
  0
VERTEX
  5
24C
  8
MASKA
 10
325.9730681180069
 20
296.7301727331593
 30
0.0
  0
VERTEX
  5
24D
  8
MASKA
 10
325.9730681180069
 20
266.5057318543251
 30
0.0
  0
VERTEX
  5
24E
  8
MASKA
 10
326.9805494806347
 20
266.5057318543251
 30
0.0
  0
VERTEX
  5
24F
  8
MASKA
 10
326.9805494806347
 20
296.7301727331592
 30
0.0
  0
SEQEND
  5
250
  8
MASKA
  0
POLYLINE
  5
6F
  8
NABOJ
 66
     1
 10
0.0
 20
0.0
 30
0.0
 70
     1
  0
VERTEX
  5
251
  8
NABOJ
 10
373.9948563342288
 20
360.781532692498
 30
0.0
 42
0.4142135623730951
  0
VERTEX
  5
252
  8
NABOJ
 10
380.5434851913095
 20
354.2329038354172
 30
0.0
 42
0.4142135623730951
  0
VERTEX
  5
253
  8
NABOJ
 10
387.0921140483903
 20
360.781532692498
 30
0.0
 42
0.4142135623730951
  0
VERTEX
  5
254
  8
NABOJ
 10
380.5434851913095
 20
367.3301615495787
 30
0.0
 42
0.4142135623730951
  0
SEQEND
  5
255
  8
NABOJ
  0
POLYLINE
  5
70
  8
NABOJ
 66
     1
 10
0.0
 20
0.0
 30
0.0
 70
     1
  0
VERTEX
  5
256
  8
NABOJ
 10
379.0322631473678
 20
355.7441258793589
 30
0.0
  0
VERTEX
  5
257
  8
NABOJ
 10
382.0547072352512
 20
355.7441258793589
 30
0.0
  0
VERTEX
  5
258
  8
NABOJ
 10
382.0547072352512
 20
365.8189395056371
 30
0.0
  0
VERTEX
  5
259
  8
NABOJ
 10
379.0322631473678
 20
365.8189395056371
 30
0.0
  0
SEQEND
  5
25A
  8
NABOJ
  0
POLYLINE
  5
71
  8
NABOJ
 66
     1
 10
0.0
 20
0.0
 30
0.0
 70
     1
  0
VERTEX
  5
25B
  8
NABOJ
 10
374.7560446072937
 20
381.3336160652518
 30
0.0
 42
0.4142135623730951
  0
VERTEX
  5
25C
  8
NABOJ
 10
381.3046734643745
 20
374.7849872081711
 30
0.0
 42
0.4142135623730951
  0
VERTEX
  5
25D
  8
NABOJ
 10
387.8533023214553
 20
381.3336160652518
 30
0.0
 42
0.4142135623730951
  0
VERTEX
  5
25E
  8
NABOJ
 10
381.3046734643745
 20
387.8822449223326
 30
0.0
 42
0.4142135623730951
  0
SEQEND
  5
25F
  8
NABOJ
  0
POLYLINE
  5
72
  8
NABOJ
 66
     1
 10
0.0
 20
0.0
 30
0.0
 70
     1
  0
VERTEX
  5
260
  8
NABOJ
 10
379.7934514204327
 20
376.2962092521127
 30
0.0
  0
VERTEX
  5
261
  8
NABOJ
 10
382.8158955083162
 20
376.2962092521127
 30
0.0
  0
VERTEX
  5
262
  8
NABOJ
 10
382.8158955083162
 20
386.3710228783908
 30
0.0
  0
VERTEX
  5
263
  8
NABOJ
 10
379.7934514204327
 20
386.3710228783909
 30
0.0
  0
SEQEND
  5
264
  8
NABOJ
  0
POLYLINE
  5
73
  8
NABOJ
 66
     1
 10
0.0
 20
0.0
 30
0.0
 70
     1
  0
VERTEX
  5
265
  8
NABOJ
 10
375.5172328803587
 20
401.8856994380058
 30
0.0
 42
0.4142135623730951
  0
VERTEX
  5
266
  8
NABOJ
 10
382.0658617374394
 20
395.337070580925
 30
0.0
 42
0.4142135623730951
  0
VERTEX
  5
267
  8
NABOJ
 10
388.6144905945201
 20
401.8856994380058
 30
0.0
 42
0.4142135623730951
  0
VERTEX
  5
268
  8
NABOJ
 10
382.0658617374394
 20
408.4343282950865
 30
0.0
 42
0.4142135623730951
  0
SEQEND
  5
269
  8
NABOJ
  0
POLYLINE
  5
74
  8
NABOJ
 66
     1
 10
0.0
 20
0.0
 30
0.0
 70
     1
  0
VERTEX
  5
26A
  8
NABOJ
 10
380.5546396934976
 20
396.8482926248667
 30
0.0
  0
VERTEX
  5
26B
  8
NABOJ
 10
383.5770837813811
 20
396.8482926248667
 30
0.0
  0
VERTEX
  5
26C
  8
NABOJ
 10
383.5770837813811
 20
406.9231062511449
 30
0.0
  0
VERTEX
  5
26D
  8
NABOJ
 10
380.5546396934976
 20
406.9231062511449
 30
0.0
  0
SEQEND
  5
26E
  8
NABOJ
  0
POLYLINE
  5
75
  8
NABOJ
 66
     1
 10
0.0
 20
0.0
 30
0.0
 70
     1
  0
VERTEX
  5
26F
  8
NABOJ
 10
376.2784211534237
 20
423.1989710838248
 30
0.0
 42
0.4142135623730951
  0
VERTEX
  5
270
  8
NABOJ
 10
382.8270500105044
 20
416.650342226744
 30
0.0
 42
0.4142135623730951
  0
VERTEX
  5
271
  8
NABOJ
 10
389.3756788675852
 20
423.1989710838248
 30
0.0
 42
0.4142135623730951
  0
VERTEX
  5
272
  8
NABOJ
 10
382.8270500105044
 20
429.7475999409056
 30
0.0
 42
0.4142135623730951
  0
SEQEND
  5
273
  8
NABOJ
  0
POLYLINE
  5
76
  8
NABOJ
 66
     1
 10
0.0
 20
0.0
 30
0.0
 70
     1
  0
VERTEX
  5
274
  8
NABOJ
 10
381.3158279665627
 20
418.1615642706857
 30
0.0
  0
VERTEX
  5
275
  8
NABOJ
 10
384.3382720544462
 20
418.1615642706857
 30
0.0
  0
VERTEX
  5
276
  8
NABOJ
 10
384.3382720544462
 20
428.2363778969638
 30
0.0
  0
VERTEX
  5
277
  8
NABOJ
 10
381.3158279665627
 20
428.2363778969638
 30
0.0
  0
SEQEND
  5
278
  8
NABOJ
  0
POLYLINE
  5
77
  8
NABOJ
 66
     1
 10
0.0
 20
0.0
 30
0.0
 70
     1
  0
VERTEX
  5
279
  8
NABOJ
 10
357.2487143267995
 20
359.2591561463679
 30
0.0
 42
0.4142135623730951
  0
VERTEX
  5
27A
  8
NABOJ
 10
363.7973431838803
 20
352.7105272892871
 30
0.0
 42
0.4142135623730951
  0
VERTEX
  5
27B
  8
NABOJ
 10
370.345972040961
 20
359.2591561463679
 30
0.0
 42
0.4142135623730951
  0
VERTEX
  5
27C
  8
NABOJ
 10
363.7973431838803
 20
365.8077850034487
 30
0.0
 42
0.4142135623730951
  0
SEQEND
  5
27D
  8
NABOJ
  0
POLYLINE
  5
78
  8
NABOJ
 66
     1
 10
0.0
 20
0.0
 30
0.0
 70
     1
  0
VERTEX
  5
27E
  8
NABOJ
 10
362.2861211399386
 20
354.2217493332288
 30
0.0
  0
VERTEX
  5
27F
  8
NABOJ
 10
365.308565227822
 20
354.2217493332288
 30
0.0
  0
VERTEX
  5
280
  8
NABOJ
 10
365.308565227822
 20
364.296562959507
 30
0.0
  0
VERTEX
  5
281
  8
NABOJ
 10
362.2861211399386
 20
364.296562959507
 30
0.0
  0
SEQEND
  5
282
  8
NABOJ
  0
POLYLINE
  5
79
  8
NABOJ
 66
     1
 10
0.0
 20
0.0
 30
0.0
 70
     1
  0
VERTEX
  5
283
  8
NABOJ
 10
358.0099025998645
 20
379.811239519122
 30
0.0
 42
0.4142135623730951
  0
VERTEX
  5
284
  8
NABOJ
 10
364.5585314569453
 20
373.2626106620412
 30
0.0
 42
0.4142135623730951
  0
VERTEX
  5
285
  8
NABOJ
 10
371.107160314026
 20
379.811239519122
 30
0.0
 42
0.4142135623730951
  0
VERTEX
  5
286
  8
NABOJ
 10
364.5585314569453
 20
386.3598683762027
 30
0.0
 42
0.4142135623730951
  0
SEQEND
  5
287
  8
NABOJ
  0
POLYLINE
  5
7A
  8
NABOJ
 66
     1
 10
0.0
 20
0.0
 30
0.0
 70
     1
  0
VERTEX
  5
288
  8
NABOJ
 10
363.0473094130036
 20
374.7738327059829
 30
0.0
  0
VERTEX
  5
289
  8
NABOJ
 10
366.069753500887
 20
374.7738327059829
 30
0.0
  0
VERTEX
  5
28A
  8
NABOJ
 10
366.069753500887
 20
384.848646332261
 30
0.0
  0
VERTEX
  5
28B
  8
NABOJ
 10
363.0473094130036
 20
384.848646332261
 30
0.0
  0
SEQEND
  5
28C
  8
NABOJ
  0
POLYLINE
  5
7B
  8
NABOJ
 66
     1
 10
0.0
 20
0.0
 30
0.0
 70
     1
  0
VERTEX
  5
28D
  8
NABOJ
 10
356.4875260537345
 20
400.3633228918759
 30
0.0
 42
0.4142135623730951
  0
VERTEX
  5
28E
  8
NABOJ
 10
363.0361549108152
 20
393.8146940347951
 30
0.0
 42
0.4142135623730951
  0
VERTEX
  5
28F
  8
NABOJ
 10
369.584783767896
 20
400.3633228918759
 30
0.0
 42
0.4142135623730951
  0
VERTEX
  5
290
  8
NABOJ
 10
363.0361549108152
 20
406.9119517489567
 30
0.0
 42
0.4142135623730951
  0
SEQEND
  5
291
  8
NABOJ
  0
POLYLINE
  5
7C
  8
NABOJ
 66
     1
 10
0.0
 20
0.0
 30
0.0
 70
     1
  0
VERTEX
  5
292
  8
NABOJ
 10
361.5249328668736
 20
395.3259160787369
 30
0.0
  0
VERTEX
  5
293
  8
NABOJ
 10
364.5473769547569
 20
395.3259160787369
 30
0.0
  0
VERTEX
  5
294
  8
NABOJ
 10
364.5473769547569
 20
405.400729705015
 30
0.0
  0
VERTEX
  5
295
  8
NABOJ
 10
361.5249328668736
 20
405.400729705015
 30
0.0
  0
SEQEND
  5
296
  8
NABOJ
  0
POLYLINE
  5
7D
  8
NABOJ
 66
     1
 10
0.0
 20
0.0
 30
0.0
 70
     1
  0
VERTEX
  5
297
  8
NABOJ
 10
357.2487143267995
 20
420.9154062646298
 30
0.0
 42
0.4142135623730951
  0
VERTEX
  5
298
  8
NABOJ
 10
363.7973431838803
 20
414.3667774075491
 30
0.0
 42
0.4142135623730951
  0
VERTEX
  5
299
  8
NABOJ
 10
370.345972040961
 20
420.9154062646298
 30
0.0
 42
0.4142135623730951
  0
VERTEX
  5
29A
  8
NABOJ
 10
363.7973431838803
 20
427.4640351217106
 30
0.0
 42
0.4142135623730951
  0
SEQEND
  5
29B
  8
NABOJ
  0
POLYLINE
  5
7E
  8
NABOJ
 66
     1
 10
0.0
 20
0.0
 30
0.0
 70
     1
  0
VERTEX
  5
29C
  8
NABOJ
 10
362.2861211399386
 20
415.8779994514908
 30
0.0
  0
VERTEX
  5
29D
  8
NABOJ
 10
365.308565227822
 20
415.8779994514908
 30
0.0
  0
VERTEX
  5
29E
  8
NABOJ
 10
365.308565227822
 20
425.9528130777688
 30
0.0
  0
VERTEX
  5
29F
  8
NABOJ
 10
362.2861211399386
 20
425.9528130777688
 30
0.0
  0
SEQEND
  5
2A0
  8
NABOJ
  0
POLYLINE
  5
80
  8
PANT
 66
     1
 10
0.0
 20
0.0
 30
0.0
 70
     1
  0
VERTEX
  5
2A1
  8
PANT
 10
344.4898282782609
 20
387.3397317836624
 30
0.0
  0
VERTEX
  5
2A2
  8
PANT
 10
347.5122723661443
 20
387.3397317836624
 30
0.0
  0
VERTEX
  5
2A3
  8
PANT
 10
347.5122723661443
 20
390.3621758715458
 30
0.0
  0
VERTEX
  5
2A4
  8
PANT
 10
344.4898282782609
 20
390.3621758715458
 30
0.0
  0
SEQEND
  5
2A5
  8
PANT
  0
POLYLINE
  5
81
  8
PANT
 66
     1
 10
0.0
 20
0.0
 30
0.0
 70
     1
  0
VERTEX
  5
2A6
  8
PANT
 10
345.8038475948006
 20
408.3640408482979
 30
0.0
  0
VERTEX
  5
2A7
  8
PANT
 10
348.826291682684
 20
408.3640408482979
 30
0.0
  0
VERTEX
  5
2A8
  8
PANT
 10
348.826291682684
 20
411.3864849361813
 30
0.0
  0
VERTEX
  5
2A9
  8
PANT
 10
345.8038475948006
 20
411.3864849361813
 30
0.0
  0
SEQEND
  5
2AA
  8
PANT
  0
POLYLINE
  5
82
  8
PANT
 66
     1
 10
0.0
 20
0.0
 30
0.0
 70
     1
  0
VERTEX
  5
2AB
  8
PANT
 10
346.0228508142239
 20
426.7603112798539
 30
0.0
  0
VERTEX
  5
2AC
  8
PANT
 10
349.0452949021073
 20
426.7603112798539
 30
0.0
  0
VERTEX
  5
2AD
  8
PANT
 10
349.0452949021073
 20
429.7827553677373
 30
0.0
  0
VERTEX
  5
2AE
  8
PANT
 10
346.0228508142239
 20
429.7827553677373
 30
0.0
  0
SEQEND
  5
2AF
  8
PANT
  0
POLYLINE
  5
83
  8
PANT
 66
     1
 10
0.0
 20
0.0
 30
0.0
 70
     1
  0
VERTEX
  5
2B0
  8
PANT
 10
362.4480922709703
 20
435.5204400567852
 30
0.0
  0
VERTEX
  5
2B1
  8
PANT
 10
365.4705363588537
 20
435.5204400567852
 30
0.0
  0
VERTEX
  5
2B2
  8
PANT
 10
365.4705363588537
 20
438.5428841446686
 30
0.0
  0
VERTEX
  5
2B3
  8
PANT
 10
362.4480922709703
 20
438.5428841446686
 30
0.0
  0
SEQEND
  5
2B4
  8
PANT
  0
POLYLINE
  5
85
  8
PODLAHA
 66
     1
 10
0.0
 20
0.0
 30
0.0
 70
     1
  0
VERTEX
  5
2B5
  8
PODLAHA
 10
178.6430671603611
 20
218.8442744859574
 30
0.0
  0
VERTEX
  5
2B6
  8
PODLAHA
 10
181.6655112482445
 20
218.8442744859573
 30
0.0
  0
VERTEX
  5
2B7
  8
PODLAHA
 10
181.6655112482445
 20
225.1211923287103
 30
0.0
  0
VERTEX
  5
2B8
  8
PODLAHA
 10
178.6430671603611
 20
225.1211923287103
 30
0.0
  0
SEQEND
  5
2B9
  8
PODLAHA
  0
POLYLINE
  5
86
  8
PODLAHA
 66
     1
 10
0.0
 20
0.0
 30
0.0
 70
     1
  0
VERTEX
  5
2BA
  8
PODLAHA
 10
175.1168823911637
 20
198.9266769003873
 30
0.0
  0
VERTEX
  5
2BB
  8
PODLAHA
 10
175.1168823911637
 20
195.9042328125039
 30
0.0
  0
VERTEX
  5
2BC
  8
PODLAHA
 10
185.1916960174418
 20
195.9042328125039
 30
0.0
  0
VERTEX
  5
2BD
  8
PODLAHA
 10
185.1916960174418
 20
198.9266769003873
 30
0.0
  0
SEQEND
  5
2BE
  8
PODLAHA
  0
POLYLINE
  5
87
  8
PODLAHA
 66
     1
 10
0.0
 20
0.0
 30
0.0
 70
     1
  0
VERTEX
  5
2BF
  8
PODLAHA
 10
208.3637673578814
 20
166.6872732962973
 30
0.0
  0
VERTEX
  5
2C0
  8
PODLAHA
 10
218.4385809841595
 20
166.6872732962974
 30
0.0
  0
VERTEX
  5
2C1
  8
PODLAHA
 10
218.4385809841595
 20
169.7097173841807
 30
0.0
  0
VERTEX
  5
2C2
  8
PODLAHA
 10
208.3637673578814
 20
169.7097173841807
 30
0.0
  0
SEQEND
  5
2C3
  8
PODLAHA
  0
POLYLINE
  5
88
  8
PODLAHA
 66
     1
 10
0.0
 20
0.0
 30
0.0
 70
     1
  0
VERTEX
  5
2C4
  8
PODLAHA
 10
175.1168823911637
 20
169.7097173841807
 30
0.0
  0
VERTEX
  5
2C5
  8
PODLAHA
 10
175.1168823911637
 20
166.6872732962973
 30
0.0
  0
VERTEX
  5
2C6
  8
PODLAHA
 10
185.1916960174418
 20
166.6872732962973
 30
0.0
  0
VERTEX
  5
2C7
  8
PODLAHA
 10
185.1916960174418
 20
169.7097173841807
 30
0.0
  0
SEQEND
  5
2C8
  8
PODLAHA
  0
POLYLINE
  5
89
  8
PODLAHA
 66
     1
 10
0.0
 20
0.0
 30
0.0
 70
     1
  0
VERTEX
  5
2C9
  8
PODLAHA
 10
208.3637673578814
 20
141.5002392306022
 30
0.0
  0
VERTEX
  5
2CA
  8
PODLAHA
 10
218.4385809841595
 20
141.5002392306022
 30
0.0
  0
VERTEX
  5
2CB
  8
PODLAHA
 10
218.4385809841595
 20
144.5226833184856
 30
0.0
  0
VERTEX
  5
2CC
  8
PODLAHA
 10
208.3637673578814
 20
144.5226833184856
 30
0.0
  0
SEQEND
  5
2CD
  8
PODLAHA
  0
POLYLINE
  5
8A
  8
PODLAHA
 66
     1
 10
0.0
 20
0.0
 30
0.0
 70
     1
  0
VERTEX
  5
2CE
  8
PODLAHA
 10
175.1168823911637
 20
144.5226833184856
 30
0.0
  0
VERTEX
  5
2CF
  8
PODLAHA
 10
175.1168823911637
 20
141.5002392306022
 30
0.0
  0
VERTEX
  5
2D0
  8
PODLAHA
 10
185.1916960174418
 20
141.5002392306022
 30
0.0
  0
VERTEX
  5
2D1
  8
PODLAHA
 10
185.1916960174418
 20
144.5226833184856
 30
0.0
  0
SEQEND
  5
2D2
  8
PODLAHA
  0
POLYLINE
  5
8B
  8
PODLAHA
 66
     1
 10
0.0
 20
0.0
 30
0.0
 70
     1
  0
VERTEX
  5
2D3
  8
PODLAHA
 10
208.3637673578814
 20
116.313205164907
 30
0.0
  0
VERTEX
  5
2D4
  8
PODLAHA
 10
218.4385809841595
 20
116.313205164907
 30
0.0
  0
VERTEX
  5
2D5
  8
PODLAHA
 10
218.4385809841595
 20
119.3356492527904
 30
0.0
  0
VERTEX
  5
2D6
  8
PODLAHA
 10
208.3637673578814
 20
119.3356492527904
 30
0.0
  0
SEQEND
  5
2D7
  8
PODLAHA
  0
POLYLINE
  5
8C
  8
PODLAHA
 66
     1
 10
0.0
 20
0.0
 30
0.0
 70
     1
  0
VERTEX
  5
2D8
  8
PODLAHA
 10
175.1168823911637
 20
119.3356492527904
 30
0.0
  0
VERTEX
  5
2D9
  8
PODLAHA
 10
175.1168823911637
 20
116.313205164907
 30
0.0
  0
VERTEX
  5
2DA
  8
PODLAHA
 10
185.1916960174418
 20
116.313205164907
 30
0.0
  0
VERTEX
  5
2DB
  8
PODLAHA
 10
185.1916960174418
 20
119.3356492527904
 30
0.0
  0
SEQEND
  5
2DC
  8
PODLAHA
  0
POLYLINE
  5
8D
  8
PODLAHA
 66
     1
 10
0.0
 20
0.0
 30
0.0
 70
     1
  0
VERTEX
  5
2DD
  8
PODLAHA
 10
185.1916960174418
 20
94.14861518709523
 30
0.0
  0
VERTEX
  5
2DE
  8
PODLAHA
 10
175.1168823911637
 20
94.14861518709523
 30
0.0
  0
VERTEX
  5
2DF
  8
PODLAHA
 10
175.1168823911637
 20
91.1261710992118
 30
0.0
  0
VERTEX
  5
2E0
  8
PODLAHA
 10
185.1916960174418
 20
91.1261710992118
 30
0.0
  0
SEQEND
  5
2E1
  8
PODLAHA
  0
POLYLINE
  5
8E
  8
PODLAHA
 66
     1
 10
0.0
 20
0.0
 30
0.0
 70
     1
  0
VERTEX
  5
2E2
  8
PODLAHA
 10
208.3637673578814
 20
94.14861518709523
 30
0.0
  0
VERTEX
  5
2E3
  8
PODLAHA
 10
208.3637673578814
 20
91.1261710992118
 30
0.0
  0
VERTEX
  5
2E4
  8
PODLAHA
 10
218.4385809841595
 20
91.1261710992118
 30
0.0
  0
VERTEX
  5
2E5
  8
PODLAHA
 10
218.4385809841595
 20
94.14861518709523
 30
0.0
  0
SEQEND
  5
2E6
  8
PODLAHA
  0
POLYLINE
  5
8F
  8
PODLAHA
 66
     1
 10
0.0
 20
0.0
 30
0.0
 70
     1
  0
VERTEX
  5
2E7
  8
PODLAHA
 10
185.1916960174418
 20
68.96158112140006
 30
0.0
  0
VERTEX
  5
2E8
  8
PODLAHA
 10
175.1168823911637
 20
68.96158112140006
 30
0.0
  0
VERTEX
  5
2E9
  8
PODLAHA
 10
175.1168823911637
 20
65.93913703351663
 30
0.0
  0
VERTEX
  5
2EA
  8
PODLAHA
 10
185.1916960174418
 20
65.93913703351663
 30
0.0
  0
SEQEND
  5
2EB
  8
PODLAHA
  0
POLYLINE
  5
90
  8
PODLAHA
 66
     1
 10
0.0
 20
0.0
 30
0.0
 70
     1
  0
VERTEX
  5
2EC
  8
PODLAHA
 10
208.3637673578814
 20
68.96158112140006
 30
0.0
  0
VERTEX
  5
2ED
  8
PODLAHA
 10
208.3637673578814
 20
65.93913703351663
 30
0.0
  0
VERTEX
  5
2EE
  8
PODLAHA
 10
218.4385809841595
 20
65.93913703351663
 30
0.0
  0
VERTEX
  5
2EF
  8
PODLAHA
 10
218.4385809841595
 20
68.96158112140006
 30
0.0
  0
SEQEND
  5
2F0
  8
PODLAHA
  0
POLYLINE
  5
91
  8
PODLAHA
 66
     1
 10
0.0
 20
0.0
 30
0.0
 70
     1
  0
VERTEX
  5
2F1
  8
PODLAHA
 10
185.1916960174418
 20
40.75210296782144
 30
0.0
  0
VERTEX
  5
2F2
  8
PODLAHA
 10
175.1168823911637
 20
40.75210296782144
 30
0.0
  0
VERTEX
  5
2F3
  8
PODLAHA
 10
175.1168823911637
 20
37.72965887993801
 30
0.0
  0
VERTEX
  5
2F4
  8
PODLAHA
 10
185.1916960174418
 20
37.72965887993801
 30
0.0
  0
SEQEND
  5
2F5
  8
PODLAHA
  0
POLYLINE
  5
92
  8
PODLAHA
 66
     1
 10
0.0
 20
0.0
 30
0.0
 70
     1
  0
VERTEX
  5
2F6
  8
PODLAHA
 10
208.3637673578814
 20
40.75210296782144
 30
0.0
  0
VERTEX
  5
2F7
  8
PODLAHA
 10
208.3637673578814
 20
37.72965887993801
 30
0.0
  0
VERTEX
  5
2F8
  8
PODLAHA
 10
218.4385809841595
 20
37.72965887993801
 30
0.0
  0
VERTEX
  5
2F9
  8
PODLAHA
 10
218.4385809841595
 20
40.75210296782143
 30
0.0
  0
SEQEND
  5
2FA
  8
PODLAHA
  0
POLYLINE
  5
94
  8
PREDEK
 66
     1
 10
0.0
 20
0.0
 30
0.0
 70
     1
  0
VERTEX
  5
2FB
  8
PREDEK
 10
295.06730856427
 20
308.5649569687221
 30
0.0
  0
VERTEX
  5
2FC
  8
PREDEK
 10
298.0897526521531
 20
308.5649569687221
 30
0.0
  0
VERTEX
  5
2FD
  8
PREDEK
 10
298.0897526521531
 20
298.4901433424441
 30
0.0
  0
VERTEX
  5
2FE
  8
PREDEK
 10
295.06730856427
 20
298.4901433424441
 30
0.0
  0
VERTEX
  5
2FF
  8
PREDEK
 10
295.0673085642704
 20
267.5403158825181
 30
0.0
  0
VERTEX
  5
300
  8
PREDEK
 10
298.0897526521531
 20
267.5403158825181
 30
0.0
  0
VERTEX
  5
301
  8
PREDEK
 10
298.0897526521531
 20
257.46550225624
 30
0.0
  0
VERTEX
  5
302
  8
PREDEK
 10
295.0673085642696
 20
257.46550225624
 30
0.0
  0
VERTEX
  5
303
  8
PREDEK
 10
295.0673085642704
 20
254.1609633868207
 30
0.0
  0
VERTEX
  5
304
  8
PREDEK
 10
234.6184268066012
 20
254.1609633868208
 30
0.0
  0
VERTEX
  5
305
  8
PREDEK
 10
234.6184268066012
 20
257.46550225624
 30
0.0
  0
VERTEX
  5
306
  8
PREDEK
 10
231.5959827187177
 20
257.46550225624
 30
0.0
  0
VERTEX
  5
307
  8
PREDEK
 10
231.5959827187178
 20
267.5403158825181
 30
0.0
  0
VERTEX
  5
308
  8
PREDEK
 10
234.6184268066013
 20
267.5403158825181
 30
0.0
  0
VERTEX
  5
309
  8
PREDEK
 10
234.6184268066013
 20
298.4901433424441
 30
0.0
  0
VERTEX
  5
30A
  8
PREDEK
 10
231.5959827187178
 20
298.4901433424441
 30
0.0
  0
VERTEX
  5
30B
  8
PREDEK
 10
231.5959827187178
 20
308.5649569687221
 30
0.0
  0
VERTEX
  5
30C
  8
PREDEK
 10
234.6184268066012
 20
308.5649569687221
 30
0.0
  0
VERTEX
  5
30D
  8
PREDEK
 10
234.6184268066012
 20
312.5948824192336
 30
0.0
  0
VERTEX
  5
30E
  8
PREDEK
 10
295.0673085642704
 20
312.5948824192332
 30
0.0
  0
SEQEND
  5
30F
  8
PREDEK
  0
POLYLINE
  5
96
  8
SCHODY
 66
     1
 10
0.0
 20
0.0
 30
0.0
 70
     1
  0
VERTEX
  5
310
  8
SCHODY
 10
217.4029016658448
 20
219.7290190638861
 30
0.0
  0
VERTEX
  5
311
  8
SCHODY
 10
220.4253457537283
 20
219.7290190638861
 30
0.0
  0
VERTEX
  5
312
  8
SCHODY
 10
220.4253457537283
 20
229.8038326901642
 30
0.0
  0
VERTEX
  5
313
  8
SCHODY
 10
217.4029016658448
 20
229.8038326901642
 30
0.0
  0
SEQEND
  5
314
  8
SCHODY
  0
POLYLINE
  5
98
  8
SEDADLO_SPODEK_R
 66
     1
 10
0.0
 20
0.0
 30
0.0
 70
     1
  0
VERTEX
  5
315
  8
SEDADLO_SPODEK_R
 10
317.3983220334823
 20
394.2204996721958
 30
0.0
  0
VERTEX
  5
316
  8
SEDADLO_SPODEK_R
 10
317.3983220334823
 20
384.1456860459177
 30
0.0
  0
VERTEX
  5
317
  8
SEDADLO_SPODEK_R
 10
314.3758779455989
 20
384.1456860459177
 30
0.0
  0
VERTEX
  5
318
  8
SEDADLO_SPODEK_R
 10
314.3758779455989
 20
394.2204996721958
 30
0.0
  0
SEQEND
  5
319
  8
SEDADLO_SPODEK_R
  0
POLYLINE
  5
9A
  8
SPODEK
 66
     1
 10
0.0
 20
0.0
 30
0.0
 70
     1
  0
VERTEX
  5
31A
  8
SPODEK
 10
121.2314888513555
 20
203.466096816239
 30
0.0
  0
VERTEX
  5
31B
  8
SPODEK
 10
124.2539329392389
 20
203.466096816239
 30
0.0
  0
VERTEX
  5
31C
  8
SPODEK
 10
124.253932939239
 20
213.5409104425171
 30
0.0
  0
VERTEX
  5
31D
  8
SPODEK
 10
121.2314888513556
 20
213.5409104425171
 30
0.0
  0
SEQEND
  5
31E
  8
SPODEK
  0
POLYLINE
  5
9C
  8
VOLANT
 66
     1
 10
0.0
 20
0.0
 30
0.0
 70
     1
  0
VERTEX
  5
31F
  8
VOLANT
 10
317.4094765356706
 20
435.6155775160197
 30
0.0
 42
0.4142135623730951
  0
VERTEX
  5
320
  8
VOLANT
 10
323.4543647114374
 20
429.5706893402528
 30
0.0
 42
0.4142135623730951
  0
VERTEX
  5
321
  8
VOLANT
 10
329.4992528872043
 20
435.6155775160197
 30
0.0
 42
0.4142135623730951
  0
VERTEX
  5
322
  8
VOLANT
 10
323.4543647114374
 20
441.6604656917864
 30
0.0
 42
0.4142135623730951
  0
SEQEND
  5
323
  8
VOLANT
  0
POLYLINE
  5
9D
  8
VOLANT
 66
     1
 10
0.0
 20
0.0
 30
0.0
 70
     1
  0
VERTEX
  5
324
  8
VOLANT
 10
321.9431426674958
 20
434.1043554720779
 30
0.0
  0
VERTEX
  5
325
  8
VOLANT
 10
324.9655867553791
 20
434.1043554720779
 30
0.0
  0
VERTEX
  5
326
  8
VOLANT
 10
324.9655867553791
 20
437.1267995599613
 30
0.0
  0
VERTEX
  5
327
  8
VOLANT
 10
321.9431426674958
 20
437.1267995599613
 30
0.0
  0
SEQEND
  5
328
  8
VOLANT
  0
POLYLINE
  5
9F
  8
ZADEK
 66
     1
 10
0.0
 20
0.0
 30
0.0
 70
     1
  0
VERTEX
  5
329
  8
ZADEK
 10
107.2313831108133
 20
259.9484039708366
 30
0.0
  0
VERTEX
  5
32A
  8
ZADEK
 10
132.4184171765085
 20
259.9484039708365
 30
0.0
  0
VERTEX
  5
32B
  8
ZADEK
 10
132.4184171765085
 20
305.2850652890879
 30
0.0
  0
VERTEX
  5
32C
  8
ZADEK
 10
107.2313831108133
 20
305.2850652890879
 30
0.0
  0
SEQEND
  5
32D
  8
ZADEK
  0
POLYLINE
  5
A1
  8
ZADNÍ_SEDADLO
 66
     1
 10
0.0
 20
0.0
 30
0.0
 70
     1
  0
VERTEX
  5
32E
  8
ZADNÍ_SEDADLO
 10
77.64632502239594
 20
267.9859458674828
 30
0.0
  0
VERTEX
  5
32F
  8
ZADNÍ_SEDADLO
 10
77.64632502239594
 20
257.9111322412046
 30
0.0
  0
VERTEX
  5
330
  8
ZADNÍ_SEDADLO
 10
80.66876911027937
 20
257.9111322412046
 30
0.0
  0
VERTEX
  5
331
  8
ZADNÍ_SEDADLO
 10
80.66876911027937
 20
267.9859458674828
 30
0.0
  0
SEQEND
  5
332
  8
ZADNÍ_SEDADLO
  0
POLYLINE
  5
A2
  8
ZADNÍ_SEDADLO
 66
     1
 10
0.0
 20
0.0
 30
0.0
 70
     1
  0
VERTEX
  5
333
  8
ZADNÍ_SEDADLO
 10
77.64632502239594
 20
291.1580172079222
 30
0.0
  0
VERTEX
  5
334
  8
ZADNÍ_SEDADLO
 10
80.66876911027937
 20
291.1580172079222
 30
0.0
  0
VERTEX
  5
335
  8
ZADNÍ_SEDADLO
 10
80.66876911027937
 20
301.2328308342002
 30
0.0
  0
VERTEX
  5
336
  8
ZADNÍ_SEDADLO
 10
77.64632502239594
 20
301.2328308342003
 30
0.0
  0
SEQEND
  5
337
  8
ZADNÍ_SEDADLO
  0
POLYLINE
  5
A4
  8
KOLO
 66
     1
 10
0.0
 20
0.0
 30
0.0
 70
     1
  0
VERTEX
  5
338
  8
KOLO
 10
143.9143227878004
 20
370.1533860324329
 30
0.0
 42
0.4142135623730951
  0
VERTEX
  5
339
  8
KOLO
 10
157.5153211832759
 20
356.5523876369576
 30
0.0
 42
0.4142135623730951
  0
VERTEX
  5
33A
  8
KOLO
 10
171.1163195787513
 20
370.1533860324329
 30
0.0
 42
0.4142135623730951
  0
VERTEX
  5
33B
  8
KOLO
 10
157.5153211832759
 20
383.7543844279083
 30
0.0
 42
0.4142135623730951
  0
SEQEND
  5
33C
  8
KOLO
  0
POLYLINE
  5
A5
  8
KOLO
 66
     1
 10
0.0
 20
0.0
 30
0.0
 70
     1
  0
VERTEX
  5
33D
  8
KOLO
 10
147.9442482383117
 20
370.1533860324329
 30
0.0
 42
0.4142135623730951
  0
VERTEX
  5
33E
  8
KOLO
 10
149.4554702822534
 20
368.6421639884912
 30
0.0
 42
0.4142135623730951
  0
VERTEX
  5
33F
  8
KOLO
 10
150.9666923261951
 20
370.1533860324329
 30
0.0
 42
0.4142135623730951
  0
VERTEX
  5
340
  8
KOLO
 10
149.4554702822534
 20
371.6646080763747
 30
0.0
 42
0.4142135623730951
  0
SEQEND
  5
341
  8
KOLO
  0
POLYLINE
  5
A6
  8
KOLO
 66
     1
 10
0.0
 20
0.0
 30
0.0
 70
     1
  0
VERTEX
  5
342
  8
KOLO
 10
149.0240635083338
 20
366.1234605819217
 30
0.0
 42
0.4142135623730951
  0
VERTEX
  5
343
  8
KOLO
 10
150.5352855522755
 20
364.61223853798
 30
0.0
 42
0.4142135623730951
  0
VERTEX
  5
344
  8
KOLO
 10
152.0465075962172
 20
366.1234605819217
 30
0.0
 42
0.4142135623730951
  0
VERTEX
  5
345
  8
KOLO
 10
150.5352855522755
 20
367.6346826258635
 30
0.0
 42
0.4142135623730951
  0
SEQEND
  5
346
  8
KOLO
  0
POLYLINE
  5
A7
  8
KOLO
 66
     1
 10
0.0
 20
0.0
 30
0.0
 70
     1
  0
VERTEX
  5
347
  8
KOLO
 10
151.9741736888229
 20
363.1733504014327
 30
0.0
 42
0.4142135623730951
  0
VERTEX
  5
348
  8
KOLO
 10
153.4853957327646
 20
361.6621283574909
 30
0.0
 42
0.4142135623730951
  0
VERTEX
  5
349
  8
KOLO
 10
154.9966177767064
 20
363.1733504014327
 30
0.0
 42
0.4142135623730951
  0
VERTEX
  5
34A
  8
KOLO
 10
153.4853957327646
 20
364.6845724453744
 30
0.0
 42
0.4142135623730951
  0
SEQEND
  5
34B
  8
KOLO
  0
POLYLINE
  5
A8
  8
KOLO
 66
     1
 10
0.0
 20
0.0
 30
0.0
 70
     1
  0
VERTEX
  5
34C
  8
KOLO
 10
156.0040991393342
 20
362.0935351314105
 30
0.0
 42
0.4142135623730951
  0
VERTEX
  5
34D
  8
KOLO
 10
157.5153211832759
 20
360.5823130874688
 30
0.0
 42
0.4142135623730951
  0
VERTEX
  5
34E
  8
KOLO
 10
159.0265432272176
 20
362.0935351314105
 30
0.0
 42
0.4142135623730951
  0
VERTEX
  5
34F
  8
KOLO
 10
157.5153211832759
 20
363.6047571753522
 30
0.0
 42
0.4142135623730951
  0
SEQEND
  5
350
  8
KOLO
  0
POLYLINE
  5
A9
  8
KOLO
 66
     1
 10
0.0
 20
0.0
 30
0.0
 70
     1
  0
VERTEX
  5
351
  8
KOLO
 10
160.0340245898454
 20
363.1733504014327
 30
0.0
 42
0.4142135623730951
  0
VERTEX
  5
352
  8
KOLO
 10
161.5452466337871
 20
361.6621283574909
 30
0.0
 42
0.4142135623730951
  0
VERTEX
  5
353
  8
KOLO
 10
163.0564686777288
 20
363.1733504014327
 30
0.0
 42
0.4142135623730951
  0
VERTEX
  5
354
  8
KOLO
 10
161.5452466337871
 20
364.6845724453744
 30
0.0
 42
0.4142135623730951
  0
SEQEND
  5
355
  8
KOLO
  0
POLYLINE
  5
AA
  8
KOLO
 66
     1
 10
0.0
 20
0.0
 30
0.0
 70
     1
  0
VERTEX
  5
356
  8
KOLO
 10
162.9841347703345
 20
366.1234605819217
 30
0.0
 42
0.4142135623730951
  0
VERTEX
  5
357
  8
KOLO
 10
164.4953568142762
 20
364.61223853798
 30
0.0
 42
0.4142135623730951
  0
VERTEX
  5
358
  8
KOLO
 10
166.0065788582179
 20
366.1234605819217
 30
0.0
 42
0.4142135623730951
  0
VERTEX
  5
359
  8
KOLO
 10
164.4953568142762
 20
367.6346826258635
 30
0.0
 42
0.4142135623730951
  0
SEQEND
  5
35A
  8
KOLO
  0
POLYLINE
  5
AB
  8
KOLO
 66
     1
 10
0.0
 20
0.0
 30
0.0
 70
     1
  0
VERTEX
  5
35B
  8
KOLO
 10
164.0639500403566
 20
370.1533860324329
 30
0.0
 42
0.4142135623730951
  0
VERTEX
  5
35C
  8
KOLO
 10
165.5751720842983
 20
368.6421639884912
 30
0.0
 42
0.4142135623730951
  0
VERTEX
  5
35D
  8
KOLO
 10
167.0863941282401
 20
370.1533860324329
 30
0.0
 42
0.4142135623730951
  0
VERTEX
  5
35E
  8
KOLO
 10
165.5751720842983
 20
371.6646080763747
 30
0.0
 42
0.4142135623730951
  0
SEQEND
  5
35F
  8
KOLO
  0
POLYLINE
  5
AC
  8
KOLO
 66
     1
 10
0.0
 20
0.0
 30
0.0
 70
     1
  0
VERTEX
  5
360
  8
KOLO
 10
162.9841347703345
 20
374.1833114829442
 30
0.0
 42
0.4142135623730951
  0
VERTEX
  5
361
  8
KOLO
 10
164.4953568142762
 20
372.6720894390024
 30
0.0
 42
0.4142135623730951
  0
VERTEX
  5
362
  8
KOLO
 10
166.0065788582179
 20
374.1833114829442
 30
0.0
 42
0.4142135623730951
  0
VERTEX
  5
363
  8
KOLO
 10
164.4953568142762
 20
375.6945335268859
 30
0.0
 42
0.4142135623730951
  0
SEQEND
  5
364
  8
KOLO
  0
POLYLINE
  5
AD
  8
KOLO
 66
     1
 10
0.0
 20
0.0
 30
0.0
 70
     1
  0
VERTEX
  5
365
  8
KOLO
 10
160.0340245898454
 20
377.1334216634332
 30
0.0
 42
0.4142135623730951
  0
VERTEX
  5
366
  8
KOLO
 10
161.5452466337871
 20
375.6221996194916
 30
0.0
 42
0.4142135623730951
  0
VERTEX
  5
367
  8
KOLO
 10
163.0564686777288
 20
377.1334216634332
 30
0.0
 42
0.4142135623730951
  0
VERTEX
  5
368
  8
KOLO
 10
161.5452466337871
 20
378.6446437073749
 30
0.0
 42
0.4142135623730951
  0
SEQEND
  5
369
  8
KOLO
  0
POLYLINE
  5
AE
  8
KOLO
 66
     1
 10
0.0
 20
0.0
 30
0.0
 70
     1
  0
VERTEX
  5
36A
  8
KOLO
 10
156.0040991393342
 20
378.2132369334554
 30
0.0
 42
0.4142135623730951
  0
VERTEX
  5
36B
  8
KOLO
 10
157.5153211832759
 20
376.7020148895137
 30
0.0
 42
0.4142135623730951
  0
VERTEX
  5
36C
  8
KOLO
 10
159.0265432272176
 20
378.2132369334554
 30
0.0
 42
0.4142135623730951
  0
VERTEX
  5
36D
  8
KOLO
 10
157.5153211832759
 20
379.7244589773971
 30
0.0
 42
0.4142135623730951
  0
SEQEND
  5
36E
  8
KOLO
  0
POLYLINE
  5
AF
  8
KOLO
 66
     1
 10
0.0
 20
0.0
 30
0.0
 70
     1
  0
VERTEX
  5
36F
  8
KOLO
 10
151.9741736888229
 20
377.1334216634332
 30
0.0
 42
0.4142135623730951
  0
VERTEX
  5
370
  8
KOLO
 10
153.4853957327646
 20
375.6221996194916
 30
0.0
 42
0.4142135623730951
  0
VERTEX
  5
371
  8
KOLO
 10
154.9966177767064
 20
377.1334216634332
 30
0.0
 42
0.4142135623730951
  0
VERTEX
  5
372
  8
KOLO
 10
153.4853957327646
 20
378.6446437073749
 30
0.0
 42
0.4142135623730951
  0
SEQEND
  5
373
  8
KOLO
  0
POLYLINE
  5
B0
  8
KOLO
 66
     1
 10
0.0
 20
0.0
 30
0.0
 70
     1
  0
VERTEX
  5
374
  8
KOLO
 10
149.0240635083338
 20
374.1833114829442
 30
0.0
 42
0.4142135623730951
  0
VERTEX
  5
375
  8
KOLO
 10
150.5352855522755
 20
372.6720894390024
 30
0.0
 42
0.4142135623730951
  0
VERTEX
  5
376
  8
KOLO
 10
152.0465075962172
 20
374.1833114829442
 30
0.0
 42
0.4142135623730951
  0
VERTEX
  5
377
  8
KOLO
 10
150.5352855522755
 20
375.6945335268859
 30
0.0
 42
0.4142135623730951
  0
SEQEND
  5
378
  8
KOLO
  0
POLYLINE
  5
B1
  8
KOLO
 66
     1
 10
0.0
 20
0.0
 30
0.0
 70
     1
  0
VERTEX
  5
379
  8
KOLO
 10
156.0040991393342
 20
365.1159792192939
 30
0.0
  0
VERTEX
  5
37A
  8
KOLO
 10
159.0265432272176
 20
365.1159792192939
 30
0.0
  0
VERTEX
  5
37B
  8
KOLO
 10
159.0265432272176
 20
375.190792845572
 30
0.0
  0
VERTEX
  5
37C
  8
KOLO
 10
156.0040991393342
 20
375.190792845572
 30
0.0
  0
SEQEND
  5
37D
  8
KOLO
  0
POLYLINE
  5
B2
  8
KOLO
 66
     1
 10
0.0
 20
0.0
 30
0.0
 70
     1
  0
VERTEX
  5
37E
  8
KOLO
 10
82.25807266953848
 20
369.3921977593678
 30
0.0
 42
0.4142135623730951
  0
VERTEX
  5
37F
  8
KOLO
 10
95.85907106501388
 20
355.7911993638925
 30
0.0
 42
0.4142135623730951
  0
VERTEX
  5
380
  8
KOLO
 10
109.4600694604893
 20
369.3921977593678
 30
0.0
 42
0.4142135623730951
  0
VERTEX
  5
381
  8
KOLO
 10
95.85907106501388
 20
382.9931961548432
 30
0.0
 42
0.4142135623730951
  0
SEQEND
  5
382
  8
KOLO
  0
POLYLINE
  5
B3
  8
KOLO
 66
     1
 10
0.0
 20
0.0
 30
0.0
 70
     1
  0
VERTEX
  5
383
  8
KOLO
 10
86.2879981200497
 20
369.3921977593678
 30
0.0
 42
0.4142135623730951
  0
VERTEX
  5
384
  8
KOLO
 10
87.79922016399142
 20
367.8809757154261
 30
0.0
 42
0.4142135623730951
  0
VERTEX
  5
385
  8
KOLO
 10
89.31044220793315
 20
369.3921977593678
 30
0.0
 42
0.4142135623730951
  0
VERTEX
  5
386
  8
KOLO
 10
87.79922016399142
 20
370.9034198033096
 30
0.0
 42
0.4142135623730951
  0
SEQEND
  5
387
  8
KOLO
  0
POLYLINE
  5
B4
  8
KOLO
 66
     1
 10
0.0
 20
0.0
 30
0.0
 70
     1
  0
VERTEX
  5
388
  8
KOLO
 10
87.36781339007186
 20
365.3622723088566
 30
0.0
 42
0.4142135623730951
  0
VERTEX
  5
389
  8
KOLO
 10
88.87903543401356
 20
363.8510502649149
 30
0.0
 42
0.4142135623730951
  0
VERTEX
  5
38A
  8
KOLO
 10
90.3902574779553
 20
365.3622723088566
 30
0.0
 42
0.4142135623730951
  0
VERTEX
  5
38B
  8
KOLO
 10
88.87903543401356
 20
366.8734943527984
 30
0.0
 42
0.4142135623730951
  0
SEQEND
  5
38C
  8
KOLO
  0
POLYLINE
  5
B5
  8
KOLO
 66
     1
 10
0.0
 20
0.0
 30
0.0
 70
     1
  0
VERTEX
  5
38D
  8
KOLO
 10
90.31792357056095
 20
362.4121621283676
 30
0.0
 42
0.4142135623730951
  0
VERTEX
  5
38E
  8
KOLO
 10
91.82914561450265
 20
360.9009400844258
 30
0.0
 42
0.4142135623730951
  0
VERTEX
  5
38F
  8
KOLO
 10
93.34036765844435
 20
362.4121621283676
 30
0.0
 42
0.4142135623730951
  0
VERTEX
  5
390
  8
KOLO
 10
91.82914561450265
 20
363.9233841723092
 30
0.0
 42
0.4142135623730951
  0
SEQEND
  5
391
  8
KOLO
  0
POLYLINE
  5
B6
  8
KOLO
 66
     1
 10
0.0
 20
0.0
 30
0.0
 70
     1
  0
VERTEX
  5
392
  8
KOLO
 10
94.34784902107215
 20
361.3323468583454
 30
0.0
 42
0.4142135623730951
  0
VERTEX
  5
393
  8
KOLO
 10
95.85907106501388
 20
359.8211248144037
 30
0.0
 42
0.4142135623730951
  0
VERTEX
  5
394
  8
KOLO
 10
97.3702931089556
 20
361.3323468583454
 30
0.0
 42
0.4142135623730951
  0
VERTEX
  5
395
  8
KOLO
 10
95.85907106501388
 20
362.8435689022871
 30
0.0
 42
0.4142135623730951
  0
SEQEND
  5
396
  8
KOLO
  0
POLYLINE
  5
B7
  8
KOLO
 66
     1
 10
0.0
 20
0.0
 30
0.0
 70
     1
  0
VERTEX
  5
397
  8
KOLO
 10
98.3777744715834
 20
362.4121621283676
 30
0.0
 42
0.4142135623730951
  0
VERTEX
  5
398
  8
KOLO
 10
99.88899651552512
 20
360.9009400844258
 30
0.0
 42
0.4142135623730951
  0
VERTEX
  5
399
  8
KOLO
 10
101.4002185594668
 20
362.4121621283676
 30
0.0
 42
0.4142135623730951
  0
VERTEX
  5
39A
  8
KOLO
 10
99.88899651552512
 20
363.9233841723092
 30
0.0
 42
0.4142135623730951
  0
SEQEND
  5
39B
  8
KOLO
  0
POLYLINE
  5
B8
  8
KOLO
 66
     1
 10
0.0
 20
0.0
 30
0.0
 70
     1
  0
VERTEX
  5
39C
  8
KOLO
 10
101.3278846520725
 20
365.3622723088566
 30
0.0
 42
0.4142135623730951
  0
VERTEX
  5
39D
  8
KOLO
 10
102.8391066960142
 20
363.8510502649149
 30
0.0
 42
0.4142135623730951
  0
VERTEX
  5
39E
  8
KOLO
 10
104.3503287399559
 20
365.3622723088566
 30
0.0
 42
0.4142135623730951
  0
VERTEX
  5
39F
  8
KOLO
 10
102.8391066960142
 20
366.8734943527984
 30
0.0
 42
0.4142135623730951
  0
SEQEND
  5
3A0
  8
KOLO
  0
POLYLINE
  5
B9
  8
KOLO
 66
     1
 10
0.0
 20
0.0
 30
0.0
 70
     1
  0
VERTEX
  5
3A1
  8
KOLO
 10
102.4076999220946
 20
369.3921977593678
 30
0.0
 42
0.4142135623730951
  0
VERTEX
  5
3A2
  8
KOLO
 10
103.9189219660363
 20
367.8809757154261
 30
0.0
 42
0.4142135623730951
  0
VERTEX
  5
3A3
  8
KOLO
 10
105.4301440099781
 20
369.3921977593678
 30
0.0
 42
0.4142135623730951
  0
VERTEX
  5
3A4
  8
KOLO
 10
103.9189219660363
 20
370.9034198033096
 30
0.0
 42
0.4142135623730951
  0
SEQEND
  5
3A5
  8
KOLO
  0
POLYLINE
  5
BA
  8
KOLO
 66
     1
 10
0.0
 20
0.0
 30
0.0
 70
     1
  0
VERTEX
  5
3A6
  8
KOLO
 10
101.3278846520725
 20
373.4221232098791
 30
0.0
 42
0.4142135623730951
  0
VERTEX
  5
3A7
  8
KOLO
 10
102.8391066960142
 20
371.9109011659373
 30
0.0
 42
0.4142135623730951
  0
VERTEX
  5
3A8
  8
KOLO
 10
104.3503287399559
 20
373.4221232098791
 30
0.0
 42
0.4142135623730951
  0
VERTEX
  5
3A9
  8
KOLO
 10
102.8391066960142
 20
374.9333452538208
 30
0.0
 42
0.4142135623730951
  0
SEQEND
  5
3AA
  8
KOLO
  0
POLYLINE
  5
BB
  8
KOLO
 66
     1
 10
0.0
 20
0.0
 30
0.0
 70
     1
  0
VERTEX
  5
3AB
  8
KOLO
 10
98.3777744715834
 20
376.3722333903681
 30
0.0
 42
0.4142135623730951
  0
VERTEX
  5
3AC
  8
KOLO
 10
99.88899651552512
 20
374.8610113464264
 30
0.0
 42
0.4142135623730951
  0
VERTEX
  5
3AD
  8
KOLO
 10
101.4002185594668
 20
376.3722333903681
 30
0.0
 42
0.4142135623730951
  0
VERTEX
  5
3AE
  8
KOLO
 10
99.88899651552512
 20
377.8834554343099
 30
0.0
 42
0.4142135623730951
  0
SEQEND
  5
3AF
  8
KOLO
  0
POLYLINE
  5
BC
  8
KOLO
 66
     1
 10
0.0
 20
0.0
 30
0.0
 70
     1
  0
VERTEX
  5
3B0
  8
KOLO
 10
94.34784902107215
 20
377.4520486603903
 30
0.0
 42
0.4142135623730951
  0
VERTEX
  5
3B1
  8
KOLO
 10
95.85907106501388
 20
375.9408266164486
 30
0.0
 42
0.4142135623730951
  0
VERTEX
  5
3B2
  8
KOLO
 10
97.3702931089556
 20
377.4520486603903
 30
0.0
 42
0.4142135623730951
  0
VERTEX
  5
3B3
  8
KOLO
 10
95.85907106501388
 20
378.963270704332
 30
0.0
 42
0.4142135623730951
  0
SEQEND
  5
3B4
  8
KOLO
  0
POLYLINE
  5
BD
  8
KOLO
 66
     1
 10
0.0
 20
0.0
 30
0.0
 70
     1
  0
VERTEX
  5
3B5
  8
KOLO
 10
90.31792357056095
 20
376.3722333903681
 30
0.0
 42
0.4142135623730951
  0
VERTEX
  5
3B6
  8
KOLO
 10
91.82914561450265
 20
374.8610113464264
 30
0.0
 42
0.4142135623730951
  0
VERTEX
  5
3B7
  8
KOLO
 10
93.34036765844435
 20
376.3722333903681
 30
0.0
 42
0.4142135623730951
  0
VERTEX
  5
3B8
  8
KOLO
 10
91.82914561450265
 20
377.8834554343099
 30
0.0
 42
0.4142135623730951
  0
SEQEND
  5
3B9
  8
KOLO
  0
POLYLINE
  5
BE
  8
KOLO
 66
     1
 10
0.0
 20
0.0
 30
0.0
 70
     1
  0
VERTEX
  5
3BA
  8
KOLO
 10
87.36781339007186
 20
373.4221232098791
 30
0.0
 42
0.4142135623730951
  0
VERTEX
  5
3BB
  8
KOLO
 10
88.87903543401356
 20
371.9109011659373
 30
0.0
 42
0.4142135623730951
  0
VERTEX
  5
3BC
  8
KOLO
 10
90.3902574779553
 20
373.4221232098791
 30
0.0
 42
0.4142135623730951
  0
VERTEX
  5
3BD
  8
KOLO
 10
88.87903543401356
 20
374.9333452538208
 30
0.0
 42
0.4142135623730951
  0
SEQEND
  5
3BE
  8
KOLO
  0
POLYLINE
  5
BF
  8
KOLO
 66
     1
 10
0.0
 20
0.0
 30
0.0
 70
     1
  0
VERTEX
  5
3BF
  8
KOLO
 10
94.34784902107215
 20
364.3547909462288
 30
0.0
  0
VERTEX
  5
3C0
  8
KOLO
 10
97.3702931089556
 20
364.3547909462288
 30
0.0
  0
VERTEX
  5
3C1
  8
KOLO
 10
97.3702931089556
 20
374.4296045725069
 30
0.0
  0
VERTEX
  5
3C2
  8
KOLO
 10
94.34784902107215
 20
374.4296045725069
 30
0.0
  0
SEQEND
  5
3C3
  8
KOLO
  0
POLYLINE
  5
C0
  8
KOLO
 66
     1
 10
0.0
 20
0.0
 30
0.0
 70
     1
  0
VERTEX
  5
3C4
  8
KOLO
 10
89.86995540018818
 20
335.1387254714447
 30
0.0
 42
0.4142135623730951
  0
VERTEX
  5
3C5
  8
KOLO
 10
103.4709537956636
 20
321.5377270759693
 30
0.0
 42
0.4142135623730951
  0
VERTEX
  5
3C6
  8
KOLO
 10
117.071952191139
 20
335.1387254714447
 30
0.0
 42
0.4142135623730951
  0
VERTEX
  5
3C7
  8
KOLO
 10
103.4709537956636
 20
348.7397238669201
 30
0.0
 42
0.4142135623730951
  0
SEQEND
  5
3C8
  8
KOLO
  0
POLYLINE
  5
C1
  8
KOLO
 66
     1
 10
0.0
 20
0.0
 30
0.0
 70
     1
  0
VERTEX
  5
3C9
  8
KOLO
 10
93.89988085069939
 20
335.1387254714447
 30
0.0
 42
0.4142135623730951
  0
VERTEX
  5
3CA
  8
KOLO
 10
95.41110289464112
 20
333.627503427503
 30
0.0
 42
0.4142135623730951
  0
VERTEX
  5
3CB
  8
KOLO
 10
96.92232493858282
 20
335.1387254714447
 30
0.0
 42
0.4142135623730951
  0
VERTEX
  5
3CC
  8
KOLO
 10
95.41110289464112
 20
336.6499475153864
 30
0.0
 42
0.4142135623730951
  0
SEQEND
  5
3CD
  8
KOLO
  0
POLYLINE
  5
C2
  8
KOLO
 66
     1
 10
0.0
 20
0.0
 30
0.0
 70
     1
  0
VERTEX
  5
3CE
  8
KOLO
 10
94.97969612072153
 20
331.1088000209333
 30
0.0
 42
0.4142135623730951
  0
VERTEX
  5
3CF
  8
KOLO
 10
96.49091816466327
 20
329.5975779769917
 30
0.0
 42
0.4142135623730951
  0
VERTEX
  5
3D0
  8
KOLO
 10
98.00214020860497
 20
331.1088000209333
 30
0.0
 42
0.4142135623730951
  0
VERTEX
  5
3D1
  8
KOLO
 10
96.49091816466327
 20
332.620022064875
 30
0.0
 42
0.4142135623730951
  0
SEQEND
  5
3D2
  8
KOLO
  0
POLYLINE
  5
C3
  8
KOLO
 66
     1
 10
0.0
 20
0.0
 30
0.0
 70
     1
  0
VERTEX
  5
3D3
  8
KOLO
 10
97.92980630121062
 20
328.1586898404443
 30
0.0
 42
0.4142135623730951
  0
VERTEX
  5
3D4
  8
KOLO
 10
99.44102834515235
 20
326.6474677965025
 30
0.0
 42
0.4142135623730951
  0
VERTEX
  5
3D5
  8
KOLO
 10
100.952250389094
 20
328.1586898404443
 30
0.0
 42
0.4142135623730951
  0
VERTEX
  5
3D6
  8
KOLO
 10
99.44102834515235
 20
329.669911884386
 30
0.0
 42
0.4142135623730951
  0
SEQEND
  5
3D7
  8
KOLO
  0
POLYLINE
  5
C4
  8
KOLO
 66
     1
 10
0.0
 20
0.0
 30
0.0
 70
     1
  0
VERTEX
  5
3D8
  8
KOLO
 10
101.9597317517219
 20
327.0788745704221
 30
0.0
 42
0.4142135623730951
  0
VERTEX
  5
3D9
  8
KOLO
 10
103.4709537956636
 20
325.5676525264804
 30
0.0
 42
0.4142135623730951
  0
VERTEX
  5
3DA
  8
KOLO
 10
104.9821758396053
 20
327.0788745704221
 30
0.0
 42
0.4142135623730951
  0
VERTEX
  5
3DB
  8
KOLO
 10
103.4709537956636
 20
328.5900966143638
 30
0.0
 42
0.4142135623730951
  0
SEQEND
  5
3DC
  8
KOLO
  0
POLYLINE
  5
C5
  8
KOLO
 66
     1
 10
0.0
 20
0.0
 30
0.0
 70
     1
  0
VERTEX
  5
3DD
  8
KOLO
 10
105.9896572022331
 20
328.1586898404443
 30
0.0
 42
0.4142135623730951
  0
VERTEX
  5
3DE
  8
KOLO
 10
107.5008792461748
 20
326.6474677965025
 30
0.0
 42
0.4142135623730951
  0
VERTEX
  5
3DF
  8
KOLO
 10
109.0121012901165
 20
328.1586898404443
 30
0.0
 42
0.4142135623730951
  0
VERTEX
  5
3E0
  8
KOLO
 10
107.5008792461748
 20
329.669911884386
 30
0.0
 42
0.4142135623730951
  0
SEQEND
  5
3E1
  8
KOLO
  0
POLYLINE
  5
C6
  8
KOLO
 66
     1
 10
0.0
 20
0.0
 30
0.0
 70
     1
  0
VERTEX
  5
3E2
  8
KOLO
 10
108.9397673827222
 20
331.1088000209333
 30
0.0
 42
0.4142135623730951
  0
VERTEX
  5
3E3
  8
KOLO
 10
110.4509894266639
 20
329.5975779769917
 30
0.0
 42
0.4142135623730951
  0
VERTEX
  5
3E4
  8
KOLO
 10
111.9622114706056
 20
331.1088000209333
 30
0.0
 42
0.4142135623730951
  0
VERTEX
  5
3E5
  8
KOLO
 10
110.4509894266639
 20
332.620022064875
 30
0.0
 42
0.4142135623730951
  0
SEQEND
  5
3E6
  8
KOLO
  0
POLYLINE
  5
C7
  8
KOLO
 66
     1
 10
0.0
 20
0.0
 30
0.0
 70
     1
  0
VERTEX
  5
3E7
  8
KOLO
 10
110.0195826527443
 20
335.1387254714447
 30
0.0
 42
0.4142135623730951
  0
VERTEX
  5
3E8
  8
KOLO
 10
111.530804696686
 20
333.627503427503
 30
0.0
 42
0.4142135623730951
  0
VERTEX
  5
3E9
  8
KOLO
 10
113.0420267406277
 20
335.1387254714447
 30
0.0
 42
0.4142135623730951
  0
VERTEX
  5
3EA
  8
KOLO
 10
111.530804696686
 20
336.6499475153864
 30
0.0
 42
0.4142135623730951
  0
SEQEND
  5
3EB
  8
KOLO
  0
POLYLINE
  5
C8
  8
KOLO
 66
     1
 10
0.0
 20
0.0
 30
0.0
 70
     1
  0
VERTEX
  5
3EC
  8
KOLO
 10
108.9397673827222
 20
339.1686509219559
 30
0.0
 42
0.4142135623730951
  0
VERTEX
  5
3ED
  8
KOLO
 10
110.4509894266639
 20
337.6574288780142
 30
0.0
 42
0.4142135623730951
  0
VERTEX
  5
3EE
  8
KOLO
 10
111.9622114706056
 20
339.1686509219559
 30
0.0
 42
0.4142135623730951
  0
VERTEX
  5
3EF
  8
KOLO
 10
110.4509894266639
 20
340.6798729658976
 30
0.0
 42
0.4142135623730951
  0
SEQEND
  5
3F0
  8
KOLO
  0
POLYLINE
  5
C9
  8
KOLO
 66
     1
 10
0.0
 20
0.0
 30
0.0
 70
     1
  0
VERTEX
  5
3F1
  8
KOLO
 10
105.9896572022331
 20
342.118761102445
 30
0.0
 42
0.4142135623730951
  0
VERTEX
  5
3F2
  8
KOLO
 10
107.5008792461748
 20
340.6075390585033
 30
0.0
 42
0.4142135623730951
  0
VERTEX
  5
3F3
  8
KOLO
 10
109.0121012901165
 20
342.118761102445
 30
0.0
 42
0.4142135623730951
  0
VERTEX
  5
3F4
  8
KOLO
 10
107.5008792461748
 20
343.6299831463867
 30
0.0
 42
0.4142135623730951
  0
SEQEND
  5
3F5
  8
KOLO
  0
POLYLINE
  5
CA
  8
KOLO
 66
     1
 10
0.0
 20
0.0
 30
0.0
 70
     1
  0
VERTEX
  5
3F6
  8
KOLO
 10
101.9597317517219
 20
343.1985763724671
 30
0.0
 42
0.4142135623730951
  0
VERTEX
  5
3F7
  8
KOLO
 10
103.4709537956636
 20
341.6873543285254
 30
0.0
 42
0.4142135623730951
  0
VERTEX
  5
3F8
  8
KOLO
 10
104.9821758396053
 20
343.1985763724671
 30
0.0
 42
0.4142135623730951
  0
VERTEX
  5
3F9
  8
KOLO
 10
103.4709537956636
 20
344.7097984164089
 30
0.0
 42
0.4142135623730951
  0
SEQEND
  5
3FA
  8
KOLO
  0
POLYLINE
  5
CB
  8
KOLO
 66
     1
 10
0.0
 20
0.0
 30
0.0
 70
     1
  0
VERTEX
  5
3FB
  8
KOLO
 10
97.92980630121062
 20
342.118761102445
 30
0.0
 42
0.4142135623730951
  0
VERTEX
  5
3FC
  8
KOLO
 10
99.44102834515235
 20
340.6075390585033
 30
0.0
 42
0.4142135623730951
  0
VERTEX
  5
3FD
  8
KOLO
 10
100.952250389094
 20
342.118761102445
 30
0.0
 42
0.4142135623730951
  0
VERTEX
  5
3FE
  8
KOLO
 10
99.44102834515235
 20
343.6299831463867
 30
0.0
 42
0.4142135623730951
  0
SEQEND
  5
3FF
  8
KOLO
  0
POLYLINE
  5
CC
  8
KOLO
 66
     1
 10
0.0
 20
0.0
 30
0.0
 70
     1
  0
VERTEX
  5
400
  8
KOLO
 10
94.97969612072153
 20
339.1686509219559
 30
0.0
 42
0.4142135623730951
  0
VERTEX
  5
401
  8
KOLO
 10
96.49091816466327
 20
337.6574288780142
 30
0.0
 42
0.4142135623730951
  0
VERTEX
  5
402
  8
KOLO
 10
98.00214020860497
 20
339.1686509219559
 30
0.0
 42
0.4142135623730951
  0
VERTEX
  5
403
  8
KOLO
 10
96.49091816466327
 20
340.6798729658976
 30
0.0
 42
0.4142135623730951
  0
SEQEND
  5
404
  8
KOLO
  0
POLYLINE
  5
CD
  8
KOLO
 66
     1
 10
0.0
 20
0.0
 30
0.0
 70
     1
  0
VERTEX
  5
405
  8
KOLO
 10
101.9597317517219
 20
330.1013186583056
 30
0.0
  0
VERTEX
  5
406
  8
KOLO
 10
104.9821758396053
 20
330.1013186583056
 30
0.0
  0
VERTEX
  5
407
  8
KOLO
 10
104.9821758396053
 20
340.1761322845836
 30
0.0
  0
VERTEX
  5
408
  8
KOLO
 10
101.9597317517219
 20
340.1761322845837
 30
0.0
  0
SEQEND
  5
409
  8
KOLO
  0
POLYLINE
  5
CE
  8
KOLO
 66
     1
 10
0.0
 20
0.0
 30
0.0
 70
     1
  0
VERTEX
  5
40A
  8
KOLO
 10
113.9310451353596
 20
387.1886336154772
 30
0.0
 42
0.4142135623730951
  0
VERTEX
  5
40B
  8
KOLO
 10
127.532043530835
 20
373.5876352200017
 30
0.0
 42
0.4142135623730951
  0
VERTEX
  5
40C
  8
KOLO
 10
141.1330419263105
 20
387.1886336154772
 30
0.0
 42
0.4142135623730951
  0
VERTEX
  5
40D
  8
KOLO
 10
127.532043530835
 20
400.7896320109525
 30
0.0
 42
0.4142135623730951
  0
SEQEND
  5
40E
  8
KOLO
  0
POLYLINE
  5
CF
  8
KOLO
 66
     1
 10
0.0
 20
0.0
 30
0.0
 70
     1
  0
VERTEX
  5
40F
  8
KOLO
 10
117.9609705858709
 20
387.1886336154772
 30
0.0
 42
0.4142135623730951
  0
VERTEX
  5
410
  8
KOLO
 10
119.4721926298126
 20
385.6774115715354
 30
0.0
 42
0.4142135623730951
  0
VERTEX
  5
411
  8
KOLO
 10
120.9834146737543
 20
387.1886336154772
 30
0.0
 42
0.4142135623730951
  0
VERTEX
  5
412
  8
KOLO
 10
119.4721926298126
 20
388.6998556594189
 30
0.0
 42
0.4142135623730951
  0
SEQEND
  5
413
  8
KOLO
  0
POLYLINE
  5
D0
  8
KOLO
 66
     1
 10
0.0
 20
0.0
 30
0.0
 70
     1
  0
VERTEX
  5
414
  8
KOLO
 10
119.040785855893
 20
383.158708164966
 30
0.0
 42
0.4142135623730951
  0
VERTEX
  5
415
  8
KOLO
 10
120.5520078998347
 20
381.6474861210242
 30
0.0
 42
0.4142135623730951
  0
VERTEX
  5
416
  8
KOLO
 10
122.0632299437764
 20
383.158708164966
 30
0.0
 42
0.4142135623730951
  0
VERTEX
  5
417
  8
KOLO
 10
120.5520078998347
 20
384.6699302089077
 30
0.0
 42
0.4142135623730951
  0
SEQEND
  5
418
  8
KOLO
  0
POLYLINE
  5
D1
  8
KOLO
 66
     1
 10
0.0
 20
0.0
 30
0.0
 70
     1
  0
VERTEX
  5
419
  8
KOLO
 10
121.9908960363821
 20
380.2085979844767
 30
0.0
 42
0.4142135623730951
  0
VERTEX
  5
41A
  8
KOLO
 10
123.5021180803238
 20
378.697375940535
 30
0.0
 42
0.4142135623730951
  0
VERTEX
  5
41B
  8
KOLO
 10
125.0133401242655
 20
380.2085979844767
 30
0.0
 42
0.4142135623730951
  0
VERTEX
  5
41C
  8
KOLO
 10
123.5021180803238
 20
381.7198200284184
 30
0.0
 42
0.4142135623730951
  0
SEQEND
  5
41D
  8
KOLO
  0
POLYLINE
  5
D2
  8
KOLO
 66
     1
 10
0.0
 20
0.0
 30
0.0
 70
     1
  0
VERTEX
  5
41E
  8
KOLO
 10
126.0208214868933
 20
379.1287827144546
 30
0.0
 42
0.4142135623730951
  0
VERTEX
  5
41F
  8
KOLO
 10
127.532043530835
 20
377.6175606705129
 30
0.0
 42
0.4142135623730951
  0
VERTEX
  5
420
  8
KOLO
 10
129.0432655747767
 20
379.1287827144546
 30
0.0
 42
0.4142135623730951
  0
VERTEX
  5
421
  8
KOLO
 10
127.532043530835
 20
380.6400047583965
 30
0.0
 42
0.4142135623730951
  0
SEQEND
  5
422
  8
KOLO
  0
POLYLINE
  5
D3
  8
KOLO
 66
     1
 10
0.0
 20
0.0
 30
0.0
 70
     1
  0
VERTEX
  5
423
  8
KOLO
 10
130.0507469374045
 20
380.2085979844767
 30
0.0
 42
0.4142135623730951
  0
VERTEX
  5
424
  8
KOLO
 10
131.5619689813462
 20
378.697375940535
 30
0.0
 42
0.4142135623730951
  0
VERTEX
  5
425
  8
KOLO
 10
133.073191025288
 20
380.2085979844767
 30
0.0
 42
0.4142135623730951
  0
VERTEX
  5
426
  8
KOLO
 10
131.5619689813462
 20
381.7198200284184
 30
0.0
 42
0.4142135623730951
  0
SEQEND
  5
427
  8
KOLO
  0
POLYLINE
  5
D4
  8
KOLO
 66
     1
 10
0.0
 20
0.0
 30
0.0
 70
     1
  0
VERTEX
  5
428
  8
KOLO
 10
133.0008571178936
 20
383.158708164966
 30
0.0
 42
0.4142135623730951
  0
VERTEX
  5
429
  8
KOLO
 10
134.5120791618353
 20
381.6474861210242
 30
0.0
 42
0.4142135623730951
  0
VERTEX
  5
42A
  8
KOLO
 10
136.0233012057771
 20
383.158708164966
 30
0.0
 42
0.4142135623730951
  0
VERTEX
  5
42B
  8
KOLO
 10
134.5120791618353
 20
384.6699302089077
 30
0.0
 42
0.4142135623730951
  0
SEQEND
  5
42C
  8
KOLO
  0
POLYLINE
  5
D5
  8
KOLO
 66
     1
 10
0.0
 20
0.0
 30
0.0
 70
     1
  0
VERTEX
  5
42D
  8
KOLO
 10
134.0806723879158
 20
387.1886336154772
 30
0.0
 42
0.4142135623730951
  0
VERTEX
  5
42E
  8
KOLO
 10
135.5918944318575
 20
385.6774115715354
 30
0.0
 42
0.4142135623730951
  0
VERTEX
  5
42F
  8
KOLO
 10
137.1031164757993
 20
387.1886336154772
 30
0.0
 42
0.4142135623730951
  0
VERTEX
  5
430
  8
KOLO
 10
135.5918944318575
 20
388.6998556594189
 30
0.0
 42
0.4142135623730951
  0
SEQEND
  5
431
  8
KOLO
  0
POLYLINE
  5
D6
  8
KOLO
 66
     1
 10
0.0
 20
0.0
 30
0.0
 70
     1
  0
VERTEX
  5
432
  8
KOLO
 10
133.0008571178936
 20
391.2185590659884
 30
0.0
 42
0.4142135623730951
  0
VERTEX
  5
433
  8
KOLO
 10
134.5120791618353
 20
389.7073370220467
 30
0.0
 42
0.4142135623730951
  0
VERTEX
  5
434
  8
KOLO
 10
136.0233012057771
 20
391.2185590659884
 30
0.0
 42
0.4142135623730951
  0
VERTEX
  5
435
  8
KOLO
 10
134.5120791618353
 20
392.7297811099301
 30
0.0
 42
0.4142135623730951
  0
SEQEND
  5
436
  8
KOLO
  0
POLYLINE
  5
D7
  8
KOLO
 66
     1
 10
0.0
 20
0.0
 30
0.0
 70
     1
  0
VERTEX
  5
437
  8
KOLO
 10
130.0507469374045
 20
394.1686692464774
 30
0.0
 42
0.4142135623730951
  0
VERTEX
  5
438
  8
KOLO
 10
131.5619689813462
 20
392.6574472025357
 30
0.0
 42
0.4142135623730951
  0
VERTEX
  5
439
  8
KOLO
 10
133.073191025288
 20
394.1686692464774
 30
0.0
 42
0.4142135623730951
  0
VERTEX
  5
43A
  8
KOLO
 10
131.5619689813462
 20
395.6798912904192
 30
0.0
 42
0.4142135623730951
  0
SEQEND
  5
43B
  8
KOLO
  0
POLYLINE
  5
D8
  8
KOLO
 66
     1
 10
0.0
 20
0.0
 30
0.0
 70
     1
  0
VERTEX
  5
43C
  8
KOLO
 10
126.0208214868933
 20
395.2484845164996
 30
0.0
 42
0.4142135623730951
  0
VERTEX
  5
43D
  8
KOLO
 10
127.532043530835
 20
393.7372624725579
 30
0.0
 42
0.4142135623730951
  0
VERTEX
  5
43E
  8
KOLO
 10
129.0432655747767
 20
395.2484845164996
 30
0.0
 42
0.4142135623730951
  0
VERTEX
  5
43F
  8
KOLO
 10
127.532043530835
 20
396.7597065604413
 30
0.0
 42
0.4142135623730951
  0
SEQEND
  5
440
  8
KOLO
  0
POLYLINE
  5
D9
  8
KOLO
 66
     1
 10
0.0
 20
0.0
 30
0.0
 70
     1
  0
VERTEX
  5
441
  8
KOLO
 10
121.9908960363821
 20
394.1686692464774
 30
0.0
 42
0.4142135623730951
  0
VERTEX
  5
442
  8
KOLO
 10
123.5021180803238
 20
392.6574472025357
 30
0.0
 42
0.4142135623730951
  0
VERTEX
  5
443
  8
KOLO
 10
125.0133401242655
 20
394.1686692464774
 30
0.0
 42
0.4142135623730951
  0
VERTEX
  5
444
  8
KOLO
 10
123.5021180803238
 20
395.6798912904192
 30
0.0
 42
0.4142135623730951
  0
SEQEND
  5
445
  8
KOLO
  0
POLYLINE
  5
DA
  8
KOLO
 66
     1
 10
0.0
 20
0.0
 30
0.0
 70
     1
  0
VERTEX
  5
446
  8
KOLO
 10
119.040785855893
 20
391.2185590659884
 30
0.0
 42
0.4142135623730951
  0
VERTEX
  5
447
  8
KOLO
 10
120.5520078998347
 20
389.7073370220467
 30
0.0
 42
0.4142135623730951
  0
VERTEX
  5
448
  8
KOLO
 10
122.0632299437764
 20
391.2185590659884
 30
0.0
 42
0.4142135623730951
  0
VERTEX
  5
449
  8
KOLO
 10
120.5520078998347
 20
392.7297811099301
 30
0.0
 42
0.4142135623730951
  0
SEQEND
  5
44A
  8
KOLO
  0
POLYLINE
  5
DB
  8
KOLO
 66
     1
 10
0.0
 20
0.0
 30
0.0
 70
     1
  0
VERTEX
  5
44B
  8
KOLO
 10
126.0208214868933
 20
382.1512268023381
 30
0.0
  0
VERTEX
  5
44C
  8
KOLO
 10
129.0432655747767
 20
382.1512268023381
 30
0.0
  0
VERTEX
  5
44D
  8
KOLO
 10
129.0432655747767
 20
392.2260404286162
 30
0.0
  0
VERTEX
  5
44E
  8
KOLO
 10
126.0208214868933
 20
392.2260404286162
 30
0.0
  0
SEQEND
  5
44F
  8
KOLO
  0
POLYLINE
  5
DC
  8
KOLO
 66
     1
 10
0.0
 20
0.0
 30
0.0
 70
     1
  0
VERTEX
  5
450
  8
KOLO
 10
50.3977924146829
 20
374.3905683192257
 30
0.0
 42
0.4142135623730951
  0
VERTEX
  5
451
  8
KOLO
 10
63.99879081015829
 20
360.7895699237503
 30
0.0
 42
0.4142135623730951
  0
VERTEX
  5
452
  8
KOLO
 10
77.5997892056337
 20
374.3905683192257
 30
0.0
 42
0.4142135623730951
  0
VERTEX
  5
453
  8
KOLO
 10
63.99879081015829
 20
387.9915667147011
 30
0.0
 42
0.4142135623730951
  0
SEQEND
  5
454
  8
KOLO
  0
POLYLINE
  5
DD
  8
KOLO
 66
     1
 10
0.0
 20
0.0
 30
0.0
 70
     1
  0
VERTEX
  5
455
  8
KOLO
 10
54.42771786519412
 20
374.3905683192257
 30
0.0
 42
0.4142135623730951
  0
VERTEX
  5
456
  8
KOLO
 10
55.93893990913585
 20
372.879346275284
 30
0.0
 42
0.4142135623730951
  0
VERTEX
  5
457
  8
KOLO
 10
57.45016195307755
 20
374.3905683192257
 30
0.0
 42
0.4142135623730951
  0
VERTEX
  5
458
  8
KOLO
 10
55.93893990913585
 20
375.9017903631674
 30
0.0
 42
0.4142135623730951
  0
SEQEND
  5
459
  8
KOLO
  0
POLYLINE
  5
DE
  8
KOLO
 66
     1
 10
0.0
 20
0.0
 30
0.0
 70
     1
  0
VERTEX
  5
45A
  8
KOLO
 10
55.50753313521626
 20
370.3606428687145
 30
0.0
 42
0.4142135623730951
  0
VERTEX
  5
45B
  8
KOLO
 10
57.018755179158
 20
368.8494208247727
 30
0.0
 42
0.4142135623730951
  0
VERTEX
  5
45C
  8
KOLO
 10
58.5299772230997
 20
370.3606428687145
 30
0.0
 42
0.4142135623730951
  0
VERTEX
  5
45D
  8
KOLO
 10
57.018755179158
 20
371.8718649126562
 30
0.0
 42
0.4142135623730951
  0
SEQEND
  5
45E
  8
KOLO
  0
POLYLINE
  5
DF
  8
KOLO
 66
     1
 10
0.0
 20
0.0
 30
0.0
 70
     1
  0
VERTEX
  5
45F
  8
KOLO
 10
58.45764331570535
 20
367.4105326882254
 30
0.0
 42
0.4142135623730951
  0
VERTEX
  5
460
  8
KOLO
 10
59.96886535964708
 20
365.8993106442837
 30
0.0
 42
0.4142135623730951
  0
VERTEX
  5
461
  8
KOLO
 10
61.48008740358878
 20
367.4105326882254
 30
0.0
 42
0.4142135623730951
  0
VERTEX
  5
462
  8
KOLO
 10
59.96886535964708
 20
368.9217547321671
 30
0.0
 42
0.4142135623730951
  0
SEQEND
  5
463
  8
KOLO
  0
POLYLINE
  5
E0
  8
KOLO
 66
     1
 10
0.0
 20
0.0
 30
0.0
 70
     1
  0
VERTEX
  5
464
  8
KOLO
 10
62.48756876621659
 20
366.3307174182032
 30
0.0
 42
0.4142135623730951
  0
VERTEX
  5
465
  8
KOLO
 10
63.99879081015829
 20
364.8194953742615
 30
0.0
 42
0.4142135623730951
  0
VERTEX
  5
466
  8
KOLO
 10
65.51001285410001
 20
366.3307174182032
 30
0.0
 42
0.4142135623730951
  0
VERTEX
  5
467
  8
KOLO
 10
63.99879081015829
 20
367.841939462145
 30
0.0
 42
0.4142135623730951
  0
SEQEND
  5
468
  8
KOLO
  0
POLYLINE
  5
E1
  8
KOLO
 66
     1
 10
0.0
 20
0.0
 30
0.0
 70
     1
  0
VERTEX
  5
469
  8
KOLO
 10
66.51749421672784
 20
367.4105326882254
 30
0.0
 42
0.4142135623730951
  0
VERTEX
  5
46A
  8
KOLO
 10
68.02871626066951
 20
365.8993106442837
 30
0.0
 42
0.4142135623730951
  0
VERTEX
  5
46B
  8
KOLO
 10
69.53993830461124
 20
367.4105326882254
 30
0.0
 42
0.4142135623730951
  0
VERTEX
  5
46C
  8
KOLO
 10
68.02871626066951
 20
368.9217547321671
 30
0.0
 42
0.4142135623730951
  0
SEQEND
  5
46D
  8
KOLO
  0
POLYLINE
  5
E2
  8
KOLO
 66
     1
 10
0.0
 20
0.0
 30
0.0
 70
     1
  0
VERTEX
  5
46E
  8
KOLO
 10
69.46760439721689
 20
370.3606428687145
 30
0.0
 42
0.4142135623730951
  0
VERTEX
  5
46F
  8
KOLO
 10
70.97882644115862
 20
368.8494208247727
 30
0.0
 42
0.4142135623730951
  0
VERTEX
  5
470
  8
KOLO
 10
72.49004848510032
 20
370.3606428687145
 30
0.0
 42
0.4142135623730951
  0
VERTEX
  5
471
  8
KOLO
 10
70.97882644115862
 20
371.8718649126562
 30
0.0
 42
0.4142135623730951
  0
SEQEND
  5
472
  8
KOLO
  0
POLYLINE
  5
E3
  8
KOLO
 66
     1
 10
0.0
 20
0.0
 30
0.0
 70
     1
  0
VERTEX
  5
473
  8
KOLO
 10
70.54741966723904
 20
374.3905683192257
 30
0.0
 42
0.4142135623730951
  0
VERTEX
  5
474
  8
KOLO
 10
72.05864171118077
 20
372.879346275284
 30
0.0
 42
0.4142135623730951
  0
VERTEX
  5
475
  8
KOLO
 10
73.56986375512247
 20
374.3905683192257
 30
0.0
 42
0.4142135623730951
  0
VERTEX
  5
476
  8
KOLO
 10
72.05864171118077
 20
375.9017903631674
 30
0.0
 42
0.4142135623730951
  0
SEQEND
  5
477
  8
KOLO
  0
POLYLINE
  5
E4
  8
KOLO
 66
     1
 10
0.0
 20
0.0
 30
0.0
 70
     1
  0
VERTEX
  5
478
  8
KOLO
 10
69.46760439721689
 20
378.420493769737
 30
0.0
 42
0.4142135623730951
  0
VERTEX
  5
479
  8
KOLO
 10
70.97882644115862
 20
376.9092717257952
 30
0.0
 42
0.4142135623730951
  0
VERTEX
  5
47A
  8
KOLO
 10
72.49004848510032
 20
378.420493769737
 30
0.0
 42
0.4142135623730951
  0
VERTEX
  5
47B
  8
KOLO
 10
70.97882644115862
 20
379.9317158136786
 30
0.0
 42
0.4142135623730951
  0
SEQEND
  5
47C
  8
KOLO
  0
POLYLINE
  5
E5
  8
KOLO
 66
     1
 10
0.0
 20
0.0
 30
0.0
 70
     1
  0
VERTEX
  5
47D
  8
KOLO
 10
66.51749421672784
 20
381.370603950226
 30
0.0
 42
0.4142135623730951
  0
VERTEX
  5
47E
  8
KOLO
 10
68.02871626066951
 20
379.8593819062843
 30
0.0
 42
0.4142135623730951
  0
VERTEX
  5
47F
  8
KOLO
 10
69.53993830461124
 20
381.370603950226
 30
0.0
 42
0.4142135623730951
  0
VERTEX
  5
480
  8
KOLO
 10
68.02871626066951
 20
382.8818259941677
 30
0.0
 42
0.4142135623730951
  0
SEQEND
  5
481
  8
KOLO
  0
POLYLINE
  5
E6
  8
KOLO
 66
     1
 10
0.0
 20
0.0
 30
0.0
 70
     1
  0
VERTEX
  5
482
  8
KOLO
 10
62.48756876621659
 20
382.4504192202481
 30
0.0
 42
0.4142135623730951
  0
VERTEX
  5
483
  8
KOLO
 10
63.99879081015829
 20
380.9391971763065
 30
0.0
 42
0.4142135623730951
  0
VERTEX
  5
484
  8
KOLO
 10
65.51001285410001
 20
382.4504192202481
 30
0.0
 42
0.4142135623730951
  0
VERTEX
  5
485
  8
KOLO
 10
63.99879081015829
 20
383.9616412641898
 30
0.0
 42
0.4142135623730951
  0
SEQEND
  5
486
  8
KOLO
  0
POLYLINE
  5
E7
  8
KOLO
 66
     1
 10
0.0
 20
0.0
 30
0.0
 70
     1
  0
VERTEX
  5
487
  8
KOLO
 10
58.45764331570535
 20
381.370603950226
 30
0.0
 42
0.4142135623730951
  0
VERTEX
  5
488
  8
KOLO
 10
59.96886535964708
 20
379.8593819062843
 30
0.0
 42
0.4142135623730951
  0
VERTEX
  5
489
  8
KOLO
 10
61.48008740358878
 20
381.370603950226
 30
0.0
 42
0.4142135623730951
  0
VERTEX
  5
48A
  8
KOLO
 10
59.96886535964708
 20
382.8818259941677
 30
0.0
 42
0.4142135623730951
  0
SEQEND
  5
48B
  8
KOLO
  0
POLYLINE
  5
E8
  8
KOLO
 66
     1
 10
0.0
 20
0.0
 30
0.0
 70
     1
  0
VERTEX
  5
48C
  8
KOLO
 10
55.50753313521626
 20
378.420493769737
 30
0.0
 42
0.4142135623730951
  0
VERTEX
  5
48D
  8
KOLO
 10
57.018755179158
 20
376.9092717257952
 30
0.0
 42
0.4142135623730951
  0
VERTEX
  5
48E
  8
KOLO
 10
58.5299772230997
 20
378.420493769737
 30
0.0
 42
0.4142135623730951
  0
VERTEX
  5
48F
  8
KOLO
 10
57.018755179158
 20
379.9317158136786
 30
0.0
 42
0.4142135623730951
  0
SEQEND
  5
490
  8
KOLO
  0
POLYLINE
  5
E9
  8
KOLO
 66
     1
 10
0.0
 20
0.0
 30
0.0
 70
     1
  0
VERTEX
  5
491
  8
KOLO
 10
62.48756876621659
 20
369.3531615060866
 30
0.0
  0
VERTEX
  5
492
  8
KOLO
 10
65.51001285410001
 20
369.3531615060866
 30
0.0
  0
VERTEX
  5
493
  8
KOLO
 10
65.51001285410001
 20
379.4279751323647
 30
0.0
  0
VERTEX
  5
494
  8
KOLO
 10
62.48756876621659
 20
379.4279751323647
 30
0.0
  0
SEQEND
  5
495
  8
KOLO
  0
POLYLINE
  5
EA
  8
KOLO
 66
     1
 10
0.0
 20
0.0
 30
0.0
 70
     1
  0
VERTEX
  5
496
  8
KOLO
 10
53.59730873874575
 20
343.3095525997579
 30
0.0
 42
0.4142135623730951
  0
VERTEX
  5
497
  8
KOLO
 10
67.19830713422117
 20
329.7085542042826
 30
0.0
 42
0.4142135623730951
  0
VERTEX
  5
498
  8
KOLO
 10
80.79930552969658
 20
343.3095525997579
 30
0.0
 42
0.4142135623730951
  0
VERTEX
  5
499
  8
KOLO
 10
67.19830713422117
 20
356.9105509952333
 30
0.0
 42
0.4142135623730951
  0
SEQEND
  5
49A
  8
KOLO
  0
POLYLINE
  5
EB
  8
KOLO
 66
     1
 10
0.0
 20
0.0
 30
0.0
 70
     1
  0
VERTEX
  5
49B
  8
KOLO
 10
57.62723418925698
 20
343.3095525997579
 30
0.0
 42
0.4142135623730951
  0
VERTEX
  5
49C
  8
KOLO
 10
59.13845623319871
 20
341.7983305558162
 30
0.0
 42
0.4142135623730951
  0
VERTEX
  5
49D
  8
KOLO
 10
60.64967827714041
 20
343.3095525997579
 30
0.0
 42
0.4142135623730951
  0
VERTEX
  5
49E
  8
KOLO
 10
59.13845623319871
 20
344.8207746436997
 30
0.0
 42
0.4142135623730951
  0
SEQEND
  5
49F
  8
KOLO
  0
POLYLINE
  5
EC
  8
KOLO
 66
     1
 10
0.0
 20
0.0
 30
0.0
 70
     1
  0
VERTEX
  5
4A0
  8
KOLO
 10
58.70704945927911
 20
339.2796271492467
 30
0.0
 42
0.4142135623730951
  0
VERTEX
  5
4A1
  8
KOLO
 10
60.21827150322083
 20
337.768405105305
 30
0.0
 42
0.4142135623730951
  0
VERTEX
  5
4A2
  8
KOLO
 10
61.72949354716253
 20
339.2796271492467
 30
0.0
 42
0.4142135623730951
  0
VERTEX
  5
4A3
  8
KOLO
 10
60.21827150322083
 20
340.7908491931884
 30
0.0
 42
0.4142135623730951
  0
SEQEND
  5
4A4
  8
KOLO
  0
POLYLINE
  5
ED
  8
KOLO
 66
     1
 10
0.0
 20
0.0
 30
0.0
 70
     1
  0
VERTEX
  5
4A5
  8
KOLO
 10
61.65715963976821
 20
336.3295169687576
 30
0.0
 42
0.4142135623730951
  0
VERTEX
  5
4A6
  8
KOLO
 10
63.16838168370994
 20
334.8182949248159
 30
0.0
 42
0.4142135623730951
  0
VERTEX
  5
4A7
  8
KOLO
 10
64.67960372765164
 20
336.3295169687576
 30
0.0
 42
0.4142135623730951
  0
VERTEX
  5
4A8
  8
KOLO
 10
63.16838168370994
 20
337.8407390126994
 30
0.0
 42
0.4142135623730951
  0
SEQEND
  5
4A9
  8
KOLO
  0
POLYLINE
  5
EE
  8
KOLO
 66
     1
 10
0.0
 20
0.0
 30
0.0
 70
     1
  0
VERTEX
  5
4AA
  8
KOLO
 10
65.68708509027944
 20
335.2497016987355
 30
0.0
 42
0.4142135623730951
  0
VERTEX
  5
4AB
  8
KOLO
 10
67.19830713422117
 20
333.7384796547938
 30
0.0
 42
0.4142135623730951
  0
VERTEX
  5
4AC
  8
KOLO
 10
68.70952917816287
 20
335.2497016987355
 30
0.0
 42
0.4142135623730951
  0
VERTEX
  5
4AD
  8
KOLO
 10
67.19830713422117
 20
336.7609237426772
 30
0.0
 42
0.4142135623730951
  0
SEQEND
  5
4AE
  8
KOLO
  0
POLYLINE
  5
EF
  8
KOLO
 66
     1
 10
0.0
 20
0.0
 30
0.0
 70
     1
  0
VERTEX
  5
4AF
  8
KOLO
 10
69.7170105407907
 20
336.3295169687576
 30
0.0
 42
0.4142135623730951
  0
VERTEX
  5
4B0
  8
KOLO
 10
71.2282325847324
 20
334.8182949248159
 30
0.0
 42
0.4142135623730951
  0
VERTEX
  5
4B1
  8
KOLO
 10
72.7394546286741
 20
336.3295169687576
 30
0.0
 42
0.4142135623730951
  0
VERTEX
  5
4B2
  8
KOLO
 10
71.2282325847324
 20
337.8407390126994
 30
0.0
 42
0.4142135623730951
  0
SEQEND
  5
4B3
  8
KOLO
  0
POLYLINE
  5
F0
  8
KOLO
 66
     1
 10
0.0
 20
0.0
 30
0.0
 70
     1
  0
VERTEX
  5
4B4
  8
KOLO
 10
72.66712072127983
 20
339.2796271492467
 30
0.0
 42
0.4142135623730951
  0
VERTEX
  5
4B5
  8
KOLO
 10
74.1783427652215
 20
337.768405105305
 30
0.0
 42
0.4142135623730951
  0
VERTEX
  5
4B6
  8
KOLO
 10
75.68956480916326
 20
339.2796271492467
 30
0.0
 42
0.4142135623730951
  0
VERTEX
  5
4B7
  8
KOLO
 10
74.1783427652215
 20
340.7908491931884
 30
0.0
 42
0.4142135623730951
  0
SEQEND
  5
4B8
  8
KOLO
  0
POLYLINE
  5
F1
  8
KOLO
 66
     1
 10
0.0
 20
0.0
 30
0.0
 70
     1
  0
VERTEX
  5
4B9
  8
KOLO
 10
73.74693599130195
 20
343.3095525997579
 30
0.0
 42
0.4142135623730951
  0
VERTEX
  5
4BA
  8
KOLO
 10
75.25815803524362
 20
341.7983305558162
 30
0.0
 42
0.4142135623730951
  0
VERTEX
  5
4BB
  8
KOLO
 10
76.76938007918535
 20
343.3095525997579
 30
0.0
 42
0.4142135623730951
  0
VERTEX
  5
4BC
  8
KOLO
 10
75.25815803524362
 20
344.8207746436997
 30
0.0
 42
0.4142135623730951
  0
SEQEND
  5
4BD
  8
KOLO
  0
POLYLINE
  5
F2
  8
KOLO
 66
     1
 10
0.0
 20
0.0
 30
0.0
 70
     1
  0
VERTEX
  5
4BE
  8
KOLO
 10
72.66712072127983
 20
347.3394780502691
 30
0.0
 42
0.4142135623730951
  0
VERTEX
  5
4BF
  8
KOLO
 10
74.1783427652215
 20
345.8282560063274
 30
0.0
 42
0.4142135623730951
  0
VERTEX
  5
4C0
  8
KOLO
 10
75.68956480916326
 20
347.3394780502691
 30
0.0
 42
0.4142135623730951
  0
VERTEX
  5
4C1
  8
KOLO
 10
74.1783427652215
 20
348.8507000942109
 30
0.0
 42
0.4142135623730951
  0
SEQEND
  5
4C2
  8
KOLO
  0
POLYLINE
  5
F3
  8
KOLO
 66
     1
 10
0.0
 20
0.0
 30
0.0
 70
     1
  0
VERTEX
  5
4C3
  8
KOLO
 10
69.7170105407907
 20
350.2895882307582
 30
0.0
 42
0.4142135623730951
  0
VERTEX
  5
4C4
  8
KOLO
 10
71.2282325847324
 20
348.7783661868166
 30
0.0
 42
0.4142135623730951
  0
VERTEX
  5
4C5
  8
KOLO
 10
72.7394546286741
 20
350.2895882307582
 30
0.0
 42
0.4142135623730951
  0
VERTEX
  5
4C6
  8
KOLO
 10
71.2282325847324
 20
351.8008102746999
 30
0.0
 42
0.4142135623730951
  0
SEQEND
  5
4C7
  8
KOLO
  0
POLYLINE
  5
F4
  8
KOLO
 66
     1
 10
0.0
 20
0.0
 30
0.0
 70
     1
  0
VERTEX
  5
4C8
  8
KOLO
 10
65.68708509027944
 20
351.3694035007804
 30
0.0
 42
0.4142135623730951
  0
VERTEX
  5
4C9
  8
KOLO
 10
67.19830713422117
 20
349.8581814568387
 30
0.0
 42
0.4142135623730951
  0
VERTEX
  5
4CA
  8
KOLO
 10
68.70952917816287
 20
351.3694035007804
 30
0.0
 42
0.4142135623730951
  0
VERTEX
  5
4CB
  8
KOLO
 10
67.19830713422117
 20
352.8806255447221
 30
0.0
 42
0.4142135623730951
  0
SEQEND
  5
4CC
  8
KOLO
  0
POLYLINE
  5
F5
  8
KOLO
 66
     1
 10
0.0
 20
0.0
 30
0.0
 70
     1
  0
VERTEX
  5
4CD
  8
KOLO
 10
61.65715963976821
 20
350.2895882307582
 30
0.0
 42
0.4142135623730951
  0
VERTEX
  5
4CE
  8
KOLO
 10
63.16838168370994
 20
348.7783661868166
 30
0.0
 42
0.4142135623730951
  0
VERTEX
  5
4CF
  8
KOLO
 10
64.67960372765164
 20
350.2895882307582
 30
0.0
 42
0.4142135623730951
  0
VERTEX
  5
4D0
  8
KOLO
 10
63.16838168370994
 20
351.8008102746999
 30
0.0
 42
0.4142135623730951
  0
SEQEND
  5
4D1
  8
KOLO
  0
POLYLINE
  5
F6
  8
KOLO
 66
     1
 10
0.0
 20
0.0
 30
0.0
 70
     1
  0
VERTEX
  5
4D2
  8
KOLO
 10
58.70704945927911
 20
347.3394780502691
 30
0.0
 42
0.4142135623730951
  0
VERTEX
  5
4D3
  8
KOLO
 10
60.21827150322083
 20
345.8282560063274
 30
0.0
 42
0.4142135623730951
  0
VERTEX
  5
4D4
  8
KOLO
 10
61.72949354716253
 20
347.3394780502691
 30
0.0
 42
0.4142135623730951
  0
VERTEX
  5
4D5
  8
KOLO
 10
60.21827150322083
 20
348.8507000942109
 30
0.0
 42
0.4142135623730951
  0
SEQEND
  5
4D6
  8
KOLO
  0
POLYLINE
  5
F7
  8
KOLO
 66
     1
 10
0.0
 20
0.0
 30
0.0
 70
     1
  0
VERTEX
  5
4D7
  8
KOLO
 10
65.68708509027944
 20
338.2721457866189
 30
0.0
  0
VERTEX
  5
4D8
  8
KOLO
 10
68.70952917816287
 20
338.2721457866189
 30
0.0
  0
VERTEX
  5
4D9
  8
KOLO
 10
68.70952917816287
 20
348.346959412897
 30
0.0
  0
VERTEX
  5
4DA
  8
KOLO
 10
65.68708509027944
 20
348.346959412897
 30
0.0
  0
SEQEND
  5
4DB
  8
KOLO
  0
POLYLINE
  5
F8
  8
KOLO
 66
     1
 10
0.0
 20
0.0
 30
0.0
 70
     1
  0
VERTEX
  5
4DC
  8
KOLO
 10
114.2279801382669
 20
357.2131853903284
 30
0.0
 42
0.4142135623730951
  0
VERTEX
  5
4DD
  8
KOLO
 10
127.8289785337422
 20
343.612186994853
 30
0.0
 42
0.4142135623730951
  0
VERTEX
  5
4DE
  8
KOLO
 10
141.4299769292176
 20
357.2131853903284
 30
0.0
 42
0.4142135623730951
  0
VERTEX
  5
4DF
  8
KOLO
 10
127.8289785337422
 20
370.8141837858038
 30
0.0
 42
0.4142135623730951
  0
SEQEND
  5
4E0
  8
KOLO
  0
POLYLINE
  5
F9
  8
KOLO
 66
     1
 10
0.0
 20
0.0
 30
0.0
 70
     1
  0
VERTEX
  5
4E1
  8
KOLO
 10
118.2579055887781
 20
357.2131853903284
 30
0.0
 42
0.4142135623730951
  0
VERTEX
  5
4E2
  8
KOLO
 10
119.7691276327198
 20
355.7019633463867
 30
0.0
 42
0.4142135623730951
  0
VERTEX
  5
4E3
  8
KOLO
 10
121.2803496766615
 20
357.2131853903284
 30
0.0
 42
0.4142135623730951
  0
VERTEX
  5
4E4
  8
KOLO
 10
119.7691276327198
 20
358.7244074342701
 30
0.0
 42
0.4142135623730951
  0
SEQEND
  5
4E5
  8
KOLO
  0
POLYLINE
  5
FA
  8
KOLO
 66
     1
 10
0.0
 20
0.0
 30
0.0
 70
     1
  0
VERTEX
  5
4E6
  8
KOLO
 10
119.3377208588002
 20
353.1832599398172
 30
0.0
 42
0.4142135623730951
  0
VERTEX
  5
4E7
  8
KOLO
 10
120.8489429027419
 20
351.6720378958755
 30
0.0
 42
0.4142135623730951
  0
VERTEX
  5
4E8
  8
KOLO
 10
122.3601649466836
 20
353.1832599398172
 30
0.0
 42
0.4142135623730951
  0
VERTEX
  5
4E9
  8
KOLO
 10
120.8489429027419
 20
354.6944819837589
 30
0.0
 42
0.4142135623730951
  0
SEQEND
  5
4EA
  8
KOLO
  0
POLYLINE
  5
FB
  8
KOLO
 66
     1
 10
0.0
 20
0.0
 30
0.0
 70
     1
  0
VERTEX
  5
4EB
  8
KOLO
 10
122.2878310392893
 20
350.2331497593281
 30
0.0
 42
0.4142135623730951
  0
VERTEX
  5
4EC
  8
KOLO
 10
123.799053083231
 20
348.7219277153864
 30
0.0
 42
0.4142135623730951
  0
VERTEX
  5
4ED
  8
KOLO
 10
125.3102751271727
 20
350.2331497593281
 30
0.0
 42
0.4142135623730951
  0
VERTEX
  5
4EE
  8
KOLO
 10
123.799053083231
 20
351.7443718032698
 30
0.0
 42
0.4142135623730951
  0
SEQEND
  5
4EF
  8
KOLO
  0
POLYLINE
  5
FC
  8
KOLO
 66
     1
 10
0.0
 20
0.0
 30
0.0
 70
     1
  0
VERTEX
  5
4F0
  8
KOLO
 10
126.3177564898005
 20
349.1533344893059
 30
0.0
 42
0.4142135623730951
  0
VERTEX
  5
4F1
  8
KOLO
 10
127.8289785337422
 20
347.6421124453642
 30
0.0
 42
0.4142135623730951
  0
VERTEX
  5
4F2
  8
KOLO
 10
129.340200577684
 20
349.1533344893059
 30
0.0
 42
0.4142135623730951
  0
VERTEX
  5
4F3
  8
KOLO
 10
127.8289785337422
 20
350.6645565332477
 30
0.0
 42
0.4142135623730951
  0
SEQEND
  5
4F4
  8
KOLO
  0
POLYLINE
  5
FD
  8
KOLO
 66
     1
 10
0.0
 20
0.0
 30
0.0
 70
     1
  0
VERTEX
  5
4F5
  8
KOLO
 10
130.3476819403118
 20
350.2331497593281
 30
0.0
 42
0.4142135623730951
  0
VERTEX
  5
4F6
  8
KOLO
 10
131.8589039842535
 20
348.7219277153864
 30
0.0
 42
0.4142135623730951
  0
VERTEX
  5
4F7
  8
KOLO
 10
133.3701260281952
 20
350.2331497593281
 30
0.0
 42
0.4142135623730951
  0
VERTEX
  5
4F8
  8
KOLO
 10
131.8589039842535
 20
351.7443718032698
 30
0.0
 42
0.4142135623730951
  0
SEQEND
  5
4F9
  8
KOLO
  0
POLYLINE
  5
FE
  8
KOLO
 66
     1
 10
0.0
 20
0.0
 30
0.0
 70
     1
  0
VERTEX
  5
4FA
  8
KOLO
 10
133.2977921208009
 20
353.1832599398172
 30
0.0
 42
0.4142135623730951
  0
VERTEX
  5
4FB
  8
KOLO
 10
134.8090141647427
 20
351.6720378958755
 30
0.0
 42
0.4142135623730951
  0
VERTEX
  5
4FC
  8
KOLO
 10
136.3202362086844
 20
353.1832599398172
 30
0.0
 42
0.4142135623730951
  0
VERTEX
  5
4FD
  8
KOLO
 10
134.8090141647427
 20
354.6944819837589
 30
0.0
 42
0.4142135623730951
  0
SEQEND
  5
4FE
  8
KOLO
  0
POLYLINE
  5
FF
  8
KOLO
 66
     1
 10
0.0
 20
0.0
 30
0.0
 70
     1
  0
VERTEX
  5
4FF
  8
KOLO
 10
134.377607390823
 20
357.2131853903284
 30
0.0
 42
0.4142135623730951
  0
VERTEX
  5
500
  8
KOLO
 10
135.8888294347647
 20
355.7019633463867
 30
0.0
 42
0.4142135623730951
  0
VERTEX
  5
501
  8
KOLO
 10
137.4000514787064
 20
357.2131853903284
 30
0.0
 42
0.4142135623730951
  0
VERTEX
  5
502
  8
KOLO
 10
135.8888294347647
 20
358.7244074342701
 30
0.0
 42
0.4142135623730951
  0
SEQEND
  5
503
  8
KOLO
  0
POLYLINE
  5
100
  8
KOLO
 66
     1
 10
0.0
 20
0.0
 30
0.0
 70
     1
  0
VERTEX
  5
504
  8
KOLO
 10
133.2977921208009
 20
361.2431108408397
 30
0.0
 42
0.4142135623730951
  0
VERTEX
  5
505
  8
KOLO
 10
134.8090141647427
 20
359.731888796898
 30
0.0
 42
0.4142135623730951
  0
VERTEX
  5
506
  8
KOLO
 10
136.3202362086844
 20
361.2431108408397
 30
0.0
 42
0.4142135623730951
  0
VERTEX
  5
507
  8
KOLO
 10
134.8090141647427
 20
362.7543328847813
 30
0.0
 42
0.4142135623730951
  0
SEQEND
  5
508
  8
KOLO
  0
POLYLINE
  5
101
  8
KOLO
 66
     1
 10
0.0
 20
0.0
 30
0.0
 70
     1
  0
VERTEX
  5
509
  8
KOLO
 10
130.3476819403118
 20
364.1932210213288
 30
0.0
 42
0.4142135623730951
  0
VERTEX
  5
50A
  8
KOLO
 10
131.8589039842535
 20
362.681998977387
 30
0.0
 42
0.4142135623730951
  0
VERTEX
  5
50B
  8
KOLO
 10
133.3701260281952
 20
364.1932210213288
 30
0.0
 42
0.4142135623730951
  0
VERTEX
  5
50C
  8
KOLO
 10
131.8589039842535
 20
365.7044430652705
 30
0.0
 42
0.4142135623730951
  0
SEQEND
  5
50D
  8
KOLO
  0
POLYLINE
  5
102
  8
KOLO
 66
     1
 10
0.0
 20
0.0
 30
0.0
 70
     1
  0
VERTEX
  5
50E
  8
KOLO
 10
126.3177564898005
 20
365.2730362913508
 30
0.0
 42
0.4142135623730951
  0
VERTEX
  5
50F
  8
KOLO
 10
127.8289785337422
 20
363.7618142474092
 30
0.0
 42
0.4142135623730951
  0
VERTEX
  5
510
  8
KOLO
 10
129.340200577684
 20
365.2730362913508
 30
0.0
 42
0.4142135623730951
  0
VERTEX
  5
511
  8
KOLO
 10
127.8289785337422
 20
366.7842583352926
 30
0.0
 42
0.4142135623730951
  0
SEQEND
  5
512
  8
KOLO
  0
POLYLINE
  5
103
  8
KOLO
 66
     1
 10
0.0
 20
0.0
 30
0.0
 70
     1
  0
VERTEX
  5
513
  8
KOLO
 10
122.2878310392893
 20
364.1932210213288
 30
0.0
 42
0.4142135623730951
  0
VERTEX
  5
514
  8
KOLO
 10
123.799053083231
 20
362.681998977387
 30
0.0
 42
0.4142135623730951
  0
VERTEX
  5
515
  8
KOLO
 10
125.3102751271727
 20
364.1932210213288
 30
0.0
 42
0.4142135623730951
  0
VERTEX
  5
516
  8
KOLO
 10
123.799053083231
 20
365.7044430652705
 30
0.0
 42
0.4142135623730951
  0
SEQEND
  5
517
  8
KOLO
  0
POLYLINE
  5
104
  8
KOLO
 66
     1
 10
0.0
 20
0.0
 30
0.0
 70
     1
  0
VERTEX
  5
518
  8
KOLO
 10
119.3377208588002
 20
361.2431108408397
 30
0.0
 42
0.4142135623730951
  0
VERTEX
  5
519
  8
KOLO
 10
120.8489429027419
 20
359.731888796898
 30
0.0
 42
0.4142135623730951
  0
VERTEX
  5
51A
  8
KOLO
 10
122.3601649466836
 20
361.2431108408397
 30
0.0
 42
0.4142135623730951
  0
VERTEX
  5
51B
  8
KOLO
 10
120.8489429027419
 20
362.7543328847813
 30
0.0
 42
0.4142135623730951
  0
SEQEND
  5
51C
  8
KOLO
  0
POLYLINE
  5
105
  8
KOLO
 66
     1
 10
0.0
 20
0.0
 30
0.0
 70
     1
  0
VERTEX
  5
51D
  8
KOLO
 10
126.3177564898005
 20
352.1757785771894
 30
0.0
  0
VERTEX
  5
51E
  8
KOLO
 10
129.340200577684
 20
352.1757785771894
 30
0.0
  0
VERTEX
  5
51F
  8
KOLO
 10
129.340200577684
 20
362.2505922034674
 30
0.0
  0
VERTEX
  5
520
  8
KOLO
 10
126.3177564898005
 20
362.2505922034674
 30
0.0
  0
SEQEND
  5
521
  8
KOLO
  0
POLYLINE
  5
106
  8
KOLO
 66
     1
 10
0.0
 20
0.0
 30
0.0
 70
     1
  0
VERTEX
  5
522
  8
KOLO
 10
331.1337968884658
 20
331.9591882092956
 30
0.0
 42
0.4142135623730951
  0
VERTEX
  5
523
  8
KOLO
 10
344.7347952839413
 20
318.3581898138202
 30
0.0
 42
0.4142135623730951
  0
VERTEX
  5
524
  8
KOLO
 10
358.3357936794167
 20
331.9591882092956
 30
0.0
 42
0.4142135623730951
  0
VERTEX
  5
525
  8
KOLO
 10
344.7347952839413
 20
345.560186604771
 30
0.0
 42
0.4142135623730951
  0
SEQEND
  5
526
  8
KOLO
  0
POLYLINE
  5
107
  8
KOLO
 66
     1
 10
0.0
 20
0.0
 30
0.0
 70
     1
  0
VERTEX
  5
527
  8
KOLO
 10
335.1637223389771
 20
331.9591882092956
 30
0.0
 42
0.4142135623730951
  0
VERTEX
  5
528
  8
KOLO
 10
336.6749443829189
 20
330.4479661653539
 30
0.0
 42
0.4142135623730951
  0
VERTEX
  5
529
  8
KOLO
 10
338.1861664268605
 20
331.9591882092956
 30
0.0
 42
0.4142135623730951
  0
VERTEX
  5
52A
  8
KOLO
 10
336.6749443829189
 20
333.4704102532373
 30
0.0
 42
0.4142135623730951
  0
SEQEND
  5
52B
  8
KOLO
  0
POLYLINE
  5
108
  8
KOLO
 66
     1
 10
0.0
 20
0.0
 30
0.0
 70
     1
  0
VERTEX
  5
52C
  8
KOLO
 10
336.2435376089992
 20
327.9292627587843
 30
0.0
 42
0.4142135623730951
  0
VERTEX
  5
52D
  8
KOLO
 10
337.7547596529409
 20
326.4180407148427
 30
0.0
 42
0.4142135623730951
  0
VERTEX
  5
52E
  8
KOLO
 10
339.2659816968826
 20
327.9292627587843
 30
0.0
 42
0.4142135623730951
  0
VERTEX
  5
52F
  8
KOLO
 10
337.7547596529409
 20
329.440484802726
 30
0.0
 42
0.4142135623730951
  0
SEQEND
  5
530
  8
KOLO
  0
POLYLINE
  5
109
  8
KOLO
 66
     1
 10
0.0
 20
0.0
 30
0.0
 70
     1
  0
VERTEX
  5
531
  8
KOLO
 10
339.1936477894883
 20
324.9791525782953
 30
0.0
 42
0.4142135623730951
  0
VERTEX
  5
532
  8
KOLO
 10
340.7048698334301
 20
323.4679305343535
 30
0.0
 42
0.4142135623730951
  0
VERTEX
  5
533
  8
KOLO
 10
342.2160918773718
 20
324.9791525782953
 30
0.0
 42
0.4142135623730951
  0
VERTEX
  5
534
  8
KOLO
 10
340.7048698334301
 20
326.490374622237
 30
0.0
 42
0.4142135623730951
  0
SEQEND
  5
535
  8
KOLO
  0
POLYLINE
  5
10A
  8
KOLO
 66
     1
 10
0.0
 20
0.0
 30
0.0
 70
     1
  0
VERTEX
  5
536
  8
KOLO
 10
343.2235732399996
 20
323.8993373082732
 30
0.0
 42
0.4142135623730951
  0
VERTEX
  5
537
  8
KOLO
 10
344.7347952839413
 20
322.3881152643314
 30
0.0
 42
0.4142135623730951
  0
VERTEX
  5
538
  8
KOLO
 10
346.246017327883
 20
323.8993373082732
 30
0.0
 42
0.4142135623730951
  0
VERTEX
  5
539
  8
KOLO
 10
344.7347952839413
 20
325.4105593522148
 30
0.0
 42
0.4142135623730951
  0
SEQEND
  5
53A
  8
KOLO
  0
POLYLINE
  5
10B
  8
KOLO
 66
     1
 10
0.0
 20
0.0
 30
0.0
 70
     1
  0
VERTEX
  5
53B
  8
KOLO
 10
347.2534986905108
 20
324.9791525782953
 30
0.0
 42
0.4142135623730951
  0
VERTEX
  5
53C
  8
KOLO
 10
348.7647207344525
 20
323.4679305343535
 30
0.0
 42
0.4142135623730951
  0
VERTEX
  5
53D
  8
KOLO
 10
350.2759427783942
 20
324.9791525782953
 30
0.0
 42
0.4142135623730951
  0
VERTEX
  5
53E
  8
KOLO
 10
348.7647207344525
 20
326.490374622237
 30
0.0
 42
0.4142135623730951
  0
SEQEND
  5
53F
  8
KOLO
  0
POLYLINE
  5
10C
  8
KOLO
 66
     1
 10
0.0
 20
0.0
 30
0.0
 70
     1
  0
VERTEX
  5
540
  8
KOLO
 10
350.203608871
 20
327.9292627587843
 30
0.0
 42
0.4142135623730951
  0
VERTEX
  5
541
  8
KOLO
 10
351.7148309149417
 20
326.4180407148427
 30
0.0
 42
0.4142135623730951
  0
VERTEX
  5
542
  8
KOLO
 10
353.2260529588834
 20
327.9292627587843
 30
0.0
 42
0.4142135623730951
  0
VERTEX
  5
543
  8
KOLO
 10
351.7148309149417
 20
329.440484802726
 30
0.0
 42
0.4142135623730951
  0
SEQEND
  5
544
  8
KOLO
  0
POLYLINE
  5
10D
  8
KOLO
 66
     1
 10
0.0
 20
0.0
 30
0.0
 70
     1
  0
VERTEX
  5
545
  8
KOLO
 10
351.2834241410221
 20
331.9591882092956
 30
0.0
 42
0.4142135623730951
  0
VERTEX
  5
546
  8
KOLO
 10
352.7946461849638
 20
330.4479661653539
 30
0.0
 42
0.4142135623730951
  0
VERTEX
  5
547
  8
KOLO
 10
354.3058682289055
 20
331.9591882092956
 30
0.0
 42
0.4142135623730951
  0
VERTEX
  5
548
  8
KOLO
 10
352.7946461849638
 20
333.4704102532373
 30
0.0
 42
0.4142135623730951
  0
SEQEND
  5
549
  8
KOLO
  0
POLYLINE
  5
10E
  8
KOLO
 66
     1
 10
0.0
 20
0.0
 30
0.0
 70
     1
  0
VERTEX
  5
54A
  8
KOLO
 10
350.203608871
 20
335.9891136598068
 30
0.0
 42
0.4142135623730951
  0
VERTEX
  5
54B
  8
KOLO
 10
351.7148309149417
 20
334.4778916158651
 30
0.0
 42
0.4142135623730951
  0
VERTEX
  5
54C
  8
KOLO
 10
353.2260529588834
 20
335.9891136598068
 30
0.0
 42
0.4142135623730951
  0
VERTEX
  5
54D
  8
KOLO
 10
351.7148309149417
 20
337.5003357037485
 30
0.0
 42
0.4142135623730951
  0
SEQEND
  5
54E
  8
KOLO
  0
POLYLINE
  5
10F
  8
KOLO
 66
     1
 10
0.0
 20
0.0
 30
0.0
 70
     1
  0
VERTEX
  5
54F
  8
KOLO
 10
347.2534986905108
 20
338.9392238402959
 30
0.0
 42
0.4142135623730951
  0
VERTEX
  5
550
  8
KOLO
 10
348.7647207344525
 20
337.4280017963542
 30
0.0
 42
0.4142135623730951
  0
VERTEX
  5
551
  8
KOLO
 10
350.2759427783942
 20
338.9392238402959
 30
0.0
 42
0.4142135623730951
  0
VERTEX
  5
552
  8
KOLO
 10
348.7647207344525
 20
340.4504458842376
 30
0.0
 42
0.4142135623730951
  0
SEQEND
  5
553
  8
KOLO
  0
POLYLINE
  5
110
  8
KOLO
 66
     1
 10
0.0
 20
0.0
 30
0.0
 70
     1
  0
VERTEX
  5
554
  8
KOLO
 10
343.2235732399996
 20
340.019039110318
 30
0.0
 42
0.4142135623730951
  0
VERTEX
  5
555
  8
KOLO
 10
344.7347952839413
 20
338.5078170663763
 30
0.0
 42
0.4142135623730951
  0
VERTEX
  5
556
  8
KOLO
 10
346.246017327883
 20
340.019039110318
 30
0.0
 42
0.4142135623730951
  0
VERTEX
  5
557
  8
KOLO
 10
344.7347952839413
 20
341.5302611542598
 30
0.0
 42
0.4142135623730951
  0
SEQEND
  5
558
  8
KOLO
  0
POLYLINE
  5
111
  8
KOLO
 66
     1
 10
0.0
 20
0.0
 30
0.0
 70
     1
  0
VERTEX
  5
559
  8
KOLO
 10
339.1936477894883
 20
338.9392238402959
 30
0.0
 42
0.4142135623730951
  0
VERTEX
  5
55A
  8
KOLO
 10
340.7048698334301
 20
337.4280017963542
 30
0.0
 42
0.4142135623730951
  0
VERTEX
  5
55B
  8
KOLO
 10
342.2160918773718
 20
338.9392238402959
 30
0.0
 42
0.4142135623730951
  0
VERTEX
  5
55C
  8
KOLO
 10
340.7048698334301
 20
340.4504458842376
 30
0.0
 42
0.4142135623730951
  0
SEQEND
  5
55D
  8
KOLO
  0
POLYLINE
  5
112
  8
KOLO
 66
     1
 10
0.0
 20
0.0
 30
0.0
 70
     1
  0
VERTEX
  5
55E
  8
KOLO
 10
336.2435376089992
 20
335.9891136598068
 30
0.0
 42
0.4142135623730951
  0
VERTEX
  5
55F
  8
KOLO
 10
337.7547596529409
 20
334.4778916158651
 30
0.0
 42
0.4142135623730951
  0
VERTEX
  5
560
  8
KOLO
 10
339.2659816968826
 20
335.9891136598068
 30
0.0
 42
0.4142135623730951
  0
VERTEX
  5
561
  8
KOLO
 10
337.7547596529409
 20
337.5003357037485
 30
0.0
 42
0.4142135623730951
  0
SEQEND
  5
562
  8
KOLO
  0
POLYLINE
  5
113
  8
KOLO
 66
     1
 10
0.0
 20
0.0
 30
0.0
 70
     1
  0
VERTEX
  5
563
  8
KOLO
 10
343.2235732399996
 20
326.9217813961565
 30
0.0
  0
VERTEX
  5
564
  8
KOLO
 10
346.246017327883
 20
326.9217813961565
 30
0.0
  0
VERTEX
  5
565
  8
KOLO
 10
346.246017327883
 20
336.9965950224346
 30
0.0
  0
VERTEX
  5
566
  8
KOLO
 10
343.2235732399996
 20
336.9965950224346
 30
0.0
  0
SEQEND
  5
567
  8
KOLO
  0
POLYLINE
  5
114
  8
KOLO
 66
     1
 10
0.0
 20
0.0
 30
0.0
 70
     1
  0
VERTEX
  5
568
  8
KOLO
 10
141.6307579686054
 20
336.6611020175745
 30
0.0
 42
0.4142135623730951
  0
VERTEX
  5
569
  8
KOLO
 10
155.231756364081
 20
323.0601036220991
 30
0.0
 42
0.4142135623730951
  0
VERTEX
  5
56A
  8
KOLO
 10
168.8327547595564
 20
336.6611020175745
 30
0.0
 42
0.4142135623730951
  0
VERTEX
  5
56B
  8
KOLO
 10
155.231756364081
 20
350.26210041305
 30
0.0
 42
0.4142135623730951
  0
SEQEND
  5
56C
  8
KOLO
  0
POLYLINE
  5
115
  8
KOLO
 66
     1
 10
0.0
 20
0.0
 30
0.0
 70
     1
  0
VERTEX
  5
56D
  8
KOLO
 10
145.6606834191168
 20
336.6611020175745
 30
0.0
 42
0.4142135623730951
  0
VERTEX
  5
56E
  8
KOLO
 10
147.1719054630585
 20
335.1498799736328
 30
0.0
 42
0.4142135623730951
  0
VERTEX
  5
56F
  8
KOLO
 10
148.6831275070002
 20
336.6611020175745
 30
0.0
 42
0.4142135623730951
  0
VERTEX
  5
570
  8
KOLO
 10
147.1719054630585
 20
338.1723240615162
 30
0.0
 42
0.4142135623730951
  0
SEQEND
  5
571
  8
KOLO
  0
POLYLINE
  5
116
  8
KOLO
 66
     1
 10
0.0
 20
0.0
 30
0.0
 70
     1
  0
VERTEX
  5
572
  8
KOLO
 10
146.7404986891389
 20
332.6311765670633
 30
0.0
 42
0.4142135623730951
  0
VERTEX
  5
573
  8
KOLO
 10
148.2517207330806
 20
331.1199545231216
 30
0.0
 42
0.4142135623730951
  0
VERTEX
  5
574
  8
KOLO
 10
149.7629427770223
 20
332.6311765670633
 30
0.0
 42
0.4142135623730951
  0
VERTEX
  5
575
  8
KOLO
 10
148.2517207330806
 20
334.142398611005
 30
0.0
 42
0.4142135623730951
  0
SEQEND
  5
576
  8
KOLO
  0
POLYLINE
  5
117
  8
KOLO
 66
     1
 10
0.0
 20
0.0
 30
0.0
 70
     1
  0
VERTEX
  5
577
  8
KOLO
 10
149.690608869628
 20
329.6810663865742
 30
0.0
 42
0.4142135623730951
  0
VERTEX
  5
578
  8
KOLO
 10
151.2018309135697
 20
328.1698443426325
 30
0.0
 42
0.4142135623730951
  0
VERTEX
  5
579
  8
KOLO
 10
152.7130529575114
 20
329.6810663865742
 30
0.0
 42
0.4142135623730951
  0
VERTEX
  5
57A
  8
KOLO
 10
151.2018309135697
 20
331.1922884305159
 30
0.0
 42
0.4142135623730951
  0
SEQEND
  5
57B
  8
KOLO
  0
POLYLINE
  5
118
  8
KOLO
 66
     1
 10
0.0
 20
0.0
 30
0.0
 70
     1
  0
VERTEX
  5
57C
  8
KOLO
 10
153.7205343201392
 20
328.601251116552
 30
0.0
 42
0.4142135623730951
  0
VERTEX
  5
57D
  8
KOLO
 10
155.231756364081
 20
327.0900290726104
 30
0.0
 42
0.4142135623730951
  0
VERTEX
  5
57E
  8
KOLO
 10
156.7429784080227
 20
328.601251116552
 30
0.0
 42
0.4142135623730951
  0
VERTEX
  5
57F
  8
KOLO
 10
155.231756364081
 20
330.1124731604937
 30
0.0
 42
0.4142135623730951
  0
SEQEND
  5
580
  8
KOLO
  0
POLYLINE
  5
119
  8
KOLO
 66
     1
 10
0.0
 20
0.0
 30
0.0
 70
     1
  0
VERTEX
  5
581
  8
KOLO
 10
157.7504597706505
 20
329.6810663865742
 30
0.0
 42
0.4142135623730951
  0
VERTEX
  5
582
  8
KOLO
 10
159.2616818145922
 20
328.1698443426325
 30
0.0
 42
0.4142135623730951
  0
VERTEX
  5
583
  8
KOLO
 10
160.7729038585339
 20
329.6810663865742
 30
0.0
 42
0.4142135623730951
  0
VERTEX
  5
584
  8
KOLO
 10
159.2616818145922
 20
331.1922884305159
 30
0.0
 42
0.4142135623730951
  0
SEQEND
  5
585
  8
KOLO
  0
POLYLINE
  5
11A
  8
KOLO
 66
     1
 10
0.0
 20
0.0
 30
0.0
 70
     1
  0
VERTEX
  5
586
  8
KOLO
 10
160.7005699511396
 20
332.6311765670633
 30
0.0
 42
0.4142135623730951
  0
VERTEX
  5
587
  8
KOLO
 10
162.2117919950813
 20
331.1199545231216
 30
0.0
 42
0.4142135623730951
  0
VERTEX
  5
588
  8
KOLO
 10
163.723014039023
 20
332.6311765670633
 30
0.0
 42
0.4142135623730951
  0
VERTEX
  5
589
  8
KOLO
 10
162.2117919950813
 20
334.142398611005
 30
0.0
 42
0.4142135623730951
  0
SEQEND
  5
58A
  8
KOLO
  0
POLYLINE
  5
11B
  8
KOLO
 66
     1
 10
0.0
 20
0.0
 30
0.0
 70
     1
  0
VERTEX
  5
58B
  8
KOLO
 10
161.7803852211617
 20
336.6611020175745
 30
0.0
 42
0.4142135623730951
  0
VERTEX
  5
58C
  8
KOLO
 10
163.2916072651034
 20
335.1498799736328
 30
0.0
 42
0.4142135623730951
  0
VERTEX
  5
58D
  8
KOLO
 10
164.8028293090451
 20
336.6611020175745
 30
0.0
 42
0.4142135623730951
  0
VERTEX
  5
58E
  8
KOLO
 10
163.2916072651034
 20
338.1723240615162
 30
0.0
 42
0.4142135623730951
  0
SEQEND
  5
58F
  8
KOLO
  0
POLYLINE
  5
11C
  8
KOLO
 66
     1
 10
0.0
 20
0.0
 30
0.0
 70
     1
  0
VERTEX
  5
590
  8
KOLO
 10
160.7005699511396
 20
340.6910274680857
 30
0.0
 42
0.4142135623730951
  0
VERTEX
  5
591
  8
KOLO
 10
162.2117919950813
 20
339.179805424144
 30
0.0
 42
0.4142135623730951
  0
VERTEX
  5
592
  8
KOLO
 10
163.723014039023
 20
340.6910274680857
 30
0.0
 42
0.4142135623730951
  0
VERTEX
  5
593
  8
KOLO
 10
162.2117919950813
 20
342.2022495120275
 30
0.0
 42
0.4142135623730951
  0
SEQEND
  5
594
  8
KOLO
  0
POLYLINE
  5
11D
  8
KOLO
 66
     1
 10
0.0
 20
0.0
 30
0.0
 70
     1
  0
VERTEX
  5
595
  8
KOLO
 10
157.7504597706505
 20
343.6411376485748
 30
0.0
 42
0.4142135623730951
  0
VERTEX
  5
596
  8
KOLO
 10
159.2616818145922
 20
342.1299156046331
 30
0.0
 42
0.4142135623730951
  0
VERTEX
  5
597
  8
KOLO
 10
160.7729038585339
 20
343.6411376485748
 30
0.0
 42
0.4142135623730951
  0
VERTEX
  5
598
  8
KOLO
 10
159.2616818145922
 20
345.1523596925165
 30
0.0
 42
0.4142135623730951
  0
SEQEND
  5
599
  8
KOLO
  0
POLYLINE
  5
11E
  8
KOLO
 66
     1
 10
0.0
 20
0.0
 30
0.0
 70
     1
  0
VERTEX
  5
59A
  8
KOLO
 10
153.7205343201392
 20
344.7209529185969
 30
0.0
 42
0.4142135623730951
  0
VERTEX
  5
59B
  8
KOLO
 10
155.231756364081
 20
343.2097308746552
 30
0.0
 42
0.4142135623730951
  0
VERTEX
  5
59C
  8
KOLO
 10
156.7429784080227
 20
344.7209529185969
 30
0.0
 42
0.4142135623730951
  0
VERTEX
  5
59D
  8
KOLO
 10
155.231756364081
 20
346.2321749625387
 30
0.0
 42
0.4142135623730951
  0
SEQEND
  5
59E
  8
KOLO
  0
POLYLINE
  5
11F
  8
KOLO
 66
     1
 10
0.0
 20
0.0
 30
0.0
 70
     1
  0
VERTEX
  5
59F
  8
KOLO
 10
149.690608869628
 20
343.6411376485748
 30
0.0
 42
0.4142135623730951
  0
VERTEX
  5
5A0
  8
KOLO
 10
151.2018309135697
 20
342.1299156046331
 30
0.0
 42
0.4142135623730951
  0
VERTEX
  5
5A1
  8
KOLO
 10
152.7130529575114
 20
343.6411376485748
 30
0.0
 42
0.4142135623730951
  0
VERTEX
  5
5A2
  8
KOLO
 10
151.2018309135697
 20
345.1523596925165
 30
0.0
 42
0.4142135623730951
  0
SEQEND
  5
5A3
  8
KOLO
  0
POLYLINE
  5
120
  8
KOLO
 66
     1
 10
0.0
 20
0.0
 30
0.0
 70
     1
  0
VERTEX
  5
5A4
  8
KOLO
 10
146.7404986891389
 20
340.6910274680857
 30
0.0
 42
0.4142135623730951
  0
VERTEX
  5
5A5
  8
KOLO
 10
148.2517207330806
 20
339.179805424144
 30
0.0
 42
0.4142135623730951
  0
VERTEX
  5
5A6
  8
KOLO
 10
149.7629427770223
 20
340.6910274680857
 30
0.0
 42
0.4142135623730951
  0
VERTEX
  5
5A7
  8
KOLO
 10
148.2517207330806
 20
342.2022495120275
 30
0.0
 42
0.4142135623730951
  0
SEQEND
  5
5A8
  8
KOLO
  0
POLYLINE
  5
121
  8
KOLO
 66
     1
 10
0.0
 20
0.0
 30
0.0
 70
     1
  0
VERTEX
  5
5A9
  8
KOLO
 10
153.7205343201392
 20
331.6236952044355
 30
0.0
  0
VERTEX
  5
5AA
  8
KOLO
 10
156.7429784080227
 20
331.6236952044355
 30
0.0
  0
VERTEX
  5
5AB
  8
KOLO
 10
156.7429784080227
 20
341.6985088307136
 30
0.0
  0
VERTEX
  5
5AC
  8
KOLO
 10
153.7205343201392
 20
341.6985088307136
 30
0.0
  0
SEQEND
  5
5AD
  8
KOLO
  0
POLYLINE
  5
122
  8
KOLO
 66
     1
 10
0.0
 20
0.0
 30
0.0
 70
     1
  0
VERTEX
  5
5AE
  8
KOLO
 10
366.450523049958
 20
332.7203764823606
 30
0.0
 42
0.4142135623730951
  0
VERTEX
  5
5AF
  8
KOLO
 10
380.0515214454334
 20
319.1193780868851
 30
0.0
 42
0.4142135623730951
  0
VERTEX
  5
5B0
  8
KOLO
 10
393.6525198409088
 20
332.7203764823606
 30
0.0
 42
0.4142135623730951
  0
VERTEX
  5
5B1
  8
KOLO
 10
380.0515214454334
 20
346.321374877836
 30
0.0
 42
0.4142135623730951
  0
SEQEND
  5
5B2
  8
KOLO
  0
POLYLINE
  5
123
  8
KOLO
 66
     1
 10
0.0
 20
0.0
 30
0.0
 70
     1
  0
VERTEX
  5
5B3
  8
KOLO
 10
370.4804485004692
 20
332.7203764823606
 30
0.0
 42
0.4142135623730951
  0
VERTEX
  5
5B4
  8
KOLO
 10
371.9916705444109
 20
331.2091544384189
 30
0.0
 42
0.4142135623730951
  0
VERTEX
  5
5B5
  8
KOLO
 10
373.5028925883527
 20
332.7203764823606
 30
0.0
 42
0.4142135623730951
  0
VERTEX
  5
5B6
  8
KOLO
 10
371.9916705444109
 20
334.2315985263023
 30
0.0
 42
0.4142135623730951
  0
SEQEND
  5
5B7
  8
KOLO
  0
POLYLINE
  5
124
  8
KOLO
 66
     1
 10
0.0
 20
0.0
 30
0.0
 70
     1
  0
VERTEX
  5
5B8
  8
KOLO
 10
371.5602637704914
 20
328.6904510318493
 30
0.0
 42
0.4142135623730951
  0
VERTEX
  5
5B9
  8
KOLO
 10
373.0714858144331
 20
327.1792289879077
 30
0.0
 42
0.4142135623730951
  0
VERTEX
  5
5BA
  8
KOLO
 10
374.5827078583748
 20
328.6904510318493
 30
0.0
 42
0.4142135623730951
  0
VERTEX
  5
5BB
  8
KOLO
 10
373.0714858144331
 20
330.201673075791
 30
0.0
 42
0.4142135623730951
  0
SEQEND
  5
5BC
  8
KOLO
  0
POLYLINE
  5
125
  8
KOLO
 66
     1
 10
0.0
 20
0.0
 30
0.0
 70
     1
  0
VERTEX
  5
5BD
  8
KOLO
 10
374.5103739509805
 20
325.7403408513603
 30
0.0
 42
0.4142135623730951
  0
VERTEX
  5
5BE
  8
KOLO
 10
376.0215959949222
 20
324.2291188074185
 30
0.0
 42
0.4142135623730951
  0
VERTEX
  5
5BF
  8
KOLO
 10
377.5328180388639
 20
325.7403408513603
 30
0.0
 42
0.4142135623730951
  0
VERTEX
  5
5C0
  8
KOLO
 10
376.0215959949222
 20
327.251562895302
 30
0.0
 42
0.4142135623730951
  0
SEQEND
  5
5C1
  8
KOLO
  0
POLYLINE
  5
126
  8
KOLO
 66
     1
 10
0.0
 20
0.0
 30
0.0
 70
     1
  0
VERTEX
  5
5C2
  8
KOLO
 10
378.5402994014917
 20
324.6605255813382
 30
0.0
 42
0.4142135623730951
  0
VERTEX
  5
5C3
  8
KOLO
 10
380.0515214454334
 20
323.1493035373964
 30
0.0
 42
0.4142135623730951
  0
VERTEX
  5
5C4
  8
KOLO
 10
381.5627434893751
 20
324.6605255813382
 30
0.0
 42
0.4142135623730951
  0
VERTEX
  5
5C5
  8
KOLO
 10
380.0515214454334
 20
326.1717476252798
 30
0.0
 42
0.4142135623730951
  0
SEQEND
  5
5C6
  8
KOLO
  0
POLYLINE
  5
127
  8
KOLO
 66
     1
 10
0.0
 20
0.0
 30
0.0
 70
     1
  0
VERTEX
  5
5C7
  8
KOLO
 10
382.5702248520029
 20
325.7403408513603
 30
0.0
 42
0.4142135623730951
  0
VERTEX
  5
5C8
  8
KOLO
 10
384.0814468959446
 20
324.2291188074185
 30
0.0
 42
0.4142135623730951
  0
VERTEX
  5
5C9
  8
KOLO
 10
385.5926689398863
 20
325.7403408513603
 30
0.0
 42
0.4142135623730951
  0
VERTEX
  5
5CA
  8
KOLO
 10
384.0814468959446
 20
327.251562895302
 30
0.0
 42
0.4142135623730951
  0
SEQEND
  5
5CB
  8
KOLO
  0
POLYLINE
  5
128
  8
KOLO
 66
     1
 10
0.0
 20
0.0
 30
0.0
 70
     1
  0
VERTEX
  5
5CC
  8
KOLO
 10
385.520335032492
 20
328.6904510318493
 30
0.0
 42
0.4142135623730951
  0
VERTEX
  5
5CD
  8
KOLO
 10
387.0315570764337
 20
327.1792289879077
 30
0.0
 42
0.4142135623730951
  0
VERTEX
  5
5CE
  8
KOLO
 10
388.5427791203754
 20
328.6904510318493
 30
0.0
 42
0.4142135623730951
  0
VERTEX
  5
5CF
  8
KOLO
 10
387.0315570764337
 20
330.201673075791
 30
0.0
 42
0.4142135623730951
  0
SEQEND
  5
5D0
  8
KOLO
  0
POLYLINE
  5
129
  8
KOLO
 66
     1
 10
0.0
 20
0.0
 30
0.0
 70
     1
  0
VERTEX
  5
5D1
  8
KOLO
 10
386.6001503025141
 20
332.7203764823606
 30
0.0
 42
0.4142135623730951
  0
VERTEX
  5
5D2
  8
KOLO
 10
388.1113723464558
 20
331.2091544384189
 30
0.0
 42
0.4142135623730951
  0
VERTEX
  5
5D3
  8
KOLO
 10
389.6225943903976
 20
332.7203764823606
 30
0.0
 42
0.4142135623730951
  0
VERTEX
  5
5D4
  8
KOLO
 10
388.1113723464558
 20
334.2315985263023
 30
0.0
 42
0.4142135623730951
  0
SEQEND
  5
5D5
  8
KOLO
  0
POLYLINE
  5
12A
  8
KOLO
 66
     1
 10
0.0
 20
0.0
 30
0.0
 70
     1
  0
VERTEX
  5
5D6
  8
KOLO
 10
385.520335032492
 20
336.7503019328718
 30
0.0
 42
0.4142135623730951
  0
VERTEX
  5
5D7
  8
KOLO
 10
387.0315570764337
 20
335.2390798889301
 30
0.0
 42
0.4142135623730951
  0
VERTEX
  5
5D8
  8
KOLO
 10
388.5427791203754
 20
336.7503019328718
 30
0.0
 42
0.4142135623730951
  0
VERTEX
  5
5D9
  8
KOLO
 10
387.0315570764337
 20
338.2615239768135
 30
0.0
 42
0.4142135623730951
  0
SEQEND
  5
5DA
  8
KOLO
  0
POLYLINE
  5
12B
  8
KOLO
 66
     1
 10
0.0
 20
0.0
 30
0.0
 70
     1
  0
VERTEX
  5
5DB
  8
KOLO
 10
382.5702248520029
 20
339.7004121133609
 30
0.0
 42
0.4142135623730951
  0
VERTEX
  5
5DC
  8
KOLO
 10
384.0814468959446
 20
338.1891900694192
 30
0.0
 42
0.4142135623730951
  0
VERTEX
  5
5DD
  8
KOLO
 10
385.5926689398863
 20
339.7004121133609
 30
0.0
 42
0.4142135623730951
  0
VERTEX
  5
5DE
  8
KOLO
 10
384.0814468959446
 20
341.2116341573026
 30
0.0
 42
0.4142135623730951
  0
SEQEND
  5
5DF
  8
KOLO
  0
POLYLINE
  5
12C
  8
KOLO
 66
     1
 10
0.0
 20
0.0
 30
0.0
 70
     1
  0
VERTEX
  5
5E0
  8
KOLO
 10
378.5402994014917
 20
340.780227383383
 30
0.0
 42
0.4142135623730951
  0
VERTEX
  5
5E1
  8
KOLO
 10
380.0515214454334
 20
339.2690053394413
 30
0.0
 42
0.4142135623730951
  0
VERTEX
  5
5E2
  8
KOLO
 10
381.5627434893751
 20
340.780227383383
 30
0.0
 42
0.4142135623730951
  0
VERTEX
  5
5E3
  8
KOLO
 10
380.0515214454334
 20
342.2914494273248
 30
0.0
 42
0.4142135623730951
  0
SEQEND
  5
5E4
  8
KOLO
  0
POLYLINE
  5
12D
  8
KOLO
 66
     1
 10
0.0
 20
0.0
 30
0.0
 70
     1
  0
VERTEX
  5
5E5
  8
KOLO
 10
374.5103739509805
 20
339.7004121133609
 30
0.0
 42
0.4142135623730951
  0
VERTEX
  5
5E6
  8
KOLO
 10
376.0215959949222
 20
338.1891900694192
 30
0.0
 42
0.4142135623730951
  0
VERTEX
  5
5E7
  8
KOLO
 10
377.5328180388639
 20
339.7004121133609
 30
0.0
 42
0.4142135623730951
  0
VERTEX
  5
5E8
  8
KOLO
 10
376.0215959949222
 20
341.2116341573026
 30
0.0
 42
0.4142135623730951
  0
SEQEND
  5
5E9
  8
KOLO
  0
POLYLINE
  5
12E
  8
KOLO
 66
     1
 10
0.0
 20
0.0
 30
0.0
 70
     1
  0
VERTEX
  5
5EA
  8
KOLO
 10
371.5602637704914
 20
336.7503019328718
 30
0.0
 42
0.4142135623730951
  0
VERTEX
  5
5EB
  8
KOLO
 10
373.0714858144331
 20
335.2390798889301
 30
0.0
 42
0.4142135623730951
  0
VERTEX
  5
5EC
  8
KOLO
 10
374.5827078583748
 20
336.7503019328718
 30
0.0
 42
0.4142135623730951
  0
VERTEX
  5
5ED
  8
KOLO
 10
373.0714858144331
 20
338.2615239768135
 30
0.0
 42
0.4142135623730951
  0
SEQEND
  5
5EE
  8
KOLO
  0
POLYLINE
  5
12F
  8
KOLO
 66
     1
 10
0.0
 20
0.0
 30
0.0
 70
     1
  0
VERTEX
  5
5EF
  8
KOLO
 10
378.5402994014917
 20
327.6829696692215
 30
0.0
  0
VERTEX
  5
5F0
  8
KOLO
 10
381.5627434893751
 20
327.6829696692215
 30
0.0
  0
VERTEX
  5
5F1
  8
KOLO
 10
381.5627434893751
 20
337.7577832954996
 30
0.0
  0
VERTEX
  5
5F2
  8
KOLO
 10
378.5402994014917
 20
337.7577832954996
 30
0.0
  0
SEQEND
  5
5F3
  8
KOLO
  0
POLYLINE
  5
130
  8
KOLO
 66
     1
 10
0.0
 20
0.0
 30
0.0
 70
     1
  0
VERTEX
  5
5F4
  8
KOLO
 10
204.6197580957978
 20
420.7161866596004
 30
0.0
  0
VERTEX
  5
5F5
  8
KOLO
 10
203.61227673317
 20
420.7161866596004
 30
0.0
  0
VERTEX
  5
5F6
  8
KOLO
 10
203.61227673317
 20
424.7461121101117
 30
0.0
  0
VERTEX
  5
5F7
  8
KOLO
 10
200.5898326452865
 20
424.7461121101117
 30
0.0
  0
VERTEX
  5
5F8
  8
KOLO
 10
200.5898326452865
 20
420.7161866596004
 30
0.0
  0
VERTEX
  5
5F9
  8
KOLO
 10
198.5748699200309
 20
420.7161866596004
 30
0.0
  0
VERTEX
  5
5FA
  8
KOLO
 10
198.5748699200309
 20
433.813444373762
 30
0.0
  0
VERTEX
  5
5FB
  8
KOLO
 10
194.5449444695197
 20
433.813444373762
 30
0.0
  0
VERTEX
  5
5FC
  8
KOLO
 10
194.5449444695197
 20
431.7984816485064
 30
0.0
 42
-0.4142135623731065
  0
VERTEX
  5
5FD
  8
KOLO
 10
193.5374631068919
 20
430.7910002858786
 30
0.0
  0
VERTEX
  5
5FE
  8
KOLO
 10
181.4476867553582
 20
430.7910002858786
 30
0.0
 42
-0.4142135623731065
  0
VERTEX
  5
5FF
  8
KOLO
 10
180.4402053927304
 20
431.7984816485064
 30
0.0
  0
VERTEX
  5
600
  8
KOLO
 10
180.4402053927304
 20
438.850851186901
 30
0.0
 42
-0.4142135623731065
  0
VERTEX
  5
601
  8
KOLO
 10
181.4476867553582
 20
439.8583325495289
 30
0.0
  0
VERTEX
  5
602
  8
KOLO
 10
193.5374631068919
 20
439.8583325495289
 30
0.0
 42
-0.4142135623731065
  0
VERTEX
  5
603
  8
KOLO
 10
194.5449444695197
 20
438.850851186901
 30
0.0
  0
VERTEX
  5
604
  8
KOLO
 10
194.5449444695197
 20
436.8358884616454
 30
0.0
  0
VERTEX
  5
605
  8
KOLO
 10
204.6197580957978
 20
436.8358884616454
 30
0.0
  0
SEQEND
  5
606
  8
KOLO
  0
POLYLINE
  5
131
  8
KOLO
 66
     1
 10
0.0
 20
0.0
 30
0.0
 70
     1
  0
VERTEX
  5
607
  8
KOLO
 10
206.1421346419276
 20
398.8880198302795
 30
0.0
  0
VERTEX
  5
608
  8
KOLO
 10
206.1421346419276
 20
405.9403893686741
 30
0.0
 42
0.4142135623731065
  0
VERTEX
  5
609
  8
KOLO
 10
205.1346532792998
 20
406.947870731302
 30
0.0
  0
VERTEX
  5
60A
  8
KOLO
 10
193.0448769277661
 20
406.947870731302
 30
0.0
 42
0.4142135623731065
  0
VERTEX
  5
60B
  8
KOLO
 10
192.0373955651383
 20
405.9403893686741
 30
0.0
  0
VERTEX
  5
60C
  8
KOLO
 10
192.0373955651383
 20
403.9254266434185
 30
0.0
  0
VERTEX
  5
60D
  8
KOLO
 10
188.0074701146271
 20
403.9254266434185
 30
0.0
  0
VERTEX
  5
60E
  8
KOLO
 10
188.0074701146271
 20
417.02268435758
 30
0.0
  0
VERTEX
  5
60F
  8
KOLO
 10
185.9925073893714
 20
417.02268435758
 30
0.0
  0
VERTEX
  5
610
  8
KOLO
 10
185.9925073893714
 20
412.9927589070688
 30
0.0
  0
VERTEX
  5
611
  8
KOLO
 10
182.970063301488
 20
412.9927589070688
 30
0.0
  0
VERTEX
  5
612
  8
KOLO
 10
182.970063301488
 20
417.02268435758
 30
0.0
  0
VERTEX
  5
613
  8
KOLO
 10
181.9625819388602
 20
417.02268435758
 30
0.0
  0
VERTEX
  5
614
  8
KOLO
 10
181.9625819388602
 20
400.9029825555351
 30
0.0
  0
VERTEX
  5
615
  8
KOLO
 10
192.0373955651383
 20
400.9029825555351
 30
0.0
  0
VERTEX
  5
616
  8
KOLO
 10
192.0373955651383
 20
398.8880198302795
 30
0.0
 42
0.4142135623731065
  0
VERTEX
  5
617
  8
KOLO
 10
193.0448769277661
 20
397.8805384676517
 30
0.0
  0
VERTEX
  5
618
  8
KOLO
 10
205.1346532792998
 20
397.8805384676517
 30
0.0
 42
0.4142135623731065
  0
SEQEND
  5
619
  8
KOLO
  0
POLYLINE
  5
132
  8
KOLO
 66
     1
 10
0.0
 20
0.0
 30
0.0
 70
     1
  0
VERTEX
  5
61A
  8
KOLO
 10
70.14688135505067
 20
244.2655158369762
 30
0.0
  0
VERTEX
  5
61B
  8
KOLO
 10
70.14688135505067
 20
302.6994348693891
 30
0.0
  0
VERTEX
  5
61C
  8
KOLO
 10
53.01969819037795
 20
302.6994348693891
 30
0.0
  0
VERTEX
  5
61D
  8
KOLO
 10
53.01969819037795
 20
295.1433246496806
 30
0.0
  0
VERTEX
  5
61E
  8
KOLO
 10
46.97481001461111
 20
295.1433246496806
 30
0.0
  0
VERTEX
  5
61F
  8
KOLO
 10
46.97481001461111
 20
285.0685110234024
 30
0.0
  0
VERTEX
  5
620
  8
KOLO
 10
53.01969819037795
 20
285.0685110234024
 30
0.0
  0
VERTEX
  5
621
  8
KOLO
 10
53.01969819037795
 20
261.8964396829629
 30
0.0
  0
VERTEX
  5
622
  8
KOLO
 10
46.97481001461111
 20
261.8964396829629
 30
0.0
  0
VERTEX
  5
623
  8
KOLO
 10
46.97481001461111
 20
251.8216260566849
 30
0.0
  0
VERTEX
  5
624
  8
KOLO
 10
53.01969819037795
 20
251.8216260566849
 30
0.0
  0
VERTEX
  5
625
  8
KOLO
 10
53.01969819037795
 20
244.2655158369762
 30
0.0
  0
SEQEND
  5
626
  8
KOLO
  0
POLYLINE
  5
133
  8
KOLO
 66
     1
 10
0.0
 20
0.0
 30
0.0
 70
     1
  0
VERTEX
  5
627
  8
KOLO
 10
206.3884277314905
 20
379.5785564075279
 30
0.0
  0
VERTEX
  5
628
  8
KOLO
 10
206.3884277314905
 20
389.653370033806
 30
0.0
  0
VERTEX
  5
629
  8
KOLO
 10
200.3435395557237
 20
389.653370033806
 30
0.0
  0
VERTEX
  5
62A
  8
KOLO
 10
200.3435395557237
 20
390.6608513964337
 30
0.0
  0
VERTEX
  5
62B
  8
KOLO
 10
184.2238377536787
 20
390.6608513964337
 30
0.0
 42
0.4142135623730994
  0
VERTEX
  5
62C
  8
KOLO
 10
180.1939123031674
 20
386.6309259459225
 30
0.0
  0
VERTEX
  5
62D
  8
KOLO
 10
180.1939123031674
 20
382.6010004954113
 30
0.0
 42
0.4142135623730994
  0
VERTEX
  5
62E
  8
KOLO
 10
184.2238377536787
 20
378.5710750449
 30
0.0
  0
VERTEX
  5
62F
  8
KOLO
 10
200.3435395557236
 20
378.5710750449
 30
0.0
  0
VERTEX
  5
630
  8
KOLO
 10
200.3435395557237
 20
379.5785564075279
 30
0.0
  0
SEQEND
  5
631
  8
KOLO
  0
POLYLINE
  5
134
  8
KOLO
 66
     1
 10
0.0
 20
0.0
 30
0.0
 70
     1
  0
VERTEX
  5
632
  8
KOLO
 10
235.8507862958377
 20
418.1082472355253
 30
0.0
 42
-0.4142135623730994
  0
VERTEX
  5
633
  8
KOLO
 10
239.880711746349
 20
414.0783217850141
 30
0.0
  0
VERTEX
  5
634
  8
KOLO
 10
239.880711746349
 20
410.0483963345029
 30
0.0
 42
-0.4142135623730994
  0
VERTEX
  5
635
  8
KOLO
 10
235.8507862958377
 20
406.0184708839916
 30
0.0
  0
VERTEX
  5
636
  8
KOLO
 10
219.7310844937928
 20
406.0184708839916
 30
0.0
  0
VERTEX
  5
637
  8
KOLO
 10
219.7310844937928
 20
413.0708404223863
 30
0.0
  0
VERTEX
  5
638
  8
KOLO
 10
213.6861963180259
 20
413.0708404223863
 30
0.0
  0
VERTEX
  5
639
  8
KOLO
 10
213.6861963180259
 20
423.1456540486644
 30
0.0
  0
VERTEX
  5
63A
  8
KOLO
 10
219.7310844937928
 20
423.1456540486644
 30
0.0
  0
VERTEX
  5
63B
  8
KOLO
 10
219.7310844937928
 20
430.198023587059
 30
0.0
  0
VERTEX
  5
63C
  8
KOLO
 10
235.8507862958377
 20
430.1980235870592
 30
0.0
 42
-0.4142135623730994
  0
VERTEX
  5
63D
  8
KOLO
 10
239.880711746349
 20
426.1680981365479
 30
0.0
  0
VERTEX
  5
63E
  8
KOLO
 10
239.880711746349
 20
422.1381726860366
 30
0.0
 42
-0.4142135623730994
  0
SEQEND
  5
63F
  8
KOLO
  0
POLYLINE
  5
135
  8
KOLO
 66
     1
 10
0.0
 20
0.0
 30
0.0
 70
     1
  0
VERTEX
  5
640
  8
KOLO
 10
93.76602682444086
 20
250.3550220214961
 30
0.0
  0
VERTEX
  5
641
  8
KOLO
 10
93.76602682444086
 20
308.788941053909
 30
0.0
  0
VERTEX
  5
642
  8
KOLO
 10
76.63884365976814
 20
308.788941053909
 30
0.0
  0
VERTEX
  5
643
  8
KOLO
 10
76.63884365976814
 20
250.3550220214961
 30
0.0
  0
SEQEND
  5
644
  8
KOLO
  0
POLYLINE
  5
136
  8
KOLO
 66
     1
 10
0.0
 20
0.0
 30
0.0
 70
     1
  0
VERTEX
  5
645
  8
KOLO
 10
202.3585022809795
 20
358.7355619364584
 30
0.0
 42
-0.4142135623730994
  0
VERTEX
  5
646
  8
KOLO
 10
206.3884277314907
 20
354.7056364859472
 30
0.0
  0
VERTEX
  5
647
  8
KOLO
 10
206.3884277314907
 20
350.6757110354359
 30
0.0
 42
-0.4142135623730994
  0
VERTEX
  5
648
  8
KOLO
 10
202.3585022809795
 20
346.6457855849247
 30
0.0
  0
VERTEX
  5
649
  8
KOLO
 10
186.2388004789346
 20
346.6457855849247
 30
0.0
  0
VERTEX
  5
64A
  8
KOLO
 10
186.2388004789345
 20
353.6981551233193
 30
0.0
  0
VERTEX
  5
64B
  8
KOLO
 10
180.1939123031677
 20
353.6981551233193
 30
0.0
  0
VERTEX
  5
64C
  8
KOLO
 10
180.1939123031677
 20
363.7729687495974
 30
0.0
  0
VERTEX
  5
64D
  8
KOLO
 10
186.2388004789345
 20
363.7729687495974
 30
0.0
  0
VERTEX
  5
64E
  8
KOLO
 10
186.2388004789345
 20
370.8253382879921
 30
0.0
  0
VERTEX
  5
64F
  8
KOLO
 10
202.3585022809795
 20
370.8253382879921
 30
0.0
 42
-0.4142135623730994
  0
VERTEX
  5
650
  8
KOLO
 10
206.3884277314907
 20
366.7954128374808
 30
0.0
  0
VERTEX
  5
651
  8
KOLO
 10
206.3884277314907
 20
362.7654873869697
 30
0.0
 42
-0.4142135623730994
  0
SEQEND
  5
652
  8
KOLO
  0
POLYLINE
  5
137
  8
KOLO
 66
     1
 10
0.0
 20
0.0
 30
0.0
 70
     1
  0
VERTEX
  5
653
  8
KOLO
 10
236.6119745689028
 20
389.1830928590567
 30
0.0
 42
0.4142135623730994
  0
VERTEX
  5
654
  8
KOLO
 10
240.641900019414
 20
393.213018309568
 30
0.0
  0
VERTEX
  5
655
  8
KOLO
 10
240.641900019414
 20
397.2429437600792
 30
0.0
 42
0.4142135623730994
  0
VERTEX
  5
656
  8
KOLO
 10
236.6119745689028
 20
401.2728692105904
 30
0.0
  0
VERTEX
  5
657
  8
KOLO
 10
220.4922727668578
 20
401.2728692105904
 30
0.0
  0
VERTEX
  5
658
  8
KOLO
 10
220.4922727668578
 20
394.2204996721958
 30
0.0
  0
VERTEX
  5
659
  8
KOLO
 10
214.447384591091
 20
394.2204996721958
 30
0.0
  0
VERTEX
  5
65A
  8
KOLO
 10
214.447384591091
 20
384.1456860459177
 30
0.0
  0
VERTEX
  5
65B
  8
KOLO
 10
220.4922727668578
 20
384.1456860459177
 30
0.0
  0
VERTEX
  5
65C
  8
KOLO
 10
220.4922727668578
 20
377.0933165075231
 30
0.0
  0
VERTEX
  5
65D
  8
KOLO
 10
236.6119745689028
 20
377.0933165075231
 30
0.0
 42
0.4142135623730994
  0
VERTEX
  5
65E
  8
KOLO
 10
240.641900019414
 20
381.1232419580343
 30
0.0
  0
VERTEX
  5
65F
  8
KOLO
 10
240.641900019414
 20
385.1531674085455
 30
0.0
 42
0.4142135623730994
  0
SEQEND
  5
660
  8
KOLO
  0
POLYLINE
  5
138
  8
KOLO
 66
     1
 10
0.0
 20
0.0
 30
0.0
 70
     1
  0
VERTEX
  5
661
  8
KOLO
 10
269.3430703106961
 20
422.675376873915
 30
0.0
 42
0.4142135623730994
  0
VERTEX
  5
662
  8
KOLO
 10
273.3729957612073
 20
426.7053023244262
 30
0.0
  0
VERTEX
  5
663
  8
KOLO
 10
273.3729957612073
 20
430.7352277749375
 30
0.0
 42
0.4142135623730994
  0
VERTEX
  5
664
  8
KOLO
 10
269.3430703106961
 20
434.7651532254488
 30
0.0
  0
VERTEX
  5
665
  8
KOLO
 10
253.2233685086512
 20
434.7651532254487
 30
0.0
  0
VERTEX
  5
666
  8
KOLO
 10
253.2233685086512
 20
427.712783687054
 30
0.0
  0
VERTEX
  5
667
  8
KOLO
 10
247.1784803328843
 20
427.712783687054
 30
0.0
  0
VERTEX
  5
668
  8
KOLO
 10
247.1784803328843
 20
417.637970060776
 30
0.0
  0
VERTEX
  5
669
  8
KOLO
 10
253.2233685086512
 20
417.637970060776
 30
0.0
  0
VERTEX
  5
66A
  8
KOLO
 10
253.2233685086512
 20
410.5856005223812
 30
0.0
  0
VERTEX
  5
66B
  8
KOLO
 10
269.3430703106961
 20
410.5856005223812
 30
0.0
 42
0.4142135623731029
  0
VERTEX
  5
66C
  8
KOLO
 10
273.3729957612073
 20
414.6155259728925
 30
0.0
  0
VERTEX
  5
66D
  8
KOLO
 10
273.3729957612073
 20
418.6454514234037
 30
0.0
 42
0.4142135623731029
  0
SEQEND
  5
66E
  8
KOLO
  0
POLYLINE
  5
139
  8
KOLO
 66
     1
 10
0.0
 20
0.0
 30
0.0
 70
     1
  0
VERTEX
  5
66F
  8
KOLO
 10
240.4179159342276
 20
360.2579384825883
 30
0.0
 42
0.4142135623730994
  0
VERTEX
  5
670
  8
KOLO
 10
244.4478413847388
 20
364.2878639330995
 30
0.0
  0
VERTEX
  5
671
  8
KOLO
 10
244.4478413847388
 20
368.3177893836107
 30
0.0
 42
0.4142135623730994
  0
VERTEX
  5
672
  8
KOLO
 10
240.4179159342276
 20
372.3477148341219
 30
0.0
  0
VERTEX
  5
673
  8
KOLO
 10
224.2982141321826
 20
372.3477148341219
 30
0.0
  0
VERTEX
  5
674
  8
KOLO
 10
224.2982141321826
 20
365.2953452957272
 30
0.0
  0
VERTEX
  5
675
  8
KOLO
 10
218.2533259564158
 20
365.2953452957272
 30
0.0
  0
VERTEX
  5
676
  8
KOLO
 10
218.2533259564158
 20
355.2205316694491
 30
0.0
  0
VERTEX
  5
677
  8
KOLO
 10
224.2982141321826
 20
355.2205316694491
 30
0.0
  0
VERTEX
  5
678
  8
KOLO
 10
224.2982141321826
 20
348.1681621310545
 30
0.0
  0
VERTEX
  5
679
  8
KOLO
 10
240.4179159342276
 20
348.1681621310545
 30
0.0
 42
0.4142135623730994
  0
VERTEX
  5
67A
  8
KOLO
 10
244.4478413847388
 20
352.1980875815657
 30
0.0
  0
VERTEX
  5
67B
  8
KOLO
 10
244.4478413847388
 20
356.228013032077
 30
0.0
 42
0.4142135623730994
  0
SEQEND
  5
67C
  8
KOLO
  0
POLYLINE
  5
13A
  8
KOLO
 66
     1
 10
0.0
 20
0.0
 30
0.0
 70
     1
  0
VERTEX
  5
67D
  8
KOLO
 10
268.5818820376311
 20
391.4666576782517
 30
0.0
 42
0.4142135623730994
  0
VERTEX
  5
67E
  8
KOLO
 10
272.6118074881424
 20
395.4965831287629
 30
0.0
  0
VERTEX
  5
67F
  8
KOLO
 10
272.6118074881424
 20
399.5265085792742
 30
0.0
 42
0.4142135623730994
  0
VERTEX
  5
680
  8
KOLO
 10
268.5818820376311
 20
403.5564340297854
 30
0.0
  0
VERTEX
  5
681
  8
KOLO
 10
252.4621802355862
 20
403.5564340297854
 30
0.0
  0
VERTEX
  5
682
  8
KOLO
 10
252.4621802355862
 20
396.5040644913908
 30
0.0
  0
VERTEX
  5
683
  8
KOLO
 10
246.4172920598193
 20
396.5040644913908
 30
0.0
  0
VERTEX
  5
684
  8
KOLO
 10
246.4172920598193
 20
386.4292508651126
 30
0.0
  0
VERTEX
  5
685
  8
KOLO
 10
252.4621802355862
 20
386.4292508651126
 30
0.0
  0
VERTEX
  5
686
  8
KOLO
 10
252.4621802355862
 20
379.376881326718
 30
0.0
  0
VERTEX
  5
687
  8
KOLO
 10
268.5818820376311
 20
379.376881326718
 30
0.0
 42
0.4142135623731029
  0
VERTEX
  5
688
  8
KOLO
 10
272.6118074881424
 20
383.4068067772293
 30
0.0
  0
VERTEX
  5
689
  8
KOLO
 10
272.6118074881424
 20
387.4367322277405
 30
0.0
 42
0.4142135623731029
  0
SEQEND
  5
68A
  8
KOLO
  0
POLYLINE
  5
13B
  8
KOLO
 66
     1
 10
0.0
 20
0.0
 30
0.0
 70
     1
  0
VERTEX
  5
68B
  8
KOLO
 10
168.6877462311097
 20
252.392293751128
 30
0.0
  0
VERTEX
  5
68C
  8
KOLO
 10
168.6877462311097
 20
312.8411755087964
 30
0.0
  0
VERTEX
  5
68D
  8
KOLO
 10
157.6054512422038
 20
312.8411755087964
 30
0.0
  0
VERTEX
  5
68E
  8
KOLO
 10
157.6054512422038
 20
315.8636195966798
 30
0.0
  0
VERTEX
  5
68F
  8
KOLO
 10
147.5306376159257
 20
315.8636195966798
 30
0.0
  0
VERTEX
  5
690
  8
KOLO
 10
147.5306376159257
 20
312.8411755087964
 30
0.0
  0
VERTEX
  5
691
  8
KOLO
 10
117.3061967370914
 20
312.8411755087964
 30
0.0
  0
VERTEX
  5
692
  8
KOLO
 10
117.3061967370914
 20
315.8636195966798
 30
0.0
  0
VERTEX
  5
693
  8
KOLO
 10
107.2313831108133
 20
315.8636195966798
 30
0.0
  0
VERTEX
  5
694
  8
KOLO
 10
107.2313831108133
 20
312.8411755087964
 30
0.0
  0
VERTEX
  5
695
  8
KOLO
 10
102.1939762976743
 20
312.8411755087964
 30
0.0
  0
VERTEX
  5
696
  8
KOLO
 10
102.1939762976743
 20
252.392293751128
 30
0.0
  0
VERTEX
  5
697
  8
KOLO
 10
107.2313831108133
 20
252.392293751128
 30
0.0
  0
VERTEX
  5
698
  8
KOLO
 10
107.2313831108133
 20
249.3698496632446
 30
0.0
  0
VERTEX
  5
699
  8
KOLO
 10
117.3061967370914
 20
249.3698496632446
 30
0.0
  0
VERTEX
  5
69A
  8
KOLO
 10
117.3061967370914
 20
252.392293751128
 30
0.0
  0
VERTEX
  5
69B
  8
KOLO
 10
147.5306376159257
 20
252.392293751128
 30
0.0
  0
VERTEX
  5
69C
  8
KOLO
 10
147.5306376159257
 20
249.3698496632446
 30
0.0
  0
VERTEX
  5
69D
  8
KOLO
 10
157.6054512422037
 20
249.3698496632446
 30
0.0
  0
VERTEX
  5
69E
  8
KOLO
 10
157.6054512422037
 20
252.392293751128
 30
0.0
  0
SEQEND
  5
69F
  8
KOLO
  0
POLYLINE
  5
13C
  8
KOLO
 66
     1
 10
0.0
 20
0.0
 30
0.0
 70
     1
  0
VERTEX
  5
6A0
  8
KOLO
 10
301.3129777794245
 20
422.6753768739151
 30
0.0
 42
0.4142135623730994
  0
VERTEX
  5
6A1
  8
KOLO
 10
305.3429032299357
 20
426.7053023244263
 30
0.0
  0
VERTEX
  5
6A2
  8
KOLO
 10
305.3429032299357
 20
430.7352277749376
 30
0.0
 42
0.4142135623730994
  0
VERTEX
  5
6A3
  8
KOLO
 10
301.3129777794245
 20
434.7651532254488
 30
0.0
  0
VERTEX
  5
6A4
  8
KOLO
 10
285.1932759773795
 20
434.7651532254488
 30
0.0
  0
VERTEX
  5
6A5
  8
KOLO
 10
285.1932759773795
 20
427.7127836870541
 30
0.0
  0
VERTEX
  5
6A6
  8
KOLO
 10
279.1483878016127
 20
427.7127836870541
 30
0.0
  0
VERTEX
  5
6A7
  8
KOLO
 10
279.1483878016127
 20
417.6379700607761
 30
0.0
  0
VERTEX
  5
6A8
  8
KOLO
 10
285.1932759773795
 20
417.6379700607761
 30
0.0
  0
VERTEX
  5
6A9
  8
KOLO
 10
285.1932759773795
 20
410.5856005223814
 30
0.0
  0
VERTEX
  5
6AA
  8
KOLO
 10
301.3129777794245
 20
410.5856005223814
 30
0.0
 42
0.4142135623731029
  0
VERTEX
  5
6AB
  8
KOLO
 10
305.3429032299357
 20
414.6155259728926
 30
0.0
  0
VERTEX
  5
6AC
  8
KOLO
 10
305.3429032299357
 20
418.6454514234038
 30
0.0
 42
0.4142135623731029
  0
SEQEND
  5
6AD
  8
KOLO
  0
POLYLINE
  5
13D
  8
KOLO
 66
     1
 10
0.0
 20
0.0
 30
0.0
 70
     1
  0
VERTEX
  5
6AE
  8
KOLO
 10
273.9101999490858
 20
361.7803150287183
 30
0.0
 42
0.4142135623730994
  0
VERTEX
  5
6AF
  8
KOLO
 10
277.9401253995971
 20
365.8102404792295
 30
0.0
  0
VERTEX
  5
6B0
  8
KOLO
 10
277.9401253995971
 20
369.8401659297408
 30
0.0
 42
0.4142135623730994
  0
VERTEX
  5
6B1
  8
KOLO
 10
273.9101999490858
 20
373.8700913802519
 30
0.0
  0
VERTEX
  5
6B2
  8
KOLO
 10
257.790498147041
 20
373.8700913802519
 30
0.0
  0
VERTEX
  5
6B3
  8
KOLO
 10
257.790498147041
 20
366.8177218418573
 30
0.0
  0
VERTEX
  5
6B4
  8
KOLO
 10
251.7456099712741
 20
366.8177218418573
 30
0.0
  0
VERTEX
  5
6B5
  8
KOLO
 10
251.7456099712741
 20
356.7429082155792
 30
0.0
  0
VERTEX
  5
6B6
  8
KOLO
 10
257.790498147041
 20
356.7429082155792
 30
0.0
  0
VERTEX
  5
6B7
  8
KOLO
 10
257.790498147041
 20
349.6905386771846
 30
0.0
  0
VERTEX
  5
6B8
  8
KOLO
 10
273.9101999490858
 20
349.6905386771846
 30
0.0
 42
0.4142135623731029
  0
VERTEX
  5
6B9
  8
KOLO
 10
277.9401253995971
 20
353.7204641276958
 30
0.0
  0
VERTEX
  5
6BA
  8
KOLO
 10
277.9401253995971
 20
357.750389578207
 30
0.0
 42
0.4142135623731029
  0
SEQEND
  5
6BB
  8
KOLO
  0
POLYLINE
  5
13E
  8
KOLO
 66
     1
 10
0.0
 20
0.0
 30
0.0
 70
     1
  0
VERTEX
  5
6BC
  8
KOLO
 10
299.7906012332945
 20
391.4666576782516
 30
0.0
 42
0.4142135623730994
  0
VERTEX
  5
6BD
  8
KOLO
 10
303.8205266838058
 20
395.4965831287628
 30
0.0
  0
VERTEX
  5
6BE
  8
KOLO
 10
303.8205266838058
 20
399.526508579274
 30
0.0
 42
0.4142135623730994
  0
VERTEX
  5
6BF
  8
KOLO
 10
299.7906012332945
 20
403.5564340297853
 30
0.0
  0
VERTEX
  5
6C0
  8
KOLO
 10
283.6708994312496
 20
403.5564340297853
 30
0.0
  0
VERTEX
  5
6C1
  8
KOLO
 10
283.6708994312496
 20
396.5040644913907
 30
0.0
  0
VERTEX
  5
6C2
  8
KOLO
 10
277.6260112554827
 20
396.5040644913907
 30
0.0
  0
VERTEX
  5
6C3
  8
KOLO
 10
277.6260112554827
 20
386.4292508651125
 30
0.0
  0
VERTEX
  5
6C4
  8
KOLO
 10
283.6708994312496
 20
386.4292508651125
 30
0.0
  0
VERTEX
  5
6C5
  8
KOLO
 10
283.6708994312496
 20
379.3768813267179
 30
0.0
  0
VERTEX
  5
6C6
  8
KOLO
 10
299.7906012332945
 20
379.3768813267179
 30
0.0
 42
0.4142135623731029
  0
VERTEX
  5
6C7
  8
KOLO
 10
303.8205266838058
 20
383.4068067772292
 30
0.0
  0
VERTEX
  5
6C8
  8
KOLO
 10
303.8205266838058
 20
387.4367322277404
 30
0.0
 42
0.4142135623731029
  0
SEQEND
  5
6C9
  8
KOLO
  0
POLYLINE
  5
13F
  8
KOLO
 66
     1
 10
0.0
 20
0.0
 30
0.0
 70
     1
  0
VERTEX
  5
6CA
  8
KOLO
 10
332.5216969750879
 20
411.2575527779408
 30
0.0
 42
0.4142135623730994
  0
VERTEX
  5
6CB
  8
KOLO
 10
336.5516224255991
 20
415.2874782284521
 30
0.0
  0
VERTEX
  5
6CC
  8
KOLO
 10
336.5516224255991
 20
419.3174036789633
 30
0.0
 42
0.4142135623730994
  0
VERTEX
  5
6CD
  8
KOLO
 10
332.5216969750879
 20
423.3473291294746
 30
0.0
  0
VERTEX
  5
6CE
  8
KOLO
 10
316.4019951730429
 20
423.3473291294746
 30
0.0
  0
VERTEX
  5
6CF
  8
KOLO
 10
316.4019951730429
 20
416.2949595910799
 30
0.0
  0
VERTEX
  5
6D0
  8
KOLO
 10
310.357106997276
 20
416.2949595910798
 30
0.0
  0
VERTEX
  5
6D1
  8
KOLO
 10
310.357106997276
 20
406.2201459648018
 30
0.0
  0
VERTEX
  5
6D2
  8
KOLO
 10
316.4019951730429
 20
406.2201459648018
 30
0.0
  0
VERTEX
  5
6D3
  8
KOLO
 10
316.4019951730429
 20
399.167776426407
 30
0.0
  0
VERTEX
  5
6D4
  8
KOLO
 10
332.5216969750879
 20
399.167776426407
 30
0.0
 42
0.4142135623731029
  0
VERTEX
  5
6D5
  8
KOLO
 10
336.5516224255991
 20
403.1977018769182
 30
0.0
  0
VERTEX
  5
6D6
  8
KOLO
 10
336.5516224255991
 20
407.2276273274295
 30
0.0
 42
0.4142135623731016
  0
SEQEND
  5
6D7
  8
KOLO
  0
POLYLINE
  5
140
  8
KOLO
 66
     1
 10
0.0
 20
0.0
 30
0.0
 70
     1
  0
VERTEX
  5
6D8
  8
KOLO
 10
223.6773511778922
 20
253.3216935984385
 30
0.0
  0
VERTEX
  5
6D9
  8
KOLO
 10
223.6773511778923
 20
290.5985040156673
 30
0.0
  0
VERTEX
  5
6DA
  8
KOLO
 10
210.0763527824168
 20
290.5985040156673
 30
0.0
  0
VERTEX
  5
6DB
  8
KOLO
 10
210.0763527824168
 20
276.9975056201919
 30
0.0
  0
VERTEX
  5
6DC
  8
KOLO
 10
207.0539086945334
 20
276.9975056201919
 30
0.0
  0
VERTEX
  5
6DD
  8
KOLO
 10
207.0539086945334
 20
266.9226919939138
 30
0.0
  0
VERTEX
  5
6DE
  8
KOLO
 10
210.0763527824168
 20
266.9226919939139
 30
0.0
  0
VERTEX
  5
6DF
  8
KOLO
 10
210.0763527824168
 20
253.3216935984385
 30
0.0
  0
SEQEND
  5
6E0
  8
KOLO
  0
POLYLINE
  5
141
  8
KOLO
 66
     1
 10
0.0
 20
0.0
 30
0.0
 70
     1
  0
VERTEX
  5
6E1
  8
KOLO
 10
351.0602576273629
 20
424.7453485545982
 30
0.0
  0
VERTEX
  5
6E2
  8
KOLO
 10
344.0078880889682
 20
424.7453485545982
 30
0.0
  0
VERTEX
  5
6E3
  8
KOLO
 10
344.0078880889682
 20
434.8201621808764
 30
0.0
  0
VERTEX
  5
6E4
  8
KOLO
 10
346.0228508142239
 20
434.8201621808764
 30
0.0
  0
VERTEX
  5
6E5
  8
KOLO
 10
346.0228508142239
 20
432.8051994556207
 30
0.0
  0
VERTEX
  5
6E6
  8
KOLO
 10
349.0452949021073
 20
432.8051994556207
 30
0.0
  0
VERTEX
  5
6E7
  8
KOLO
 10
349.0452949021073
 20
434.8201621808764
 30
0.0
  0
VERTEX
  5
6E8
  8
KOLO
 10
351.0602576273629
 20
434.8201621808764
 30
0.0
  0
SEQEND
  5
6E9
  8
KOLO
  0
POLYLINE
  5
142
  8
KOLO
 66
     1
 10
0.0
 20
0.0
 30
0.0
 70
     1
  0
VERTEX
  5
6EA
  8
KOLO
 10
330.4955797476438
 20
387.1681301338011
 30
0.0
  0
VERTEX
  5
6EB
  8
KOLO
 10
330.4955797476438
 20
391.1980555843124
 30
0.0
 42
0.4142135623730994
  0
VERTEX
  5
6EC
  8
KOLO
 10
326.4656542971326
 20
395.2279810348236
 30
0.0
  0
VERTEX
  5
6ED
  8
KOLO
 10
313.3683965829711
 20
395.2279810348236
 30
0.0
  0
VERTEX
  5
6EE
  8
KOLO
 10
313.3683965829711
 20
383.13820468329
 30
0.0
  0
VERTEX
  5
6EF
  8
KOLO
 10
326.4656542971326
 20
383.13820468329
 30
0.0
 42
0.4142135623730994
  0
SEQEND
  5
6F0
  8
KOLO
  0
POLYLINE
  5
143
  8
KOLO
 66
     1
 10
0.0
 20
0.0
 30
0.0
 70
     1
  0
VERTEX
  5
6F1
  8
KOLO
 10
350.8412544079396
 20
406.3490781230423
 30
0.0
  0
VERTEX
  5
6F2
  8
KOLO
 10
343.788884869545
 20
406.3490781230423
 30
0.0
  0
VERTEX
  5
6F3
  8
KOLO
 10
343.788884869545
 20
416.4238917493204
 30
0.0
  0
VERTEX
  5
6F4
  8
KOLO
 10
345.8038475948006
 20
416.4238917493204
 30
0.0
  0
VERTEX
  5
6F5
  8
KOLO
 10
345.8038475948006
 20
414.4089290240647
 30
0.0
  0
VERTEX
  5
6F6
  8
KOLO
 10
348.826291682684
 20
414.4089290240647
 30
0.0
  0
VERTEX
  5
6F7
  8
KOLO
 10
348.826291682684
 20
416.4238917493204
 30
0.0
  0
VERTEX
  5
6F8
  8
KOLO
 10
350.8412544079396
 20
416.4238917493204
 30
0.0
  0
SEQEND
  5
6F9
  8
KOLO
  0
POLYLINE
  5
144
  8
KOLO
 66
     1
 10
0.0
 20
0.0
 30
0.0
 70
     1
  0
VERTEX
  5
6FA
  8
KOLO
 10
367.4854990841093
 20
433.5054773315296
 30
0.0
  0
VERTEX
  5
6FB
  8
KOLO
 10
360.4331295457147
 20
433.5054773315296
 30
0.0
  0
VERTEX
  5
6FC
  8
KOLO
 10
360.4331295457147
 20
443.5802909578077
 30
0.0
  0
VERTEX
  5
6FD
  8
KOLO
 10
362.4480922709703
 20
443.5802909578077
 30
0.0
  0
VERTEX
  5
6FE
  8
KOLO
 10
362.4480922709703
 20
441.5653282325521
 30
0.0
  0
VERTEX
  5
6FF
  8
KOLO
 10
365.4705363588537
 20
441.5653282325521
 30
0.0
  0
VERTEX
  5
700
  8
KOLO
 10
365.4705363588537
 20
443.5802909578077
 30
0.0
  0
VERTEX
  5
701
  8
KOLO
 10
367.4854990841093
 20
443.5802909578077
 30
0.0
  0
SEQEND
  5
702
  8
KOLO
  0
POLYLINE
  5
145
  8
KOLO
 66
     1
 10
0.0
 20
0.0
 30
0.0
 70
     1
  0
VERTEX
  5
703
  8
KOLO
 10
349.5272350914
 20
385.3247690584068
 30
0.0
  0
VERTEX
  5
704
  8
KOLO
 10
342.4748655530053
 20
385.3247690584068
 30
0.0
  0
VERTEX
  5
705
  8
KOLO
 10
342.4748655530053
 20
395.3995826846849
 30
0.0
  0
VERTEX
  5
706
  8
KOLO
 10
344.4898282782609
 20
395.3995826846849
 30
0.0
  0
VERTEX
  5
707
  8
KOLO
 10
344.4898282782609
 20
393.3846199594293
 30
0.0
  0
VERTEX
  5
708
  8
KOLO
 10
347.5122723661443
 20
393.3846199594293
 30
0.0
  0
VERTEX
  5
709
  8
KOLO
 10
347.5122723661443
 20
395.3995826846849
 30
0.0
  0
VERTEX
  5
70A
  8
KOLO
 10
349.5272350914
 20
395.3995826846849
 30
0.0
  0
SEQEND
  5
70B
  8
KOLO
  0
POLYLINE
  5
146
  8
KOLO
 66
     1
 10
0.0
 20
0.0
 30
0.0
 70
     1
  0
VERTEX
  5
70C
  8
KOLO
 10
292.5486051577002
 20
278.3405160898883
 30
0.0
  0
VERTEX
  5
70D
  8
KOLO
 10
237.1371302131707
 20
278.3405160898883
 30
0.0
  0
VERTEX
  5
70E
  8
KOLO
 10
237.1371302131707
 20
308.5649569687225
 30
0.0
  0
VERTEX
  5
70F
  8
KOLO
 10
292.5486051577002
 20
308.5649569687225
 30
0.0
  0
SEQEND
  5
710
  8
KOLO
  0
POLYLINE
  5
147
  8
KOLO
 66
     1
 10
0.0
 20
0.0
 30
0.0
 70
     1
  0
VERTEX
  5
711
  8
KOLO
 10
229.4926780173785
 20
206.1280206684108
 30
0.0
  0
VERTEX
  5
712
  8
KOLO
 10
229.4926780173785
 20
219.7290190638862
 30
0.0
  0
VERTEX
  5
713
  8
KOLO
 10
232.515122105262
 20
219.7290190638861
 30
0.0
  0
VERTEX
  5
714
  8
KOLO
 10
232.515122105262
 20
229.8038326901642
 30
0.0
  0
VERTEX
  5
715
  8
KOLO
 10
229.4926780173785
 20
229.8038326901642
 30
0.0
  0
VERTEX
  5
716
  8
KOLO
 10
229.4926780173785
 20
243.4048310856396
 30
0.0
  0
VERTEX
  5
717
  8
KOLO
 10
204.3056439516833
 20
243.4048310856396
 30
0.0
  0
VERTEX
  5
718
  8
KOLO
 10
204.3056439516833
 20
206.1280206684108
 30
0.0
  0
SEQEND
  5
719
  8
KOLO
  0
POLYLINE
  5
148
  8
KOLO
 66
     1
 10
0.0
 20
0.0
 30
0.0
 70
     1
  0
VERTEX
  5
71A
  8
KOLO
 10
346.2453948946334
 20
351.2327687519102
 30
0.0
  0
VERTEX
  5
71B
  8
KOLO
 10
346.2453948946334
 20
376.4198028176053
 30
0.0
  0
VERTEX
  5
71C
  8
KOLO
 10
337.1780626309831
 20
376.4198028176053
 30
0.0
  0
VERTEX
  5
71D
  8
KOLO
 10
337.178062630983
 20
365.3375078286994
 30
0.0
  0
VERTEX
  5
71E
  8
KOLO
 10
334.1556185430997
 20
365.3375078286994
 30
0.0
  0
VERTEX
  5
71F
  8
KOLO
 10
334.1556185430997
 20
362.315063740816
 30
0.0
  0
VERTEX
  5
720
  8
KOLO
 10
337.178062630983
 20
362.315063740816
 30
0.0
  0
VERTEX
  5
721
  8
KOLO
 10
337.178062630983
 20
351.2327687519102
 30
0.0
  0
SEQEND
  5
722
  8
KOLO
  0
POLYLINE
  5
149
  8
KOLO
 66
     1
 10
0.0
 20
0.0
 30
0.0
 70
     1
  0
VERTEX
  5
723
  8
KOLO
 10
75.8450859215607
 20
29.14951207725183
 30
0.0
  0
VERTEX
  5
724
  8
KOLO
 10
75.8450859215607
 20
31.16447480250746
 30
0.0
  0
VERTEX
  5
725
  8
KOLO
 10
78.8675300094441
 20
31.16447480250746
 30
0.0
  0
VERTEX
  5
726
  8
KOLO
 10
78.8675300094441
 20
41.23928842878554
 30
0.0
  0
VERTEX
  5
727
  8
KOLO
 10
75.8450859215607
 20
41.23928842878554
 30
0.0
  0
VERTEX
  5
728
  8
KOLO
 10
75.8450859215607
 20
118.8153533511267
 30
0.0
  0
VERTEX
  5
729
  8
KOLO
 10
78.8675300094441
 20
118.8153533511267
 30
0.0
  0
VERTEX
  5
72A
  8
KOLO
 10
78.8675300094441
 20
128.8901669774048
 30
0.0
  0
VERTEX
  5
72B
  8
KOLO
 10
75.8450859215607
 20
128.8901669774048
 30
0.0
  0
VERTEX
  5
72C
  8
KOLO
 10
75.8450859215607
 20
206.647578545019
 30
0.0
  0
VERTEX
  5
72D
  8
KOLO
 10
78.86753000944424
 20
206.647578545019
 30
0.0
  0
VERTEX
  5
72E
  8
KOLO
 10
78.8675300094441
 20
216.7223921712971
 30
0.0
  0
VERTEX
  5
72F
  8
KOLO
 10
75.8450859215607
 20
216.7223921712971
 30
0.0
  0
VERTEX
  5
730
  8
KOLO
 10
75.8450859215607
 20
232.6237656859983
 30
0.0
  0
VERTEX
  5
731
  8
KOLO
 10
72.82264183367727
 20
232.6237656859983
 30
0.0
  0
VERTEX
  5
732
  8
KOLO
 10
72.82264183367727
 20
235.6831914159525
 30
0.0
  0
VERTEX
  5
733
  8
KOLO
 10
75.84508592156081
 20
235.6831914159525
 30
0.0
  0
VERTEX
  5
734
  8
KOLO
 10
75.8450859215607
 20
237.6981541412081
 30
0.0
  0
VERTEX
  5
735
  8
KOLO
 10
15.39620416389223
 20
237.6981541412081
 30
0.0
  0
VERTEX
  5
736
  8
KOLO
 10
15.39620416389223
 20
235.6831914159525
 30
0.0
  0
VERTEX
  5
737
  8
KOLO
 10
18.41864825177566
 20
235.6831914159525
 30
0.0
  0
VERTEX
  5
738
  8
KOLO
 10
18.41864825177566
 20
232.6237656859983
 30
0.0
  0
VERTEX
  5
739
  8
KOLO
 10
15.39620416389223
 20
232.6237656859983
 30
0.0
  0
VERTEX
  5
73A
  8
KOLO
 10
15.39620416389223
 20
216.7223921712971
 30
0.0
  0
VERTEX
  5
73B
  8
KOLO
 10
12.37376007600881
 20
216.7223921712971
 30
0.0
  0
VERTEX
  5
73C
  8
KOLO
 10
12.37376007600881
 20
206.647578545019
 30
0.0
  0
VERTEX
  5
73D
  8
KOLO
 10
15.39620416389223
 20
206.647578545019
 30
0.0
  0
VERTEX
  5
73E
  8
KOLO
 10
15.39620416389223
 20
128.8901669774048
 30
0.0
  0
VERTEX
  5
73F
  8
KOLO
 10
12.37376007600881
 20
128.8901669774048
 30
0.0
  0
VERTEX
  5
740
  8
KOLO
 10
12.37376007600881
 20
118.8153533511267
 30
0.0
  0
VERTEX
  5
741
  8
KOLO
 10
15.39620416389223
 20
118.8153533511267
 30
0.0
  0
VERTEX
  5
742
  8
KOLO
 10
15.39620416389223
 20
41.23928842878554
 30
0.0
  0
VERTEX
  5
743
  8
KOLO
 10
12.37376007600881
 20
41.23928842878554
 30
0.0
  0
VERTEX
  5
744
  8
KOLO
 10
12.37376007600881
 20
31.16447480250747
 30
0.0
  0
VERTEX
  5
745
  8
KOLO
 10
15.39620416389223
 20
31.16447480250746
 30
0.0
  0
VERTEX
  5
746
  8
KOLO
 10
15.39620416389223
 20
29.14951207725185
 30
0.0
  0
SEQEND
  5
747
  8
KOLO
  0
POLYLINE
  5
14A
  8
KOLO
 66
     1
 10
0.0
 20
0.0
 30
0.0
 70
     1
  0
VERTEX
  5
748
  8
KOLO
 10
333.5291783377154
 20
251.3935114149079
 30
0.0
  0
VERTEX
  5
749
  8
KOLO
 10
333.5291783377154
 20
311.8423931725764
 30
0.0
  0
VERTEX
  5
74A
  8
KOLO
 10
327.4842901619485
 20
311.8423931725764
 30
0.0
  0
VERTEX
  5
74B
  8
KOLO
 10
327.4842901619485
 20
314.8648372604598
 30
0.0
  0
VERTEX
  5
74C
  8
KOLO
 10
318.4169578982983
 20
314.8648372604596
 30
0.0
  0
VERTEX
  5
74D
  8
KOLO
 10
318.4169578982983
 20
311.8423931725764
 30
0.0
  0
VERTEX
  5
74E
  8
KOLO
 10
313.3795510851593
 20
311.8423931725764
 30
0.0
  0
VERTEX
  5
74F
  8
KOLO
 10
313.3795510851592
 20
251.3935114149079
 30
0.0
  0
VERTEX
  5
750
  8
KOLO
 10
318.4169578982983
 20
251.3935114149079
 30
0.0
  0
VERTEX
  5
751
  8
KOLO
 10
318.4169578982983
 20
248.3710673270245
 30
0.0
  0
VERTEX
  5
752
  8
KOLO
 10
327.4842901619485
 20
248.3710673270244
 30
0.0
  0
VERTEX
  5
753
  8
KOLO
 10
327.4842901619485
 20
251.3935114149079
 30
0.0
  0
SEQEND
  5
754
  8
KOLO
  0
POLYLINE
  5
14B
  8
KOLO
 66
     1
 10
0.0
 20
0.0
 30
0.0
 70
     1
  0
VERTEX
  5
755
  8
KOLO
 10
384.8396177254741
 20
297.9983287168498
 30
0.0
  0
VERTEX
  5
756
  8
KOLO
 10
384.8396177254741
 20
305.0506982552445
 30
0.0
  0
VERTEX
  5
757
  8
KOLO
 10
387.8620618133576
 20
305.0506982552445
 30
0.0
  0
VERTEX
  5
758
  8
KOLO
 10
387.8620618133576
 20
308.0731423431278
 30
0.0
  0
VERTEX
  5
759
  8
KOLO
 10
384.8396177254741
 20
308.0731423431278
 30
0.0
  0
VERTEX
  5
75A
  8
KOLO
 10
384.8396177254741
 20
309.0806237057557
 30
0.0
  0
VERTEX
  5
75B
  8
KOLO
 10
340.5104377698505
 20
309.0806237057557
 30
0.0
  0
VERTEX
  5
75C
  8
KOLO
 10
340.5104377698505
 20
308.0731423431278
 30
0.0
  0
VERTEX
  5
75D
  8
KOLO
 10
337.4879936819672
 20
308.0731423431278
 30
0.0
  0
VERTEX
  5
75E
  8
KOLO
 10
337.4879936819672
 20
305.0506982552445
 30
0.0
  0
VERTEX
  5
75F
  8
KOLO
 10
340.5104377698505
 20
305.0506982552445
 30
0.0
  0
VERTEX
  5
760
  8
KOLO
 10
340.5104377698505
 20
297.9983287168498
 30
0.0
  0
SEQEND
  5
761
  8
KOLO
  0
POLYLINE
  5
14C
  8
KOLO
 66
     1
 10
0.0
 20
0.0
 30
0.0
 70
     1
  0
VERTEX
  5
762
  8
KOLO
 10
385.3771098529852
 20
281.0440250184193
 30
0.0
  0
VERTEX
  5
763
  8
KOLO
 10
385.3771098529852
 20
288.0963945568139
 30
0.0
  0
VERTEX
  5
764
  8
KOLO
 10
388.3995539408687
 20
288.0963945568139
 30
0.0
  0
VERTEX
  5
765
  8
KOLO
 10
388.3995539408687
 20
291.1188386446973
 30
0.0
  0
VERTEX
  5
766
  8
KOLO
 10
385.3771098529852
 20
291.1188386446973
 30
0.0
  0
VERTEX
  5
767
  8
KOLO
 10
385.3771098529852
 20
292.1263200073251
 30
0.0
  0
VERTEX
  5
768
  8
KOLO
 10
341.0479298973618
 20
292.1263200073251
 30
0.0
  0
VERTEX
  5
769
  8
KOLO
 10
341.0479298973618
 20
291.1188386446973
 30
0.0
  0
VERTEX
  5
76A
  8
KOLO
 10
338.0254858094783
 20
291.1188386446973
 30
0.0
  0
VERTEX
  5
76B
  8
KOLO
 10
338.0254858094783
 20
288.0963945568139
 30
0.0
  0
VERTEX
  5
76C
  8
KOLO
 10
341.0479298973618
 20
288.0963945568139
 30
0.0
  0
VERTEX
  5
76D
  8
KOLO
 10
341.0479298973618
 20
281.0440250184193
 30
0.0
  0
SEQEND
  5
76E
  8
KOLO
  0
POLYLINE
  5
14D
  8
KOLO
 66
     1
 10
0.0
 20
0.0
 30
0.0
 70
     1
  0
VERTEX
  5
76F
  8
KOLO
 10
387.5248748625963
 20
269.8716342007747
 30
0.0
  0
VERTEX
  5
770
  8
KOLO
 10
387.5248748625963
 20
272.8940782886582
 30
0.0
  0
VERTEX
  5
771
  8
KOLO
 10
375.9074412751638
 20
272.8940782886582
 30
0.0
  0
VERTEX
  5
772
  8
KOLO
 10
370.0187842470105
 20
265.1901435780413
 30
0.0
  0
VERTEX
  5
773
  8
KOLO
 10
372.984906577192
 20
263.3726165025329
 30
0.0
  0
VERTEX
  5
774
  8
KOLO
 10
374.7137835815881
 20
265.8417087502635
 30
0.0
  0
VERTEX
  5
775
  8
KOLO
 10
384.5024307747129
 20
265.8417087502635
 30
0.0
  0
VERTEX
  5
776
  8
KOLO
 10
384.5024307747129
 20
269.8716342007747
 30
0.0
  0
SEQEND
  5
777
  8
KOLO
  0
POLYLINE
  5
14E
  8
KOLO
 66
     1
 10
0.0
 20
0.0
 30
0.0
 70
     1
  0
VERTEX
  5
778
  8
KOLO
 10
154.2251690428753
 20
33.2017465321395
 30
0.0
  0
VERTEX
  5
779
  8
KOLO
 10
154.2251690428753
 20
43.27656015841755
 30
0.0
  0
VERTEX
  5
77A
  8
KOLO
 10
151.2027249549919
 20
43.27656015841755
 30
0.0
  0
VERTEX
  5
77B
  8
KOLO
 10
151.2027249549919
 20
48.3139669715566
 30
0.0
  0
VERTEX
  5
77C
  8
KOLO
 10
136.0905045155748
 20
48.3139669715566
 30
0.0
  0
VERTEX
  5
77D
  8
KOLO
 10
136.0905045155748
 20
58.38878059783467
 30
0.0
  0
VERTEX
  5
77E
  8
KOLO
 10
151.2027249549919
 20
58.38878059783467
 30
0.0
  0
VERTEX
  5
77F
  8
KOLO
 10
151.2027249549919
 20
68.46359422411274
 30
0.0
  0
VERTEX
  5
780
  8
KOLO
 10
136.0905045155748
 20
68.46359422411274
 30
0.0
  0
VERTEX
  5
781
  8
KOLO
 10
136.0905045155748
 20
78.53840785039083
 30
0.0
  0
VERTEX
  5
782
  8
KOLO
 10
151.2027249549919
 20
78.53840785039083
 30
0.0
  0
VERTEX
  5
783
  8
KOLO
 10
151.2027249549919
 20
120.8526250807587
 30
0.0
  0
VERTEX
  5
784
  8
KOLO
 10
154.2251690428753
 20
120.8526250807588
 30
0.0
  0
VERTEX
  5
785
  8
KOLO
 10
154.2251690428753
 20
130.9274387070368
 30
0.0
  0
VERTEX
  5
786
  8
KOLO
 10
151.2027249549919
 20
130.9274387070368
 30
0.0
  0
VERTEX
  5
787
  8
KOLO
 10
151.2027249549919
 20
155.1069914101043
 30
0.0
  0
VERTEX
  5
788
  8
KOLO
 10
136.0905045155748
 20
155.1069914101043
 30
0.0
  0
VERTEX
  5
789
  8
KOLO
 10
136.0905045155748
 20
165.1818050363823
 30
0.0
  0
VERTEX
  5
78A
  8
KOLO
 10
151.2064182029997
 20
165.1818050363823
 30
0.0
  0
VERTEX
  5
78B
  8
KOLO
 10
151.2064182029997
 20
175.2566186626604
 30
0.0
  0
VERTEX
  5
78C
  8
KOLO
 10
136.0905045155748
 20
175.2566186626604
 30
0.0
  0
VERTEX
  5
78D
  8
KOLO
 10
136.0905045155748
 20
185.3314322889385
 30
0.0
  0
VERTEX
  5
78E
  8
KOLO
 10
151.2027249549919
 20
185.3314322889385
 30
0.0
  0
VERTEX
  5
78F
  8
KOLO
 10
151.2027249549919
 20
217.016721143583
 30
0.0
  0
VERTEX
  5
790
  8
KOLO
 10
154.2251690428753
 20
217.016721143583
 30
0.0
  0
VERTEX
  5
791
  8
KOLO
 10
154.2251690428753
 20
227.0915347698611
 30
0.0
  0
VERTEX
  5
792
  8
KOLO
 10
151.4559297301899
 20
227.0915347698611
 30
0.0
  0
VERTEX
  5
793
  8
KOLO
 10
151.4559297301899
 20
241.7503885960956
 30
0.0
  0
VERTEX
  5
794
  8
KOLO
 10
90.50063842212536
 20
241.7503885960956
 30
0.0
  0
VERTEX
  5
795
  8
KOLO
 10
90.50063842212536
 20
227.0915347698611
 30
0.0
  0
VERTEX
  5
796
  8
KOLO
 10
87.73139910944
 20
227.0915347698611
 30
0.0
  0
VERTEX
  5
797
  8
KOLO
 10
87.73139910944
 20
217.016721143583
 30
0.0
  0
VERTEX
  5
798
  8
KOLO
 10
90.75384319732342
 20
217.016721143583
 30
0.0
  0
VERTEX
  5
799
  8
KOLO
 10
90.75384319732332
 20
185.3314322889385
 30
0.0
  0
VERTEX
  5
79A
  8
KOLO
 10
105.8660636367404
 20
185.3314322889385
 30
0.0
  0
VERTEX
  5
79B
  8
KOLO
 10
105.8660636367404
 20
175.2566186626604
 30
0.0
  0
VERTEX
  5
79C
  8
KOLO
 10
90.7501499493155
 20
175.2566186626604
 30
0.0
  0
VERTEX
  5
79D
  8
KOLO
 10
90.7501499493155
 20
165.1818050363823
 30
0.0
  0
VERTEX
  5
79E
  8
KOLO
 10
105.8660636367404
 20
165.1818050363823
 30
0.0
  0
VERTEX
  5
79F
  8
KOLO
 10
105.8660636367404
 20
155.1069914101043
 30
0.0
  0
VERTEX
  5
7A0
  8
KOLO
 10
90.75384319732332
 20
155.1069914101043
 30
0.0
  0
VERTEX
  5
7A1
  8
KOLO
 10
90.75384319732332
 20
130.9274387070368
 30
0.0
  0
VERTEX
  5
7A2
  8
KOLO
 10
87.73139910944
 20
130.9274387070368
 30
0.0
  0
VERTEX
  5
7A3
  8
KOLO
 10
87.73139910944
 20
120.8526250807588
 30
0.0
  0
VERTEX
  5
7A4
  8
KOLO
 10
90.75384319732342
 20
120.8526250807588
 30
0.0
  0
VERTEX
  5
7A5
  8
KOLO
 10
90.75384319732332
 20
78.53840785039083
 30
0.0
  0
VERTEX
  5
7A6
  8
KOLO
 10
105.8660636367404
 20
78.53840785039083
 30
0.0
  0
VERTEX
  5
7A7
  8
KOLO
 10
105.8660636367404
 20
68.46359422411277
 30
0.0
  0
VERTEX
  5
7A8
  8
KOLO
 10
90.75384319732342
 20
68.46359422411277
 30
0.0
  0
VERTEX
  5
7A9
  8
KOLO
 10
90.75384319732342
 20
58.38878059783468
 30
0.0
  0
VERTEX
  5
7AA
  8
KOLO
 10
105.8660636367405
 20
58.38878059783468
 30
0.0
  0
VERTEX
  5
7AB
  8
KOLO
 10
105.8660636367404
 20
48.3139669715566
 30
0.0
  0
VERTEX
  5
7AC
  8
KOLO
 10
90.75384319732332
 20
48.3139669715566
 30
0.0
  0
VERTEX
  5
7AD
  8
KOLO
 10
90.75384319732332
 20
43.27656015841755
 30
0.0
  0
VERTEX
  5
7AE
  8
KOLO
 10
87.73139910944
 20
43.27656015841755
 30
0.0
  0
VERTEX
  5
7AF
  8
KOLO
 10
87.73139910944
 20
33.2017465321395
 30
0.0
  0
VERTEX
  5
7B0
  8
KOLO
 10
90.75384319732342
 20
33.2017465321395
 30
0.0
  0
VERTEX
  5
7B1
  8
KOLO
 10
90.75384319732332
 20
31.18678380688388
 30
0.0
  0
VERTEX
  5
7B2
  8
KOLO
 10
151.2027249549919
 20
31.18678380688388
 30
0.0
  0
VERTEX
  5
7B3
  8
KOLO
 10
151.2027249549919
 20
33.2017465321395
 30
0.0
  0
SEQEND
  5
7B4
  8
KOLO
  0
POLYLINE
  5
14F
  8
KOLO
 66
     1
 10
0.0
 20
0.0
 30
0.0
 70
     1
  0
VERTEX
  5
7B5
  8
KOLO
 10
227.0021725664959
 20
33.69973342942683
 30
0.0
  0
VERTEX
  5
7B6
  8
KOLO
 10
227.0021725664959
 20
48.81195386884393
 30
0.0
  0
VERTEX
  5
7B7
  8
KOLO
 10
230.0246166543793
 20
48.81195386884393
 30
0.0
  0
VERTEX
  5
7B8
  8
KOLO
 10
230.0246166543793
 20
58.88676749512198
 30
0.0
  0
VERTEX
  5
7B9
  8
KOLO
 10
227.0021725664959
 20
58.886767495122
 30
0.0
  0
VERTEX
  5
7BA
  8
KOLO
 10
227.0021725664959
 20
163.664829208414
 30
0.0
  0
VERTEX
  5
7BB
  8
KOLO
 10
230.0246166543793
 20
163.664829208414
 30
0.0
  0
VERTEX
  5
7BC
  8
KOLO
 10
230.0246166543793
 20
173.7396428346921
 30
0.0
  0
VERTEX
  5
7BD
  8
KOLO
 10
227.0021725664959
 20
173.7396428346921
 30
0.0
  0
VERTEX
  5
7BE
  8
KOLO
 10
227.0021725664959
 20
190.8668259993649
 30
0.0
  0
VERTEX
  5
7BF
  8
KOLO
 10
196.6209417505871
 20
190.8668259993649
 30
0.0
  0
VERTEX
  5
7C0
  8
KOLO
 10
196.7777316876616
 20
228.1436364165937
 30
0.0
  0
VERTEX
  5
7C1
  8
KOLO
 10
166.5532908088273
 20
228.1436364165937
 30
0.0
  0
VERTEX
  5
7C2
  8
KOLO
 10
166.5532908088273
 20
173.7396428346921
 30
0.0
  0
VERTEX
  5
7C3
  8
KOLO
 10
163.5308467209439
 20
173.7396428346921
 30
0.0
  0
VERTEX
  5
7C4
  8
KOLO
 10
163.5308467209439
 20
163.664829208414
 30
0.0
  0
VERTEX
  5
7C5
  8
KOLO
 10
166.5532908088273
 20
163.664829208414
 30
0.0
  0
VERTEX
  5
7C6
  8
KOLO
 10
166.5532908088273
 20
58.88676749512197
 30
0.0
  0
VERTEX
  5
7C7
  8
KOLO
 10
163.5308467209439
 20
58.88676749512197
 30
0.0
  0
VERTEX
  5
7C8
  8
KOLO
 10
163.5308467209439
 20
48.8119538688439
 30
0.0
  0
VERTEX
  5
7C9
  8
KOLO
 10
166.5532908088273
 20
48.8119538688439
 30
0.0
  0
VERTEX
  5
7CA
  8
KOLO
 10
166.5532908088273
 20
33.69973342942679
 30
0.0
  0
SEQEND
  5
7CB
  8
KOLO
  0
POLYLINE
  5
150
  8
KOLO
 66
     1
 10
0.0
 20
0.0
 30
0.0
 70
     1
  0
VERTEX
  5
7CC
  8
KOLO
 10
307.6111573915776
 20
30.33161943029619
 30
0.0
 42
0.4142135623730943
  0
VERTEX
  5
7CD
  8
KOLO
 10
312.8484540746148
 20
35.56891611333333
 30
0.0
  0
VERTEX
  5
7CE
  8
KOLO
 10
312.8484540746148
 20
53.99862993189622
 30
0.0
 42
-1.0
  0
VERTEX
  5
7CF
  8
KOLO
 10
312.8484540746148
 20
84.22307081073045
 30
0.0
  0
VERTEX
  5
7D0
  8
KOLO
 10
312.8484540746148
 20
160.5278154520406
 30
0.0
 42
-1.0
  0
VERTEX
  5
7D1
  8
KOLO
 10
312.8484540746148
 20
190.7522563308748
 30
0.0
  0
VERTEX
  5
7D2
  8
KOLO
 10
312.8484540746151
 20
242.1826014746736
 30
0.0
 42
0.4966333549400263
  0
VERTEX
  5
7D3
  8
KOLO
 10
303.8045348591363
 20
249.0420728566324
 30
0.0
  0
VERTEX
  5
7D4
  8
KOLO
 10
242.3247586906682
 20
231.8278919558579
 30
0.0
  0
VERTEX
  5
7D5
  8
KOLO
 10
242.3247586906683
 20
37.93834841623138
 30
0.0
 42
0.4142135623730938
  0
VERTEX
  5
7D6
  8
KOLO
 10
249.9314876766034
 20
30.33161943029634
 30
0.0
  0
SEQEND
  5
7D7
  8
KOLO
  0
POLYLINE
  5
151
  8
KOLO
 66
     1
 10
0.0
 20
0.0
 30
0.0
 70
     1
  0
VERTEX
  5
7D8
  8
KOLO
 10
384.6438936721395
 20
30.3309587981515
 30
0.0
 42
0.4142135623730953
  0
VERTEX
  5
7D9
  8
KOLO
 10
389.8372108360424
 20
35.52427596205425
 30
0.0
  0
VERTEX
  5
7DA
  8
KOLO
 10
389.8372108360424
 20
53.90933471555043
 30
0.0
 42
-1.0
  0
VERTEX
  5
7DB
  8
KOLO
 10
389.8372108360424
 20
84.13377559438466
 30
0.0
  0
VERTEX
  5
7DC
  8
KOLO
 10
389.8372108360424
 20
160.5271548198957
 30
0.0
 42
-0.9999999999999998
  0
VERTEX
  5
7DD
  8
KOLO
 10
389.8372108360424
 20
190.7515956987299
 30
0.0
  0
VERTEX
  5
7DE
  8
KOLO
 10
389.8372108360418
 20
242.1555581226665
 30
0.0
 42
0.4966810653942713
  0
VERTEX
  5
7DF
  8
KOLO
 10
380.757063756967
 20
249.0414122244875
 30
0.0
  0
VERTEX
  5
7E0
  8
KOLO
 10
319.3135154520959
 20
231.8272313237131
 30
0.0
  0
VERTEX
  5
7E1
  8
KOLO
 10
319.3135154520959
 20
37.91210626634072
 30
0.0
 42
0.414213562373094
  0
VERTEX
  5
7E2
  8
KOLO
 10
326.8946629202852
 20
30.33095879815152
 30
0.0
  0
SEQEND
  5
7E3
  8
KOLO
  0
POLYLINE
  5
152
  8
KOLO
 66
     1
 10
0.0
 20
0.0
 30
0.0
 70
     1
  0
VERTEX
  5
7E4
  8
KOLO
 10
69.93689680201578
 20
321.2170528438025
 30
0.0
 42
0.4142135623730951
  0
VERTEX
  5
7E5
  8
KOLO
 10
76.48552565909654
 20
314.6684239867218
 30
0.0
 42
0.4142135623730951
  0
VERTEX
  5
7E6
  8
KOLO
 10
83.0341545161773
 20
321.2170528438025
 30
0.0
 42
0.4142135623730951
  0
VERTEX
  5
7E7
  8
KOLO
 10
76.48552565909654
 20
327.7656817008833
 30
0.0
 42
0.4142135623730951
  0
SEQEND
  5
7E8
  8
KOLO
  0
POLYLINE
  5
153
  8
KOLO
 66
     1
 10
0.0
 20
0.0
 30
0.0
 70
     1
  0
VERTEX
  5
7E9
  8
KOLO
 10
74.97430361515478
 20
316.1796460306635
 30
0.0
  0
VERTEX
  5
7EA
  8
KOLO
 10
77.99674770303824
 20
316.1796460306635
 30
0.0
  0
VERTEX
  5
7EB
  8
KOLO
 10
77.99674770303824
 20
326.2544596569417
 30
0.0
  0
VERTEX
  5
7EC
  8
KOLO
 10
74.97430361515478
 20
326.2544596569417
 30
0.0
  0
SEQEND
  5
7ED
  8
KOLO
  0
POLYLINE
  5
154
  8
KOLO
 66
     1
 10
0.0
 20
0.0
 30
0.0
 70
     1
  0
VERTEX
  5
7EE
  8
KOLO
 10
58.22816160772567
 20
314.6572694845334
 30
0.0
  0
VERTEX
  5
7EF
  8
KOLO
 10
61.25060569560901
 20
314.6572694845334
 30
0.0
  0
VERTEX
  5
7F0
  8
KOLO
 10
61.25060569560901
 20
324.7320831108116
 30
0.0
  0
VERTEX
  5
7F1
  8
KOLO
 10
58.22816160772567
 20
324.7320831108116
 30
0.0
  0
SEQEND
  5
7F2
  8
KOLO
  0
POLYLINE
  5
155
  8
KOLO
 66
     1
 10
0.0
 20
0.0
 30
0.0
 70
     1
  0
VERTEX
  5
7F3
  8
KOLO
 10
53.19075479458655
 20
319.6946762976725
 30
0.0
 42
0.4142135623730951
  0
VERTEX
  5
7F4
  8
KOLO
 10
59.73938365166731
 20
313.1460474405917
 30
0.0
 42
0.4142135623730951
  0
VERTEX
  5
7F5
  8
KOLO
 10
66.28801250874807
 20
319.6946762976725
 30
0.0
 42
0.4142135623730951
  0
VERTEX
  5
7F6
  8
KOLO
 10
59.73938365166731
 20
326.2433051547532
 30
0.0
 42
0.4142135623730951
  0
SEQEND
  5
7F7
  8
KOLO
  0
POLYLINE
  5
156
  8
KOLO
 66
     1
 10
0.0
 20
0.0
 30
0.0
 70
     1
  0
VERTEX
  5
7F8
  8
KOLO
 10
181.1903742471141
 20
331.8548030249045
 30
0.0
  0
VERTEX
  5
7F9
  8
KOLO
 10
181.1903742471141
 20
321.728247654591
 30
0.0
  0
VERTEX
  5
7FA
  8
KOLO
 10
184.1903742471141
 20
321.728247654591
 30
0.0
  0
VERTEX
  5
7FB
  8
KOLO
 10
184.1903742471141
 20
331.8548030249045
 30
0.0
  0
SEQEND
  5
7FC
  8
KOLO
  0
POLYLINE
  5
157
  8
KOLO
 66
     1
 10
0.0
 20
0.0
 30
0.0
 70
     1
  0
VERTEX
  5
7FD
  8
KOLO
 10
181.1679301592307
 20
338.8554308192637
 30
0.0
  0
VERTEX
  5
7FE
  8
KOLO
 10
184.1903742471141
 20
338.8554308192637
 30
0.0
  0
VERTEX
  5
7FF
  8
KOLO
 10
193.2577065107644
 20
338.8554308192637
 30
0.0
 42
-0.4142135623730994
  0
VERTEX
  5
800
  8
KOLO
 10
197.2876319612757
 20
334.8255053687525
 30
0.0
  0
VERTEX
  5
801
  8
KOLO
 10
197.2876319612757
 20
318.7058035667075
 30
0.0
 42
-0.4142135623730994
  0
VERTEX
  5
802
  8
KOLO
 10
193.2577065107644
 20
314.6758781161963
 30
0.0
  0
VERTEX
  5
803
  8
KOLO
 10
180.1604487966029
 20
314.6758781161963
 30
0.0
  0
VERTEX
  5
804
  8
KOLO
 10
180.1604487966029
 20
338.8554308192637
 30
0.0
  0
SEQEND
  5
805
  8
KOLO
  0
POLYLINE
  5
158
  8
KOLO
 66
     1
 10
0.0
 20
0.0
 30
0.0
 70
     1
  0
VERTEX
  5
806
  8
KOLO
 10
202.4053691790089
 20
338.7139601483897
 30
0.0
  0
VERTEX
  5
807
  8
KOLO
 10
205.4278132668923
 20
338.7139601483897
 30
0.0
  0
VERTEX
  5
808
  8
KOLO
 10
214.4951455305426
 20
338.7139601483897
 30
0.0
 42
-0.4142135623730994
  0
VERTEX
  5
809
  8
KOLO
 10
218.5250709810538
 20
334.6840346978784
 30
0.0
  0
VERTEX
  5
80A
  8
KOLO
 10
218.5250709810538
 20
318.5643328958334
 30
0.0
 42
-0.4142135623730994
  0
VERTEX
  5
80B
  8
KOLO
 10
214.4951455305426
 20
314.5344074453222
 30
0.0
  0
VERTEX
  5
80C
  8
KOLO
 10
201.3978878163811
 20
314.5344074453222
 30
0.0
  0
VERTEX
  5
80D
  8
KOLO
 10
201.3978878163811
 20
338.7139601483897
 30
0.0
  0
SEQEND
  5
80E
  8
KOLO
  0
POLYLINE
  5
159
  8
KOLO
 66
     1
 10
0.0
 20
0.0
 30
0.0
 70
     1
  0
VERTEX
  5
80F
  8
KOLO
 10
202.4278132668923
 20
331.7133323540305
 30
0.0
  0
VERTEX
  5
810
  8
KOLO
 10
202.4278132668923
 20
321.586776983717
 30
0.0
  0
VERTEX
  5
811
  8
KOLO
 10
205.4278132668923
 20
321.586776983717
 30
0.0
  0
VERTEX
  5
812
  8
KOLO
 10
205.4278132668923
 20
331.7133323540305
 30
0.0
  0
SEQEND
  5
813
  8
KOLO
  0
POLYLINE
  5
15A
  8
KOLO
 66
     1
 10
0.0
 20
0.0
 30
0.0
 70
     1
  0
VERTEX
  5
814
  8
KOLO
 10
223.4307621657076
 20
338.7139601483897
 30
0.0
  0
VERTEX
  5
815
  8
KOLO
 10
226.453206253591
 20
338.7139601483897
 30
0.0
  0
VERTEX
  5
816
  8
KOLO
 10
235.5205385172413
 20
338.7139601483897
 30
0.0
 42
-0.4142135623730994
  0
VERTEX
  5
817
  8
KOLO
 10
239.5504639677525
 20
334.6840346978784
 30
0.0
  0
VERTEX
  5
818
  8
KOLO
 10
239.5504639677525
 20
318.5643328958334
 30
0.0
 42
-0.4142135623730994
  0
VERTEX
  5
819
  8
KOLO
 10
235.5205385172413
 20
314.5344074453222
 30
0.0
  0
VERTEX
  5
81A
  8
KOLO
 10
222.4232808030798
 20
314.5344074453222
 30
0.0
  0
VERTEX
  5
81B
  8
KOLO
 10
222.4232808030798
 20
338.7139601483897
 30
0.0
  0
SEQEND
  5
81C
  8
KOLO
  0
POLYLINE
  5
15B
  8
KOLO
 66
     1
 10
0.0
 20
0.0
 30
0.0
 70
     1
  0
VERTEX
  5
81D
  8
KOLO
 10
223.453206253591
 20
331.7133323540305
 30
0.0
  0
VERTEX
  5
81E
  8
KOLO
 10
223.453206253591
 20
321.586776983717
 30
0.0
  0
VERTEX
  5
81F
  8
KOLO
 10
226.453206253591
 20
321.586776983717
 30
0.0
  0
VERTEX
  5
820
  8
KOLO
 10
226.453206253591
 20
331.7133323540305
 30
0.0
  0
SEQEND
  5
821
  8
KOLO
  0
POLYLINE
  5
15C
  8
KOLO
 66
     1
 10
0.0
 20
0.0
 30
0.0
 70
     1
  0
VERTEX
  5
822
  8
KOLO
 10
244.4561551524063
 20
340.9993289512918
 30
0.0
  0
VERTEX
  5
823
  8
KOLO
 10
247.4785992402897
 20
340.9993289512918
 30
0.0
  0
VERTEX
  5
824
  8
KOLO
 10
256.54593150394
 20
340.9993289512918
 30
0.0
 42
-0.4142135623730994
  0
VERTEX
  5
825
  8
KOLO
 10
260.5758569544512
 20
336.9694035007805
 30
0.0
  0
VERTEX
  5
826
  8
KOLO
 10
260.5758569544512
 20
320.8497016987355
 30
0.0
 42
-0.4142135623730994
  0
VERTEX
  5
827
  8
KOLO
 10
256.54593150394
 20
316.8197762482243
 30
0.0
  0
VERTEX
  5
828
  8
KOLO
 10
243.4486737897785
 20
316.8197762482243
 30
0.0
  0
VERTEX
  5
829
  8
KOLO
 10
243.4486737897785
 20
340.9993289512918
 30
0.0
  0
SEQEND
  5
82A
  8
KOLO
  0
POLYLINE
  5
15D
  8
KOLO
 66
     1
 10
0.0
 20
0.0
 30
0.0
 70
     1
  0
VERTEX
  5
82B
  8
KOLO
 10
244.4785992402897
 20
333.9987011569326
 30
0.0
  0
VERTEX
  5
82C
  8
KOLO
 10
244.4785992402897
 20
323.8721457866191
 30
0.0
  0
VERTEX
  5
82D
  8
KOLO
 10
247.4785992402897
 20
323.8721457866191
 30
0.0
  0
VERTEX
  5
82E
  8
KOLO
 10
247.4785992402897
 20
333.9987011569326
 30
0.0
  0
SEQEND
  5
82F
  8
KOLO
  0
POLYLINE
  5
15E
  8
KOLO
 66
     1
 10
0.0
 20
0.0
 30
0.0
 70
     1
  0
VERTEX
  5
830
  8
KOLO
 10
265.481548139105
 20
341.4564027118722
 30
0.0
  0
VERTEX
  5
831
  8
KOLO
 10
268.5039922269884
 20
341.4564027118722
 30
0.0
  0
VERTEX
  5
832
  8
KOLO
 10
277.5713244906387
 20
341.4564027118722
 30
0.0
 42
-0.4142135623730994
  0
VERTEX
  5
833
  8
KOLO
 10
281.6012499411499
 20
337.4264772613609
 30
0.0
  0
VERTEX
  5
834
  8
KOLO
 10
281.6012499411499
 20
321.3067754593159
 30
0.0
 42
-0.4142135623730994
  0
VERTEX
  5
835
  8
KOLO
 10
277.5713244906387
 20
317.2768500088047
 30
0.0
  0
VERTEX
  5
836
  8
KOLO
 10
264.4740667764772
 20
317.2768500088047
 30
0.0
  0
VERTEX
  5
837
  8
KOLO
 10
264.4740667764772
 20
341.4564027118722
 30
0.0
  0
SEQEND
  5
838
  8
KOLO
  0
POLYLINE
  5
15F
  8
KOLO
 66
     1
 10
0.0
 20
0.0
 30
0.0
 70
     1
  0
VERTEX
  5
839
  8
KOLO
 10
265.5039922269884
 20
334.4557749175129
 30
0.0
  0
VERTEX
  5
83A
  8
KOLO
 10
265.5039922269884
 20
324.3292195471994
 30
0.0
  0
VERTEX
  5
83B
  8
KOLO
 10
268.5039922269884
 20
324.3292195471994
 30
0.0
  0
VERTEX
  5
83C
  8
KOLO
 10
268.5039922269884
 20
334.4557749175129
 30
0.0
  0
SEQEND
  5
83D
  8
KOLO
  0
POLYLINE
  5
160
  8
KOLO
 66
     1
 10
0.0
 20
0.0
 30
0.0
 70
     1
  0
VERTEX
  5
83E
  8
KOLO
 10
286.9640148863841
 20
341.9134764724525
 30
0.0
  0
VERTEX
  5
83F
  8
KOLO
 10
289.9864589742675
 20
341.9134764724525
 30
0.0
  0
VERTEX
  5
840
  8
KOLO
 10
299.0537912379178
 20
341.9134764724525
 30
0.0
 42
-0.4142135623730994
  0
VERTEX
  5
841
  8
KOLO
 10
303.083716688429
 20
337.8835510219413
 30
0.0
  0
VERTEX
  5
842
  8
KOLO
 10
303.083716688429
 20
321.7638492198963
 30
0.0
 42
-0.4142135623730994
  0
VERTEX
  5
843
  8
KOLO
 10
299.0537912379178
 20
317.7339237693851
 30
0.0
  0
VERTEX
  5
844
  8
KOLO
 10
285.9565335237563
 20
317.7339237693851
 30
0.0
  0
VERTEX
  5
845
  8
KOLO
 10
285.9565335237563
 20
341.9134764724525
 30
0.0
  0
SEQEND
  5
846
  8
KOLO
  0
POLYLINE
  5
161
  8
KOLO
 66
     1
 10
0.0
 20
0.0
 30
0.0
 70
     1
  0
VERTEX
  5
847
  8
KOLO
 10
286.9864589742675
 20
334.9128486780933
 30
0.0
  0
VERTEX
  5
848
  8
KOLO
 10
286.9864589742675
 20
324.7862933077798
 30
0.0
  0
VERTEX
  5
849
  8
KOLO
 10
289.9864589742675
 20
324.7862933077798
 30
0.0
  0
VERTEX
  5
84A
  8
KOLO
 10
289.9864589742675
 20
334.9128486780933
 30
0.0
  0
SEQEND
  5
84B
  8
KOLO
  0
POLYLINE
  5
162
  8
KOLO
 66
     1
 10
0.0
 20
0.0
 30
0.0
 70
     1
  0
VERTEX
  5
84C
  8
KOLO
 10
309.8177029154044
 20
343.7417715147742
 30
0.0
  0
VERTEX
  5
84D
  8
KOLO
 10
312.8401470032878
 20
343.7417715147742
 30
0.0
  0
VERTEX
  5
84E
  8
KOLO
 10
321.9074792669381
 20
343.7417715147742
 30
0.0
 42
-0.4142135623730994
  0
VERTEX
  5
84F
  8
KOLO
 10
325.9374047174493
 20
339.7118460642629
 30
0.0
  0
VERTEX
  5
850
  8
KOLO
 10
325.9374047174493
 20
323.592144262218
 30
0.0
 42
-0.4142135623730994
  0
VERTEX
  5
851
  8
KOLO
 10
321.9074792669381
 20
319.5622188117068
 30
0.0
  0
VERTEX
  5
852
  8
KOLO
 10
308.8102215527766
 20
319.5622188117068
 30
0.0
  0
VERTEX
  5
853
  8
KOLO
 10
308.8102215527766
 20
343.7417715147742
 30
0.0
  0
SEQEND
  5
854
  8
KOLO
  0
POLYLINE
  5
163
  8
KOLO
 66
     1
 10
0.0
 20
0.0
 30
0.0
 70
     1
  0
VERTEX
  5
855
  8
KOLO
 10
309.8401470032878
 20
336.741143720415
 30
0.0
  0
VERTEX
  5
856
  8
KOLO
 10
309.8401470032878
 20
326.6145883501015
 30
0.0
  0
VERTEX
  5
857
  8
KOLO
 10
312.8401470032878
 20
326.6145883501015
 30
0.0
  0
VERTEX
  5
858
  8
KOLO
 10
312.8401470032878
 20
336.741143720415
 30
0.0
  0
SEQEND
  5
859
  8
KOLO
  0
POLYLINE
  5
164
  8
KOLO
 66
     1
 10
0.0
 20
0.0
 30
0.0
 70
     1
  0
VERTEX
  5
85A
  8
KOLO
 10
177.2663123470865
 20
258.7260520468186
 30
0.0
  0
VERTEX
  5
85B
  8
KOLO
 10
180.2887564349699
 20
258.7260520468186
 30
0.0
  0
VERTEX
  5
85C
  8
KOLO
 10
189.3560886986202
 20
258.7260520468186
 30
0.0
 42
-0.4142135623730994
  0
VERTEX
  5
85D
  8
KOLO
 10
193.3860141491314
 20
254.6961265963073
 30
0.0
  0
VERTEX
  5
85E
  8
KOLO
 10
193.3860141491314
 20
238.5764247942623
 30
0.0
 42
-0.4142135623730994
  0
VERTEX
  5
85F
  8
KOLO
 10
189.3560886986202
 20
234.5464993437511
 30
0.0
  0
VERTEX
  5
860
  8
KOLO
 10
176.2588309844587
 20
234.5464993437511
 30
0.0
  0
VERTEX
  5
861
  8
KOLO
 10
176.2588309844587
 20
258.7260520468186
 30
0.0
  0
SEQEND
  5
862
  8
KOLO
  0
POLYLINE
  5
165
  8
KOLO
 66
     1
 10
0.0
 20
0.0
 30
0.0
 70
     1
  0
VERTEX
  5
863
  8
KOLO
 10
177.2887564349699
 20
251.7254242524593
 30
0.0
  0
VERTEX
  5
864
  8
KOLO
 10
177.2887564349699
 20
241.5988688821458
 30
0.0
  0
VERTEX
  5
865
  8
KOLO
 10
180.2887564349699
 20
241.5988688821458
 30
0.0
  0
VERTEX
  5
866
  8
KOLO
 10
180.2887564349699
 20
251.7254242524593
 30
0.0
  0
SEQEND
  5
867
  8
KOLO
  0
POLYLINE
  5
166
  8
KOLO
 66
     1
 10
0.0
 20
0.0
 30
0.0
 70
     1
  0
VERTEX
  5
868
  8
KOLO
 10
176.3521648259257
 20
289.3499940057058
 30
0.0
  0
VERTEX
  5
869
  8
KOLO
 10
179.3746089138091
 20
289.3499940057058
 30
0.0
  0
VERTEX
  5
86A
  8
KOLO
 10
188.4419411774594
 20
289.3499940057058
 30
0.0
 42
-0.4142135623730994
  0
VERTEX
  5
86B
  8
KOLO
 10
192.4718666279707
 20
285.3200685551946
 30
0.0
  0
VERTEX
  5
86C
  8
KOLO
 10
192.4718666279707
 20
269.2003667531496
 30
0.0
 42
-0.4142135623730994
  0
VERTEX
  5
86D
  8
KOLO
 10
188.4419411774594
 20
265.1704413026384
 30
0.0
  0
VERTEX
  5
86E
  8
KOLO
 10
175.3446834632979
 20
265.1704413026384
 30
0.0
  0
VERTEX
  5
86F
  8
KOLO
 10
175.3446834632979
 20
289.3499940057058
 30
0.0
  0
SEQEND
  5
870
  8
KOLO
  0
POLYLINE
  5
167
  8
KOLO
 66
     1
 10
0.0
 20
0.0
 30
0.0
 70
     1
  0
VERTEX
  5
871
  8
KOLO
 10
176.3746089138091
 20
282.3493662113466
 30
0.0
  0
VERTEX
  5
872
  8
KOLO
 10
176.3746089138091
 20
272.2228108410331
 30
0.0
  0
VERTEX
  5
873
  8
KOLO
 10
179.3746089138091
 20
272.2228108410331
 30
0.0
  0
VERTEX
  5
874
  8
KOLO
 10
179.3746089138091
 20
282.3493662113466
 30
0.0
  0
SEQEND
  5
875
  8
KOLO
  0
POLYLINE
  5
168
  8
KOLO
 66
     1
 10
0.0
 20
0.0
 30
0.0
 70
     1
  0
VERTEX
  5
876
  8
KOLO
 10
288.7923099287057
 20
373.4515659525006
 30
0.0
  0
VERTEX
  5
877
  8
KOLO
 10
291.8147540165892
 20
373.4515659525006
 30
0.0
  0
VERTEX
  5
878
  8
KOLO
 10
300.8820862802394
 20
373.4515659525006
 30
0.0
 42
-0.4142135623730994
  0
VERTEX
  5
879
  8
KOLO
 10
304.9120117307507
 20
369.4216405019893
 30
0.0
  0
VERTEX
  5
87A
  8
KOLO
 10
304.9120117307507
 20
353.3019386999443
 30
0.0
 42
-0.4142135623730994
  0
VERTEX
  5
87B
  8
KOLO
 10
300.8820862802394
 20
349.2720132494331
 30
0.0
  0
VERTEX
  5
87C
  8
KOLO
 10
287.7848285660779
 20
349.2720132494331
 30
0.0
  0
VERTEX
  5
87D
  8
KOLO
 10
287.7848285660779
 20
373.4515659525006
 30
0.0
  0
SEQEND
  5
87E
  8
KOLO
  0
POLYLINE
  5
169
  8
KOLO
 66
     1
 10
0.0
 20
0.0
 30
0.0
 70
     1
  0
VERTEX
  5
87F
  8
KOLO
 10
288.8147540165892
 20
366.4509381581414
 30
0.0
  0
VERTEX
  5
880
  8
KOLO
 10
288.8147540165892
 20
356.3243827878279
 30
0.0
  0
VERTEX
  5
881
  8
KOLO
 10
291.8147540165892
 20
356.3243827878279
 30
0.0
  0
VERTEX
  5
882
  8
KOLO
 10
291.8147540165892
 20
366.4509381581414
 30
0.0
  0
SEQEND
  5
883
  8
KOLO
  0
ENDSEC
  0
EOF
