  0
SECTION
  2
HEADER
  9
$ACADVER
  1
AC1014
  9
$HANDSEED
  5
FFFF
  9
$MEASUREMENT
 70
     1
  0
ENDSEC
  0
SECTION
  2
TABLES
  0
TABLE
  2
VPORT
  5
8
330
0
100
AcDbSymbolTable
 70
     4
  0
VPORT
  5
2E
330
8
100
AcDbSymbolTableRecord
100
AcDbViewportTableRecord
  2
*ACTIVE
 70
     0
 10
0.0
 20
0.0
 11
1.0
 21
1.0
 12
210.0
 22
148.5
 13
0.0
 23
0.0
 14
10.0
 24
10.0
 15
10.0
 25
10.0
 16
0.0
 26
0.0
 36
1.0
 17
0.0
 27
0.0
 37
0.0
 40
341.0
 41
1.24
 42
50.0
 43
0.0
 44
0.0
 50
0.0
 51
0.0
 71
     0
 72
   100
 73
     1
 74
     3
 75
     0
 76
     0
 77
     0
 78
     0
  0
ENDTAB
  0
TABLE
  2
LTYPE
  5
5
330
0
100
AcDbSymbolTable
 70
     1
  0
LTYPE
  5
14
330
5
100
AcDbSymbolTableRecord
100
AcDbLinetypeTableRecord
  2
BYBLOCK
 70
     0
  3

 72
    65
 73
     0
 40
0.0
  0
LTYPE
  5
15
330
5
100
AcDbSymbolTableRecord
100
AcDbLinetypeTableRecord
  2
BYLAYER
 70
     0
  3

 72
    65
 73
     0
 40
0.0
  0
LTYPE
  5
16
330
5
100
AcDbSymbolTableRecord
100
AcDbLinetypeTableRecord
  2
CONTINUOUS
 70
     0
  3
Solid line
 72
    65
 73
     0
 40
0.0
  0
ENDTAB
  0
TABLE
  2
LAYER
  5
2
100
AcDbSymbolTable
 70
2
  0
LAYER
  5
50
100
AcDbSymbolTableRecord
100
AcDbLayerTableRecord
  2
0
 70
0
  6
CONTINUOUS
  0
LAYER
  5
51
100
AcDbSymbolTableRecord
100
AcDbLayerTableRecord
  2
A0102_Printing_01
 70
0
  6
CONTINUOUS
  0
ENDTAB
  0
TABLE
  2
STYLE
  5
3
330
0
100
AcDbSymbolTable
 70
     1
  0
STYLE
  5
11
330
3
100
AcDbSymbolTableRecord
100
AcDbTextStyleTableRecord
  2
STANDARD
 70
     0
 40
0.0
 41
1.0
 50
0.0
 71
     0
 42
2.5
  3
txt
  4

  0
ENDTAB
  0
TABLE
  2
VIEW
  5
6
330
0
100
AcDbSymbolTable
 70
     0
  0
ENDTAB
  0
TABLE
  2
UCS
  5
7
330
0
100
AcDbSymbolTable
 70
     0
  0
ENDTAB
  0
TABLE
  2
APPID
  5
9
330
0
100
AcDbSymbolTable
 70
     2
  0
APPID
  5
12
330
9
100
AcDbSymbolTableRecord
100
AcDbRegAppTableRecord
  2
ACAD
 70
     0
  0
ENDTAB
  0
TABLE
  2
DIMSTYLE
  5
A
330
0
100
AcDbSymbolTable
 70
     1
  0
DIMSTYLE
105
27
330
A
100
AcDbSymbolTableRecord
100
AcDbDimStyleTableRecord
  2
ISO-25
 70
     0
  3

  4

  5

  6

  7

 40
1.0
 41
2.5
 42
0.625
 43
3.75
 44
1.25
 45
0.0
 46
0.0
 47
0.0
 48
0.0
140
2.5
141
2.5
142
0.0
143
0.03937007874016
144
1.0
145
0.0
146
1.0
147
0.625
 71
     0
 72
     0
 73
     0
 74
     0
 75
     0
 76
     0
 77
     1
 78
     8
170
     0
171
     3
172
     1
173
     0
174
     0
175
     0
176
     0
177
     0
178
     0
270
     2
271
     2
272
     2
273
     2
274
     3
340
11
275
     0
280
     0
281
     0
282
     0
283
     0
284
     8
285
     0
286
     0
287
     3
288
     0
  0
ENDTAB
  0
TABLE
  2
BLOCK_RECORD
  5
1
330
0
100
AcDbSymbolTable
 70
     1
  0
BLOCK_RECORD
  5
1F
330
1
100
AcDbSymbolTableRecord
100
AcDbBlockTableRecord
  2
*MODEL_SPACE
  0
BLOCK_RECORD
  5
1B
330
1
100
AcDbSymbolTableRecord
100
AcDbBlockTableRecord
  2
*PAPER_SPACE
  0
ENDTAB
  0
ENDSEC
  0
SECTION
  2
BLOCKS
  0
BLOCK
  5
20
330
1F
100
AcDbEntity
  8
0
100
AcDbBlockBegin
  2
*MODEL_SPACE
 70
     0
 10
0.0
 20
0.0
 30
0.0
  3
*MODEL_SPACE
  1

  0
ENDBLK
  5
21
330
1F
100
AcDbEntity
  8
0
100
AcDbBlockEnd
  0
BLOCK
  5
1C
330
1B
100
AcDbEntity
 67
     1
  8
0
100
AcDbBlockBegin
  2
*PAPER_SPACE
  1

  0
ENDBLK
  5
1D
330
1B
100
AcDbEntity
 67
     1
  8
0
100
AcDbBlockEnd
  0
ENDSEC
  0
SECTION
  2
ENTITIES
  0
SPLINE
  5
100
100
AcDbEntity
  8
A0102_Printing_01
 62
1
100
AcDbSpline
 70
8
 71
3
 72
8
 73
4
 74
0
 40
0
 40
0
 40
0
 40
0
 40
1
 40
1
 40
1
 40
1
 10
2273.792643
 20
1637.574259
 30
0.0
 10
2273.659643
 20
1635.362259
 30
0.0
 10
2272.400643
 20
1633.286259
 30
0.0
 10
2270.719643
 20
1631.802259
 30
0.0
  0
SPLINE
  5
101
100
AcDbEntity
  8
A0102_Printing_01
 62
1
100
AcDbSpline
 70
8
 71
3
 72
8
 73
4
 74
0
 40
0
 40
0
 40
0
 40
0
 40
1
 40
1
 40
1
 40
1
 10
2270.719643
 20
1631.802259
 30
0.0
 10
2268.595643
 20
1629.927259
 30
0.0
 10
2265.799643
 20
1629.002259
 30
0.0
 10
2263.080643
 20
1629.046259
 30
0.0
  0
SPLINE
  5
102
100
AcDbEntity
  8
A0102_Printing_01
 62
1
100
AcDbSpline
 70
8
 71
3
 72
8
 73
4
 74
0
 40
0
 40
0
 40
0
 40
0
 40
1
 40
1
 40
1
 40
1
 10
2263.080643
 20
1629.046259
 30
0.0
 10
2261.117643
 20
1629.079259
 30
0.0
 10
2259.195644
 20
1629.622259
 30
0.0
 10
2257.268644
 20
1630.165259
 30
0.0
  0
SPLINE
  5
103
100
AcDbEntity
  8
A0102_Printing_01
 62
1
100
AcDbSpline
 70
8
 71
3
 72
8
 73
4
 74
0
 40
0
 40
0
 40
0
 40
0
 40
1
 40
1
 40
1
 40
1
 10
2257.268644
 20
1630.165259
 30
0.0
 10
2257.746644
 20
1633.310259
 30
0.0
 10
2256.765644
 20
1636.331259
 30
0.0
 10
2254.528644
 20
1638.596259
 30
0.0
  0
SPLINE
  5
104
100
AcDbEntity
  8
A0102_Printing_01
 62
1
100
AcDbSpline
 70
8
 71
3
 72
8
 73
4
 74
0
 40
0
 40
0
 40
0
 40
0
 40
1
 40
1
 40
1
 40
1
 10
2254.528644
 20
1638.596259
 30
0.0
 10
2255.767644
 20
1640.165259
 30
0.0
 10
2257.006644
 20
1641.733259
 30
0.0
 10
2258.575644
 20
1642.916259
 30
0.0
  0
SPLINE
  5
105
100
AcDbEntity
  8
A0102_Printing_01
 62
1
100
AcDbSpline
 70
8
 71
3
 72
8
 73
4
 74
0
 40
0
 40
0
 40
0
 40
0
 40
1
 40
1
 40
1
 40
1
 10
2258.575644
 20
1642.916259
 30
0.0
 10
2260.747643
 20
1644.549259
 30
0.0
 10
2263.555643
 20
1645.446259
 30
0.0
 10
2266.375643
 20
1645.177259
 30
0.0
  0
SPLINE
  5
106
100
AcDbEntity
  8
A0102_Printing_01
 62
1
100
AcDbSpline
 70
8
 71
3
 72
8
 73
4
 74
0
 40
0
 40
0
 40
0
 40
0
 40
1
 40
1
 40
1
 40
1
 10
2266.375643
 20
1645.177259
 30
0.0
 10
2268.603643
 20
1644.967259
 30
0.0
 10
2270.844643
 20
1644.026259
 30
0.0
 10
2272.255643
 20
1642.313259
 30
0.0
  0
SPLINE
  5
107
100
AcDbEntity
  8
A0102_Printing_01
 62
1
100
AcDbSpline
 70
8
 71
3
 72
8
 73
4
 74
0
 40
0
 40
0
 40
0
 40
0
 40
1
 40
1
 40
1
 40
1
 10
2272.255643
 20
1642.313259
 30
0.0
 10
2272.791643
 20
1641.661259
 30
0.0
 10
2273.205643
 20
1640.901259
 30
0.0
 10
2273.470643
 20
1640.088259
 30
0.0
  0
SPLINE
  5
108
100
AcDbEntity
  8
A0102_Printing_01
 62
1
100
AcDbSpline
 70
8
 71
3
 72
8
 73
4
 74
0
 40
0
 40
0
 40
0
 40
0
 40
1
 40
1
 40
1
 40
1
 10
2273.470643
 20
1640.088259
 30
0.0
 10
2273.732643
 20
1639.276259
 30
0.0
 10
2273.844643
 20
1638.415259
 30
0.0
 10
2273.792643
 20
1637.574259
 30
0.0
  0
LWPOLYLINE
  5
109
100
AcDbEntity
  8
A0102_Printing_01
 62
1
100
AcDbPolyline
 90
1
 70
1
 10
2273.792643
 20
1637.574259
 30
0.0
  0
LWPOLYLINE
  5
10a
100
AcDbEntity
  8
A0102_Printing_01
 62
1
100
AcDbPolyline
 90
4
 70
1
 10
2270.676643
 20
1428.729264
 30
0.0
 10
2256.503644
 20
1428.729264
 30
0.0
 10
2256.503644
 20
1485.422263
 30
0.0
 10
2270.676643
 20
1485.422263
 30
0.0
  0
LWPOLYLINE
  5
10b
100
AcDbEntity
  8
A0102_Printing_01
 62
1
100
AcDbPolyline
 90
4
 70
1
 10
2270.676643
 20
1213.295270
 30
0.0
 10
2256.503644
 20
1213.295270
 30
0.0
 10
2256.503644
 20
1269.988268
 30
0.0
 10
2270.676643
 20
1269.988268
 30
0.0
  0
LWPOLYLINE
  5
10c
100
AcDbEntity
  8
A0102_Printing_01
 62
1
100
AcDbPolyline
 90
4
 70
1
 10
2270.676643
 20
997.862275
 30
0.0
 10
2256.503644
 20
997.862275
 30
0.0
 10
2256.503644
 20
1054.555274
 30
0.0
 10
2270.676643
 20
1054.555274
 30
0.0
  0
SPLINE
  5
10d
100
AcDbEntity
  8
A0102_Printing_01
 62
1
100
AcDbSpline
 70
8
 71
3
 72
8
 73
4
 74
0
 40
0
 40
0
 40
0
 40
0
 40
1
 40
1
 40
1
 40
1
 10
2254.861644
 20
1606.835260
 30
0.0
 10
2252.419644
 20
1608.280260
 30
0.0
 10
2250.677644
 20
1610.653260
 30
0.0
 10
2249.881644
 20
1613.247260
 30
0.0
  0
SPLINE
  5
10e
100
AcDbEntity
  8
A0102_Printing_01
 62
1
100
AcDbSpline
 70
8
 71
3
 72
8
 73
4
 74
0
 40
0
 40
0
 40
0
 40
0
 40
1
 40
1
 40
1
 40
1
 10
2249.881644
 20
1613.247260
 30
0.0
 10
2249.306644
 20
1615.130260
 30
0.0
 10
2249.225644
 20
1617.125260
 30
0.0
 10
2249.149644
 20
1619.124260
 30
0.0
  0
SPLINE
  5
10f
100
AcDbEntity
  8
A0102_Printing_01
 62
1
100
AcDbSpline
 70
8
 71
3
 72
8
 73
4
 74
0
 40
0
 40
0
 40
0
 40
0
 40
1
 40
1
 40
1
 40
1
 10
2249.149644
 20
1619.124260
 30
0.0
 10
2252.282644
 20
1619.639260
 30
0.0
 10
2254.857644
 20
1621.509259
 30
0.0
 10
2256.321644
 20
1624.333259
 30
0.0
  0
SPLINE
  5
110
100
AcDbEntity
  8
A0102_Printing_01
 62
1
100
AcDbSpline
 70
8
 71
3
 72
8
 73
4
 74
0
 40
0
 40
0
 40
0
 40
0
 40
1
 40
1
 40
1
 40
1
 10
2256.321644
 20
1624.333259
 30
0.0
 10
2258.196644
 20
1623.641259
 30
0.0
 10
2260.070643
 20
1622.949259
 30
0.0
 10
2261.679643
 20
1621.819259
 30
0.0
  0
SPLINE
  5
111
100
AcDbEntity
  8
A0102_Printing_01
 62
1
100
AcDbSpline
 70
8
 71
3
 72
8
 73
4
 74
0
 40
0
 40
0
 40
0
 40
0
 40
1
 40
1
 40
1
 40
1
 10
2261.679643
 20
1621.819259
 30
0.0
 10
2263.903643
 20
1620.262259
 30
0.0
 10
2265.621643
 20
1617.869260
 30
0.0
 10
2266.236643
 20
1615.102260
 30
0.0
  0
SPLINE
  5
112
100
AcDbEntity
  8
A0102_Printing_01
 62
1
100
AcDbSpline
 70
8
 71
3
 72
8
 73
4
 74
0
 40
0
 40
0
 40
0
 40
0
 40
1
 40
1
 40
1
 40
1
 10
2266.236643
 20
1615.102260
 30
0.0
 10
2266.727643
 20
1612.918260
 30
0.0
 10
2266.526643
 20
1610.496260
 30
0.0
 10
2265.331643
 20
1608.626260
 30
0.0
  0
SPLINE
  5
113
100
AcDbEntity
  8
A0102_Printing_01
 62
1
100
AcDbSpline
 70
8
 71
3
 72
8
 73
4
 74
0
 40
0
 40
0
 40
0
 40
0
 40
1
 40
1
 40
1
 40
1
 10
2265.331643
 20
1608.626260
 30
0.0
 10
2264.877643
 20
1607.918260
 30
0.0
 10
2264.282643
 20
1607.286260
 30
0.0
 10
2263.594643
 20
1606.779260
 30
0.0
  0
SPLINE
  5
114
100
AcDbEntity
  8
A0102_Printing_01
 62
1
100
AcDbSpline
 70
8
 71
3
 72
8
 73
4
 74
0
 40
0
 40
0
 40
0
 40
0
 40
1
 40
1
 40
1
 40
1
 10
2263.594643
 20
1606.779260
 30
0.0
 10
2262.902643
 20
1606.280260
 30
0.0
 10
2262.117643
 20
1605.910260
 30
0.0
 10
2261.301643
 20
1605.697260
 30
0.0
  0
SPLINE
  5
115
100
AcDbEntity
  8
A0102_Printing_01
 62
1
100
AcDbSpline
 70
8
 71
3
 72
8
 73
4
 74
0
 40
0
 40
0
 40
0
 40
0
 40
1
 40
1
 40
1
 40
1
 10
2261.301643
 20
1605.697260
 30
0.0
 10
2259.153644
 20
1605.138260
 30
0.0
 10
2256.792644
 20
1605.697260
 30
0.0
 10
2254.861644
 20
1606.835260
 30
0.0
  0
LWPOLYLINE
  5
116
100
AcDbEntity
  8
A0102_Printing_01
 62
1
100
AcDbPolyline
 90
4
 70
1
 10
2270.676643
 20
782.429280
 30
0.0
 10
2256.503644
 20
782.429280
 30
0.0
 10
2256.503644
 20
839.122279
 30
0.0
 10
2270.676643
 20
839.122279
 30
0.0
  0
SPLINE
  5
117
100
AcDbEntity
  8
A0102_Printing_01
 62
1
100
AcDbSpline
 70
8
 71
3
 72
8
 73
4
 74
0
 40
0
 40
0
 40
0
 40
0
 40
1
 40
1
 40
1
 40
1
 10
2238.498644
 20
1630.679259
 30
0.0
 10
2238.498644
 20
1634.609259
 30
0.0
 10
2241.684644
 20
1637.795259
 30
0.0
 10
2245.614644
 20
1637.795259
 30
0.0
  0
SPLINE
  5
118
100
AcDbEntity
  8
A0102_Printing_01
 62
1
100
AcDbSpline
 70
8
 71
3
 72
8
 73
4
 74
0
 40
0
 40
0
 40
0
 40
0
 40
1
 40
1
 40
1
 40
1
 10
2245.614644
 20
1637.795259
 30
0.0
 10
2249.545644
 20
1637.795259
 30
0.0
 10
2252.731644
 20
1634.609259
 30
0.0
 10
2252.731644
 20
1630.679259
 30
0.0
  0
SPLINE
  5
119
100
AcDbEntity
  8
A0102_Printing_01
 62
1
100
AcDbSpline
 70
8
 71
3
 72
8
 73
4
 74
0
 40
0
 40
0
 40
0
 40
0
 40
1
 40
1
 40
1
 40
1
 10
2252.731644
 20
1630.679259
 30
0.0
 10
2252.731644
 20
1626.749259
 30
0.0
 10
2249.545644
 20
1623.562259
 30
0.0
 10
2245.614644
 20
1623.562259
 30
0.0
  0
SPLINE
  5
11a
100
AcDbEntity
  8
A0102_Printing_01
 62
1
100
AcDbSpline
 70
8
 71
3
 72
8
 73
4
 74
0
 40
0
 40
0
 40
0
 40
0
 40
1
 40
1
 40
1
 40
1
 10
2245.614644
 20
1623.562259
 30
0.0
 10
2241.684644
 20
1623.562259
 30
0.0
 10
2238.498644
 20
1626.749259
 30
0.0
 10
2238.498644
 20
1630.679259
 30
0.0
  0
LWPOLYLINE
  5
11b
100
AcDbEntity
  8
A0102_Printing_01
 62
1
100
AcDbPolyline
 90
1
 70
1
 10
2254.861644
 20
1606.835260
 30
0.0
  0
SPLINE
  5
11c
100
AcDbEntity
  8
A0102_Printing_01
 62
1
100
AcDbSpline
 70
8
 71
3
 72
8
 73
4
 74
0
 40
0
 40
0
 40
0
 40
0
 40
1
 40
1
 40
1
 40
1
 10
2242.050644
 20
1613.949260
 30
0.0
 10
2241.253644
 20
1611.355260
 30
0.0
 10
2239.508644
 20
1608.982260
 30
0.0
 10
2237.070644
 20
1607.538260
 30
0.0
  0
SPLINE
  5
11d
100
AcDbEntity
  8
A0102_Printing_01
 62
1
100
AcDbSpline
 70
8
 71
3
 72
8
 73
4
 74
0
 40
0
 40
0
 40
0
 40
0
 40
1
 40
1
 40
1
 40
1
 10
2237.070644
 20
1607.538260
 30
0.0
 10
2235.139644
 20
1606.399260
 30
0.0
 10
2232.778644
 20
1605.840260
 30
0.0
 10
2230.630644
 20
1606.399260
 30
0.0
  0
SPLINE
  5
11e
100
AcDbEntity
  8
A0102_Printing_01
 62
1
100
AcDbSpline
 70
8
 71
3
 72
8
 73
4
 74
0
 40
0
 40
0
 40
0
 40
0
 40
1
 40
1
 40
1
 40
1
 10
2230.630644
 20
1606.399260
 30
0.0
 10
2229.814644
 20
1606.613260
 30
0.0
 10
2229.029644
 20
1606.983260
 30
0.0
 10
2228.337644
 20
1607.481260
 30
0.0
  0
SPLINE
  5
11f
100
AcDbEntity
  8
A0102_Printing_01
 62
1
100
AcDbSpline
 70
8
 71
3
 72
8
 73
4
 74
0
 40
0
 40
0
 40
0
 40
0
 40
1
 40
1
 40
1
 40
1
 10
2228.337644
 20
1607.481260
 30
0.0
 10
2227.649644
 20
1607.988260
 30
0.0
 10
2227.054644
 20
1608.620260
 30
0.0
 10
2226.600644
 20
1609.328260
 30
0.0
  0
SPLINE
  5
120
100
AcDbEntity
  8
A0102_Printing_01
 62
1
100
AcDbSpline
 70
8
 71
3
 72
8
 73
4
 74
0
 40
0
 40
0
 40
0
 40
0
 40
1
 40
1
 40
1
 40
1
 10
2226.600644
 20
1609.328260
 30
0.0
 10
2225.405644
 20
1611.198260
 30
0.0
 10
2225.204644
 20
1613.620260
 30
0.0
 10
2225.691644
 20
1615.804260
 30
0.0
  0
SPLINE
  5
121
100
AcDbEntity
  8
A0102_Printing_01
 62
1
100
AcDbSpline
 70
8
 71
3
 72
8
 73
4
 74
0
 40
0
 40
0
 40
0
 40
0
 40
1
 40
1
 40
1
 40
1
 10
2225.691644
 20
1615.804260
 30
0.0
 10
2226.310644
 20
1618.571260
 30
0.0
 10
2228.028644
 20
1620.965259
 30
0.0
 10
2230.252644
 20
1622.522259
 30
0.0
  0
SPLINE
  5
122
100
AcDbEntity
  8
A0102_Printing_01
 62
1
100
AcDbSpline
 70
8
 71
3
 72
8
 73
4
 74
0
 40
0
 40
0
 40
0
 40
0
 40
1
 40
1
 40
1
 40
1
 10
2230.252644
 20
1622.522259
 30
0.0
 10
2231.861644
 20
1623.652259
 30
0.0
 10
2233.736644
 20
1624.344259
 30
0.0
 10
2235.610644
 20
1625.035259
 30
0.0
  0
SPLINE
  5
123
100
AcDbEntity
  8
A0102_Printing_01
 62
1
100
AcDbSpline
 70
8
 71
3
 72
8
 73
4
 74
0
 40
0
 40
0
 40
0
 40
0
 40
1
 40
1
 40
1
 40
1
 10
2235.610644
 20
1625.035259
 30
0.0
 10
2237.074644
 20
1622.212259
 30
0.0
 10
2239.645644
 20
1620.341259
 30
0.0
 10
2242.782644
 20
1619.826260
 30
0.0
  0
SPLINE
  5
124
100
AcDbEntity
  8
A0102_Printing_01
 62
1
100
AcDbSpline
 70
8
 71
3
 72
8
 73
4
 74
0
 40
0
 40
0
 40
0
 40
0
 40
1
 40
1
 40
1
 40
1
 10
2242.782644
 20
1619.826260
 30
0.0
 10
2242.706644
 20
1617.827260
 30
0.0
 10
2242.625644
 20
1615.832260
 30
0.0
 10
2242.050644
 20
1613.949260
 30
0.0
  0
LWPOLYLINE
  5
125
100
AcDbEntity
  8
A0102_Printing_01
 62
1
100
AcDbPolyline
 90
1
 70
1
 10
2238.498644
 20
1630.679259
 30
0.0
  0
SPLINE
  5
126
100
AcDbEntity
  8
A0102_Printing_01
 62
1
100
AcDbSpline
 70
8
 71
3
 72
8
 73
4
 74
0
 40
0
 40
0
 40
0
 40
0
 40
1
 40
1
 40
1
 40
1
 10
2217.437645
 20
1637.574259
 30
0.0
 10
2217.384645
 20
1638.415259
 30
0.0
 10
2217.497645
 20
1639.276259
 30
0.0
 10
2217.759645
 20
1640.088259
 30
0.0
  0
SPLINE
  5
127
100
AcDbEntity
  8
A0102_Printing_01
 62
1
100
AcDbSpline
 70
8
 71
3
 72
8
 73
4
 74
0
 40
0
 40
0
 40
0
 40
0
 40
1
 40
1
 40
1
 40
1
 10
2217.759645
 20
1640.088259
 30
0.0
 10
2218.024645
 20
1640.901259
 30
0.0
 10
2218.438645
 20
1641.661259
 30
0.0
 10
2218.973645
 20
1642.313259
 30
0.0
  0
SPLINE
  5
128
100
AcDbEntity
  8
A0102_Printing_01
 62
1
100
AcDbSpline
 70
8
 71
3
 72
8
 73
4
 74
0
 40
0
 40
0
 40
0
 40
0
 40
1
 40
1
 40
1
 40
1
 10
2218.973645
 20
1642.313259
 30
0.0
 10
2220.385644
 20
1644.026259
 30
0.0
 10
2222.626644
 20
1644.967259
 30
0.0
 10
2224.854644
 20
1645.177259
 30
0.0
  0
SPLINE
  5
129
100
AcDbEntity
  8
A0102_Printing_01
 62
1
100
AcDbSpline
 70
8
 71
3
 72
8
 73
4
 74
0
 40
0
 40
0
 40
0
 40
0
 40
1
 40
1
 40
1
 40
1
 10
2224.854644
 20
1645.177259
 30
0.0
 10
2227.674644
 20
1645.446259
 30
0.0
 10
2230.481644
 20
1644.549259
 30
0.0
 10
2232.654644
 20
1642.916259
 30
0.0
  0
SPLINE
  5
12a
100
AcDbEntity
  8
A0102_Printing_01
 62
1
100
AcDbSpline
 70
8
 71
3
 72
8
 73
4
 74
0
 40
0
 40
0
 40
0
 40
0
 40
1
 40
1
 40
1
 40
1
 10
2232.654644
 20
1642.916259
 30
0.0
 10
2234.222644
 20
1641.733259
 30
0.0
 10
2235.461644
 20
1640.165259
 30
0.0
 10
2236.700644
 20
1638.596259
 30
0.0
  0
SPLINE
  5
12b
100
AcDbEntity
  8
A0102_Printing_01
 62
1
100
AcDbSpline
 70
8
 71
3
 72
8
 73
4
 74
0
 40
0
 40
0
 40
0
 40
0
 40
1
 40
1
 40
1
 40
1
 10
2236.700644
 20
1638.596259
 30
0.0
 10
2234.464644
 20
1636.331259
 30
0.0
 10
2233.482644
 20
1633.310259
 30
0.0
 10
2233.957644
 20
1630.165259
 30
0.0
  0
SPLINE
  5
12c
100
AcDbEntity
  8
A0102_Printing_01
 62
1
100
AcDbSpline
 70
8
 71
3
 72
8
 73
4
 74
0
 40
0
 40
0
 40
0
 40
0
 40
1
 40
1
 40
1
 40
1
 10
2233.957644
 20
1630.165259
 30
0.0
 10
2232.034644
 20
1629.622259
 30
0.0
 10
2230.112644
 20
1629.079259
 30
0.0
 10
2228.145644
 20
1629.046259
 30
0.0
  0
SPLINE
  5
12d
100
AcDbEntity
  8
A0102_Printing_01
 62
1
100
AcDbSpline
 70
8
 71
3
 72
8
 73
4
 74
0
 40
0
 40
0
 40
0
 40
0
 40
1
 40
1
 40
1
 40
1
 10
2228.145644
 20
1629.046259
 30
0.0
 10
2225.429644
 20
1629.002259
 30
0.0
 10
2222.634644
 20
1629.927259
 30
0.0
 10
2220.510644
 20
1631.802259
 30
0.0
  0
SPLINE
  5
12e
100
AcDbEntity
  8
A0102_Printing_01
 62
1
100
AcDbSpline
 70
8
 71
3
 72
8
 73
4
 74
0
 40
0
 40
0
 40
0
 40
0
 40
1
 40
1
 40
1
 40
1
 10
2220.510644
 20
1631.802259
 30
0.0
 10
2218.828645
 20
1633.286259
 30
0.0
 10
2217.569645
 20
1635.362259
 30
0.0
 10
2217.437645
 20
1637.574259
 30
0.0
  0
LWPOLYLINE
  5
12f
100
AcDbEntity
  8
A0102_Printing_01
 62
1
100
AcDbPolyline
 90
1
 70
1
 10
2242.050644
 20
1613.949260
 30
0.0
  0
SPLINE
  5
130
100
AcDbEntity
  8
A0102_Printing_01
 62
1
100
AcDbSpline
 70
8
 71
3
 72
8
 73
4
 74
0
 40
0
 40
0
 40
0
 40
0
 40
1
 40
1
 40
1
 40
1
 10
2238.581644
 20
1654.819259
 30
0.0
 10
2239.474644
 20
1656.878259
 30
0.0
 10
2241.059644
 20
1658.716259
 30
0.0
 10
2243.123644
 20
1659.529259
 30
0.0
  0
SPLINE
  5
131
100
AcDbEntity
  8
A0102_Printing_01
 62
1
100
AcDbSpline
 70
8
 71
3
 72
8
 73
4
 74
0
 40
0
 40
0
 40
0
 40
0
 40
1
 40
1
 40
1
 40
1
 10
2243.123644
 20
1659.529259
 30
0.0
 10
2243.907644
 20
1659.835259
 30
0.0
 10
2244.760644
 20
1659.996259
 30
0.0
 10
2245.612644
 20
1660.000258
 30
0.0
  0
SPLINE
  5
132
100
AcDbEntity
  8
A0102_Printing_01
 62
1
100
AcDbSpline
 70
8
 71
3
 72
8
 73
4
 74
0
 40
0
 40
0
 40
0
 40
0
 40
1
 40
1
 40
1
 40
1
 10
2245.612644
 20
1660.000258
 30
0.0
 10
2246.469644
 20
1659.996259
 30
0.0
 10
2247.322644
 20
1659.835259
 30
0.0
 10
2248.106644
 20
1659.529259
 30
0.0
  0
SPLINE
  5
133
100
AcDbEntity
  8
A0102_Printing_01
 62
1
100
AcDbSpline
 70
8
 71
3
 72
8
 73
4
 74
0
 40
0
 40
0
 40
0
 40
0
 40
1
 40
1
 40
1
 40
1
 10
2248.106644
 20
1659.529259
 30
0.0
 10
2250.170644
 20
1658.716259
 30
0.0
 10
2251.755644
 20
1656.878259
 30
0.0
 10
2252.648644
 20
1654.819259
 30
0.0
  0
SPLINE
  5
134
100
AcDbEntity
  8
A0102_Printing_01
 62
1
100
AcDbSpline
 70
8
 71
3
 72
8
 73
4
 74
0
 40
0
 40
0
 40
0
 40
0
 40
1
 40
1
 40
1
 40
1
 10
2252.648644
 20
1654.819259
 30
0.0
 10
2253.774644
 20
1652.220259
 30
0.0
 10
2253.790644
 20
1649.276259
 30
0.0
 10
2252.905644
 20
1646.705259
 30
0.0
  0
SPLINE
  5
135
100
AcDbEntity
  8
A0102_Printing_01
 62
1
100
AcDbSpline
 70
8
 71
3
 72
8
 73
4
 74
0
 40
0
 40
0
 40
0
 40
0
 40
1
 40
1
 40
1
 40
1
 10
2252.905644
 20
1646.705259
 30
0.0
 10
2252.266644
 20
1644.847259
 30
0.0
 10
2251.155644
 20
1643.186259
 30
0.0
 10
2250.049644
 20
1641.524259
 30
0.0
  0
SPLINE
  5
136
100
AcDbEntity
  8
A0102_Printing_01
 62
1
100
AcDbSpline
 70
8
 71
3
 72
8
 73
4
 74
0
 40
0
 40
0
 40
0
 40
0
 40
1
 40
1
 40
1
 40
1
 10
2250.049644
 20
1641.524259
 30
0.0
 10
2247.205644
 20
1642.948259
 30
0.0
 10
2244.023644
 20
1642.948259
 30
0.0
 10
2241.180644
 20
1641.524259
 30
0.0
  0
SPLINE
  5
137
100
AcDbEntity
  8
A0102_Printing_01
 62
1
100
AcDbSpline
 70
8
 71
3
 72
8
 73
4
 74
0
 40
0
 40
0
 40
0
 40
0
 40
1
 40
1
 40
1
 40
1
 10
2241.180644
 20
1641.524259
 30
0.0
 10
2240.073644
 20
1643.186259
 30
0.0
 10
2238.963644
 20
1644.847259
 30
0.0
 10
2238.324644
 20
1646.705259
 30
0.0
  0
SPLINE
  5
138
100
AcDbEntity
  8
A0102_Printing_01
 62
1
100
AcDbSpline
 70
8
 71
3
 72
8
 73
4
 74
0
 40
0
 40
0
 40
0
 40
0
 40
1
 40
1
 40
1
 40
1
 10
2238.324644
 20
1646.705259
 30
0.0
 10
2237.439644
 20
1649.276259
 30
0.0
 10
2237.455644
 20
1652.220259
 30
0.0
 10
2238.581644
 20
1654.819259
 30
0.0
  0
LWPOLYLINE
  5
139
100
AcDbEntity
  8
A0102_Printing_01
 62
1
100
AcDbPolyline
 90
1
 70
1
 10
2217.437645
 20
1637.574259
 30
0.0
  0
SPLINE
  5
13a
100
AcDbEntity
  8
A0102_Printing_01
 62
1
100
AcDbSpline
 70
8
 71
3
 72
8
 73
4
 74
0
 40
0
 40
0
 40
0
 40
0
 40
1
 40
1
 40
1
 40
1
 10
2207.802645
 20
1662.110258
 30
0.0
 10
2202.725645
 20
1659.271259
 30
0.0
 10
2198.037645
 20
1655.825259
 30
0.0
 10
2193.829645
 20
1651.871259
 30
0.0
  0
SPLINE
  5
13b
100
AcDbEntity
  8
A0102_Printing_01
 62
1
100
AcDbSpline
 70
8
 71
3
 72
8
 73
4
 74
0
 40
0
 40
0
 40
0
 40
0
 40
1
 40
1
 40
1
 40
1
 10
2193.829645
 20
1651.871259
 30
0.0
 10
2193.392645
 20
1651.841259
 30
0.0
 10
2192.946645
 20
1651.821259
 30
0.0
 10
2192.489645
 20
1651.812259
 30
0.0
  0
SPLINE
  5
13c
100
AcDbEntity
  8
A0102_Printing_01
 62
1
100
AcDbSpline
 70
8
 71
3
 72
8
 73
4
 74
0
 40
0
 40
0
 40
0
 40
0
 40
1
 40
1
 40
1
 40
1
 10
2192.489645
 20
1651.812259
 30
0.0
 10
2181.443645
 20
1651.640259
 30
0.0
 10
2175.057646
 20
1663.894258
 30
0.0
 10
2179.803646
 20
1669.071258
 30
0.0
  0
SPLINE
  5
13d
100
AcDbEntity
  8
A0102_Printing_01
 62
1
100
AcDbSpline
 70
8
 71
3
 72
8
 73
4
 74
0
 40
0
 40
0
 40
0
 40
0
 40
1
 40
1
 40
1
 40
1
 10
2179.803646
 20
1669.071258
 30
0.0
 10
2182.479645
 20
1671.919258
 30
0.0
 10
2186.275645
 20
1672.178258
 30
0.0
 10
2190.590645
 20
1670.106258
 30
0.0
  0
SPLINE
  5
13e
100
AcDbEntity
  8
A0102_Printing_01
 62
1
100
AcDbSpline
 70
8
 71
3
 72
8
 73
4
 74
0
 40
0
 40
0
 40
0
 40
0
 40
1
 40
1
 40
1
 40
1
 10
2190.590645
 20
1670.106258
 30
0.0
 10
2194.905645
 20
1668.036258
 30
0.0
 10
2193.956645
 20
1663.721258
 30
0.0
 10
2189.037645
 20
1664.066258
 30
0.0
  0
SPLINE
  5
13f
100
AcDbEntity
  8
A0102_Printing_01
 62
1
100
AcDbSpline
 70
8
 71
3
 72
8
 73
4
 74
0
 40
0
 40
0
 40
0
 40
0
 40
1
 40
1
 40
1
 40
1
 10
2189.037645
 20
1664.066258
 30
0.0
 10
2184.118645
 20
1664.411258
 30
0.0
 10
2187.052645
 20
1657.421259
 30
0.0
 10
2191.108645
 20
1656.127259
 30
0.0
  0
SPLINE
  5
140
100
AcDbEntity
  8
A0102_Printing_01
 62
1
100
AcDbSpline
 70
8
 71
3
 72
8
 73
4
 74
0
 40
0
 40
0
 40
0
 40
0
 40
1
 40
1
 40
1
 40
1
 10
2191.108645
 20
1656.127259
 30
0.0
 10
2197.839645
 20
1654.056259
 30
0.0
 10
2200.773645
 20
1657.766259
 30
0.0
 10
2201.636645
 20
1661.564258
 30
0.0
  0
SPLINE
  5
141
100
AcDbEntity
  8
A0102_Printing_01
 62
1
100
AcDbSpline
 70
8
 71
3
 72
8
 73
4
 74
0
 40
0
 40
0
 40
0
 40
0
 40
1
 40
1
 40
1
 40
1
 10
2201.636645
 20
1661.564258
 30
0.0
 10
2205.174645
 20
1677.183258
 30
0.0
 10
2183.687645
 20
1684.431258
 30
0.0
 10
2175.402646
 20
1670.538258
 30
0.0
  0
SPLINE
  5
142
100
AcDbEntity
  8
A0102_Printing_01
 62
1
100
AcDbSpline
 70
8
 71
3
 72
8
 73
4
 74
0
 40
0
 40
0
 40
0
 40
0
 40
1
 40
1
 40
1
 40
1
 10
2175.402646
 20
1670.538258
 30
0.0
 10
2170.686646
 20
1662.653258
 30
0.0
 10
2177.238646
 20
1649.867259
 30
0.0
 10
2188.226645
 20
1645.976259
 30
0.0
  0
SPLINE
  5
143
100
AcDbEntity
  8
A0102_Printing_01
 62
1
100
AcDbSpline
 70
8
 71
3
 72
8
 73
4
 74
0
 40
0
 40
0
 40
0
 40
0
 40
1
 40
1
 40
1
 40
1
 10
2188.226645
 20
1645.976259
 30
0.0
 10
2180.684645
 20
1637.065259
 30
0.0
 10
2175.294646
 20
1626.275259
 30
0.0
 10
2172.883646
 20
1614.398260
 30
0.0
  0
LWPOLYLINE
  5
144
100
AcDbEntity
  8
A0102_Printing_01
 62
1
100
AcDbPolyline
 90
1
 70
1
 10
2238.581644
 20
1654.819259
 30
0.0
  0
SPLINE
  5
145
100
AcDbEntity
  8
A0102_Printing_01
 62
1
100
AcDbSpline
 70
8
 71
3
 72
8
 73
4
 74
0
 40
0
 40
0
 40
0
 40
0
 40
1
 40
1
 40
1
 40
1
 10
2138.236647
 20
1614.398260
 30
0.0
 10
2135.219647
 20
1618.718260
 30
0.0
 10
2130.848647
 20
1622.896259
 30
0.0
 10
2125.260647
 20
1626.892259
 30
0.0
  0
SPLINE
  5
146
100
AcDbEntity
  8
A0102_Printing_01
 62
1
100
AcDbSpline
 70
8
 71
3
 72
8
 73
4
 74
0
 40
0
 40
0
 40
0
 40
0
 40
1
 40
1
 40
1
 40
1
 10
2125.260647
 20
1626.892259
 30
0.0
 10
2129.012647
 20
1628.183259
 30
0.0
 10
2132.293647
 20
1629.811259
 30
0.0
 10
2135.361647
 20
1631.360259
 30
0.0
  0
SPLINE
  5
147
100
AcDbEntity
  8
A0102_Printing_01
 62
1
100
AcDbSpline
 70
8
 71
3
 72
8
 73
4
 74
0
 40
0
 40
0
 40
0
 40
0
 40
1
 40
1
 40
1
 40
1
 10
2135.361647
 20
1631.360259
 30
0.0
 10
2161.940646
 20
1644.822259
 30
0.0
 10
2159.610646
 20
1678.995258
 30
0.0
 10
2175.920646
 20
1685.381258
 30
0.0
  0
SPLINE
  5
148
100
AcDbEntity
  8
A0102_Printing_01
 62
1
100
AcDbSpline
 70
8
 71
3
 72
8
 73
4
 74
0
 40
0
 40
0
 40
0
 40
0
 40
1
 40
1
 40
1
 40
1
 10
2175.920646
 20
1685.381258
 30
0.0
 10
2198.059645
 20
1693.974258
 30
0.0
 10
2211.280645
 20
1674.880258
 30
0.0
 10
2207.802645
 20
1662.110258
 30
0.0
  0
LWPOLYLINE
  5
149
100
AcDbEntity
  8
A0102_Printing_01
 62
1
100
AcDbPolyline
 90
2
 70
0
 10
2172.883646
 20
1614.398260
 30
0.0
 10
2138.236647
 20
1614.398260
 30
0.0
  0
SPLINE
  5
14a
100
AcDbEntity
  8
A0102_Printing_01
 62
1
100
AcDbSpline
 70
8
 71
3
 72
8
 73
4
 74
0
 40
0
 40
0
 40
0
 40
0
 40
1
 40
1
 40
1
 40
1
 10
2032.376649
 20
1574.301261
 30
0.0
 10
1998.946650
 20
1574.091261
 30
0.0
 10
1966.250651
 20
1572.414261
 30
0.0
 10
1935.963652
 20
1572.310261
 30
0.0
  0
SPLINE
  5
14b
100
AcDbEntity
  8
A0102_Printing_01
 62
1
100
AcDbSpline
 70
8
 71
3
 72
8
 73
4
 74
0
 40
0
 40
0
 40
0
 40
0
 40
1
 40
1
 40
1
 40
1
 10
1935.963652
 20
1572.310261
 30
0.0
 10
1936.487652
 20
1573.463261
 30
0.0
 10
1938.059652
 20
1577.801261
 30
0.0
 10
1939.002652
 20
1578.011261
 30
0.0
  0
SPLINE
  5
14c
100
AcDbEntity
  8
A0102_Printing_01
 62
1
100
AcDbSpline
 70
8
 71
3
 72
8
 73
4
 74
0
 40
0
 40
0
 40
0
 40
0
 40
1
 40
1
 40
1
 40
1
 10
1939.002652
 20
1578.011261
 30
0.0
 10
1946.548651
 20
1579.792261
 30
0.0
 10
1952.207651
 20
1583.460260
 30
0.0
 10
1955.770651
 20
1588.910260
 30
0.0
  0
SPLINE
  5
14d
100
AcDbEntity
  8
A0102_Printing_01
 62
1
100
AcDbSpline
 70
8
 71
3
 72
8
 73
4
 74
0
 40
0
 40
0
 40
0
 40
0
 40
1
 40
1
 40
1
 40
1
 10
1955.770651
 20
1588.910260
 30
0.0
 10
1961.639651
 20
1581.469260
 30
0.0
 10
1974.424651
 20
1579.164261
 30
0.0
 10
1986.475650
 20
1579.373261
 30
0.0
  0
SPLINE
  5
14e
100
AcDbEntity
  8
A0102_Printing_01
 62
1
100
AcDbSpline
 70
8
 71
3
 72
8
 73
4
 74
0
 40
0
 40
0
 40
0
 40
0
 40
1
 40
1
 40
1
 40
1
 10
1986.475650
 20
1579.373261
 30
0.0
 10
2006.911650
 20
1579.582261
 30
0.0
 10
2028.080649
 20
1579.897261
 30
0.0
 10
2046.943649
 20
1583.670260
 30
0.0
  0
SPLINE
  5
14f
100
AcDbEntity
  8
A0102_Printing_01
 62
1
100
AcDbSpline
 70
8
 71
3
 72
8
 73
4
 74
0
 40
0
 40
0
 40
0
 40
0
 40
1
 40
1
 40
1
 40
1
 10
2046.943649
 20
1583.670260
 30
0.0
 10
2056.899649
 20
1585.661260
 30
0.0
 10
2066.435648
 20
1588.281260
 30
0.0
 10
2075.133648
 20
1588.910260
 30
0.0
  0
SPLINE
  5
150
100
AcDbEntity
  8
A0102_Printing_01
 62
1
100
AcDbSpline
 70
8
 71
3
 72
8
 73
4
 74
0
 40
0
 40
0
 40
0
 40
0
 40
1
 40
1
 40
1
 40
1
 10
2075.133648
 20
1588.910260
 30
0.0
 10
2080.583648
 20
1589.224260
 30
0.0
 10
2086.975648
 20
1589.433260
 30
0.0
 10
2090.434648
 20
1589.119260
 30
0.0
  0
SPLINE
  5
151
100
AcDbEntity
  8
A0102_Printing_01
 62
1
100
AcDbSpline
 70
8
 71
3
 72
8
 73
4
 74
0
 40
0
 40
0
 40
0
 40
0
 40
1
 40
1
 40
1
 40
1
 10
2090.434648
 20
1589.119260
 30
0.0
 10
2093.368648
 20
1588.805260
 30
0.0
 10
2096.617648
 20
1588.072260
 30
0.0
 10
2099.761648
 20
1587.547260
 30
0.0
  0
SPLINE
  5
152
100
AcDbEntity
  8
A0102_Printing_01
 62
1
100
AcDbSpline
 70
8
 71
3
 72
8
 73
4
 74
0
 40
0
 40
0
 40
0
 40
0
 40
1
 40
1
 40
1
 40
1
 10
2099.761648
 20
1587.547260
 30
0.0
 10
2109.087647
 20
1585.870260
 30
0.0
 10
2118.729647
 20
1578.912261
 30
0.0
 10
2127.427647
 20
1576.397261
 30
0.0
  0
SPLINE
  5
153
100
AcDbEntity
  8
A0102_Printing_01
 62
1
100
AcDbSpline
 70
8
 71
3
 72
8
 73
4
 74
0
 40
0
 40
0
 40
0
 40
0
 40
1
 40
1
 40
1
 40
1
 10
2127.427647
 20
1576.397261
 30
0.0
 10
2095.254648
 20
1575.559261
 30
0.0
 10
2061.824648
 20
1574.616261
 30
0.0
 10
2032.376649
 20
1574.301261
 30
0.0
  0
LWPOLYLINE
  5
154
100
AcDbEntity
  8
A0102_Printing_01
 62
1
100
AcDbPolyline
 90
1
 70
1
 10
2207.802645
 20
1662.110258
 30
0.0
  0
LWPOLYLINE
  5
155
100
AcDbEntity
  8
A0102_Printing_01
 62
1
100
AcDbPolyline
 90
1
 70
1
 10
2032.376649
 20
1574.301261
 30
0.0
  0
LWPOLYLINE
  5
156
100
AcDbEntity
  8
A0102_Printing_01
 62
1
100
AcDbPolyline
 90
4
 70
1
 10
2120.439647
 20
1342.272266
 30
0.0
 10
2063.746648
 20
1342.272266
 30
0.0
 10
2063.746648
 20
1356.445266
 30
0.0
 10
2120.439647
 20
1356.445266
 30
0.0
  0
LWPOLYLINE
  5
157
100
AcDbEntity
  8
A0102_Printing_01
 62
1
100
AcDbPolyline
 90
4
 70
1
 10
2120.439647
 20
1126.839272
 30
0.0
 10
2063.746648
 20
1126.839272
 30
0.0
 10
2063.746648
 20
1141.012271
 30
0.0
 10
2120.439647
 20
1141.012271
 30
0.0
  0
LWPOLYLINE
  5
158
100
AcDbEntity
  8
A0102_Printing_01
 62
1
100
AcDbPolyline
 90
4
 70
1
 10
2120.439647
 20
911.406277
 30
0.0
 10
2063.746648
 20
911.406277
 30
0.0
 10
2063.746648
 20
925.579277
 30
0.0
 10
2120.439647
 20
925.579277
 30
0.0
  0
LWPOLYLINE
  5
159
100
AcDbEntity
  8
A0102_Printing_01
 62
1
100
AcDbPolyline
 90
4
 70
1
 10
2120.439647
 20
695.973283
 30
0.0
 10
2063.746648
 20
695.973283
 30
0.0
 10
2063.746648
 20
710.146282
 30
0.0
 10
2120.439647
 20
710.146282
 30
0.0
  0
LWPOLYLINE
  5
15a
100
AcDbEntity
  8
A0102_Printing_01
 62
1
100
AcDbPolyline
 90
4
 70
1
 10
1956.030651
 20
997.863275
 30
0.0
 10
1941.857651
 20
997.863275
 30
0.0
 10
1941.857651
 20
1054.556274
 30
0.0
 10
1956.030651
 20
1054.556274
 30
0.0
  0
LWPOLYLINE
  5
15b
100
AcDbEntity
  8
A0102_Printing_01
 62
1
100
AcDbPolyline
 90
4
 70
1
 10
1927.683652
 20
1342.272266
 30
0.0
 10
1870.990653
 20
1342.272266
 30
0.0
 10
1870.990653
 20
1356.445266
 30
0.0
 10
1927.683652
 20
1356.445266
 30
0.0
  0
LWPOLYLINE
  5
15c
100
AcDbEntity
  8
A0102_Printing_01
 62
1
100
AcDbPolyline
 90
4
 70
1
 10
1927.683652
 20
1126.839272
 30
0.0
 10
1870.990653
 20
1126.839272
 30
0.0
 10
1870.990653
 20
1141.012271
 30
0.0
 10
1927.683652
 20
1141.012271
 30
0.0
  0
LWPOLYLINE
  5
15d
100
AcDbEntity
  8
A0102_Printing_01
 62
1
100
AcDbPolyline
 90
4
 70
1
 10
1927.683652
 20
911.406277
 30
0.0
 10
1870.990653
 20
911.406277
 30
0.0
 10
1870.990653
 20
925.579277
 30
0.0
 10
1927.683652
 20
925.579277
 30
0.0
  0
SPLINE
  5
15e
100
AcDbEntity
  8
A0102_Printing_01
 62
1
100
AcDbSpline
 70
8
 71
3
 72
8
 73
4
 74
0
 40
0
 40
0
 40
0
 40
0
 40
1
 40
1
 40
1
 40
1
 10
1766.297656
 20
1574.301261
 30
0.0
 10
1736.850657
 20
1574.616261
 30
0.0
 10
1703.420657
 20
1575.559261
 30
0.0
 10
1671.247658
 20
1576.397261
 30
0.0
  0
SPLINE
  5
15f
100
AcDbEntity
  8
A0102_Printing_01
 62
1
100
AcDbSpline
 70
8
 71
3
 72
8
 73
4
 74
0
 40
0
 40
0
 40
0
 40
0
 40
1
 40
1
 40
1
 40
1
 10
1671.247658
 20
1576.397261
 30
0.0
 10
1680.050658
 20
1578.912261
 30
0.0
 10
1689.586658
 20
1585.870260
 30
0.0
 10
1699.018658
 20
1587.547260
 30
0.0
  0
SPLINE
  5
160
100
AcDbEntity
  8
A0102_Printing_01
 62
1
100
AcDbSpline
 70
8
 71
3
 72
8
 73
4
 74
0
 40
0
 40
0
 40
0
 40
0
 40
1
 40
1
 40
1
 40
1
 10
1699.018658
 20
1587.547260
 30
0.0
 10
1702.057657
 20
1588.072260
 30
0.0
 10
1705.306657
 20
1588.805260
 30
0.0
 10
1708.345657
 20
1589.119260
 30
0.0
  0
SPLINE
  5
161
100
AcDbEntity
  8
A0102_Printing_01
 62
1
100
AcDbSpline
 70
8
 71
3
 72
8
 73
4
 74
0
 40
0
 40
0
 40
0
 40
0
 40
1
 40
1
 40
1
 40
1
 10
1708.345657
 20
1589.119260
 30
0.0
 10
1711.698657
 20
1589.433260
 30
0.0
 10
1718.091657
 20
1589.224260
 30
0.0
 10
1723.541657
 20
1588.910260
 30
0.0
  0
SPLINE
  5
162
100
AcDbEntity
  8
A0102_Printing_01
 62
1
100
AcDbSpline
 70
8
 71
3
 72
8
 73
4
 74
0
 40
0
 40
0
 40
0
 40
0
 40
1
 40
1
 40
1
 40
1
 10
1723.541657
 20
1588.910260
 30
0.0
 10
1732.343657
 20
1588.281260
 30
0.0
 10
1741.880656
 20
1585.661260
 30
0.0
 10
1751.731656
 20
1583.670260
 30
0.0
  0
SPLINE
  5
163
100
AcDbEntity
  8
A0102_Printing_01
 62
1
100
AcDbSpline
 70
8
 71
3
 72
8
 73
4
 74
0
 40
0
 40
0
 40
0
 40
0
 40
1
 40
1
 40
1
 40
1
 10
1751.731656
 20
1583.670260
 30
0.0
 10
1770.699656
 20
1579.897261
 30
0.0
 10
1791.763655
 20
1579.582261
 30
0.0
 10
1812.198655
 20
1579.373261
 30
0.0
  0
SPLINE
  5
164
100
AcDbEntity
  8
A0102_Printing_01
 62
1
100
AcDbSpline
 70
8
 71
3
 72
8
 73
4
 74
0
 40
0
 40
0
 40
0
 40
0
 40
1
 40
1
 40
1
 40
1
 10
1812.198655
 20
1579.373261
 30
0.0
 10
1824.355654
 20
1579.164261
 30
0.0
 10
1837.035654
 20
1581.469260
 30
0.0
 10
1842.904654
 20
1588.910260
 30
0.0
  0
SPLINE
  5
165
100
AcDbEntity
  8
A0102_Printing_01
 62
1
100
AcDbSpline
 70
8
 71
3
 72
8
 73
4
 74
0
 40
0
 40
0
 40
0
 40
0
 40
1
 40
1
 40
1
 40
1
 10
1842.904654
 20
1588.910260
 30
0.0
 10
1846.572654
 20
1583.460260
 30
0.0
 10
1852.231654
 20
1579.792261
 30
0.0
 10
1859.776654
 20
1578.011261
 30
0.0
  0
SPLINE
  5
166
100
AcDbEntity
  8
A0102_Printing_01
 62
1
100
AcDbSpline
 70
8
 71
3
 72
8
 73
4
 74
0
 40
0
 40
0
 40
0
 40
0
 40
1
 40
1
 40
1
 40
1
 10
1859.776654
 20
1578.011261
 30
0.0
 10
1860.615653
 20
1577.801261
 30
0.0
 10
1862.187653
 20
1573.463261
 30
0.0
 10
1862.710653
 20
1572.310261
 30
0.0
  0
SPLINE
  5
167
100
AcDbEntity
  8
A0102_Printing_01
 62
1
100
AcDbSpline
 70
8
 71
3
 72
8
 73
4
 74
0
 40
0
 40
0
 40
0
 40
0
 40
1
 40
1
 40
1
 40
1
 10
1862.710653
 20
1572.310261
 30
0.0
 10
1832.529654
 20
1572.414261
 30
0.0
 10
1799.728655
 20
1574.091261
 30
0.0
 10
1766.297656
 20
1574.301261
 30
0.0
  0
LWPOLYLINE
  5
168
100
AcDbEntity
  8
A0102_Printing_01
 62
1
100
AcDbPolyline
 90
4
 70
1
 10
1927.683652
 20
695.973283
 30
0.0
 10
1870.990653
 20
695.973283
 30
0.0
 10
1870.990653
 20
710.146282
 30
0.0
 10
1927.683652
 20
710.146282
 30
0.0
  0
LWPOLYLINE
  5
169
100
AcDbEntity
  8
A0102_Printing_01
 62
1
100
AcDbPolyline
 90
1
 70
1
 10
1766.297656
 20
1574.301261
 30
0.0
  0
LWPOLYLINE
  5
16a
100
AcDbEntity
  8
A0102_Printing_01
 62
1
100
AcDbPolyline
 90
4
 70
1
 10
1734.927657
 20
1342.272266
 30
0.0
 10
1678.234658
 20
1342.272266
 30
0.0
 10
1678.234658
 20
1356.445266
 30
0.0
 10
1734.927657
 20
1356.445266
 30
0.0
  0
LWPOLYLINE
  5
16b
100
AcDbEntity
  8
A0102_Printing_01
 62
1
100
AcDbPolyline
 90
4
 70
1
 10
1734.927657
 20
1126.839272
 30
0.0
 10
1678.234658
 20
1126.839272
 30
0.0
 10
1678.234658
 20
1141.012271
 30
0.0
 10
1734.927657
 20
1141.012271
 30
0.0
  0
LWPOLYLINE
  5
16c
100
AcDbEntity
  8
A0102_Printing_01
 62
1
100
AcDbPolyline
 90
4
 70
1
 10
1734.927657
 20
911.406277
 30
0.0
 10
1678.234658
 20
911.406277
 30
0.0
 10
1678.234658
 20
925.579277
 30
0.0
 10
1734.927657
 20
925.579277
 30
0.0
  0
LWPOLYLINE
  5
16d
100
AcDbEntity
  8
A0102_Printing_01
 62
1
100
AcDbPolyline
 90
4
 70
1
 10
1734.927657
 20
695.973283
 30
0.0
 10
1678.234658
 20
695.973283
 30
0.0
 10
1678.234658
 20
710.146282
 30
0.0
 10
1734.927657
 20
710.146282
 30
0.0
  0
SPLINE
  5
16e
100
AcDbEntity
  8
A0102_Printing_01
 62
1
100
AcDbSpline
 70
8
 71
3
 72
8
 73
4
 74
0
 40
0
 40
0
 40
0
 40
0
 40
1
 40
1
 40
1
 40
1
 10
1625.791659
 20
1614.398260
 30
0.0
 10
1623.366659
 20
1626.340259
 30
0.0
 10
1617.932660
 20
1637.186259
 30
0.0
 10
1610.324660
 20
1646.125259
 30
0.0
  0
SPLINE
  5
16f
100
AcDbEntity
  8
A0102_Printing_01
 62
1
100
AcDbSpline
 70
8
 71
3
 72
8
 73
4
 74
0
 40
0
 40
0
 40
0
 40
0
 40
1
 40
1
 40
1
 40
1
 10
1610.324660
 20
1646.125259
 30
0.0
 10
1621.055659
 20
1650.191259
 30
0.0
 10
1627.374659
 20
1662.755258
 30
0.0
 10
1622.719659
 20
1670.538258
 30
0.0
  0
SPLINE
  5
170
100
AcDbEntity
  8
A0102_Printing_01
 62
1
100
AcDbSpline
 70
8
 71
3
 72
8
 73
4
 74
0
 40
0
 40
0
 40
0
 40
0
 40
1
 40
1
 40
1
 40
1
 10
1622.719659
 20
1670.538258
 30
0.0
 10
1614.435660
 20
1684.431258
 30
0.0
 10
1592.948660
 20
1677.183258
 30
0.0
 10
1596.486660
 20
1661.564258
 30
0.0
  0
SPLINE
  5
171
100
AcDbEntity
  8
A0102_Printing_01
 62
1
100
AcDbSpline
 70
8
 71
3
 72
8
 73
4
 74
0
 40
0
 40
0
 40
0
 40
0
 40
1
 40
1
 40
1
 40
1
 10
1596.486660
 20
1661.564258
 30
0.0
 10
1597.349660
 20
1657.766259
 30
0.0
 10
1600.283660
 20
1654.056259
 30
0.0
 10
1607.014660
 20
1656.127259
 30
0.0
  0
SPLINE
  5
172
100
AcDbEntity
  8
A0102_Printing_01
 62
1
100
AcDbSpline
 70
8
 71
3
 72
8
 73
4
 74
0
 40
0
 40
0
 40
0
 40
0
 40
1
 40
1
 40
1
 40
1
 10
1607.014660
 20
1656.127259
 30
0.0
 10
1611.069660
 20
1657.421259
 30
0.0
 10
1614.004660
 20
1664.411258
 30
0.0
 10
1609.085660
 20
1664.066258
 30
0.0
  0
SPLINE
  5
173
100
AcDbEntity
  8
A0102_Printing_01
 62
1
100
AcDbSpline
 70
8
 71
3
 72
8
 73
4
 74
0
 40
0
 40
0
 40
0
 40
0
 40
1
 40
1
 40
1
 40
1
 10
1609.085660
 20
1664.066258
 30
0.0
 10
1604.166660
 20
1663.721258
 30
0.0
 10
1603.217660
 20
1668.036258
 30
0.0
 10
1607.531660
 20
1670.106258
 30
0.0
  0
SPLINE
  5
174
100
AcDbEntity
  8
A0102_Printing_01
 62
1
100
AcDbSpline
 70
8
 71
3
 72
8
 73
4
 74
0
 40
0
 40
0
 40
0
 40
0
 40
1
 40
1
 40
1
 40
1
 10
1607.531660
 20
1670.106258
 30
0.0
 10
1611.846660
 20
1672.178258
 30
0.0
 10
1615.643660
 20
1671.919258
 30
0.0
 10
1618.318660
 20
1669.071258
 30
0.0
  0
SPLINE
  5
175
100
AcDbEntity
  8
A0102_Printing_01
 62
1
100
AcDbSpline
 70
8
 71
3
 72
8
 73
4
 74
0
 40
0
 40
0
 40
0
 40
0
 40
1
 40
1
 40
1
 40
1
 10
1618.318660
 20
1669.071258
 30
0.0
 10
1623.064659
 20
1663.894258
 30
0.0
 10
1616.679660
 20
1651.640259
 30
0.0
 10
1605.633660
 20
1651.812259
 30
0.0
  0
SPLINE
  5
176
100
AcDbEntity
  8
A0102_Printing_01
 62
1
100
AcDbSpline
 70
8
 71
3
 72
8
 73
4
 74
0
 40
0
 40
0
 40
0
 40
0
 40
1
 40
1
 40
1
 40
1
 10
1605.633660
 20
1651.812259
 30
0.0
 10
1605.374660
 20
1651.817259
 30
0.0
 10
1605.125660
 20
1651.833259
 30
0.0
 10
1604.873660
 20
1651.845259
 30
0.0
  0
SPLINE
  5
177
100
AcDbEntity
  8
A0102_Printing_01
 62
1
100
AcDbSpline
 70
8
 71
3
 72
8
 73
4
 74
0
 40
0
 40
0
 40
0
 40
0
 40
1
 40
1
 40
1
 40
1
 10
1604.873660
 20
1651.845259
 30
0.0
 10
1600.480660
 20
1655.977259
 30
0.0
 10
1595.562660
 20
1659.552259
 30
0.0
 10
1590.226660
 20
1662.463258
 30
0.0
  0
SPLINE
  5
178
100
AcDbEntity
  8
A0102_Printing_01
 62
1
100
AcDbSpline
 70
8
 71
3
 72
8
 73
4
 74
0
 40
0
 40
0
 40
0
 40
0
 40
1
 40
1
 40
1
 40
1
 10
1590.226660
 20
1662.463258
 30
0.0
 10
1587.085660
 20
1675.229258
 30
0.0
 10
1600.267660
 20
1693.895258
 30
0.0
 10
1622.202659
 20
1685.381258
 30
0.0
  0
SPLINE
  5
179
100
AcDbEntity
  8
A0102_Printing_01
 62
1
100
AcDbSpline
 70
8
 71
3
 72
8
 73
4
 74
0
 40
0
 40
0
 40
0
 40
0
 40
1
 40
1
 40
1
 40
1
 10
1622.202659
 20
1685.381258
 30
0.0
 10
1638.511659
 20
1678.995258
 30
0.0
 10
1636.181659
 20
1644.822259
 30
0.0
 10
1662.760658
 20
1631.360259
 30
0.0
  0
SPLINE
  5
17a
100
AcDbEntity
  8
A0102_Printing_01
 62
1
100
AcDbSpline
 70
8
 71
3
 72
8
 73
4
 74
0
 40
0
 40
0
 40
0
 40
0
 40
1
 40
1
 40
1
 40
1
 10
1662.760658
 20
1631.360259
 30
0.0
 10
1665.931658
 20
1629.758259
 30
0.0
 10
1669.328658
 20
1628.072259
 30
0.0
 10
1673.241658
 20
1626.761259
 30
0.0
  0
SPLINE
  5
17b
100
AcDbEntity
  8
A0102_Printing_01
 62
1
100
AcDbSpline
 70
8
 71
3
 72
8
 73
4
 74
0
 40
0
 40
0
 40
0
 40
0
 40
1
 40
1
 40
1
 40
1
 10
1673.241658
 20
1626.761259
 30
0.0
 10
1667.740658
 20
1622.804259
 30
0.0
 10
1663.423658
 20
1618.672260
 30
0.0
 10
1660.438658
 20
1614.398260
 30
0.0
  0
LWPOLYLINE
  5
17c
100
AcDbEntity
  8
A0102_Printing_01
 62
1
100
AcDbPolyline
 90
2
 70
0
 10
1660.438658
 20
1614.398260
 30
0.0
 10
1625.791659
 20
1614.398260
 30
0.0
  0
SPLINE
  5
17d
100
AcDbEntity
  8
A0102_Printing_01
 62
1
100
AcDbSpline
 70
8
 71
3
 72
8
 73
4
 74
0
 40
0
 40
0
 40
0
 40
0
 40
1
 40
1
 40
1
 40
1
 10
1723.751657
 20
1606.174260
 30
0.0
 10
1724.275657
 20
1613.615260
 30
0.0
 10
1731.925657
 20
1617.911260
 30
0.0
 10
1737.898657
 20
1618.645260
 30
0.0
  0
SPLINE
  5
17e
100
AcDbEntity
  8
A0102_Printing_01
 62
1
100
AcDbSpline
 70
8
 71
3
 72
8
 73
4
 74
0
 40
0
 40
0
 40
0
 40
0
 40
1
 40
1
 40
1
 40
1
 10
1737.898657
 20
1618.645260
 30
0.0
 10
1744.186656
 20
1619.483260
 30
0.0
 10
1751.522656
 20
1616.339260
 30
0.0
 10
1756.552656
 20
1613.615260
 30
0.0
  0
SPLINE
  5
17f
100
AcDbEntity
  8
A0102_Printing_01
 62
1
100
AcDbSpline
 70
8
 71
3
 72
8
 73
4
 74
0
 40
0
 40
0
 40
0
 40
0
 40
1
 40
1
 40
1
 40
1
 10
1756.552656
 20
1613.615260
 30
0.0
 10
1772.062656
 20
1605.125260
 30
0.0
 10
1786.315655
 20
1593.912260
 30
0.0
 10
1806.750655
 20
1590.874260
 30
0.0
  0
SPLINE
  5
180
100
AcDbEntity
  8
A0102_Printing_01
 62
1
100
AcDbSpline
 70
8
 71
3
 72
8
 73
4
 74
0
 40
0
 40
0
 40
0
 40
0
 40
1
 40
1
 40
1
 40
1
 10
1806.750655
 20
1590.874260
 30
0.0
 10
1808.532655
 20
1590.664260
 30
0.0
 10
1810.627655
 20
1590.769260
 30
0.0
 10
1812.619655
 20
1590.664260
 30
0.0
  0
SPLINE
  5
181
100
AcDbEntity
  8
A0102_Printing_01
 62
1
100
AcDbSpline
 70
8
 71
3
 72
8
 73
4
 74
0
 40
0
 40
0
 40
0
 40
0
 40
1
 40
1
 40
1
 40
1
 10
1812.619655
 20
1590.664260
 30
0.0
 10
1810.942655
 20
1588.359260
 30
0.0
 10
1807.169655
 20
1589.511260
 30
0.0
 10
1804.235655
 20
1589.825260
 30
0.0
  0
SPLINE
  5
182
100
AcDbEntity
  8
A0102_Printing_01
 62
1
100
AcDbSpline
 70
8
 71
3
 72
8
 73
4
 74
0
 40
0
 40
0
 40
0
 40
0
 40
1
 40
1
 40
1
 40
1
 10
1804.235655
 20
1589.825260
 30
0.0
 10
1800.986655
 20
1590.035260
 30
0.0
 10
1797.318655
 20
1590.769260
 30
0.0
 10
1794.279655
 20
1591.397260
 30
0.0
  0
SPLINE
  5
183
100
AcDbEntity
  8
A0102_Printing_01
 62
1
100
AcDbSpline
 70
8
 71
3
 72
8
 73
4
 74
0
 40
0
 40
0
 40
0
 40
0
 40
1
 40
1
 40
1
 40
1
 10
1794.279655
 20
1591.397260
 30
0.0
 10
1781.494655
 20
1594.122260
 30
0.0
 10
1770.909656
 20
1599.362260
 30
0.0
 10
1760.639656
 20
1604.078260
 30
0.0
  0
SPLINE
  5
184
100
AcDbEntity
  8
A0102_Printing_01
 62
1
100
AcDbSpline
 70
8
 71
3
 72
8
 73
4
 74
0
 40
0
 40
0
 40
0
 40
0
 40
1
 40
1
 40
1
 40
1
 10
1760.639656
 20
1604.078260
 30
0.0
 10
1755.190656
 20
1606.593260
 30
0.0
 10
1749.007656
 20
1609.423260
 30
0.0
 10
1742.824656
 20
1609.527260
 30
0.0
  0
SPLINE
  5
185
100
AcDbEntity
  8
A0102_Printing_01
 62
1
100
AcDbSpline
 70
8
 71
3
 72
8
 73
4
 74
0
 40
0
 40
0
 40
0
 40
0
 40
1
 40
1
 40
1
 40
1
 10
1742.824656
 20
1609.527260
 30
0.0
 10
1737.898657
 20
1609.737260
 30
0.0
 10
1732.344657
 20
1607.641260
 30
0.0
 10
1733.497657
 20
1601.877260
 30
0.0
  0
SPLINE
  5
186
100
AcDbEntity
  8
A0102_Printing_01
 62
1
100
AcDbSpline
 70
8
 71
3
 72
8
 73
4
 74
0
 40
0
 40
0
 40
0
 40
0
 40
1
 40
1
 40
1
 40
1
 10
1733.497657
 20
1601.877260
 30
0.0
 10
1734.126657
 20
1598.943260
 30
0.0
 10
1737.375657
 20
1597.790260
 30
0.0
 10
1740.833656
 20
1598.000260
 30
0.0
  0
SPLINE
  5
187
100
AcDbEntity
  8
A0102_Printing_01
 62
1
100
AcDbSpline
 70
8
 71
3
 72
8
 73
4
 74
0
 40
0
 40
0
 40
0
 40
0
 40
1
 40
1
 40
1
 40
1
 10
1740.833656
 20
1598.000260
 30
0.0
 10
1734.964657
 20
1590.454260
 30
0.0
 10
1723.122657
 20
1595.694260
 30
0.0
 10
1723.751657
 20
1606.174260
 30
0.0
  0
LWPOLYLINE
  5
188
100
AcDbEntity
  8
A0102_Printing_01
 62
1
100
AcDbPolyline
 90
1
 70
1
 10
1660.438658
 20
1614.398260
 30
0.0
  0
SPLINE
  5
189
100
AcDbEntity
  8
A0102_Printing_01
 62
1
100
AcDbSpline
 70
8
 71
3
 72
8
 73
4
 74
0
 40
0
 40
0
 40
0
 40
0
 40
1
 40
1
 40
1
 40
1
 10
1706.577657
 20
1677.777258
 30
0.0
 10
1716.252657
 20
1685.189258
 30
0.0
 10
1733.896657
 20
1677.552258
 30
0.0
 10
1746.369656
 20
1655.401259
 30
0.0
  0
SPLINE
  5
18a
100
AcDbEntity
  8
A0102_Printing_01
 62
1
100
AcDbSpline
 70
8
 71
3
 72
8
 73
4
 74
0
 40
0
 40
0
 40
0
 40
0
 40
1
 40
1
 40
1
 40
1
 10
1746.369656
 20
1655.401259
 30
0.0
 10
1745.222656
 20
1655.131259
 30
0.0
 10
1744.082656
 20
1654.860259
 30
0.0
 10
1742.952656
 20
1654.585259
 30
0.0
  0
SPLINE
  5
18b
100
AcDbEntity
  8
A0102_Printing_01
 62
1
100
AcDbSpline
 70
8
 71
3
 72
8
 73
4
 74
0
 40
0
 40
0
 40
0
 40
0
 40
1
 40
1
 40
1
 40
1
 10
1742.952656
 20
1654.585259
 30
0.0
 10
1734.725657
 20
1670.456258
 30
0.0
 10
1722.648657
 20
1683.295258
 30
0.0
 10
1706.577657
 20
1677.777258
 30
0.0
  0
LWPOLYLINE
  5
18c
100
AcDbEntity
  8
A0102_Printing_01
 62
1
100
AcDbPolyline
 90
1
 70
1
 10
1723.751657
 20
1606.174260
 30
0.0
  0
SPLINE
  5
18d
100
AcDbEntity
  8
A0102_Printing_01
 62
1
100
AcDbSpline
 70
8
 71
3
 72
8
 73
4
 74
0
 40
0
 40
0
 40
0
 40
0
 40
1
 40
1
 40
1
 40
1
 10
1754.014656
 20
1674.782258
 30
0.0
 10
1750.781656
 20
1669.820258
 30
0.0
 10
1749.397656
 20
1663.347258
 30
0.0
 10
1750.414656
 20
1659.472259
 30
0.0
  0
SPLINE
  5
18e
100
AcDbEntity
  8
A0102_Printing_01
 62
1
100
AcDbSpline
 70
8
 71
3
 72
8
 73
4
 74
0
 40
0
 40
0
 40
0
 40
0
 40
1
 40
1
 40
1
 40
1
 10
1750.414656
 20
1659.472259
 30
0.0
 10
1751.574656
 20
1664.525258
 30
0.0
 10
1753.638656
 20
1670.380258
 30
0.0
 10
1759.768656
 20
1673.682258
 30
0.0
  0
SPLINE
  5
18f
100
AcDbEntity
  8
A0102_Printing_01
 62
1
100
AcDbSpline
 70
8
 71
3
 72
8
 73
4
 74
0
 40
0
 40
0
 40
0
 40
0
 40
1
 40
1
 40
1
 40
1
 10
1759.768656
 20
1673.682258
 30
0.0
 10
1757.485656
 20
1670.442258
 30
0.0
 10
1753.508656
 20
1665.791258
 30
0.0
 10
1752.018656
 20
1656.691259
 30
0.0
  0
SPLINE
  5
190
100
AcDbEntity
  8
A0102_Printing_01
 62
1
100
AcDbSpline
 70
8
 71
3
 72
8
 73
4
 74
0
 40
0
 40
0
 40
0
 40
0
 40
1
 40
1
 40
1
 40
1
 10
1752.018656
 20
1656.691259
 30
0.0
 10
1750.782656
 20
1656.418259
 30
0.0
 10
1749.555656
 20
1656.141259
 30
0.0
 10
1748.337656
 20
1655.861259
 30
0.0
  0
SPLINE
  5
191
100
AcDbEntity
  8
A0102_Printing_01
 62
1
100
AcDbSpline
 70
8
 71
3
 72
8
 73
4
 74
0
 40
0
 40
0
 40
0
 40
0
 40
1
 40
1
 40
1
 40
1
 10
1748.337656
 20
1655.861259
 30
0.0
 10
1747.341656
 20
1660.209258
 30
0.0
 10
1746.044656
 20
1664.192258
 30
0.0
 10
1744.492656
 20
1667.790258
 30
0.0
  0
SPLINE
  5
192
100
AcDbEntity
  8
A0102_Printing_01
 62
1
100
AcDbSpline
 70
8
 71
3
 72
8
 73
4
 74
0
 40
0
 40
0
 40
0
 40
0
 40
1
 40
1
 40
1
 40
1
 10
1744.492656
 20
1667.790258
 30
0.0
 10
1745.317656
 20
1678.679258
 30
0.0
 10
1746.012656
 20
1691.445258
 30
0.0
 10
1738.634657
 20
1694.045258
 30
0.0
  0
SPLINE
  5
193
100
AcDbEntity
  8
A0102_Printing_01
 62
1
100
AcDbSpline
 70
8
 71
3
 72
8
 73
4
 74
0
 40
0
 40
0
 40
0
 40
0
 40
1
 40
1
 40
1
 40
1
 10
1738.634657
 20
1694.045258
 30
0.0
 10
1743.847656
 20
1693.856258
 30
0.0
 10
1752.813656
 20
1687.305258
 30
0.0
 10
1754.014656
 20
1674.782258
 30
0.0
  0
LWPOLYLINE
  5
194
100
AcDbEntity
  8
A0102_Printing_01
 62
1
100
AcDbPolyline
 90
1
 70
1
 10
1706.577657
 20
1677.777258
 30
0.0
  0
SPLINE
  5
195
100
AcDbEntity
  8
A0102_Printing_01
 62
1
100
AcDbSpline
 70
8
 71
3
 72
8
 73
4
 74
0
 40
0
 40
0
 40
0
 40
0
 40
1
 40
1
 40
1
 40
1
 10
1766.215656
 20
1631.471259
 30
0.0
 10
1773.131656
 20
1640.378259
 30
0.0
 10
1787.174655
 20
1634.824259
 30
0.0
 10
1793.462655
 20
1629.165259
 30
0.0
  0
SPLINE
  5
196
100
AcDbEntity
  8
A0102_Printing_01
 62
1
100
AcDbSpline
 70
8
 71
3
 72
8
 73
4
 74
0
 40
0
 40
0
 40
0
 40
0
 40
1
 40
1
 40
1
 40
1
 10
1793.462655
 20
1629.165259
 30
0.0
 10
1801.741655
 20
1621.830259
 30
0.0
 10
1806.981655
 20
1610.930260
 30
0.0
 10
1814.841655
 20
1603.490260
 30
0.0
  0
SPLINE
  5
197
100
AcDbEntity
  8
A0102_Printing_01
 62
1
100
AcDbSpline
 70
8
 71
3
 72
8
 73
4
 74
0
 40
0
 40
0
 40
0
 40
0
 40
1
 40
1
 40
1
 40
1
 10
1814.841655
 20
1603.490260
 30
0.0
 10
1818.928655
 20
1599.613260
 30
0.0
 10
1823.853654
 20
1597.097260
 30
0.0
 10
1829.198654
 20
1594.897260
 30
0.0
  0
SPLINE
  5
198
100
AcDbEntity
  8
A0102_Printing_01
 62
1
100
AcDbSpline
 70
8
 71
3
 72
8
 73
4
 74
0
 40
0
 40
0
 40
0
 40
0
 40
1
 40
1
 40
1
 40
1
 10
1829.198654
 20
1594.897260
 30
0.0
 10
1827.521654
 20
1593.116260
 30
0.0
 10
1824.063654
 20
1595.106260
 30
0.0
 10
1822.176654
 20
1595.944260
 30
0.0
  0
SPLINE
  5
199
100
AcDbEntity
  8
A0102_Printing_01
 62
1
100
AcDbSpline
 70
8
 71
3
 72
8
 73
4
 74
0
 40
0
 40
0
 40
0
 40
0
 40
1
 40
1
 40
1
 40
1
 10
1822.176654
 20
1595.944260
 30
0.0
 10
1810.858655
 20
1600.870260
 30
0.0
 10
1803.418655
 20
1610.617260
 30
0.0
 10
1794.824655
 20
1618.685260
 30
0.0
  0
SPLINE
  5
19a
100
AcDbEntity
  8
A0102_Printing_01
 62
1
100
AcDbSpline
 70
8
 71
3
 72
8
 73
4
 74
0
 40
0
 40
0
 40
0
 40
0
 40
1
 40
1
 40
1
 40
1
 10
1794.824655
 20
1618.685260
 30
0.0
 10
1791.471655
 20
1621.830259
 30
0.0
 10
1787.908655
 20
1625.917259
 30
0.0
 10
1783.716655
 20
1627.383259
 30
0.0
  0
SPLINE
  5
19b
100
AcDbEntity
  8
A0102_Printing_01
 62
1
100
AcDbSpline
 70
8
 71
3
 72
8
 73
4
 74
0
 40
0
 40
0
 40
0
 40
0
 40
1
 40
1
 40
1
 40
1
 10
1783.716655
 20
1627.383259
 30
0.0
 10
1778.686656
 20
1629.165259
 30
0.0
 10
1771.140656
 20
1627.279259
 30
0.0
 10
1771.664656
 20
1621.410259
 30
0.0
  0
SPLINE
  5
19c
100
AcDbEntity
  8
A0102_Printing_01
 62
1
100
AcDbSpline
 70
8
 71
3
 72
8
 73
4
 74
0
 40
0
 40
0
 40
0
 40
0
 40
1
 40
1
 40
1
 40
1
 10
1771.664656
 20
1621.410259
 30
0.0
 10
1771.874656
 20
1618.580260
 30
0.0
 10
1774.389656
 20
1617.637260
 30
0.0
 10
1777.114656
 20
1616.695260
 30
0.0
  0
SPLINE
  5
19d
100
AcDbEntity
  8
A0102_Printing_01
 62
1
100
AcDbSpline
 70
8
 71
3
 72
8
 73
4
 74
0
 40
0
 40
0
 40
0
 40
0
 40
1
 40
1
 40
1
 40
1
 10
1777.114656
 20
1616.695260
 30
0.0
 10
1776.485656
 20
1614.913260
 30
0.0
 10
1773.551656
 20
1614.703260
 30
0.0
 10
1771.664656
 20
1614.808260
 30
0.0
  0
SPLINE
  5
19e
100
AcDbEntity
  8
A0102_Printing_01
 62
1
100
AcDbSpline
 70
8
 71
3
 72
8
 73
4
 74
0
 40
0
 40
0
 40
0
 40
0
 40
1
 40
1
 40
1
 40
1
 10
1771.664656
 20
1614.808260
 30
0.0
 10
1764.119656
 20
1615.437260
 30
0.0
 10
1761.813656
 20
1625.707259
 30
0.0
 10
1766.215656
 20
1631.471259
 30
0.0
  0
LWPOLYLINE
  5
19f
100
AcDbEntity
  8
A0102_Printing_01
 62
1
100
AcDbPolyline
 90
1
 70
1
 10
1754.014656
 20
1674.782258
 30
0.0
  0
SPLINE
  5
1a0
100
AcDbEntity
  8
A0102_Printing_01
 62
1
100
AcDbSpline
 70
8
 71
3
 72
8
 73
4
 74
0
 40
0
 40
0
 40
0
 40
0
 40
1
 40
1
 40
1
 40
1
 10
1815.383655
 20
1637.922259
 30
0.0
 10
1821.566654
 20
1640.646259
 30
0.0
 10
1828.273654
 20
1636.873259
 30
0.0
 10
1830.893654
 20
1632.996259
 30
0.0
  0
SPLINE
  5
1a1
100
AcDbEntity
  8
A0102_Printing_01
 62
1
100
AcDbSpline
 70
8
 71
3
 72
8
 73
4
 74
0
 40
0
 40
0
 40
0
 40
0
 40
1
 40
1
 40
1
 40
1
 10
1830.893654
 20
1632.996259
 30
0.0
 10
1835.085654
 20
1626.708259
 30
0.0
 10
1835.399654
 20
1613.399260
 30
0.0
 10
1838.857654
 20
1606.063260
 30
0.0
  0
SPLINE
  5
1a2
100
AcDbEntity
  8
A0102_Printing_01
 62
1
100
AcDbSpline
 70
8
 71
3
 72
8
 73
4
 74
0
 40
0
 40
0
 40
0
 40
0
 40
1
 40
1
 40
1
 40
1
 10
1838.857654
 20
1606.063260
 30
0.0
 10
1839.486654
 20
1604.701260
 30
0.0
 10
1840.115654
 20
1603.339260
 30
0.0
 10
1840.849654
 20
1602.291260
 30
0.0
  0
SPLINE
  5
1a3
100
AcDbEntity
  8
A0102_Printing_01
 62
1
100
AcDbSpline
 70
8
 71
3
 72
8
 73
4
 74
0
 40
0
 40
0
 40
0
 40
0
 40
1
 40
1
 40
1
 40
1
 10
1840.849654
 20
1602.291260
 30
0.0
 10
1841.582654
 20
1601.348260
 30
0.0
 10
1843.259654
 20
1600.404260
 30
0.0
 10
1842.211654
 20
1598.833260
 30
0.0
  0
SPLINE
  5
1a4
100
AcDbEntity
  8
A0102_Printing_01
 62
1
100
AcDbSpline
 70
8
 71
3
 72
8
 73
4
 74
0
 40
0
 40
0
 40
0
 40
0
 40
1
 40
1
 40
1
 40
1
 10
1842.211654
 20
1598.833260
 30
0.0
 10
1841.058654
 20
1598.728260
 30
0.0
 10
1839.696654
 20
1600.404260
 30
0.0
 10
1839.067654
 20
1601.348260
 30
0.0
  0
SPLINE
  5
1a5
100
AcDbEntity
  8
A0102_Printing_01
 62
1
100
AcDbSpline
 70
8
 71
3
 72
8
 73
4
 74
0
 40
0
 40
0
 40
0
 40
0
 40
1
 40
1
 40
1
 40
1
 10
1839.067654
 20
1601.348260
 30
0.0
 10
1837.076654
 20
1604.072260
 30
0.0
 10
1834.980654
 20
1608.998260
 30
0.0
 10
1833.618654
 20
1613.609260
 30
0.0
  0
SPLINE
  5
1a6
100
AcDbEntity
  8
A0102_Printing_01
 62
1
100
AcDbSpline
 70
8
 71
3
 72
8
 73
4
 74
0
 40
0
 40
0
 40
0
 40
0
 40
1
 40
1
 40
1
 40
1
 10
1833.618654
 20
1613.609260
 30
0.0
 10
1831.522654
 20
1620.735259
 30
0.0
 10
1830.055654
 20
1629.852259
 30
0.0
 10
1823.348654
 20
1631.843259
 30
0.0
  0
SPLINE
  5
1a7
100
AcDbEntity
  8
A0102_Printing_01
 62
1
100
AcDbSpline
 70
8
 71
3
 72
8
 73
4
 74
0
 40
0
 40
0
 40
0
 40
0
 40
1
 40
1
 40
1
 40
1
 10
1823.348654
 20
1631.843259
 30
0.0
 10
1819.156655
 20
1633.100259
 30
0.0
 10
1813.706655
 20
1629.852259
 30
0.0
 10
1815.907655
 20
1625.032259
 30
0.0
  0
SPLINE
  5
1a8
100
AcDbEntity
  8
A0102_Printing_01
 62
1
100
AcDbSpline
 70
8
 71
3
 72
8
 73
4
 74
0
 40
0
 40
0
 40
0
 40
0
 40
1
 40
1
 40
1
 40
1
 10
1815.907655
 20
1625.032259
 30
0.0
 10
1816.641655
 20
1623.250259
 30
0.0
 10
1818.213655
 20
1623.250259
 30
0.0
 10
1819.470655
 20
1621.574259
 30
0.0
  0
SPLINE
  5
1a9
100
AcDbEntity
  8
A0102_Printing_01
 62
1
100
AcDbSpline
 70
8
 71
3
 72
8
 73
4
 74
0
 40
0
 40
0
 40
0
 40
0
 40
1
 40
1
 40
1
 40
1
 10
1819.470655
 20
1621.574259
 30
0.0
 10
1808.362655
 20
1617.905260
 30
0.0
 10
1807.209655
 20
1634.253259
 30
0.0
 10
1815.383655
 20
1637.922259
 30
0.0
  0
LWPOLYLINE
  5
1aa
100
AcDbEntity
  8
A0102_Printing_01
 62
1
100
AcDbPolyline
 90
1
 70
1
 10
1766.215656
 20
1631.471259
 30
0.0
  0
SPLINE
  5
1ab
100
AcDbEntity
  8
A0102_Printing_01
 62
1
100
AcDbSpline
 70
8
 71
3
 72
8
 73
4
 74
0
 40
0
 40
0
 40
0
 40
0
 40
1
 40
1
 40
1
 40
1
 10
1866.378653
 20
1662.372258
 30
0.0
 10
1868.684653
 20
1663.211258
 30
0.0
 10
1872.352653
 20
1663.630258
 30
0.0
 10
1874.343653
 20
1663.944258
 30
0.0
  0
SPLINE
  5
1ac
100
AcDbEntity
  8
A0102_Printing_01
 62
1
100
AcDbSpline
 70
8
 71
3
 72
8
 73
4
 74
0
 40
0
 40
0
 40
0
 40
0
 40
1
 40
1
 40
1
 40
1
 10
1874.343653
 20
1663.944258
 30
0.0
 10
1885.766653
 20
1664.258258
 30
0.0
 10
1896.036653
 20
1656.713259
 30
0.0
 10
1895.931653
 20
1645.710259
 30
0.0
  0
SPLINE
  5
1ad
100
AcDbEntity
  8
A0102_Printing_01
 62
1
100
AcDbSpline
 70
8
 71
3
 72
8
 73
4
 74
0
 40
0
 40
0
 40
0
 40
0
 40
1
 40
1
 40
1
 40
1
 10
1895.931653
 20
1645.710259
 30
0.0
 10
1895.826653
 20
1638.164259
 30
0.0
 10
1889.748653
 20
1630.304259
 30
0.0
 10
1881.574653
 20
1630.304259
 30
0.0
  0
SPLINE
  5
1ae
100
AcDbEntity
  8
A0102_Printing_01
 62
1
100
AcDbSpline
 70
8
 71
3
 72
8
 73
4
 74
0
 40
0
 40
0
 40
0
 40
0
 40
1
 40
1
 40
1
 40
1
 10
1881.574653
 20
1630.304259
 30
0.0
 10
1878.116653
 20
1630.199259
 30
0.0
 10
1873.400653
 20
1632.400259
 30
0.0
 10
1871.409653
 20
1635.020259
 30
0.0
  0
SPLINE
  5
1af
100
AcDbEntity
  8
A0102_Printing_01
 62
1
100
AcDbSpline
 70
8
 71
3
 72
8
 73
4
 74
0
 40
0
 40
0
 40
0
 40
0
 40
1
 40
1
 40
1
 40
1
 10
1871.409653
 20
1635.020259
 30
0.0
 10
1868.265653
 20
1639.212259
 30
0.0
 10
1868.055653
 20
1648.853259
 30
0.0
 10
1874.343653
 20
1649.377259
 30
0.0
  0
SPLINE
  5
1b0
100
AcDbEntity
  8
A0102_Printing_01
 62
1
100
AcDbSpline
 70
8
 71
3
 72
8
 73
4
 74
0
 40
0
 40
0
 40
0
 40
0
 40
1
 40
1
 40
1
 40
1
 10
1874.343653
 20
1649.377259
 30
0.0
 10
1874.657653
 20
1648.120259
 30
0.0
 10
1872.352653
 20
1646.443259
 30
0.0
 10
1872.247653
 20
1643.928259
 30
0.0
  0
SPLINE
  5
1b1
100
AcDbEntity
  8
A0102_Printing_01
 62
1
100
AcDbSpline
 70
8
 71
3
 72
8
 73
4
 74
0
 40
0
 40
0
 40
0
 40
0
 40
1
 40
1
 40
1
 40
1
 10
1872.247653
 20
1643.928259
 30
0.0
 10
1872.142653
 20
1638.897259
 30
0.0
 10
1877.592653
 20
1635.020259
 30
0.0
 10
1883.146653
 20
1637.116259
 30
0.0
  0
SPLINE
  5
1b2
100
AcDbEntity
  8
A0102_Printing_01
 62
1
100
AcDbSpline
 70
8
 71
3
 72
8
 73
4
 74
0
 40
0
 40
0
 40
0
 40
0
 40
1
 40
1
 40
1
 40
1
 10
1883.146653
 20
1637.116259
 30
0.0
 10
1887.023653
 20
1638.479259
 30
0.0
 10
1889.224653
 20
1642.460259
 30
0.0
 10
1889.329653
 20
1646.128259
 30
0.0
  0
SPLINE
  5
1b3
100
AcDbEntity
  8
A0102_Printing_01
 62
1
100
AcDbSpline
 70
8
 71
3
 72
8
 73
4
 74
0
 40
0
 40
0
 40
0
 40
0
 40
1
 40
1
 40
1
 40
1
 10
1889.329653
 20
1646.128259
 30
0.0
 10
1889.538653
 20
1655.456259
 30
0.0
 10
1879.478653
 20
1662.268258
 30
0.0
 10
1869.522653
 20
1659.857259
 30
0.0
  0
SPLINE
  5
1b4
100
AcDbEntity
  8
A0102_Printing_01
 62
1
100
AcDbSpline
 70
8
 71
3
 72
8
 73
4
 74
0
 40
0
 40
0
 40
0
 40
0
 40
1
 40
1
 40
1
 40
1
 10
1869.522653
 20
1659.857259
 30
0.0
 10
1866.902653
 20
1659.228259
 30
0.0
 10
1863.863653
 20
1657.656259
 30
0.0
 10
1861.767653
 20
1655.980259
 30
0.0
  0
SPLINE
  5
1b5
100
AcDbEntity
  8
A0102_Printing_01
 62
1
100
AcDbSpline
 70
8
 71
3
 72
8
 73
4
 74
0
 40
0
 40
0
 40
0
 40
0
 40
1
 40
1
 40
1
 40
1
 10
1861.767653
 20
1655.980259
 30
0.0
 10
1849.401654
 20
1645.919259
 30
0.0
 10
1844.371654
 20
1621.397259
 30
0.0
 10
1850.449654
 20
1601.380260
 30
0.0
  0
SPLINE
  5
1b6
100
AcDbEntity
  8
A0102_Printing_01
 62
1
100
AcDbSpline
 70
8
 71
3
 72
8
 73
4
 74
0
 40
0
 40
0
 40
0
 40
0
 40
1
 40
1
 40
1
 40
1
 10
1850.449654
 20
1601.380260
 30
0.0
 10
1851.078654
 20
1599.180260
 30
0.0
 10
1852.440654
 20
1596.979260
 30
0.0
 10
1852.231654
 20
1594.568260
 30
0.0
  0
SPLINE
  5
1b7
100
AcDbEntity
  8
A0102_Printing_01
 62
1
100
AcDbSpline
 70
8
 71
3
 72
8
 73
4
 74
0
 40
0
 40
0
 40
0
 40
0
 40
1
 40
1
 40
1
 40
1
 10
1852.231654
 20
1594.568260
 30
0.0
 10
1856.423654
 20
1589.748260
 30
0.0
 10
1859.147654
 20
1585.137260
 30
0.0
 10
1863.654653
 20
1582.307260
 30
0.0
  0
SPLINE
  5
1b8
100
AcDbEntity
  8
A0102_Printing_01
 62
1
100
AcDbSpline
 70
8
 71
3
 72
8
 73
4
 74
0
 40
0
 40
0
 40
0
 40
0
 40
1
 40
1
 40
1
 40
1
 10
1863.654653
 20
1582.307260
 30
0.0
 10
1866.693653
 20
1580.317260
 30
0.0
 10
1870.885653
 20
1578.744261
 30
0.0
 10
1875.915653
 20
1578.849261
 30
0.0
  0
SPLINE
  5
1b9
100
AcDbEntity
  8
A0102_Printing_01
 62
1
100
AcDbSpline
 70
8
 71
3
 72
8
 73
4
 74
0
 40
0
 40
0
 40
0
 40
0
 40
1
 40
1
 40
1
 40
1
 10
1875.915653
 20
1578.849261
 30
0.0
 10
1886.919653
 20
1579.164261
 30
0.0
 10
1894.988653
 20
1588.281260
 30
0.0
 10
1894.150653
 20
1599.390260
 30
0.0
  0
SPLINE
  5
1ba
100
AcDbEntity
  8
A0102_Printing_01
 62
1
100
AcDbSpline
 70
8
 71
3
 72
8
 73
4
 74
0
 40
0
 40
0
 40
0
 40
0
 40
1
 40
1
 40
1
 40
1
 10
1894.150653
 20
1599.390260
 30
0.0
 10
1893.730653
 20
1604.000260
 30
0.0
 10
1890.586653
 20
1609.554260
 30
0.0
 10
1886.185653
 20
1611.860260
 30
0.0
  0
SPLINE
  5
1bb
100
AcDbEntity
  8
A0102_Printing_01
 62
1
100
AcDbSpline
 70
8
 71
3
 72
8
 73
4
 74
0
 40
0
 40
0
 40
0
 40
0
 40
1
 40
1
 40
1
 40
1
 10
1886.185653
 20
1611.860260
 30
0.0
 10
1876.858653
 20
1616.681260
 30
0.0
 10
1864.597653
 20
1609.974260
 30
0.0
 10
1866.378653
 20
1597.713260
 30
0.0
  0
SPLINE
  5
1bc
100
AcDbEntity
  8
A0102_Printing_01
 62
1
100
AcDbSpline
 70
8
 71
3
 72
8
 73
4
 74
0
 40
0
 40
0
 40
0
 40
0
 40
1
 40
1
 40
1
 40
1
 10
1866.378653
 20
1597.713260
 30
0.0
 10
1866.588653
 20
1596.245260
 30
0.0
 10
1867.531653
 20
1593.835260
 30
0.0
 10
1868.684653
 20
1592.473260
 30
0.0
  0
SPLINE
  5
1bd
100
AcDbEntity
  8
A0102_Printing_01
 62
1
100
AcDbSpline
 70
8
 71
3
 72
8
 73
4
 74
0
 40
0
 40
0
 40
0
 40
0
 40
1
 40
1
 40
1
 40
1
 10
1868.684653
 20
1592.473260
 30
0.0
 10
1874.029653
 20
1585.765260
 30
0.0
 10
1887.547653
 20
1590.377260
 30
0.0
 10
1882.308653
 20
1598.656260
 30
0.0
  0
SPLINE
  5
1be
100
AcDbEntity
  8
A0102_Printing_01
 62
1
100
AcDbSpline
 70
8
 71
3
 72
8
 73
4
 74
0
 40
0
 40
0
 40
0
 40
0
 40
1
 40
1
 40
1
 40
1
 10
1882.308653
 20
1598.656260
 30
0.0
 10
1880.526653
 20
1597.398260
 30
0.0
 10
1880.735653
 20
1595.617260
 30
0.0
 10
1878.430653
 20
1595.198260
 30
0.0
  0
SPLINE
  5
1bf
100
AcDbEntity
  8
A0102_Printing_01
 62
1
100
AcDbSpline
 70
8
 71
3
 72
8
 73
4
 74
0
 40
0
 40
0
 40
0
 40
0
 40
1
 40
1
 40
1
 40
1
 10
1878.430653
 20
1595.198260
 30
0.0
 10
1875.077653
 20
1594.673260
 30
0.0
 10
1873.190653
 20
1597.188260
 30
0.0
 10
1873.190653
 20
1600.018260
 30
0.0
  0
SPLINE
  5
1c0
100
AcDbEntity
  8
A0102_Printing_01
 62
1
100
AcDbSpline
 70
8
 71
3
 72
8
 73
4
 74
0
 40
0
 40
0
 40
0
 40
0
 40
1
 40
1
 40
1
 40
1
 10
1873.190653
 20
1600.018260
 30
0.0
 10
1873.295653
 20
1604.210260
 30
0.0
 10
1878.011653
 20
1606.725260
 30
0.0
 10
1882.308653
 20
1605.258260
 30
0.0
  0
SPLINE
  5
1c1
100
AcDbEntity
  8
A0102_Printing_01
 62
1
100
AcDbSpline
 70
8
 71
3
 72
8
 73
4
 74
0
 40
0
 40
0
 40
0
 40
0
 40
1
 40
1
 40
1
 40
1
 10
1882.308653
 20
1605.258260
 30
0.0
 10
1884.089653
 20
1604.629260
 30
0.0
 10
1885.451653
 20
1602.743260
 30
0.0
 10
1885.871653
 20
1601.800260
 30
0.0
  0
SPLINE
  5
1c2
100
AcDbEntity
  8
A0102_Printing_01
 62
1
100
AcDbSpline
 70
8
 71
3
 72
8
 73
4
 74
0
 40
0
 40
0
 40
0
 40
0
 40
1
 40
1
 40
1
 40
1
 10
1885.871653
 20
1601.800260
 30
0.0
 10
1890.796653
 20
1591.949260
 30
0.0
 10
1879.792653
 20
1583.670260
 30
0.0
 10
1870.885653
 20
1588.176260
 30
0.0
  0
SPLINE
  5
1c3
100
AcDbEntity
  8
A0102_Printing_01
 62
1
100
AcDbSpline
 70
8
 71
3
 72
8
 73
4
 74
0
 40
0
 40
0
 40
0
 40
0
 40
1
 40
1
 40
1
 40
1
 10
1870.885653
 20
1588.176260
 30
0.0
 10
1864.492653
 20
1591.425260
 30
0.0
 10
1862.396653
 20
1601.905260
 30
0.0
 10
1866.798653
 20
1608.611260
 30
0.0
  0
SPLINE
  5
1c4
100
AcDbEntity
  8
A0102_Printing_01
 62
1
100
AcDbSpline
 70
8
 71
3
 72
8
 73
4
 74
0
 40
0
 40
0
 40
0
 40
0
 40
1
 40
1
 40
1
 40
1
 10
1866.798653
 20
1608.611260
 30
0.0
 10
1869.208653
 20
1612.384260
 30
0.0
 10
1875.705653
 20
1616.891260
 30
0.0
 10
1883.146653
 20
1615.214260
 30
0.0
  0
SPLINE
  5
1c5
100
AcDbEntity
  8
A0102_Printing_01
 62
1
100
AcDbSpline
 70
8
 71
3
 72
8
 73
4
 74
0
 40
0
 40
0
 40
0
 40
0
 40
1
 40
1
 40
1
 40
1
 10
1883.146653
 20
1615.214260
 30
0.0
 10
1889.434653
 20
1613.851260
 30
0.0
 10
1895.302653
 20
1607.983260
 30
0.0
 10
1896.141653
 20
1600.438260
 30
0.0
  0
SPLINE
  5
1c6
100
AcDbEntity
  8
A0102_Printing_01
 62
1
100
AcDbSpline
 70
8
 71
3
 72
8
 73
4
 74
0
 40
0
 40
0
 40
0
 40
0
 40
1
 40
1
 40
1
 40
1
 10
1896.141653
 20
1600.438260
 30
0.0
 10
1897.608653
 20
1587.442260
 30
0.0
 10
1888.386653
 20
1578.116261
 30
0.0
 10
1877.696653
 20
1576.858261
 30
0.0
  0
SPLINE
  5
1c7
100
AcDbEntity
  8
A0102_Printing_01
 62
1
100
AcDbSpline
 70
8
 71
3
 72
8
 73
4
 74
0
 40
0
 40
0
 40
0
 40
0
 40
1
 40
1
 40
1
 40
1
 10
1877.696653
 20
1576.858261
 30
0.0
 10
1866.378653
 20
1575.391261
 30
0.0
 10
1857.890654
 20
1582.307260
 30
0.0
 10
1853.384654
 20
1589.119260
 30
0.0
  0
SPLINE
  5
1c8
100
AcDbEntity
  8
A0102_Printing_01
 62
1
100
AcDbSpline
 70
8
 71
3
 72
8
 73
4
 74
0
 40
0
 40
0
 40
0
 40
0
 40
1
 40
1
 40
1
 40
1
 10
1853.384654
 20
1589.119260
 30
0.0
 10
1839.446654
 20
1610.393260
 30
0.0
 10
1844.057654
 20
1653.360259
 30
0.0
 10
1866.378653
 20
1662.372258
 30
0.0
  0
LWPOLYLINE
  5
1c9
100
AcDbEntity
  8
A0102_Printing_01
 62
1
100
AcDbPolyline
 90
1
 70
1
 10
1815.383655
 20
1637.922259
 30
0.0
  0
SPLINE
  5
1ca
100
AcDbEntity
  8
A0102_Printing_01
 62
1
100
AcDbSpline
 70
8
 71
3
 72
8
 73
4
 74
0
 40
0
 40
0
 40
0
 40
0
 40
1
 40
1
 40
1
 40
1
 10
1902.533652
 20
1600.438260
 30
0.0
 10
1903.372652
 20
1607.983260
 30
0.0
 10
1909.345652
 20
1613.851260
 30
0.0
 10
1915.528652
 20
1615.214260
 30
0.0
  0
SPLINE
  5
1cb
100
AcDbEntity
  8
A0102_Printing_01
 62
1
100
AcDbSpline
 70
8
 71
3
 72
8
 73
4
 74
0
 40
0
 40
0
 40
0
 40
0
 40
1
 40
1
 40
1
 40
1
 10
1915.528652
 20
1615.214260
 30
0.0
 10
1922.969652
 20
1616.891260
 30
0.0
 10
1929.466652
 20
1612.384260
 30
0.0
 10
1931.876652
 20
1608.611260
 30
0.0
  0
SPLINE
  5
1cc
100
AcDbEntity
  8
A0102_Printing_01
 62
1
100
AcDbSpline
 70
8
 71
3
 72
8
 73
4
 74
0
 40
0
 40
0
 40
0
 40
0
 40
1
 40
1
 40
1
 40
1
 10
1931.876652
 20
1608.611260
 30
0.0
 10
1936.383652
 20
1601.905260
 30
0.0
 10
1934.182652
 20
1591.425260
 30
0.0
 10
1927.789652
 20
1588.176260
 30
0.0
  0
SPLINE
  5
1cd
100
AcDbEntity
  8
A0102_Printing_01
 62
1
100
AcDbSpline
 70
8
 71
3
 72
8
 73
4
 74
0
 40
0
 40
0
 40
0
 40
0
 40
1
 40
1
 40
1
 40
1
 10
1927.789652
 20
1588.176260
 30
0.0
 10
1918.881652
 20
1583.670260
 30
0.0
 10
1907.983652
 20
1591.949260
 30
0.0
 10
1912.803652
 20
1601.800260
 30
0.0
  0
SPLINE
  5
1ce
100
AcDbEntity
  8
A0102_Printing_01
 62
1
100
AcDbSpline
 70
8
 71
3
 72
8
 73
4
 74
0
 40
0
 40
0
 40
0
 40
0
 40
1
 40
1
 40
1
 40
1
 10
1912.803652
 20
1601.800260
 30
0.0
 10
1913.223652
 20
1602.743260
 30
0.0
 10
1914.690652
 20
1604.629260
 30
0.0
 10
1916.471652
 20
1605.258260
 30
0.0
  0
SPLINE
  5
1cf
100
AcDbEntity
  8
A0102_Printing_01
 62
1
100
AcDbSpline
 70
8
 71
3
 72
8
 73
4
 74
0
 40
0
 40
0
 40
0
 40
0
 40
1
 40
1
 40
1
 40
1
 10
1916.471652
 20
1605.258260
 30
0.0
 10
1920.663652
 20
1606.725260
 30
0.0
 10
1925.484652
 20
1604.210260
 30
0.0
 10
1925.589652
 20
1600.018260
 30
0.0
  0
SPLINE
  5
1d0
100
AcDbEntity
  8
A0102_Printing_01
 62
1
100
AcDbSpline
 70
8
 71
3
 72
8
 73
4
 74
0
 40
0
 40
0
 40
0
 40
0
 40
1
 40
1
 40
1
 40
1
 10
1925.589652
 20
1600.018260
 30
0.0
 10
1925.589652
 20
1597.188260
 30
0.0
 10
1923.702652
 20
1594.673260
 30
0.0
 10
1920.349652
 20
1595.198260
 30
0.0
  0
SPLINE
  5
1d1
100
AcDbEntity
  8
A0102_Printing_01
 62
1
100
AcDbSpline
 70
8
 71
3
 72
8
 73
4
 74
0
 40
0
 40
0
 40
0
 40
0
 40
1
 40
1
 40
1
 40
1
 10
1920.349652
 20
1595.198260
 30
0.0
 10
1918.043652
 20
1595.617260
 30
0.0
 10
1918.148652
 20
1597.398260
 30
0.0
 10
1916.471652
 20
1598.656260
 30
0.0
  0
SPLINE
  5
1d2
100
AcDbEntity
  8
A0102_Printing_01
 62
1
100
AcDbSpline
 70
8
 71
3
 72
8
 73
4
 74
0
 40
0
 40
0
 40
0
 40
0
 40
1
 40
1
 40
1
 40
1
 10
1916.471652
 20
1598.656260
 30
0.0
 10
1911.231652
 20
1590.377260
 30
0.0
 10
1924.750652
 20
1585.765260
 30
0.0
 10
1930.095652
 20
1592.473260
 30
0.0
  0
SPLINE
  5
1d3
100
AcDbEntity
  8
A0102_Printing_01
 62
1
100
AcDbSpline
 70
8
 71
3
 72
8
 73
4
 74
0
 40
0
 40
0
 40
0
 40
0
 40
1
 40
1
 40
1
 40
1
 10
1930.095652
 20
1592.473260
 30
0.0
 10
1931.143652
 20
1593.835260
 30
0.0
 10
1932.191652
 20
1596.245260
 30
0.0
 10
1932.400652
 20
1597.713260
 30
0.0
  0
SPLINE
  5
1d4
100
AcDbEntity
  8
A0102_Printing_01
 62
1
100
AcDbSpline
 70
8
 71
3
 72
8
 73
4
 74
0
 40
0
 40
0
 40
0
 40
0
 40
1
 40
1
 40
1
 40
1
 10
1932.400652
 20
1597.713260
 30
0.0
 10
1934.182652
 20
1609.974260
 30
0.0
 10
1921.816652
 20
1616.681260
 30
0.0
 10
1912.594652
 20
1611.860260
 30
0.0
  0
SPLINE
  5
1d5
100
AcDbEntity
  8
A0102_Printing_01
 62
1
100
AcDbSpline
 70
8
 71
3
 72
8
 73
4
 74
0
 40
0
 40
0
 40
0
 40
0
 40
1
 40
1
 40
1
 40
1
 10
1912.594652
 20
1611.860260
 30
0.0
 10
1908.087652
 20
1609.554260
 30
0.0
 10
1905.048652
 20
1604.000260
 30
0.0
 10
1904.629652
 20
1599.390260
 30
0.0
  0
SPLINE
  5
1d6
100
AcDbEntity
  8
A0102_Printing_01
 62
1
100
AcDbSpline
 70
8
 71
3
 72
8
 73
4
 74
0
 40
0
 40
0
 40
0
 40
0
 40
1
 40
1
 40
1
 40
1
 10
1904.629652
 20
1599.390260
 30
0.0
 10
1903.686652
 20
1588.281260
 30
0.0
 10
1911.755652
 20
1579.164261
 30
0.0
 10
1922.864652
 20
1578.849261
 30
0.0
  0
SPLINE
  5
1d7
100
AcDbEntity
  8
A0102_Printing_01
 62
1
100
AcDbSpline
 70
8
 71
3
 72
8
 73
4
 74
0
 40
0
 40
0
 40
0
 40
0
 40
1
 40
1
 40
1
 40
1
 10
1922.864652
 20
1578.849261
 30
0.0
 10
1927.789652
 20
1578.744261
 30
0.0
 10
1931.981652
 20
1580.317260
 30
0.0
 10
1935.125652
 20
1582.307260
 30
0.0
  0
SPLINE
  5
1d8
100
AcDbEntity
  8
A0102_Printing_01
 62
1
100
AcDbSpline
 70
8
 71
3
 72
8
 73
4
 74
0
 40
0
 40
0
 40
0
 40
0
 40
1
 40
1
 40
1
 40
1
 10
1935.125652
 20
1582.307260
 30
0.0
 10
1939.631652
 20
1585.137260
 30
0.0
 10
1942.356651
 20
1589.748260
 30
0.0
 10
1946.443651
 20
1594.568260
 30
0.0
  0
SPLINE
  5
1d9
100
AcDbEntity
  8
A0102_Printing_01
 62
1
100
AcDbSpline
 70
8
 71
3
 72
8
 73
4
 74
0
 40
0
 40
0
 40
0
 40
0
 40
1
 40
1
 40
1
 40
1
 10
1946.443651
 20
1594.568260
 30
0.0
 10
1946.233651
 20
1596.979260
 30
0.0
 10
1947.596651
 20
1599.180260
 30
0.0
 10
1948.329651
 20
1601.380260
 30
0.0
  0
SPLINE
  5
1da
100
AcDbEntity
  8
A0102_Printing_01
 62
1
100
AcDbSpline
 70
8
 71
3
 72
8
 73
4
 74
0
 40
0
 40
0
 40
0
 40
0
 40
1
 40
1
 40
1
 40
1
 10
1948.329651
 20
1601.380260
 30
0.0
 10
1954.303651
 20
1621.397259
 30
0.0
 10
1949.273651
 20
1645.919259
 30
0.0
 10
1936.907652
 20
1655.980259
 30
0.0
  0
SPLINE
  5
1db
100
AcDbEntity
  8
A0102_Printing_01
 62
1
100
AcDbSpline
 70
8
 71
3
 72
8
 73
4
 74
0
 40
0
 40
0
 40
0
 40
0
 40
1
 40
1
 40
1
 40
1
 10
1936.907652
 20
1655.980259
 30
0.0
 10
1934.811652
 20
1657.656259
 30
0.0
 10
1931.771652
 20
1659.228259
 30
0.0
 10
1929.152652
 20
1659.857259
 30
0.0
  0
SPLINE
  5
1dc
100
AcDbEntity
  8
A0102_Printing_01
 62
1
100
AcDbSpline
 70
8
 71
3
 72
8
 73
4
 74
0
 40
0
 40
0
 40
0
 40
0
 40
1
 40
1
 40
1
 40
1
 10
1929.152652
 20
1659.857259
 30
0.0
 10
1919.301652
 20
1662.268258
 30
0.0
 10
1909.240652
 20
1655.456259
 30
0.0
 10
1909.450652
 20
1646.128259
 30
0.0
  0
SPLINE
  5
1dd
100
AcDbEntity
  8
A0102_Printing_01
 62
1
100
AcDbSpline
 70
8
 71
3
 72
8
 73
4
 74
0
 40
0
 40
0
 40
0
 40
0
 40
1
 40
1
 40
1
 40
1
 10
1909.450652
 20
1646.128259
 30
0.0
 10
1909.450652
 20
1642.460259
 30
0.0
 10
1911.755652
 20
1638.479259
 30
0.0
 10
1915.528652
 20
1637.116259
 30
0.0
  0
SPLINE
  5
1de
100
AcDbEntity
  8
A0102_Printing_01
 62
1
100
AcDbSpline
 70
8
 71
3
 72
8
 73
4
 74
0
 40
0
 40
0
 40
0
 40
0
 40
1
 40
1
 40
1
 40
1
 10
1915.528652
 20
1637.116259
 30
0.0
 10
1921.187652
 20
1635.020259
 30
0.0
 10
1926.532652
 20
1638.897259
 30
0.0
 10
1926.427652
 20
1643.928259
 30
0.0
  0
SPLINE
  5
1df
100
AcDbEntity
  8
A0102_Printing_01
 62
1
100
AcDbSpline
 70
8
 71
3
 72
8
 73
4
 74
0
 40
0
 40
0
 40
0
 40
0
 40
1
 40
1
 40
1
 40
1
 10
1926.427652
 20
1643.928259
 30
0.0
 10
1926.427652
 20
1646.443259
 30
0.0
 10
1924.121652
 20
1648.120259
 30
0.0
 10
1924.436652
 20
1649.377259
 30
0.0
  0
SPLINE
  5
1e0
100
AcDbEntity
  8
A0102_Printing_01
 62
1
100
AcDbSpline
 70
8
 71
3
 72
8
 73
4
 74
0
 40
0
 40
0
 40
0
 40
0
 40
1
 40
1
 40
1
 40
1
 10
1924.436652
 20
1649.377259
 30
0.0
 10
1930.619652
 20
1648.853259
 30
0.0
 10
1930.409652
 20
1639.212259
 30
0.0
 10
1927.370652
 20
1635.020259
 30
0.0
  0
SPLINE
  5
1e1
100
AcDbEntity
  8
A0102_Printing_01
 62
1
100
AcDbSpline
 70
8
 71
3
 72
8
 73
4
 74
0
 40
0
 40
0
 40
0
 40
0
 40
1
 40
1
 40
1
 40
1
 10
1927.370652
 20
1635.020259
 30
0.0
 10
1925.379652
 20
1632.400259
 30
0.0
 10
1920.663652
 20
1630.199259
 30
0.0
 10
1917.100652
 20
1630.304259
 30
0.0
  0
SPLINE
  5
1e2
100
AcDbEntity
  8
A0102_Printing_01
 62
1
100
AcDbSpline
 70
8
 71
3
 72
8
 73
4
 74
0
 40
0
 40
0
 40
0
 40
0
 40
1
 40
1
 40
1
 40
1
 10
1917.100652
 20
1630.304259
 30
0.0
 10
1909.031652
 20
1630.304259
 30
0.0
 10
1902.952652
 20
1638.164259
 30
0.0
 10
1902.848652
 20
1645.710259
 30
0.0
  0
SPLINE
  5
1e3
100
AcDbEntity
  8
A0102_Printing_01
 62
1
100
AcDbSpline
 70
8
 71
3
 72
8
 73
4
 74
0
 40
0
 40
0
 40
0
 40
0
 40
1
 40
1
 40
1
 40
1
 10
1902.848652
 20
1645.710259
 30
0.0
 10
1902.638652
 20
1656.713259
 30
0.0
 10
1913.013652
 20
1664.258258
 30
0.0
 10
1924.436652
 20
1663.944258
 30
0.0
  0
SPLINE
  5
1e4
100
AcDbEntity
  8
A0102_Printing_01
 62
1
100
AcDbSpline
 70
8
 71
3
 72
8
 73
4
 74
0
 40
0
 40
0
 40
0
 40
0
 40
1
 40
1
 40
1
 40
1
 10
1924.436652
 20
1663.944258
 30
0.0
 10
1926.427652
 20
1663.630258
 30
0.0
 10
1930.095652
 20
1663.211258
 30
0.0
 10
1932.400652
 20
1662.372258
 30
0.0
  0
SPLINE
  5
1e5
100
AcDbEntity
  8
A0102_Printing_01
 62
1
100
AcDbSpline
 70
8
 71
3
 72
8
 73
4
 74
0
 40
0
 40
0
 40
0
 40
0
 40
1
 40
1
 40
1
 40
1
 10
1932.400652
 20
1662.372258
 30
0.0
 10
1954.617651
 20
1653.360259
 30
0.0
 10
1959.228651
 20
1610.393260
 30
0.0
 10
1945.290651
 20
1589.119260
 30
0.0
  0
SPLINE
  5
1e6
100
AcDbEntity
  8
A0102_Printing_01
 62
1
100
AcDbSpline
 70
8
 71
3
 72
8
 73
4
 74
0
 40
0
 40
0
 40
0
 40
0
 40
1
 40
1
 40
1
 40
1
 10
1945.290651
 20
1589.119260
 30
0.0
 10
1940.889651
 20
1582.307260
 30
0.0
 10
1932.400652
 20
1575.391261
 30
0.0
 10
1920.977652
 20
1576.858261
 30
0.0
  0
SPLINE
  5
1e7
100
AcDbEntity
  8
A0102_Printing_01
 62
1
100
AcDbSpline
 70
8
 71
3
 72
8
 73
4
 74
0
 40
0
 40
0
 40
0
 40
0
 40
1
 40
1
 40
1
 40
1
 10
1920.977652
 20
1576.858261
 30
0.0
 10
1910.393652
 20
1578.116261
 30
0.0
 10
1901.171652
 20
1587.442260
 30
0.0
 10
1902.533652
 20
1600.438260
 30
0.0
  0
LWPOLYLINE
  5
1e8
100
AcDbEntity
  8
A0102_Printing_01
 62
1
100
AcDbPolyline
 90
1
 70
1
 10
1866.378653
 20
1662.372258
 30
0.0
  0
SPLINE
  5
1e9
100
AcDbEntity
  8
A0102_Printing_01
 62
1
100
AcDbSpline
 70
8
 71
3
 72
8
 73
4
 74
0
 40
0
 40
0
 40
0
 40
0
 40
1
 40
1
 40
1
 40
1
 10
1958.764651
 20
1601.568260
 30
0.0
 10
1959.497651
 20
1602.616260
 30
0.0
 10
1960.126651
 20
1603.979260
 30
0.0
 10
1960.860651
 20
1605.340260
 30
0.0
  0
SPLINE
  5
1ea
100
AcDbEntity
  8
A0102_Printing_01
 62
1
100
AcDbSpline
 70
8
 71
3
 72
8
 73
4
 74
0
 40
0
 40
0
 40
0
 40
0
 40
1
 40
1
 40
1
 40
1
 10
1960.860651
 20
1605.340260
 30
0.0
 10
1964.213651
 20
1612.677260
 30
0.0
 10
1964.632651
 20
1625.986259
 30
0.0
 10
1968.824651
 20
1632.274259
 30
0.0
  0
SPLINE
  5
1eb
100
AcDbEntity
  8
A0102_Printing_01
 62
1
100
AcDbSpline
 70
8
 71
3
 72
8
 73
4
 74
0
 40
0
 40
0
 40
0
 40
0
 40
1
 40
1
 40
1
 40
1
 10
1968.824651
 20
1632.274259
 30
0.0
 10
1971.339651
 20
1636.151259
 30
0.0
 10
1978.151651
 20
1639.924259
 30
0.0
 10
1984.229650
 20
1637.199259
 30
0.0
  0
SPLINE
  5
1ec
100
AcDbEntity
  8
A0102_Printing_01
 62
1
100
AcDbSpline
 70
8
 71
3
 72
8
 73
4
 74
0
 40
0
 40
0
 40
0
 40
0
 40
1
 40
1
 40
1
 40
1
 10
1984.229650
 20
1637.199259
 30
0.0
 10
1992.404650
 20
1633.531259
 30
0.0
 10
1991.356650
 20
1617.183260
 30
0.0
 10
1980.142650
 20
1620.851259
 30
0.0
  0
SPLINE
  5
1ed
100
AcDbEntity
  8
A0102_Printing_01
 62
1
100
AcDbSpline
 70
8
 71
3
 72
8
 73
4
 74
0
 40
0
 40
0
 40
0
 40
0
 40
1
 40
1
 40
1
 40
1
 10
1980.142650
 20
1620.851259
 30
0.0
 10
1981.400650
 20
1622.528259
 30
0.0
 10
1982.972650
 20
1622.528259
 30
0.0
 10
1983.810650
 20
1624.309259
 30
0.0
  0
SPLINE
  5
1ee
100
AcDbEntity
  8
A0102_Printing_01
 62
1
100
AcDbSpline
 70
8
 71
3
 72
8
 73
4
 74
0
 40
0
 40
0
 40
0
 40
0
 40
1
 40
1
 40
1
 40
1
 10
1983.810650
 20
1624.309259
 30
0.0
 10
1985.906650
 20
1629.130259
 30
0.0
 10
1980.562650
 20
1632.378259
 30
0.0
 10
1976.265651
 20
1631.121259
 30
0.0
  0
SPLINE
  5
1ef
100
AcDbEntity
  8
A0102_Printing_01
 62
1
100
AcDbSpline
 70
8
 71
3
 72
8
 73
4
 74
0
 40
0
 40
0
 40
0
 40
0
 40
1
 40
1
 40
1
 40
1
 10
1976.265651
 20
1631.121259
 30
0.0
 10
1969.663651
 20
1629.130259
 30
0.0
 10
1967.652651
 20
1619.469260
 30
0.0
 10
1965.556651
 20
1612.343260
 30
0.0
  0
SPLINE
  5
1f0
100
AcDbEntity
  8
A0102_Printing_01
 62
1
100
AcDbSpline
 70
8
 71
3
 72
8
 73
4
 74
0
 40
0
 40
0
 40
0
 40
0
 40
1
 40
1
 40
1
 40
1
 10
1965.556651
 20
1612.343260
 30
0.0
 10
1964.194651
 20
1607.732260
 30
0.0
 10
1962.537651
 20
1603.350260
 30
0.0
 10
1960.650651
 20
1600.625260
 30
0.0
  0
SPLINE
  5
1f1
100
AcDbEntity
  8
A0102_Printing_01
 62
1
100
AcDbSpline
 70
8
 71
3
 72
8
 73
4
 74
0
 40
0
 40
0
 40
0
 40
0
 40
1
 40
1
 40
1
 40
1
 10
1960.650651
 20
1600.625260
 30
0.0
 10
1959.917651
 20
1599.682260
 30
0.0
 10
1958.659651
 20
1598.005260
 30
0.0
 10
1957.401651
 20
1598.110260
 30
0.0
  0
SPLINE
  5
1f2
100
AcDbEntity
  8
A0102_Printing_01
 62
1
100
AcDbSpline
 70
8
 71
3
 72
8
 73
4
 74
0
 40
0
 40
0
 40
0
 40
0
 40
1
 40
1
 40
1
 40
1
 10
1957.401651
 20
1598.110260
 30
0.0
 10
1956.458651
 20
1599.682260
 30
0.0
 10
1958.135651
 20
1600.625260
 30
0.0
 10
1958.764651
 20
1601.568260
 30
0.0
  0
LWPOLYLINE
  5
1f3
100
AcDbEntity
  8
A0102_Printing_01
 62
1
100
AcDbPolyline
 90
1
 70
1
 10
1902.533652
 20
1600.438260
 30
0.0
  0
SPLINE
  5
1f4
100
AcDbEntity
  8
A0102_Printing_01
 62
1
100
AcDbSpline
 70
8
 71
3
 72
8
 73
4
 74
0
 40
0
 40
0
 40
0
 40
0
 40
1
 40
1
 40
1
 40
1
 10
2007.078650
 20
1629.884259
 30
0.0
 10
2013.471650
 20
1635.543259
 30
0.0
 10
2027.514649
 20
1641.097259
 30
0.0
 10
2034.431649
 20
1632.190259
 30
0.0
  0
SPLINE
  5
1f5
100
AcDbEntity
  8
A0102_Printing_01
 62
1
100
AcDbSpline
 70
8
 71
3
 72
8
 73
4
 74
0
 40
0
 40
0
 40
0
 40
0
 40
1
 40
1
 40
1
 40
1
 10
2034.431649
 20
1632.190259
 30
0.0
 10
2038.832649
 20
1626.425259
 30
0.0
 10
2036.422649
 20
1616.155260
 30
0.0
 10
2028.981649
 20
1615.527260
 30
0.0
  0
SPLINE
  5
1f6
100
AcDbEntity
  8
A0102_Printing_01
 62
1
100
AcDbSpline
 70
8
 71
3
 72
8
 73
4
 74
0
 40
0
 40
0
 40
0
 40
0
 40
1
 40
1
 40
1
 40
1
 10
2028.981649
 20
1615.527260
 30
0.0
 10
2027.095649
 20
1615.422260
 30
0.0
 10
2024.056649
 20
1615.632260
 30
0.0
 10
2023.532649
 20
1617.413260
 30
0.0
  0
SPLINE
  5
1f7
100
AcDbEntity
  8
A0102_Printing_01
 62
1
100
AcDbSpline
 70
8
 71
3
 72
8
 73
4
 74
0
 40
0
 40
0
 40
0
 40
0
 40
1
 40
1
 40
1
 40
1
 10
2023.532649
 20
1617.413260
 30
0.0
 10
2026.151649
 20
1618.356260
 30
0.0
 10
2028.667649
 20
1619.299260
 30
0.0
 10
2028.981649
 20
1622.129259
 30
0.0
  0
SPLINE
  5
1f8
100
AcDbEntity
  8
A0102_Printing_01
 62
1
100
AcDbSpline
 70
8
 71
3
 72
8
 73
4
 74
0
 40
0
 40
0
 40
0
 40
0
 40
1
 40
1
 40
1
 40
1
 10
2028.981649
 20
1622.129259
 30
0.0
 10
2029.400649
 20
1627.997259
 30
0.0
 10
2021.960649
 20
1629.884259
 30
0.0
 10
2016.929650
 20
1628.102259
 30
0.0
  0
SPLINE
  5
1f9
100
AcDbEntity
  8
A0102_Printing_01
 62
1
100
AcDbSpline
 70
8
 71
3
 72
8
 73
4
 74
0
 40
0
 40
0
 40
0
 40
0
 40
1
 40
1
 40
1
 40
1
 10
2016.929650
 20
1628.102259
 30
0.0
 10
2012.738650
 20
1626.635259
 30
0.0
 10
2009.070650
 20
1622.548259
 30
0.0
 10
2005.716650
 20
1619.404260
 30
0.0
  0
SPLINE
  5
1fa
100
AcDbEntity
  8
A0102_Printing_01
 62
1
100
AcDbSpline
 70
8
 71
3
 72
8
 73
4
 74
0
 40
0
 40
0
 40
0
 40
0
 40
1
 40
1
 40
1
 40
1
 10
2005.716650
 20
1619.404260
 30
0.0
 10
1997.228650
 20
1611.335260
 30
0.0
 10
1989.787650
 20
1601.589260
 30
0.0
 10
1978.469651
 20
1596.663260
 30
0.0
  0
SPLINE
  5
1fb
100
AcDbEntity
  8
A0102_Printing_01
 62
1
100
AcDbSpline
 70
8
 71
3
 72
8
 73
4
 74
0
 40
0
 40
0
 40
0
 40
0
 40
1
 40
1
 40
1
 40
1
 10
1978.469651
 20
1596.663260
 30
0.0
 10
1976.478651
 20
1595.825260
 30
0.0
 10
1973.020651
 20
1593.834260
 30
0.0
 10
1971.448651
 20
1595.616260
 30
0.0
  0
SPLINE
  5
1fc
100
AcDbEntity
  8
A0102_Printing_01
 62
1
100
AcDbSpline
 70
8
 71
3
 72
8
 73
4
 74
0
 40
0
 40
0
 40
0
 40
0
 40
1
 40
1
 40
1
 40
1
 10
1971.448651
 20
1595.616260
 30
0.0
 10
1976.792651
 20
1597.816260
 30
0.0
 10
1981.613650
 20
1600.331260
 30
0.0
 10
1985.700650
 20
1604.209260
 30
0.0
  0
SPLINE
  5
1fd
100
AcDbEntity
  8
A0102_Printing_01
 62
1
100
AcDbSpline
 70
8
 71
3
 72
8
 73
4
 74
0
 40
0
 40
0
 40
0
 40
0
 40
1
 40
1
 40
1
 40
1
 10
1985.700650
 20
1604.209260
 30
0.0
 10
1993.560650
 20
1611.649260
 30
0.0
 10
1998.800650
 20
1622.548259
 30
0.0
 10
2007.078650
 20
1629.884259
 30
0.0
  0
LWPOLYLINE
  5
1fe
100
AcDbEntity
  8
A0102_Printing_01
 62
1
100
AcDbPolyline
 90
1
 70
1
 10
1958.764651
 20
1601.568260
 30
0.0
  0
SPLINE
  5
1ff
100
AcDbEntity
  8
A0102_Printing_01
 62
1
100
AcDbSpline
 70
8
 71
3
 72
8
 73
4
 74
0
 40
0
 40
0
 40
0
 40
0
 40
1
 40
1
 40
1
 40
1
 10
2062.276648
 20
1619.124260
 30
0.0
 10
2068.145648
 20
1618.391260
 30
0.0
 10
2075.900648
 20
1614.094260
 30
0.0
 10
2076.319648
 20
1606.653260
 30
0.0
  0
SPLINE
  5
200
100
AcDbEntity
  8
A0102_Printing_01
 62
1
100
AcDbSpline
 70
8
 71
3
 72
8
 73
4
 74
0
 40
0
 40
0
 40
0
 40
0
 40
1
 40
1
 40
1
 40
1
 10
2076.319648
 20
1606.653260
 30
0.0
 10
2077.053648
 20
1596.173260
 30
0.0
 10
2065.211648
 20
1590.933260
 30
0.0
 10
2059.342649
 20
1598.479260
 30
0.0
  0
SPLINE
  5
201
100
AcDbEntity
  8
A0102_Printing_01
 62
1
100
AcDbSpline
 70
8
 71
3
 72
8
 73
4
 74
0
 40
0
 40
0
 40
0
 40
0
 40
1
 40
1
 40
1
 40
1
 10
2059.342649
 20
1598.479260
 30
0.0
 10
2062.696648
 20
1598.270260
 30
0.0
 10
2066.049648
 20
1599.423260
 30
0.0
 10
2066.573648
 20
1602.356260
 30
0.0
  0
SPLINE
  5
202
100
AcDbEntity
  8
A0102_Printing_01
 62
1
100
AcDbSpline
 70
8
 71
3
 72
8
 73
4
 74
0
 40
0
 40
0
 40
0
 40
0
 40
1
 40
1
 40
1
 40
1
 10
2066.573648
 20
1602.356260
 30
0.0
 10
2067.726648
 20
1608.121260
 30
0.0
 10
2062.276648
 20
1610.216260
 30
0.0
 10
2057.246649
 20
1610.006260
 30
0.0
  0
SPLINE
  5
203
100
AcDbEntity
  8
A0102_Printing_01
 62
1
100
AcDbSpline
 70
8
 71
3
 72
8
 73
4
 74
0
 40
0
 40
0
 40
0
 40
0
 40
1
 40
1
 40
1
 40
1
 10
2057.246649
 20
1610.006260
 30
0.0
 10
2051.063649
 20
1609.902260
 30
0.0
 10
2044.880649
 20
1607.073260
 30
0.0
 10
2039.536649
 20
1604.558260
 30
0.0
  0
SPLINE
  5
204
100
AcDbEntity
  8
A0102_Printing_01
 62
1
100
AcDbSpline
 70
8
 71
3
 72
8
 73
4
 74
0
 40
0
 40
0
 40
0
 40
0
 40
1
 40
1
 40
1
 40
1
 10
2039.536649
 20
1604.558260
 30
0.0
 10
2029.161649
 20
1599.841260
 30
0.0
 10
2018.576650
 20
1594.602260
 30
0.0
 10
2005.896650
 20
1591.877260
 30
0.0
  0
SPLINE
  5
205
100
AcDbEntity
  8
A0102_Printing_01
 62
1
100
AcDbSpline
 70
8
 71
3
 72
8
 73
4
 74
0
 40
0
 40
0
 40
0
 40
0
 40
1
 40
1
 40
1
 40
1
 10
2005.896650
 20
1591.877260
 30
0.0
 10
2002.857650
 20
1591.248260
 30
0.0
 10
1999.189650
 20
1590.515260
 30
0.0
 10
1995.835650
 20
1590.305260
 30
0.0
  0
SPLINE
  5
206
100
AcDbEntity
  8
A0102_Printing_01
 62
1
100
AcDbSpline
 70
8
 71
3
 72
8
 73
4
 74
0
 40
0
 40
0
 40
0
 40
0
 40
1
 40
1
 40
1
 40
1
 10
1995.835650
 20
1590.305260
 30
0.0
 10
1993.006650
 20
1589.990260
 30
0.0
 10
1989.233650
 20
1588.838260
 30
0.0
 10
1987.452650
 20
1591.143260
 30
0.0
  0
SPLINE
  5
207
100
AcDbEntity
  8
A0102_Printing_01
 62
1
100
AcDbSpline
 70
8
 71
3
 72
8
 73
4
 74
0
 40
0
 40
0
 40
0
 40
0
 40
1
 40
1
 40
1
 40
1
 10
1987.452650
 20
1591.143260
 30
0.0
 10
1989.548650
 20
1591.248260
 30
0.0
 10
1991.539650
 20
1591.143260
 30
0.0
 10
1993.425650
 20
1591.353260
 30
0.0
  0
SPLINE
  5
208
100
AcDbEntity
  8
A0102_Printing_01
 62
1
100
AcDbSpline
 70
8
 71
3
 72
8
 73
4
 74
0
 40
0
 40
0
 40
0
 40
0
 40
1
 40
1
 40
1
 40
1
 10
1993.425650
 20
1591.353260
 30
0.0
 10
2013.756650
 20
1594.392260
 30
0.0
 10
2028.113649
 20
1605.605260
 30
0.0
 10
2043.623649
 20
1614.094260
 30
0.0
  0
SPLINE
  5
209
100
AcDbEntity
  8
A0102_Printing_01
 62
1
100
AcDbSpline
 70
8
 71
3
 72
8
 73
4
 74
0
 40
0
 40
0
 40
0
 40
0
 40
1
 40
1
 40
1
 40
1
 10
2043.623649
 20
1614.094260
 30
0.0
 10
2048.548649
 20
1616.819260
 30
0.0
 10
2055.884649
 20
1619.962260
 30
0.0
 10
2062.276648
 20
1619.124260
 30
0.0
  0
LWPOLYLINE
  5
20a
100
AcDbEntity
  8
A0102_Printing_01
 62
1
100
AcDbPolyline
 90
1
 70
1
 10
2007.078650
 20
1629.884259
 30
0.0
  0
SPLINE
  5
20b
100
AcDbEntity
  8
A0102_Printing_01
 62
1
100
AcDbSpline
 70
8
 71
3
 72
8
 73
4
 74
0
 40
0
 40
0
 40
0
 40
0
 40
1
 40
1
 40
1
 40
1
 10
2046.663649
 20
1673.682258
 30
0.0
 10
2052.793649
 20
1670.380258
 30
0.0
 10
2054.857649
 20
1664.525258
 30
0.0
 10
2056.017649
 20
1659.472259
 30
0.0
  0
SPLINE
  5
20c
100
AcDbEntity
  8
A0102_Printing_01
 62
1
100
AcDbSpline
 70
8
 71
3
 72
8
 73
4
 74
0
 40
0
 40
0
 40
0
 40
0
 40
1
 40
1
 40
1
 40
1
 10
2056.017649
 20
1659.472259
 30
0.0
 10
2056.987649
 20
1663.167258
 30
0.0
 10
2055.777649
 20
1669.227258
 30
0.0
 10
2052.861649
 20
1674.084258
 30
0.0
  0
SPLINE
  5
20d
100
AcDbEntity
  8
A0102_Printing_01
 62
1
100
AcDbSpline
 70
8
 71
3
 72
8
 73
4
 74
0
 40
0
 40
0
 40
0
 40
0
 40
1
 40
1
 40
1
 40
1
 10
2052.861649
 20
1674.084258
 30
0.0
 10
2053.787649
 20
1687.063258
 30
0.0
 10
2062.993648
 20
1693.853258
 30
0.0
 10
2068.302648
 20
1694.045258
 30
0.0
  0
SPLINE
  5
20e
100
AcDbEntity
  8
A0102_Printing_01
 62
1
100
AcDbSpline
 70
8
 71
3
 72
8
 73
4
 74
0
 40
0
 40
0
 40
0
 40
0
 40
1
 40
1
 40
1
 40
1
 10
2068.302648
 20
1694.045258
 30
0.0
 10
2061.146648
 20
1691.523258
 30
0.0
 10
2061.586648
 20
1679.435258
 30
0.0
 10
2062.371648
 20
1668.773258
 30
0.0
  0
SPLINE
  5
20f
100
AcDbEntity
  8
A0102_Printing_01
 62
1
100
AcDbSpline
 70
8
 71
3
 72
8
 73
4
 74
0
 40
0
 40
0
 40
0
 40
0
 40
1
 40
1
 40
1
 40
1
 10
2062.371648
 20
1668.773258
 30
0.0
 10
2060.411648
 20
1664.452258
 30
0.0
 10
2058.832649
 20
1659.543259
 30
0.0
 10
2057.710649
 20
1654.097259
 30
0.0
  0
SPLINE
  5
210
100
AcDbEntity
  8
A0102_Printing_01
 62
1
100
AcDbSpline
 70
8
 71
3
 72
8
 73
4
 74
0
 40
0
 40
0
 40
0
 40
0
 40
1
 40
1
 40
1
 40
1
 10
2057.710649
 20
1654.097259
 30
0.0
 10
2056.704649
 20
1654.347259
 30
0.0
 10
2055.695649
 20
1654.596259
 30
0.0
 10
2054.674649
 20
1654.842259
 30
0.0
  0
SPLINE
  5
211
100
AcDbEntity
  8
A0102_Printing_01
 62
1
100
AcDbSpline
 70
8
 71
3
 72
8
 73
4
 74
0
 40
0
 40
0
 40
0
 40
0
 40
1
 40
1
 40
1
 40
1
 10
2054.674649
 20
1654.842259
 30
0.0
 10
2053.456649
 20
1665.179258
 30
0.0
 10
2049.096649
 20
1670.229258
 30
0.0
 10
2046.663649
 20
1673.682258
 30
0.0
  0
LWPOLYLINE
  5
212
100
AcDbEntity
  8
A0102_Printing_01
 62
1
100
AcDbPolyline
 90
1
 70
1
 10
2062.276648
 20
1619.124260
 30
0.0
  0
SPLINE
  5
213
100
AcDbEntity
  8
A0102_Printing_01
 62
1
100
AcDbSpline
 70
8
 71
3
 72
8
 73
4
 74
0
 40
0
 40
0
 40
0
 40
0
 40
1
 40
1
 40
1
 40
1
 10
2099.854648
 20
1677.777258
 30
0.0
 10
2083.201648
 20
1683.495258
 30
0.0
 10
2070.835648
 20
1669.503258
 30
0.0
 10
2062.599648
 20
1652.850259
 30
0.0
  0
SPLINE
  5
214
100
AcDbEntity
  8
A0102_Printing_01
 62
1
100
AcDbSpline
 70
8
 71
3
 72
8
 73
4
 74
0
 40
0
 40
0
 40
0
 40
0
 40
1
 40
1
 40
1
 40
1
 10
2062.599648
 20
1652.850259
 30
0.0
 10
2061.458648
 20
1653.149259
 30
0.0
 10
2060.304648
 20
1653.445259
 30
0.0
 10
2059.143649
 20
1653.738259
 30
0.0
  0
SPLINE
  5
215
100
AcDbEntity
  8
A0102_Printing_01
 62
1
100
AcDbSpline
 70
8
 71
3
 72
8
 73
4
 74
0
 40
0
 40
0
 40
0
 40
0
 40
1
 40
1
 40
1
 40
1
 10
2059.143649
 20
1653.738259
 30
0.0
 10
2071.655648
 20
1677.173258
 30
0.0
 10
2089.939648
 20
1685.373258
 30
0.0
 10
2099.854648
 20
1677.777258
 30
0.0
  0
LWPOLYLINE
  5
216
100
AcDbEntity
  8
A0102_Printing_01
 62
1
100
AcDbPolyline
 90
1
 70
1
 10
2046.663649
 20
1673.682258
 30
0.0
  0
SPLINE
  5
217
100
AcDbEntity
  8
A0102_Printing_01
 62
1
100
AcDbSpline
 70
8
 71
3
 72
8
 73
4
 74
0
 40
0
 40
0
 40
0
 40
0
 40
1
 40
1
 40
1
 40
1
 10
1578.725661
 20
1637.574259
 30
0.0
 10
1578.593661
 20
1635.362259
 30
0.0
 10
1577.334661
 20
1633.286259
 30
0.0
 10
1575.652661
 20
1631.802259
 30
0.0
  0
SPLINE
  5
218
100
AcDbEntity
  8
A0102_Printing_01
 62
1
100
AcDbSpline
 70
8
 71
3
 72
8
 73
4
 74
0
 40
0
 40
0
 40
0
 40
0
 40
1
 40
1
 40
1
 40
1
 10
1575.652661
 20
1631.802259
 30
0.0
 10
1573.528661
 20
1629.927259
 30
0.0
 10
1570.733661
 20
1629.002259
 30
0.0
 10
1568.014661
 20
1629.046259
 30
0.0
  0
SPLINE
  5
219
100
AcDbEntity
  8
A0102_Printing_01
 62
1
100
AcDbSpline
 70
8
 71
3
 72
8
 73
4
 74
0
 40
0
 40
0
 40
0
 40
0
 40
1
 40
1
 40
1
 40
1
 10
1568.014661
 20
1629.046259
 30
0.0
 10
1566.051661
 20
1629.079259
 30
0.0
 10
1564.128661
 20
1629.622259
 30
0.0
 10
1562.201661
 20
1630.165259
 30
0.0
  0
SPLINE
  5
21a
100
AcDbEntity
  8
A0102_Printing_01
 62
1
100
AcDbSpline
 70
8
 71
3
 72
8
 73
4
 74
0
 40
0
 40
0
 40
0
 40
0
 40
1
 40
1
 40
1
 40
1
 10
1562.201661
 20
1630.165259
 30
0.0
 10
1562.680661
 20
1633.310259
 30
0.0
 10
1561.698661
 20
1636.331259
 30
0.0
 10
1559.462661
 20
1638.596259
 30
0.0
  0
SPLINE
  5
21b
100
AcDbEntity
  8
A0102_Printing_01
 62
1
100
AcDbSpline
 70
8
 71
3
 72
8
 73
4
 74
0
 40
0
 40
0
 40
0
 40
0
 40
1
 40
1
 40
1
 40
1
 10
1559.462661
 20
1638.596259
 30
0.0
 10
1560.701661
 20
1640.165259
 30
0.0
 10
1561.940661
 20
1641.733259
 30
0.0
 10
1563.508661
 20
1642.916259
 30
0.0
  0
SPLINE
  5
21c
100
AcDbEntity
  8
A0102_Printing_01
 62
1
100
AcDbSpline
 70
8
 71
3
 72
8
 73
4
 74
0
 40
0
 40
0
 40
0
 40
0
 40
1
 40
1
 40
1
 40
1
 10
1563.508661
 20
1642.916259
 30
0.0
 10
1565.681661
 20
1644.549259
 30
0.0
 10
1568.488661
 20
1645.446259
 30
0.0
 10
1571.308661
 20
1645.177259
 30
0.0
  0
SPLINE
  5
21d
100
AcDbEntity
  8
A0102_Printing_01
 62
1
100
AcDbSpline
 70
8
 71
3
 72
8
 73
4
 74
0
 40
0
 40
0
 40
0
 40
0
 40
1
 40
1
 40
1
 40
1
 10
1571.308661
 20
1645.177259
 30
0.0
 10
1573.537661
 20
1644.967259
 30
0.0
 10
1575.777661
 20
1644.026259
 30
0.0
 10
1577.189661
 20
1642.313259
 30
0.0
  0
SPLINE
  5
21e
100
AcDbEntity
  8
A0102_Printing_01
 62
1
100
AcDbSpline
 70
8
 71
3
 72
8
 73
4
 74
0
 40
0
 40
0
 40
0
 40
0
 40
1
 40
1
 40
1
 40
1
 10
1577.189661
 20
1642.313259
 30
0.0
 10
1577.724661
 20
1641.661259
 30
0.0
 10
1578.138661
 20
1640.901259
 30
0.0
 10
1578.404661
 20
1640.088259
 30
0.0
  0
SPLINE
  5
21f
100
AcDbEntity
  8
A0102_Printing_01
 62
1
100
AcDbSpline
 70
8
 71
3
 72
8
 73
4
 74
0
 40
0
 40
0
 40
0
 40
0
 40
1
 40
1
 40
1
 40
1
 10
1578.404661
 20
1640.088259
 30
0.0
 10
1578.665661
 20
1639.276259
 30
0.0
 10
1578.778661
 20
1638.415259
 30
0.0
 10
1578.725661
 20
1637.574259
 30
0.0
  0
LWPOLYLINE
  5
220
100
AcDbEntity
  8
A0102_Printing_01
 62
1
100
AcDbPolyline
 90
1
 70
1
 10
2099.854648
 20
1677.777258
 30
0.0
  0
SPLINE
  5
221
100
AcDbEntity
  8
A0102_Printing_01
 62
1
100
AcDbSpline
 70
8
 71
3
 72
8
 73
4
 74
0
 40
0
 40
0
 40
0
 40
0
 40
1
 40
1
 40
1
 40
1
 10
1570.265661
 20
1608.626260
 30
0.0
 10
1569.810661
 20
1607.918260
 30
0.0
 10
1569.215661
 20
1607.286260
 30
0.0
 10
1568.527661
 20
1606.779260
 30
0.0
  0
SPLINE
  5
222
100
AcDbEntity
  8
A0102_Printing_01
 62
1
100
AcDbSpline
 70
8
 71
3
 72
8
 73
4
 74
0
 40
0
 40
0
 40
0
 40
0
 40
1
 40
1
 40
1
 40
1
 10
1568.527661
 20
1606.779260
 30
0.0
 10
1567.835661
 20
1606.280260
 30
0.0
 10
1567.051661
 20
1605.910260
 30
0.0
 10
1566.234661
 20
1605.697260
 30
0.0
  0
SPLINE
  5
223
100
AcDbEntity
  8
A0102_Printing_01
 62
1
100
AcDbSpline
 70
8
 71
3
 72
8
 73
4
 74
0
 40
0
 40
0
 40
0
 40
0
 40
1
 40
1
 40
1
 40
1
 10
1566.234661
 20
1605.697260
 30
0.0
 10
1564.086661
 20
1605.138260
 30
0.0
 10
1561.725661
 20
1605.697260
 30
0.0
 10
1559.794661
 20
1606.835260
 30
0.0
  0
SPLINE
  5
224
100
AcDbEntity
  8
A0102_Printing_01
 62
1
100
AcDbSpline
 70
8
 71
3
 72
8
 73
4
 74
0
 40
0
 40
0
 40
0
 40
0
 40
1
 40
1
 40
1
 40
1
 10
1559.794661
 20
1606.835260
 30
0.0
 10
1557.353661
 20
1608.280260
 30
0.0
 10
1555.611661
 20
1610.653260
 30
0.0
 10
1554.814661
 20
1613.247260
 30
0.0
  0
SPLINE
  5
225
100
AcDbEntity
  8
A0102_Printing_01
 62
1
100
AcDbSpline
 70
8
 71
3
 72
8
 73
4
 74
0
 40
0
 40
0
 40
0
 40
0
 40
1
 40
1
 40
1
 40
1
 10
1554.814661
 20
1613.247260
 30
0.0
 10
1554.239661
 20
1615.130260
 30
0.0
 10
1554.159661
 20
1617.125260
 30
0.0
 10
1554.082661
 20
1619.124260
 30
0.0
  0
SPLINE
  5
226
100
AcDbEntity
  8
A0102_Printing_01
 62
1
100
AcDbSpline
 70
8
 71
3
 72
8
 73
4
 74
0
 40
0
 40
0
 40
0
 40
0
 40
1
 40
1
 40
1
 40
1
 10
1554.082661
 20
1619.124260
 30
0.0
 10
1557.216661
 20
1619.639260
 30
0.0
 10
1559.790661
 20
1621.509259
 30
0.0
 10
1561.254661
 20
1624.333259
 30
0.0
  0
SPLINE
  5
227
100
AcDbEntity
  8
A0102_Printing_01
 62
1
100
AcDbSpline
 70
8
 71
3
 72
8
 73
4
 74
0
 40
0
 40
0
 40
0
 40
0
 40
1
 40
1
 40
1
 40
1
 10
1561.254661
 20
1624.333259
 30
0.0
 10
1563.129661
 20
1623.641259
 30
0.0
 10
1565.003661
 20
1622.949259
 30
0.0
 10
1566.612661
 20
1621.819259
 30
0.0
  0
SPLINE
  5
228
100
AcDbEntity
  8
A0102_Printing_01
 62
1
100
AcDbSpline
 70
8
 71
3
 72
8
 73
4
 74
0
 40
0
 40
0
 40
0
 40
0
 40
1
 40
1
 40
1
 40
1
 10
1566.612661
 20
1621.819259
 30
0.0
 10
1568.837661
 20
1620.262259
 30
0.0
 10
1570.554661
 20
1617.869260
 30
0.0
 10
1571.170661
 20
1615.102260
 30
0.0
  0
SPLINE
  5
229
100
AcDbEntity
  8
A0102_Printing_01
 62
1
100
AcDbSpline
 70
8
 71
3
 72
8
 73
4
 74
0
 40
0
 40
0
 40
0
 40
0
 40
1
 40
1
 40
1
 40
1
 10
1571.170661
 20
1615.102260
 30
0.0
 10
1571.661661
 20
1612.918260
 30
0.0
 10
1571.459661
 20
1610.496260
 30
0.0
 10
1570.265661
 20
1608.626260
 30
0.0
  0
LWPOLYLINE
  5
22a
100
AcDbEntity
  8
A0102_Printing_01
 62
1
100
AcDbPolyline
 90
1
 70
1
 10
1578.725661
 20
1637.574259
 30
0.0
  0
SPLINE
  5
22b
100
AcDbEntity
  8
A0102_Printing_01
 62
1
100
AcDbSpline
 70
8
 71
3
 72
8
 73
4
 74
0
 40
0
 40
0
 40
0
 40
0
 40
1
 40
1
 40
1
 40
1
 10
1543.431661
 20
1630.679259
 30
0.0
 10
1543.431661
 20
1634.609259
 30
0.0
 10
1546.618661
 20
1637.795259
 30
0.0
 10
1550.548661
 20
1637.795259
 30
0.0
  0
SPLINE
  5
22c
100
AcDbEntity
  8
A0102_Printing_01
 62
1
100
AcDbSpline
 70
8
 71
3
 72
8
 73
4
 74
0
 40
0
 40
0
 40
0
 40
0
 40
1
 40
1
 40
1
 40
1
 10
1550.548661
 20
1637.795259
 30
0.0
 10
1554.478661
 20
1637.795259
 30
0.0
 10
1557.664661
 20
1634.609259
 30
0.0
 10
1557.664661
 20
1630.679259
 30
0.0
  0
SPLINE
  5
22d
100
AcDbEntity
  8
A0102_Printing_01
 62
1
100
AcDbSpline
 70
8
 71
3
 72
8
 73
4
 74
0
 40
0
 40
0
 40
0
 40
0
 40
1
 40
1
 40
1
 40
1
 10
1557.664661
 20
1630.679259
 30
0.0
 10
1557.664661
 20
1626.749259
 30
0.0
 10
1554.478661
 20
1623.562259
 30
0.0
 10
1550.548661
 20
1623.562259
 30
0.0
  0
SPLINE
  5
22e
100
AcDbEntity
  8
A0102_Printing_01
 62
1
100
AcDbSpline
 70
8
 71
3
 72
8
 73
4
 74
0
 40
0
 40
0
 40
0
 40
0
 40
1
 40
1
 40
1
 40
1
 10
1550.548661
 20
1623.562259
 30
0.0
 10
1546.618661
 20
1623.562259
 30
0.0
 10
1543.431661
 20
1626.749259
 30
0.0
 10
1543.431661
 20
1630.679259
 30
0.0
  0
LWPOLYLINE
  5
22f
100
AcDbEntity
  8
A0102_Printing_01
 62
1
100
AcDbPolyline
 90
1
 70
1
 10
1570.265661
 20
1608.626260
 30
0.0
  0
SPLINE
  5
230
100
AcDbEntity
  8
A0102_Printing_01
 62
1
100
AcDbSpline
 70
8
 71
3
 72
8
 73
4
 74
0
 40
0
 40
0
 40
0
 40
0
 40
1
 40
1
 40
1
 40
1
 10
1546.983661
 20
1613.949260
 30
0.0
 10
1546.187661
 20
1611.355260
 30
0.0
 10
1544.441661
 20
1608.982260
 30
0.0
 10
1542.004661
 20
1607.538260
 30
0.0
  0
SPLINE
  5
231
100
AcDbEntity
  8
A0102_Printing_01
 62
1
100
AcDbSpline
 70
8
 71
3
 72
8
 73
4
 74
0
 40
0
 40
0
 40
0
 40
0
 40
1
 40
1
 40
1
 40
1
 10
1542.004661
 20
1607.538260
 30
0.0
 10
1540.073661
 20
1606.399260
 30
0.0
 10
1537.712662
 20
1605.840260
 30
0.0
 10
1535.564662
 20
1606.399260
 30
0.0
  0
SPLINE
  5
232
100
AcDbEntity
  8
A0102_Printing_01
 62
1
100
AcDbSpline
 70
8
 71
3
 72
8
 73
4
 74
0
 40
0
 40
0
 40
0
 40
0
 40
1
 40
1
 40
1
 40
1
 10
1535.564662
 20
1606.399260
 30
0.0
 10
1534.747662
 20
1606.613260
 30
0.0
 10
1533.963662
 20
1606.983260
 30
0.0
 10
1533.271662
 20
1607.481260
 30
0.0
  0
SPLINE
  5
233
100
AcDbEntity
  8
A0102_Printing_01
 62
1
100
AcDbSpline
 70
8
 71
3
 72
8
 73
4
 74
0
 40
0
 40
0
 40
0
 40
0
 40
1
 40
1
 40
1
 40
1
 10
1533.271662
 20
1607.481260
 30
0.0
 10
1532.583662
 20
1607.988260
 30
0.0
 10
1531.988662
 20
1608.620260
 30
0.0
 10
1531.533662
 20
1609.328260
 30
0.0
  0
SPLINE
  5
234
100
AcDbEntity
  8
A0102_Printing_01
 62
1
100
AcDbSpline
 70
8
 71
3
 72
8
 73
4
 74
0
 40
0
 40
0
 40
0
 40
0
 40
1
 40
1
 40
1
 40
1
 10
1531.533662
 20
1609.328260
 30
0.0
 10
1530.338662
 20
1611.198260
 30
0.0
 10
1530.137662
 20
1613.620260
 30
0.0
 10
1530.624662
 20
1615.804260
 30
0.0
  0
SPLINE
  5
235
100
AcDbEntity
  8
A0102_Printing_01
 62
1
100
AcDbSpline
 70
8
 71
3
 72
8
 73
4
 74
0
 40
0
 40
0
 40
0
 40
0
 40
1
 40
1
 40
1
 40
1
 10
1530.624662
 20
1615.804260
 30
0.0
 10
1531.243662
 20
1618.571260
 30
0.0
 10
1532.961662
 20
1620.965259
 30
0.0
 10
1535.185662
 20
1622.522259
 30
0.0
  0
SPLINE
  5
236
100
AcDbEntity
  8
A0102_Printing_01
 62
1
100
AcDbSpline
 70
8
 71
3
 72
8
 73
4
 74
0
 40
0
 40
0
 40
0
 40
0
 40
1
 40
1
 40
1
 40
1
 10
1535.185662
 20
1622.522259
 30
0.0
 10
1536.794662
 20
1623.652259
 30
0.0
 10
1538.669662
 20
1624.344259
 30
0.0
 10
1540.543661
 20
1625.035259
 30
0.0
  0
SPLINE
  5
237
100
AcDbEntity
  8
A0102_Printing_01
 62
1
100
AcDbSpline
 70
8
 71
3
 72
8
 73
4
 74
0
 40
0
 40
0
 40
0
 40
0
 40
1
 40
1
 40
1
 40
1
 10
1540.543661
 20
1625.035259
 30
0.0
 10
1542.008661
 20
1622.212259
 30
0.0
 10
1544.578661
 20
1620.341259
 30
0.0
 10
1547.715661
 20
1619.826260
 30
0.0
  0
SPLINE
  5
238
100
AcDbEntity
  8
A0102_Printing_01
 62
1
100
AcDbSpline
 70
8
 71
3
 72
8
 73
4
 74
0
 40
0
 40
0
 40
0
 40
0
 40
1
 40
1
 40
1
 40
1
 10
1547.715661
 20
1619.826260
 30
0.0
 10
1547.639661
 20
1617.827260
 30
0.0
 10
1547.559661
 20
1615.832260
 30
0.0
 10
1546.983661
 20
1613.949260
 30
0.0
  0
LWPOLYLINE
  5
239
100
AcDbEntity
  8
A0102_Printing_01
 62
1
100
AcDbPolyline
 90
1
 70
1
 10
1543.431661
 20
1630.679259
 30
0.0
  0
LWPOLYLINE
  5
23a
100
AcDbEntity
  8
A0102_Printing_01
 62
1
100
AcDbPolyline
 90
1
 70
1
 10
1546.983661
 20
1613.949260
 30
0.0
  0
LWPOLYLINE
  5
23b
100
AcDbEntity
  8
A0102_Printing_01
 62
1
100
AcDbPolyline
 90
4
 70
1
 10
1542.172661
 20
1428.729264
 30
0.0
 10
1527.999662
 20
1428.729264
 30
0.0
 10
1527.999662
 20
1485.422263
 30
0.0
 10
1542.172661
 20
1485.422263
 30
0.0
  0
LWPOLYLINE
  5
23c
100
AcDbEntity
  8
A0102_Printing_01
 62
1
100
AcDbPolyline
 90
4
 70
1
 10
1542.172661
 20
1213.295270
 30
0.0
 10
1527.999662
 20
1213.295270
 30
0.0
 10
1527.999662
 20
1269.988268
 30
0.0
 10
1542.172661
 20
1269.988268
 30
0.0
  0
LWPOLYLINE
  5
23d
100
AcDbEntity
  8
A0102_Printing_01
 62
1
100
AcDbPolyline
 90
4
 70
1
 10
1542.172661
 20
997.862275
 30
0.0
 10
1527.999662
 20
997.862275
 30
0.0
 10
1527.999662
 20
1054.555274
 30
0.0
 10
1542.172661
 20
1054.555274
 30
0.0
  0
SPLINE
  5
23e
100
AcDbEntity
  8
A0102_Printing_01
 62
1
100
AcDbSpline
 70
8
 71
3
 72
8
 73
4
 74
0
 40
0
 40
0
 40
0
 40
0
 40
1
 40
1
 40
1
 40
1
 10
1522.370662
 20
1637.574259
 30
0.0
 10
1522.318662
 20
1638.415259
 30
0.0
 10
1522.430662
 20
1639.276259
 30
0.0
 10
1522.692662
 20
1640.088259
 30
0.0
  0
SPLINE
  5
23f
100
AcDbEntity
  8
A0102_Printing_01
 62
1
100
AcDbSpline
 70
8
 71
3
 72
8
 73
4
 74
0
 40
0
 40
0
 40
0
 40
0
 40
1
 40
1
 40
1
 40
1
 10
1522.692662
 20
1640.088259
 30
0.0
 10
1522.957662
 20
1640.901259
 30
0.0
 10
1523.372662
 20
1641.661259
 30
0.0
 10
1523.907662
 20
1642.313259
 30
0.0
  0
SPLINE
  5
240
100
AcDbEntity
  8
A0102_Printing_01
 62
1
100
AcDbSpline
 70
8
 71
3
 72
8
 73
4
 74
0
 40
0
 40
0
 40
0
 40
0
 40
1
 40
1
 40
1
 40
1
 10
1523.907662
 20
1642.313259
 30
0.0
 10
1525.319662
 20
1644.026259
 30
0.0
 10
1527.559662
 20
1644.967259
 30
0.0
 10
1529.787662
 20
1645.177259
 30
0.0
  0
SPLINE
  5
241
100
AcDbEntity
  8
A0102_Printing_01
 62
1
100
AcDbSpline
 70
8
 71
3
 72
8
 73
4
 74
0
 40
0
 40
0
 40
0
 40
0
 40
1
 40
1
 40
1
 40
1
 10
1529.787662
 20
1645.177259
 30
0.0
 10
1532.607662
 20
1645.446259
 30
0.0
 10
1535.415662
 20
1644.549259
 30
0.0
 10
1537.587662
 20
1642.916259
 30
0.0
  0
SPLINE
  5
242
100
AcDbEntity
  8
A0102_Printing_01
 62
1
100
AcDbSpline
 70
8
 71
3
 72
8
 73
4
 74
0
 40
0
 40
0
 40
0
 40
0
 40
1
 40
1
 40
1
 40
1
 10
1537.587662
 20
1642.916259
 30
0.0
 10
1539.156662
 20
1641.733259
 30
0.0
 10
1540.395661
 20
1640.165259
 30
0.0
 10
1541.634661
 20
1638.596259
 30
0.0
  0
SPLINE
  5
243
100
AcDbEntity
  8
A0102_Printing_01
 62
1
100
AcDbSpline
 70
8
 71
3
 72
8
 73
4
 74
0
 40
0
 40
0
 40
0
 40
0
 40
1
 40
1
 40
1
 40
1
 10
1541.634661
 20
1638.596259
 30
0.0
 10
1539.397662
 20
1636.331259
 30
0.0
 10
1538.416662
 20
1633.310259
 30
0.0
 10
1538.890662
 20
1630.165259
 30
0.0
  0
SPLINE
  5
244
100
AcDbEntity
  8
A0102_Printing_01
 62
1
100
AcDbSpline
 70
8
 71
3
 72
8
 73
4
 74
0
 40
0
 40
0
 40
0
 40
0
 40
1
 40
1
 40
1
 40
1
 10
1538.890662
 20
1630.165259
 30
0.0
 10
1536.968662
 20
1629.622259
 30
0.0
 10
1535.045662
 20
1629.079259
 30
0.0
 10
1533.078662
 20
1629.046259
 30
0.0
  0
SPLINE
  5
245
100
AcDbEntity
  8
A0102_Printing_01
 62
1
100
AcDbSpline
 70
8
 71
3
 72
8
 73
4
 74
0
 40
0
 40
0
 40
0
 40
0
 40
1
 40
1
 40
1
 40
1
 10
1533.078662
 20
1629.046259
 30
0.0
 10
1530.363662
 20
1629.002259
 30
0.0
 10
1527.567662
 20
1629.927259
 30
0.0
 10
1525.443662
 20
1631.802259
 30
0.0
  0
SPLINE
  5
246
100
AcDbEntity
  8
A0102_Printing_01
 62
1
100
AcDbSpline
 70
8
 71
3
 72
8
 73
4
 74
0
 40
0
 40
0
 40
0
 40
0
 40
1
 40
1
 40
1
 40
1
 10
1525.443662
 20
1631.802259
 30
0.0
 10
1523.762662
 20
1633.286259
 30
0.0
 10
1522.503662
 20
1635.362259
 30
0.0
 10
1522.370662
 20
1637.574259
 30
0.0
  0
LWPOLYLINE
  5
247
100
AcDbEntity
  8
A0102_Printing_01
 62
1
100
AcDbPolyline
 90
4
 70
1
 10
1542.172661
 20
782.429280
 30
0.0
 10
1527.999662
 20
782.429280
 30
0.0
 10
1527.999662
 20
839.122279
 30
0.0
 10
1542.172661
 20
839.122279
 30
0.0
  0
SPLINE
  5
248
100
AcDbEntity
  8
A0102_Printing_01
 62
1
100
AcDbSpline
 70
8
 71
3
 72
8
 73
4
 74
0
 40
0
 40
0
 40
0
 40
0
 40
1
 40
1
 40
1
 40
1
 10
1543.515661
 20
1654.819259
 30
0.0
 10
1544.407661
 20
1656.878259
 30
0.0
 10
1545.992661
 20
1658.716259
 30
0.0
 10
1548.056661
 20
1659.529259
 30
0.0
  0
SPLINE
  5
249
100
AcDbEntity
  8
A0102_Printing_01
 62
1
100
AcDbSpline
 70
8
 71
3
 72
8
 73
4
 74
0
 40
0
 40
0
 40
0
 40
0
 40
1
 40
1
 40
1
 40
1
 10
1548.056661
 20
1659.529259
 30
0.0
 10
1548.840661
 20
1659.835259
 30
0.0
 10
1549.693661
 20
1659.996259
 30
0.0
 10
1550.546661
 20
1660.000258
 30
0.0
  0
SPLINE
  5
24a
100
AcDbEntity
  8
A0102_Printing_01
 62
1
100
AcDbSpline
 70
8
 71
3
 72
8
 73
4
 74
0
 40
0
 40
0
 40
0
 40
0
 40
1
 40
1
 40
1
 40
1
 10
1550.546661
 20
1660.000258
 30
0.0
 10
1551.403661
 20
1659.996259
 30
0.0
 10
1552.255661
 20
1659.835259
 30
0.0
 10
1553.040661
 20
1659.529259
 30
0.0
  0
SPLINE
  5
24b
100
AcDbEntity
  8
A0102_Printing_01
 62
1
100
AcDbSpline
 70
8
 71
3
 72
8
 73
4
 74
0
 40
0
 40
0
 40
0
 40
0
 40
1
 40
1
 40
1
 40
1
 10
1553.040661
 20
1659.529259
 30
0.0
 10
1555.103661
 20
1658.716259
 30
0.0
 10
1556.688661
 20
1656.878259
 30
0.0
 10
1557.581661
 20
1654.819259
 30
0.0
  0
SPLINE
  5
24c
100
AcDbEntity
  8
A0102_Printing_01
 62
1
100
AcDbSpline
 70
8
 71
3
 72
8
 73
4
 74
0
 40
0
 40
0
 40
0
 40
0
 40
1
 40
1
 40
1
 40
1
 10
1557.581661
 20
1654.819259
 30
0.0
 10
1558.707661
 20
1652.220259
 30
0.0
 10
1558.723661
 20
1649.276259
 30
0.0
 10
1557.839661
 20
1646.705259
 30
0.0
  0
SPLINE
  5
24d
100
AcDbEntity
  8
A0102_Printing_01
 62
1
100
AcDbSpline
 70
8
 71
3
 72
8
 73
4
 74
0
 40
0
 40
0
 40
0
 40
0
 40
1
 40
1
 40
1
 40
1
 10
1557.839661
 20
1646.705259
 30
0.0
 10
1557.199661
 20
1644.847259
 30
0.0
 10
1556.089661
 20
1643.186259
 30
0.0
 10
1554.983661
 20
1641.524259
 30
0.0
  0
SPLINE
  5
24e
100
AcDbEntity
  8
A0102_Printing_01
 62
1
100
AcDbSpline
 70
8
 71
3
 72
8
 73
4
 74
0
 40
0
 40
0
 40
0
 40
0
 40
1
 40
1
 40
1
 40
1
 10
1554.983661
 20
1641.524259
 30
0.0
 10
1552.139661
 20
1642.948259
 30
0.0
 10
1548.957661
 20
1642.948259
 30
0.0
 10
1546.113661
 20
1641.524259
 30
0.0
  0
SPLINE
  5
24f
100
AcDbEntity
  8
A0102_Printing_01
 62
1
100
AcDbSpline
 70
8
 71
3
 72
8
 73
4
 74
0
 40
0
 40
0
 40
0
 40
0
 40
1
 40
1
 40
1
 40
1
 10
1546.113661
 20
1641.524259
 30
0.0
 10
1545.007661
 20
1643.186259
 30
0.0
 10
1543.897661
 20
1644.847259
 30
0.0
 10
1543.257661
 20
1646.705259
 30
0.0
  0
SPLINE
  5
250
100
AcDbEntity
  8
A0102_Printing_01
 62
1
100
AcDbSpline
 70
8
 71
3
 72
8
 73
4
 74
0
 40
0
 40
0
 40
0
 40
0
 40
1
 40
1
 40
1
 40
1
 10
1543.257661
 20
1646.705259
 30
0.0
 10
1542.372661
 20
1649.276259
 30
0.0
 10
1542.388661
 20
1652.220259
 30
0.0
 10
1543.515661
 20
1654.819259
 30
0.0
  0
LWPOLYLINE
  5
251
100
AcDbEntity
  8
A0102_Printing_01
 62
1
100
AcDbPolyline
 90
1
 70
1
 10
1522.370662
 20
1637.574259
 30
0.0
  0
SPLINE
  5
252
100
AcDbEntity
  8
A0102_Printing_01
 62
1
100
AcDbSpline
 70
8
 71
3
 72
8
 73
4
 74
0
 40
0
 40
0
 40
0
 40
0
 40
1
 40
1
 40
1
 40
1
 10
2311.775642
 20
1614.398260
 30
0.0
 10
2305.209642
 20
1646.744259
 30
0.0
 10
2276.613643
 20
1671.091258
 30
0.0
 10
2242.329644
 20
1671.091258
 30
0.0
  0
SPLINE
  5
253
100
AcDbEntity
  8
A0102_Printing_01
 62
1
100
AcDbSpline
 70
8
 71
3
 72
8
 73
4
 74
0
 40
0
 40
0
 40
0
 40
0
 40
1
 40
1
 40
1
 40
1
 10
2242.329644
 20
1671.091258
 30
0.0
 10
2232.096644
 20
1671.091258
 30
0.0
 10
2222.378644
 20
1668.908258
 30
0.0
 10
2213.593645
 20
1665.004258
 30
0.0
  0
SPLINE
  5
254
100
AcDbEntity
  8
A0102_Printing_01
 62
1
100
AcDbSpline
 70
8
 71
3
 72
8
 73
4
 74
0
 40
0
 40
0
 40
0
 40
0
 40
1
 40
1
 40
1
 40
1
 10
2213.593645
 20
1665.004258
 30
0.0
 10
2213.286645
 20
1668.789258
 30
0.0
 10
2212.097645
 20
1672.714258
 30
0.0
 10
2210.007645
 20
1676.406258
 30
0.0
  0
SPLINE
  5
255
100
AcDbEntity
  8
A0102_Printing_01
 62
1
100
AcDbSpline
 70
8
 71
3
 72
8
 73
4
 74
0
 40
0
 40
0
 40
0
 40
0
 40
1
 40
1
 40
1
 40
1
 10
2210.007645
 20
1676.406258
 30
0.0
 10
2205.001645
 20
1685.122258
 30
0.0
 10
2193.006645
 20
1691.853258
 30
0.0
 10
2183.514645
 20
1690.213258
 30
0.0
  0
SPLINE
  5
256
100
AcDbEntity
  8
A0102_Printing_01
 62
1
100
AcDbSpline
 70
8
 71
3
 72
8
 73
4
 74
0
 40
0
 40
0
 40
0
 40
0
 40
1
 40
1
 40
1
 40
1
 10
2183.514645
 20
1690.213258
 30
0.0
 10
2150.088646
 20
1687.396258
 30
0.0
 10
2161.863646
 20
1646.493259
 30
0.0
 10
2119.990647
 20
1630.384259
 30
0.0
  0
SPLINE
  5
257
100
AcDbEntity
  8
A0102_Printing_01
 62
1
100
AcDbSpline
 70
8
 71
3
 72
8
 73
4
 74
0
 40
0
 40
0
 40
0
 40
0
 40
1
 40
1
 40
1
 40
1
 10
2119.990647
 20
1630.384259
 30
0.0
 10
2107.971647
 20
1637.799259
 30
0.0
 10
2091.660648
 20
1644.511259
 30
0.0
 10
2071.989648
 20
1650.249259
 30
0.0
  0
SPLINE
  5
258
100
AcDbEntity
  8
A0102_Printing_01
 62
1
100
AcDbSpline
 70
8
 71
3
 72
8
 73
4
 74
0
 40
0
 40
0
 40
0
 40
0
 40
1
 40
1
 40
1
 40
1
 10
2071.989648
 20
1650.249259
 30
0.0
 10
2084.919648
 20
1660.052258
 30
0.0
 10
2097.123648
 20
1660.841258
 30
0.0
 10
2105.372647
 20
1656.131259
 30
0.0
  0
SPLINE
  5
259
100
AcDbEntity
  8
A0102_Printing_01
 62
1
100
AcDbSpline
 70
8
 71
3
 72
8
 73
4
 74
0
 40
0
 40
0
 40
0
 40
0
 40
1
 40
1
 40
1
 40
1
 10
2105.372647
 20
1656.131259
 30
0.0
 10
2109.035647
 20
1654.192259
 30
0.0
 10
2111.327647
 20
1652.268259
 30
0.0
 10
2115.184647
 20
1647.667259
 30
0.0
  0
SPLINE
  5
25a
100
AcDbEntity
  8
A0102_Printing_01
 62
1
100
AcDbSpline
 70
8
 71
3
 72
8
 73
4
 74
0
 40
0
 40
0
 40
0
 40
0
 40
1
 40
1
 40
1
 40
1
 10
2115.184647
 20
1647.667259
 30
0.0
 10
2116.603647
 20
1668.656258
 30
0.0
 10
2097.805648
 20
1671.964258
 30
0.0
 10
2086.686648
 20
1663.700258
 30
0.0
  0
SPLINE
  5
25b
100
AcDbEntity
  8
A0102_Printing_01
 62
1
100
AcDbSpline
 70
8
 71
3
 72
8
 73
4
 74
0
 40
0
 40
0
 40
0
 40
0
 40
1
 40
1
 40
1
 40
1
 10
2086.686648
 20
1663.700258
 30
0.0
 10
2095.314648
 20
1665.995258
 30
0.0
 10
2102.524647
 20
1664.563258
 30
0.0
 10
2106.972647
 20
1660.046258
 30
0.0
  0
SPLINE
  5
25c
100
AcDbEntity
  8
A0102_Printing_01
 62
1
100
AcDbSpline
 70
8
 71
3
 72
8
 73
4
 74
0
 40
0
 40
0
 40
0
 40
0
 40
1
 40
1
 40
1
 40
1
 10
2106.972647
 20
1660.046258
 30
0.0
 10
2103.128647
 20
1662.788258
 30
0.0
 10
2086.328648
 20
1669.228258
 30
0.0
 10
2069.892648
 20
1650.857259
 30
0.0
  0
SPLINE
  5
25d
100
AcDbEntity
  8
A0102_Printing_01
 62
1
100
AcDbSpline
 70
8
 71
3
 72
8
 73
4
 74
0
 40
0
 40
0
 40
0
 40
0
 40
1
 40
1
 40
1
 40
1
 10
2069.892648
 20
1650.857259
 30
0.0
 10
2068.884648
 20
1651.144259
 30
0.0
 10
2067.863648
 20
1651.427259
 30
0.0
 10
2066.838648
 20
1651.709259
 30
0.0
  0
SPLINE
  5
25e
100
AcDbEntity
  8
A0102_Printing_01
 62
1
100
AcDbSpline
 70
8
 71
3
 72
8
 73
4
 74
0
 40
0
 40
0
 40
0
 40
0
 40
1
 40
1
 40
1
 40
1
 10
2066.838648
 20
1651.709259
 30
0.0
 10
2079.296648
 20
1664.722258
 30
0.0
 10
2095.546648
 20
1676.136258
 30
0.0
 10
2125.216647
 20
1667.470258
 30
0.0
  0
SPLINE
  5
25f
100
AcDbEntity
  8
A0102_Printing_01
 62
1
100
AcDbSpline
 70
8
 71
3
 72
8
 73
4
 74
0
 40
0
 40
0
 40
0
 40
0
 40
1
 40
1
 40
1
 40
1
 10
2125.216647
 20
1667.470258
 30
0.0
 10
2105.082647
 20
1694.866258
 30
0.0
 10
2082.579648
 20
1696.058258
 30
0.0
 10
2068.793648
 20
1679.284258
 30
0.0
  0
SPLINE
  5
260
100
AcDbEntity
  8
A0102_Printing_01
 62
1
100
AcDbSpline
 70
8
 71
3
 72
8
 73
4
 74
0
 40
0
 40
0
 40
0
 40
0
 40
1
 40
1
 40
1
 40
1
 10
2068.793648
 20
1679.284258
 30
0.0
 10
2070.599648
 20
1686.218258
 30
0.0
 10
2072.492648
 20
1693.378258
 30
0.0
 10
2078.900648
 20
1700.263257
 30
0.0
  0
SPLINE
  5
261
100
AcDbEntity
  8
A0102_Printing_01
 62
1
100
AcDbSpline
 70
8
 71
3
 72
8
 73
4
 74
0
 40
0
 40
0
 40
0
 40
0
 40
1
 40
1
 40
1
 40
1
 10
2078.900648
 20
1700.263257
 30
0.0
 10
2060.877648
 20
1702.804257
 30
0.0
 10
2048.777649
 20
1693.088258
 30
0.0
 10
2051.170649
 20
1676.500258
 30
0.0
  0
SPLINE
  5
262
100
AcDbEntity
  8
A0102_Printing_01
 62
1
100
AcDbSpline
 70
8
 71
3
 72
8
 73
4
 74
0
 40
0
 40
0
 40
0
 40
0
 40
1
 40
1
 40
1
 40
1
 10
2051.170649
 20
1676.500258
 30
0.0
 10
2047.248649
 20
1681.347258
 30
0.0
 10
2041.288649
 20
1683.903258
 30
0.0
 10
2033.940649
 20
1679.131258
 30
0.0
  0
SPLINE
  5
263
100
AcDbEntity
  8
A0102_Printing_01
 62
1
100
AcDbSpline
 70
8
 71
3
 72
8
 73
4
 74
0
 40
0
 40
0
 40
0
 40
0
 40
1
 40
1
 40
1
 40
1
 10
2033.940649
 20
1679.131258
 30
0.0
 10
2041.022649
 20
1675.046258
 30
0.0
 10
2048.224649
 20
1663.881258
 30
0.0
 10
2052.735649
 20
1655.299259
 30
0.0
  0
SPLINE
  5
264
100
AcDbEntity
  8
A0102_Printing_01
 62
1
100
AcDbSpline
 70
8
 71
3
 72
8
 73
4
 74
0
 40
0
 40
0
 40
0
 40
0
 40
1
 40
1
 40
1
 40
1
 10
2052.735649
 20
1655.299259
 30
0.0
 10
2010.842650
 20
1665.172258
 30
0.0
 10
1957.471651
 20
1671.091258
 30
0.0
 10
1899.337653
 20
1671.091258
 30
0.0
  0
SPLINE
  5
265
100
AcDbEntity
  8
A0102_Printing_01
 62
1
100
AcDbSpline
 70
8
 71
3
 72
8
 73
4
 74
0
 40
0
 40
0
 40
0
 40
0
 40
1
 40
1
 40
1
 40
1
 10
1899.337653
 20
1671.091258
 30
0.0
 10
1845.211654
 20
1671.091258
 30
0.0
 10
1795.213655
 20
1665.960258
 30
0.0
 10
1754.763656
 20
1657.284259
 30
0.0
  0
SPLINE
  5
266
100
AcDbEntity
  8
A0102_Printing_01
 62
1
100
AcDbSpline
 70
8
 71
3
 72
8
 73
4
 74
0
 40
0
 40
0
 40
0
 40
0
 40
1
 40
1
 40
1
 40
1
 10
1754.763656
 20
1657.284259
 30
0.0
 10
1759.295656
 20
1665.528258
 30
0.0
 10
1765.944656
 20
1675.355258
 30
0.0
 10
1772.491656
 20
1679.131258
 30
0.0
  0
SPLINE
  5
267
100
AcDbEntity
  8
A0102_Printing_01
 62
1
100
AcDbSpline
 70
8
 71
3
 72
8
 73
4
 74
0
 40
0
 40
0
 40
0
 40
0
 40
1
 40
1
 40
1
 40
1
 10
1772.491656
 20
1679.131258
 30
0.0
 10
1765.513656
 20
1683.663258
 30
0.0
 10
1759.786656
 20
1681.588258
 30
0.0
 10
1755.867656
 20
1677.217258
 30
0.0
  0
SPLINE
  5
268
100
AcDbEntity
  8
A0102_Printing_01
 62
1
100
AcDbSpline
 70
8
 71
3
 72
8
 73
4
 74
0
 40
0
 40
0
 40
0
 40
0
 40
1
 40
1
 40
1
 40
1
 10
1755.867656
 20
1677.217258
 30
0.0
 10
1757.814656
 20
1693.368258
 30
0.0
 10
1745.799656
 20
1702.767257
 30
0.0
 10
1728.037657
 20
1700.263257
 30
0.0
  0
SPLINE
  5
269
100
AcDbEntity
  8
A0102_Printing_01
 62
1
100
AcDbSpline
 70
8
 71
3
 72
8
 73
4
 74
0
 40
0
 40
0
 40
0
 40
0
 40
1
 40
1
 40
1
 40
1
 10
1728.037657
 20
1700.263257
 30
0.0
 10
1734.738657
 20
1693.063258
 30
0.0
 10
1736.501657
 20
1685.561258
 30
0.0
 10
1738.392657
 20
1678.333258
 30
0.0
  0
SPLINE
  5
26a
100
AcDbEntity
  8
A0102_Printing_01
 62
1
100
AcDbSpline
 70
8
 71
3
 72
8
 73
4
 74
0
 40
0
 40
0
 40
0
 40
0
 40
1
 40
1
 40
1
 40
1
 10
1738.392657
 20
1678.333258
 30
0.0
 10
1724.683657
 20
1696.090258
 30
0.0
 10
1701.721657
 20
1695.372258
 30
0.0
 10
1681.215658
 20
1667.470258
 30
0.0
  0
SPLINE
  5
26b
100
AcDbEntity
  8
A0102_Printing_01
 62
1
100
AcDbSpline
 70
8
 71
3
 72
8
 73
4
 74
0
 40
0
 40
0
 40
0
 40
0
 40
1
 40
1
 40
1
 40
1
 10
1681.215658
 20
1667.470258
 30
0.0
 10
1709.634657
 20
1675.771258
 30
0.0
 10
1725.740657
 20
1665.648258
 30
0.0
 10
1737.996657
 20
1653.345259
 30
0.0
  0
SPLINE
  5
26c
100
AcDbEntity
  8
A0102_Printing_01
 62
1
100
AcDbSpline
 70
8
 71
3
 72
8
 73
4
 74
0
 40
0
 40
0
 40
0
 40
0
 40
1
 40
1
 40
1
 40
1
 10
1737.996657
 20
1653.345259
 30
0.0
 10
1736.975657
 20
1653.083259
 30
0.0
 10
1735.962657
 20
1652.818259
 30
0.0
 10
1734.957657
 20
1652.551259
 30
0.0
  0
SPLINE
  5
26d
100
AcDbEntity
  8
A0102_Printing_01
 62
1
100
AcDbSpline
 70
8
 71
3
 72
8
 73
4
 74
0
 40
0
 40
0
 40
0
 40
0
 40
1
 40
1
 40
1
 40
1
 10
1734.957657
 20
1652.551259
 30
0.0
 10
1719.039657
 20
1668.819258
 30
0.0
 10
1703.180657
 20
1662.700258
 30
0.0
 10
1699.459658
 20
1660.046258
 30
0.0
  0
SPLINE
  5
26e
100
AcDbEntity
  8
A0102_Printing_01
 62
1
100
AcDbSpline
 70
8
 71
3
 72
8
 73
4
 74
0
 40
0
 40
0
 40
0
 40
0
 40
1
 40
1
 40
1
 40
1
 10
1699.459658
 20
1660.046258
 30
0.0
 10
1703.907657
 20
1664.563258
 30
0.0
 10
1711.117657
 20
1665.995258
 30
0.0
 10
1719.745657
 20
1663.700258
 30
0.0
  0
SPLINE
  5
26f
100
AcDbEntity
  8
A0102_Printing_01
 62
1
100
AcDbSpline
 70
8
 71
3
 72
8
 73
4
 74
0
 40
0
 40
0
 40
0
 40
0
 40
1
 40
1
 40
1
 40
1
 10
1719.745657
 20
1663.700258
 30
0.0
 10
1708.626657
 20
1671.964258
 30
0.0
 10
1689.828658
 20
1668.656258
 30
0.0
 10
1691.247658
 20
1647.667259
 30
0.0
  0
SPLINE
  5
270
100
AcDbEntity
  8
A0102_Printing_01
 62
1
100
AcDbSpline
 70
8
 71
3
 72
8
 73
4
 74
0
 40
0
 40
0
 40
0
 40
0
 40
1
 40
1
 40
1
 40
1
 10
1691.247658
 20
1647.667259
 30
0.0
 10
1695.104658
 20
1652.268259
 30
0.0
 10
1697.396658
 20
1654.192259
 30
0.0
 10
1701.059657
 20
1656.131259
 30
0.0
  0
SPLINE
  5
271
100
AcDbEntity
  8
A0102_Printing_01
 62
1
100
AcDbSpline
 70
8
 71
3
 72
8
 73
4
 74
0
 40
0
 40
0
 40
0
 40
0
 40
1
 40
1
 40
1
 40
1
 10
1701.059657
 20
1656.131259
 30
0.0
 10
1708.843657
 20
1660.575258
 30
0.0
 10
1720.149657
 20
1660.131258
 30
0.0
 10
1732.264657
 20
1651.828259
 30
0.0
  0
SPLINE
  5
272
100
AcDbEntity
  8
A0102_Printing_01
 62
1
100
AcDbSpline
 70
8
 71
3
 72
8
 73
4
 74
0
 40
0
 40
0
 40
0
 40
0
 40
1
 40
1
 40
1
 40
1
 10
1732.264657
 20
1651.828259
 30
0.0
 10
1709.964657
 20
1645.725259
 30
0.0
 10
1691.624658
 20
1638.413259
 30
0.0
 10
1678.473658
 20
1630.253259
 30
0.0
  0
SPLINE
  5
273
100
AcDbEntity
  8
A0102_Printing_01
 62
1
100
AcDbSpline
 70
8
 71
3
 72
8
 73
4
 74
0
 40
0
 40
0
 40
0
 40
0
 40
1
 40
1
 40
1
 40
1
 10
1678.473658
 20
1630.253259
 30
0.0
 10
1636.193659
 20
1646.270259
 30
0.0
 10
1648.124659
 20
1687.389258
 30
0.0
 10
1614.608660
 20
1690.213258
 30
0.0
  0
SPLINE
  5
274
100
AcDbEntity
  8
A0102_Printing_01
 62
1
100
AcDbSpline
 70
8
 71
3
 72
8
 73
4
 74
0
 40
0
 40
0
 40
0
 40
0
 40
1
 40
1
 40
1
 40
1
 10
1614.608660
 20
1690.213258
 30
0.0
 10
1605.115660
 20
1691.853258
 30
0.0
 10
1593.120660
 20
1685.122258
 30
0.0
 10
1588.115660
 20
1676.406258
 30
0.0
  0
SPLINE
  5
275
100
AcDbEntity
  8
A0102_Printing_01
 62
1
100
AcDbSpline
 70
8
 71
3
 72
8
 73
4
 74
0
 40
0
 40
0
 40
0
 40
0
 40
1
 40
1
 40
1
 40
1
 10
1588.115660
 20
1676.406258
 30
0.0
 10
1586.068660
 20
1672.792258
 30
0.0
 10
1584.881660
 20
1668.953258
 30
0.0
 10
1584.545660
 20
1665.241258
 30
0.0
  0
SPLINE
  5
276
100
AcDbEntity
  8
A0102_Printing_01
 62
1
100
AcDbSpline
 70
8
 71
3
 72
8
 73
4
 74
0
 40
0
 40
0
 40
0
 40
0
 40
1
 40
1
 40
1
 40
1
 10
1584.545660
 20
1665.241258
 30
0.0
 10
1575.901661
 20
1668.996258
 30
0.0
 10
1566.370661
 20
1671.091258
 30
0.0
 10
1556.345661
 20
1671.091258
 30
0.0
  0
SPLINE
  5
277
100
AcDbEntity
  8
A0102_Printing_01
 62
1
100
AcDbSpline
 70
8
 71
3
 72
8
 73
4
 74
0
 40
0
 40
0
 40
0
 40
0
 40
1
 40
1
 40
1
 40
1
 10
1556.345661
 20
1671.091258
 30
0.0
 10
1522.061662
 20
1671.091258
 30
0.0
 10
1493.465663
 20
1646.744259
 30
0.0
 10
1486.899663
 20
1614.398260
 30
0.0
  0
LWPOLYLINE
  5
278
100
AcDbEntity
  8
A0102_Printing_01
 62
1
100
AcDbPolyline
 90
1
 70
1
 10
1543.515661
 20
1654.819259
 30
0.0
  0
SPLINE
  5
279
100
AcDbEntity
  8
A0102_Printing_01
 62
1
100
AcDbSpline
 70
8
 71
3
 72
8
 73
4
 74
0
 40
0
 40
0
 40
0
 40
0
 40
1
 40
1
 40
1
 40
1
 10
1598.865660
 20
652.359284
 30
0.0
 10
1598.865660
 20
660.791283
 30
0.0
 10
1605.700660
 20
667.626283
 30
0.0
 10
1614.132660
 20
667.626283
 30
0.0
  0
LWPOLYLINE
  5
27a
100
AcDbEntity
  8
A0102_Printing_01
 62
1
100
AcDbPolyline
 90
9
 70
0
 10
1486.899663
 20
1614.398260
 30
0.0
 10
1485.479663
 20
1614.398260
 30
0.0
 10
1485.479663
 20
639.280284
 30
0.0
 10
1527.998662
 20
639.280284
 30
0.0
 10
1527.998662
 20
710.146282
 30
0.0
 10
1542.172661
 20
710.146282
 30
0.0
 10
1542.172661
 20
639.280284
 30
0.0
 10
1598.865660
 20
639.280284
 30
0.0
 10
1598.865660
 20
652.359284
 30
0.0
  0
SPLINE
  5
27b
100
AcDbEntity
  8
A0102_Printing_01
 62
1
100
AcDbSpline
 70
8
 71
3
 72
8
 73
4
 74
0
 40
0
 40
0
 40
0
 40
0
 40
1
 40
1
 40
1
 40
1
 10
2184.542645
 20
667.626283
 30
0.0
 10
2192.974645
 20
667.626283
 30
0.0
 10
2199.809645
 20
660.791283
 30
0.0
 10
2199.809645
 20
652.359284
 30
0.0
  0
LWPOLYLINE
  5
27c
100
AcDbEntity
  8
A0102_Printing_01
 62
1
100
AcDbPolyline
 90
2
 70
0
 10
1614.132660
 20
667.626283
 30
0.0
 10
2184.542645
 20
667.626283
 30
0.0
  0
SPLINE
  5
27d
100
AcDbEntity
  8
A0102_Printing_01
 62
1
100
AcDbSpline
 70
8
 71
3
 72
8
 73
4
 74
0
 40
0
 40
0
 40
0
 40
0
 40
1
 40
1
 40
1
 40
1
 10
2341.542141
 20
1031.688474
 30
0.0
 10
2341.542141
 20
1039.516474
 30
0.0
 10
2335.197142
 20
1045.861474
 30
0.0
 10
2327.369142
 20
1045.861474
 30
0.0
  0
LWPOLYLINE
  5
27e
100
AcDbEntity
  8
A0102_Printing_01
 62
1
100
AcDbPolyline
 90
9
 70
0
 10
2199.809645
 20
652.359284
 30
0.0
 10
2199.809645
 20
639.280284
 30
0.0
 10
2256.502644
 20
639.280284
 30
0.0
 10
2256.502644
 20
710.146282
 30
0.0
 10
2270.676643
 20
710.146282
 30
0.0
 10
2270.676643
 20
639.280284
 30
0.0
 10
2313.195642
 20
639.280284
 30
0.0
 10
2313.195642
 20
1614.398260
 30
0.0
 10
2311.775642
 20
1614.398260
 30
0.0
  0
LWPOLYLINE
  5
27f
100
AcDbEntity
  8
A0102_Printing_01
 62
1
100
AcDbPolyline
 90
4
 70
1
 10
3016.187925
 20
714.207982
 30
0.0
 10
3030.360924
 20
714.207982
 30
0.0
 10
3030.360924
 20
657.514984
 30
0.0
 10
3016.187925
 20
657.514984
 30
0.0
  0
LWPOLYLINE
  5
280
100
AcDbEntity
  8
A0102_Printing_01
 62
1
100
AcDbPolyline
 90
4
 70
1
 10
2800.754930
 20
714.207982
 30
0.0
 10
2814.927930
 20
714.207982
 30
0.0
 10
2814.927930
 20
657.514984
 30
0.0
 10
2800.754930
 20
657.514984
 30
0.0
  0
LWPOLYLINE
  5
281
100
AcDbEntity
  8
A0102_Printing_01
 62
1
100
AcDbPolyline
 90
4
 70
1
 10
2585.321935
 20
714.207982
 30
0.0
 10
2599.494935
 20
714.207982
 30
0.0
 10
2599.494935
 20
657.514984
 30
0.0
 10
2585.321935
 20
657.514984
 30
0.0
  0
LWPOLYLINE
  5
282
100
AcDbEntity
  8
A0102_Printing_01
 62
1
100
AcDbPolyline
 90
4
 70
1
 10
2369.888941
 20
714.207982
 30
0.0
 10
2384.061940
 20
714.207982
 30
0.0
 10
2384.061940
 20
657.514984
 30
0.0
 10
2369.888941
 20
657.514984
 30
0.0
  0
LWPOLYLINE
  5
283
100
AcDbEntity
  8
A0102_Printing_01
 62
1
100
AcDbPolyline
 90
4
 70
1
 10
3146.581921
 20
824.758979
 30
0.0
 10
3203.274920
 20
824.758979
 30
0.0
 10
3203.274920
 20
810.585980
 30
0.0
 10
3146.581921
 20
810.585980
 30
0.0
  0
LWPOLYLINE
  5
284
100
AcDbEntity
  8
A0102_Printing_01
 62
1
100
AcDbPolyline
 90
7
 70
1
 10
3016.187925
 20
810.585980
 30
0.0
 10
3016.187925
 20
810.585980
 30
0.0
 10
3016.187925
 20
867.278978
 30
0.0
 10
3030.360924
 20
867.278978
 30
0.0
 10
3030.360924
 20
824.758979
 30
0.0
 10
3089.888923
 20
824.758979
 30
0.0
 10
3089.888923
 20
810.585980
 30
0.0
  0
LWPOLYLINE
  5
285
100
AcDbEntity
  8
A0102_Printing_01
 62
1
100
AcDbPolyline
 90
4
 70
1
 10
2800.754930
 20
867.278978
 30
0.0
 10
2814.927930
 20
867.278978
 30
0.0
 10
2814.927930
 20
810.585980
 30
0.0
 10
2800.754930
 20
810.585980
 30
0.0
  0
LWPOLYLINE
  5
286
100
AcDbEntity
  8
A0102_Printing_01
 62
1
100
AcDbPolyline
 90
4
 70
1
 10
2585.321935
 20
867.278978
 30
0.0
 10
2599.494935
 20
867.278978
 30
0.0
 10
2599.494935
 20
810.585980
 30
0.0
 10
2585.321935
 20
810.585980
 30
0.0
  0
LWPOLYLINE
  5
287
100
AcDbEntity
  8
A0102_Printing_01
 62
1
100
AcDbPolyline
 90
4
 70
1
 10
2369.888941
 20
867.278978
 30
0.0
 10
2384.061940
 20
867.278978
 30
0.0
 10
2384.061940
 20
810.585980
 30
0.0
 10
2369.888941
 20
810.585980
 30
0.0
  0
LWPOLYLINE
  5
288
100
AcDbEntity
  8
A0102_Printing_01
 62
1
100
AcDbPolyline
 90
4
 70
1
 10
3016.187925
 20
1020.349974
 30
0.0
 10
3030.360924
 20
1020.349974
 30
0.0
 10
3030.360924
 20
963.656976
 30
0.0
 10
3016.187925
 20
963.656976
 30
0.0
  0
LWPOLYLINE
  5
289
100
AcDbEntity
  8
A0102_Printing_01
 62
1
100
AcDbPolyline
 90
4
 70
1
 10
2800.754930
 20
1020.349974
 30
0.0
 10
2814.927930
 20
1020.349974
 30
0.0
 10
2814.927930
 20
963.656976
 30
0.0
 10
2800.754930
 20
963.656976
 30
0.0
  0
LWPOLYLINE
  5
28a
100
AcDbEntity
  8
A0102_Printing_01
 62
1
100
AcDbPolyline
 90
4
 70
1
 10
2585.321935
 20
1020.349974
 30
0.0
 10
2599.494935
 20
1020.349974
 30
0.0
 10
2599.494935
 20
963.656976
 30
0.0
 10
2585.321935
 20
963.656976
 30
0.0
  0
LWPOLYLINE
  5
28b
100
AcDbEntity
  8
A0102_Printing_01
 62
1
100
AcDbPolyline
 90
4
 70
1
 10
2369.888941
 20
1020.349974
 30
0.0
 10
2384.061940
 20
1020.349974
 30
0.0
 10
2384.061940
 20
963.656976
 30
0.0
 10
2369.888941
 20
963.656976
 30
0.0
  0
SPLINE
  5
28c
100
AcDbEntity
  8
A0102_Printing_01
 62
1
100
AcDbSpline
 70
8
 71
3
 72
8
 73
4
 74
0
 40
0
 40
0
 40
0
 40
0
 40
1
 40
1
 40
1
 40
1
 10
2341.541941
 20
617.829985
 30
0.0
 10
2341.541941
 20
610.002985
 30
0.0
 10
2335.196942
 20
603.656985
 30
0.0
 10
2327.368942
 20
603.656985
 30
0.0
  0
LWPOLYLINE
  5
28d
100
AcDbEntity
  8
A0102_Printing_01
 62
1
100
AcDbPolyline
 90
2
 70
0
 10
2341.541941
 20
1031.687974
 30
0.0
 10
2341.541941
 20
617.829985
 30
0.0
  0
SPLINE
  5
28e
100
AcDbEntity
  8
A0102_Printing_01
 62
1
100
AcDbSpline
 70
8
 71
3
 72
8
 73
4
 74
0
 40
0
 40
0
 40
0
 40
0
 40
1
 40
1
 40
1
 40
1
 10
3259.967919
 20
810.648980
 30
0.0
 10
3259.967919
 20
834.096979
 30
0.0
 10
3240.958919
 20
853.105979
 30
0.0
 10
3217.510920
 20
853.105979
 30
0.0
  0
LWPOLYLINE
  5
28f
100
AcDbEntity
  8
A0102_Printing_01
 62
1
100
AcDbPolyline
 90
23
 70
0
 10
2327.368942
 20
603.656985
 30
0.0
 10
2313.195942
 20
603.656985
 30
0.0
 10
2313.195942
 20
532.790987
 30
0.0
 10
2385.478940
 20
532.790987
 30
0.0
 10
2385.478940
 20
546.963986
 30
0.0
 10
2456.344939
 20
546.963986
 30
0.0
 10
2456.344939
 20
532.790987
 30
0.0
 10
2513.037937
 20
532.790987
 30
0.0
 10
2513.037937
 20
546.963986
 30
0.0
 10
2671.778933
 20
546.963986
 30
0.0
 10
2671.778933
 20
532.790987
 30
0.0
 10
2728.470932
 20
532.790987
 30
0.0
 10
2728.470932
 20
546.963986
 30
0.0
 10
2887.211928
 20
546.963986
 30
0.0
 10
2887.211928
 20
532.790987
 30
0.0
 10
2943.904926
 20
532.790987
 30
0.0
 10
2943.904926
 20
546.963986
 30
0.0
 10
3102.644922
 20
546.963986
 30
0.0
 10
3102.644922
 20
532.790987
 30
0.0
 10
3159.337921
 20
532.790987
 30
0.0
 10
3159.337921
 20
546.963986
 30
0.0
 10
3259.967919
 20
546.963986
 30
0.0
 10
3259.967919
 20
810.648980
 30
0.0
  0
SPLINE
  5
290
100
AcDbEntity
  8
A0102_Printing_01
 62
1
100
AcDbSpline
 70
8
 71
3
 72
8
 73
4
 74
0
 40
0
 40
0
 40
0
 40
0
 40
1
 40
1
 40
1
 40
1
 10
3186.337920
 20
853.105979
 30
0.0
 10
3162.815921
 20
853.105979
 30
0.0
 10
3143.746921
 20
872.174978
 30
0.0
 10
3143.746921
 20
895.696978
 30
0.0
  0
LWPOLYLINE
  5
291
100
AcDbEntity
  8
A0102_Printing_01
 62
1
100
AcDbPolyline
 90
2
 70
0
 10
3217.510920
 20
853.105979
 30
0.0
 10
3186.337920
 20
853.105979
 30
0.0
  0
SPLINE
  5
292
100
AcDbEntity
  8
A0102_Printing_01
 62
1
100
AcDbSpline
 70
8
 71
3
 72
8
 73
4
 74
0
 40
0
 40
0
 40
0
 40
0
 40
1
 40
1
 40
1
 40
1
 10
3143.746921
 20
1074.081973
 30
0.0
 10
3143.746921
 20
1097.634973
 30
0.0
 10
3124.653922
 20
1116.727972
 30
0.0
 10
3101.100922
 20
1116.727972
 30
0.0
  0
LWPOLYLINE
  5
293
100
AcDbEntity
  8
A0102_Printing_01
 62
1
100
AcDbPolyline
 90
2
 70
0
 10
3143.746921
 20
895.696978
 30
0.0
 10
3143.746921
 20
1074.081973
 30
0.0
  0
SPLINE
  5
294
100
AcDbEntity
  8
A0102_Printing_01
 62
1
100
AcDbSpline
 70
8
 71
3
 72
8
 73
4
 74
0
 40
0
 40
0
 40
0
 40
0
 40
1
 40
1
 40
1
 40
1
 10
2341.542141
 20
1201.767170
 30
0.0
 10
2341.542141
 20
1193.939170
 30
0.0
 10
2335.197142
 20
1187.594170
 30
0.0
 10
2327.369142
 20
1187.594170
 30
0.0
  0
LWPOLYLINE
  5
295
100
AcDbEntity
  8
A0102_Printing_01
 62
1
100
AcDbPolyline
 90
4
 70
0
 10
3101.100922
 20
1116.727972
 30
0.0
 10
2313.195942
 20
1116.727972
 30
0.0
 10
2313.195942
 20
1045.861974
 30
0.0
 10
2327.368942
 20
1045.861974
 30
0.0
  0
LWPOLYLINE
  5
296
100
AcDbEntity
  8
A0102_Printing_01
 62
1
100
AcDbPolyline
 90
4
 70
1
 10
3030.360924
 20
1519.247962
 30
0.0
 10
3016.187925
 20
1519.247962
 30
0.0
 10
3016.187925
 20
1575.940961
 30
0.0
 10
3030.360924
 20
1575.940961
 30
0.0
  0
LWPOLYLINE
  5
297
100
AcDbEntity
  8
A0102_Printing_01
 62
1
100
AcDbPolyline
 90
4
 70
1
 10
2814.927930
 20
1519.247962
 30
0.0
 10
2800.754930
 20
1519.247962
 30
0.0
 10
2800.754930
 20
1575.940961
 30
0.0
 10
2814.927930
 20
1575.940961
 30
0.0
  0
LWPOLYLINE
  5
298
100
AcDbEntity
  8
A0102_Printing_01
 62
1
100
AcDbPolyline
 90
4
 70
1
 10
2599.494935
 20
1519.247962
 30
0.0
 10
2585.321935
 20
1519.247962
 30
0.0
 10
2585.321935
 20
1575.940961
 30
0.0
 10
2599.494935
 20
1575.940961
 30
0.0
  0
LWPOLYLINE
  5
299
100
AcDbEntity
  8
A0102_Printing_01
 62
1
100
AcDbPolyline
 90
4
 70
1
 10
2384.061940
 20
1519.247962
 30
0.0
 10
2369.888941
 20
1519.247962
 30
0.0
 10
2369.888941
 20
1575.940961
 30
0.0
 10
2384.061940
 20
1575.940961
 30
0.0
  0
LWPOLYLINE
  5
29a
100
AcDbEntity
  8
A0102_Printing_01
 62
1
100
AcDbPolyline
 90
4
 70
1
 10
3203.274920
 20
1408.695965
 30
0.0
 10
3146.581921
 20
1408.695965
 30
0.0
 10
3146.581921
 20
1422.868964
 30
0.0
 10
3203.274920
 20
1422.868964
 30
0.0
  0
LWPOLYLINE
  5
29b
100
AcDbEntity
  8
A0102_Printing_01
 62
1
100
AcDbPolyline
 90
6
 70
1
 10
3089.888923
 20
1422.869964
 30
0.0
 10
3089.888923
 20
1408.695965
 30
0.0
 10
3030.360924
 20
1408.695965
 30
0.0
 10
3030.360924
 20
1366.176966
 30
0.0
 10
3016.187925
 20
1366.176966
 30
0.0
 10
3016.187925
 20
1422.869964
 30
0.0
  0
LWPOLYLINE
  5
29c
100
AcDbEntity
  8
A0102_Printing_01
 62
1
100
AcDbPolyline
 90
4
 70
1
 10
2814.927930
 20
1366.176966
 30
0.0
 10
2800.754930
 20
1366.176966
 30
0.0
 10
2800.754930
 20
1422.869964
 30
0.0
 10
2814.927930
 20
1422.869964
 30
0.0
  0
LWPOLYLINE
  5
29d
100
AcDbEntity
  8
A0102_Printing_01
 62
1
100
AcDbPolyline
 90
4
 70
1
 10
2599.494935
 20
1366.176966
 30
0.0
 10
2585.321935
 20
1366.176966
 30
0.0
 10
2585.321935
 20
1422.869964
 30
0.0
 10
2599.494935
 20
1422.869964
 30
0.0
  0
LWPOLYLINE
  5
29e
100
AcDbEntity
  8
A0102_Printing_01
 62
1
100
AcDbPolyline
 90
4
 70
1
 10
2384.061940
 20
1366.176966
 30
0.0
 10
2369.888941
 20
1366.176966
 30
0.0
 10
2369.888941
 20
1422.869964
 30
0.0
 10
2384.061940
 20
1422.869964
 30
0.0
  0
LWPOLYLINE
  5
29f
100
AcDbEntity
  8
A0102_Printing_01
 62
1
100
AcDbPolyline
 90
4
 70
1
 10
3030.360924
 20
1213.105970
 30
0.0
 10
3016.187925
 20
1213.105970
 30
0.0
 10
3016.187925
 20
1269.798968
 30
0.0
 10
3030.360924
 20
1269.798968
 30
0.0
  0
LWPOLYLINE
  5
2a0
100
AcDbEntity
  8
A0102_Printing_01
 62
1
100
AcDbPolyline
 90
4
 70
1
 10
2814.927930
 20
1213.105970
 30
0.0
 10
2800.754930
 20
1213.105970
 30
0.0
 10
2800.754930
 20
1269.798968
 30
0.0
 10
2814.927930
 20
1269.798968
 30
0.0
  0
LWPOLYLINE
  5
2a1
100
AcDbEntity
  8
A0102_Printing_01
 62
1
100
AcDbPolyline
 90
4
 70
1
 10
2599.494935
 20
1213.105970
 30
0.0
 10
2585.321935
 20
1213.105970
 30
0.0
 10
2585.321935
 20
1269.798968
 30
0.0
 10
2599.494935
 20
1269.798968
 30
0.0
  0
LWPOLYLINE
  5
2a2
100
AcDbEntity
  8
A0102_Printing_01
 62
1
100
AcDbPolyline
 90
4
 70
1
 10
2384.061940
 20
1213.105970
 30
0.0
 10
2369.888941
 20
1213.105970
 30
0.0
 10
2369.888941
 20
1269.798968
 30
0.0
 10
2384.061940
 20
1269.798968
 30
0.0
  0
SPLINE
  5
2a3
100
AcDbEntity
  8
A0102_Printing_01
 62
1
100
AcDbSpline
 70
8
 71
3
 72
8
 73
4
 74
0
 40
0
 40
0
 40
0
 40
0
 40
1
 40
1
 40
1
 40
1
 10
3101.100922
 20
1116.727972
 30
0.0
 10
3124.653922
 20
1116.727972
 30
0.0
 10
3143.746921
 20
1135.820972
 30
0.0
 10
3143.746921
 20
1159.373971
 30
0.0
  0
LWPOLYLINE
  5
2a4
100
AcDbEntity
  8
A0102_Printing_01
 62
1
100
AcDbPolyline
 90
4
 70
0
 10
2327.368942
 20
1187.593970
 30
0.0
 10
2313.195942
 20
1187.593970
 30
0.0
 10
2313.195942
 20
1116.727972
 30
0.0
 10
3101.100922
 20
1116.727972
 30
0.0
  0
SPLINE
  5
2a5
100
AcDbEntity
  8
A0102_Printing_01
 62
1
100
AcDbSpline
 70
8
 71
3
 72
8
 73
4
 74
0
 40
0
 40
0
 40
0
 40
0
 40
1
 40
1
 40
1
 40
1
 10
3143.746921
 20
1337.758967
 30
0.0
 10
3143.746921
 20
1361.280966
 30
0.0
 10
3162.815921
 20
1380.349965
 30
0.0
 10
3186.337920
 20
1380.349965
 30
0.0
  0
LWPOLYLINE
  5
2a6
100
AcDbEntity
  8
A0102_Printing_01
 62
1
100
AcDbPolyline
 90
2
 70
0
 10
3143.746921
 20
1159.373971
 30
0.0
 10
3143.746921
 20
1337.758967
 30
0.0
  0
SPLINE
  5
2a7
100
AcDbEntity
  8
A0102_Printing_01
 62
1
100
AcDbSpline
 70
8
 71
3
 72
8
 73
4
 74
0
 40
0
 40
0
 40
0
 40
0
 40
1
 40
1
 40
1
 40
1
 10
3217.510920
 20
1380.349965
 30
0.0
 10
3240.958919
 20
1380.349965
 30
0.0
 10
3259.967919
 20
1399.357965
 30
0.0
 10
3259.967919
 20
1422.806964
 30
0.0
  0
LWPOLYLINE
  5
2a8
100
AcDbEntity
  8
A0102_Printing_01
 62
1
100
AcDbPolyline
 90
2
 70
0
 10
3186.337920
 20
1380.349965
 30
0.0
 10
3217.510920
 20
1380.349965
 30
0.0
  0
SPLINE
  5
2a9
100
AcDbEntity
  8
A0102_Printing_01
 62
1
100
AcDbSpline
 70
8
 71
3
 72
8
 73
4
 74
0
 40
0
 40
0
 40
0
 40
0
 40
1
 40
1
 40
1
 40
1
 10
2327.368942
 20
1629.798959
 30
0.0
 10
2335.196942
 20
1629.798959
 30
0.0
 10
2341.541941
 20
1623.452959
 30
0.0
 10
2341.541941
 20
1615.624960
 30
0.0
  0
LWPOLYLINE
  5
2aa
100
AcDbEntity
  8
A0102_Printing_01
 62
1
100
AcDbPolyline
 90
23
 70
0
 10
3259.967919
 20
1422.806964
 30
0.0
 10
3259.967919
 20
1686.491958
 30
0.0
 10
3159.337921
 20
1686.491958
 30
0.0
 10
3159.337921
 20
1700.664957
 30
0.0
 10
3102.644922
 20
1700.664957
 30
0.0
 10
3102.644922
 20
1686.491958
 30
0.0
 10
2943.904926
 20
1686.491958
 30
0.0
 10
2943.904926
 20
1700.664957
 30
0.0
 10
2887.211928
 20
1700.664957
 30
0.0
 10
2887.211928
 20
1686.491958
 30
0.0
 10
2728.470932
 20
1686.491958
 30
0.0
 10
2728.470932
 20
1700.664957
 30
0.0
 10
2671.778933
 20
1700.664957
 30
0.0
 10
2671.778933
 20
1686.491958
 30
0.0
 10
2513.037937
 20
1686.491958
 30
0.0
 10
2513.037937
 20
1700.664957
 30
0.0
 10
2456.344939
 20
1700.664957
 30
0.0
 10
2456.344939
 20
1686.491958
 30
0.0
 10
2385.478940
 20
1686.491958
 30
0.0
 10
2385.478940
 20
1700.664957
 30
0.0
 10
2313.195942
 20
1700.664957
 30
0.0
 10
2313.195942
 20
1629.798959
 30
0.0
 10
2327.368942
 20
1629.798959
 30
0.0
  0
LWPOLYLINE
  5
2ab
100
AcDbEntity
  8
A0102_Printing_01
 62
1
100
AcDbPolyline
 90
2
 70
0
 10
2341.541941
 20
1615.624960
 30
0.0
 10
2341.541941
 20
1201.766970
 30
0.0
  0
LWPOLYLINE
  5
2ac
100
AcDbEntity
  8
A0102_Printing_01
 62
1
100
AcDbPolyline
 90
40
 70
1
 10
728.628882
 20
1130.901172
 30
0.0
 10
592.565885
 20
1130.901172
 30
0.0
 10
592.565885
 20
1116.728172
 30
0.0
 10
535.872887
 20
1116.728172
 30
0.0
 10
535.872887
 20
1130.901172
 30
0.0
 10
399.809890
 20
1130.901172
 30
0.0
 10
399.809890
 20
1116.728172
 30
0.0
 10
343.116891
 20
1116.728172
 30
0.0
 10
343.116891
 20
1130.901172
 30
0.0
 10
207.053895
 20
1130.901172
 30
0.0
 10
207.053895
 20
1116.728172
 30
0.0
 10
150.360896
 20
1116.728172
 30
0.0
 10
150.360896
 20
1130.901172
 30
0.0
 10
14.297900
 20
1130.901172
 30
0.0
 10
14.297900
 20
1241.452169
 30
0.0
 10
0.124900
 20
1241.452169
 30
0.0
 10
0.124900
 20
1298.145168
 30
0.0
 10
14.297900
 20
1298.145168
 30
0.0
 10
14.297900
 20
1394.523165
 30
0.0
 10
0.124900
 20
1394.523165
 30
0.0
 10
0.124900
 20
1451.216164
 30
0.0
 10
14.297900
 20
1451.216164
 30
0.0
 10
14.297900
 20
1547.594161
 30
0.0
 10
0.124900
 20
1547.594161
 30
0.0
 10
0.124900
 20
1604.287160
 30
0.0
 10
14.297900
 20
1604.287160
 30
0.0
 10
14.297900
 20
1700.665157
 30
0.0
 10
728.628882
 20
1700.665157
 30
0.0
 10
728.628882
 20
1604.287160
 30
0.0
 10
742.801881
 20
1604.287160
 30
0.0
 10
742.801881
 20
1547.594161
 30
0.0
 10
728.628882
 20
1547.594161
 30
0.0
 10
728.628882
 20
1451.216164
 30
0.0
 10
742.801881
 20
1451.216164
 30
0.0
 10
742.801881
 20
1394.523165
 30
0.0
 10
728.628882
 20
1394.523165
 30
0.0
 10
728.628882
 20
1298.145168
 30
0.0
 10
742.801881
 20
1298.145168
 30
0.0
 10
742.801881
 20
1241.452169
 30
0.0
 10
728.628882
 20
1241.452169
 30
0.0
  0
SPLINE
  5
2ad
100
AcDbEntity
  8
A0102_Printing_01
 62
7
100
AcDbSpline
 70
8
 71
3
 72
8
 73
4
 74
0
 40
0
 40
0
 40
0
 40
0
 40
1
 40
1
 40
1
 40
1
 10
4.312500
 20
988.282275
 30
0.0
 10
4.172500
 20
987.928275
 30
0.0
 10
4.034500
 20
987.561275
 30
0.0
 10
3.902500
 20
987.216275
 30
0.0
  0
LWPOLYLINE
  5
2ae
100
AcDbEntity
  8
A0102_Printing_01
 62
7
100
AcDbPolyline
 90
2
 70
0
 10
4.321500
 20
988.282275
 30
0.0
 10
4.312500
 20
988.282275
 30
0.0
  0
LWPOLYLINE
  5
2af
100
AcDbEntity
  8
A0102_Printing_01
 62
7
100
AcDbPolyline
 90
3
 70
0
 10
3.902500
 20
987.216275
 30
0.0
 10
4.705500
 20
987.216275
 30
0.0
 10
4.321500
 20
988.282275
 30
0.0
  0
LWPOLYLINE
  5
2b0
100
AcDbEntity
  8
A0102_Printing_01
 62
1
100
AcDbPolyline
 90
4
 70
1
 10
428.155989
 20
935.310977
 30
0.0
 10
413.982990
 20
935.310977
 30
0.0
 10
413.982990
 20
992.003975
 30
0.0
 10
428.155989
 20
992.003975
 30
0.0
  0
LWPOLYLINE
  5
2b1
100
AcDbEntity
  8
A0102_Printing_01
 62
1
100
AcDbPolyline
 90
4
 70
1
 10
428.155989
 20
782.239980
 30
0.0
 10
413.982990
 20
782.239980
 30
0.0
 10
413.982990
 20
838.932979
 30
0.0
 10
428.155989
 20
838.932979
 30
0.0
  0
LWPOLYLINE
  5
2b2
100
AcDbEntity
  8
A0102_Printing_01
 62
1
100
AcDbPolyline
 90
4
 70
1
 10
428.155989
 20
629.168984
 30
0.0
 10
413.982990
 20
629.168984
 30
0.0
 10
413.982990
 20
685.861983
 30
0.0
 10
428.155989
 20
685.861983
 30
0.0
  0
LWPOLYLINE
  5
2b3
100
AcDbEntity
  8
A0102_Printing_01
 62
1
100
AcDbPolyline
 90
40
 70
1
 10
742.801981
 20
935.310977
 30
0.0
 10
742.801981
 20
992.003975
 30
0.0
 10
728.628982
 20
992.003975
 30
0.0
 10
728.628982
 20
1102.554972
 30
0.0
 10
592.565985
 20
1102.554972
 30
0.0
 10
592.565985
 20
1116.727972
 30
0.0
 10
535.872987
 20
1116.727972
 30
0.0
 10
535.872987
 20
1102.554972
 30
0.0
 10
399.809990
 20
1102.554972
 30
0.0
 10
399.809990
 20
1116.727972
 30
0.0
 10
343.116991
 20
1116.727972
 30
0.0
 10
343.116991
 20
1102.554972
 30
0.0
 10
207.053995
 20
1102.554972
 30
0.0
 10
207.053995
 20
1116.727972
 30
0.0
 10
150.360996
 20
1116.727972
 30
0.0
 10
150.360996
 20
1102.554972
 30
0.0
 10
14.298000
 20
1102.554972
 30
0.0
 10
14.298000
 20
992.003975
 30
0.0
 10
0.125000
 20
992.003975
 30
0.0
 10
0.125000
 20
935.310977
 30
0.0
 10
14.298000
 20
935.310977
 30
0.0
 10
14.298000
 20
838.932979
 30
0.0
 10
0.125000
 20
838.932979
 30
0.0
 10
0.125000
 20
782.239980
 30
0.0
 10
14.298000
 20
782.239980
 30
0.0
 10
14.298000
 20
685.861983
 30
0.0
 10
0.125000
 20
685.861983
 30
0.0
 10
0.125000
 20
629.168984
 30
0.0
 10
14.298000
 20
629.168984
 30
0.0
 10
14.298000
 20
532.790987
 30
0.0
 10
728.628982
 20
532.790987
 30
0.0
 10
728.628982
 20
629.168984
 30
0.0
 10
742.801981
 20
629.168984
 30
0.0
 10
742.801981
 20
685.861983
 30
0.0
 10
728.628982
 20
685.861983
 30
0.0
 10
728.628982
 20
782.239980
 30
0.0
 10
742.801981
 20
782.239980
 30
0.0
 10
742.801981
 20
838.932979
 30
0.0
 10
728.628982
 20
838.932979
 30
0.0
 10
728.628982
 20
935.310977
 30
0.0
  0
LWPOLYLINE
  5
2b4
100
AcDbEntity
  8
A0102_Printing_01
 62
1
100
AcDbPolyline
 90
4
 70
1
 10
1170.833971
 20
935.310977
 30
0.0
 10
1156.660971
 20
935.310977
 30
0.0
 10
1156.660971
 20
992.003975
 30
0.0
 10
1170.833971
 20
992.003975
 30
0.0
  0
LWPOLYLINE
  5
2b5
100
AcDbEntity
  8
A0102_Printing_01
 62
1
100
AcDbPolyline
 90
4
 70
1
 10
1170.833971
 20
782.239980
 30
0.0
 10
1156.660971
 20
782.239980
 30
0.0
 10
1156.660971
 20
838.932979
 30
0.0
 10
1170.833971
 20
838.932979
 30
0.0
  0
LWPOLYLINE
  5
2b6
100
AcDbEntity
  8
A0102_Printing_01
 62
1
100
AcDbPolyline
 90
4
 70
1
 10
1170.833971
 20
629.168984
 30
0.0
 10
1156.660971
 20
629.168984
 30
0.0
 10
1156.660971
 20
685.861983
 30
0.0
 10
1170.833971
 20
685.861983
 30
0.0
  0
LWPOLYLINE
  5
2b7
100
AcDbEntity
  8
A0102_Printing_01
 62
1
100
AcDbPolyline
 90
40
 70
1
 10
1485.478963
 20
935.310977
 30
0.0
 10
1485.478963
 20
992.003975
 30
0.0
 10
1471.305963
 20
992.003975
 30
0.0
 10
1471.305963
 20
1102.554972
 30
0.0
 10
1335.242967
 20
1102.554972
 30
0.0
 10
1335.242967
 20
1116.727972
 30
0.0
 10
1278.549968
 20
1116.727972
 30
0.0
 10
1278.549968
 20
1102.554972
 30
0.0
 10
1142.486971
 20
1102.554972
 30
0.0
 10
1142.486971
 20
1116.727972
 30
0.0
 10
1085.793973
 20
1116.727972
 30
0.0
 10
1085.793973
 20
1102.554972
 30
0.0
 10
949.730976
 20
1102.554972
 30
0.0
 10
949.730976
 20
1116.727972
 30
0.0
 10
893.037978
 20
1116.727972
 30
0.0
 10
893.037978
 20
1102.554972
 30
0.0
 10
756.974981
 20
1102.554972
 30
0.0
 10
756.974981
 20
992.003975
 30
0.0
 10
742.801981
 20
992.003975
 30
0.0
 10
742.801981
 20
935.310977
 30
0.0
 10
756.974981
 20
935.310977
 30
0.0
 10
756.974981
 20
838.932979
 30
0.0
 10
742.801981
 20
838.932979
 30
0.0
 10
742.801981
 20
782.239980
 30
0.0
 10
756.974981
 20
782.239980
 30
0.0
 10
756.974981
 20
685.861983
 30
0.0
 10
742.801981
 20
685.861983
 30
0.0
 10
742.801981
 20
629.168984
 30
0.0
 10
756.974981
 20
629.168984
 30
0.0
 10
756.974981
 20
532.790987
 30
0.0
 10
1471.305963
 20
532.790987
 30
0.0
 10
1471.305963
 20
629.168984
 30
0.0
 10
1485.478963
 20
629.168984
 30
0.0
 10
1485.478963
 20
685.861983
 30
0.0
 10
1471.305963
 20
685.861983
 30
0.0
 10
1471.305963
 20
782.239980
 30
0.0
 10
1485.478963
 20
782.239980
 30
0.0
 10
1485.478963
 20
838.932979
 30
0.0
 10
1471.305963
 20
838.932979
 30
0.0
 10
1471.305963
 20
935.310977
 30
0.0
  0
LWPOLYLINE
  5
2b8
100
AcDbEntity
  8
A0102_Printing_01
 62
1
100
AcDbPolyline
 90
4
 70
1
 10
1414.612965
 20
1394.522965
 30
0.0
 10
1357.919966
 20
1394.522965
 30
0.0
 10
1357.919966
 20
1408.695965
 30
0.0
 10
1414.612965
 20
1408.695965
 30
0.0
  0
LWPOLYLINE
  5
2b9
100
AcDbEntity
  8
A0102_Printing_01
 62
1
100
AcDbPolyline
 90
4
 70
1
 10
1142.486971
 20
1394.522965
 30
0.0
 10
1085.793973
 20
1394.522965
 30
0.0
 10
1085.793973
 20
1408.695965
 30
0.0
 10
1142.486971
 20
1408.695965
 30
0.0
  0
LWPOLYLINE
  5
2ba
100
AcDbEntity
  8
A0102_Printing_01
 62
1
100
AcDbPolyline
 90
4
 70
1
 10
1121.226972
 20
1465.388963
 30
0.0
 10
1107.053972
 20
1465.388963
 30
0.0
 10
1107.053972
 20
1522.081962
 30
0.0
 10
1121.226972
 20
1522.081962
 30
0.0
  0
LWPOLYLINE
  5
2bb
100
AcDbEntity
  8
A0102_Printing_01
 62
1
100
AcDbPolyline
 90
4
 70
1
 10
1121.226972
 20
1587.278960
 30
0.0
 10
1107.053972
 20
1587.278960
 30
0.0
 10
1107.053972
 20
1643.971959
 30
0.0
 10
1121.226972
 20
1643.971959
 30
0.0
  0
LWPOLYLINE
  5
2bc
100
AcDbEntity
  8
A0102_Printing_01
 62
1
100
AcDbPolyline
 90
4
 70
1
 10
870.360978
 20
1394.522965
 30
0.0
 10
813.667980
 20
1394.522965
 30
0.0
 10
813.667980
 20
1408.695965
 30
0.0
 10
870.360978
 20
1408.695965
 30
0.0
  0
LWPOLYLINE
  5
2bd
100
AcDbEntity
  8
A0102_Printing_01
 62
1
100
AcDbPolyline
 90
40
 70
1
 10
1471.305963
 20
1298.144968
 30
0.0
 10
1471.305963
 20
1394.522965
 30
0.0
 10
1485.478963
 20
1394.522965
 30
0.0
 10
1485.478963
 20
1451.215964
 30
0.0
 10
1471.305963
 20
1451.215964
 30
0.0
 10
1471.305963
 20
1547.593961
 30
0.0
 10
1485.478963
 20
1547.593961
 30
0.0
 10
1485.478963
 20
1604.286960
 30
0.0
 10
1471.305963
 20
1604.286960
 30
0.0
 10
1471.305963
 20
1700.664957
 30
0.0
 10
756.974981
 20
1700.664957
 30
0.0
 10
756.974981
 20
1604.286960
 30
0.0
 10
742.801981
 20
1604.286960
 30
0.0
 10
742.801981
 20
1547.593961
 30
0.0
 10
756.974981
 20
1547.593961
 30
0.0
 10
756.974981
 20
1451.215964
 30
0.0
 10
742.801981
 20
1451.215964
 30
0.0
 10
742.801981
 20
1394.522965
 30
0.0
 10
756.974981
 20
1394.522965
 30
0.0
 10
756.974981
 20
1298.144968
 30
0.0
 10
742.801981
 20
1298.144968
 30
0.0
 10
742.801981
 20
1241.451969
 30
0.0
 10
756.974981
 20
1241.451969
 30
0.0
 10
756.974981
 20
1130.900972
 30
0.0
 10
893.037978
 20
1130.900972
 30
0.0
 10
893.037978
 20
1116.727972
 30
0.0
 10
949.730976
 20
1116.727972
 30
0.0
 10
949.730976
 20
1130.900972
 30
0.0
 10
1085.793973
 20
1130.900972
 30
0.0
 10
1085.793973
 20
1116.727972
 30
0.0
 10
1142.486971
 20
1116.727972
 30
0.0
 10
1142.486971
 20
1130.900972
 30
0.0
 10
1278.549968
 20
1130.900972
 30
0.0
 10
1278.549968
 20
1116.727972
 30
0.0
 10
1335.242967
 20
1116.727972
 30
0.0
 10
1335.242967
 20
1130.900972
 30
0.0
 10
1471.305963
 20
1130.900972
 30
0.0
 10
1471.305963
 20
1241.451969
 30
0.0
 10
1485.478963
 20
1241.451969
 30
0.0
 10
1485.478963
 20
1298.144968
 30
0.0
  0
LWPOLYLINE
  5
2be
100
AcDbEntity
  8
A0102_Printing_01
 62
1
100
AcDbPolyline
 90
4
 70
1
 10
2768.278931
 20
277.653993
 30
0.0
 10
2782.451930
 20
277.653993
 30
0.0
 10
2782.451930
 20
206.787995
 30
0.0
 10
2768.278931
 20
206.787995
 30
0.0
  0
LWPOLYLINE
  5
2bf
100
AcDbEntity
  8
A0102_Printing_01
 62
1
100
AcDbPolyline
 90
4
 70
1
 10
2952.530926
 20
277.653993
 30
0.0
 10
2966.703926
 20
277.653993
 30
0.0
 10
2966.703926
 20
206.787995
 30
0.0
 10
2952.530926
 20
206.787995
 30
0.0
  0
LWPOLYLINE
  5
2c0
100
AcDbEntity
  8
A0102_Printing_01
 62
1
100
AcDbPolyline
 90
24
 70
1
 10
2605.286935
 20
277.653993
 30
0.0
 10
2591.113935
 20
277.653993
 30
0.0
 10
2591.113935
 20
206.786995
 30
0.0
 10
2605.286935
 20
206.786995
 30
0.0
 10
2605.286935
 20
135.920997
 30
0.0
 10
2697.412933
 20
135.920997
 30
0.0
 10
2697.412933
 20
150.093996
 30
0.0
 10
2754.105931
 20
150.093996
 30
0.0
 10
2754.105931
 20
135.920997
 30
0.0
 10
2846.231929
 20
135.920997
 30
0.0
 10
2846.231929
 20
150.093996
 30
0.0
 10
2902.924927
 20
150.093996
 30
0.0
 10
2902.924927
 20
135.920997
 30
0.0
 10
2995.050925
 20
135.920997
 30
0.0
 10
2995.050925
 20
150.093996
 30
0.0
 10
3051.742924
 20
150.093996
 30
0.0
 10
3051.742924
 20
135.920997
 30
0.0
 10
3143.868921
 20
135.920997
 30
0.0
 10
3143.868921
 20
206.786995
 30
0.0
 10
3158.042921
 20
206.786995
 30
0.0
 10
3158.042921
 20
277.653993
 30
0.0
 10
3143.868921
 20
277.653993
 30
0.0
 10
3143.868921
 20
334.345992
 30
0.0
 10
2605.286935
 20
334.345992
 30
0.0
  0
LWPOLYLINE
  5
2c1
100
AcDbEntity
  8
A0102_Printing_01
 62
7
100
AcDbPolyline
 90
3
 70
1
 10
2961.271126
 20
146.271196
 30
0.0
 10
2962.169126
 20
143.529196
 30
0.0
 10
2963.064126
 20
146.271196
 30
0.0
  0
LWPOLYLINE
  5
2c2
100
AcDbEntity
  8
A0102_Printing_01
 62
1
100
AcDbPolyline
 90
4
 70
1
 10
2980.876925
 20
405.212990
 30
0.0
 10
2966.703926
 20
405.212990
 30
0.0
 10
2966.703926
 20
476.078988
 30
0.0
 10
2980.876925
 20
476.078988
 30
0.0
  0
LWPOLYLINE
  5
2c3
100
AcDbEntity
  8
A0102_Printing_01
 62
1
100
AcDbPolyline
 90
4
 70
1
 10
2796.624930
 20
405.212990
 30
0.0
 10
2782.451930
 20
405.212990
 30
0.0
 10
2782.451930
 20
476.078988
 30
0.0
 10
2796.624930
 20
476.078988
 30
0.0
  0
LWPOLYLINE
  5
2c4
100
AcDbEntity
  8
A0102_Printing_01
 62
1
100
AcDbPolyline
 90
24
 70
1
 10
3143.868921
 20
532.771987
 30
0.0
 10
2605.286935
 20
532.771987
 30
0.0
 10
2605.286935
 20
476.078988
 30
0.0
 10
2591.113935
 20
476.078988
 30
0.0
 10
2591.113935
 20
405.212990
 30
0.0
 10
2605.286935
 20
405.212990
 30
0.0
 10
2605.286935
 20
334.345992
 30
0.0
 10
2697.412933
 20
334.345992
 30
0.0
 10
2697.412933
 20
348.519991
 30
0.0
 10
2754.105931
 20
348.519991
 30
0.0
 10
2754.105931
 20
334.345992
 30
0.0
 10
2846.231929
 20
334.345992
 30
0.0
 10
2846.231929
 20
348.519991
 30
0.0
 10
2902.924927
 20
348.519991
 30
0.0
 10
2902.924927
 20
334.345992
 30
0.0
 10
2995.050925
 20
334.345992
 30
0.0
 10
2995.050925
 20
348.519991
 30
0.0
 10
3051.742924
 20
348.519991
 30
0.0
 10
3051.742924
 20
334.345992
 30
0.0
 10
3143.868921
 20
334.345992
 30
0.0
 10
3143.868921
 20
405.212990
 30
0.0
 10
3158.042921
 20
405.212990
 30
0.0
 10
3158.042921
 20
476.078988
 30
0.0
 10
3143.868921
 20
476.078988
 30
0.0
  0
LWPOLYLINE
  5
2c5
100
AcDbEntity
  8
A0102_Printing_01
 62
1
100
AcDbPolyline
 90
24
 70
1
 10
2576.940136
 20
192.614195
 30
0.0
 10
2591.113135
 20
192.614195
 30
0.0
 10
2591.113135
 20
263.480193
 30
0.0
 10
2576.940136
 20
263.480193
 30
0.0
 10
2576.940136
 20
334.346192
 30
0.0
 10
2484.814138
 20
334.346192
 30
0.0
 10
2484.814138
 20
320.173192
 30
0.0
 10
2428.121139
 20
320.173192
 30
0.0
 10
2428.121139
 20
334.346192
 30
0.0
 10
2335.995142
 20
334.346192
 30
0.0
 10
2335.995142
 20
320.173192
 30
0.0
 10
2279.302143
 20
320.173192
 30
0.0
 10
2279.302143
 20
334.346192
 30
0.0
 10
2187.176145
 20
334.346192
 30
0.0
 10
2187.176145
 20
320.173192
 30
0.0
 10
2130.483147
 20
320.173192
 30
0.0
 10
2130.483147
 20
334.346192
 30
0.0
 10
2038.357149
 20
334.346192
 30
0.0
 10
2038.357149
 20
263.480193
 30
0.0
 10
2024.184149
 20
263.480193
 30
0.0
 10
2024.184149
 20
192.614195
 30
0.0
 10
2038.357149
 20
192.614195
 30
0.0
 10
2038.357149
 20
135.921197
 30
0.0
 10
2576.940136
 20
135.921197
 30
0.0
  0
LWPOLYLINE
  5
2c6
100
AcDbEntity
  8
A0102_Printing_01
 62
1
100
AcDbPolyline
 90
24
 70
1
 10
2576.940136
 20
532.771687
 30
0.0
 10
2038.357149
 20
532.771687
 30
0.0
 10
2038.357149
 20
476.078688
 30
0.0
 10
2024.184149
 20
476.078688
 30
0.0
 10
2024.184149
 20
405.212690
 30
0.0
 10
2038.357149
 20
405.212690
 30
0.0
 10
2038.357149
 20
334.346692
 30
0.0
 10
2130.483147
 20
334.346692
 30
0.0
 10
2130.483147
 20
348.519691
 30
0.0
 10
2187.176145
 20
348.519691
 30
0.0
 10
2187.176145
 20
334.346692
 30
0.0
 10
2279.302143
 20
334.346692
 30
0.0
 10
2279.302143
 20
348.519691
 30
0.0
 10
2335.995142
 20
348.519691
 30
0.0
 10
2335.995142
 20
334.346692
 30
0.0
 10
2428.121139
 20
334.346692
 30
0.0
 10
2428.121139
 20
348.519691
 30
0.0
 10
2484.814138
 20
348.519691
 30
0.0
 10
2484.814138
 20
334.346692
 30
0.0
 10
2576.940136
 20
334.346692
 30
0.0
 10
2576.940136
 20
405.212690
 30
0.0
 10
2591.113135
 20
405.212690
 30
0.0
 10
2591.113135
 20
476.078688
 30
0.0
 10
2576.940136
 20
476.078688
 30
0.0
  0
LWPOLYLINE
  5
2c7
100
AcDbEntity
  8
A0102_Printing_01
 62
1
100
AcDbPolyline
 90
26
 70
1
 10
1261.532568
 20
58.195699
 30
0.0
 10
1800.115555
 20
58.195699
 30
0.0
 10
1800.115555
 20
129.061697
 30
0.0
 10
1814.288555
 20
129.061697
 30
0.0
 10
1814.288555
 20
185.754695
 30
0.0
 10
1800.115555
 20
185.754695
 30
0.0
 10
1800.115555
 20
242.447694
 30
0.0
 10
1736.335557
 20
242.447694
 30
0.0
 10
1736.335557
 20
256.620694
 30
0.0
 10
1679.642558
 20
256.620694
 30
0.0
 10
1679.642558
 20
242.447694
 30
0.0
 10
1587.516560
 20
242.447694
 30
0.0
 10
1587.516560
 20
256.620694
 30
0.0
 10
1532.241562
 20
256.620694
 30
0.0
 10
1532.241562
 20
242.447694
 30
0.0
 10
1440.115564
 20
242.447694
 30
0.0
 10
1440.115564
 20
256.620694
 30
0.0
 10
1384.839565
 20
256.620694
 30
0.0
 10
1384.839565
 20
242.447694
 30
0.0
 10
1292.713568
 20
242.447694
 30
0.0
 10
1292.713568
 20
256.620694
 30
0.0
 10
1261.532568
 20
256.620694
 30
0.0
 10
1261.532568
 20
185.754695
 30
0.0
 10
1247.359569
 20
185.754695
 30
0.0
 10
1247.359569
 20
129.061697
 30
0.0
 10
1261.532568
 20
129.061697
 30
0.0
  0
LWPOLYLINE
  5
2c8
100
AcDbEntity
  8
A0102_Printing_01
 62
1
100
AcDbPolyline
 90
50
 70
1
 10
1485.556563
 20
440.854889
 30
0.0
 10
2024.139549
 20
440.854889
 30
0.0
 10
2024.139549
 20
369.988891
 30
0.0
 10
2038.312549
 20
369.988891
 30
0.0
 10
2038.312549
 20
313.295892
 30
0.0
 10
2024.139549
 20
313.295892
 30
0.0
 10
2024.139549
 20
256.602894
 30
0.0
 10
1960.359551
 20
256.602894
 30
0.0
 10
1960.359551
 20
242.429894
 30
0.0
 10
1903.666552
 20
242.429894
 30
0.0
 10
1903.666552
 20
256.602894
 30
0.0
 10
1811.540555
 20
256.602894
 30
0.0
 10
1811.540555
 20
242.429894
 30
0.0
 10
1756.265556
 20
242.429894
 30
0.0
 10
1756.265556
 20
256.602894
 30
0.0
 10
1664.139558
 20
256.602894
 30
0.0
 10
1664.139558
 20
242.429894
 30
0.0
 10
1608.863560
 20
242.429894
 30
0.0
 10
1608.863560
 20
256.602894
 30
0.0
 10
1516.737562
 20
256.602894
 30
0.0
 10
1516.737562
 20
242.429894
 30
0.0
 10
1485.556563
 20
242.429894
 30
0.0
 10
1485.556563
 20
313.295892
 30
0.0
 10
1471.383563
 20
313.295892
 30
0.0
 10
1471.383563
 20
369.988891
 30
0.0
 10
1485.556563
 20
369.988891
 30
0.0
 10
1485.556563
 20
440.854889
 30
0.0
 10
2024.139449
 20
440.854889
 30
0.0
 10
2024.139449
 20
511.720887
 30
0.0
 10
2038.312449
 20
511.720887
 30
0.0
 10
2038.312449
 20
568.413886
 30
0.0
 10
2024.139449
 20
568.413886
 30
0.0
 10
2024.139449
 20
625.106884
 30
0.0
 10
1981.619450
 20
625.106884
 30
0.0
 10
1981.619450
 20
639.279884
 30
0.0
 10
1868.233453
 20
639.279884
 30
0.0
 10
1868.233453
 20
625.106884
 30
0.0
 10
1811.540455
 20
625.106884
 30
0.0
 10
1811.540455
 20
639.279884
 30
0.0
 10
1698.154458
 20
639.279884
 30
0.0
 10
1698.154458
 20
625.106884
 30
0.0
 10
1641.462459
 20
625.106884
 30
0.0
 10
1641.462459
 20
639.279884
 30
0.0
 10
1528.076462
 20
639.279884
 30
0.0
 10
1528.076462
 20
625.106884
 30
0.0
 10
1485.556463
 20
625.106884
 30
0.0
 10
1485.556463
 20
568.413886
 30
0.0
 10
1471.383463
 20
568.413886
 30
0.0
 10
1471.383463
 20
511.720887
 30
0.0
 10
1485.556463
 20
511.720887
 30
0.0
  0
LWPOLYLINE
  5
2c9
100
AcDbEntity
  8
A0102_Printing_01
 62
1
100
AcDbPolyline
 90
24
 70
1
 10
708.786382
 20
334.365792
 30
0.0
 10
1247.369369
 20
334.365792
 30
0.0
 10
1247.369369
 20
263.499793
 30
0.0
 10
1261.542368
 20
263.499793
 30
0.0
 10
1261.542368
 20
206.806795
 30
0.0
 10
1247.369369
 20
206.806795
 30
0.0
 10
1247.369369
 20
150.113796
 30
0.0
 10
1204.849370
 20
150.113796
 30
0.0
 10
1204.849370
 20
135.940797
 30
0.0
 10
1091.463373
 20
135.940797
 30
0.0
 10
1091.463373
 20
150.113796
 30
0.0
 10
1034.770374
 20
150.113796
 30
0.0
 10
1034.770374
 20
135.940797
 30
0.0
 10
921.384377
 20
135.940797
 30
0.0
 10
921.384377
 20
150.113796
 30
0.0
 10
864.692378
 20
150.113796
 30
0.0
 10
864.692378
 20
135.940797
 30
0.0
 10
751.306381
 20
135.940797
 30
0.0
 10
751.306381
 20
150.113796
 30
0.0
 10
708.786382
 20
150.113796
 30
0.0
 10
708.786382
 20
206.806795
 30
0.0
 10
694.613383
 20
206.806795
 30
0.0
 10
694.613383
 20
263.499793
 30
0.0
 10
708.786382
 20
263.499793
 30
0.0
  0
LWPOLYLINE
  5
2ca
100
AcDbEntity
  8
A0102_Printing_01
 62
1
100
AcDbPolyline
 90
4
 70
1
 10
474.927988
 20
405.231990
 30
0.0
 10
460.754988
 20
405.231990
 30
0.0
 10
460.754988
 20
476.097988
 30
0.0
 10
474.927988
 20
476.097988
 30
0.0
  0
LWPOLYLINE
  5
2cb
100
AcDbEntity
  8
A0102_Printing_01
 62
1
100
AcDbPolyline
 90
4
 70
1
 10
248.155994
 20
405.231990
 30
0.0
 10
233.982994
 20
405.231990
 30
0.0
 10
233.982994
 20
476.097988
 30
0.0
 10
248.155994
 20
476.097988
 30
0.0
  0
LWPOLYLINE
  5
2cc
100
AcDbEntity
  8
A0102_Printing_01
 62
1
100
AcDbPolyline
 90
32
 70
1
 10
708.785982
 20
476.097988
 30
0.0
 10
708.785982
 20
532.790987
 30
0.0
 10
0.125000
 20
532.790987
 30
0.0
 10
0.125000
 20
476.097988
 30
0.0
 10
14.298000
 20
476.097988
 30
0.0
 10
14.298000
 20
405.231990
 30
0.0
 10
0.125000
 20
405.231990
 30
0.0
 10
0.125000
 20
348.538991
 30
0.0
 10
70.990998
 20
348.538991
 30
0.0
 10
70.990998
 20
334.365992
 30
0.0
 10
127.683997
 20
334.365992
 30
0.0
 10
127.683997
 20
348.538991
 30
0.0
 10
198.549995
 20
348.538991
 30
0.0
 10
198.549995
 20
334.365992
 30
0.0
 10
255.242994
 20
334.365992
 30
0.0
 10
255.242994
 20
348.538991
 30
0.0
 10
326.108992
 20
348.538991
 30
0.0
 10
326.108992
 20
334.365992
 30
0.0
 10
382.801990
 20
334.365992
 30
0.0
 10
382.801990
 20
348.538991
 30
0.0
 10
453.667989
 20
348.538991
 30
0.0
 10
453.667989
 20
334.365992
 30
0.0
 10
510.360987
 20
334.365992
 30
0.0
 10
510.360987
 20
348.538991
 30
0.0
 10
581.226985
 20
348.538991
 30
0.0
 10
581.226985
 20
334.365992
 30
0.0
 10
637.919984
 20
334.365992
 30
0.0
 10
637.919984
 20
348.538991
 30
0.0
 10
708.785982
 20
348.538991
 30
0.0
 10
708.785982
 20
405.231990
 30
0.0
 10
694.612983
 20
405.231990
 30
0.0
 10
694.612983
 20
476.097988
 30
0.0
  0
LWPOLYLINE
  5
2cd
100
AcDbEntity
  8
A0102_Printing_01
 62
1
100
AcDbPolyline
 90
4
 70
1
 10
474.927988
 20
206.806995
 30
0.0
 10
460.754988
 20
206.806995
 30
0.0
 10
460.754988
 20
277.672993
 30
0.0
 10
474.927988
 20
277.672993
 30
0.0
  0
LWPOLYLINE
  5
2ce
100
AcDbEntity
  8
A0102_Printing_01
 62
1
100
AcDbPolyline
 90
4
 70
1
 10
248.155994
 20
206.806995
 30
0.0
 10
233.982994
 20
206.806995
 30
0.0
 10
233.982994
 20
277.672993
 30
0.0
 10
248.155994
 20
277.672993
 30
0.0
  0
LWPOLYLINE
  5
2cf
100
AcDbEntity
  8
A0102_Printing_01
 62
1
100
AcDbPolyline
 90
32
 70
1
 10
708.785982
 20
277.672993
 30
0.0
 10
708.785982
 20
334.365992
 30
0.0
 10
0.125000
 20
334.365992
 30
0.0
 10
0.125000
 20
277.672993
 30
0.0
 10
14.298000
 20
277.672993
 30
0.0
 10
14.298000
 20
206.806995
 30
0.0
 10
0.125000
 20
206.806995
 30
0.0
 10
0.125000
 20
150.113996
 30
0.0
 10
70.990998
 20
150.113996
 30
0.0
 10
70.990998
 20
135.940997
 30
0.0
 10
127.683997
 20
135.940997
 30
0.0
 10
127.683997
 20
150.113996
 30
0.0
 10
198.549995
 20
150.113996
 30
0.0
 10
198.549995
 20
135.940997
 30
0.0
 10
255.242994
 20
135.940997
 30
0.0
 10
255.242994
 20
150.113996
 30
0.0
 10
326.108992
 20
150.113996
 30
0.0
 10
326.108992
 20
135.940997
 30
0.0
 10
382.801990
 20
135.940997
 30
0.0
 10
382.801990
 20
150.113996
 30
0.0
 10
453.667989
 20
150.113996
 30
0.0
 10
453.667989
 20
135.940997
 30
0.0
 10
510.360987
 20
135.940997
 30
0.0
 10
510.360987
 20
150.113996
 30
0.0
 10
581.226985
 20
150.113996
 30
0.0
 10
581.226985
 20
135.940997
 30
0.0
 10
637.919984
 20
135.940997
 30
0.0
 10
637.919984
 20
150.113996
 30
0.0
 10
708.785982
 20
150.113996
 30
0.0
 10
708.785982
 20
206.806995
 30
0.0
 10
694.612983
 20
206.806995
 30
0.0
 10
694.612983
 20
277.672993
 30
0.0
  0
LWPOLYLINE
  5
2d0
100
AcDbEntity
  8
A0102_Printing_01
 62
1
100
AcDbPolyline
 90
20
 70
1
 10
1102.802072
 20
461.924888
 30
0.0
 10
1102.802072
 20
532.790887
 30
0.0
 10
708.786082
 20
532.790887
 30
0.0
 10
708.786082
 20
461.924888
 30
0.0
 10
722.959082
 20
461.924888
 30
0.0
 10
722.959082
 20
405.231890
 30
0.0
 10
708.786082
 20
405.231890
 30
0.0
 10
708.786082
 20
334.365892
 30
0.0
 10
779.652081
 20
334.365892
 30
0.0
 10
779.652081
 20
348.538891
 30
0.0
 10
877.448078
 20
348.538891
 30
0.0
 10
877.448078
 20
334.365892
 30
0.0
 10
934.141077
 20
334.365892
 30
0.0
 10
934.141077
 20
348.538891
 30
0.0
 10
1031.936074
 20
348.538891
 30
0.0
 10
1031.936074
 20
334.365892
 30
0.0
 10
1102.802072
 20
334.365892
 30
0.0
 10
1102.802072
 20
405.231890
 30
0.0
 10
1088.629073
 20
405.231890
 30
0.0
 10
1088.629073
 20
461.924888
 30
0.0
  0
LWPOLYLINE
  5
2d1
100
AcDbEntity
  8
A0102_Printing_01
 62
1
100
AcDbPolyline
 90
24
 70
1
 10
1398.522865
 20
461.924788
 30
0.0
 10
1398.522865
 20
532.790787
 30
0.0
 10
1103.719872
 20
532.790787
 30
0.0
 10
1103.719872
 20
461.924788
 30
0.0
 10
1117.892872
 20
461.924788
 30
0.0
 10
1117.892872
 20
405.231790
 30
0.0
 10
1103.719872
 20
405.231790
 30
0.0
 10
1103.719872
 20
348.538791
 30
0.0
 10
1117.892872
 20
348.538791
 30
0.0
 10
1117.892872
 20
334.365792
 30
0.0
 10
1166.081871
 20
334.365792
 30
0.0
 10
1166.081871
 20
348.538791
 30
0.0
 10
1222.774869
 20
348.538791
 30
0.0
 10
1222.774869
 20
334.365792
 30
0.0
 10
1279.467868
 20
334.365792
 30
0.0
 10
1279.467868
 20
348.538791
 30
0.0
 10
1336.160867
 20
348.538791
 30
0.0
 10
1336.160867
 20
334.365792
 30
0.0
 10
1384.349865
 20
334.365792
 30
0.0
 10
1384.349865
 20
348.538791
 30
0.0
 10
1398.522865
 20
348.538791
 30
0.0
 10
1398.522865
 20
405.231790
 30
0.0
 10
1384.349865
 20
405.231790
 30
0.0
 10
1384.349865
 20
461.924788
 30
0.0
  0
ENDSEC
  0
SECTION
  2
OBJECTS
  0
DICTIONARY
  5
C
330
0
100
AcDbDictionary
  3
ACAD_GROUP
350
D
  3
ACAD_MLINESTYLE
350
17
  0
DICTIONARY
  5
D
330
C
100
AcDbDictionary
  0
DICTIONARY
  5
1A
330
C
100
AcDbDictionary
  0
DICTIONARY
  5
17
330
C
100
AcDbDictionary
  3
STANDARD
350
18
  0
DICTIONARY
  5
19
330
C
100
AcDbDictionary
  0
ENDSEC
  0
EOF
