  0
SECTION
  2
HEADER
  9
$ACADVER
  1
AC1014
  9
$HANDSEED
  5
FFFF
  9
$MEASUREMENT
 70
     1
  0
ENDSEC
  0
SECTION
  2
TABLES
  0
TABLE
  2
VPORT
  5
8
330
0
100
AcDbSymbolTable
 70
     4
  0
VPORT
  5
2E
330
8
100
AcDbSymbolTableRecord
100
AcDbViewportTableRecord
  2
*ACTIVE
 70
     0
 10
0.0
 20
0.0
 11
1.0
 21
1.0
 12
210.0
 22
148.5
 13
0.0
 23
0.0
 14
10.0
 24
10.0
 15
10.0
 25
10.0
 16
0.0
 26
0.0
 36
1.0
 17
0.0
 27
0.0
 37
0.0
 40
341.0
 41
1.24
 42
50.0
 43
0.0
 44
0.0
 50
0.0
 51
0.0
 71
     0
 72
   100
 73
     1
 74
     3
 75
     0
 76
     0
 77
     0
 78
     0
  0
ENDTAB
  0
TABLE
  2
LTYPE
  5
5
330
0
100
AcDbSymbolTable
 70
     1
  0
LTYPE
  5
14
330
5
100
AcDbSymbolTableRecord
100
AcDbLinetypeTableRecord
  2
BYBLOCK
 70
     0
  3

 72
    65
 73
     0
 40
0.0
  0
LTYPE
  5
15
330
5
100
AcDbSymbolTableRecord
100
AcDbLinetypeTableRecord
  2
BYLAYER
 70
     0
  3

 72
    65
 73
     0
 40
0.0
  0
LTYPE
  5
16
330
5
100
AcDbSymbolTableRecord
100
AcDbLinetypeTableRecord
  2
CONTINUOUS
 70
     0
  3
Solid line
 72
    65
 73
     0
 40
0.0
  0
ENDTAB
  0
TABLE
  2
LAYER
  5
2
100
AcDbSymbolTable
 70
2
  0
LAYER
  5
50
100
AcDbSymbolTableRecord
100
AcDbLayerTableRecord
  2
0
 70
0
  6
CONTINUOUS
  0
LAYER
  5
51
100
AcDbSymbolTableRecord
100
AcDbLayerTableRecord
  2
A0102_Printing_02
 70
0
  6
CONTINUOUS
  0
ENDTAB
  0
TABLE
  2
STYLE
  5
3
330
0
100
AcDbSymbolTable
 70
     1
  0
STYLE
  5
11
330
3
100
AcDbSymbolTableRecord
100
AcDbTextStyleTableRecord
  2
STANDARD
 70
     0
 40
0.0
 41
1.0
 50
0.0
 71
     0
 42
2.5
  3
txt
  4

  0
ENDTAB
  0
TABLE
  2
VIEW
  5
6
330
0
100
AcDbSymbolTable
 70
     0
  0
ENDTAB
  0
TABLE
  2
UCS
  5
7
330
0
100
AcDbSymbolTable
 70
     0
  0
ENDTAB
  0
TABLE
  2
APPID
  5
9
330
0
100
AcDbSymbolTable
 70
     2
  0
APPID
  5
12
330
9
100
AcDbSymbolTableRecord
100
AcDbRegAppTableRecord
  2
ACAD
 70
     0
  0
ENDTAB
  0
TABLE
  2
DIMSTYLE
  5
A
330
0
100
AcDbSymbolTable
 70
     1
  0
DIMSTYLE
105
27
330
A
100
AcDbSymbolTableRecord
100
AcDbDimStyleTableRecord
  2
ISO-25
 70
     0
  3

  4

  5

  6

  7

 40
1.0
 41
2.5
 42
0.625
 43
3.75
 44
1.25
 45
0.0
 46
0.0
 47
0.0
 48
0.0
140
2.5
141
2.5
142
0.0
143
0.03937007874016
144
1.0
145
0.0
146
1.0
147
0.625
 71
     0
 72
     0
 73
     0
 74
     0
 75
     0
 76
     0
 77
     1
 78
     8
170
     0
171
     3
172
     1
173
     0
174
     0
175
     0
176
     0
177
     0
178
     0
270
     2
271
     2
272
     2
273
     2
274
     3
340
11
275
     0
280
     0
281
     0
282
     0
283
     0
284
     8
285
     0
286
     0
287
     3
288
     0
  0
ENDTAB
  0
TABLE
  2
BLOCK_RECORD
  5
1
330
0
100
AcDbSymbolTable
 70
     1
  0
BLOCK_RECORD
  5
1F
330
1
100
AcDbSymbolTableRecord
100
AcDbBlockTableRecord
  2
*MODEL_SPACE
  0
BLOCK_RECORD
  5
1B
330
1
100
AcDbSymbolTableRecord
100
AcDbBlockTableRecord
  2
*PAPER_SPACE
  0
ENDTAB
  0
ENDSEC
  0
SECTION
  2
BLOCKS
  0
BLOCK
  5
20
330
1F
100
AcDbEntity
  8
0
100
AcDbBlockBegin
  2
*MODEL_SPACE
 70
     0
 10
0.0
 20
0.0
 30
0.0
  3
*MODEL_SPACE
  1

  0
ENDBLK
  5
21
330
1F
100
AcDbEntity
  8
0
100
AcDbBlockEnd
  0
BLOCK
  5
1C
330
1B
100
AcDbEntity
 67
     1
  8
0
100
AcDbBlockBegin
  2
*PAPER_SPACE
  1

  0
ENDBLK
  5
1D
330
1B
100
AcDbEntity
 67
     1
  8
0
100
AcDbBlockEnd
  0
ENDSEC
  0
SECTION
  2
ENTITIES
  0
LWPOLYLINE
  5
100
100
AcDbEntity
  8
A0102_Printing_02
 62
1
100
AcDbPolyline
 90
4
 70
1
 10
378.549991
 20
97.496998
 30
0.0
 10
364.376991
 20
97.496998
 30
0.0
 10
364.376991
 20
154.189996
 30
0.0
 10
378.549991
 20
154.189996
 30
0.0
  0
LWPOLYLINE
  5
101
100
AcDbEntity
  8
A0102_Printing_02
 62
1
100
AcDbPolyline
 90
4
 70
1
 10
378.549991
 20
210.882995
 30
0.0
 10
364.376991
 20
210.882995
 30
0.0
 10
364.376991
 20
267.575993
 30
0.0
 10
378.549991
 20
267.575993
 30
0.0
  0
SPLINE
  5
102
100
AcDbEntity
  8
A0102_Printing_02
 62
1
100
AcDbSpline
 70
8
 71
3
 72
8
 73
4
 74
0
 40
0
 40
0
 40
0
 40
0
 40
1
 40
1
 40
1
 40
1
 10
14.298000
 20
40.803999
 30
0.0
 10
14.298000
 20
33.252999
 30
0.0
 10
33.333999
 20
27.130999
 30
0.0
 10
56.816999
 20
27.130999
 30
0.0
  0
SPLINE
  5
103
100
AcDbEntity
  8
A0102_Printing_02
 62
1
100
AcDbSpline
 70
8
 71
3
 72
8
 73
4
 74
0
 40
0
 40
0
 40
0
 40
0
 40
1
 40
1
 40
1
 40
1
 10
56.816999
 20
27.130999
 30
0.0
 10
80.299998
 20
27.130999
 30
0.0
 10
99.336998
 20
33.252999
 30
0.0
 10
99.336998
 20
40.803999
 30
0.0
  0
SPLINE
  5
104
100
AcDbEntity
  8
A0102_Printing_02
 62
1
100
AcDbSpline
 70
8
 71
3
 72
8
 73
4
 74
0
 40
0
 40
0
 40
0
 40
0
 40
1
 40
1
 40
1
 40
1
 10
99.336998
 20
40.803999
 30
0.0
 10
99.336998
 20
29.338999
 30
0.0
 10
221.171994
 20
5.871000
 30
0.0
 10
371.462991
 20
5.871000
 30
0.0
  0
SPLINE
  5
105
100
AcDbEntity
  8
A0102_Printing_02
 62
1
100
AcDbSpline
 70
8
 71
3
 72
8
 73
4
 74
0
 40
0
 40
0
 40
0
 40
0
 40
1
 40
1
 40
1
 40
1
 10
371.462991
 20
5.871000
 30
0.0
 10
521.754987
 20
5.871000
 30
0.0
 10
643.589984
 20
29.338999
 30
0.0
 10
643.589984
 20
40.803999
 30
0.0
  0
LWPOLYLINE
  5
106
100
AcDbEntity
  8
A0102_Printing_02
 62
1
100
AcDbPolyline
 90
25
 70
0
 10
728.628982
 20
154.189996
 30
0.0
 10
728.628982
 20
210.882995
 30
0.0
 10
742.801981
 20
210.882995
 30
0.0
 10
742.801981
 20
270.409993
 30
0.0
 10
671.935983
 20
270.409993
 30
0.0
 10
671.935983
 20
284.583993
 30
0.0
 10
615.242985
 20
284.583993
 30
0.0
 10
615.242985
 20
270.409993
 30
0.0
 10
399.809990
 20
270.409993
 30
0.0
 10
399.809990
 20
284.583993
 30
0.0
 10
343.116991
 20
284.583993
 30
0.0
 10
343.116991
 20
270.409993
 30
0.0
 10
127.683997
 20
270.409993
 30
0.0
 10
127.683997
 20
284.583993
 30
0.0
 10
70.990998
 20
284.583993
 30
0.0
 10
70.990998
 20
270.409993
 30
0.0
 10
0.125000
 20
270.409993
 30
0.0
 10
0.125000
 20
210.882995
 30
0.0
 10
14.298000
 20
210.882995
 30
0.0
 10
14.298000
 20
154.189996
 30
0.0
 10
0.125000
 20
154.189996
 30
0.0
 10
0.125000
 20
97.496998
 30
0.0
 10
14.298000
 20
97.496998
 30
0.0
 10
14.298000
 20
40.807999
 30
0.0
 10
14.298000
 20
40.803999
 30
0.0
  0
SPLINE
  5
107
100
AcDbEntity
  8
A0102_Printing_02
 62
1
100
AcDbSpline
 70
8
 71
3
 72
8
 73
4
 74
0
 40
0
 40
0
 40
0
 40
0
 40
1
 40
1
 40
1
 40
1
 10
643.589984
 20
40.803999
 30
0.0
 10
643.589984
 20
33.252999
 30
0.0
 10
662.625983
 20
27.130999
 30
0.0
 10
686.108983
 20
27.130999
 30
0.0
  0
SPLINE
  5
108
100
AcDbEntity
  8
A0102_Printing_02
 62
1
100
AcDbSpline
 70
8
 71
3
 72
8
 73
4
 74
0
 40
0
 40
0
 40
0
 40
0
 40
1
 40
1
 40
1
 40
1
 10
686.108983
 20
27.130999
 30
0.0
 10
709.591982
 20
27.130999
 30
0.0
 10
728.628982
 20
33.252999
 30
0.0
 10
728.628982
 20
40.803999
 30
0.0
  0
LWPOLYLINE
  5
109
100
AcDbEntity
  8
A0102_Printing_02
 62
1
100
AcDbPolyline
 90
1
 70
1
 10
643.589984
 20
40.803999
 30
0.0
  0
LWPOLYLINE
  5
10a
100
AcDbEntity
  8
A0102_Printing_02
 62
1
100
AcDbPolyline
 90
6
 70
0
 10
728.628982
 20
40.803999
 30
0.0
 10
728.628982
 20
40.808999
 30
0.0
 10
728.628982
 20
97.496998
 30
0.0
 10
742.801981
 20
97.496998
 30
0.0
 10
742.801981
 20
154.189996
 30
0.0
 10
728.628982
 20
154.189996
 30
0.0
  0
LWPOLYLINE
  5
10b
100
AcDbEntity
  8
A0102_Printing_02
 62
1
100
AcDbPolyline
 90
32
 70
1
 10
96.502798
 20
284.583693
 30
0.0
 10
153.195796
 20
284.583693
 30
0.0
 10
153.195796
 20
298.756693
 30
0.0
 10
249.573794
 20
298.756693
 30
0.0
 10
249.573794
 20
284.583693
 30
0.0
 10
306.266792
 20
284.583693
 30
0.0
 10
306.266792
 20
298.756693
 30
0.0
 10
402.644790
 20
298.756693
 30
0.0
 10
402.644790
 20
284.583693
 30
0.0
 10
459.337789
 20
284.583693
 30
0.0
 10
459.337789
 20
298.756693
 30
0.0
 10
569.888786
 20
298.756693
 30
0.0
 10
569.888786
 20
371.040691
 30
0.0
 10
584.061785
 20
371.040691
 30
0.0
 10
584.061785
 20
427.733689
 30
0.0
 10
569.888786
 20
427.733689
 30
0.0
 10
569.888786
 20
500.016687
 30
0.0
 10
459.337789
 20
500.016687
 30
0.0
 10
459.337789
 20
514.189687
 30
0.0
 10
402.644790
 20
514.189687
 30
0.0
 10
402.644790
 20
500.016687
 30
0.0
 10
306.266792
 20
500.016687
 30
0.0
 10
306.266792
 20
514.189687
 30
0.0
 10
249.573794
 20
514.189687
 30
0.0
 10
249.573794
 20
500.016687
 30
0.0
 10
153.195796
 20
500.016687
 30
0.0
 10
153.195796
 20
514.189687
 30
0.0
 10
96.502798
 20
514.189687
 30
0.0
 10
96.502798
 20
500.016687
 30
0.0
 10
0.124800
 20
500.016687
 30
0.0
 10
0.124800
 20
298.756693
 30
0.0
 10
96.502798
 20
298.756693
 30
0.0
  0
SPLINE
  5
10c
100
AcDbEntity
  8
A0102_Printing_02
 62
1
100
AcDbSpline
 70
8
 71
3
 72
8
 73
4
 74
0
 40
0
 40
0
 40
0
 40
0
 40
1
 40
1
 40
1
 40
1
 10
616.660185
 20
925.389277
 30
0.0
 10
616.660185
 20
933.217277
 30
0.0
 10
580.173185
 20
939.562277
 30
0.0
 10
535.164187
 20
939.562277
 30
0.0
  0
SPLINE
  5
10d
100
AcDbEntity
  8
A0102_Printing_02
 62
1
100
AcDbSpline
 70
8
 71
3
 72
8
 73
4
 74
0
 40
0
 40
0
 40
0
 40
0
 40
1
 40
1
 40
1
 40
1
 10
535.164187
 20
939.562277
 30
0.0
 10
490.155188
 20
939.562277
 30
0.0
 10
453.668189
 20
933.217277
 30
0.0
 10
453.668189
 20
925.389277
 30
0.0
  0
LWPOLYLINE
  5
10e
100
AcDbEntity
  8
A0102_Printing_02
 62
1
100
AcDbPolyline
 90
3
 70
0
 10
694.613183
 20
868.696278
 30
0.0
 10
694.613183
 20
925.389277
 30
0.0
 10
616.660185
 20
925.389277
 30
0.0
  0
SPLINE
  5
10f
100
AcDbEntity
  8
A0102_Printing_02
 62
1
100
AcDbSpline
 70
8
 71
3
 72
8
 73
4
 74
0
 40
0
 40
0
 40
0
 40
0
 40
1
 40
1
 40
1
 40
1
 10
439.495189
 20
925.389277
 30
0.0
 10
439.495189
 20
933.217277
 30
0.0
 10
401.421190
 20
939.562277
 30
0.0
 10
354.455191
 20
939.562277
 30
0.0
  0
SPLINE
  5
110
100
AcDbEntity
  8
A0102_Printing_02
 62
1
100
AcDbSpline
 70
8
 71
3
 72
8
 73
4
 74
0
 40
0
 40
0
 40
0
 40
0
 40
1
 40
1
 40
1
 40
1
 10
354.455191
 20
939.562277
 30
0.0
 10
307.489192
 20
939.562277
 30
0.0
 10
269.416193
 20
933.217277
 30
0.0
 10
269.416193
 20
925.389277
 30
0.0
  0
LWPOLYLINE
  5
111
100
AcDbEntity
  8
A0102_Printing_02
 62
1
100
AcDbPolyline
 90
2
 70
0
 10
453.668189
 20
925.389277
 30
0.0
 10
439.495189
 20
925.389277
 30
0.0
  0
SPLINE
  5
112
100
AcDbEntity
  8
A0102_Printing_02
 62
1
100
AcDbSpline
 70
8
 71
3
 72
8
 73
4
 74
0
 40
0
 40
0
 40
0
 40
0
 40
1
 40
1
 40
1
 40
1
 10
255.243194
 20
925.389277
 30
0.0
 10
255.243194
 20
933.217277
 30
0.0
 10
218.756195
 20
939.562277
 30
0.0
 10
173.747196
 20
939.562277
 30
0.0
  0
SPLINE
  5
113
100
AcDbEntity
  8
A0102_Printing_02
 62
1
100
AcDbSpline
 70
8
 71
3
 72
8
 73
4
 74
0
 40
0
 40
0
 40
0
 40
0
 40
1
 40
1
 40
1
 40
1
 10
173.747196
 20
939.562277
 30
0.0
 10
128.738197
 20
939.562277
 30
0.0
 10
92.251198
 20
933.217277
 30
0.0
 10
92.251198
 20
925.389277
 30
0.0
  0
LWPOLYLINE
  5
114
100
AcDbEntity
  8
A0102_Printing_02
 62
1
100
AcDbPolyline
 90
2
 70
0
 10
269.416193
 20
925.389277
 30
0.0
 10
255.243194
 20
925.389277
 30
0.0
  0
LWPOLYLINE
  5
115
100
AcDbEntity
  8
A0102_Printing_02
 62
1
100
AcDbPolyline
 90
32
 70
0
 10
92.251198
 20
925.389277
 30
0.0
 10
14.298200
 20
925.389277
 30
0.0
 10
14.298200
 20
868.696278
 30
0.0
 10
0.125200
 20
868.696278
 30
0.0
 10
0.125200
 20
797.830280
 30
0.0
 10
14.298200
 20
797.830280
 30
0.0
 10
14.298200
 20
741.137281
 30
0.0
 10
95.794198
 20
741.137281
 30
0.0
 10
95.794198
 20
726.964282
 30
0.0
 10
152.487196
 20
726.964282
 30
0.0
 10
152.487196
 20
741.137281
 30
0.0
 10
233.983194
 20
741.137281
 30
0.0
 10
233.983194
 20
826.176279
 30
0.0
 10
248.156194
 20
826.176279
 30
0.0
 10
248.156194
 20
741.137281
 30
0.0
 10
326.109192
 20
741.137281
 30
0.0
 10
326.109192
 20
726.964282
 30
0.0
 10
382.802190
 20
726.964282
 30
0.0
 10
382.802190
 20
741.137281
 30
0.0
 10
460.755188
 20
741.137281
 30
0.0
 10
460.755188
 20
826.176279
 30
0.0
 10
474.928188
 20
826.176279
 30
0.0
 10
474.928188
 20
741.137281
 30
0.0
 10
556.424186
 20
741.137281
 30
0.0
 10
556.424186
 20
726.964282
 30
0.0
 10
613.117185
 20
726.964282
 30
0.0
 10
613.117185
 20
741.137281
 30
0.0
 10
694.613183
 20
741.137281
 30
0.0
 10
694.613183
 20
797.830280
 30
0.0
 10
708.786182
 20
797.830280
 30
0.0
 10
708.786182
 20
868.696278
 30
0.0
 10
694.613183
 20
868.696278
 30
0.0
  0
SPLINE
  5
116
100
AcDbEntity
  8
A0102_Printing_02
 62
1
100
AcDbSpline
 70
8
 71
3
 72
8
 73
4
 74
0
 40
0
 40
0
 40
0
 40
0
 40
1
 40
1
 40
1
 40
1
 10
92.250998
 20
528.538687
 30
0.0
 10
92.250998
 20
520.710687
 30
0.0
 10
128.737997
 20
514.365687
 30
0.0
 10
173.746996
 20
514.365687
 30
0.0
  0
SPLINE
  5
117
100
AcDbEntity
  8
A0102_Printing_02
 62
1
100
AcDbSpline
 70
8
 71
3
 72
8
 73
4
 74
0
 40
0
 40
0
 40
0
 40
0
 40
1
 40
1
 40
1
 40
1
 10
173.746996
 20
514.365687
 30
0.0
 10
218.755995
 20
514.365687
 30
0.0
 10
255.242994
 20
520.710687
 30
0.0
 10
255.242994
 20
528.538687
 30
0.0
  0
LWPOLYLINE
  5
118
100
AcDbEntity
  8
A0102_Printing_02
 62
1
100
AcDbPolyline
 90
3
 70
0
 10
14.298000
 20
585.231685
 30
0.0
 10
14.298000
 20
528.538687
 30
0.0
 10
92.250998
 20
528.538687
 30
0.0
  0
SPLINE
  5
119
100
AcDbEntity
  8
A0102_Printing_02
 62
1
100
AcDbSpline
 70
8
 71
3
 72
8
 73
4
 74
0
 40
0
 40
0
 40
0
 40
0
 40
1
 40
1
 40
1
 40
1
 10
269.415993
 20
528.538687
 30
0.0
 10
269.415993
 20
520.710687
 30
0.0
 10
307.489992
 20
514.365687
 30
0.0
 10
354.455991
 20
514.365687
 30
0.0
  0
SPLINE
  5
11a
100
AcDbEntity
  8
A0102_Printing_02
 62
1
100
AcDbSpline
 70
8
 71
3
 72
8
 73
4
 74
0
 40
0
 40
0
 40
0
 40
0
 40
1
 40
1
 40
1
 40
1
 10
354.455991
 20
514.365687
 30
0.0
 10
401.421990
 20
514.365687
 30
0.0
 10
439.494989
 20
520.710687
 30
0.0
 10
439.494989
 20
528.538687
 30
0.0
  0
LWPOLYLINE
  5
11b
100
AcDbEntity
  8
A0102_Printing_02
 62
1
100
AcDbPolyline
 90
2
 70
0
 10
255.242994
 20
528.538687
 30
0.0
 10
269.415993
 20
528.538687
 30
0.0
  0
SPLINE
  5
11c
100
AcDbEntity
  8
A0102_Printing_02
 62
1
100
AcDbSpline
 70
8
 71
3
 72
8
 73
4
 74
0
 40
0
 40
0
 40
0
 40
0
 40
1
 40
1
 40
1
 40
1
 10
453.667989
 20
528.538687
 30
0.0
 10
453.667989
 20
520.710687
 30
0.0
 10
490.154988
 20
514.365687
 30
0.0
 10
535.163987
 20
514.365687
 30
0.0
  0
SPLINE
  5
11d
100
AcDbEntity
  8
A0102_Printing_02
 62
1
100
AcDbSpline
 70
8
 71
3
 72
8
 73
4
 74
0
 40
0
 40
0
 40
0
 40
0
 40
1
 40
1
 40
1
 40
1
 10
535.163987
 20
514.365687
 30
0.0
 10
580.172985
 20
514.365687
 30
0.0
 10
616.659985
 20
520.710687
 30
0.0
 10
616.659985
 20
528.538687
 30
0.0
  0
LWPOLYLINE
  5
11e
100
AcDbEntity
  8
A0102_Printing_02
 62
1
100
AcDbPolyline
 90
2
 70
0
 10
439.494989
 20
528.538687
 30
0.0
 10
453.667989
 20
528.538687
 30
0.0
  0
LWPOLYLINE
  5
11f
100
AcDbEntity
  8
A0102_Printing_02
 62
1
100
AcDbPolyline
 90
32
 70
0
 10
616.659985
 20
528.538687
 30
0.0
 10
694.612983
 20
528.538687
 30
0.0
 10
694.612983
 20
585.231685
 30
0.0
 10
708.785982
 20
585.231685
 30
0.0
 10
708.785982
 20
656.097684
 30
0.0
 10
694.612983
 20
656.097684
 30
0.0
 10
694.612983
 20
712.790682
 30
0.0
 10
613.116985
 20
712.790682
 30
0.0
 10
613.116985
 20
726.963682
 30
0.0
 10
556.423986
 20
726.963682
 30
0.0
 10
556.423986
 20
712.790682
 30
0.0
 10
474.927988
 20
712.790682
 30
0.0
 10
474.927988
 20
627.751684
 30
0.0
 10
460.754988
 20
627.751684
 30
0.0
 10
460.754988
 20
712.790682
 30
0.0
 10
382.801990
 20
712.790682
 30
0.0
 10
382.801990
 20
726.963682
 30
0.0
 10
326.108992
 20
726.963682
 30
0.0
 10
326.108992
 20
712.790682
 30
0.0
 10
248.155994
 20
712.790682
 30
0.0
 10
248.155994
 20
627.751684
 30
0.0
 10
233.982994
 20
627.751684
 30
0.0
 10
233.982994
 20
712.790682
 30
0.0
 10
152.486996
 20
712.790682
 30
0.0
 10
152.486996
 20
726.963682
 30
0.0
 10
95.793998
 20
726.963682
 30
0.0
 10
95.793998
 20
712.790682
 30
0.0
 10
14.298000
 20
712.790682
 30
0.0
 10
14.298000
 20
656.097684
 30
0.0
 10
0.125000
 20
656.097684
 30
0.0
 10
0.125000
 20
585.231685
 30
0.0
 10
14.298000
 20
585.231685
 30
0.0
  0
SPLINE
  5
120
100
AcDbEntity
  8
A0102_Printing_02
 62
1
100
AcDbSpline
 70
8
 71
3
 72
8
 73
4
 74
0
 40
0
 40
0
 40
0
 40
0
 40
1
 40
1
 40
1
 40
1
 10
708.786282
 20
528.538887
 30
0.0
 10
708.786282
 20
520.710887
 30
0.0
 10
759.446281
 20
514.365887
 30
0.0
 10
804.455280
 20
514.365887
 30
0.0
  0
SPLINE
  5
121
100
AcDbEntity
  8
A0102_Printing_02
 62
1
100
AcDbSpline
 70
8
 71
3
 72
8
 73
4
 74
0
 40
0
 40
0
 40
0
 40
0
 40
1
 40
1
 40
1
 40
1
 10
804.455280
 20
514.365887
 30
0.0
 10
849.464279
 20
514.365887
 30
0.0
 10
885.951278
 20
520.710887
 30
0.0
 10
885.951278
 20
528.538887
 30
0.0
  0
LWPOLYLINE
  5
122
100
AcDbEntity
  8
A0102_Printing_02
 62
1
100
AcDbPolyline
 90
3
 70
0
 10
708.786282
 20
585.231885
 30
0.0
 10
708.786282
 20
528.538887
 30
0.0
 10
708.786282
 20
528.538887
 30
0.0
  0
SPLINE
  5
123
100
AcDbEntity
  8
A0102_Printing_02
 62
1
100
AcDbSpline
 70
8
 71
3
 72
8
 73
4
 74
0
 40
0
 40
0
 40
0
 40
0
 40
1
 40
1
 40
1
 40
1
 10
900.125277
 20
528.538887
 30
0.0
 10
900.125277
 20
520.710887
 30
0.0
 10
938.198277
 20
514.365887
 30
0.0
 10
985.164275
 20
514.365887
 30
0.0
  0
SPLINE
  5
124
100
AcDbEntity
  8
A0102_Printing_02
 62
1
100
AcDbSpline
 70
8
 71
3
 72
8
 73
4
 74
0
 40
0
 40
0
 40
0
 40
0
 40
1
 40
1
 40
1
 40
1
 10
985.164275
 20
514.365887
 30
0.0
 10
1032.130274
 20
514.365887
 30
0.0
 10
1070.203273
 20
520.710887
 30
0.0
 10
1070.203273
 20
528.538887
 30
0.0
  0
LWPOLYLINE
  5
125
100
AcDbEntity
  8
A0102_Printing_02
 62
1
100
AcDbPolyline
 90
5
 70
0
 10
885.951278
 20
528.538887
 30
0.0
 10
885.951278
 20
627.751884
 30
0.0
 10
900.125277
 20
627.751884
 30
0.0
 10
900.125277
 20
528.538887
 30
0.0
 10
900.125277
 20
528.538887
 30
0.0
  0
SPLINE
  5
126
100
AcDbEntity
  8
A0102_Printing_02
 62
1
100
AcDbSpline
 70
8
 71
3
 72
8
 73
4
 74
0
 40
0
 40
0
 40
0
 40
0
 40
1
 40
1
 40
1
 40
1
 10
1084.377273
 20
528.538887
 30
0.0
 10
1084.377273
 20
520.710887
 30
0.0
 10
1120.864272
 20
514.365887
 30
0.0
 10
1165.873271
 20
514.365887
 30
0.0
  0
SPLINE
  5
127
100
AcDbEntity
  8
A0102_Printing_02
 62
1
100
AcDbSpline
 70
8
 71
3
 72
8
 73
4
 74
0
 40
0
 40
0
 40
0
 40
0
 40
1
 40
1
 40
1
 40
1
 10
1165.873271
 20
514.365887
 30
0.0
 10
1210.882270
 20
514.365887
 30
0.0
 10
1247.369269
 20
520.710887
 30
0.0
 10
1247.369269
 20
528.538887
 30
0.0
  0
LWPOLYLINE
  5
128
100
AcDbEntity
  8
A0102_Printing_02
 62
1
100
AcDbPolyline
 90
5
 70
0
 10
1070.203273
 20
528.538887
 30
0.0
 10
1070.203273
 20
528.538887
 30
0.0
 10
1070.203273
 20
627.751884
 30
0.0
 10
1084.377273
 20
627.751884
 30
0.0
 10
1084.377273
 20
528.538887
 30
0.0
  0
LWPOLYLINE
  5
129
100
AcDbEntity
  8
A0102_Printing_02
 62
1
100
AcDbPolyline
 90
25
 70
0
 10
1247.369269
 20
528.538887
 30
0.0
 10
1247.369269
 20
528.538887
 30
0.0
 10
1247.369269
 20
585.231885
 30
0.0
 10
1261.542268
 20
585.231885
 30
0.0
 10
1261.542268
 20
655.597884
 30
0.0
 10
1247.369269
 20
655.597884
 30
0.0
 10
1247.369269
 20
712.290882
 30
0.0
 10
1247.369269
 20
712.790882
 30
0.0
 10
1201.306270
 20
712.790882
 30
0.0
 10
1201.306270
 20
726.963882
 30
0.0
 10
1144.613271
 20
726.963882
 30
0.0
 10
1144.613271
 20
712.790882
 30
0.0
 10
1009.967275
 20
712.790882
 30
0.0
 10
1009.967275
 20
726.963882
 30
0.0
 10
953.274276
 20
726.963882
 30
0.0
 10
953.274276
 20
712.790882
 30
0.0
 10
832.802279
 20
712.790882
 30
0.0
 10
832.802279
 20
726.963882
 30
0.0
 10
776.109281
 20
726.963882
 30
0.0
 10
776.109281
 20
712.790882
 30
0.0
 10
708.786282
 20
712.790882
 30
0.0
 10
708.786282
 20
656.097884
 30
0.0
 10
708.786282
 20
656.097884
 30
0.0
 10
708.786282
 20
585.231885
 30
0.0
 10
708.786282
 20
585.231885
 30
0.0
  0
SPLINE
  5
12a
100
AcDbEntity
  8
A0102_Printing_02
 62
1
100
AcDbSpline
 70
8
 71
3
 72
8
 73
4
 74
0
 40
0
 40
0
 40
0
 40
0
 40
1
 40
1
 40
1
 40
1
 10
1247.368869
 20
925.389377
 30
0.0
 10
1247.368869
 20
933.217377
 30
0.0
 10
1210.881870
 20
939.562377
 30
0.0
 10
1165.872871
 20
939.562377
 30
0.0
  0
SPLINE
  5
12b
100
AcDbEntity
  8
A0102_Printing_02
 62
1
100
AcDbSpline
 70
8
 71
3
 72
8
 73
4
 74
0
 40
0
 40
0
 40
0
 40
0
 40
1
 40
1
 40
1
 40
1
 10
1165.872871
 20
939.562377
 30
0.0
 10
1120.863872
 20
939.562377
 30
0.0
 10
1084.376873
 20
933.217377
 30
0.0
 10
1084.376873
 20
925.389377
 30
0.0
  0
LWPOLYLINE
  5
12c
100
AcDbEntity
  8
A0102_Printing_02
 62
1
100
AcDbPolyline
 90
3
 70
0
 10
1247.368869
 20
868.696378
 30
0.0
 10
1247.368869
 20
925.389377
 30
0.0
 10
1247.368869
 20
925.389377
 30
0.0
  0
SPLINE
  5
12d
100
AcDbEntity
  8
A0102_Printing_02
 62
1
100
AcDbSpline
 70
8
 71
3
 72
8
 73
4
 74
0
 40
0
 40
0
 40
0
 40
0
 40
1
 40
1
 40
1
 40
1
 10
1070.203873
 20
925.389377
 30
0.0
 10
1070.203873
 20
933.217377
 30
0.0
 10
1032.129874
 20
939.562377
 30
0.0
 10
985.163875
 20
939.562377
 30
0.0
  0
SPLINE
  5
12e
100
AcDbEntity
  8
A0102_Printing_02
 62
1
100
AcDbSpline
 70
8
 71
3
 72
8
 73
4
 74
0
 40
0
 40
0
 40
0
 40
0
 40
1
 40
1
 40
1
 40
1
 10
985.163875
 20
939.562377
 30
0.0
 10
938.197877
 20
939.562377
 30
0.0
 10
900.124877
 20
933.217377
 30
0.0
 10
900.124877
 20
925.389377
 30
0.0
  0
LWPOLYLINE
  5
12f
100
AcDbEntity
  8
A0102_Printing_02
 62
1
100
AcDbPolyline
 90
5
 70
0
 10
1084.376873
 20
925.389377
 30
0.0
 10
1084.376873
 20
826.176379
 30
0.0
 10
1070.203873
 20
826.176379
 30
0.0
 10
1070.203873
 20
925.389377
 30
0.0
 10
1070.203873
 20
925.389377
 30
0.0
  0
SPLINE
  5
130
100
AcDbEntity
  8
A0102_Printing_02
 62
1
100
AcDbSpline
 70
8
 71
3
 72
8
 73
4
 74
0
 40
0
 40
0
 40
0
 40
0
 40
1
 40
1
 40
1
 40
1
 10
885.951878
 20
925.389377
 30
0.0
 10
885.951878
 20
933.217377
 30
0.0
 10
849.464879
 20
939.562377
 30
0.0
 10
804.455880
 20
939.562377
 30
0.0
  0
SPLINE
  5
131
100
AcDbEntity
  8
A0102_Printing_02
 62
1
100
AcDbSpline
 70
8
 71
3
 72
8
 73
4
 74
0
 40
0
 40
0
 40
0
 40
0
 40
1
 40
1
 40
1
 40
1
 10
804.455880
 20
939.562377
 30
0.0
 10
759.446881
 20
939.562377
 30
0.0
 10
708.785882
 20
933.217377
 30
0.0
 10
708.785882
 20
925.389377
 30
0.0
  0
LWPOLYLINE
  5
132
100
AcDbEntity
  8
A0102_Printing_02
 62
1
100
AcDbPolyline
 90
5
 70
0
 10
900.124877
 20
925.389377
 30
0.0
 10
900.124877
 20
925.389377
 30
0.0
 10
900.124877
 20
826.176379
 30
0.0
 10
885.951878
 20
826.176379
 30
0.0
 10
885.951878
 20
925.389377
 30
0.0
  0
LWPOLYLINE
  5
133
100
AcDbEntity
  8
A0102_Printing_02
 62
1
100
AcDbPolyline
 90
25
 70
0
 10
708.785882
 20
925.389377
 30
0.0
 10
708.785882
 20
925.389377
 30
0.0
 10
708.785882
 20
868.696378
 30
0.0
 10
708.785882
 20
868.696378
 30
0.0
 10
708.785882
 20
798.330380
 30
0.0
 10
708.785882
 20
798.330380
 30
0.0
 10
708.785882
 20
741.637381
 30
0.0
 10
708.785882
 20
741.137381
 30
0.0
 10
769.022881
 20
741.137381
 30
0.0
 10
769.022881
 20
726.964382
 30
0.0
 10
825.714879
 20
726.964382
 30
0.0
 10
825.714879
 20
741.137381
 30
0.0
 10
960.360876
 20
741.137381
 30
0.0
 10
960.360876
 20
726.964382
 30
0.0
 10
1017.053875
 20
726.964382
 30
0.0
 10
1017.053875
 20
741.137381
 30
0.0
 10
1137.525872
 20
741.137381
 30
0.0
 10
1137.525872
 20
726.964382
 30
0.0
 10
1194.219870
 20
726.964382
 30
0.0
 10
1194.219870
 20
741.137381
 30
0.0
 10
1247.368869
 20
741.137381
 30
0.0
 10
1247.368869
 20
797.830380
 30
0.0
 10
1261.541868
 20
797.830380
 30
0.0
 10
1261.541868
 20
868.696378
 30
0.0
 10
1247.368869
 20
868.696378
 30
0.0
  0
LWPOLYLINE
  5
134
100
AcDbEntity
  8
A0102_Printing_02
 62
7
100
AcDbPolyline
 90
3
 70
1
 10
806.612280
 20
737.535182
 30
0.0
 10
807.510280
 20
734.793182
 30
0.0
 10
808.405280
 20
737.535182
 30
0.0
  0
SPLINE
  5
135
100
AcDbEntity
  8
A0102_Printing_02
 62
1
100
AcDbSpline
 70
8
 71
3
 72
8
 73
4
 74
0
 40
0
 40
0
 40
0
 40
0
 40
1
 40
1
 40
1
 40
1
 10
1275.715568
 20
528.538887
 30
0.0
 10
1275.715568
 20
520.710887
 30
0.0
 10
1312.202567
 20
514.365887
 30
0.0
 10
1357.211566
 20
514.365887
 30
0.0
  0
SPLINE
  5
136
100
AcDbEntity
  8
A0102_Printing_02
 62
1
100
AcDbSpline
 70
8
 71
3
 72
8
 73
4
 74
0
 40
0
 40
0
 40
0
 40
0
 40
1
 40
1
 40
1
 40
1
 10
1357.211566
 20
514.365887
 30
0.0
 10
1402.220565
 20
514.365887
 30
0.0
 10
1438.707564
 20
520.710887
 30
0.0
 10
1438.707564
 20
528.538887
 30
0.0
  0
LWPOLYLINE
  5
137
100
AcDbEntity
  8
A0102_Printing_02
 62
1
100
AcDbPolyline
 90
3
 70
0
 10
1275.715568
 20
585.231885
 30
0.0
 10
1275.715568
 20
528.538887
 30
0.0
 10
1275.715568
 20
528.538887
 30
0.0
  0
SPLINE
  5
138
100
AcDbEntity
  8
A0102_Printing_02
 62
1
100
AcDbSpline
 70
8
 71
3
 72
8
 73
4
 74
0
 40
0
 40
0
 40
0
 40
0
 40
1
 40
1
 40
1
 40
1
 10
1452.880564
 20
528.538887
 30
0.0
 10
1452.880564
 20
520.710887
 30
0.0
 10
1490.954563
 20
514.365887
 30
0.0
 10
1537.920562
 20
514.365887
 30
0.0
  0
SPLINE
  5
139
100
AcDbEntity
  8
A0102_Printing_02
 62
1
100
AcDbSpline
 70
8
 71
3
 72
8
 73
4
 74
0
 40
0
 40
0
 40
0
 40
0
 40
1
 40
1
 40
1
 40
1
 10
1537.920562
 20
514.365887
 30
0.0
 10
1584.886560
 20
514.365887
 30
0.0
 10
1622.959559
 20
520.710887
 30
0.0
 10
1622.959559
 20
528.538887
 30
0.0
  0
LWPOLYLINE
  5
13a
100
AcDbEntity
  8
A0102_Printing_02
 62
1
100
AcDbPolyline
 90
5
 70
0
 10
1438.707564
 20
528.538887
 30
0.0
 10
1438.707564
 20
627.751884
 30
0.0
 10
1452.880564
 20
627.751884
 30
0.0
 10
1452.880564
 20
528.538887
 30
0.0
 10
1452.880564
 20
528.538887
 30
0.0
  0
SPLINE
  5
13b
100
AcDbEntity
  8
A0102_Printing_02
 62
1
100
AcDbSpline
 70
8
 71
3
 72
8
 73
4
 74
0
 40
0
 40
0
 40
0
 40
0
 40
1
 40
1
 40
1
 40
1
 10
1637.132559
 20
528.538887
 30
0.0
 10
1637.132559
 20
520.710887
 30
0.0
 10
1673.619558
 20
514.365887
 30
0.0
 10
1718.628557
 20
514.365887
 30
0.0
  0
SPLINE
  5
13c
100
AcDbEntity
  8
A0102_Printing_02
 62
1
100
AcDbSpline
 70
8
 71
3
 72
8
 73
4
 74
0
 40
0
 40
0
 40
0
 40
0
 40
1
 40
1
 40
1
 40
1
 10
1718.628557
 20
514.365887
 30
0.0
 10
1763.637556
 20
514.365887
 30
0.0
 10
1814.298555
 20
520.710887
 30
0.0
 10
1814.298555
 20
528.538887
 30
0.0
  0
LWPOLYLINE
  5
13d
100
AcDbEntity
  8
A0102_Printing_02
 62
1
100
AcDbPolyline
 90
5
 70
0
 10
1622.959559
 20
528.538887
 30
0.0
 10
1622.959559
 20
528.538887
 30
0.0
 10
1622.959559
 20
627.751884
 30
0.0
 10
1637.132559
 20
627.751884
 30
0.0
 10
1637.132559
 20
528.538887
 30
0.0
  0
LWPOLYLINE
  5
13e
100
AcDbEntity
  8
A0102_Printing_02
 62
1
100
AcDbPolyline
 90
23
 70
0
 10
1814.298555
 20
528.538887
 30
0.0
 10
1814.298555
 20
528.538887
 30
0.0
 10
1814.298555
 20
585.231885
 30
0.0
 10
1814.298555
 20
655.597884
 30
0.0
 10
1814.298555
 20
712.290882
 30
0.0
 10
1814.298555
 20
712.790882
 30
0.0
 10
1754.061556
 20
712.790882
 30
0.0
 10
1754.061556
 20
726.963882
 30
0.0
 10
1697.369558
 20
726.963882
 30
0.0
 10
1697.369558
 20
712.790882
 30
0.0
 10
1562.723561
 20
712.790882
 30
0.0
 10
1562.723561
 20
726.963882
 30
0.0
 10
1506.030562
 20
726.963882
 30
0.0
 10
1506.030562
 20
712.790882
 30
0.0
 10
1385.558565
 20
712.790882
 30
0.0
 10
1385.558565
 20
726.963882
 30
0.0
 10
1328.864567
 20
726.963882
 30
0.0
 10
1328.864567
 20
712.790882
 30
0.0
 10
1275.715568
 20
712.790882
 30
0.0
 10
1275.715568
 20
656.097884
 30
0.0
 10
1261.542568
 20
656.097884
 30
0.0
 10
1261.542568
 20
585.231885
 30
0.0
 10
1275.715568
 20
585.231885
 30
0.0
  0
SPLINE
  5
13f
100
AcDbEntity
  8
A0102_Printing_02
 62
1
100
AcDbSpline
 70
8
 71
3
 72
8
 73
4
 74
0
 40
0
 40
0
 40
0
 40
0
 40
1
 40
1
 40
1
 40
1
 10
1814.298055
 20
925.389377
 30
0.0
 10
1814.298055
 20
933.217377
 30
0.0
 10
1763.638056
 20
939.562377
 30
0.0
 10
1718.629057
 20
939.562377
 30
0.0
  0
SPLINE
  5
140
100
AcDbEntity
  8
A0102_Printing_02
 62
1
100
AcDbSpline
 70
8
 71
3
 72
8
 73
4
 74
0
 40
0
 40
0
 40
0
 40
0
 40
1
 40
1
 40
1
 40
1
 10
1718.629057
 20
939.562377
 30
0.0
 10
1673.620058
 20
939.562377
 30
0.0
 10
1637.133059
 20
933.217377
 30
0.0
 10
1637.133059
 20
925.389377
 30
0.0
  0
LWPOLYLINE
  5
141
100
AcDbEntity
  8
A0102_Printing_02
 62
1
100
AcDbPolyline
 90
3
 70
0
 10
1814.298055
 20
868.696378
 30
0.0
 10
1814.298055
 20
925.389377
 30
0.0
 10
1814.298055
 20
925.389377
 30
0.0
  0
SPLINE
  5
142
100
AcDbEntity
  8
A0102_Printing_02
 62
1
100
AcDbSpline
 70
8
 71
3
 72
8
 73
4
 74
0
 40
0
 40
0
 40
0
 40
0
 40
1
 40
1
 40
1
 40
1
 10
1622.959059
 20
925.389377
 30
0.0
 10
1622.959059
 20
933.217377
 30
0.0
 10
1584.886060
 20
939.562377
 30
0.0
 10
1537.920062
 20
939.562377
 30
0.0
  0
SPLINE
  5
143
100
AcDbEntity
  8
A0102_Printing_02
 62
1
100
AcDbSpline
 70
8
 71
3
 72
8
 73
4
 74
0
 40
0
 40
0
 40
0
 40
0
 40
1
 40
1
 40
1
 40
1
 10
1537.920062
 20
939.562377
 30
0.0
 10
1490.954063
 20
939.562377
 30
0.0
 10
1452.881064
 20
933.217377
 30
0.0
 10
1452.881064
 20
925.389377
 30
0.0
  0
LWPOLYLINE
  5
144
100
AcDbEntity
  8
A0102_Printing_02
 62
1
100
AcDbPolyline
 90
5
 70
0
 10
1637.133059
 20
925.389377
 30
0.0
 10
1637.133059
 20
826.176379
 30
0.0
 10
1622.959059
 20
826.176379
 30
0.0
 10
1622.959059
 20
925.389377
 30
0.0
 10
1622.959059
 20
925.389377
 30
0.0
  0
SPLINE
  5
145
100
AcDbEntity
  8
A0102_Printing_02
 62
1
100
AcDbSpline
 70
8
 71
3
 72
8
 73
4
 74
0
 40
0
 40
0
 40
0
 40
0
 40
1
 40
1
 40
1
 40
1
 10
1438.707064
 20
925.389377
 30
0.0
 10
1438.707064
 20
933.217377
 30
0.0
 10
1402.220065
 20
939.562377
 30
0.0
 10
1357.211066
 20
939.562377
 30
0.0
  0
SPLINE
  5
146
100
AcDbEntity
  8
A0102_Printing_02
 62
1
100
AcDbSpline
 70
8
 71
3
 72
8
 73
4
 74
0
 40
0
 40
0
 40
0
 40
0
 40
1
 40
1
 40
1
 40
1
 10
1357.211066
 20
939.562377
 30
0.0
 10
1312.202067
 20
939.562377
 30
0.0
 10
1275.715068
 20
933.217377
 30
0.0
 10
1275.715068
 20
925.389377
 30
0.0
  0
LWPOLYLINE
  5
147
100
AcDbEntity
  8
A0102_Printing_02
 62
1
100
AcDbPolyline
 90
5
 70
0
 10
1452.881064
 20
925.389377
 30
0.0
 10
1452.881064
 20
925.389377
 30
0.0
 10
1452.881064
 20
826.176379
 30
0.0
 10
1438.707064
 20
826.176379
 30
0.0
 10
1438.707064
 20
925.389377
 30
0.0
  0
LWPOLYLINE
  5
148
100
AcDbEntity
  8
A0102_Printing_02
 62
1
100
AcDbPolyline
 90
25
 70
0
 10
1275.715068
 20
925.389377
 30
0.0
 10
1275.715068
 20
925.389377
 30
0.0
 10
1275.715068
 20
868.696378
 30
0.0
 10
1261.542068
 20
868.696378
 30
0.0
 10
1261.542068
 20
798.330380
 30
0.0
 10
1275.715068
 20
798.330380
 30
0.0
 10
1275.715068
 20
741.637381
 30
0.0
 10
1275.715068
 20
741.137381
 30
0.0
 10
1321.778067
 20
741.137381
 30
0.0
 10
1321.778067
 20
726.964382
 30
0.0
 10
1378.471066
 20
726.964382
 30
0.0
 10
1378.471066
 20
741.137381
 30
0.0
 10
1513.117062
 20
741.137381
 30
0.0
 10
1513.117062
 20
726.964382
 30
0.0
 10
1569.810061
 20
726.964382
 30
0.0
 10
1569.810061
 20
741.137381
 30
0.0
 10
1690.282058
 20
741.137381
 30
0.0
 10
1690.282058
 20
726.964382
 30
0.0
 10
1746.975056
 20
726.964382
 30
0.0
 10
1746.975056
 20
741.137381
 30
0.0
 10
1814.298055
 20
741.137381
 30
0.0
 10
1814.298055
 20
797.830380
 30
0.0
 10
1814.298055
 20
797.830380
 30
0.0
 10
1814.298055
 20
868.696378
 30
0.0
 10
1814.298055
 20
868.696378
 30
0.0
  0
SPLINE
  5
149
100
AcDbEntity
  8
A0102_Printing_02
 62
1
100
AcDbSpline
 70
8
 71
3
 72
8
 73
4
 74
0
 40
0
 40
0
 40
0
 40
0
 40
1
 40
1
 40
1
 40
1
 10
1034.763674
 20
37.969399
 30
0.0
 10
1034.764674
 20
37.775399
 30
0.0
 10
1034.770674
 20
37.581399
 30
0.0
 10
1034.770674
 20
37.387399
 30
0.0
  0
LWPOLYLINE
  5
14a
100
AcDbEntity
  8
A0102_Printing_02
 62
7
100
AcDbPolyline
 90
3
 70
1
 10
1361.678666
 20
737.535182
 30
0.0
 10
1362.576666
 20
734.793182
 30
0.0
 10
1363.471666
 20
737.535182
 30
0.0
  0
SPLINE
  5
14b
100
AcDbEntity
  8
A0102_Printing_02
 62
1
100
AcDbSpline
 70
8
 71
3
 72
8
 73
4
 74
0
 40
0
 40
0
 40
0
 40
0
 40
1
 40
1
 40
1
 40
1
 10
922.344377
 20
195.269695
 30
0.0
 10
897.307378
 20
215.360695
 30
0.0
 10
855.722379
 20
236.268694
 30
0.0
 10
824.919379
 20
250.401694
 30
0.0
  0
SPLINE
  5
14c
100
AcDbEntity
  8
A0102_Printing_02
 62
1
100
AcDbSpline
 70
8
 71
3
 72
8
 73
4
 74
0
 40
0
 40
0
 40
0
 40
0
 40
1
 40
1
 40
1
 40
1
 10
824.919379
 20
250.401694
 30
0.0
 10
800.302380
 20
261.697693
 30
0.0
 10
773.551381
 20
267.575693
 30
0.0
 10
746.467381
 20
267.575693
 30
0.0
  0
LWPOLYLINE
  5
14d
100
AcDbEntity
  8
A0102_Printing_02
 62
1
100
AcDbPolyline
 90
3
 70
0
 10
1034.770674
 20
37.387399
 30
0.0
 10
1034.770674
 20
37.969399
 30
0.0
 10
1034.763674
 20
37.969399
 30
0.0
  0
SPLINE
  5
14e
100
AcDbEntity
  8
A0102_Printing_02
 62
1
100
AcDbSpline
 70
8
 71
3
 72
8
 73
4
 74
0
 40
0
 40
0
 40
0
 40
0
 40
1
 40
1
 40
1
 40
1
 10
1034.763374
 20
37.969699
 30
0.0
 10
1034.619374
 20
65.981698
 30
0.0
 10
1024.096374
 20
92.961698
 30
0.0
 10
1005.171375
 20
113.633697
 30
0.0
  0
SPLINE
  5
14f
100
AcDbEntity
  8
A0102_Printing_02
 62
1
100
AcDbSpline
 70
8
 71
3
 72
8
 73
4
 74
0
 40
0
 40
0
 40
0
 40
0
 40
1
 40
1
 40
1
 40
1
 10
1005.171375
 20
113.633697
 30
0.0
 10
981.254375
 20
139.760697
 30
0.0
 10
947.542376
 20
175.049696
 30
0.0
 10
922.344377
 20
195.269695
 30
0.0
  0
LWPOLYLINE
  5
150
100
AcDbEntity
  8
A0102_Printing_02
 62
1
100
AcDbPolyline
 90
20
 70
0
 10
746.467381
 20
267.575693
 30
0.0
 10
742.802381
 20
267.575693
 30
0.0
 10
742.802381
 20
210.882695
 30
0.0
 10
728.628382
 20
210.882695
 30
0.0
 10
728.628382
 20
154.189696
 30
0.0
 10
742.802381
 20
154.189696
 30
0.0
 10
742.802381
 20
97.496698
 30
0.0
 10
728.628382
 20
97.496698
 30
0.0
 10
728.628382
 20
40.803699
 30
0.0
 10
742.802381
 20
40.803699
 30
0.0
 10
742.802381
 20
37.969699
 30
0.0
 10
799.495380
 20
37.969699
 30
0.0
 10
799.495380
 20
23.795699
 30
0.0
 10
856.187379
 20
23.795699
 30
0.0
 10
856.187379
 20
37.969699
 30
0.0
 10
912.880377
 20
37.969699
 30
0.0
 10
912.880377
 20
23.795699
 30
0.0
 10
978.077376
 20
23.795699
 30
0.0
 10
978.077376
 20
37.969699
 30
0.0
 10
1034.763374
 20
37.969699
 30
0.0
  0
LWPOLYLINE
  5
151
100
AcDbEntity
  8
A0102_Printing_02
 62
1
100
AcDbPolyline
 90
1
 70
1
 10
922.344377
 20
195.269695
 30
0.0
  0
SPLINE
  5
152
100
AcDbEntity
  8
A0102_Printing_02
 62
1
100
AcDbSpline
 70
8
 71
3
 72
8
 73
4
 74
0
 40
0
 40
0
 40
0
 40
0
 40
1
 40
1
 40
1
 40
1
 10
172.230996
 20
1032.383974
 30
0.0
 10
169.757996
 20
1030.668974
 30
0.0
 10
156.991996
 20
1022.164974
 30
0.0
 10
140.874996
 20
1025.508974
 30
0.0
  0
SPLINE
  5
153
100
AcDbEntity
  8
A0102_Printing_02
 62
1
100
AcDbSpline
 70
8
 71
3
 72
8
 73
4
 74
0
 40
0
 40
0
 40
0
 40
0
 40
1
 40
1
 40
1
 40
1
 10
140.874996
 20
1025.508974
 30
0.0
 10
127.713997
 20
1028.242974
 30
0.0
 10
119.162997
 20
1037.356974
 30
0.0
 10
120.717997
 20
1044.144974
 30
0.0
  0
SPLINE
  5
154
100
AcDbEntity
  8
A0102_Printing_02
 62
1
100
AcDbSpline
 70
8
 71
3
 72
8
 73
4
 74
0
 40
0
 40
0
 40
0
 40
0
 40
1
 40
1
 40
1
 40
1
 10
120.717997
 20
1044.144974
 30
0.0
 10
122.265997
 20
1050.932974
 30
0.0
 10
133.918997
 20
1055.429974
 30
0.0
 10
146.966996
 20
1052.179974
 30
0.0
  0
SPLINE
  5
155
100
AcDbEntity
  8
A0102_Printing_02
 62
1
100
AcDbSpline
 70
8
 71
3
 72
8
 73
4
 74
0
 40
0
 40
0
 40
0
 40
0
 40
1
 40
1
 40
1
 40
1
 10
146.966996
 20
1052.179974
 30
0.0
 10
162.935996
 20
1048.205974
 30
0.0
 10
170.749996
 20
1035.003974
 30
0.0
 10
172.230996
 20
1032.383974
 30
0.0
  0
LWPOLYLINE
  5
156
100
AcDbEntity
  8
A0102_Printing_02
 62
1
100
AcDbPolyline
 90
4
 70
1
 10
10.046000
 20
1077.042973
 30
0.0
 10
24.218999
 20
1077.042973
 30
0.0
 10
24.218999
 20
1006.176975
 30
0.0
 10
10.046000
 20
1006.176975
 30
0.0
  0
SPLINE
  5
157
100
AcDbEntity
  8
A0102_Printing_02
 62
1
100
AcDbSpline
 70
8
 71
3
 72
8
 73
4
 74
0
 40
0
 40
0
 40
0
 40
0
 40
1
 40
1
 40
1
 40
1
 10
156.958996
 20
1089.612973
 30
0.0
 10
163.230996
 20
1092.634973
 30
0.0
 10
174.019996
 20
1086.329973
 30
0.0
 10
179.608996
 20
1074.105973
 30
0.0
  0
SPLINE
  5
158
100
AcDbEntity
  8
A0102_Printing_02
 62
1
100
AcDbSpline
 70
8
 71
3
 72
8
 73
4
 74
0
 40
0
 40
0
 40
0
 40
0
 40
1
 40
1
 40
1
 40
1
 10
179.608996
 20
1074.105973
 30
0.0
 10
186.463995
 20
1059.135974
 30
0.0
 10
181.008995
 20
1044.801974
 30
0.0
 10
179.889996
 20
1042.006974
 30
0.0
  0
SPLINE
  5
159
100
AcDbEntity
  8
A0102_Printing_02
 62
1
100
AcDbSpline
 70
8
 71
3
 72
8
 73
4
 74
0
 40
0
 40
0
 40
0
 40
0
 40
1
 40
1
 40
1
 40
1
 10
179.889996
 20
1042.006974
 30
0.0
 10
177.008996
 20
1042.871974
 30
0.0
 10
162.392996
 20
1047.548974
 30
0.0
 10
154.961996
 20
1062.237973
 30
0.0
  0
SPLINE
  5
15a
100
AcDbEntity
  8
A0102_Printing_02
 62
1
100
AcDbSpline
 70
8
 71
3
 72
8
 73
4
 74
0
 40
0
 40
0
 40
0
 40
0
 40
1
 40
1
 40
1
 40
1
 10
154.961996
 20
1062.237973
 30
0.0
 10
148.896996
 20
1074.233973
 30
0.0
 10
150.685996
 20
1086.597973
 30
0.0
 10
156.958996
 20
1089.612973
 30
0.0
  0
LWPOLYLINE
  5
15b
100
AcDbEntity
  8
A0102_Printing_02
 62
1
100
AcDbPolyline
 90
1
 70
1
 10
172.230996
 20
1032.383974
 30
0.0
  0
SPLINE
  5
15c
100
AcDbEntity
  8
A0102_Printing_02
 62
1
100
AcDbSpline
 70
8
 71
3
 72
8
 73
4
 74
0
 40
0
 40
0
 40
0
 40
0
 40
1
 40
1
 40
1
 40
1
 10
197.105995
 20
1029.247974
 30
0.0
 10
197.105995
 20
1023.142974
 30
0.0
 10
192.159995
 20
1018.190975
 30
0.0
 10
186.048995
 20
1018.190975
 30
0.0
  0
SPLINE
  5
15d
100
AcDbEntity
  8
A0102_Printing_02
 62
1
100
AcDbSpline
 70
8
 71
3
 72
8
 73
4
 74
0
 40
0
 40
0
 40
0
 40
0
 40
1
 40
1
 40
1
 40
1
 10
186.048995
 20
1018.190975
 30
0.0
 10
179.943996
 20
1018.190975
 30
0.0
 10
174.991996
 20
1023.142974
 30
0.0
 10
174.991996
 20
1029.247974
 30
0.0
  0
SPLINE
  5
15e
100
AcDbEntity
  8
A0102_Printing_02
 62
1
100
AcDbSpline
 70
8
 71
3
 72
8
 73
4
 74
0
 40
0
 40
0
 40
0
 40
0
 40
1
 40
1
 40
1
 40
1
 10
174.991996
 20
1029.247974
 30
0.0
 10
174.991996
 20
1035.352974
 30
0.0
 10
179.943996
 20
1040.304974
 30
0.0
 10
186.048995
 20
1040.304974
 30
0.0
  0
SPLINE
  5
15f
100
AcDbEntity
  8
A0102_Printing_02
 62
1
100
AcDbSpline
 70
8
 71
3
 72
8
 73
4
 74
0
 40
0
 40
0
 40
0
 40
0
 40
1
 40
1
 40
1
 40
1
 10
186.048995
 20
1040.304974
 30
0.0
 10
192.159995
 20
1040.304974
 30
0.0
 10
197.105995
 20
1035.352974
 30
0.0
 10
197.105995
 20
1029.247974
 30
0.0
  0
LWPOLYLINE
  5
160
100
AcDbEntity
  8
A0102_Printing_02
 62
1
100
AcDbPolyline
 90
1
 70
1
 10
156.958996
 20
1089.612973
 30
0.0
  0
SPLINE
  5
161
100
AcDbEntity
  8
A0102_Printing_02
 62
1
100
AcDbSpline
 70
8
 71
3
 72
8
 73
4
 74
0
 40
0
 40
0
 40
0
 40
0
 40
1
 40
1
 40
1
 40
1
 10
192.461995
 20
1074.119973
 30
0.0
 10
198.057995
 20
1086.342973
 30
0.0
 10
208.839995
 20
1092.648973
 30
0.0
 10
215.111995
 20
1089.632973
 30
0.0
  0
SPLINE
  5
162
100
AcDbEntity
  8
A0102_Printing_02
 62
1
100
AcDbSpline
 70
8
 71
3
 72
8
 73
4
 74
0
 40
0
 40
0
 40
0
 40
0
 40
1
 40
1
 40
1
 40
1
 10
215.111995
 20
1089.632973
 30
0.0
 10
221.384994
 20
1086.610973
 30
0.0
 10
223.180994
 20
1074.246973
 30
0.0
 10
217.108995
 20
1062.251973
 30
0.0
  0
SPLINE
  5
163
100
AcDbEntity
  8
A0102_Printing_02
 62
1
100
AcDbSpline
 70
8
 71
3
 72
8
 73
4
 74
0
 40
0
 40
0
 40
0
 40
0
 40
1
 40
1
 40
1
 40
1
 10
217.108995
 20
1062.251973
 30
0.0
 10
209.677995
 20
1047.562974
 30
0.0
 10
195.068995
 20
1042.884974
 30
0.0
 10
192.186995
 20
1042.020974
 30
0.0
  0
SPLINE
  5
164
100
AcDbEntity
  8
A0102_Printing_02
 62
1
100
AcDbSpline
 70
8
 71
3
 72
8
 73
4
 74
0
 40
0
 40
0
 40
0
 40
0
 40
1
 40
1
 40
1
 40
1
 10
192.186995
 20
1042.020974
 30
0.0
 10
191.060995
 20
1044.814974
 30
0.0
 10
185.612995
 20
1059.155974
 30
0.0
 10
192.461995
 20
1074.119973
 30
0.0
  0
LWPOLYLINE
  5
165
100
AcDbEntity
  8
A0102_Printing_02
 62
1
100
AcDbPolyline
 90
1
 70
1
 10
197.105995
 20
1029.247974
 30
0.0
  0
SPLINE
  5
166
100
AcDbEntity
  8
A0102_Printing_02
 62
1
100
AcDbSpline
 70
8
 71
3
 72
8
 73
4
 74
0
 40
0
 40
0
 40
0
 40
0
 40
1
 40
1
 40
1
 40
1
 10
251.379994
 20
1044.171974
 30
0.0
 10
252.927994
 20
1037.389974
 30
0.0
 10
244.383994
 20
1028.275974
 30
0.0
 10
231.221994
 20
1025.541974
 30
0.0
  0
SPLINE
  5
167
100
AcDbEntity
  8
A0102_Printing_02
 62
1
100
AcDbSpline
 70
8
 71
3
 72
8
 73
4
 74
0
 40
0
 40
0
 40
0
 40
0
 40
1
 40
1
 40
1
 40
1
 10
231.221994
 20
1025.541974
 30
0.0
 10
215.105995
 20
1022.197974
 30
0.0
 10
202.332995
 20
1030.701974
 30
0.0
 10
199.866995
 20
1032.417974
 30
0.0
  0
SPLINE
  5
168
100
AcDbEntity
  8
A0102_Printing_02
 62
1
100
AcDbSpline
 70
8
 71
3
 72
8
 73
4
 74
0
 40
0
 40
0
 40
0
 40
0
 40
1
 40
1
 40
1
 40
1
 10
199.866995
 20
1032.417974
 30
0.0
 10
201.347995
 20
1035.030974
 30
0.0
 10
209.161995
 20
1048.239974
 30
0.0
 10
225.130994
 20
1052.212974
 30
0.0
  0
SPLINE
  5
169
100
AcDbEntity
  8
A0102_Printing_02
 62
1
100
AcDbSpline
 70
8
 71
3
 72
8
 73
4
 74
0
 40
0
 40
0
 40
0
 40
0
 40
1
 40
1
 40
1
 40
1
 10
225.130994
 20
1052.212974
 30
0.0
 10
238.177994
 20
1055.463974
 30
0.0
 10
249.831994
 20
1050.959974
 30
0.0
 10
251.379994
 20
1044.171974
 30
0.0
  0
LWPOLYLINE
  5
16a
100
AcDbEntity
  8
A0102_Printing_02
 62
1
100
AcDbPolyline
 90
1
 70
1
 10
192.461995
 20
1074.119973
 30
0.0
  0
SPLINE
  5
16b
100
AcDbEntity
  8
A0102_Printing_02
 62
1
100
AcDbSpline
 70
8
 71
3
 72
8
 73
4
 74
0
 40
0
 40
0
 40
0
 40
0
 40
1
 40
1
 40
1
 40
1
 10
238.452994
 20
987.478975
 30
0.0
 10
234.109994
 20
982.036975
 30
0.0
 10
221.658994
 20
983.035975
 30
0.0
 10
211.318995
 20
991.626975
 30
0.0
  0
SPLINE
  5
16c
100
AcDbEntity
  8
A0102_Printing_02
 62
1
100
AcDbSpline
 70
8
 71
3
 72
8
 73
4
 74
0
 40
0
 40
0
 40
0
 40
0
 40
1
 40
1
 40
1
 40
1
 10
211.318995
 20
991.626975
 30
0.0
 10
198.653995
 20
1002.134975
 30
0.0
 10
197.340995
 20
1017.419975
 30
0.0
 10
197.138995
 20
1020.421974
 30
0.0
  0
SPLINE
  5
16d
100
AcDbEntity
  8
A0102_Printing_02
 62
1
100
AcDbSpline
 70
8
 71
3
 72
8
 73
4
 74
0
 40
0
 40
0
 40
0
 40
0
 40
1
 40
1
 40
1
 40
1
 10
197.138995
 20
1020.421974
 30
0.0
 10
200.114995
 20
1020.897974
 30
0.0
 10
215.306995
 20
1023.022974
 30
0.0
 10
228.373994
 20
1013.010975
 30
0.0
  0
SPLINE
  5
16e
100
AcDbEntity
  8
A0102_Printing_02
 62
1
100
AcDbSpline
 70
8
 71
3
 72
8
 73
4
 74
0
 40
0
 40
0
 40
0
 40
0
 40
1
 40
1
 40
1
 40
1
 10
228.373994
 20
1013.010975
 30
0.0
 10
239.048994
 20
1004.841975
 30
0.0
 10
242.794994
 20
992.919975
 30
0.0
 10
238.452994
 20
987.478975
 30
0.0
  0
LWPOLYLINE
  5
16f
100
AcDbEntity
  8
A0102_Printing_02
 62
1
100
AcDbPolyline
 90
1
 70
1
 10
251.379994
 20
1044.171974
 30
0.0
  0
SPLINE
  5
170
100
AcDbEntity
  8
A0102_Printing_02
 62
1
100
AcDbSpline
 70
8
 71
3
 72
8
 73
4
 74
0
 40
0
 40
0
 40
0
 40
0
 40
1
 40
1
 40
1
 40
1
 10
186.068995
 20
962.234976
 30
0.0
 10
179.105996
 20
962.234976
 30
0.0
 10
172.123996
 20
972.594976
 30
0.0
 10
172.391996
 20
986.037975
 30
0.0
  0
SPLINE
  5
171
100
AcDbEntity
  8
A0102_Printing_02
 62
1
100
AcDbSpline
 70
8
 71
3
 72
8
 73
4
 74
0
 40
0
 40
0
 40
0
 40
0
 40
1
 40
1
 40
1
 40
1
 10
172.391996
 20
986.037975
 30
0.0
 10
172.712996
 20
1002.496975
 30
0.0
 10
183.843995
 20
1013.050975
 30
0.0
 10
186.068995
 20
1015.074975
 30
0.0
  0
SPLINE
  5
172
100
AcDbEntity
  8
A0102_Printing_02
 62
1
100
AcDbSpline
 70
8
 71
3
 72
8
 73
4
 74
0
 40
0
 40
0
 40
0
 40
0
 40
1
 40
1
 40
1
 40
1
 10
186.068995
 20
1015.074975
 30
0.0
 10
188.286995
 20
1013.050975
 30
0.0
 10
199.424995
 20
1002.496975
 30
0.0
 10
199.745995
 20
986.037975
 30
0.0
  0
SPLINE
  5
173
100
AcDbEntity
  8
A0102_Printing_02
 62
1
100
AcDbSpline
 70
8
 71
3
 72
8
 73
4
 74
0
 40
0
 40
0
 40
0
 40
0
 40
1
 40
1
 40
1
 40
1
 10
199.745995
 20
986.037975
 30
0.0
 10
200.007995
 20
972.594976
 30
0.0
 10
193.031995
 20
962.234976
 30
0.0
 10
186.068995
 20
962.234976
 30
0.0
  0
LWPOLYLINE
  5
174
100
AcDbEntity
  8
A0102_Printing_02
 62
1
100
AcDbPolyline
 90
1
 70
1
 10
238.452994
 20
987.478975
 30
0.0
  0
SPLINE
  5
175
100
AcDbEntity
  8
A0102_Printing_02
 62
1
100
AcDbSpline
 70
8
 71
3
 72
8
 73
4
 74
0
 40
0
 40
0
 40
0
 40
0
 40
1
 40
1
 40
1
 40
1
 10
160.804996
 20
991.599975
 30
0.0
 10
150.464996
 20
983.008975
 30
0.0
 10
138.006997
 20
982.010975
 30
0.0
 10
133.671997
 20
987.451975
 30
0.0
  0
SPLINE
  5
176
100
AcDbEntity
  8
A0102_Printing_02
 62
1
100
AcDbSpline
 70
8
 71
3
 72
8
 73
4
 74
0
 40
0
 40
0
 40
0
 40
0
 40
1
 40
1
 40
1
 40
1
 10
133.671997
 20
987.451975
 30
0.0
 10
129.328997
 20
992.893975
 30
0.0
 10
133.074997
 20
1004.814975
 30
0.0
 10
143.749996
 20
1012.983975
 30
0.0
  0
SPLINE
  5
177
100
AcDbEntity
  8
A0102_Printing_02
 62
1
100
AcDbSpline
 70
8
 71
3
 72
8
 73
4
 74
0
 40
0
 40
0
 40
0
 40
0
 40
1
 40
1
 40
1
 40
1
 10
143.749996
 20
1012.983975
 30
0.0
 10
156.817996
 20
1022.995974
 30
0.0
 10
172.009996
 20
1020.870974
 30
0.0
 10
174.977996
 20
1020.395974
 30
0.0
  0
SPLINE
  5
178
100
AcDbEntity
  8
A0102_Printing_02
 62
1
100
AcDbSpline
 70
8
 71
3
 72
8
 73
4
 74
0
 40
0
 40
0
 40
0
 40
0
 40
1
 40
1
 40
1
 40
1
 10
174.977996
 20
1020.395974
 30
0.0
 10
174.783996
 20
1017.399975
 30
0.0
 10
173.470996
 20
1002.114975
 30
0.0
 10
160.804996
 20
991.599975
 30
0.0
  0
LWPOLYLINE
  5
179
100
AcDbEntity
  8
A0102_Printing_02
 62
1
100
AcDbPolyline
 90
1
 70
1
 10
186.068995
 20
962.234976
 30
0.0
  0
SPLINE
  5
17a
100
AcDbEntity
  8
A0102_Printing_02
 62
1
100
AcDbSpline
 70
8
 71
3
 72
8
 73
4
 74
0
 40
0
 40
0
 40
0
 40
0
 40
1
 40
1
 40
1
 40
1
 10
350.188991
 20
1072.630973
 30
0.0
 10
354.315991
 20
1078.562973
 30
0.0
 10
357.540991
 20
1087.203973
 30
0.0
 10
360.249991
 20
1095.071973
 30
0.0
  0
SPLINE
  5
17b
100
AcDbEntity
  8
A0102_Printing_02
 62
1
100
AcDbSpline
 70
8
 71
3
 72
8
 73
4
 74
0
 40
0
 40
0
 40
0
 40
0
 40
1
 40
1
 40
1
 40
1
 10
360.249991
 20
1095.071973
 30
0.0
 10
360.893991
 20
1064.245973
 30
0.0
 10
336.387992
 20
1015.233975
 30
0.0
 10
329.293992
 20
1043.221974
 30
0.0
  0
SPLINE
  5
17c
100
AcDbEntity
  8
A0102_Printing_02
 62
1
100
AcDbSpline
 70
8
 71
3
 72
8
 73
4
 74
0
 40
0
 40
0
 40
0
 40
0
 40
1
 40
1
 40
1
 40
1
 10
329.293992
 20
1043.221974
 30
0.0
 10
310.075992
 20
1033.936974
 30
0.0
 10
286.988993
 20
1035.355974
 30
0.0
 10
280.410993
 20
1050.186974
 30
0.0
  0
SPLINE
  5
17d
100
AcDbEntity
  8
A0102_Printing_02
 62
1
100
AcDbSpline
 70
8
 71
3
 72
8
 73
4
 74
0
 40
0
 40
0
 40
0
 40
0
 40
1
 40
1
 40
1
 40
1
 10
280.410993
 20
1050.186974
 30
0.0
 10
298.209993
 20
1037.030974
 30
0.0
 10
330.454992
 20
1044.382974
 30
0.0
 10
350.188991
 20
1072.630973
 30
0.0
  0
LWPOLYLINE
  5
17e
100
AcDbEntity
  8
A0102_Printing_02
 62
1
100
AcDbPolyline
 90
1
 70
1
 10
160.804996
 20
991.599975
 30
0.0
  0
SPLINE
  5
17f
100
AcDbEntity
  8
A0102_Printing_02
 62
1
100
AcDbSpline
 70
8
 71
3
 72
8
 73
4
 74
0
 40
0
 40
0
 40
0
 40
0
 40
1
 40
1
 40
1
 40
1
 10
364.376991
 20
1044.382974
 30
0.0
 10
366.569991
 20
1048.767974
 30
0.0
 10
368.890991
 20
1053.541974
 30
0.0
 10
367.213991
 20
1057.796974
 30
0.0
  0
SPLINE
  5
180
100
AcDbEntity
  8
A0102_Printing_02
 62
1
100
AcDbSpline
 70
8
 71
3
 72
8
 73
4
 74
0
 40
0
 40
0
 40
0
 40
0
 40
1
 40
1
 40
1
 40
1
 10
367.213991
 20
1057.796974
 30
0.0
 10
369.664991
 20
1055.216974
 30
0.0
 10
386.947990
 20
1038.966974
 30
0.0
 10
376.242991
 20
1039.224974
 30
0.0
  0
SPLINE
  5
181
100
AcDbEntity
  8
A0102_Printing_02
 62
1
100
AcDbSpline
 70
8
 71
3
 72
8
 73
4
 74
0
 40
0
 40
0
 40
0
 40
0
 40
1
 40
1
 40
1
 40
1
 10
376.242991
 20
1039.224974
 30
0.0
 10
376.242991
 20
1039.224974
 30
0.0
 10
375.339991
 20
1039.094974
 30
0.0
 10
376.629991
 20
1036.772974
 30
0.0
  0
SPLINE
  5
182
100
AcDbEntity
  8
A0102_Printing_02
 62
1
100
AcDbSpline
 70
8
 71
3
 72
8
 73
4
 74
0
 40
0
 40
0
 40
0
 40
0
 40
1
 40
1
 40
1
 40
1
 10
376.629991
 20
1036.772974
 30
0.0
 10
379.209991
 20
1032.258974
 30
0.0
 10
376.242991
 20
1033.806974
 30
0.0
 10
375.339991
 20
1032.517974
 30
0.0
  0
SPLINE
  5
183
100
AcDbEntity
  8
A0102_Printing_02
 62
1
100
AcDbSpline
 70
8
 71
3
 72
8
 73
4
 74
0
 40
0
 40
0
 40
0
 40
0
 40
1
 40
1
 40
1
 40
1
 10
375.339991
 20
1032.517974
 30
0.0
 10
376.113991
 20
1024.390974
 30
0.0
 10
364.763991
 20
1024.390974
 30
0.0
 10
364.247991
 20
1016.136975
 30
0.0
  0
SPLINE
  5
184
100
AcDbEntity
  8
A0102_Printing_02
 62
1
100
AcDbSpline
 70
8
 71
3
 72
8
 73
4
 74
0
 40
0
 40
0
 40
0
 40
0
 40
1
 40
1
 40
1
 40
1
 10
364.247991
 20
1016.136975
 30
0.0
 10
363.731991
 20
1024.776974
 30
0.0
 10
352.639991
 20
1024.262974
 30
0.0
 10
353.284991
 20
1032.386974
 30
0.0
  0
SPLINE
  5
185
100
AcDbEntity
  8
A0102_Printing_02
 62
1
100
AcDbSpline
 70
8
 71
3
 72
8
 73
4
 74
0
 40
0
 40
0
 40
0
 40
0
 40
1
 40
1
 40
1
 40
1
 10
353.284991
 20
1032.386974
 30
0.0
 10
352.510991
 20
1033.677974
 30
0.0
 10
349.414991
 20
1032.258974
 30
0.0
 10
352.123991
 20
1036.772974
 30
0.0
  0
SPLINE
  5
186
100
AcDbEntity
  8
A0102_Printing_02
 62
1
100
AcDbSpline
 70
8
 71
3
 72
8
 73
4
 74
0
 40
0
 40
0
 40
0
 40
0
 40
1
 40
1
 40
1
 40
1
 10
352.123991
 20
1036.772974
 30
0.0
 10
353.413991
 20
1038.966974
 30
0.0
 10
352.381991
 20
1039.094974
 30
0.0
 10
352.381991
 20
1039.094974
 30
0.0
  0
SPLINE
  5
187
100
AcDbEntity
  8
A0102_Printing_02
 62
1
100
AcDbSpline
 70
8
 71
3
 72
8
 73
4
 74
0
 40
0
 40
0
 40
0
 40
0
 40
1
 40
1
 40
1
 40
1
 10
352.381991
 20
1039.094974
 30
0.0
 10
341.675991
 20
1038.835974
 30
0.0
 10
359.088991
 20
1055.216974
 30
0.0
 10
361.538991
 20
1057.796974
 30
0.0
  0
SPLINE
  5
188
100
AcDbEntity
  8
A0102_Printing_02
 62
1
100
AcDbSpline
 70
8
 71
3
 72
8
 73
4
 74
0
 40
0
 40
0
 40
0
 40
0
 40
1
 40
1
 40
1
 40
1
 10
361.538991
 20
1057.796974
 30
0.0
 10
359.862991
 20
1053.411974
 30
0.0
 10
362.054991
 20
1048.767974
 30
0.0
 10
364.376991
 20
1044.382974
 30
0.0
  0
LWPOLYLINE
  5
189
100
AcDbEntity
  8
A0102_Printing_02
 62
1
100
AcDbPolyline
 90
1
 70
1
 10
350.188991
 20
1072.630973
 30
0.0
  0
SPLINE
  5
18a
100
AcDbEntity
  8
A0102_Printing_02
 62
1
100
AcDbSpline
 70
8
 71
3
 72
8
 73
4
 74
0
 40
0
 40
0
 40
0
 40
0
 40
1
 40
1
 40
1
 40
1
 10
368.503991
 20
1095.071973
 30
0.0
 10
371.341991
 20
1087.203973
 30
0.0
 10
374.436991
 20
1078.690973
 30
0.0
 10
378.693991
 20
1072.630973
 30
0.0
  0
SPLINE
  5
18b
100
AcDbEntity
  8
A0102_Printing_02
 62
1
100
AcDbSpline
 70
8
 71
3
 72
8
 73
4
 74
0
 40
0
 40
0
 40
0
 40
0
 40
1
 40
1
 40
1
 40
1
 10
378.693991
 20
1072.630973
 30
0.0
 10
398.427990
 20
1044.512974
 30
0.0
 10
430.672989
 20
1037.160974
 30
0.0
 10
448.342989
 20
1050.316974
 30
0.0
  0
SPLINE
  5
18c
100
AcDbEntity
  8
A0102_Printing_02
 62
1
100
AcDbSpline
 70
8
 71
3
 72
8
 73
4
 74
0
 40
0
 40
0
 40
0
 40
0
 40
1
 40
1
 40
1
 40
1
 10
448.342989
 20
1050.316974
 30
0.0
 10
441.764989
 20
1035.483974
 30
0.0
 10
418.805990
 20
1034.064974
 30
0.0
 10
399.587990
 20
1043.351974
 30
0.0
  0
SPLINE
  5
18d
100
AcDbEntity
  8
A0102_Printing_02
 62
1
100
AcDbSpline
 70
8
 71
3
 72
8
 73
4
 74
0
 40
0
 40
0
 40
0
 40
0
 40
1
 40
1
 40
1
 40
1
 10
399.587990
 20
1043.351974
 30
0.0
 10
392.494990
 20
1015.361975
 30
0.0
 10
367.987991
 20
1064.375973
 30
0.0
 10
368.503991
 20
1095.071973
 30
0.0
  0
LWPOLYLINE
  5
18e
100
AcDbEntity
  8
A0102_Printing_02
 62
1
100
AcDbPolyline
 90
1
 70
1
 10
364.376991
 20
1044.382974
 30
0.0
  0
SPLINE
  5
18f
100
AcDbEntity
  8
A0102_Printing_02
 62
1
100
AcDbSpline
 70
8
 71
3
 72
8
 73
4
 74
0
 40
0
 40
0
 40
0
 40
0
 40
1
 40
1
 40
1
 40
1
 10
475.963988
 20
1044.171974
 30
0.0
 10
477.511988
 20
1050.959974
 30
0.0
 10
489.165988
 20
1055.463974
 30
0.0
 10
502.212987
 20
1052.212974
 30
0.0
  0
SPLINE
  5
190
100
AcDbEntity
  8
A0102_Printing_02
 62
1
100
AcDbSpline
 70
8
 71
3
 72
8
 73
4
 74
0
 40
0
 40
0
 40
0
 40
0
 40
1
 40
1
 40
1
 40
1
 10
502.212987
 20
1052.212974
 30
0.0
 10
518.182987
 20
1048.239974
 30
0.0
 10
525.995987
 20
1035.030974
 30
0.0
 10
527.476987
 20
1032.417974
 30
0.0
  0
SPLINE
  5
191
100
AcDbEntity
  8
A0102_Printing_02
 62
1
100
AcDbSpline
 70
8
 71
3
 72
8
 73
4
 74
0
 40
0
 40
0
 40
0
 40
0
 40
1
 40
1
 40
1
 40
1
 10
527.476987
 20
1032.417974
 30
0.0
 10
525.010987
 20
1030.701974
 30
0.0
 10
512.238987
 20
1022.197974
 30
0.0
 10
496.121988
 20
1025.541974
 30
0.0
  0
SPLINE
  5
192
100
AcDbEntity
  8
A0102_Printing_02
 62
1
100
AcDbSpline
 70
8
 71
3
 72
8
 73
4
 74
0
 40
0
 40
0
 40
0
 40
0
 40
1
 40
1
 40
1
 40
1
 10
496.121988
 20
1025.541974
 30
0.0
 10
482.960988
 20
1028.275974
 30
0.0
 10
474.415988
 20
1037.389974
 30
0.0
 10
475.963988
 20
1044.171974
 30
0.0
  0
LWPOLYLINE
  5
193
100
AcDbEntity
  8
A0102_Printing_02
 62
1
100
AcDbPolyline
 90
1
 70
1
 10
368.503991
 20
1095.071973
 30
0.0
  0
SPLINE
  5
194
100
AcDbEntity
  8
A0102_Printing_02
 62
1
100
AcDbSpline
 70
8
 71
3
 72
8
 73
4
 74
0
 40
0
 40
0
 40
0
 40
0
 40
1
 40
1
 40
1
 40
1
 10
512.231987
 20
1089.632973
 30
0.0
 10
518.503987
 20
1092.648973
 30
0.0
 10
529.286987
 20
1086.342973
 30
0.0
 10
534.881987
 20
1074.119973
 30
0.0
  0
SPLINE
  5
195
100
AcDbEntity
  8
A0102_Printing_02
 62
1
100
AcDbSpline
 70
8
 71
3
 72
8
 73
4
 74
0
 40
0
 40
0
 40
0
 40
0
 40
1
 40
1
 40
1
 40
1
 10
534.881987
 20
1074.119973
 30
0.0
 10
541.730986
 20
1059.155974
 30
0.0
 10
536.282987
 20
1044.814974
 30
0.0
 10
535.156987
 20
1042.020974
 30
0.0
  0
SPLINE
  5
196
100
AcDbEntity
  8
A0102_Printing_02
 62
1
100
AcDbSpline
 70
8
 71
3
 72
8
 73
4
 74
0
 40
0
 40
0
 40
0
 40
0
 40
1
 40
1
 40
1
 40
1
 10
535.156987
 20
1042.020974
 30
0.0
 10
532.274987
 20
1042.884974
 30
0.0
 10
517.666987
 20
1047.562974
 30
0.0
 10
510.234987
 20
1062.251973
 30
0.0
  0
SPLINE
  5
197
100
AcDbEntity
  8
A0102_Printing_02
 62
1
100
AcDbSpline
 70
8
 71
3
 72
8
 73
4
 74
0
 40
0
 40
0
 40
0
 40
0
 40
1
 40
1
 40
1
 40
1
 10
510.234987
 20
1062.251973
 30
0.0
 10
504.162987
 20
1074.246973
 30
0.0
 10
505.958987
 20
1086.610973
 30
0.0
 10
512.231987
 20
1089.632973
 30
0.0
  0
LWPOLYLINE
  5
198
100
AcDbEntity
  8
A0102_Printing_02
 62
1
100
AcDbPolyline
 90
1
 70
1
 10
475.963988
 20
1044.171974
 30
0.0
  0
SPLINE
  5
199
100
AcDbEntity
  8
A0102_Printing_02
 62
1
100
AcDbSpline
 70
8
 71
3
 72
8
 73
4
 74
0
 40
0
 40
0
 40
0
 40
0
 40
1
 40
1
 40
1
 40
1
 10
552.351986
 20
1029.247974
 30
0.0
 10
552.351986
 20
1023.142974
 30
0.0
 10
547.399986
 20
1018.190975
 30
0.0
 10
541.294986
 20
1018.190975
 30
0.0
  0
SPLINE
  5
19a
100
AcDbEntity
  8
A0102_Printing_02
 62
1
100
AcDbSpline
 70
8
 71
3
 72
8
 73
4
 74
0
 40
0
 40
0
 40
0
 40
0
 40
1
 40
1
 40
1
 40
1
 10
541.294986
 20
1018.190975
 30
0.0
 10
535.183987
 20
1018.190975
 30
0.0
 10
530.237987
 20
1023.142974
 30
0.0
 10
530.237987
 20
1029.247974
 30
0.0
  0
SPLINE
  5
19b
100
AcDbEntity
  8
A0102_Printing_02
 62
1
100
AcDbSpline
 70
8
 71
3
 72
8
 73
4
 74
0
 40
0
 40
0
 40
0
 40
0
 40
1
 40
1
 40
1
 40
1
 10
530.237987
 20
1029.247974
 30
0.0
 10
530.237987
 20
1035.352974
 30
0.0
 10
535.183987
 20
1040.304974
 30
0.0
 10
541.294986
 20
1040.304974
 30
0.0
  0
SPLINE
  5
19c
100
AcDbEntity
  8
A0102_Printing_02
 62
1
100
AcDbSpline
 70
8
 71
3
 72
8
 73
4
 74
0
 40
0
 40
0
 40
0
 40
0
 40
1
 40
1
 40
1
 40
1
 10
541.294986
 20
1040.304974
 30
0.0
 10
547.399986
 20
1040.304974
 30
0.0
 10
552.351986
 20
1035.352974
 30
0.0
 10
552.351986
 20
1029.247974
 30
0.0
  0
LWPOLYLINE
  5
19d
100
AcDbEntity
  8
A0102_Printing_02
 62
1
100
AcDbPolyline
 90
1
 70
1
 10
512.231987
 20
1089.632973
 30
0.0
  0
SPLINE
  5
19e
100
AcDbEntity
  8
A0102_Printing_02
 62
1
100
AcDbSpline
 70
8
 71
3
 72
8
 73
4
 74
0
 40
0
 40
0
 40
0
 40
0
 40
1
 40
1
 40
1
 40
1
 10
547.734986
 20
1074.105973
 30
0.0
 10
553.323986
 20
1086.329973
 30
0.0
 10
564.112986
 20
1092.634973
 30
0.0
 10
570.385986
 20
1089.612973
 30
0.0
  0
SPLINE
  5
19f
100
AcDbEntity
  8
A0102_Printing_02
 62
1
100
AcDbSpline
 70
8
 71
3
 72
8
 73
4
 74
0
 40
0
 40
0
 40
0
 40
0
 40
1
 40
1
 40
1
 40
1
 10
570.385986
 20
1089.612973
 30
0.0
 10
576.657986
 20
1086.597973
 30
0.0
 10
578.446986
 20
1074.233973
 30
0.0
 10
572.382986
 20
1062.237973
 30
0.0
  0
SPLINE
  5
1a0
100
AcDbEntity
  8
A0102_Printing_02
 62
1
100
AcDbSpline
 70
8
 71
3
 72
8
 73
4
 74
0
 40
0
 40
0
 40
0
 40
0
 40
1
 40
1
 40
1
 40
1
 10
572.382986
 20
1062.237973
 30
0.0
 10
564.950986
 20
1047.548974
 30
0.0
 10
550.334986
 20
1042.871974
 30
0.0
 10
547.453986
 20
1042.006974
 30
0.0
  0
SPLINE
  5
1a1
100
AcDbEntity
  8
A0102_Printing_02
 62
1
100
AcDbSpline
 70
8
 71
3
 72
8
 73
4
 74
0
 40
0
 40
0
 40
0
 40
0
 40
1
 40
1
 40
1
 40
1
 10
547.453986
 20
1042.006974
 30
0.0
 10
546.334986
 20
1044.801974
 30
0.0
 10
540.879986
 20
1059.135974
 30
0.0
 10
547.734986
 20
1074.105973
 30
0.0
  0
LWPOLYLINE
  5
1a2
100
AcDbEntity
  8
A0102_Printing_02
 62
1
100
AcDbPolyline
 90
1
 70
1
 10
552.351986
 20
1029.247974
 30
0.0
  0
SPLINE
  5
1a3
100
AcDbEntity
  8
A0102_Printing_02
 62
1
100
AcDbSpline
 70
8
 71
3
 72
8
 73
4
 74
0
 40
0
 40
0
 40
0
 40
0
 40
1
 40
1
 40
1
 40
1
 10
606.625985
 20
1044.144974
 30
0.0
 10
608.180985
 20
1037.356974
 30
0.0
 10
599.629985
 20
1028.242974
 30
0.0
 10
586.468985
 20
1025.508974
 30
0.0
  0
SPLINE
  5
1a4
100
AcDbEntity
  8
A0102_Printing_02
 62
1
100
AcDbSpline
 70
8
 71
3
 72
8
 73
4
 74
0
 40
0
 40
0
 40
0
 40
0
 40
1
 40
1
 40
1
 40
1
 10
586.468985
 20
1025.508974
 30
0.0
 10
570.351986
 20
1022.164974
 30
0.0
 10
557.585986
 20
1030.668974
 30
0.0
 10
555.112986
 20
1032.383974
 30
0.0
  0
SPLINE
  5
1a5
100
AcDbEntity
  8
A0102_Printing_02
 62
1
100
AcDbSpline
 70
8
 71
3
 72
8
 73
4
 74
0
 40
0
 40
0
 40
0
 40
0
 40
1
 40
1
 40
1
 40
1
 10
555.112986
 20
1032.383974
 30
0.0
 10
556.593986
 20
1035.003974
 30
0.0
 10
564.407986
 20
1048.205974
 30
0.0
 10
580.376985
 20
1052.179974
 30
0.0
  0
SPLINE
  5
1a6
100
AcDbEntity
  8
A0102_Printing_02
 62
1
100
AcDbSpline
 70
8
 71
3
 72
8
 73
4
 74
0
 40
0
 40
0
 40
0
 40
0
 40
1
 40
1
 40
1
 40
1
 10
580.376985
 20
1052.179974
 30
0.0
 10
593.424985
 20
1055.429974
 30
0.0
 10
605.077985
 20
1050.932974
 30
0.0
 10
606.625985
 20
1044.144974
 30
0.0
  0
LWPOLYLINE
  5
1a7
100
AcDbEntity
  8
A0102_Printing_02
 62
1
100
AcDbPolyline
 90
1
 70
1
 10
547.734986
 20
1074.105973
 30
0.0
  0
LWPOLYLINE
  5
1a8
100
AcDbEntity
  8
A0102_Printing_02
 62
1
100
AcDbPolyline
 90
1
 70
1
 10
606.625985
 20
1044.144974
 30
0.0
  0
SPLINE
  5
1a9
100
AcDbEntity
  8
A0102_Printing_02
 62
1
100
AcDbSpline
 70
8
 71
3
 72
8
 73
4
 74
0
 40
0
 40
0
 40
0
 40
0
 40
1
 40
1
 40
1
 40
1
 10
593.672985
 20
987.451975
 30
0.0
 10
589.336985
 20
982.010975
 30
0.0
 10
576.878986
 20
983.008975
 30
0.0
 10
566.538986
 20
991.599975
 30
0.0
  0
SPLINE
  5
1aa
100
AcDbEntity
  8
A0102_Printing_02
 62
1
100
AcDbSpline
 70
8
 71
3
 72
8
 73
4
 74
0
 40
0
 40
0
 40
0
 40
0
 40
1
 40
1
 40
1
 40
1
 10
566.538986
 20
991.599975
 30
0.0
 10
553.873986
 20
1002.114975
 30
0.0
 10
552.559986
 20
1017.399975
 30
0.0
 10
552.365986
 20
1020.395974
 30
0.0
  0
SPLINE
  5
1ab
100
AcDbEntity
  8
A0102_Printing_02
 62
1
100
AcDbSpline
 70
8
 71
3
 72
8
 73
4
 74
0
 40
0
 40
0
 40
0
 40
0
 40
1
 40
1
 40
1
 40
1
 10
552.365986
 20
1020.395974
 30
0.0
 10
555.333986
 20
1020.870974
 30
0.0
 10
570.525986
 20
1022.995974
 30
0.0
 10
583.593985
 20
1012.983975
 30
0.0
  0
SPLINE
  5
1ac
100
AcDbEntity
  8
A0102_Printing_02
 62
1
100
AcDbSpline
 70
8
 71
3
 72
8
 73
4
 74
0
 40
0
 40
0
 40
0
 40
0
 40
1
 40
1
 40
1
 40
1
 10
583.593985
 20
1012.983975
 30
0.0
 10
594.268985
 20
1004.814975
 30
0.0
 10
598.014985
 20
992.893975
 30
0.0
 10
593.672985
 20
987.451975
 30
0.0
  0
LWPOLYLINE
  5
1ad
100
AcDbEntity
  8
A0102_Printing_02
 62
1
100
AcDbPolyline
 90
4
 70
1
 10
704.533982
 20
1077.042973
 30
0.0
 10
718.706982
 20
1077.042973
 30
0.0
 10
718.706982
 20
1006.176975
 30
0.0
 10
704.533982
 20
1006.176975
 30
0.0
  0
SPLINE
  5
1ae
100
AcDbEntity
  8
A0102_Printing_02
 62
1
100
AcDbSpline
 70
8
 71
3
 72
8
 73
4
 74
0
 40
0
 40
0
 40
0
 40
0
 40
1
 40
1
 40
1
 40
1
 10
541.274986
 20
962.234976
 30
0.0
 10
534.312987
 20
962.234976
 30
0.0
 10
527.335987
 20
972.594976
 30
0.0
 10
527.597987
 20
986.037975
 30
0.0
  0
SPLINE
  5
1af
100
AcDbEntity
  8
A0102_Printing_02
 62
1
100
AcDbSpline
 70
8
 71
3
 72
8
 73
4
 74
0
 40
0
 40
0
 40
0
 40
0
 40
1
 40
1
 40
1
 40
1
 10
527.597987
 20
986.037975
 30
0.0
 10
527.918987
 20
1002.496975
 30
0.0
 10
539.056987
 20
1013.050975
 30
0.0
 10
541.274986
 20
1015.074975
 30
0.0
  0
SPLINE
  5
1b0
100
AcDbEntity
  8
A0102_Printing_02
 62
1
100
AcDbSpline
 70
8
 71
3
 72
8
 73
4
 74
0
 40
0
 40
0
 40
0
 40
0
 40
1
 40
1
 40
1
 40
1
 10
541.274986
 20
1015.074975
 30
0.0
 10
543.499986
 20
1013.050975
 30
0.0
 10
554.630986
 20
1002.496975
 30
0.0
 10
554.952986
 20
986.037975
 30
0.0
  0
SPLINE
  5
1b1
100
AcDbEntity
  8
A0102_Printing_02
 62
1
100
AcDbSpline
 70
8
 71
3
 72
8
 73
4
 74
0
 40
0
 40
0
 40
0
 40
0
 40
1
 40
1
 40
1
 40
1
 10
554.952986
 20
986.037975
 30
0.0
 10
555.220986
 20
972.594976
 30
0.0
 10
548.237986
 20
962.234976
 30
0.0
 10
541.274986
 20
962.234976
 30
0.0
  0
LWPOLYLINE
  5
1b2
100
AcDbEntity
  8
A0102_Printing_02
 62
1
100
AcDbPolyline
 90
1
 70
1
 10
593.672985
 20
987.451975
 30
0.0
  0
SPLINE
  5
1b3
100
AcDbEntity
  8
A0102_Printing_02
 62
1
100
AcDbSpline
 70
8
 71
3
 72
8
 73
4
 74
0
 40
0
 40
0
 40
0
 40
0
 40
1
 40
1
 40
1
 40
1
 10
516.024987
 20
991.626975
 30
0.0
 10
505.684987
 20
983.035975
 30
0.0
 10
493.233988
 20
982.036975
 30
0.0
 10
488.890988
 20
987.478975
 30
0.0
  0
SPLINE
  5
1b4
100
AcDbEntity
  8
A0102_Printing_02
 62
1
100
AcDbSpline
 70
8
 71
3
 72
8
 73
4
 74
0
 40
0
 40
0
 40
0
 40
0
 40
1
 40
1
 40
1
 40
1
 10
488.890988
 20
987.478975
 30
0.0
 10
484.548988
 20
992.919975
 30
0.0
 10
488.294988
 20
1004.841975
 30
0.0
 10
498.969988
 20
1013.010975
 30
0.0
  0
SPLINE
  5
1b5
100
AcDbEntity
  8
A0102_Printing_02
 62
1
100
AcDbSpline
 70
8
 71
3
 72
8
 73
4
 74
0
 40
0
 40
0
 40
0
 40
0
 40
1
 40
1
 40
1
 40
1
 10
498.969988
 20
1013.010975
 30
0.0
 10
512.036987
 20
1023.022974
 30
0.0
 10
527.228987
 20
1020.897974
 30
0.0
 10
530.204987
 20
1020.421974
 30
0.0
  0
SPLINE
  5
1b6
100
AcDbEntity
  8
A0102_Printing_02
 62
1
100
AcDbSpline
 70
8
 71
3
 72
8
 73
4
 74
0
 40
0
 40
0
 40
0
 40
0
 40
1
 40
1
 40
1
 40
1
 10
530.204987
 20
1020.421974
 30
0.0
 10
530.003987
 20
1017.419975
 30
0.0
 10
528.689987
 20
1002.134975
 30
0.0
 10
516.024987
 20
991.626975
 30
0.0
  0
LWPOLYLINE
  5
1b7
100
AcDbEntity
  8
A0102_Printing_02
 62
1
100
AcDbPolyline
 90
1
 70
1
 10
541.274986
 20
962.234976
 30
0.0
  0
LWPOLYLINE
  5
1b8
100
AcDbEntity
  8
A0102_Printing_02
 62
1
100
AcDbPolyline
 90
1
 70
1
 10
516.024987
 20
991.626975
 30
0.0
  0
SPLINE
  5
1b9
100
AcDbEntity
  8
A0102_Printing_02
 62
1
100
AcDbSpline
 70
8
 71
3
 72
8
 73
4
 74
0
 40
0
 40
0
 40
0
 40
0
 40
1
 40
1
 40
1
 40
1
 10
279.337993
 20
939.562977
 30
0.0
 10
279.337993
 20
970.872976
 30
0.0
 10
304.719992
 20
996.255975
 30
0.0
 10
336.029992
 20
996.255975
 30
0.0
  0
LWPOLYLINE
  5
1ba
100
AcDbEntity
  8
A0102_Printing_02
 62
1
100
AcDbPolyline
 90
1
 70
1
 10
279.337993
 20
939.562977
 30
0.0
  0
SPLINE
  5
1bb
100
AcDbEntity
  8
A0102_Printing_02
 62
1
100
AcDbSpline
 70
8
 71
3
 72
8
 73
4
 74
0
 40
0
 40
0
 40
0
 40
0
 40
1
 40
1
 40
1
 40
1
 10
392.722990
 20
996.255975
 30
0.0
 10
424.033989
 20
996.255975
 30
0.0
 10
449.415989
 20
970.872976
 30
0.0
 10
449.415989
 20
939.562977
 30
0.0
  0
LWPOLYLINE
  5
1bc
100
AcDbEntity
  8
A0102_Printing_02
 62
1
100
AcDbPolyline
 90
2
 70
0
 10
336.029992
 20
996.255975
 30
0.0
 10
392.722990
 20
996.255975
 30
0.0
  0
LWPOLYLINE
  5
1bd
100
AcDbEntity
  8
A0102_Printing_02
 62
1
100
AcDbPolyline
 90
31
 70
0
 10
449.415989
 20
939.562977
 30
0.0
 10
449.415989
 20
939.562977
 30
0.0
 10
728.628982
 20
939.562977
 30
0.0
 10
728.628982
 20
1147.908971
 30
0.0
 10
718.707982
 20
1147.908971
 30
0.0
 10
718.707982
 20
1133.735972
 30
0.0
 10
647.840984
 20
1133.735972
 30
0.0
 10
647.840984
 20
1147.908971
 30
0.0
 10
591.148985
 20
1147.908971
 30
0.0
 10
591.148985
 20
1133.735972
 30
0.0
 10
520.281987
 20
1133.735972
 30
0.0
 10
520.281987
 20
1147.908971
 30
0.0
 10
463.588988
 20
1147.908971
 30
0.0
 10
463.588988
 20
1133.735972
 30
0.0
 10
392.722990
 20
1133.735972
 30
0.0
 10
392.722990
 20
1147.908971
 30
0.0
 10
336.029992
 20
1147.908971
 30
0.0
 10
336.029992
 20
1133.735972
 30
0.0
 10
265.163993
 20
1133.735972
 30
0.0
 10
265.163993
 20
1147.908971
 30
0.0
 10
208.470995
 20
1147.908971
 30
0.0
 10
208.470995
 20
1133.735972
 30
0.0
 10
137.604997
 20
1133.735972
 30
0.0
 10
137.604997
 20
1147.908971
 30
0.0
 10
80.911998
 20
1147.908971
 30
0.0
 10
80.911998
 20
1133.735972
 30
0.0
 10
10.046000
 20
1133.735972
 30
0.0
 10
10.046000
 20
1147.908971
 30
0.0
 10
0.125000
 20
1147.908971
 30
0.0
 10
0.125000
 20
939.562977
 30
0.0
 10
279.337993
 20
939.562977
 30
0.0
  0
LWPOLYLINE
  5
1be
100
AcDbEntity
  8
A0102_Printing_02
 62
4
100
AcDbPolyline
 90
4
 70
1
 10
116.600997
 20
1103.687972
 30
0.0
 10
125.524997
 20
1103.687972
 30
0.0
 10
125.524997
 20
1099.500973
 30
0.0
 10
116.600997
 20
1099.500973
 30
0.0
  0
LWPOLYLINE
  5
1bf
100
AcDbEntity
  8
A0102_Printing_02
 62
4
100
AcDbPolyline
 90
4
 70
1
 10
116.666997
 20
1109.465972
 30
0.0
 10
125.590997
 20
1109.465972
 30
0.0
 10
125.590997
 20
1108.307972
 30
0.0
 10
116.666997
 20
1108.307972
 30
0.0
  0
LWPOLYLINE
  5
1c0
100
AcDbEntity
  8
A0102_Printing_02
 62
4
100
AcDbPolyline
 90
4
 70
1
 10
116.666997
 20
1116.311972
 30
0.0
 10
125.590997
 20
1116.311972
 30
0.0
 10
125.590997
 20
1113.115972
 30
0.0
 10
116.666997
 20
1113.115972
 30
0.0
  0
SPLINE
  5
1c1
100
AcDbEntity
  8
A0102_Printing_02
 62
4
100
AcDbSpline
 70
8
 71
3
 72
8
 73
4
 74
0
 40
0
 40
0
 40
0
 40
0
 40
1
 40
1
 40
1
 40
1
 10
86.893998
 20
1103.939972
 30
0.0
 10
87.208998
 20
1102.702972
 30
0.0
 10
87.729998
 20
1101.634972
 30
0.0
 10
88.454998
 20
1100.735972
 30
0.0
  0
SPLINE
  5
1c2
100
AcDbEntity
  8
A0102_Printing_02
 62
4
100
AcDbSpline
 70
8
 71
3
 72
8
 73
4
 74
0
 40
0
 40
0
 40
0
 40
0
 40
1
 40
1
 40
1
 40
1
 10
88.454998
 20
1100.735972
 30
0.0
 10
89.589998
 20
1099.332973
 30
0.0
 10
90.905998
 20
1098.449973
 30
0.0
 10
92.403998
 20
1098.086973
 30
0.0
  0
SPLINE
  5
1c3
100
AcDbEntity
  8
A0102_Printing_02
 62
4
100
AcDbSpline
 70
8
 71
3
 72
8
 73
4
 74
0
 40
0
 40
0
 40
0
 40
0
 40
1
 40
1
 40
1
 40
1
 10
92.403998
 20
1098.086973
 30
0.0
 10
93.949998
 20
1097.707973
 30
0.0
 10
96.053998
 20
1097.518973
 30
0.0
 10
98.718998
 20
1097.518973
 30
0.0
  0
LWPOLYLINE
  5
1c4
100
AcDbEntity
  8
A0102_Printing_02
 62
4
100
AcDbPolyline
 90
4
 70
1
 10
116.666997
 20
1127.565972
 30
0.0
 10
125.590997
 20
1127.565972
 30
0.0
 10
125.590997
 20
1120.164972
 30
0.0
 10
116.666997
 20
1120.164972
 30
0.0
  0
SPLINE
  5
1c5
100
AcDbEntity
  8
A0102_Printing_02
 62
4
100
AcDbSpline
 70
8
 71
3
 72
8
 73
4
 74
0
 40
0
 40
0
 40
0
 40
0
 40
1
 40
1
 40
1
 40
1
 10
99.025998
 20
1105.181972
 30
0.0
 10
98.268998
 20
1105.181972
 30
0.0
 10
97.658998
 20
1105.240972
 30
0.0
 10
97.193998
 20
1105.359972
 30
0.0
  0
SPLINE
  5
1c6
100
AcDbEntity
  8
A0102_Printing_02
 62
4
100
AcDbSpline
 70
8
 71
3
 72
8
 73
4
 74
0
 40
0
 40
0
 40
0
 40
0
 40
1
 40
1
 40
1
 40
1
 10
97.193998
 20
1105.359972
 30
0.0
 10
96.728998
 20
1105.477972
 30
0.0
 10
96.345998
 20
1105.677972
 30
0.0
 10
96.046998
 20
1105.961972
 30
0.0
  0
SPLINE
  5
1c7
100
AcDbEntity
  8
A0102_Printing_02
 62
4
100
AcDbSpline
 70
8
 71
3
 72
8
 73
4
 74
0
 40
0
 40
0
 40
0
 40
0
 40
1
 40
1
 40
1
 40
1
 10
96.046998
 20
1105.961972
 30
0.0
 10
95.730998
 20
1106.260972
 30
0.0
 10
95.513998
 20
1106.630972
 30
0.0
 10
95.395998
 20
1107.071972
 30
0.0
  0
SPLINE
  5
1c8
100
AcDbEntity
  8
A0102_Printing_02
 62
4
100
AcDbSpline
 70
8
 71
3
 72
8
 73
4
 74
0
 40
0
 40
0
 40
0
 40
0
 40
1
 40
1
 40
1
 40
1
 10
95.395998
 20
1107.071972
 30
0.0
 10
95.277998
 20
1107.513972
 30
0.0
 10
95.218998
 20
1108.174972
 30
0.0
 10
95.218998
 20
1109.056972
 30
0.0
  0
LWPOLYLINE
  5
1c9
100
AcDbEntity
  8
A0102_Printing_02
 62
4
100
AcDbPolyline
 90
6
 70
0
 10
98.718998
 20
1097.518973
 30
0.0
 10
128.939997
 20
1097.518973
 30
0.0
 10
128.939997
 20
1129.777972
 30
0.0
 10
112.814997
 20
1129.777972
 30
0.0
 10
112.814997
 20
1105.181972
 30
0.0
 10
99.025998
 20
1105.181972
 30
0.0
  0
SPLINE
  5
1ca
100
AcDbEntity
  8
A0102_Printing_02
 62
4
100
AcDbSpline
 70
8
 71
3
 72
8
 73
4
 74
0
 40
0
 40
0
 40
0
 40
0
 40
1
 40
1
 40
1
 40
1
 10
86.420998
 20
1108.702972
 30
0.0
 10
86.420998
 20
1106.764972
 30
0.0
 10
86.577998
 20
1105.177972
 30
0.0
 10
86.893998
 20
1103.939972
 30
0.0
  0
LWPOLYLINE
  5
1cb
100
AcDbEntity
  8
A0102_Printing_02
 62
4
100
AcDbPolyline
 90
4
 70
0
 10
95.218998
 20
1109.056972
 30
0.0
 10
95.218998
 20
1129.777972
 30
0.0
 10
86.420998
 20
1129.777972
 30
0.0
 10
86.420998
 20
1108.702972
 30
0.0
  0
LWPOLYLINE
  5
1cc
100
AcDbEntity
  8
A0102_Printing_02
 62
4
100
AcDbPolyline
 90
1
 70
1
 10
86.893998
 20
1103.939972
 30
0.0
  0
LWPOLYLINE
  5
1cd
100
AcDbEntity
  8
A0102_Printing_02
 62
4
100
AcDbPolyline
 90
4
 70
1
 10
108.095997
 20
1129.777972
 30
0.0
 10
99.935998
 20
1129.777972
 30
0.0
 10
99.935998
 20
1109.935972
 30
0.0
 10
108.095997
 20
1109.935972
 30
0.0
  0
SPLINE
  5
1ce
100
AcDbEntity
  8
A0102_Printing_02
 62
1
100
AcDbSpline
 70
8
 71
3
 72
8
 73
4
 74
0
 40
0
 40
0
 40
0
 40
0
 40
1
 40
1
 40
1
 40
1
 10
900.734977
 20
1032.383974
 30
0.0
 10
898.261978
 20
1030.668974
 30
0.0
 10
885.495978
 20
1022.164974
 30
0.0
 10
869.378978
 20
1025.508974
 30
0.0
  0
SPLINE
  5
1cf
100
AcDbEntity
  8
A0102_Printing_02
 62
1
100
AcDbSpline
 70
8
 71
3
 72
8
 73
4
 74
0
 40
0
 40
0
 40
0
 40
0
 40
1
 40
1
 40
1
 40
1
 10
869.378978
 20
1025.508974
 30
0.0
 10
856.217979
 20
1028.242974
 30
0.0
 10
847.666979
 20
1037.356974
 30
0.0
 10
849.221979
 20
1044.144974
 30
0.0
  0
SPLINE
  5
1d0
100
AcDbEntity
  8
A0102_Printing_02
 62
1
100
AcDbSpline
 70
8
 71
3
 72
8
 73
4
 74
0
 40
0
 40
0
 40
0
 40
0
 40
1
 40
1
 40
1
 40
1
 10
849.221979
 20
1044.144974
 30
0.0
 10
850.769979
 20
1050.932974
 30
0.0
 10
862.422978
 20
1055.429974
 30
0.0
 10
875.470978
 20
1052.179974
 30
0.0
  0
SPLINE
  5
1d1
100
AcDbEntity
  8
A0102_Printing_02
 62
1
100
AcDbSpline
 70
8
 71
3
 72
8
 73
4
 74
0
 40
0
 40
0
 40
0
 40
0
 40
1
 40
1
 40
1
 40
1
 10
875.470978
 20
1052.179974
 30
0.0
 10
891.439978
 20
1048.205974
 30
0.0
 10
899.253978
 20
1035.003974
 30
0.0
 10
900.734977
 20
1032.383974
 30
0.0
  0
LWPOLYLINE
  5
1d2
100
AcDbEntity
  8
A0102_Printing_02
 62
1
100
AcDbPolyline
 90
4
 70
1
 10
738.549982
 20
1077.042973
 30
0.0
 10
752.722981
 20
1077.042973
 30
0.0
 10
752.722981
 20
1006.176975
 30
0.0
 10
738.549982
 20
1006.176975
 30
0.0
  0
SPLINE
  5
1d3
100
AcDbEntity
  8
A0102_Printing_02
 62
1
100
AcDbSpline
 70
8
 71
3
 72
8
 73
4
 74
0
 40
0
 40
0
 40
0
 40
0
 40
1
 40
1
 40
1
 40
1
 10
885.461978
 20
1089.612973
 30
0.0
 10
891.734978
 20
1092.634973
 30
0.0
 10
902.523977
 20
1086.329973
 30
0.0
 10
908.112977
 20
1074.105973
 30
0.0
  0
SPLINE
  5
1d4
100
AcDbEntity
  8
A0102_Printing_02
 62
1
100
AcDbSpline
 70
8
 71
3
 72
8
 73
4
 74
0
 40
0
 40
0
 40
0
 40
0
 40
1
 40
1
 40
1
 40
1
 10
908.112977
 20
1074.105973
 30
0.0
 10
914.967977
 20
1059.135974
 30
0.0
 10
909.512977
 20
1044.801974
 30
0.0
 10
908.393977
 20
1042.006974
 30
0.0
  0
SPLINE
  5
1d5
100
AcDbEntity
  8
A0102_Printing_02
 62
1
100
AcDbSpline
 70
8
 71
3
 72
8
 73
4
 74
0
 40
0
 40
0
 40
0
 40
0
 40
1
 40
1
 40
1
 40
1
 10
908.393977
 20
1042.006974
 30
0.0
 10
905.512977
 20
1042.871974
 30
0.0
 10
890.896978
 20
1047.548974
 30
0.0
 10
883.464978
 20
1062.237973
 30
0.0
  0
SPLINE
  5
1d6
100
AcDbEntity
  8
A0102_Printing_02
 62
1
100
AcDbSpline
 70
8
 71
3
 72
8
 73
4
 74
0
 40
0
 40
0
 40
0
 40
0
 40
1
 40
1
 40
1
 40
1
 10
883.464978
 20
1062.237973
 30
0.0
 10
877.400978
 20
1074.233973
 30
0.0
 10
879.189978
 20
1086.597973
 30
0.0
 10
885.461978
 20
1089.612973
 30
0.0
  0
LWPOLYLINE
  5
1d7
100
AcDbEntity
  8
A0102_Printing_02
 62
1
100
AcDbPolyline
 90
1
 70
1
 10
900.734977
 20
1032.383974
 30
0.0
  0
SPLINE
  5
1d8
100
AcDbEntity
  8
A0102_Printing_02
 62
1
100
AcDbSpline
 70
8
 71
3
 72
8
 73
4
 74
0
 40
0
 40
0
 40
0
 40
0
 40
1
 40
1
 40
1
 40
1
 10
925.609977
 20
1029.247974
 30
0.0
 10
925.609977
 20
1023.142974
 30
0.0
 10
920.663977
 20
1018.190975
 30
0.0
 10
914.552977
 20
1018.190975
 30
0.0
  0
SPLINE
  5
1d9
100
AcDbEntity
  8
A0102_Printing_02
 62
1
100
AcDbSpline
 70
8
 71
3
 72
8
 73
4
 74
0
 40
0
 40
0
 40
0
 40
0
 40
1
 40
1
 40
1
 40
1
 10
914.552977
 20
1018.190975
 30
0.0
 10
908.447977
 20
1018.190975
 30
0.0
 10
903.495977
 20
1023.142974
 30
0.0
 10
903.495977
 20
1029.247974
 30
0.0
  0
SPLINE
  5
1da
100
AcDbEntity
  8
A0102_Printing_02
 62
1
100
AcDbSpline
 70
8
 71
3
 72
8
 73
4
 74
0
 40
0
 40
0
 40
0
 40
0
 40
1
 40
1
 40
1
 40
1
 10
903.495977
 20
1029.247974
 30
0.0
 10
903.495977
 20
1035.352974
 30
0.0
 10
908.447977
 20
1040.304974
 30
0.0
 10
914.552977
 20
1040.304974
 30
0.0
  0
SPLINE
  5
1db
100
AcDbEntity
  8
A0102_Printing_02
 62
1
100
AcDbSpline
 70
8
 71
3
 72
8
 73
4
 74
0
 40
0
 40
0
 40
0
 40
0
 40
1
 40
1
 40
1
 40
1
 10
914.552977
 20
1040.304974
 30
0.0
 10
920.663977
 20
1040.304974
 30
0.0
 10
925.609977
 20
1035.352974
 30
0.0
 10
925.609977
 20
1029.247974
 30
0.0
  0
LWPOLYLINE
  5
1dc
100
AcDbEntity
  8
A0102_Printing_02
 62
1
100
AcDbPolyline
 90
1
 70
1
 10
885.461978
 20
1089.612973
 30
0.0
  0
SPLINE
  5
1dd
100
AcDbEntity
  8
A0102_Printing_02
 62
1
100
AcDbSpline
 70
8
 71
3
 72
8
 73
4
 74
0
 40
0
 40
0
 40
0
 40
0
 40
1
 40
1
 40
1
 40
1
 10
920.965977
 20
1074.119973
 30
0.0
 10
926.560977
 20
1086.342973
 30
0.0
 10
937.343977
 20
1092.648973
 30
0.0
 10
943.615976
 20
1089.632973
 30
0.0
  0
SPLINE
  5
1de
100
AcDbEntity
  8
A0102_Printing_02
 62
1
100
AcDbSpline
 70
8
 71
3
 72
8
 73
4
 74
0
 40
0
 40
0
 40
0
 40
0
 40
1
 40
1
 40
1
 40
1
 10
943.615976
 20
1089.632973
 30
0.0
 10
949.888976
 20
1086.610973
 30
0.0
 10
951.684976
 20
1074.246973
 30
0.0
 10
945.612976
 20
1062.251973
 30
0.0
  0
SPLINE
  5
1df
100
AcDbEntity
  8
A0102_Printing_02
 62
1
100
AcDbSpline
 70
8
 71
3
 72
8
 73
4
 74
0
 40
0
 40
0
 40
0
 40
0
 40
1
 40
1
 40
1
 40
1
 10
945.612976
 20
1062.251973
 30
0.0
 10
938.180977
 20
1047.562974
 30
0.0
 10
923.572977
 20
1042.884974
 30
0.0
 10
920.690977
 20
1042.020974
 30
0.0
  0
SPLINE
  5
1e0
100
AcDbEntity
  8
A0102_Printing_02
 62
1
100
AcDbSpline
 70
8
 71
3
 72
8
 73
4
 74
0
 40
0
 40
0
 40
0
 40
0
 40
1
 40
1
 40
1
 40
1
 10
920.690977
 20
1042.020974
 30
0.0
 10
919.564977
 20
1044.814974
 30
0.0
 10
914.116977
 20
1059.155974
 30
0.0
 10
920.965977
 20
1074.119973
 30
0.0
  0
LWPOLYLINE
  5
1e1
100
AcDbEntity
  8
A0102_Printing_02
 62
1
100
AcDbPolyline
 90
1
 70
1
 10
925.609977
 20
1029.247974
 30
0.0
  0
SPLINE
  5
1e2
100
AcDbEntity
  8
A0102_Printing_02
 62
1
100
AcDbSpline
 70
8
 71
3
 72
8
 73
4
 74
0
 40
0
 40
0
 40
0
 40
0
 40
1
 40
1
 40
1
 40
1
 10
979.883976
 20
1044.171974
 30
0.0
 10
981.431975
 20
1037.389974
 30
0.0
 10
972.886976
 20
1028.275974
 30
0.0
 10
959.725976
 20
1025.541974
 30
0.0
  0
SPLINE
  5
1e3
100
AcDbEntity
  8
A0102_Printing_02
 62
1
100
AcDbSpline
 70
8
 71
3
 72
8
 73
4
 74
0
 40
0
 40
0
 40
0
 40
0
 40
1
 40
1
 40
1
 40
1
 10
959.725976
 20
1025.541974
 30
0.0
 10
943.608976
 20
1022.197974
 30
0.0
 10
930.836977
 20
1030.701974
 30
0.0
 10
928.370977
 20
1032.417974
 30
0.0
  0
SPLINE
  5
1e4
100
AcDbEntity
  8
A0102_Printing_02
 62
1
100
AcDbSpline
 70
8
 71
3
 72
8
 73
4
 74
0
 40
0
 40
0
 40
0
 40
0
 40
1
 40
1
 40
1
 40
1
 10
928.370977
 20
1032.417974
 30
0.0
 10
929.851977
 20
1035.030974
 30
0.0
 10
937.664977
 20
1048.239974
 30
0.0
 10
953.634976
 20
1052.212974
 30
0.0
  0
SPLINE
  5
1e5
100
AcDbEntity
  8
A0102_Printing_02
 62
1
100
AcDbSpline
 70
8
 71
3
 72
8
 73
4
 74
0
 40
0
 40
0
 40
0
 40
0
 40
1
 40
1
 40
1
 40
1
 10
953.634976
 20
1052.212974
 30
0.0
 10
966.681976
 20
1055.463974
 30
0.0
 10
978.335976
 20
1050.959974
 30
0.0
 10
979.883976
 20
1044.171974
 30
0.0
  0
LWPOLYLINE
  5
1e6
100
AcDbEntity
  8
A0102_Printing_02
 62
1
100
AcDbPolyline
 90
1
 70
1
 10
920.965977
 20
1074.119973
 30
0.0
  0
SPLINE
  5
1e7
100
AcDbEntity
  8
A0102_Printing_02
 62
1
100
AcDbSpline
 70
8
 71
3
 72
8
 73
4
 74
0
 40
0
 40
0
 40
0
 40
0
 40
1
 40
1
 40
1
 40
1
 10
966.956976
 20
987.478975
 30
0.0
 10
962.613976
 20
982.036975
 30
0.0
 10
950.162976
 20
983.035975
 30
0.0
 10
939.822977
 20
991.626975
 30
0.0
  0
SPLINE
  5
1e8
100
AcDbEntity
  8
A0102_Printing_02
 62
1
100
AcDbSpline
 70
8
 71
3
 72
8
 73
4
 74
0
 40
0
 40
0
 40
0
 40
0
 40
1
 40
1
 40
1
 40
1
 10
939.822977
 20
991.626975
 30
0.0
 10
927.157977
 20
1002.134975
 30
0.0
 10
925.843977
 20
1017.419975
 30
0.0
 10
925.642977
 20
1020.421974
 30
0.0
  0
SPLINE
  5
1e9
100
AcDbEntity
  8
A0102_Printing_02
 62
1
100
AcDbSpline
 70
8
 71
3
 72
8
 73
4
 74
0
 40
0
 40
0
 40
0
 40
0
 40
1
 40
1
 40
1
 40
1
 10
925.642977
 20
1020.421974
 30
0.0
 10
928.618977
 20
1020.897974
 30
0.0
 10
943.809976
 20
1023.022974
 30
0.0
 10
956.877976
 20
1013.010975
 30
0.0
  0
SPLINE
  5
1ea
100
AcDbEntity
  8
A0102_Printing_02
 62
1
100
AcDbSpline
 70
8
 71
3
 72
8
 73
4
 74
0
 40
0
 40
0
 40
0
 40
0
 40
1
 40
1
 40
1
 40
1
 10
956.877976
 20
1013.010975
 30
0.0
 10
967.552976
 20
1004.841975
 30
0.0
 10
971.298976
 20
992.919975
 30
0.0
 10
966.956976
 20
987.478975
 30
0.0
  0
LWPOLYLINE
  5
1eb
100
AcDbEntity
  8
A0102_Printing_02
 62
1
100
AcDbPolyline
 90
1
 70
1
 10
979.883976
 20
1044.171974
 30
0.0
  0
SPLINE
  5
1ec
100
AcDbEntity
  8
A0102_Printing_02
 62
1
100
AcDbSpline
 70
8
 71
3
 72
8
 73
4
 74
0
 40
0
 40
0
 40
0
 40
0
 40
1
 40
1
 40
1
 40
1
 10
914.572977
 20
962.234976
 30
0.0
 10
907.609977
 20
962.234976
 30
0.0
 10
900.626977
 20
972.594976
 30
0.0
 10
900.894977
 20
986.037975
 30
0.0
  0
SPLINE
  5
1ed
100
AcDbEntity
  8
A0102_Printing_02
 62
1
100
AcDbSpline
 70
8
 71
3
 72
8
 73
4
 74
0
 40
0
 40
0
 40
0
 40
0
 40
1
 40
1
 40
1
 40
1
 10
900.894977
 20
986.037975
 30
0.0
 10
901.216977
 20
1002.496975
 30
0.0
 10
912.347977
 20
1013.050975
 30
0.0
 10
914.572977
 20
1015.074975
 30
0.0
  0
SPLINE
  5
1ee
100
AcDbEntity
  8
A0102_Printing_02
 62
1
100
AcDbSpline
 70
8
 71
3
 72
8
 73
4
 74
0
 40
0
 40
0
 40
0
 40
0
 40
1
 40
1
 40
1
 40
1
 10
914.572977
 20
1015.074975
 30
0.0
 10
916.790977
 20
1013.050975
 30
0.0
 10
927.927977
 20
1002.496975
 30
0.0
 10
928.249977
 20
986.037975
 30
0.0
  0
SPLINE
  5
1ef
100
AcDbEntity
  8
A0102_Printing_02
 62
1
100
AcDbSpline
 70
8
 71
3
 72
8
 73
4
 74
0
 40
0
 40
0
 40
0
 40
0
 40
1
 40
1
 40
1
 40
1
 10
928.249977
 20
986.037975
 30
0.0
 10
928.510977
 20
972.594976
 30
0.0
 10
921.534977
 20
962.234976
 30
0.0
 10
914.572977
 20
962.234976
 30
0.0
  0
LWPOLYLINE
  5
1f0
100
AcDbEntity
  8
A0102_Printing_02
 62
1
100
AcDbPolyline
 90
1
 70
1
 10
966.956976
 20
987.478975
 30
0.0
  0
SPLINE
  5
1f1
100
AcDbEntity
  8
A0102_Printing_02
 62
1
100
AcDbSpline
 70
8
 71
3
 72
8
 73
4
 74
0
 40
0
 40
0
 40
0
 40
0
 40
1
 40
1
 40
1
 40
1
 10
889.308978
 20
991.599975
 30
0.0
 10
878.968978
 20
983.008975
 30
0.0
 10
866.510978
 20
982.010975
 30
0.0
 10
862.174978
 20
987.451975
 30
0.0
  0
SPLINE
  5
1f2
100
AcDbEntity
  8
A0102_Printing_02
 62
1
100
AcDbSpline
 70
8
 71
3
 72
8
 73
4
 74
0
 40
0
 40
0
 40
0
 40
0
 40
1
 40
1
 40
1
 40
1
 10
862.174978
 20
987.451975
 30
0.0
 10
857.832979
 20
992.893975
 30
0.0
 10
861.578978
 20
1004.814975
 30
0.0
 10
872.253978
 20
1012.983975
 30
0.0
  0
SPLINE
  5
1f3
100
AcDbEntity
  8
A0102_Printing_02
 62
1
100
AcDbSpline
 70
8
 71
3
 72
8
 73
4
 74
0
 40
0
 40
0
 40
0
 40
0
 40
1
 40
1
 40
1
 40
1
 10
872.253978
 20
1012.983975
 30
0.0
 10
885.321978
 20
1022.995974
 30
0.0
 10
900.512977
 20
1020.870974
 30
0.0
 10
903.481977
 20
1020.395974
 30
0.0
  0
SPLINE
  5
1f4
100
AcDbEntity
  8
A0102_Printing_02
 62
1
100
AcDbSpline
 70
8
 71
3
 72
8
 73
4
 74
0
 40
0
 40
0
 40
0
 40
0
 40
1
 40
1
 40
1
 40
1
 10
903.481977
 20
1020.395974
 30
0.0
 10
903.287977
 20
1017.399975
 30
0.0
 10
901.973977
 20
1002.114975
 30
0.0
 10
889.308978
 20
991.599975
 30
0.0
  0
LWPOLYLINE
  5
1f5
100
AcDbEntity
  8
A0102_Printing_02
 62
1
100
AcDbPolyline
 90
1
 70
1
 10
914.572977
 20
962.234976
 30
0.0
  0
SPLINE
  5
1f6
100
AcDbEntity
  8
A0102_Printing_02
 62
1
100
AcDbSpline
 70
8
 71
3
 72
8
 73
4
 74
0
 40
0
 40
0
 40
0
 40
0
 40
1
 40
1
 40
1
 40
1
 10
1078.692973
 20
1072.630973
 30
0.0
 10
1082.819973
 20
1078.562973
 30
0.0
 10
1086.044973
 20
1087.203973
 30
0.0
 10
1088.752973
 20
1095.071973
 30
0.0
  0
SPLINE
  5
1f7
100
AcDbEntity
  8
A0102_Printing_02
 62
1
100
AcDbSpline
 70
8
 71
3
 72
8
 73
4
 74
0
 40
0
 40
0
 40
0
 40
0
 40
1
 40
1
 40
1
 40
1
 10
1088.752973
 20
1095.071973
 30
0.0
 10
1089.397973
 20
1064.245973
 30
0.0
 10
1064.891973
 20
1015.233975
 30
0.0
 10
1057.797974
 20
1043.221974
 30
0.0
  0
SPLINE
  5
1f8
100
AcDbEntity
  8
A0102_Printing_02
 62
1
100
AcDbSpline
 70
8
 71
3
 72
8
 73
4
 74
0
 40
0
 40
0
 40
0
 40
0
 40
1
 40
1
 40
1
 40
1
 10
1057.797974
 20
1043.221974
 30
0.0
 10
1038.579974
 20
1033.936974
 30
0.0
 10
1015.492975
 20
1035.355974
 30
0.0
 10
1008.914975
 20
1050.186974
 30
0.0
  0
SPLINE
  5
1f9
100
AcDbEntity
  8
A0102_Printing_02
 62
1
100
AcDbSpline
 70
8
 71
3
 72
8
 73
4
 74
0
 40
0
 40
0
 40
0
 40
0
 40
1
 40
1
 40
1
 40
1
 10
1008.914975
 20
1050.186974
 30
0.0
 10
1026.713974
 20
1037.030974
 30
0.0
 10
1058.958974
 20
1044.382974
 30
0.0
 10
1078.692973
 20
1072.630973
 30
0.0
  0
LWPOLYLINE
  5
1fa
100
AcDbEntity
  8
A0102_Printing_02
 62
1
100
AcDbPolyline
 90
1
 70
1
 10
889.308978
 20
991.599975
 30
0.0
  0
SPLINE
  5
1fb
100
AcDbEntity
  8
A0102_Printing_02
 62
1
100
AcDbSpline
 70
8
 71
3
 72
8
 73
4
 74
0
 40
0
 40
0
 40
0
 40
0
 40
1
 40
1
 40
1
 40
1
 10
1092.880973
 20
1044.382974
 30
0.0
 10
1095.072973
 20
1048.767974
 30
0.0
 10
1097.394973
 20
1053.541974
 30
0.0
 10
1095.717973
 20
1057.796974
 30
0.0
  0
SPLINE
  5
1fc
100
AcDbEntity
  8
A0102_Printing_02
 62
1
100
AcDbSpline
 70
8
 71
3
 72
8
 73
4
 74
0
 40
0
 40
0
 40
0
 40
0
 40
1
 40
1
 40
1
 40
1
 10
1095.717973
 20
1057.796974
 30
0.0
 10
1098.168973
 20
1055.216974
 30
0.0
 10
1115.451972
 20
1038.966974
 30
0.0
 10
1104.746972
 20
1039.224974
 30
0.0
  0
SPLINE
  5
1fd
100
AcDbEntity
  8
A0102_Printing_02
 62
1
100
AcDbSpline
 70
8
 71
3
 72
8
 73
4
 74
0
 40
0
 40
0
 40
0
 40
0
 40
1
 40
1
 40
1
 40
1
 10
1104.746972
 20
1039.224974
 30
0.0
 10
1104.746972
 20
1039.224974
 30
0.0
 10
1103.843972
 20
1039.094974
 30
0.0
 10
1105.133972
 20
1036.772974
 30
0.0
  0
SPLINE
  5
1fe
100
AcDbEntity
  8
A0102_Printing_02
 62
1
100
AcDbSpline
 70
8
 71
3
 72
8
 73
4
 74
0
 40
0
 40
0
 40
0
 40
0
 40
1
 40
1
 40
1
 40
1
 10
1105.133972
 20
1036.772974
 30
0.0
 10
1107.713972
 20
1032.258974
 30
0.0
 10
1104.746972
 20
1033.806974
 30
0.0
 10
1103.843972
 20
1032.517974
 30
0.0
  0
SPLINE
  5
1ff
100
AcDbEntity
  8
A0102_Printing_02
 62
1
100
AcDbSpline
 70
8
 71
3
 72
8
 73
4
 74
0
 40
0
 40
0
 40
0
 40
0
 40
1
 40
1
 40
1
 40
1
 10
1103.843972
 20
1032.517974
 30
0.0
 10
1104.617972
 20
1024.390974
 30
0.0
 10
1093.267973
 20
1024.390974
 30
0.0
 10
1092.751973
 20
1016.136975
 30
0.0
  0
SPLINE
  5
200
100
AcDbEntity
  8
A0102_Printing_02
 62
1
100
AcDbSpline
 70
8
 71
3
 72
8
 73
4
 74
0
 40
0
 40
0
 40
0
 40
0
 40
1
 40
1
 40
1
 40
1
 10
1092.751973
 20
1016.136975
 30
0.0
 10
1092.235973
 20
1024.776974
 30
0.0
 10
1081.143973
 20
1024.262974
 30
0.0
 10
1081.788973
 20
1032.386974
 30
0.0
  0
SPLINE
  5
201
100
AcDbEntity
  8
A0102_Printing_02
 62
1
100
AcDbSpline
 70
8
 71
3
 72
8
 73
4
 74
0
 40
0
 40
0
 40
0
 40
0
 40
1
 40
1
 40
1
 40
1
 10
1081.788973
 20
1032.386974
 30
0.0
 10
1081.014973
 20
1033.677974
 30
0.0
 10
1077.918973
 20
1032.258974
 30
0.0
 10
1080.627973
 20
1036.772974
 30
0.0
  0
SPLINE
  5
202
100
AcDbEntity
  8
A0102_Printing_02
 62
1
100
AcDbSpline
 70
8
 71
3
 72
8
 73
4
 74
0
 40
0
 40
0
 40
0
 40
0
 40
1
 40
1
 40
1
 40
1
 10
1080.627973
 20
1036.772974
 30
0.0
 10
1081.916973
 20
1038.966974
 30
0.0
 10
1080.885973
 20
1039.094974
 30
0.0
 10
1080.885973
 20
1039.094974
 30
0.0
  0
SPLINE
  5
203
100
AcDbEntity
  8
A0102_Printing_02
 62
1
100
AcDbSpline
 70
8
 71
3
 72
8
 73
4
 74
0
 40
0
 40
0
 40
0
 40
0
 40
1
 40
1
 40
1
 40
1
 10
1080.885973
 20
1039.094974
 30
0.0
 10
1070.179973
 20
1038.835974
 30
0.0
 10
1087.592973
 20
1055.216974
 30
0.0
 10
1090.042973
 20
1057.796974
 30
0.0
  0
SPLINE
  5
204
100
AcDbEntity
  8
A0102_Printing_02
 62
1
100
AcDbSpline
 70
8
 71
3
 72
8
 73
4
 74
0
 40
0
 40
0
 40
0
 40
0
 40
1
 40
1
 40
1
 40
1
 10
1090.042973
 20
1057.796974
 30
0.0
 10
1088.365973
 20
1053.411974
 30
0.0
 10
1090.558973
 20
1048.767974
 30
0.0
 10
1092.880973
 20
1044.382974
 30
0.0
  0
LWPOLYLINE
  5
205
100
AcDbEntity
  8
A0102_Printing_02
 62
1
100
AcDbPolyline
 90
1
 70
1
 10
1078.692973
 20
1072.630973
 30
0.0
  0
SPLINE
  5
206
100
AcDbEntity
  8
A0102_Printing_02
 62
1
100
AcDbSpline
 70
8
 71
3
 72
8
 73
4
 74
0
 40
0
 40
0
 40
0
 40
0
 40
1
 40
1
 40
1
 40
1
 10
1097.007973
 20
1095.071973
 30
0.0
 10
1099.845973
 20
1087.203973
 30
0.0
 10
1102.940972
 20
1078.690973
 30
0.0
 10
1107.197972
 20
1072.630973
 30
0.0
  0
SPLINE
  5
207
100
AcDbEntity
  8
A0102_Printing_02
 62
1
100
AcDbSpline
 70
8
 71
3
 72
8
 73
4
 74
0
 40
0
 40
0
 40
0
 40
0
 40
1
 40
1
 40
1
 40
1
 10
1107.197972
 20
1072.630973
 30
0.0
 10
1126.931972
 20
1044.512974
 30
0.0
 10
1159.175971
 20
1037.160974
 30
0.0
 10
1176.846971
 20
1050.316974
 30
0.0
  0
SPLINE
  5
208
100
AcDbEntity
  8
A0102_Printing_02
 62
1
100
AcDbSpline
 70
8
 71
3
 72
8
 73
4
 74
0
 40
0
 40
0
 40
0
 40
0
 40
1
 40
1
 40
1
 40
1
 10
1176.846971
 20
1050.316974
 30
0.0
 10
1170.268971
 20
1035.483974
 30
0.0
 10
1147.309971
 20
1034.064974
 30
0.0
 10
1128.091972
 20
1043.351974
 30
0.0
  0
SPLINE
  5
209
100
AcDbEntity
  8
A0102_Printing_02
 62
1
100
AcDbSpline
 70
8
 71
3
 72
8
 73
4
 74
0
 40
0
 40
0
 40
0
 40
0
 40
1
 40
1
 40
1
 40
1
 10
1128.091972
 20
1043.351974
 30
0.0
 10
1120.997972
 20
1015.361975
 30
0.0
 10
1096.491973
 20
1064.375973
 30
0.0
 10
1097.007973
 20
1095.071973
 30
0.0
  0
LWPOLYLINE
  5
20a
100
AcDbEntity
  8
A0102_Printing_02
 62
1
100
AcDbPolyline
 90
1
 70
1
 10
1092.880973
 20
1044.382974
 30
0.0
  0
SPLINE
  5
20b
100
AcDbEntity
  8
A0102_Printing_02
 62
1
100
AcDbSpline
 70
8
 71
3
 72
8
 73
4
 74
0
 40
0
 40
0
 40
0
 40
0
 40
1
 40
1
 40
1
 40
1
 10
1204.467970
 20
1044.171974
 30
0.0
 10
1206.015970
 20
1050.959974
 30
0.0
 10
1217.669970
 20
1055.463974
 30
0.0
 10
1230.716969
 20
1052.212974
 30
0.0
  0
SPLINE
  5
20c
100
AcDbEntity
  8
A0102_Printing_02
 62
1
100
AcDbSpline
 70
8
 71
3
 72
8
 73
4
 74
0
 40
0
 40
0
 40
0
 40
0
 40
1
 40
1
 40
1
 40
1
 10
1230.716969
 20
1052.212974
 30
0.0
 10
1246.685969
 20
1048.239974
 30
0.0
 10
1254.499969
 20
1035.030974
 30
0.0
 10
1255.980969
 20
1032.417974
 30
0.0
  0
SPLINE
  5
20d
100
AcDbEntity
  8
A0102_Printing_02
 62
1
100
AcDbSpline
 70
8
 71
3
 72
8
 73
4
 74
0
 40
0
 40
0
 40
0
 40
0
 40
1
 40
1
 40
1
 40
1
 10
1255.980969
 20
1032.417974
 30
0.0
 10
1253.514969
 20
1030.701974
 30
0.0
 10
1240.741969
 20
1022.197974
 30
0.0
 10
1224.625969
 20
1025.541974
 30
0.0
  0
SPLINE
  5
20e
100
AcDbEntity
  8
A0102_Printing_02
 62
1
100
AcDbSpline
 70
8
 71
3
 72
8
 73
4
 74
0
 40
0
 40
0
 40
0
 40
0
 40
1
 40
1
 40
1
 40
1
 10
1224.625969
 20
1025.541974
 30
0.0
 10
1211.463970
 20
1028.275974
 30
0.0
 10
1202.919970
 20
1037.389974
 30
0.0
 10
1204.467970
 20
1044.171974
 30
0.0
  0
LWPOLYLINE
  5
20f
100
AcDbEntity
  8
A0102_Printing_02
 62
1
100
AcDbPolyline
 90
1
 70
1
 10
1097.007973
 20
1095.071973
 30
0.0
  0
SPLINE
  5
210
100
AcDbEntity
  8
A0102_Printing_02
 62
1
100
AcDbSpline
 70
8
 71
3
 72
8
 73
4
 74
0
 40
0
 40
0
 40
0
 40
0
 40
1
 40
1
 40
1
 40
1
 10
1240.735969
 20
1089.632973
 30
0.0
 10
1247.007969
 20
1092.648973
 30
0.0
 10
1257.789969
 20
1086.342973
 30
0.0
 10
1263.385968
 20
1074.119973
 30
0.0
  0
SPLINE
  5
211
100
AcDbEntity
  8
A0102_Printing_02
 62
1
100
AcDbSpline
 70
8
 71
3
 72
8
 73
4
 74
0
 40
0
 40
0
 40
0
 40
0
 40
1
 40
1
 40
1
 40
1
 10
1263.385968
 20
1074.119973
 30
0.0
 10
1270.234968
 20
1059.155974
 30
0.0
 10
1264.786968
 20
1044.814974
 30
0.0
 10
1263.660968
 20
1042.020974
 30
0.0
  0
SPLINE
  5
212
100
AcDbEntity
  8
A0102_Printing_02
 62
1
100
AcDbSpline
 70
8
 71
3
 72
8
 73
4
 74
0
 40
0
 40
0
 40
0
 40
0
 40
1
 40
1
 40
1
 40
1
 10
1263.660968
 20
1042.020974
 30
0.0
 10
1260.778968
 20
1042.884974
 30
0.0
 10
1246.169969
 20
1047.562974
 30
0.0
 10
1238.738969
 20
1062.251973
 30
0.0
  0
SPLINE
  5
213
100
AcDbEntity
  8
A0102_Printing_02
 62
1
100
AcDbSpline
 70
8
 71
3
 72
8
 73
4
 74
0
 40
0
 40
0
 40
0
 40
0
 40
1
 40
1
 40
1
 40
1
 10
1238.738969
 20
1062.251973
 30
0.0
 10
1232.666969
 20
1074.246973
 30
0.0
 10
1234.462969
 20
1086.610973
 30
0.0
 10
1240.735969
 20
1089.632973
 30
0.0
  0
LWPOLYLINE
  5
214
100
AcDbEntity
  8
A0102_Printing_02
 62
1
100
AcDbPolyline
 90
1
 70
1
 10
1204.467970
 20
1044.171974
 30
0.0
  0
SPLINE
  5
215
100
AcDbEntity
  8
A0102_Printing_02
 62
1
100
AcDbSpline
 70
8
 71
3
 72
8
 73
4
 74
0
 40
0
 40
0
 40
0
 40
0
 40
1
 40
1
 40
1
 40
1
 10
1280.855968
 20
1029.247974
 30
0.0
 10
1280.855968
 20
1023.142974
 30
0.0
 10
1275.903968
 20
1018.190975
 30
0.0
 10
1269.798968
 20
1018.190975
 30
0.0
  0
SPLINE
  5
216
100
AcDbEntity
  8
A0102_Printing_02
 62
1
100
AcDbSpline
 70
8
 71
3
 72
8
 73
4
 74
0
 40
0
 40
0
 40
0
 40
0
 40
1
 40
1
 40
1
 40
1
 10
1269.798968
 20
1018.190975
 30
0.0
 10
1263.687968
 20
1018.190975
 30
0.0
 10
1258.741969
 20
1023.142974
 30
0.0
 10
1258.741969
 20
1029.247974
 30
0.0
  0
SPLINE
  5
217
100
AcDbEntity
  8
A0102_Printing_02
 62
1
100
AcDbSpline
 70
8
 71
3
 72
8
 73
4
 74
0
 40
0
 40
0
 40
0
 40
0
 40
1
 40
1
 40
1
 40
1
 10
1258.741969
 20
1029.247974
 30
0.0
 10
1258.741969
 20
1035.352974
 30
0.0
 10
1263.687968
 20
1040.304974
 30
0.0
 10
1269.798968
 20
1040.304974
 30
0.0
  0
SPLINE
  5
218
100
AcDbEntity
  8
A0102_Printing_02
 62
1
100
AcDbSpline
 70
8
 71
3
 72
8
 73
4
 74
0
 40
0
 40
0
 40
0
 40
0
 40
1
 40
1
 40
1
 40
1
 10
1269.798968
 20
1040.304974
 30
0.0
 10
1275.903968
 20
1040.304974
 30
0.0
 10
1280.855968
 20
1035.352974
 30
0.0
 10
1280.855968
 20
1029.247974
 30
0.0
  0
LWPOLYLINE
  5
219
100
AcDbEntity
  8
A0102_Printing_02
 62
1
100
AcDbPolyline
 90
1
 70
1
 10
1240.735969
 20
1089.632973
 30
0.0
  0
SPLINE
  5
21a
100
AcDbEntity
  8
A0102_Printing_02
 62
1
100
AcDbSpline
 70
8
 71
3
 72
8
 73
4
 74
0
 40
0
 40
0
 40
0
 40
0
 40
1
 40
1
 40
1
 40
1
 10
1276.238968
 20
1074.105973
 30
0.0
 10
1281.827968
 20
1086.329973
 30
0.0
 10
1292.616968
 20
1092.634973
 30
0.0
 10
1298.888968
 20
1089.612973
 30
0.0
  0
SPLINE
  5
21b
100
AcDbEntity
  8
A0102_Printing_02
 62
1
100
AcDbSpline
 70
8
 71
3
 72
8
 73
4
 74
0
 40
0
 40
0
 40
0
 40
0
 40
1
 40
1
 40
1
 40
1
 10
1298.888968
 20
1089.612973
 30
0.0
 10
1305.161967
 20
1086.597973
 30
0.0
 10
1306.950967
 20
1074.233973
 30
0.0
 10
1300.885967
 20
1062.237973
 30
0.0
  0
SPLINE
  5
21c
100
AcDbEntity
  8
A0102_Printing_02
 62
1
100
AcDbSpline
 70
8
 71
3
 72
8
 73
4
 74
0
 40
0
 40
0
 40
0
 40
0
 40
1
 40
1
 40
1
 40
1
 10
1300.885967
 20
1062.237973
 30
0.0
 10
1293.454968
 20
1047.548974
 30
0.0
 10
1278.838968
 20
1042.871974
 30
0.0
 10
1275.957968
 20
1042.006974
 30
0.0
  0
SPLINE
  5
21d
100
AcDbEntity
  8
A0102_Printing_02
 62
1
100
AcDbSpline
 70
8
 71
3
 72
8
 73
4
 74
0
 40
0
 40
0
 40
0
 40
0
 40
1
 40
1
 40
1
 40
1
 10
1275.957968
 20
1042.006974
 30
0.0
 10
1274.838968
 20
1044.801974
 30
0.0
 10
1269.383968
 20
1059.135974
 30
0.0
 10
1276.238968
 20
1074.105973
 30
0.0
  0
LWPOLYLINE
  5
21e
100
AcDbEntity
  8
A0102_Printing_02
 62
1
100
AcDbPolyline
 90
1
 70
1
 10
1280.855968
 20
1029.247974
 30
0.0
  0
SPLINE
  5
21f
100
AcDbEntity
  8
A0102_Printing_02
 62
1
100
AcDbSpline
 70
8
 71
3
 72
8
 73
4
 74
0
 40
0
 40
0
 40
0
 40
0
 40
1
 40
1
 40
1
 40
1
 10
1335.129967
 20
1044.144974
 30
0.0
 10
1336.684967
 20
1037.356974
 30
0.0
 10
1328.133967
 20
1028.242974
 30
0.0
 10
1314.972967
 20
1025.508974
 30
0.0
  0
SPLINE
  5
220
100
AcDbEntity
  8
A0102_Printing_02
 62
1
100
AcDbSpline
 70
8
 71
3
 72
8
 73
4
 74
0
 40
0
 40
0
 40
0
 40
0
 40
1
 40
1
 40
1
 40
1
 10
1314.972967
 20
1025.508974
 30
0.0
 10
1298.855968
 20
1022.164974
 30
0.0
 10
1286.089968
 20
1030.668974
 30
0.0
 10
1283.616968
 20
1032.383974
 30
0.0
  0
SPLINE
  5
221
100
AcDbEntity
  8
A0102_Printing_02
 62
1
100
AcDbSpline
 70
8
 71
3
 72
8
 73
4
 74
0
 40
0
 40
0
 40
0
 40
0
 40
1
 40
1
 40
1
 40
1
 10
1283.616968
 20
1032.383974
 30
0.0
 10
1285.097968
 20
1035.003974
 30
0.0
 10
1292.911968
 20
1048.205974
 30
0.0
 10
1308.880967
 20
1052.179974
 30
0.0
  0
SPLINE
  5
222
100
AcDbEntity
  8
A0102_Printing_02
 62
1
100
AcDbSpline
 70
8
 71
3
 72
8
 73
4
 74
0
 40
0
 40
0
 40
0
 40
0
 40
1
 40
1
 40
1
 40
1
 10
1308.880967
 20
1052.179974
 30
0.0
 10
1321.927967
 20
1055.429974
 30
0.0
 10
1333.581967
 20
1050.932974
 30
0.0
 10
1335.129967
 20
1044.144974
 30
0.0
  0
LWPOLYLINE
  5
223
100
AcDbEntity
  8
A0102_Printing_02
 62
1
100
AcDbPolyline
 90
1
 70
1
 10
1276.238968
 20
1074.105973
 30
0.0
  0
LWPOLYLINE
  5
224
100
AcDbEntity
  8
A0102_Printing_02
 62
1
100
AcDbPolyline
 90
1
 70
1
 10
1335.129967
 20
1044.144974
 30
0.0
  0
SPLINE
  5
225
100
AcDbEntity
  8
A0102_Printing_02
 62
1
100
AcDbSpline
 70
8
 71
3
 72
8
 73
4
 74
0
 40
0
 40
0
 40
0
 40
0
 40
1
 40
1
 40
1
 40
1
 10
1322.175967
 20
987.451975
 30
0.0
 10
1317.840967
 20
982.010975
 30
0.0
 10
1305.382967
 20
983.008975
 30
0.0
 10
1295.042968
 20
991.599975
 30
0.0
  0
SPLINE
  5
226
100
AcDbEntity
  8
A0102_Printing_02
 62
1
100
AcDbSpline
 70
8
 71
3
 72
8
 73
4
 74
0
 40
0
 40
0
 40
0
 40
0
 40
1
 40
1
 40
1
 40
1
 10
1295.042968
 20
991.599975
 30
0.0
 10
1282.376968
 20
1002.114975
 30
0.0
 10
1281.063968
 20
1017.399975
 30
0.0
 10
1280.869968
 20
1020.395974
 30
0.0
  0
SPLINE
  5
227
100
AcDbEntity
  8
A0102_Printing_02
 62
1
100
AcDbSpline
 70
8
 71
3
 72
8
 73
4
 74
0
 40
0
 40
0
 40
0
 40
0
 40
1
 40
1
 40
1
 40
1
 10
1280.869968
 20
1020.395974
 30
0.0
 10
1283.837968
 20
1020.870974
 30
0.0
 10
1299.029968
 20
1022.995974
 30
0.0
 10
1312.097967
 20
1012.983975
 30
0.0
  0
SPLINE
  5
228
100
AcDbEntity
  8
A0102_Printing_02
 62
1
100
AcDbSpline
 70
8
 71
3
 72
8
 73
4
 74
0
 40
0
 40
0
 40
0
 40
0
 40
1
 40
1
 40
1
 40
1
 10
1312.097967
 20
1012.983975
 30
0.0
 10
1322.772967
 20
1004.814975
 30
0.0
 10
1326.518967
 20
992.893975
 30
0.0
 10
1322.175967
 20
987.451975
 30
0.0
  0
LWPOLYLINE
  5
229
100
AcDbEntity
  8
A0102_Printing_02
 62
1
100
AcDbPolyline
 90
4
 70
1
 10
1433.037964
 20
1077.042973
 30
0.0
 10
1447.210964
 20
1077.042973
 30
0.0
 10
1447.210964
 20
1006.176975
 30
0.0
 10
1433.037964
 20
1006.176975
 30
0.0
  0
SPLINE
  5
22a
100
AcDbEntity
  8
A0102_Printing_02
 62
1
100
AcDbSpline
 70
8
 71
3
 72
8
 73
4
 74
0
 40
0
 40
0
 40
0
 40
0
 40
1
 40
1
 40
1
 40
1
 10
1269.778968
 20
962.234976
 30
0.0
 10
1262.815968
 20
962.234976
 30
0.0
 10
1255.839969
 20
972.594976
 30
0.0
 10
1256.101969
 20
986.037975
 30
0.0
  0
SPLINE
  5
22b
100
AcDbEntity
  8
A0102_Printing_02
 62
1
100
AcDbSpline
 70
8
 71
3
 72
8
 73
4
 74
0
 40
0
 40
0
 40
0
 40
0
 40
1
 40
1
 40
1
 40
1
 10
1256.101969
 20
986.037975
 30
0.0
 10
1256.422969
 20
1002.496975
 30
0.0
 10
1267.560968
 20
1013.050975
 30
0.0
 10
1269.778968
 20
1015.074975
 30
0.0
  0
SPLINE
  5
22c
100
AcDbEntity
  8
A0102_Printing_02
 62
1
100
AcDbSpline
 70
8
 71
3
 72
8
 73
4
 74
0
 40
0
 40
0
 40
0
 40
0
 40
1
 40
1
 40
1
 40
1
 10
1269.778968
 20
1015.074975
 30
0.0
 10
1272.003968
 20
1013.050975
 30
0.0
 10
1283.134968
 20
1002.496975
 30
0.0
 10
1283.455968
 20
986.037975
 30
0.0
  0
SPLINE
  5
22d
100
AcDbEntity
  8
A0102_Printing_02
 62
1
100
AcDbSpline
 70
8
 71
3
 72
8
 73
4
 74
0
 40
0
 40
0
 40
0
 40
0
 40
1
 40
1
 40
1
 40
1
 10
1283.455968
 20
986.037975
 30
0.0
 10
1283.723968
 20
972.594976
 30
0.0
 10
1276.741968
 20
962.234976
 30
0.0
 10
1269.778968
 20
962.234976
 30
0.0
  0
LWPOLYLINE
  5
22e
100
AcDbEntity
  8
A0102_Printing_02
 62
1
100
AcDbPolyline
 90
1
 70
1
 10
1322.175967
 20
987.451975
 30
0.0
  0
SPLINE
  5
22f
100
AcDbEntity
  8
A0102_Printing_02
 62
1
100
AcDbSpline
 70
8
 71
3
 72
8
 73
4
 74
0
 40
0
 40
0
 40
0
 40
0
 40
1
 40
1
 40
1
 40
1
 10
1244.528969
 20
991.626975
 30
0.0
 10
1234.187969
 20
983.035975
 30
0.0
 10
1221.737969
 20
982.036975
 30
0.0
 10
1217.394970
 20
987.478975
 30
0.0
  0
SPLINE
  5
230
100
AcDbEntity
  8
A0102_Printing_02
 62
1
100
AcDbSpline
 70
8
 71
3
 72
8
 73
4
 74
0
 40
0
 40
0
 40
0
 40
0
 40
1
 40
1
 40
1
 40
1
 10
1217.394970
 20
987.478975
 30
0.0
 10
1213.052970
 20
992.919975
 30
0.0
 10
1216.798970
 20
1004.841975
 30
0.0
 10
1227.473969
 20
1013.010975
 30
0.0
  0
SPLINE
  5
231
100
AcDbEntity
  8
A0102_Printing_02
 62
1
100
AcDbSpline
 70
8
 71
3
 72
8
 73
4
 74
0
 40
0
 40
0
 40
0
 40
0
 40
1
 40
1
 40
1
 40
1
 10
1227.473969
 20
1013.010975
 30
0.0
 10
1240.540969
 20
1023.022974
 30
0.0
 10
1255.732969
 20
1020.897974
 30
0.0
 10
1258.707969
 20
1020.421974
 30
0.0
  0
SPLINE
  5
232
100
AcDbEntity
  8
A0102_Printing_02
 62
1
100
AcDbSpline
 70
8
 71
3
 72
8
 73
4
 74
0
 40
0
 40
0
 40
0
 40
0
 40
1
 40
1
 40
1
 40
1
 10
1258.707969
 20
1020.421974
 30
0.0
 10
1258.506969
 20
1017.419975
 30
0.0
 10
1257.193969
 20
1002.134975
 30
0.0
 10
1244.528969
 20
991.626975
 30
0.0
  0
LWPOLYLINE
  5
233
100
AcDbEntity
  8
A0102_Printing_02
 62
1
100
AcDbPolyline
 90
1
 70
1
 10
1269.778968
 20
962.234976
 30
0.0
  0
LWPOLYLINE
  5
234
100
AcDbEntity
  8
A0102_Printing_02
 62
1
100
AcDbPolyline
 90
1
 70
1
 10
1244.528969
 20
991.626975
 30
0.0
  0
SPLINE
  5
235
100
AcDbEntity
  8
A0102_Printing_02
 62
1
100
AcDbSpline
 70
8
 71
3
 72
8
 73
4
 74
0
 40
0
 40
0
 40
0
 40
0
 40
1
 40
1
 40
1
 40
1
 10
1007.840975
 20
939.562977
 30
0.0
 10
1007.840975
 20
970.872976
 30
0.0
 10
1033.223974
 20
996.255975
 30
0.0
 10
1064.533973
 20
996.255975
 30
0.0
  0
LWPOLYLINE
  5
236
100
AcDbEntity
  8
A0102_Printing_02
 62
1
100
AcDbPolyline
 90
1
 70
1
 10
1007.840975
 20
939.562977
 30
0.0
  0
SPLINE
  5
237
100
AcDbEntity
  8
A0102_Printing_02
 62
1
100
AcDbSpline
 70
8
 71
3
 72
8
 73
4
 74
0
 40
0
 40
0
 40
0
 40
0
 40
1
 40
1
 40
1
 40
1
 10
1121.226972
 20
996.255975
 30
0.0
 10
1152.537971
 20
996.255975
 30
0.0
 10
1177.919971
 20
970.872976
 30
0.0
 10
1177.919971
 20
939.562977
 30
0.0
  0
LWPOLYLINE
  5
238
100
AcDbEntity
  8
A0102_Printing_02
 62
1
100
AcDbPolyline
 90
2
 70
0
 10
1064.533973
 20
996.255975
 30
0.0
 10
1121.226972
 20
996.255975
 30
0.0
  0
LWPOLYLINE
  5
239
100
AcDbEntity
  8
A0102_Printing_02
 62
1
100
AcDbPolyline
 90
31
 70
0
 10
1177.919971
 20
939.562977
 30
0.0
 10
1177.919971
 20
939.562977
 30
0.0
 10
1457.132964
 20
939.562977
 30
0.0
 10
1457.132964
 20
1147.908971
 30
0.0
 10
1447.210964
 20
1147.908971
 30
0.0
 10
1447.210964
 20
1133.735972
 30
0.0
 10
1376.344966
 20
1133.735972
 30
0.0
 10
1376.344966
 20
1147.908971
 30
0.0
 10
1319.651967
 20
1147.908971
 30
0.0
 10
1319.651967
 20
1133.735972
 30
0.0
 10
1248.785969
 20
1133.735972
 30
0.0
 10
1248.785969
 20
1147.908971
 30
0.0
 10
1192.092970
 20
1147.908971
 30
0.0
 10
1192.092970
 20
1133.735972
 30
0.0
 10
1121.226972
 20
1133.735972
 30
0.0
 10
1121.226972
 20
1147.908971
 30
0.0
 10
1064.533973
 20
1147.908971
 30
0.0
 10
1064.533973
 20
1133.735972
 30
0.0
 10
993.667975
 20
1133.735972
 30
0.0
 10
993.667975
 20
1147.908971
 30
0.0
 10
936.974977
 20
1147.908971
 30
0.0
 10
936.974977
 20
1133.735972
 30
0.0
 10
866.108978
 20
1133.735972
 30
0.0
 10
866.108978
 20
1147.908971
 30
0.0
 10
809.415980
 20
1147.908971
 30
0.0
 10
809.415980
 20
1133.735972
 30
0.0
 10
738.549982
 20
1133.735972
 30
0.0
 10
738.549982
 20
1147.908971
 30
0.0
 10
728.628982
 20
1147.908971
 30
0.0
 10
728.628982
 20
939.562977
 30
0.0
 10
1007.840975
 20
939.562977
 30
0.0
  0
SPLINE
  5
23a
100
AcDbEntity
  8
A0102_Printing_02
 62
1
100
AcDbSpline
 70
8
 71
3
 72
8
 73
4
 74
0
 40
0
 40
0
 40
0
 40
0
 40
1
 40
1
 40
1
 40
1
 10
1819.548955
 20
1061.122973
 30
0.0
 10
1808.024955
 20
1058.730974
 30
0.0
 10
1798.890955
 20
1064.811973
 30
0.0
 10
1797.127955
 20
1066.038973
 30
0.0
  0
SPLINE
  5
23b
100
AcDbEntity
  8
A0102_Printing_02
 62
1
100
AcDbSpline
 70
8
 71
3
 72
8
 73
4
 74
0
 40
0
 40
0
 40
0
 40
0
 40
1
 40
1
 40
1
 40
1
 10
1797.127955
 20
1066.038973
 30
0.0
 10
1798.186955
 20
1067.907973
 30
0.0
 10
1803.773955
 20
1077.352973
 30
0.0
 10
1815.192955
 20
1080.193973
 30
0.0
  0
SPLINE
  5
23c
100
AcDbEntity
  8
A0102_Printing_02
 62
1
100
AcDbSpline
 70
8
 71
3
 72
8
 73
4
 74
0
 40
0
 40
0
 40
0
 40
0
 40
1
 40
1
 40
1
 40
1
 10
1815.192955
 20
1080.193973
 30
0.0
 10
1824.522954
 20
1082.517973
 30
0.0
 10
1832.855954
 20
1079.297973
 30
0.0
 10
1833.962954
 20
1074.443973
 30
0.0
  0
SPLINE
  5
23d
100
AcDbEntity
  8
A0102_Printing_02
 62
1
100
AcDbSpline
 70
8
 71
3
 72
8
 73
4
 74
0
 40
0
 40
0
 40
0
 40
0
 40
1
 40
1
 40
1
 40
1
 10
1833.962954
 20
1074.443973
 30
0.0
 10
1835.069954
 20
1069.593973
 30
0.0
 10
1828.959954
 20
1063.077973
 30
0.0
 10
1819.548955
 20
1061.122973
 30
0.0
  0
LWPOLYLINE
  5
23e
100
AcDbEntity
  8
A0102_Printing_02
 62
1
100
AcDbPolyline
 90
4
 70
1
 10
1861.069953
 20
1020.349974
 30
0.0
 10
1846.896954
 20
1020.349974
 30
0.0
 10
1846.896954
 20
1077.042973
 30
0.0
 10
1861.069953
 20
1077.042973
 30
0.0
  0
SPLINE
  5
23f
100
AcDbEntity
  8
A0102_Printing_02
 62
1
100
AcDbSpline
 70
8
 71
3
 72
8
 73
4
 74
0
 40
0
 40
0
 40
0
 40
0
 40
1
 40
1
 40
1
 40
1
 10
1809.457955
 20
1087.371973
 30
0.0
 10
1804.142955
 20
1076.868973
 30
0.0
 10
1793.696955
 20
1073.523973
 30
0.0
 10
1791.636955
 20
1072.905973
 30
0.0
  0
SPLINE
  5
240
100
AcDbEntity
  8
A0102_Printing_02
 62
1
100
AcDbSpline
 70
8
 71
3
 72
8
 73
4
 74
0
 40
0
 40
0
 40
0
 40
0
 40
1
 40
1
 40
1
 40
1
 10
1791.636955
 20
1072.905973
 30
0.0
 10
1790.831955
 20
1074.903973
 30
0.0
 10
1786.935955
 20
1085.157973
 30
0.0
 10
1791.832955
 20
1095.858973
 30
0.0
  0
SPLINE
  5
241
100
AcDbEntity
  8
A0102_Printing_02
 62
1
100
AcDbSpline
 70
8
 71
3
 72
8
 73
4
 74
0
 40
0
 40
0
 40
0
 40
0
 40
1
 40
1
 40
1
 40
1
 10
1791.832955
 20
1095.858973
 30
0.0
 10
1795.833955
 20
1104.598972
 30
0.0
 10
1803.543955
 20
1109.107972
 30
0.0
 10
1808.029955
 20
1106.951972
 30
0.0
  0
SPLINE
  5
242
100
AcDbEntity
  8
A0102_Printing_02
 62
1
100
AcDbSpline
 70
8
 71
3
 72
8
 73
4
 74
0
 40
0
 40
0
 40
0
 40
0
 40
1
 40
1
 40
1
 40
1
 10
1808.029955
 20
1106.951972
 30
0.0
 10
1812.514955
 20
1104.790972
 30
0.0
 10
1813.798955
 20
1095.949973
 30
0.0
 10
1809.457955
 20
1087.371973
 30
0.0
  0
LWPOLYLINE
  5
243
100
AcDbEntity
  8
A0102_Printing_02
 62
1
100
AcDbPolyline
 90
1
 70
1
 10
1819.548955
 20
1061.122973
 30
0.0
  0
SPLINE
  5
244
100
AcDbEntity
  8
A0102_Printing_02
 62
1
100
AcDbSpline
 70
8
 71
3
 72
8
 73
4
 74
0
 40
0
 40
0
 40
0
 40
0
 40
1
 40
1
 40
1
 40
1
 10
1787.246955
 20
1071.678973
 30
0.0
 10
1791.616955
 20
1071.678973
 30
0.0
 10
1795.153955
 20
1068.137973
 30
0.0
 10
1795.153955
 20
1063.771973
 30
0.0
  0
SPLINE
  5
245
100
AcDbEntity
  8
A0102_Printing_02
 62
1
100
AcDbSpline
 70
8
 71
3
 72
8
 73
4
 74
0
 40
0
 40
0
 40
0
 40
0
 40
1
 40
1
 40
1
 40
1
 10
1795.153955
 20
1063.771973
 30
0.0
 10
1795.153955
 20
1059.406974
 30
0.0
 10
1791.616955
 20
1055.865974
 30
0.0
 10
1787.246955
 20
1055.865974
 30
0.0
  0
SPLINE
  5
246
100
AcDbEntity
  8
A0102_Printing_02
 62
1
100
AcDbSpline
 70
8
 71
3
 72
8
 73
4
 74
0
 40
0
 40
0
 40
0
 40
0
 40
1
 40
1
 40
1
 40
1
 10
1787.246955
 20
1055.865974
 30
0.0
 10
1782.881955
 20
1055.865974
 30
0.0
 10
1779.340956
 20
1059.406974
 30
0.0
 10
1779.340956
 20
1063.771973
 30
0.0
  0
SPLINE
  5
247
100
AcDbEntity
  8
A0102_Printing_02
 62
1
100
AcDbSpline
 70
8
 71
3
 72
8
 73
4
 74
0
 40
0
 40
0
 40
0
 40
0
 40
1
 40
1
 40
1
 40
1
 10
1779.340956
 20
1063.771973
 30
0.0
 10
1779.340956
 20
1068.137973
 30
0.0
 10
1782.881955
 20
1071.678973
 30
0.0
 10
1787.246955
 20
1071.678973
 30
0.0
  0
LWPOLYLINE
  5
248
100
AcDbEntity
  8
A0102_Printing_02
 62
1
100
AcDbPolyline
 90
1
 70
1
 10
1809.457955
 20
1087.371973
 30
0.0
  0
SPLINE
  5
249
100
AcDbEntity
  8
A0102_Printing_02
 62
1
100
AcDbSpline
 70
8
 71
3
 72
8
 73
4
 74
0
 40
0
 40
0
 40
0
 40
0
 40
1
 40
1
 40
1
 40
1
 10
1782.843955
 20
1072.895973
 30
0.0
 10
1780.782955
 20
1073.513973
 30
0.0
 10
1770.331956
 20
1076.858973
 30
0.0
 10
1765.017956
 20
1087.362973
 30
0.0
  0
SPLINE
  5
24a
100
AcDbEntity
  8
A0102_Printing_02
 62
1
100
AcDbSpline
 70
8
 71
3
 72
8
 73
4
 74
0
 40
0
 40
0
 40
0
 40
0
 40
1
 40
1
 40
1
 40
1
 10
1765.017956
 20
1087.362973
 30
0.0
 10
1760.680956
 20
1095.939973
 30
0.0
 10
1761.960956
 20
1104.780972
 30
0.0
 10
1766.445956
 20
1106.937972
 30
0.0
  0
SPLINE
  5
24b
100
AcDbEntity
  8
A0102_Printing_02
 62
1
100
AcDbSpline
 70
8
 71
3
 72
8
 73
4
 74
0
 40
0
 40
0
 40
0
 40
0
 40
1
 40
1
 40
1
 40
1
 10
1766.445956
 20
1106.937972
 30
0.0
 10
1770.930956
 20
1109.098972
 30
0.0
 10
1778.645956
 20
1104.589972
 30
0.0
 10
1782.641955
 20
1095.848973
 30
0.0
  0
SPLINE
  5
24c
100
AcDbEntity
  8
A0102_Printing_02
 62
1
100
AcDbSpline
 70
8
 71
3
 72
8
 73
4
 74
0
 40
0
 40
0
 40
0
 40
0
 40
1
 40
1
 40
1
 40
1
 10
1782.641955
 20
1095.848973
 30
0.0
 10
1787.543955
 20
1085.143973
 30
0.0
 10
1783.643955
 20
1074.893973
 30
0.0
 10
1782.843955
 20
1072.895973
 30
0.0
  0
LWPOLYLINE
  5
24d
100
AcDbEntity
  8
A0102_Printing_02
 62
1
100
AcDbPolyline
 90
1
 70
1
 10
1787.246955
 20
1071.678973
 30
0.0
  0
SPLINE
  5
24e
100
AcDbEntity
  8
A0102_Printing_02
 62
1
100
AcDbSpline
 70
8
 71
3
 72
8
 73
4
 74
0
 40
0
 40
0
 40
0
 40
0
 40
1
 40
1
 40
1
 40
1
 10
1759.300956
 20
1080.169973
 30
0.0
 10
1770.719956
 20
1077.328973
 30
0.0
 10
1776.306956
 20
1067.888973
 30
0.0
 10
1777.365956
 20
1066.014973
 30
0.0
  0
SPLINE
  5
24f
100
AcDbEntity
  8
A0102_Printing_02
 62
1
100
AcDbSpline
 70
8
 71
3
 72
8
 73
4
 74
0
 40
0
 40
0
 40
0
 40
0
 40
1
 40
1
 40
1
 40
1
 10
1777.365956
 20
1066.014973
 30
0.0
 10
1775.597956
 20
1064.787973
 30
0.0
 10
1766.469956
 20
1058.707974
 30
0.0
 10
1754.944956
 20
1061.098973
 30
0.0
  0
SPLINE
  5
250
100
AcDbEntity
  8
A0102_Printing_02
 62
1
100
AcDbSpline
 70
8
 71
3
 72
8
 73
4
 74
0
 40
0
 40
0
 40
0
 40
0
 40
1
 40
1
 40
1
 40
1
 10
1754.944956
 20
1061.098973
 30
0.0
 10
1745.533956
 20
1063.053973
 30
0.0
 10
1739.419957
 20
1069.570973
 30
0.0
 10
1740.530956
 20
1074.424973
 30
0.0
  0
SPLINE
  5
251
100
AcDbEntity
  8
A0102_Printing_02
 62
1
100
AcDbSpline
 70
8
 71
3
 72
8
 73
4
 74
0
 40
0
 40
0
 40
0
 40
0
 40
1
 40
1
 40
1
 40
1
 10
1740.530956
 20
1074.424973
 30
0.0
 10
1741.637956
 20
1079.278973
 30
0.0
 10
1749.970956
 20
1082.493973
 30
0.0
 10
1759.300956
 20
1080.169973
 30
0.0
  0
LWPOLYLINE
  5
252
100
AcDbEntity
  8
A0102_Printing_02
 62
1
100
AcDbPolyline
 90
1
 70
1
 10
1782.843955
 20
1072.895973
 30
0.0
  0
SPLINE
  5
253
100
AcDbEntity
  8
A0102_Printing_02
 62
1
100
AcDbSpline
 70
8
 71
3
 72
8
 73
4
 74
0
 40
0
 40
0
 40
0
 40
0
 40
1
 40
1
 40
1
 40
1
 10
1757.000956
 20
1052.142974
 30
0.0
 10
1766.344956
 20
1059.301974
 30
0.0
 10
1777.207956
 20
1057.782974
 30
0.0
 10
1779.330956
 20
1057.441974
 30
0.0
  0
SPLINE
  5
254
100
AcDbEntity
  8
A0102_Printing_02
 62
1
100
AcDbSpline
 70
8
 71
3
 72
8
 73
4
 74
0
 40
0
 40
0
 40
0
 40
0
 40
1
 40
1
 40
1
 40
1
 10
1779.330956
 20
1057.441974
 30
0.0
 10
1779.191956
 20
1055.300974
 30
0.0
 10
1778.252956
 20
1044.369974
 30
0.0
 10
1769.195956
 20
1036.851974
 30
0.0
  0
SPLINE
  5
255
100
AcDbEntity
  8
A0102_Printing_02
 62
1
100
AcDbSpline
 70
8
 71
3
 72
8
 73
4
 74
0
 40
0
 40
0
 40
0
 40
0
 40
1
 40
1
 40
1
 40
1
 10
1769.195956
 20
1036.851974
 30
0.0
 10
1761.801956
 20
1030.708974
 30
0.0
 10
1752.893956
 20
1029.994974
 30
0.0
 10
1749.793956
 20
1033.885974
 30
0.0
  0
SPLINE
  5
256
100
AcDbEntity
  8
A0102_Printing_02
 62
1
100
AcDbSpline
 70
8
 71
3
 72
8
 73
4
 74
0
 40
0
 40
0
 40
0
 40
0
 40
1
 40
1
 40
1
 40
1
 10
1749.793956
 20
1033.885974
 30
0.0
 10
1746.688956
 20
1037.776974
 30
0.0
 10
1749.367956
 20
1046.301974
 30
0.0
 10
1757.000956
 20
1052.142974
 30
0.0
  0
LWPOLYLINE
  5
257
100
AcDbEntity
  8
A0102_Printing_02
 62
1
100
AcDbPolyline
 90
1
 70
1
 10
1759.300956
 20
1080.169973
 30
0.0
  0
SPLINE
  5
258
100
AcDbEntity
  8
A0102_Printing_02
 62
1
100
AcDbSpline
 70
8
 71
3
 72
8
 73
4
 74
0
 40
0
 40
0
 40
0
 40
0
 40
1
 40
1
 40
1
 40
1
 10
1777.480956
 20
1032.874974
 30
0.0
 10
1777.710956
 20
1044.642974
 30
0.0
 10
1785.670955
 20
1052.190974
 30
0.0
 10
1787.261955
 20
1053.637974
 30
0.0
  0
SPLINE
  5
259
100
AcDbEntity
  8
A0102_Printing_02
 62
1
100
AcDbSpline
 70
8
 71
3
 72
8
 73
4
 74
0
 40
0
 40
0
 40
0
 40
0
 40
1
 40
1
 40
1
 40
1
 10
1787.261955
 20
1053.637974
 30
0.0
 10
1788.847955
 20
1052.190974
 30
0.0
 10
1796.811955
 20
1044.642974
 30
0.0
 10
1797.041955
 20
1032.874974
 30
0.0
  0
SPLINE
  5
25a
100
AcDbEntity
  8
A0102_Printing_02
 62
1
100
AcDbSpline
 70
8
 71
3
 72
8
 73
4
 74
0
 40
0
 40
0
 40
0
 40
0
 40
1
 40
1
 40
1
 40
1
 10
1797.041955
 20
1032.874974
 30
0.0
 10
1797.228955
 20
1023.261974
 30
0.0
 10
1792.239955
 20
1015.853975
 30
0.0
 10
1787.261955
 20
1015.853975
 30
0.0
  0
SPLINE
  5
25b
100
AcDbEntity
  8
A0102_Printing_02
 62
1
100
AcDbSpline
 70
8
 71
3
 72
8
 73
4
 74
0
 40
0
 40
0
 40
0
 40
0
 40
1
 40
1
 40
1
 40
1
 10
1787.261955
 20
1015.853975
 30
0.0
 10
1782.282955
 20
1015.853975
 30
0.0
 10
1777.289956
 20
1023.261974
 30
0.0
 10
1777.480956
 20
1032.874974
 30
0.0
  0
LWPOLYLINE
  5
25c
100
AcDbEntity
  8
A0102_Printing_02
 62
1
100
AcDbPolyline
 90
1
 70
1
 10
1757.000956
 20
1052.142974
 30
0.0
  0
SPLINE
  5
25d
100
AcDbEntity
  8
A0102_Printing_02
 62
1
100
AcDbSpline
 70
8
 71
3
 72
8
 73
4
 74
0
 40
0
 40
0
 40
0
 40
0
 40
1
 40
1
 40
1
 40
1
 10
1795.177955
 20
1057.461974
 30
0.0
 10
1797.304955
 20
1057.801974
 30
0.0
 10
1808.167955
 20
1059.320974
 30
0.0
 10
1817.512955
 20
1052.161974
 30
0.0
  0
SPLINE
  5
25e
100
AcDbEntity
  8
A0102_Printing_02
 62
1
100
AcDbSpline
 70
8
 71
3
 72
8
 73
4
 74
0
 40
0
 40
0
 40
0
 40
0
 40
1
 40
1
 40
1
 40
1
 10
1817.512955
 20
1052.161974
 30
0.0
 10
1825.145954
 20
1046.320974
 30
0.0
 10
1827.824954
 20
1037.795974
 30
0.0
 10
1824.719954
 20
1033.904974
 30
0.0
  0
SPLINE
  5
25f
100
AcDbEntity
  8
A0102_Printing_02
 62
1
100
AcDbSpline
 70
8
 71
3
 72
8
 73
4
 74
0
 40
0
 40
0
 40
0
 40
0
 40
1
 40
1
 40
1
 40
1
 10
1824.719954
 20
1033.904974
 30
0.0
 10
1821.614954
 20
1030.013974
 30
0.0
 10
1812.710955
 20
1030.727974
 30
0.0
 10
1805.316955
 20
1036.870974
 30
0.0
  0
SPLINE
  5
260
100
AcDbEntity
  8
A0102_Printing_02
 62
1
100
AcDbSpline
 70
8
 71
3
 72
8
 73
4
 74
0
 40
0
 40
0
 40
0
 40
0
 40
1
 40
1
 40
1
 40
1
 10
1805.316955
 20
1036.870974
 30
0.0
 10
1796.260955
 20
1044.384974
 30
0.0
 10
1795.321955
 20
1055.314974
 30
0.0
 10
1795.177955
 20
1057.461974
 30
0.0
  0
LWPOLYLINE
  5
261
100
AcDbEntity
  8
A0102_Printing_02
 62
1
100
AcDbPolyline
 90
1
 70
1
 10
1777.480956
 20
1032.874974
 30
0.0
  0
SPLINE
  5
262
100
AcDbEntity
  8
A0102_Printing_02
 62
1
100
AcDbSpline
 70
8
 71
3
 72
8
 73
4
 74
0
 40
0
 40
0
 40
0
 40
0
 40
1
 40
1
 40
1
 40
1
 10
1726.752957
 20
1039.690974
 30
0.0
 10
1721.841957
 20
1028.617974
 30
0.0
 10
1704.603957
 20
1027.557974
 30
0.0
 10
1690.254958
 20
1034.489974
 30
0.0
  0
SPLINE
  5
263
100
AcDbEntity
  8
A0102_Printing_02
 62
1
100
AcDbSpline
 70
8
 71
3
 72
8
 73
4
 74
0
 40
0
 40
0
 40
0
 40
0
 40
1
 40
1
 40
1
 40
1
 10
1690.254958
 20
1034.489974
 30
0.0
 10
1684.958958
 20
1013.593975
 30
0.0
 10
1666.661958
 20
1050.187974
 30
0.0
 10
1667.142958
 20
1073.202973
 30
0.0
  0
SPLINE
  5
264
100
AcDbEntity
  8
A0102_Printing_02
 62
1
100
AcDbSpline
 70
8
 71
3
 72
8
 73
4
 74
0
 40
0
 40
0
 40
0
 40
0
 40
1
 40
1
 40
1
 40
1
 10
1667.142958
 20
1073.202973
 30
0.0
 10
1669.165958
 20
1067.328973
 30
0.0
 10
1671.572958
 20
1060.876973
 30
0.0
 10
1674.654958
 20
1056.447974
 30
0.0
  0
SPLINE
  5
265
100
AcDbEntity
  8
A0102_Printing_02
 62
1
100
AcDbSpline
 70
8
 71
3
 72
8
 73
4
 74
0
 40
0
 40
0
 40
0
 40
0
 40
1
 40
1
 40
1
 40
1
 10
1674.654958
 20
1056.447974
 30
0.0
 10
1689.388958
 20
1035.356974
 30
0.0
 10
1713.463957
 20
1029.867974
 30
0.0
 10
1726.752957
 20
1039.690974
 30
0.0
  0
LWPOLYLINE
  5
266
100
AcDbEntity
  8
A0102_Printing_02
 62
1
100
AcDbPolyline
 90
1
 70
1
 10
1795.177955
 20
1057.461974
 30
0.0
  0
SPLINE
  5
267
100
AcDbEntity
  8
A0102_Printing_02
 62
1
100
AcDbSpline
 70
8
 71
3
 72
8
 73
4
 74
0
 40
0
 40
0
 40
0
 40
0
 40
1
 40
1
 40
1
 40
1
 10
1666.179958
 20
1045.372974
 30
0.0
 10
1668.009958
 20
1043.446974
 30
0.0
 10
1681.010958
 20
1031.215974
 30
0.0
 10
1673.017958
 20
1031.408974
 30
0.0
  0
SPLINE
  5
268
100
AcDbEntity
  8
A0102_Printing_02
 62
1
100
AcDbSpline
 70
8
 71
3
 72
8
 73
4
 74
0
 40
0
 40
0
 40
0
 40
0
 40
1
 40
1
 40
1
 40
1
 10
1673.017958
 20
1031.408974
 30
0.0
 10
1673.017958
 20
1031.408974
 30
0.0
 10
1672.246958
 20
1031.312974
 30
0.0
 10
1673.209958
 20
1029.675974
 30
0.0
  0
SPLINE
  5
269
100
AcDbEntity
  8
A0102_Printing_02
 62
1
100
AcDbSpline
 70
8
 71
3
 72
8
 73
4
 74
0
 40
0
 40
0
 40
0
 40
0
 40
1
 40
1
 40
1
 40
1
 10
1673.209958
 20
1029.675974
 30
0.0
 10
1675.232958
 20
1026.305974
 30
0.0
 10
1672.921958
 20
1027.364974
 30
0.0
 10
1672.343958
 20
1026.400974
 30
0.0
  0
SPLINE
  5
26a
100
AcDbEntity
  8
A0102_Printing_02
 62
1
100
AcDbSpline
 70
8
 71
3
 72
8
 73
4
 74
0
 40
0
 40
0
 40
0
 40
0
 40
1
 40
1
 40
1
 40
1
 10
1672.343958
 20
1026.400974
 30
0.0
 10
1672.824958
 20
1020.335974
 30
0.0
 10
1664.542958
 20
1020.718974
 30
0.0
 10
1664.157958
 20
1014.267975
 30
0.0
  0
SPLINE
  5
26b
100
AcDbEntity
  8
A0102_Printing_02
 62
1
100
AcDbSpline
 70
8
 71
3
 72
8
 73
4
 74
0
 40
0
 40
0
 40
0
 40
0
 40
1
 40
1
 40
1
 40
1
 10
1664.157958
 20
1014.267975
 30
0.0
 10
1663.772958
 20
1020.430974
 30
0.0
 10
1655.298959
 20
1020.430974
 30
0.0
 10
1655.875959
 20
1026.498974
 30
0.0
  0
SPLINE
  5
26c
100
AcDbEntity
  8
A0102_Printing_02
 62
1
100
AcDbSpline
 70
8
 71
3
 72
8
 73
4
 74
0
 40
0
 40
0
 40
0
 40
0
 40
1
 40
1
 40
1
 40
1
 10
1655.875959
 20
1026.498974
 30
0.0
 10
1655.201959
 20
1027.460974
 30
0.0
 10
1652.986959
 20
1026.305974
 30
0.0
 10
1654.912959
 20
1029.675974
 30
0.0
  0
SPLINE
  5
26d
100
AcDbEntity
  8
A0102_Printing_02
 62
1
100
AcDbSpline
 70
8
 71
3
 72
8
 73
4
 74
0
 40
0
 40
0
 40
0
 40
0
 40
1
 40
1
 40
1
 40
1
 10
1654.912959
 20
1029.675974
 30
0.0
 10
1655.875959
 20
1031.408974
 30
0.0
 10
1655.201959
 20
1031.505974
 30
0.0
 10
1655.201959
 20
1031.505974
 30
0.0
  0
SPLINE
  5
26e
100
AcDbEntity
  8
A0102_Printing_02
 62
1
100
AcDbSpline
 70
8
 71
3
 72
8
 73
4
 74
0
 40
0
 40
0
 40
0
 40
0
 40
1
 40
1
 40
1
 40
1
 10
1655.201959
 20
1031.505974
 30
0.0
 10
1647.208959
 20
1031.312974
 30
0.0
 10
1660.113958
 20
1043.446974
 30
0.0
 10
1661.942958
 20
1045.372974
 30
0.0
  0
SPLINE
  5
26f
100
AcDbEntity
  8
A0102_Printing_02
 62
1
100
AcDbSpline
 70
8
 71
3
 72
8
 73
4
 74
0
 40
0
 40
0
 40
0
 40
0
 40
1
 40
1
 40
1
 40
1
 10
1661.942958
 20
1045.372974
 30
0.0
 10
1660.690958
 20
1042.195974
 30
0.0
 10
1662.424958
 20
1038.631974
 30
0.0
 10
1664.061958
 20
1035.356974
 30
0.0
  0
SPLINE
  5
270
100
AcDbEntity
  8
A0102_Printing_02
 62
1
100
AcDbSpline
 70
8
 71
3
 72
8
 73
4
 74
0
 40
0
 40
0
 40
0
 40
0
 40
1
 40
1
 40
1
 40
1
 10
1664.061958
 20
1035.356974
 30
0.0
 10
1665.794958
 20
1038.631974
 30
0.0
 10
1667.431958
 20
1042.098974
 30
0.0
 10
1666.179958
 20
1045.372974
 30
0.0
  0
LWPOLYLINE
  5
271
100
AcDbEntity
  8
A0102_Printing_02
 62
1
100
AcDbPolyline
 90
1
 70
1
 10
1726.752957
 20
1039.690974
 30
0.0
  0
SPLINE
  5
272
100
AcDbEntity
  8
A0102_Printing_02
 62
1
100
AcDbSpline
 70
8
 71
3
 72
8
 73
4
 74
0
 40
0
 40
0
 40
0
 40
0
 40
1
 40
1
 40
1
 40
1
 10
1637.771959
 20
1034.587974
 30
0.0
 10
1623.422959
 20
1027.653974
 30
0.0
 10
1606.281960
 20
1028.712974
 30
0.0
 10
1601.370960
 20
1039.787974
 30
0.0
  0
SPLINE
  5
273
100
AcDbEntity
  8
A0102_Printing_02
 62
1
100
AcDbSpline
 70
8
 71
3
 72
8
 73
4
 74
0
 40
0
 40
0
 40
0
 40
0
 40
1
 40
1
 40
1
 40
1
 10
1601.370960
 20
1039.787974
 30
0.0
 10
1614.563960
 20
1029.965974
 30
0.0
 10
1638.638959
 20
1035.454974
 30
0.0
 10
1653.372959
 20
1056.447974
 30
0.0
  0
SPLINE
  5
274
100
AcDbEntity
  8
A0102_Printing_02
 62
1
100
AcDbSpline
 70
8
 71
3
 72
8
 73
4
 74
0
 40
0
 40
0
 40
0
 40
0
 40
1
 40
1
 40
1
 40
1
 10
1653.372959
 20
1056.447974
 30
0.0
 10
1656.550959
 20
1060.972973
 30
0.0
 10
1658.861959
 20
1067.328973
 30
0.0
 10
1660.979958
 20
1073.202973
 30
0.0
  0
SPLINE
  5
275
100
AcDbEntity
  8
A0102_Printing_02
 62
1
100
AcDbSpline
 70
8
 71
3
 72
8
 73
4
 74
0
 40
0
 40
0
 40
0
 40
0
 40
1
 40
1
 40
1
 40
1
 10
1660.979958
 20
1073.202973
 30
0.0
 10
1661.364958
 20
1050.284974
 30
0.0
 10
1643.067959
 20
1013.689975
 30
0.0
 10
1637.771959
 20
1034.587974
 30
0.0
  0
LWPOLYLINE
  5
276
100
AcDbEntity
  8
A0102_Printing_02
 62
1
100
AcDbPolyline
 90
1
 70
1
 10
1666.179958
 20
1045.372974
 30
0.0
  0
SPLINE
  5
277
100
AcDbEntity
  8
A0102_Printing_02
 62
1
100
AcDbSpline
 70
8
 71
3
 72
8
 73
4
 74
0
 40
0
 40
0
 40
0
 40
0
 40
1
 40
1
 40
1
 40
1
 10
1577.917961
 20
1061.122973
 30
0.0
 10
1566.393961
 20
1058.730974
 30
0.0
 10
1557.259961
 20
1064.811973
 30
0.0
 10
1555.496961
 20
1066.038973
 30
0.0
  0
SPLINE
  5
278
100
AcDbEntity
  8
A0102_Printing_02
 62
1
100
AcDbSpline
 70
8
 71
3
 72
8
 73
4
 74
0
 40
0
 40
0
 40
0
 40
0
 40
1
 40
1
 40
1
 40
1
 10
1555.496961
 20
1066.038973
 30
0.0
 10
1556.555961
 20
1067.907973
 30
0.0
 10
1562.142961
 20
1077.352973
 30
0.0
 10
1573.561961
 20
1080.193973
 30
0.0
  0
SPLINE
  5
279
100
AcDbEntity
  8
A0102_Printing_02
 62
1
100
AcDbSpline
 70
8
 71
3
 72
8
 73
4
 74
0
 40
0
 40
0
 40
0
 40
0
 40
1
 40
1
 40
1
 40
1
 10
1573.561961
 20
1080.193973
 30
0.0
 10
1582.891960
 20
1082.517973
 30
0.0
 10
1591.224960
 20
1079.297973
 30
0.0
 10
1592.331960
 20
1074.443973
 30
0.0
  0
SPLINE
  5
27a
100
AcDbEntity
  8
A0102_Printing_02
 62
1
100
AcDbSpline
 70
8
 71
3
 72
8
 73
4
 74
0
 40
0
 40
0
 40
0
 40
0
 40
1
 40
1
 40
1
 40
1
 10
1592.331960
 20
1074.443973
 30
0.0
 10
1593.438960
 20
1069.593973
 30
0.0
 10
1587.328960
 20
1063.077973
 30
0.0
 10
1577.917961
 20
1061.122973
 30
0.0
  0
LWPOLYLINE
  5
27b
100
AcDbEntity
  8
A0102_Printing_02
 62
1
100
AcDbPolyline
 90
1
 70
1
 10
1637.771959
 20
1034.587974
 30
0.0
  0
SPLINE
  5
27c
100
AcDbEntity
  8
A0102_Printing_02
 62
1
100
AcDbSpline
 70
8
 71
3
 72
8
 73
4
 74
0
 40
0
 40
0
 40
0
 40
0
 40
1
 40
1
 40
1
 40
1
 10
1567.825961
 20
1087.371973
 30
0.0
 10
1562.511961
 20
1076.868973
 30
0.0
 10
1552.065961
 20
1073.523973
 30
0.0
 10
1550.004961
 20
1072.905973
 30
0.0
  0
SPLINE
  5
27d
100
AcDbEntity
  8
A0102_Printing_02
 62
1
100
AcDbSpline
 70
8
 71
3
 72
8
 73
4
 74
0
 40
0
 40
0
 40
0
 40
0
 40
1
 40
1
 40
1
 40
1
 10
1550.004961
 20
1072.905973
 30
0.0
 10
1549.199961
 20
1074.903973
 30
0.0
 10
1545.304961
 20
1085.157973
 30
0.0
 10
1550.201961
 20
1095.858973
 30
0.0
  0
SPLINE
  5
27e
100
AcDbEntity
  8
A0102_Printing_02
 62
1
100
AcDbSpline
 70
8
 71
3
 72
8
 73
4
 74
0
 40
0
 40
0
 40
0
 40
0
 40
1
 40
1
 40
1
 40
1
 10
1550.201961
 20
1095.858973
 30
0.0
 10
1554.202961
 20
1104.598972
 30
0.0
 10
1561.912961
 20
1109.107972
 30
0.0
 10
1566.397961
 20
1106.951972
 30
0.0
  0
SPLINE
  5
27f
100
AcDbEntity
  8
A0102_Printing_02
 62
1
100
AcDbSpline
 70
8
 71
3
 72
8
 73
4
 74
0
 40
0
 40
0
 40
0
 40
0
 40
1
 40
1
 40
1
 40
1
 10
1566.397961
 20
1106.951972
 30
0.0
 10
1570.883961
 20
1104.790972
 30
0.0
 10
1572.167961
 20
1095.949973
 30
0.0
 10
1567.825961
 20
1087.371973
 30
0.0
  0
LWPOLYLINE
  5
280
100
AcDbEntity
  8
A0102_Printing_02
 62
1
100
AcDbPolyline
 90
1
 70
1
 10
1577.917961
 20
1061.122973
 30
0.0
  0
SPLINE
  5
281
100
AcDbEntity
  8
A0102_Printing_02
 62
1
100
AcDbSpline
 70
8
 71
3
 72
8
 73
4
 74
0
 40
0
 40
0
 40
0
 40
0
 40
1
 40
1
 40
1
 40
1
 10
1545.615961
 20
1071.678973
 30
0.0
 10
1549.985961
 20
1071.678973
 30
0.0
 10
1553.522961
 20
1068.137973
 30
0.0
 10
1553.522961
 20
1063.771973
 30
0.0
  0
SPLINE
  5
282
100
AcDbEntity
  8
A0102_Printing_02
 62
1
100
AcDbSpline
 70
8
 71
3
 72
8
 73
4
 74
0
 40
0
 40
0
 40
0
 40
0
 40
1
 40
1
 40
1
 40
1
 10
1553.522961
 20
1063.771973
 30
0.0
 10
1553.522961
 20
1059.406974
 30
0.0
 10
1549.985961
 20
1055.865974
 30
0.0
 10
1545.615961
 20
1055.865974
 30
0.0
  0
SPLINE
  5
283
100
AcDbEntity
  8
A0102_Printing_02
 62
1
100
AcDbSpline
 70
8
 71
3
 72
8
 73
4
 74
0
 40
0
 40
0
 40
0
 40
0
 40
1
 40
1
 40
1
 40
1
 10
1545.615961
 20
1055.865974
 30
0.0
 10
1541.250961
 20
1055.865974
 30
0.0
 10
1537.709962
 20
1059.406974
 30
0.0
 10
1537.709962
 20
1063.771973
 30
0.0
  0
SPLINE
  5
284
100
AcDbEntity
  8
A0102_Printing_02
 62
1
100
AcDbSpline
 70
8
 71
3
 72
8
 73
4
 74
0
 40
0
 40
0
 40
0
 40
0
 40
1
 40
1
 40
1
 40
1
 10
1537.709962
 20
1063.771973
 30
0.0
 10
1537.709962
 20
1068.137973
 30
0.0
 10
1541.250961
 20
1071.678973
 30
0.0
 10
1545.615961
 20
1071.678973
 30
0.0
  0
LWPOLYLINE
  5
285
100
AcDbEntity
  8
A0102_Printing_02
 62
1
100
AcDbPolyline
 90
1
 70
1
 10
1567.825961
 20
1087.371973
 30
0.0
  0
SPLINE
  5
286
100
AcDbEntity
  8
A0102_Printing_02
 62
1
100
AcDbSpline
 70
8
 71
3
 72
8
 73
4
 74
0
 40
0
 40
0
 40
0
 40
0
 40
1
 40
1
 40
1
 40
1
 10
1541.211961
 20
1072.895973
 30
0.0
 10
1539.151962
 20
1073.513973
 30
0.0
 10
1528.700962
 20
1076.858973
 30
0.0
 10
1523.386962
 20
1087.362973
 30
0.0
  0
SPLINE
  5
287
100
AcDbEntity
  8
A0102_Printing_02
 62
1
100
AcDbSpline
 70
8
 71
3
 72
8
 73
4
 74
0
 40
0
 40
0
 40
0
 40
0
 40
1
 40
1
 40
1
 40
1
 10
1523.386962
 20
1087.362973
 30
0.0
 10
1519.049962
 20
1095.939973
 30
0.0
 10
1520.328962
 20
1104.780972
 30
0.0
 10
1524.814962
 20
1106.937972
 30
0.0
  0
SPLINE
  5
288
100
AcDbEntity
  8
A0102_Printing_02
 62
1
100
AcDbSpline
 70
8
 71
3
 72
8
 73
4
 74
0
 40
0
 40
0
 40
0
 40
0
 40
1
 40
1
 40
1
 40
1
 10
1524.814962
 20
1106.937972
 30
0.0
 10
1529.299962
 20
1109.098972
 30
0.0
 10
1537.014962
 20
1104.589972
 30
0.0
 10
1541.010961
 20
1095.848973
 30
0.0
  0
SPLINE
  5
289
100
AcDbEntity
  8
A0102_Printing_02
 62
1
100
AcDbSpline
 70
8
 71
3
 72
8
 73
4
 74
0
 40
0
 40
0
 40
0
 40
0
 40
1
 40
1
 40
1
 40
1
 10
1541.010961
 20
1095.848973
 30
0.0
 10
1545.912961
 20
1085.143973
 30
0.0
 10
1542.012961
 20
1074.893973
 30
0.0
 10
1541.211961
 20
1072.895973
 30
0.0
  0
LWPOLYLINE
  5
28a
100
AcDbEntity
  8
A0102_Printing_02
 62
1
100
AcDbPolyline
 90
1
 70
1
 10
1545.615961
 20
1071.678973
 30
0.0
  0
SPLINE
  5
28b
100
AcDbEntity
  8
A0102_Printing_02
 62
1
100
AcDbSpline
 70
8
 71
3
 72
8
 73
4
 74
0
 40
0
 40
0
 40
0
 40
0
 40
1
 40
1
 40
1
 40
1
 10
1517.669962
 20
1080.169973
 30
0.0
 10
1529.088962
 20
1077.328973
 30
0.0
 10
1534.675962
 20
1067.888973
 30
0.0
 10
1535.734962
 20
1066.014973
 30
0.0
  0
SPLINE
  5
28c
100
AcDbEntity
  8
A0102_Printing_02
 62
1
100
AcDbSpline
 70
8
 71
3
 72
8
 73
4
 74
0
 40
0
 40
0
 40
0
 40
0
 40
1
 40
1
 40
1
 40
1
 10
1535.734962
 20
1066.014973
 30
0.0
 10
1533.966962
 20
1064.787973
 30
0.0
 10
1524.838962
 20
1058.707974
 30
0.0
 10
1513.313962
 20
1061.098973
 30
0.0
  0
SPLINE
  5
28d
100
AcDbEntity
  8
A0102_Printing_02
 62
1
100
AcDbSpline
 70
8
 71
3
 72
8
 73
4
 74
0
 40
0
 40
0
 40
0
 40
0
 40
1
 40
1
 40
1
 40
1
 10
1513.313962
 20
1061.098973
 30
0.0
 10
1503.902962
 20
1063.053973
 30
0.0
 10
1497.788963
 20
1069.570973
 30
0.0
 10
1498.899963
 20
1074.424973
 30
0.0
  0
SPLINE
  5
28e
100
AcDbEntity
  8
A0102_Printing_02
 62
1
100
AcDbSpline
 70
8
 71
3
 72
8
 73
4
 74
0
 40
0
 40
0
 40
0
 40
0
 40
1
 40
1
 40
1
 40
1
 10
1498.899963
 20
1074.424973
 30
0.0
 10
1500.006962
 20
1079.278973
 30
0.0
 10
1508.339962
 20
1082.493973
 30
0.0
 10
1517.669962
 20
1080.169973
 30
0.0
  0
LWPOLYLINE
  5
28f
100
AcDbEntity
  8
A0102_Printing_02
 62
1
100
AcDbPolyline
 90
1
 70
1
 10
1541.211961
 20
1072.895973
 30
0.0
  0
LWPOLYLINE
  5
290
100
AcDbEntity
  8
A0102_Printing_02
 62
1
100
AcDbPolyline
 90
1
 70
1
 10
1517.669962
 20
1080.169973
 30
0.0
  0
SPLINE
  5
291
100
AcDbEntity
  8
A0102_Printing_02
 62
1
100
AcDbSpline
 70
8
 71
3
 72
8
 73
4
 74
0
 40
0
 40
0
 40
0
 40
0
 40
1
 40
1
 40
1
 40
1
 10
1515.369962
 20
1052.142974
 30
0.0
 10
1524.713962
 20
1059.301974
 30
0.0
 10
1535.576962
 20
1057.782974
 30
0.0
 10
1537.699962
 20
1057.441974
 30
0.0
  0
SPLINE
  5
292
100
AcDbEntity
  8
A0102_Printing_02
 62
1
100
AcDbSpline
 70
8
 71
3
 72
8
 73
4
 74
0
 40
0
 40
0
 40
0
 40
0
 40
1
 40
1
 40
1
 40
1
 10
1537.699962
 20
1057.441974
 30
0.0
 10
1537.560962
 20
1055.300974
 30
0.0
 10
1536.621962
 20
1044.369974
 30
0.0
 10
1527.564962
 20
1036.851974
 30
0.0
  0
SPLINE
  5
293
100
AcDbEntity
  8
A0102_Printing_02
 62
1
100
AcDbSpline
 70
8
 71
3
 72
8
 73
4
 74
0
 40
0
 40
0
 40
0
 40
0
 40
1
 40
1
 40
1
 40
1
 10
1527.564962
 20
1036.851974
 30
0.0
 10
1520.170962
 20
1030.708974
 30
0.0
 10
1511.262962
 20
1029.994974
 30
0.0
 10
1508.162962
 20
1033.885974
 30
0.0
  0
SPLINE
  5
294
100
AcDbEntity
  8
A0102_Printing_02
 62
1
100
AcDbSpline
 70
8
 71
3
 72
8
 73
4
 74
0
 40
0
 40
0
 40
0
 40
0
 40
1
 40
1
 40
1
 40
1
 10
1508.162962
 20
1033.885974
 30
0.0
 10
1505.057962
 20
1037.776974
 30
0.0
 10
1507.735962
 20
1046.301974
 30
0.0
 10
1515.369962
 20
1052.142974
 30
0.0
  0
LWPOLYLINE
  5
295
100
AcDbEntity
  8
A0102_Printing_02
 62
1
100
AcDbPolyline
 90
4
 70
1
 10
1481.226963
 20
1020.349974
 30
0.0
 10
1467.053963
 20
1020.349974
 30
0.0
 10
1467.053963
 20
1077.042973
 30
0.0
 10
1481.226963
 20
1077.042973
 30
0.0
  0
SPLINE
  5
296
100
AcDbEntity
  8
A0102_Printing_02
 62
1
100
AcDbSpline
 70
8
 71
3
 72
8
 73
4
 74
0
 40
0
 40
0
 40
0
 40
0
 40
1
 40
1
 40
1
 40
1
 10
1535.849962
 20
1032.874974
 30
0.0
 10
1536.079962
 20
1044.642974
 30
0.0
 10
1544.039961
 20
1052.190974
 30
0.0
 10
1545.629961
 20
1053.637974
 30
0.0
  0
SPLINE
  5
297
100
AcDbEntity
  8
A0102_Printing_02
 62
1
100
AcDbSpline
 70
8
 71
3
 72
8
 73
4
 74
0
 40
0
 40
0
 40
0
 40
0
 40
1
 40
1
 40
1
 40
1
 10
1545.629961
 20
1053.637974
 30
0.0
 10
1547.216961
 20
1052.190974
 30
0.0
 10
1555.180961
 20
1044.642974
 30
0.0
 10
1555.410961
 20
1032.874974
 30
0.0
  0
SPLINE
  5
298
100
AcDbEntity
  8
A0102_Printing_02
 62
1
100
AcDbSpline
 70
8
 71
3
 72
8
 73
4
 74
0
 40
0
 40
0
 40
0
 40
0
 40
1
 40
1
 40
1
 40
1
 10
1555.410961
 20
1032.874974
 30
0.0
 10
1555.597961
 20
1023.261974
 30
0.0
 10
1550.608961
 20
1015.853975
 30
0.0
 10
1545.629961
 20
1015.853975
 30
0.0
  0
SPLINE
  5
299
100
AcDbEntity
  8
A0102_Printing_02
 62
1
100
AcDbSpline
 70
8
 71
3
 72
8
 73
4
 74
0
 40
0
 40
0
 40
0
 40
0
 40
1
 40
1
 40
1
 40
1
 10
1545.629961
 20
1015.853975
 30
0.0
 10
1540.651961
 20
1015.853975
 30
0.0
 10
1535.658962
 20
1023.261974
 30
0.0
 10
1535.849962
 20
1032.874974
 30
0.0
  0
LWPOLYLINE
  5
29a
100
AcDbEntity
  8
A0102_Printing_02
 62
1
100
AcDbPolyline
 90
1
 70
1
 10
1515.369962
 20
1052.142974
 30
0.0
  0
SPLINE
  5
29b
100
AcDbEntity
  8
A0102_Printing_02
 62
1
100
AcDbSpline
 70
8
 71
3
 72
8
 73
4
 74
0
 40
0
 40
0
 40
0
 40
0
 40
1
 40
1
 40
1
 40
1
 10
1553.546961
 20
1057.461974
 30
0.0
 10
1555.673961
 20
1057.801974
 30
0.0
 10
1566.536961
 20
1059.320974
 30
0.0
 10
1575.880961
 20
1052.161974
 30
0.0
  0
SPLINE
  5
29c
100
AcDbEntity
  8
A0102_Printing_02
 62
1
100
AcDbSpline
 70
8
 71
3
 72
8
 73
4
 74
0
 40
0
 40
0
 40
0
 40
0
 40
1
 40
1
 40
1
 40
1
 10
1575.880961
 20
1052.161974
 30
0.0
 10
1583.514960
 20
1046.320974
 30
0.0
 10
1586.193960
 20
1037.795974
 30
0.0
 10
1583.088960
 20
1033.904974
 30
0.0
  0
SPLINE
  5
29d
100
AcDbEntity
  8
A0102_Printing_02
 62
1
100
AcDbSpline
 70
8
 71
3
 72
8
 73
4
 74
0
 40
0
 40
0
 40
0
 40
0
 40
1
 40
1
 40
1
 40
1
 10
1583.088960
 20
1033.904974
 30
0.0
 10
1579.982961
 20
1030.013974
 30
0.0
 10
1571.079961
 20
1030.727974
 30
0.0
 10
1563.685961
 20
1036.870974
 30
0.0
  0
SPLINE
  5
29e
100
AcDbEntity
  8
A0102_Printing_02
 62
1
100
AcDbSpline
 70
8
 71
3
 72
8
 73
4
 74
0
 40
0
 40
0
 40
0
 40
0
 40
1
 40
1
 40
1
 40
1
 10
1563.685961
 20
1036.870974
 30
0.0
 10
1554.629961
 20
1044.384974
 30
0.0
 10
1553.689961
 20
1055.314974
 30
0.0
 10
1553.546961
 20
1057.461974
 30
0.0
  0
LWPOLYLINE
  5
29f
100
AcDbEntity
  8
A0102_Printing_02
 62
1
100
AcDbPolyline
 90
1
 70
1
 10
1535.849962
 20
1032.874974
 30
0.0
  0
LWPOLYLINE
  5
2a0
100
AcDbEntity
  8
A0102_Printing_02
 62
1
100
AcDbPolyline
 90
1
 70
1
 10
1553.546961
 20
1057.461974
 30
0.0
  0
SPLINE
  5
2a1
100
AcDbEntity
  8
A0102_Printing_02
 62
1
100
AcDbSpline
 70
8
 71
3
 72
8
 73
4
 74
0
 40
0
 40
0
 40
0
 40
0
 40
1
 40
1
 40
1
 40
1
 10
1579.021961
 20
939.561977
 30
0.0
 10
1579.021961
 20
970.872976
 30
0.0
 10
1604.404960
 20
996.255975
 30
0.0
 10
1635.715959
 20
996.255975
 30
0.0
  0
LWPOLYLINE
  5
2a2
100
AcDbEntity
  8
A0102_Printing_02
 62
1
100
AcDbPolyline
 90
13
 70
0
 10
1870.990953
 20
939.561977
 30
0.0
 10
1870.990953
 20
1147.908971
 30
0.0
 10
1790.203955
 20
1147.908971
 30
0.0
 10
1790.203955
 20
1133.735972
 30
0.0
 10
1692.407958
 20
1133.735972
 30
0.0
 10
1692.407958
 20
1147.908971
 30
0.0
 10
1635.714959
 20
1147.908971
 30
0.0
 10
1635.714959
 20
1133.735972
 30
0.0
 10
1537.919962
 20
1133.735972
 30
0.0
 10
1537.919962
 20
1147.908971
 30
0.0
 10
1457.132964
 20
1147.908971
 30
0.0
 10
1457.132964
 20
939.561977
 30
0.0
 10
1579.021961
 20
939.561977
 30
0.0
  0
SPLINE
  5
2a3
100
AcDbEntity
  8
A0102_Printing_02
 62
1
100
AcDbSpline
 70
8
 71
3
 72
8
 73
4
 74
0
 40
0
 40
0
 40
0
 40
0
 40
1
 40
1
 40
1
 40
1
 10
1692.407958
 20
996.255975
 30
0.0
 10
1723.718957
 20
996.255975
 30
0.0
 10
1749.100956
 20
970.872976
 30
0.0
 10
1749.100956
 20
939.561977
 30
0.0
  0
LWPOLYLINE
  5
2a4
100
AcDbEntity
  8
A0102_Printing_02
 62
1
100
AcDbPolyline
 90
2
 70
0
 10
1635.715959
 20
996.255975
 30
0.0
 10
1692.407958
 20
996.255975
 30
0.0
  0
LWPOLYLINE
  5
2a5
100
AcDbEntity
  8
A0102_Printing_02
 62
1
100
AcDbPolyline
 90
2
 70
0
 10
1749.100956
 20
939.561977
 30
0.0
 10
1870.990953
 20
939.561977
 30
0.0
  0
SPLINE
  5
2a6
100
AcDbEntity
  8
A0102_Printing_02
 62
1
100
AcDbSpline
 70
8
 71
3
 72
8
 73
4
 74
0
 40
0
 40
0
 40
0
 40
0
 40
1
 40
1
 40
1
 40
1
 10
2012.792950
 20
1077.054973
 30
0.0
 10
2017.307950
 20
1083.544973
 30
0.0
 10
2020.834949
 20
1092.997973
 30
0.0
 10
2023.798949
 20
1101.604972
 30
0.0
  0
SPLINE
  5
2a7
100
AcDbEntity
  8
A0102_Printing_02
 62
1
100
AcDbSpline
 70
8
 71
3
 72
8
 73
4
 74
0
 40
0
 40
0
 40
0
 40
0
 40
1
 40
1
 40
1
 40
1
 10
2023.798949
 20
1101.604972
 30
0.0
 10
2024.503949
 20
1067.882973
 30
0.0
 10
1997.694950
 20
1014.264975
 30
0.0
 10
1989.934950
 20
1044.882974
 30
0.0
  0
SPLINE
  5
2a8
100
AcDbEntity
  8
A0102_Printing_02
 62
1
100
AcDbSpline
 70
8
 71
3
 72
8
 73
4
 74
0
 40
0
 40
0
 40
0
 40
0
 40
1
 40
1
 40
1
 40
1
 10
1989.934950
 20
1044.882974
 30
0.0
 10
1968.910951
 20
1034.724974
 30
0.0
 10
1943.653951
 20
1036.277974
 30
0.0
 10
1936.457952
 20
1052.502974
 30
0.0
  0
SPLINE
  5
2a9
100
AcDbEntity
  8
A0102_Printing_02
 62
1
100
AcDbSpline
 70
8
 71
3
 72
8
 73
4
 74
0
 40
0
 40
0
 40
0
 40
0
 40
1
 40
1
 40
1
 40
1
 10
1936.457952
 20
1052.502974
 30
0.0
 10
1955.928951
 20
1038.109974
 30
0.0
 10
1991.203950
 20
1046.152974
 30
0.0
 10
2012.792950
 20
1077.054973
 30
0.0
  0
LWPOLYLINE
  5
2aa
100
AcDbEntity
  8
A0102_Printing_02
 62
1
100
AcDbPolyline
 90
4
 70
1
 10
1880.911953
 20
1077.042973
 30
0.0
 10
1895.084953
 20
1077.042973
 30
0.0
 10
1895.084953
 20
1020.349974
 30
0.0
 10
1880.911953
 20
1020.349974
 30
0.0
  0
SPLINE
  5
2ab
100
AcDbEntity
  8
A0102_Printing_02
 62
1
100
AcDbSpline
 70
8
 71
3
 72
8
 73
4
 74
0
 40
0
 40
0
 40
0
 40
0
 40
1
 40
1
 40
1
 40
1
 10
2028.313949
 20
1046.152974
 30
0.0
 10
2030.711949
 20
1050.949974
 30
0.0
 10
2033.251949
 20
1056.172974
 30
0.0
 10
2031.417949
 20
1060.827973
 30
0.0
  0
SPLINE
  5
2ac
100
AcDbEntity
  8
A0102_Printing_02
 62
1
100
AcDbSpline
 70
8
 71
3
 72
8
 73
4
 74
0
 40
0
 40
0
 40
0
 40
0
 40
1
 40
1
 40
1
 40
1
 10
2031.417949
 20
1060.827973
 30
0.0
 10
2034.098949
 20
1058.004974
 30
0.0
 10
2053.005949
 20
1040.227974
 30
0.0
 10
2041.294949
 20
1040.509974
 30
0.0
  0
SPLINE
  5
2ad
100
AcDbEntity
  8
A0102_Printing_02
 62
1
100
AcDbSpline
 70
8
 71
3
 72
8
 73
4
 74
0
 40
0
 40
0
 40
0
 40
0
 40
1
 40
1
 40
1
 40
1
 10
2041.294949
 20
1040.509974
 30
0.0
 10
2041.294949
 20
1040.509974
 30
0.0
 10
2040.306949
 20
1040.367974
 30
0.0
 10
2041.717949
 20
1037.827974
 30
0.0
  0
SPLINE
  5
2ae
100
AcDbEntity
  8
A0102_Printing_02
 62
1
100
AcDbSpline
 70
8
 71
3
 72
8
 73
4
 74
0
 40
0
 40
0
 40
0
 40
0
 40
1
 40
1
 40
1
 40
1
 10
2041.717949
 20
1037.827974
 30
0.0
 10
2044.539949
 20
1032.889974
 30
0.0
 10
2041.294949
 20
1034.582974
 30
0.0
 10
2040.306949
 20
1033.172974
 30
0.0
  0
SPLINE
  5
2af
100
AcDbEntity
  8
A0102_Printing_02
 62
1
100
AcDbSpline
 70
8
 71
3
 72
8
 73
4
 74
0
 40
0
 40
0
 40
0
 40
0
 40
1
 40
1
 40
1
 40
1
 10
2040.306949
 20
1033.172974
 30
0.0
 10
2041.153949
 20
1024.282974
 30
0.0
 10
2028.736949
 20
1024.282974
 30
0.0
 10
2028.172949
 20
1015.252975
 30
0.0
  0
SPLINE
  5
2b0
100
AcDbEntity
  8
A0102_Printing_02
 62
1
100
AcDbSpline
 70
8
 71
3
 72
8
 73
4
 74
0
 40
0
 40
0
 40
0
 40
0
 40
1
 40
1
 40
1
 40
1
 10
2028.172949
 20
1015.252975
 30
0.0
 10
2027.607949
 20
1024.704974
 30
0.0
 10
2015.473950
 20
1024.142974
 30
0.0
 10
2016.178950
 20
1033.029974
 30
0.0
  0
SPLINE
  5
2b1
100
AcDbEntity
  8
A0102_Printing_02
 62
1
100
AcDbSpline
 70
8
 71
3
 72
8
 73
4
 74
0
 40
0
 40
0
 40
0
 40
0
 40
1
 40
1
 40
1
 40
1
 10
2016.178950
 20
1033.029974
 30
0.0
 10
2015.332950
 20
1034.442974
 30
0.0
 10
2011.945950
 20
1032.889974
 30
0.0
 10
2014.908950
 20
1037.827974
 30
0.0
  0
SPLINE
  5
2b2
100
AcDbEntity
  8
A0102_Printing_02
 62
1
100
AcDbSpline
 70
8
 71
3
 72
8
 73
4
 74
0
 40
0
 40
0
 40
0
 40
0
 40
1
 40
1
 40
1
 40
1
 10
2014.908950
 20
1037.827974
 30
0.0
 10
2016.319950
 20
1040.227974
 30
0.0
 10
2015.190950
 20
1040.367974
 30
0.0
 10
2015.190950
 20
1040.367974
 30
0.0
  0
SPLINE
  5
2b3
100
AcDbEntity
  8
A0102_Printing_02
 62
1
100
AcDbSpline
 70
8
 71
3
 72
8
 73
4
 74
0
 40
0
 40
0
 40
0
 40
0
 40
1
 40
1
 40
1
 40
1
 10
2015.190950
 20
1040.367974
 30
0.0
 10
2003.479950
 20
1040.084974
 30
0.0
 10
2022.528949
 20
1058.004974
 30
0.0
 10
2025.209949
 20
1060.827973
 30
0.0
  0
SPLINE
  5
2b4
100
AcDbEntity
  8
A0102_Printing_02
 62
1
100
AcDbSpline
 70
8
 71
3
 72
8
 73
4
 74
0
 40
0
 40
0
 40
0
 40
0
 40
1
 40
1
 40
1
 40
1
 10
2025.209949
 20
1060.827973
 30
0.0
 10
2023.374949
 20
1056.029974
 30
0.0
 10
2025.773949
 20
1050.949974
 30
0.0
 10
2028.313949
 20
1046.152974
 30
0.0
  0
LWPOLYLINE
  5
2b5
100
AcDbEntity
  8
A0102_Printing_02
 62
1
100
AcDbPolyline
 90
1
 70
1
 10
2012.792950
 20
1077.054973
 30
0.0
  0
SPLINE
  5
2b6
100
AcDbEntity
  8
A0102_Printing_02
 62
1
100
AcDbSpline
 70
8
 71
3
 72
8
 73
4
 74
0
 40
0
 40
0
 40
0
 40
0
 40
1
 40
1
 40
1
 40
1
 10
2032.828949
 20
1101.604972
 30
0.0
 10
2035.932949
 20
1092.997973
 30
0.0
 10
2039.319949
 20
1083.684973
 30
0.0
 10
2043.975949
 20
1077.054973
 30
0.0
  0
SPLINE
  5
2b7
100
AcDbEntity
  8
A0102_Printing_02
 62
1
100
AcDbSpline
 70
8
 71
3
 72
8
 73
4
 74
0
 40
0
 40
0
 40
0
 40
0
 40
1
 40
1
 40
1
 40
1
 10
2043.975949
 20
1077.054973
 30
0.0
 10
2065.563948
 20
1046.294974
 30
0.0
 10
2100.838947
 20
1038.252974
 30
0.0
 10
2120.169947
 20
1052.644974
 30
0.0
  0
SPLINE
  5
2b8
100
AcDbEntity
  8
A0102_Printing_02
 62
1
100
AcDbSpline
 70
8
 71
3
 72
8
 73
4
 74
0
 40
0
 40
0
 40
0
 40
0
 40
1
 40
1
 40
1
 40
1
 10
2120.169947
 20
1052.644974
 30
0.0
 10
2112.973947
 20
1036.417974
 30
0.0
 10
2087.857948
 20
1034.864974
 30
0.0
 10
2066.833948
 20
1045.024974
 30
0.0
  0
SPLINE
  5
2b9
100
AcDbEntity
  8
A0102_Printing_02
 62
1
100
AcDbSpline
 70
8
 71
3
 72
8
 73
4
 74
0
 40
0
 40
0
 40
0
 40
0
 40
1
 40
1
 40
1
 40
1
 10
2066.833948
 20
1045.024974
 30
0.0
 10
2059.072949
 20
1014.404975
 30
0.0
 10
2032.264949
 20
1068.024973
 30
0.0
 10
2032.828949
 20
1101.604972
 30
0.0
  0
LWPOLYLINE
  5
2ba
100
AcDbEntity
  8
A0102_Printing_02
 62
1
100
AcDbPolyline
 90
1
 70
1
 10
2028.313949
 20
1046.152974
 30
0.0
  0
LWPOLYLINE
  5
2bb
100
AcDbEntity
  8
A0102_Printing_02
 62
1
100
AcDbPolyline
 90
1
 70
1
 10
2032.828949
 20
1101.604972
 30
0.0
  0
LWPOLYLINE
  5
2bc
100
AcDbEntity
  8
A0102_Printing_02
 62
1
100
AcDbPolyline
 90
4
 70
1
 10
2161.541946
 20
1077.042973
 30
0.0
 10
2175.714946
 20
1077.042973
 30
0.0
 10
2175.714946
 20
1020.349974
 30
0.0
 10
2161.541946
 20
1020.349974
 30
0.0
  0
SPLINE
  5
2bd
100
AcDbEntity
  8
A0102_Printing_02
 62
1
100
AcDbSpline
 70
8
 71
3
 72
8
 73
4
 74
0
 40
0
 40
0
 40
0
 40
0
 40
1
 40
1
 40
1
 40
1
 10
1943.273951
 20
939.562977
 30
0.0
 10
1943.273951
 20
970.872976
 30
0.0
 10
1968.656951
 20
996.254975
 30
0.0
 10
1999.966950
 20
996.254975
 30
0.0
  0
LWPOLYLINE
  5
2be
100
AcDbEntity
  8
A0102_Printing_02
 62
1
100
AcDbPolyline
 90
1
 70
1
 10
1943.273951
 20
939.562977
 30
0.0
  0
SPLINE
  5
2bf
100
AcDbEntity
  8
A0102_Printing_02
 62
1
100
AcDbSpline
 70
8
 71
3
 72
8
 73
4
 74
0
 40
0
 40
0
 40
0
 40
0
 40
1
 40
1
 40
1
 40
1
 10
2056.659949
 20
996.254975
 30
0.0
 10
2087.970948
 20
996.254975
 30
0.0
 10
2113.352947
 20
970.872976
 30
0.0
 10
2113.352947
 20
939.562977
 30
0.0
  0
LWPOLYLINE
  5
2c0
100
AcDbEntity
  8
A0102_Printing_02
 62
1
100
AcDbPolyline
 90
2
 70
0
 10
1999.966950
 20
996.254975
 30
0.0
 10
2056.659949
 20
996.254975
 30
0.0
  0
LWPOLYLINE
  5
2c1
100
AcDbEntity
  8
A0102_Printing_02
 62
1
100
AcDbPolyline
 90
22
 70
0
 10
2113.352947
 20
939.562977
 30
0.0
 10
2185.635945
 20
939.562977
 30
0.0
 10
2185.635945
 20
1147.908971
 30
0.0
 10
2175.714946
 20
1147.908971
 30
0.0
 10
2175.714946
 20
1133.735972
 30
0.0
 10
2161.541946
 20
1133.735972
 30
0.0
 10
2161.541946
 20
1147.908971
 30
0.0
 10
2113.352947
 20
1147.908971
 30
0.0
 10
2113.352947
 20
1133.735972
 30
0.0
 10
2056.659949
 20
1133.735972
 30
0.0
 10
2056.659949
 20
1147.908971
 30
0.0
 10
1999.966950
 20
1147.908971
 30
0.0
 10
1999.966950
 20
1133.735972
 30
0.0
 10
1943.273951
 20
1133.735972
 30
0.0
 10
1943.273951
 20
1147.908971
 30
0.0
 10
1895.084953
 20
1147.908971
 30
0.0
 10
1895.084953
 20
1133.735972
 30
0.0
 10
1880.911953
 20
1133.735972
 30
0.0
 10
1880.911953
 20
1147.908971
 30
0.0
 10
1870.990953
 20
1147.908971
 30
0.0
 10
1870.990953
 20
939.562977
 30
0.0
 10
1943.273951
 20
939.562977
 30
0.0
  0
LWPOLYLINE
  5
2c2
100
AcDbEntity
  8
A0102_Printing_02
 62
1
100
AcDbPolyline
 90
52
 70
1
 10
2175.715246
 20
1643.971959
 30
0.0
 10
2175.715246
 20
1700.664957
 30
0.0
 10
2161.542246
 20
1700.664957
 30
0.0
 10
2161.542246
 20
1686.491958
 30
0.0
 10
2113.353247
 20
1686.491958
 30
0.0
 10
2113.353247
 20
1700.664957
 30
0.0
 10
2056.660249
 20
1700.664957
 30
0.0
 10
2056.660249
 20
1686.491958
 30
0.0
 10
1999.967250
 20
1686.491958
 30
0.0
 10
1999.967250
 20
1700.664957
 30
0.0
 10
1943.274251
 20
1700.664957
 30
0.0
 10
1943.274251
 20
1686.491958
 30
0.0
 10
1895.085253
 20
1686.491958
 30
0.0
 10
1895.085253
 20
1700.664957
 30
0.0
 10
1880.912253
 20
1700.664957
 30
0.0
 10
1880.912253
 20
1643.971959
 30
0.0
 10
1895.085253
 20
1643.971959
 30
0.0
 10
1895.085253
 20
1530.585962
 30
0.0
 10
1880.912253
 20
1530.585962
 30
0.0
 10
1880.912253
 20
1473.892963
 30
0.0
 10
1895.085253
 20
1473.892963
 30
0.0
 10
1895.085253
 20
1360.506966
 30
0.0
 10
1880.912253
 20
1360.506966
 30
0.0
 10
1880.912253
 20
1303.814967
 30
0.0
 10
1895.085253
 20
1303.814967
 30
0.0
 10
1895.085253
 20
1190.428970
 30
0.0
 10
1880.912253
 20
1190.428970
 30
0.0
 10
1880.912253
 20
1133.735972
 30
0.0
 10
1895.085253
 20
1133.735972
 30
0.0
 10
1895.085253
 20
1147.908971
 30
0.0
 10
1943.274251
 20
1147.908971
 30
0.0
 10
1943.274251
 20
1133.735972
 30
0.0
 10
1999.967250
 20
1133.735972
 30
0.0
 10
1999.967250
 20
1147.908971
 30
0.0
 10
2056.660249
 20
1147.908971
 30
0.0
 10
2056.660249
 20
1133.735972
 30
0.0
 10
2113.353247
 20
1133.735972
 30
0.0
 10
2113.353247
 20
1147.908971
 30
0.0
 10
2161.542246
 20
1147.908971
 30
0.0
 10
2161.542246
 20
1133.735972
 30
0.0
 10
2175.715246
 20
1133.735972
 30
0.0
 10
2175.715246
 20
1190.428970
 30
0.0
 10
2161.542246
 20
1190.428970
 30
0.0
 10
2161.542246
 20
1303.814967
 30
0.0
 10
2175.715246
 20
1303.814967
 30
0.0
 10
2175.715246
 20
1360.506966
 30
0.0
 10
2161.542246
 20
1360.506966
 30
0.0
 10
2161.542246
 20
1473.892963
 30
0.0
 10
2175.715246
 20
1473.892963
 30
0.0
 10
2175.715246
 20
1530.585962
 30
0.0
 10
2161.542246
 20
1530.585962
 30
0.0
 10
2161.542246
 20
1643.971959
 30
0.0
  0
LWPOLYLINE
  5
2c3
100
AcDbEntity
  8
A0102_Printing_02
 62
1
100
AcDbPolyline
 90
48
 70
1
 10
1846.896454
 20
1686.491758
 30
0.0
 10
1790.203455
 20
1686.491758
 30
0.0
 10
1790.203455
 20
1700.664757
 30
0.0
 10
1692.408458
 20
1700.664757
 30
0.0
 10
1692.408458
 20
1686.491758
 30
0.0
 10
1635.715459
 20
1686.491758
 30
0.0
 10
1635.715459
 20
1700.664757
 30
0.0
 10
1537.920462
 20
1700.664757
 30
0.0
 10
1537.920462
 20
1686.491758
 30
0.0
 10
1481.227463
 20
1686.491758
 30
0.0
 10
1481.227463
 20
1658.145759
 30
0.0
 10
1467.053463
 20
1658.145759
 30
0.0
 10
1467.053463
 20
1566.019761
 30
0.0
 10
1481.227463
 20
1566.019761
 30
0.0
 10
1481.227463
 20
1509.326762
 30
0.0
 10
1467.053463
 20
1509.326762
 30
0.0
 10
1467.053463
 20
1417.200765
 30
0.0
 10
1481.227463
 20
1417.200765
 30
0.0
 10
1481.227463
 20
1360.507766
 30
0.0
 10
1467.053463
 20
1360.507766
 30
0.0
 10
1467.053463
 20
1268.381768
 30
0.0
 10
1481.227463
 20
1268.381768
 30
0.0
 10
1481.227463
 20
1211.688770
 30
0.0
 10
1467.053463
 20
1211.688770
 30
0.0
 10
1467.053463
 20
1147.908771
 30
0.0
 10
1537.920462
 20
1147.908771
 30
0.0
 10
1537.920462
 20
1133.735772
 30
0.0
 10
1635.715459
 20
1133.735772
 30
0.0
 10
1635.715459
 20
1147.908771
 30
0.0
 10
1692.408458
 20
1147.908771
 30
0.0
 10
1692.408458
 20
1133.735772
 30
0.0
 10
1790.203455
 20
1133.735772
 30
0.0
 10
1790.203455
 20
1147.908771
 30
0.0
 10
1861.069453
 20
1147.908771
 30
0.0
 10
1861.069453
 20
1211.688770
 30
0.0
 10
1846.896454
 20
1211.688770
 30
0.0
 10
1846.896454
 20
1268.381768
 30
0.0
 10
1861.069453
 20
1268.381768
 30
0.0
 10
1861.069453
 20
1360.507766
 30
0.0
 10
1846.896454
 20
1360.507766
 30
0.0
 10
1846.896454
 20
1417.200765
 30
0.0
 10
1861.069453
 20
1417.200765
 30
0.0
 10
1861.069453
 20
1509.326762
 30
0.0
 10
1846.896454
 20
1509.326762
 30
0.0
 10
1846.896454
 20
1566.019761
 30
0.0
 10
1861.069453
 20
1566.019761
 30
0.0
 10
1861.069453
 20
1658.145759
 30
0.0
 10
1846.896454
 20
1658.145759
 30
0.0
  0
LWPOLYLINE
  5
2c4
100
AcDbEntity
  8
A0102_Printing_02
 62
1
100
AcDbPolyline
 90
4
 70
1
 10
1213.352970
 20
1576.648961
 30
0.0
 10
1199.179970
 20
1576.648961
 30
0.0
 10
1199.179970
 20
1633.341959
 30
0.0
 10
1213.352970
 20
1633.341959
 30
0.0
  0
LWPOLYLINE
  5
2c5
100
AcDbEntity
  8
A0102_Printing_02
 62
1
100
AcDbPolyline
 90
4
 70
1
 10
1213.352970
 20
1399.483965
 30
0.0
 10
1199.179970
 20
1399.483965
 30
0.0
 10
1199.179970
 20
1456.176964
 30
0.0
 10
1213.352970
 20
1456.176964
 30
0.0
  0
LWPOLYLINE
  5
2c6
100
AcDbEntity
  8
A0102_Printing_02
 62
1
100
AcDbPolyline
 90
4
 70
1
 10
1213.352970
 20
1208.144970
 30
0.0
 10
1199.179970
 20
1208.144970
 30
0.0
 10
1199.179970
 20
1264.837968
 30
0.0
 10
1213.352970
 20
1264.837968
 30
0.0
  0
LWPOLYLINE
  5
2c7
100
AcDbEntity
  8
A0102_Printing_02
 62
1
100
AcDbPolyline
 90
4
 70
1
 10
986.581975
 20
1576.648961
 30
0.0
 10
972.408976
 20
1576.648961
 30
0.0
 10
972.408976
 20
1633.341959
 30
0.0
 10
986.581975
 20
1633.341959
 30
0.0
  0
LWPOLYLINE
  5
2c8
100
AcDbEntity
  8
A0102_Printing_02
 62
1
100
AcDbPolyline
 90
4
 70
1
 10
986.581975
 20
1399.483965
 30
0.0
 10
972.408976
 20
1399.483965
 30
0.0
 10
972.408976
 20
1456.176964
 30
0.0
 10
986.581975
 20
1456.176964
 30
0.0
  0
LWPOLYLINE
  5
2c9
100
AcDbEntity
  8
A0102_Printing_02
 62
1
100
AcDbPolyline
 90
4
 70
1
 10
986.581975
 20
1208.144970
 30
0.0
 10
972.408976
 20
1208.144970
 30
0.0
 10
972.408976
 20
1264.837968
 30
0.0
 10
986.581975
 20
1264.837968
 30
0.0
  0
LWPOLYLINE
  5
2ca
100
AcDbEntity
  8
A0102_Printing_02
 62
1
100
AcDbPolyline
 90
76
 70
1
 10
1447.211964
 20
1686.491958
 30
0.0
 10
1447.211964
 20
1700.664957
 30
0.0
 10
1376.344966
 20
1700.664957
 30
0.0
 10
1376.344966
 20
1686.491958
 30
0.0
 10
1319.651967
 20
1686.491958
 30
0.0
 10
1319.651967
 20
1700.664957
 30
0.0
 10
1248.785969
 20
1700.664957
 30
0.0
 10
1248.785969
 20
1686.491958
 30
0.0
 10
1192.092970
 20
1686.491958
 30
0.0
 10
1192.092970
 20
1700.664957
 30
0.0
 10
1121.226972
 20
1700.664957
 30
0.0
 10
1121.226972
 20
1686.491958
 30
0.0
 10
1064.533973
 20
1686.491958
 30
0.0
 10
1064.533973
 20
1700.664957
 30
0.0
 10
993.667975
 20
1700.664957
 30
0.0
 10
993.667975
 20
1686.491958
 30
0.0
 10
936.974977
 20
1686.491958
 30
0.0
 10
936.974977
 20
1700.664957
 30
0.0
 10
866.108978
 20
1700.664957
 30
0.0
 10
866.108978
 20
1686.491958
 30
0.0
 10
809.415980
 20
1686.491958
 30
0.0
 10
809.415980
 20
1700.664957
 30
0.0
 10
738.549982
 20
1700.664957
 30
0.0
 10
738.549982
 20
1686.491958
 30
0.0
 10
752.722981
 20
1686.491958
 30
0.0
 10
752.722981
 20
1594.365960
 30
0.0
 10
738.549982
 20
1594.365960
 30
0.0
 10
738.549982
 20
1537.672962
 30
0.0
 10
752.722981
 20
1537.672962
 30
0.0
 10
752.722981
 20
1445.546964
 30
0.0
 10
738.549982
 20
1445.546964
 30
0.0
 10
738.549982
 20
1388.853965
 30
0.0
 10
752.722981
 20
1388.853965
 30
0.0
 10
752.722981
 20
1296.727968
 30
0.0
 10
738.549982
 20
1296.727968
 30
0.0
 10
738.549982
 20
1240.034969
 30
0.0
 10
752.722981
 20
1240.034969
 30
0.0
 10
752.722981
 20
1147.908971
 30
0.0
 10
738.549982
 20
1147.908971
 30
0.0
 10
738.549982
 20
1133.735972
 30
0.0
 10
809.415980
 20
1133.735972
 30
0.0
 10
809.415980
 20
1147.908971
 30
0.0
 10
866.108978
 20
1147.908971
 30
0.0
 10
866.108978
 20
1133.735972
 30
0.0
 10
936.974977
 20
1133.735972
 30
0.0
 10
936.974977
 20
1147.908971
 30
0.0
 10
993.667975
 20
1147.908971
 30
0.0
 10
993.667975
 20
1133.735972
 30
0.0
 10
1064.533973
 20
1133.735972
 30
0.0
 10
1064.533973
 20
1147.908971
 30
0.0
 10
1121.226972
 20
1147.908971
 30
0.0
 10
1121.226972
 20
1133.735972
 30
0.0
 10
1192.092970
 20
1133.735972
 30
0.0
 10
1192.092970
 20
1147.908971
 30
0.0
 10
1248.785969
 20
1147.908971
 30
0.0
 10
1248.785969
 20
1133.735972
 30
0.0
 10
1319.651967
 20
1133.735972
 30
0.0
 10
1319.651967
 20
1147.908971
 30
0.0
 10
1376.344966
 20
1147.908971
 30
0.0
 10
1376.344966
 20
1133.735972
 30
0.0
 10
1447.211964
 20
1133.735972
 30
0.0
 10
1447.211964
 20
1147.908971
 30
0.0
 10
1433.037964
 20
1147.908971
 30
0.0
 10
1433.037964
 20
1240.034969
 30
0.0
 10
1447.211964
 20
1240.034969
 30
0.0
 10
1447.211964
 20
1296.727968
 30
0.0
 10
1433.037964
 20
1296.727968
 30
0.0
 10
1433.037964
 20
1388.853965
 30
0.0
 10
1447.211964
 20
1388.853965
 30
0.0
 10
1447.211964
 20
1445.546964
 30
0.0
 10
1433.037964
 20
1445.546964
 30
0.0
 10
1433.037964
 20
1537.672962
 30
0.0
 10
1447.211964
 20
1537.672962
 30
0.0
 10
1447.211964
 20
1594.365960
 30
0.0
 10
1433.037964
 20
1594.365960
 30
0.0
 10
1433.037964
 20
1686.491958
 30
0.0
  0
LWPOLYLINE
  5
2cb
100
AcDbEntity
  8
A0102_Printing_02
 62
1
100
AcDbPolyline
 90
4
 70
1
 10
623.037984
 20
1509.325962
 30
0.0
 10
566.344986
 20
1509.325962
 30
0.0
 10
566.344986
 20
1523.498962
 30
0.0
 10
623.037984
 20
1523.498962
 30
0.0
  0
LWPOLYLINE
  5
2cc
100
AcDbEntity
  8
A0102_Printing_02
 62
1
100
AcDbPolyline
 90
4
 70
1
 10
623.037984
 20
1325.073967
 30
0.0
 10
566.344986
 20
1325.073967
 30
0.0
 10
566.344986
 20
1339.246967
 30
0.0
 10
623.037984
 20
1339.246967
 30
0.0
  0
LWPOLYLINE
  5
2cd
100
AcDbEntity
  8
A0102_Printing_02
 62
1
100
AcDbPolyline
 90
4
 70
1
 10
484.848988
 20
1576.648961
 30
0.0
 10
470.675988
 20
1576.648961
 30
0.0
 10
470.675988
 20
1633.341959
 30
0.0
 10
484.848988
 20
1633.341959
 30
0.0
  0
LWPOLYLINE
  5
2ce
100
AcDbEntity
  8
A0102_Printing_02
 62
1
100
AcDbPolyline
 90
4
 70
1
 10
484.848988
 20
1399.483965
 30
0.0
 10
470.675988
 20
1399.483965
 30
0.0
 10
470.675988
 20
1456.176964
 30
0.0
 10
484.848988
 20
1456.176964
 30
0.0
  0
LWPOLYLINE
  5
2cf
100
AcDbEntity
  8
A0102_Printing_02
 62
1
100
AcDbPolyline
 90
4
 70
1
 10
484.848988
 20
1208.144970
 30
0.0
 10
470.675988
 20
1208.144970
 30
0.0
 10
470.675988
 20
1264.837968
 30
0.0
 10
484.848988
 20
1264.837968
 30
0.0
  0
LWPOLYLINE
  5
2d0
100
AcDbEntity
  8
A0102_Printing_02
 62
1
100
AcDbPolyline
 90
4
 70
1
 10
392.722990
 20
1509.325962
 30
0.0
 10
336.029992
 20
1509.325962
 30
0.0
 10
336.029992
 20
1523.498962
 30
0.0
 10
392.722990
 20
1523.498962
 30
0.0
  0
LWPOLYLINE
  5
2d1
100
AcDbEntity
  8
A0102_Printing_02
 62
1
100
AcDbPolyline
 90
4
 70
1
 10
392.722990
 20
1325.073967
 30
0.0
 10
336.029992
 20
1325.073967
 30
0.0
 10
336.029992
 20
1339.246967
 30
0.0
 10
392.722990
 20
1339.246967
 30
0.0
  0
LWPOLYLINE
  5
2d2
100
AcDbEntity
  8
A0102_Printing_02
 62
1
100
AcDbPolyline
 90
4
 70
1
 10
258.077994
 20
1576.648961
 30
0.0
 10
243.904994
 20
1576.648961
 30
0.0
 10
243.904994
 20
1633.341959
 30
0.0
 10
258.077994
 20
1633.341959
 30
0.0
  0
LWPOLYLINE
  5
2d3
100
AcDbEntity
  8
A0102_Printing_02
 62
1
100
AcDbPolyline
 90
4
 70
1
 10
258.077994
 20
1399.483965
 30
0.0
 10
243.904994
 20
1399.483965
 30
0.0
 10
243.904994
 20
1456.176964
 30
0.0
 10
258.077994
 20
1456.176964
 30
0.0
  0
LWPOLYLINE
  5
2d4
100
AcDbEntity
  8
A0102_Printing_02
 62
1
100
AcDbPolyline
 90
4
 70
1
 10
258.077994
 20
1208.144970
 30
0.0
 10
243.904994
 20
1208.144970
 30
0.0
 10
243.904994
 20
1264.837968
 30
0.0
 10
258.077994
 20
1264.837968
 30
0.0
  0
LWPOLYLINE
  5
2d5
100
AcDbEntity
  8
A0102_Printing_02
 62
1
100
AcDbPolyline
 90
4
 70
1
 10
162.407996
 20
1509.325962
 30
0.0
 10
105.714997
 20
1509.325962
 30
0.0
 10
105.714997
 20
1523.498962
 30
0.0
 10
162.407996
 20
1523.498962
 30
0.0
  0
LWPOLYLINE
  5
2d6
100
AcDbEntity
  8
A0102_Printing_02
 62
1
100
AcDbPolyline
 90
4
 70
1
 10
162.407996
 20
1325.073967
 30
0.0
 10
105.714997
 20
1325.073967
 30
0.0
 10
105.714997
 20
1339.246967
 30
0.0
 10
162.407996
 20
1339.246967
 30
0.0
  0
LWPOLYLINE
  5
2d7
100
AcDbEntity
  8
A0102_Printing_02
 62
1
100
AcDbPolyline
 90
76
 70
1
 10
718.707982
 20
1686.491958
 30
0.0
 10
718.707982
 20
1700.664957
 30
0.0
 10
647.840984
 20
1700.664957
 30
0.0
 10
647.840984
 20
1686.491958
 30
0.0
 10
591.147985
 20
1686.491958
 30
0.0
 10
591.147985
 20
1700.664957
 30
0.0
 10
520.281987
 20
1700.664957
 30
0.0
 10
520.281987
 20
1686.491958
 30
0.0
 10
463.588988
 20
1686.491958
 30
0.0
 10
463.588988
 20
1700.664957
 30
0.0
 10
392.722990
 20
1700.664957
 30
0.0
 10
392.722990
 20
1686.491958
 30
0.0
 10
336.029992
 20
1686.491958
 30
0.0
 10
336.029992
 20
1700.664957
 30
0.0
 10
265.163993
 20
1700.664957
 30
0.0
 10
265.163993
 20
1686.491958
 30
0.0
 10
208.470995
 20
1686.491958
 30
0.0
 10
208.470995
 20
1700.664957
 30
0.0
 10
137.604997
 20
1700.664957
 30
0.0
 10
137.604997
 20
1686.491958
 30
0.0
 10
80.911998
 20
1686.491958
 30
0.0
 10
80.911998
 20
1700.664957
 30
0.0
 10
10.046000
 20
1700.664957
 30
0.0
 10
10.046000
 20
1686.491958
 30
0.0
 10
24.218999
 20
1686.491958
 30
0.0
 10
24.218999
 20
1594.365960
 30
0.0
 10
10.046000
 20
1594.365960
 30
0.0
 10
10.046000
 20
1537.672962
 30
0.0
 10
24.218999
 20
1537.672962
 30
0.0
 10
24.218999
 20
1445.546964
 30
0.0
 10
10.046000
 20
1445.546964
 30
0.0
 10
10.046000
 20
1388.853965
 30
0.0
 10
24.218999
 20
1388.853965
 30
0.0
 10
24.218999
 20
1296.727968
 30
0.0
 10
10.046000
 20
1296.727968
 30
0.0
 10
10.046000
 20
1240.034969
 30
0.0
 10
24.218999
 20
1240.034969
 30
0.0
 10
24.218999
 20
1147.908971
 30
0.0
 10
10.046000
 20
1147.908971
 30
0.0
 10
10.046000
 20
1133.735972
 30
0.0
 10
80.911998
 20
1133.735972
 30
0.0
 10
80.911998
 20
1147.908971
 30
0.0
 10
137.604997
 20
1147.908971
 30
0.0
 10
137.604997
 20
1133.735972
 30
0.0
 10
208.470995
 20
1133.735972
 30
0.0
 10
208.470995
 20
1147.908971
 30
0.0
 10
265.163993
 20
1147.908971
 30
0.0
 10
265.163993
 20
1133.735972
 30
0.0
 10
336.029992
 20
1133.735972
 30
0.0
 10
336.029992
 20
1147.908971
 30
0.0
 10
392.722990
 20
1147.908971
 30
0.0
 10
392.722990
 20
1133.735972
 30
0.0
 10
463.588988
 20
1133.735972
 30
0.0
 10
463.588988
 20
1147.908971
 30
0.0
 10
520.281987
 20
1147.908971
 30
0.0
 10
520.281987
 20
1133.735972
 30
0.0
 10
591.147985
 20
1133.735972
 30
0.0
 10
591.147985
 20
1147.908971
 30
0.0
 10
647.840984
 20
1147.908971
 30
0.0
 10
647.840984
 20
1133.735972
 30
0.0
 10
718.707982
 20
1133.735972
 30
0.0
 10
718.707982
 20
1147.908971
 30
0.0
 10
704.533982
 20
1147.908971
 30
0.0
 10
704.533982
 20
1240.034969
 30
0.0
 10
718.707982
 20
1240.034969
 30
0.0
 10
718.707982
 20
1296.727968
 30
0.0
 10
704.533982
 20
1296.727968
 30
0.0
 10
704.533982
 20
1388.853965
 30
0.0
 10
718.707982
 20
1388.853965
 30
0.0
 10
718.707982
 20
1445.546964
 30
0.0
 10
704.533982
 20
1445.546964
 30
0.0
 10
704.533982
 20
1537.672962
 30
0.0
 10
718.707982
 20
1537.672962
 30
0.0
 10
718.707982
 20
1594.365960
 30
0.0
 10
704.533982
 20
1594.365960
 30
0.0
 10
704.533982
 20
1686.491958
 30
0.0
  0
ENDSEC
  0
SECTION
  2
OBJECTS
  0
DICTIONARY
  5
C
330
0
100
AcDbDictionary
  3
ACAD_GROUP
350
D
  3
ACAD_MLINESTYLE
350
17
  0
DICTIONARY
  5
D
330
C
100
AcDbDictionary
  0
DICTIONARY
  5
1A
330
C
100
AcDbDictionary
  0
DICTIONARY
  5
17
330
C
100
AcDbDictionary
  3
STANDARD
350
18
  0
DICTIONARY
  5
19
330
C
100
AcDbDictionary
  0
ENDSEC
  0
EOF
