  0
SECTION
  2
HEADER
  9
$ACADVER
  1
AC1014
  9
$HANDSEED
  5
FFFF
  9
$MEASUREMENT
 70
     1
  0
ENDSEC
  0
SECTION
  2
TABLES
  0
TABLE
  2
VPORT
  5
8
330
0
100
AcDbSymbolTable
 70
     4
  0
VPORT
  5
2E
330
8
100
AcDbSymbolTableRecord
100
AcDbViewportTableRecord
  2
*ACTIVE
 70
     0
 10
0.0
 20
0.0
 11
1.0
 21
1.0
 12
210.0
 22
148.5
 13
0.0
 23
0.0
 14
10.0
 24
10.0
 15
10.0
 25
10.0
 16
0.0
 26
0.0
 36
1.0
 17
0.0
 27
0.0
 37
0.0
 40
341.0
 41
1.24
 42
50.0
 43
0.0
 44
0.0
 50
0.0
 51
0.0
 71
     0
 72
   100
 73
     1
 74
     3
 75
     0
 76
     0
 77
     0
 78
     0
  0
ENDTAB
  0
TABLE
  2
LTYPE
  5
5
330
0
100
AcDbSymbolTable
 70
     1
  0
LTYPE
  5
14
330
5
100
AcDbSymbolTableRecord
100
AcDbLinetypeTableRecord
  2
BYBLOCK
 70
     0
  3

 72
    65
 73
     0
 40
0.0
  0
LTYPE
  5
15
330
5
100
AcDbSymbolTableRecord
100
AcDbLinetypeTableRecord
  2
BYLAYER
 70
     0
  3

 72
    65
 73
     0
 40
0.0
  0
LTYPE
  5
16
330
5
100
AcDbSymbolTableRecord
100
AcDbLinetypeTableRecord
  2
CONTINUOUS
 70
     0
  3
Solid line
 72
    65
 73
     0
 40
0.0
  0
ENDTAB
  0
TABLE
  2
LAYER
  5
2
100
AcDbSymbolTable
 70
2
  0
LAYER
  5
50
100
AcDbSymbolTableRecord
100
AcDbLayerTableRecord
  2
0
 70
0
  6
CONTINUOUS
  0
LAYER
  5
51
100
AcDbSymbolTableRecord
100
AcDbLayerTableRecord
  2
A0105_Printing
 70
0
  6
CONTINUOUS
  0
ENDTAB
  0
TABLE
  2
STYLE
  5
3
330
0
100
AcDbSymbolTable
 70
     1
  0
STYLE
  5
11
330
3
100
AcDbSymbolTableRecord
100
AcDbTextStyleTableRecord
  2
STANDARD
 70
     0
 40
0.0
 41
1.0
 50
0.0
 71
     0
 42
2.5
  3
txt
  4

  0
ENDTAB
  0
TABLE
  2
VIEW
  5
6
330
0
100
AcDbSymbolTable
 70
     0
  0
ENDTAB
  0
TABLE
  2
UCS
  5
7
330
0
100
AcDbSymbolTable
 70
     0
  0
ENDTAB
  0
TABLE
  2
APPID
  5
9
330
0
100
AcDbSymbolTable
 70
     2
  0
APPID
  5
12
330
9
100
AcDbSymbolTableRecord
100
AcDbRegAppTableRecord
  2
ACAD
 70
     0
  0
ENDTAB
  0
TABLE
  2
DIMSTYLE
  5
A
330
0
100
AcDbSymbolTable
 70
     1
  0
DIMSTYLE
105
27
330
A
100
AcDbSymbolTableRecord
100
AcDbDimStyleTableRecord
  2
ISO-25
 70
     0
  3

  4

  5

  6

  7

 40
1.0
 41
2.5
 42
0.625
 43
3.75
 44
1.25
 45
0.0
 46
0.0
 47
0.0
 48
0.0
140
2.5
141
2.5
142
0.0
143
0.03937007874016
144
1.0
145
0.0
146
1.0
147
0.625
 71
     0
 72
     0
 73
     0
 74
     0
 75
     0
 76
     0
 77
     1
 78
     8
170
     0
171
     3
172
     1
173
     0
174
     0
175
     0
176
     0
177
     0
178
     0
270
     2
271
     2
272
     2
273
     2
274
     3
340
11
275
     0
280
     0
281
     0
282
     0
283
     0
284
     8
285
     0
286
     0
287
     3
288
     0
  0
ENDTAB
  0
TABLE
  2
BLOCK_RECORD
  5
1
330
0
100
AcDbSymbolTable
 70
     1
  0
BLOCK_RECORD
  5
1F
330
1
100
AcDbSymbolTableRecord
100
AcDbBlockTableRecord
  2
*MODEL_SPACE
  0
BLOCK_RECORD
  5
1B
330
1
100
AcDbSymbolTableRecord
100
AcDbBlockTableRecord
  2
*PAPER_SPACE
  0
ENDTAB
  0
ENDSEC
  0
SECTION
  2
BLOCKS
  0
BLOCK
  5
20
330
1F
100
AcDbEntity
  8
0
100
AcDbBlockBegin
  2
*MODEL_SPACE
 70
     0
 10
0.0
 20
0.0
 30
0.0
  3
*MODEL_SPACE
  1

  0
ENDBLK
  5
21
330
1F
100
AcDbEntity
  8
0
100
AcDbBlockEnd
  0
BLOCK
  5
1C
330
1B
100
AcDbEntity
 67
     1
  8
0
100
AcDbBlockBegin
  2
*PAPER_SPACE
  1

  0
ENDBLK
  5
1D
330
1B
100
AcDbEntity
 67
     1
  8
0
100
AcDbBlockEnd
  0
ENDSEC
  0
SECTION
  2
ENTITIES
  0
SPLINE
  5
100
100
AcDbEntity
  8
A0105_Printing
 62
1
100
AcDbSpline
 70
8
 71
3
 72
8
 73
4
 74
0
 40
0
 40
0
 40
0
 40
0
 40
1
 40
1
 40
1
 40
1
 10
2204.385445
 20
800.740080
 30
0.0
 10
2192.644445
 20
800.740080
 30
0.0
 10
2183.125445
 20
810.258080
 30
0.0
 10
2183.125445
 20
822.000079
 30
0.0
  0
SPLINE
  5
101
100
AcDbEntity
  8
A0105_Printing
 62
1
100
AcDbSpline
 70
8
 71
3
 72
8
 73
4
 74
0
 40
0
 40
0
 40
0
 40
0
 40
1
 40
1
 40
1
 40
1
 10
2183.125445
 20
1247.197069
 30
0.0
 10
2183.125445
 20
1258.938069
 30
0.0
 10
2192.644445
 20
1268.456068
 30
0.0
 10
2204.385445
 20
1268.456068
 30
0.0
  0
SPLINE
  5
102
100
AcDbEntity
  8
A0105_Printing
 62
1
100
AcDbSpline
 70
8
 71
3
 72
8
 73
4
 74
0
 40
0
 40
0
 40
0
 40
0
 40
1
 40
1
 40
1
 40
1
 10
2204.385445
 20
1268.456068
 30
0.0
 10
2216.126445
 20
1268.456068
 30
0.0
 10
2225.645444
 20
1258.938069
 30
0.0
 10
2225.645444
 20
1247.197069
 30
0.0
  0
LWPOLYLINE
  5
103
100
AcDbEntity
  8
A0105_Printing
 62
1
100
AcDbPolyline
 90
2
 70
0
 10
2183.125445
 20
822.000079
 30
0.0
 10
2183.125445
 20
1247.197069
 30
0.0
  0
SPLINE
  5
104
100
AcDbEntity
  8
A0105_Printing
 62
1
100
AcDbSpline
 70
8
 71
3
 72
8
 73
4
 74
0
 40
0
 40
0
 40
0
 40
0
 40
1
 40
1
 40
1
 40
1
 10
2225.645444
 20
822.000079
 30
0.0
 10
2225.645444
 20
810.258080
 30
0.0
 10
2216.126445
 20
800.740080
 30
0.0
 10
2204.385445
 20
800.740080
 30
0.0
  0
LWPOLYLINE
  5
105
100
AcDbEntity
  8
A0105_Printing
 62
1
100
AcDbPolyline
 90
2
 70
0
 10
2225.645444
 20
1247.197069
 30
0.0
 10
2225.645444
 20
822.000079
 30
0.0
  0
LWPOLYLINE
  5
106
100
AcDbEntity
  8
A0105_Printing
 62
1
100
AcDbPolyline
 90
1
 70
1
 10
2204.385445
 20
800.740080
 30
0.0
  0
LWPOLYLINE
  5
107
100
AcDbEntity
  8
A0105_Printing
 62
1
100
AcDbPolyline
 90
4
 70
1
 10
2154.779446
 20
914.126077
 30
0.0
 10
2168.952446
 20
914.126077
 30
0.0
 10
2168.952446
 20
857.433079
 30
0.0
 10
2154.779446
 20
857.433079
 30
0.0
  0
LWPOLYLINE
  5
108
100
AcDbEntity
  8
A0105_Printing
 62
1
100
AcDbPolyline
 90
4
 70
1
 10
2154.779446
 20
1062.945073
 30
0.0
 10
2168.952446
 20
1062.945073
 30
0.0
 10
2168.952446
 20
1006.252075
 30
0.0
 10
2154.779446
 20
1006.252075
 30
0.0
  0
LWPOLYLINE
  5
109
100
AcDbEntity
  8
A0105_Printing
 62
1
100
AcDbPolyline
 90
4
 70
1
 10
2154.779446
 20
1211.764070
 30
0.0
 10
2168.952446
 20
1211.764070
 30
0.0
 10
2168.952446
 20
1155.071071
 30
0.0
 10
2154.779446
 20
1155.071071
 30
0.0
  0
SPLINE
  5
10a
100
AcDbEntity
  8
A0105_Printing
 62
1
100
AcDbSpline
 70
8
 71
3
 72
8
 73
4
 74
0
 40
0
 40
0
 40
0
 40
0
 40
1
 40
1
 40
1
 40
1
 10
2452.416439
 20
729.874082
 30
0.0
 10
2468.072438
 20
729.874082
 30
0.0
 10
2480.763438
 20
866.304078
 30
0.0
 10
2480.763438
 20
1034.598074
 30
0.0
  0
SPLINE
  5
10b
100
AcDbEntity
  8
A0105_Printing
 62
1
100
AcDbSpline
 70
8
 71
3
 72
8
 73
4
 74
0
 40
0
 40
0
 40
0
 40
0
 40
1
 40
1
 40
1
 40
1
 10
2480.763438
 20
1034.598074
 30
0.0
 10
2480.763438
 20
1202.893070
 30
0.0
 10
2468.072438
 20
1339.323067
 30
0.0
 10
2452.416439
 20
1339.323067
 30
0.0
  0
LWPOLYLINE
  5
10c
100
AcDbEntity
  8
A0105_Printing
 62
1
100
AcDbPolyline
 90
2
 70
0
 10
2424.070439
 20
729.874082
 30
0.0
 10
2452.416439
 20
729.874082
 30
0.0
  0
LWPOLYLINE
  5
10d
100
AcDbEntity
  8
A0105_Printing
 62
1
100
AcDbPolyline
 90
23
 70
0
 10
2452.416439
 20
1339.323067
 30
0.0
 10
2424.070439
 20
1339.323067
 30
0.0
 10
2424.070439
 20
1325.149067
 30
0.0
 10
2367.377441
 20
1325.149067
 30
0.0
 10
2367.377441
 20
1339.323067
 30
0.0
 10
2310.684442
 20
1339.323067
 30
0.0
 10
2310.684442
 20
1325.149067
 30
0.0
 10
2253.991444
 20
1325.149067
 30
0.0
 10
2253.991444
 20
1339.323067
 30
0.0
 10
2197.298445
 20
1339.323067
 30
0.0
 10
2197.298445
 20
1325.149067
 30
0.0
 10
2140.605446
 20
1325.149067
 30
0.0
 10
2140.605446
 20
744.047081
 30
0.0
 10
2197.298445
 20
744.047081
 30
0.0
 10
2197.298445
 20
729.874082
 30
0.0
 10
2253.991444
 20
729.874082
 30
0.0
 10
2253.991444
 20
744.047081
 30
0.0
 10
2310.684442
 20
744.047081
 30
0.0
 10
2310.684442
 20
729.874082
 30
0.0
 10
2367.377441
 20
729.874082
 30
0.0
 10
2367.377441
 20
744.047081
 30
0.0
 10
2424.070439
 20
744.047081
 30
0.0
 10
2424.070439
 20
729.874082
 30
0.0
  0
LWPOLYLINE
  5
10e
100
AcDbEntity
  8
A0105_Printing
 62
1
100
AcDbPolyline
 90
4
 70
1
 10
1991.786950
 20
1254.282969
 30
0.0
 10
1977.613951
 20
1254.282969
 30
0.0
 10
1977.613951
 20
1310.975967
 30
0.0
 10
1991.786950
 20
1310.975967
 30
0.0
  0
LWPOLYLINE
  5
10f
100
AcDbEntity
  8
A0105_Printing
 62
1
100
AcDbPolyline
 90
4
 70
1
 10
1842.967954
 20
1254.282969
 30
0.0
 10
1828.794954
 20
1254.282969
 30
0.0
 10
1828.794954
 20
1310.975967
 30
0.0
 10
1842.967954
 20
1310.975967
 30
0.0
  0
LWPOLYLINE
  5
110
100
AcDbEntity
  8
A0105_Printing
 62
1
100
AcDbPolyline
 90
4
 70
1
 10
1694.148958
 20
1254.282969
 30
0.0
 10
1679.975958
 20
1254.282969
 30
0.0
 10
1679.975958
 20
1310.975967
 30
0.0
 10
1694.148958
 20
1310.975967
 30
0.0
  0
LWPOLYLINE
  5
111
100
AcDbEntity
  8
A0105_Printing
 62
1
100
AcDbPolyline
 90
36
 70
1
 10
2126.432947
 20
1339.322967
 30
0.0
 10
2083.912948
 20
1339.322967
 30
0.0
 10
2083.912948
 20
1325.149967
 30
0.0
 10
1998.873950
 20
1325.149967
 30
0.0
 10
1998.873950
 20
1339.322967
 30
0.0
 10
1878.400953
 20
1339.322967
 30
0.0
 10
1878.400953
 20
1325.149967
 30
0.0
 10
1793.361955
 20
1325.149967
 30
0.0
 10
1793.361955
 20
1339.322967
 30
0.0
 10
1672.888958
 20
1339.322967
 30
0.0
 10
1672.888958
 20
1325.149967
 30
0.0
 10
1587.849960
 20
1325.149967
 30
0.0
 10
1587.849960
 20
1339.322967
 30
0.0
 10
1545.329961
 20
1339.322967
 30
0.0
 10
1545.329961
 20
1310.975967
 30
0.0
 10
1531.156962
 20
1310.975967
 30
0.0
 10
1531.156962
 20
1254.282969
 30
0.0
 10
1545.329961
 20
1254.282969
 30
0.0
 10
1545.329961
 20
1211.763970
 30
0.0
 10
1587.849960
 20
1211.763970
 30
0.0
 10
1587.849960
 20
1225.936969
 30
0.0
 10
1672.888958
 20
1225.936969
 30
0.0
 10
1672.888958
 20
1211.763970
 30
0.0
 10
1793.361955
 20
1211.763970
 30
0.0
 10
1793.361955
 20
1225.936969
 30
0.0
 10
1878.400953
 20
1225.936969
 30
0.0
 10
1878.400953
 20
1211.763970
 30
0.0
 10
1998.873950
 20
1211.763970
 30
0.0
 10
1998.873950
 20
1225.936969
 30
0.0
 10
2083.912948
 20
1225.936969
 30
0.0
 10
2083.912948
 20
1211.763970
 30
0.0
 10
2126.432947
 20
1211.763970
 30
0.0
 10
2126.432947
 20
1254.282969
 30
0.0
 10
2140.605946
 20
1254.282969
 30
0.0
 10
2140.605946
 20
1310.975967
 30
0.0
 10
2126.432947
 20
1310.975967
 30
0.0
  0
SPLINE
  5
112
100
AcDbEntity
  8
A0105_Printing
 62
1
100
AcDbSpline
 70
8
 71
3
 72
8
 73
4
 74
0
 40
0
 40
0
 40
0
 40
0
 40
1
 40
1
 40
1
 40
1
 10
2154.779346
 20
744.053281
 30
0.0
 10
2154.779346
 20
736.225282
 30
0.0
 10
2132.569347
 20
729.880282
 30
0.0
 10
2105.172347
 20
729.880282
 30
0.0
  0
SPLINE
  5
113
100
AcDbEntity
  8
A0105_Printing
 62
1
100
AcDbSpline
 70
8
 71
3
 72
8
 73
4
 74
0
 40
0
 40
0
 40
0
 40
0
 40
1
 40
1
 40
1
 40
1
 10
2105.172347
 20
729.880282
 30
0.0
 10
2077.776348
 20
729.880282
 30
0.0
 10
2055.566349
 20
736.225282
 30
0.0
 10
2055.566349
 20
744.053281
 30
0.0
  0
LWPOLYLINE
  5
114
100
AcDbEntity
  8
A0105_Printing
 62
1
100
AcDbPolyline
 90
2
 70
0
 10
2168.952346
 20
744.053281
 30
0.0
 10
2154.779346
 20
744.053281
 30
0.0
  0
LWPOLYLINE
  5
115
100
AcDbEntity
  8
A0105_Printing
 62
1
100
AcDbPolyline
 90
17
 70
0
 10
2055.566349
 20
744.053281
 30
0.0
 10
2041.393349
 20
744.053281
 30
0.0
 10
2041.393349
 20
715.707282
 30
0.0
 10
2027.220349
 20
715.707282
 30
0.0
 10
2027.220349
 20
659.014284
 30
0.0
 10
2041.393349
 20
659.014284
 30
0.0
 10
2041.393349
 20
630.667284
 30
0.0
 10
2076.826348
 20
630.667284
 30
0.0
 10
2076.826348
 20
616.494285
 30
0.0
 10
2133.519347
 20
616.494285
 30
0.0
 10
2133.519347
 20
630.667284
 30
0.0
 10
2168.952346
 20
630.667284
 30
0.0
 10
2168.952346
 20
659.014284
 30
0.0
 10
2183.125345
 20
659.014284
 30
0.0
 10
2183.125345
 20
715.707282
 30
0.0
 10
2168.952346
 20
715.707282
 30
0.0
 10
2168.952346
 20
744.053281
 30
0.0
  0
LWPOLYLINE
  5
116
100
AcDbEntity
  8
A0105_Printing
 62
1
100
AcDbPolyline
 90
4
 70
1
 10
1984.699950
 20
375.542991
 30
0.0
 10
1928.006952
 20
375.542991
 30
0.0
 10
1928.006952
 20
389.715990
 30
0.0
 10
1984.699950
 20
389.715990
 30
0.0
  0
LWPOLYLINE
  5
117
100
AcDbEntity
  8
A0105_Printing
 62
1
100
AcDbPolyline
 90
4
 70
1
 10
1857.140954
 20
418.062990
 30
0.0
 10
1842.967954
 20
418.062990
 30
0.0
 10
1842.967954
 20
474.755988
 30
0.0
 10
1857.140954
 20
474.755988
 30
0.0
  0
LWPOLYLINE
  5
118
100
AcDbEntity
  8
A0105_Printing
 62
1
100
AcDbPolyline
 90
4
 70
1
 10
1687.062958
 20
418.062990
 30
0.0
 10
1672.889958
 20
418.062990
 30
0.0
 10
1672.889958
 20
474.755988
 30
0.0
 10
1687.062958
 20
474.755988
 30
0.0
  0
LWPOLYLINE
  5
119
100
AcDbEntity
  8
A0105_Printing
 62
1
100
AcDbPolyline
 90
4
 70
1
 10
1630.369959
 20
375.542991
 30
0.0
 10
1573.676961
 20
375.542991
 30
0.0
 10
1573.676961
 20
389.715990
 30
0.0
 10
1630.369959
 20
389.715990
 30
0.0
  0
LWPOLYLINE
  5
11a
100
AcDbEntity
  8
A0105_Printing
 62
1
100
AcDbPolyline
 90
38
 70
1
 10
2027.219949
 20
588.141985
 30
0.0
 10
2027.219949
 20
644.834984
 30
0.0
 10
1949.641951
 20
644.834984
 30
0.0
 10
1949.641951
 20
630.660984
 30
0.0
 10
1892.948953
 20
630.660984
 30
0.0
 10
1892.948953
 20
644.834984
 30
0.0
 10
1842.967954
 20
644.834984
 30
0.0
 10
1842.967954
 20
588.141985
 30
0.0
 10
1857.140954
 20
588.141985
 30
0.0
 10
1857.140954
 20
531.448987
 30
0.0
 10
1842.967954
 20
531.448987
 30
0.0
 10
1842.967954
 20
503.101987
 30
0.0
 10
1779.188956
 20
503.101987
 30
0.0
 10
1779.188956
 20
488.928988
 30
0.0
 10
1722.495957
 20
488.928988
 30
0.0
 10
1722.495957
 20
503.101987
 30
0.0
 10
1531.156962
 20
503.101987
 30
0.0
 10
1531.156962
 20
474.755988
 30
0.0
 10
1545.329961
 20
474.755988
 30
0.0
 10
1545.329961
 20
418.062990
 30
0.0
 10
1531.156962
 20
418.062990
 30
0.0
 10
1531.156962
 20
361.369991
 30
0.0
 10
1658.715959
 20
361.369991
 30
0.0
 10
1658.715959
 20
375.542991
 30
0.0
 10
1750.841956
 20
375.542991
 30
0.0
 10
1750.841956
 20
389.715990
 30
0.0
 10
1807.534955
 20
389.715990
 30
0.0
 10
1807.534955
 20
375.542991
 30
0.0
 10
1899.660953
 20
375.542991
 30
0.0
 10
1899.660953
 20
361.369991
 30
0.0
 10
2027.219949
 20
361.369991
 30
0.0
 10
2027.219949
 20
418.062990
 30
0.0
 10
2013.046950
 20
418.062990
 30
0.0
 10
2013.046950
 20
474.755988
 30
0.0
 10
2027.219949
 20
474.755988
 30
0.0
 10
2027.219949
 20
531.448987
 30
0.0
 10
2013.046950
 20
531.448987
 30
0.0
 10
2013.046950
 20
588.141985
 30
0.0
  0
LWPOLYLINE
  5
11b
100
AcDbEntity
  8
A0105_Printing
 62
1
100
AcDbPolyline
 90
4
 70
1
 10
1573.676961
 20
772.393981
 30
0.0
 10
1630.369959
 20
772.393981
 30
0.0
 10
1630.369959
 20
758.220981
 30
0.0
 10
1573.676961
 20
758.220981
 30
0.0
  0
LWPOLYLINE
  5
11c
100
AcDbEntity
  8
A0105_Printing
 62
1
100
AcDbPolyline
 90
4
 70
1
 10
1701.235957
 20
729.873982
 30
0.0
 10
1715.408957
 20
729.873982
 30
0.0
 10
1715.408957
 20
673.180983
 30
0.0
 10
1701.235957
 20
673.180983
 30
0.0
  0
LWPOLYLINE
  5
11d
100
AcDbEntity
  8
A0105_Printing
 62
1
100
AcDbPolyline
 90
4
 70
1
 10
1871.314953
 20
729.873982
 30
0.0
 10
1885.487953
 20
729.873982
 30
0.0
 10
1885.487953
 20
673.180983
 30
0.0
 10
1871.314953
 20
673.180983
 30
0.0
  0
LWPOLYLINE
  5
11e
100
AcDbEntity
  8
A0105_Printing
 62
1
100
AcDbPolyline
 90
4
 70
1
 10
1928.006952
 20
772.393981
 30
0.0
 10
1984.699950
 20
772.393981
 30
0.0
 10
1984.699950
 20
758.220981
 30
0.0
 10
1928.006952
 20
758.220981
 30
0.0
  0
SPLINE
  5
11f
100
AcDbEntity
  8
A0105_Printing
 62
1
100
AcDbSpline
 70
8
 71
3
 72
8
 73
4
 74
0
 40
0
 40
0
 40
0
 40
0
 40
1
 40
1
 40
1
 40
1
 10
2112.259247
 20
1034.598374
 30
0.0
 10
2112.259247
 20
1022.857374
 30
0.0
 10
2102.741247
 20
1013.338375
 30
0.0
 10
2090.999248
 20
1013.338375
 30
0.0
  0
SPLINE
  5
120
100
AcDbEntity
  8
A0105_Printing
 62
1
100
AcDbSpline
 70
8
 71
3
 72
8
 73
4
 74
0
 40
0
 40
0
 40
0
 40
0
 40
1
 40
1
 40
1
 40
1
 10
2090.999248
 20
1013.338375
 30
0.0
 10
2079.258248
 20
1013.338375
 30
0.0
 10
2069.739248
 20
1022.857374
 30
0.0
 10
2069.739248
 20
1034.598374
 30
0.0
  0
SPLINE
  5
121
100
AcDbEntity
  8
A0105_Printing
 62
1
100
AcDbSpline
 70
8
 71
3
 72
8
 73
4
 74
0
 40
0
 40
0
 40
0
 40
0
 40
1
 40
1
 40
1
 40
1
 10
2069.739248
 20
1034.598374
 30
0.0
 10
2069.739248
 20
1046.339374
 30
0.0
 10
2079.258248
 20
1055.858374
 30
0.0
 10
2090.999248
 20
1055.858374
 30
0.0
  0
SPLINE
  5
122
100
AcDbEntity
  8
A0105_Printing
 62
1
100
AcDbSpline
 70
8
 71
3
 72
8
 73
4
 74
0
 40
0
 40
0
 40
0
 40
0
 40
1
 40
1
 40
1
 40
1
 10
2090.999248
 20
1055.858374
 30
0.0
 10
2102.741247
 20
1055.858374
 30
0.0
 10
2112.259247
 20
1046.339374
 30
0.0
 10
2112.259247
 20
1034.598374
 30
0.0
  0
LWPOLYLINE
  5
123
100
AcDbEntity
  8
A0105_Printing
 62
1
100
AcDbPolyline
 90
38
 70
1
 10
1531.156962
 20
559.794986
 30
0.0
 10
1531.156962
 20
503.101987
 30
0.0
 10
1608.734960
 20
503.101987
 30
0.0
 10
1608.734960
 20
517.275987
 30
0.0
 10
1665.427958
 20
517.275987
 30
0.0
 10
1665.427958
 20
503.101987
 30
0.0
 10
1715.408957
 20
503.101987
 30
0.0
 10
1715.408957
 20
559.794986
 30
0.0
 10
1701.235957
 20
559.794986
 30
0.0
 10
1701.235957
 20
616.487985
 30
0.0
 10
1715.408957
 20
616.487985
 30
0.0
 10
1715.408957
 20
644.833984
 30
0.0
 10
1779.188956
 20
644.833984
 30
0.0
 10
1779.188956
 20
659.007984
 30
0.0
 10
1835.880954
 20
659.007984
 30
0.0
 10
1835.880954
 20
644.833984
 30
0.0
 10
2027.219949
 20
644.833984
 30
0.0
 10
2027.219949
 20
673.180983
 30
0.0
 10
2013.046950
 20
673.180983
 30
0.0
 10
2013.046950
 20
729.873982
 30
0.0
 10
2027.219949
 20
729.873982
 30
0.0
 10
2027.219949
 20
786.566980
 30
0.0
 10
1899.660953
 20
786.566980
 30
0.0
 10
1899.660953
 20
772.393981
 30
0.0
 10
1807.534955
 20
772.393981
 30
0.0
 10
1807.534955
 20
758.219981
 30
0.0
 10
1750.841956
 20
758.219981
 30
0.0
 10
1750.841956
 20
772.393981
 30
0.0
 10
1658.715959
 20
772.393981
 30
0.0
 10
1658.715959
 20
786.566980
 30
0.0
 10
1531.156962
 20
786.566980
 30
0.0
 10
1531.156962
 20
729.873982
 30
0.0
 10
1545.329961
 20
729.873982
 30
0.0
 10
1545.329961
 20
673.180983
 30
0.0
 10
1531.156962
 20
673.180983
 30
0.0
 10
1531.156962
 20
616.487985
 30
0.0
 10
1545.329961
 20
616.487985
 30
0.0
 10
1545.329961
 20
559.794986
 30
0.0
  0
SPLINE
  5
124
100
AcDbEntity
  8
A0105_Printing
 62
1
100
AcDbSpline
 70
8
 71
3
 72
8
 73
4
 74
0
 40
0
 40
0
 40
0
 40
0
 40
1
 40
1
 40
1
 40
1
 10
2090.999248
 20
956.645376
 30
0.0
 10
2079.258248
 20
956.645376
 30
0.0
 10
2069.739248
 20
966.164376
 30
0.0
 10
2069.739248
 20
977.905376
 30
0.0
  0
SPLINE
  5
125
100
AcDbEntity
  8
A0105_Printing
 62
1
100
AcDbSpline
 70
8
 71
3
 72
8
 73
4
 74
0
 40
0
 40
0
 40
0
 40
0
 40
1
 40
1
 40
1
 40
1
 10
2069.739248
 20
977.905376
 30
0.0
 10
2069.739248
 20
989.647375
 30
0.0
 10
2079.258248
 20
999.165375
 30
0.0
 10
2090.999248
 20
999.165375
 30
0.0
  0
SPLINE
  5
126
100
AcDbEntity
  8
A0105_Printing
 62
1
100
AcDbSpline
 70
8
 71
3
 72
8
 73
4
 74
0
 40
0
 40
0
 40
0
 40
0
 40
1
 40
1
 40
1
 40
1
 10
2090.999248
 20
999.165375
 30
0.0
 10
2102.741247
 20
999.165375
 30
0.0
 10
2112.259247
 20
989.647375
 30
0.0
 10
2112.259247
 20
977.905376
 30
0.0
  0
SPLINE
  5
127
100
AcDbEntity
  8
A0105_Printing
 62
1
100
AcDbSpline
 70
8
 71
3
 72
8
 73
4
 74
0
 40
0
 40
0
 40
0
 40
0
 40
1
 40
1
 40
1
 40
1
 10
2112.259247
 20
977.905376
 30
0.0
 10
2112.259247
 20
966.164376
 30
0.0
 10
2102.741247
 20
956.645376
 30
0.0
 10
2090.999248
 20
956.645376
 30
0.0
  0
LWPOLYLINE
  5
128
100
AcDbEntity
  8
A0105_Printing
 62
1
100
AcDbPolyline
 90
1
 70
1
 10
2112.259247
 20
1034.598374
 30
0.0
  0
SPLINE
  5
129
100
AcDbEntity
  8
A0105_Printing
 62
1
100
AcDbSpline
 70
8
 71
3
 72
8
 73
4
 74
0
 40
0
 40
0
 40
0
 40
0
 40
1
 40
1
 40
1
 40
1
 10
2055.566249
 20
1034.598374
 30
0.0
 10
2055.566249
 20
1022.857374
 30
0.0
 10
2046.048249
 20
1013.338375
 30
0.0
 10
2034.306249
 20
1013.338375
 30
0.0
  0
LWPOLYLINE
  5
12a
100
AcDbEntity
  8
A0105_Printing
 62
1
100
AcDbPolyline
 90
1
 70
1
 10
2090.999248
 20
956.645376
 30
0.0
  0
SPLINE
  5
12b
100
AcDbEntity
  8
A0105_Printing
 62
1
100
AcDbSpline
 70
8
 71
3
 72
8
 73
4
 74
0
 40
0
 40
0
 40
0
 40
0
 40
1
 40
1
 40
1
 40
1
 10
2034.306249
 20
1013.338375
 30
0.0
 10
2022.565249
 20
1013.338375
 30
0.0
 10
2013.046250
 20
1022.857374
 30
0.0
 10
2013.046250
 20
1034.598374
 30
0.0
  0
SPLINE
  5
12c
100
AcDbEntity
  8
A0105_Printing
 62
1
100
AcDbSpline
 70
8
 71
3
 72
8
 73
4
 74
0
 40
0
 40
0
 40
0
 40
0
 40
1
 40
1
 40
1
 40
1
 10
2013.046250
 20
1034.598374
 30
0.0
 10
2013.046250
 20
1046.339374
 30
0.0
 10
2022.565249
 20
1055.858374
 30
0.0
 10
2034.306249
 20
1055.858374
 30
0.0
  0
LWPOLYLINE
  5
12d
100
AcDbEntity
  8
A0105_Printing
 62
1
100
AcDbPolyline
 90
1
 70
1
 10
2034.306249
 20
1013.338375
 30
0.0
  0
SPLINE
  5
12e
100
AcDbEntity
  8
A0105_Printing
 62
1
100
AcDbSpline
 70
8
 71
3
 72
8
 73
4
 74
0
 40
0
 40
0
 40
0
 40
0
 40
1
 40
1
 40
1
 40
1
 10
2034.306249
 20
1055.858374
 30
0.0
 10
2046.048249
 20
1055.858374
 30
0.0
 10
2055.566249
 20
1046.339374
 30
0.0
 10
2055.566249
 20
1034.598374
 30
0.0
  0
LWPOLYLINE
  5
12f
100
AcDbEntity
  8
A0105_Printing
 62
1
100
AcDbPolyline
 90
1
 70
1
 10
2034.306249
 20
1055.858374
 30
0.0
  0
LWPOLYLINE
  5
130
100
AcDbEntity
  8
A0105_Printing
 62
1
100
AcDbPolyline
 90
1
 70
1
 10
2055.566249
 20
1034.598374
 30
0.0
  0
SPLINE
  5
131
100
AcDbEntity
  8
A0105_Printing
 62
1
100
AcDbSpline
 70
8
 71
3
 72
8
 73
4
 74
0
 40
0
 40
0
 40
0
 40
0
 40
1
 40
1
 40
1
 40
1
 10
2034.306249
 20
956.645376
 30
0.0
 10
2022.565249
 20
956.645376
 30
0.0
 10
2013.046250
 20
966.164376
 30
0.0
 10
2013.046250
 20
977.905376
 30
0.0
  0
SPLINE
  5
132
100
AcDbEntity
  8
A0105_Printing
 62
1
100
AcDbSpline
 70
8
 71
3
 72
8
 73
4
 74
0
 40
0
 40
0
 40
0
 40
0
 40
1
 40
1
 40
1
 40
1
 10
2013.046250
 20
977.905376
 30
0.0
 10
2013.046250
 20
989.647375
 30
0.0
 10
2022.565249
 20
999.165375
 30
0.0
 10
2034.306249
 20
999.165375
 30
0.0
  0
LWPOLYLINE
  5
133
100
AcDbEntity
  8
A0105_Printing
 62
1
100
AcDbPolyline
 90
1
 70
1
 10
2034.306249
 20
956.645376
 30
0.0
  0
SPLINE
  5
134
100
AcDbEntity
  8
A0105_Printing
 62
1
100
AcDbSpline
 70
8
 71
3
 72
8
 73
4
 74
0
 40
0
 40
0
 40
0
 40
0
 40
1
 40
1
 40
1
 40
1
 10
2034.306249
 20
999.165375
 30
0.0
 10
2046.048249
 20
999.165375
 30
0.0
 10
2055.566249
 20
989.647375
 30
0.0
 10
2055.566249
 20
977.905376
 30
0.0
  0
SPLINE
  5
135
100
AcDbEntity
  8
A0105_Printing
 62
1
100
AcDbSpline
 70
8
 71
3
 72
8
 73
4
 74
0
 40
0
 40
0
 40
0
 40
0
 40
1
 40
1
 40
1
 40
1
 10
2055.566249
 20
977.905376
 30
0.0
 10
2055.566249
 20
966.164376
 30
0.0
 10
2046.048249
 20
956.645376
 30
0.0
 10
2034.306249
 20
956.645376
 30
0.0
  0
LWPOLYLINE
  5
136
100
AcDbEntity
  8
A0105_Printing
 62
1
100
AcDbPolyline
 90
1
 70
1
 10
2034.306249
 20
999.165375
 30
0.0
  0
SPLINE
  5
137
100
AcDbEntity
  8
A0105_Printing
 62
1
100
AcDbSpline
 70
8
 71
3
 72
8
 73
4
 74
0
 40
0
 40
0
 40
0
 40
0
 40
1
 40
1
 40
1
 40
1
 10
1998.873250
 20
1034.598374
 30
0.0
 10
1998.873250
 20
1022.857374
 30
0.0
 10
1989.355250
 20
1013.338375
 30
0.0
 10
1977.613251
 20
1013.338375
 30
0.0
  0
LWPOLYLINE
  5
138
100
AcDbEntity
  8
A0105_Printing
 62
1
100
AcDbPolyline
 90
1
 70
1
 10
2034.306249
 20
956.645376
 30
0.0
  0
SPLINE
  5
139
100
AcDbEntity
  8
A0105_Printing
 62
1
100
AcDbSpline
 70
8
 71
3
 72
8
 73
4
 74
0
 40
0
 40
0
 40
0
 40
0
 40
1
 40
1
 40
1
 40
1
 10
1977.613251
 20
1013.338375
 30
0.0
 10
1965.872251
 20
1013.338375
 30
0.0
 10
1956.354251
 20
1022.857374
 30
0.0
 10
1956.354251
 20
1034.598374
 30
0.0
  0
SPLINE
  5
13a
100
AcDbEntity
  8
A0105_Printing
 62
1
100
AcDbSpline
 70
8
 71
3
 72
8
 73
4
 74
0
 40
0
 40
0
 40
0
 40
0
 40
1
 40
1
 40
1
 40
1
 10
1956.354251
 20
1034.598374
 30
0.0
 10
1956.354251
 20
1046.339374
 30
0.0
 10
1965.872251
 20
1055.858374
 30
0.0
 10
1977.613251
 20
1055.858374
 30
0.0
  0
LWPOLYLINE
  5
13b
100
AcDbEntity
  8
A0105_Printing
 62
1
100
AcDbPolyline
 90
1
 70
1
 10
1977.613251
 20
1013.338375
 30
0.0
  0
SPLINE
  5
13c
100
AcDbEntity
  8
A0105_Printing
 62
1
100
AcDbSpline
 70
8
 71
3
 72
8
 73
4
 74
0
 40
0
 40
0
 40
0
 40
0
 40
1
 40
1
 40
1
 40
1
 10
1977.613251
 20
1055.858374
 30
0.0
 10
1989.355250
 20
1055.858374
 30
0.0
 10
1998.873250
 20
1046.339374
 30
0.0
 10
1998.873250
 20
1034.598374
 30
0.0
  0
LWPOLYLINE
  5
13d
100
AcDbEntity
  8
A0105_Printing
 62
1
100
AcDbPolyline
 90
1
 70
1
 10
1977.613251
 20
1055.858374
 30
0.0
  0
LWPOLYLINE
  5
13e
100
AcDbEntity
  8
A0105_Printing
 62
1
100
AcDbPolyline
 90
1
 70
1
 10
1998.873250
 20
1034.598374
 30
0.0
  0
SPLINE
  5
13f
100
AcDbEntity
  8
A0105_Printing
 62
1
100
AcDbSpline
 70
8
 71
3
 72
8
 73
4
 74
0
 40
0
 40
0
 40
0
 40
0
 40
1
 40
1
 40
1
 40
1
 10
1977.613251
 20
956.645376
 30
0.0
 10
1965.872251
 20
956.645376
 30
0.0
 10
1956.354251
 20
966.164376
 30
0.0
 10
1956.354251
 20
977.905376
 30
0.0
  0
SPLINE
  5
140
100
AcDbEntity
  8
A0105_Printing
 62
1
100
AcDbSpline
 70
8
 71
3
 72
8
 73
4
 74
0
 40
0
 40
0
 40
0
 40
0
 40
1
 40
1
 40
1
 40
1
 10
1956.354251
 20
977.905376
 30
0.0
 10
1956.354251
 20
989.647375
 30
0.0
 10
1965.872251
 20
999.165375
 30
0.0
 10
1977.613251
 20
999.165375
 30
0.0
  0
LWPOLYLINE
  5
141
100
AcDbEntity
  8
A0105_Printing
 62
1
100
AcDbPolyline
 90
1
 70
1
 10
1977.613251
 20
956.645376
 30
0.0
  0
SPLINE
  5
142
100
AcDbEntity
  8
A0105_Printing
 62
1
100
AcDbSpline
 70
8
 71
3
 72
8
 73
4
 74
0
 40
0
 40
0
 40
0
 40
0
 40
1
 40
1
 40
1
 40
1
 10
1977.613251
 20
999.165375
 30
0.0
 10
1989.355250
 20
999.165375
 30
0.0
 10
1998.873250
 20
989.647375
 30
0.0
 10
1998.873250
 20
977.905376
 30
0.0
  0
SPLINE
  5
143
100
AcDbEntity
  8
A0105_Printing
 62
1
100
AcDbSpline
 70
8
 71
3
 72
8
 73
4
 74
0
 40
0
 40
0
 40
0
 40
0
 40
1
 40
1
 40
1
 40
1
 10
1998.873250
 20
977.905376
 30
0.0
 10
1998.873250
 20
966.164376
 30
0.0
 10
1989.355250
 20
956.645376
 30
0.0
 10
1977.613251
 20
956.645376
 30
0.0
  0
LWPOLYLINE
  5
144
100
AcDbEntity
  8
A0105_Printing
 62
1
100
AcDbPolyline
 90
1
 70
1
 10
1977.613251
 20
999.165375
 30
0.0
  0
SPLINE
  5
145
100
AcDbEntity
  8
A0105_Printing
 62
1
100
AcDbSpline
 70
8
 71
3
 72
8
 73
4
 74
0
 40
0
 40
0
 40
0
 40
0
 40
1
 40
1
 40
1
 40
1
 10
1942.180251
 20
1034.598374
 30
0.0
 10
1942.180251
 20
1022.857374
 30
0.0
 10
1932.662252
 20
1013.338375
 30
0.0
 10
1920.920252
 20
1013.338375
 30
0.0
  0
SPLINE
  5
146
100
AcDbEntity
  8
A0105_Printing
 62
1
100
AcDbSpline
 70
8
 71
3
 72
8
 73
4
 74
0
 40
0
 40
0
 40
0
 40
0
 40
1
 40
1
 40
1
 40
1
 10
1920.920252
 20
1013.338375
 30
0.0
 10
1909.179252
 20
1013.338375
 30
0.0
 10
1899.661253
 20
1022.857374
 30
0.0
 10
1899.661253
 20
1034.598374
 30
0.0
  0
SPLINE
  5
147
100
AcDbEntity
  8
A0105_Printing
 62
1
100
AcDbSpline
 70
8
 71
3
 72
8
 73
4
 74
0
 40
0
 40
0
 40
0
 40
0
 40
1
 40
1
 40
1
 40
1
 10
1899.661253
 20
1034.598374
 30
0.0
 10
1899.661253
 20
1046.339374
 30
0.0
 10
1909.179252
 20
1055.858374
 30
0.0
 10
1920.920252
 20
1055.858374
 30
0.0
  0
SPLINE
  5
148
100
AcDbEntity
  8
A0105_Printing
 62
1
100
AcDbSpline
 70
8
 71
3
 72
8
 73
4
 74
0
 40
0
 40
0
 40
0
 40
0
 40
1
 40
1
 40
1
 40
1
 10
1920.920252
 20
1055.858374
 30
0.0
 10
1932.662252
 20
1055.858374
 30
0.0
 10
1942.180251
 20
1046.339374
 30
0.0
 10
1942.180251
 20
1034.598374
 30
0.0
  0
LWPOLYLINE
  5
149
100
AcDbEntity
  8
A0105_Printing
 62
1
100
AcDbPolyline
 90
1
 70
1
 10
1977.613251
 20
956.645376
 30
0.0
  0
SPLINE
  5
14a
100
AcDbEntity
  8
A0105_Printing
 62
1
100
AcDbSpline
 70
8
 71
3
 72
8
 73
4
 74
0
 40
0
 40
0
 40
0
 40
0
 40
1
 40
1
 40
1
 40
1
 10
1920.920252
 20
956.645376
 30
0.0
 10
1909.179252
 20
956.645376
 30
0.0
 10
1899.661253
 20
966.164376
 30
0.0
 10
1899.661253
 20
977.905376
 30
0.0
  0
SPLINE
  5
14b
100
AcDbEntity
  8
A0105_Printing
 62
1
100
AcDbSpline
 70
8
 71
3
 72
8
 73
4
 74
0
 40
0
 40
0
 40
0
 40
0
 40
1
 40
1
 40
1
 40
1
 10
1899.661253
 20
977.905376
 30
0.0
 10
1899.661253
 20
989.647375
 30
0.0
 10
1909.179252
 20
999.165375
 30
0.0
 10
1920.920252
 20
999.165375
 30
0.0
  0
SPLINE
  5
14c
100
AcDbEntity
  8
A0105_Printing
 62
1
100
AcDbSpline
 70
8
 71
3
 72
8
 73
4
 74
0
 40
0
 40
0
 40
0
 40
0
 40
1
 40
1
 40
1
 40
1
 10
1920.920252
 20
999.165375
 30
0.0
 10
1932.662252
 20
999.165375
 30
0.0
 10
1942.180251
 20
989.647375
 30
0.0
 10
1942.180251
 20
977.905376
 30
0.0
  0
SPLINE
  5
14d
100
AcDbEntity
  8
A0105_Printing
 62
1
100
AcDbSpline
 70
8
 71
3
 72
8
 73
4
 74
0
 40
0
 40
0
 40
0
 40
0
 40
1
 40
1
 40
1
 40
1
 10
1942.180251
 20
977.905376
 30
0.0
 10
1942.180251
 20
966.164376
 30
0.0
 10
1932.662252
 20
956.645376
 30
0.0
 10
1920.920252
 20
956.645376
 30
0.0
  0
LWPOLYLINE
  5
14e
100
AcDbEntity
  8
A0105_Printing
 62
1
100
AcDbPolyline
 90
1
 70
1
 10
1942.180251
 20
1034.598374
 30
0.0
  0
SPLINE
  5
14f
100
AcDbEntity
  8
A0105_Printing
 62
1
100
AcDbSpline
 70
8
 71
3
 72
8
 73
4
 74
0
 40
0
 40
0
 40
0
 40
0
 40
1
 40
1
 40
1
 40
1
 10
1885.488253
 20
1034.598374
 30
0.0
 10
1885.488253
 20
1022.857374
 30
0.0
 10
1875.969253
 20
1013.338375
 30
0.0
 10
1864.228253
 20
1013.338375
 30
0.0
  0
SPLINE
  5
150
100
AcDbEntity
  8
A0105_Printing
 62
1
100
AcDbSpline
 70
8
 71
3
 72
8
 73
4
 74
0
 40
0
 40
0
 40
0
 40
0
 40
1
 40
1
 40
1
 40
1
 10
1864.228253
 20
1013.338375
 30
0.0
 10
1852.486254
 20
1013.338375
 30
0.0
 10
1842.968254
 20
1022.857374
 30
0.0
 10
1842.968254
 20
1034.598374
 30
0.0
  0
SPLINE
  5
151
100
AcDbEntity
  8
A0105_Printing
 62
1
100
AcDbSpline
 70
8
 71
3
 72
8
 73
4
 74
0
 40
0
 40
0
 40
0
 40
0
 40
1
 40
1
 40
1
 40
1
 10
1842.968254
 20
1034.598374
 30
0.0
 10
1842.968254
 20
1046.339374
 30
0.0
 10
1852.486254
 20
1055.858374
 30
0.0
 10
1864.228253
 20
1055.858374
 30
0.0
  0
SPLINE
  5
152
100
AcDbEntity
  8
A0105_Printing
 62
1
100
AcDbSpline
 70
8
 71
3
 72
8
 73
4
 74
0
 40
0
 40
0
 40
0
 40
0
 40
1
 40
1
 40
1
 40
1
 10
1864.228253
 20
1055.858374
 30
0.0
 10
1875.969253
 20
1055.858374
 30
0.0
 10
1885.488253
 20
1046.339374
 30
0.0
 10
1885.488253
 20
1034.598374
 30
0.0
  0
LWPOLYLINE
  5
153
100
AcDbEntity
  8
A0105_Printing
 62
1
100
AcDbPolyline
 90
1
 70
1
 10
1920.920252
 20
956.645376
 30
0.0
  0
LWPOLYLINE
  5
154
100
AcDbEntity
  8
A0105_Printing
 62
1
100
AcDbPolyline
 90
1
 70
1
 10
1885.488253
 20
1034.598374
 30
0.0
  0
SPLINE
  5
155
100
AcDbEntity
  8
A0105_Printing
 62
1
100
AcDbSpline
 70
8
 71
3
 72
8
 73
4
 74
0
 40
0
 40
0
 40
0
 40
0
 40
1
 40
1
 40
1
 40
1
 10
1864.228253
 20
956.645376
 30
0.0
 10
1852.486254
 20
956.645376
 30
0.0
 10
1842.968254
 20
966.164376
 30
0.0
 10
1842.968254
 20
977.905376
 30
0.0
  0
SPLINE
  5
156
100
AcDbEntity
  8
A0105_Printing
 62
1
100
AcDbSpline
 70
8
 71
3
 72
8
 73
4
 74
0
 40
0
 40
0
 40
0
 40
0
 40
1
 40
1
 40
1
 40
1
 10
1842.968254
 20
977.905376
 30
0.0
 10
1842.968254
 20
989.647375
 30
0.0
 10
1852.486254
 20
999.165375
 30
0.0
 10
1864.228253
 20
999.165375
 30
0.0
  0
SPLINE
  5
157
100
AcDbEntity
  8
A0105_Printing
 62
1
100
AcDbSpline
 70
8
 71
3
 72
8
 73
4
 74
0
 40
0
 40
0
 40
0
 40
0
 40
1
 40
1
 40
1
 40
1
 10
1864.228253
 20
999.165375
 30
0.0
 10
1875.969253
 20
999.165375
 30
0.0
 10
1885.488253
 20
989.647375
 30
0.0
 10
1885.488253
 20
977.905376
 30
0.0
  0
SPLINE
  5
158
100
AcDbEntity
  8
A0105_Printing
 62
1
100
AcDbSpline
 70
8
 71
3
 72
8
 73
4
 74
0
 40
0
 40
0
 40
0
 40
0
 40
1
 40
1
 40
1
 40
1
 10
1885.488253
 20
977.905376
 30
0.0
 10
1885.488253
 20
966.164376
 30
0.0
 10
1875.969253
 20
956.645376
 30
0.0
 10
1864.228253
 20
956.645376
 30
0.0
  0
SPLINE
  5
159
100
AcDbEntity
  8
A0105_Printing
 62
1
100
AcDbSpline
 70
8
 71
3
 72
8
 73
4
 74
0
 40
0
 40
0
 40
0
 40
0
 40
1
 40
1
 40
1
 40
1
 10
1828.795254
 20
1034.598374
 30
0.0
 10
1828.795254
 20
1022.857374
 30
0.0
 10
1819.276255
 20
1013.338375
 30
0.0
 10
1807.535255
 20
1013.338375
 30
0.0
  0
SPLINE
  5
15a
100
AcDbEntity
  8
A0105_Printing
 62
1
100
AcDbSpline
 70
8
 71
3
 72
8
 73
4
 74
0
 40
0
 40
0
 40
0
 40
0
 40
1
 40
1
 40
1
 40
1
 10
1807.535255
 20
1013.338375
 30
0.0
 10
1795.793255
 20
1013.338375
 30
0.0
 10
1786.275255
 20
1022.857374
 30
0.0
 10
1786.275255
 20
1034.598374
 30
0.0
  0
SPLINE
  5
15b
100
AcDbEntity
  8
A0105_Printing
 62
1
100
AcDbSpline
 70
8
 71
3
 72
8
 73
4
 74
0
 40
0
 40
0
 40
0
 40
0
 40
1
 40
1
 40
1
 40
1
 10
1786.275255
 20
1034.598374
 30
0.0
 10
1786.275255
 20
1046.339374
 30
0.0
 10
1795.793255
 20
1055.858374
 30
0.0
 10
1807.535255
 20
1055.858374
 30
0.0
  0
SPLINE
  5
15c
100
AcDbEntity
  8
A0105_Printing
 62
1
100
AcDbSpline
 70
8
 71
3
 72
8
 73
4
 74
0
 40
0
 40
0
 40
0
 40
0
 40
1
 40
1
 40
1
 40
1
 10
1807.535255
 20
1055.858374
 30
0.0
 10
1819.276255
 20
1055.858374
 30
0.0
 10
1828.795254
 20
1046.339374
 30
0.0
 10
1828.795254
 20
1034.598374
 30
0.0
  0
LWPOLYLINE
  5
15d
100
AcDbEntity
  8
A0105_Printing
 62
1
100
AcDbPolyline
 90
2
 70
1
 10
1864.228253
 20
956.645376
 30
0.0
 10
1864.228253
 20
956.645376
 30
0.0
  0
LWPOLYLINE
  5
15e
100
AcDbEntity
  8
A0105_Printing
 62
1
100
AcDbPolyline
 90
1
 70
1
 10
1828.795254
 20
1034.598374
 30
0.0
  0
SPLINE
  5
15f
100
AcDbEntity
  8
A0105_Printing
 62
1
100
AcDbSpline
 70
8
 71
3
 72
8
 73
4
 74
0
 40
0
 40
0
 40
0
 40
0
 40
1
 40
1
 40
1
 40
1
 10
1807.535255
 20
956.645376
 30
0.0
 10
1795.793255
 20
956.645376
 30
0.0
 10
1786.275255
 20
966.164376
 30
0.0
 10
1786.275255
 20
977.905376
 30
0.0
  0
SPLINE
  5
160
100
AcDbEntity
  8
A0105_Printing
 62
1
100
AcDbSpline
 70
8
 71
3
 72
8
 73
4
 74
0
 40
0
 40
0
 40
0
 40
0
 40
1
 40
1
 40
1
 40
1
 10
1786.275255
 20
977.905376
 30
0.0
 10
1786.275255
 20
989.647375
 30
0.0
 10
1795.793255
 20
999.165375
 30
0.0
 10
1807.535255
 20
999.165375
 30
0.0
  0
SPLINE
  5
161
100
AcDbEntity
  8
A0105_Printing
 62
1
100
AcDbSpline
 70
8
 71
3
 72
8
 73
4
 74
0
 40
0
 40
0
 40
0
 40
0
 40
1
 40
1
 40
1
 40
1
 10
1807.535255
 20
999.165375
 30
0.0
 10
1819.276255
 20
999.165375
 30
0.0
 10
1828.795254
 20
989.647375
 30
0.0
 10
1828.795254
 20
977.905376
 30
0.0
  0
SPLINE
  5
162
100
AcDbEntity
  8
A0105_Printing
 62
1
100
AcDbSpline
 70
8
 71
3
 72
8
 73
4
 74
0
 40
0
 40
0
 40
0
 40
0
 40
1
 40
1
 40
1
 40
1
 10
1828.795254
 20
977.905376
 30
0.0
 10
1828.795254
 20
966.164376
 30
0.0
 10
1819.276255
 20
956.645376
 30
0.0
 10
1807.535255
 20
956.645376
 30
0.0
  0
SPLINE
  5
163
100
AcDbEntity
  8
A0105_Printing
 62
1
100
AcDbSpline
 70
8
 71
3
 72
8
 73
4
 74
0
 40
0
 40
0
 40
0
 40
0
 40
1
 40
1
 40
1
 40
1
 10
1772.102256
 20
1034.598374
 30
0.0
 10
1772.102256
 20
1022.857374
 30
0.0
 10
1762.583256
 20
1013.338375
 30
0.0
 10
1750.842256
 20
1013.338375
 30
0.0
  0
SPLINE
  5
164
100
AcDbEntity
  8
A0105_Printing
 62
1
100
AcDbSpline
 70
8
 71
3
 72
8
 73
4
 74
0
 40
0
 40
0
 40
0
 40
0
 40
1
 40
1
 40
1
 40
1
 10
1750.842256
 20
1013.338375
 30
0.0
 10
1739.100257
 20
1013.338375
 30
0.0
 10
1729.582257
 20
1022.857374
 30
0.0
 10
1729.582257
 20
1034.598374
 30
0.0
  0
SPLINE
  5
165
100
AcDbEntity
  8
A0105_Printing
 62
1
100
AcDbSpline
 70
8
 71
3
 72
8
 73
4
 74
0
 40
0
 40
0
 40
0
 40
0
 40
1
 40
1
 40
1
 40
1
 10
1729.582257
 20
1034.598374
 30
0.0
 10
1729.582257
 20
1046.339374
 30
0.0
 10
1739.100257
 20
1055.858374
 30
0.0
 10
1750.842256
 20
1055.858374
 30
0.0
  0
SPLINE
  5
166
100
AcDbEntity
  8
A0105_Printing
 62
1
100
AcDbSpline
 70
8
 71
3
 72
8
 73
4
 74
0
 40
0
 40
0
 40
0
 40
0
 40
1
 40
1
 40
1
 40
1
 10
1750.842256
 20
1055.858374
 30
0.0
 10
1762.583256
 20
1055.858374
 30
0.0
 10
1772.102256
 20
1046.339374
 30
0.0
 10
1772.102256
 20
1034.598374
 30
0.0
  0
LWPOLYLINE
  5
167
100
AcDbEntity
  8
A0105_Printing
 62
1
100
AcDbPolyline
 90
2
 70
1
 10
1807.535255
 20
956.645376
 30
0.0
 10
1807.535255
 20
956.645376
 30
0.0
  0
SPLINE
  5
168
100
AcDbEntity
  8
A0105_Printing
 62
1
100
AcDbSpline
 70
8
 71
3
 72
8
 73
4
 74
0
 40
0
 40
0
 40
0
 40
0
 40
1
 40
1
 40
1
 40
1
 10
1750.842256
 20
956.645376
 30
0.0
 10
1739.100257
 20
956.645376
 30
0.0
 10
1729.582257
 20
966.164376
 30
0.0
 10
1729.582257
 20
977.905376
 30
0.0
  0
SPLINE
  5
169
100
AcDbEntity
  8
A0105_Printing
 62
1
100
AcDbSpline
 70
8
 71
3
 72
8
 73
4
 74
0
 40
0
 40
0
 40
0
 40
0
 40
1
 40
1
 40
1
 40
1
 10
1729.582257
 20
977.905376
 30
0.0
 10
1729.582257
 20
989.647375
 30
0.0
 10
1739.100257
 20
999.165375
 30
0.0
 10
1750.842256
 20
999.165375
 30
0.0
  0
SPLINE
  5
16a
100
AcDbEntity
  8
A0105_Printing
 62
1
100
AcDbSpline
 70
8
 71
3
 72
8
 73
4
 74
0
 40
0
 40
0
 40
0
 40
0
 40
1
 40
1
 40
1
 40
1
 10
1750.842256
 20
999.165375
 30
0.0
 10
1762.583256
 20
999.165375
 30
0.0
 10
1772.102256
 20
989.647375
 30
0.0
 10
1772.102256
 20
977.905376
 30
0.0
  0
SPLINE
  5
16b
100
AcDbEntity
  8
A0105_Printing
 62
1
100
AcDbSpline
 70
8
 71
3
 72
8
 73
4
 74
0
 40
0
 40
0
 40
0
 40
0
 40
1
 40
1
 40
1
 40
1
 10
1772.102256
 20
977.905376
 30
0.0
 10
1772.102256
 20
966.164376
 30
0.0
 10
1762.583256
 20
956.645376
 30
0.0
 10
1750.842256
 20
956.645376
 30
0.0
  0
LWPOLYLINE
  5
16c
100
AcDbEntity
  8
A0105_Printing
 62
1
100
AcDbPolyline
 90
1
 70
1
 10
1772.102256
 20
1034.598374
 30
0.0
  0
SPLINE
  5
16d
100
AcDbEntity
  8
A0105_Printing
 62
1
100
AcDbSpline
 70
8
 71
3
 72
8
 73
4
 74
0
 40
0
 40
0
 40
0
 40
0
 40
1
 40
1
 40
1
 40
1
 10
1715.409257
 20
1034.598374
 30
0.0
 10
1715.409257
 20
1022.857374
 30
0.0
 10
1705.890257
 20
1013.338375
 30
0.0
 10
1694.149258
 20
1013.338375
 30
0.0
  0
SPLINE
  5
16e
100
AcDbEntity
  8
A0105_Printing
 62
1
100
AcDbSpline
 70
8
 71
3
 72
8
 73
4
 74
0
 40
0
 40
0
 40
0
 40
0
 40
1
 40
1
 40
1
 40
1
 10
1694.149258
 20
1013.338375
 30
0.0
 10
1682.407258
 20
1013.338375
 30
0.0
 10
1672.889258
 20
1022.857374
 30
0.0
 10
1672.889258
 20
1034.598374
 30
0.0
  0
SPLINE
  5
16f
100
AcDbEntity
  8
A0105_Printing
 62
1
100
AcDbSpline
 70
8
 71
3
 72
8
 73
4
 74
0
 40
0
 40
0
 40
0
 40
0
 40
1
 40
1
 40
1
 40
1
 10
1672.889258
 20
1034.598374
 30
0.0
 10
1672.889258
 20
1046.339374
 30
0.0
 10
1682.407258
 20
1055.858374
 30
0.0
 10
1694.149258
 20
1055.858374
 30
0.0
  0
SPLINE
  5
170
100
AcDbEntity
  8
A0105_Printing
 62
1
100
AcDbSpline
 70
8
 71
3
 72
8
 73
4
 74
0
 40
0
 40
0
 40
0
 40
0
 40
1
 40
1
 40
1
 40
1
 10
1694.149258
 20
1055.858374
 30
0.0
 10
1705.890257
 20
1055.858374
 30
0.0
 10
1715.409257
 20
1046.339374
 30
0.0
 10
1715.409257
 20
1034.598374
 30
0.0
  0
LWPOLYLINE
  5
171
100
AcDbEntity
  8
A0105_Printing
 62
1
100
AcDbPolyline
 90
1
 70
1
 10
1750.842256
 20
956.645376
 30
0.0
  0
LWPOLYLINE
  5
172
100
AcDbEntity
  8
A0105_Printing
 62
1
100
AcDbPolyline
 90
1
 70
1
 10
1715.409257
 20
1034.598374
 30
0.0
  0
SPLINE
  5
173
100
AcDbEntity
  8
A0105_Printing
 62
1
100
AcDbSpline
 70
8
 71
3
 72
8
 73
4
 74
0
 40
0
 40
0
 40
0
 40
0
 40
1
 40
1
 40
1
 40
1
 10
1694.149258
 20
956.645376
 30
0.0
 10
1682.407258
 20
956.645376
 30
0.0
 10
1672.889258
 20
966.164376
 30
0.0
 10
1672.889258
 20
977.905376
 30
0.0
  0
SPLINE
  5
174
100
AcDbEntity
  8
A0105_Printing
 62
1
100
AcDbSpline
 70
8
 71
3
 72
8
 73
4
 74
0
 40
0
 40
0
 40
0
 40
0
 40
1
 40
1
 40
1
 40
1
 10
1672.889258
 20
977.905376
 30
0.0
 10
1672.889258
 20
989.647375
 30
0.0
 10
1682.407258
 20
999.165375
 30
0.0
 10
1694.149258
 20
999.165375
 30
0.0
  0
SPLINE
  5
175
100
AcDbEntity
  8
A0105_Printing
 62
1
100
AcDbSpline
 70
8
 71
3
 72
8
 73
4
 74
0
 40
0
 40
0
 40
0
 40
0
 40
1
 40
1
 40
1
 40
1
 10
1694.149258
 20
999.165375
 30
0.0
 10
1705.890257
 20
999.165375
 30
0.0
 10
1715.409257
 20
989.647375
 30
0.0
 10
1715.409257
 20
977.905376
 30
0.0
  0
SPLINE
  5
176
100
AcDbEntity
  8
A0105_Printing
 62
1
100
AcDbSpline
 70
8
 71
3
 72
8
 73
4
 74
0
 40
0
 40
0
 40
0
 40
0
 40
1
 40
1
 40
1
 40
1
 10
1715.409257
 20
977.905376
 30
0.0
 10
1715.409257
 20
966.164376
 30
0.0
 10
1705.890257
 20
956.645376
 30
0.0
 10
1694.149258
 20
956.645376
 30
0.0
  0
SPLINE
  5
177
100
AcDbEntity
  8
A0105_Printing
 62
1
100
AcDbSpline
 70
8
 71
3
 72
8
 73
4
 74
0
 40
0
 40
0
 40
0
 40
0
 40
1
 40
1
 40
1
 40
1
 10
1658.716259
 20
1034.598374
 30
0.0
 10
1658.716259
 20
1022.857374
 30
0.0
 10
1649.197259
 20
1013.338375
 30
0.0
 10
1637.456259
 20
1013.338375
 30
0.0
  0
LWPOLYLINE
  5
178
100
AcDbEntity
  8
A0105_Printing
 62
1
100
AcDbPolyline
 90
2
 70
1
 10
1694.149258
 20
956.645376
 30
0.0
 10
1694.149258
 20
956.645376
 30
0.0
  0
SPLINE
  5
179
100
AcDbEntity
  8
A0105_Printing
 62
1
100
AcDbSpline
 70
8
 71
3
 72
8
 73
4
 74
0
 40
0
 40
0
 40
0
 40
0
 40
1
 40
1
 40
1
 40
1
 10
1637.456259
 20
1013.338375
 30
0.0
 10
1625.714259
 20
1013.338375
 30
0.0
 10
1616.196260
 20
1022.857374
 30
0.0
 10
1616.196260
 20
1034.598374
 30
0.0
  0
SPLINE
  5
17a
100
AcDbEntity
  8
A0105_Printing
 62
1
100
AcDbSpline
 70
8
 71
3
 72
8
 73
4
 74
0
 40
0
 40
0
 40
0
 40
0
 40
1
 40
1
 40
1
 40
1
 10
1616.196260
 20
1034.598374
 30
0.0
 10
1616.196260
 20
1046.339374
 30
0.0
 10
1625.714259
 20
1055.858374
 30
0.0
 10
1637.456259
 20
1055.858374
 30
0.0
  0
LWPOLYLINE
  5
17b
100
AcDbEntity
  8
A0105_Printing
 62
1
100
AcDbPolyline
 90
1
 70
1
 10
1637.456259
 20
1013.338375
 30
0.0
  0
SPLINE
  5
17c
100
AcDbEntity
  8
A0105_Printing
 62
1
100
AcDbSpline
 70
8
 71
3
 72
8
 73
4
 74
0
 40
0
 40
0
 40
0
 40
0
 40
1
 40
1
 40
1
 40
1
 10
1637.456259
 20
1055.858374
 30
0.0
 10
1649.197259
 20
1055.858374
 30
0.0
 10
1658.716259
 20
1046.339374
 30
0.0
 10
1658.716259
 20
1034.598374
 30
0.0
  0
LWPOLYLINE
  5
17d
100
AcDbEntity
  8
A0105_Printing
 62
1
100
AcDbPolyline
 90
1
 70
1
 10
1637.456259
 20
1055.858374
 30
0.0
  0
LWPOLYLINE
  5
17e
100
AcDbEntity
  8
A0105_Printing
 62
1
100
AcDbPolyline
 90
1
 70
1
 10
1658.716259
 20
1034.598374
 30
0.0
  0
SPLINE
  5
17f
100
AcDbEntity
  8
A0105_Printing
 62
1
100
AcDbSpline
 70
8
 71
3
 72
8
 73
4
 74
0
 40
0
 40
0
 40
0
 40
0
 40
1
 40
1
 40
1
 40
1
 10
1637.456259
 20
956.645376
 30
0.0
 10
1625.714259
 20
956.645376
 30
0.0
 10
1616.196260
 20
966.164376
 30
0.0
 10
1616.196260
 20
977.905376
 30
0.0
  0
SPLINE
  5
180
100
AcDbEntity
  8
A0105_Printing
 62
1
100
AcDbSpline
 70
8
 71
3
 72
8
 73
4
 74
0
 40
0
 40
0
 40
0
 40
0
 40
1
 40
1
 40
1
 40
1
 10
1616.196260
 20
977.905376
 30
0.0
 10
1616.196260
 20
989.647375
 30
0.0
 10
1625.714259
 20
999.165375
 30
0.0
 10
1637.456259
 20
999.165375
 30
0.0
  0
LWPOLYLINE
  5
181
100
AcDbEntity
  8
A0105_Printing
 62
1
100
AcDbPolyline
 90
1
 70
1
 10
1637.456259
 20
956.645376
 30
0.0
  0
SPLINE
  5
182
100
AcDbEntity
  8
A0105_Printing
 62
1
100
AcDbSpline
 70
8
 71
3
 72
8
 73
4
 74
0
 40
0
 40
0
 40
0
 40
0
 40
1
 40
1
 40
1
 40
1
 10
1637.456259
 20
999.165375
 30
0.0
 10
1649.197259
 20
999.165375
 30
0.0
 10
1658.716259
 20
989.647375
 30
0.0
 10
1658.716259
 20
977.905376
 30
0.0
  0
SPLINE
  5
183
100
AcDbEntity
  8
A0105_Printing
 62
1
100
AcDbSpline
 70
8
 71
3
 72
8
 73
4
 74
0
 40
0
 40
0
 40
0
 40
0
 40
1
 40
1
 40
1
 40
1
 10
1658.716259
 20
977.905376
 30
0.0
 10
1658.716259
 20
966.164376
 30
0.0
 10
1649.197259
 20
956.645376
 30
0.0
 10
1637.456259
 20
956.645376
 30
0.0
  0
LWPOLYLINE
  5
184
100
AcDbEntity
  8
A0105_Printing
 62
1
100
AcDbPolyline
 90
1
 70
1
 10
1637.456259
 20
999.165375
 30
0.0
  0
SPLINE
  5
185
100
AcDbEntity
  8
A0105_Printing
 62
1
100
AcDbSpline
 70
8
 71
3
 72
8
 73
4
 74
0
 40
0
 40
0
 40
0
 40
0
 40
1
 40
1
 40
1
 40
1
 10
1602.023260
 20
1034.598374
 30
0.0
 10
1602.023260
 20
1022.857374
 30
0.0
 10
1592.505260
 20
1013.338375
 30
0.0
 10
1580.763260
 20
1013.338375
 30
0.0
  0
SPLINE
  5
186
100
AcDbEntity
  8
A0105_Printing
 62
1
100
AcDbSpline
 70
8
 71
3
 72
8
 73
4
 74
0
 40
0
 40
0
 40
0
 40
0
 40
1
 40
1
 40
1
 40
1
 10
1580.763260
 20
1013.338375
 30
0.0
 10
1569.022261
 20
1013.338375
 30
0.0
 10
1559.503261
 20
1022.857374
 30
0.0
 10
1559.503261
 20
1034.598374
 30
0.0
  0
SPLINE
  5
187
100
AcDbEntity
  8
A0105_Printing
 62
1
100
AcDbSpline
 70
8
 71
3
 72
8
 73
4
 74
0
 40
0
 40
0
 40
0
 40
0
 40
1
 40
1
 40
1
 40
1
 10
1559.503261
 20
1034.598374
 30
0.0
 10
1559.503261
 20
1046.339374
 30
0.0
 10
1569.022261
 20
1055.858374
 30
0.0
 10
1580.763260
 20
1055.858374
 30
0.0
  0
SPLINE
  5
188
100
AcDbEntity
  8
A0105_Printing
 62
1
100
AcDbSpline
 70
8
 71
3
 72
8
 73
4
 74
0
 40
0
 40
0
 40
0
 40
0
 40
1
 40
1
 40
1
 40
1
 10
1580.763260
 20
1055.858374
 30
0.0
 10
1592.505260
 20
1055.858374
 30
0.0
 10
1602.023260
 20
1046.339374
 30
0.0
 10
1602.023260
 20
1034.598374
 30
0.0
  0
LWPOLYLINE
  5
189
100
AcDbEntity
  8
A0105_Printing
 62
1
100
AcDbPolyline
 90
1
 70
1
 10
1637.456259
 20
956.645376
 30
0.0
  0
SPLINE
  5
18a
100
AcDbEntity
  8
A0105_Printing
 62
1
100
AcDbSpline
 70
8
 71
3
 72
8
 73
4
 74
0
 40
0
 40
0
 40
0
 40
0
 40
1
 40
1
 40
1
 40
1
 10
1580.763260
 20
956.645376
 30
0.0
 10
1569.022261
 20
956.645376
 30
0.0
 10
1559.503261
 20
966.164376
 30
0.0
 10
1559.503261
 20
977.905376
 30
0.0
  0
SPLINE
  5
18b
100
AcDbEntity
  8
A0105_Printing
 62
1
100
AcDbSpline
 70
8
 71
3
 72
8
 73
4
 74
0
 40
0
 40
0
 40
0
 40
0
 40
1
 40
1
 40
1
 40
1
 10
1559.503261
 20
977.905376
 30
0.0
 10
1559.503261
 20
989.647375
 30
0.0
 10
1569.022261
 20
999.165375
 30
0.0
 10
1580.763260
 20
999.165375
 30
0.0
  0
SPLINE
  5
18c
100
AcDbEntity
  8
A0105_Printing
 62
1
100
AcDbSpline
 70
8
 71
3
 72
8
 73
4
 74
0
 40
0
 40
0
 40
0
 40
0
 40
1
 40
1
 40
1
 40
1
 10
1580.763260
 20
999.165375
 30
0.0
 10
1592.505260
 20
999.165375
 30
0.0
 10
1602.023260
 20
989.647375
 30
0.0
 10
1602.023260
 20
977.905376
 30
0.0
  0
SPLINE
  5
18d
100
AcDbEntity
  8
A0105_Printing
 62
1
100
AcDbSpline
 70
8
 71
3
 72
8
 73
4
 74
0
 40
0
 40
0
 40
0
 40
0
 40
1
 40
1
 40
1
 40
1
 10
1602.023260
 20
977.905376
 30
0.0
 10
1602.023260
 20
966.164376
 30
0.0
 10
1592.505260
 20
956.645376
 30
0.0
 10
1580.763260
 20
956.645376
 30
0.0
  0
LWPOLYLINE
  5
18e
100
AcDbEntity
  8
A0105_Printing
 62
1
100
AcDbPolyline
 90
1
 70
1
 10
1602.023260
 20
1034.598374
 30
0.0
  0
LWPOLYLINE
  5
18f
100
AcDbEntity
  8
A0105_Printing
 62
1
100
AcDbPolyline
 90
1
 70
1
 10
1580.763260
 20
956.645376
 30
0.0
  0
SPLINE
  5
190
100
AcDbEntity
  8
A0105_Printing
 62
1
100
AcDbSpline
 70
8
 71
3
 72
8
 73
4
 74
0
 40
0
 40
0
 40
0
 40
0
 40
1
 40
1
 40
1
 40
1
 10
2112.259247
 20
892.866078
 30
0.0
 10
2112.259247
 20
881.125078
 30
0.0
 10
2102.741247
 20
871.606078
 30
0.0
 10
2090.999248
 20
871.606078
 30
0.0
  0
SPLINE
  5
191
100
AcDbEntity
  8
A0105_Printing
 62
1
100
AcDbSpline
 70
8
 71
3
 72
8
 73
4
 74
0
 40
0
 40
0
 40
0
 40
0
 40
1
 40
1
 40
1
 40
1
 10
2090.999248
 20
871.606078
 30
0.0
 10
2079.258248
 20
871.606078
 30
0.0
 10
2069.739248
 20
881.125078
 30
0.0
 10
2069.739248
 20
892.866078
 30
0.0
  0
LWPOLYLINE
  5
192
100
AcDbEntity
  8
A0105_Printing
 62
1
100
AcDbPolyline
 90
24
 70
1
 10
2126.432247
 20
1070.031373
 30
0.0
 10
1545.330261
 20
1070.031373
 30
0.0
 10
1545.330261
 20
1034.598374
 30
0.0
 10
1531.157262
 20
1034.598374
 30
0.0
 10
1531.157262
 20
977.905376
 30
0.0
 10
1545.330261
 20
977.905376
 30
0.0
 10
1545.330261
 20
942.472376
 30
0.0
 10
1587.850260
 20
942.472376
 30
0.0
 10
1587.850260
 20
928.299377
 30
0.0
 10
1672.889258
 20
928.299377
 30
0.0
 10
1672.889258
 20
942.472376
 30
0.0
 10
1793.362255
 20
942.472376
 30
0.0
 10
1793.362255
 20
928.299377
 30
0.0
 10
1878.401253
 20
928.299377
 30
0.0
 10
1878.401253
 20
942.472376
 30
0.0
 10
1998.873250
 20
942.472376
 30
0.0
 10
1998.873250
 20
928.299377
 30
0.0
 10
2083.913248
 20
928.299377
 30
0.0
 10
2083.913248
 20
942.472376
 30
0.0
 10
2126.432247
 20
942.472376
 30
0.0
 10
2126.432247
 20
977.905376
 30
0.0
 10
2140.606246
 20
977.905376
 30
0.0
 10
2140.606246
 20
1034.598374
 30
0.0
 10
2126.432247
 20
1034.598374
 30
0.0
  0
SPLINE
  5
193
100
AcDbEntity
  8
A0105_Printing
 62
1
100
AcDbSpline
 70
8
 71
3
 72
8
 73
4
 74
0
 40
0
 40
0
 40
0
 40
0
 40
1
 40
1
 40
1
 40
1
 10
2069.739248
 20
892.866078
 30
0.0
 10
2069.739248
 20
904.608077
 30
0.0
 10
2079.258248
 20
914.126077
 30
0.0
 10
2090.999248
 20
914.126077
 30
0.0
  0
SPLINE
  5
194
100
AcDbEntity
  8
A0105_Printing
 62
1
100
AcDbSpline
 70
8
 71
3
 72
8
 73
4
 74
0
 40
0
 40
0
 40
0
 40
0
 40
1
 40
1
 40
1
 40
1
 10
2090.999248
 20
914.126077
 30
0.0
 10
2102.741247
 20
914.126077
 30
0.0
 10
2112.259247
 20
904.608077
 30
0.0
 10
2112.259247
 20
892.866078
 30
0.0
  0
LWPOLYLINE
  5
195
100
AcDbEntity
  8
A0105_Printing
 62
1
100
AcDbPolyline
 90
1
 70
1
 10
2069.739248
 20
892.866078
 30
0.0
  0
SPLINE
  5
196
100
AcDbEntity
  8
A0105_Printing
 62
1
100
AcDbSpline
 70
8
 71
3
 72
8
 73
4
 74
0
 40
0
 40
0
 40
0
 40
0
 40
1
 40
1
 40
1
 40
1
 10
2090.999248
 20
814.913080
 30
0.0
 10
2079.258248
 20
814.913080
 30
0.0
 10
2069.739248
 20
824.432079
 30
0.0
 10
2069.739248
 20
836.173079
 30
0.0
  0
SPLINE
  5
197
100
AcDbEntity
  8
A0105_Printing
 62
1
100
AcDbSpline
 70
8
 71
3
 72
8
 73
4
 74
0
 40
0
 40
0
 40
0
 40
0
 40
1
 40
1
 40
1
 40
1
 10
2069.739248
 20
836.173079
 30
0.0
 10
2069.739248
 20
847.915079
 30
0.0
 10
2079.258248
 20
857.433079
 30
0.0
 10
2090.999248
 20
857.433079
 30
0.0
  0
SPLINE
  5
198
100
AcDbEntity
  8
A0105_Printing
 62
1
100
AcDbSpline
 70
8
 71
3
 72
8
 73
4
 74
0
 40
0
 40
0
 40
0
 40
0
 40
1
 40
1
 40
1
 40
1
 10
2090.999248
 20
857.433079
 30
0.0
 10
2102.741247
 20
857.433079
 30
0.0
 10
2112.259247
 20
847.915079
 30
0.0
 10
2112.259247
 20
836.173079
 30
0.0
  0
SPLINE
  5
199
100
AcDbEntity
  8
A0105_Printing
 62
1
100
AcDbSpline
 70
8
 71
3
 72
8
 73
4
 74
0
 40
0
 40
0
 40
0
 40
0
 40
1
 40
1
 40
1
 40
1
 10
2112.259247
 20
836.173079
 30
0.0
 10
2112.259247
 20
824.432079
 30
0.0
 10
2102.741247
 20
814.913080
 30
0.0
 10
2090.999248
 20
814.913080
 30
0.0
  0
LWPOLYLINE
  5
19a
100
AcDbEntity
  8
A0105_Printing
 62
1
100
AcDbPolyline
 90
1
 70
1
 10
2112.259247
 20
892.866078
 30
0.0
  0
SPLINE
  5
19b
100
AcDbEntity
  8
A0105_Printing
 62
1
100
AcDbSpline
 70
8
 71
3
 72
8
 73
4
 74
0
 40
0
 40
0
 40
0
 40
0
 40
1
 40
1
 40
1
 40
1
 10
2055.566249
 20
892.866078
 30
0.0
 10
2055.566249
 20
881.125078
 30
0.0
 10
2046.048249
 20
871.606078
 30
0.0
 10
2034.306249
 20
871.606078
 30
0.0
  0
LWPOLYLINE
  5
19c
100
AcDbEntity
  8
A0105_Printing
 62
1
100
AcDbPolyline
 90
1
 70
1
 10
2090.999248
 20
814.913080
 30
0.0
  0
SPLINE
  5
19d
100
AcDbEntity
  8
A0105_Printing
 62
1
100
AcDbSpline
 70
8
 71
3
 72
8
 73
4
 74
0
 40
0
 40
0
 40
0
 40
0
 40
1
 40
1
 40
1
 40
1
 10
2034.306249
 20
871.606078
 30
0.0
 10
2022.565249
 20
871.606078
 30
0.0
 10
2013.046250
 20
881.125078
 30
0.0
 10
2013.046250
 20
892.866078
 30
0.0
  0
LWPOLYLINE
  5
19e
100
AcDbEntity
  8
A0105_Printing
 62
1
100
AcDbPolyline
 90
1
 70
1
 10
2034.306249
 20
871.606078
 30
0.0
  0
SPLINE
  5
19f
100
AcDbEntity
  8
A0105_Printing
 62
1
100
AcDbSpline
 70
8
 71
3
 72
8
 73
4
 74
0
 40
0
 40
0
 40
0
 40
0
 40
1
 40
1
 40
1
 40
1
 10
2013.046250
 20
892.866078
 30
0.0
 10
2013.046250
 20
904.608077
 30
0.0
 10
2022.565249
 20
914.126077
 30
0.0
 10
2034.306249
 20
914.126077
 30
0.0
  0
LWPOLYLINE
  5
1a0
100
AcDbEntity
  8
A0105_Printing
 62
1
100
AcDbPolyline
 90
1
 70
1
 10
2013.046250
 20
892.866078
 30
0.0
  0
SPLINE
  5
1a1
100
AcDbEntity
  8
A0105_Printing
 62
1
100
AcDbSpline
 70
8
 71
3
 72
8
 73
4
 74
0
 40
0
 40
0
 40
0
 40
0
 40
1
 40
1
 40
1
 40
1
 10
2034.306249
 20
914.126077
 30
0.0
 10
2046.048249
 20
914.126077
 30
0.0
 10
2055.566249
 20
904.608077
 30
0.0
 10
2055.566249
 20
892.866078
 30
0.0
  0
LWPOLYLINE
  5
1a2
100
AcDbEntity
  8
A0105_Printing
 62
1
100
AcDbPolyline
 90
1
 70
1
 10
2034.306249
 20
914.126077
 30
0.0
  0
LWPOLYLINE
  5
1a3
100
AcDbEntity
  8
A0105_Printing
 62
1
100
AcDbPolyline
 90
1
 70
1
 10
2055.566249
 20
892.866078
 30
0.0
  0
SPLINE
  5
1a4
100
AcDbEntity
  8
A0105_Printing
 62
1
100
AcDbSpline
 70
8
 71
3
 72
8
 73
4
 74
0
 40
0
 40
0
 40
0
 40
0
 40
1
 40
1
 40
1
 40
1
 10
2034.306249
 20
814.913080
 30
0.0
 10
2022.565249
 20
814.913080
 30
0.0
 10
2013.046250
 20
824.432079
 30
0.0
 10
2013.046250
 20
836.173079
 30
0.0
  0
SPLINE
  5
1a5
100
AcDbEntity
  8
A0105_Printing
 62
1
100
AcDbSpline
 70
8
 71
3
 72
8
 73
4
 74
0
 40
0
 40
0
 40
0
 40
0
 40
1
 40
1
 40
1
 40
1
 10
2013.046250
 20
836.173079
 30
0.0
 10
2013.046250
 20
847.915079
 30
0.0
 10
2022.565249
 20
857.433079
 30
0.0
 10
2034.306249
 20
857.433079
 30
0.0
  0
LWPOLYLINE
  5
1a6
100
AcDbEntity
  8
A0105_Printing
 62
1
100
AcDbPolyline
 90
1
 70
1
 10
2034.306249
 20
814.913080
 30
0.0
  0
SPLINE
  5
1a7
100
AcDbEntity
  8
A0105_Printing
 62
1
100
AcDbSpline
 70
8
 71
3
 72
8
 73
4
 74
0
 40
0
 40
0
 40
0
 40
0
 40
1
 40
1
 40
1
 40
1
 10
2034.306249
 20
857.433079
 30
0.0
 10
2046.048249
 20
857.433079
 30
0.0
 10
2055.566249
 20
847.915079
 30
0.0
 10
2055.566249
 20
836.173079
 30
0.0
  0
SPLINE
  5
1a8
100
AcDbEntity
  8
A0105_Printing
 62
1
100
AcDbSpline
 70
8
 71
3
 72
8
 73
4
 74
0
 40
0
 40
0
 40
0
 40
0
 40
1
 40
1
 40
1
 40
1
 10
2055.566249
 20
836.173079
 30
0.0
 10
2055.566249
 20
824.432079
 30
0.0
 10
2046.048249
 20
814.913080
 30
0.0
 10
2034.306249
 20
814.913080
 30
0.0
  0
LWPOLYLINE
  5
1a9
100
AcDbEntity
  8
A0105_Printing
 62
1
100
AcDbPolyline
 90
1
 70
1
 10
2034.306249
 20
857.433079
 30
0.0
  0
SPLINE
  5
1aa
100
AcDbEntity
  8
A0105_Printing
 62
1
100
AcDbSpline
 70
8
 71
3
 72
8
 73
4
 74
0
 40
0
 40
0
 40
0
 40
0
 40
1
 40
1
 40
1
 40
1
 10
1998.873250
 20
892.866078
 30
0.0
 10
1998.873250
 20
881.125078
 30
0.0
 10
1989.355250
 20
871.606078
 30
0.0
 10
1977.613251
 20
871.606078
 30
0.0
  0
LWPOLYLINE
  5
1ab
100
AcDbEntity
  8
A0105_Printing
 62
1
100
AcDbPolyline
 90
1
 70
1
 10
2034.306249
 20
814.913080
 30
0.0
  0
SPLINE
  5
1ac
100
AcDbEntity
  8
A0105_Printing
 62
1
100
AcDbSpline
 70
8
 71
3
 72
8
 73
4
 74
0
 40
0
 40
0
 40
0
 40
0
 40
1
 40
1
 40
1
 40
1
 10
1977.613251
 20
871.606078
 30
0.0
 10
1965.872251
 20
871.606078
 30
0.0
 10
1956.354251
 20
881.125078
 30
0.0
 10
1956.354251
 20
892.866078
 30
0.0
  0
LWPOLYLINE
  5
1ad
100
AcDbEntity
  8
A0105_Printing
 62
1
100
AcDbPolyline
 90
1
 70
1
 10
1977.613251
 20
871.606078
 30
0.0
  0
SPLINE
  5
1ae
100
AcDbEntity
  8
A0105_Printing
 62
1
100
AcDbSpline
 70
8
 71
3
 72
8
 73
4
 74
0
 40
0
 40
0
 40
0
 40
0
 40
1
 40
1
 40
1
 40
1
 10
1956.354251
 20
892.866078
 30
0.0
 10
1956.354251
 20
904.608077
 30
0.0
 10
1965.872251
 20
914.126077
 30
0.0
 10
1977.613251
 20
914.126077
 30
0.0
  0
LWPOLYLINE
  5
1af
100
AcDbEntity
  8
A0105_Printing
 62
1
100
AcDbPolyline
 90
1
 70
1
 10
1956.354251
 20
892.866078
 30
0.0
  0
SPLINE
  5
1b0
100
AcDbEntity
  8
A0105_Printing
 62
1
100
AcDbSpline
 70
8
 71
3
 72
8
 73
4
 74
0
 40
0
 40
0
 40
0
 40
0
 40
1
 40
1
 40
1
 40
1
 10
1977.613251
 20
914.126077
 30
0.0
 10
1989.355250
 20
914.126077
 30
0.0
 10
1998.873250
 20
904.608077
 30
0.0
 10
1998.873250
 20
892.866078
 30
0.0
  0
LWPOLYLINE
  5
1b1
100
AcDbEntity
  8
A0105_Printing
 62
1
100
AcDbPolyline
 90
1
 70
1
 10
1977.613251
 20
914.126077
 30
0.0
  0
LWPOLYLINE
  5
1b2
100
AcDbEntity
  8
A0105_Printing
 62
1
100
AcDbPolyline
 90
1
 70
1
 10
1998.873250
 20
892.866078
 30
0.0
  0
SPLINE
  5
1b3
100
AcDbEntity
  8
A0105_Printing
 62
1
100
AcDbSpline
 70
8
 71
3
 72
8
 73
4
 74
0
 40
0
 40
0
 40
0
 40
0
 40
1
 40
1
 40
1
 40
1
 10
1977.613251
 20
814.913080
 30
0.0
 10
1965.872251
 20
814.913080
 30
0.0
 10
1956.354251
 20
824.432079
 30
0.0
 10
1956.354251
 20
836.173079
 30
0.0
  0
SPLINE
  5
1b4
100
AcDbEntity
  8
A0105_Printing
 62
1
100
AcDbSpline
 70
8
 71
3
 72
8
 73
4
 74
0
 40
0
 40
0
 40
0
 40
0
 40
1
 40
1
 40
1
 40
1
 10
1956.354251
 20
836.173079
 30
0.0
 10
1956.354251
 20
847.915079
 30
0.0
 10
1965.872251
 20
857.433079
 30
0.0
 10
1977.613251
 20
857.433079
 30
0.0
  0
LWPOLYLINE
  5
1b5
100
AcDbEntity
  8
A0105_Printing
 62
1
100
AcDbPolyline
 90
1
 70
1
 10
1977.613251
 20
814.913080
 30
0.0
  0
SPLINE
  5
1b6
100
AcDbEntity
  8
A0105_Printing
 62
1
100
AcDbSpline
 70
8
 71
3
 72
8
 73
4
 74
0
 40
0
 40
0
 40
0
 40
0
 40
1
 40
1
 40
1
 40
1
 10
1977.613251
 20
857.433079
 30
0.0
 10
1989.355250
 20
857.433079
 30
0.0
 10
1998.873250
 20
847.915079
 30
0.0
 10
1998.873250
 20
836.173079
 30
0.0
  0
SPLINE
  5
1b7
100
AcDbEntity
  8
A0105_Printing
 62
1
100
AcDbSpline
 70
8
 71
3
 72
8
 73
4
 74
0
 40
0
 40
0
 40
0
 40
0
 40
1
 40
1
 40
1
 40
1
 10
1998.873250
 20
836.173079
 30
0.0
 10
1998.873250
 20
824.432079
 30
0.0
 10
1989.355250
 20
814.913080
 30
0.0
 10
1977.613251
 20
814.913080
 30
0.0
  0
LWPOLYLINE
  5
1b8
100
AcDbEntity
  8
A0105_Printing
 62
1
100
AcDbPolyline
 90
1
 70
1
 10
1977.613251
 20
857.433079
 30
0.0
  0
SPLINE
  5
1b9
100
AcDbEntity
  8
A0105_Printing
 62
1
100
AcDbSpline
 70
8
 71
3
 72
8
 73
4
 74
0
 40
0
 40
0
 40
0
 40
0
 40
1
 40
1
 40
1
 40
1
 10
1942.180251
 20
892.866078
 30
0.0
 10
1942.180251
 20
881.125078
 30
0.0
 10
1932.662252
 20
871.606078
 30
0.0
 10
1920.920252
 20
871.606078
 30
0.0
  0
SPLINE
  5
1ba
100
AcDbEntity
  8
A0105_Printing
 62
1
100
AcDbSpline
 70
8
 71
3
 72
8
 73
4
 74
0
 40
0
 40
0
 40
0
 40
0
 40
1
 40
1
 40
1
 40
1
 10
1920.920252
 20
871.606078
 30
0.0
 10
1909.179252
 20
871.606078
 30
0.0
 10
1899.661253
 20
881.125078
 30
0.0
 10
1899.661253
 20
892.866078
 30
0.0
  0
LWPOLYLINE
  5
1bb
100
AcDbEntity
  8
A0105_Printing
 62
1
100
AcDbPolyline
 90
1
 70
1
 10
1977.613251
 20
814.913080
 30
0.0
  0
SPLINE
  5
1bc
100
AcDbEntity
  8
A0105_Printing
 62
1
100
AcDbSpline
 70
8
 71
3
 72
8
 73
4
 74
0
 40
0
 40
0
 40
0
 40
0
 40
1
 40
1
 40
1
 40
1
 10
1899.661253
 20
892.866078
 30
0.0
 10
1899.661253
 20
904.608077
 30
0.0
 10
1909.179252
 20
914.126077
 30
0.0
 10
1920.920252
 20
914.126077
 30
0.0
  0
SPLINE
  5
1bd
100
AcDbEntity
  8
A0105_Printing
 62
1
100
AcDbSpline
 70
8
 71
3
 72
8
 73
4
 74
0
 40
0
 40
0
 40
0
 40
0
 40
1
 40
1
 40
1
 40
1
 10
1920.920252
 20
914.126077
 30
0.0
 10
1932.662252
 20
914.126077
 30
0.0
 10
1942.180251
 20
904.608077
 30
0.0
 10
1942.180251
 20
892.866078
 30
0.0
  0
LWPOLYLINE
  5
1be
100
AcDbEntity
  8
A0105_Printing
 62
1
100
AcDbPolyline
 90
1
 70
1
 10
1899.661253
 20
892.866078
 30
0.0
  0
SPLINE
  5
1bf
100
AcDbEntity
  8
A0105_Printing
 62
1
100
AcDbSpline
 70
8
 71
3
 72
8
 73
4
 74
0
 40
0
 40
0
 40
0
 40
0
 40
1
 40
1
 40
1
 40
1
 10
1920.920252
 20
814.913080
 30
0.0
 10
1909.179252
 20
814.913080
 30
0.0
 10
1899.661253
 20
824.432079
 30
0.0
 10
1899.661253
 20
836.173079
 30
0.0
  0
SPLINE
  5
1c0
100
AcDbEntity
  8
A0105_Printing
 62
1
100
AcDbSpline
 70
8
 71
3
 72
8
 73
4
 74
0
 40
0
 40
0
 40
0
 40
0
 40
1
 40
1
 40
1
 40
1
 10
1899.661253
 20
836.173079
 30
0.0
 10
1899.661253
 20
847.915079
 30
0.0
 10
1909.179252
 20
857.433079
 30
0.0
 10
1920.920252
 20
857.433079
 30
0.0
  0
SPLINE
  5
1c1
100
AcDbEntity
  8
A0105_Printing
 62
1
100
AcDbSpline
 70
8
 71
3
 72
8
 73
4
 74
0
 40
0
 40
0
 40
0
 40
0
 40
1
 40
1
 40
1
 40
1
 10
1920.920252
 20
857.433079
 30
0.0
 10
1932.662252
 20
857.433079
 30
0.0
 10
1942.180251
 20
847.915079
 30
0.0
 10
1942.180251
 20
836.173079
 30
0.0
  0
SPLINE
  5
1c2
100
AcDbEntity
  8
A0105_Printing
 62
1
100
AcDbSpline
 70
8
 71
3
 72
8
 73
4
 74
0
 40
0
 40
0
 40
0
 40
0
 40
1
 40
1
 40
1
 40
1
 10
1942.180251
 20
836.173079
 30
0.0
 10
1942.180251
 20
824.432079
 30
0.0
 10
1932.662252
 20
814.913080
 30
0.0
 10
1920.920252
 20
814.913080
 30
0.0
  0
LWPOLYLINE
  5
1c3
100
AcDbEntity
  8
A0105_Printing
 62
1
100
AcDbPolyline
 90
1
 70
1
 10
1942.180251
 20
892.866078
 30
0.0
  0
SPLINE
  5
1c4
100
AcDbEntity
  8
A0105_Printing
 62
1
100
AcDbSpline
 70
8
 71
3
 72
8
 73
4
 74
0
 40
0
 40
0
 40
0
 40
0
 40
1
 40
1
 40
1
 40
1
 10
1885.488253
 20
892.866078
 30
0.0
 10
1885.488253
 20
881.125078
 30
0.0
 10
1875.969253
 20
871.606078
 30
0.0
 10
1864.228253
 20
871.606078
 30
0.0
  0
SPLINE
  5
1c5
100
AcDbEntity
  8
A0105_Printing
 62
1
100
AcDbSpline
 70
8
 71
3
 72
8
 73
4
 74
0
 40
0
 40
0
 40
0
 40
0
 40
1
 40
1
 40
1
 40
1
 10
1864.228253
 20
871.606078
 30
0.0
 10
1852.486254
 20
871.606078
 30
0.0
 10
1842.968254
 20
881.125078
 30
0.0
 10
1842.968254
 20
892.866078
 30
0.0
  0
LWPOLYLINE
  5
1c6
100
AcDbEntity
  8
A0105_Printing
 62
1
100
AcDbPolyline
 90
1
 70
1
 10
1920.920252
 20
814.913080
 30
0.0
  0
SPLINE
  5
1c7
100
AcDbEntity
  8
A0105_Printing
 62
1
100
AcDbSpline
 70
8
 71
3
 72
8
 73
4
 74
0
 40
0
 40
0
 40
0
 40
0
 40
1
 40
1
 40
1
 40
1
 10
1842.968254
 20
892.866078
 30
0.0
 10
1842.968254
 20
904.608077
 30
0.0
 10
1852.486254
 20
914.126077
 30
0.0
 10
1864.228253
 20
914.126077
 30
0.0
  0
SPLINE
  5
1c8
100
AcDbEntity
  8
A0105_Printing
 62
1
100
AcDbSpline
 70
8
 71
3
 72
8
 73
4
 74
0
 40
0
 40
0
 40
0
 40
0
 40
1
 40
1
 40
1
 40
1
 10
1864.228253
 20
914.126077
 30
0.0
 10
1875.969253
 20
914.126077
 30
0.0
 10
1885.488253
 20
904.608077
 30
0.0
 10
1885.488253
 20
892.866078
 30
0.0
  0
LWPOLYLINE
  5
1c9
100
AcDbEntity
  8
A0105_Printing
 62
1
100
AcDbPolyline
 90
1
 70
1
 10
1842.968254
 20
892.866078
 30
0.0
  0
LWPOLYLINE
  5
1ca
100
AcDbEntity
  8
A0105_Printing
 62
1
100
AcDbPolyline
 90
1
 70
1
 10
1885.488253
 20
892.866078
 30
0.0
  0
SPLINE
  5
1cb
100
AcDbEntity
  8
A0105_Printing
 62
1
100
AcDbSpline
 70
8
 71
3
 72
8
 73
4
 74
0
 40
0
 40
0
 40
0
 40
0
 40
1
 40
1
 40
1
 40
1
 10
1864.228253
 20
814.913080
 30
0.0
 10
1852.486254
 20
814.913080
 30
0.0
 10
1842.968254
 20
824.432079
 30
0.0
 10
1842.968254
 20
836.173079
 30
0.0
  0
SPLINE
  5
1cc
100
AcDbEntity
  8
A0105_Printing
 62
1
100
AcDbSpline
 70
8
 71
3
 72
8
 73
4
 74
0
 40
0
 40
0
 40
0
 40
0
 40
1
 40
1
 40
1
 40
1
 10
1842.968254
 20
836.173079
 30
0.0
 10
1842.968254
 20
847.915079
 30
0.0
 10
1852.486254
 20
857.433079
 30
0.0
 10
1864.228253
 20
857.433079
 30
0.0
  0
SPLINE
  5
1cd
100
AcDbEntity
  8
A0105_Printing
 62
1
100
AcDbSpline
 70
8
 71
3
 72
8
 73
4
 74
0
 40
0
 40
0
 40
0
 40
0
 40
1
 40
1
 40
1
 40
1
 10
1864.228253
 20
857.433079
 30
0.0
 10
1875.969253
 20
857.433079
 30
0.0
 10
1885.488253
 20
847.915079
 30
0.0
 10
1885.488253
 20
836.173079
 30
0.0
  0
SPLINE
  5
1ce
100
AcDbEntity
  8
A0105_Printing
 62
1
100
AcDbSpline
 70
8
 71
3
 72
8
 73
4
 74
0
 40
0
 40
0
 40
0
 40
0
 40
1
 40
1
 40
1
 40
1
 10
1885.488253
 20
836.173079
 30
0.0
 10
1885.488253
 20
824.432079
 30
0.0
 10
1875.969253
 20
814.913080
 30
0.0
 10
1864.228253
 20
814.913080
 30
0.0
  0
SPLINE
  5
1cf
100
AcDbEntity
  8
A0105_Printing
 62
1
100
AcDbSpline
 70
8
 71
3
 72
8
 73
4
 74
0
 40
0
 40
0
 40
0
 40
0
 40
1
 40
1
 40
1
 40
1
 10
1828.795254
 20
892.866078
 30
0.0
 10
1828.795254
 20
881.125078
 30
0.0
 10
1819.276255
 20
871.606078
 30
0.0
 10
1807.535255
 20
871.606078
 30
0.0
  0
SPLINE
  5
1d0
100
AcDbEntity
  8
A0105_Printing
 62
1
100
AcDbSpline
 70
8
 71
3
 72
8
 73
4
 74
0
 40
0
 40
0
 40
0
 40
0
 40
1
 40
1
 40
1
 40
1
 10
1807.535255
 20
871.606078
 30
0.0
 10
1795.793255
 20
871.606078
 30
0.0
 10
1786.275255
 20
881.125078
 30
0.0
 10
1786.275255
 20
892.866078
 30
0.0
  0
LWPOLYLINE
  5
1d1
100
AcDbEntity
  8
A0105_Printing
 62
1
100
AcDbPolyline
 90
2
 70
1
 10
1864.228253
 20
814.913080
 30
0.0
 10
1864.228253
 20
814.913080
 30
0.0
  0
SPLINE
  5
1d2
100
AcDbEntity
  8
A0105_Printing
 62
1
100
AcDbSpline
 70
8
 71
3
 72
8
 73
4
 74
0
 40
0
 40
0
 40
0
 40
0
 40
1
 40
1
 40
1
 40
1
 10
1786.275255
 20
892.866078
 30
0.0
 10
1786.275255
 20
904.608077
 30
0.0
 10
1795.793255
 20
914.126077
 30
0.0
 10
1807.535255
 20
914.126077
 30
0.0
  0
SPLINE
  5
1d3
100
AcDbEntity
  8
A0105_Printing
 62
1
100
AcDbSpline
 70
8
 71
3
 72
8
 73
4
 74
0
 40
0
 40
0
 40
0
 40
0
 40
1
 40
1
 40
1
 40
1
 10
1807.535255
 20
914.126077
 30
0.0
 10
1819.276255
 20
914.126077
 30
0.0
 10
1828.795254
 20
904.608077
 30
0.0
 10
1828.795254
 20
892.866078
 30
0.0
  0
LWPOLYLINE
  5
1d4
100
AcDbEntity
  8
A0105_Printing
 62
1
100
AcDbPolyline
 90
1
 70
1
 10
1786.275255
 20
892.866078
 30
0.0
  0
LWPOLYLINE
  5
1d5
100
AcDbEntity
  8
A0105_Printing
 62
1
100
AcDbPolyline
 90
1
 70
1
 10
1828.795254
 20
892.866078
 30
0.0
  0
SPLINE
  5
1d6
100
AcDbEntity
  8
A0105_Printing
 62
1
100
AcDbSpline
 70
8
 71
3
 72
8
 73
4
 74
0
 40
0
 40
0
 40
0
 40
0
 40
1
 40
1
 40
1
 40
1
 10
1807.535255
 20
814.913080
 30
0.0
 10
1795.793255
 20
814.913080
 30
0.0
 10
1786.275255
 20
824.432079
 30
0.0
 10
1786.275255
 20
836.173079
 30
0.0
  0
SPLINE
  5
1d7
100
AcDbEntity
  8
A0105_Printing
 62
1
100
AcDbSpline
 70
8
 71
3
 72
8
 73
4
 74
0
 40
0
 40
0
 40
0
 40
0
 40
1
 40
1
 40
1
 40
1
 10
1786.275255
 20
836.173079
 30
0.0
 10
1786.275255
 20
847.915079
 30
0.0
 10
1795.793255
 20
857.433079
 30
0.0
 10
1807.535255
 20
857.433079
 30
0.0
  0
SPLINE
  5
1d8
100
AcDbEntity
  8
A0105_Printing
 62
1
100
AcDbSpline
 70
8
 71
3
 72
8
 73
4
 74
0
 40
0
 40
0
 40
0
 40
0
 40
1
 40
1
 40
1
 40
1
 10
1807.535255
 20
857.433079
 30
0.0
 10
1819.276255
 20
857.433079
 30
0.0
 10
1828.795254
 20
847.915079
 30
0.0
 10
1828.795254
 20
836.173079
 30
0.0
  0
SPLINE
  5
1d9
100
AcDbEntity
  8
A0105_Printing
 62
1
100
AcDbSpline
 70
8
 71
3
 72
8
 73
4
 74
0
 40
0
 40
0
 40
0
 40
0
 40
1
 40
1
 40
1
 40
1
 10
1828.795254
 20
836.173079
 30
0.0
 10
1828.795254
 20
824.432079
 30
0.0
 10
1819.276255
 20
814.913080
 30
0.0
 10
1807.535255
 20
814.913080
 30
0.0
  0
SPLINE
  5
1da
100
AcDbEntity
  8
A0105_Printing
 62
1
100
AcDbSpline
 70
8
 71
3
 72
8
 73
4
 74
0
 40
0
 40
0
 40
0
 40
0
 40
1
 40
1
 40
1
 40
1
 10
1772.102256
 20
892.866078
 30
0.0
 10
1772.102256
 20
881.125078
 30
0.0
 10
1762.583256
 20
871.606078
 30
0.0
 10
1750.842256
 20
871.606078
 30
0.0
  0
SPLINE
  5
1db
100
AcDbEntity
  8
A0105_Printing
 62
1
100
AcDbSpline
 70
8
 71
3
 72
8
 73
4
 74
0
 40
0
 40
0
 40
0
 40
0
 40
1
 40
1
 40
1
 40
1
 10
1750.842256
 20
871.606078
 30
0.0
 10
1739.100257
 20
871.606078
 30
0.0
 10
1729.582257
 20
881.125078
 30
0.0
 10
1729.582257
 20
892.866078
 30
0.0
  0
LWPOLYLINE
  5
1dc
100
AcDbEntity
  8
A0105_Printing
 62
1
100
AcDbPolyline
 90
2
 70
1
 10
1807.535255
 20
814.913080
 30
0.0
 10
1807.535255
 20
814.913080
 30
0.0
  0
SPLINE
  5
1dd
100
AcDbEntity
  8
A0105_Printing
 62
1
100
AcDbSpline
 70
8
 71
3
 72
8
 73
4
 74
0
 40
0
 40
0
 40
0
 40
0
 40
1
 40
1
 40
1
 40
1
 10
1729.582257
 20
892.866078
 30
0.0
 10
1729.582257
 20
904.608077
 30
0.0
 10
1739.100257
 20
914.126077
 30
0.0
 10
1750.842256
 20
914.126077
 30
0.0
  0
SPLINE
  5
1de
100
AcDbEntity
  8
A0105_Printing
 62
1
100
AcDbSpline
 70
8
 71
3
 72
8
 73
4
 74
0
 40
0
 40
0
 40
0
 40
0
 40
1
 40
1
 40
1
 40
1
 10
1750.842256
 20
914.126077
 30
0.0
 10
1762.583256
 20
914.126077
 30
0.0
 10
1772.102256
 20
904.608077
 30
0.0
 10
1772.102256
 20
892.866078
 30
0.0
  0
LWPOLYLINE
  5
1df
100
AcDbEntity
  8
A0105_Printing
 62
1
100
AcDbPolyline
 90
1
 70
1
 10
1729.582257
 20
892.866078
 30
0.0
  0
SPLINE
  5
1e0
100
AcDbEntity
  8
A0105_Printing
 62
1
100
AcDbSpline
 70
8
 71
3
 72
8
 73
4
 74
0
 40
0
 40
0
 40
0
 40
0
 40
1
 40
1
 40
1
 40
1
 10
1750.842256
 20
814.913080
 30
0.0
 10
1739.100257
 20
814.913080
 30
0.0
 10
1729.582257
 20
824.432079
 30
0.0
 10
1729.582257
 20
836.173079
 30
0.0
  0
SPLINE
  5
1e1
100
AcDbEntity
  8
A0105_Printing
 62
1
100
AcDbSpline
 70
8
 71
3
 72
8
 73
4
 74
0
 40
0
 40
0
 40
0
 40
0
 40
1
 40
1
 40
1
 40
1
 10
1729.582257
 20
836.173079
 30
0.0
 10
1729.582257
 20
847.915079
 30
0.0
 10
1739.100257
 20
857.433079
 30
0.0
 10
1750.842256
 20
857.433079
 30
0.0
  0
SPLINE
  5
1e2
100
AcDbEntity
  8
A0105_Printing
 62
1
100
AcDbSpline
 70
8
 71
3
 72
8
 73
4
 74
0
 40
0
 40
0
 40
0
 40
0
 40
1
 40
1
 40
1
 40
1
 10
1750.842256
 20
857.433079
 30
0.0
 10
1762.583256
 20
857.433079
 30
0.0
 10
1772.102256
 20
847.915079
 30
0.0
 10
1772.102256
 20
836.173079
 30
0.0
  0
SPLINE
  5
1e3
100
AcDbEntity
  8
A0105_Printing
 62
1
100
AcDbSpline
 70
8
 71
3
 72
8
 73
4
 74
0
 40
0
 40
0
 40
0
 40
0
 40
1
 40
1
 40
1
 40
1
 10
1772.102256
 20
836.173079
 30
0.0
 10
1772.102256
 20
824.432079
 30
0.0
 10
1762.583256
 20
814.913080
 30
0.0
 10
1750.842256
 20
814.913080
 30
0.0
  0
LWPOLYLINE
  5
1e4
100
AcDbEntity
  8
A0105_Printing
 62
1
100
AcDbPolyline
 90
1
 70
1
 10
1772.102256
 20
892.866078
 30
0.0
  0
SPLINE
  5
1e5
100
AcDbEntity
  8
A0105_Printing
 62
1
100
AcDbSpline
 70
8
 71
3
 72
8
 73
4
 74
0
 40
0
 40
0
 40
0
 40
0
 40
1
 40
1
 40
1
 40
1
 10
1715.409257
 20
892.866078
 30
0.0
 10
1715.409257
 20
881.125078
 30
0.0
 10
1705.890257
 20
871.606078
 30
0.0
 10
1694.149258
 20
871.606078
 30
0.0
  0
SPLINE
  5
1e6
100
AcDbEntity
  8
A0105_Printing
 62
1
100
AcDbSpline
 70
8
 71
3
 72
8
 73
4
 74
0
 40
0
 40
0
 40
0
 40
0
 40
1
 40
1
 40
1
 40
1
 10
1694.149258
 20
871.606078
 30
0.0
 10
1682.407258
 20
871.606078
 30
0.0
 10
1672.889258
 20
881.125078
 30
0.0
 10
1672.889258
 20
892.866078
 30
0.0
  0
LWPOLYLINE
  5
1e7
100
AcDbEntity
  8
A0105_Printing
 62
1
100
AcDbPolyline
 90
1
 70
1
 10
1750.842256
 20
814.913080
 30
0.0
  0
SPLINE
  5
1e8
100
AcDbEntity
  8
A0105_Printing
 62
1
100
AcDbSpline
 70
8
 71
3
 72
8
 73
4
 74
0
 40
0
 40
0
 40
0
 40
0
 40
1
 40
1
 40
1
 40
1
 10
1672.889258
 20
892.866078
 30
0.0
 10
1672.889258
 20
904.608077
 30
0.0
 10
1682.407258
 20
914.126077
 30
0.0
 10
1694.149258
 20
914.126077
 30
0.0
  0
SPLINE
  5
1e9
100
AcDbEntity
  8
A0105_Printing
 62
1
100
AcDbSpline
 70
8
 71
3
 72
8
 73
4
 74
0
 40
0
 40
0
 40
0
 40
0
 40
1
 40
1
 40
1
 40
1
 10
1694.149258
 20
914.126077
 30
0.0
 10
1705.890257
 20
914.126077
 30
0.0
 10
1715.409257
 20
904.608077
 30
0.0
 10
1715.409257
 20
892.866078
 30
0.0
  0
LWPOLYLINE
  5
1ea
100
AcDbEntity
  8
A0105_Printing
 62
1
100
AcDbPolyline
 90
1
 70
1
 10
1672.889258
 20
892.866078
 30
0.0
  0
LWPOLYLINE
  5
1eb
100
AcDbEntity
  8
A0105_Printing
 62
1
100
AcDbPolyline
 90
1
 70
1
 10
1715.409257
 20
892.866078
 30
0.0
  0
SPLINE
  5
1ec
100
AcDbEntity
  8
A0105_Printing
 62
1
100
AcDbSpline
 70
8
 71
3
 72
8
 73
4
 74
0
 40
0
 40
0
 40
0
 40
0
 40
1
 40
1
 40
1
 40
1
 10
1694.149258
 20
814.913080
 30
0.0
 10
1682.407258
 20
814.913080
 30
0.0
 10
1672.889258
 20
824.432079
 30
0.0
 10
1672.889258
 20
836.173079
 30
0.0
  0
SPLINE
  5
1ed
100
AcDbEntity
  8
A0105_Printing
 62
1
100
AcDbSpline
 70
8
 71
3
 72
8
 73
4
 74
0
 40
0
 40
0
 40
0
 40
0
 40
1
 40
1
 40
1
 40
1
 10
1672.889258
 20
836.173079
 30
0.0
 10
1672.889258
 20
847.915079
 30
0.0
 10
1682.407258
 20
857.433079
 30
0.0
 10
1694.149258
 20
857.433079
 30
0.0
  0
SPLINE
  5
1ee
100
AcDbEntity
  8
A0105_Printing
 62
1
100
AcDbSpline
 70
8
 71
3
 72
8
 73
4
 74
0
 40
0
 40
0
 40
0
 40
0
 40
1
 40
1
 40
1
 40
1
 10
1694.149258
 20
857.433079
 30
0.0
 10
1705.890257
 20
857.433079
 30
0.0
 10
1715.409257
 20
847.915079
 30
0.0
 10
1715.409257
 20
836.173079
 30
0.0
  0
SPLINE
  5
1ef
100
AcDbEntity
  8
A0105_Printing
 62
1
100
AcDbSpline
 70
8
 71
3
 72
8
 73
4
 74
0
 40
0
 40
0
 40
0
 40
0
 40
1
 40
1
 40
1
 40
1
 10
1715.409257
 20
836.173079
 30
0.0
 10
1715.409257
 20
824.432079
 30
0.0
 10
1705.890257
 20
814.913080
 30
0.0
 10
1694.149258
 20
814.913080
 30
0.0
  0
SPLINE
  5
1f0
100
AcDbEntity
  8
A0105_Printing
 62
1
100
AcDbSpline
 70
8
 71
3
 72
8
 73
4
 74
0
 40
0
 40
0
 40
0
 40
0
 40
1
 40
1
 40
1
 40
1
 10
1658.716259
 20
892.866078
 30
0.0
 10
1658.716259
 20
881.125078
 30
0.0
 10
1649.197259
 20
871.606078
 30
0.0
 10
1637.456259
 20
871.606078
 30
0.0
  0
LWPOLYLINE
  5
1f1
100
AcDbEntity
  8
A0105_Printing
 62
1
100
AcDbPolyline
 90
2
 70
1
 10
1694.149258
 20
814.913080
 30
0.0
 10
1694.149258
 20
814.913080
 30
0.0
  0
SPLINE
  5
1f2
100
AcDbEntity
  8
A0105_Printing
 62
1
100
AcDbSpline
 70
8
 71
3
 72
8
 73
4
 74
0
 40
0
 40
0
 40
0
 40
0
 40
1
 40
1
 40
1
 40
1
 10
1637.456259
 20
871.606078
 30
0.0
 10
1625.714259
 20
871.606078
 30
0.0
 10
1616.196260
 20
881.125078
 30
0.0
 10
1616.196260
 20
892.866078
 30
0.0
  0
LWPOLYLINE
  5
1f3
100
AcDbEntity
  8
A0105_Printing
 62
1
100
AcDbPolyline
 90
1
 70
1
 10
1637.456259
 20
871.606078
 30
0.0
  0
SPLINE
  5
1f4
100
AcDbEntity
  8
A0105_Printing
 62
1
100
AcDbSpline
 70
8
 71
3
 72
8
 73
4
 74
0
 40
0
 40
0
 40
0
 40
0
 40
1
 40
1
 40
1
 40
1
 10
1616.196260
 20
892.866078
 30
0.0
 10
1616.196260
 20
904.608077
 30
0.0
 10
1625.714259
 20
914.126077
 30
0.0
 10
1637.456259
 20
914.126077
 30
0.0
  0
LWPOLYLINE
  5
1f5
100
AcDbEntity
  8
A0105_Printing
 62
1
100
AcDbPolyline
 90
1
 70
1
 10
1616.196260
 20
892.866078
 30
0.0
  0
SPLINE
  5
1f6
100
AcDbEntity
  8
A0105_Printing
 62
1
100
AcDbSpline
 70
8
 71
3
 72
8
 73
4
 74
0
 40
0
 40
0
 40
0
 40
0
 40
1
 40
1
 40
1
 40
1
 10
1637.456259
 20
914.126077
 30
0.0
 10
1649.197259
 20
914.126077
 30
0.0
 10
1658.716259
 20
904.608077
 30
0.0
 10
1658.716259
 20
892.866078
 30
0.0
  0
LWPOLYLINE
  5
1f7
100
AcDbEntity
  8
A0105_Printing
 62
1
100
AcDbPolyline
 90
1
 70
1
 10
1637.456259
 20
914.126077
 30
0.0
  0
LWPOLYLINE
  5
1f8
100
AcDbEntity
  8
A0105_Printing
 62
1
100
AcDbPolyline
 90
1
 70
1
 10
1658.716259
 20
892.866078
 30
0.0
  0
SPLINE
  5
1f9
100
AcDbEntity
  8
A0105_Printing
 62
1
100
AcDbSpline
 70
8
 71
3
 72
8
 73
4
 74
0
 40
0
 40
0
 40
0
 40
0
 40
1
 40
1
 40
1
 40
1
 10
1637.456259
 20
814.913080
 30
0.0
 10
1625.714259
 20
814.913080
 30
0.0
 10
1616.196260
 20
824.432079
 30
0.0
 10
1616.196260
 20
836.173079
 30
0.0
  0
SPLINE
  5
1fa
100
AcDbEntity
  8
A0105_Printing
 62
1
100
AcDbSpline
 70
8
 71
3
 72
8
 73
4
 74
0
 40
0
 40
0
 40
0
 40
0
 40
1
 40
1
 40
1
 40
1
 10
1616.196260
 20
836.173079
 30
0.0
 10
1616.196260
 20
847.915079
 30
0.0
 10
1625.714259
 20
857.433079
 30
0.0
 10
1637.456259
 20
857.433079
 30
0.0
  0
LWPOLYLINE
  5
1fb
100
AcDbEntity
  8
A0105_Printing
 62
1
100
AcDbPolyline
 90
1
 70
1
 10
1637.456259
 20
814.913080
 30
0.0
  0
SPLINE
  5
1fc
100
AcDbEntity
  8
A0105_Printing
 62
1
100
AcDbSpline
 70
8
 71
3
 72
8
 73
4
 74
0
 40
0
 40
0
 40
0
 40
0
 40
1
 40
1
 40
1
 40
1
 10
1637.456259
 20
857.433079
 30
0.0
 10
1649.197259
 20
857.433079
 30
0.0
 10
1658.716259
 20
847.915079
 30
0.0
 10
1658.716259
 20
836.173079
 30
0.0
  0
SPLINE
  5
1fd
100
AcDbEntity
  8
A0105_Printing
 62
1
100
AcDbSpline
 70
8
 71
3
 72
8
 73
4
 74
0
 40
0
 40
0
 40
0
 40
0
 40
1
 40
1
 40
1
 40
1
 10
1658.716259
 20
836.173079
 30
0.0
 10
1658.716259
 20
824.432079
 30
0.0
 10
1649.197259
 20
814.913080
 30
0.0
 10
1637.456259
 20
814.913080
 30
0.0
  0
LWPOLYLINE
  5
1fe
100
AcDbEntity
  8
A0105_Printing
 62
1
100
AcDbPolyline
 90
1
 70
1
 10
1637.456259
 20
857.433079
 30
0.0
  0
SPLINE
  5
1ff
100
AcDbEntity
  8
A0105_Printing
 62
1
100
AcDbSpline
 70
8
 71
3
 72
8
 73
4
 74
0
 40
0
 40
0
 40
0
 40
0
 40
1
 40
1
 40
1
 40
1
 10
1602.023260
 20
892.866078
 30
0.0
 10
1602.023260
 20
881.125078
 30
0.0
 10
1592.505260
 20
871.606078
 30
0.0
 10
1580.763260
 20
871.606078
 30
0.0
  0
SPLINE
  5
200
100
AcDbEntity
  8
A0105_Printing
 62
1
100
AcDbSpline
 70
8
 71
3
 72
8
 73
4
 74
0
 40
0
 40
0
 40
0
 40
0
 40
1
 40
1
 40
1
 40
1
 10
1580.763260
 20
871.606078
 30
0.0
 10
1569.022261
 20
871.606078
 30
0.0
 10
1559.503261
 20
881.125078
 30
0.0
 10
1559.503261
 20
892.866078
 30
0.0
  0
LWPOLYLINE
  5
201
100
AcDbEntity
  8
A0105_Printing
 62
1
100
AcDbPolyline
 90
1
 70
1
 10
1637.456259
 20
814.913080
 30
0.0
  0
SPLINE
  5
202
100
AcDbEntity
  8
A0105_Printing
 62
1
100
AcDbSpline
 70
8
 71
3
 72
8
 73
4
 74
0
 40
0
 40
0
 40
0
 40
0
 40
1
 40
1
 40
1
 40
1
 10
1559.503261
 20
892.866078
 30
0.0
 10
1559.503261
 20
904.608077
 30
0.0
 10
1569.022261
 20
914.126077
 30
0.0
 10
1580.763260
 20
914.126077
 30
0.0
  0
SPLINE
  5
203
100
AcDbEntity
  8
A0105_Printing
 62
1
100
AcDbSpline
 70
8
 71
3
 72
8
 73
4
 74
0
 40
0
 40
0
 40
0
 40
0
 40
1
 40
1
 40
1
 40
1
 10
1580.763260
 20
914.126077
 30
0.0
 10
1592.505260
 20
914.126077
 30
0.0
 10
1602.023260
 20
904.608077
 30
0.0
 10
1602.023260
 20
892.866078
 30
0.0
  0
LWPOLYLINE
  5
204
100
AcDbEntity
  8
A0105_Printing
 62
1
100
AcDbPolyline
 90
1
 70
1
 10
1559.503261
 20
892.866078
 30
0.0
  0
SPLINE
  5
205
100
AcDbEntity
  8
A0105_Printing
 62
1
100
AcDbSpline
 70
8
 71
3
 72
8
 73
4
 74
0
 40
0
 40
0
 40
0
 40
0
 40
1
 40
1
 40
1
 40
1
 10
1580.763260
 20
814.913080
 30
0.0
 10
1569.022261
 20
814.913080
 30
0.0
 10
1559.503261
 20
824.432079
 30
0.0
 10
1559.503261
 20
836.173079
 30
0.0
  0
SPLINE
  5
206
100
AcDbEntity
  8
A0105_Printing
 62
1
100
AcDbSpline
 70
8
 71
3
 72
8
 73
4
 74
0
 40
0
 40
0
 40
0
 40
0
 40
1
 40
1
 40
1
 40
1
 10
1559.503261
 20
836.173079
 30
0.0
 10
1559.503261
 20
847.915079
 30
0.0
 10
1569.022261
 20
857.433079
 30
0.0
 10
1580.763260
 20
857.433079
 30
0.0
  0
SPLINE
  5
207
100
AcDbEntity
  8
A0105_Printing
 62
1
100
AcDbSpline
 70
8
 71
3
 72
8
 73
4
 74
0
 40
0
 40
0
 40
0
 40
0
 40
1
 40
1
 40
1
 40
1
 10
1580.763260
 20
857.433079
 30
0.0
 10
1592.505260
 20
857.433079
 30
0.0
 10
1602.023260
 20
847.915079
 30
0.0
 10
1602.023260
 20
836.173079
 30
0.0
  0
SPLINE
  5
208
100
AcDbEntity
  8
A0105_Printing
 62
1
100
AcDbSpline
 70
8
 71
3
 72
8
 73
4
 74
0
 40
0
 40
0
 40
0
 40
0
 40
1
 40
1
 40
1
 40
1
 10
1602.023260
 20
836.173079
 30
0.0
 10
1602.023260
 20
824.432079
 30
0.0
 10
1592.505260
 20
814.913080
 30
0.0
 10
1580.763260
 20
814.913080
 30
0.0
  0
LWPOLYLINE
  5
209
100
AcDbEntity
  8
A0105_Printing
 62
1
100
AcDbPolyline
 90
1
 70
1
 10
1602.023260
 20
892.866078
 30
0.0
  0
LWPOLYLINE
  5
20a
100
AcDbEntity
  8
A0105_Printing
 62
1
100
AcDbPolyline
 90
1
 70
1
 10
1580.763260
 20
814.913080
 30
0.0
  0
LWPOLYLINE
  5
20b
100
AcDbEntity
  8
A0105_Printing
 62
1
100
AcDbPolyline
 90
24
 70
1
 10
2126.432247
 20
928.299077
 30
0.0
 10
1545.330261
 20
928.299077
 30
0.0
 10
1545.330261
 20
892.866078
 30
0.0
 10
1531.157262
 20
892.866078
 30
0.0
 10
1531.157262
 20
836.173079
 30
0.0
 10
1545.330261
 20
836.173079
 30
0.0
 10
1545.330261
 20
800.740080
 30
0.0
 10
1587.850260
 20
800.740080
 30
0.0
 10
1587.850260
 20
786.567080
 30
0.0
 10
1672.889258
 20
786.567080
 30
0.0
 10
1672.889258
 20
800.740080
 30
0.0
 10
1793.362255
 20
800.740080
 30
0.0
 10
1793.362255
 20
786.567080
 30
0.0
 10
1878.401253
 20
786.567080
 30
0.0
 10
1878.401253
 20
800.740080
 30
0.0
 10
1998.873250
 20
800.740080
 30
0.0
 10
1998.873250
 20
786.567080
 30
0.0
 10
2083.913248
 20
786.567080
 30
0.0
 10
2083.913248
 20
800.740080
 30
0.0
 10
2126.432247
 20
800.740080
 30
0.0
 10
2126.432247
 20
836.173079
 30
0.0
 10
2140.606246
 20
836.173079
 30
0.0
 10
2140.606246
 20
892.866078
 30
0.0
 10
2126.432247
 20
892.866078
 30
0.0
  0
LWPOLYLINE
  5
20c
100
AcDbEntity
  8
A0105_Printing
 62
1
100
AcDbPolyline
 90
4
 70
1
 10
1389.424965
 20
772.393981
 30
0.0
 10
1268.951968
 20
772.393981
 30
0.0
 10
1268.951968
 20
786.566980
 30
0.0
 10
1389.424965
 20
786.566980
 30
0.0
  0
LWPOLYLINE
  5
20d
100
AcDbEntity
  8
A0105_Printing
 62
1
100
AcDbPolyline
 90
4
 70
1
 10
1389.424965
 20
602.314985
 30
0.0
 10
1268.951968
 20
602.314985
 30
0.0
 10
1268.951968
 20
616.487985
 30
0.0
 10
1389.424965
 20
616.487985
 30
0.0
  0
LWPOLYLINE
  5
20e
100
AcDbEntity
  8
A0105_Printing
 62
1
100
AcDbPolyline
 90
4
 70
1
 10
1382.337965
 20
510.188987
 30
0.0
 10
1368.164966
 20
510.188987
 30
0.0
 10
1368.164966
 20
566.881986
 30
0.0
 10
1382.337965
 20
566.881986
 30
0.0
  0
LWPOLYLINE
  5
20f
100
AcDbEntity
  8
A0105_Printing
 62
1
100
AcDbPolyline
 90
4
 70
1
 10
1233.518969
 20
510.188987
 30
0.0
 10
1219.345970
 20
510.188987
 30
0.0
 10
1219.345970
 20
566.881986
 30
0.0
 10
1233.518969
 20
566.881986
 30
0.0
  0
LWPOLYLINE
  5
210
100
AcDbEntity
  8
A0105_Printing
 62
1
100
AcDbPolyline
 90
4
 70
1
 10
1183.912970
 20
772.393981
 30
0.0
 10
1063.440973
 20
772.393981
 30
0.0
 10
1063.440973
 20
786.566980
 30
0.0
 10
1183.912970
 20
786.566980
 30
0.0
  0
LWPOLYLINE
  5
211
100
AcDbEntity
  8
A0105_Printing
 62
1
100
AcDbPolyline
 90
4
 70
1
 10
1183.912970
 20
602.314985
 30
0.0
 10
1063.440973
 20
602.314985
 30
0.0
 10
1063.440973
 20
616.487985
 30
0.0
 10
1183.912970
 20
616.487985
 30
0.0
  0
LWPOLYLINE
  5
212
100
AcDbEntity
  8
A0105_Printing
 62
1
100
AcDbPolyline
 90
4
 70
1
 10
1084.699973
 20
510.188987
 30
0.0
 10
1070.526973
 20
510.188987
 30
0.0
 10
1070.526973
 20
566.881986
 30
0.0
 10
1084.699973
 20
566.881986
 30
0.0
  0
LWPOLYLINE
  5
213
100
AcDbEntity
  8
A0105_Printing
 62
1
100
AcDbPolyline
 90
68
 70
1
 10
1516.983962
 20
942.471976
 30
0.0
 10
1403.597965
 20
942.471976
 30
0.0
 10
1403.597965
 20
956.645976
 30
0.0
 10
1346.904966
 20
956.645976
 30
0.0
 10
1346.904966
 20
942.471976
 30
0.0
 10
1254.778969
 20
942.471976
 30
0.0
 10
1254.778969
 20
956.645976
 30
0.0
 10
1198.085970
 20
956.645976
 30
0.0
 10
1198.085970
 20
942.471976
 30
0.0
 10
1105.959972
 20
942.471976
 30
0.0
 10
1105.959972
 20
956.645976
 30
0.0
 10
1049.266974
 20
956.645976
 30
0.0
 10
1049.266974
 20
942.471976
 30
0.0
 10
935.880977
 20
942.471976
 30
0.0
 10
935.880977
 20
914.125977
 30
0.0
 10
921.707977
 20
914.125977
 30
0.0
 10
921.707977
 20
857.432979
 30
0.0
 10
935.880977
 20
857.432979
 30
0.0
 10
935.880977
 20
786.566980
 30
0.0
 10
978.400976
 20
786.566980
 30
0.0
 10
978.400976
 20
772.393981
 30
0.0
 10
935.880977
 20
772.393981
 30
0.0
 10
935.880977
 20
736.960982
 30
0.0
 10
921.707977
 20
736.960982
 30
0.0
 10
921.707977
 20
680.267983
 30
0.0
 10
935.880977
 20
680.267983
 30
0.0
 10
935.880977
 20
616.487985
 30
0.0
 10
978.400976
 20
616.487985
 30
0.0
 10
978.400976
 20
602.314985
 30
0.0
 10
935.880977
 20
602.314985
 30
0.0
 10
935.880977
 20
559.794986
 30
0.0
 10
921.707977
 20
559.794986
 30
0.0
 10
921.707977
 20
503.101987
 30
0.0
 10
935.880977
 20
503.101987
 30
0.0
 10
935.880977
 20
474.755988
 30
0.0
 10
1049.266974
 20
474.755988
 30
0.0
 10
1049.266974
 20
460.582988
 30
0.0
 10
1105.959972
 20
460.582988
 30
0.0
 10
1105.959972
 20
474.755988
 30
0.0
 10
1198.085970
 20
474.755988
 30
0.0
 10
1198.085970
 20
460.582988
 30
0.0
 10
1254.778969
 20
460.582988
 30
0.0
 10
1254.778969
 20
474.755988
 30
0.0
 10
1346.904966
 20
474.755988
 30
0.0
 10
1346.904966
 20
460.582988
 30
0.0
 10
1403.597965
 20
460.582988
 30
0.0
 10
1403.597965
 20
474.755988
 30
0.0
 10
1516.983962
 20
474.755988
 30
0.0
 10
1516.983962
 20
503.101987
 30
0.0
 10
1531.156962
 20
503.101987
 30
0.0
 10
1531.156962
 20
559.794986
 30
0.0
 10
1516.983962
 20
559.794986
 30
0.0
 10
1516.983962
 20
602.314985
 30
0.0
 10
1474.463963
 20
602.314985
 30
0.0
 10
1474.463963
 20
616.487985
 30
0.0
 10
1516.983962
 20
616.487985
 30
0.0
 10
1516.983962
 20
680.267983
 30
0.0
 10
1531.156962
 20
680.267983
 30
0.0
 10
1531.156962
 20
736.960982
 30
0.0
 10
1516.983962
 20
736.960982
 30
0.0
 10
1516.983962
 20
772.393981
 30
0.0
 10
1474.463963
 20
772.393981
 30
0.0
 10
1474.463963
 20
786.566980
 30
0.0
 10
1516.983962
 20
786.566980
 30
0.0
 10
1516.983962
 20
857.432979
 30
0.0
 10
1531.156962
 20
857.432979
 30
0.0
 10
1531.156962
 20
914.125977
 30
0.0
 10
1516.983962
 20
914.125977
 30
0.0
  0
SPLINE
  5
214
100
AcDbEntity
  8
A0105_Printing
 62
1
100
AcDbSpline
 70
8
 71
3
 72
8
 73
4
 74
0
 40
0
 40
0
 40
0
 40
0
 40
1
 40
1
 40
1
 40
1
 10
2055.566249
 20
488.935188
 30
0.0
 10
2055.566249
 20
496.763188
 30
0.0
 10
2077.776248
 20
503.108187
 30
0.0
 10
2105.173247
 20
503.108187
 30
0.0
  0
SPLINE
  5
215
100
AcDbEntity
  8
A0105_Printing
 62
1
100
AcDbSpline
 70
8
 71
3
 72
8
 73
4
 74
0
 40
0
 40
0
 40
0
 40
0
 40
1
 40
1
 40
1
 40
1
 10
2105.173247
 20
503.108187
 30
0.0
 10
2132.569247
 20
503.108187
 30
0.0
 10
2154.779246
 20
496.763188
 30
0.0
 10
2154.779246
 20
488.935188
 30
0.0
  0
LWPOLYLINE
  5
216
100
AcDbEntity
  8
A0105_Printing
 62
1
100
AcDbPolyline
 90
2
 70
0
 10
2041.393249
 20
488.935188
 30
0.0
 10
2055.566249
 20
488.935188
 30
0.0
  0
LWPOLYLINE
  5
217
100
AcDbEntity
  8
A0105_Printing
 62
1
100
AcDbPolyline
 90
17
 70
0
 10
2154.779246
 20
488.935188
 30
0.0
 10
2168.952246
 20
488.935188
 30
0.0
 10
2168.952246
 20
517.281187
 30
0.0
 10
2183.125245
 20
517.281187
 30
0.0
 10
2183.125245
 20
573.974186
 30
0.0
 10
2168.952246
 20
573.974186
 30
0.0
 10
2168.952246
 20
602.321185
 30
0.0
 10
2133.519247
 20
602.321185
 30
0.0
 10
2133.519247
 20
616.494185
 30
0.0
 10
2076.826248
 20
616.494185
 30
0.0
 10
2076.826248
 20
602.321185
 30
0.0
 10
2041.393249
 20
602.321185
 30
0.0
 10
2041.393249
 20
573.974186
 30
0.0
 10
2027.220249
 20
573.974186
 30
0.0
 10
2027.220249
 20
517.281187
 30
0.0
 10
2041.393249
 20
517.281187
 30
0.0
 10
2041.393249
 20
488.935188
 30
0.0
  0
SPLINE
  5
218
100
AcDbEntity
  8
A0105_Printing
 62
1
100
AcDbSpline
 70
8
 71
3
 72
8
 73
4
 74
0
 40
0
 40
0
 40
0
 40
0
 40
1
 40
1
 40
1
 40
1
 10
2154.779346
 20
488.935188
 30
0.0
 10
2154.779346
 20
481.107188
 30
0.0
 10
2132.569347
 20
474.762188
 30
0.0
 10
2105.172347
 20
474.762188
 30
0.0
  0
SPLINE
  5
219
100
AcDbEntity
  8
A0105_Printing
 62
1
100
AcDbSpline
 70
8
 71
3
 72
8
 73
4
 74
0
 40
0
 40
0
 40
0
 40
0
 40
1
 40
1
 40
1
 40
1
 10
2105.172347
 20
474.762188
 30
0.0
 10
2077.776348
 20
474.762188
 30
0.0
 10
2055.566349
 20
481.107188
 30
0.0
 10
2055.566349
 20
488.935188
 30
0.0
  0
LWPOLYLINE
  5
21a
100
AcDbEntity
  8
A0105_Printing
 62
1
100
AcDbPolyline
 90
2
 70
0
 10
2168.952346
 20
488.935188
 30
0.0
 10
2154.779346
 20
488.935188
 30
0.0
  0
LWPOLYLINE
  5
21b
100
AcDbEntity
  8
A0105_Printing
 62
1
100
AcDbPolyline
 90
17
 70
0
 10
2055.566349
 20
488.935188
 30
0.0
 10
2041.393349
 20
488.935188
 30
0.0
 10
2041.393349
 20
460.589188
 30
0.0
 10
2027.220349
 20
460.589188
 30
0.0
 10
2027.220349
 20
403.896190
 30
0.0
 10
2041.393349
 20
403.896190
 30
0.0
 10
2041.393349
 20
375.549191
 30
0.0
 10
2076.826348
 20
375.549191
 30
0.0
 10
2076.826348
 20
361.376191
 30
0.0
 10
2133.519347
 20
361.376191
 30
0.0
 10
2133.519347
 20
375.549191
 30
0.0
 10
2168.952346
 20
375.549191
 30
0.0
 10
2168.952346
 20
403.896190
 30
0.0
 10
2183.125345
 20
403.896190
 30
0.0
 10
2183.125345
 20
460.589188
 30
0.0
 10
2168.952346
 20
460.589188
 30
0.0
 10
2168.952346
 20
488.935188
 30
0.0
  0
LWPOLYLINE
  5
21c
100
AcDbEntity
  8
A0105_Printing
 62
7
100
AcDbPolyline
 90
4
 70
1
 10
1570.025961
 20
1130.256972
 30
0.0
 10
1561.101961
 20
1130.256972
 30
0.0
 10
1561.101961
 20
1134.443972
 30
0.0
 10
1570.025961
 20
1134.443972
 30
0.0
  0
LWPOLYLINE
  5
21d
100
AcDbEntity
  8
A0105_Printing
 62
7
100
AcDbPolyline
 90
4
 70
1
 10
1569.959961
 20
1124.478972
 30
0.0
 10
1561.035961
 20
1124.478972
 30
0.0
 10
1561.035961
 20
1125.636972
 30
0.0
 10
1569.959961
 20
1125.636972
 30
0.0
  0
LWPOLYLINE
  5
21e
100
AcDbEntity
  8
A0105_Printing
 62
7
100
AcDbPolyline
 90
4
 70
1
 10
1569.959961
 20
1117.632972
 30
0.0
 10
1561.035961
 20
1117.632972
 30
0.0
 10
1561.035961
 20
1120.828972
 30
0.0
 10
1569.959961
 20
1120.828972
 30
0.0
  0
SPLINE
  5
21f
100
AcDbEntity
  8
A0105_Printing
 62
7
100
AcDbSpline
 70
8
 71
3
 72
8
 73
4
 74
0
 40
0
 40
0
 40
0
 40
0
 40
1
 40
1
 40
1
 40
1
 10
1599.732960
 20
1130.004972
 30
0.0
 10
1599.417960
 20
1131.241972
 30
0.0
 10
1598.896960
 20
1132.309972
 30
0.0
 10
1598.171960
 20
1133.208972
 30
0.0
  0
SPLINE
  5
220
100
AcDbEntity
  8
A0105_Printing
 62
7
100
AcDbSpline
 70
8
 71
3
 72
8
 73
4
 74
0
 40
0
 40
0
 40
0
 40
0
 40
1
 40
1
 40
1
 40
1
 10
1598.171960
 20
1133.208972
 30
0.0
 10
1597.036960
 20
1134.611972
 30
0.0
 10
1595.719960
 20
1135.494972
 30
0.0
 10
1594.222960
 20
1135.857972
 30
0.0
  0
SPLINE
  5
221
100
AcDbEntity
  8
A0105_Printing
 62
7
100
AcDbSpline
 70
8
 71
3
 72
8
 73
4
 74
0
 40
0
 40
0
 40
0
 40
0
 40
1
 40
1
 40
1
 40
1
 10
1594.222960
 20
1135.857972
 30
0.0
 10
1592.676960
 20
1136.235972
 30
0.0
 10
1590.571960
 20
1136.425972
 30
0.0
 10
1587.907960
 20
1136.425972
 30
0.0
  0
LWPOLYLINE
  5
222
100
AcDbEntity
  8
A0105_Printing
 62
7
100
AcDbPolyline
 90
4
 70
1
 10
1569.959961
 20
1106.378972
 30
0.0
 10
1561.035961
 20
1106.378972
 30
0.0
 10
1561.035961
 20
1113.779972
 30
0.0
 10
1569.959961
 20
1113.779972
 30
0.0
  0
SPLINE
  5
223
100
AcDbEntity
  8
A0105_Printing
 62
7
100
AcDbSpline
 70
8
 71
3
 72
8
 73
4
 74
0
 40
0
 40
0
 40
0
 40
0
 40
1
 40
1
 40
1
 40
1
 10
1587.599960
 20
1128.762972
 30
0.0
 10
1588.356960
 20
1128.762972
 30
0.0
 10
1588.967960
 20
1128.703972
 30
0.0
 10
1589.432960
 20
1128.584972
 30
0.0
  0
SPLINE
  5
224
100
AcDbEntity
  8
A0105_Printing
 62
7
100
AcDbSpline
 70
8
 71
3
 72
8
 73
4
 74
0
 40
0
 40
0
 40
0
 40
0
 40
1
 40
1
 40
1
 40
1
 10
1589.432960
 20
1128.584972
 30
0.0
 10
1589.897960
 20
1128.466972
 30
0.0
 10
1590.280960
 20
1128.265972
 30
0.0
 10
1590.579960
 20
1127.982972
 30
0.0
  0
SPLINE
  5
225
100
AcDbEntity
  8
A0105_Printing
 62
7
100
AcDbSpline
 70
8
 71
3
 72
8
 73
4
 74
0
 40
0
 40
0
 40
0
 40
0
 40
1
 40
1
 40
1
 40
1
 10
1590.579960
 20
1127.982972
 30
0.0
 10
1590.895960
 20
1127.683972
 30
0.0
 10
1591.111960
 20
1127.312972
 30
0.0
 10
1591.230960
 20
1126.872972
 30
0.0
  0
SPLINE
  5
226
100
AcDbEntity
  8
A0105_Printing
 62
7
100
AcDbSpline
 70
8
 71
3
 72
8
 73
4
 74
0
 40
0
 40
0
 40
0
 40
0
 40
1
 40
1
 40
1
 40
1
 10
1591.230960
 20
1126.872972
 30
0.0
 10
1591.348960
 20
1126.430972
 30
0.0
 10
1591.407960
 20
1125.769972
 30
0.0
 10
1591.407960
 20
1124.887972
 30
0.0
  0
LWPOLYLINE
  5
227
100
AcDbEntity
  8
A0105_Printing
 62
7
100
AcDbPolyline
 90
6
 70
0
 10
1587.907960
 20
1136.425972
 30
0.0
 10
1557.685961
 20
1136.425972
 30
0.0
 10
1557.685961
 20
1104.166972
 30
0.0
 10
1573.811961
 20
1104.166972
 30
0.0
 10
1573.811961
 20
1128.762972
 30
0.0
 10
1587.599960
 20
1128.762972
 30
0.0
  0
SPLINE
  5
228
100
AcDbEntity
  8
A0105_Printing
 62
7
100
AcDbSpline
 70
8
 71
3
 72
8
 73
4
 74
0
 40
0
 40
0
 40
0
 40
0
 40
1
 40
1
 40
1
 40
1
 10
1600.205960
 20
1125.241972
 30
0.0
 10
1600.205960
 20
1127.179972
 30
0.0
 10
1600.047960
 20
1128.766972
 30
0.0
 10
1599.732960
 20
1130.004972
 30
0.0
  0
LWPOLYLINE
  5
229
100
AcDbEntity
  8
A0105_Printing
 62
7
100
AcDbPolyline
 90
4
 70
0
 10
1591.407960
 20
1124.887972
 30
0.0
 10
1591.407960
 20
1104.166972
 30
0.0
 10
1600.205960
 20
1104.166972
 30
0.0
 10
1600.205960
 20
1125.241972
 30
0.0
  0
LWPOLYLINE
  5
22a
100
AcDbEntity
  8
A0105_Printing
 62
7
100
AcDbPolyline
 90
4
 70
1
 10
1578.529961
 20
1104.166972
 30
0.0
 10
1586.689960
 20
1104.166972
 30
0.0
 10
1586.689960
 20
1124.008972
 30
0.0
 10
1578.529961
 20
1124.008972
 30
0.0
  0
LWPOLYLINE
  5
22b
100
AcDbEntity
  8
A0105_Printing
 62
4
100
AcDbPolyline
 90
3
 70
0
 10
1616.891060
 20
1106.275472
 30
0.0
 10
1604.211060
 20
1106.275472
 30
0.0
 10
1602.686060
 20
1107.420472
 30
0.0
  0
LWPOLYLINE
  5
22c
100
AcDbEntity
  8
A0105_Printing
 62
4
100
AcDbPolyline
 90
7
 70
0
 10
1657.837859
 20
1106.275472
 30
0.0
 10
1642.155859
 20
1106.275472
 30
0.0
 10
1640.630859
 20
1107.420472
 30
0.0
 10
1634.895859
 20
1118.619472
 30
0.0
 10
1624.223859
 20
1118.619472
 30
0.0
 10
1618.415860
 20
1107.256472
 30
0.0
 10
1616.890860
 20
1106.275472
 30
0.0
  0
LWPOLYLINE
  5
22d
100
AcDbEntity
  8
A0105_Printing
 62
4
100
AcDbPolyline
 90
3
 70
0
 10
1666.167458
 20
1120.402972
 30
0.0
 10
1659.362459
 20
1107.256972
 30
0.0
 10
1657.837459
 20
1106.275972
 30
0.0
  0
LWPOLYLINE
  5
22e
100
AcDbEntity
  8
A0105_Printing
 62
4
100
AcDbPolyline
 90
4
 70
0
 10
1665.706058
 20
1146.130571
 30
0.0
 10
1659.786059
 20
1134.879572
 30
0.0
 10
1659.694059
 20
1132.918572
 30
0.0
 10
1666.112058
 20
1120.296572
 30
0.0
  0
LWPOLYLINE
  5
22f
100
AcDbEntity
  8
A0105_Printing
 62
4
100
AcDbPolyline
 90
5
 70
0
 10
1665.638858
 20
1146.074571
 30
0.0
 10
1665.638858
 20
1148.036571
 30
0.0
 10
1659.830859
 20
1159.399571
 30
0.0
 10
1665.638858
 20
1170.762571
 30
0.0
 10
1665.638858
 20
1172.724571
 30
0.0
  0
LWPOLYLINE
  5
230
100
AcDbEntity
  8
A0105_Printing
 62
4
100
AcDbPolyline
 90
16
 70
0
 10
1558.115561
 20
1171.242371
 30
0.0
 10
1564.769561
 20
1185.151370
 30
0.0
 10
1567.516561
 20
1186.132370
 30
0.0
 10
1581.847560
 20
1186.132370
 30
0.0
 10
1583.444560
 20
1184.987370
 30
0.0
 10
1588.526560
 20
1174.932371
 30
0.0
 10
1600.432560
 20
1174.932371
 30
0.0
 10
1605.659560
 20
1185.151370
 30
0.0
 10
1607.111560
 20
1186.132370
 30
0.0
 10
1619.744560
 20
1186.132370
 30
0.0
 10
1621.341559
 20
1184.987370
 30
0.0
 10
1627.076559
 20
1173.787371
 30
0.0
 10
1637.748559
 20
1173.787371
 30
0.0
 10
1643.556559
 20
1185.151370
 30
0.0
 10
1645.008559
 20
1186.132370
 30
0.0
 10
1657.688559
 20
1186.132370
 30
0.0
  0
LWPOLYLINE
  5
231
100
AcDbEntity
  8
A0105_Printing
 62
4
100
AcDbPolyline
 90
5
 70
0
 10
1659.721959
 20
1159.481571
 30
0.0
 10
1665.529958
 20
1170.844571
 30
0.0
 10
1665.529958
 20
1172.806571
 30
0.0
 10
1659.285959
 20
1184.987570
 30
0.0
 10
1657.688959
 20
1186.131570
 30
0.0
  0
LWPOLYLINE
  5
232
100
AcDbEntity
  8
A0105_Printing
 62
4
100
AcDbPolyline
 90
5
 70
0
 10
1558.115561
 20
1171.242371
 30
0.0
 10
1558.042561
 20
1168.462371
 30
0.0
 10
1564.334561
 20
1157.100371
 30
0.0
 10
1558.526561
 20
1145.736371
 30
0.0
 10
1558.454561
 20
1143.774371
 30
0.0
  0
LWPOLYLINE
  5
233
100
AcDbEntity
  8
A0105_Printing
 62
4
100
AcDbPolyline
 90
2
 70
0
 10
1708.568357
 20
1143.774871
 30
0.0
 10
1714.883357
 20
1132.026872
 30
0.0
  0
LWPOLYLINE
  5
234
100
AcDbEntity
  8
A0105_Printing
 62
4
100
AcDbPolyline
 90
2
 70
0
 10
1714.939857
 20
1107.356572
 30
0.0
 10
1714.991857
 20
1107.256572
 30
0.0
  0
LWPOLYLINE
  5
235
100
AcDbEntity
  8
A0105_Printing
 62
4
100
AcDbPolyline
 90
4
 70
0
 10
1714.883757
 20
1132.026672
 30
0.0
 10
1709.075757
 20
1120.663672
 30
0.0
 10
1709.002757
 20
1118.701672
 30
0.0
 10
1712.509757
 20
1111.999672
 30
0.0
  0
LWPOLYLINE
  5
236
100
AcDbEntity
  8
A0105_Printing
 62
4
100
AcDbPolyline
 90
2
 70
0
 10
1714.939857
 20
1107.356572
 30
0.0
 10
1712.509857
 20
1111.999572
 30
0.0
  0
LWPOLYLINE
  5
237
100
AcDbEntity
  8
A0105_Printing
 62
4
100
AcDbPolyline
 90
3
 70
0
 10
1714.939857
 20
1107.356572
 30
0.0
 10
1714.854857
 20
1107.420572
 30
0.0
 10
1712.509857
 20
1111.999572
 30
0.0
  0
LWPOLYLINE
  5
238
100
AcDbEntity
  8
A0105_Printing
 62
4
100
AcDbPolyline
 90
3
 70
0
 10
1729.060357
 20
1106.275472
 30
0.0
 10
1716.380357
 20
1106.275472
 30
0.0
 10
1714.940357
 20
1107.356472
 30
0.0
  0
LWPOLYLINE
  5
239
100
AcDbEntity
  8
A0105_Printing
 62
4
100
AcDbPolyline
 90
2
 70
0
 10
1709.119957
 20
1118.619772
 30
0.0
 10
1712.509957
 20
1111.999772
 30
0.0
  0
LWPOLYLINE
  5
23a
100
AcDbEntity
  8
A0105_Printing
 62
4
100
AcDbPolyline
 90
7
 70
0
 10
1767.005156
 20
1106.275472
 30
0.0
 10
1754.325156
 20
1106.275472
 30
0.0
 10
1752.800156
 20
1107.420472
 30
0.0
 10
1747.065156
 20
1118.619472
 30
0.0
 10
1736.393157
 20
1118.619472
 30
0.0
 10
1730.585157
 20
1107.256472
 30
0.0
 10
1729.060157
 20
1106.275472
 30
0.0
  0
LWPOLYLINE
  5
23b
100
AcDbEntity
  8
A0105_Printing
 62
4
100
AcDbPolyline
 90
7
 70
0
 10
1807.951955
 20
1106.275472
 30
0.0
 10
1792.269955
 20
1106.275472
 30
0.0
 10
1790.744955
 20
1107.420472
 30
0.0
 10
1785.009955
 20
1118.619472
 30
0.0
 10
1774.337956
 20
1118.619472
 30
0.0
 10
1768.529956
 20
1107.256472
 30
0.0
 10
1767.004956
 20
1106.275472
 30
0.0
  0
LWPOLYLINE
  5
23c
100
AcDbEntity
  8
A0105_Printing
 62
4
100
AcDbPolyline
 90
3
 70
0
 10
1816.281555
 20
1120.402972
 30
0.0
 10
1809.476555
 20
1107.256972
 30
0.0
 10
1807.951555
 20
1106.275972
 30
0.0
  0
LWPOLYLINE
  5
23d
100
AcDbEntity
  8
A0105_Printing
 62
4
100
AcDbPolyline
 90
4
 70
0
 10
1815.820155
 20
1146.130571
 30
0.0
 10
1809.900155
 20
1134.879572
 30
0.0
 10
1809.808155
 20
1132.918572
 30
0.0
 10
1816.226155
 20
1120.296572
 30
0.0
  0
LWPOLYLINE
  5
23e
100
AcDbEntity
  8
A0105_Printing
 62
4
100
AcDbPolyline
 90
5
 70
0
 10
1815.753055
 20
1146.074571
 30
0.0
 10
1815.753055
 20
1148.036571
 30
0.0
 10
1809.945055
 20
1159.399571
 30
0.0
 10
1815.753055
 20
1170.762571
 30
0.0
 10
1815.753055
 20
1172.724571
 30
0.0
  0
LWPOLYLINE
  5
23f
100
AcDbEntity
  8
A0105_Printing
 62
4
100
AcDbPolyline
 90
16
 70
0
 10
1708.229657
 20
1171.242371
 30
0.0
 10
1714.883657
 20
1185.151370
 30
0.0
 10
1717.630657
 20
1186.132370
 30
0.0
 10
1731.961657
 20
1186.132370
 30
0.0
 10
1733.558657
 20
1184.987370
 30
0.0
 10
1738.640657
 20
1174.932371
 30
0.0
 10
1750.546656
 20
1174.932371
 30
0.0
 10
1755.773656
 20
1185.151370
 30
0.0
 10
1757.225656
 20
1186.132370
 30
0.0
 10
1769.858656
 20
1186.132370
 30
0.0
 10
1771.455656
 20
1184.987370
 30
0.0
 10
1777.190656
 20
1173.787371
 30
0.0
 10
1787.862655
 20
1173.787371
 30
0.0
 10
1793.670655
 20
1185.151370
 30
0.0
 10
1795.122655
 20
1186.132370
 30
0.0
 10
1807.802655
 20
1186.132370
 30
0.0
  0
LWPOLYLINE
  5
240
100
AcDbEntity
  8
A0105_Printing
 62
4
100
AcDbPolyline
 90
5
 70
0
 10
1809.836155
 20
1159.481571
 30
0.0
 10
1815.644155
 20
1170.844571
 30
0.0
 10
1815.644155
 20
1172.806571
 30
0.0
 10
1809.400155
 20
1184.987570
 30
0.0
 10
1807.803155
 20
1186.131570
 30
0.0
  0
LWPOLYLINE
  5
241
100
AcDbEntity
  8
A0105_Printing
 62
4
100
AcDbPolyline
 90
6
 70
0
 10
1708.229657
 20
1171.242371
 30
0.0
 10
1708.156657
 20
1168.462371
 30
0.0
 10
1714.448657
 20
1157.100371
 30
0.0
 10
1708.640657
 20
1145.736371
 30
0.0
 10
1708.568657
 20
1143.774371
 30
0.0
 10
1714.883657
 20
1132.026372
 30
0.0
  0
LWPOLYLINE
  5
242
100
AcDbEntity
  8
A0105_Printing
 62
4
100
AcDbPolyline
 90
2
 70
0
 10
1858.682554
 20
1143.774871
 30
0.0
 10
1864.997553
 20
1132.026872
 30
0.0
  0
LWPOLYLINE
  5
243
100
AcDbEntity
  8
A0105_Printing
 62
4
100
AcDbPolyline
 90
2
 70
0
 10
1865.054153
 20
1107.356572
 30
0.0
 10
1865.106153
 20
1107.256572
 30
0.0
  0
LWPOLYLINE
  5
244
100
AcDbEntity
  8
A0105_Printing
 62
4
100
AcDbPolyline
 90
4
 70
0
 10
1864.997953
 20
1132.026672
 30
0.0
 10
1859.189954
 20
1120.663672
 30
0.0
 10
1859.116954
 20
1118.701672
 30
0.0
 10
1862.623953
 20
1111.999672
 30
0.0
  0
LWPOLYLINE
  5
245
100
AcDbEntity
  8
A0105_Printing
 62
4
100
AcDbPolyline
 90
2
 70
0
 10
1865.054153
 20
1107.356572
 30
0.0
 10
1862.624153
 20
1111.999572
 30
0.0
  0
LWPOLYLINE
  5
246
100
AcDbEntity
  8
A0105_Printing
 62
4
100
AcDbPolyline
 90
3
 70
0
 10
1865.054153
 20
1107.356572
 30
0.0
 10
1864.969153
 20
1107.420572
 30
0.0
 10
1862.624153
 20
1111.999572
 30
0.0
  0
LWPOLYLINE
  5
247
100
AcDbEntity
  8
A0105_Printing
 62
4
100
AcDbPolyline
 90
3
 70
0
 10
1879.174653
 20
1106.275472
 30
0.0
 10
1866.494653
 20
1106.275472
 30
0.0
 10
1865.054653
 20
1107.356472
 30
0.0
  0
LWPOLYLINE
  5
248
100
AcDbEntity
  8
A0105_Printing
 62
4
100
AcDbPolyline
 90
2
 70
0
 10
1859.234254
 20
1118.619772
 30
0.0
 10
1862.624253
 20
1111.999772
 30
0.0
  0
LWPOLYLINE
  5
249
100
AcDbEntity
  8
A0105_Printing
 62
4
100
AcDbPolyline
 90
7
 70
0
 10
1917.119452
 20
1106.275472
 30
0.0
 10
1904.439452
 20
1106.275472
 30
0.0
 10
1902.914452
 20
1107.420472
 30
0.0
 10
1897.179453
 20
1118.619472
 30
0.0
 10
1886.507453
 20
1118.619472
 30
0.0
 10
1880.699453
 20
1107.256472
 30
0.0
 10
1879.174453
 20
1106.275472
 30
0.0
  0
LWPOLYLINE
  5
24a
100
AcDbEntity
  8
A0105_Printing
 62
4
100
AcDbPolyline
 90
7
 70
0
 10
1958.066251
 20
1106.275472
 30
0.0
 10
1942.384251
 20
1106.275472
 30
0.0
 10
1940.859251
 20
1107.420472
 30
0.0
 10
1935.124252
 20
1118.619472
 30
0.0
 10
1924.452252
 20
1118.619472
 30
0.0
 10
1918.644252
 20
1107.256472
 30
0.0
 10
1917.119252
 20
1106.275472
 30
0.0
  0
LWPOLYLINE
  5
24b
100
AcDbEntity
  8
A0105_Printing
 62
4
100
AcDbPolyline
 90
3
 70
0
 10
1966.395851
 20
1120.402972
 30
0.0
 10
1959.590851
 20
1107.256972
 30
0.0
 10
1958.065851
 20
1106.275972
 30
0.0
  0
LWPOLYLINE
  5
24c
100
AcDbEntity
  8
A0105_Printing
 62
4
100
AcDbPolyline
 90
4
 70
0
 10
1965.934351
 20
1146.130571
 30
0.0
 10
1960.014351
 20
1134.879572
 30
0.0
 10
1959.922351
 20
1132.918572
 30
0.0
 10
1966.340351
 20
1120.296572
 30
0.0
  0
LWPOLYLINE
  5
24d
100
AcDbEntity
  8
A0105_Printing
 62
4
100
AcDbPolyline
 90
5
 70
0
 10
1965.867251
 20
1146.074571
 30
0.0
 10
1965.867251
 20
1148.036571
 30
0.0
 10
1960.059251
 20
1159.399571
 30
0.0
 10
1965.867251
 20
1170.762571
 30
0.0
 10
1965.867251
 20
1172.724571
 30
0.0
  0
LWPOLYLINE
  5
24e
100
AcDbEntity
  8
A0105_Printing
 62
4
100
AcDbPolyline
 90
16
 70
0
 10
1858.343954
 20
1171.242371
 30
0.0
 10
1864.997953
 20
1185.151370
 30
0.0
 10
1867.744953
 20
1186.132370
 30
0.0
 10
1882.075953
 20
1186.132370
 30
0.0
 10
1883.672953
 20
1184.987370
 30
0.0
 10
1888.754953
 20
1174.932371
 30
0.0
 10
1900.660952
 20
1174.932371
 30
0.0
 10
1905.887952
 20
1185.151370
 30
0.0
 10
1907.339952
 20
1186.132370
 30
0.0
 10
1919.972952
 20
1186.132370
 30
0.0
 10
1921.569952
 20
1184.987370
 30
0.0
 10
1927.304952
 20
1173.787371
 30
0.0
 10
1937.976952
 20
1173.787371
 30
0.0
 10
1943.784951
 20
1185.151370
 30
0.0
 10
1945.236951
 20
1186.132370
 30
0.0
 10
1957.916951
 20
1186.132370
 30
0.0
  0
LWPOLYLINE
  5
24f
100
AcDbEntity
  8
A0105_Printing
 62
4
100
AcDbPolyline
 90
5
 70
0
 10
1959.950351
 20
1159.481571
 30
0.0
 10
1965.758351
 20
1170.844571
 30
0.0
 10
1965.758351
 20
1172.806571
 30
0.0
 10
1959.514351
 20
1184.987570
 30
0.0
 10
1957.917351
 20
1186.131570
 30
0.0
  0
LWPOLYLINE
  5
250
100
AcDbEntity
  8
A0105_Printing
 62
4
100
AcDbPolyline
 90
6
 70
0
 10
1858.343954
 20
1171.242371
 30
0.0
 10
1858.270954
 20
1168.462371
 30
0.0
 10
1864.562953
 20
1157.100371
 30
0.0
 10
1858.754954
 20
1145.736371
 30
0.0
 10
1858.682954
 20
1143.774371
 30
0.0
 10
1864.997953
 20
1132.026372
 30
0.0
  0
LWPOLYLINE
  5
251
100
AcDbEntity
  8
A0105_Printing
 62
4
100
AcDbPolyline
 90
2
 70
0
 10
2008.796850
 20
1143.774871
 30
0.0
 10
2015.111850
 20
1132.026872
 30
0.0
  0
LWPOLYLINE
  5
252
100
AcDbEntity
  8
A0105_Printing
 62
4
100
AcDbPolyline
 90
2
 70
0
 10
2015.168450
 20
1107.356572
 30
0.0
 10
2015.220450
 20
1107.256572
 30
0.0
  0
LWPOLYLINE
  5
253
100
AcDbEntity
  8
A0105_Printing
 62
4
100
AcDbPolyline
 90
4
 70
0
 10
2015.112250
 20
1132.026672
 30
0.0
 10
2009.304250
 20
1120.663672
 30
0.0
 10
2009.231250
 20
1118.701672
 30
0.0
 10
2012.738250
 20
1111.999672
 30
0.0
  0
LWPOLYLINE
  5
254
100
AcDbEntity
  8
A0105_Printing
 62
4
100
AcDbPolyline
 90
2
 70
0
 10
2015.168450
 20
1107.356572
 30
0.0
 10
2012.738450
 20
1111.999572
 30
0.0
  0
LWPOLYLINE
  5
255
100
AcDbEntity
  8
A0105_Printing
 62
4
100
AcDbPolyline
 90
3
 70
0
 10
2015.168450
 20
1107.356572
 30
0.0
 10
2015.083450
 20
1107.420572
 30
0.0
 10
2012.738450
 20
1111.999572
 30
0.0
  0
LWPOLYLINE
  5
256
100
AcDbEntity
  8
A0105_Printing
 62
4
100
AcDbPolyline
 90
3
 70
0
 10
2029.288849
 20
1106.275472
 30
0.0
 10
2016.608850
 20
1106.275472
 30
0.0
 10
2015.168850
 20
1107.356472
 30
0.0
  0
LWPOLYLINE
  5
257
100
AcDbEntity
  8
A0105_Printing
 62
4
100
AcDbPolyline
 90
2
 70
0
 10
2009.348450
 20
1118.619772
 30
0.0
 10
2012.738450
 20
1111.999772
 30
0.0
  0
LWPOLYLINE
  5
258
100
AcDbEntity
  8
A0105_Printing
 62
4
100
AcDbPolyline
 90
7
 70
0
 10
2067.233548
 20
1106.275472
 30
0.0
 10
2054.553549
 20
1106.275472
 30
0.0
 10
2053.028549
 20
1107.420472
 30
0.0
 10
2047.293549
 20
1118.619472
 30
0.0
 10
2036.621549
 20
1118.619472
 30
0.0
 10
2030.813549
 20
1107.256472
 30
0.0
 10
2029.288549
 20
1106.275472
 30
0.0
  0
LWPOLYLINE
  5
259
100
AcDbEntity
  8
A0105_Printing
 62
4
100
AcDbPolyline
 90
7
 70
0
 10
2108.180347
 20
1106.275472
 30
0.0
 10
2092.498348
 20
1106.275472
 30
0.0
 10
2090.973348
 20
1107.420472
 30
0.0
 10
2085.238348
 20
1118.619472
 30
0.0
 10
2074.566348
 20
1118.619472
 30
0.0
 10
2068.758348
 20
1107.256472
 30
0.0
 10
2067.233348
 20
1106.275472
 30
0.0
  0
LWPOLYLINE
  5
25a
100
AcDbEntity
  8
A0105_Printing
 62
4
100
AcDbPolyline
 90
3
 70
0
 10
2116.509947
 20
1120.402972
 30
0.0
 10
2109.704947
 20
1107.256972
 30
0.0
 10
2108.179947
 20
1106.275972
 30
0.0
  0
LWPOLYLINE
  5
25b
100
AcDbEntity
  8
A0105_Printing
 62
4
100
AcDbPolyline
 90
4
 70
0
 10
2116.048547
 20
1146.130571
 30
0.0
 10
2110.128547
 20
1134.879572
 30
0.0
 10
2110.036547
 20
1132.918572
 30
0.0
 10
2116.454547
 20
1120.296572
 30
0.0
  0
LWPOLYLINE
  5
25c
100
AcDbEntity
  8
A0105_Printing
 62
4
100
AcDbPolyline
 90
5
 70
0
 10
2115.981347
 20
1146.074571
 30
0.0
 10
2115.981347
 20
1148.036571
 30
0.0
 10
2110.173347
 20
1159.399571
 30
0.0
 10
2115.981347
 20
1170.762571
 30
0.0
 10
2115.981347
 20
1172.724571
 30
0.0
  0
LWPOLYLINE
  5
25d
100
AcDbEntity
  8
A0105_Printing
 62
4
100
AcDbPolyline
 90
16
 70
0
 10
2008.458250
 20
1171.242371
 30
0.0
 10
2015.112250
 20
1185.151370
 30
0.0
 10
2017.859250
 20
1186.132370
 30
0.0
 10
2032.190249
 20
1186.132370
 30
0.0
 10
2033.787249
 20
1184.987370
 30
0.0
 10
2038.869249
 20
1174.932371
 30
0.0
 10
2050.775249
 20
1174.932371
 30
0.0
 10
2056.002249
 20
1185.151370
 30
0.0
 10
2057.454249
 20
1186.132370
 30
0.0
 10
2070.087248
 20
1186.132370
 30
0.0
 10
2071.684248
 20
1184.987370
 30
0.0
 10
2077.419248
 20
1173.787371
 30
0.0
 10
2088.091248
 20
1173.787371
 30
0.0
 10
2093.899248
 20
1185.151370
 30
0.0
 10
2095.351248
 20
1186.132370
 30
0.0
 10
2108.031247
 20
1186.132370
 30
0.0
  0
LWPOLYLINE
  5
25e
100
AcDbEntity
  8
A0105_Printing
 62
4
100
AcDbPolyline
 90
5
 70
0
 10
2110.064647
 20
1159.481571
 30
0.0
 10
2115.872647
 20
1170.844571
 30
0.0
 10
2115.872647
 20
1172.806571
 30
0.0
 10
2109.628647
 20
1184.987570
 30
0.0
 10
2108.031647
 20
1186.131570
 30
0.0
  0
LWPOLYLINE
  5
25f
100
AcDbEntity
  8
A0105_Printing
 62
4
100
AcDbPolyline
 90
6
 70
0
 10
2008.458250
 20
1171.242371
 30
0.0
 10
2008.385250
 20
1168.462371
 30
0.0
 10
2014.677250
 20
1157.100371
 30
0.0
 10
2008.869250
 20
1145.736371
 30
0.0
 10
2008.797250
 20
1143.774371
 30
0.0
 10
2015.112250
 20
1132.026372
 30
0.0
  0
LWPOLYLINE
  5
260
100
AcDbEntity
  8
A0105_Printing
 62
1
100
AcDbPolyline
 90
6
 70
1
 10
2107.027247
 20
1110.199472
 30
0.0
 10
2096.355248
 20
1110.199472
 30
0.0
 10
2091.055248
 20
1120.581472
 30
0.0
 10
2096.355248
 20
1130.963472
 30
0.0
 10
2107.027247
 20
1130.963472
 30
0.0
 10
2112.327247
 20
1120.581472
 30
0.0
  0
LWPOLYLINE
  5
261
100
AcDbEntity
  8
A0105_Printing
 62
1
100
AcDbPolyline
 90
6
 70
1
 10
2077.407248
 20
1147.150471
 30
0.0
 10
2072.107248
 20
1157.532471
 30
0.0
 10
2077.407248
 20
1167.914471
 30
0.0
 10
2088.079248
 20
1167.914471
 30
0.0
 10
2093.379248
 20
1157.532471
 30
0.0
 10
2088.079248
 20
1147.150471
 30
0.0
  0
LWPOLYLINE
  5
262
100
AcDbEntity
  8
A0105_Printing
 62
1
100
AcDbPolyline
 90
6
 70
1
 10
2069.131248
 20
1134.887472
 30
0.0
 10
2058.458249
 20
1134.887472
 30
0.0
 10
2053.159249
 20
1145.188471
 30
0.0
 10
2058.458249
 20
1155.570471
 30
0.0
 10
2069.131248
 20
1155.570471
 30
0.0
 10
2074.430248
 20
1145.188471
 30
0.0
  0
LWPOLYLINE
  5
263
100
AcDbEntity
  8
A0105_Printing
 62
1
100
AcDbPolyline
 90
6
 70
1
 10
2067.129248
 20
1110.199472
 30
0.0
 10
2056.457249
 20
1110.199472
 30
0.0
 10
2051.158249
 20
1120.581472
 30
0.0
 10
2056.457249
 20
1130.963472
 30
0.0
 10
2067.129248
 20
1130.963472
 30
0.0
 10
2072.429248
 20
1120.581472
 30
0.0
  0
LWPOLYLINE
  5
264
100
AcDbEntity
  8
A0105_Printing
 62
1
100
AcDbPolyline
 90
6
 70
1
 10
2038.929249
 20
1148.376471
 30
0.0
 10
2034.211249
 20
1157.532471
 30
0.0
 10
2039.510249
 20
1167.914471
 30
0.0
 10
2050.182249
 20
1167.914471
 30
0.0
 10
2055.482249
 20
1157.532471
 30
0.0
 10
2050.763249
 20
1148.376471
 30
0.0
  0
LWPOLYLINE
  5
265
100
AcDbEntity
  8
A0105_Printing
 62
1
100
AcDbPolyline
 90
6
 70
1
 10
2029.160249
 20
1110.199472
 30
0.0
 10
2018.561250
 20
1110.199472
 30
0.0
 10
2013.188250
 20
1120.581472
 30
0.0
 10
2018.561250
 20
1130.963472
 30
0.0
 10
2029.160249
 20
1130.963472
 30
0.0
 10
2034.532249
 20
1120.581472
 30
0.0
  0
LWPOLYLINE
  5
266
100
AcDbEntity
  8
A0105_Printing
 62
1
100
AcDbPolyline
 90
6
 70
1
 10
2018.561250
 20
1155.570471
 30
0.0
 10
2029.160249
 20
1155.570471
 30
0.0
 10
2033.879249
 20
1146.414471
 30
0.0
 10
2027.998249
 20
1134.887472
 30
0.0
 10
2018.561250
 20
1134.887472
 30
0.0
 10
2013.188250
 20
1145.188471
 30
0.0
  0
LWPOLYLINE
  5
267
100
AcDbEntity
  8
A0105_Printing
 62
1
100
AcDbPolyline
 90
6
 70
1
 10
2018.561250
 20
1181.583470
 30
0.0
 10
2029.160249
 20
1181.583470
 30
0.0
 10
2033.879249
 20
1172.427471
 30
0.0
 10
2027.998249
 20
1160.901471
 30
0.0
 10
2018.561250
 20
1160.901471
 30
0.0
 10
2013.188250
 20
1171.201471
 30
0.0
  0
LWPOLYLINE
  5
268
100
AcDbEntity
  8
A0105_Printing
 62
1
100
AcDbPolyline
 90
6
 70
1
 10
2111.746247
 20
1146.414471
 30
0.0
 10
2105.793247
 20
1134.887472
 30
0.0
 10
2096.355248
 20
1134.887472
 30
0.0
 10
2091.055248
 20
1145.188471
 30
0.0
 10
2096.355248
 20
1155.570471
 30
0.0
 10
2107.027247
 20
1155.570471
 30
0.0
  0
LWPOLYLINE
  5
269
100
AcDbEntity
  8
A0105_Printing
 62
1
100
AcDbPolyline
 90
6
 70
1
 10
2096.355248
 20
1181.583470
 30
0.0
 10
2107.027247
 20
1181.583470
 30
0.0
 10
2111.746247
 20
1172.427471
 30
0.0
 10
2105.793247
 20
1160.901471
 30
0.0
 10
2096.355248
 20
1160.901471
 30
0.0
 10
2091.055248
 20
1171.201471
 30
0.0
  0
LWPOLYLINE
  5
26a
100
AcDbEntity
  8
A0105_Printing
 62
1
100
AcDbPolyline
 90
4
 70
1
 10
1991.787250
 20
1126.724472
 30
0.0
 10
1977.614251
 20
1126.724472
 30
0.0
 10
1977.614251
 20
1183.417470
 30
0.0
 10
1991.787250
 20
1183.417470
 30
0.0
  0
LWPOLYLINE
  5
26b
100
AcDbEntity
  8
A0105_Printing
 62
1
100
AcDbPolyline
 90
6
 70
1
 10
1956.913251
 20
1110.199472
 30
0.0
 10
1946.241251
 20
1110.199472
 30
0.0
 10
1940.941251
 20
1120.581472
 30
0.0
 10
1946.241251
 20
1130.963472
 30
0.0
 10
1956.913251
 20
1130.963472
 30
0.0
 10
1962.213251
 20
1120.581472
 30
0.0
  0
LWPOLYLINE
  5
26c
100
AcDbEntity
  8
A0105_Printing
 62
1
100
AcDbPolyline
 90
6
 70
1
 10
1927.293252
 20
1147.150471
 30
0.0
 10
1921.993252
 20
1157.532471
 30
0.0
 10
1927.293252
 20
1167.914471
 30
0.0
 10
1937.965252
 20
1167.914471
 30
0.0
 10
1943.264251
 20
1157.532471
 30
0.0
 10
1937.965252
 20
1147.150471
 30
0.0
  0
LWPOLYLINE
  5
26d
100
AcDbEntity
  8
A0105_Printing
 62
1
100
AcDbPolyline
 90
6
 70
1
 10
1919.016252
 20
1134.887472
 30
0.0
 10
1908.344252
 20
1134.887472
 30
0.0
 10
1903.045252
 20
1145.188471
 30
0.0
 10
1908.344252
 20
1155.570471
 30
0.0
 10
1919.016252
 20
1155.570471
 30
0.0
 10
1924.316252
 20
1145.188471
 30
0.0
  0
LWPOLYLINE
  5
26e
100
AcDbEntity
  8
A0105_Printing
 62
1
100
AcDbPolyline
 90
6
 70
1
 10
1917.015252
 20
1110.199472
 30
0.0
 10
1906.343252
 20
1110.199472
 30
0.0
 10
1901.043252
 20
1120.581472
 30
0.0
 10
1906.343252
 20
1130.963472
 30
0.0
 10
1917.015252
 20
1130.963472
 30
0.0
 10
1922.315252
 20
1120.581472
 30
0.0
  0
LWPOLYLINE
  5
26f
100
AcDbEntity
  8
A0105_Printing
 62
1
100
AcDbPolyline
 90
6
 70
1
 10
1888.815253
 20
1148.376471
 30
0.0
 10
1884.096253
 20
1157.532471
 30
0.0
 10
1889.396253
 20
1167.914471
 30
0.0
 10
1900.068252
 20
1167.914471
 30
0.0
 10
1905.368252
 20
1157.532471
 30
0.0
 10
1900.649252
 20
1148.376471
 30
0.0
  0
LWPOLYLINE
  5
270
100
AcDbEntity
  8
A0105_Printing
 62
1
100
AcDbPolyline
 90
6
 70
1
 10
1879.046253
 20
1110.199472
 30
0.0
 10
1868.446253
 20
1110.199472
 30
0.0
 10
1863.074253
 20
1120.581472
 30
0.0
 10
1868.446253
 20
1130.963472
 30
0.0
 10
1879.046253
 20
1130.963472
 30
0.0
 10
1884.418253
 20
1120.581472
 30
0.0
  0
LWPOLYLINE
  5
271
100
AcDbEntity
  8
A0105_Printing
 62
1
100
AcDbPolyline
 90
6
 70
1
 10
1868.446253
 20
1155.570471
 30
0.0
 10
1879.046253
 20
1155.570471
 30
0.0
 10
1883.765253
 20
1146.414471
 30
0.0
 10
1877.884253
 20
1134.887472
 30
0.0
 10
1868.446253
 20
1134.887472
 30
0.0
 10
1863.074253
 20
1145.188471
 30
0.0
  0
LWPOLYLINE
  5
272
100
AcDbEntity
  8
A0105_Printing
 62
1
100
AcDbPolyline
 90
6
 70
1
 10
1868.446253
 20
1181.583470
 30
0.0
 10
1879.046253
 20
1181.583470
 30
0.0
 10
1883.765253
 20
1172.427471
 30
0.0
 10
1877.884253
 20
1160.901471
 30
0.0
 10
1868.446253
 20
1160.901471
 30
0.0
 10
1863.074253
 20
1171.201471
 30
0.0
  0
LWPOLYLINE
  5
273
100
AcDbEntity
  8
A0105_Printing
 62
1
100
AcDbPolyline
 90
6
 70
1
 10
1961.632251
 20
1146.414471
 30
0.0
 10
1955.679251
 20
1134.887472
 30
0.0
 10
1946.241251
 20
1134.887472
 30
0.0
 10
1940.941251
 20
1145.188471
 30
0.0
 10
1946.241251
 20
1155.570471
 30
0.0
 10
1956.913251
 20
1155.570471
 30
0.0
  0
LWPOLYLINE
  5
274
100
AcDbEntity
  8
A0105_Printing
 62
1
100
AcDbPolyline
 90
6
 70
1
 10
1946.241251
 20
1181.583470
 30
0.0
 10
1956.913251
 20
1181.583470
 30
0.0
 10
1961.632251
 20
1172.427471
 30
0.0
 10
1955.679251
 20
1160.901471
 30
0.0
 10
1946.241251
 20
1160.901471
 30
0.0
 10
1940.941251
 20
1171.201471
 30
0.0
  0
LWPOLYLINE
  5
275
100
AcDbEntity
  8
A0105_Printing
 62
1
100
AcDbPolyline
 90
4
 70
1
 10
1842.968254
 20
1126.724472
 30
0.0
 10
1828.795254
 20
1126.724472
 30
0.0
 10
1828.795254
 20
1183.417470
 30
0.0
 10
1842.968254
 20
1183.417470
 30
0.0
  0
LWPOLYLINE
  5
276
100
AcDbEntity
  8
A0105_Printing
 62
1
100
AcDbPolyline
 90
6
 70
1
 10
1806.799255
 20
1110.199472
 30
0.0
 10
1796.127255
 20
1110.199472
 30
0.0
 10
1790.827255
 20
1120.581472
 30
0.0
 10
1796.127255
 20
1130.963472
 30
0.0
 10
1806.799255
 20
1130.963472
 30
0.0
 10
1812.098255
 20
1120.581472
 30
0.0
  0
LWPOLYLINE
  5
277
100
AcDbEntity
  8
A0105_Printing
 62
1
100
AcDbPolyline
 90
6
 70
1
 10
1777.178256
 20
1147.150471
 30
0.0
 10
1771.879256
 20
1157.532471
 30
0.0
 10
1777.178256
 20
1167.914471
 30
0.0
 10
1787.850255
 20
1167.914471
 30
0.0
 10
1793.150255
 20
1157.532471
 30
0.0
 10
1787.850255
 20
1147.150471
 30
0.0
  0
LWPOLYLINE
  5
278
100
AcDbEntity
  8
A0105_Printing
 62
1
100
AcDbPolyline
 90
6
 70
1
 10
1768.902256
 20
1134.887472
 30
0.0
 10
1758.230256
 20
1134.887472
 30
0.0
 10
1752.930256
 20
1145.188471
 30
0.0
 10
1758.230256
 20
1155.570471
 30
0.0
 10
1768.902256
 20
1155.570471
 30
0.0
 10
1774.202256
 20
1145.188471
 30
0.0
  0
LWPOLYLINE
  5
279
100
AcDbEntity
  8
A0105_Printing
 62
1
100
AcDbPolyline
 90
6
 70
1
 10
1766.901256
 20
1110.199472
 30
0.0
 10
1756.229256
 20
1110.199472
 30
0.0
 10
1750.929256
 20
1120.581472
 30
0.0
 10
1756.229256
 20
1130.963472
 30
0.0
 10
1766.901256
 20
1130.963472
 30
0.0
 10
1772.201256
 20
1120.581472
 30
0.0
  0
LWPOLYLINE
  5
27a
100
AcDbEntity
  8
A0105_Printing
 62
1
100
AcDbPolyline
 90
6
 70
1
 10
1738.701257
 20
1148.376471
 30
0.0
 10
1733.982257
 20
1157.532471
 30
0.0
 10
1739.282257
 20
1167.914471
 30
0.0
 10
1749.954256
 20
1167.914471
 30
0.0
 10
1755.254256
 20
1157.532471
 30
0.0
 10
1750.535256
 20
1148.376471
 30
0.0
  0
LWPOLYLINE
  5
27b
100
AcDbEntity
  8
A0105_Printing
 62
1
100
AcDbPolyline
 90
6
 70
1
 10
1728.932257
 20
1110.199472
 30
0.0
 10
1718.332257
 20
1110.199472
 30
0.0
 10
1712.960257
 20
1120.581472
 30
0.0
 10
1718.332257
 20
1130.963472
 30
0.0
 10
1728.932257
 20
1130.963472
 30
0.0
 10
1734.304257
 20
1120.581472
 30
0.0
  0
LWPOLYLINE
  5
27c
100
AcDbEntity
  8
A0105_Printing
 62
1
100
AcDbPolyline
 90
6
 70
1
 10
1718.332257
 20
1155.570471
 30
0.0
 10
1728.932257
 20
1155.570471
 30
0.0
 10
1733.651257
 20
1146.414471
 30
0.0
 10
1727.770257
 20
1134.887472
 30
0.0
 10
1718.332257
 20
1134.887472
 30
0.0
 10
1712.960257
 20
1145.188471
 30
0.0
  0
LWPOLYLINE
  5
27d
100
AcDbEntity
  8
A0105_Printing
 62
1
100
AcDbPolyline
 90
6
 70
1
 10
1718.332257
 20
1181.583470
 30
0.0
 10
1728.932257
 20
1181.583470
 30
0.0
 10
1733.651257
 20
1172.427471
 30
0.0
 10
1727.770257
 20
1160.901471
 30
0.0
 10
1718.332257
 20
1160.901471
 30
0.0
 10
1712.960257
 20
1171.201471
 30
0.0
  0
LWPOLYLINE
  5
27e
100
AcDbEntity
  8
A0105_Printing
 62
1
100
AcDbPolyline
 90
6
 70
1
 10
1811.517255
 20
1146.414471
 30
0.0
 10
1805.564255
 20
1134.887472
 30
0.0
 10
1796.127255
 20
1134.887472
 30
0.0
 10
1790.827255
 20
1145.188471
 30
0.0
 10
1796.127255
 20
1155.570471
 30
0.0
 10
1806.799255
 20
1155.570471
 30
0.0
  0
LWPOLYLINE
  5
27f
100
AcDbEntity
  8
A0105_Printing
 62
1
100
AcDbPolyline
 90
6
 70
1
 10
1796.127255
 20
1181.583470
 30
0.0
 10
1806.799255
 20
1181.583470
 30
0.0
 10
1811.517255
 20
1172.427471
 30
0.0
 10
1805.564255
 20
1160.901471
 30
0.0
 10
1796.127255
 20
1160.901471
 30
0.0
 10
1790.827255
 20
1171.201471
 30
0.0
  0
LWPOLYLINE
  5
280
100
AcDbEntity
  8
A0105_Printing
 62
1
100
AcDbPolyline
 90
4
 70
1
 10
1694.149258
 20
1126.724472
 30
0.0
 10
1679.976258
 20
1126.724472
 30
0.0
 10
1679.976258
 20
1183.417470
 30
0.0
 10
1694.149258
 20
1183.417470
 30
0.0
  0
LWPOLYLINE
  5
281
100
AcDbEntity
  8
A0105_Printing
 62
1
100
AcDbPolyline
 90
6
 70
1
 10
1656.684259
 20
1110.199472
 30
0.0
 10
1646.012259
 20
1110.199472
 30
0.0
 10
1640.713259
 20
1120.581472
 30
0.0
 10
1646.012259
 20
1130.963472
 30
0.0
 10
1656.684259
 20
1130.963472
 30
0.0
 10
1661.984258
 20
1120.581472
 30
0.0
  0
LWPOLYLINE
  5
282
100
AcDbEntity
  8
A0105_Printing
 62
1
100
AcDbPolyline
 90
6
 70
1
 10
1627.064259
 20
1147.150471
 30
0.0
 10
1621.764259
 20
1157.532471
 30
0.0
 10
1627.064259
 20
1167.914471
 30
0.0
 10
1637.736259
 20
1167.914471
 30
0.0
 10
1643.036259
 20
1157.532471
 30
0.0
 10
1637.736259
 20
1147.150471
 30
0.0
  0
LWPOLYLINE
  5
283
100
AcDbEntity
  8
A0105_Printing
 62
1
100
AcDbPolyline
 90
9
 70
1
 10
1618.788260
 20
1134.887472
 30
0.0
 10
1608.116260
 20
1134.887472
 30
0.0
 10
1605.139260
 20
1140.673471
 30
0.0
 10
1605.139260
 20
1142.280471
 30
0.0
 10
1604.312260
 20
1142.280471
 30
0.0
 10
1602.816260
 20
1145.188471
 30
0.0
 10
1608.116260
 20
1155.570471
 30
0.0
 10
1618.788260
 20
1155.570471
 30
0.0
 10
1624.088259
 20
1145.188471
 30
0.0
  0
LWPOLYLINE
  5
284
100
AcDbEntity
  8
A0105_Printing
 62
1
100
AcDbPolyline
 90
7
 70
1
 10
1616.787260
 20
1110.199472
 30
0.0
 10
1606.115260
 20
1110.199472
 30
0.0
 10
1605.139260
 20
1112.110472
 30
0.0
 10
1605.139260
 20
1129.053472
 30
0.0
 10
1606.115260
 20
1130.963472
 30
0.0
 10
1616.787260
 20
1130.963472
 30
0.0
 10
1622.086259
 20
1120.581472
 30
0.0
  0
LWPOLYLINE
  5
285
100
AcDbEntity
  8
A0105_Printing
 62
1
100
AcDbPolyline
 90
6
 70
1
 10
1588.587260
 20
1148.376471
 30
0.0
 10
1583.868260
 20
1157.532471
 30
0.0
 10
1589.168260
 20
1167.914471
 30
0.0
 10
1599.840260
 20
1167.914471
 30
0.0
 10
1605.139260
 20
1157.532471
 30
0.0
 10
1600.420260
 20
1148.376471
 30
0.0
  0
LWPOLYLINE
  5
286
100
AcDbEntity
  8
A0105_Printing
 62
1
100
AcDbPolyline
 90
6
 70
1
 10
1577.656261
 20
1160.901471
 30
0.0
 10
1568.218261
 20
1160.901471
 30
0.0
 10
1562.846261
 20
1171.201471
 30
0.0
 10
1568.218261
 20
1181.583470
 30
0.0
 10
1578.818261
 20
1181.583470
 30
0.0
 10
1583.536260
 20
1172.427471
 30
0.0
  0
LWPOLYLINE
  5
287
100
AcDbEntity
  8
A0105_Printing
 62
1
100
AcDbPolyline
 90
6
 70
1
 10
1581.427260
 20
1142.280471
 30
0.0
 10
1564.362261
 20
1142.280471
 30
0.0
 10
1562.846261
 20
1145.188471
 30
0.0
 10
1568.218261
 20
1155.570471
 30
0.0
 10
1578.818261
 20
1155.570471
 30
0.0
 10
1583.536260
 20
1146.414471
 30
0.0
  0
LWPOLYLINE
  5
288
100
AcDbEntity
  8
A0105_Printing
 62
1
100
AcDbPolyline
 90
6
 70
1
 10
1661.403258
 20
1146.414471
 30
0.0
 10
1655.450259
 20
1134.887472
 30
0.0
 10
1646.012259
 20
1134.887472
 30
0.0
 10
1640.713259
 20
1145.188471
 30
0.0
 10
1646.012259
 20
1155.570471
 30
0.0
 10
1656.684259
 20
1155.570471
 30
0.0
  0
LWPOLYLINE
  5
289
100
AcDbEntity
  8
A0105_Printing
 62
1
100
AcDbPolyline
 90
6
 70
1
 10
1646.012259
 20
1181.583470
 30
0.0
 10
1656.684259
 20
1181.583470
 30
0.0
 10
1661.403258
 20
1172.427471
 30
0.0
 10
1655.450259
 20
1160.901471
 30
0.0
 10
1646.012259
 20
1160.901471
 30
0.0
 10
1640.713259
 20
1171.201471
 30
0.0
  0
SPLINE
  5
28a
100
AcDbEntity
  8
A0105_Printing
 62
1
100
AcDbSpline
 70
8
 71
3
 72
8
 73
4
 74
0
 40
0
 40
0
 40
0
 40
0
 40
1
 40
1
 40
1
 40
1
 10
2126.432247
 20
1211.763470
 30
0.0
 10
2126.432247
 20
1203.936470
 30
0.0
 10
2096.291248
 20
1197.590470
 30
0.0
 10
2059.110249
 20
1197.590470
 30
0.0
  0
SPLINE
  5
28b
100
AcDbEntity
  8
A0105_Printing
 62
1
100
AcDbSpline
 70
8
 71
3
 72
8
 73
4
 74
0
 40
0
 40
0
 40
0
 40
0
 40
1
 40
1
 40
1
 40
1
 10
2059.110249
 20
1197.590470
 30
0.0
 10
2021.928249
 20
1197.590470
 30
0.0
 10
1991.787250
 20
1203.936470
 30
0.0
 10
1991.787250
 20
1211.763470
 30
0.0
  0
LWPOLYLINE
  5
28c
100
AcDbEntity
  8
A0105_Printing
 62
1
100
AcDbPolyline
 90
2
 70
0
 10
2126.432247
 20
1183.417470
 30
0.0
 10
2126.432247
 20
1211.763470
 30
0.0
  0
SPLINE
  5
28d
100
AcDbEntity
  8
A0105_Printing
 62
1
100
AcDbSpline
 70
8
 71
3
 72
8
 73
4
 74
0
 40
0
 40
0
 40
0
 40
0
 40
1
 40
1
 40
1
 40
1
 10
1977.613251
 20
1211.763470
 30
0.0
 10
1977.613251
 20
1203.936470
 30
0.0
 10
1947.472251
 20
1197.590470
 30
0.0
 10
1910.291252
 20
1197.590470
 30
0.0
  0
SPLINE
  5
28e
100
AcDbEntity
  8
A0105_Printing
 62
1
100
AcDbSpline
 70
8
 71
3
 72
8
 73
4
 74
0
 40
0
 40
0
 40
0
 40
0
 40
1
 40
1
 40
1
 40
1
 10
1910.291252
 20
1197.590470
 30
0.0
 10
1873.109253
 20
1197.590470
 30
0.0
 10
1842.968254
 20
1203.936470
 30
0.0
 10
1842.968254
 20
1211.763470
 30
0.0
  0
LWPOLYLINE
  5
28f
100
AcDbEntity
  8
A0105_Printing
 62
1
100
AcDbPolyline
 90
2
 70
0
 10
1991.787250
 20
1211.763470
 30
0.0
 10
1977.613251
 20
1211.763470
 30
0.0
  0
SPLINE
  5
290
100
AcDbEntity
  8
A0105_Printing
 62
1
100
AcDbSpline
 70
8
 71
3
 72
8
 73
4
 74
0
 40
0
 40
0
 40
0
 40
0
 40
1
 40
1
 40
1
 40
1
 10
1828.795254
 20
1211.763470
 30
0.0
 10
1828.795254
 20
1203.936470
 30
0.0
 10
1798.653255
 20
1197.590470
 30
0.0
 10
1761.472256
 20
1197.590470
 30
0.0
  0
SPLINE
  5
291
100
AcDbEntity
  8
A0105_Printing
 62
1
100
AcDbSpline
 70
8
 71
3
 72
8
 73
4
 74
0
 40
0
 40
0
 40
0
 40
0
 40
1
 40
1
 40
1
 40
1
 10
1761.472256
 20
1197.590470
 30
0.0
 10
1724.290257
 20
1197.590470
 30
0.0
 10
1694.149258
 20
1203.936470
 30
0.0
 10
1694.149258
 20
1211.763470
 30
0.0
  0
LWPOLYLINE
  5
292
100
AcDbEntity
  8
A0105_Printing
 62
1
100
AcDbPolyline
 90
2
 70
0
 10
1842.968254
 20
1211.763470
 30
0.0
 10
1828.795254
 20
1211.763470
 30
0.0
  0
SPLINE
  5
293
100
AcDbEntity
  8
A0105_Printing
 62
1
100
AcDbSpline
 70
8
 71
3
 72
8
 73
4
 74
0
 40
0
 40
0
 40
0
 40
0
 40
1
 40
1
 40
1
 40
1
 10
1679.976258
 20
1211.763470
 30
0.0
 10
1679.976258
 20
1203.936470
 30
0.0
 10
1649.834259
 20
1197.590470
 30
0.0
 10
1612.653260
 20
1197.590470
 30
0.0
  0
SPLINE
  5
294
100
AcDbEntity
  8
A0105_Printing
 62
1
100
AcDbSpline
 70
8
 71
3
 72
8
 73
4
 74
0
 40
0
 40
0
 40
0
 40
0
 40
1
 40
1
 40
1
 40
1
 10
1612.653260
 20
1197.590470
 30
0.0
 10
1575.472261
 20
1197.590470
 30
0.0
 10
1545.330261
 20
1203.936470
 30
0.0
 10
1545.330261
 20
1211.763470
 30
0.0
  0
LWPOLYLINE
  5
295
100
AcDbEntity
  8
A0105_Printing
 62
1
100
AcDbPolyline
 90
2
 70
0
 10
1694.149258
 20
1211.763470
 30
0.0
 10
1679.976258
 20
1211.763470
 30
0.0
  0
LWPOLYLINE
  5
296
100
AcDbEntity
  8
A0105_Printing
 62
1
100
AcDbPolyline
 90
27
 70
0
 10
1545.330261
 20
1211.763470
 30
0.0
 10
1545.330261
 20
1183.417470
 30
0.0
 10
1531.157262
 20
1183.417470
 30
0.0
 10
1531.157262
 20
1126.724472
 30
0.0
 10
1545.330261
 20
1126.724472
 30
0.0
 10
1545.330261
 20
1070.031473
 30
0.0
 10
1587.850260
 20
1070.031473
 30
0.0
 10
1587.850260
 20
1084.204473
 30
0.0
 10
1658.716259
 20
1084.204473
 30
0.0
 10
1658.716259
 20
1098.377473
 30
0.0
 10
1715.409257
 20
1098.377473
 30
0.0
 10
1715.409257
 20
1084.204473
 30
0.0
 10
1807.535255
 20
1084.204473
 30
0.0
 10
1807.535255
 20
1098.377473
 30
0.0
 10
1864.228253
 20
1098.377473
 30
0.0
 10
1864.228253
 20
1084.204473
 30
0.0
 10
1956.354251
 20
1084.204473
 30
0.0
 10
1956.354251
 20
1098.377473
 30
0.0
 10
2013.047250
 20
1098.377473
 30
0.0
 10
2013.047250
 20
1084.204473
 30
0.0
 10
2083.913248
 20
1084.204473
 30
0.0
 10
2083.913248
 20
1070.031473
 30
0.0
 10
2126.432247
 20
1070.031473
 30
0.0
 10
2126.432247
 20
1126.724472
 30
0.0
 10
2140.606246
 20
1126.724472
 30
0.0
 10
2140.606246
 20
1183.417470
 30
0.0
 10
2126.432247
 20
1183.417470
 30
0.0
  0
LWPOLYLINE
  5
297
100
AcDbEntity
  8
A0105_Printing
 62
4
100
AcDbPolyline
 90
2
 70
0
 10
965.144276
 20
1194.678970
 30
0.0
 10
964.443276
 20
1193.661970
 30
0.0
  0
LWPOLYLINE
  5
298
100
AcDbEntity
  8
A0105_Printing
 62
4
100
AcDbPolyline
 90
3
 70
0
 10
964.093676
 20
1193.130070
 30
0.0
 10
964.093676
 20
1193.154070
 30
0.0
 10
964.443676
 20
1193.662070
 30
0.0
  0
LWPOLYLINE
  5
299
100
AcDbEntity
  8
A0105_Printing
 62
4
100
AcDbPolyline
 90
2
 70
0
 10
1215.743770
 20
1194.606370
 30
0.0
 10
1216.344770
 20
1193.637370
 30
0.0
  0
LWPOLYLINE
  5
29a
100
AcDbEntity
  8
A0105_Printing
 62
4
100
AcDbPolyline
 90
62
 70
0
 10
964.093676
 20
1193.130070
 30
0.0
 10
964.093676
 20
1180.450070
 30
0.0
 10
964.994676
 20
1178.997071
 30
0.0
 10
975.426676
 20
1173.189071
 30
0.0
 10
975.426676
 20
1162.518071
 30
0.0
 10
965.144676
 20
1156.782071
 30
0.0
 10
964.093676
 20
1155.185071
 30
0.0
 10
964.093676
 20
1142.553071
 30
0.0
 10
964.994676
 20
1141.101071
 30
0.0
 10
974.375676
 20
1135.874072
 30
0.0
 10
974.375676
 20
1123.968072
 30
0.0
 10
965.144676
 20
1118.886072
 30
0.0
 10
964.093676
 20
1117.289072
 30
0.0
 10
964.093676
 20
1104.656072
 30
0.0
 10
964.994676
 20
1103.132072
 30
0.0
 10
976.327676
 20
1096.888073
 30
0.0
 10
978.128676
 20
1096.815073
 30
0.0
 10
988.560675
 20
1102.696072
 30
0.0
 10
998.917675
 20
1096.888073
 30
0.0
 10
1000.718675
 20
1096.815073
 30
0.0
 10
1011.151675
 20
1102.696072
 30
0.0
 10
1021.508674
 20
1096.888073
 30
0.0
 10
1023.459674
 20
1096.888073
 30
0.0
 10
1033.817674
 20
1102.696072
 30
0.0
 10
1044.174674
 20
1096.888073
 30
0.0
 10
1045.975674
 20
1096.815073
 30
0.0
 10
1056.407674
 20
1102.696072
 30
0.0
 10
1066.839673
 20
1096.888073
 30
0.0
 10
1068.640673
 20
1096.815073
 30
0.0
 10
1079.073673
 20
1102.696072
 30
0.0
 10
1089.355673
 20
1096.888073
 30
0.0
 10
1091.382673
 20
1096.888073
 30
0.0
 10
1101.664672
 20
1102.696072
 30
0.0
 10
1112.096672
 20
1096.888073
 30
0.0
 10
1113.897672
 20
1096.815073
 30
0.0
 10
1124.329672
 20
1102.696072
 30
0.0
 10
1134.687672
 20
1096.888073
 30
0.0
 10
1136.488672
 20
1096.815073
 30
0.0
 10
1146.920671
 20
1102.696072
 30
0.0
 10
1157.277671
 20
1096.888073
 30
0.0
 10
1159.229671
 20
1096.888073
 30
0.0
 10
1169.586671
 20
1102.696072
 30
0.0
 10
1179.943671
 20
1096.888073
 30
0.0
 10
1181.744670
 20
1096.815073
 30
0.0
 10
1192.176670
 20
1102.696072
 30
0.0
 10
1202.609670
 20
1096.888073
 30
0.0
 10
1204.410670
 20
1096.815073
 30
0.0
 10
1215.593670
 20
1103.132072
 30
0.0
 10
1216.644670
 20
1104.656072
 30
0.0
 10
1216.644670
 20
1117.289072
 30
0.0
 10
1215.743670
 20
1118.813072
 30
0.0
 10
1204.260670
 20
1125.202072
 30
0.0
 10
1204.185670
 20
1134.640072
 30
0.0
 10
1215.593670
 20
1141.028071
 30
0.0
 10
1216.644670
 20
1142.553071
 30
0.0
 10
1216.644670
 20
1155.185071
 30
0.0
 10
1215.743670
 20
1156.709071
 30
0.0
 10
1205.311670
 20
1162.518071
 30
0.0
 10
1205.311670
 20
1173.189071
 30
0.0
 10
1215.593670
 20
1178.925071
 30
0.0
 10
1216.644670
 20
1180.450070
 30
0.0
 10
1216.644670
 20
1193.130070
 30
0.0
  0
LWPOLYLINE
  5
29b
100
AcDbEntity
  8
A0105_Printing
 62
4
100
AcDbPolyline
 90
3
 70
0
 10
1216.344570
 20
1193.637470
 30
0.0
 10
1216.644570
 20
1193.154470
 30
0.0
 10
1216.644570
 20
1193.130470
 30
0.0
  0
LWPOLYLINE
  5
29c
100
AcDbEntity
  8
A0105_Printing
 62
4
100
AcDbPolyline
 90
2
 70
0
 10
1215.743770
 20
1194.654770
 30
0.0
 10
1216.344770
 20
1193.637770
 30
0.0
  0
LWPOLYLINE
  5
29d
100
AcDbEntity
  8
A0105_Printing
 62
4
100
AcDbPolyline
 90
30
 70
0
 10
964.443676
 20
1193.662070
 30
0.0
 10
965.144676
 20
1194.727070
 30
0.0
 10
976.327676
 20
1200.971070
 30
0.0
 10
978.128676
 20
1200.971070
 30
0.0
 10
988.560675
 20
1195.163070
 30
0.0
 10
998.992675
 20
1200.971070
 30
0.0
 10
1000.793675
 20
1200.971070
 30
0.0
 10
1011.151675
 20
1195.163070
 30
0.0
 10
1021.583674
 20
1200.971070
 30
0.0
 10
1023.384674
 20
1200.971070
 30
0.0
 10
1033.817674
 20
1195.163070
 30
0.0
 10
1044.249674
 20
1200.971070
 30
0.0
 10
1046.050674
 20
1200.971070
 30
0.0
 10
1056.407674
 20
1195.163070
 30
0.0
 10
1066.839673
 20
1200.971070
 30
0.0
 10
1068.641673
 20
1200.971070
 30
0.0
 10
1079.073673
 20
1195.163070
 30
0.0
 10
1089.505673
 20
1200.971070
 30
0.0
 10
1091.306673
 20
1200.971070
 30
0.0
 10
1101.664672
 20
1195.163070
 30
0.0
 10
1112.096672
 20
1200.971070
 30
0.0
 10
1113.897672
 20
1200.971070
 30
0.0
 10
1124.329672
 20
1195.163070
 30
0.0
 10
1134.762672
 20
1200.971070
 30
0.0
 10
1136.563672
 20
1200.971070
 30
0.0
 10
1146.920671
 20
1195.163070
 30
0.0
 10
1157.352671
 20
1200.971070
 30
0.0
 10
1159.154671
 20
1200.971070
 30
0.0
 10
1169.586671
 20
1195.163070
 30
0.0
 10
1180.018670
 20
1200.971070
 30
0.0
  0
LWPOLYLINE
  5
29e
100
AcDbEntity
  8
A0105_Printing
 62
4
100
AcDbPolyline
 90
2
 70
0
 10
1216.344570
 20
1193.637470
 30
0.0
 10
1216.644570
 20
1193.130470
 30
0.0
  0
LWPOLYLINE
  5
29f
100
AcDbEntity
  8
A0105_Printing
 62
4
100
AcDbPolyline
 90
2
 70
0
 10
964.093676
 20
1193.130070
 30
0.0
 10
964.443676
 20
1193.662070
 30
0.0
  0
LWPOLYLINE
  5
2a0
100
AcDbEntity
  8
A0105_Printing
 62
4
100
AcDbPolyline
 90
2
 70
0
 10
1207.345070
 20
1199.393670
 30
0.0
 10
1205.311070
 20
1200.525670
 30
0.0
  0
LWPOLYLINE
  5
2a1
100
AcDbEntity
  8
A0105_Printing
 62
4
100
AcDbPolyline
 90
3
 70
0
 10
1207.345070
 20
1199.393670
 30
0.0
 10
1215.744070
 20
1194.717670
 30
0.0
 10
1216.644070
 20
1193.193670
 30
0.0
  0
LWPOLYLINE
  5
2a2
100
AcDbEntity
  8
A0105_Printing
 62
4
100
AcDbPolyline
 90
6
 70
0
 10
1207.345070
 20
1199.393670
 30
0.0
 10
1205.236070
 20
1200.595670
 30
0.0
 10
1203.435070
 20
1200.523670
 30
0.0
 10
1193.002070
 20
1194.714670
 30
0.0
 10
1182.570070
 20
1201.007670
 30
0.0
 10
1180.019070
 20
1200.934670
 30
0.0
  0
LWPOLYLINE
  5
2a3
100
AcDbEntity
  8
A0105_Printing
 62
4
100
AcDbPolyline
 90
2
 70
0
 10
1215.743770
 20
1194.606370
 30
0.0
 10
1207.344770
 20
1199.393370
 30
0.0
  0
LWPOLYLINE
  5
2a4
100
AcDbEntity
  8
A0105_Printing
 62
4
100
AcDbPolyline
 90
2
 70
0
 10
1241.742069
 20
1194.678970
 30
0.0
 10
1241.041069
 20
1193.661970
 30
0.0
  0
LWPOLYLINE
  5
2a5
100
AcDbEntity
  8
A0105_Printing
 62
4
100
AcDbPolyline
 90
3
 70
0
 10
1240.691469
 20
1193.130070
 30
0.0
 10
1240.691469
 20
1193.154070
 30
0.0
 10
1241.041469
 20
1193.662070
 30
0.0
  0
LWPOLYLINE
  5
2a6
100
AcDbEntity
  8
A0105_Printing
 62
4
100
AcDbPolyline
 90
2
 70
0
 10
1492.341563
 20
1194.606370
 30
0.0
 10
1492.942563
 20
1193.637370
 30
0.0
  0
LWPOLYLINE
  5
2a7
100
AcDbEntity
  8
A0105_Printing
 62
4
100
AcDbPolyline
 90
62
 70
0
 10
1240.691469
 20
1193.130070
 30
0.0
 10
1240.691469
 20
1180.450070
 30
0.0
 10
1241.592469
 20
1178.997071
 30
0.0
 10
1252.024469
 20
1173.189071
 30
0.0
 10
1252.024469
 20
1162.518071
 30
0.0
 10
1241.742469
 20
1156.782071
 30
0.0
 10
1240.691469
 20
1155.185071
 30
0.0
 10
1240.691469
 20
1142.553071
 30
0.0
 10
1241.592469
 20
1141.101071
 30
0.0
 10
1250.973469
 20
1135.874072
 30
0.0
 10
1250.973469
 20
1123.968072
 30
0.0
 10
1241.742469
 20
1118.886072
 30
0.0
 10
1240.691469
 20
1117.289072
 30
0.0
 10
1240.691469
 20
1104.656072
 30
0.0
 10
1241.592469
 20
1103.132072
 30
0.0
 10
1252.925469
 20
1096.888073
 30
0.0
 10
1254.726469
 20
1096.815073
 30
0.0
 10
1265.158468
 20
1102.696072
 30
0.0
 10
1275.515468
 20
1096.888073
 30
0.0
 10
1277.316468
 20
1096.815073
 30
0.0
 10
1287.749468
 20
1102.696072
 30
0.0
 10
1298.106468
 20
1096.888073
 30
0.0
 10
1300.057467
 20
1096.888073
 30
0.0
 10
1310.415467
 20
1102.696072
 30
0.0
 10
1320.772467
 20
1096.888073
 30
0.0
 10
1322.573467
 20
1096.815073
 30
0.0
 10
1333.005467
 20
1102.696072
 30
0.0
 10
1343.437466
 20
1096.888073
 30
0.0
 10
1345.238466
 20
1096.815073
 30
0.0
 10
1355.671466
 20
1102.696072
 30
0.0
 10
1365.953466
 20
1096.888073
 30
0.0
 10
1367.980466
 20
1096.888073
 30
0.0
 10
1378.262466
 20
1102.696072
 30
0.0
 10
1388.694465
 20
1096.888073
 30
0.0
 10
1390.495465
 20
1096.815073
 30
0.0
 10
1400.927465
 20
1102.696072
 30
0.0
 10
1411.285465
 20
1096.888073
 30
0.0
 10
1413.086465
 20
1096.815073
 30
0.0
 10
1423.518464
 20
1102.696072
 30
0.0
 10
1433.875464
 20
1096.888073
 30
0.0
 10
1435.827464
 20
1096.888073
 30
0.0
 10
1446.184464
 20
1102.696072
 30
0.0
 10
1456.541464
 20
1096.888073
 30
0.0
 10
1458.342464
 20
1096.815073
 30
0.0
 10
1468.774463
 20
1102.696072
 30
0.0
 10
1479.207463
 20
1096.888073
 30
0.0
 10
1481.008463
 20
1096.815073
 30
0.0
 10
1492.191463
 20
1103.132072
 30
0.0
 10
1493.242463
 20
1104.656072
 30
0.0
 10
1493.242463
 20
1117.289072
 30
0.0
 10
1492.341463
 20
1118.813072
 30
0.0
 10
1480.858463
 20
1125.202072
 30
0.0
 10
1480.783463
 20
1134.640072
 30
0.0
 10
1492.191463
 20
1141.028071
 30
0.0
 10
1493.242463
 20
1142.553071
 30
0.0
 10
1493.242463
 20
1155.185071
 30
0.0
 10
1492.341463
 20
1156.709071
 30
0.0
 10
1481.909463
 20
1162.518071
 30
0.0
 10
1481.909463
 20
1173.189071
 30
0.0
 10
1492.191463
 20
1178.925071
 30
0.0
 10
1493.242463
 20
1180.450070
 30
0.0
 10
1493.242463
 20
1193.130070
 30
0.0
  0
LWPOLYLINE
  5
2a8
100
AcDbEntity
  8
A0105_Printing
 62
4
100
AcDbPolyline
 90
3
 70
0
 10
1492.942363
 20
1193.637470
 30
0.0
 10
1493.242363
 20
1193.154470
 30
0.0
 10
1493.242363
 20
1193.130470
 30
0.0
  0
LWPOLYLINE
  5
2a9
100
AcDbEntity
  8
A0105_Printing
 62
4
100
AcDbPolyline
 90
2
 70
0
 10
1492.341563
 20
1194.654770
 30
0.0
 10
1492.942563
 20
1193.637770
 30
0.0
  0
LWPOLYLINE
  5
2aa
100
AcDbEntity
  8
A0105_Printing
 62
4
100
AcDbPolyline
 90
30
 70
0
 10
1241.041469
 20
1193.662070
 30
0.0
 10
1241.742469
 20
1194.727070
 30
0.0
 10
1252.925469
 20
1200.971070
 30
0.0
 10
1254.726469
 20
1200.971070
 30
0.0
 10
1265.158468
 20
1195.163070
 30
0.0
 10
1275.590468
 20
1200.971070
 30
0.0
 10
1277.391468
 20
1200.971070
 30
0.0
 10
1287.749468
 20
1195.163070
 30
0.0
 10
1298.181468
 20
1200.971070
 30
0.0
 10
1299.982468
 20
1200.971070
 30
0.0
 10
1310.415467
 20
1195.163070
 30
0.0
 10
1320.847467
 20
1200.971070
 30
0.0
 10
1322.648467
 20
1200.971070
 30
0.0
 10
1333.005467
 20
1195.163070
 30
0.0
 10
1343.437466
 20
1200.971070
 30
0.0
 10
1345.239466
 20
1200.971070
 30
0.0
 10
1355.671466
 20
1195.163070
 30
0.0
 10
1366.103466
 20
1200.971070
 30
0.0
 10
1367.904466
 20
1200.971070
 30
0.0
 10
1378.262466
 20
1195.163070
 30
0.0
 10
1388.694465
 20
1200.971070
 30
0.0
 10
1390.495465
 20
1200.971070
 30
0.0
 10
1400.927465
 20
1195.163070
 30
0.0
 10
1411.360465
 20
1200.971070
 30
0.0
 10
1413.161465
 20
1200.971070
 30
0.0
 10
1423.518464
 20
1195.163070
 30
0.0
 10
1433.950464
 20
1200.971070
 30
0.0
 10
1435.752464
 20
1200.971070
 30
0.0
 10
1446.184464
 20
1195.163070
 30
0.0
 10
1456.616464
 20
1200.971070
 30
0.0
  0
LWPOLYLINE
  5
2ab
100
AcDbEntity
  8
A0105_Printing
 62
4
100
AcDbPolyline
 90
2
 70
0
 10
1492.942363
 20
1193.637470
 30
0.0
 10
1493.242363
 20
1193.130470
 30
0.0
  0
LWPOLYLINE
  5
2ac
100
AcDbEntity
  8
A0105_Printing
 62
4
100
AcDbPolyline
 90
2
 70
0
 10
1240.691469
 20
1193.130070
 30
0.0
 10
1241.041469
 20
1193.662070
 30
0.0
  0
LWPOLYLINE
  5
2ad
100
AcDbEntity
  8
A0105_Printing
 62
4
100
AcDbPolyline
 90
2
 70
0
 10
1483.942963
 20
1199.393670
 30
0.0
 10
1481.908963
 20
1200.525670
 30
0.0
  0
LWPOLYLINE
  5
2ae
100
AcDbEntity
  8
A0105_Printing
 62
4
100
AcDbPolyline
 90
3
 70
0
 10
1483.942963
 20
1199.393670
 30
0.0
 10
1492.340963
 20
1194.717670
 30
0.0
 10
1493.241963
 20
1193.193670
 30
0.0
  0
LWPOLYLINE
  5
2af
100
AcDbEntity
  8
A0105_Printing
 62
4
100
AcDbPolyline
 90
6
 70
0
 10
1483.942963
 20
1199.393670
 30
0.0
 10
1481.833963
 20
1200.595670
 30
0.0
 10
1480.032963
 20
1200.523670
 30
0.0
 10
1469.599963
 20
1194.714670
 30
0.0
 10
1459.167964
 20
1201.007670
 30
0.0
 10
1456.616964
 20
1200.934670
 30
0.0
  0
LWPOLYLINE
  5
2b0
100
AcDbEntity
  8
A0105_Printing
 62
4
100
AcDbPolyline
 90
2
 70
0
 10
1492.341563
 20
1194.606370
 30
0.0
 10
1483.942563
 20
1199.393370
 30
0.0
  0
LWPOLYLINE
  5
2b1
100
AcDbEntity
  8
A0105_Printing
 62
1
100
AcDbPolyline
 90
6
 70
1
 10
1489.639563
 20
1181.465870
 30
0.0
 10
1480.107563
 20
1176.165871
 30
0.0
 10
1470.576563
 20
1181.465870
 30
0.0
 10
1470.576563
 20
1192.137870
 30
0.0
 10
1480.107563
 20
1197.437870
 30
0.0
 10
1489.639563
 20
1192.137870
 30
0.0
  0
LWPOLYLINE
  5
2b2
100
AcDbEntity
  8
A0105_Printing
 62
1
100
AcDbPolyline
 90
6
 70
1
 10
1489.639563
 20
1143.569871
 30
0.0
 10
1480.107563
 20
1138.269872
 30
0.0
 10
1470.576563
 20
1143.569871
 30
0.0
 10
1470.576563
 20
1154.240871
 30
0.0
 10
1480.107563
 20
1159.540871
 30
0.0
 10
1489.639563
 20
1154.240871
 30
0.0
  0
LWPOLYLINE
  5
2b3
100
AcDbEntity
  8
A0105_Printing
 62
1
100
AcDbPolyline
 90
6
 70
1
 10
1489.639563
 20
1105.672872
 30
0.0
 10
1480.107563
 20
1100.300872
 30
0.0
 10
1470.576563
 20
1105.672872
 30
0.0
 10
1470.576563
 20
1116.271872
 30
0.0
 10
1480.107563
 20
1121.644872
 30
0.0
 10
1489.639563
 20
1116.271872
 30
0.0
  0
LWPOLYLINE
  5
2b4
100
AcDbEntity
  8
A0105_Printing
 62
1
100
AcDbPolyline
 90
6
 70
1
 10
1466.973563
 20
1181.465870
 30
0.0
 10
1457.516564
 20
1176.165871
 30
0.0
 10
1447.985564
 20
1181.465870
 30
0.0
 10
1447.985564
 20
1192.137870
 30
0.0
 10
1456.391564
 20
1196.856870
 30
0.0
 10
1466.973563
 20
1190.903870
 30
0.0
  0
LWPOLYLINE
  5
2b5
100
AcDbEntity
  8
A0105_Printing
 62
1
100
AcDbPolyline
 90
6
 70
1
 10
1466.973563
 20
1143.569871
 30
0.0
 10
1457.516564
 20
1138.269872
 30
0.0
 10
1447.985564
 20
1143.569871
 30
0.0
 10
1447.985564
 20
1154.240871
 30
0.0
 10
1457.516564
 20
1159.540871
 30
0.0
 10
1466.973563
 20
1154.240871
 30
0.0
  0
SPLINE
  5
2b6
100
AcDbEntity
  8
A0105_Printing
 62
1
100
AcDbSpline
 70
8
 71
3
 72
8
 73
4
 74
0
 40
0
 40
0
 40
0
 40
0
 40
1
 40
1
 40
1
 40
1
 10
1460.290563
 20
1006.251875
 30
0.0
 10
1460.290563
 20
994.509875
 30
0.0
 10
1450.772564
 20
984.991875
 30
0.0
 10
1439.030564
 20
984.991875
 30
0.0
  0
LWPOLYLINE
  5
2b7
100
AcDbEntity
  8
A0105_Printing
 62
1
100
AcDbPolyline
 90
6
 70
1
 10
1466.973563
 20
1105.672872
 30
0.0
 10
1457.516564
 20
1100.300872
 30
0.0
 10
1447.985564
 20
1105.672872
 30
0.0
 10
1447.985564
 20
1116.271872
 30
0.0
 10
1456.391564
 20
1120.990872
 30
0.0
 10
1466.973563
 20
1115.110872
 30
0.0
  0
SPLINE
  5
2b8
100
AcDbEntity
  8
A0105_Printing
 62
1
100
AcDbSpline
 70
8
 71
3
 72
8
 73
4
 74
0
 40
0
 40
0
 40
0
 40
0
 40
1
 40
1
 40
1
 40
1
 10
1013.834575
 20
984.991875
 30
0.0
 10
1002.092575
 20
984.991875
 30
0.0
 10
992.574575
 20
994.509875
 30
0.0
 10
992.574575
 20
1006.251875
 30
0.0
  0
LWPOLYLINE
  5
2b9
100
AcDbEntity
  8
A0105_Printing
 62
1
100
AcDbPolyline
 90
2
 70
0
 10
1439.030564
 20
984.991875
 30
0.0
 10
1013.834575
 20
984.991875
 30
0.0
  0
SPLINE
  5
2ba
100
AcDbEntity
  8
A0105_Printing
 62
1
100
AcDbSpline
 70
8
 71
3
 72
8
 73
4
 74
0
 40
0
 40
0
 40
0
 40
0
 40
1
 40
1
 40
1
 40
1
 10
992.574575
 20
1006.251875
 30
0.0
 10
992.574575
 20
1017.993875
 30
0.0
 10
1002.092575
 20
1027.511874
 30
0.0
 10
1013.834575
 20
1027.511874
 30
0.0
  0
LWPOLYLINE
  5
2bb
100
AcDbEntity
  8
A0105_Printing
 62
1
100
AcDbPolyline
 90
1
 70
1
 10
992.574575
 20
1006.251875
 30
0.0
  0
SPLINE
  5
2bc
100
AcDbEntity
  8
A0105_Printing
 62
1
100
AcDbSpline
 70
8
 71
3
 72
8
 73
4
 74
0
 40
0
 40
0
 40
0
 40
0
 40
1
 40
1
 40
1
 40
1
 10
1439.030564
 20
1027.511874
 30
0.0
 10
1450.772564
 20
1027.511874
 30
0.0
 10
1460.290563
 20
1017.993875
 30
0.0
 10
1460.290563
 20
1006.251875
 30
0.0
  0
LWPOLYLINE
  5
2bd
100
AcDbEntity
  8
A0105_Printing
 62
1
100
AcDbPolyline
 90
2
 70
0
 10
1013.834575
 20
1027.511874
 30
0.0
 10
1439.030564
 20
1027.511874
 30
0.0
  0
LWPOLYLINE
  5
2be
100
AcDbEntity
  8
A0105_Printing
 62
1
100
AcDbPolyline
 90
1
 70
1
 10
1460.290563
 20
1006.251875
 30
0.0
  0
LWPOLYLINE
  5
2bf
100
AcDbEntity
  8
A0105_Printing
 62
1
100
AcDbPolyline
 90
6
 70
1
 10
990.361575
 20
1116.271872
 30
0.0
 10
999.818575
 20
1121.644872
 30
0.0
 10
1009.349575
 20
1116.271872
 30
0.0
 10
1009.349575
 20
1105.672872
 30
0.0
 10
999.818575
 20
1100.300872
 30
0.0
 10
990.361575
 20
1105.672872
 30
0.0
  0
LWPOLYLINE
  5
2c0
100
AcDbEntity
  8
A0105_Printing
 62
1
100
AcDbPolyline
 90
6
 70
1
 10
986.759575
 20
1181.465870
 30
0.0
 10
977.227576
 20
1176.165871
 30
0.0
 10
967.695576
 20
1181.465870
 30
0.0
 10
967.695576
 20
1192.137870
 30
0.0
 10
976.176576
 20
1196.856870
 30
0.0
 10
986.759575
 20
1190.903870
 30
0.0
  0
LWPOLYLINE
  5
2c1
100
AcDbEntity
  8
A0105_Printing
 62
1
100
AcDbPolyline
 90
6
 70
1
 10
986.759575
 20
1143.569871
 30
0.0
 10
977.227576
 20
1138.269872
 30
0.0
 10
967.695576
 20
1143.569871
 30
0.0
 10
967.695576
 20
1154.240871
 30
0.0
 10
977.227576
 20
1159.540871
 30
0.0
 10
986.759575
 20
1154.240871
 30
0.0
  0
LWPOLYLINE
  5
2c2
100
AcDbEntity
  8
A0105_Printing
 62
1
100
AcDbPolyline
 90
6
 70
1
 10
986.759575
 20
1105.672872
 30
0.0
 10
977.227576
 20
1100.300872
 30
0.0
 10
967.695576
 20
1105.672872
 30
0.0
 10
967.695576
 20
1116.271872
 30
0.0
 10
976.176576
 20
1120.990872
 30
0.0
 10
986.759575
 20
1115.110872
 30
0.0
  0
LWPOLYLINE
  5
2c3
100
AcDbEntity
  8
A0105_Printing
 62
1
100
AcDbPolyline
 90
6
 70
1
 10
1011.151575
 20
1157.217871
 30
0.0
 10
1001.619575
 20
1162.517871
 30
0.0
 10
1001.619575
 20
1173.189871
 30
0.0
 10
1011.151575
 20
1178.488871
 30
0.0
 10
1020.682574
 20
1173.189871
 30
0.0
 10
1020.682574
 20
1162.517871
 30
0.0
  0
LWPOLYLINE
  5
2c4
100
AcDbEntity
  8
A0105_Printing
 62
1
100
AcDbPolyline
 90
6
 70
1
 10
1001.619575
 20
1135.220872
 30
0.0
 10
1011.151575
 20
1140.592871
 30
0.0
 10
1020.682574
 20
1135.220872
 30
0.0
 10
1020.682574
 20
1124.620872
 30
0.0
 10
1011.151575
 20
1119.320872
 30
0.0
 10
1001.619575
 20
1124.620872
 30
0.0
  0
LWPOLYLINE
  5
2c5
100
AcDbEntity
  8
A0105_Printing
 62
1
100
AcDbPolyline
 90
6
 70
1
 10
990.361575
 20
1181.465870
 30
0.0
 10
990.361575
 20
1192.137870
 30
0.0
 10
999.818575
 20
1197.437870
 30
0.0
 10
1009.349575
 20
1192.137870
 30
0.0
 10
1009.349575
 20
1181.465870
 30
0.0
 10
999.818575
 20
1176.165871
 30
0.0
  0
LWPOLYLINE
  5
2c6
100
AcDbEntity
  8
A0105_Printing
 62
1
100
AcDbPolyline
 90
6
 70
1
 10
999.818575
 20
1159.540871
 30
0.0
 10
1009.349575
 20
1154.240871
 30
0.0
 10
1009.349575
 20
1143.569871
 30
0.0
 10
999.818575
 20
1138.269872
 30
0.0
 10
990.361575
 20
1143.569871
 30
0.0
 10
990.361575
 20
1154.240871
 30
0.0
  0
LWPOLYLINE
  5
2c7
100
AcDbEntity
  8
A0105_Printing
 62
1
100
AcDbPolyline
 90
6
 70
1
 10
1045.074574
 20
1176.165871
 30
0.0
 10
1035.618574
 20
1181.465870
 30
0.0
 10
1035.618574
 20
1192.137870
 30
0.0
 10
1045.074574
 20
1197.437870
 30
0.0
 10
1054.606574
 20
1192.137870
 30
0.0
 10
1054.606574
 20
1181.465870
 30
0.0
  0
LWPOLYLINE
  5
2c8
100
AcDbEntity
  8
A0105_Printing
 62
1
100
AcDbPolyline
 90
6
 70
1
 10
1045.074574
 20
1138.269872
 30
0.0
 10
1035.618574
 20
1143.569871
 30
0.0
 10
1035.618574
 20
1154.240871
 30
0.0
 10
1044.024574
 20
1158.959871
 30
0.0
 10
1054.606574
 20
1153.006871
 30
0.0
 10
1054.606574
 20
1143.569871
 30
0.0
  0
LWPOLYLINE
  5
2c9
100
AcDbEntity
  8
A0105_Printing
 62
1
100
AcDbPolyline
 90
6
 70
1
 10
1035.618574
 20
1116.271872
 30
0.0
 10
1045.074574
 20
1121.644872
 30
0.0
 10
1054.606574
 20
1116.271872
 30
0.0
 10
1054.606574
 20
1105.672872
 30
0.0
 10
1045.074574
 20
1100.300872
 30
0.0
 10
1035.618574
 20
1105.672872
 30
0.0
  0
LWPOLYLINE
  5
2ca
100
AcDbEntity
  8
A0105_Printing
 62
1
100
AcDbPolyline
 90
6
 70
1
 10
1024.285574
 20
1162.517871
 30
0.0
 10
1024.285574
 20
1173.189871
 30
0.0
 10
1033.816574
 20
1178.488871
 30
0.0
 10
1042.222574
 20
1173.770871
 30
0.0
 10
1042.222574
 20
1161.936871
 30
0.0
 10
1033.816574
 20
1157.217871
 30
0.0
  0
LWPOLYLINE
  5
2cb
100
AcDbEntity
  8
A0105_Printing
 62
1
100
AcDbPolyline
 90
6
 70
1
 10
1033.816574
 20
1140.592871
 30
0.0
 10
1043.348574
 20
1135.292872
 30
0.0
 10
1043.348574
 20
1124.620872
 30
0.0
 10
1033.816574
 20
1119.320872
 30
0.0
 10
1024.285574
 20
1124.620872
 30
0.0
 10
1024.285574
 20
1135.220872
 30
0.0
  0
LWPOLYLINE
  5
2cc
100
AcDbEntity
  8
A0105_Printing
 62
1
100
AcDbPolyline
 90
4
 70
1
 10
978.401576
 20
1225.936869
 30
0.0
 10
1063.440573
 20
1225.936869
 30
0.0
 10
1063.440573
 20
1211.763870
 30
0.0
 10
978.401576
 20
1211.763870
 30
0.0
  0
LWPOLYLINE
  5
2cd
100
AcDbEntity
  8
A0105_Printing
 62
1
100
AcDbPolyline
 90
6
 70
1
 10
1077.272573
 20
1192.137870
 30
0.0
 10
1077.272573
 20
1181.465870
 30
0.0
 10
1067.740573
 20
1176.165871
 30
0.0
 10
1058.209574
 20
1181.465870
 30
0.0
 10
1058.209574
 20
1192.137870
 30
0.0
 10
1067.740573
 20
1197.437870
 30
0.0
  0
LWPOLYLINE
  5
2ce
100
AcDbEntity
  8
A0105_Printing
 62
1
100
AcDbPolyline
 90
6
 70
1
 10
1079.073573
 20
1157.217871
 30
0.0
 10
1069.541573
 20
1162.517871
 30
0.0
 10
1069.541573
 20
1173.189871
 30
0.0
 10
1079.073573
 20
1178.488871
 30
0.0
 10
1088.605573
 20
1173.189871
 30
0.0
 10
1088.605573
 20
1162.517871
 30
0.0
  0
LWPOLYLINE
  5
2cf
100
AcDbEntity
  8
A0105_Printing
 62
1
100
AcDbPolyline
 90
6
 70
1
 10
1069.541573
 20
1124.620872
 30
0.0
 10
1069.541573
 20
1135.292872
 30
0.0
 10
1079.073573
 20
1140.592871
 30
0.0
 10
1088.605573
 20
1135.220872
 30
0.0
 10
1088.605573
 20
1124.620872
 30
0.0
 10
1079.073573
 20
1119.320872
 30
0.0
  0
LWPOLYLINE
  5
2d0
100
AcDbEntity
  8
A0105_Printing
 62
1
100
AcDbPolyline
 90
6
 70
1
 10
1058.209574
 20
1143.569871
 30
0.0
 10
1058.209574
 20
1154.240871
 30
0.0
 10
1067.740573
 20
1159.540871
 30
0.0
 10
1077.272573
 20
1154.240871
 30
0.0
 10
1077.272573
 20
1143.569871
 30
0.0
 10
1067.740573
 20
1138.269872
 30
0.0
  0
LWPOLYLINE
  5
2d1
100
AcDbEntity
  8
A0105_Printing
 62
1
100
AcDbPolyline
 90
6
 70
1
 10
1067.740573
 20
1121.644872
 30
0.0
 10
1077.272573
 20
1116.271872
 30
0.0
 10
1077.272573
 20
1105.672872
 30
0.0
 10
1067.740573
 20
1100.372872
 30
0.0
 10
1058.209574
 20
1105.672872
 30
0.0
 10
1058.209574
 20
1116.271872
 30
0.0
  0
LWPOLYLINE
  5
2d2
100
AcDbEntity
  8
A0105_Printing
 62
1
100
AcDbPolyline
 90
6
 70
1
 10
1112.997572
 20
1176.165871
 30
0.0
 10
1103.465572
 20
1181.465870
 30
0.0
 10
1103.465572
 20
1192.137870
 30
0.0
 10
1112.997572
 20
1197.437870
 30
0.0
 10
1122.528572
 20
1192.137870
 30
0.0
 10
1122.528572
 20
1181.465870
 30
0.0
  0
LWPOLYLINE
  5
2d3
100
AcDbEntity
  8
A0105_Printing
 62
1
100
AcDbPolyline
 90
6
 70
1
 10
1112.997572
 20
1138.269872
 30
0.0
 10
1103.465572
 20
1143.569871
 30
0.0
 10
1103.465572
 20
1154.240871
 30
0.0
 10
1111.946572
 20
1158.959871
 30
0.0
 10
1122.528572
 20
1153.006871
 30
0.0
 10
1122.528572
 20
1143.569871
 30
0.0
  0
LWPOLYLINE
  5
2d4
100
AcDbEntity
  8
A0105_Printing
 62
1
100
AcDbPolyline
 90
7
 70
1
 10
1103.465572
 20
1116.271872
 30
0.0
 10
1112.997572
 20
1121.644872
 30
0.0
 10
1122.528572
 20
1116.271872
 30
0.0
 10
1122.528572
 20
1110.972872
 30
0.0
 10
1122.528572
 20
1105.672872
 30
0.0
 10
1112.997572
 20
1100.300872
 30
0.0
 10
1103.465572
 20
1105.672872
 30
0.0
  0
LWPOLYLINE
  5
2d5
100
AcDbEntity
  8
A0105_Printing
 62
1
100
AcDbPolyline
 90
6
 70
1
 10
1092.132573
 20
1162.517871
 30
0.0
 10
1092.132573
 20
1173.189871
 30
0.0
 10
1101.664572
 20
1178.488871
 30
0.0
 10
1110.145572
 20
1173.770871
 30
0.0
 10
1110.145572
 20
1161.936871
 30
0.0
 10
1101.664572
 20
1157.217871
 30
0.0
  0
LWPOLYLINE
  5
2d6
100
AcDbEntity
  8
A0105_Printing
 62
1
100
AcDbPolyline
 90
6
 70
1
 10
1101.664572
 20
1140.592871
 30
0.0
 10
1111.195572
 20
1135.292872
 30
0.0
 10
1111.195572
 20
1124.620872
 30
0.0
 10
1101.664572
 20
1119.320872
 30
0.0
 10
1092.132573
 20
1124.620872
 30
0.0
 10
1092.132573
 20
1135.220872
 30
0.0
  0
LWPOLYLINE
  5
2d7
100
AcDbEntity
  8
A0105_Printing
 62
1
100
AcDbPolyline
 90
6
 70
1
 10
1146.920571
 20
1157.217871
 30
0.0
 10
1137.389572
 20
1162.517871
 30
0.0
 10
1137.389572
 20
1173.189871
 30
0.0
 10
1146.920571
 20
1178.488871
 30
0.0
 10
1156.452571
 20
1173.189871
 30
0.0
 10
1156.452571
 20
1162.517871
 30
0.0
  0
LWPOLYLINE
  5
2d8
100
AcDbEntity
  8
A0105_Printing
 62
1
100
AcDbPolyline
 90
6
 70
1
 10
1137.389572
 20
1124.620872
 30
0.0
 10
1137.389572
 20
1135.220872
 30
0.0
 10
1146.920571
 20
1140.592871
 30
0.0
 10
1156.452571
 20
1135.292872
 30
0.0
 10
1156.452571
 20
1124.620872
 30
0.0
 10
1146.920571
 20
1119.320872
 30
0.0
  0
LWPOLYLINE
  5
2d9
100
AcDbEntity
  8
A0105_Printing
 62
1
100
AcDbPolyline
 90
6
 70
1
 10
1135.662572
 20
1121.644872
 30
0.0
 10
1145.119571
 20
1116.271872
 30
0.0
 10
1145.119571
 20
1105.672872
 30
0.0
 10
1135.662572
 20
1100.372872
 30
0.0
 10
1126.131572
 20
1105.672872
 30
0.0
 10
1126.131572
 20
1116.271872
 30
0.0
  0
LWPOLYLINE
  5
2da
100
AcDbEntity
  8
A0105_Printing
 62
1
100
AcDbPolyline
 90
6
 70
1
 10
1126.131572
 20
1181.465870
 30
0.0
 10
1126.131572
 20
1192.137870
 30
0.0
 10
1135.662572
 20
1197.437870
 30
0.0
 10
1145.119571
 20
1192.137870
 30
0.0
 10
1145.119571
 20
1181.465870
 30
0.0
 10
1135.662572
 20
1176.165871
 30
0.0
  0
LWPOLYLINE
  5
2db
100
AcDbEntity
  8
A0105_Printing
 62
1
100
AcDbPolyline
 90
6
 70
1
 10
1135.662572
 20
1159.540871
 30
0.0
 10
1145.119571
 20
1154.240871
 30
0.0
 10
1145.119571
 20
1143.569871
 30
0.0
 10
1135.662572
 20
1138.269872
 30
0.0
 10
1126.131572
 20
1143.569871
 30
0.0
 10
1126.131572
 20
1154.240871
 30
0.0
  0
LWPOLYLINE
  5
2dc
100
AcDbEntity
  8
A0105_Printing
 62
1
100
AcDbPolyline
 90
6
 70
1
 10
1287.748568
 20
1157.217871
 30
0.0
 10
1278.217568
 20
1162.517871
 30
0.0
 10
1278.217568
 20
1173.189871
 30
0.0
 10
1287.748568
 20
1178.488871
 30
0.0
 10
1297.280568
 20
1173.189871
 30
0.0
 10
1297.280568
 20
1162.517871
 30
0.0
  0
LWPOLYLINE
  5
2dd
100
AcDbEntity
  8
A0105_Printing
 62
1
100
AcDbPolyline
 90
6
 70
1
 10
1278.217568
 20
1124.620872
 30
0.0
 10
1278.217568
 20
1135.220872
 30
0.0
 10
1287.748568
 20
1140.592871
 30
0.0
 10
1297.280568
 20
1135.220872
 30
0.0
 10
1297.280568
 20
1124.620872
 30
0.0
 10
1287.748568
 20
1119.320872
 30
0.0
  0
LWPOLYLINE
  5
2de
100
AcDbEntity
  8
A0105_Printing
 62
1
100
AcDbPolyline
 90
6
 70
1
 10
1266.959568
 20
1116.271872
 30
0.0
 10
1276.416568
 20
1121.644872
 30
0.0
 10
1285.947568
 20
1116.271872
 30
0.0
 10
1285.947568
 20
1105.672872
 30
0.0
 10
1276.416568
 20
1100.300872
 30
0.0
 10
1266.959568
 20
1105.672872
 30
0.0
  0
LWPOLYLINE
  5
2df
100
AcDbEntity
  8
A0105_Printing
 62
1
100
AcDbPolyline
 90
6
 70
1
 10
1285.947568
 20
1154.240871
 30
0.0
 10
1285.947568
 20
1143.569871
 30
0.0
 10
1276.416568
 20
1138.269872
 30
0.0
 10
1266.959568
 20
1143.569871
 30
0.0
 10
1266.959568
 20
1154.240871
 30
0.0
 10
1276.416568
 20
1159.540871
 30
0.0
  0
LWPOLYLINE
  5
2e0
100
AcDbEntity
  8
A0105_Printing
 62
1
100
AcDbPolyline
 90
6
 70
1
 10
1266.959568
 20
1181.465870
 30
0.0
 10
1266.959568
 20
1192.137870
 30
0.0
 10
1276.416568
 20
1197.437870
 30
0.0
 10
1285.947568
 20
1192.137870
 30
0.0
 10
1285.947568
 20
1181.465870
 30
0.0
 10
1276.416568
 20
1176.165871
 30
0.0
  0
LWPOLYLINE
  5
2e1
100
AcDbEntity
  8
A0105_Printing
 62
1
100
AcDbPolyline
 90
6
 70
1
 10
1180.919570
 20
1176.165871
 30
0.0
 10
1171.387571
 20
1181.465870
 30
0.0
 10
1171.387571
 20
1192.137870
 30
0.0
 10
1179.793571
 20
1196.856870
 30
0.0
 10
1190.375570
 20
1190.903870
 30
0.0
 10
1190.375570
 20
1181.465870
 30
0.0
  0
LWPOLYLINE
  5
2e2
100
AcDbEntity
  8
A0105_Printing
 62
1
100
AcDbPolyline
 90
6
 70
1
 10
1180.919570
 20
1138.269872
 30
0.0
 10
1171.387571
 20
1143.569871
 30
0.0
 10
1171.387571
 20
1154.240871
 30
0.0
 10
1180.919570
 20
1159.540871
 30
0.0
 10
1190.375570
 20
1154.240871
 30
0.0
 10
1190.375570
 20
1143.569871
 30
0.0
  0
LWPOLYLINE
  5
2e3
100
AcDbEntity
  8
A0105_Printing
 62
1
100
AcDbPolyline
 90
6
 70
1
 10
1171.387571
 20
1116.271872
 30
0.0
 10
1179.793571
 20
1120.990872
 30
0.0
 10
1190.375570
 20
1115.110872
 30
0.0
 10
1190.375570
 20
1105.672872
 30
0.0
 10
1180.919570
 20
1100.300872
 30
0.0
 10
1171.387571
 20
1105.672872
 30
0.0
  0
LWPOLYLINE
  5
2e4
100
AcDbEntity
  8
A0105_Printing
 62
1
100
AcDbPolyline
 90
6
 70
1
 10
1160.054571
 20
1162.517871
 30
0.0
 10
1160.054571
 20
1173.189871
 30
0.0
 10
1169.586571
 20
1178.488871
 30
0.0
 10
1179.118571
 20
1173.189871
 30
0.0
 10
1179.118571
 20
1162.517871
 30
0.0
 10
1169.586571
 20
1157.217871
 30
0.0
  0
LWPOLYLINE
  5
2e5
100
AcDbEntity
  8
A0105_Printing
 62
1
100
AcDbPolyline
 90
6
 70
1
 10
1169.586571
 20
1140.592871
 30
0.0
 10
1177.992571
 20
1135.873872
 30
0.0
 10
1177.992571
 20
1124.039872
 30
0.0
 10
1169.586571
 20
1119.320872
 30
0.0
 10
1160.054571
 20
1124.620872
 30
0.0
 10
1160.054571
 20
1135.292872
 30
0.0
  0
LWPOLYLINE
  5
2e6
100
AcDbEntity
  8
A0105_Printing
 62
1
100
AcDbPolyline
 90
6
 70
1
 10
1203.509570
 20
1176.165871
 30
0.0
 10
1193.978570
 20
1181.465870
 30
0.0
 10
1193.978570
 20
1192.137870
 30
0.0
 10
1203.509570
 20
1197.437870
 30
0.0
 10
1213.041570
 20
1192.137870
 30
0.0
 10
1213.041570
 20
1181.465870
 30
0.0
  0
LWPOLYLINE
  5
2e7
100
AcDbEntity
  8
A0105_Printing
 62
1
100
AcDbPolyline
 90
6
 70
1
 10
1213.041570
 20
1116.271872
 30
0.0
 10
1213.041570
 20
1105.672872
 30
0.0
 10
1203.509570
 20
1100.300872
 30
0.0
 10
1193.978570
 20
1105.672872
 30
0.0
 10
1193.978570
 20
1116.271872
 30
0.0
 10
1203.509570
 20
1121.644872
 30
0.0
  0
LWPOLYLINE
  5
2e8
100
AcDbEntity
  8
A0105_Printing
 62
1
100
AcDbPolyline
 90
6
 70
1
 10
1203.509570
 20
1138.269872
 30
0.0
 10
1193.978570
 20
1143.569871
 30
0.0
 10
1193.978570
 20
1154.240871
 30
0.0
 10
1203.509570
 20
1159.540871
 30
0.0
 10
1213.041570
 20
1154.240871
 30
0.0
 10
1213.041570
 20
1143.569871
 30
0.0
  0
LWPOLYLINE
  5
2e9
100
AcDbEntity
  8
A0105_Printing
 62
1
100
AcDbPolyline
 90
4
 70
1
 10
1183.912570
 20
1225.936869
 30
0.0
 10
1268.951568
 20
1225.936869
 30
0.0
 10
1268.951568
 20
1211.763870
 30
0.0
 10
1183.912570
 20
1211.763870
 30
0.0
  0
LWPOLYLINE
  5
2ea
100
AcDbEntity
  8
A0105_Printing
 62
1
100
AcDbPolyline
 90
6
 70
1
 10
1253.825569
 20
1176.165871
 30
0.0
 10
1244.293569
 20
1181.465870
 30
0.0
 10
1244.293569
 20
1192.137870
 30
0.0
 10
1252.774569
 20
1196.856870
 30
0.0
 10
1263.356568
 20
1190.903870
 30
0.0
 10
1263.356568
 20
1181.465870
 30
0.0
  0
LWPOLYLINE
  5
2eb
100
AcDbEntity
  8
A0105_Printing
 62
1
100
AcDbPolyline
 90
6
 70
1
 10
1263.356568
 20
1115.110872
 30
0.0
 10
1263.356568
 20
1105.672872
 30
0.0
 10
1253.825569
 20
1100.300872
 30
0.0
 10
1244.293569
 20
1105.672872
 30
0.0
 10
1244.293569
 20
1116.271872
 30
0.0
 10
1252.774569
 20
1120.990872
 30
0.0
  0
LWPOLYLINE
  5
2ec
100
AcDbEntity
  8
A0105_Printing
 62
1
100
AcDbPolyline
 90
6
 70
1
 10
1253.825569
 20
1138.269872
 30
0.0
 10
1244.293569
 20
1143.569871
 30
0.0
 10
1244.293569
 20
1154.240871
 30
0.0
 10
1253.825569
 20
1159.540871
 30
0.0
 10
1263.356568
 20
1154.240871
 30
0.0
 10
1263.356568
 20
1143.569871
 30
0.0
  0
LWPOLYLINE
  5
2ed
100
AcDbEntity
  8
A0105_Printing
 62
1
100
AcDbPolyline
 90
6
 70
1
 10
1321.672567
 20
1176.165871
 30
0.0
 10
1312.216567
 20
1181.465870
 30
0.0
 10
1312.216567
 20
1192.137870
 30
0.0
 10
1321.672567
 20
1197.437870
 30
0.0
 10
1331.204567
 20
1192.137870
 30
0.0
 10
1331.204567
 20
1181.465870
 30
0.0
  0
LWPOLYLINE
  5
2ee
100
AcDbEntity
  8
A0105_Printing
 62
1
100
AcDbPolyline
 90
6
 70
1
 10
1321.672567
 20
1138.269872
 30
0.0
 10
1312.216567
 20
1143.569871
 30
0.0
 10
1312.216567
 20
1154.240871
 30
0.0
 10
1320.621567
 20
1158.959871
 30
0.0
 10
1331.204567
 20
1153.006871
 30
0.0
 10
1331.204567
 20
1143.569871
 30
0.0
  0
LWPOLYLINE
  5
2ef
100
AcDbEntity
  8
A0105_Printing
 62
1
100
AcDbPolyline
 90
6
 70
1
 10
1312.216567
 20
1116.271872
 30
0.0
 10
1321.672567
 20
1121.644872
 30
0.0
 10
1331.204567
 20
1116.271872
 30
0.0
 10
1331.204567
 20
1105.672872
 30
0.0
 10
1321.672567
 20
1100.300872
 30
0.0
 10
1312.216567
 20
1105.672872
 30
0.0
  0
LWPOLYLINE
  5
2f0
100
AcDbEntity
  8
A0105_Printing
 62
1
100
AcDbPolyline
 90
6
 70
1
 10
1300.883567
 20
1162.517871
 30
0.0
 10
1300.883567
 20
1173.189871
 30
0.0
 10
1310.414567
 20
1178.488871
 30
0.0
 10
1318.820567
 20
1173.770871
 30
0.0
 10
1318.820567
 20
1161.936871
 30
0.0
 10
1310.414567
 20
1157.217871
 30
0.0
  0
LWPOLYLINE
  5
2f1
100
AcDbEntity
  8
A0105_Printing
 62
1
100
AcDbPolyline
 90
6
 70
1
 10
1310.414567
 20
1140.592871
 30
0.0
 10
1319.946567
 20
1135.292872
 30
0.0
 10
1319.946567
 20
1124.620872
 30
0.0
 10
1310.414567
 20
1119.320872
 30
0.0
 10
1300.883567
 20
1124.620872
 30
0.0
 10
1300.883567
 20
1135.220872
 30
0.0
  0
LWPOLYLINE
  5
2f2
100
AcDbEntity
  8
A0105_Printing
 62
1
100
AcDbPolyline
 90
6
 70
1
 10
1355.671566
 20
1157.217871
 30
0.0
 10
1346.139566
 20
1162.517871
 30
0.0
 10
1346.139566
 20
1173.189871
 30
0.0
 10
1355.671566
 20
1178.488871
 30
0.0
 10
1365.202566
 20
1173.189871
 30
0.0
 10
1365.202566
 20
1162.517871
 30
0.0
  0
LWPOLYLINE
  5
2f3
100
AcDbEntity
  8
A0105_Printing
 62
1
100
AcDbPolyline
 90
6
 70
1
 10
1346.139566
 20
1124.620872
 30
0.0
 10
1346.139566
 20
1135.292872
 30
0.0
 10
1355.671566
 20
1140.592871
 30
0.0
 10
1365.202566
 20
1135.220872
 30
0.0
 10
1365.202566
 20
1124.620872
 30
0.0
 10
1355.671566
 20
1119.320872
 30
0.0
  0
LWPOLYLINE
  5
2f4
100
AcDbEntity
  8
A0105_Printing
 62
1
100
AcDbPolyline
 90
6
 70
1
 10
1344.338566
 20
1121.644872
 30
0.0
 10
1353.869566
 20
1116.271872
 30
0.0
 10
1353.869566
 20
1105.672872
 30
0.0
 10
1344.338566
 20
1100.372872
 30
0.0
 10
1334.806567
 20
1105.672872
 30
0.0
 10
1334.806567
 20
1116.271872
 30
0.0
  0
LWPOLYLINE
  5
2f5
100
AcDbEntity
  8
A0105_Printing
 62
1
100
AcDbPolyline
 90
6
 70
1
 10
1334.806567
 20
1181.465870
 30
0.0
 10
1334.806567
 20
1192.137870
 30
0.0
 10
1344.338566
 20
1197.437870
 30
0.0
 10
1353.869566
 20
1192.137870
 30
0.0
 10
1353.869566
 20
1181.465870
 30
0.0
 10
1344.338566
 20
1176.165871
 30
0.0
  0
SPLINE
  5
2f6
100
AcDbEntity
  8
A0105_Printing
 62
1
100
AcDbSpline
 70
8
 71
3
 72
8
 73
4
 74
0
 40
0
 40
0
 40
0
 40
0
 40
1
 40
1
 40
1
 40
1
 10
1077.613573
 20
1282.629868
 30
0.0
 10
1077.613573
 20
1298.284868
 30
0.0
 10
1090.304573
 20
1310.975867
 30
0.0
 10
1105.960572
 20
1310.975867
 30
0.0
  0
LWPOLYLINE
  5
2f7
100
AcDbEntity
  8
A0105_Printing
 62
1
100
AcDbPolyline
 90
6
 70
1
 10
1344.338566
 20
1159.540871
 30
0.0
 10
1353.869566
 20
1154.240871
 30
0.0
 10
1353.869566
 20
1143.569871
 30
0.0
 10
1344.338566
 20
1138.269872
 30
0.0
 10
1334.806567
 20
1143.569871
 30
0.0
 10
1334.806567
 20
1154.240871
 30
0.0
  0
SPLINE
  5
2f8
100
AcDbEntity
  8
A0105_Printing
 62
1
100
AcDbSpline
 70
8
 71
3
 72
8
 73
4
 74
0
 40
0
 40
0
 40
0
 40
0
 40
1
 40
1
 40
1
 40
1
 10
1346.905566
 20
1310.975867
 30
0.0
 10
1362.560566
 20
1310.975867
 30
0.0
 10
1375.251566
 20
1298.284868
 30
0.0
 10
1375.251566
 20
1282.629868
 30
0.0
  0
SPLINE
  5
2f9
100
AcDbEntity
  8
A0105_Printing
 62
1
100
AcDbSpline
 70
8
 71
3
 72
8
 73
4
 74
0
 40
0
 40
0
 40
0
 40
0
 40
1
 40
1
 40
1
 40
1
 10
1375.251566
 20
1282.629868
 30
0.0
 10
1375.251566
 20
1266.974868
 30
0.0
 10
1362.560566
 20
1254.283869
 30
0.0
 10
1346.905566
 20
1254.283869
 30
0.0
  0
LWPOLYLINE
  5
2fa
100
AcDbEntity
  8
A0105_Printing
 62
1
100
AcDbPolyline
 90
2
 70
0
 10
1105.960572
 20
1310.975867
 30
0.0
 10
1346.905566
 20
1310.975867
 30
0.0
  0
SPLINE
  5
2fb
100
AcDbEntity
  8
A0105_Printing
 62
1
100
AcDbSpline
 70
8
 71
3
 72
8
 73
4
 74
0
 40
0
 40
0
 40
0
 40
0
 40
1
 40
1
 40
1
 40
1
 10
1105.960572
 20
1254.283869
 30
0.0
 10
1090.304573
 20
1254.283869
 30
0.0
 10
1077.613573
 20
1266.974868
 30
0.0
 10
1077.613573
 20
1282.629868
 30
0.0
  0
LWPOLYLINE
  5
2fc
100
AcDbEntity
  8
A0105_Printing
 62
1
100
AcDbPolyline
 90
2
 70
0
 10
1346.905566
 20
1254.283869
 30
0.0
 10
1105.960572
 20
1254.283869
 30
0.0
  0
LWPOLYLINE
  5
2fd
100
AcDbEntity
  8
A0105_Printing
 62
1
100
AcDbPolyline
 90
1
 70
1
 10
1077.613573
 20
1282.629868
 30
0.0
  0
LWPOLYLINE
  5
2fe
100
AcDbEntity
  8
A0105_Printing
 62
1
100
AcDbPolyline
 90
6
 70
1
 10
1386.743565
 20
1173.770871
 30
0.0
 10
1386.743565
 20
1161.936871
 30
0.0
 10
1378.262566
 20
1157.217871
 30
0.0
 10
1368.730566
 20
1162.517871
 30
0.0
 10
1368.730566
 20
1173.189871
 30
0.0
 10
1378.262566
 20
1178.488871
 30
0.0
  0
LWPOLYLINE
  5
2ff
100
AcDbEntity
  8
A0105_Printing
 62
1
100
AcDbPolyline
 90
6
 70
1
 10
1389.595565
 20
1138.269872
 30
0.0
 10
1380.063565
 20
1143.569871
 30
0.0
 10
1380.063565
 20
1154.240871
 30
0.0
 10
1388.544565
 20
1158.959871
 30
0.0
 10
1399.126565
 20
1153.006871
 30
0.0
 10
1399.126565
 20
1143.569871
 30
0.0
  0
LWPOLYLINE
  5
300
100
AcDbEntity
  8
A0105_Printing
 62
1
100
AcDbPolyline
 90
6
 70
1
 10
1378.262566
 20
1119.320872
 30
0.0
 10
1368.730566
 20
1124.620872
 30
0.0
 10
1368.730566
 20
1135.220872
 30
0.0
 10
1378.262566
 20
1140.592871
 30
0.0
 10
1387.793565
 20
1135.292872
 30
0.0
 10
1387.793565
 20
1124.620872
 30
0.0
  0
LWPOLYLINE
  5
301
100
AcDbEntity
  8
A0105_Printing
 62
1
100
AcDbPolyline
 90
7
 70
1
 10
1380.063565
 20
1116.271872
 30
0.0
 10
1389.595565
 20
1121.644872
 30
0.0
 10
1399.126565
 20
1116.271872
 30
0.0
 10
1399.126565
 20
1110.972872
 30
0.0
 10
1399.126565
 20
1105.672872
 30
0.0
 10
1389.595565
 20
1100.300872
 30
0.0
 10
1380.063565
 20
1105.672872
 30
0.0
  0
LWPOLYLINE
  5
302
100
AcDbEntity
  8
A0105_Printing
 62
1
100
AcDbPolyline
 90
6
 70
1
 10
1380.063565
 20
1192.137870
 30
0.0
 10
1389.595565
 20
1197.437870
 30
0.0
 10
1399.126565
 20
1192.137870
 30
0.0
 10
1399.126565
 20
1181.465870
 30
0.0
 10
1389.595565
 20
1176.165871
 30
0.0
 10
1380.063565
 20
1181.465870
 30
0.0
  0
LWPOLYLINE
  5
303
100
AcDbEntity
  8
A0105_Printing
 62
1
100
AcDbPolyline
 90
6
 70
1
 10
1423.518564
 20
1157.217871
 30
0.0
 10
1413.986565
 20
1162.517871
 30
0.0
 10
1413.986565
 20
1173.189871
 30
0.0
 10
1423.518564
 20
1178.488871
 30
0.0
 10
1433.050564
 20
1173.189871
 30
0.0
 10
1433.050564
 20
1162.517871
 30
0.0
  0
LWPOLYLINE
  5
304
100
AcDbEntity
  8
A0105_Printing
 62
1
100
AcDbPolyline
 90
6
 70
1
 10
1413.986565
 20
1124.620872
 30
0.0
 10
1413.986565
 20
1135.220872
 30
0.0
 10
1423.518564
 20
1140.592871
 30
0.0
 10
1433.050564
 20
1135.292872
 30
0.0
 10
1433.050564
 20
1124.620872
 30
0.0
 10
1423.518564
 20
1119.320872
 30
0.0
  0
LWPOLYLINE
  5
305
100
AcDbEntity
  8
A0105_Printing
 62
1
100
AcDbPolyline
 90
6
 70
1
 10
1412.260565
 20
1121.644872
 30
0.0
 10
1421.717564
 20
1116.271872
 30
0.0
 10
1421.717564
 20
1105.672872
 30
0.0
 10
1412.260565
 20
1100.372872
 30
0.0
 10
1402.729565
 20
1105.672872
 30
0.0
 10
1402.729565
 20
1116.271872
 30
0.0
  0
LWPOLYLINE
  5
306
100
AcDbEntity
  8
A0105_Printing
 62
1
100
AcDbPolyline
 90
6
 70
1
 10
1402.729565
 20
1181.465870
 30
0.0
 10
1402.729565
 20
1192.137870
 30
0.0
 10
1412.260565
 20
1197.437870
 30
0.0
 10
1421.717564
 20
1192.137870
 30
0.0
 10
1421.717564
 20
1181.465870
 30
0.0
 10
1412.260565
 20
1176.165871
 30
0.0
  0
LWPOLYLINE
  5
307
100
AcDbEntity
  8
A0105_Printing
 62
1
100
AcDbPolyline
 90
6
 70
1
 10
1412.260565
 20
1159.540871
 30
0.0
 10
1421.717564
 20
1154.240871
 30
0.0
 10
1421.717564
 20
1143.569871
 30
0.0
 10
1412.260565
 20
1138.269872
 30
0.0
 10
1402.729565
 20
1143.569871
 30
0.0
 10
1402.729565
 20
1154.240871
 30
0.0
  0
LWPOLYLINE
  5
308
100
AcDbEntity
  8
A0105_Printing
 62
1
100
AcDbPolyline
 90
6
 70
1
 10
1454.590564
 20
1135.873872
 30
0.0
 10
1454.590564
 20
1124.039872
 30
0.0
 10
1446.184564
 20
1119.320872
 30
0.0
 10
1436.652564
 20
1124.620872
 30
0.0
 10
1436.652564
 20
1135.292872
 30
0.0
 10
1446.184564
 20
1140.592871
 30
0.0
  0
LWPOLYLINE
  5
309
100
AcDbEntity
  8
A0105_Printing
 62
1
100
AcDbPolyline
 90
6
 70
1
 10
1436.652564
 20
1162.517871
 30
0.0
 10
1436.652564
 20
1173.189871
 30
0.0
 10
1446.184564
 20
1178.488871
 30
0.0
 10
1455.715564
 20
1173.189871
 30
0.0
 10
1455.715564
 20
1162.517871
 30
0.0
 10
1446.184564
 20
1157.217871
 30
0.0
  0
LWPOLYLINE
  5
30a
100
AcDbEntity
  8
A0105_Printing
 62
1
100
AcDbPolyline
 90
4
 70
1
 10
1389.424565
 20
1225.936869
 30
0.0
 10
1474.463563
 20
1225.936869
 30
0.0
 10
1474.463563
 20
1211.763870
 30
0.0
 10
1389.424565
 20
1211.763870
 30
0.0
  0
SPLINE
  5
30b
100
AcDbEntity
  8
A0105_Printing
 62
1
100
AcDbSpline
 70
8
 71
3
 72
8
 73
4
 74
0
 40
0
 40
0
 40
0
 40
0
 40
1
 40
1
 40
1
 40
1
 10
1460.290563
 20
1282.629868
 30
0.0
 10
1460.290563
 20
1313.940867
 30
0.0
 10
1434.908564
 20
1339.322867
 30
0.0
 10
1403.597565
 20
1339.322867
 30
0.0
  0
LWPOLYLINE
  5
30c
100
AcDbEntity
  8
A0105_Printing
 62
1
100
AcDbPolyline
 90
5
 70
0
 10
1531.156562
 20
1112.550872
 30
0.0
 10
1531.156562
 20
1169.243871
 30
0.0
 10
1516.983562
 20
1169.243871
 30
0.0
 10
1516.983562
 20
1282.629868
 30
0.0
 10
1460.290563
 20
1282.629868
 30
0.0
  0
SPLINE
  5
30d
100
AcDbEntity
  8
A0105_Printing
 62
1
100
AcDbSpline
 70
8
 71
3
 72
8
 73
4
 74
0
 40
0
 40
0
 40
0
 40
0
 40
1
 40
1
 40
1
 40
1
 10
1049.267574
 20
1339.322867
 30
0.0
 10
1017.956575
 20
1339.322867
 30
0.0
 10
992.574575
 20
1313.940867
 30
0.0
 10
992.574575
 20
1282.629868
 30
0.0
  0
LWPOLYLINE
  5
30e
100
AcDbEntity
  8
A0105_Printing
 62
1
100
AcDbPolyline
 90
2
 70
0
 10
1403.597565
 20
1339.322867
 30
0.0
 10
1049.267574
 20
1339.322867
 30
0.0
  0
LWPOLYLINE
  5
30f
100
AcDbEntity
  8
A0105_Printing
 62
1
100
AcDbPolyline
 90
30
 70
0
 10
992.574575
 20
1282.629868
 30
0.0
 10
935.881577
 20
1282.629868
 30
0.0
 10
935.881577
 20
1169.243871
 30
0.0
 10
921.708577
 20
1169.243871
 30
0.0
 10
921.708577
 20
1112.550872
 30
0.0
 10
935.881577
 20
1112.550872
 30
0.0
 10
935.881577
 20
1055.857874
 30
0.0
 10
921.708577
 20
1055.857874
 30
0.0
 10
921.708577
 20
999.164875
 30
0.0
 10
935.881577
 20
999.164875
 30
0.0
 10
935.881577
 20
956.645876
 30
0.0
 10
978.401576
 20
956.645876
 30
0.0
 10
978.401576
 20
970.818876
 30
0.0
 10
1063.440573
 20
970.818876
 30
0.0
 10
1063.440573
 20
956.645876
 30
0.0
 10
1183.912570
 20
956.645876
 30
0.0
 10
1183.912570
 20
970.818876
 30
0.0
 10
1268.952568
 20
970.818876
 30
0.0
 10
1268.952568
 20
956.645876
 30
0.0
 10
1389.424565
 20
956.645876
 30
0.0
 10
1389.424565
 20
970.818876
 30
0.0
 10
1474.463563
 20
970.818876
 30
0.0
 10
1474.463563
 20
956.645876
 30
0.0
 10
1516.983562
 20
956.645876
 30
0.0
 10
1516.983562
 20
999.164875
 30
0.0
 10
1531.156562
 20
999.164875
 30
0.0
 10
1531.156562
 20
1055.857874
 30
0.0
 10
1516.983562
 20
1055.857874
 30
0.0
 10
1516.983562
 20
1112.550872
 30
0.0
 10
1531.156562
 20
1112.550872
 30
0.0
  0
ENDSEC
  0
SECTION
  2
OBJECTS
  0
DICTIONARY
  5
C
330
0
100
AcDbDictionary
  3
ACAD_GROUP
350
D
  3
ACAD_MLINESTYLE
350
17
  0
DICTIONARY
  5
D
330
C
100
AcDbDictionary
  0
DICTIONARY
  5
1A
330
C
100
AcDbDictionary
  0
DICTIONARY
  5
17
330
C
100
AcDbDictionary
  3
STANDARD
350
18
  0
DICTIONARY
  5
19
330
C
100
AcDbDictionary
  0
ENDSEC
  0
EOF
