  0
SECTION
  2
HEADER
  9
$ACADVER
  1
AC1021
  9
$ACADMAINTVER
 70
    25
  9
$DWGCODEPAGE
  3
ANSI_1250
  9
$INSBASE
 10
0.0
 20
0.0
 30
0.0
  9
$EXTMIN
 10
-302.1802
 20
-151.2874
 30
0.0
  9
$EXTMAX
 10
299.1575
 20
289.7291
 30
0.0
  9
$LIMMIN
 10
0.0
 20
0.0
  9
$LIMMAX
 10
12.0
 20
9.0
  9
$ORTHOMODE
 70
     0
  9
$REGENMODE
 70
     1
  9
$FILLMODE
 70
     1
  9
$QTEXTMODE
 70
     0
  9
$MIRRTEXT
 70
     1
  9
$LTSCALE
 40
1.0
  9
$ATTMODE
 70
     1
  9
$TEXTSIZE
 40
0.2
  9
$TRACEWID
 40
0.05
  9
$TEXTSTYLE
  7
Standard
  9
$CLAYER
  8
0
  9
$CELTYPE
  6
ByLayer
  9
$CECOLOR
 62
   256
  9
$CELTSCALE
 40
1.0
  9
$DISPSILH
 70
     0
  9
$DIMSCALE
 40
1.0
  9
$DIMASZ
 40
0.18
  9
$DIMEXO
 40
0.0625
  9
$DIMDLI
 40
0.38
  9
$DIMRND
 40
0.0
  9
$DIMDLE
 40
0.0
  9
$DIMEXE
 40
0.18
  9
$DIMTP
 40
0.0
  9
$DIMTM
 40
0.0
  9
$DIMTXT
 40
0.18
  9
$DIMCEN
 40
0.09
  9
$DIMTSZ
 40
0.0
  9
$DIMTOL
 70
     0
  9
$DIMLIM
 70
     0
  9
$DIMTIH
 70
     1
  9
$DIMTOH
 70
     1
  9
$DIMSE1
 70
     0
  9
$DIMSE2
 70
     0
  9
$DIMTAD
 70
     0
  9
$DIMZIN
 70
     0
  9
$DIMBLK
  1

  9
$DIMASO
 70
     1
  9
$DIMSHO
 70
     1
  9
$DIMPOST
  1

  9
$DIMAPOST
  1

  9
$DIMALT
 70
     0
  9
$DIMALTD
 70
     2
  9
$DIMALTF
 40
25.4
  9
$DIMLFAC
 40
1.0
  9
$DIMTOFL
 70
     0
  9
$DIMTVP
 40
0.0
  9
$DIMTIX
 70
     0
  9
$DIMSOXD
 70
     0
  9
$DIMSAH
 70
     0
  9
$DIMBLK1
  1

  9
$DIMBLK2
  1

  9
$DIMSTYLE
  2
Standard
  9
$DIMCLRD
 70
     0
  9
$DIMCLRE
 70
     0
  9
$DIMCLRT
 70
     0
  9
$DIMTFAC
 40
1.0
  9
$DIMGAP
 40
0.09
  9
$DIMJUST
 70
     0
  9
$DIMSD1
 70
     0
  9
$DIMSD2
 70
     0
  9
$DIMTOLJ
 70
     1
  9
$DIMTZIN
 70
     0
  9
$DIMALTZ
 70
     0
  9
$DIMALTTZ
 70
     0
  9
$DIMUPT
 70
     0
  9
$DIMDEC
 70
     4
  9
$DIMTDEC
 70
     4
  9
$DIMALTU
 70
     2
  9
$DIMALTTD
 70
     2
  9
$DIMTXSTY
  7
Standard
  9
$DIMAUNIT
 70
     0
  9
$DIMADEC
 70
     0
  9
$DIMALTRND
 40
0.0
  9
$DIMAZIN
 70
     0
  9
$DIMDSEP
 70
    46
  9
$DIMATFIT
 70
     3
  9
$DIMFRAC
 70
     0
  9
$DIMLDRBLK
  1

  9
$DIMLUNIT
 70
     2
  9
$DIMLWD
 70
    -2
  9
$DIMLWE
 70
    -2
  9
$DIMTMOVE
 70
     0
  9
$DIMFXL
 40
1.0
  9
$DIMFXLON
 70
     0
  9
$DIMJOGANG
 40
0.7853981633974483
  9
$DIMTFILL
 70
     0
  9
$DIMTFILLCLR
 70
     0
  9
$DIMARCSYM
 70
     0
  9
$DIMLTYPE
  6

  9
$DIMLTEX1
  6

  9
$DIMLTEX2
  6

  9
$LUNITS
 70
     2
  9
$LUPREC
 70
     4
  9
$SKETCHINC
 40
0.1
  9
$FILLETRAD
 40
0.5
  9
$AUNITS
 70
     0
  9
$AUPREC
 70
     0
  9
$MENU
  1
.
  9
$ELEVATION
 40
0.0
  9
$PELEVATION
 40
0.0
  9
$THICKNESS
 40
0.0
  9
$LIMCHECK
 70
     0
  9
$CHAMFERA
 40
0.5
  9
$CHAMFERB
 40
0.5
  9
$CHAMFERC
 40
1.0
  9
$CHAMFERD
 40
0.0
  9
$SKPOLY
 70
     0
  9
$TDCREATE
 40
2456579.771092315
  9
$TDUCREATE
 40
2456579.687758981
  9
$TDUPDATE
 40
2456579.771092326
  9
$TDUUPDATE
 40
2456579.687758993
  9
$TDINDWG
 40
0.0000000116
  9
$TDUSRTIMER
 40
0.0000000116
  9
$USRTIMER
 70
     1
  9
$ANGBASE
 50
0.0
  9
$ANGDIR
 70
     0
  9
$PDMODE
 70
     0
  9
$PDSIZE
 40
0.0
  9
$PLINEWID
 40
0.0
  9
$SPLFRAME
 70
     0
  9
$SPLINETYPE
 70
     6
  9
$SPLINESEGS
 70
     8
  9
$HANDSEED
  5
B9
  9
$SURFTAB1
 70
     6
  9
$SURFTAB2
 70
     6
  9
$SURFTYPE
 70
     6
  9
$SURFU
 70
     6
  9
$SURFV
 70
     6
  9
$UCSBASE
  2

  9
$UCSNAME
  2

  9
$UCSORG
 10
0.0
 20
0.0
 30
0.0
  9
$UCSXDIR
 10
1.0
 20
0.0
 30
0.0
  9
$UCSYDIR
 10
0.0
 20
1.0
 30
0.0
  9
$UCSORTHOREF
  2

  9
$UCSORTHOVIEW
 70
     0
  9
$UCSORGTOP
 10
0.0
 20
0.0
 30
0.0
  9
$UCSORGBOTTOM
 10
0.0
 20
0.0
 30
0.0
  9
$UCSORGLEFT
 10
0.0
 20
0.0
 30
0.0
  9
$UCSORGRIGHT
 10
0.0
 20
0.0
 30
0.0
  9
$UCSORGFRONT
 10
0.0
 20
0.0
 30
0.0
  9
$UCSORGBACK
 10
0.0
 20
0.0
 30
0.0
  9
$PUCSBASE
  2

  9
$PUCSNAME
  2

  9
$PUCSORG
 10
0.0
 20
0.0
 30
0.0
  9
$PUCSXDIR
 10
1.0
 20
0.0
 30
0.0
  9
$PUCSYDIR
 10
0.0
 20
1.0
 30
0.0
  9
$PUCSORTHOREF
  2

  9
$PUCSORTHOVIEW
 70
     0
  9
$PUCSORGTOP
 10
0.0
 20
0.0
 30
0.0
  9
$PUCSORGBOTTOM
 10
0.0
 20
0.0
 30
0.0
  9
$PUCSORGLEFT
 10
0.0
 20
0.0
 30
0.0
  9
$PUCSORGRIGHT
 10
0.0
 20
0.0
 30
0.0
  9
$PUCSORGFRONT
 10
0.0
 20
0.0
 30
0.0
  9
$PUCSORGBACK
 10
0.0
 20
0.0
 30
0.0
  9
$USERI1
 70
     0
  9
$USERI2
 70
     0
  9
$USERI3
 70
     0
  9
$USERI4
 70
     0
  9
$USERI5
 70
     0
  9
$USERR1
 40
0.0
  9
$USERR2
 40
0.0
  9
$USERR3
 40
0.0
  9
$USERR4
 40
0.0
  9
$USERR5
 40
0.0
  9
$WORLDVIEW
 70
     1
  9
$SHADEDGE
 70
     3
  9
$SHADEDIF
 70
    70
  9
$TILEMODE
 70
     1
  9
$MAXACTVP
 70
    64
  9
$PINSBASE
 10
0.0
 20
0.0
 30
0.0
  9
$PLIMCHECK
 70
     0
  9
$PEXTMIN
 10
1.000000000000000E+20
 20
1.000000000000000E+20
 30
1.000000000000000E+20
  9
$PEXTMAX
 10
-1.000000000000000E+20
 20
-1.000000000000000E+20
 30
-1.000000000000000E+20
  9
$PLIMMIN
 10
0.0
 20
0.0
  9
$PLIMMAX
 10
12.0
 20
9.0
  9
$UNITMODE
 70
     0
  9
$VISRETAIN
 70
     1
  9
$PLINEGEN
 70
     0
  9
$PSLTSCALE
 70
     1
  9
$TREEDEPTH
 70
  3020
  9
$CMLSTYLE
  2
Standard
  9
$CMLJUST
 70
     0
  9
$CMLSCALE
 40
1.0
  9
$PROXYGRAPHICS
 70
     1
  9
$MEASUREMENT
 70
     0
  9
$CELWEIGHT
370
    -1
  9
$ENDCAPS
280
     0
  9
$JOINSTYLE
280
     0
  9
$LWDISPLAY
290
     0
  9
$INSUNITS
 70
     4
  9
$HYPERLINKBASE
  1

  9
$STYLESHEET
  1

  9
$XEDIT
290
     1
  9
$CEPSNTYPE
380
     0
  9
$PSTYLEMODE
290
     1
  9
$FINGERPRINTGUID
  2
{02709A2A-E0E9-440B-AD67-7D52D26FF70F}
  9
$VERSIONGUID
  2
{FAEB1C32-E019-11D5-929B-00C0DF256EC4}
  9
$EXTNAMES
290
     1
  9
$PSVPSCALE
 40
0.0
  9
$OLESTARTUP
290
     0
  9
$SORTENTS
280
   127
  9
$INDEXCTL
280
     0
  9
$HIDETEXT
280
     1
  9
$XCLIPFRAME
290
     0
  9
$HALOGAP
280
     0
  9
$OBSCOLOR
 70
   257
  9
$OBSLTYPE
280
     0
  9
$INTERSECTIONDISPLAY
280
     0
  9
$INTERSECTIONCOLOR
 70
   257
  9
$DIMASSOC
280
     2
  9
$PROJECTNAME
  1

  9
$CAMERADISPLAY
290
     0
  9
$LENSLENGTH
 40
50.0
  9
$CAMERAHEIGHT
 40
0.0
  9
$STEPSPERSEC
 40
2.0
  9
$STEPSIZE
 40
6.0
  9
$3DDWFPREC
 40
2.0
  9
$PSOLWIDTH
 40
0.25
  9
$PSOLHEIGHT
 40
4.0
  9
$LOFTANG1
 40
1.570796326794897
  9
$LOFTANG2
 40
1.570796326794897
  9
$LOFTMAG1
 40
0.0
  9
$LOFTMAG2
 40
0.0
  9
$LOFTPARAM
 70
     7
  9
$LOFTNORMALS
280
     1
  9
$LATITUDE
 40
37.795
  9
$LONGITUDE
 40
-122.394
  9
$NORTHDIRECTION
 40
0.0
  9
$TIMEZONE
 70
 -8000
  9
$LIGHTGLYPHDISPLAY
280
     1
  9
$TILEMODELIGHTSYNCH
280
     1
  9
$SOLIDHIST
280
     1
  9
$SHOWHIST
280
     1
  9
$DWFFRAME
280
     2
  9
$DGNFRAME
280
     2
  9
$REALWORLDSCALE
290
     1
  9
$INTERFERECOLOR
 62
   256
  9
$CSHADOW
280
     0
  9
$SHADOWPLANELOCATION
 40
0.0
  0
ENDSEC
  0
SECTION
  2
CLASSES
  0
CLASS
  1
ACDBDICTIONARYWDFLT
  2
AcDbDictionaryWithDefault
  3
ObjectDBX Classes
 90
        0
 91
        4
280
     0
281
     0
  0
CLASS
  1
VISUALSTYLE
  2
AcDbVisualStyle
  3
ObjectDBX Classes
 90
     4095
 91
        4
280
     0
281
     0
  0
CLASS
  1
MATERIAL
  2
AcDbMaterial
  3
ObjectDBX Classes
 90
     1153
 91
        4
280
     0
281
     0
  0
ENDSEC
  0
SECTION
  2
TABLES
  0
TABLE
  2
VPORT
  5
8
330
0
100
AcDbSymbolTable
 70
     1
  0
VPORT
  5
29
330
8
100
AcDbSymbolTableRecord
100
AcDbViewportTableRecord
  2
*Active
 70
     0
 10
0.0
 20
0.0
 11
1.0
 21
1.0
 12
10.42990654205607
 22
4.5
 13
0.0
 23
0.0
 14
0.5
 24
0.5
 15
0.5
 25
0.5
 16
0.0
 26
0.0
 36
1.0
 17
0.0
 27
0.0
 37
0.0
 40
9.0
 41
1.972972972850329
 42
50.0
 43
0.0
 44
0.0
 50
0.0
 51
0.0
 71
     0
 72
   100
 73
     1
 74
     3
 75
     0
 76
     0
 77
     0
 78
     0
281
     0
 65
     1
110
0.0
120
0.0
130
0.0
111
1.0
121
0.0
131
0.0
112
0.0
122
1.0
132
0.0
 79
     0
146
0.0
 60
     3
 61
     5
292
     1
282
     1
141
0.0
142
0.0
 63
   250
  0
ENDTAB
  0
TABLE
  2
LTYPE
  5
5
330
0
100
AcDbSymbolTable
 70
     1
  0
LTYPE
  5
14
330
5
100
AcDbSymbolTableRecord
100
AcDbLinetypeTableRecord
  2
ByBlock
 70
     0
  3

 72
    65
 73
     0
 40
0.0
  0
LTYPE
  5
15
330
5
100
AcDbSymbolTableRecord
100
AcDbLinetypeTableRecord
  2
ByLayer
 70
     0
  3

 72
    65
 73
     0
 40
0.0
  0
LTYPE
  5
16
330
5
100
AcDbSymbolTableRecord
100
AcDbLinetypeTableRecord
  2
Continuous
 70
     0
  3
Solid line
 72
    65
 73
     0
 40
0.0
  0
ENDTAB
  0
TABLE
  2
LAYER
  5
2
330
0
100
AcDbSymbolTable
 70
     2
  0
LAYER
  5
10
330
2
100
AcDbSymbolTableRecord
100
AcDbLayerTableRecord
  2
0
 70
     0
 62
     7
  6
Continuous
370
    -3
390
F
347
3E
  0
LAYER
  5
40
330
2
100
AcDbSymbolTableRecord
100
AcDbLayerTableRecord
  2
Layer 1
 70
     0
 62
     7
  6
Continuous
370
    -3
390
F
347
3E
  0
ENDTAB
  0
TABLE
  2
STYLE
  5
3
330
0
100
AcDbSymbolTable
 70
     1
  0
STYLE
  5
11
330
3
100
AcDbSymbolTableRecord
100
AcDbTextStyleTableRecord
  2
Standard
 70
     0
 40
0.0
 41
1.0
 50
0.0
 71
     0
 42
0.2
  3
txt
  4

  0
ENDTAB
  0
TABLE
  2
VIEW
  5
6
330
0
100
AcDbSymbolTable
 70
     0
  0
ENDTAB
  0
TABLE
  2
UCS
  5
7
330
0
100
AcDbSymbolTable
 70
     0
  0
ENDTAB
  0
TABLE
  2
APPID
  5
9
330
0
100
AcDbSymbolTable
 70
     2
  0
APPID
  5
12
330
9
100
AcDbSymbolTableRecord
100
AcDbRegAppTableRecord
  2
ACAD
 70
     0
  0
APPID
  5
3F
330
9
100
AcDbSymbolTableRecord
100
AcDbRegAppTableRecord
  2
ODA
 70
     0
  0
ENDTAB
  0
TABLE
  2
DIMSTYLE
  5
A
330
0
100
AcDbSymbolTable
 70
     1
100
AcDbDimStyleTable
  0
DIMSTYLE
105
27
330
A
100
AcDbSymbolTableRecord
100
AcDbDimStyleTableRecord
  2
Standard
 70
     0
178
     0
340
11
  0
ENDTAB
  0
TABLE
  2
BLOCK_RECORD
  5
1
330
0
100
AcDbSymbolTable
 70
     1
  0
BLOCK_RECORD
  5
1F
330
1
100
AcDbSymbolTableRecord
100
AcDbBlockTableRecord
  2
*Model_Space
340
22
 70
     0
280
     1
281
     0
  0
BLOCK_RECORD
  5
1B
330
1
100
AcDbSymbolTableRecord
100
AcDbBlockTableRecord
  2
*Paper_Space
340
1E
 70
     0
280
     1
281
     0
  0
BLOCK_RECORD
  5
23
330
1
100
AcDbSymbolTableRecord
100
AcDbBlockTableRecord
  2
*Paper_Space0
340
26
 70
     0
280
     1
281
     0
  0
ENDTAB
  0
ENDSEC
  0
SECTION
  2
BLOCKS
  0
BLOCK
  5
20
330
1F
100
AcDbEntity
  8
0
100
AcDbBlockBegin
  2
*Model_Space
 70
     0
 10
0.0
 20
0.0
 30
0.0
  3
*Model_Space
  1

  0
ENDBLK
  5
21
330
1F
100
AcDbEntity
  8
0
100
AcDbBlockEnd
  0
BLOCK
  5
1C
330
1B
100
AcDbEntity
 67
     1
  8
0
100
AcDbBlockBegin
  2
*Paper_Space
 70
     0
 10
0.0
 20
0.0
 30
0.0
  3
*Paper_Space
  1

  0
ENDBLK
  5
1D
330
1B
100
AcDbEntity
 67
     1
  8
0
100
AcDbBlockEnd
  0
BLOCK
  5
24
330
23
100
AcDbEntity
  8
0
100
AcDbBlockBegin
  2
*Paper_Space0
 70
     0
 10
0.0
 20
0.0
 30
0.0
  3
*Paper_Space0
  1

  0
ENDBLK
  5
25
330
23
100
AcDbEntity
  8
0
100
AcDbBlockEnd
  0
ENDSEC
  0
SECTION
  2
ENTITIES
  0
SPLINE
  5
41
330
1F
100
AcDbEntity
  8
Layer 1
370
     9
100
AcDbSpline
210
0.0
220
0.0
230
1.0
 70
    11
 71
     3
 72
   100
 73
    96
 74
     0
 42
0.0000000001
 43
0.0000000001
 40
0.0
 40
0.0
 40
0.0
 40
0.0
 40
0.04
 40
0.04
 40
0.04
 40
0.04
 40
0.08
 40
0.08
 40
0.08
 40
0.08
 40
0.12
 40
0.12
 40
0.12
 40
0.12
 40
0.16
 40
0.16
 40
0.16
 40
0.16
 40
0.2
 40
0.2
 40
0.2
 40
0.2
 40
0.24
 40
0.24
 40
0.24
 40
0.24
 40
0.28
 40
0.28
 40
0.28
 40
0.28
 40
0.32
 40
0.32
 40
0.32
 40
0.32
 40
0.36
 40
0.36
 40
0.36
 40
0.36
 40
0.4
 40
0.4
 40
0.4
 40
0.4
 40
0.44
 40
0.44
 40
0.44
 40
0.44
 40
0.48
 40
0.48
 40
0.48
 40
0.48
 40
0.52
 40
0.52
 40
0.52
 40
0.52
 40
0.56
 40
0.56
 40
0.56
 40
0.56
 40
0.6
 40
0.6
 40
0.6
 40
0.6
 40
0.64
 40
0.64
 40
0.64
 40
0.64
 40
0.68
 40
0.68
 40
0.68
 40
0.68
 40
0.72
 40
0.72
 40
0.72
 40
0.72
 40
0.76
 40
0.76
 40
0.76
 40
0.76
 40
0.8
 40
0.8
 40
0.8
 40
0.8
 40
0.84
 40
0.84
 40
0.84
 40
0.84
 40
0.88
 40
0.88
 40
0.88
 40
0.88
 40
0.92
 40
0.92
 40
0.92
 40
0.92
 40
1.0
 40
1.0
 40
1.0
 40
1.0
 10
-120.9787
 20
-61.2683
 30
0.0
 10
-120.9787
 20
-61.2683
 30
0.0
 10
-109.7628
 20
-54.7931
 30
0.0
 10
-109.7628
 20
-54.7931
 30
0.0
 10
-109.7628
 20
-54.7931
 30
0.0
 10
-109.7628
 20
-54.7931
 30
0.0
 10
-116.7958
 20
-42.611
 30
0.0
 10
-116.7958
 20
-42.611
 30
0.0
 10
-116.7958
 20
-42.611
 30
0.0
 10
-116.7958
 20
-42.611
 30
0.0
 10
-62.9834
 20
-11.5425
 30
0.0
 10
-62.9834
 20
-11.5425
 30
0.0
 10
-62.9834
 20
-11.5425
 30
0.0
 10
-62.9834
 20
-11.5425
 30
0.0
 10
-53.2337
 20
-28.4289
 30
0.0
 10
-53.2337
 20
-28.4289
 30
0.0
 10
-53.2337
 20
-28.4289
 30
0.0
 10
-53.2337
 20
-28.4289
 30
0.0
 10
28.4301
 20
18.7195
 30
0.0
 10
28.4301
 20
18.7195
 30
0.0
 10
28.4301
 20
18.7195
 30
0.0
 10
28.4301
 20
18.7195
 30
0.0
 10
16.6431
 20
39.1354
 30
0.0
 10
16.6431
 20
39.1354
 30
0.0
 10
16.6431
 20
39.1354
 30
0.0
 10
16.6431
 20
39.1354
 30
0.0
 10
35.7993
 20
50.195
 30
0.0
 10
35.7993
 20
50.195
 30
0.0
 10
35.7993
 20
50.195
 30
0.0
 10
35.7993
 20
50.195
 30
0.0
 10
-16.8799
 20
141.4378
 30
0.0
 10
-16.8799
 20
141.4378
 30
0.0
 10
-16.8799
 20
141.4378
 30
0.0
 10
-16.8799
 20
141.4378
 30
0.0
 10
-36.0358
 20
130.3782
 30
0.0
 10
-36.0358
 20
130.3782
 30
0.0
 10
-36.0358
 20
130.3782
 30
0.0
 10
-36.0358
 20
130.3782
 30
0.0
 10
-47.8228
 20
150.7938
 30
0.0
 10
-47.8228
 20
150.7938
 30
0.0
 10
-47.8228
 20
150.7938
 30
0.0
 10
-47.8228
 20
150.7938
 30
0.0
 10
-129.4866
 20
103.6451
 30
0.0
 10
-129.4866
 20
103.6451
 30
0.0
 10
-129.4866
 20
103.6451
 30
0.0
 10
-129.4866
 20
103.6451
 30
0.0
 10
-119.7365
 20
86.7579
 30
0.0
 10
-119.7365
 20
86.7579
 30
0.0
 10
-119.7365
 20
86.7579
 30
0.0
 10
-119.7365
 20
86.7579
 30
0.0
 10
-173.5493
 20
55.6888
 30
0.0
 10
-173.5493
 20
55.6888
 30
0.0
 10
-173.5493
 20
55.6888
 30
0.0
 10
-173.5493
 20
55.6888
 30
0.0
 10
-180.5829
 20
67.8709
 30
0.0
 10
-180.5829
 20
67.8709
 30
0.0
 10
-180.5829
 20
67.8709
 30
0.0
 10
-180.5829
 20
67.8709
 30
0.0
 10
-191.7988
 20
61.3957
 30
0.0
 10
-191.7988
 20
61.3957
 30
0.0
 10
-191.7988
 20
61.3957
 30
0.0
 10
-191.7988
 20
61.3957
 30
0.0
 10
-203.8289
 20
82.2322
 30
0.0
 10
-203.8289
 20
82.2322
 30
0.0
 10
-203.8289
 20
82.2322
 30
0.0
 10
-203.8289
 20
82.2322
 30
0.0
 10
-302.1283
 20
25.479
 30
0.0
 10
-302.1283
 20
25.479
 30
0.0
 10
-302.1283
 20
25.479
 30
0.0
 10
-302.1283
 20
25.479
 30
0.0
 10
-285.6839
 20
-3.0028
 30
0.0
 10
-285.6839
 20
-3.0028
 30
0.0
 10
-285.6839
 20
-3.0028
 30
0.0
 10
-285.6839
 20
-3.0028
 30
0.0
 10
-300.8071
 20
-11.7341
 30
0.0
 10
-300.8071
 20
-11.7341
 30
0.0
 10
-300.8071
 20
-11.7341
 30
0.0
 10
-300.8071
 20
-11.7341
 30
0.0
 10
-238.8149
 20
-119.1076
 30
0.0
 10
-238.8149
 20
-119.1076
 30
0.0
 10
-238.8149
 20
-119.1076
 30
0.0
 10
-238.8149
 20
-119.1076
 30
0.0
 10
-223.692
 20
-110.3764
 30
0.0
 10
-223.692
 20
-110.3764
 30
0.0
 10
-223.692
 20
-110.3764
 30
0.0
 10
-223.692
 20
-110.3764
 30
0.0
 10
-207.248
 20
-138.8579
 30
0.0
 10
-207.248
 20
-138.8579
 30
0.0
 10
-207.248
 20
-138.8579
 30
0.0
 10
-207.248
 20
-138.8579
 30
0.0
 10
-108.9486
 20
-82.1048
 30
0.0
 10
-108.9486
 20
-82.1048
 30
0.0
 10
-108.9486
 20
-82.1048
 30
0.0
 10
-108.9486
 20
-82.1048
 30
0.0
 10
-120.9787
 20
-61.2683
 30
0.0
 10
-120.9787
 20
-61.2683
 30
0.0
  0
SPLINE
  5
42
330
1F
100
AcDbEntity
  8
Layer 1
 62
   250
370
     9
100
AcDbSpline
210
0.0
220
0.0
230
1.0
 70
     8
 71
     3
 72
    16
 73
    12
 74
     0
 42
0.0000000001
 43
0.0000000001
 40
0.0
 40
0.0
 40
0.0
 40
0.0
 40
0.25
 40
0.25
 40
0.25
 40
0.25
 40
0.5
 40
0.5
 40
0.5
 40
0.5
 40
1.0
 40
1.0
 40
1.0
 40
1.0
 10
-26.4132
 20
135.9337
 30
0.0
 10
-26.4132
 20
135.9337
 30
0.0
 10
-24.0637
 20
131.8642
 30
0.0
 10
-24.0637
 20
131.8642
 30
0.0
 10
-24.0637
 20
131.8642
 30
0.0
 10
-24.0637
 20
131.8642
 30
0.0
 10
-28.1332
 20
129.5147
 30
0.0
 10
-28.1332
 20
129.5147
 30
0.0
 10
-28.1332
 20
129.5147
 30
0.0
 10
-28.1332
 20
129.5147
 30
0.0
 10
-30.4827
 20
133.5842
 30
0.0
 10
-30.4827
 20
133.5842
 30
0.0
  0
SPLINE
  5
43
330
1F
100
AcDbEntity
  8
Layer 1
 62
   250
370
     9
100
AcDbSpline
210
0.0
220
0.0
230
1.0
 70
     8
 71
     3
 72
    16
 73
    12
 74
     0
 42
0.0000000001
 43
0.0000000001
 40
0.0
 40
0.0
 40
0.0
 40
0.0
 40
0.25
 40
0.25
 40
0.25
 40
0.25
 40
0.5
 40
0.5
 40
0.5
 40
0.5
 40
1.0
 40
1.0
 40
1.0
 40
1.0
 10
10.6345
 20
93.7816
 30
0.0
 10
10.6345
 20
93.7816
 30
0.0
 10
6.565
 20
91.4321
 30
0.0
 10
6.565
 20
91.4321
 30
0.0
 10
6.565
 20
91.4321
 30
0.0
 10
6.565
 20
91.4321
 30
0.0
 10
4.2155
 20
95.5016
 30
0.0
 10
4.2155
 20
95.5016
 30
0.0
 10
4.2155
 20
95.5016
 30
0.0
 10
4.2155
 20
95.5016
 30
0.0
 10
8.285
 20
97.8511
 30
0.0
 10
8.285
 20
97.8511
 30
0.0
  0
SPLINE
  5
44
330
1F
100
AcDbEntity
  8
Layer 1
 62
   250
370
     9
100
AcDbSpline
210
0.0
220
0.0
230
1.0
 70
     8
 71
     3
 72
    16
 73
    12
 74
     0
 42
0.0000000001
 43
0.0000000001
 40
0.0
 40
0.0
 40
0.0
 40
0.0
 40
0.25
 40
0.25
 40
0.25
 40
0.25
 40
0.5
 40
0.5
 40
0.5
 40
0.5
 40
1.0
 40
1.0
 40
1.0
 40
1.0
 10
-38.3808
 20
134.4396
 30
0.0
 10
-38.3808
 20
134.4396
 30
0.0
 10
-42.4502
 20
132.0901
 30
0.0
 10
-42.4502
 20
132.0901
 30
0.0
 10
-42.4502
 20
132.0901
 30
0.0
 10
-42.4502
 20
132.0901
 30
0.0
 10
-44.7997
 20
136.1596
 30
0.0
 10
-44.7997
 20
136.1596
 30
0.0
 10
-44.7997
 20
136.1596
 30
0.0
 10
-44.7997
 20
136.1596
 30
0.0
 10
-40.7303
 20
138.5091
 30
0.0
 10
-40.7303
 20
138.5091
 30
0.0
  0
SPLINE
  5
45
330
1F
100
AcDbEntity
  8
Layer 1
 62
   250
370
     9
100
AcDbSpline
210
0.0
220
0.0
230
1.0
 70
     8
 71
     3
 72
    16
 73
    12
 74
     0
 42
0.0000000001
 43
0.0000000001
 40
0.0
 40
0.0
 40
0.0
 40
0.0
 40
0.25
 40
0.25
 40
0.25
 40
0.25
 40
0.5
 40
0.5
 40
0.5
 40
0.5
 40
1.0
 40
1.0
 40
1.0
 40
1.0
 10
-86.5592
 20
128.4292
 30
0.0
 10
-86.5592
 20
128.4292
 30
0.0
 10
-84.2097
 20
124.3597
 30
0.0
 10
-84.2097
 20
124.3597
 30
0.0
 10
-84.2097
 20
124.3597
 30
0.0
 10
-84.2097
 20
124.3597
 30
0.0
 10
-88.2791
 20
122.0102
 30
0.0
 10
-88.2791
 20
122.0102
 30
0.0
 10
-88.2791
 20
122.0102
 30
0.0
 10
-88.2791
 20
122.0102
 30
0.0
 10
-90.6286
 20
126.0797
 30
0.0
 10
-90.6286
 20
126.0797
 30
0.0
  0
SPLINE
  5
46
330
1F
100
AcDbEntity
  8
Layer 1
 62
   250
370
     9
100
AcDbSpline
210
0.0
220
0.0
230
1.0
 70
     8
 71
     3
 72
    16
 73
    12
 74
     0
 42
0.0000000001
 43
0.0000000001
 40
0.0
 40
0.0
 40
0.0
 40
0.0
 40
0.25
 40
0.25
 40
0.25
 40
0.25
 40
0.5
 40
0.5
 40
0.5
 40
0.5
 40
1.0
 40
1.0
 40
1.0
 40
1.0
 10
-144.6081
 20
72.398
 30
0.0
 10
-144.6081
 20
72.398
 30
0.0
 10
-142.2586
 20
68.3285
 30
0.0
 10
-142.2586
 20
68.3285
 30
0.0
 10
-142.2586
 20
68.3285
 30
0.0
 10
-142.2586
 20
68.3285
 30
0.0
 10
-146.328
 20
65.979
 30
0.0
 10
-146.328
 20
65.979
 30
0.0
 10
-146.328
 20
65.979
 30
0.0
 10
-146.328
 20
65.979
 30
0.0
 10
-148.6775
 20
70.0485
 30
0.0
 10
-148.6775
 20
70.0485
 30
0.0
  0
SPLINE
  5
47
330
1F
100
AcDbEntity
  8
Layer 1
 62
   250
370
     9
100
AcDbSpline
210
0.0
220
0.0
230
1.0
 70
     8
 71
     3
 72
    16
 73
    12
 74
     0
 42
0.0000000001
 43
0.0000000001
 40
0.0
 40
0.0
 40
0.0
 40
0.0
 40
0.25
 40
0.25
 40
0.25
 40
0.25
 40
0.5
 40
0.5
 40
0.5
 40
0.5
 40
1.0
 40
1.0
 40
1.0
 40
1.0
 10
-60.4577
 20
-15.9167
 30
0.0
 10
-60.4577
 20
-15.9167
 30
0.0
 10
-56.3883
 20
-13.5672
 30
0.0
 10
-56.3883
 20
-13.5672
 30
0.0
 10
-56.3883
 20
-13.5672
 30
0.0
 10
-56.3883
 20
-13.5672
 30
0.0
 10
-54.0388
 20
-17.6366
 30
0.0
 10
-54.0388
 20
-17.6366
 30
0.0
 10
-54.0388
 20
-17.6366
 30
0.0
 10
-54.0388
 20
-17.6366
 30
0.0
 10
-58.1082
 20
-19.9861
 30
0.0
 10
-58.1082
 20
-19.9861
 30
0.0
  0
SPLINE
  5
48
330
1F
100
AcDbEntity
  8
Layer 1
 62
   250
370
     9
100
AcDbSpline
210
0.0
220
0.0
230
1.0
 70
     8
 71
     3
 72
    16
 73
    12
 74
     0
 42
0.0000000001
 43
0.0000000001
 40
0.0
 40
0.0
 40
0.0
 40
0.0
 40
0.25
 40
0.25
 40
0.25
 40
0.25
 40
0.5
 40
0.5
 40
0.5
 40
0.5
 40
1.0
 40
1.0
 40
1.0
 40
1.0
 10
-91.9457
 20
-28.2682
 30
0.0
 10
-91.9457
 20
-28.2682
 30
0.0
 10
-94.2952
 20
-24.1988
 30
0.0
 10
-94.2952
 20
-24.1988
 30
0.0
 10
-94.2952
 20
-24.1988
 30
0.0
 10
-94.2952
 20
-24.1988
 30
0.0
 10
-90.2258
 20
-21.8493
 30
0.0
 10
-90.2258
 20
-21.8493
 30
0.0
 10
-90.2258
 20
-21.8493
 30
0.0
 10
-90.2258
 20
-21.8493
 30
0.0
 10
-87.8763
 20
-25.9187
 30
0.0
 10
-87.8763
 20
-25.9187
 30
0.0
  0
SPLINE
  5
49
330
1F
100
AcDbEntity
  8
Layer 1
 62
   250
370
     9
100
AcDbSpline
210
0.0
220
0.0
230
1.0
 70
     8
 71
     3
 72
    16
 73
    12
 74
     0
 42
0.0000000001
 43
0.0000000001
 40
0.0
 40
0.0
 40
0.0
 40
0.0
 40
0.25
 40
0.25
 40
0.25
 40
0.25
 40
0.5
 40
0.5
 40
0.5
 40
0.5
 40
1.0
 40
1.0
 40
1.0
 40
1.0
 10
-159.9725
 20
-111.5651
 30
0.0
 10
-159.9725
 20
-111.5651
 30
0.0
 10
-162.322
 20
-107.4956
 30
0.0
 10
-162.322
 20
-107.4956
 30
0.0
 10
-162.322
 20
-107.4956
 30
0.0
 10
-162.322
 20
-107.4956
 30
0.0
 10
-158.2525
 20
-105.1461
 30
0.0
 10
-158.2525
 20
-105.1461
 30
0.0
 10
-158.2525
 20
-105.1461
 30
0.0
 10
-158.2525
 20
-105.1461
 30
0.0
 10
-155.903
 20
-109.2156
 30
0.0
 10
-155.903
 20
-109.2156
 30
0.0
  0
SPLINE
  5
4A
330
1F
100
AcDbEntity
  8
Layer 1
 62
   250
370
     9
100
AcDbSpline
210
0.0
220
0.0
230
1.0
 70
     8
 71
     3
 72
    16
 73
    12
 74
     0
 42
0.0000000001
 43
0.0000000001
 40
0.0
 40
0.0
 40
0.0
 40
0.0
 40
0.25
 40
0.25
 40
0.25
 40
0.25
 40
0.5
 40
0.5
 40
0.5
 40
0.5
 40
1.0
 40
1.0
 40
1.0
 40
1.0
 10
-270.9857
 20
-63.3861
 30
0.0
 10
-270.9857
 20
-63.3861
 30
0.0
 10
-266.9162
 20
-61.0366
 30
0.0
 10
-266.9162
 20
-61.0366
 30
0.0
 10
-266.9162
 20
-61.0366
 30
0.0
 10
-266.9162
 20
-61.0366
 30
0.0
 10
-264.5667
 20
-65.1061
 30
0.0
 10
-264.5667
 20
-65.1061
 30
0.0
 10
-264.5667
 20
-65.1061
 30
0.0
 10
-264.5667
 20
-65.1061
 30
0.0
 10
-268.6362
 20
-67.4556
 30
0.0
 10
-268.6362
 20
-67.4556
 30
0.0
  0
SPLINE
  5
4B
330
1F
100
AcDbEntity
  8
Layer 1
 62
   250
370
     9
100
AcDbSpline
210
0.0
220
0.0
230
1.0
 70
     8
 71
     3
 72
    16
 73
    12
 74
     0
 42
0.0000000001
 43
0.0000000001
 40
0.0
 40
0.0
 40
0.0
 40
0.0
 40
0.25
 40
0.25
 40
0.25
 40
0.25
 40
0.5
 40
0.5
 40
0.5
 40
0.5
 40
1.0
 40
1.0
 40
1.0
 40
1.0
 10
-289.0907
 20
-4.9698
 30
0.0
 10
-289.0907
 20
-4.9698
 30
0.0
 10
-286.7412
 20
-9.0392
 30
0.0
 10
-286.7412
 20
-9.0392
 30
0.0
 10
-286.7412
 20
-9.0392
 30
0.0
 10
-286.7412
 20
-9.0392
 30
0.0
 10
-290.8106
 20
-11.3887
 30
0.0
 10
-290.8106
 20
-11.3887
 30
0.0
 10
-290.8106
 20
-11.3887
 30
0.0
 10
-290.8106
 20
-11.3887
 30
0.0
 10
-293.1601
 20
-7.3193
 30
0.0
 10
-293.1601
 20
-7.3193
 30
0.0
  0
SPLINE
  5
4C
330
1F
100
AcDbEntity
  8
Layer 1
 62
   250
370
     9
100
AcDbSpline
210
0.0
220
0.0
230
1.0
 70
     8
 71
     3
 72
    16
 73
    12
 74
     0
 42
0.0000000001
 43
0.0000000001
 40
0.0
 40
0.0
 40
0.0
 40
0.0
 40
0.25
 40
0.25
 40
0.25
 40
0.25
 40
0.5
 40
0.5
 40
0.5
 40
0.5
 40
1.0
 40
1.0
 40
1.0
 40
1.0
 10
-296.2554
 20
15.3077
 30
0.0
 10
-296.2554
 20
15.3077
 30
0.0
 10
-292.1859
 20
17.6572
 30
0.0
 10
-292.1859
 20
17.6572
 30
0.0
 10
-292.1859
 20
17.6572
 30
0.0
 10
-292.1859
 20
17.6572
 30
0.0
 10
-289.8364
 20
13.5877
 30
0.0
 10
-289.8364
 20
13.5877
 30
0.0
 10
-289.8364
 20
13.5877
 30
0.0
 10
-289.8364
 20
13.5877
 30
0.0
 10
-293.9059
 20
11.2382
 30
0.0
 10
-293.9059
 20
11.2382
 30
0.0
  0
SPLINE
  5
4D
330
1F
100
AcDbEntity
  8
Layer 1
 62
   250
370
     9
100
AcDbSpline
210
0.0
220
0.0
230
1.0
 70
     8
 71
     3
 72
    16
 73
    12
 74
     0
 42
0.0000000001
 43
0.0000000001
 40
0.0
 40
0.0
 40
0.0
 40
0.0
 40
0.25
 40
0.25
 40
0.25
 40
0.25
 40
0.5
 40
0.5
 40
0.5
 40
0.5
 40
1.0
 40
1.0
 40
1.0
 40
1.0
 10
-195.4643
 20
67.7445
 30
0.0
 10
-195.4643
 20
67.7445
 30
0.0
 10
-199.5338
 20
65.395
 30
0.0
 10
-199.5338
 20
65.395
 30
0.0
 10
-199.5338
 20
65.395
 30
0.0
 10
-199.5338
 20
65.395
 30
0.0
 10
-201.8833
 20
69.4645
 30
0.0
 10
-201.8833
 20
69.4645
 30
0.0
 10
-201.8833
 20
69.4645
 30
0.0
 10
-201.8833
 20
69.4645
 30
0.0
 10
-197.8138
 20
71.814
 30
0.0
 10
-197.8138
 20
71.814
 30
0.0
  0
SPLINE
  5
4E
330
1F
100
AcDbEntity
  8
Layer 1
 62
   250
370
     9
100
AcDbSpline
210
0.0
220
0.0
230
1.0
 70
     8
 71
     3
 72
    16
 73
    12
 74
     0
 42
0.0000000001
 43
0.0000000001
 40
0.0
 40
0.0
 40
0.0
 40
0.0
 40
0.25
 40
0.25
 40
0.25
 40
0.25
 40
0.5
 40
0.5
 40
0.5
 40
0.5
 40
1.0
 40
1.0
 40
1.0
 40
1.0
 10
-186.1906
 20
64.6333
 30
0.0
 10
-186.1906
 20
64.6333
 30
0.0
 10
-183.8411
 20
60.5639
 30
0.0
 10
-183.8411
 20
60.5639
 30
0.0
 10
-183.8411
 20
60.5639
 30
0.0
 10
-183.8411
 20
60.5639
 30
0.0
 10
-187.9106
 20
58.2144
 30
0.0
 10
-187.9106
 20
58.2144
 30
0.0
 10
-187.9106
 20
58.2144
 30
0.0
 10
-187.9106
 20
58.2144
 30
0.0
 10
-190.2601
 20
62.2838
 30
0.0
 10
-190.2601
 20
62.2838
 30
0.0
  0
SPLINE
  5
4F
330
1F
100
AcDbEntity
  8
Layer 1
 62
   250
370
     9
100
AcDbSpline
210
0.0
220
0.0
230
1.0
 70
     8
 71
     3
 72
    16
 73
    12
 74
     0
 42
0.0000000001
 43
0.0000000001
 40
0.0
 40
0.0
 40
0.0
 40
0.0
 40
0.25
 40
0.25
 40
0.25
 40
0.25
 40
0.5
 40
0.5
 40
0.5
 40
0.5
 40
1.0
 40
1.0
 40
1.0
 40
1.0
 10
-175.8928
 20
59.747
 30
0.0
 10
-175.8928
 20
59.747
 30
0.0
 10
-179.9622
 20
57.3975
 30
0.0
 10
-179.9622
 20
57.3975
 30
0.0
 10
-179.9622
 20
57.3975
 30
0.0
 10
-179.9622
 20
57.3975
 30
0.0
 10
-182.3117
 20
61.467
 30
0.0
 10
-182.3117
 20
61.467
 30
0.0
 10
-182.3117
 20
61.467
 30
0.0
 10
-182.3117
 20
61.467
 30
0.0
 10
-178.2423
 20
63.8165
 30
0.0
 10
-178.2423
 20
63.8165
 30
0.0
  0
SPLINE
  5
50
330
1F
100
AcDbEntity
  8
Layer 1
 62
   250
370
     9
100
AcDbSpline
210
0.0
220
0.0
230
1.0
 70
     8
 71
     3
 72
    16
 73
    12
 74
     0
 42
0.0000000001
 43
0.0000000001
 40
0.0
 40
0.0
 40
0.0
 40
0.0
 40
0.25
 40
0.25
 40
0.25
 40
0.25
 40
0.5
 40
0.5
 40
0.5
 40
0.5
 40
1.0
 40
1.0
 40
1.0
 40
1.0
 10
22.1518
 20
42.3157
 30
0.0
 10
22.1518
 20
42.3157
 30
0.0
 10
19.8023
 20
46.3851
 30
0.0
 10
19.8023
 20
46.3851
 30
0.0
 10
19.8023
 20
46.3851
 30
0.0
 10
19.8023
 20
46.3851
 30
0.0
 10
23.8717
 20
48.7346
 30
0.0
 10
23.8717
 20
48.7346
 30
0.0
 10
23.8717
 20
48.7346
 30
0.0
 10
23.8717
 20
48.7346
 30
0.0
 10
26.2212
 20
44.6652
 30
0.0
 10
26.2212
 20
44.6652
 30
0.0
  0
SPLINE
  5
51
330
1F
100
AcDbEntity
  8
Layer 1
 62
   250
370
     9
100
AcDbSpline
210
0.0
220
0.0
230
1.0
 70
     8
 71
     3
 72
    16
 73
    12
 74
     0
 42
0.0000000001
 43
0.0000000001
 40
0.0
 40
0.0
 40
0.0
 40
0.0
 40
0.25
 40
0.25
 40
0.25
 40
0.25
 40
0.5
 40
0.5
 40
0.5
 40
0.5
 40
1.0
 40
1.0
 40
1.0
 40
1.0
 10
21.3374
 20
31.0042
 30
0.0
 10
21.3374
 20
31.0042
 30
0.0
 10
17.2679
 20
28.6547
 30
0.0
 10
17.2679
 20
28.6547
 30
0.0
 10
17.2679
 20
28.6547
 30
0.0
 10
17.2679
 20
28.6547
 30
0.0
 10
14.9184
 20
32.7241
 30
0.0
 10
14.9184
 20
32.7241
 30
0.0
 10
14.9184
 20
32.7241
 30
0.0
 10
14.9184
 20
32.7241
 30
0.0
 10
18.9879
 20
35.0736
 30
0.0
 10
18.9879
 20
35.0736
 30
0.0
  0
SPLINE
  5
52
330
1F
100
AcDbEntity
  8
Layer 1
 62
   250
370
     9
100
AcDbSpline
210
0.0
220
0.0
230
1.0
 70
     8
 71
     3
 72
    16
 73
    12
 74
     0
 42
0.0000000001
 43
0.0000000001
 40
0.0
 40
0.0
 40
0.0
 40
0.0
 40
0.25
 40
0.25
 40
0.25
 40
0.25
 40
0.5
 40
0.5
 40
0.5
 40
0.5
 40
1.0
 40
1.0
 40
1.0
 40
1.0
 10
-14.3757
 20
-5.9943
 30
0.0
 10
-14.3757
 20
-5.9943
 30
0.0
 10
-16.7252
 20
-1.9248
 30
0.0
 10
-16.7252
 20
-1.9248
 30
0.0
 10
-16.7252
 20
-1.9248
 30
0.0
 10
-16.7252
 20
-1.9248
 30
0.0
 10
-12.6557
 20
0.4247
 30
0.0
 10
-12.6557
 20
0.4247
 30
0.0
 10
-12.6557
 20
0.4247
 30
0.0
 10
-12.6557
 20
0.4247
 30
0.0
 10
-10.3062
 20
-3.6448
 30
0.0
 10
-10.3062
 20
-3.6448
 30
0.0
  0
SPLINE
  5
53
330
1F
100
AcDbEntity
  8
Layer 1
 62
   250
370
     9
100
AcDbSpline
210
0.0
220
0.0
230
1.0
 70
     8
 71
     3
 72
    16
 73
    12
 74
     0
 42
0.0000000001
 43
0.0000000001
 40
0.0
 40
0.0
 40
0.0
 40
0.0
 40
0.25
 40
0.25
 40
0.25
 40
0.25
 40
0.5
 40
0.5
 40
0.5
 40
0.5
 40
1.0
 40
1.0
 40
1.0
 40
1.0
 10
-112.1033
 20
-50.739
 30
0.0
 10
-112.1033
 20
-50.739
 30
0.0
 10
-116.1727
 20
-53.0885
 30
0.0
 10
-116.1727
 20
-53.0885
 30
0.0
 10
-116.1727
 20
-53.0885
 30
0.0
 10
-116.1727
 20
-53.0885
 30
0.0
 10
-118.5222
 20
-49.0191
 30
0.0
 10
-118.5222
 20
-49.0191
 30
0.0
 10
-118.5222
 20
-49.0191
 30
0.0
 10
-118.5222
 20
-49.0191
 30
0.0
 10
-114.4528
 20
-46.6696
 30
0.0
 10
-114.4528
 20
-46.6696
 30
0.0
  0
SPLINE
  5
54
330
1F
100
AcDbEntity
  8
Layer 1
 62
   250
370
     9
100
AcDbSpline
210
0.0
220
0.0
230
1.0
 70
     8
 71
     3
 72
    16
 73
    12
 74
     0
 42
0.0000000001
 43
0.0000000001
 40
0.0
 40
0.0
 40
0.0
 40
0.0
 40
0.25
 40
0.25
 40
0.25
 40
0.25
 40
0.5
 40
0.5
 40
0.5
 40
0.5
 40
1.0
 40
1.0
 40
1.0
 40
1.0
 10
-119.4401
 20
-60.3801
 30
0.0
 10
-119.4401
 20
-60.3801
 30
0.0
 10
-121.7896
 20
-56.3106
 30
0.0
 10
-121.7896
 20
-56.3106
 30
0.0
 10
-121.7896
 20
-56.3106
 30
0.0
 10
-121.7896
 20
-56.3106
 30
0.0
 10
-117.7201
 20
-53.9611
 30
0.0
 10
-117.7201
 20
-53.9611
 30
0.0
 10
-117.7201
 20
-53.9611
 30
0.0
 10
-117.7201
 20
-53.9611
 30
0.0
 10
-115.3706
 20
-58.0306
 30
0.0
 10
-115.3706
 20
-58.0306
 30
0.0
  0
SPLINE
  5
55
330
1F
100
AcDbEntity
  8
Layer 1
 62
   250
370
     9
100
AcDbSpline
210
0.0
220
0.0
230
1.0
 70
     8
 71
     3
 72
    16
 73
    12
 74
     0
 42
0.0000000001
 43
0.0000000001
 40
0.0
 40
0.0
 40
0.0
 40
0.0
 40
0.25
 40
0.25
 40
0.25
 40
0.25
 40
0.5
 40
0.5
 40
0.5
 40
0.5
 40
1.0
 40
1.0
 40
1.0
 40
1.0
 10
-114.9638
 20
-71.6867
 30
0.0
 10
-114.9638
 20
-71.6867
 30
0.0
 10
-119.0332
 20
-74.0362
 30
0.0
 10
-119.0332
 20
-74.0362
 30
0.0
 10
-119.0332
 20
-74.0362
 30
0.0
 10
-119.0332
 20
-74.0362
 30
0.0
 10
-121.3827
 20
-69.9667
 30
0.0
 10
-121.3827
 20
-69.9667
 30
0.0
 10
-121.3827
 20
-69.9667
 30
0.0
 10
-121.3827
 20
-69.9667
 30
0.0
 10
-117.3133
 20
-67.6172
 30
0.0
 10
-117.3133
 20
-67.6172
 30
0.0
  0
SPLINE
  5
56
330
1F
100
AcDbEntity
  8
Layer 1
 62
   250
370
     9
100
AcDbSpline
210
0.0
220
0.0
230
1.0
 70
     8
 71
     3
 72
    16
 73
    12
 74
     0
 42
0.0000000001
 43
0.0000000001
 40
0.0
 40
0.0
 40
0.0
 40
0.0
 40
0.25
 40
0.25
 40
0.25
 40
0.25
 40
0.5
 40
0.5
 40
0.5
 40
0.5
 40
1.0
 40
1.0
 40
1.0
 40
1.0
 10
-215.4699
 20
-124.6174
 30
0.0
 10
-215.4699
 20
-124.6174
 30
0.0
 10
-211.4005
 20
-122.2679
 30
0.0
 10
-211.4005
 20
-122.2679
 30
0.0
 10
-211.4005
 20
-122.2679
 30
0.0
 10
-211.4005
 20
-122.2679
 30
0.0
 10
-209.051
 20
-126.3374
 30
0.0
 10
-209.051
 20
-126.3374
 30
0.0
 10
-209.051
 20
-126.3374
 30
0.0
 10
-209.051
 20
-126.3374
 30
0.0
 10
-213.1204
 20
-128.6869
 30
0.0
 10
-213.1204
 20
-128.6869
 30
0.0
  0
SPLINE
  5
57
330
1F
100
AcDbEntity
  8
Layer 1
 62
   250
370
     9
100
AcDbSpline
210
0.0
220
0.0
230
1.0
 70
     8
 71
     3
 72
    16
 73
    12
 74
     0
 42
0.0000000001
 43
0.0000000001
 40
0.0
 40
0.0
 40
0.0
 40
0.0
 40
0.25
 40
0.25
 40
0.25
 40
0.25
 40
0.5
 40
0.5
 40
0.5
 40
0.5
 40
1.0
 40
1.0
 40
1.0
 40
1.0
 10
-231.1846
 20
-114.6641
 30
0.0
 10
-231.1846
 20
-114.6641
 30
0.0
 10
-233.5341
 20
-110.5947
 30
0.0
 10
-233.5341
 20
-110.5947
 30
0.0
 10
-233.5341
 20
-110.5947
 30
0.0
 10
-233.5341
 20
-110.5947
 30
0.0
 10
-229.4646
 20
-108.2452
 30
0.0
 10
-229.4646
 20
-108.2452
 30
0.0
 10
-229.4646
 20
-108.2452
 30
0.0
 10
-229.4646
 20
-108.2452
 30
0.0
 10
-227.1151
 20
-112.3146
 30
0.0
 10
-227.1151
 20
-112.3146
 30
0.0
  0
SPLINE
  5
58
330
1F
100
AcDbEntity
  8
Layer 1
 62
   250
370
     9
100
AcDbSpline
210
0.0
220
0.0
230
1.0
 70
     8
 71
     3
 72
    16
 73
    12
 74
     0
 42
0.0000000001
 43
0.0000000001
 40
0.0
 40
0.0
 40
0.0
 40
0.0
 40
0.25
 40
0.25
 40
0.25
 40
0.25
 40
0.5
 40
0.5
 40
0.5
 40
0.5
 40
1.0
 40
1.0
 40
1.0
 40
1.0
 10
-250.7838
 20
55.1227
 30
0.0
 10
-250.7838
 20
55.1227
 30
0.0
 10
-248.4343
 20
51.0533
 30
0.0
 10
-248.4343
 20
51.0533
 30
0.0
 10
-248.4343
 20
51.0533
 30
0.0
 10
-248.4343
 20
51.0533
 30
0.0
 10
-252.5038
 20
48.7038
 30
0.0
 10
-252.5038
 20
48.7038
 30
0.0
 10
-252.5038
 20
48.7038
 30
0.0
 10
-252.5038
 20
48.7038
 30
0.0
 10
-254.8533
 20
52.7732
 30
0.0
 10
-254.8533
 20
52.7732
 30
0.0
  0
SPLINE
  5
59
330
1F
100
AcDbEntity
  8
Layer 1
 62
   250
370
     9
100
AcDbSpline
210
0.0
220
0.0
230
1.0
 70
     8
 71
     3
 72
    16
 73
    12
 74
     0
 42
0.0000000001
 43
0.0000000001
 40
0.0
 40
0.0
 40
0.0
 40
0.0
 40
0.25
 40
0.25
 40
0.25
 40
0.25
 40
0.5
 40
0.5
 40
0.5
 40
0.5
 40
1.0
 40
1.0
 40
1.0
 40
1.0
 10
-124.6115
 20
95.2015
 30
0.0
 10
-124.6115
 20
95.2015
 30
0.0
 10
-120.542
 20
97.551
 30
0.0
 10
-120.542
 20
97.551
 30
0.0
 10
-120.542
 20
97.551
 30
0.0
 10
-120.542
 20
97.551
 30
0.0
 10
-118.1925
 20
93.4815
 30
0.0
 10
-118.1925
 20
93.4815
 30
0.0
 10
-118.1925
 20
93.4815
 30
0.0
 10
-118.1925
 20
93.4815
 30
0.0
 10
-122.262
 20
91.132
 30
0.0
 10
-122.262
 20
91.132
 30
0.0
  0
SPLINE
  5
5A
330
1F
100
AcDbEntity
  8
Layer 1
 62
   242
370
     9
100
AcDbSpline
210
0.0
220
0.0
230
1.0
 70
    11
 71
     3
 72
    40
 73
    36
 74
     0
 42
0.0000000001
 43
0.0000000001
 40
0.0
 40
0.0
 40
0.0
 40
0.0
 40
0.1
 40
0.1
 40
0.1
 40
0.1
 40
0.2
 40
0.2
 40
0.2
 40
0.2
 40
0.3
 40
0.3
 40
0.3
 40
0.3
 40
0.4
 40
0.4
 40
0.4
 40
0.4
 40
0.5
 40
0.5
 40
0.5
 40
0.5
 40
0.6
 40
0.6
 40
0.6
 40
0.6
 40
0.7
 40
0.7
 40
0.7
 40
0.7
 40
0.8
 40
0.8
 40
0.8
 40
0.8
 40
1.0
 40
1.0
 40
1.0
 40
1.0
 10
3.9063
 20
88.7454
 30
0.0
 10
3.9063
 20
88.7454
 30
0.0
 10
3.2623
 20
88.3736
 30
0.0
 10
3.2623
 20
88.3736
 30
0.0
 10
3.2623
 20
88.3736
 30
0.0
 10
3.2623
 20
88.3736
 30
0.0
 10
0.8916
 20
92.4798
 30
0.0
 10
0.8916
 20
92.4798
 30
0.0
 10
0.8916
 20
92.4798
 30
0.0
 10
0.8218
 20
92.2422
 30
0.0
 10
0.7043
 20
91.9773
 30
0.0
 10
0.5379
 20
91.684
 30
0.0
 10
0.5379
 20
91.684
 30
0.0
 10
0.3703
 20
91.3901
 30
0.0
 10
0.2084
 20
91.1484
 30
0.0
 10
0.0504
 20
90.9594
 30
0.0
 10
0.0504
 20
90.9594
 30
0.0
 10
0.0504
 20
90.9594
 30
0.0
 10
-0.3087
 20
91.5814
 30
0.0
 10
-0.3087
 20
91.5814
 30
0.0
 10
-0.3087
 20
91.5814
 30
0.0
 10
-0.0464
 20
91.9594
 30
0.0
 10
0.1504
 20
92.3467
 30
0.0
 10
0.2815
 20
92.7435
 30
0.0
 10
0.2815
 20
92.7435
 30
0.0
 10
0.4106
 20
93.1406
 30
0.0
 10
0.4678
 20
93.4848
 30
0.0
 10
0.449
 20
93.777
 30
0.0
 10
0.449
 20
93.777
 30
0.0
 10
0.449
 20
93.777
 30
0.0
 10
0.8632
 20
94.0161
 30
0.0
 10
0.8632
 20
94.0161
 30
0.0
 10
0.8632
 20
94.0161
 30
0.0
 10
0.8632
 20
94.0161
 30
0.0
 10
3.9063
 20
88.7454
 30
0.0
 10
3.9063
 20
88.7454
 30
0.0
  0
SPLINE
  5
5B
330
1F
100
AcDbEntity
  8
Layer 1
 62
   242
370
     9
100
AcDbSpline
210
0.0
220
0.0
230
1.0
 70
    11
 71
     3
 72
    92
 73
    88
 74
     0
 42
0.0000000001
 43
0.0000000001
 40
0.0
 40
0.0
 40
0.0
 40
0.0
 40
0.0434782608695652
 40
0.0434782608695652
 40
0.0434782608695652
 40
0.0434782608695652
 40
0.0869565217391304
 40
0.0869565217391304
 40
0.0869565217391304
 40
0.0869565217391304
 40
0.1304347826086956
 40
0.1304347826086956
 40
0.1304347826086956
 40
0.1304347826086956
 40
0.1739130434782609
 40
0.1739130434782609
 40
0.1739130434782609
 40
0.1739130434782609
 40
0.2173913043478261
 40
0.2173913043478261
 40
0.2173913043478261
 40
0.2173913043478261
 40
0.2608695652173913
 40
0.2608695652173913
 40
0.2608695652173913
 40
0.2608695652173913
 40
0.3043478260869565
 40
0.3043478260869565
 40
0.3043478260869565
 40
0.3043478260869565
 40
0.3478260869565217
 40
0.3478260869565217
 40
0.3478260869565217
 40
0.3478260869565217
 40
0.391304347826087
 40
0.391304347826087
 40
0.391304347826087
 40
0.391304347826087
 40
0.4347826086956522
 40
0.4347826086956522
 40
0.4347826086956522
 40
0.4347826086956522
 40
0.4782608695652174
 40
0.4782608695652174
 40
0.4782608695652174
 40
0.4782608695652174
 40
0.5217391304347826
 40
0.5217391304347826
 40
0.5217391304347826
 40
0.5217391304347826
 40
0.5652173913043478
 40
0.5652173913043478
 40
0.5652173913043478
 40
0.5652173913043478
 40
0.6086956521739131
 40
0.6086956521739131
 40
0.6086956521739131
 40
0.6086956521739131
 40
0.6521739130434783
 40
0.6521739130434783
 40
0.6521739130434783
 40
0.6521739130434783
 40
0.6956521739130435
 40
0.6956521739130435
 40
0.6956521739130435
 40
0.6956521739130435
 40
0.7391304347826086
 40
0.7391304347826086
 40
0.7391304347826086
 40
0.7391304347826086
 40
0.782608695652174
 40
0.782608695652174
 40
0.782608695652174
 40
0.782608695652174
 40
0.8260869565217391
 40
0.8260869565217391
 40
0.8260869565217391
 40
0.8260869565217391
 40
0.8695652173913043
 40
0.8695652173913043
 40
0.8695652173913043
 40
0.8695652173913043
 40
0.9130434782608695
 40
0.9130434782608695
 40
0.9130434782608695
 40
0.9130434782608695
 40
1.0
 40
1.0
 40
1.0
 40
1.0
 10
-21.2569
 20
125.5016
 30
0.0
 10
-21.2569
 20
125.5016
 30
0.0
 10
-20.8992
 20
124.8821
 30
0.0
 10
-20.8992
 20
124.8821
 30
0.0
 10
-20.8992
 20
124.8821
 30
0.0
 10
-20.8992
 20
124.8821
 30
0.0
 10
-24.3686
 20
122.879
 30
0.0
 10
-24.3686
 20
122.879
 30
0.0
 10
-24.3686
 20
122.879
 30
0.0
 10
-24.4631
 20
123.0314
 30
0.0
 10
-24.5248
 20
123.1946
 30
0.0
 10
-24.5523
 20
123.3693
 30
0.0
 10
-24.5523
 20
123.3693
 30
0.0
 10
-24.6012
 20
123.6572
 30
0.0
 10
-24.5935
 20
123.9712
 30
0.0
 10
-24.5318
 20
124.3131
 30
0.0
 10
-24.5318
 20
124.3131
 30
0.0
 10
-24.4683
 20
124.6545
 30
0.0
 10
-24.3402
 20
125.082
 30
0.0
 10
-24.1473
 20
125.5943
 30
0.0
 10
-24.1473
 20
125.5943
 30
0.0
 10
-23.8467
 20
126.3918
 30
0.0
 10
-23.6744
 20
126.9851
 30
0.0
 10
-23.632
 20
127.3746
 30
0.0
 10
-23.632
 20
127.3746
 30
0.0
 10
-23.5889
 20
127.7628
 30
0.0
 10
-23.6383
 20
128.0797
 30
0.0
 10
-23.7787
 20
128.3229
 30
0.0
 10
-23.7787
 20
128.3229
 30
0.0
 10
-23.9261
 20
128.5783
 30
0.0
 10
-24.1419
 20
128.7405
 30
0.0
 10
-24.4257
 20
128.8113
 30
0.0
 10
-24.4257
 20
128.8113
 30
0.0
 10
-24.7099
 20
128.8803
 30
0.0
 10
-24.9989
 20
128.8307
 30
0.0
 10
-25.2923
 20
128.6613
 30
0.0
 10
-25.2923
 20
128.6613
 30
0.0
 10
-25.6026
 20
128.4821
 30
0.0
 10
-25.7971
 20
128.246
 30
0.0
 10
-25.8749
 20
127.9517
 30
0.0
 10
-25.8749
 20
127.9517
 30
0.0
 10
-25.9547
 20
127.6581
 30
0.0
 10
-25.8998
 20
127.3459
 30
0.0
 10
-25.7126
 20
127.0157
 30
0.0
 10
-25.7126
 20
127.0157
 30
0.0
 10
-25.7126
 20
127.0157
 30
0.0
 10
-26.4137
 20
126.7005
 30
0.0
 10
-26.4137
 20
126.7005
 30
0.0
 10
-26.4137
 20
126.7005
 30
0.0
 10
-26.6542
 20
127.2216
 30
0.0
 10
-26.7005
 20
127.6968
 30
0.0
 10
-26.5543
 20
128.1266
 30
0.0
 10
-26.5543
 20
128.1266
 30
0.0
 10
-26.4081
 20
128.5565
 30
0.0
 10
-26.0845
 20
128.9159
 30
0.0
 10
-25.5859
 20
129.2038
 30
0.0
 10
-25.5859
 20
129.2038
 30
0.0
 10
-25.0824
 20
129.4945
 30
0.0
 10
-24.6029
 20
129.584
 30
0.0
 10
-24.1487
 20
129.4747
 30
0.0
 10
-24.1487
 20
129.4747
 30
0.0
 10
-23.6926
 20
129.3649
 30
0.0
 10
-23.3463
 20
129.1037
 30
0.0
 10
-23.1079
 20
128.6907
 30
0.0
 10
-23.1079
 20
128.6907
 30
0.0
 10
-22.9865
 20
128.4805
 30
0.0
 10
-22.9101
 20
128.2492
 30
0.0
 10
-22.8797
 20
127.9962
 30
0.0
 10
-22.8797
 20
127.9962
 30
0.0
 10
-22.8481
 20
127.7441
 30
0.0
 10
-22.8676
 20
127.4477
 30
0.0
 10
-22.9377
 20
127.1089
 30
0.0
 10
-22.9377
 20
127.1089
 30
0.0
 10
-23.0071
 20
126.7691
 30
0.0
 10
-23.1605
 20
126.27
 30
0.0
 10
-23.3978
 20
125.6115
 30
0.0
 10
-23.3978
 20
125.6115
 30
0.0
 10
-23.5963
 20
125.0635
 30
0.0
 10
-23.7174
 20
124.7003
 30
0.0
 10
-23.7604
 20
124.5206
 30
0.0
 10
-23.7604
 20
124.5206
 30
0.0
 10
-23.8041
 20
124.3423
 30
0.0
 10
-23.8274
 20
124.174
 30
0.0
 10
-23.8317
 20
124.015
 30
0.0
 10
-23.8317
 20
124.015
 30
0.0
 10
-23.8317
 20
124.015
 30
0.0
 10
-21.2569
 20
125.5016
 30
0.0
 10
-21.2569
 20
125.5016
 30
0.0
  0
SPLINE
  5
5C
330
1F
100
AcDbEntity
  8
Layer 1
 62
   242
370
     9
100
AcDbSpline
210
0.0
220
0.0
230
1.0
 70
    11
 71
     3
 72
   124
 73
   120
 74
     0
 42
0.0000000001
 43
0.0000000001
 40
0.0
 40
0.0
 40
0.0
 40
0.0
 40
0.032258064516129
 40
0.032258064516129
 40
0.032258064516129
 40
0.032258064516129
 40
0.0645161290322581
 40
0.0645161290322581
 40
0.0645161290322581
 40
0.0645161290322581
 40
0.0967741935483871
 40
0.0967741935483871
 40
0.0967741935483871
 40
0.0967741935483871
 40
0.1290322580645161
 40
0.1290322580645161
 40
0.1290322580645161
 40
0.1290322580645161
 40
0.1612903225806452
 40
0.1612903225806452
 40
0.1612903225806452
 40
0.1612903225806452
 40
0.1935483870967742
 40
0.1935483870967742
 40
0.1935483870967742
 40
0.1935483870967742
 40
0.2258064516129032
 40
0.2258064516129032
 40
0.2258064516129032
 40
0.2258064516129032
 40
0.2580645161290323
 40
0.2580645161290323
 40
0.2580645161290323
 40
0.2580645161290323
 40
0.2903225806451613
 40
0.2903225806451613
 40
0.2903225806451613
 40
0.2903225806451613
 40
0.3225806451612903
 40
0.3225806451612903
 40
0.3225806451612903
 40
0.3225806451612903
 40
0.3548387096774194
 40
0.3548387096774194
 40
0.3548387096774194
 40
0.3548387096774194
 40
0.3870967741935484
 40
0.3870967741935484
 40
0.3870967741935484
 40
0.3870967741935484
 40
0.4193548387096774
 40
0.4193548387096774
 40
0.4193548387096774
 40
0.4193548387096774
 40
0.4516129032258064
 40
0.4516129032258064
 40
0.4516129032258064
 40
0.4516129032258064
 40
0.4838709677419355
 40
0.4838709677419355
 40
0.4838709677419355
 40
0.4838709677419355
 40
0.5161290322580645
 40
0.5161290322580645
 40
0.5161290322580645
 40
0.5161290322580645
 40
0.5483870967741935
 40
0.5483870967741935
 40
0.5483870967741935
 40
0.5483870967741935
 40
0.5806451612903226
 40
0.5806451612903226
 40
0.5806451612903226
 40
0.5806451612903226
 40
0.6129032258064516
 40
0.6129032258064516
 40
0.6129032258064516
 40
0.6129032258064516
 40
0.6451612903225806
 40
0.6451612903225806
 40
0.6451612903225806
 40
0.6451612903225806
 40
0.6774193548387096
 40
0.6774193548387096
 40
0.6774193548387096
 40
0.6774193548387096
 40
0.7096774193548387
 40
0.7096774193548387
 40
0.7096774193548387
 40
0.7096774193548387
 40
0.7419354838709677
 40
0.7419354838709677
 40
0.7419354838709677
 40
0.7419354838709677
 40
0.7741935483870968
 40
0.7741935483870968
 40
0.7741935483870968
 40
0.7741935483870968
 40
0.8064516129032258
 40
0.8064516129032258
 40
0.8064516129032258
 40
0.8064516129032258
 40
0.8387096774193549
 40
0.8387096774193549
 40
0.8387096774193549
 40
0.8387096774193549
 40
0.8709677419354839
 40
0.8709677419354839
 40
0.8709677419354839
 40
0.8709677419354839
 40
0.9032258064516129
 40
0.9032258064516129
 40
0.9032258064516129
 40
0.9032258064516129
 40
0.9354838709677419
 40
0.9354838709677419
 40
0.9354838709677419
 40
0.9354838709677419
 40
1.0
 40
1.0
 40
1.0
 40
1.0
 10
-47.8323
 20
130.0571
 30
0.0
 10
-47.8323
 20
130.0571
 30
0.0
 10
-47.2377
 20
130.5145
 30
0.0
 10
-47.2377
 20
130.5145
 30
0.0
 10
-47.2377
 20
130.5145
 30
0.0
 10
-46.9522
 20
130.1921
 30
0.0
 10
-46.6746
 20
130.0021
 30
0.0
 10
-46.4043
 20
129.943
 30
0.0
 10
-46.4043
 20
129.943
 30
0.0
 10
-46.1327
 20
129.8847
 30
0.0
 10
-45.8699
 20
129.929
 30
0.0
 10
-45.6145
 20
130.0764
 30
0.0
 10
-45.6145
 20
130.0764
 30
0.0
 10
-45.3114
 20
130.2514
 30
0.0
 10
-45.1154
 20
130.5047
 30
0.0
 10
-45.0278
 20
130.8356
 30
0.0
 10
-45.0278
 20
130.8356
 30
0.0
 10
-44.9414
 20
131.1657
 30
0.0
 10
-44.9867
 20
131.4867
 30
0.0
 10
-45.1659
 20
131.797
 30
0.0
 10
-45.1659
 20
131.797
 30
0.0
 10
-45.3366
 20
132.0928
 30
0.0
 10
-45.5742
 20
132.2815
 30
0.0
 10
-45.8781
 20
132.3618
 30
0.0
 10
-45.8781
 20
132.3618
 30
0.0
 10
-46.1832
 20
132.4415
 30
0.0
 10
-46.4846
 20
132.3963
 30
0.0
 10
-46.7827
 20
132.2241
 30
0.0
 10
-46.7827
 20
132.2241
 30
0.0
 10
-46.9049
 20
132.1536
 30
0.0
 10
-47.0423
 20
132.0416
 30
0.0
 10
-47.1957
 20
131.8895
 30
0.0
 10
-47.1957
 20
131.8895
 30
0.0
 10
-47.1957
 20
131.8895
 30
0.0
 10
-47.4503
 20
132.4969
 30
0.0
 10
-47.4503
 20
132.4969
 30
0.0
 10
-47.4503
 20
132.4969
 30
0.0
 10
-47.4047
 20
132.5168
 30
0.0
 10
-47.3691
 20
132.5341
 30
0.0
 10
-47.3421
 20
132.5496
 30
0.0
 10
-47.3421
 20
132.5496
 30
0.0
 10
-47.0684
 20
132.7077
 30
0.0
 10
-46.8632
 20
132.9222
 30
0.0
 10
-46.7257
 20
133.1922
 30
0.0
 10
-46.7257
 20
133.1922
 30
0.0
 10
-46.5883
 20
133.4622
 30
0.0
 10
-46.606
 20
133.7469
 30
0.0
 10
-46.7782
 20
134.0452
 30
0.0
 10
-46.7782
 20
134.0452
 30
0.0
 10
-46.9144
 20
134.281
 30
0.0
 10
-47.1086
 20
134.4312
 30
0.0
 10
-47.3576
 20
134.4927
 30
0.0
 10
-47.3576
 20
134.4927
 30
0.0
 10
-47.6073
 20
134.5555
 30
0.0
 10
-47.859
 20
134.5145
 30
0.0
 10
-48.1119
 20
134.3684
 30
0.0
 10
-48.1119
 20
134.3684
 30
0.0
 10
-48.3625
 20
134.2238
 30
0.0
 10
-48.5256
 20
134.0237
 30
0.0
 10
-48.6015
 20
133.7713
 30
0.0
 10
-48.6015
 20
133.7713
 30
0.0
 10
-48.6779
 20
133.517
 30
0.0
 10
-48.6486
 20
133.2179
 30
0.0
 10
-48.5142
 20
132.875
 30
0.0
 10
-48.5142
 20
132.875
 30
0.0
 10
-48.5142
 20
132.875
 30
0.0
 10
-49.2246
 20
132.6181
 30
0.0
 10
-49.2246
 20
132.6181
 30
0.0
 10
-49.2246
 20
132.6181
 30
0.0
 10
-49.3961
 20
133.0958
 30
0.0
 10
-49.4098
 20
133.5343
 30
0.0
 10
-49.268
 20
133.9324
 30
0.0
 10
-49.268
 20
133.9324
 30
0.0
 10
-49.1251
 20
134.331
 30
0.0
 10
-48.8471
 20
134.6511
 30
0.0
 10
-48.4316
 20
134.891
 30
0.0
 10
-48.4316
 20
134.891
 30
0.0
 10
-48.1456
 20
135.0561
 30
0.0
 10
-47.8457
 20
135.1462
 30
0.0
 10
-47.5345
 20
135.163
 30
0.0
 10
-47.5345
 20
135.163
 30
0.0
 10
-47.2224
 20
135.1785
 30
0.0
 10
-46.9412
 20
135.1176
 30
0.0
 10
-46.6901
 20
134.9791
 30
0.0
 10
-46.6901
 20
134.9791
 30
0.0
 10
-46.4403
 20
134.8399
 30
0.0
 10
-46.2457
 20
134.6524
 30
0.0
 10
-46.1074
 20
134.4128
 30
0.0
 10
-46.1074
 20
134.4128
 30
0.0
 10
-45.9769
 20
134.1868
 30
0.0
 10
-45.9187
 20
133.945
 30
0.0
 10
-45.933
 20
133.6875
 30
0.0
 10
-45.933
 20
133.6875
 30
0.0
 10
-45.948
 20
133.4311
 30
0.0
 10
-46.0422
 20
133.1796
 30
0.0
 10
-46.2171
 20
132.932
 30
0.0
 10
-46.2171
 20
132.932
 30
0.0
 10
-45.8657
 20
133.0403
 30
0.0
 10
-45.5389
 20
133.0303
 30
0.0
 10
-45.2361
 20
132.9036
 30
0.0
 10
-45.2361
 20
132.9036
 30
0.0
 10
-44.9351
 20
132.7776
 30
0.0
 10
-44.6866
 20
132.5447
 30
0.0
 10
-44.4911
 20
132.2061
 30
0.0
 10
-44.4911
 20
132.2061
 30
0.0
 10
-44.2265
 20
131.7478
 30
0.0
 10
-44.1684
 20
131.2632
 30
0.0
 10
-44.3191
 20
130.751
 30
0.0
 10
-44.3191
 20
130.751
 30
0.0
 10
-44.4685
 20
130.2394
 30
0.0
 10
-44.7997
 20
129.8365
 30
0.0
 10
-45.3105
 20
129.5416
 30
0.0
 10
-45.3105
 20
129.5416
 30
0.0
 10
-45.7712
 20
129.2756
 30
0.0
 10
-46.2327
 20
129.1915
 30
0.0
 10
-46.6958
 20
129.2908
 30
0.0
 10
-46.6958
 20
129.2908
 30
0.0
 10
-47.1581
 20
129.3889
 30
0.0
 10
-47.537
 20
129.6443
 30
0.0
 10
-47.8323
 20
130.0571
 30
0.0
  0
SPLINE
  5
5D
330
1F
100
AcDbEntity
  8
Layer 1
 62
   242
370
     9
100
AcDbSpline
210
0.0
220
0.0
230
1.0
 70
    11
 71
     3
 72
    48
 73
    44
 74
     0
 42
0.0000000001
 43
0.0000000001
 40
0.0
 40
0.0
 40
0.0
 40
0.0
 40
0.0833333333333333
 40
0.0833333333333333
 40
0.0833333333333333
 40
0.0833333333333333
 40
0.1666666666666667
 40
0.1666666666666667
 40
0.1666666666666667
 40
0.1666666666666667
 40
0.25
 40
0.25
 40
0.25
 40
0.25
 40
0.3333333333333333
 40
0.3333333333333333
 40
0.3333333333333333
 40
0.3333333333333333
 40
0.4166666666666667
 40
0.4166666666666667
 40
0.4166666666666667
 40
0.4166666666666667
 40
0.5
 40
0.5
 40
0.5
 40
0.5
 40
0.5833333333333334
 40
0.5833333333333334
 40
0.5833333333333334
 40
0.5833333333333334
 40
0.6666666666666666
 40
0.6666666666666666
 40
0.6666666666666666
 40
0.6666666666666666
 40
0.75
 40
0.75
 40
0.75
 40
0.75
 40
0.8333333333333334
 40
0.8333333333333334
 40
0.8333333333333334
 40
0.8333333333333334
 40
1.0
 40
1.0
 40
1.0
 40
1.0
 10
-82.1701
 20
117.1198
 30
0.0
 10
-82.1701
 20
117.1198
 30
0.0
 10
-82.8954
 20
118.376
 30
0.0
 10
-82.8954
 20
118.376
 30
0.0
 10
-82.8954
 20
118.376
 30
0.0
 10
-82.8954
 20
118.376
 30
0.0
 10
-85.1721
 20
117.0615
 30
0.0
 10
-85.1721
 20
117.0615
 30
0.0
 10
-85.1721
 20
117.0615
 30
0.0
 10
-85.1721
 20
117.0615
 30
0.0
 10
-85.5136
 20
117.653
 30
0.0
 10
-85.5136
 20
117.653
 30
0.0
 10
-85.5136
 20
117.653
 30
0.0
 10
-85.5136
 20
117.653
 30
0.0
 10
-85.0819
 20
122.4369
 30
0.0
 10
-85.0819
 20
122.4369
 30
0.0
 10
-85.0819
 20
122.4369
 30
0.0
 10
-85.0819
 20
122.4369
 30
0.0
 10
-84.5552
 20
122.741
 30
0.0
 10
-84.5552
 20
122.741
 30
0.0
 10
-84.5552
 20
122.741
 30
0.0
 10
-84.5552
 20
122.741
 30
0.0
 10
-82.5917
 20
119.34
 30
0.0
 10
-82.5917
 20
119.34
 30
0.0
 10
-82.5917
 20
119.34
 30
0.0
 10
-82.5917
 20
119.34
 30
0.0
 10
-81.8828
 20
119.7493
 30
0.0
 10
-81.8828
 20
119.7493
 30
0.0
 10
-81.8828
 20
119.7493
 30
0.0
 10
-81.8828
 20
119.7493
 30
0.0
 10
-81.5413
 20
119.1578
 30
0.0
 10
-81.5413
 20
119.1578
 30
0.0
 10
-81.5413
 20
119.1578
 30
0.0
 10
-81.5413
 20
119.1578
 30
0.0
 10
-82.2502
 20
118.7485
 30
0.0
 10
-82.2502
 20
118.7485
 30
0.0
 10
-82.2502
 20
118.7485
 30
0.0
 10
-82.2502
 20
118.7485
 30
0.0
 10
-81.5249
 20
117.4923
 30
0.0
 10
-81.5249
 20
117.4923
 30
0.0
 10
-81.5249
 20
117.4923
 30
0.0
 10
-81.5249
 20
117.4923
 30
0.0
 10
-82.1701
 20
117.1198
 30
0.0
 10
-82.1701
 20
117.1198
 30
0.0
  0
SPLINE
  5
5E
330
1F
100
AcDbEntity
  8
Layer 1
 62
   242
370
     9
100
AcDbSpline
210
0.0
220
0.0
230
1.0
 70
    11
 71
     3
 72
    16
 73
    12
 74
     0
 42
0.0000000001
 43
0.0000000001
 40
0.0
 40
0.0
 40
0.0
 40
0.0
 40
0.25
 40
0.25
 40
0.25
 40
0.25
 40
0.5
 40
0.5
 40
0.5
 40
0.5
 40
1.0
 40
1.0
 40
1.0
 40
1.0
 10
-83.2369
 20
118.9675
 30
0.0
 10
-83.2369
 20
118.9675
 30
0.0
 10
-84.6028
 20
121.3334
 30
0.0
 10
-84.6028
 20
121.3334
 30
0.0
 10
-84.6028
 20
121.3334
 30
0.0
 10
-84.6028
 20
121.3334
 30
0.0
 10
-84.8794
 20
118.0192
 30
0.0
 10
-84.8794
 20
118.0192
 30
0.0
 10
-84.8794
 20
118.0192
 30
0.0
 10
-84.8794
 20
118.0192
 30
0.0
 10
-83.2369
 20
118.9675
 30
0.0
 10
-83.2369
 20
118.9675
 30
0.0
  0
SPLINE
  5
5F
330
1F
100
AcDbEntity
  8
Layer 1
 62
   242
370
     9
100
AcDbSpline
210
0.0
220
0.0
230
1.0
 70
    11
 71
     3
 72
    92
 73
    88
 74
     0
 42
0.0000000001
 43
0.0000000001
 40
0.0
 40
0.0
 40
0.0
 40
0.0
 40
0.0434782608695652
 40
0.0434782608695652
 40
0.0434782608695652
 40
0.0434782608695652
 40
0.0869565217391304
 40
0.0869565217391304
 40
0.0869565217391304
 40
0.0869565217391304
 40
0.1304347826086956
 40
0.1304347826086956
 40
0.1304347826086956
 40
0.1304347826086956
 40
0.1739130434782609
 40
0.1739130434782609
 40
0.1739130434782609
 40
0.1739130434782609
 40
0.2173913043478261
 40
0.2173913043478261
 40
0.2173913043478261
 40
0.2173913043478261
 40
0.2608695652173913
 40
0.2608695652173913
 40
0.2608695652173913
 40
0.2608695652173913
 40
0.3043478260869565
 40
0.3043478260869565
 40
0.3043478260869565
 40
0.3043478260869565
 40
0.3478260869565217
 40
0.3478260869565217
 40
0.3478260869565217
 40
0.3478260869565217
 40
0.391304347826087
 40
0.391304347826087
 40
0.391304347826087
 40
0.391304347826087
 40
0.4347826086956522
 40
0.4347826086956522
 40
0.4347826086956522
 40
0.4347826086956522
 40
0.4782608695652174
 40
0.4782608695652174
 40
0.4782608695652174
 40
0.4782608695652174
 40
0.5217391304347826
 40
0.5217391304347826
 40
0.5217391304347826
 40
0.5217391304347826
 40
0.5652173913043478
 40
0.5652173913043478
 40
0.5652173913043478
 40
0.5652173913043478
 40
0.6086956521739131
 40
0.6086956521739131
 40
0.6086956521739131
 40
0.6086956521739131
 40
0.6521739130434783
 40
0.6521739130434783
 40
0.6521739130434783
 40
0.6521739130434783
 40
0.6956521739130435
 40
0.6956521739130435
 40
0.6956521739130435
 40
0.6956521739130435
 40
0.7391304347826086
 40
0.7391304347826086
 40
0.7391304347826086
 40
0.7391304347826086
 40
0.782608695652174
 40
0.782608695652174
 40
0.782608695652174
 40
0.782608695652174
 40
0.8260869565217391
 40
0.8260869565217391
 40
0.8260869565217391
 40
0.8260869565217391
 40
0.8695652173913043
 40
0.8695652173913043
 40
0.8695652173913043
 40
0.8695652173913043
 40
0.9130434782608695
 40
0.9130434782608695
 40
0.9130434782608695
 40
0.9130434782608695
 40
1.0
 40
1.0
 40
1.0
 40
1.0
 10
-116.5166
 20
95.1121
 30
0.0
 10
-116.5166
 20
95.1121
 30
0.0
 10
-115.8728
 20
95.5604
 30
0.0
 10
-115.8728
 20
95.5604
 30
0.0
 10
-115.8728
 20
95.5604
 30
0.0
 10
-115.6321
 20
95.2594
 30
0.0
 10
-115.3736
 20
95.0796
 30
0.0
 10
-115.0955
 20
95.0185
 30
0.0
 10
-115.0955
 20
95.0185
 30
0.0
 10
-114.8162
 20
94.9582
 30
0.0
 10
-114.5483
 20
95.0021
 30
0.0
 10
-114.2904
 20
95.1509
 30
0.0
 10
-114.2904
 20
95.1509
 30
0.0
 10
-113.9801
 20
95.3301
 30
0.0
 10
-113.7851
 20
95.5992
 30
0.0
 10
-113.7059
 20
95.9561
 30
0.0
 10
-113.7059
 20
95.9561
 30
0.0
 10
-113.6263
 20
96.3148
 30
0.0
 10
-113.698
 20
96.6874
 30
0.0
 10
-113.9209
 20
97.0735
 30
0.0
 10
-113.9209
 20
97.0735
 30
0.0
 10
-114.1333
 20
97.4413
 30
0.0
 10
-114.4031
 20
97.6717
 30
0.0
 10
-114.7325
 20
97.7651
 30
0.0
 10
-114.7325
 20
97.7651
 30
0.0
 10
-115.0618
 20
97.8585
 30
0.0
 10
-115.3932
 20
97.8089
 30
0.0
 10
-115.7281
 20
97.6156
 30
0.0
 10
-115.7281
 20
97.6156
 30
0.0
 10
-115.9358
 20
97.4956
 30
0.0
 10
-116.0953
 20
97.34
 30
0.0
 10
-116.2084
 20
97.1493
 30
0.0
 10
-116.2084
 20
97.1493
 30
0.0
 10
-116.3214
 20
96.9585
 30
0.0
 10
-116.3816
 20
96.7608
 30
0.0
 10
-116.3902
 20
96.5555
 30
0.0
 10
-116.3902
 20
96.5555
 30
0.0
 10
-116.3902
 20
96.5555
 30
0.0
 10
-117.0403
 20
96.2844
 30
0.0
 10
-117.0403
 20
96.2844
 30
0.0
 10
-117.0403
 20
96.2844
 30
0.0
 10
-117.0403
 20
96.2844
 30
0.0
 10
-118.0884
 20
99.2738
 30
0.0
 10
-118.0884
 20
99.2738
 30
0.0
 10
-118.0884
 20
99.2738
 30
0.0
 10
-118.0884
 20
99.2738
 30
0.0
 10
-115.478
 20
100.7809
 30
0.0
 10
-115.478
 20
100.7809
 30
0.0
 10
-115.478
 20
100.7809
 30
0.0
 10
-115.478
 20
100.7809
 30
0.0
 10
-115.1224
 20
100.165
 30
0.0
 10
-115.1224
 20
100.165
 30
0.0
 10
-115.1224
 20
100.165
 30
0.0
 10
-115.1224
 20
100.165
 30
0.0
 10
-117.2171
 20
98.9556
 30
0.0
 10
-117.2171
 20
98.9556
 30
0.0
 10
-117.2171
 20
98.9556
 30
0.0
 10
-117.2171
 20
98.9556
 30
0.0
 10
-116.6864
 20
97.3817
 30
0.0
 10
-116.6864
 20
97.3817
 30
0.0
 10
-116.6864
 20
97.3817
 30
0.0
 10
-116.4981
 20
97.7837
 30
0.0
 10
-116.2304
 20
98.0849
 30
0.0
 10
-115.8845
 20
98.2846
 30
0.0
 10
-115.8845
 20
98.2846
 30
0.0
 10
-115.4263
 20
98.5491
 30
0.0
 10
-114.9483
 20
98.6132
 30
0.0
 10
-114.4497
 20
98.4775
 30
0.0
 10
-114.4497
 20
98.4775
 30
0.0
 10
-113.9509
 20
98.3418
 30
0.0
 10
-113.5576
 20
98.0246
 30
0.0
 10
-113.2698
 20
97.5261
 30
0.0
 10
-113.2698
 20
97.5261
 30
0.0
 10
-112.9953
 20
97.0507
 30
0.0
 10
-112.8975
 20
96.5596
 30
0.0
 10
-112.9741
 20
96.0543
 30
0.0
 10
-112.9741
 20
96.0543
 30
0.0
 10
-113.0665
 20
95.4355
 30
0.0
 10
-113.4032
 20
94.9576
 30
0.0
 10
-113.9849
 20
94.6218
 30
0.0
 10
-113.9849
 20
94.6218
 30
0.0
 10
-114.4627
 20
94.3459
 30
0.0
 10
-114.9295
 20
94.254
 30
0.0
 10
-115.3858
 20
94.3474
 30
0.0
 10
-115.3858
 20
94.3474
 30
0.0
 10
-115.8423
 20
94.4408
 30
0.0
 10
-116.2191
 20
94.6957
 30
0.0
 10
-116.5166
 20
95.1121
 30
0.0
  0
SPLINE
  5
60
330
1F
100
AcDbEntity
  8
Layer 1
 62
   242
370
     9
100
AcDbSpline
210
0.0
220
0.0
230
1.0
 70
    11
 71
     3
 72
    80
 73
    76
 74
     0
 42
0.0000000001
 43
0.0000000001
 40
0.0
 40
0.0
 40
0.0
 40
0.0
 40
0.05
 40
0.05
 40
0.05
 40
0.05
 40
0.1
 40
0.1
 40
0.1
 40
0.1
 40
0.15
 40
0.15
 40
0.15
 40
0.15
 40
0.2
 40
0.2
 40
0.2
 40
0.2
 40
0.25
 40
0.25
 40
0.25
 40
0.25
 40
0.3
 40
0.3
 40
0.3
 40
0.3
 40
0.35
 40
0.35
 40
0.35
 40
0.35
 40
0.4
 40
0.4
 40
0.4
 40
0.4
 40
0.45
 40
0.45
 40
0.45
 40
0.45
 40
0.5
 40
0.5
 40
0.5
 40
0.5
 40
0.55
 40
0.55
 40
0.55
 40
0.55
 40
0.6
 40
0.6
 40
0.6
 40
0.6
 40
0.65
 40
0.65
 40
0.65
 40
0.65
 40
0.7
 40
0.7
 40
0.7
 40
0.7
 40
0.75
 40
0.75
 40
0.75
 40
0.75
 40
0.8
 40
0.8
 40
0.8
 40
0.8
 40
0.85
 40
0.85
 40
0.85
 40
0.85
 40
0.9
 40
0.9
 40
0.9
 40
0.9
 40
1.0
 40
1.0
 40
1.0
 40
1.0
 10
-141.3143
 20
65.9392
 30
0.0
 10
-141.3143
 20
65.9392
 30
0.0
 10
-141.9257
 20
65.5194
 30
0.0
 10
-141.9257
 20
65.5194
 30
0.0
 10
-141.9257
 20
65.5194
 30
0.0
 10
-142.1293
 20
65.7392
 30
0.0
 10
-142.3164
 20
65.8772
 30
0.0
 10
-142.4872
 20
65.9301
 30
0.0
 10
-142.4872
 20
65.9301
 30
0.0
 10
-142.7684
 20
66.0138
 30
0.0
 10
-143.0364
 20
65.9812
 30
0.0
 10
-143.2918
 20
65.8338
 30
0.0
 10
-143.2918
 20
65.8338
 30
0.0
 10
-143.4971
 20
65.7152
 30
0.0
 10
-143.6436
 20
65.5541
 30
0.0
 10
-143.7325
 20
65.3497
 30
0.0
 10
-143.7325
 20
65.3497
 30
0.0
 10
-143.85
 20
65.0846
 30
0.0
 10
-143.8852
 20
64.7759
 30
0.0
 10
-143.8389
 20
64.4247
 30
0.0
 10
-143.8389
 20
64.4247
 30
0.0
 10
-143.7913
 20
64.0741
 30
0.0
 10
-143.6188
 20
63.6343
 30
0.0
 10
-143.3203
 20
63.106
 30
0.0
 10
-143.3203
 20
63.106
 30
0.0
 10
-143.3013
 20
63.4315
 30
0.0
 10
-143.2134
 20
63.7168
 30
0.0
 10
-143.0549
 20
63.9615
 30
0.0
 10
-143.0549
 20
63.9615
 30
0.0
 10
-142.8968
 20
64.2042
 30
0.0
 10
-142.6942
 20
64.3979
 30
0.0
 10
-142.4486
 20
64.5397
 30
0.0
 10
-142.4486
 20
64.5397
 30
0.0
 10
-142.0185
 20
64.788
 30
0.0
 10
-141.5619
 20
64.8413
 30
0.0
 10
-141.0774
 20
64.6992
 30
0.0
 10
-141.0774
 20
64.6992
 30
0.0
 10
-140.5928
 20
64.5569
 30
0.0
 10
-140.2057
 20
64.2362
 30
0.0
 10
-139.9164
 20
63.7351
 30
0.0
 10
-139.9164
 20
63.7351
 30
0.0
 10
-139.7259
 20
63.4052
 30
0.0
 10
-139.6215
 20
63.058
 30
0.0
 10
-139.5996
 20
62.6927
 30
0.0
 10
-139.5996
 20
62.6927
 30
0.0
 10
-139.5784
 20
62.3286
 30
0.0
 10
-139.6484
 20
61.9981
 30
0.0
 10
-139.8096
 20
61.7046
 30
0.0
 10
-139.8096
 20
61.7046
 30
0.0
 10
-139.971
 20
61.4111
 30
0.0
 10
-140.2089
 20
61.1743
 30
0.0
 10
-140.5242
 20
60.9922
 30
0.0
 10
-140.5242
 20
60.9922
 30
0.0
 10
-141.062
 20
60.6818
 30
0.0
 10
-141.6131
 20
60.6259
 30
0.0
 10
-142.1802
 20
60.8264
 30
0.0
 10
-142.1802
 20
60.8264
 30
0.0
 10
-142.7479
 20
61.025
 30
0.0
 10
-143.2925
 20
61.579
 30
0.0
 10
-143.816
 20
62.4857
 30
0.0
 10
-143.816
 20
62.4857
 30
0.0
 10
-144.4017
 20
63.5001
 30
0.0
 10
-144.6401
 20
64.3449
 30
0.0
 10
-144.531
 20
65.0223
 30
0.0
 10
-144.531
 20
65.0223
 30
0.0
 10
-144.4361
 20
65.6115
 30
0.0
 10
-144.1125
 20
66.0671
 30
0.0
 10
-143.5577
 20
66.3874
 30
0.0
 10
-143.5577
 20
66.3874
 30
0.0
 10
-143.1459
 20
66.6252
 30
0.0
 10
-142.7403
 20
66.7046
 30
0.0
 10
-142.3423
 20
66.6248
 30
0.0
 10
-142.3423
 20
66.6248
 30
0.0
 10
-141.945
 20
66.5462
 30
0.0
 10
-141.6025
 20
66.3171
 30
0.0
 10
-141.3143
 20
65.9392
 30
0.0
  0
SPLINE
  5
61
330
1F
100
AcDbEntity
  8
Layer 1
 62
   242
370
     9
100
AcDbSpline
210
0.0
220
0.0
230
1.0
 70
    11
 71
     3
 72
    40
 73
    36
 74
     0
 42
0.0000000001
 43
0.0000000001
 40
0.0
 40
0.0
 40
0.0
 40
0.0
 40
0.1
 40
0.1
 40
0.1
 40
0.1
 40
0.2
 40
0.2
 40
0.2
 40
0.2
 40
0.3
 40
0.3
 40
0.3
 40
0.3
 40
0.4
 40
0.4
 40
0.4
 40
0.4
 40
0.5
 40
0.5
 40
0.5
 40
0.5
 40
0.6
 40
0.6
 40
0.6
 40
0.6
 40
0.7
 40
0.7
 40
0.7
 40
0.7
 40
0.8
 40
0.8
 40
0.8
 40
0.8
 40
1.0
 40
1.0
 40
1.0
 40
1.0
 10
-142.6395
 20
62.1581
 30
0.0
 10
-142.5111
 20
61.9357
 30
0.0
 10
-142.3406
 20
61.7505
 30
0.0
 10
-142.1294
 20
61.602
 30
0.0
 10
-142.1294
 20
61.602
 30
0.0
 10
-141.9181
 20
61.4535
 30
0.0
 10
-141.6972
 20
61.3757
 30
0.0
 10
-141.4673
 20
61.3668
 30
0.0
 10
-141.4673
 20
61.3668
 30
0.0
 10
-141.236
 20
61.3585
 30
0.0
 10
-141.0265
 20
61.4077
 30
0.0
 10
-140.8407
 20
61.515
 30
0.0
 10
-140.8407
 20
61.515
 30
0.0
 10
-140.5682
 20
61.6723
 30
0.0
 10
-140.3983
 20
61.9171
 30
0.0
 10
-140.3298
 20
62.25
 30
0.0
 10
-140.3298
 20
62.25
 30
0.0
 10
-140.2613
 20
62.5828
 30
0.0
 10
-140.3357
 20
62.9374
 30
0.0
 10
-140.553
 20
63.3138
 30
0.0
 10
-140.553
 20
63.3138
 30
0.0
 10
-140.7625
 20
63.6767
 30
0.0
 10
-141.0241
 20
63.907
 30
0.0
 10
-141.3379
 20
64.0045
 30
0.0
 10
-141.3379
 20
64.0045
 30
0.0
 10
-141.6517
 20
64.1019
 30
0.0
 10
-141.9548
 20
64.0655
 30
0.0
 10
-142.2481
 20
63.8962
 30
0.0
 10
-142.2481
 20
63.8962
 30
0.0
 10
-142.5402
 20
63.7275
 30
0.0
 10
-142.727
 20
63.4811
 30
0.0
 10
-142.8093
 20
63.155
 30
0.0
 10
-142.8093
 20
63.155
 30
0.0
 10
-142.8914
 20
62.8289
 30
0.0
 10
-142.8349
 20
62.4966
 30
0.0
 10
-142.6395
 20
62.1581
 30
0.0
  0
SPLINE
  5
62
330
1F
100
AcDbEntity
  8
Layer 1
 62
   242
370
     9
100
AcDbSpline
210
0.0
220
0.0
230
1.0
 70
    11
 71
     3
 72
    48
 73
    44
 74
     0
 42
0.0000000001
 43
0.0000000001
 40
0.0
 40
0.0
 40
0.0
 40
0.0
 40
0.0833333333333333
 40
0.0833333333333333
 40
0.0833333333333333
 40
0.0833333333333333
 40
0.1666666666666667
 40
0.1666666666666667
 40
0.1666666666666667
 40
0.1666666666666667
 40
0.25
 40
0.25
 40
0.25
 40
0.25
 40
0.3333333333333333
 40
0.3333333333333333
 40
0.3333333333333333
 40
0.3333333333333333
 40
0.4166666666666667
 40
0.4166666666666667
 40
0.4166666666666667
 40
0.4166666666666667
 40
0.5
 40
0.5
 40
0.5
 40
0.5
 40
0.5833333333333334
 40
0.5833333333333334
 40
0.5833333333333334
 40
0.5833333333333334
 40
0.6666666666666666
 40
0.6666666666666666
 40
0.6666666666666666
 40
0.6666666666666666
 40
0.75
 40
0.75
 40
0.75
 40
0.75
 40
0.8333333333333334
 40
0.8333333333333334
 40
0.8333333333333334
 40
0.8333333333333334
 40
1.0
 40
1.0
 40
1.0
 40
1.0
 10
-178.3933
 20
53.2935
 30
0.0
 10
-178.3933
 20
53.2935
 30
0.0
 10
-178.751
 20
53.913
 30
0.0
 10
-178.751
 20
53.913
 30
0.0
 10
-178.751
 20
53.913
 30
0.0
 10
-178.751
 20
53.913
 30
0.0
 10
-175.3536
 20
55.8745
 30
0.0
 10
-175.3536
 20
55.8745
 30
0.0
 10
-175.3536
 20
55.8745
 30
0.0
 10
-175.3536
 20
55.8745
 30
0.0
 10
-175.0644
 20
55.3735
 30
0.0
 10
-175.0644
 20
55.3735
 30
0.0
 10
-175.0644
 20
55.3735
 30
0.0
 10
-175.1927
 20
54.8251
 30
0.0
 10
-175.2508
 20
54.161
 30
0.0
 10
-175.2395
 20
53.3822
 30
0.0
 10
-175.2395
 20
53.3822
 30
0.0
 10
-175.227
 20
52.6041
 30
0.0
 10
-175.1305
 20
51.85
 30
0.0
 10
-174.9497
 20
51.1249
 30
0.0
 10
-174.9497
 20
51.1249
 30
0.0
 10
-174.8253
 20
50.6102
 30
0.0
 10
-174.6299
 20
50.0827
 30
0.0
 10
-174.3633
 20
49.5392
 30
0.0
 10
-174.3633
 20
49.5392
 30
0.0
 10
-174.3633
 20
49.5392
 30
0.0
 10
-175.0257
 20
49.1567
 30
0.0
 10
-175.0257
 20
49.1567
 30
0.0
 10
-175.0257
 20
49.1567
 30
0.0
 10
-175.2569
 20
49.5741
 30
0.0
 10
-175.4641
 20
50.1192
 30
0.0
 10
-175.6468
 20
50.7942
 30
0.0
 10
-175.6468
 20
50.7942
 30
0.0
 10
-175.8288
 20
51.4679
 30
0.0
 10
-175.9324
 20
52.161
 30
0.0
 10
-175.9561
 20
52.8707
 30
0.0
 10
-175.9561
 20
52.8707
 30
0.0
 10
-175.9784
 20
53.5812
 30
0.0
 10
-175.9351
 20
54.2173
 30
0.0
 10
-175.8221
 20
54.7779
 30
0.0
 10
-175.8221
 20
54.7779
 30
0.0
 10
-175.8221
 20
54.7779
 30
0.0
 10
-178.3933
 20
53.2935
 30
0.0
 10
-178.3933
 20
53.2935
 30
0.0
  0
SPLINE
  5
63
330
1F
100
AcDbEntity
  8
Layer 1
 62
   242
370
     9
100
AcDbSpline
210
0.0
220
0.0
230
1.0
 70
    11
 71
     3
 72
    68
 73
    64
 74
     0
 42
0.0000000001
 43
0.0000000001
 40
0.0
 40
0.0
 40
0.0
 40
0.0
 40
0.0588235294117647
 40
0.0588235294117647
 40
0.0588235294117647
 40
0.0588235294117647
 40
0.1176470588235294
 40
0.1176470588235294
 40
0.1176470588235294
 40
0.1176470588235294
 40
0.1764705882352941
 40
0.1764705882352941
 40
0.1764705882352941
 40
0.1764705882352941
 40
0.2352941176470588
 40
0.2352941176470588
 40
0.2352941176470588
 40
0.2352941176470588
 40
0.2941176470588235
 40
0.2941176470588235
 40
0.2941176470588235
 40
0.2941176470588235
 40
0.3529411764705883
 40
0.3529411764705883
 40
0.3529411764705883
 40
0.3529411764705883
 40
0.4117647058823529
 40
0.4117647058823529
 40
0.4117647058823529
 40
0.4117647058823529
 40
0.4705882352941176
 40
0.4705882352941176
 40
0.4705882352941176
 40
0.4705882352941176
 40
0.5294117647058824
 40
0.5294117647058824
 40
0.5294117647058824
 40
0.5294117647058824
 40
0.5882352941176471
 40
0.5882352941176471
 40
0.5882352941176471
 40
0.5882352941176471
 40
0.6470588235294118
 40
0.6470588235294118
 40
0.6470588235294118
 40
0.6470588235294118
 40
0.7058823529411765
 40
0.7058823529411765
 40
0.7058823529411765
 40
0.7058823529411765
 40
0.7647058823529411
 40
0.7647058823529411
 40
0.7647058823529411
 40
0.7647058823529411
 40
0.8235294117647058
 40
0.8235294117647058
 40
0.8235294117647058
 40
0.8235294117647058
 40
0.8823529411764706
 40
0.8823529411764706
 40
0.8823529411764706
 40
0.8823529411764706
 40
1.0
 40
1.0
 40
1.0
 40
1.0
 10
-191.4167
 20
55.8505
 30
0.0
 10
-191.7408
 20
55.7938
 30
0.0
 10
-192.0191
 20
55.8188
 30
0.0
 10
-192.2538
 20
55.9261
 30
0.0
 10
-192.2538
 20
55.9261
 30
0.0
 10
-192.4866
 20
56.0328
 30
0.0
 10
-192.677
 20
56.213
 30
0.0
 10
-192.823
 20
56.4659
 30
0.0
 10
-192.823
 20
56.4659
 30
0.0
 10
-193.0439
 20
56.8484
 30
0.0
 10
-193.0918
 20
57.2477
 30
0.0
 10
-192.9671
 20
57.6667
 30
0.0
 10
-192.9671
 20
57.6667
 30
0.0
 10
-192.8425
 20
58.0858
 30
0.0
 10
-192.5538
 20
58.4267
 30
0.0
 10
-192.098
 20
58.6899
 30
0.0
 10
-192.098
 20
58.6899
 30
0.0
 10
-191.6397
 20
58.9545
 30
0.0
 10
-191.1937
 20
59.0344
 30
0.0
 10
-190.76
 20
58.9296
 30
0.0
 10
-190.76
 20
58.9296
 30
0.0
 10
-190.3276
 20
58.824
 30
0.0
 10
-190.0013
 20
58.5806
 30
0.0
 10
-189.7805
 20
58.1981
 30
0.0
 10
-189.7805
 20
58.1981
 30
0.0
 10
-189.6401
 20
57.9549
 30
0.0
 10
-189.5816
 20
57.7068
 30
0.0
 10
-189.6042
 20
57.4526
 30
0.0
 10
-189.6042
 20
57.4526
 30
0.0
 10
-189.6288
 20
57.1988
 30
0.0
 10
-189.7415
 20
56.948
 30
0.0
 10
-189.9453
 20
56.7
 30
0.0
 10
-189.9453
 20
56.7
 30
0.0
 10
-189.5632
 20
56.7804
 30
0.0
 10
-189.2203
 20
56.7536
 30
0.0
 10
-188.9161
 20
56.6164
 30
0.0
 10
-188.9161
 20
56.6164
 30
0.0
 10
-188.6139
 20
56.4796
 30
0.0
 10
-188.368
 20
56.2485
 30
0.0
 10
-188.1811
 20
55.9247
 30
0.0
 10
-188.1811
 20
55.9247
 30
0.0
 10
-187.9214
 20
55.4749
 30
0.0
 10
-187.863
 20
55.0067
 30
0.0
 10
-188.0032
 20
54.5185
 30
0.0
 10
-188.0032
 20
54.5185
 30
0.0
 10
-188.1445
 20
54.0295
 30
0.0
 10
-188.4743
 20
53.6355
 30
0.0
 10
-188.9924
 20
53.3363
 30
0.0
 10
-188.9924
 20
53.3363
 30
0.0
 10
-189.5106
 20
53.0372
 30
0.0
 10
-190.0155
 20
52.9493
 30
0.0
 10
-190.5103
 20
53.0726
 30
0.0
 10
-190.5103
 20
53.0726
 30
0.0
 10
-191.0052
 20
53.1959
 30
0.0
 10
-191.3848
 20
53.4867
 30
0.0
 10
-191.6494
 20
53.945
 30
0.0
 10
-191.6494
 20
53.945
 30
0.0
 10
-191.8463
 20
54.2859
 30
0.0
 10
-191.9246
 20
54.622
 30
0.0
 10
-191.8844
 20
54.9532
 30
0.0
 10
-191.8844
 20
54.9532
 30
0.0
 10
-191.8448
 20
55.2824
 30
0.0
 10
-191.6889
 20
55.5825
 30
0.0
 10
-191.4167
 20
55.8505
 30
0.0
  0
SPLINE
  5
64
330
1F
100
AcDbEntity
  8
Layer 1
 62
   242
370
     9
100
AcDbSpline
210
0.0
220
0.0
230
1.0
 70
    11
 71
     3
 72
    36
 73
    32
 74
     0
 42
0.0000000001
 43
0.0000000001
 40
0.0
 40
0.0
 40
0.0
 40
0.0
 40
0.1111111111111111
 40
0.1111111111111111
 40
0.1111111111111111
 40
0.1111111111111111
 40
0.2222222222222222
 40
0.2222222222222222
 40
0.2222222222222222
 40
0.2222222222222222
 40
0.3333333333333333
 40
0.3333333333333333
 40
0.3333333333333333
 40
0.3333333333333333
 40
0.4444444444444444
 40
0.4444444444444444
 40
0.4444444444444444
 40
0.4444444444444444
 40
0.5555555555555556
 40
0.5555555555555556
 40
0.5555555555555556
 40
0.5555555555555556
 40
0.6666666666666666
 40
0.6666666666666666
 40
0.6666666666666666
 40
0.6666666666666666
 40
0.7777777777777778
 40
0.7777777777777778
 40
0.7777777777777778
 40
0.7777777777777778
 40
1.0
 40
1.0
 40
1.0
 40
1.0
 10
-192.177
 20
56.8682
 30
0.0
 10
-192.0338
 20
56.6202
 30
0.0
 10
-191.8359
 20
56.4639
 30
0.0
 10
-191.5861
 20
56.398
 30
0.0
 10
-191.5861
 20
56.398
 30
0.0
 10
-191.335
 20
56.3328
 30
0.0
 10
-191.0814
 20
56.3732
 30
0.0
 10
-190.8259
 20
56.5207
 30
0.0
 10
-190.8259
 20
56.5207
 30
0.0
 10
-190.5779
 20
56.6639
 30
0.0
 10
-190.4189
 20
56.8599
 30
0.0
 10
-190.3505
 20
57.1081
 30
0.0
 10
-190.3505
 20
57.1081
 30
0.0
 10
-190.2818
 20
57.3563
 30
0.0
 10
-190.3144
 20
57.5933
 30
0.0
 10
-190.4449
 20
57.8194
 30
0.0
 10
-190.4449
 20
57.8194
 30
0.0
 10
-190.5818
 20
58.0565
 30
0.0
 10
-190.7769
 20
58.2079
 30
0.0
 10
-191.0336
 20
58.2746
 30
0.0
 10
-191.0336
 20
58.2746
 30
0.0
 10
-191.2905
 20
58.3414
 30
0.0
 10
-191.54
 20
58.3049
 30
0.0
 10
-191.7844
 20
58.1638
 30
0.0
 10
-191.7844
 20
58.1638
 30
0.0
 10
-192.03
 20
58.022
 30
0.0
 10
-192.1883
 20
57.8247
 30
0.0
 10
-192.2605
 20
57.5745
 30
0.0
 10
-192.2605
 20
57.5745
 30
0.0
 10
-192.3319
 20
57.323
 30
0.0
 10
-192.3033
 20
57.087
 30
0.0
 10
-192.177
 20
56.8682
 30
0.0
  0
SPLINE
  5
65
330
1F
100
AcDbEntity
  8
Layer 1
 62
   242
370
     9
100
AcDbSpline
210
0.0
220
0.0
230
1.0
 70
    11
 71
     3
 72
    40
 73
    36
 74
     0
 42
0.0000000001
 43
0.0000000001
 40
0.0
 40
0.0
 40
0.0
 40
0.0
 40
0.1
 40
0.1
 40
0.1
 40
0.1
 40
0.2
 40
0.2
 40
0.2
 40
0.2
 40
0.3
 40
0.3
 40
0.3
 40
0.3
 40
0.4
 40
0.4
 40
0.4
 40
0.4
 40
0.5
 40
0.5
 40
0.5
 40
0.5
 40
0.6
 40
0.6
 40
0.6
 40
0.6
 40
0.7
 40
0.7
 40
0.7
 40
0.7
 40
0.8
 40
0.8
 40
0.8
 40
0.8
 40
1.0
 40
1.0
 40
1.0
 40
1.0
 10
-190.985
 20
54.3237
 30
0.0
 10
-190.8791
 20
54.1404
 30
0.0
 10
-190.7321
 20
53.9874
 30
0.0
 10
-190.5466
 20
53.8664
 30
0.0
 10
-190.5466
 20
53.8664
 30
0.0
 10
-190.3603
 20
53.7442
 30
0.0
 10
-190.1538
 20
53.6857
 30
0.0
 10
-189.9272
 20
53.6912
 30
0.0
 10
-189.9272
 20
53.6912
 30
0.0
 10
-189.7006
 20
53.6965
 30
0.0
 10
-189.4885
 20
53.7554
 30
0.0
 10
-189.2906
 20
53.8697
 30
0.0
 10
-189.2906
 20
53.8697
 30
0.0
 10
-188.9826
 20
54.0475
 30
0.0
 10
-188.7856
 20
54.2933
 30
0.0
 10
-188.7002
 20
54.6081
 30
0.0
 10
-188.7002
 20
54.6081
 30
0.0
 10
-188.614
 20
54.9219
 30
0.0
 10
-188.6591
 20
55.2315
 30
0.0
 10
-188.8355
 20
55.537
 30
0.0
 10
-188.8355
 20
55.537
 30
0.0
 10
-189.0147
 20
55.8474
 30
0.0
 10
-189.2656
 20
56.0447
 30
0.0
 10
-189.5892
 20
56.1284
 30
0.0
 10
-189.5892
 20
56.1284
 30
0.0
 10
-189.9129
 20
56.212
 30
0.0
 10
-190.2306
 20
56.1639
 30
0.0
 10
-190.541
 20
55.9847
 30
0.0
 10
-190.541
 20
55.9847
 30
0.0
 10
-190.8441
 20
55.8097
 30
0.0
 10
-191.0366
 20
55.5648
 30
0.0
 10
-191.1201
 20
55.2494
 30
0.0
 10
-191.1201
 20
55.2494
 30
0.0
 10
-191.203
 20
54.9327
 30
0.0
 10
-191.1585
 20
54.6243
 30
0.0
 10
-190.985
 20
54.3237
 30
0.0
  0
SPLINE
  5
66
330
1F
100
AcDbEntity
  8
Layer 1
 62
   242
370
     9
100
AcDbSpline
210
0.0
220
0.0
230
1.0
 70
    11
 71
     3
 72
    92
 73
    88
 74
     0
 42
0.0000000001
 43
0.0000000001
 40
0.0
 40
0.0
 40
0.0
 40
0.0
 40
0.0434782608695652
 40
0.0434782608695652
 40
0.0434782608695652
 40
0.0434782608695652
 40
0.0869565217391304
 40
0.0869565217391304
 40
0.0869565217391304
 40
0.0869565217391304
 40
0.1304347826086956
 40
0.1304347826086956
 40
0.1304347826086956
 40
0.1304347826086956
 40
0.1739130434782609
 40
0.1739130434782609
 40
0.1739130434782609
 40
0.1739130434782609
 40
0.2173913043478261
 40
0.2173913043478261
 40
0.2173913043478261
 40
0.2173913043478261
 40
0.2608695652173913
 40
0.2608695652173913
 40
0.2608695652173913
 40
0.2608695652173913
 40
0.3043478260869565
 40
0.3043478260869565
 40
0.3043478260869565
 40
0.3043478260869565
 40
0.3478260869565217
 40
0.3478260869565217
 40
0.3478260869565217
 40
0.3478260869565217
 40
0.391304347826087
 40
0.391304347826087
 40
0.391304347826087
 40
0.391304347826087
 40
0.4347826086956522
 40
0.4347826086956522
 40
0.4347826086956522
 40
0.4347826086956522
 40
0.4782608695652174
 40
0.4782608695652174
 40
0.4782608695652174
 40
0.4782608695652174
 40
0.5217391304347826
 40
0.5217391304347826
 40
0.5217391304347826
 40
0.5217391304347826
 40
0.5652173913043478
 40
0.5652173913043478
 40
0.5652173913043478
 40
0.5652173913043478
 40
0.6086956521739131
 40
0.6086956521739131
 40
0.6086956521739131
 40
0.6086956521739131
 40
0.6521739130434783
 40
0.6521739130434783
 40
0.6521739130434783
 40
0.6521739130434783
 40
0.6956521739130435
 40
0.6956521739130435
 40
0.6956521739130435
 40
0.6956521739130435
 40
0.7391304347826086
 40
0.7391304347826086
 40
0.7391304347826086
 40
0.7391304347826086
 40
0.782608695652174
 40
0.782608695652174
 40
0.782608695652174
 40
0.782608695652174
 40
0.8260869565217391
 40
0.8260869565217391
 40
0.8260869565217391
 40
0.8260869565217391
 40
0.8695652173913043
 40
0.8695652173913043
 40
0.8695652173913043
 40
0.8695652173913043
 40
0.9130434782608695
 40
0.9130434782608695
 40
0.9130434782608695
 40
0.9130434782608695
 40
1.0
 40
1.0
 40
1.0
 40
1.0
 10
-204.7675
 20
63.0773
 30
0.0
 10
-204.7675
 20
63.0773
 30
0.0
 10
-204.181
 20
63.4926
 30
0.0
 10
-204.181
 20
63.4926
 30
0.0
 10
-204.181
 20
63.4926
 30
0.0
 10
-203.9605
 20
63.2321
 30
0.0
 10
-203.7383
 20
63.0785
 30
0.0
 10
-203.5142
 20
63.0319
 30
0.0
 10
-203.5142
 20
63.0319
 30
0.0
 10
-203.2908
 20
62.9865
 30
0.0
 10
-203.0633
 20
63.0299
 30
0.0
 10
-202.8311
 20
63.1639
 30
0.0
 10
-202.8311
 20
63.1639
 30
0.0
 10
-202.6332
 20
63.2782
 30
0.0
 10
-202.4857
 20
63.4236
 30
0.0
 10
-202.3896
 20
63.6013
 30
0.0
 10
-202.3896
 20
63.6013
 30
0.0
 10
-202.2927
 20
63.7779
 30
0.0
 10
-202.2403
 20
63.9694
 30
0.0
 10
-202.2325
 20
64.1759
 30
0.0
 10
-202.2325
 20
64.1759
 30
0.0
 10
-202.2235
 20
64.3832
 30
0.0
 10
-202.2625
 20
64.6344
 30
0.0
 10
-202.3459
 20
64.9284
 30
0.0
 10
-202.3459
 20
64.9284
 30
0.0
 10
-202.4313
 20
65.223
 30
0.0
 10
-202.55
 20
65.5048
 30
0.0
 10
-202.7045
 20
65.7724
 30
0.0
 10
-202.7045
 20
65.7724
 30
0.0
 10
-202.7208
 20
65.8005
 30
0.0
 10
-202.7474
 20
65.8438
 30
0.0
 10
-202.7823
 20
65.8986
 30
0.0
 10
-202.7823
 20
65.8986
 30
0.0
 10
-202.794
 20
65.6197
 30
0.0
 10
-202.8733
 20
65.3507
 30
0.0
 10
-203.0223
 20
65.0952
 30
0.0
 10
-203.0223
 20
65.0952
 30
0.0
 10
-203.1718
 20
64.8378
 30
0.0
 10
-203.3771
 20
64.6346
 30
0.0
 10
-203.6362
 20
64.485
 30
0.0
 10
-203.6362
 20
64.485
 30
0.0
 10
-204.0712
 20
64.2338
 30
0.0
 10
-204.5301
 20
64.179
 30
0.0
 10
-205.0128
 20
64.3208
 30
0.0
 10
-205.0128
 20
64.3208
 30
0.0
 10
-205.4955
 20
64.4625
 30
0.0
 10
-205.8849
 20
64.79
 30
0.0
 10
-206.1827
 20
65.3057
 30
0.0
 10
-206.1827
 20
65.3057
 30
0.0
 10
-206.4903
 20
65.8386
 30
0.0
 10
-206.5809
 20
66.3566
 30
0.0
 10
-206.4545
 20
66.8629
 30
0.0
 10
-206.4545
 20
66.8629
 30
0.0
 10
-206.3281
 20
67.3694
 30
0.0
 10
-206.0284
 20
67.759
 30
0.0
 10
-205.5554
 20
68.0321
 30
0.0
 10
-205.5554
 20
68.0321
 30
0.0
 10
-205.2145
 20
68.2289
 30
0.0
 10
-204.8493
 20
68.316
 30
0.0
 10
-204.4599
 20
68.2964
 30
0.0
 10
-204.4599
 20
68.2964
 30
0.0
 10
-204.0718
 20
68.2761
 30
0.0
 10
-203.705
 20
68.1375
 30
0.0
 10
-203.3622
 20
67.8825
 30
0.0
 10
-203.3622
 20
67.8825
 30
0.0
 10
-203.0194
 20
67.6274
 30
0.0
 10
-202.6617
 20
67.1772
 30
0.0
 10
-202.2891
 20
66.5319
 30
0.0
 10
-202.2891
 20
66.5319
 30
0.0
 10
-201.9025
 20
65.8623
 30
0.0
 10
-201.6663
 20
65.2866
 30
0.0
 10
-201.5817
 20
64.8043
 30
0.0
 10
-201.5817
 20
64.8043
 30
0.0
 10
-201.4991
 20
64.3224
 30
0.0
 10
-201.5411
 20
63.8957
 30
0.0
 10
-201.7083
 20
63.5221
 30
0.0
 10
-201.7083
 20
63.5221
 30
0.0
 10
-201.8768
 20
63.1478
 30
0.0
 10
-202.1529
 20
62.85
 30
0.0
 10
-202.5403
 20
62.6263
 30
0.0
 10
-202.5403
 20
62.6263
 30
0.0
 10
-202.9509
 20
62.3892
 30
0.0
 10
-203.3514
 20
62.3095
 30
0.0
 10
-203.7436
 20
62.3878
 30
0.0
 10
-203.7436
 20
62.3878
 30
0.0
 10
-204.1352
 20
62.4648
 30
0.0
 10
-204.4765
 20
62.6947
 30
0.0
 10
-204.7675
 20
63.0773
 30
0.0
  0
SPLINE
  5
67
330
1F
100
AcDbEntity
  8
Layer 1
 62
   242
370
     9
100
AcDbSpline
210
0.0
220
0.0
230
1.0
 70
    11
 71
     3
 72
    36
 73
    32
 74
     0
 42
0.0000000001
 43
0.0000000001
 40
0.0
 40
0.0
 40
0.0
 40
0.0
 40
0.1111111111111111
 40
0.1111111111111111
 40
0.1111111111111111
 40
0.1111111111111111
 40
0.2222222222222222
 40
0.2222222222222222
 40
0.2222222222222222
 40
0.2222222222222222
 40
0.3333333333333333
 40
0.3333333333333333
 40
0.3333333333333333
 40
0.3333333333333333
 40
0.4444444444444444
 40
0.4444444444444444
 40
0.4444444444444444
 40
0.4444444444444444
 40
0.5555555555555556
 40
0.5555555555555556
 40
0.5555555555555556
 40
0.5555555555555556
 40
0.6666666666666666
 40
0.6666666666666666
 40
0.6666666666666666
 40
0.6666666666666666
 40
0.7777777777777778
 40
0.7777777777777778
 40
0.7777777777777778
 40
0.7777777777777778
 40
1.0
 40
1.0
 40
1.0
 40
1.0
 10
-203.4668
 20
66.9177
 30
0.0
 10
-203.6799
 20
67.2868
 30
0.0
 10
-203.9476
 20
67.5249
 30
0.0
 10
-204.2692
 20
67.6276
 30
0.0
 10
-204.2692
 20
67.6276
 30
0.0
 10
-204.5928
 20
67.7308
 30
0.0
 10
-204.8915
 20
67.7034
 30
0.0
 10
-205.1689
 20
67.5432
 30
0.0
 10
-205.1689
 20
67.5432
 30
0.0
 10
-205.4549
 20
67.3781
 30
0.0
 10
-205.6365
 20
67.1169
 30
0.0
 10
-205.7143
 20
66.7607
 30
0.0
 10
-205.7143
 20
66.7607
 30
0.0
 10
-205.7915
 20
66.4034
 30
0.0
 10
-205.7228
 20
66.0388
 30
0.0
 10
-205.5083
 20
65.6673
 30
0.0
 10
-205.5083
 20
65.6673
 30
0.0
 10
-205.315
 20
65.3325
 30
0.0
 10
-205.057
 20
65.1197
 30
0.0
 10
-204.7346
 20
65.0272
 30
0.0
 10
-204.7346
 20
65.0272
 30
0.0
 10
-204.4123
 20
64.9346
 30
0.0
 10
-204.1044
 20
64.974
 30
0.0
 10
-203.8086
 20
65.1448
 30
0.0
 10
-203.8086
 20
65.1448
 30
0.0
 10
-203.5092
 20
65.3177
 30
0.0
 10
-203.3247
 20
65.5626
 30
0.0
 10
-203.2535
 20
65.8823
 30
0.0
 10
-203.2535
 20
65.8823
 30
0.0
 10
-203.1811
 20
66.2028
 30
0.0
 10
-203.253
 20
66.5474
 30
0.0
 10
-203.4668
 20
66.9177
 30
0.0
  0
SPLINE
  5
68
330
1F
100
AcDbEntity
  8
Layer 1
 62
   242
370
     9
100
AcDbSpline
210
0.0
220
0.0
230
1.0
 70
    11
 71
     3
 72
    40
 73
    36
 74
     0
 42
0.0000000001
 43
0.0000000001
 40
0.0
 40
0.0
 40
0.0
 40
0.0
 40
0.1
 40
0.1
 40
0.1
 40
0.1
 40
0.2
 40
0.2
 40
0.2
 40
0.2
 40
0.3
 40
0.3
 40
0.3
 40
0.3
 40
0.4
 40
0.4
 40
0.4
 40
0.4
 40
0.5
 40
0.5
 40
0.5
 40
0.5
 40
0.6
 40
0.6
 40
0.6
 40
0.6
 40
0.7
 40
0.7
 40
0.7
 40
0.7
 40
0.8
 40
0.8
 40
0.8
 40
0.8
 40
1.0
 40
1.0
 40
1.0
 40
1.0
 10
-247.389
 20
41.9816
 30
0.0
 10
-247.389
 20
41.9816
 30
0.0
 10
-248.033
 20
41.6098
 30
0.0
 10
-248.033
 20
41.6098
 30
0.0
 10
-248.033
 20
41.6098
 30
0.0
 10
-248.033
 20
41.6098
 30
0.0
 10
-250.4037
 20
45.716
 30
0.0
 10
-250.4037
 20
45.716
 30
0.0
 10
-250.4037
 20
45.716
 30
0.0
 10
-250.4735
 20
45.4784
 30
0.0
 10
-250.591
 20
45.2135
 30
0.0
 10
-250.7574
 20
44.9202
 30
0.0
 10
-250.7574
 20
44.9202
 30
0.0
 10
-250.925
 20
44.6263
 30
0.0
 10
-251.0868
 20
44.3846
 30
0.0
 10
-251.2449
 20
44.1956
 30
0.0
 10
-251.2449
 20
44.1956
 30
0.0
 10
-251.2449
 20
44.1956
 30
0.0
 10
-251.604
 20
44.8176
 30
0.0
 10
-251.604
 20
44.8176
 30
0.0
 10
-251.604
 20
44.8176
 30
0.0
 10
-251.3416
 20
45.1956
 30
0.0
 10
-251.1449
 20
45.5829
 30
0.0
 10
-251.0138
 20
45.9797
 30
0.0
 10
-251.0138
 20
45.9797
 30
0.0
 10
-250.8846
 20
46.3768
 30
0.0
 10
-250.8275
 20
46.721
 30
0.0
 10
-250.8463
 20
47.0132
 30
0.0
 10
-250.8463
 20
47.0132
 30
0.0
 10
-250.8463
 20
47.0132
 30
0.0
 10
-250.4321
 20
47.2523
 30
0.0
 10
-250.4321
 20
47.2523
 30
0.0
 10
-250.4321
 20
47.2523
 30
0.0
 10
-250.4321
 20
47.2523
 30
0.0
 10
-247.389
 20
41.9816
 30
0.0
 10
-247.389
 20
41.9816
 30
0.0
  0
SPLINE
  5
69
330
1F
100
AcDbEntity
  8
Layer 1
 62
   242
370
     9
100
AcDbSpline
210
0.0
220
0.0
230
1.0
 70
    11
 71
     3
 72
    52
 73
    48
 74
     0
 42
0.0000000001
 43
0.0000000001
 40
0.0
 40
0.0
 40
0.0
 40
0.0
 40
0.0769230769230769
 40
0.0769230769230769
 40
0.0769230769230769
 40
0.0769230769230769
 40
0.1538461538461539
 40
0.1538461538461539
 40
0.1538461538461539
 40
0.1538461538461539
 40
0.2307692307692308
 40
0.2307692307692308
 40
0.2307692307692308
 40
0.2307692307692308
 40
0.3076923076923077
 40
0.3076923076923077
 40
0.3076923076923077
 40
0.3076923076923077
 40
0.3846153846153846
 40
0.3846153846153846
 40
0.3846153846153846
 40
0.3846153846153846
 40
0.4615384615384616
 40
0.4615384615384616
 40
0.4615384615384616
 40
0.4615384615384616
 40
0.5384615384615384
 40
0.5384615384615384
 40
0.5384615384615384
 40
0.5384615384615384
 40
0.6153846153846154
 40
0.6153846153846154
 40
0.6153846153846154
 40
0.6153846153846154
 40
0.6923076923076923
 40
0.6923076923076923
 40
0.6923076923076923
 40
0.6923076923076923
 40
0.7692307692307693
 40
0.7692307692307693
 40
0.7692307692307693
 40
0.7692307692307693
 40
0.8461538461538461
 40
0.8461538461538461
 40
0.8461538461538461
 40
0.8461538461538461
 40
1.0
 40
1.0
 40
1.0
 40
1.0
 10
-247.2323
 20
45.5231
 30
0.0
 10
-247.5907
 20
46.144
 30
0.0
 10
-247.8158
 20
46.6804
 30
0.0
 10
-247.9055
 20
47.1322
 30
0.0
 10
-247.9055
 20
47.1322
 30
0.0
 10
-247.9971
 20
47.5844
 30
0.0
 10
-247.9751
 20
47.9866
 30
0.0
 10
-247.8419
 20
48.3371
 30
0.0
 10
-247.8419
 20
48.3371
 30
0.0
 10
-247.7086
 20
48.6878
 30
0.0
 10
-247.4514
 20
48.9732
 30
0.0
 10
-247.0701
 20
49.1933
 30
0.0
 10
-247.0701
 20
49.1933
 30
0.0
 10
-246.7878
 20
49.3563
 30
0.0
 10
-246.5079
 20
49.4414
 30
0.0
 10
-246.2296
 20
49.4506
 30
0.0
 10
-246.2296
 20
49.4506
 30
0.0
 10
-245.952
 20
49.4609
 30
0.0
 10
-245.6827
 20
49.398
 30
0.0
 10
-245.4199
 20
49.2646
 30
0.0
 10
-245.4199
 20
49.2646
 30
0.0
 10
-245.1584
 20
49.1305
 30
0.0
 10
-244.8993
 20
48.9329
 30
0.0
 10
-244.644
 20
48.6713
 30
0.0
 10
-244.644
 20
48.6713
 30
0.0
 10
-244.3874
 20
48.4105
 30
0.0
 10
-244.1099
 20
48.02
 30
0.0
 10
-243.8093
 20
47.4994
 30
0.0
 10
-243.8093
 20
47.4994
 30
0.0
 10
-243.4537
 20
46.8835
 30
0.0
 10
-243.2308
 20
46.3506
 30
0.0
 10
-243.138
 20
45.8992
 30
0.0
 10
-243.138
 20
45.8992
 30
0.0
 10
-243.0463
 20
45.4469
 30
0.0
 10
-243.0671
 20
45.0455
 30
0.0
 10
-243.1996
 20
44.6936
 30
0.0
 10
-243.1996
 20
44.6936
 30
0.0
 10
-243.3321
 20
44.3417
 30
0.0
 10
-243.5906
 20
44.0556
 30
0.0
 10
-243.9756
 20
43.8334
 30
0.0
 10
-243.9756
 20
43.8334
 30
0.0
 10
-244.4815
 20
43.5413
 30
0.0
 10
-244.9831
 20
43.4928
 30
0.0
 10
-245.481
 20
43.6893
 30
0.0
 10
-245.481
 20
43.6893
 30
0.0
 10
-246.0788
 20
43.9259
 30
0.0
 10
-246.6636
 20
44.5382
 30
0.0
 10
-247.2323
 20
45.5231
 30
0.0
  0
SPLINE
  5
6A
330
1F
100
AcDbEntity
  8
Layer 1
 62
   242
370
     9
100
AcDbSpline
210
0.0
220
0.0
230
1.0
 70
    11
 71
     3
 72
    36
 73
    32
 74
     0
 42
0.0000000001
 43
0.0000000001
 40
0.0
 40
0.0
 40
0.0
 40
0.0
 40
0.1111111111111111
 40
0.1111111111111111
 40
0.1111111111111111
 40
0.1111111111111111
 40
0.2222222222222222
 40
0.2222222222222222
 40
0.2222222222222222
 40
0.2222222222222222
 40
0.3333333333333333
 40
0.3333333333333333
 40
0.3333333333333333
 40
0.3333333333333333
 40
0.4444444444444444
 40
0.4444444444444444
 40
0.4444444444444444
 40
0.4444444444444444
 40
0.5555555555555556
 40
0.5555555555555556
 40
0.5555555555555556
 40
0.5555555555555556
 40
0.6666666666666666
 40
0.6666666666666666
 40
0.6666666666666666
 40
0.6666666666666666
 40
0.7777777777777778
 40
0.7777777777777778
 40
0.7777777777777778
 40
0.7777777777777778
 40
1.0
 40
1.0
 40
1.0
 40
1.0
 10
-246.5699
 20
45.9055
 30
0.0
 10
-246.0725
 20
45.044
 30
0.0
 10
-245.6402
 20
44.5294
 30
0.0
 10
-245.2734
 20
44.3599
 30
0.0
 10
-245.2734
 20
44.3599
 30
0.0
 10
-244.9074
 20
44.1916
 30
0.0
 10
-244.5768
 20
44.1918
 30
0.0
 10
-244.2811
 20
44.3625
 30
0.0
 10
-244.2811
 20
44.3625
 30
0.0
 10
-243.9841
 20
44.534
 30
0.0
 10
-243.8193
 20
44.8214
 30
0.0
 10
-243.7828
 20
45.2238
 30
0.0
 10
-243.7828
 20
45.2238
 30
0.0
 10
-243.7462
 20
45.6262
 30
0.0
 10
-243.9756
 20
46.2579
 30
0.0
 10
-244.4716
 20
47.117
 30
0.0
 10
-244.4716
 20
47.117
 30
0.0
 10
-244.9705
 20
47.981
 30
0.0
 10
-245.4035
 20
48.4968
 30
0.0
 10
-245.7689
 20
48.6639
 30
0.0
 10
-245.7689
 20
48.6639
 30
0.0
 10
-246.1349
 20
48.8322
 30
0.0
 10
-246.4673
 20
48.8294
 30
0.0
 10
-246.7679
 20
48.6558
 30
0.0
 10
-246.7679
 20
48.6558
 30
0.0
 10
-247.0649
 20
48.4844
 30
0.0
 10
-247.2281
 20
48.2222
 30
0.0
 10
-247.2607
 20
47.8695
 30
0.0
 10
-247.2607
 20
47.8695
 30
0.0
 10
-247.2977
 20
47.4228
 30
0.0
 10
-247.0674
 20
46.7671
 30
0.0
 10
-246.5699
 20
45.9055
 30
0.0
  0
SPLINE
  5
6B
330
1F
100
AcDbEntity
  8
Layer 1
 62
   242
370
     9
100
AcDbSpline
210
0.0
220
0.0
230
1.0
 70
    11
 71
     3
 72
    40
 73
    36
 74
     0
 42
0.0000000001
 43
0.0000000001
 40
0.0
 40
0.0
 40
0.0
 40
0.0
 40
0.1
 40
0.1
 40
0.1
 40
0.1
 40
0.2
 40
0.2
 40
0.2
 40
0.2
 40
0.3
 40
0.3
 40
0.3
 40
0.3
 40
0.4
 40
0.4
 40
0.4
 40
0.4
 40
0.5
 40
0.5
 40
0.5
 40
0.5
 40
0.6
 40
0.6
 40
0.6
 40
0.6
 40
0.7
 40
0.7
 40
0.7
 40
0.7
 40
0.8
 40
0.8
 40
0.8
 40
0.8
 40
1.0
 40
1.0
 40
1.0
 40
1.0
 10
-284.99
 20
15.6723
 30
0.0
 10
-284.99
 20
15.6723
 30
0.0
 10
-285.6339
 20
15.3005
 30
0.0
 10
-285.6339
 20
15.3005
 30
0.0
 10
-285.6339
 20
15.3005
 30
0.0
 10
-285.6339
 20
15.3005
 30
0.0
 10
-288.0046
 20
19.4067
 30
0.0
 10
-288.0046
 20
19.4067
 30
0.0
 10
-288.0046
 20
19.4067
 30
0.0
 10
-288.0744
 20
19.1692
 30
0.0
 10
-288.192
 20
18.9042
 30
0.0
 10
-288.3583
 20
18.611
 30
0.0
 10
-288.3583
 20
18.611
 30
0.0
 10
-288.526
 20
18.3171
 30
0.0
 10
-288.6878
 20
18.0754
 30
0.0
 10
-288.8458
 20
17.8863
 30
0.0
 10
-288.8458
 20
17.8863
 30
0.0
 10
-288.8458
 20
17.8863
 30
0.0
 10
-289.205
 20
18.5084
 30
0.0
 10
-289.205
 20
18.5084
 30
0.0
 10
-289.205
 20
18.5084
 30
0.0
 10
-288.9426
 20
18.8863
 30
0.0
 10
-288.7458
 20
19.2737
 30
0.0
 10
-288.6147
 20
19.6704
 30
0.0
 10
-288.6147
 20
19.6704
 30
0.0
 10
-288.4856
 20
20.0676
 30
0.0
 10
-288.4284
 20
20.4118
 30
0.0
 10
-288.4472
 20
20.7039
 30
0.0
 10
-288.4472
 20
20.7039
 30
0.0
 10
-288.4472
 20
20.7039
 30
0.0
 10
-288.033
 20
20.9431
 30
0.0
 10
-288.033
 20
20.9431
 30
0.0
 10
-288.033
 20
20.9431
 30
0.0
 10
-288.033
 20
20.9431
 30
0.0
 10
-284.99
 20
15.6723
 30
0.0
 10
-284.99
 20
15.6723
 30
0.0
  0
SPLINE
  5
6C
330
1F
100
AcDbEntity
  8
Layer 1
 62
   242
370
     9
100
AcDbSpline
210
0.0
220
0.0
230
1.0
 70
    11
 71
     3
 72
    40
 73
    36
 74
     0
 42
0.0000000001
 43
0.0000000001
 40
0.0
 40
0.0
 40
0.0
 40
0.0
 40
0.1
 40
0.1
 40
0.1
 40
0.1
 40
0.2
 40
0.2
 40
0.2
 40
0.2
 40
0.3
 40
0.3
 40
0.3
 40
0.3
 40
0.4
 40
0.4
 40
0.4
 40
0.4
 40
0.5
 40
0.5
 40
0.5
 40
0.5
 40
0.6
 40
0.6
 40
0.6
 40
0.6
 40
0.7
 40
0.7
 40
0.7
 40
0.7
 40
0.8
 40
0.8
 40
0.8
 40
0.8
 40
1.0
 40
1.0
 40
1.0
 40
1.0
 10
-281.4557
 20
17.7128
 30
0.0
 10
-281.4557
 20
17.7128
 30
0.0
 10
-282.0997
 20
17.341
 30
0.0
 10
-282.0997
 20
17.341
 30
0.0
 10
-282.0997
 20
17.341
 30
0.0
 10
-282.0997
 20
17.341
 30
0.0
 10
-284.4704
 20
21.4472
 30
0.0
 10
-284.4704
 20
21.4472
 30
0.0
 10
-284.4704
 20
21.4472
 30
0.0
 10
-284.5402
 20
21.2097
 30
0.0
 10
-284.6577
 20
20.9447
 30
0.0
 10
-284.8241
 20
20.6515
 30
0.0
 10
-284.8241
 20
20.6515
 30
0.0
 10
-284.9917
 20
20.3576
 30
0.0
 10
-285.1535
 20
20.1159
 30
0.0
 10
-285.3116
 20
19.9268
 30
0.0
 10
-285.3116
 20
19.9268
 30
0.0
 10
-285.3116
 20
19.9268
 30
0.0
 10
-285.6707
 20
20.5489
 30
0.0
 10
-285.6707
 20
20.5489
 30
0.0
 10
-285.6707
 20
20.5489
 30
0.0
 10
-285.4083
 20
20.9268
 30
0.0
 10
-285.2116
 20
21.3142
 30
0.0
 10
-285.0805
 20
21.7109
 30
0.0
 10
-285.0805
 20
21.7109
 30
0.0
 10
-284.9513
 20
22.1081
 30
0.0
 10
-284.8942
 20
22.4523
 30
0.0
 10
-284.913
 20
22.7444
 30
0.0
 10
-284.913
 20
22.7444
 30
0.0
 10
-284.913
 20
22.7444
 30
0.0
 10
-284.4988
 20
22.9836
 30
0.0
 10
-284.4988
 20
22.9836
 30
0.0
 10
-284.4988
 20
22.9836
 30
0.0
 10
-284.4988
 20
22.9836
 30
0.0
 10
-281.4557
 20
17.7128
 30
0.0
 10
-281.4557
 20
17.7128
 30
0.0
  0
SPLINE
  5
6D
330
1F
100
AcDbEntity
  8
Layer 1
 62
   242
370
     9
100
AcDbSpline
210
0.0
220
0.0
230
1.0
 70
    11
 71
     3
 72
    40
 73
    36
 74
     0
 42
0.0000000001
 43
0.0000000001
 40
0.0
 40
0.0
 40
0.0
 40
0.0
 40
0.1
 40
0.1
 40
0.1
 40
0.1
 40
0.2
 40
0.2
 40
0.2
 40
0.2
 40
0.3
 40
0.3
 40
0.3
 40
0.3
 40
0.4
 40
0.4
 40
0.4
 40
0.4
 40
0.5
 40
0.5
 40
0.5
 40
0.5
 40
0.6
 40
0.6
 40
0.6
 40
0.6
 40
0.7
 40
0.7
 40
0.7
 40
0.7
 40
0.8
 40
0.8
 40
0.8
 40
0.8
 40
1.0
 40
1.0
 40
1.0
 40
1.0
 10
-285.9866
 20
-18.2075
 30
0.0
 10
-285.9866
 20
-18.2075
 30
0.0
 10
-286.6305
 20
-18.5793
 30
0.0
 10
-286.6305
 20
-18.5793
 30
0.0
 10
-286.6305
 20
-18.5793
 30
0.0
 10
-286.6305
 20
-18.5793
 30
0.0
 10
-289.0012
 20
-14.4731
 30
0.0
 10
-289.0012
 20
-14.4731
 30
0.0
 10
-289.0012
 20
-14.4731
 30
0.0
 10
-289.071
 20
-14.7106
 30
0.0
 10
-289.1886
 20
-14.9756
 30
0.0
 10
-289.3549
 20
-15.2689
 30
0.0
 10
-289.3549
 20
-15.2689
 30
0.0
 10
-289.5226
 20
-15.5628
 30
0.0
 10
-289.6844
 20
-15.8045
 30
0.0
 10
-289.8424
 20
-15.9935
 30
0.0
 10
-289.8424
 20
-15.9935
 30
0.0
 10
-289.8424
 20
-15.9935
 30
0.0
 10
-290.2016
 20
-15.3714
 30
0.0
 10
-290.2016
 20
-15.3714
 30
0.0
 10
-290.2016
 20
-15.3714
 30
0.0
 10
-289.9392
 20
-14.9935
 30
0.0
 10
-289.7424
 20
-14.6061
 30
0.0
 10
-289.6113
 20
-14.2094
 30
0.0
 10
-289.6113
 20
-14.2094
 30
0.0
 10
-289.4822
 20
-13.8123
 30
0.0
 10
-289.425
 20
-13.4681
 30
0.0
 10
-289.4438
 20
-13.1759
 30
0.0
 10
-289.4438
 20
-13.1759
 30
0.0
 10
-289.4438
 20
-13.1759
 30
0.0
 10
-289.0296
 20
-12.9368
 30
0.0
 10
-289.0296
 20
-12.9368
 30
0.0
 10
-289.0296
 20
-12.9368
 30
0.0
 10
-289.0296
 20
-12.9368
 30
0.0
 10
-285.9866
 20
-18.2075
 30
0.0
 10
-285.9866
 20
-18.2075
 30
0.0
  0
SPLINE
  5
6E
330
1F
100
AcDbEntity
  8
Layer 1
 62
   242
370
     9
100
AcDbSpline
210
0.0
220
0.0
230
1.0
 70
    11
 71
     3
 72
    92
 73
    88
 74
     0
 42
0.0000000001
 43
0.0000000001
 40
0.0
 40
0.0
 40
0.0
 40
0.0
 40
0.0434782608695652
 40
0.0434782608695652
 40
0.0434782608695652
 40
0.0434782608695652
 40
0.0869565217391304
 40
0.0869565217391304
 40
0.0869565217391304
 40
0.0869565217391304
 40
0.1304347826086956
 40
0.1304347826086956
 40
0.1304347826086956
 40
0.1304347826086956
 40
0.1739130434782609
 40
0.1739130434782609
 40
0.1739130434782609
 40
0.1739130434782609
 40
0.2173913043478261
 40
0.2173913043478261
 40
0.2173913043478261
 40
0.2173913043478261
 40
0.2608695652173913
 40
0.2608695652173913
 40
0.2608695652173913
 40
0.2608695652173913
 40
0.3043478260869565
 40
0.3043478260869565
 40
0.3043478260869565
 40
0.3043478260869565
 40
0.3478260869565217
 40
0.3478260869565217
 40
0.3478260869565217
 40
0.3478260869565217
 40
0.391304347826087
 40
0.391304347826087
 40
0.391304347826087
 40
0.391304347826087
 40
0.4347826086956522
 40
0.4347826086956522
 40
0.4347826086956522
 40
0.4347826086956522
 40
0.4782608695652174
 40
0.4782608695652174
 40
0.4782608695652174
 40
0.4782608695652174
 40
0.5217391304347826
 40
0.5217391304347826
 40
0.5217391304347826
 40
0.5217391304347826
 40
0.5652173913043478
 40
0.5652173913043478
 40
0.5652173913043478
 40
0.5652173913043478
 40
0.6086956521739131
 40
0.6086956521739131
 40
0.6086956521739131
 40
0.6086956521739131
 40
0.6521739130434783
 40
0.6521739130434783
 40
0.6521739130434783
 40
0.6521739130434783
 40
0.6956521739130435
 40
0.6956521739130435
 40
0.6956521739130435
 40
0.6956521739130435
 40
0.7391304347826086
 40
0.7391304347826086
 40
0.7391304347826086
 40
0.7391304347826086
 40
0.782608695652174
 40
0.782608695652174
 40
0.782608695652174
 40
0.782608695652174
 40
0.8260869565217391
 40
0.8260869565217391
 40
0.8260869565217391
 40
0.8260869565217391
 40
0.8695652173913043
 40
0.8695652173913043
 40
0.8695652173913043
 40
0.8695652173913043
 40
0.9130434782608695
 40
0.9130434782608695
 40
0.9130434782608695
 40
0.9130434782608695
 40
1.0
 40
1.0
 40
1.0
 40
1.0
 10
-281.3056
 20
-14.6789
 30
0.0
 10
-281.3056
 20
-14.6789
 30
0.0
 10
-280.9479
 20
-15.2984
 30
0.0
 10
-280.9479
 20
-15.2984
 30
0.0
 10
-280.9479
 20
-15.2984
 30
0.0
 10
-280.9479
 20
-15.2984
 30
0.0
 10
-284.4174
 20
-17.3015
 30
0.0
 10
-284.4174
 20
-17.3015
 30
0.0
 10
-284.4174
 20
-17.3015
 30
0.0
 10
-284.5119
 20
-17.1492
 30
0.0
 10
-284.5735
 20
-16.9859
 30
0.0
 10
-284.6011
 20
-16.8112
 30
0.0
 10
-284.6011
 20
-16.8112
 30
0.0
 10
-284.6499
 20
-16.5234
 30
0.0
 10
-284.6422
 20
-16.2093
 30
0.0
 10
-284.5805
 20
-15.8674
 30
0.0
 10
-284.5805
 20
-15.8674
 30
0.0
 10
-284.517
 20
-15.526
 30
0.0
 10
-284.389
 20
-15.0985
 30
0.0
 10
-284.196
 20
-14.5862
 30
0.0
 10
-284.196
 20
-14.5862
 30
0.0
 10
-283.8955
 20
-13.7887
 30
0.0
 10
-283.7232
 20
-13.1954
 30
0.0
 10
-283.6807
 20
-12.8059
 30
0.0
 10
-283.6807
 20
-12.8059
 30
0.0
 10
-283.6376
 20
-12.4178
 30
0.0
 10
-283.687
 20
-12.1008
 30
0.0
 10
-283.8274
 20
-11.8576
 30
0.0
 10
-283.8274
 20
-11.8576
 30
0.0
 10
-283.9749
 20
-11.6022
 30
0.0
 10
-284.1907
 20
-11.44
 30
0.0
 10
-284.4744
 20
-11.3692
 30
0.0
 10
-284.4744
 20
-11.3692
 30
0.0
 10
-284.7587
 20
-11.3003
 30
0.0
 10
-285.0477
 20
-11.3498
 30
0.0
 10
-285.341
 20
-11.5192
 30
0.0
 10
-285.341
 20
-11.5192
 30
0.0
 10
-285.6514
 20
-11.6984
 30
0.0
 10
-285.8459
 20
-11.9345
 30
0.0
 10
-285.9237
 20
-12.2288
 30
0.0
 10
-285.9237
 20
-12.2288
 30
0.0
 10
-286.0035
 20
-12.5224
 30
0.0
 10
-285.9486
 20
-12.8346
 30
0.0
 10
-285.7613
 20
-13.1648
 30
0.0
 10
-285.7613
 20
-13.1648
 30
0.0
 10
-285.7613
 20
-13.1648
 30
0.0
 10
-286.4625
 20
-13.48
 30
0.0
 10
-286.4625
 20
-13.48
 30
0.0
 10
-286.4625
 20
-13.48
 30
0.0
 10
-286.703
 20
-12.959
 30
0.0
 10
-286.7492
 20
-12.4837
 30
0.0
 10
-286.603
 20
-12.0539
 30
0.0
 10
-286.603
 20
-12.0539
 30
0.0
 10
-286.4569
 20
-11.624
 30
0.0
 10
-286.1333
 20
-11.2646
 30
0.0
 10
-285.6347
 20
-10.9767
 30
0.0
 10
-285.6347
 20
-10.9767
 30
0.0
 10
-285.1312
 20
-10.686
 30
0.0
 10
-284.6517
 20
-10.5965
 30
0.0
 10
-284.1975
 20
-10.7058
 30
0.0
 10
-284.1975
 20
-10.7058
 30
0.0
 10
-283.7414
 20
-10.8156
 30
0.0
 10
-283.3951
 20
-11.0768
 30
0.0
 10
-283.1566
 20
-11.4898
 30
0.0
 10
-283.1566
 20
-11.4898
 30
0.0
 10
-283.0353
 20
-11.7
 30
0.0
 10
-282.9588
 20
-11.9313
 30
0.0
 10
-282.9284
 20
-12.1843
 30
0.0
 10
-282.9284
 20
-12.1843
 30
0.0
 10
-282.8968
 20
-12.4365
 30
0.0
 10
-282.9164
 20
-12.7328
 30
0.0
 10
-282.9865
 20
-13.0716
 30
0.0
 10
-282.9865
 20
-13.0716
 30
0.0
 10
-283.0559
 20
-13.4114
 30
0.0
 10
-283.2092
 20
-13.9106
 30
0.0
 10
-283.4466
 20
-14.569
 30
0.0
 10
-283.4466
 20
-14.569
 30
0.0
 10
-283.6451
 20
-15.117
 30
0.0
 10
-283.7662
 20
-15.4802
 30
0.0
 10
-283.8091
 20
-15.6599
 30
0.0
 10
-283.8091
 20
-15.6599
 30
0.0
 10
-283.8528
 20
-15.8382
 30
0.0
 10
-283.8762
 20
-16.0065
 30
0.0
 10
-283.8805
 20
-16.1655
 30
0.0
 10
-283.8805
 20
-16.1655
 30
0.0
 10
-283.8805
 20
-16.1655
 30
0.0
 10
-281.3056
 20
-14.6789
 30
0.0
 10
-281.3056
 20
-14.6789
 30
0.0
  0
SPLINE
  5
6F
330
1F
100
AcDbEntity
  8
Layer 1
 62
   242
370
     9
100
AcDbSpline
210
0.0
220
0.0
230
1.0
 70
    11
 71
     3
 72
    40
 73
    36
 74
     0
 42
0.0000000001
 43
0.0000000001
 40
0.0
 40
0.0
 40
0.0
 40
0.0
 40
0.1
 40
0.1
 40
0.1
 40
0.1
 40
0.2
 40
0.2
 40
0.2
 40
0.2
 40
0.3
 40
0.3
 40
0.3
 40
0.3
 40
0.4
 40
0.4
 40
0.4
 40
0.4
 40
0.5
 40
0.5
 40
0.5
 40
0.5
 40
0.6
 40
0.6
 40
0.6
 40
0.6
 40
0.7
 40
0.7
 40
0.7
 40
0.7
 40
0.8
 40
0.8
 40
0.8
 40
0.8
 40
1.0
 40
1.0
 40
1.0
 40
1.0
 10
-259.7522
 20
-63.1488
 30
0.0
 10
-259.7522
 20
-63.1488
 30
0.0
 10
-260.3962
 20
-63.5206
 30
0.0
 10
-260.3962
 20
-63.5206
 30
0.0
 10
-260.3962
 20
-63.5206
 30
0.0
 10
-260.3962
 20
-63.5206
 30
0.0
 10
-262.7669
 20
-59.4145
 30
0.0
 10
-262.7669
 20
-59.4145
 30
0.0
 10
-262.7669
 20
-59.4145
 30
0.0
 10
-262.8367
 20
-59.652
 30
0.0
 10
-262.9543
 20
-59.917
 30
0.0
 10
-263.1206
 20
-60.2102
 30
0.0
 10
-263.1206
 20
-60.2102
 30
0.0
 10
-263.2882
 20
-60.5041
 30
0.0
 10
-263.4501
 20
-60.7458
 30
0.0
 10
-263.6081
 20
-60.9349
 30
0.0
 10
-263.6081
 20
-60.9349
 30
0.0
 10
-263.6081
 20
-60.9349
 30
0.0
 10
-263.9673
 20
-60.3128
 30
0.0
 10
-263.9673
 20
-60.3128
 30
0.0
 10
-263.9673
 20
-60.3128
 30
0.0
 10
-263.7049
 20
-59.9349
 30
0.0
 10
-263.5081
 20
-59.5475
 30
0.0
 10
-263.377
 20
-59.1508
 30
0.0
 10
-263.377
 20
-59.1508
 30
0.0
 10
-263.2479
 20
-58.7536
 30
0.0
 10
-263.1907
 20
-58.4094
 30
0.0
 10
-263.2095
 20
-58.1173
 30
0.0
 10
-263.2095
 20
-58.1173
 30
0.0
 10
-263.2095
 20
-58.1173
 30
0.0
 10
-262.7953
 20
-57.8781
 30
0.0
 10
-262.7953
 20
-57.8781
 30
0.0
 10
-262.7953
 20
-57.8781
 30
0.0
 10
-262.7953
 20
-57.8781
 30
0.0
 10
-259.7522
 20
-63.1488
 30
0.0
 10
-259.7522
 20
-63.1488
 30
0.0
  0
SPLINE
  5
70
330
1F
100
AcDbEntity
  8
Layer 1
 62
   242
370
     9
100
AcDbSpline
210
0.0
220
0.0
230
1.0
 70
    11
 71
     3
 72
   124
 73
   120
 74
     0
 42
0.0000000001
 43
0.0000000001
 40
0.0
 40
0.0
 40
0.0
 40
0.0
 40
0.032258064516129
 40
0.032258064516129
 40
0.032258064516129
 40
0.032258064516129
 40
0.0645161290322581
 40
0.0645161290322581
 40
0.0645161290322581
 40
0.0645161290322581
 40
0.0967741935483871
 40
0.0967741935483871
 40
0.0967741935483871
 40
0.0967741935483871
 40
0.1290322580645161
 40
0.1290322580645161
 40
0.1290322580645161
 40
0.1290322580645161
 40
0.1612903225806452
 40
0.1612903225806452
 40
0.1612903225806452
 40
0.1612903225806452
 40
0.1935483870967742
 40
0.1935483870967742
 40
0.1935483870967742
 40
0.1935483870967742
 40
0.2258064516129032
 40
0.2258064516129032
 40
0.2258064516129032
 40
0.2258064516129032
 40
0.2580645161290323
 40
0.2580645161290323
 40
0.2580645161290323
 40
0.2580645161290323
 40
0.2903225806451613
 40
0.2903225806451613
 40
0.2903225806451613
 40
0.2903225806451613
 40
0.3225806451612903
 40
0.3225806451612903
 40
0.3225806451612903
 40
0.3225806451612903
 40
0.3548387096774194
 40
0.3548387096774194
 40
0.3548387096774194
 40
0.3548387096774194
 40
0.3870967741935484
 40
0.3870967741935484
 40
0.3870967741935484
 40
0.3870967741935484
 40
0.4193548387096774
 40
0.4193548387096774
 40
0.4193548387096774
 40
0.4193548387096774
 40
0.4516129032258064
 40
0.4516129032258064
 40
0.4516129032258064
 40
0.4516129032258064
 40
0.4838709677419355
 40
0.4838709677419355
 40
0.4838709677419355
 40
0.4838709677419355
 40
0.5161290322580645
 40
0.5161290322580645
 40
0.5161290322580645
 40
0.5161290322580645
 40
0.5483870967741935
 40
0.5483870967741935
 40
0.5483870967741935
 40
0.5483870967741935
 40
0.5806451612903226
 40
0.5806451612903226
 40
0.5806451612903226
 40
0.5806451612903226
 40
0.6129032258064516
 40
0.6129032258064516
 40
0.6129032258064516
 40
0.6129032258064516
 40
0.6451612903225806
 40
0.6451612903225806
 40
0.6451612903225806
 40
0.6451612903225806
 40
0.6774193548387096
 40
0.6774193548387096
 40
0.6774193548387096
 40
0.6774193548387096
 40
0.7096774193548387
 40
0.7096774193548387
 40
0.7096774193548387
 40
0.7096774193548387
 40
0.7419354838709677
 40
0.7419354838709677
 40
0.7419354838709677
 40
0.7419354838709677
 40
0.7741935483870968
 40
0.7741935483870968
 40
0.7741935483870968
 40
0.7741935483870968
 40
0.8064516129032258
 40
0.8064516129032258
 40
0.8064516129032258
 40
0.8064516129032258
 40
0.8387096774193549
 40
0.8387096774193549
 40
0.8387096774193549
 40
0.8387096774193549
 40
0.8709677419354839
 40
0.8709677419354839
 40
0.8709677419354839
 40
0.8709677419354839
 40
0.9032258064516129
 40
0.9032258064516129
 40
0.9032258064516129
 40
0.9032258064516129
 40
0.9354838709677419
 40
0.9354838709677419
 40
0.9354838709677419
 40
0.9354838709677419
 40
1.0
 40
1.0
 40
1.0
 40
1.0
 10
-258.8976
 20
-60.8077
 30
0.0
 10
-258.8976
 20
-60.8077
 30
0.0
 10
-258.303
 20
-60.3503
 30
0.0
 10
-258.303
 20
-60.3503
 30
0.0
 10
-258.303
 20
-60.3503
 30
0.0
 10
-258.0175
 20
-60.6726
 30
0.0
 10
-257.7399
 20
-60.8627
 30
0.0
 10
-257.4696
 20
-60.9217
 30
0.0
 10
-257.4696
 20
-60.9217
 30
0.0
 10
-257.198
 20
-60.9801
 30
0.0
 10
-256.9351
 20
-60.9358
 30
0.0
 10
-256.6798
 20
-60.7883
 30
0.0
 10
-256.6798
 20
-60.7883
 30
0.0
 10
-256.3767
 20
-60.6133
 30
0.0
 10
-256.1807
 20
-60.3601
 30
0.0
 10
-256.0931
 20
-60.0292
 30
0.0
 10
-256.0931
 20
-60.0292
 30
0.0
 10
-256.0067
 20
-59.6991
 30
0.0
 10
-256.052
 20
-59.3781
 30
0.0
 10
-256.2312
 20
-59.0677
 30
0.0
 10
-256.2312
 20
-59.0677
 30
0.0
 10
-256.4019
 20
-58.772
 30
0.0
 10
-256.6395
 20
-58.5833
 30
0.0
 10
-256.9434
 20
-58.503
 30
0.0
 10
-256.9434
 20
-58.503
 30
0.0
 10
-257.2485
 20
-58.4233
 30
0.0
 10
-257.5499
 20
-58.4685
 30
0.0
 10
-257.848
 20
-58.6406
 30
0.0
 10
-257.848
 20
-58.6406
 30
0.0
 10
-257.9702
 20
-58.7112
 30
0.0
 10
-258.1076
 20
-58.8232
 30
0.0
 10
-258.261
 20
-58.9752
 30
0.0
 10
-258.261
 20
-58.9752
 30
0.0
 10
-258.261
 20
-58.9752
 30
0.0
 10
-258.5156
 20
-58.3679
 30
0.0
 10
-258.5156
 20
-58.3679
 30
0.0
 10
-258.5156
 20
-58.3679
 30
0.0
 10
-258.47
 20
-58.348
 30
0.0
 10
-258.4344
 20
-58.3307
 30
0.0
 10
-258.4074
 20
-58.3151
 30
0.0
 10
-258.4074
 20
-58.3151
 30
0.0
 10
-258.1337
 20
-58.1571
 30
0.0
 10
-257.9285
 20
-57.9425
 30
0.0
 10
-257.791
 20
-57.6726
 30
0.0
 10
-257.791
 20
-57.6726
 30
0.0
 10
-257.6536
 20
-57.4026
 30
0.0
 10
-257.6713
 20
-57.1179
 30
0.0
 10
-257.8435
 20
-56.8196
 30
0.0
 10
-257.8435
 20
-56.8196
 30
0.0
 10
-257.9797
 20
-56.5838
 30
0.0
 10
-258.1739
 20
-56.4336
 30
0.0
 10
-258.4229
 20
-56.3721
 30
0.0
 10
-258.4229
 20
-56.3721
 30
0.0
 10
-258.6726
 20
-56.3093
 30
0.0
 10
-258.9243
 20
-56.3503
 30
0.0
 10
-259.1772
 20
-56.4964
 30
0.0
 10
-259.1772
 20
-56.4964
 30
0.0
 10
-259.4278
 20
-56.641
 30
0.0
 10
-259.5909
 20
-56.8411
 30
0.0
 10
-259.6668
 20
-57.0934
 30
0.0
 10
-259.6668
 20
-57.0934
 30
0.0
 10
-259.7432
 20
-57.3478
 30
0.0
 10
-259.7139
 20
-57.6469
 30
0.0
 10
-259.5795
 20
-57.9898
 30
0.0
 10
-259.5795
 20
-57.9898
 30
0.0
 10
-259.5795
 20
-57.9898
 30
0.0
 10
-260.2899
 20
-58.2467
 30
0.0
 10
-260.2899
 20
-58.2467
 30
0.0
 10
-260.2899
 20
-58.2467
 30
0.0
 10
-260.4614
 20
-57.7689
 30
0.0
 10
-260.4751
 20
-57.3304
 30
0.0
 10
-260.3333
 20
-56.9324
 30
0.0
 10
-260.3333
 20
-56.9324
 30
0.0
 10
-260.1904
 20
-56.5338
 30
0.0
 10
-259.9124
 20
-56.2137
 30
0.0
 10
-259.4969
 20
-55.9738
 30
0.0
 10
-259.4969
 20
-55.9738
 30
0.0
 10
-259.2109
 20
-55.8087
 30
0.0
 10
-258.911
 20
-55.7185
 30
0.0
 10
-258.5998
 20
-55.7018
 30
0.0
 10
-258.5998
 20
-55.7018
 30
0.0
 10
-258.2877
 20
-55.6863
 30
0.0
 10
-258.0065
 20
-55.7471
 30
0.0
 10
-257.7554
 20
-55.8856
 30
0.0
 10
-257.7554
 20
-55.8856
 30
0.0
 10
-257.5056
 20
-56.0249
 30
0.0
 10
-257.311
 20
-56.2124
 30
0.0
 10
-257.1727
 20
-56.452
 30
0.0
 10
-257.1727
 20
-56.452
 30
0.0
 10
-257.0422
 20
-56.678
 30
0.0
 10
-256.984
 20
-56.9198
 30
0.0
 10
-256.9983
 20
-57.1773
 30
0.0
 10
-256.9983
 20
-57.1773
 30
0.0
 10
-257.0133
 20
-57.4337
 30
0.0
 10
-257.1075
 20
-57.6852
 30
0.0
 10
-257.2824
 20
-57.9328
 30
0.0
 10
-257.2824
 20
-57.9328
 30
0.0
 10
-256.931
 20
-57.8245
 30
0.0
 10
-256.6042
 20
-57.8345
 30
0.0
 10
-256.3013
 20
-57.9612
 30
0.0
 10
-256.3013
 20
-57.9612
 30
0.0
 10
-256.0004
 20
-58.0872
 30
0.0
 10
-255.7519
 20
-58.3201
 30
0.0
 10
-255.5564
 20
-58.6586
 30
0.0
 10
-255.5564
 20
-58.6586
 30
0.0
 10
-255.2918
 20
-59.1169
 30
0.0
 10
-255.2337
 20
-59.6015
 30
0.0
 10
-255.3844
 20
-60.1138
 30
0.0
 10
-255.3844
 20
-60.1138
 30
0.0
 10
-255.5338
 20
-60.6253
 30
0.0
 10
-255.865
 20
-61.0283
 30
0.0
 10
-256.3758
 20
-61.3232
 30
0.0
 10
-256.3758
 20
-61.3232
 30
0.0
 10
-256.8365
 20
-61.5892
 30
0.0
 10
-257.298
 20
-61.6732
 30
0.0
 10
-257.7611
 20
-61.574
 30
0.0
 10
-257.7611
 20
-61.574
 30
0.0
 10
-258.2234
 20
-61.4759
 30
0.0
 10
-258.6023
 20
-61.2205
 30
0.0
 10
-258.8976
 20
-60.8077
 30
0.0
  0
SPLINE
  5
71
330
1F
100
AcDbEntity
  8
Layer 1
370
     9
100
AcDbSpline
210
0.0
220
0.0
230
1.0
 70
    11
 71
     3
 72
   100
 73
    96
 74
     0
 42
0.0000000001
 43
0.0000000001
 40
0.0
 40
0.0
 40
0.0
 40
0.0
 40
0.04
 40
0.04
 40
0.04
 40
0.04
 40
0.08
 40
0.08
 40
0.08
 40
0.08
 40
0.12
 40
0.12
 40
0.12
 40
0.12
 40
0.16
 40
0.16
 40
0.16
 40
0.16
 40
0.2
 40
0.2
 40
0.2
 40
0.2
 40
0.24
 40
0.24
 40
0.24
 40
0.24
 40
0.28
 40
0.28
 40
0.28
 40
0.28
 40
0.32
 40
0.32
 40
0.32
 40
0.32
 40
0.36
 40
0.36
 40
0.36
 40
0.36
 40
0.4
 40
0.4
 40
0.4
 40
0.4
 40
0.44
 40
0.44
 40
0.44
 40
0.44
 40
0.48
 40
0.48
 40
0.48
 40
0.48
 40
0.52
 40
0.52
 40
0.52
 40
0.52
 40
0.56
 40
0.56
 40
0.56
 40
0.56
 40
0.6
 40
0.6
 40
0.6
 40
0.6
 40
0.64
 40
0.64
 40
0.64
 40
0.64
 40
0.68
 40
0.68
 40
0.68
 40
0.68
 40
0.72
 40
0.72
 40
0.72
 40
0.72
 40
0.76
 40
0.76
 40
0.76
 40
0.76
 40
0.8
 40
0.8
 40
0.8
 40
0.8
 40
0.84
 40
0.84
 40
0.84
 40
0.84
 40
0.88
 40
0.88
 40
0.88
 40
0.88
 40
0.92
 40
0.92
 40
0.92
 40
0.92
 40
1.0
 40
1.0
 40
1.0
 40
1.0
 10
117.956
 20
60.8266
 30
0.0
 10
117.956
 20
60.8266
 30
0.0
 10
106.7401
 20
54.3514
 30
0.0
 10
106.7401
 20
54.3514
 30
0.0
 10
106.7401
 20
54.3514
 30
0.0
 10
106.7401
 20
54.3514
 30
0.0
 10
113.7731
 20
42.1693
 30
0.0
 10
113.7731
 20
42.1693
 30
0.0
 10
113.7731
 20
42.1693
 30
0.0
 10
113.7731
 20
42.1693
 30
0.0
 10
59.9607
 20
11.1008
 30
0.0
 10
59.9607
 20
11.1008
 30
0.0
 10
59.9607
 20
11.1008
 30
0.0
 10
59.9607
 20
11.1008
 30
0.0
 10
50.211
 20
27.9872
 30
0.0
 10
50.211
 20
27.9872
 30
0.0
 10
50.211
 20
27.9872
 30
0.0
 10
50.211
 20
27.9872
 30
0.0
 10
-31.4528
 20
-19.1612
 30
0.0
 10
-31.4528
 20
-19.1612
 30
0.0
 10
-31.4528
 20
-19.1612
 30
0.0
 10
-31.4528
 20
-19.1612
 30
0.0
 10
-19.6658
 20
-39.5771
 30
0.0
 10
-19.6658
 20
-39.5771
 30
0.0
 10
-19.6658
 20
-39.5771
 30
0.0
 10
-19.6658
 20
-39.5771
 30
0.0
 10
-38.822
 20
-50.6367
 30
0.0
 10
-38.822
 20
-50.6367
 30
0.0
 10
-38.822
 20
-50.6367
 30
0.0
 10
-38.822
 20
-50.6367
 30
0.0
 10
13.8572
 20
-141.8795
 30
0.0
 10
13.8572
 20
-141.8795
 30
0.0
 10
13.8572
 20
-141.8795
 30
0.0
 10
13.8572
 20
-141.8795
 30
0.0
 10
33.0131
 20
-130.8199
 30
0.0
 10
33.0131
 20
-130.8199
 30
0.0
 10
33.0131
 20
-130.8199
 30
0.0
 10
33.0131
 20
-130.8199
 30
0.0
 10
44.8001
 20
-151.2355
 30
0.0
 10
44.8001
 20
-151.2355
 30
0.0
 10
44.8001
 20
-151.2355
 30
0.0
 10
44.8001
 20
-151.2355
 30
0.0
 10
126.4639
 20
-104.0868
 30
0.0
 10
126.4639
 20
-104.0868
 30
0.0
 10
126.4639
 20
-104.0868
 30
0.0
 10
126.4639
 20
-104.0868
 30
0.0
 10
116.7138
 20
-87.1996
 30
0.0
 10
116.7138
 20
-87.1996
 30
0.0
 10
116.7138
 20
-87.1996
 30
0.0
 10
116.7138
 20
-87.1996
 30
0.0
 10
170.5266
 20
-56.1305
 30
0.0
 10
170.5266
 20
-56.1305
 30
0.0
 10
170.5266
 20
-56.1305
 30
0.0
 10
170.5266
 20
-56.1305
 30
0.0
 10
177.5602
 20
-68.3126
 30
0.0
 10
177.5602
 20
-68.3126
 30
0.0
 10
177.5602
 20
-68.3126
 30
0.0
 10
177.5602
 20
-68.3126
 30
0.0
 10
188.7761
 20
-61.8374
 30
0.0
 10
188.7761
 20
-61.8374
 30
0.0
 10
188.7761
 20
-61.8374
 30
0.0
 10
188.7761
 20
-61.8374
 30
0.0
 10
200.8062
 20
-82.6739
 30
0.0
 10
200.8062
 20
-82.6739
 30
0.0
 10
200.8062
 20
-82.6739
 30
0.0
 10
200.8062
 20
-82.6739
 30
0.0
 10
299.1056
 20
-25.9207
 30
0.0
 10
299.1056
 20
-25.9207
 30
0.0
 10
299.1056
 20
-25.9207
 30
0.0
 10
299.1056
 20
-25.9207
 30
0.0
 10
282.6612
 20
2.5611
 30
0.0
 10
282.6612
 20
2.5611
 30
0.0
 10
282.6612
 20
2.5611
 30
0.0
 10
282.6612
 20
2.5611
 30
0.0
 10
297.7844
 20
11.2924
 30
0.0
 10
297.7844
 20
11.2924
 30
0.0
 10
297.7844
 20
11.2924
 30
0.0
 10
297.7844
 20
11.2924
 30
0.0
 10
235.7922
 20
118.6659
 30
0.0
 10
235.7922
 20
118.6659
 30
0.0
 10
235.7922
 20
118.6659
 30
0.0
 10
235.7922
 20
118.6659
 30
0.0
 10
220.6693
 20
109.9347
 30
0.0
 10
220.6693
 20
109.9347
 30
0.0
 10
220.6693
 20
109.9347
 30
0.0
 10
220.6693
 20
109.9347
 30
0.0
 10
204.2253
 20
138.4162
 30
0.0
 10
204.2253
 20
138.4162
 30
0.0
 10
204.2253
 20
138.4162
 30
0.0
 10
204.2253
 20
138.4162
 30
0.0
 10
105.9259
 20
81.6631
 30
0.0
 10
105.9259
 20
81.6631
 30
0.0
 10
105.9259
 20
81.6631
 30
0.0
 10
105.9259
 20
81.6631
 30
0.0
 10
117.956
 20
60.8266
 30
0.0
 10
117.956
 20
60.8266
 30
0.0
  0
SPLINE
  5
72
330
1F
100
AcDbEntity
  8
Layer 1
 62
   250
370
     9
100
AcDbSpline
210
0.0
220
0.0
230
1.0
 70
     8
 71
     3
 72
    16
 73
    12
 74
     0
 42
0.0000000001
 43
0.0000000001
 40
0.0
 40
0.0
 40
0.0
 40
0.0
 40
0.25
 40
0.25
 40
0.25
 40
0.25
 40
0.5
 40
0.5
 40
0.5
 40
0.5
 40
1.0
 40
1.0
 40
1.0
 40
1.0
 10
23.3905
 20
-136.3754
 30
0.0
 10
23.3905
 20
-136.3754
 30
0.0
 10
21.041
 20
-132.306
 30
0.0
 10
21.041
 20
-132.306
 30
0.0
 10
21.041
 20
-132.306
 30
0.0
 10
21.041
 20
-132.306
 30
0.0
 10
25.1105
 20
-129.9565
 30
0.0
 10
25.1105
 20
-129.9565
 30
0.0
 10
25.1105
 20
-129.9565
 30
0.0
 10
25.1105
 20
-129.9565
 30
0.0
 10
27.46
 20
-134.0259
 30
0.0
 10
27.46
 20
-134.0259
 30
0.0
  0
SPLINE
  5
73
330
1F
100
AcDbEntity
  8
Layer 1
 62
   250
370
     9
100
AcDbSpline
210
0.0
220
0.0
230
1.0
 70
     8
 71
     3
 72
    16
 73
    12
 74
     0
 42
0.0000000001
 43
0.0000000001
 40
0.0
 40
0.0
 40
0.0
 40
0.0
 40
0.25
 40
0.25
 40
0.25
 40
0.25
 40
0.5
 40
0.5
 40
0.5
 40
0.5
 40
1.0
 40
1.0
 40
1.0
 40
1.0
 10
-13.6572
 20
-94.2233
 30
0.0
 10
-13.6572
 20
-94.2233
 30
0.0
 10
-9.5877
 20
-91.8738
 30
0.0
 10
-9.5877
 20
-91.8738
 30
0.0
 10
-9.5877
 20
-91.8738
 30
0.0
 10
-9.5877
 20
-91.8738
 30
0.0
 10
-7.2382
 20
-95.9433
 30
0.0
 10
-7.2382
 20
-95.9433
 30
0.0
 10
-7.2382
 20
-95.9433
 30
0.0
 10
-7.2382
 20
-95.9433
 30
0.0
 10
-11.3077
 20
-98.2928
 30
0.0
 10
-11.3077
 20
-98.2928
 30
0.0
  0
SPLINE
  5
74
330
1F
100
AcDbEntity
  8
Layer 1
 62
   250
370
     9
100
AcDbSpline
210
0.0
220
0.0
230
1.0
 70
     8
 71
     3
 72
    16
 73
    12
 74
     0
 42
0.0000000001
 43
0.0000000001
 40
0.0
 40
0.0
 40
0.0
 40
0.0
 40
0.25
 40
0.25
 40
0.25
 40
0.25
 40
0.5
 40
0.5
 40
0.5
 40
0.5
 40
1.0
 40
1.0
 40
1.0
 40
1.0
 10
35.3581
 20
-134.8814
 30
0.0
 10
35.3581
 20
-134.8814
 30
0.0
 10
39.4275
 20
-132.5319
 30
0.0
 10
39.4275
 20
-132.5319
 30
0.0
 10
39.4275
 20
-132.5319
 30
0.0
 10
39.4275
 20
-132.5319
 30
0.0
 10
41.777
 20
-136.6013
 30
0.0
 10
41.777
 20
-136.6013
 30
0.0
 10
41.777
 20
-136.6013
 30
0.0
 10
41.777
 20
-136.6013
 30
0.0
 10
37.7076
 20
-138.9508
 30
0.0
 10
37.7076
 20
-138.9508
 30
0.0
  0
SPLINE
  5
75
330
1F
100
AcDbEntity
  8
Layer 1
 62
   250
370
     9
100
AcDbSpline
210
0.0
220
0.0
230
1.0
 70
     8
 71
     3
 72
    16
 73
    12
 74
     0
 42
0.0000000001
 43
0.0000000001
 40
0.0
 40
0.0
 40
0.0
 40
0.0
 40
0.25
 40
0.25
 40
0.25
 40
0.25
 40
0.5
 40
0.5
 40
0.5
 40
0.5
 40
1.0
 40
1.0
 40
1.0
 40
1.0
 10
83.5365
 20
-128.8709
 30
0.0
 10
83.5365
 20
-128.8709
 30
0.0
 10
81.187
 20
-124.8014
 30
0.0
 10
81.187
 20
-124.8014
 30
0.0
 10
81.187
 20
-124.8014
 30
0.0
 10
81.187
 20
-124.8014
 30
0.0
 10
85.2564
 20
-122.4519
 30
0.0
 10
85.2564
 20
-122.4519
 30
0.0
 10
85.2564
 20
-122.4519
 30
0.0
 10
85.2564
 20
-122.4519
 30
0.0
 10
87.6059
 20
-126.5214
 30
0.0
 10
87.6059
 20
-126.5214
 30
0.0
  0
SPLINE
  5
76
330
1F
100
AcDbEntity
  8
Layer 1
 62
   250
370
     9
100
AcDbSpline
210
0.0
220
0.0
230
1.0
 70
     8
 71
     3
 72
    16
 73
    12
 74
     0
 42
0.0000000001
 43
0.0000000001
 40
0.0
 40
0.0
 40
0.0
 40
0.0
 40
0.25
 40
0.25
 40
0.25
 40
0.25
 40
0.5
 40
0.5
 40
0.5
 40
0.5
 40
1.0
 40
1.0
 40
1.0
 40
1.0
 10
141.5854
 20
-72.8397
 30
0.0
 10
141.5854
 20
-72.8397
 30
0.0
 10
139.2359
 20
-68.7702
 30
0.0
 10
139.2359
 20
-68.7702
 30
0.0
 10
139.2359
 20
-68.7702
 30
0.0
 10
139.2359
 20
-68.7702
 30
0.0
 10
143.3053
 20
-66.4207
 30
0.0
 10
143.3053
 20
-66.4207
 30
0.0
 10
143.3053
 20
-66.4207
 30
0.0
 10
143.3053
 20
-66.4207
 30
0.0
 10
145.6548
 20
-70.4902
 30
0.0
 10
145.6548
 20
-70.4902
 30
0.0
  0
SPLINE
  5
77
330
1F
100
AcDbEntity
  8
Layer 1
 62
   250
370
     9
100
AcDbSpline
210
0.0
220
0.0
230
1.0
 70
     8
 71
     3
 72
    16
 73
    12
 74
     0
 42
0.0000000001
 43
0.0000000001
 40
0.0
 40
0.0
 40
0.0
 40
0.0
 40
0.25
 40
0.25
 40
0.25
 40
0.25
 40
0.5
 40
0.5
 40
0.5
 40
0.5
 40
1.0
 40
1.0
 40
1.0
 40
1.0
 10
57.435
 20
15.4749
 30
0.0
 10
57.435
 20
15.4749
 30
0.0
 10
53.3656
 20
13.1254
 30
0.0
 10
53.3656
 20
13.1254
 30
0.0
 10
53.3656
 20
13.1254
 30
0.0
 10
53.3656
 20
13.1254
 30
0.0
 10
51.0161
 20
17.1949
 30
0.0
 10
51.0161
 20
17.1949
 30
0.0
 10
51.0161
 20
17.1949
 30
0.0
 10
51.0161
 20
17.1949
 30
0.0
 10
55.0855
 20
19.5444
 30
0.0
 10
55.0855
 20
19.5444
 30
0.0
  0
SPLINE
  5
78
330
1F
100
AcDbEntity
  8
Layer 1
 62
   250
370
     9
100
AcDbSpline
210
0.0
220
0.0
230
1.0
 70
     8
 71
     3
 72
    16
 73
    12
 74
     0
 42
0.0000000001
 43
0.0000000001
 40
0.0
 40
0.0
 40
0.0
 40
0.0
 40
0.25
 40
0.25
 40
0.25
 40
0.25
 40
0.5
 40
0.5
 40
0.5
 40
0.5
 40
1.0
 40
1.0
 40
1.0
 40
1.0
 10
88.923
 20
27.8265
 30
0.0
 10
88.923
 20
27.8265
 30
0.0
 10
91.2725
 20
23.7571
 30
0.0
 10
91.2725
 20
23.7571
 30
0.0
 10
91.2725
 20
23.7571
 30
0.0
 10
91.2725
 20
23.7571
 30
0.0
 10
87.2031
 20
21.4076
 30
0.0
 10
87.2031
 20
21.4076
 30
0.0
 10
87.2031
 20
21.4076
 30
0.0
 10
87.2031
 20
21.4076
 30
0.0
 10
84.8536
 20
25.477
 30
0.0
 10
84.8536
 20
25.477
 30
0.0
  0
SPLINE
  5
79
330
1F
100
AcDbEntity
  8
Layer 1
 62
   250
370
     9
100
AcDbSpline
210
0.0
220
0.0
230
1.0
 70
     8
 71
     3
 72
    16
 73
    12
 74
     0
 42
0.0000000001
 43
0.0000000001
 40
0.0
 40
0.0
 40
0.0
 40
0.0
 40
0.25
 40
0.25
 40
0.25
 40
0.25
 40
0.5
 40
0.5
 40
0.5
 40
0.5
 40
1.0
 40
1.0
 40
1.0
 40
1.0
 10
156.9498
 20
111.1233
 30
0.0
 10
156.9498
 20
111.1233
 30
0.0
 10
159.2993
 20
107.0539
 30
0.0
 10
159.2993
 20
107.0539
 30
0.0
 10
159.2993
 20
107.0539
 30
0.0
 10
159.2993
 20
107.0539
 30
0.0
 10
155.2298
 20
104.7044
 30
0.0
 10
155.2298
 20
104.7044
 30
0.0
 10
155.2298
 20
104.7044
 30
0.0
 10
155.2298
 20
104.7044
 30
0.0
 10
152.8803
 20
108.7738
 30
0.0
 10
152.8803
 20
108.7738
 30
0.0
  0
SPLINE
  5
7A
330
1F
100
AcDbEntity
  8
Layer 1
 62
   250
370
     9
100
AcDbSpline
210
0.0
220
0.0
230
1.0
 70
     8
 71
     3
 72
    16
 73
    12
 74
     0
 42
0.0000000001
 43
0.0000000001
 40
0.0
 40
0.0
 40
0.0
 40
0.0
 40
0.25
 40
0.25
 40
0.25
 40
0.25
 40
0.5
 40
0.5
 40
0.5
 40
0.5
 40
1.0
 40
1.0
 40
1.0
 40
1.0
 10
267.963
 20
62.9444
 30
0.0
 10
267.963
 20
62.9444
 30
0.0
 10
263.8935
 20
60.5949
 30
0.0
 10
263.8935
 20
60.5949
 30
0.0
 10
263.8935
 20
60.5949
 30
0.0
 10
263.8935
 20
60.5949
 30
0.0
 10
261.544
 20
64.6644
 30
0.0
 10
261.544
 20
64.6644
 30
0.0
 10
261.544
 20
64.6644
 30
0.0
 10
261.544
 20
64.6644
 30
0.0
 10
265.6135
 20
67.0139
 30
0.0
 10
265.6135
 20
67.0139
 30
0.0
  0
SPLINE
  5
7B
330
1F
100
AcDbEntity
  8
Layer 1
 62
   250
370
     9
100
AcDbSpline
210
0.0
220
0.0
230
1.0
 70
     8
 71
     3
 72
    16
 73
    12
 74
     0
 42
0.0000000001
 43
0.0000000001
 40
0.0
 40
0.0
 40
0.0
 40
0.0
 40
0.25
 40
0.25
 40
0.25
 40
0.25
 40
0.5
 40
0.5
 40
0.5
 40
0.5
 40
1.0
 40
1.0
 40
1.0
 40
1.0
 10
286.068
 20
4.528
 30
0.0
 10
286.068
 20
4.528
 30
0.0
 10
283.7185
 20
8.5975
 30
0.0
 10
283.7185
 20
8.5975
 30
0.0
 10
283.7185
 20
8.5975
 30
0.0
 10
283.7185
 20
8.5975
 30
0.0
 10
287.7879
 20
10.947
 30
0.0
 10
287.7879
 20
10.947
 30
0.0
 10
287.7879
 20
10.947
 30
0.0
 10
287.7879
 20
10.947
 30
0.0
 10
290.1374
 20
6.8775
 30
0.0
 10
290.1374
 20
6.8775
 30
0.0
  0
SPLINE
  5
7C
330
1F
100
AcDbEntity
  8
Layer 1
 62
   250
370
     9
100
AcDbSpline
210
0.0
220
0.0
230
1.0
 70
     8
 71
     3
 72
    16
 73
    12
 74
     0
 42
0.0000000001
 43
0.0000000001
 40
0.0
 40
0.0
 40
0.0
 40
0.0
 40
0.25
 40
0.25
 40
0.25
 40
0.25
 40
0.5
 40
0.5
 40
0.5
 40
0.5
 40
1.0
 40
1.0
 40
1.0
 40
1.0
 10
293.2327
 20
-15.7494
 30
0.0
 10
293.2327
 20
-15.7494
 30
0.0
 10
289.1632
 20
-18.0989
 30
0.0
 10
289.1632
 20
-18.0989
 30
0.0
 10
289.1632
 20
-18.0989
 30
0.0
 10
289.1632
 20
-18.0989
 30
0.0
 10
286.8137
 20
-14.0294
 30
0.0
 10
286.8137
 20
-14.0294
 30
0.0
 10
286.8137
 20
-14.0294
 30
0.0
 10
286.8137
 20
-14.0294
 30
0.0
 10
290.8832
 20
-11.6799
 30
0.0
 10
290.8832
 20
-11.6799
 30
0.0
  0
SPLINE
  5
7D
330
1F
100
AcDbEntity
  8
Layer 1
 62
   250
370
     9
100
AcDbSpline
210
0.0
220
0.0
230
1.0
 70
     8
 71
     3
 72
    16
 73
    12
 74
     0
 42
0.0000000001
 43
0.0000000001
 40
0.0
 40
0.0
 40
0.0
 40
0.0
 40
0.25
 40
0.25
 40
0.25
 40
0.25
 40
0.5
 40
0.5
 40
0.5
 40
0.5
 40
1.0
 40
1.0
 40
1.0
 40
1.0
 10
192.4416
 20
-68.1862
 30
0.0
 10
192.4416
 20
-68.1862
 30
0.0
 10
196.5111
 20
-65.8367
 30
0.0
 10
196.5111
 20
-65.8367
 30
0.0
 10
196.5111
 20
-65.8367
 30
0.0
 10
196.5111
 20
-65.8367
 30
0.0
 10
198.8606
 20
-69.9062
 30
0.0
 10
198.8606
 20
-69.9062
 30
0.0
 10
198.8606
 20
-69.9062
 30
0.0
 10
198.8606
 20
-69.9062
 30
0.0
 10
194.7911
 20
-72.2557
 30
0.0
 10
194.7911
 20
-72.2557
 30
0.0
  0
SPLINE
  5
7E
330
1F
100
AcDbEntity
  8
Layer 1
 62
   250
370
     9
100
AcDbSpline
210
0.0
220
0.0
230
1.0
 70
     8
 71
     3
 72
    16
 73
    12
 74
     0
 42
0.0000000001
 43
0.0000000001
 40
0.0
 40
0.0
 40
0.0
 40
0.0
 40
0.25
 40
0.25
 40
0.25
 40
0.25
 40
0.5
 40
0.5
 40
0.5
 40
0.5
 40
1.0
 40
1.0
 40
1.0
 40
1.0
 10
183.1679
 20
-65.075
 30
0.0
 10
183.1679
 20
-65.075
 30
0.0
 10
180.8184
 20
-61.0056
 30
0.0
 10
180.8184
 20
-61.0056
 30
0.0
 10
180.8184
 20
-61.0056
 30
0.0
 10
180.8184
 20
-61.0056
 30
0.0
 10
184.8879
 20
-58.6561
 30
0.0
 10
184.8879
 20
-58.6561
 30
0.0
 10
184.8879
 20
-58.6561
 30
0.0
 10
184.8879
 20
-58.6561
 30
0.0
 10
187.2374
 20
-62.7255
 30
0.0
 10
187.2374
 20
-62.7255
 30
0.0
  0
SPLINE
  5
7F
330
1F
100
AcDbEntity
  8
Layer 1
 62
   250
370
     9
100
AcDbSpline
210
0.0
220
0.0
230
1.0
 70
     8
 71
     3
 72
    16
 73
    12
 74
     0
 42
0.0000000001
 43
0.0000000001
 40
0.0
 40
0.0
 40
0.0
 40
0.0
 40
0.25
 40
0.25
 40
0.25
 40
0.25
 40
0.5
 40
0.5
 40
0.5
 40
0.5
 40
1.0
 40
1.0
 40
1.0
 40
1.0
 10
172.8701
 20
-60.1888
 30
0.0
 10
172.8701
 20
-60.1888
 30
0.0
 10
176.9395
 20
-57.8393
 30
0.0
 10
176.9395
 20
-57.8393
 30
0.0
 10
176.9395
 20
-57.8393
 30
0.0
 10
176.9395
 20
-57.8393
 30
0.0
 10
179.289
 20
-61.9087
 30
0.0
 10
179.289
 20
-61.9087
 30
0.0
 10
179.289
 20
-61.9087
 30
0.0
 10
179.289
 20
-61.9087
 30
0.0
 10
175.2196
 20
-64.2582
 30
0.0
 10
175.2196
 20
-64.2582
 30
0.0
  0
SPLINE
  5
80
330
1F
100
AcDbEntity
  8
Layer 1
 62
   250
370
     9
100
AcDbSpline
210
0.0
220
0.0
230
1.0
 70
     8
 71
     3
 72
    16
 73
    12
 74
     0
 42
0.0000000001
 43
0.0000000001
 40
0.0
 40
0.0
 40
0.0
 40
0.0
 40
0.25
 40
0.25
 40
0.25
 40
0.25
 40
0.5
 40
0.5
 40
0.5
 40
0.5
 40
1.0
 40
1.0
 40
1.0
 40
1.0
 10
-25.1745
 20
-42.7574
 30
0.0
 10
-25.1745
 20
-42.7574
 30
0.0
 10
-22.825
 20
-46.8268
 30
0.0
 10
-22.825
 20
-46.8268
 30
0.0
 10
-22.825
 20
-46.8268
 30
0.0
 10
-22.825
 20
-46.8268
 30
0.0
 10
-26.8944
 20
-49.1763
 30
0.0
 10
-26.8944
 20
-49.1763
 30
0.0
 10
-26.8944
 20
-49.1763
 30
0.0
 10
-26.8944
 20
-49.1763
 30
0.0
 10
-29.2439
 20
-45.1069
 30
0.0
 10
-29.2439
 20
-45.1069
 30
0.0
  0
SPLINE
  5
81
330
1F
100
AcDbEntity
  8
Layer 1
 62
   250
370
     9
100
AcDbSpline
210
0.0
220
0.0
230
1.0
 70
     8
 71
     3
 72
    16
 73
    12
 74
     0
 42
0.0000000001
 43
0.0000000001
 40
0.0
 40
0.0
 40
0.0
 40
0.0
 40
0.25
 40
0.25
 40
0.25
 40
0.25
 40
0.5
 40
0.5
 40
0.5
 40
0.5
 40
1.0
 40
1.0
 40
1.0
 40
1.0
 10
-24.3601
 20
-31.4459
 30
0.0
 10
-24.3601
 20
-31.4459
 30
0.0
 10
-20.2906
 20
-29.0964
 30
0.0
 10
-20.2906
 20
-29.0964
 30
0.0
 10
-20.2906
 20
-29.0964
 30
0.0
 10
-20.2906
 20
-29.0964
 30
0.0
 10
-17.9411
 20
-33.1659
 30
0.0
 10
-17.9411
 20
-33.1659
 30
0.0
 10
-17.9411
 20
-33.1659
 30
0.0
 10
-17.9411
 20
-33.1659
 30
0.0
 10
-22.0106
 20
-35.5154
 30
0.0
 10
-22.0106
 20
-35.5154
 30
0.0
  0
SPLINE
  5
82
330
1F
100
AcDbEntity
  8
Layer 1
 62
   250
370
     9
100
AcDbSpline
210
0.0
220
0.0
230
1.0
 70
     8
 71
     3
 72
    16
 73
    12
 74
     0
 42
0.0000000001
 43
0.0000000001
 40
0.0
 40
0.0
 40
0.0
 40
0.0
 40
0.25
 40
0.25
 40
0.25
 40
0.25
 40
0.5
 40
0.5
 40
0.5
 40
0.5
 40
1.0
 40
1.0
 40
1.0
 40
1.0
 10
11.353
 20
5.5526
 30
0.0
 10
11.353
 20
5.5526
 30
0.0
 10
13.7025
 20
1.4831
 30
0.0
 10
13.7025
 20
1.4831
 30
0.0
 10
13.7025
 20
1.4831
 30
0.0
 10
13.7025
 20
1.4831
 30
0.0
 10
9.633
 20
-0.8664
 30
0.0
 10
9.633
 20
-0.8664
 30
0.0
 10
9.633
 20
-0.8664
 30
0.0
 10
9.633
 20
-0.8664
 30
0.0
 10
7.2835
 20
3.2031
 30
0.0
 10
7.2835
 20
3.2031
 30
0.0
  0
SPLINE
  5
83
330
1F
100
AcDbEntity
  8
Layer 1
 62
   250
370
     9
100
AcDbSpline
210
0.0
220
0.0
230
1.0
 70
     8
 71
     3
 72
    16
 73
    12
 74
     0
 42
0.0000000001
 43
0.0000000001
 40
0.0
 40
0.0
 40
0.0
 40
0.0
 40
0.25
 40
0.25
 40
0.25
 40
0.25
 40
0.5
 40
0.5
 40
0.5
 40
0.5
 40
1.0
 40
1.0
 40
1.0
 40
1.0
 10
109.0806
 20
50.2973
 30
0.0
 10
109.0806
 20
50.2973
 30
0.0
 10
113.15
 20
52.6468
 30
0.0
 10
113.15
 20
52.6468
 30
0.0
 10
113.15
 20
52.6468
 30
0.0
 10
113.15
 20
52.6468
 30
0.0
 10
115.4995
 20
48.5774
 30
0.0
 10
115.4995
 20
48.5774
 30
0.0
 10
115.4995
 20
48.5774
 30
0.0
 10
115.4995
 20
48.5774
 30
0.0
 10
111.4301
 20
46.2279
 30
0.0
 10
111.4301
 20
46.2279
 30
0.0
  0
SPLINE
  5
84
330
1F
100
AcDbEntity
  8
Layer 1
 62
   250
370
     9
100
AcDbSpline
210
0.0
220
0.0
230
1.0
 70
     8
 71
     3
 72
    16
 73
    12
 74
     0
 42
0.0000000001
 43
0.0000000001
 40
0.0
 40
0.0
 40
0.0
 40
0.0
 40
0.25
 40
0.25
 40
0.25
 40
0.25
 40
0.5
 40
0.5
 40
0.5
 40
0.5
 40
1.0
 40
1.0
 40
1.0
 40
1.0
 10
116.4174
 20
59.9384
 30
0.0
 10
116.4174
 20
59.9384
 30
0.0
 10
118.7669
 20
55.8689
 30
0.0
 10
118.7669
 20
55.8689
 30
0.0
 10
118.7669
 20
55.8689
 30
0.0
 10
118.7669
 20
55.8689
 30
0.0
 10
114.6974
 20
53.5194
 30
0.0
 10
114.6974
 20
53.5194
 30
0.0
 10
114.6974
 20
53.5194
 30
0.0
 10
114.6974
 20
53.5194
 30
0.0
 10
112.3479
 20
57.5889
 30
0.0
 10
112.3479
 20
57.5889
 30
0.0
  0
SPLINE
  5
85
330
1F
100
AcDbEntity
  8
Layer 1
 62
   250
370
     9
100
AcDbSpline
210
0.0
220
0.0
230
1.0
 70
     8
 71
     3
 72
    16
 73
    12
 74
     0
 42
0.0000000001
 43
0.0000000001
 40
0.0
 40
0.0
 40
0.0
 40
0.0
 40
0.25
 40
0.25
 40
0.25
 40
0.25
 40
0.5
 40
0.5
 40
0.5
 40
0.5
 40
1.0
 40
1.0
 40
1.0
 40
1.0
 10
111.9411
 20
71.2449
 30
0.0
 10
111.9411
 20
71.2449
 30
0.0
 10
116.0105
 20
73.5944
 30
0.0
 10
116.0105
 20
73.5944
 30
0.0
 10
116.0105
 20
73.5944
 30
0.0
 10
116.0105
 20
73.5944
 30
0.0
 10
118.36
 20
69.525
 30
0.0
 10
118.36
 20
69.525
 30
0.0
 10
118.36
 20
69.525
 30
0.0
 10
118.36
 20
69.525
 30
0.0
 10
114.2906
 20
67.1755
 30
0.0
 10
114.2906
 20
67.1755
 30
0.0
  0
SPLINE
  5
86
330
1F
100
AcDbEntity
  8
Layer 1
 62
   250
370
     9
100
AcDbSpline
210
0.0
220
0.0
230
1.0
 70
     8
 71
     3
 72
    16
 73
    12
 74
     0
 42
0.0000000001
 43
0.0000000001
 40
0.0
 40
0.0
 40
0.0
 40
0.0
 40
0.25
 40
0.25
 40
0.25
 40
0.25
 40
0.5
 40
0.5
 40
0.5
 40
0.5
 40
1.0
 40
1.0
 40
1.0
 40
1.0
 10
212.4472
 20
124.1757
 30
0.0
 10
212.4472
 20
124.1757
 30
0.0
 10
208.3778
 20
121.8262
 30
0.0
 10
208.3778
 20
121.8262
 30
0.0
 10
208.3778
 20
121.8262
 30
0.0
 10
208.3778
 20
121.8262
 30
0.0
 10
206.0283
 20
125.8956
 30
0.0
 10
206.0283
 20
125.8956
 30
0.0
 10
206.0283
 20
125.8956
 30
0.0
 10
206.0283
 20
125.8956
 30
0.0
 10
210.0977
 20
128.2451
 30
0.0
 10
210.0977
 20
128.2451
 30
0.0
  0
SPLINE
  5
87
330
1F
100
AcDbEntity
  8
Layer 1
 62
   250
370
     9
100
AcDbSpline
210
0.0
220
0.0
230
1.0
 70
     8
 71
     3
 72
    16
 73
    12
 74
     0
 42
0.0000000001
 43
0.0000000001
 40
0.0
 40
0.0
 40
0.0
 40
0.0
 40
0.25
 40
0.25
 40
0.25
 40
0.25
 40
0.5
 40
0.5
 40
0.5
 40
0.5
 40
1.0
 40
1.0
 40
1.0
 40
1.0
 10
228.1619
 20
114.2224
 30
0.0
 10
228.1619
 20
114.2224
 30
0.0
 10
230.5114
 20
110.1529
 30
0.0
 10
230.5114
 20
110.1529
 30
0.0
 10
230.5114
 20
110.1529
 30
0.0
 10
230.5114
 20
110.1529
 30
0.0
 10
226.4419
 20
107.8034
 30
0.0
 10
226.4419
 20
107.8034
 30
0.0
 10
226.4419
 20
107.8034
 30
0.0
 10
226.4419
 20
107.8034
 30
0.0
 10
224.0924
 20
111.8729
 30
0.0
 10
224.0924
 20
111.8729
 30
0.0
  0
SPLINE
  5
88
330
1F
100
AcDbEntity
  8
Layer 1
 62
   250
370
     9
100
AcDbSpline
210
0.0
220
0.0
230
1.0
 70
     8
 71
     3
 72
    16
 73
    12
 74
     0
 42
0.0000000001
 43
0.0000000001
 40
0.0
 40
0.0
 40
0.0
 40
0.0
 40
0.25
 40
0.25
 40
0.25
 40
0.25
 40
0.5
 40
0.5
 40
0.5
 40
0.5
 40
1.0
 40
1.0
 40
1.0
 40
1.0
 10
247.7611
 20
-55.5645
 30
0.0
 10
247.7611
 20
-55.5645
 30
0.0
 10
245.4116
 20
-51.495
 30
0.0
 10
245.4116
 20
-51.495
 30
0.0
 10
245.4116
 20
-51.495
 30
0.0
 10
245.4116
 20
-51.495
 30
0.0
 10
249.4811
 20
-49.1455
 30
0.0
 10
249.4811
 20
-49.1455
 30
0.0
 10
249.4811
 20
-49.1455
 30
0.0
 10
249.4811
 20
-49.1455
 30
0.0
 10
251.8306
 20
-53.215
 30
0.0
 10
251.8306
 20
-53.215
 30
0.0
  0
SPLINE
  5
89
330
1F
100
AcDbEntity
  8
Layer 1
 62
   250
370
     9
100
AcDbSpline
210
0.0
220
0.0
230
1.0
 70
     8
 71
     3
 72
    16
 73
    12
 74
     0
 42
0.0000000001
 43
0.0000000001
 40
0.0
 40
0.0
 40
0.0
 40
0.0
 40
0.25
 40
0.25
 40
0.25
 40
0.25
 40
0.5
 40
0.5
 40
0.5
 40
0.5
 40
1.0
 40
1.0
 40
1.0
 40
1.0
 10
121.5888
 20
-95.6432
 30
0.0
 10
121.5888
 20
-95.6432
 30
0.0
 10
117.5193
 20
-97.9927
 30
0.0
 10
117.5193
 20
-97.9927
 30
0.0
 10
117.5193
 20
-97.9927
 30
0.0
 10
117.5193
 20
-97.9927
 30
0.0
 10
115.1698
 20
-93.9233
 30
0.0
 10
115.1698
 20
-93.9233
 30
0.0
 10
115.1698
 20
-93.9233
 30
0.0
 10
115.1698
 20
-93.9233
 30
0.0
 10
119.2393
 20
-91.5738
 30
0.0
 10
119.2393
 20
-91.5738
 30
0.0
  0
SPLINE
  5
8A
330
1F
100
AcDbEntity
  8
Layer 1
370
     9
100
AcDbSpline
210
0.0
220
0.0
230
1.0
 70
    11
 71
     3
 72
   140
 73
   136
 74
     0
 42
0.0000000001
 43
0.0000000001
 40
0.0
 40
0.0
 40
0.0
 40
0.0
 40
0.0285714285714286
 40
0.0285714285714286
 40
0.0285714285714286
 40
0.0285714285714286
 40
0.0571428571428571
 40
0.0571428571428571
 40
0.0571428571428571
 40
0.0571428571428571
 40
0.0857142857142857
 40
0.0857142857142857
 40
0.0857142857142857
 40
0.0857142857142857
 40
0.1142857142857143
 40
0.1142857142857143
 40
0.1142857142857143
 40
0.1142857142857143
 40
0.1428571428571428
 40
0.1428571428571428
 40
0.1428571428571428
 40
0.1428571428571428
 40
0.1714285714285714
 40
0.1714285714285714
 40
0.1714285714285714
 40
0.1714285714285714
 40
0.2
 40
0.2
 40
0.2
 40
0.2
 40
0.2285714285714286
 40
0.2285714285714286
 40
0.2285714285714286
 40
0.2285714285714286
 40
0.2571428571428571
 40
0.2571428571428571
 40
0.2571428571428571
 40
0.2571428571428571
 40
0.2857142857142857
 40
0.2857142857142857
 40
0.2857142857142857
 40
0.2857142857142857
 40
0.3142857142857143
 40
0.3142857142857143
 40
0.3142857142857143
 40
0.3142857142857143
 40
0.3428571428571429
 40
0.3428571428571429
 40
0.3428571428571429
 40
0.3428571428571429
 40
0.3714285714285714
 40
0.3714285714285714
 40
0.3714285714285714
 40
0.3714285714285714
 40
0.4
 40
0.4
 40
0.4
 40
0.4
 40
0.4285714285714285
 40
0.4285714285714285
 40
0.4285714285714285
 40
0.4285714285714285
 40
0.4571428571428571
 40
0.4571428571428571
 40
0.4571428571428571
 40
0.4571428571428571
 40
0.4857142857142857
 40
0.4857142857142857
 40
0.4857142857142857
 40
0.4857142857142857
 40
0.5142857142857142
 40
0.5142857142857142
 40
0.5142857142857142
 40
0.5142857142857142
 40
0.5428571428571428
 40
0.5428571428571428
 40
0.5428571428571428
 40
0.5428571428571428
 40
0.5714285714285714
 40
0.5714285714285714
 40
0.5714285714285714
 40
0.5714285714285714
 40
0.6
 40
0.6
 40
0.6
 40
0.6
 40
0.6285714285714286
 40
0.6285714285714286
 40
0.6285714285714286
 40
0.6285714285714286
 40
0.6571428571428571
 40
0.6571428571428571
 40
0.6571428571428571
 40
0.6571428571428571
 40
0.6857142857142857
 40
0.6857142857142857
 40
0.6857142857142857
 40
0.6857142857142857
 40
0.7142857142857143
 40
0.7142857142857143
 40
0.7142857142857143
 40
0.7142857142857143
 40
0.7428571428571429
 40
0.7428571428571429
 40
0.7428571428571429
 40
0.7428571428571429
 40
0.7714285714285715
 40
0.7714285714285715
 40
0.7714285714285715
 40
0.7714285714285715
 40
0.8
 40
0.8
 40
0.8
 40
0.8
 40
0.8285714285714286
 40
0.8285714285714286
 40
0.8285714285714286
 40
0.8285714285714286
 40
0.8571428571428571
 40
0.8571428571428571
 40
0.8571428571428571
 40
0.8571428571428571
 40
0.8857142857142857
 40
0.8857142857142857
 40
0.8857142857142857
 40
0.8857142857142857
 40
0.9142857142857143
 40
0.9142857142857143
 40
0.9142857142857143
 40
0.9142857142857143
 40
0.9428571428571428
 40
0.9428571428571428
 40
0.9428571428571428
 40
0.9428571428571428
 40
1.0
 40
1.0
 40
1.0
 40
1.0
 10
123.0221
 20
-44.5736
 30
0.0
 10
123.0221
 20
-44.5736
 30
0.0
 10
131.026
 20
-58.4363
 30
0.0
 10
131.026
 20
-58.4363
 30
0.0
 10
131.026
 20
-58.4363
 30
0.0
 10
131.026
 20
-58.4363
 30
0.0
 10
133.0421
 20
-57.2722
 30
0.0
 10
133.0421
 20
-57.2722
 30
0.0
 10
133.0421
 20
-57.2722
 30
0.0
 10
133.0421
 20
-57.2722
 30
0.0
 10
135.0797
 20
-60.8007
 30
0.0
 10
135.0797
 20
-60.8007
 30
0.0
 10
135.0797
 20
-60.8007
 30
0.0
 10
135.0797
 20
-60.8007
 30
0.0
 10
162.3008
 20
-45.0844
 30
0.0
 10
162.3008
 20
-45.0844
 30
0.0
 10
162.3008
 20
-45.0844
 30
0.0
 10
162.3008
 20
-45.0844
 30
0.0
 10
163.6106
 20
-47.3531
 30
0.0
 10
163.6106
 20
-47.3531
 30
0.0
 10
163.6106
 20
-47.3531
 30
0.0
 10
163.6106
 20
-47.3531
 30
0.0
 10
165.3752
 20
-46.3347
 30
0.0
 10
165.3752
 20
-46.3347
 30
0.0
 10
165.3752
 20
-46.3347
 30
0.0
 10
165.3752
 20
-46.3347
 30
0.0
 10
164.0654
 20
-44.0659
 30
0.0
 10
164.0654
 20
-44.0659
 30
0.0
 10
164.0654
 20
-44.0659
 30
0.0
 10
164.0654
 20
-44.0659
 30
0.0
 10
192.2943
 20
-27.7676
 30
0.0
 10
192.2943
 20
-27.7676
 30
0.0
 10
192.2943
 20
-27.7676
 30
0.0
 10
192.2943
 20
-27.7676
 30
0.0
 10
198.5522
 20
-38.606
 30
0.0
 10
198.5522
 20
-38.606
 30
0.0
 10
198.5522
 20
-38.606
 30
0.0
 10
198.5522
 20
-38.606
 30
0.0
 10
193.7629
 20
-41.3711
 30
0.0
 10
193.7629
 20
-41.3711
 30
0.0
 10
193.7629
 20
-41.3711
 30
0.0
 10
193.7629
 20
-41.3711
 30
0.0
 10
191.8713
 20
-38.0941
 30
0.0
 10
191.8713
 20
-38.0941
 30
0.0
 10
191.8713
 20
-38.0941
 30
0.0
 10
191.8713
 20
-38.0941
 30
0.0
 10
185.8222
 20
-41.5863
 30
0.0
 10
185.8222
 20
-41.5863
 30
0.0
 10
185.8222
 20
-41.5863
 30
0.0
 10
185.8222
 20
-41.5863
 30
0.0
 10
189.6058
 20
-48.1398
 30
0.0
 10
189.6058
 20
-48.1398
 30
0.0
 10
189.6058
 20
-48.1398
 30
0.0
 10
189.6058
 20
-48.1398
 30
0.0
 10
195.6548
 20
-44.6473
 30
0.0
 10
195.6548
 20
-44.6473
 30
0.0
 10
195.6548
 20
-44.6473
 30
0.0
 10
195.6548
 20
-44.6473
 30
0.0
 10
200.4438
 20
-41.8822
 30
0.0
 10
200.4438
 20
-41.8822
 30
0.0
 10
200.4438
 20
-41.8822
 30
0.0
 10
200.4438
 20
-41.8822
 30
0.0
 10
202.4603
 20
-40.7181
 30
0.0
 10
202.4603
 20
-40.7181
 30
0.0
 10
202.4603
 20
-40.7181
 30
0.0
 10
202.4603
 20
-40.7181
 30
0.0
 10
200.5683
 20
-37.4415
 30
0.0
 10
200.5683
 20
-37.4415
 30
0.0
 10
200.5683
 20
-37.4415
 30
0.0
 10
200.5683
 20
-37.4415
 30
0.0
 10
192.5649
 20
-23.5791
 30
0.0
 10
192.5649
 20
-23.5791
 30
0.0
 10
192.5649
 20
-23.5791
 30
0.0
 10
192.5649
 20
-23.5791
 30
0.0
 10
190.8006
 20
-24.5975
 30
0.0
 10
190.8006
 20
-24.5975
 30
0.0
 10
190.8006
 20
-24.5975
 30
0.0
 10
190.8006
 20
-24.5975
 30
0.0
 10
188.3266
 20
-20.3127
 30
0.0
 10
188.3266
 20
-20.3127
 30
0.0
 10
188.3266
 20
-20.3127
 30
0.0
 10
188.3266
 20
-20.3127
 30
0.0
 10
159.8451
 20
-36.7567
 30
0.0
 10
159.8451
 20
-36.7567
 30
0.0
 10
159.8451
 20
-36.7567
 30
0.0
 10
159.8451
 20
-36.7567
 30
0.0
 10
158.5356
 20
-34.488
 30
0.0
 10
158.5356
 20
-34.488
 30
0.0
 10
158.5356
 20
-34.488
 30
0.0
 10
158.5356
 20
-34.488
 30
0.0
 10
156.771
 20
-35.5068
 30
0.0
 10
156.771
 20
-35.5068
 30
0.0
 10
156.771
 20
-35.5068
 30
0.0
 10
156.771
 20
-35.5068
 30
0.0
 10
158.0805
 20
-37.7752
 30
0.0
 10
158.0805
 20
-37.7752
 30
0.0
 10
158.0805
 20
-37.7752
 30
0.0
 10
158.0805
 20
-37.7752
 30
0.0
 10
130.8594
 20
-53.4915
 30
0.0
 10
130.8594
 20
-53.4915
 30
0.0
 10
130.8594
 20
-53.4915
 30
0.0
 10
130.8594
 20
-53.4915
 30
0.0
 10
125.0386
 20
-43.4091
 30
0.0
 10
125.0386
 20
-43.4091
 30
0.0
 10
125.0386
 20
-43.4091
 30
0.0
 10
125.0386
 20
-43.4091
 30
0.0
 10
129.8276
 20
-40.6443
 30
0.0
 10
129.8276
 20
-40.6443
 30
0.0
 10
129.8276
 20
-40.6443
 30
0.0
 10
129.8276
 20
-40.6443
 30
0.0
 10
131.7192
 20
-43.9209
 30
0.0
 10
131.7192
 20
-43.9209
 30
0.0
 10
131.7192
 20
-43.9209
 30
0.0
 10
131.7192
 20
-43.9209
 30
0.0
 10
137.7686
 20
-40.4288
 30
0.0
 10
137.7686
 20
-40.4288
 30
0.0
 10
137.7686
 20
-40.4288
 30
0.0
 10
137.7686
 20
-40.4288
 30
0.0
 10
133.9847
 20
-33.8756
 30
0.0
 10
133.9847
 20
-33.8756
 30
0.0
 10
133.9847
 20
-33.8756
 30
0.0
 10
133.9847
 20
-33.8756
 30
0.0
 10
127.936
 20
-37.3677
 30
0.0
 10
127.936
 20
-37.3677
 30
0.0
 10
127.936
 20
-37.3677
 30
0.0
 10
127.936
 20
-37.3677
 30
0.0
 10
123.147
 20
-40.1328
 30
0.0
 10
123.147
 20
-40.1328
 30
0.0
 10
123.147
 20
-40.1328
 30
0.0
 10
123.147
 20
-40.1328
 30
0.0
 10
121.1305
 20
-41.2973
 30
0.0
 10
121.1305
 20
-41.2973
 30
0.0
 10
121.1305
 20
-41.2973
 30
0.0
 10
121.1305
 20
-41.2973
 30
0.0
 10
123.0221
 20
-44.5736
 30
0.0
 10
123.0221
 20
-44.5736
 30
0.0
  0
SPLINE
  5
8B
330
1F
100
AcDbEntity
  8
Layer 1
370
     9
100
AcDbSpline
210
0.0
220
0.0
230
1.0
 70
    11
 71
     3
 72
   140
 73
   136
 74
     0
 42
0.0000000001
 43
0.0000000001
 40
0.0
 40
0.0
 40
0.0
 40
0.0
 40
0.0285714285714286
 40
0.0285714285714286
 40
0.0285714285714286
 40
0.0285714285714286
 40
0.0571428571428571
 40
0.0571428571428571
 40
0.0571428571428571
 40
0.0571428571428571
 40
0.0857142857142857
 40
0.0857142857142857
 40
0.0857142857142857
 40
0.0857142857142857
 40
0.1142857142857143
 40
0.1142857142857143
 40
0.1142857142857143
 40
0.1142857142857143
 40
0.1428571428571428
 40
0.1428571428571428
 40
0.1428571428571428
 40
0.1428571428571428
 40
0.1714285714285714
 40
0.1714285714285714
 40
0.1714285714285714
 40
0.1714285714285714
 40
0.2
 40
0.2
 40
0.2
 40
0.2
 40
0.2285714285714286
 40
0.2285714285714286
 40
0.2285714285714286
 40
0.2285714285714286
 40
0.2571428571428571
 40
0.2571428571428571
 40
0.2571428571428571
 40
0.2571428571428571
 40
0.2857142857142857
 40
0.2857142857142857
 40
0.2857142857142857
 40
0.2857142857142857
 40
0.3142857142857143
 40
0.3142857142857143
 40
0.3142857142857143
 40
0.3142857142857143
 40
0.3428571428571429
 40
0.3428571428571429
 40
0.3428571428571429
 40
0.3428571428571429
 40
0.3714285714285714
 40
0.3714285714285714
 40
0.3714285714285714
 40
0.3714285714285714
 40
0.4
 40
0.4
 40
0.4
 40
0.4
 40
0.4285714285714285
 40
0.4285714285714285
 40
0.4285714285714285
 40
0.4285714285714285
 40
0.4571428571428571
 40
0.4571428571428571
 40
0.4571428571428571
 40
0.4571428571428571
 40
0.4857142857142857
 40
0.4857142857142857
 40
0.4857142857142857
 40
0.4857142857142857
 40
0.5142857142857142
 40
0.5142857142857142
 40
0.5142857142857142
 40
0.5142857142857142
 40
0.5428571428571428
 40
0.5428571428571428
 40
0.5428571428571428
 40
0.5428571428571428
 40
0.5714285714285714
 40
0.5714285714285714
 40
0.5714285714285714
 40
0.5714285714285714
 40
0.6
 40
0.6
 40
0.6
 40
0.6
 40
0.6285714285714286
 40
0.6285714285714286
 40
0.6285714285714286
 40
0.6285714285714286
 40
0.6571428571428571
 40
0.6571428571428571
 40
0.6571428571428571
 40
0.6571428571428571
 40
0.6857142857142857
 40
0.6857142857142857
 40
0.6857142857142857
 40
0.6857142857142857
 40
0.7142857142857143
 40
0.7142857142857143
 40
0.7142857142857143
 40
0.7142857142857143
 40
0.7428571428571429
 40
0.7428571428571429
 40
0.7428571428571429
 40
0.7428571428571429
 40
0.7714285714285715
 40
0.7714285714285715
 40
0.7714285714285715
 40
0.7714285714285715
 40
0.8
 40
0.8
 40
0.8
 40
0.8
 40
0.8285714285714286
 40
0.8285714285714286
 40
0.8285714285714286
 40
0.8285714285714286
 40
0.8571428571428571
 40
0.8571428571428571
 40
0.8571428571428571
 40
0.8571428571428571
 40
0.8857142857142857
 40
0.8857142857142857
 40
0.8857142857142857
 40
0.8857142857142857
 40
0.9142857142857143
 40
0.9142857142857143
 40
0.9142857142857143
 40
0.9142857142857143
 40
0.9428571428571428
 40
0.9428571428571428
 40
0.9428571428571428
 40
0.9428571428571428
 40
1.0
 40
1.0
 40
1.0
 40
1.0
 10
100.0296
 20
-4.7498
 30
0.0
 10
100.0296
 20
-4.7498
 30
0.0
 10
92.0257
 20
9.1122
 30
0.0
 10
92.0257
 20
9.1122
 30
0.0
 10
92.0257
 20
9.1122
 30
0.0
 10
92.0257
 20
9.1122
 30
0.0
 10
94.0426
 20
10.2768
 30
0.0
 10
94.0426
 20
10.2768
 30
0.0
 10
94.0426
 20
10.2768
 30
0.0
 10
94.0426
 20
10.2768
 30
0.0
 10
92.0053
 20
13.8059
 30
0.0
 10
92.0053
 20
13.8059
 30
0.0
 10
92.0053
 20
13.8059
 30
0.0
 10
92.0053
 20
13.8059
 30
0.0
 10
119.2263
 20
29.5218
 30
0.0
 10
119.2263
 20
29.5218
 30
0.0
 10
119.2263
 20
29.5218
 30
0.0
 10
119.2263
 20
29.5218
 30
0.0
 10
117.9168
 20
31.7902
 30
0.0
 10
117.9168
 20
31.7902
 30
0.0
 10
117.9168
 20
31.7902
 30
0.0
 10
117.9168
 20
31.7902
 30
0.0
 10
119.6814
 20
32.809
 30
0.0
 10
119.6814
 20
32.809
 30
0.0
 10
119.6814
 20
32.809
 30
0.0
 10
119.6814
 20
32.809
 30
0.0
 10
120.9909
 20
30.541
 30
0.0
 10
120.9909
 20
30.541
 30
0.0
 10
120.9909
 20
30.541
 30
0.0
 10
120.9909
 20
30.541
 30
0.0
 10
149.2202
 20
46.839
 30
0.0
 10
149.2202
 20
46.839
 30
0.0
 10
149.2202
 20
46.839
 30
0.0
 10
149.2202
 20
46.839
 30
0.0
 10
142.963
 20
57.677
 30
0.0
 10
142.963
 20
57.677
 30
0.0
 10
142.963
 20
57.677
 30
0.0
 10
142.963
 20
57.677
 30
0.0
 10
138.174
 20
54.9123
 30
0.0
 10
138.174
 20
54.9123
 30
0.0
 10
138.174
 20
54.9123
 30
0.0
 10
138.174
 20
54.9123
 30
0.0
 10
140.0656
 20
51.6357
 30
0.0
 10
140.0656
 20
51.6357
 30
0.0
 10
140.0656
 20
51.6357
 30
0.0
 10
140.0656
 20
51.6357
 30
0.0
 10
134.0169
 20
48.1432
 30
0.0
 10
134.0169
 20
48.1432
 30
0.0
 10
134.0169
 20
48.1432
 30
0.0
 10
134.0169
 20
48.1432
 30
0.0
 10
130.2333
 20
54.6964
 30
0.0
 10
130.2333
 20
54.6964
 30
0.0
 10
130.2333
 20
54.6964
 30
0.0
 10
130.2333
 20
54.6964
 30
0.0
 10
136.2824
 20
58.1886
 30
0.0
 10
136.2824
 20
58.1886
 30
0.0
 10
136.2824
 20
58.1886
 30
0.0
 10
136.2824
 20
58.1886
 30
0.0
 10
141.071
 20
60.9536
 30
0.0
 10
141.071
 20
60.9536
 30
0.0
 10
141.071
 20
60.9536
 30
0.0
 10
141.071
 20
60.9536
 30
0.0
 10
143.0879
 20
62.1178
 30
0.0
 10
143.0879
 20
62.1178
 30
0.0
 10
143.0879
 20
62.1178
 30
0.0
 10
143.0879
 20
62.1178
 30
0.0
 10
144.9794
 20
58.8409
 30
0.0
 10
144.9794
 20
58.8409
 30
0.0
 10
144.9794
 20
58.8409
 30
0.0
 10
144.9794
 20
58.8409
 30
0.0
 10
152.9829
 20
44.9785
 30
0.0
 10
152.9829
 20
44.9785
 30
0.0
 10
152.9829
 20
44.9785
 30
0.0
 10
152.9829
 20
44.9785
 30
0.0
 10
151.219
 20
43.9596
 30
0.0
 10
151.219
 20
43.9596
 30
0.0
 10
151.219
 20
43.9596
 30
0.0
 10
151.219
 20
43.9596
 30
0.0
 10
153.6924
 20
39.6751
 30
0.0
 10
153.6924
 20
39.6751
 30
0.0
 10
153.6924
 20
39.6751
 30
0.0
 10
153.6924
 20
39.6751
 30
0.0
 10
125.2112
 20
23.2311
 30
0.0
 10
125.2112
 20
23.2311
 30
0.0
 10
125.2112
 20
23.2311
 30
0.0
 10
125.2112
 20
23.2311
 30
0.0
 10
126.5207
 20
20.9628
 30
0.0
 10
126.5207
 20
20.9628
 30
0.0
 10
126.5207
 20
20.9628
 30
0.0
 10
126.5207
 20
20.9628
 30
0.0
 10
124.7561
 20
19.9446
 30
0.0
 10
124.7561
 20
19.9446
 30
0.0
 10
124.7561
 20
19.9446
 30
0.0
 10
124.7561
 20
19.9446
 30
0.0
 10
123.4466
 20
22.2126
 30
0.0
 10
123.4466
 20
22.2126
 30
0.0
 10
123.4466
 20
22.2126
 30
0.0
 10
123.4466
 20
22.2126
 30
0.0
 10
96.2256
 20
6.496
 30
0.0
 10
96.2256
 20
6.496
 30
0.0
 10
96.2256
 20
6.496
 30
0.0
 10
96.2256
 20
6.496
 30
0.0
 10
102.0464
 20
-3.5853
 30
0.0
 10
102.0464
 20
-3.5853
 30
0.0
 10
102.0464
 20
-3.5853
 30
0.0
 10
102.0464
 20
-3.5853
 30
0.0
 10
106.835
 20
-0.8213
 30
0.0
 10
106.835
 20
-0.8213
 30
0.0
 10
106.835
 20
-0.8213
 30
0.0
 10
106.835
 20
-0.8213
 30
0.0
 10
104.9438
 20
2.4557
 30
0.0
 10
104.9438
 20
2.4557
 30
0.0
 10
104.9438
 20
2.4557
 30
0.0
 10
104.9438
 20
2.4557
 30
0.0
 10
110.9925
 20
5.9485
 30
0.0
 10
110.9925
 20
5.9485
 30
0.0
 10
110.9925
 20
5.9485
 30
0.0
 10
110.9925
 20
5.9485
 30
0.0
 10
114.776
 20
-0.6047
 30
0.0
 10
114.776
 20
-0.6047
 30
0.0
 10
114.776
 20
-0.6047
 30
0.0
 10
114.776
 20
-0.6047
 30
0.0
 10
108.7269
 20
-4.0972
 30
0.0
 10
108.7269
 20
-4.0972
 30
0.0
 10
108.7269
 20
-4.0972
 30
0.0
 10
108.7269
 20
-4.0972
 30
0.0
 10
103.938
 20
-6.8622
 30
0.0
 10
103.938
 20
-6.8622
 30
0.0
 10
103.938
 20
-6.8622
 30
0.0
 10
103.938
 20
-6.8622
 30
0.0
 10
101.9215
 20
-8.0264
 30
0.0
 10
101.9215
 20
-8.0264
 30
0.0
 10
101.9215
 20
-8.0264
 30
0.0
 10
101.9215
 20
-8.0264
 30
0.0
 10
100.0296
 20
-4.7498
 30
0.0
 10
100.0296
 20
-4.7498
 30
0.0
  0
SPLINE
  5
8C
330
1F
100
AcDbEntity
  8
Layer 1
 62
   250
370
     9
100
AcDbSpline
210
0.0
220
0.0
230
1.0
 70
     8
 71
     3
 72
    16
 73
    12
 74
     0
 42
0.0000000001
 43
0.0000000001
 40
0.0
 40
0.0
 40
0.0
 40
0.0
 40
0.25
 40
0.25
 40
0.25
 40
0.25
 40
0.5
 40
0.5
 40
0.5
 40
0.5
 40
1.0
 40
1.0
 40
1.0
 40
1.0
 10
-123.2588
 20
277.9459
 30
0.0
 10
-123.2588
 20
277.9459
 30
0.0
 10
-120.2108
 20
277.9459
 30
0.0
 10
-120.2108
 20
277.9459
 30
0.0
 10
-120.2108
 20
277.9459
 30
0.0
 10
-120.2108
 20
277.9459
 30
0.0
 10
-120.2108
 20
273.2469
 30
0.0
 10
-120.2108
 20
273.2469
 30
0.0
 10
-120.2108
 20
273.2469
 30
0.0
 10
-120.2108
 20
273.2469
 30
0.0
 10
-123.2588
 20
273.2469
 30
0.0
 10
-123.2588
 20
273.2469
 30
0.0
  0
SPLINE
  5
8D
330
1F
100
AcDbEntity
  8
Layer 1
 62
   250
370
     9
100
AcDbSpline
210
0.0
220
0.0
230
1.0
 70
     8
 71
     3
 72
    16
 73
    12
 74
     0
 42
0.0000000001
 43
0.0000000001
 40
0.0
 40
0.0
 40
0.0
 40
0.0
 40
0.25
 40
0.25
 40
0.25
 40
0.25
 40
0.5
 40
0.5
 40
0.5
 40
0.5
 40
1.0
 40
1.0
 40
1.0
 40
1.0
 10
-154.9812
 20
273.2469
 30
0.0
 10
-154.9812
 20
273.2469
 30
0.0
 10
-158.0292
 20
273.2469
 30
0.0
 10
-158.0292
 20
273.2469
 30
0.0
 10
-158.0292
 20
273.2469
 30
0.0
 10
-158.0292
 20
273.2469
 30
0.0
 10
-158.0292
 20
277.9459
 30
0.0
 10
-158.0292
 20
277.9459
 30
0.0
 10
-158.0292
 20
277.9459
 30
0.0
 10
-158.0292
 20
277.9459
 30
0.0
 10
-154.9812
 20
277.9459
 30
0.0
 10
-154.9812
 20
277.9459
 30
0.0
  0
SPLINE
  5
8E
330
1F
100
AcDbEntity
  8
Layer 1
 62
   242
370
     9
100
AcDbSpline
210
0.0
220
0.0
230
1.0
 70
    11
 71
     3
 72
    32
 73
    28
 74
     0
 42
0.0000000001
 43
0.0000000001
 40
0.0
 40
0.0
 40
0.0
 40
0.0
 40
0.125
 40
0.125
 40
0.125
 40
0.125
 40
0.25
 40
0.25
 40
0.25
 40
0.25
 40
0.375
 40
0.375
 40
0.375
 40
0.375
 40
0.5
 40
0.5
 40
0.5
 40
0.5
 40
0.625
 40
0.625
 40
0.625
 40
0.625
 40
0.75
 40
0.75
 40
0.75
 40
0.75
 40
1.0
 40
1.0
 40
1.0
 40
1.0
 10
-130.9112
 20
271.2583
 30
0.0
 10
-130.9112
 20
271.2583
 30
0.0
 10
-129.1967
 20
271.2583
 30
0.0
 10
-129.1967
 20
271.2583
 30
0.0
 10
-129.1967
 20
271.2583
 30
0.0
 10
-129.1967
 20
271.2583
 30
0.0
 10
-129.1967
 20
271.6193
 30
0.0
 10
-129.1967
 20
271.6193
 30
0.0
 10
-129.1967
 20
271.6193
 30
0.0
 10
-129.1967
 20
271.6193
 30
0.0
 10
-127.4822
 20
270.8974
 30
0.0
 10
-127.4822
 20
270.8974
 30
0.0
 10
-127.4822
 20
270.8974
 30
0.0
 10
-127.4822
 20
270.8974
 30
0.0
 10
-129.1967
 20
270.1755
 30
0.0
 10
-129.1967
 20
270.1755
 30
0.0
 10
-129.1967
 20
270.1755
 30
0.0
 10
-129.1967
 20
270.1755
 30
0.0
 10
-129.1967
 20
270.5365
 30
0.0
 10
-129.1967
 20
270.5365
 30
0.0
 10
-129.1967
 20
270.5365
 30
0.0
 10
-129.1967
 20
270.5365
 30
0.0
 10
-130.9112
 20
270.5365
 30
0.0
 10
-130.9112
 20
270.5365
 30
0.0
 10
-130.9112
 20
270.5365
 30
0.0
 10
-130.9112
 20
270.5365
 30
0.0
 10
-130.9112
 20
271.2583
 30
0.0
 10
-130.9112
 20
271.2583
 30
0.0
  0
SPLINE
  5
8F
330
1F
100
AcDbEntity
  8
Layer 1
 62
   250
370
     9
100
AcDbSpline
210
0.0
220
0.0
230
1.0
 70
     8
 71
     3
 72
    12
 73
     8
 74
     0
 42
0.0000000001
 43
0.0000000001
 40
0.0
 40
0.0
 40
0.0
 40
0.0
 40
0.3333333333333333
 40
0.3333333333333333
 40
0.3333333333333333
 40
0.3333333333333333
 40
1.0
 40
1.0
 40
1.0
 40
1.0
 10
-136.7848
 20
289.691
 30
0.0
 10
-136.7848
 20
289.691
 30
0.0
 10
-123.2592
 20
289.691
 30
0.0
 10
-123.2592
 20
289.691
 30
0.0
 10
-123.2592
 20
289.691
 30
0.0
 10
-123.2592
 20
289.691
 30
0.0
 10
-123.2592
 20
277.9459
 30
0.0
 10
-123.2592
 20
277.9459
 30
0.0
  0
SPLINE
  5
90
330
1F
100
AcDbEntity
  8
Layer 1
 62
   250
370
     9
100
AcDbSpline
210
0.0
220
0.0
230
1.0
 70
     8
 71
     3
 72
    16
 73
    12
 74
     0
 42
0.0000000001
 43
0.0000000001
 40
0.0
 40
0.0
 40
0.0
 40
0.0
 40
0.25
 40
0.25
 40
0.25
 40
0.25
 40
0.5
 40
0.5
 40
0.5
 40
0.5
 40
1.0
 40
1.0
 40
1.0
 40
1.0
 10
-123.2592
 20
273.2469
 30
0.0
 10
-123.2592
 20
273.2469
 30
0.0
 10
-123.2592
 20
273.1589
 30
0.0
 10
-123.2592
 20
273.1589
 30
0.0
 10
-123.2592
 20
273.1589
 30
0.0
 10
-123.2592
 20
273.1589
 30
0.0
 10
-123.2592
 20
252.1038
 30
0.0
 10
-123.2592
 20
252.1038
 30
0.0
 10
-123.2592
 20
252.1038
 30
0.0
 10
-123.2592
 20
252.1038
 30
0.0
 10
-136.7848
 20
252.1038
 30
0.0
 10
-136.7848
 20
252.1038
 30
0.0
  0
SPLINE
  5
91
330
1F
100
AcDbEntity
  8
Layer 1
 62
   250
370
     9
100
AcDbSpline
210
0.0
220
0.0
230
1.0
 70
     8
 71
     3
 72
    12
 73
     8
 74
     0
 42
0.0000000001
 43
0.0000000001
 40
0.0
 40
0.0
 40
0.0
 40
0.0
 40
0.3333333333333333
 40
0.3333333333333333
 40
0.3333333333333333
 40
0.3333333333333333
 40
1.0
 40
1.0
 40
1.0
 40
1.0
 10
-141.4836
 20
252.1038
 30
0.0
 10
-141.4836
 20
252.1038
 30
0.0
 10
-155.0092
 20
252.1038
 30
0.0
 10
-155.0092
 20
252.1038
 30
0.0
 10
-155.0092
 20
252.1038
 30
0.0
 10
-155.0092
 20
252.1038
 30
0.0
 10
-155.0092
 20
273.2469
 30
0.0
 10
-155.0092
 20
273.2469
 30
0.0
  0
SPLINE
  5
92
330
1F
100
AcDbEntity
  8
Layer 1
 62
   250
370
     9
100
AcDbSpline
210
0.0
220
0.0
230
1.0
 70
     8
 71
     3
 72
    12
 73
     8
 74
     0
 42
0.0000000001
 43
0.0000000001
 40
0.0
 40
0.0
 40
0.0
 40
0.0
 40
0.3333333333333333
 40
0.3333333333333333
 40
0.3333333333333333
 40
0.3333333333333333
 40
1.0
 40
1.0
 40
1.0
 40
1.0
 10
-155.0092
 20
277.9459
 30
0.0
 10
-155.0092
 20
277.9459
 30
0.0
 10
-155.0092
 20
289.691
 30
0.0
 10
-155.0092
 20
289.691
 30
0.0
 10
-155.0092
 20
289.691
 30
0.0
 10
-155.0092
 20
289.691
 30
0.0
 10
-141.4836
 20
289.691
 30
0.0
 10
-141.4836
 20
289.691
 30
0.0
  0
SPLINE
  5
93
330
1F
100
AcDbEntity
  8
Layer 1
 62
   250
370
     9
100
AcDbSpline
210
0.0
220
0.0
230
1.0
 70
     8
 71
     3
 72
    16
 73
    12
 74
     0
 42
0.0000000001
 43
0.0000000001
 40
0.0
 40
0.0
 40
0.0
 40
0.0
 40
0.25
 40
0.25
 40
0.25
 40
0.25
 40
0.5
 40
0.5
 40
0.5
 40
0.5
 40
1.0
 40
1.0
 40
1.0
 40
1.0
 10
-141.4836
 20
252.1038
 30
0.0
 10
-141.4836
 20
252.1038
 30
0.0
 10
-141.4836
 20
256.8028
 30
0.0
 10
-141.4836
 20
256.8028
 30
0.0
 10
-141.4836
 20
256.8028
 30
0.0
 10
-141.4836
 20
256.8028
 30
0.0
 10
-136.7848
 20
256.8028
 30
0.0
 10
-136.7848
 20
256.8028
 30
0.0
 10
-136.7848
 20
256.8028
 30
0.0
 10
-136.7848
 20
256.8028
 30
0.0
 10
-136.7848
 20
252.1038
 30
0.0
 10
-136.7848
 20
252.1038
 30
0.0
  0
SPLINE
  5
94
330
1F
100
AcDbEntity
  8
Layer 1
 62
   250
370
     9
100
AcDbSpline
210
0.0
220
0.0
230
1.0
 70
     8
 71
     3
 72
    16
 73
    12
 74
     0
 42
0.0000000001
 43
0.0000000001
 40
0.0
 40
0.0
 40
0.0
 40
0.0
 40
0.25
 40
0.25
 40
0.25
 40
0.25
 40
0.5
 40
0.5
 40
0.5
 40
0.5
 40
1.0
 40
1.0
 40
1.0
 40
1.0
 10
-136.7848
 20
289.691
 30
0.0
 10
-136.7848
 20
289.691
 30
0.0
 10
-136.7848
 20
284.992
 30
0.0
 10
-136.7848
 20
284.992
 30
0.0
 10
-136.7848
 20
284.992
 30
0.0
 10
-136.7848
 20
284.992
 30
0.0
 10
-141.4836
 20
284.992
 30
0.0
 10
-141.4836
 20
284.992
 30
0.0
 10
-141.4836
 20
284.992
 30
0.0
 10
-141.4836
 20
284.992
 30
0.0
 10
-141.4836
 20
289.691
 30
0.0
 10
-141.4836
 20
289.691
 30
0.0
  0
SPLINE
  5
95
330
1F
100
AcDbEntity
  8
Layer 1
 62
   242
370
     9
100
AcDbSpline
210
0.0
220
0.0
230
1.0
 70
    11
 71
     3
 72
    40
 73
    36
 74
     0
 42
0.0000000001
 43
0.0000000001
 40
0.0
 40
0.0
 40
0.0
 40
0.0
 40
0.1
 40
0.1
 40
0.1
 40
0.1
 40
0.2
 40
0.2
 40
0.2
 40
0.2
 40
0.3
 40
0.3
 40
0.3
 40
0.3
 40
0.4
 40
0.4
 40
0.4
 40
0.4
 40
0.5
 40
0.5
 40
0.5
 40
0.5
 40
0.6
 40
0.6
 40
0.6
 40
0.6
 40
0.7
 40
0.7
 40
0.7
 40
0.7
 40
0.8
 40
0.8
 40
0.8
 40
0.8
 40
1.0
 40
1.0
 40
1.0
 40
1.0
 10
-140.8487
 20
271.4182
 30
0.0
 10
-140.8487
 20
271.4182
 30
0.0
 10
-140.8487
 20
271.8371
 30
0.0
 10
-140.8487
 20
271.8371
 30
0.0
 10
-140.8487
 20
271.8371
 30
0.0
 10
-140.8487
 20
271.8371
 30
0.0
 10
-138.1773
 20
271.8371
 30
0.0
 10
-138.1773
 20
271.8371
 30
0.0
 10
-138.1773
 20
271.8371
 30
0.0
 10
-138.2735
 20
271.9381
 30
0.0
 10
-138.3697
 20
272.0701
 30
0.0
 10
-138.4659
 20
272.2339
 30
0.0
 10
-138.4659
 20
272.2339
 30
0.0
 10
-138.5621
 20
272.3984
 30
0.0
 10
-138.6345
 20
272.5455
 30
0.0
 10
-138.6822
 20
272.6759
 30
0.0
 10
-138.6822
 20
272.6759
 30
0.0
 10
-138.6822
 20
272.6759
 30
0.0
 10
-138.2775
 20
272.6759
 30
0.0
 10
-138.2775
 20
272.6759
 30
0.0
 10
-138.2775
 20
272.6759
 30
0.0
 10
-138.167
 20
272.4414
 30
0.0
 10
-138.0334
 20
272.2362
 30
0.0
 10
-137.8768
 20
272.0605
 30
0.0
 10
-137.8768
 20
272.0605
 30
0.0
 10
-137.7194
 20
271.8856
 30
0.0
 10
-137.5675
 20
271.7608
 30
0.0
 10
-137.4197
 20
271.6876
 30
0.0
 10
-137.4197
 20
271.6876
 30
0.0
 10
-137.4197
 20
271.6876
 30
0.0
 10
-137.4197
 20
271.4182
 30
0.0
 10
-137.4197
 20
271.4182
 30
0.0
 10
-137.4197
 20
271.4182
 30
0.0
 10
-137.4197
 20
271.4182
 30
0.0
 10
-140.8487
 20
271.4182
 30
0.0
 10
-140.8487
 20
271.4182
 30
0.0
  0
SPLINE
  5
96
330
1F
100
AcDbEntity
  8
Layer 1
 62
   242
370
     9
100
AcDbSpline
210
0.0
220
0.0
230
1.0
 70
    11
 71
     3
 72
    40
 73
    36
 74
     0
 42
0.0000000001
 43
0.0000000001
 40
0.0
 40
0.0
 40
0.0
 40
0.0
 40
0.1
 40
0.1
 40
0.1
 40
0.1
 40
0.2
 40
0.2
 40
0.2
 40
0.2
 40
0.3
 40
0.3
 40
0.3
 40
0.3
 40
0.4
 40
0.4
 40
0.4
 40
0.4
 40
0.5
 40
0.5
 40
0.5
 40
0.5
 40
0.6
 40
0.6
 40
0.6
 40
0.6
 40
0.7
 40
0.7
 40
0.7
 40
0.7
 40
0.8
 40
0.8
 40
0.8
 40
0.8
 40
1.0
 40
1.0
 40
1.0
 40
1.0
 10
-140.8487
 20
269.1189
 30
0.0
 10
-140.8487
 20
269.1189
 30
0.0
 10
-140.8487
 20
269.5378
 30
0.0
 10
-140.8487
 20
269.5378
 30
0.0
 10
-140.8487
 20
269.5378
 30
0.0
 10
-140.8487
 20
269.5378
 30
0.0
 10
-138.1773
 20
269.5378
 30
0.0
 10
-138.1773
 20
269.5378
 30
0.0
 10
-138.1773
 20
269.5378
 30
0.0
 10
-138.2735
 20
269.6388
 30
0.0
 10
-138.3697
 20
269.7708
 30
0.0
 10
-138.4659
 20
269.9346
 30
0.0
 10
-138.4659
 20
269.9346
 30
0.0
 10
-138.5621
 20
270.0992
 30
0.0
 10
-138.6345
 20
270.2462
 30
0.0
 10
-138.6822
 20
270.3766
 30
0.0
 10
-138.6822
 20
270.3766
 30
0.0
 10
-138.6822
 20
270.3766
 30
0.0
 10
-138.2775
 20
270.3766
 30
0.0
 10
-138.2775
 20
270.3766
 30
0.0
 10
-138.2775
 20
270.3766
 30
0.0
 10
-138.167
 20
270.1421
 30
0.0
 10
-138.0334
 20
269.9369
 30
0.0
 10
-137.8768
 20
269.7612
 30
0.0
 10
-137.8768
 20
269.7612
 30
0.0
 10
-137.7194
 20
269.5863
 30
0.0
 10
-137.5675
 20
269.4615
 30
0.0
 10
-137.4197
 20
269.3884
 30
0.0
 10
-137.4197
 20
269.3884
 30
0.0
 10
-137.4197
 20
269.3884
 30
0.0
 10
-137.4197
 20
269.1189
 30
0.0
 10
-137.4197
 20
269.1189
 30
0.0
 10
-137.4197
 20
269.1189
 30
0.0
 10
-137.4197
 20
269.1189
 30
0.0
 10
-140.8487
 20
269.1189
 30
0.0
 10
-140.8487
 20
269.1189
 30
0.0
  0
ENDSEC
  0
SECTION
  2
OBJECTS
  0
DICTIONARY
  5
C
330
0
100
AcDbDictionary
281
     1
  3
ACAD_GROUP
350
D
  3
ACAD_LAYOUT
350
1A
  3
ACAD_MATERIAL
350
3B
  3
ACAD_MLEADERSTYLE
350
B8
  3
ACAD_MLINESTYLE
350
17
  3
ACAD_PLOTSETTINGS
350
19
  3
ACAD_PLOTSTYLENAME
350
E
  3
ACAD_TABLESTYLE
350
B7
  3
ACAD_VISUALSTYLE
350
2A
  0
DICTIONARY
  5
D
102
{ACAD_REACTORS
330
C
102
}
330
C
100
AcDbDictionary
281
     1
  0
DICTIONARY
  5
1A
102
{ACAD_REACTORS
330
C
102
}
330
C
100
AcDbDictionary
281
     1
  3
Layout1
350
1E
  3
Layout2
350
26
  3
Model
350
22
  0
DICTIONARY
  5
3B
102
{ACAD_REACTORS
330
C
102
}
330
C
100
AcDbDictionary
281
     1
  3
ByBlock
350
3D
  3
ByLayer
350
3C
  3
Global
350
3E
  0
DICTIONARY
  5
B8
102
{ACAD_REACTORS
330
C
102
}
330
C
100
AcDbDictionary
281
     1
  0
DICTIONARY
  5
17
102
{ACAD_REACTORS
330
C
102
}
330
C
100
AcDbDictionary
281
     1
  3
Standard
350
18
  0
DICTIONARY
  5
19
102
{ACAD_REACTORS
330
C
102
}
330
C
100
AcDbDictionary
281
     1
  0
ACDBDICTIONARYWDFLT
  5
E
102
{ACAD_REACTORS
330
C
102
}
330
C
100
AcDbDictionary
281
     1
  3
Normal
350
F
100
AcDbDictionaryWithDefault
340
F
  0
DICTIONARY
  5
B7
102
{ACAD_REACTORS
330
C
102
}
330
C
100
AcDbDictionary
281
     1
  0
DICTIONARY
  5
2A
102
{ACAD_REACTORS
330
C
102
}
330
C
100
AcDbDictionary
281
     1
  3
2dWireframe
350
2F
  3
3D Hidden
350
31
  3
3dWireframe
350
30
  3
Basic
350
32
  3
Brighten
350
36
  3
ColorChange
350
3A
  3
Conceptual
350
34
  3
Dim
350
35
  3
Facepattern
350
39
  3
Flat
350
2B
  3
FlatWithEdges
350
2C
  3
Gouraud
350
2D
  3
GouraudWithEdges
350
2E
  3
Linepattern
350
38
  3
Realistic
350
33
  3
Thicken
350
37
  0
LAYOUT
  5
1E
102
{ACAD_REACTORS
330
1A
102
}
330
1A
100
AcDbPlotSettings
  1

  2
none_device
  4

  6

 40
0.0
 41
0.0
 42
0.0
 43
0.0
 44
0.0
 45
0.0
 46
0.0
 47
0.0
 48
0.0
 49
0.0
140
0.0
141
0.0
142
1.0
143
1.0
 70
   688
 72
     0
 73
     0
 74
     5
  7

 75
    16
 76
     0
 77
     2
 78
   300
147
1.0
148
0.0
149
0.0
100
AcDbLayout
  1
Layout1
 70
     1
 71
     1
 10
0.0
 20
0.0
 11
12.0
 21
9.0
 12
0.0
 22
0.0
 32
0.0
 14
1.000000000000000E+20
 24
1.000000000000000E+20
 34
1.000000000000000E+20
 15
-1.000000000000000E+20
 25
-1.000000000000000E+20
 35
-1.000000000000000E+20
146
0.0
 13
0.0
 23
0.0
 33
0.0
 16
1.0
 26
0.0
 36
0.0
 17
0.0
 27
1.0
 37
0.0
 76
     0
330
1B
  0
LAYOUT
  5
26
102
{ACAD_REACTORS
330
1A
102
}
330
1A
100
AcDbPlotSettings
  1

  2
none_device
  4

  6

 40
0.0
 41
0.0
 42
0.0
 43
0.0
 44
0.0
 45
0.0
 46
0.0
 47
0.0
 48
0.0
 49
0.0
140
0.0
141
0.0
142
1.0
143
1.0
 70
   688
 72
     0
 73
     0
 74
     5
  7

 75
    16
 76
     0
 77
     2
 78
   300
147
1.0
148
0.0
149
0.0
100
AcDbLayout
  1
Layout2
 70
     1
 71
     2
 10
0.0
 20
0.0
 11
0.0
 21
0.0
 12
0.0
 22
0.0
 32
0.0
 14
0.0
 24
0.0
 34
0.0
 15
0.0
 25
0.0
 35
0.0
146
0.0
 13
0.0
 23
0.0
 33
0.0
 16
1.0
 26
0.0
 36
0.0
 17
0.0
 27
1.0
 37
0.0
 76
     0
330
23
  0
LAYOUT
  5
22
102
{ACAD_REACTORS
330
1A
102
}
330
1A
100
AcDbPlotSettings
  1

  2
none_device
  4

  6

 40
0.0
 41
0.0
 42
0.0
 43
0.0
 44
0.0
 45
0.0
 46
0.0
 47
0.0
 48
0.0
 49
0.0
140
0.0
141
0.0
142
1.0
143
1.0
 70
  1712
 72
     0
 73
     0
 74
     0
  7

 75
     0
 76
     0
 77
     2
 78
   300
147
1.0
148
0.0
149
0.0
100
AcDbLayout
  1
Model
 70
     1
 71
     0
 10
0.0
 20
0.0
 11
12.0
 21
9.0
 12
0.0
 22
0.0
 32
0.0
 14
-302.1802
 24
-151.2874
 34
0.0
 15
299.1575
 25
289.7291
 35
0.0
146
0.0
 13
0.0
 23
0.0
 33
0.0
 16
1.0
 26
0.0
 36
0.0
 17
0.0
 27
1.0
 37
0.0
 76
     0
330
1F
331
29
  0
MATERIAL
  5
3D
102
{ACAD_REACTORS
330
3B
102
}
330
3B
100
AcDbMaterial
  1
ByBlock
 72
     1
 94
      127
  0
MATERIAL
  5
3C
102
{ACAD_REACTORS
330
3B
102
}
330
3B
100
AcDbMaterial
  1
ByLayer
 72
     1
 94
      127
  0
MATERIAL
  5
3E
102
{ACAD_REACTORS
330
3B
102
}
330
3B
100
AcDbMaterial
  1
Global
 72
     1
 94
      127
  0
MLINESTYLE
  5
18
102
{ACAD_REACTORS
330
17
102
}
330
17
100
AcDbMlineStyle
  2
Standard
 70
     0
  3

 62
   256
 51
90.0
 52
90.0
 71
     2
 49
0.5
 62
   256
  6
BYLAYER
 49
-0.5
 62
   256
  6
BYLAYER
  0
ACDBPLACEHOLDER
  5
F
102
{ACAD_REACTORS
330
E
102
}
330
E
  0
VISUALSTYLE
  5
2F
102
{ACAD_REACTORS
330
2A
102
}
102
{ACAD_XDICTIONARY
360
9F
102
}
330
2A
100
AcDbVisualStyle
  2
2dWireframe
 70
     4
 71
     0
 72
     2
 73
     0
 90
        0
 40
-0.6
 41
-30.0
 62
     5
 63
     7
421
 16777215
 74
     1
 91
        4
 64
     7
 65
   257
 75
     1
175
     1
 42
1.0
 92
        0
 66
   257
 43
1.0
 76
     1
 77
     6
 78
     2
 67
     7
 79
     5
170
     0
171
     0
290
     0
174
     0
 93
        1
 44
0.0
173
     0
291
     0
 45
0.0
  0
VISUALSTYLE
  5
31
102
{ACAD_REACTORS
330
2A
102
}
102
{ACAD_XDICTIONARY
360
A3
102
}
330
2A
100
AcDbVisualStyle
  2
3D Hidden
 70
     6
 71
     1
 72
     2
 73
     2
 90
        0
 40
-0.6
 41
-30.0
 62
     5
 63
     7
421
 16777215
 74
     2
 91
        2
 64
     7
 65
   257
 75
     2
175
     1
 42
40.0
 92
        0
 66
   257
 43
1.0
 76
     1
 77
     6
 78
     2
 67
     7
 79
     3
170
     0
171
     0
290
     0
174
     0
 93
        1
 44
0.0
173
     0
291
     0
 45
0.0
  0
VISUALSTYLE
  5
30
102
{ACAD_REACTORS
330
2A
102
}
102
{ACAD_XDICTIONARY
360
A1
102
}
330
2A
100
AcDbVisualStyle
  2
3dWireframe
 70
     5
 71
     0
 72
     2
 73
     0
 90
        0
 40
-0.6
 41
-30.0
 62
     5
 63
     7
421
 16777215
 74
     1
 91
        4
 64
     7
 65
   257
 75
     1
175
     1
 42
1.0
 92
        0
 66
   257
 43
1.0
 76
     1
 77
     6
 78
     2
 67
     7
 79
     5
170
     0
171
     0
290
     0
174
     0
 93
        1
 44
0.0
173
     0
291
     0
 45
0.0
  0
VISUALSTYLE
  5
32
102
{ACAD_REACTORS
330
2A
102
}
102
{ACAD_XDICTIONARY
360
A5
102
}
330
2A
100
AcDbVisualStyle
  2
Basic
 70
     7
 71
     1
 72
     0
 73
     1
 90
        0
 40
-0.6
 41
-30.0
 62
     5
 63
     7
421
 16777215
 74
     0
 91
        4
 64
     7
 65
   257
 75
     1
175
     1
 42
1.0
 92
        8
 66
     7
 43
1.0
 76
     1
 77
     6
 78
     2
 67
     7
 79
     5
170
     0
171
     0
290
     0
174
     0
 93
        1
 44
0.0
173
     0
291
     1
 45
0.0
  0
VISUALSTYLE
  5
36
102
{ACAD_REACTORS
330
2A
102
}
102
{ACAD_XDICTIONARY
360
AD
102
}
330
2A
100
AcDbVisualStyle
  2
Brighten
 70
    12
 71
     2
 72
     2
 73
     0
 90
        0
 40
-0.6
 41
-30.0
 62
     5
 63
     7
421
 16777215
 74
     1
 91
        4
 64
     7
 65
   257
 75
     1
175
     1
 42
1.0
 92
        8
 66
     7
 43
1.0
 76
     1
 77
     6
 78
     2
 67
     7
 79
     5
170
     0
171
     0
290
     0
174
     0
 93
        1
 44
50.0
173
     0
291
     1
 45
0.0
  0
VISUALSTYLE
  5
3A
102
{ACAD_REACTORS
330
2A
102
}
102
{ACAD_XDICTIONARY
360
B5
102
}
330
2A
100
AcDbVisualStyle
  2
ColorChange
 70
    16
 71
     2
 72
     2
 73
     3
 90
        0
 40
-0.6
 41
-30.0
 62
     5
 63
     8
421
  8421504
 74
     1
 91
        4
 64
     7
 65
   257
 75
     1
175
     1
 42
1.0
 92
        8
 66
     8
424
  8421504
 43
1.0
 76
     1
 77
     6
 78
     2
 67
     7
 79
     5
170
     0
171
     0
290
     0
174
     0
 93
        1
 44
0.0
173
     0
291
     1
 45
0.0
  0
VISUALSTYLE
  5
34
102
{ACAD_REACTORS
330
2A
102
}
102
{ACAD_XDICTIONARY
360
A9
102
}
330
2A
100
AcDbVisualStyle
  2
Conceptual
 70
     9
 71
     3
 72
     2
 73
     0
 90
        0
 40
-0.6
 41
-30.0
 62
     5
 63
     7
421
 16777215
 74
     2
 91
        2
 64
     7
 65
   257
 75
     1
175
     1
 42
40.0
 92
        8
 66
     7
 43
1.0
 76
     1
 77
     6
 78
     2
 67
     7
 79
     3
170
     0
171
     0
290
     0
174
     0
 93
        1
 44
0.0
173
     0
291
     0
 45
0.0
  0
VISUALSTYLE
  5
35
102
{ACAD_REACTORS
330
2A
102
}
102
{ACAD_XDICTIONARY
360
AB
102
}
330
2A
100
AcDbVisualStyle
  2
Dim
 70
    11
 71
     2
 72
     2
 73
     0
 90
        0
 40
-0.6
 41
-30.0
 62
     5
 63
     7
421
 16777215
 74
     1
 91
        4
 64
     7
 65
   257
 75
     1
175
     1
 42
1.0
 92
        8
 66
     7
 43
1.0
 76
     1
 77
     6
 78
     2
 67
     7
 79
     5
170
     0
171
     0
290
     0
174
     0
 93
        1
 44
-50.0
173
     0
291
     1
 45
0.0
  0
VISUALSTYLE
  5
39
102
{ACAD_REACTORS
330
2A
102
}
102
{ACAD_XDICTIONARY
360
B3
102
}
330
2A
100
AcDbVisualStyle
  2
Facepattern
 70
    15
 71
     2
 72
     2
 73
     0
 90
        0
 40
-0.6
 41
-30.0
 62
     5
 63
     7
421
 16777215
 74
     1
 91
        4
 64
     7
 65
   257
 75
     1
175
     1
 42
1.0
 92
        8
 66
     7
 43
1.0
 76
     1
 77
     6
 78
     2
 67
     7
 79
     5
170
     0
171
     0
290
     0
174
     0
 93
        1
 44
0.0
173
     0
291
     1
 45
0.0
  0
VISUALSTYLE
  5
2B
102
{ACAD_REACTORS
330
2A
102
}
102
{ACAD_XDICTIONARY
360
97
102
}
330
2A
100
AcDbVisualStyle
  2
Flat
 70
     0
 71
     2
 72
     1
 73
     1
 90
        2
 40
-0.6
 41
30.0
 62
     5
 63
     7
421
 16777215
 74
     0
 91
        4
 64
     7
 65
   257
 75
     1
175
     1
 42
1.0
 92
        8
 66
     7
 43
1.0
 76
     1
 77
     6
 78
     2
 67
     7
 79
     5
170
     0
171
     0
290
     0
174
     0
 93
       13
 44
0.0
173
     0
291
     1
 45
0.0
  0
VISUALSTYLE
  5
2C
102
{ACAD_REACTORS
330
2A
102
}
102
{ACAD_XDICTIONARY
360
99
102
}
330
2A
100
AcDbVisualStyle
  2
FlatWithEdges
 70
     1
 71
     2
 72
     1
 73
     1
 90
        2
 40
-0.6
 41
30.0
 62
     5
 63
     7
421
 16777215
 74
     1
 91
        4
 64
     7
 65
   257
 75
     1
175
     1
 42
1.0
 92
        0
 66
   257
 43
1.0
 76
     1
 77
     6
 78
     2
 67
     7
 79
     5
170
     0
171
     0
290
     0
174
     0
 93
       13
 44
0.0
173
     0
291
     1
 45
0.0
  0
VISUALSTYLE
  5
2D
102
{ACAD_REACTORS
330
2A
102
}
102
{ACAD_XDICTIONARY
360
9B
102
}
330
2A
100
AcDbVisualStyle
  2
Gouraud
 70
     2
 71
     2
 72
     2
 73
     1
 90
        2
 40
-0.6
 41
30.0
 62
     5
 63
     7
421
 16777215
 74
     0
 91
        4
 64
     7
 65
   257
 75
     1
175
     1
 42
1.0
 92
        0
 66
     7
 43
1.0
 76
     1
 77
     6
 78
     2
 67
     7
 79
     5
170
     0
171
     0
290
     0
174
     0
 93
       13
 44
0.0
173
     0
291
     1
 45
0.0
  0
VISUALSTYLE
  5
2E
102
{ACAD_REACTORS
330
2A
102
}
102
{ACAD_XDICTIONARY
360
9D
102
}
330
2A
100
AcDbVisualStyle
  2
GouraudWithEdges
 70
     3
 71
     2
 72
     2
 73
     1
 90
        2
 40
-0.6
 41
30.0
 62
     5
 63
     7
421
 16777215
 74
     1
 91
        4
 64
     7
 65
   257
 75
     1
175
     1
 42
1.0
 92
        0
 66
   257
 43
1.0
 76
     1
 77
     6
 78
     2
 67
     7
 79
     5
170
     0
171
     0
290
     0
174
     0
 93
       13
 44
0.0
173
     0
291
     1
 45
0.0
  0
VISUALSTYLE
  5
38
102
{ACAD_REACTORS
330
2A
102
}
102
{ACAD_XDICTIONARY
360
B1
102
}
330
2A
100
AcDbVisualStyle
  2
Linepattern
 70
    14
 71
     2
 72
     2
 73
     0
 90
        0
 40
-0.6
 41
-30.0
 62
     5
 63
     7
421
 16777215
 74
     1
 91
        4
 64
     7
 65
   257
 75
     7
175
     7
 42
1.0
 92
        8
 66
     7
 43
1.0
 76
     1
 77
     6
 78
     2
 67
     7
 79
     5
170
     0
171
     0
290
     0
174
     0
 93
        1
 44
0.0
173
     0
291
     1
 45
0.0
  0
VISUALSTYLE
  5
33
102
{ACAD_REACTORS
330
2A
102
}
102
{ACAD_XDICTIONARY
360
A7
102
}
330
2A
100
AcDbVisualStyle
  2
Realistic
 70
     8
 71
     2
 72
     2
 73
     0
 90
        0
 40
-0.6
 41
-30.0
 62
     5
 63
     7
421
 16777215
 74
     1
 91
        0
 64
     7
 65
   257
 75
     1
175
     1
 42
1.0
 92
        8
 66
     8
424
  7895160
 43
1.0
 76
     1
 77
     6
 78
     2
 67
     7
 79
     5
170
     0
171
     0
290
     0
174
     0
 93
       13
 44
0.0
173
     0
291
     0
 45
0.0
  0
VISUALSTYLE
  5
37
102
{ACAD_REACTORS
330
2A
102
}
102
{ACAD_XDICTIONARY
360
AF
102
}
330
2A
100
AcDbVisualStyle
  2
Thicken
 70
    13
 71
     2
 72
     2
 73
     0
 90
        0
 40
-0.6
 41
-30.0
 62
     5
 63
     7
421
 16777215
 74
     1
 91
        4
 64
     7
 65
   257
 75
     1
175
     1
 42
1.0
 92
       12
 66
     7
 43
1.0
 76
     1
 77
     6
 78
     2
 67
     7
 79
     5
170
     0
171
     0
290
     0
174
     0
 93
        1
 44
0.0
173
     0
291
     1
 45
0.0
  0
DICTIONARY
  5
9F
330
2F
100
AcDbDictionary
280
     1
281
     1
  3
ACAD_XREC_ROUNDTRIP
360
A0
  0
DICTIONARY
  5
A3
330
31
100
AcDbDictionary
280
     1
281
     1
  3
ACAD_XREC_ROUNDTRIP
360
A4
  0
DICTIONARY
  5
A1
330
30
100
AcDbDictionary
280
     1
281
     1
  3
ACAD_XREC_ROUNDTRIP
360
A2
  0
DICTIONARY
  5
A5
330
32
100
AcDbDictionary
280
     1
281
     1
  3
ACAD_XREC_ROUNDTRIP
360
A6
  0
DICTIONARY
  5
AD
330
36
100
AcDbDictionary
280
     1
281
     1
  3
ACAD_XREC_ROUNDTRIP
360
AE
  0
DICTIONARY
  5
B5
330
3A
100
AcDbDictionary
280
     1
281
     1
  3
ACAD_XREC_ROUNDTRIP
360
B6
  0
DICTIONARY
  5
A9
330
34
100
AcDbDictionary
280
     1
281
     1
  3
ACAD_XREC_ROUNDTRIP
360
AA
  0
DICTIONARY
  5
AB
330
35
100
AcDbDictionary
280
     1
281
     1
  3
ACAD_XREC_ROUNDTRIP
360
AC
  0
DICTIONARY
  5
B3
330
39
100
AcDbDictionary
280
     1
281
     1
  3
ACAD_XREC_ROUNDTRIP
360
B4
  0
DICTIONARY
  5
97
330
2B
100
AcDbDictionary
280
     1
281
     1
  3
ACAD_XREC_ROUNDTRIP
360
98
  0
DICTIONARY
  5
99
330
2C
100
AcDbDictionary
280
     1
281
     1
  3
ACAD_XREC_ROUNDTRIP
360
9A
  0
DICTIONARY
  5
9B
330
2D
100
AcDbDictionary
280
     1
281
     1
  3
ACAD_XREC_ROUNDTRIP
360
9C
  0
DICTIONARY
  5
9D
330
2E
100
AcDbDictionary
280
     1
281
     1
  3
ACAD_XREC_ROUNDTRIP
360
9E
  0
DICTIONARY
  5
B1
330
38
100
AcDbDictionary
280
     1
281
     1
  3
ACAD_XREC_ROUNDTRIP
360
B2
  0
DICTIONARY
  5
A7
330
33
100
AcDbDictionary
280
     1
281
     1
  3
ACAD_XREC_ROUNDTRIP
360
A8
  0
DICTIONARY
  5
AF
330
37
100
AcDbDictionary
280
     1
281
     1
  3
ACAD_XREC_ROUNDTRIP
360
B0
  0
XRECORD
  5
A0
102
{ACAD_REACTORS
330
9F
102
}
330
9F
100
AcDbXrecord
280
     1
102
RTVSPropertyOp0
 70
     1
102
RTVSPropertyOp1
 70
     1
102
RTVSPropertyOp2
 70
     1
102
RTVSPropertyOp3
 70
     1
102
RTVSPropertyOp4
 70
     1
102
RTVSPropertyOp5
 70
     1
102
RTVSPropertyOp6
 70
     1
102
RTVSPropertyOp7
 70
     1
102
RTVSPropertyOp8
 70
     1
102
RTVSPropertyOp9
 70
     1
102
RTVSPropertyOp10
 70
     1
102
RTVSPropertyOp11
 70
     1
102
RTVSPropertyOp12
 70
     1
102
RTVSPropertyOp13
 70
     1
102
RTVSPropertyOp14
 70
     1
102
RTVSPropertyOp15
 70
     1
102
RTVSPropertyOp16
 70
     1
102
RTVSPropertyOp17
 70
     1
102
RTVSPropertyOp18
 70
     1
102
RTVSPropertyOp19
 70
     1
102
RTVSPropertyOp20
 70
     1
102
RTVSPropertyOp21
 70
     1
102
RTVSPropertyOp22
 70
     1
102
RTVSPropertyOp23
 70
     1
102
RTVSPropertyOp24
 70
     1
102
RTVSPropertyOp25
 70
     1
102
RTVSPropertyOp26
 70
     1
102
RTVSPropertyOp27
 70
     1
  0
XRECORD
  5
A4
102
{ACAD_REACTORS
330
A3
102
}
330
A3
100
AcDbXrecord
280
     1
102
RTVSPropertyOp0
 70
     1
102
RTVSPropertyOp1
 70
     1
102
RTVSPropertyOp2
 70
     1
102
RTVSPropertyOp3
 70
     1
102
RTVSPropertyOp4
 70
     1
102
RTVSPropertyOp5
 70
     1
102
RTVSPropertyOp6
 70
     1
102
RTVSPropertyOp7
 70
     1
102
RTVSPropertyOp8
 70
     1
102
RTVSPropertyOp9
 70
     1
102
RTVSPropertyOp10
 70
     1
102
RTVSPropertyOp11
 70
     1
102
RTVSPropertyOp12
 70
     1
102
RTVSPropertyOp13
 70
     1
102
RTVSPropertyOp14
 70
     1
102
RTVSPropertyOp15
 70
     1
102
RTVSPropertyOp16
 70
     1
102
RTVSPropertyOp17
 70
     1
102
RTVSPropertyOp18
 70
     1
102
RTVSPropertyOp19
 70
     1
102
RTVSPropertyOp20
 70
     1
102
RTVSPropertyOp21
 70
     1
102
RTVSPropertyOp22
 70
     1
102
RTVSPropertyOp23
 70
     1
102
RTVSPropertyOp24
 70
     1
102
RTVSPropertyOp25
 70
     1
102
RTVSPropertyOp26
 70
     1
102
RTVSPropertyOp27
 70
     1
  0
XRECORD
  5
A2
102
{ACAD_REACTORS
330
A1
102
}
330
A1
100
AcDbXrecord
280
     1
102
RTVSPropertyOp0
 70
     1
102
RTVSPropertyOp1
 70
     1
102
RTVSPropertyOp2
 70
     1
102
RTVSPropertyOp3
 70
     1
102
RTVSPropertyOp4
 70
     1
102
RTVSPropertyOp5
 70
     1
102
RTVSPropertyOp6
 70
     1
102
RTVSPropertyOp7
 70
     1
102
RTVSPropertyOp8
 70
     1
102
RTVSPropertyOp9
 70
     1
102
RTVSPropertyOp10
 70
     1
102
RTVSPropertyOp11
 70
     1
102
RTVSPropertyOp12
 70
     1
102
RTVSPropertyOp13
 70
     1
102
RTVSPropertyOp14
 70
     1
102
RTVSPropertyOp15
 70
     1
102
RTVSPropertyOp16
 70
     1
102
RTVSPropertyOp17
 70
     1
102
RTVSPropertyOp18
 70
     1
102
RTVSPropertyOp19
 70
     1
102
RTVSPropertyOp20
 70
     1
102
RTVSPropertyOp21
 70
     1
102
RTVSPropertyOp22
 70
     1
102
RTVSPropertyOp23
 70
     1
102
RTVSPropertyOp24
 70
     1
102
RTVSPropertyOp25
 70
     1
102
RTVSPropertyOp26
 70
     1
102
RTVSPropertyOp27
 70
     1
  0
XRECORD
  5
A6
102
{ACAD_REACTORS
330
A5
102
}
330
A5
100
AcDbXrecord
280
     1
102
RTVSPropertyOp0
 70
     1
102
RTVSPropertyOp1
 70
     1
102
RTVSPropertyOp2
 70
     1
102
RTVSPropertyOp3
 70
     1
102
RTVSPropertyOp4
 70
     1
102
RTVSPropertyOp5
 70
     1
102
RTVSPropertyOp6
 70
     1
102
RTVSPropertyOp7
 70
     1
102
RTVSPropertyOp8
 70
     1
102
RTVSPropertyOp9
 70
     1
102
RTVSPropertyOp10
 70
     1
102
RTVSPropertyOp11
 70
     1
102
RTVSPropertyOp12
 70
     1
102
RTVSPropertyOp13
 70
     1
102
RTVSPropertyOp14
 70
     1
102
RTVSPropertyOp15
 70
     1
102
RTVSPropertyOp16
 70
     1
102
RTVSPropertyOp17
 70
     1
102
RTVSPropertyOp18
 70
     1
102
RTVSPropertyOp19
 70
     1
102
RTVSPropertyOp20
 70
     1
102
RTVSPropertyOp21
 70
     1
102
RTVSPropertyOp22
 70
     1
102
RTVSPropertyOp23
 70
     1
102
RTVSPropertyOp24
 70
     1
102
RTVSPropertyOp25
 70
     1
102
RTVSPropertyOp26
 70
     1
102
RTVSPropertyOp27
 70
     1
  0
XRECORD
  5
AE
102
{ACAD_REACTORS
330
AD
102
}
330
AD
100
AcDbXrecord
280
     1
102
RTVSPropertyOp0
 70
     1
102
RTVSPropertyOp1
 70
     1
102
RTVSPropertyOp2
 70
     1
102
RTVSPropertyOp3
 70
     1
102
RTVSPropertyOp4
 70
     1
102
RTVSPropertyOp5
 70
     1
102
RTVSPropertyOp6
 70
     1
102
RTVSPropertyOp7
 70
     1
102
RTVSPropertyOp8
 70
     1
102
RTVSPropertyOp9
 70
     1
102
RTVSPropertyOp10
 70
     1
102
RTVSPropertyOp11
 70
     1
102
RTVSPropertyOp12
 70
     1
102
RTVSPropertyOp13
 70
     1
102
RTVSPropertyOp14
 70
     1
102
RTVSPropertyOp15
 70
     1
102
RTVSPropertyOp16
 70
     1
102
RTVSPropertyOp17
 70
     1
102
RTVSPropertyOp18
 70
     1
102
RTVSPropertyOp19
 70
     1
102
RTVSPropertyOp20
 70
     1
102
RTVSPropertyOp21
 70
     1
102
RTVSPropertyOp22
 70
     1
102
RTVSPropertyOp23
 70
     1
102
RTVSPropertyOp24
 70
     1
102
RTVSPropertyOp25
 70
     1
102
RTVSPropertyOp26
 70
     1
102
RTVSPropertyOp27
 70
     1
  0
XRECORD
  5
B6
102
{ACAD_REACTORS
330
B5
102
}
330
B5
100
AcDbXrecord
280
     1
102
RTVSPropertyOp0
 70
     1
102
RTVSPropertyOp1
 70
     1
102
RTVSPropertyOp2
 70
     1
102
RTVSPropertyOp3
 70
     1
102
RTVSPropertyOp4
 70
     1
102
RTVSPropertyOp5
 70
     1
102
RTVSPropertyOp6
 70
     1
102
RTVSPropertyOp7
 70
     1
102
RTVSPropertyOp8
 70
     1
102
RTVSPropertyOp9
 70
     1
102
RTVSPropertyOp10
 70
     1
102
RTVSPropertyOp11
 70
     1
102
RTVSPropertyOp12
 70
     1
102
RTVSPropertyOp13
 70
     1
102
RTVSPropertyOp14
 70
     1
102
RTVSPropertyOp15
 70
     1
102
RTVSPropertyOp16
 70
     1
102
RTVSPropertyOp17
 70
     1
102
RTVSPropertyOp18
 70
     1
102
RTVSPropertyOp19
 70
     1
102
RTVSPropertyOp20
 70
     1
102
RTVSPropertyOp21
 70
     1
102
RTVSPropertyOp22
 70
     1
102
RTVSPropertyOp23
 70
     1
102
RTVSPropertyOp24
 70
     1
102
RTVSPropertyOp25
 70
     1
102
RTVSPropertyOp26
 70
     1
102
RTVSPropertyOp27
 70
     1
  0
XRECORD
  5
AA
102
{ACAD_REACTORS
330
A9
102
}
330
A9
100
AcDbXrecord
280
     1
102
RTVSPropertyOp0
 70
     1
102
RTVSPropertyOp1
 70
     1
102
RTVSPropertyOp2
 70
     1
102
RTVSPropertyOp3
 70
     1
102
RTVSPropertyOp4
 70
     1
102
RTVSPropertyOp5
 70
     1
102
RTVSPropertyOp6
 70
     1
102
RTVSPropertyOp7
 70
     1
102
RTVSPropertyOp8
 70
     1
102
RTVSPropertyOp9
 70
     1
102
RTVSPropertyOp10
 70
     1
102
RTVSPropertyOp11
 70
     1
102
RTVSPropertyOp12
 70
     1
102
RTVSPropertyOp13
 70
     1
102
RTVSPropertyOp14
 70
     1
102
RTVSPropertyOp15
 70
     1
102
RTVSPropertyOp16
 70
     1
102
RTVSPropertyOp17
 70
     1
102
RTVSPropertyOp18
 70
     1
102
RTVSPropertyOp19
 70
     1
102
RTVSPropertyOp20
 70
     1
102
RTVSPropertyOp21
 70
     1
102
RTVSPropertyOp22
 70
     1
102
RTVSPropertyOp23
 70
     1
102
RTVSPropertyOp24
 70
     1
102
RTVSPropertyOp25
 70
     1
102
RTVSPropertyOp26
 70
     1
102
RTVSPropertyOp27
 70
     1
  0
XRECORD
  5
AC
102
{ACAD_REACTORS
330
AB
102
}
330
AB
100
AcDbXrecord
280
     1
102
RTVSPropertyOp0
 70
     1
102
RTVSPropertyOp1
 70
     1
102
RTVSPropertyOp2
 70
     1
102
RTVSPropertyOp3
 70
     1
102
RTVSPropertyOp4
 70
     1
102
RTVSPropertyOp5
 70
     1
102
RTVSPropertyOp6
 70
     1
102
RTVSPropertyOp7
 70
     1
102
RTVSPropertyOp8
 70
     1
102
RTVSPropertyOp9
 70
     1
102
RTVSPropertyOp10
 70
     1
102
RTVSPropertyOp11
 70
     1
102
RTVSPropertyOp12
 70
     1
102
RTVSPropertyOp13
 70
     1
102
RTVSPropertyOp14
 70
     1
102
RTVSPropertyOp15
 70
     1
102
RTVSPropertyOp16
 70
     1
102
RTVSPropertyOp17
 70
     1
102
RTVSPropertyOp18
 70
     1
102
RTVSPropertyOp19
 70
     1
102
RTVSPropertyOp20
 70
     1
102
RTVSPropertyOp21
 70
     1
102
RTVSPropertyOp22
 70
     1
102
RTVSPropertyOp23
 70
     1
102
RTVSPropertyOp24
 70
     1
102
RTVSPropertyOp25
 70
     1
102
RTVSPropertyOp26
 70
     1
102
RTVSPropertyOp27
 70
     1
  0
XRECORD
  5
B4
102
{ACAD_REACTORS
330
B3
102
}
330
B3
100
AcDbXrecord
280
     1
102
RTVSPropertyOp0
 70
     1
102
RTVSPropertyOp1
 70
     1
102
RTVSPropertyOp2
 70
     1
102
RTVSPropertyOp3
 70
     1
102
RTVSPropertyOp4
 70
     1
102
RTVSPropertyOp5
 70
     1
102
RTVSPropertyOp6
 70
     1
102
RTVSPropertyOp7
 70
     1
102
RTVSPropertyOp8
 70
     1
102
RTVSPropertyOp9
 70
     1
102
RTVSPropertyOp10
 70
     1
102
RTVSPropertyOp11
 70
     1
102
RTVSPropertyOp12
 70
     1
102
RTVSPropertyOp13
 70
     1
102
RTVSPropertyOp14
 70
     1
102
RTVSPropertyOp15
 70
     1
102
RTVSPropertyOp16
 70
     1
102
RTVSPropertyOp17
 70
     1
102
RTVSPropertyOp18
 70
     1
102
RTVSPropertyOp19
 70
     1
102
RTVSPropertyOp20
 70
     1
102
RTVSPropertyOp21
 70
     1
102
RTVSPropertyOp22
 70
     1
102
RTVSPropertyOp23
 70
     1
102
RTVSPropertyOp24
 70
     1
102
RTVSPropertyOp25
 70
     1
102
RTVSPropertyOp26
 70
     1
102
RTVSPropertyOp27
 70
     1
  0
XRECORD
  5
98
102
{ACAD_REACTORS
330
97
102
}
330
97
100
AcDbXrecord
280
     1
102
RTVSPropertyOp0
 70
     1
102
RTVSPropertyOp1
 70
     1
102
RTVSPropertyOp2
 70
     1
102
RTVSPropertyOp3
 70
     1
102
RTVSPropertyOp4
 70
     1
102
RTVSPropertyOp5
 70
     1
102
RTVSPropertyOp6
 70
     1
102
RTVSPropertyOp7
 70
     1
102
RTVSPropertyOp8
 70
     1
102
RTVSPropertyOp9
 70
     1
102
RTVSPropertyOp10
 70
     1
102
RTVSPropertyOp11
 70
     1
102
RTVSPropertyOp12
 70
     1
102
RTVSPropertyOp13
 70
     1
102
RTVSPropertyOp14
 70
     1
102
RTVSPropertyOp15
 70
     1
102
RTVSPropertyOp16
 70
     1
102
RTVSPropertyOp17
 70
     1
102
RTVSPropertyOp18
 70
     1
102
RTVSPropertyOp19
 70
     1
102
RTVSPropertyOp20
 70
     1
102
RTVSPropertyOp21
 70
     1
102
RTVSPropertyOp22
 70
     1
102
RTVSPropertyOp23
 70
     1
102
RTVSPropertyOp24
 70
     1
102
RTVSPropertyOp25
 70
     1
102
RTVSPropertyOp26
 70
     1
102
RTVSPropertyOp27
 70
     1
  0
XRECORD
  5
9A
102
{ACAD_REACTORS
330
99
102
}
330
99
100
AcDbXrecord
280
     1
102
RTVSPropertyOp0
 70
     1
102
RTVSPropertyOp1
 70
     1
102
RTVSPropertyOp2
 70
     1
102
RTVSPropertyOp3
 70
     1
102
RTVSPropertyOp4
 70
     1
102
RTVSPropertyOp5
 70
     1
102
RTVSPropertyOp6
 70
     1
102
RTVSPropertyOp7
 70
     1
102
RTVSPropertyOp8
 70
     1
102
RTVSPropertyOp9
 70
     1
102
RTVSPropertyOp10
 70
     1
102
RTVSPropertyOp11
 70
     1
102
RTVSPropertyOp12
 70
     1
102
RTVSPropertyOp13
 70
     1
102
RTVSPropertyOp14
 70
     1
102
RTVSPropertyOp15
 70
     1
102
RTVSPropertyOp16
 70
     1
102
RTVSPropertyOp17
 70
     1
102
RTVSPropertyOp18
 70
     1
102
RTVSPropertyOp19
 70
     1
102
RTVSPropertyOp20
 70
     1
102
RTVSPropertyOp21
 70
     1
102
RTVSPropertyOp22
 70
     1
102
RTVSPropertyOp23
 70
     1
102
RTVSPropertyOp24
 70
     1
102
RTVSPropertyOp25
 70
     1
102
RTVSPropertyOp26
 70
     1
102
RTVSPropertyOp27
 70
     1
  0
XRECORD
  5
9C
102
{ACAD_REACTORS
330
9B
102
}
330
9B
100
AcDbXrecord
280
     1
102
RTVSPropertyOp0
 70
     1
102
RTVSPropertyOp1
 70
     1
102
RTVSPropertyOp2
 70
     1
102
RTVSPropertyOp3
 70
     1
102
RTVSPropertyOp4
 70
     1
102
RTVSPropertyOp5
 70
     1
102
RTVSPropertyOp6
 70
     1
102
RTVSPropertyOp7
 70
     1
102
RTVSPropertyOp8
 70
     1
102
RTVSPropertyOp9
 70
     1
102
RTVSPropertyOp10
 70
     1
102
RTVSPropertyOp11
 70
     1
102
RTVSPropertyOp12
 70
     1
102
RTVSPropertyOp13
 70
     1
102
RTVSPropertyOp14
 70
     1
102
RTVSPropertyOp15
 70
     1
102
RTVSPropertyOp16
 70
     1
102
RTVSPropertyOp17
 70
     1
102
RTVSPropertyOp18
 70
     1
102
RTVSPropertyOp19
 70
     1
102
RTVSPropertyOp20
 70
     1
102
RTVSPropertyOp21
 70
     1
102
RTVSPropertyOp22
 70
     1
102
RTVSPropertyOp23
 70
     1
102
RTVSPropertyOp24
 70
     1
102
RTVSPropertyOp25
 70
     1
102
RTVSPropertyOp26
 70
     1
102
RTVSPropertyOp27
 70
     1
  0
XRECORD
  5
9E
102
{ACAD_REACTORS
330
9D
102
}
330
9D
100
AcDbXrecord
280
     1
102
RTVSPropertyOp0
 70
     1
102
RTVSPropertyOp1
 70
     1
102
RTVSPropertyOp2
 70
     1
102
RTVSPropertyOp3
 70
     1
102
RTVSPropertyOp4
 70
     1
102
RTVSPropertyOp5
 70
     1
102
RTVSPropertyOp6
 70
     1
102
RTVSPropertyOp7
 70
     1
102
RTVSPropertyOp8
 70
     1
102
RTVSPropertyOp9
 70
     1
102
RTVSPropertyOp10
 70
     1
102
RTVSPropertyOp11
 70
     1
102
RTVSPropertyOp12
 70
     1
102
RTVSPropertyOp13
 70
     1
102
RTVSPropertyOp14
 70
     1
102
RTVSPropertyOp15
 70
     1
102
RTVSPropertyOp16
 70
     1
102
RTVSPropertyOp17
 70
     1
102
RTVSPropertyOp18
 70
     1
102
RTVSPropertyOp19
 70
     1
102
RTVSPropertyOp20
 70
     1
102
RTVSPropertyOp21
 70
     1
102
RTVSPropertyOp22
 70
     1
102
RTVSPropertyOp23
 70
     1
102
RTVSPropertyOp24
 70
     1
102
RTVSPropertyOp25
 70
     1
102
RTVSPropertyOp26
 70
     1
102
RTVSPropertyOp27
 70
     1
  0
XRECORD
  5
B2
102
{ACAD_REACTORS
330
B1
102
}
330
B1
100
AcDbXrecord
280
     1
102
RTVSPropertyOp0
 70
     1
102
RTVSPropertyOp1
 70
     1
102
RTVSPropertyOp2
 70
     1
102
RTVSPropertyOp3
 70
     1
102
RTVSPropertyOp4
 70
     1
102
RTVSPropertyOp5
 70
     1
102
RTVSPropertyOp6
 70
     1
102
RTVSPropertyOp7
 70
     1
102
RTVSPropertyOp8
 70
     1
102
RTVSPropertyOp9
 70
     1
102
RTVSPropertyOp10
 70
     1
102
RTVSPropertyOp11
 70
     1
102
RTVSPropertyOp12
 70
     1
102
RTVSPropertyOp13
 70
     1
102
RTVSPropertyOp14
 70
     1
102
RTVSPropertyOp15
 70
     1
102
RTVSPropertyOp16
 70
     1
102
RTVSPropertyOp17
 70
     1
102
RTVSPropertyOp18
 70
     1
102
RTVSPropertyOp19
 70
     1
102
RTVSPropertyOp20
 70
     1
102
RTVSPropertyOp21
 70
     1
102
RTVSPropertyOp22
 70
     1
102
RTVSPropertyOp23
 70
     1
102
RTVSPropertyOp24
 70
     1
102
RTVSPropertyOp25
 70
     1
102
RTVSPropertyOp26
 70
     1
102
RTVSPropertyOp27
 70
     1
  0
XRECORD
  5
A8
102
{ACAD_REACTORS
330
A7
102
}
330
A7
100
AcDbXrecord
280
     1
102
RTVSPropertyOp0
 70
     1
102
RTVSPropertyOp1
 70
     1
102
RTVSPropertyOp2
 70
     1
102
RTVSPropertyOp3
 70
     1
102
RTVSPropertyOp4
 70
     1
102
RTVSPropertyOp5
 70
     1
102
RTVSPropertyOp6
 70
     1
102
RTVSPropertyOp7
 70
     1
102
RTVSPropertyOp8
 70
     1
102
RTVSPropertyOp9
 70
     1
102
RTVSPropertyOp10
 70
     1
102
RTVSPropertyOp11
 70
     1
102
RTVSPropertyOp12
 70
     1
102
RTVSPropertyOp13
 70
     1
102
RTVSPropertyOp14
 70
     1
102
RTVSPropertyOp15
 70
     1
102
RTVSPropertyOp16
 70
     1
102
RTVSPropertyOp17
 70
     1
102
RTVSPropertyOp18
 70
     1
102
RTVSPropertyOp19
 70
     1
102
RTVSPropertyOp20
 70
     1
102
RTVSPropertyOp21
 70
     1
102
RTVSPropertyOp22
 70
     1
102
RTVSPropertyOp23
 70
     1
102
RTVSPropertyOp24
 70
     1
102
RTVSPropertyOp25
 70
     1
102
RTVSPropertyOp26
 70
     1
102
RTVSPropertyOp27
 70
     1
  0
XRECORD
  5
B0
102
{ACAD_REACTORS
330
AF
102
}
330
AF
100
AcDbXrecord
280
     1
102
RTVSPropertyOp0
 70
     1
102
RTVSPropertyOp1
 70
     1
102
RTVSPropertyOp2
 70
     1
102
RTVSPropertyOp3
 70
     1
102
RTVSPropertyOp4
 70
     1
102
RTVSPropertyOp5
 70
     1
102
RTVSPropertyOp6
 70
     1
102
RTVSPropertyOp7
 70
     1
102
RTVSPropertyOp8
 70
     1
102
RTVSPropertyOp9
 70
     1
102
RTVSPropertyOp10
 70
     1
102
RTVSPropertyOp11
 70
     1
102
RTVSPropertyOp12
 70
     1
102
RTVSPropertyOp13
 70
     1
102
RTVSPropertyOp14
 70
     1
102
RTVSPropertyOp15
 70
     1
102
RTVSPropertyOp16
 70
     1
102
RTVSPropertyOp17
 70
     1
102
RTVSPropertyOp18
 70
     1
102
RTVSPropertyOp19
 70
     1
102
RTVSPropertyOp20
 70
     1
102
RTVSPropertyOp21
 70
     1
102
RTVSPropertyOp22
 70
     1
102
RTVSPropertyOp23
 70
     1
102
RTVSPropertyOp24
 70
     1
102
RTVSPropertyOp25
 70
     1
102
RTVSPropertyOp26
 70
     1
102
RTVSPropertyOp27
 70
     1
  0
ENDSEC
  0
EOF
