  0
SECTION
  2
HEADER
  9
$ACADVER
  1
AC1021
  9
$ACADMAINTVER
 70
    25
  9
$DWGCODEPAGE
  3
ANSI_1252
  9
$INSBASE
 10
0.0
 20
0.0
 30
0.0
  9
$EXTMIN
 10
-14.31657
 20
-8.70511
 30
0.0
  9
$EXTMAX
 10
14.31826
 20
8.70491
 30
0.0
  9
$LIMMIN
 10
0.0
 20
0.0
  9
$LIMMAX
 10
12.0
 20
9.0
  9
$ORTHOMODE
 70
     0
  9
$REGENMODE
 70
     1
  9
$FILLMODE
 70
     1
  9
$QTEXTMODE
 70
     0
  9
$MIRRTEXT
 70
     1
  9
$LTSCALE
 40
1.0
  9
$ATTMODE
 70
     1
  9
$TEXTSIZE
 40
0.2
  9
$TRACEWID
 40
0.05
  9
$TEXTSTYLE
  7
Standard
  9
$CLAYER
  8
0
  9
$CELTYPE
  6
ByLayer
  9
$CECOLOR
 62
   256
  9
$CELTSCALE
 40
1.0
  9
$DISPSILH
 70
     0
  9
$DIMSCALE
 40
1.0
  9
$DIMASZ
 40
0.18
  9
$DIMEXO
 40
0.0625
  9
$DIMDLI
 40
0.38
  9
$DIMRND
 40
0.0
  9
$DIMDLE
 40
0.0
  9
$DIMEXE
 40
0.18
  9
$DIMTP
 40
0.0
  9
$DIMTM
 40
0.0
  9
$DIMTXT
 40
0.18
  9
$DIMCEN
 40
0.09
  9
$DIMTSZ
 40
0.0
  9
$DIMTOL
 70
     0
  9
$DIMLIM
 70
     0
  9
$DIMTIH
 70
     1
  9
$DIMTOH
 70
     1
  9
$DIMSE1
 70
     0
  9
$DIMSE2
 70
     0
  9
$DIMTAD
 70
     0
  9
$DIMZIN
 70
     0
  9
$DIMBLK
  1

  9
$DIMASO
 70
     1
  9
$DIMSHO
 70
     1
  9
$DIMPOST
  1

  9
$DIMAPOST
  1

  9
$DIMALT
 70
     0
  9
$DIMALTD
 70
     2
  9
$DIMALTF
 40
25.4
  9
$DIMLFAC
 40
1.0
  9
$DIMTOFL
 70
     0
  9
$DIMTVP
 40
0.0
  9
$DIMTIX
 70
     0
  9
$DIMSOXD
 70
     0
  9
$DIMSAH
 70
     0
  9
$DIMBLK1
  1

  9
$DIMBLK2
  1

  9
$DIMSTYLE
  2
Standard
  9
$DIMCLRD
 70
     0
  9
$DIMCLRE
 70
     0
  9
$DIMCLRT
 70
     0
  9
$DIMTFAC
 40
1.0
  9
$DIMGAP
 40
0.09
  9
$DIMJUST
 70
     0
  9
$DIMSD1
 70
     0
  9
$DIMSD2
 70
     0
  9
$DIMTOLJ
 70
     1
  9
$DIMTZIN
 70
     0
  9
$DIMALTZ
 70
     0
  9
$DIMALTTZ
 70
     0
  9
$DIMUPT
 70
     0
  9
$DIMDEC
 70
     4
  9
$DIMTDEC
 70
     4
  9
$DIMALTU
 70
     2
  9
$DIMALTTD
 70
     2
  9
$DIMTXSTY
  7
Standard
  9
$DIMAUNIT
 70
     0
  9
$DIMADEC
 70
     0
  9
$DIMALTRND
 40
0.0
  9
$DIMAZIN
 70
     0
  9
$DIMDSEP
 70
    46
  9
$DIMATFIT
 70
     3
  9
$DIMFRAC
 70
     0
  9
$DIMLDRBLK
  1

  9
$DIMLUNIT
 70
     2
  9
$DIMLWD
 70
    -2
  9
$DIMLWE
 70
    -2
  9
$DIMTMOVE
 70
     0
  9
$DIMFXL
 40
1.0
  9
$DIMFXLON
 70
     0
  9
$DIMJOGANG
 40
0.7853981633974483
  9
$DIMTFILL
 70
     0
  9
$DIMTFILLCLR
 70
     0
  9
$DIMARCSYM
 70
     0
  9
$DIMLTYPE
  6

  9
$DIMLTEX1
  6

  9
$DIMLTEX2
  6

  9
$LUNITS
 70
     2
  9
$LUPREC
 70
     4
  9
$SKETCHINC
 40
0.1
  9
$FILLETRAD
 40
0.5
  9
$AUNITS
 70
     0
  9
$AUPREC
 70
     0
  9
$MENU
  1
.
  9
$ELEVATION
 40
0.0
  9
$PELEVATION
 40
0.0
  9
$THICKNESS
 40
0.0
  9
$LIMCHECK
 70
     0
  9
$CHAMFERA
 40
0.5
  9
$CHAMFERB
 40
0.5
  9
$CHAMFERC
 40
1.0
  9
$CHAMFERD
 40
0.0
  9
$SKPOLY
 70
     0
  9
$TDCREATE
 40
2455636.979021065
  9
$TDUCREATE
 40
2455636.937354398
  9
$TDUPDATE
 40
2455636.979021077
  9
$TDUUPDATE
 40
2455636.93735441
  9
$TDINDWG
 40
0.0000000116
  9
$TDUSRTIMER
 40
0.0000000116
  9
$USRTIMER
 70
     1
  9
$ANGBASE
 50
0.0
  9
$ANGDIR
 70
     0
  9
$PDMODE
 70
     0
  9
$PDSIZE
 40
0.0
  9
$PLINEWID
 40
0.0
  9
$SPLFRAME
 70
     0
  9
$SPLINETYPE
 70
     6
  9
$SPLINESEGS
 70
     8
  9
$HANDSEED
  5
94
  9
$SURFTAB1
 70
     6
  9
$SURFTAB2
 70
     6
  9
$SURFTYPE
 70
     6
  9
$SURFU
 70
     6
  9
$SURFV
 70
     6
  9
$UCSBASE
  2

  9
$UCSNAME
  2

  9
$UCSORG
 10
0.0
 20
0.0
 30
0.0
  9
$UCSXDIR
 10
1.0
 20
0.0
 30
0.0
  9
$UCSYDIR
 10
0.0
 20
1.0
 30
0.0
  9
$UCSORTHOREF
  2

  9
$UCSORTHOVIEW
 70
     0
  9
$UCSORGTOP
 10
0.0
 20
0.0
 30
0.0
  9
$UCSORGBOTTOM
 10
0.0
 20
0.0
 30
0.0
  9
$UCSORGLEFT
 10
0.0
 20
0.0
 30
0.0
  9
$UCSORGRIGHT
 10
0.0
 20
0.0
 30
0.0
  9
$UCSORGFRONT
 10
0.0
 20
0.0
 30
0.0
  9
$UCSORGBACK
 10
0.0
 20
0.0
 30
0.0
  9
$PUCSBASE
  2

  9
$PUCSNAME
  2

  9
$PUCSORG
 10
0.0
 20
0.0
 30
0.0
  9
$PUCSXDIR
 10
1.0
 20
0.0
 30
0.0
  9
$PUCSYDIR
 10
0.0
 20
1.0
 30
0.0
  9
$PUCSORTHOREF
  2

  9
$PUCSORTHOVIEW
 70
     0
  9
$PUCSORGTOP
 10
0.0
 20
0.0
 30
0.0
  9
$PUCSORGBOTTOM
 10
0.0
 20
0.0
 30
0.0
  9
$PUCSORGLEFT
 10
0.0
 20
0.0
 30
0.0
  9
$PUCSORGRIGHT
 10
0.0
 20
0.0
 30
0.0
  9
$PUCSORGFRONT
 10
0.0
 20
0.0
 30
0.0
  9
$PUCSORGBACK
 10
0.0
 20
0.0
 30
0.0
  9
$USERI1
 70
     0
  9
$USERI2
 70
     0
  9
$USERI3
 70
     0
  9
$USERI4
 70
     0
  9
$USERI5
 70
     0
  9
$USERR1
 40
0.0
  9
$USERR2
 40
0.0
  9
$USERR3
 40
0.0
  9
$USERR4
 40
0.0
  9
$USERR5
 40
0.0
  9
$WORLDVIEW
 70
     1
  9
$SHADEDGE
 70
     3
  9
$SHADEDIF
 70
    70
  9
$TILEMODE
 70
     1
  9
$MAXACTVP
 70
    64
  9
$PINSBASE
 10
0.0
 20
0.0
 30
0.0
  9
$PLIMCHECK
 70
     0
  9
$PEXTMIN
 10
1.000000000000000E+20
 20
1.000000000000000E+20
 30
1.000000000000000E+20
  9
$PEXTMAX
 10
-1.000000000000000E+20
 20
-1.000000000000000E+20
 30
-1.000000000000000E+20
  9
$PLIMMIN
 10
0.0
 20
0.0
  9
$PLIMMAX
 10
12.0
 20
9.0
  9
$UNITMODE
 70
     0
  9
$VISRETAIN
 70
     1
  9
$PLINEGEN
 70
     0
  9
$PSLTSCALE
 70
     1
  9
$TREEDEPTH
 70
  3020
  9
$CMLSTYLE
  2
Standard
  9
$CMLJUST
 70
     0
  9
$CMLSCALE
 40
1.0
  9
$PROXYGRAPHICS
 70
     1
  9
$MEASUREMENT
 70
     0
  9
$CELWEIGHT
370
    -1
  9
$ENDCAPS
280
     0
  9
$JOINSTYLE
280
     0
  9
$LWDISPLAY
290
     0
  9
$INSUNITS
 70
     5
  9
$HYPERLINKBASE
  1

  9
$STYLESHEET
  1

  9
$XEDIT
290
     1
  9
$CEPSNTYPE
380
     0
  9
$PSTYLEMODE
290
     1
  9
$FINGERPRINTGUID
  2
{D29C6EF9-C51F-4942-AF83-7173ECAC2F76}
  9
$VERSIONGUID
  2
{FAEB1C32-E019-11D5-929B-00C0DF256EC4}
  9
$EXTNAMES
290
     1
  9
$PSVPSCALE
 40
0.0
  9
$OLESTARTUP
290
     0
  9
$SORTENTS
280
   127
  9
$INDEXCTL
280
     0
  9
$HIDETEXT
280
     1
  9
$XCLIPFRAME
290
     0
  9
$HALOGAP
280
     0
  9
$OBSCOLOR
 70
   257
  9
$OBSLTYPE
280
     0
  9
$INTERSECTIONDISPLAY
280
     0
  9
$INTERSECTIONCOLOR
 70
   257
  9
$DIMASSOC
280
     2
  9
$PROJECTNAME
  1

  9
$CAMERADISPLAY
290
     0
  9
$LENSLENGTH
 40
50.0
  9
$CAMERAHEIGHT
 40
0.0
  9
$STEPSPERSEC
 40
2.0
  9
$STEPSIZE
 40
6.0
  9
$3DDWFPREC
 40
2.0
  9
$PSOLWIDTH
 40
0.25
  9
$PSOLHEIGHT
 40
4.0
  9
$LOFTANG1
 40
1.570796326794897
  9
$LOFTANG2
 40
1.570796326794897
  9
$LOFTMAG1
 40
0.0
  9
$LOFTMAG2
 40
0.0
  9
$LOFTPARAM
 70
     7
  9
$LOFTNORMALS
280
     1
  9
$LATITUDE
 40
37.795
  9
$LONGITUDE
 40
-122.394
  9
$NORTHDIRECTION
 40
0.0
  9
$TIMEZONE
 70
 -8000
  9
$LIGHTGLYPHDISPLAY
280
     1
  9
$TILEMODELIGHTSYNCH
280
     1
  9
$SOLIDHIST
280
     1
  9
$SHOWHIST
280
     1
  9
$DWFFRAME
280
     2
  9
$DGNFRAME
280
     2
  9
$REALWORLDSCALE
290
     1
  9
$INTERFERECOLOR
 62
   256
  9
$CSHADOW
280
     0
  9
$SHADOWPLANELOCATION
 40
0.0
  0
ENDSEC
  0
SECTION
  2
CLASSES
  0
CLASS
  1
ACDBDICTIONARYWDFLT
  2
AcDbDictionaryWithDefault
  3
ObjectDBX Classes
 90
        0
 91
        4
280
     0
281
     0
  0
CLASS
  1
VISUALSTYLE
  2
AcDbVisualStyle
  3
ObjectDBX Classes
 90
     4095
 91
        4
280
     0
281
     0
  0
CLASS
  1
MATERIAL
  2
AcDbMaterial
  3
ObjectDBX Classes
 90
     1153
 91
        4
280
     0
281
     0
  0
ENDSEC
  0
SECTION
  2
TABLES
  0
TABLE
  2
VPORT
  5
8
330
0
100
AcDbSymbolTable
 70
     1
  0
VPORT
  5
29
330
8
100
AcDbSymbolTableRecord
100
AcDbViewportTableRecord
  2
*Active
 70
     0
 10
0.0
 20
0.0
 11
1.0
 21
1.0
 12
10.42990654205607
 22
4.5
 13
0.0
 23
0.0
 14
0.5
 24
0.5
 15
0.5
 25
0.5
 16
0.0
 26
0.0
 36
1.0
 17
0.0
 27
0.0
 37
0.0
 40
9.0
 41
1.972972972850329
 42
50.0
 43
0.0
 44
0.0
 50
0.0
 51
0.0
 71
     0
 72
   100
 73
     1
 74
     3
 75
     0
 76
     0
 77
     0
 78
     0
281
     0
 65
     1
110
0.0
120
0.0
130
0.0
111
1.0
121
0.0
131
0.0
112
0.0
122
1.0
132
0.0
 79
     0
146
0.0
 60
     3
 61
     5
292
     1
282
     1
141
0.0
142
0.0
 63
   250
  0
ENDTAB
  0
TABLE
  2
LTYPE
  5
5
330
0
100
AcDbSymbolTable
 70
     1
  0
LTYPE
  5
14
330
5
100
AcDbSymbolTableRecord
100
AcDbLinetypeTableRecord
  2
ByBlock
 70
     0
  3

 72
    65
 73
     0
 40
0.0
  0
LTYPE
  5
15
330
5
100
AcDbSymbolTableRecord
100
AcDbLinetypeTableRecord
  2
ByLayer
 70
     0
  3

 72
    65
 73
     0
 40
0.0
  0
LTYPE
  5
16
330
5
100
AcDbSymbolTableRecord
100
AcDbLinetypeTableRecord
  2
Continuous
 70
     0
  3
Solid line
 72
    65
 73
     0
 40
0.0
  0
ENDTAB
  0
TABLE
  2
LAYER
  5
2
330
0
100
AcDbSymbolTable
 70
     2
  0
LAYER
  5
10
330
2
100
AcDbSymbolTableRecord
100
AcDbLayerTableRecord
  2
0
 70
     0
 62
     7
  6
Continuous
370
    -3
390
F
347
3E
  0
LAYER
  5
40
330
2
100
AcDbSymbolTableRecord
100
AcDbLayerTableRecord
  2
Livello 1
 70
     0
 62
     7
  6
Continuous
370
    -3
390
F
347
3E
  0
ENDTAB
  0
TABLE
  2
STYLE
  5
3
330
0
100
AcDbSymbolTable
 70
     1
  0
STYLE
  5
11
330
3
100
AcDbSymbolTableRecord
100
AcDbTextStyleTableRecord
  2
Standard
 70
     0
 40
0.0
 41
1.0
 50
0.0
 71
     0
 42
0.2
  3
txt
  4

  0
ENDTAB
  0
TABLE
  2
VIEW
  5
6
330
0
100
AcDbSymbolTable
 70
     0
  0
ENDTAB
  0
TABLE
  2
UCS
  5
7
330
0
100
AcDbSymbolTable
 70
     0
  0
ENDTAB
  0
TABLE
  2
APPID
  5
9
330
0
100
AcDbSymbolTable
 70
     2
  0
APPID
  5
12
330
9
100
AcDbSymbolTableRecord
100
AcDbRegAppTableRecord
  2
ACAD
 70
     0
  0
APPID
  5
3F
330
9
100
AcDbSymbolTableRecord
100
AcDbRegAppTableRecord
  2
ODA
 70
     0
  0
ENDTAB
  0
TABLE
  2
DIMSTYLE
  5
A
330
0
100
AcDbSymbolTable
 70
     1
100
AcDbDimStyleTable
  0
DIMSTYLE
105
27
330
A
100
AcDbSymbolTableRecord
100
AcDbDimStyleTableRecord
  2
Standard
 70
     0
178
     0
340
11
  0
ENDTAB
  0
TABLE
  2
BLOCK_RECORD
  5
1
330
0
100
AcDbSymbolTable
 70
     1
  0
BLOCK_RECORD
  5
1F
330
1
100
AcDbSymbolTableRecord
100
AcDbBlockTableRecord
  2
*Model_Space
340
22
 70
     0
280
     1
281
     0
  0
BLOCK_RECORD
  5
1B
330
1
100
AcDbSymbolTableRecord
100
AcDbBlockTableRecord
  2
*Paper_Space
340
1E
 70
     0
280
     1
281
     0
  0
BLOCK_RECORD
  5
23
330
1
100
AcDbSymbolTableRecord
100
AcDbBlockTableRecord
  2
*Paper_Space0
340
26
 70
     0
280
     1
281
     0
  0
ENDTAB
  0
ENDSEC
  0
SECTION
  2
BLOCKS
  0
BLOCK
  5
20
330
1F
100
AcDbEntity
  8
0
100
AcDbBlockBegin
  2
*Model_Space
 70
     0
 10
0.0
 20
0.0
 30
0.0
  3
*Model_Space
  1

  0
ENDBLK
  5
21
330
1F
100
AcDbEntity
  8
0
100
AcDbBlockEnd
  0
BLOCK
  5
1C
330
1B
100
AcDbEntity
 67
     1
  8
0
100
AcDbBlockBegin
  2
*Paper_Space
 70
     0
 10
0.0
 20
0.0
 30
0.0
  3
*Paper_Space
  1

  0
ENDBLK
  5
1D
330
1B
100
AcDbEntity
 67
     1
  8
0
100
AcDbBlockEnd
  0
BLOCK
  5
24
330
23
100
AcDbEntity
  8
0
100
AcDbBlockBegin
  2
*Paper_Space0
 70
     0
 10
0.0
 20
0.0
 30
0.0
  3
*Paper_Space0
  1

  0
ENDBLK
  5
25
330
23
100
AcDbEntity
  8
0
100
AcDbBlockEnd
  0
ENDSEC
  0
SECTION
  2
ENTITIES
  0
SPLINE
  5
41
330
1F
100
AcDbEntity
  8
Livello 1
 62
   250
370
    20
100
AcDbSpline
210
0.0
220
0.0
230
1.0
 70
    11
 71
     3
 72
    36
 73
    32
 74
     0
 42
0.0000000001
 43
0.0000000001
 40
0.0
 40
0.0
 40
0.0
 40
0.0
 40
0.1111111111111111
 40
0.1111111111111111
 40
0.1111111111111111
 40
0.1111111111111111
 40
0.2222222222222222
 40
0.2222222222222222
 40
0.2222222222222222
 40
0.2222222222222222
 40
0.3333333333333333
 40
0.3333333333333333
 40
0.3333333333333333
 40
0.3333333333333333
 40
0.4444444444444444
 40
0.4444444444444444
 40
0.4444444444444444
 40
0.4444444444444444
 40
0.5555555555555556
 40
0.5555555555555556
 40
0.5555555555555556
 40
0.5555555555555556
 40
0.6666666666666666
 40
0.6666666666666666
 40
0.6666666666666666
 40
0.6666666666666666
 40
0.7777777777777778
 40
0.7777777777777778
 40
0.7777777777777778
 40
0.7777777777777778
 40
1.0
 40
1.0
 40
1.0
 40
1.0
 10
-11.30947
 20
-4.09886
 30
0.0
 10
-11.71448
 20
-4.1228
 30
0.0
 10
-12.53438
 20
-4.89671
 30
0.0
 10
-13.24338
 20
-4.82991
 30
0.0
 10
-13.24338
 20
-4.82991
 30
0.0
 10
-13.87474
 20
-4.75654
 30
0.0
 10
-14.16188
 20
-6.20208
 30
0.0
 10
-14.22551
 20
-6.67564
 30
0.0
 10
-14.22551
 20
-6.67564
 30
0.0
 10
-14.29312
 20
-6.98737
 30
0.0
 10
-14.32464
 20
-8.09023
 30
0.0
 10
-13.61591
 20
-7.97104
 30
0.0
 10
-13.61591
 20
-7.97104
 30
0.0
 10
-13.61478
 20
-7.97085
 30
0.0
 10
-13.02542
 20
-7.72066
 30
0.0
 10
-12.82851
 20
-7.69164
 30
0.0
 10
-12.82851
 20
-7.69164
 30
0.0
 10
-11.76179
 20
-7.50965
 30
0.0
 10
-11.44836
 20
-7.59368
 30
0.0
 10
-10.17845
 20
-8.14267
 30
0.0
 10
-10.17845
 20
-8.14267
 30
0.0
 10
-9.68709
 20
-8.35509
 30
0.0
 10
-9.29109
 20
-7.91989
 30
0.0
 10
-9.47571
 20
-7.14131
 30
0.0
 10
-9.47571
 20
-7.14131
 30
0.0
 10
-9.56923
 20
-6.74693
 30
0.0
 10
-9.63638
 20
-6.38955
 30
0.0
 10
-9.79744
 20
-5.98984
 30
0.0
 10
-9.79744
 20
-5.98984
 30
0.0
 10
-10.05813
 20
-5.34285
 30
0.0
 10
-10.49826
 20
-4.0724
 30
0.0
 10
-11.30947
 20
-4.09886
 30
0.0
  0
SPLINE
  5
42
330
1F
100
AcDbEntity
  8
Livello 1
 62
   250
370
    20
100
AcDbSpline
210
0.0
220
0.0
230
1.0
 70
    11
 71
     3
 72
    48
 73
    44
 74
     0
 42
0.0000000001
 43
0.0000000001
 40
0.0
 40
0.0
 40
0.0
 40
0.0
 40
0.0833333333333333
 40
0.0833333333333333
 40
0.0833333333333333
 40
0.0833333333333333
 40
0.1666666666666667
 40
0.1666666666666667
 40
0.1666666666666667
 40
0.1666666666666667
 40
0.25
 40
0.25
 40
0.25
 40
0.25
 40
0.3333333333333333
 40
0.3333333333333333
 40
0.3333333333333333
 40
0.3333333333333333
 40
0.4166666666666667
 40
0.4166666666666667
 40
0.4166666666666667
 40
0.4166666666666667
 40
0.5
 40
0.5
 40
0.5
 40
0.5
 40
0.5833333333333334
 40
0.5833333333333334
 40
0.5833333333333334
 40
0.5833333333333334
 40
0.6666666666666666
 40
0.6666666666666666
 40
0.6666666666666666
 40
0.6666666666666666
 40
0.75
 40
0.75
 40
0.75
 40
0.75
 40
0.8333333333333334
 40
0.8333333333333334
 40
0.8333333333333334
 40
0.8333333333333334
 40
1.0
 40
1.0
 40
1.0
 40
1.0
 10
-5.09845
 20
4.26618
 30
0.0
 10
-5.80527
 20
3.80528
 30
0.0
 10
-6.32787
 20
3.06458
 30
0.0
 10
-6.64245
 20
2.56995
 30
0.0
 10
-6.64245
 20
2.56995
 30
0.0
 10
-7.0108
 20
2.0867
 30
0.0
 10
-6.79543
 20
1.33459
 30
0.0
 10
-6.48622
 20
0.87662
 30
0.0
 10
-6.48622
 20
0.87662
 30
0.0
 10
-5.97373
 20
0.17792
 30
0.0
 10
-6.1731
 20
0.33148
 30
0.0
 10
-6.06365
 20
-0.01238
 30
0.0
 10
-6.06365
 20
-0.01238
 30
0.0
 10
-5.97788
 20
-0.28183
 30
0.0
 10
-5.48684
 20
-0.38178
 30
0.0
 10
-5.24238
 20
-0.43571
 30
0.0
 10
-5.24238
 20
-0.43571
 30
0.0
 10
-5.00351
 20
-0.48841
 30
0.0
 10
-3.99709
 20
-0.55041
 30
0.0
 10
-3.85385
 20
-0.41031
 30
0.0
 10
-3.85385
 20
-0.41031
 30
0.0
 10
-3.84534
 20
-0.35699
 30
0.0
 10
-3.8265
 20
-0.3239
 30
0.0
 10
-4.05705
 20
0.01302
 30
0.0
 10
-4.05705
 20
0.01302
 30
0.0
 10
-4.43665
 20
0.60169
 30
0.0
 10
-4.34361
 20
0.63482
 30
0.0
 10
-4.27718
 20
0.96129
 30
0.0
 10
-4.27718
 20
0.96129
 30
0.0
 10
-4.16373
 20
1.54927
 30
0.0
 10
-3.66546
 20
2.03088
 30
0.0
 10
-3.64218
 20
2.24822
 30
0.0
 10
-3.64218
 20
2.24822
 30
0.0
 10
-3.60028
 20
2.6394
 30
0.0
 10
-3.69571
 20
2.83103
 30
0.0
 10
-3.77765
 20
3.22189
 30
0.0
 10
-3.77765
 20
3.22189
 30
0.0
 10
-3.84828
 20
3.55878
 30
0.0
 10
-4.01405
 20
4.41227
 30
0.0
 10
-4.36185
 20
4.44955
 30
0.0
 10
-4.36185
 20
4.44955
 30
0.0
 10
-4.5642
 20
4.49343
 30
0.0
 10
-4.93632
 20
4.3719
 30
0.0
 10
-5.09845
 20
4.26618
 30
0.0
  0
SPLINE
  5
43
330
1F
100
AcDbEntity
  8
Livello 1
 62
   250
370
    20
100
AcDbSpline
210
0.0
220
0.0
230
1.0
 70
    11
 71
     3
 72
    36
 73
    32
 74
     0
 42
0.0000000001
 43
0.0000000001
 40
0.0
 40
0.0
 40
0.0
 40
0.0
 40
0.1111111111111111
 40
0.1111111111111111
 40
0.1111111111111111
 40
0.1111111111111111
 40
0.2222222222222222
 40
0.2222222222222222
 40
0.2222222222222222
 40
0.2222222222222222
 40
0.3333333333333333
 40
0.3333333333333333
 40
0.3333333333333333
 40
0.3333333333333333
 40
0.4444444444444444
 40
0.4444444444444444
 40
0.4444444444444444
 40
0.4444444444444444
 40
0.5555555555555556
 40
0.5555555555555556
 40
0.5555555555555556
 40
0.5555555555555556
 40
0.6666666666666666
 40
0.6666666666666666
 40
0.6666666666666666
 40
0.6666666666666666
 40
0.7777777777777778
 40
0.7777777777777778
 40
0.7777777777777778
 40
0.7777777777777778
 40
1.0
 40
1.0
 40
1.0
 40
1.0
 10
-1.96578
 20
2.39216
 30
0.0
 10
-2.00974
 20
2.37215
 30
0.0
 10
-2.83939
 20
2.46067
 30
0.0
 10
-3.43673
 20
1.26609
 30
0.0
 10
-3.43673
 20
1.26609
 30
0.0
 10
-3.86434
 20
0.41095
 30
0.0
 10
-3.21409
 20
0.23783
 30
0.0
 10
-3.05237
 20
-0.51191
 30
0.0
 10
-3.05237
 20
-0.51191
 30
0.0
 10
-2.90743
 20
-1.18383
 30
0.0
 10
-2.8246
 20
-1.40996
 30
0.0
 10
-2.96485
 20
-2.06131
 30
0.0
 10
-2.96485
 20
-2.06131
 30
0.0
 10
-3.07814
 20
-2.58746
 30
0.0
 10
-2.75789
 20
-2.41393
 30
0.0
 10
-2.18592
 20
-2.04155
 30
0.0
 10
-2.18592
 20
-2.04155
 30
0.0
 10
-1.98696
 20
-1.91202
 30
0.0
 10
-1.02358
 20
-1.25356
 30
0.0
 10
-0.92438
 20
-1.04531
 30
0.0
 10
-0.92438
 20
-1.04531
 30
0.0
 10
-0.66966
 20
-0.5106
 30
0.0
 10
-0.96888
 20
-0.0126
 30
0.0
 10
-0.89898
 20
0.63956
 30
0.0
 10
-0.89898
 20
0.63956
 30
0.0
 10
-0.86729
 20
0.93523
 30
0.0
 10
-0.80283
 20
1.98843
 30
0.0
 10
-0.97518
 20
2.17202
 30
0.0
 10
-0.97518
 20
2.17202
 30
0.0
 10
-1.23808
 20
2.45205
 30
0.0
 10
-1.73705
 20
2.42397
 30
0.0
 10
-1.96578
 20
2.39216
 30
0.0
  0
SPLINE
  5
44
330
1F
100
AcDbEntity
  8
Livello 1
 62
   250
370
    20
100
AcDbSpline
210
0.0
220
0.0
230
1.0
 70
    11
 71
     3
 72
    44
 73
    40
 74
     0
 42
0.0000000001
 43
0.0000000001
 40
0.0
 40
0.0
 40
0.0
 40
0.0
 40
0.0909090909090909
 40
0.0909090909090909
 40
0.0909090909090909
 40
0.0909090909090909
 40
0.1818181818181818
 40
0.1818181818181818
 40
0.1818181818181818
 40
0.1818181818181818
 40
0.2727272727272727
 40
0.2727272727272727
 40
0.2727272727272727
 40
0.2727272727272727
 40
0.3636363636363636
 40
0.3636363636363636
 40
0.3636363636363636
 40
0.3636363636363636
 40
0.4545454545454545
 40
0.4545454545454545
 40
0.4545454545454545
 40
0.4545454545454545
 40
0.5454545454545454
 40
0.5454545454545454
 40
0.5454545454545454
 40
0.5454545454545454
 40
0.6363636363636364
 40
0.6363636363636364
 40
0.6363636363636364
 40
0.6363636363636364
 40
0.7272727272727273
 40
0.7272727272727273
 40
0.7272727272727273
 40
0.7272727272727273
 40
0.8181818181818182
 40
0.8181818181818182
 40
0.8181818181818182
 40
0.8181818181818182
 40
1.0
 40
1.0
 40
1.0
 40
1.0
 10
4.81893
 20
8.29301
 30
0.0
 10
4.77483
 20
8.29302
 30
0.0
 10
2.22263
 20
8.2594
 30
0.0
 10
0.98062
 20
8.24262
 30
0.0
 10
0.98062
 20
8.24262
 30
0.0
 10
0.50572
 20
8.23491
 30
0.0
 10
0.88888
 20
7.90131
 30
0.0
 10
1.03142
 20
6.94722
 30
0.0
 10
1.03142
 20
6.94722
 30
0.0
 10
1.14938
 20
6.15765
 30
0.0
 10
0.92752
 20
5.66116
 30
0.0
 10
0.89595
 20
5.29622
 30
0.0
 10
0.89595
 20
5.29622
 30
0.0
 10
0.89439
 20
5.27818
 30
0.0
 10
0.8943
 20
5.26283
 30
0.0
 10
0.89557
 20
5.24959
 30
0.0
 10
0.89557
 20
5.24959
 30
0.0
 10
0.90951
 20
5.10457
 30
0.0
 10
1.08675
 20
5.20929
 30
0.0
 10
1.28542
 20
4.75435
 30
0.0
 10
1.28542
 20
4.75435
 30
0.0
 10
1.34898
 20
4.6088
 30
0.0
 10
1.24277
 20
4.41282
 30
0.0
 10
1.29842
 20
4.35437
 30
0.0
 10
1.29842
 20
4.35437
 30
0.0
 10
1.34124
 20
4.30941
 30
0.0
 10
1.48903
 20
4.34581
 30
0.0
 10
1.82728
 20
4.5491
 30
0.0
 10
1.82728
 20
4.5491
 30
0.0
 10
2.63289
 20
5.03328
 30
0.0
 10
3.53597
 20
6.1458
 30
0.0
 10
3.98426
 20
6.98109
 30
0.0
 10
3.98426
 20
6.98109
 30
0.0
 10
4.21192
 20
7.40528
 30
0.0
 10
4.17095
 20
7.46034
 30
0.0
 10
4.47735
 20
7.87008
 30
0.0
 10
4.47735
 20
7.87008
 30
0.0
 10
4.57716
 20
8.00354
 30
0.0
 10
4.81893
 20
8.09599
 30
0.0
 10
4.81893
 20
8.29301
 30
0.0
  0
SPLINE
  5
45
330
1F
100
AcDbEntity
  8
Livello 1
 62
   250
370
    20
100
AcDbSpline
210
0.0
220
0.0
230
1.0
 70
    11
 71
     3
 72
    24
 73
    20
 74
     0
 42
0.0000000001
 43
0.0000000001
 40
0.0
 40
0.0
 40
0.0
 40
0.0
 40
0.1666666666666667
 40
0.1666666666666667
 40
0.1666666666666667
 40
0.1666666666666667
 40
0.3333333333333333
 40
0.3333333333333333
 40
0.3333333333333333
 40
0.3333333333333333
 40
0.5
 40
0.5
 40
0.5
 40
0.5
 40
0.6666666666666666
 40
0.6666666666666666
 40
0.6666666666666666
 40
0.6666666666666666
 40
1.0
 40
1.0
 40
1.0
 40
1.0
 10
6.14449
 20
3.64629
 30
0.0
 10
6.14449
 20
3.64629
 30
0.0
 10
5.69813
 20
2.61599
 30
0.0
 10
5.69813
 20
2.61599
 30
0.0
 10
5.69813
 20
2.61599
 30
0.0
 10
5.69813
 20
2.61599
 30
0.0
 10
11.60924
 20
-0.25495
 30
0.0
 10
11.60924
 20
-0.25495
 30
0.0
 10
11.60924
 20
-0.25495
 30
0.0
 10
11.86862
 20
-0.35416
 30
0.0
 10
12.25062
 20
0.11989
 30
0.0
 10
12.34958
 20
0.31782
 30
0.0
 10
12.34958
 20
0.31782
 30
0.0
 10
12.49103
 20
0.60074
 30
0.0
 10
12.57963
 20
1.14791
 30
0.0
 10
12.33441
 20
1.39309
 30
0.0
 10
12.33441
 20
1.39309
 30
0.0
 10
12.33441
 20
1.39309
 30
0.0
 10
6.14449
 20
3.64629
 30
0.0
 10
6.14449
 20
3.64629
 30
0.0
  0
SPLINE
  5
46
330
1F
100
AcDbEntity
  8
Livello 1
 62
   250
370
    20
100
AcDbSpline
210
0.0
220
0.0
230
1.0
 70
    24
 71
     3
 72
     8
 73
     4
 74
     0
 42
0.0000000001
 43
0.0000000001
 40
0.0
 40
0.0
 40
0.0
 40
0.0
 40
1.0
 40
1.0
 40
1.0
 40
1.0
 10
7.74653
 20
1.63281
 30
0.0
 10
7.74653
 20
1.63281
 30
0.0
 10
8.27094
 20
2.84935
 30
0.0
 10
8.27094
 20
2.84935
 30
0.0
  0
SPLINE
  5
47
330
1F
100
AcDbEntity
  8
Livello 1
 62
   250
370
    20
100
AcDbSpline
210
0.0
220
0.0
230
1.0
 70
     8
 71
     3
 72
     8
 73
     4
 74
     0
 42
0.0000000001
 43
0.0000000001
 40
0.0
 40
0.0
 40
0.0
 40
0.0
 40
1.0
 40
1.0
 40
1.0
 40
1.0
 10
10.01085
 20
0.55489
 30
0.0
 10
10.20594
 20
1.03223
 30
0.0
 10
10.42032
 20
1.51158
 30
0.0
 10
10.61595
 20
1.9884
 30
0.0
  0
SPLINE
  5
48
330
1F
100
AcDbEntity
  8
Livello 1
 62
   250
370
    20
100
AcDbSpline
210
0.0
220
0.0
230
1.0
 70
    11
 71
     3
 72
    40
 73
    36
 74
     0
 42
0.0000000001
 43
0.0000000001
 40
0.0
 40
0.0
 40
0.0
 40
0.0
 40
0.1
 40
0.1
 40
0.1
 40
0.1
 40
0.2
 40
0.2
 40
0.2
 40
0.2
 40
0.3
 40
0.3
 40
0.3
 40
0.3
 40
0.4
 40
0.4
 40
0.4
 40
0.4
 40
0.5
 40
0.5
 40
0.5
 40
0.5
 40
0.6
 40
0.6
 40
0.6
 40
0.6
 40
0.7
 40
0.7
 40
0.7
 40
0.7
 40
0.8
 40
0.8
 40
0.8
 40
0.8
 40
1.0
 40
1.0
 40
1.0
 40
1.0
 10
4.81748
 20
-8.62178
 30
0.0
 10
4.81748
 20
-8.62178
 30
0.0
 10
0.97215
 20
-8.5891
 30
0.0
 10
0.97215
 20
-8.5891
 30
0.0
 10
0.97215
 20
-8.5891
 30
0.0
 10
0.5055
 20
-8.48783
 30
0.0
 10
0.89794
 20
-8.27598
 30
0.0
 10
1.04835
 20
-7.20904
 30
0.0
 10
1.04835
 20
-7.20904
 30
0.0
 10
1.09761
 20
-6.85962
 30
0.0
 10
1.05484
 20
-6.31067
 30
0.0
 10
0.98062
 20
-5.98137
 30
0.0
 10
0.98062
 20
-5.98137
 30
0.0
 10
0.94627
 20
-5.82897
 30
0.0
 10
0.90442
 20
-5.74393
 30
0.0
 10
0.90442
 20
-5.58344
 30
0.0
 10
0.90442
 20
-5.58344
 30
0.0
 10
1.17007
 20
-5.31779
 30
0.0
 10
1.35499
 20
-5.30486
 30
0.0
 10
1.31082
 20
-4.72831
 30
0.0
 10
1.31082
 20
-4.72831
 30
0.0
 10
1.30861
 20
-4.69408
 30
0.0
 10
1.32885
 20
-4.69298
 30
0.0
 10
1.36162
 20
-4.69444
 30
0.0
 10
1.36162
 20
-4.69444
 30
0.0
 10
1.38602
 20
-4.70555
 30
0.0
 10
1.48613
 20
-4.67881
 30
0.0
 10
1.84422
 20
-4.90586
 30
0.0
 10
1.84422
 20
-4.90586
 30
0.0
 10
3.50726
 20
-5.9603
 30
0.0
 10
4.17675
 20
-7.84176
 30
0.0
 10
4.43502
 20
-8.14884
 30
0.0
 10
4.43502
 20
-8.14884
 30
0.0
 10
4.64284
 20
-8.39595
 30
0.0
 10
4.76863
 20
-8.43322
 30
0.0
 10
4.81748
 20
-8.62178
 30
0.0
  0
SPLINE
  5
49
330
1F
100
AcDbEntity
  8
Livello 1
 62
   250
370
    20
100
AcDbSpline
210
0.0
220
0.0
230
1.0
 70
    11
 71
     3
 72
    56
 73
    52
 74
     0
 42
0.0000000001
 43
0.0000000001
 40
0.0
 40
0.0
 40
0.0
 40
0.0
 40
0.0714285714285714
 40
0.0714285714285714
 40
0.0714285714285714
 40
0.0714285714285714
 40
0.1428571428571428
 40
0.1428571428571428
 40
0.1428571428571428
 40
0.1428571428571428
 40
0.2142857142857143
 40
0.2142857142857143
 40
0.2142857142857143
 40
0.2142857142857143
 40
0.2857142857142857
 40
0.2857142857142857
 40
0.2857142857142857
 40
0.2857142857142857
 40
0.3571428571428572
 40
0.3571428571428572
 40
0.3571428571428572
 40
0.3571428571428572
 40
0.4285714285714285
 40
0.4285714285714285
 40
0.4285714285714285
 40
0.4285714285714285
 40
0.5
 40
0.5
 40
0.5
 40
0.5
 40
0.5714285714285714
 40
0.5714285714285714
 40
0.5714285714285714
 40
0.5714285714285714
 40
0.6428571428571429
 40
0.6428571428571429
 40
0.6428571428571429
 40
0.6428571428571429
 40
0.7142857142857143
 40
0.7142857142857143
 40
0.7142857142857143
 40
0.7142857142857143
 40
0.7857142857142857
 40
0.7857142857142857
 40
0.7857142857142857
 40
0.7857142857142857
 40
0.8571428571428571
 40
0.8571428571428571
 40
0.8571428571428571
 40
0.8571428571428571
 40
1.0
 40
1.0
 40
1.0
 40
1.0
 10
-1.52552
 20
8.59822
 30
0.0
 10
-2.1004
 20
8.43796
 30
0.0
 10
-3.00999
 20
8.42003
 30
0.0
 10
-3.61678
 20
8.45428
 30
0.0
 10
-3.61678
 20
8.45428
 30
0.0
 10
-3.93034
 20
8.48462
 30
0.0
 10
-4.14061
 20
8.52735
 30
0.0
 10
-4.4564
 20
8.40545
 30
0.0
 10
-4.4564
 20
8.40545
 30
0.0
 10
-5.45439
 20
8.02031
 30
0.0
 10
-6.35998
 20
6.79609
 30
0.0
 10
-6.35998
 20
5.79575
 30
0.0
 10
-6.35998
 20
5.79575
 30
0.0
 10
-6.3535
 20
5.2581
 30
0.0
 10
-5.90187
 20
5.14891
 30
0.0
 10
-5.42018
 20
5.1246
 30
0.0
 10
-5.42018
 20
5.1246
 30
0.0
 10
-5.19662
 20
5.11608
 30
0.0
 10
-4.7915
 20
5.20547
 30
0.0
 10
-4.38725
 20
5.10995
 30
0.0
 10
-4.38725
 20
5.10995
 30
0.0
 10
-3.95358
 20
4.9942
 30
0.0
 10
-3.79291
 20
4.92749
 30
0.0
 10
-3.39665
 20
4.61889
 30
0.0
 10
-3.39665
 20
4.61889
 30
0.0
 10
-3.11289
 20
4.41166
 30
0.0
 10
-2.86874
 20
4.05617
 30
0.0
 10
-2.70238
 20
3.72989
 30
0.0
 10
-2.70238
 20
3.72989
 30
0.0
 10
-2.70238
 20
3.71285
 30
0.0
 10
-2.51553
 20
3.2475
 30
0.0
 10
-2.47378
 20
3.14569
 30
0.0
 10
-2.47378
 20
3.14569
 30
0.0
 10
-2.40343
 20
2.98862
 30
0.0
 10
-2.21981
 20
2.92149
 30
0.0
 10
-2.00564
 20
3.02735
 30
0.0
 10
-2.00564
 20
3.02735
 30
0.0
 10
-1.86322
 20
3.07184
 30
0.0
 10
-1.45513
 20
3.35857
 30
0.0
 10
-1.35907
 20
3.47445
 30
0.0
 10
-1.35907
 20
3.47445
 30
0.0
 10
-0.79903
 20
4.02483
 30
0.0
 10
-0.69064
 20
7.28661
 30
0.0
 10
-0.87358
 20
8.03095
 30
0.0
 10
-0.87358
 20
8.03095
 30
0.0
 10
-0.89793
 20
8.18488
 30
0.0
 10
-0.97387
 20
8.528
 30
0.0
 10
-1.10652
 20
8.6166
 30
0.0
 10
-1.10652
 20
8.6166
 30
0.0
 10
-1.25333
 20
8.737
 30
0.0
 10
-1.37016
 20
8.64152
 30
0.0
 10
-1.52552
 20
8.59822
 30
0.0
  0
SPLINE
  5
4A
330
1F
100
AcDbEntity
  8
Livello 1
 62
   250
370
    20
100
AcDbSpline
210
0.0
220
0.0
230
1.0
 70
    11
 71
     3
 72
    20
 73
    16
 74
     0
 42
0.0000000001
 43
0.0000000001
 40
0.0
 40
0.0
 40
0.0
 40
0.0
 40
0.2
 40
0.2
 40
0.2
 40
0.2
 40
0.4
 40
0.4
 40
0.4
 40
0.4
 40
0.6
 40
0.6
 40
0.6
 40
0.6
 40
1.0
 40
1.0
 40
1.0
 40
1.0
 10
-3.72154
 20
6.42688
 30
0.0
 10
-3.72154
 20
6.42688
 30
0.0
 10
-3.78362
 20
6.23675
 30
0.0
 10
-3.78362
 20
6.23675
 30
0.0
 10
-3.78362
 20
6.23675
 30
0.0
 10
-3.78362
 20
6.23675
 30
0.0
 10
-1.98149
 20
5.64832
 30
0.0
 10
-1.98149
 20
5.64832
 30
0.0
 10
-1.98149
 20
5.64832
 30
0.0
 10
-1.98149
 20
5.64832
 30
0.0
 10
-1.91941
 20
5.83844
 30
0.0
 10
-1.91941
 20
5.83844
 30
0.0
 10
-1.91941
 20
5.83844
 30
0.0
 10
-1.91941
 20
5.83844
 30
0.0
 10
-3.72154
 20
6.42688
 30
0.0
 10
-3.72154
 20
6.42688
 30
0.0
  0
SPLINE
  5
4B
330
1F
100
AcDbEntity
  8
Livello 1
 62
   250
370
    20
100
AcDbSpline
210
0.0
220
0.0
230
1.0
 70
    11
 71
     3
 72
    44
 73
    40
 74
     0
 42
0.0000000001
 43
0.0000000001
 40
0.0
 40
0.0
 40
0.0
 40
0.0
 40
0.0909090909090909
 40
0.0909090909090909
 40
0.0909090909090909
 40
0.0909090909090909
 40
0.1818181818181818
 40
0.1818181818181818
 40
0.1818181818181818
 40
0.1818181818181818
 40
0.2727272727272727
 40
0.2727272727272727
 40
0.2727272727272727
 40
0.2727272727272727
 40
0.3636363636363636
 40
0.3636363636363636
 40
0.3636363636363636
 40
0.3636363636363636
 40
0.4545454545454545
 40
0.4545454545454545
 40
0.4545454545454545
 40
0.4545454545454545
 40
0.5454545454545454
 40
0.5454545454545454
 40
0.5454545454545454
 40
0.5454545454545454
 40
0.6363636363636364
 40
0.6363636363636364
 40
0.6363636363636364
 40
0.6363636363636364
 40
0.7272727272727273
 40
0.7272727272727273
 40
0.7272727272727273
 40
0.7272727272727273
 40
0.8181818181818182
 40
0.8181818181818182
 40
0.8181818181818182
 40
0.8181818181818182
 40
1.0
 40
1.0
 40
1.0
 40
1.0
 10
-9.90744
 20
8.68536
 30
0.0
 10
-10.12662
 20
8.74656
 30
0.0
 10
-10.26226
 20
8.50606
 30
0.0
 10
-10.22925
 20
8.33575
 30
0.0
 10
-10.22925
 20
8.33575
 30
0.0
 10
-10.11837
 20
7.55982
 30
0.0
 10
-9.74397
 20
6.31801
 30
0.0
 10
-9.16245
 20
5.73649
 30
0.0
 10
-9.16245
 20
5.73649
 30
0.0
 10
-9.00357
 20
5.58679
 30
0.0
 10
-8.524
 20
5.57449
 30
0.0
 10
-8.30731
 20
5.69415
 30
0.0
 10
-8.30731
 20
5.69415
 30
0.0
 10
-7.99235
 20
5.84377
 30
0.0
 10
-7.65697
 20
6.19564
 30
0.0
 10
-7.18972
 20
6.29529
 30
0.0
 10
-7.18972
 20
6.29529
 30
0.0
 10
-7.10433
 20
6.30964
 30
0.0
 10
-6.98421
 20
6.32611
 30
0.0
 10
-6.91032
 20
6.36302
 30
0.0
 10
-6.91032
 20
6.36302
 30
0.0
 10
-6.48594
 20
6.57497
 30
0.0
 10
-6.10354
 20
8.14068
 30
0.0
 10
-6.45312
 20
8.56435
 30
0.0
 10
-6.45312
 20
8.56435
 30
0.0
 10
-6.52312
 20
8.64922
 30
0.0
 10
-6.65909
 20
8.70396
 30
0.0
 10
-6.76638
 20
8.65748
 30
0.0
 10
-6.76638
 20
8.65748
 30
0.0
 10
-6.98231
 20
8.56483
 30
0.0
 10
-7.21152
 20
8.47375
 30
0.0
 10
-7.46065
 20
8.41195
 30
0.0
 10
-7.46065
 20
8.41195
 30
0.0
 10
-7.93372
 20
8.29767
 30
0.0
 10
-8.49204
 20
8.24234
 30
0.0
 10
-8.97618
 20
8.36962
 30
0.0
 10
-8.97618
 20
8.36962
 30
0.0
 10
-9.27843
 20
8.45487
 30
0.0
 10
-9.60751
 20
8.5882
 30
0.0
 10
-9.90744
 20
8.68536
 30
0.0
  0
SPLINE
  5
4C
330
1F
100
AcDbEntity
  8
Livello 1
 62
   250
370
    20
100
AcDbSpline
210
0.0
220
0.0
230
1.0
 70
    11
 71
     3
 72
    20
 73
    16
 74
     0
 42
0.0000000001
 43
0.0000000001
 40
0.0
 40
0.0
 40
0.0
 40
0.0
 40
0.2
 40
0.2
 40
0.2
 40
0.2
 40
0.4
 40
0.4
 40
0.4
 40
0.4
 40
0.6
 40
0.6
 40
0.6
 40
0.6
 40
1.0
 40
1.0
 40
1.0
 40
1.0
 10
-7.77183
 20
7.62703
 30
0.0
 10
-7.77183
 20
7.62703
 30
0.0
 10
-7.7371
 20
7.43007
 30
0.0
 10
-7.7371
 20
7.43007
 30
0.0
 10
-7.7371
 20
7.43007
 30
0.0
 10
-7.7371
 20
7.43007
 30
0.0
 10
-9.60406
 20
7.10087
 30
0.0
 10
-9.60406
 20
7.10087
 30
0.0
 10
-9.60406
 20
7.10087
 30
0.0
 10
-9.60406
 20
7.10087
 30
0.0
 10
-9.63879
 20
7.29783
 30
0.0
 10
-9.63879
 20
7.29783
 30
0.0
 10
-9.63879
 20
7.29783
 30
0.0
 10
-9.63879
 20
7.29783
 30
0.0
 10
-7.77183
 20
7.62703
 30
0.0
 10
-7.77183
 20
7.62703
 30
0.0
  0
SPLINE
  5
4D
330
1F
100
AcDbEntity
  8
Livello 1
 62
   250
370
    20
100
AcDbSpline
210
0.0
220
0.0
230
1.0
 70
    11
 71
     3
 72
    20
 73
    16
 74
     0
 42
0.0000000001
 43
0.0000000001
 40
0.0
 40
0.0
 40
0.0
 40
0.0
 40
0.2
 40
0.2
 40
0.2
 40
0.2
 40
0.4
 40
0.4
 40
0.4
 40
0.4
 40
0.6
 40
0.6
 40
0.6
 40
0.6
 40
1.0
 40
1.0
 40
1.0
 40
1.0
 10
-12.31824
 20
7.76381
 30
0.0
 10
-12.31824
 20
7.76381
 30
0.0
 10
-12.11843
 20
7.75524
 30
0.0
 10
-12.11843
 20
7.75524
 30
0.0
 10
-12.11843
 20
7.75524
 30
0.0
 10
-12.11843
 20
7.75524
 30
0.0
 10
-12.20916
 20
5.6416
 30
0.0
 10
-12.20916
 20
5.6416
 30
0.0
 10
-12.20916
 20
5.6416
 30
0.0
 10
-12.20916
 20
5.6416
 30
0.0
 10
-12.40897
 20
5.65017
 30
0.0
 10
-12.40897
 20
5.65017
 30
0.0
 10
-12.40897
 20
5.65017
 30
0.0
 10
-12.40897
 20
5.65017
 30
0.0
 10
-12.31824
 20
7.76381
 30
0.0
 10
-12.31824
 20
7.76381
 30
0.0
  0
SPLINE
  5
4E
330
1F
100
AcDbEntity
  8
Livello 1
 62
   250
370
    20
100
AcDbSpline
210
0.0
220
0.0
230
1.0
 70
    11
 71
     3
 72
   120
 73
   116
 74
     0
 42
0.0000000001
 43
0.0000000001
 40
0.0
 40
0.0
 40
0.0
 40
0.0
 40
0.0333333333333333
 40
0.0333333333333333
 40
0.0333333333333333
 40
0.0333333333333333
 40
0.0666666666666667
 40
0.0666666666666667
 40
0.0666666666666667
 40
0.0666666666666667
 40
0.1
 40
0.1
 40
0.1
 40
0.1
 40
0.1333333333333333
 40
0.1333333333333333
 40
0.1333333333333333
 40
0.1333333333333333
 40
0.1666666666666667
 40
0.1666666666666667
 40
0.1666666666666667
 40
0.1666666666666667
 40
0.2
 40
0.2
 40
0.2
 40
0.2
 40
0.2333333333333333
 40
0.2333333333333333
 40
0.2333333333333333
 40
0.2333333333333333
 40
0.2666666666666667
 40
0.2666666666666667
 40
0.2666666666666667
 40
0.2666666666666667
 40
0.3
 40
0.3
 40
0.3
 40
0.3
 40
0.3333333333333333
 40
0.3333333333333333
 40
0.3333333333333333
 40
0.3333333333333333
 40
0.3666666666666666
 40
0.3666666666666666
 40
0.3666666666666666
 40
0.3666666666666666
 40
0.4
 40
0.4
 40
0.4
 40
0.4
 40
0.4333333333333333
 40
0.4333333333333333
 40
0.4333333333333333
 40
0.4333333333333333
 40
0.4666666666666667
 40
0.4666666666666667
 40
0.4666666666666667
 40
0.4666666666666667
 40
0.5
 40
0.5
 40
0.5
 40
0.5
 40
0.5333333333333333
 40
0.5333333333333333
 40
0.5333333333333333
 40
0.5333333333333333
 40
0.5666666666666667
 40
0.5666666666666667
 40
0.5666666666666667
 40
0.5666666666666667
 40
0.6
 40
0.6
 40
0.6
 40
0.6
 40
0.6333333333333333
 40
0.6333333333333333
 40
0.6333333333333333
 40
0.6333333333333333
 40
0.6666666666666666
 40
0.6666666666666666
 40
0.6666666666666666
 40
0.6666666666666666
 40
0.7
 40
0.7
 40
0.7
 40
0.7
 40
0.7333333333333333
 40
0.7333333333333333
 40
0.7333333333333333
 40
0.7333333333333333
 40
0.7666666666666667
 40
0.7666666666666667
 40
0.7666666666666667
 40
0.7666666666666667
 40
0.8
 40
0.8
 40
0.8
 40
0.8
 40
0.8333333333333334
 40
0.8333333333333334
 40
0.8333333333333334
 40
0.8333333333333334
 40
0.8666666666666667
 40
0.8666666666666667
 40
0.8666666666666667
 40
0.8666666666666667
 40
0.9
 40
0.9
 40
0.9
 40
0.9
 40
0.9333333333333333
 40
0.9333333333333333
 40
0.9333333333333333
 40
0.9333333333333333
 40
1.0
 40
1.0
 40
1.0
 40
1.0
 10
-12.39578
 20
-0.54333
 30
0.0
 10
-12.33006
 20
-0.50668
 30
0.0
 10
-12.28954
 20
-0.436
 30
0.0
 10
-12.28554
 20
-0.36525
 30
0.0
 10
-12.28554
 20
-0.36525
 30
0.0
 10
-12.27596
 20
-0.13312
 30
0.0
 10
-12.32691
 20
0.04201
 30
0.0
 10
-12.428
 20
0.24701
 30
0.0
 10
-12.428
 20
0.24701
 30
0.0
 10
-12.5645
 20
0.51406
 30
0.0
 10
-12.71804
 20
0.78337
 30
0.0
 10
-12.79858
 20
1.07635
 30
0.0
 10
-12.79858
 20
1.07635
 30
0.0
 10
-12.82337
 20
1.41024
 30
0.0
 10
-12.73915
 20
1.45522
 30
0.0
 10
-12.66714
 20
1.57667
 30
0.0
 10
-12.66714
 20
1.57667
 30
0.0
 10
-12.68307
 20
1.74055
 30
0.0
 10
-13.09376
 20
2.41873
 30
0.0
 10
-13.13863
 20
2.67144
 30
0.0
 10
-13.13863
 20
2.67144
 30
0.0
 10
-13.17085
 20
2.96385
 30
0.0
 10
-13.09626
 20
3.08603
 30
0.0
 10
-12.82826
 20
3.24723
 30
0.0
 10
-12.82826
 20
3.24723
 30
0.0
 10
-12.70055
 20
3.33409
 30
0.0
 10
-12.23798
 20
3.55355
 30
0.0
 10
-12.09813
 20
3.61865
 30
0.0
 10
-12.09813
 20
3.61865
 30
0.0
 10
-11.75372
 20
3.76486
 30
0.0
 10
-11.46452
 20
3.89992
 30
0.0
 10
-11.14074
 20
4.11219
 30
0.0
 10
-11.14074
 20
4.11219
 30
0.0
 10
-10.8049
 20
4.34154
 30
0.0
 10
-10.71008
 20
4.59199
 30
0.0
 10
-10.77949
 20
4.98478
 30
0.0
 10
-10.77949
 20
4.98478
 30
0.0
 10
-10.80853
 20
5.03801
 30
0.0
 10
-10.52548
 20
6.38057
 30
0.0
 10
-10.47506
 20
6.66466
 30
0.0
 10
-10.47506
 20
6.66466
 30
0.0
 10
-10.44889
 20
6.95254
 30
0.0
 10
-10.42229
 20
7.11881
 30
0.0
 10
-10.44199
 20
7.40327
 30
0.0
 10
-10.44199
 20
7.40327
 30
0.0
 10
-10.52334
 20
7.78718
 30
0.0
 10
-10.68257
 20
8.05132
 30
0.0
 10
-11.22469
 20
8.26145
 30
0.0
 10
-11.22469
 20
8.26145
 30
0.0
 10
-11.73047
 20
8.40957
 30
0.0
 10
-12.59345
 20
8.44823
 30
0.0
 10
-13.08351
 20
8.2606
 30
0.0
 10
-13.08351
 20
8.2606
 30
0.0
 10
-13.77341
 20
8.03561
 30
0.0
 10
-14.29258
 20
6.92543
 30
0.0
 10
-14.28682
 20
6.82578
 30
0.0
 10
-14.28682
 20
6.82578
 30
0.0
 10
-14.28682
 20
6.57928
 30
0.0
 10
-14.19615
 20
6.33585
 30
0.0
 10
-14.11891
 20
6.10414
 30
0.0
 10
-14.11891
 20
6.10414
 30
0.0
 10
-13.96926
 20
5.7435
 30
0.0
 10
-13.82363
 20
5.42995
 30
0.0
 10
-13.75682
 20
5.04499
 30
0.0
 10
-13.75682
 20
5.04499
 30
0.0
 10
-13.71105
 20
4.70578
 30
0.0
 10
-13.69887
 20
4.50881
 30
0.0
 10
-13.77293
 20
4.18087
 30
0.0
 10
-13.77293
 20
4.18087
 30
0.0
 10
-13.79113
 20
4.11719
 30
0.0
 10
-13.81816
 20
4.06158
 30
0.0
 10
-13.84755
 20
4.00279
 30
0.0
 10
-13.84755
 20
4.00279
 30
0.0
 10
-14.06974
 20
3.80442
 30
0.0
 10
-14.11806
 20
3.7662
 30
0.0
 10
-14.28512
 20
3.3651
 30
0.0
 10
-14.28512
 20
3.3651
 30
0.0
 10
-14.32672
 20
3.27095
 30
0.0
 10
-14.30385
 20
3.20328
 30
0.0
 10
-14.2512
 20
3.14716
 30
0.0
 10
-14.2512
 20
3.14716
 30
0.0
 10
-14.20428
 20
3.08667
 30
0.0
 10
-14.15736
 20
3.02618
 30
0.0
 10
-14.11043
 20
2.96569
 30
0.0
 10
-14.11043
 20
2.96569
 30
0.0
 10
-13.85243
 20
2.59148
 30
0.0
 10
-13.81793
 20
2.17778
 30
0.0
 10
-13.76954
 20
1.74627
 30
0.0
 10
-13.76954
 20
1.74627
 30
0.0
 10
-13.76954
 20
1.61505
 30
0.0
 10
-13.78153
 20
1.48785
 30
0.0
 10
-13.76615
 20
1.35704
 30
0.0
 10
-13.76615
 20
1.35704
 30
0.0
 10
-13.75308
 20
1.25278
 30
0.0
 10
-13.72511
 20
1.13032
 30
0.0
 10
-13.65251
 20
1.04921
 30
0.0
 10
-13.65251
 20
1.04921
 30
0.0
 10
-13.62543
 20
1.01688
 30
0.0
 10
-13.44169
 20
0.93424
 30
0.0
 10
-13.37946
 20
0.89827
 30
0.0
 10
-13.37946
 20
0.89827
 30
0.0
 10
-13.33433
 20
0.86601
 30
0.0
 10
-13.3579
 20
0.83671
 30
0.0
 10
-13.38794
 20
0.79651
 30
0.0
 10
-13.38794
 20
0.79651
 30
0.0
 10
-13.46489
 20
0.67967
 30
0.0
 10
-13.67585
 20
0.56432
 30
0.0
 10
-13.80346
 20
0.43187
 30
0.0
 10
-13.80346
 20
0.43187
 30
0.0
 10
-13.83469
 20
0.39911
 30
0.0
 10
-13.88247
 20
0.32666
 30
0.0
 10
-13.84755
 20
0.30382
 30
0.0
 10
-13.84755
 20
0.30382
 30
0.0
 10
-13.79358
 20
0.22318
 30
0.0
 10
-12.87989
 20
-0.26928
 30
0.0
 10
-12.39578
 20
-0.54333
 30
0.0
  0
SPLINE
  5
4F
330
1F
100
AcDbEntity
  8
Livello 1
 62
   250
370
    20
100
AcDbSpline
210
0.0
220
0.0
230
1.0
 70
    11
 71
     3
 72
   104
 73
   100
 74
     0
 42
0.0000000001
 43
0.0000000001
 40
0.0
 40
0.0
 40
0.0
 40
0.0
 40
0.0384615384615385
 40
0.0384615384615385
 40
0.0384615384615385
 40
0.0384615384615385
 40
0.0769230769230769
 40
0.0769230769230769
 40
0.0769230769230769
 40
0.0769230769230769
 40
0.1153846153846154
 40
0.1153846153846154
 40
0.1153846153846154
 40
0.1153846153846154
 40
0.1538461538461539
 40
0.1538461538461539
 40
0.1538461538461539
 40
0.1538461538461539
 40
0.1923076923076923
 40
0.1923076923076923
 40
0.1923076923076923
 40
0.1923076923076923
 40
0.2307692307692308
 40
0.2307692307692308
 40
0.2307692307692308
 40
0.2307692307692308
 40
0.2692307692307692
 40
0.2692307692307692
 40
0.2692307692307692
 40
0.2692307692307692
 40
0.3076923076923077
 40
0.3076923076923077
 40
0.3076923076923077
 40
0.3076923076923077
 40
0.3461538461538461
 40
0.3461538461538461
 40
0.3461538461538461
 40
0.3461538461538461
 40
0.3846153846153846
 40
0.3846153846153846
 40
0.3846153846153846
 40
0.3846153846153846
 40
0.4230769230769231
 40
0.4230769230769231
 40
0.4230769230769231
 40
0.4230769230769231
 40
0.4615384615384616
 40
0.4615384615384616
 40
0.4615384615384616
 40
0.4615384615384616
 40
0.5
 40
0.5
 40
0.5
 40
0.5
 40
0.5384615384615384
 40
0.5384615384615384
 40
0.5384615384615384
 40
0.5384615384615384
 40
0.5769230769230769
 40
0.5769230769230769
 40
0.5769230769230769
 40
0.5769230769230769
 40
0.6153846153846154
 40
0.6153846153846154
 40
0.6153846153846154
 40
0.6153846153846154
 40
0.6538461538461539
 40
0.6538461538461539
 40
0.6538461538461539
 40
0.6538461538461539
 40
0.6923076923076923
 40
0.6923076923076923
 40
0.6923076923076923
 40
0.6923076923076923
 40
0.7307692307692307
 40
0.7307692307692307
 40
0.7307692307692307
 40
0.7307692307692307
 40
0.7692307692307693
 40
0.7692307692307693
 40
0.7692307692307693
 40
0.7692307692307693
 40
0.8076923076923077
 40
0.8076923076923077
 40
0.8076923076923077
 40
0.8076923076923077
 40
0.8461538461538461
 40
0.8461538461538461
 40
0.8461538461538461
 40
0.8461538461538461
 40
0.8846153846153846
 40
0.8846153846153846
 40
0.8846153846153846
 40
0.8846153846153846
 40
0.9230769230769231
 40
0.9230769230769231
 40
0.9230769230769231
 40
0.9230769230769231
 40
1.0
 40
1.0
 40
1.0
 40
1.0
 10
-9.38403
 20
3.55787
 30
0.0
 10
-9.38363
 20
3.52894
 30
0.0
 10
-9.35211
 20
3.48671
 30
0.0
 10
-9.32083
 20
3.48644
 30
0.0
 10
-9.32083
 20
3.48644
 30
0.0
 10
-9.01252
 20
3.48644
 30
0.0
 10
-8.66261
 20
3.48644
 30
0.0
 10
-8.35183
 20
3.48644
 30
0.0
 10
-8.35183
 20
3.48644
 30
0.0
 10
-8.35183
 20
3.48644
 30
0.0
 10
-8.35183
 20
3.28644
 30
0.0
 10
-8.35183
 20
3.28644
 30
0.0
 10
-8.35183
 20
3.28644
 30
0.0
 10
-8.35183
 20
3.28644
 30
0.0
 10
-9.33591
 20
3.28644
 30
0.0
 10
-9.33591
 20
3.28644
 30
0.0
 10
-9.33591
 20
3.28644
 30
0.0
 10
-9.3711
 20
3.28644
 30
0.0
 10
-9.40006
 20
3.2621
 30
0.0
 10
-9.40884
 20
3.22519
 30
0.0
 10
-9.40884
 20
3.22519
 30
0.0
 10
-9.43253
 20
3.0127
 30
0.0
 10
-9.23191
 20
2.83421
 30
0.0
 10
-9.12011
 20
2.78162
 30
0.0
 10
-9.12011
 20
2.78162
 30
0.0
 10
-8.88223
 20
2.73669
 30
0.0
 10
-7.95293
 20
2.59688
 30
0.0
 10
-7.64236
 20
2.57366
 30
0.0
 10
-7.64236
 20
2.57366
 30
0.0
 10
-7.50166
 20
2.63289
 30
0.0
 10
-7.40956
 20
2.72968
 30
0.0
 10
-7.31797
 20
2.84935
 30
0.0
 10
-7.31797
 20
2.84935
 30
0.0
 10
-7.1288
 20
3.10501
 30
0.0
 10
-7.16061
 20
3.70517
 30
0.0
 10
-7.16811
 20
3.92825
 30
0.0
 10
-7.16811
 20
3.92825
 30
0.0
 10
-7.13491
 20
3.99282
 30
0.0
 10
-6.99766
 20
4.07966
 30
0.0
 10
-6.99498
 20
4.24635
 30
0.0
 10
-6.99498
 20
4.24635
 30
0.0
 10
-7.00194
 20
4.36681
 30
0.0
 10
-7.08334
 20
4.52495
 30
0.0
 10
-7.20024
 20
4.56945
 30
0.0
 10
-7.20024
 20
4.56945
 30
0.0
 10
-7.20024
 20
4.56945
 30
0.0
 10
-8.19471
 20
4.56945
 30
0.0
 10
-8.19471
 20
4.56945
 30
0.0
 10
-8.19471
 20
4.56945
 30
0.0
 10
-8.19471
 20
4.63619
 30
0.0
 10
-8.19471
 20
4.70245
 30
0.0
 10
-8.19471
 20
4.76945
 30
0.0
 10
-8.19471
 20
4.76945
 30
0.0
 10
-8.19471
 20
4.76945
 30
0.0
 10
-7.28409
 20
4.76945
 30
0.0
 10
-7.28409
 20
4.76945
 30
0.0
 10
-7.28409
 20
4.76945
 30
0.0
 10
-7.24865
 20
4.78171
 30
0.0
 10
-7.22896
 20
4.78992
 30
0.0
 10
-7.21512
 20
4.82209
 30
0.0
 10
-7.21512
 20
4.82209
 30
0.0
 10
-7.18516
 20
4.94031
 30
0.0
 10
-7.34452
 20
5.10567
 30
0.0
 10
-7.44556
 20
5.15973
 30
0.0
 10
-7.44556
 20
5.15973
 30
0.0
 10
-7.53311
 20
5.20401
 30
0.0
 10
-7.60113
 20
5.19899
 30
0.0
 10
-7.67231
 20
5.20309
 30
0.0
 10
-7.67231
 20
5.20309
 30
0.0
 10
-7.67231
 20
5.20309
 30
0.0
 10
-8.67138
 20
5.20309
 30
0.0
 10
-8.67138
 20
5.20309
 30
0.0
 10
-8.67138
 20
5.20309
 30
0.0
 10
-8.76102
 20
5.18365
 30
0.0
 10
-8.75388
 20
5.20716
 30
0.0
 10
-8.88305
 20
5.17507
 30
0.0
 10
-8.88305
 20
5.17507
 30
0.0
 10
-8.92282
 20
5.16519
 30
0.0
 10
-9.03756
 20
5.11398
 30
0.0
 10
-9.06931
 20
5.09302
 30
0.0
 10
-9.06931
 20
5.09302
 30
0.0
 10
-9.06931
 20
5.09302
 30
0.0
 10
-9.11165
 20
5.05069
 30
0.0
 10
-9.11165
 20
5.05069
 30
0.0
 10
-9.11165
 20
5.05069
 30
0.0
 10
-9.19043
 20
4.99177
 30
0.0
 10
-9.24028
 20
4.89347
 30
0.0
 10
-9.25558
 20
4.79669
 30
0.0
 10
-9.25558
 20
4.79669
 30
0.0
 10
-9.25685
 20
4.68468
 30
0.0
 10
-9.24771
 20
4.49641
 30
0.0
 10
-9.3669
 20
4.43924
 30
0.0
 10
-9.3669
 20
4.43924
 30
0.0
 10
-9.5735
 20
4.3374
 30
0.0
 10
-9.57764
 20
4.0469
 30
0.0
 10
-9.40013
 20
3.93885
 30
0.0
 10
-9.40013
 20
3.93885
 30
0.0
 10
-9.34956
 20
3.86604
 30
0.0
 10
-9.39892
 20
3.72861
 30
0.0
 10
-9.38403
 20
3.55787
 30
0.0
  0
SPLINE
  5
50
330
1F
100
AcDbEntity
  8
Livello 1
 62
   250
370
    20
100
AcDbSpline
210
0.0
220
0.0
230
1.0
 70
    11
 71
     3
 72
   104
 73
   100
 74
     0
 42
0.0000000001
 43
0.0000000001
 40
0.0
 40
0.0
 40
0.0
 40
0.0
 40
0.0384615384615385
 40
0.0384615384615385
 40
0.0384615384615385
 40
0.0384615384615385
 40
0.0769230769230769
 40
0.0769230769230769
 40
0.0769230769230769
 40
0.0769230769230769
 40
0.1153846153846154
 40
0.1153846153846154
 40
0.1153846153846154
 40
0.1153846153846154
 40
0.1538461538461539
 40
0.1538461538461539
 40
0.1538461538461539
 40
0.1538461538461539
 40
0.1923076923076923
 40
0.1923076923076923
 40
0.1923076923076923
 40
0.1923076923076923
 40
0.2307692307692308
 40
0.2307692307692308
 40
0.2307692307692308
 40
0.2307692307692308
 40
0.2692307692307692
 40
0.2692307692307692
 40
0.2692307692307692
 40
0.2692307692307692
 40
0.3076923076923077
 40
0.3076923076923077
 40
0.3076923076923077
 40
0.3076923076923077
 40
0.3461538461538461
 40
0.3461538461538461
 40
0.3461538461538461
 40
0.3461538461538461
 40
0.3846153846153846
 40
0.3846153846153846
 40
0.3846153846153846
 40
0.3846153846153846
 40
0.4230769230769231
 40
0.4230769230769231
 40
0.4230769230769231
 40
0.4230769230769231
 40
0.4615384615384616
 40
0.4615384615384616
 40
0.4615384615384616
 40
0.4615384615384616
 40
0.5
 40
0.5
 40
0.5
 40
0.5
 40
0.5384615384615384
 40
0.5384615384615384
 40
0.5384615384615384
 40
0.5384615384615384
 40
0.5769230769230769
 40
0.5769230769230769
 40
0.5769230769230769
 40
0.5769230769230769
 40
0.6153846153846154
 40
0.6153846153846154
 40
0.6153846153846154
 40
0.6153846153846154
 40
0.6538461538461539
 40
0.6538461538461539
 40
0.6538461538461539
 40
0.6538461538461539
 40
0.6923076923076923
 40
0.6923076923076923
 40
0.6923076923076923
 40
0.6923076923076923
 40
0.7307692307692307
 40
0.7307692307692307
 40
0.7307692307692307
 40
0.7307692307692307
 40
0.7692307692307693
 40
0.7692307692307693
 40
0.7692307692307693
 40
0.7692307692307693
 40
0.8076923076923077
 40
0.8076923076923077
 40
0.8076923076923077
 40
0.8076923076923077
 40
0.8461538461538461
 40
0.8461538461538461
 40
0.8461538461538461
 40
0.8461538461538461
 40
0.8846153846153846
 40
0.8846153846153846
 40
0.8846153846153846
 40
0.8846153846153846
 40
0.9230769230769231
 40
0.9230769230769231
 40
0.9230769230769231
 40
0.9230769230769231
 40
1.0
 40
1.0
 40
1.0
 40
1.0
 10
-11.90581
 20
1.4129
 30
0.0
 10
-11.90541
 20
1.38397
 30
0.0
 10
-11.87389
 20
1.34174
 30
0.0
 10
-11.84261
 20
1.34147
 30
0.0
 10
-11.84261
 20
1.34147
 30
0.0
 10
-11.5343
 20
1.34147
 30
0.0
 10
-11.18439
 20
1.34147
 30
0.0
 10
-10.87361
 20
1.34147
 30
0.0
 10
-10.87361
 20
1.34147
 30
0.0
 10
-10.87361
 20
1.34147
 30
0.0
 10
-10.87361
 20
1.14147
 30
0.0
 10
-10.87361
 20
1.14147
 30
0.0
 10
-10.87361
 20
1.14147
 30
0.0
 10
-10.87361
 20
1.14147
 30
0.0
 10
-11.85769
 20
1.14147
 30
0.0
 10
-11.85769
 20
1.14147
 30
0.0
 10
-11.85769
 20
1.14147
 30
0.0
 10
-11.89288
 20
1.14147
 30
0.0
 10
-11.92184
 20
1.11713
 30
0.0
 10
-11.93062
 20
1.08022
 30
0.0
 10
-11.93062
 20
1.08022
 30
0.0
 10
-11.95431
 20
0.86773
 30
0.0
 10
-11.75369
 20
0.68924
 30
0.0
 10
-11.64189
 20
0.63665
 30
0.0
 10
-11.64189
 20
0.63665
 30
0.0
 10
-11.40401
 20
0.59172
 30
0.0
 10
-10.47471
 20
0.45191
 30
0.0
 10
-10.16414
 20
0.42869
 30
0.0
 10
-10.16414
 20
0.42869
 30
0.0
 10
-10.02344
 20
0.48792
 30
0.0
 10
-9.93134
 20
0.58471
 30
0.0
 10
-9.83975
 20
0.70438
 30
0.0
 10
-9.83975
 20
0.70438
 30
0.0
 10
-9.65058
 20
0.96004
 30
0.0
 10
-9.68239
 20
1.5602
 30
0.0
 10
-9.68989
 20
1.78328
 30
0.0
 10
-9.68989
 20
1.78328
 30
0.0
 10
-9.65669
 20
1.84785
 30
0.0
 10
-9.51944
 20
1.93469
 30
0.0
 10
-9.51676
 20
2.10138
 30
0.0
 10
-9.51676
 20
2.10138
 30
0.0
 10
-9.52372
 20
2.22184
 30
0.0
 10
-9.60512
 20
2.37998
 30
0.0
 10
-9.72202
 20
2.42448
 30
0.0
 10
-9.72202
 20
2.42448
 30
0.0
 10
-9.72202
 20
2.42448
 30
0.0
 10
-10.71649
 20
2.42448
 30
0.0
 10
-10.71649
 20
2.42448
 30
0.0
 10
-10.71649
 20
2.42448
 30
0.0
 10
-10.71649
 20
2.49122
 30
0.0
 10
-10.71649
 20
2.55748
 30
0.0
 10
-10.71649
 20
2.62448
 30
0.0
 10
-10.71649
 20
2.62448
 30
0.0
 10
-10.71649
 20
2.62448
 30
0.0
 10
-9.80587
 20
2.62448
 30
0.0
 10
-9.80587
 20
2.62448
 30
0.0
 10
-9.80587
 20
2.62448
 30
0.0
 10
-9.77043
 20
2.63674
 30
0.0
 10
-9.75074
 20
2.64495
 30
0.0
 10
-9.7369
 20
2.67712
 30
0.0
 10
-9.7369
 20
2.67712
 30
0.0
 10
-9.70694
 20
2.79534
 30
0.0
 10
-9.8663
 20
2.9607
 30
0.0
 10
-9.96734
 20
3.01476
 30
0.0
 10
-9.96734
 20
3.01476
 30
0.0
 10
-10.05489
 20
3.05904
 30
0.0
 10
-10.12291
 20
3.05402
 30
0.0
 10
-10.19409
 20
3.05812
 30
0.0
 10
-10.19409
 20
3.05812
 30
0.0
 10
-10.19409
 20
3.05812
 30
0.0
 10
-11.19316
 20
3.05812
 30
0.0
 10
-11.19316
 20
3.05812
 30
0.0
 10
-11.19316
 20
3.05812
 30
0.0
 10
-11.2828
 20
3.03868
 30
0.0
 10
-11.27566
 20
3.06219
 30
0.0
 10
-11.40483
 20
3.0301
 30
0.0
 10
-11.40483
 20
3.0301
 30
0.0
 10
-11.4446
 20
3.02022
 30
0.0
 10
-11.55934
 20
2.96901
 30
0.0
 10
-11.59109
 20
2.94805
 30
0.0
 10
-11.59109
 20
2.94805
 30
0.0
 10
-11.59109
 20
2.94805
 30
0.0
 10
-11.63343
 20
2.90572
 30
0.0
 10
-11.63343
 20
2.90572
 30
0.0
 10
-11.63343
 20
2.90572
 30
0.0
 10
-11.71221
 20
2.8468
 30
0.0
 10
-11.76206
 20
2.7485
 30
0.0
 10
-11.77736
 20
2.65172
 30
0.0
 10
-11.77736
 20
2.65172
 30
0.0
 10
-11.77863
 20
2.53971
 30
0.0
 10
-11.76949
 20
2.35144
 30
0.0
 10
-11.88868
 20
2.29427
 30
0.0
 10
-11.88868
 20
2.29427
 30
0.0
 10
-12.09528
 20
2.19243
 30
0.0
 10
-12.09942
 20
1.90193
 30
0.0
 10
-11.92191
 20
1.79388
 30
0.0
 10
-11.92191
 20
1.79388
 30
0.0
 10
-11.87134
 20
1.72107
 30
0.0
 10
-11.9207
 20
1.58364
 30
0.0
 10
-11.90581
 20
1.4129
 30
0.0
  0
SPLINE
  5
51
330
1F
100
AcDbEntity
  8
Livello 1
 62
   250
370
    20
100
AcDbSpline
210
0.0
220
0.0
230
1.0
 70
    11
 71
     3
 72
   104
 73
   100
 74
     0
 42
0.0000000001
 43
0.0000000001
 40
0.0
 40
0.0
 40
0.0
 40
0.0
 40
0.0384615384615385
 40
0.0384615384615385
 40
0.0384615384615385
 40
0.0384615384615385
 40
0.0769230769230769
 40
0.0769230769230769
 40
0.0769230769230769
 40
0.0769230769230769
 40
0.1153846153846154
 40
0.1153846153846154
 40
0.1153846153846154
 40
0.1153846153846154
 40
0.1538461538461539
 40
0.1538461538461539
 40
0.1538461538461539
 40
0.1538461538461539
 40
0.1923076923076923
 40
0.1923076923076923
 40
0.1923076923076923
 40
0.1923076923076923
 40
0.2307692307692308
 40
0.2307692307692308
 40
0.2307692307692308
 40
0.2307692307692308
 40
0.2692307692307692
 40
0.2692307692307692
 40
0.2692307692307692
 40
0.2692307692307692
 40
0.3076923076923077
 40
0.3076923076923077
 40
0.3076923076923077
 40
0.3076923076923077
 40
0.3461538461538461
 40
0.3461538461538461
 40
0.3461538461538461
 40
0.3461538461538461
 40
0.3846153846153846
 40
0.3846153846153846
 40
0.3846153846153846
 40
0.3846153846153846
 40
0.4230769230769231
 40
0.4230769230769231
 40
0.4230769230769231
 40
0.4230769230769231
 40
0.4615384615384616
 40
0.4615384615384616
 40
0.4615384615384616
 40
0.4615384615384616
 40
0.5
 40
0.5
 40
0.5
 40
0.5
 40
0.5384615384615384
 40
0.5384615384615384
 40
0.5384615384615384
 40
0.5384615384615384
 40
0.5769230769230769
 40
0.5769230769230769
 40
0.5769230769230769
 40
0.5769230769230769
 40
0.6153846153846154
 40
0.6153846153846154
 40
0.6153846153846154
 40
0.6153846153846154
 40
0.6538461538461539
 40
0.6538461538461539
 40
0.6538461538461539
 40
0.6538461538461539
 40
0.6923076923076923
 40
0.6923076923076923
 40
0.6923076923076923
 40
0.6923076923076923
 40
0.7307692307692307
 40
0.7307692307692307
 40
0.7307692307692307
 40
0.7307692307692307
 40
0.7692307692307693
 40
0.7692307692307693
 40
0.7692307692307693
 40
0.7692307692307693
 40
0.8076923076923077
 40
0.8076923076923077
 40
0.8076923076923077
 40
0.8076923076923077
 40
0.8461538461538461
 40
0.8461538461538461
 40
0.8461538461538461
 40
0.8461538461538461
 40
0.8846153846153846
 40
0.8846153846153846
 40
0.8846153846153846
 40
0.8846153846153846
 40
0.9230769230769231
 40
0.9230769230769231
 40
0.9230769230769231
 40
0.9230769230769231
 40
1.0
 40
1.0
 40
1.0
 40
1.0
 10
-11.00789
 20
-0.78524
 30
0.0
 10
-11.03682
 20
-0.78564
 30
0.0
 10
-11.07905
 20
-0.81716
 30
0.0
 10
-11.07932
 20
-0.84844
 30
0.0
 10
-11.07932
 20
-0.84844
 30
0.0
 10
-11.07932
 20
-1.15675
 30
0.0
 10
-11.07932
 20
-1.50666
 30
0.0
 10
-11.07932
 20
-1.81744
 30
0.0
 10
-11.07932
 20
-1.81744
 30
0.0
 10
-11.07932
 20
-1.81744
 30
0.0
 10
-11.27932
 20
-1.81744
 30
0.0
 10
-11.27932
 20
-1.81744
 30
0.0
 10
-11.27932
 20
-1.81744
 30
0.0
 10
-11.27932
 20
-1.81744
 30
0.0
 10
-11.27932
 20
-0.83336
 30
0.0
 10
-11.27932
 20
-0.83336
 30
0.0
 10
-11.27932
 20
-0.83336
 30
0.0
 10
-11.27932
 20
-0.79817
 30
0.0
 10
-11.30366
 20
-0.76921
 30
0.0
 10
-11.34057
 20
-0.76043
 30
0.0
 10
-11.34057
 20
-0.76043
 30
0.0
 10
-11.55306
 20
-0.73674
 30
0.0
 10
-11.73155
 20
-0.93736
 30
0.0
 10
-11.78414
 20
-1.04916
 30
0.0
 10
-11.78414
 20
-1.04916
 30
0.0
 10
-11.82907
 20
-1.28704
 30
0.0
 10
-11.96888
 20
-2.21634
 30
0.0
 10
-11.9921
 20
-2.52691
 30
0.0
 10
-11.9921
 20
-2.52691
 30
0.0
 10
-11.93287
 20
-2.66761
 30
0.0
 10
-11.83608
 20
-2.75971
 30
0.0
 10
-11.71641
 20
-2.8513
 30
0.0
 10
-11.71641
 20
-2.8513
 30
0.0
 10
-11.46075
 20
-3.04047
 30
0.0
 10
-10.86059
 20
-3.00866
 30
0.0
 10
-10.63751
 20
-3.00116
 30
0.0
 10
-10.63751
 20
-3.00116
 30
0.0
 10
-10.57294
 20
-3.03436
 30
0.0
 10
-10.4861
 20
-3.17161
 30
0.0
 10
-10.31941
 20
-3.17429
 30
0.0
 10
-10.31941
 20
-3.17429
 30
0.0
 10
-10.19895
 20
-3.16733
 30
0.0
 10
-10.04081
 20
-3.08593
 30
0.0
 10
-9.99631
 20
-2.96903
 30
0.0
 10
-9.99631
 20
-2.96903
 30
0.0
 10
-9.99631
 20
-2.96903
 30
0.0
 10
-9.99631
 20
-1.97456
 30
0.0
 10
-9.99631
 20
-1.97456
 30
0.0
 10
-9.99631
 20
-1.97456
 30
0.0
 10
-9.92957
 20
-1.97456
 30
0.0
 10
-9.86331
 20
-1.97456
 30
0.0
 10
-9.79631
 20
-1.97456
 30
0.0
 10
-9.79631
 20
-1.97456
 30
0.0
 10
-9.79631
 20
-1.97456
 30
0.0
 10
-9.79631
 20
-2.88518
 30
0.0
 10
-9.79631
 20
-2.88518
 30
0.0
 10
-9.79631
 20
-2.88518
 30
0.0
 10
-9.78405
 20
-2.92062
 30
0.0
 10
-9.77584
 20
-2.94031
 30
0.0
 10
-9.74367
 20
-2.95415
 30
0.0
 10
-9.74367
 20
-2.95415
 30
0.0
 10
-9.62545
 20
-2.98411
 30
0.0
 10
-9.46009
 20
-2.82475
 30
0.0
 10
-9.40603
 20
-2.72371
 30
0.0
 10
-9.40603
 20
-2.72371
 30
0.0
 10
-9.36175
 20
-2.63616
 30
0.0
 10
-9.36677
 20
-2.56814
 30
0.0
 10
-9.36267
 20
-2.49696
 30
0.0
 10
-9.36267
 20
-2.49696
 30
0.0
 10
-9.36267
 20
-2.49696
 30
0.0
 10
-9.36267
 20
-1.49789
 30
0.0
 10
-9.36267
 20
-1.49789
 30
0.0
 10
-9.36267
 20
-1.49789
 30
0.0
 10
-9.38211
 20
-1.40825
 30
0.0
 10
-9.3586
 20
-1.41539
 30
0.0
 10
-9.39069
 20
-1.28622
 30
0.0
 10
-9.39069
 20
-1.28622
 30
0.0
 10
-9.40057
 20
-1.24645
 30
0.0
 10
-9.45178
 20
-1.13171
 30
0.0
 10
-9.47274
 20
-1.09996
 30
0.0
 10
-9.47274
 20
-1.09996
 30
0.0
 10
-9.47274
 20
-1.09996
 30
0.0
 10
-9.51507
 20
-1.05762
 30
0.0
 10
-9.51507
 20
-1.05762
 30
0.0
 10
-9.51507
 20
-1.05762
 30
0.0
 10
-9.57399
 20
-0.97884
 30
0.0
 10
-9.67229
 20
-0.92899
 30
0.0
 10
-9.76907
 20
-0.91369
 30
0.0
 10
-9.76907
 20
-0.91369
 30
0.0
 10
-9.88108
 20
-0.91242
 30
0.0
 10
-10.06935
 20
-0.92156
 30
0.0
 10
-10.12652
 20
-0.80237
 30
0.0
 10
-10.12652
 20
-0.80237
 30
0.0
 10
-10.22836
 20
-0.59577
 30
0.0
 10
-10.51886
 20
-0.59163
 30
0.0
 10
-10.62691
 20
-0.76914
 30
0.0
 10
-10.62691
 20
-0.76914
 30
0.0
 10
-10.69972
 20
-0.81971
 30
0.0
 10
-10.83715
 20
-0.77035
 30
0.0
 10
-11.00789
 20
-0.78524
 30
0.0
  0
SPLINE
  5
52
330
1F
100
AcDbEntity
  8
Livello 1
 62
   250
370
   211
100
AcDbSpline
210
0.0
220
0.0
230
1.0
 70
    11
 71
     3
 72
   156
 73
   152
 74
     0
 42
0.0000000001
 43
0.0000000001
 40
0.0
 40
0.0
 40
0.0
 40
0.0
 40
0.0256410256410256
 40
0.0256410256410256
 40
0.0256410256410256
 40
0.0256410256410256
 40
0.0512820512820513
 40
0.0512820512820513
 40
0.0512820512820513
 40
0.0512820512820513
 40
0.0769230769230769
 40
0.0769230769230769
 40
0.0769230769230769
 40
0.0769230769230769
 40
0.1025641025641026
 40
0.1025641025641026
 40
0.1025641025641026
 40
0.1025641025641026
 40
0.1282051282051282
 40
0.1282051282051282
 40
0.1282051282051282
 40
0.1282051282051282
 40
0.1538461538461539
 40
0.1538461538461539
 40
0.1538461538461539
 40
0.1538461538461539
 40
0.1794871794871795
 40
0.1794871794871795
 40
0.1794871794871795
 40
0.1794871794871795
 40
0.2051282051282051
 40
0.2051282051282051
 40
0.2051282051282051
 40
0.2051282051282051
 40
0.2307692307692308
 40
0.2307692307692308
 40
0.2307692307692308
 40
0.2307692307692308
 40
0.2564102564102564
 40
0.2564102564102564
 40
0.2564102564102564
 40
0.2564102564102564
 40
0.282051282051282
 40
0.282051282051282
 40
0.282051282051282
 40
0.282051282051282
 40
0.3076923076923077
 40
0.3076923076923077
 40
0.3076923076923077
 40
0.3076923076923077
 40
0.3333333333333333
 40
0.3333333333333333
 40
0.3333333333333333
 40
0.3333333333333333
 40
0.358974358974359
 40
0.358974358974359
 40
0.358974358974359
 40
0.358974358974359
 40
0.3846153846153846
 40
0.3846153846153846
 40
0.3846153846153846
 40
0.3846153846153846
 40
0.4102564102564102
 40
0.4102564102564102
 40
0.4102564102564102
 40
0.4102564102564102
 40
0.4358974358974359
 40
0.4358974358974359
 40
0.4358974358974359
 40
0.4358974358974359
 40
0.4615384615384616
 40
0.4615384615384616
 40
0.4615384615384616
 40
0.4615384615384616
 40
0.4871794871794872
 40
0.4871794871794872
 40
0.4871794871794872
 40
0.4871794871794872
 40
0.5128205128205128
 40
0.5128205128205128
 40
0.5128205128205128
 40
0.5128205128205128
 40
0.5384615384615384
 40
0.5384615384615384
 40
0.5384615384615384
 40
0.5384615384615384
 40
0.5641025641025641
 40
0.5641025641025641
 40
0.5641025641025641
 40
0.5641025641025641
 40
0.5897435897435898
 40
0.5897435897435898
 40
0.5897435897435898
 40
0.5897435897435898
 40
0.6153846153846154
 40
0.6153846153846154
 40
0.6153846153846154
 40
0.6153846153846154
 40
0.6410256410256411
 40
0.6410256410256411
 40
0.6410256410256411
 40
0.6410256410256411
 40
0.6666666666666666
 40
0.6666666666666666
 40
0.6666666666666666
 40
0.6666666666666666
 40
0.6923076923076923
 40
0.6923076923076923
 40
0.6923076923076923
 40
0.6923076923076923
 40
0.717948717948718
 40
0.717948717948718
 40
0.717948717948718
 40
0.717948717948718
 40
0.7435897435897436
 40
0.7435897435897436
 40
0.7435897435897436
 40
0.7435897435897436
 40
0.7692307692307693
 40
0.7692307692307693
 40
0.7692307692307693
 40
0.7692307692307693
 40
0.7948717948717948
 40
0.7948717948717948
 40
0.7948717948717948
 40
0.7948717948717948
 40
0.8205128205128205
 40
0.8205128205128205
 40
0.8205128205128205
 40
0.8205128205128205
 40
0.8461538461538461
 40
0.8461538461538461
 40
0.8461538461538461
 40
0.8461538461538461
 40
0.8717948717948718
 40
0.8717948717948718
 40
0.8717948717948718
 40
0.8717948717948718
 40
0.8974358974358975
 40
0.8974358974358975
 40
0.8974358974358975
 40
0.8974358974358975
 40
0.9230769230769231
 40
0.9230769230769231
 40
0.9230769230769231
 40
0.9230769230769231
 40
0.9487179487179487
 40
0.9487179487179487
 40
0.9487179487179487
 40
0.9487179487179487
 40
1.0
 40
1.0
 40
1.0
 40
1.0
 10
-6.14449
 20
-8.13693
 30
0.0
 10
-6.05514
 20
-8.08363
 30
0.0
 10
-5.93203
 20
-7.98163
 30
0.0
 10
-5.86549
 20
-7.88083
 30
0.0
 10
-5.86549
 20
-7.88083
 30
0.0
 10
-5.65487
 20
-7.54555
 30
0.0
 10
-5.50997
 20
-7.28322
 30
0.0
 10
-5.26342
 20
-6.99043
 30
0.0
 10
-5.26342
 20
-6.99043
 30
0.0
 10
-5.20117
 20
-6.93037
 30
0.0
 10
-5.13164
 20
-6.86553
 30
0.0
 10
-5.0353
 20
-6.82762
 30
0.0
 10
-5.0353
 20
-6.82762
 30
0.0
 10
-4.86943
 20
-6.78338
 30
0.0
 10
-4.64554
 20
-6.85359
 30
0.0
 10
-4.52566
 20
-6.97347
 30
0.0
 10
-4.52566
 20
-6.97347
 30
0.0
 10
-4.41536
 20
-7.13892
 30
0.0
 10
-4.36328
 20
-7.24337
 30
0.0
 10
-4.28143
 20
-7.42461
 30
0.0
 10
-4.28143
 20
-7.42461
 30
0.0
 10
-4.05801
 20
-7.95835
 30
0.0
 10
-3.59858
 20
-8.1315
 30
0.0
 10
-3.04166
 20
-8.16915
 30
0.0
 10
-3.04166
 20
-8.16915
 30
0.0
 10
-2.78534
 20
-8.16915
 30
0.0
 10
-2.55944
 20
-8.16337
 30
0.0
 10
-2.3039
 20
-8.14371
 30
0.0
 10
-2.3039
 20
-8.14371
 30
0.0
 10
-1.94683
 20
-8.11726
 30
0.0
 10
-1.57752
 20
-8.18899
 30
0.0
 10
-1.25238
 20
-8.16915
 30
0.0
 10
-1.25238
 20
-8.16915
 30
0.0
 10
-0.9391
 20
-8.09478
 30
0.0
 10
-0.83937
 20
-7.99203
 30
0.0
 10
-0.75545
 20
-7.66798
 30
0.0
 10
-0.75545
 20
-7.66798
 30
0.0
 10
-0.72121
 20
-7.54813
 30
0.0
 10
-0.72623
 20
-7.03989
 30
0.0
 10
-0.74697
 20
-6.88952
 30
0.0
 10
-0.74697
 20
-6.88952
 30
0.0
 10
-0.84809
 20
-6.38392
 30
0.0
 10
-1.04236
 20
-6.01464
 30
0.0
 10
-1.28799
 20
-5.56749
 30
0.0
 10
-1.28799
 20
-5.56749
 30
0.0
 10
-1.72774
 20
-4.99244
 30
0.0
 10
-1.82563
 20
-4.73377
 30
0.0
 10
-2.48452
 20
-4.33111
 30
0.0
 10
-2.48452
 20
-4.33111
 30
0.0
 10
-2.82543
 20
-4.16006
 30
0.0
 10
-3.85658
 20
-4.13405
 30
0.0
 10
-4.3145
 20
-4.30736
 30
0.0
 10
-4.3145
 20
-4.30736
 30
0.0
 10
-4.47367
 20
-4.35213
 30
0.0
 10
-4.64175
 20
-4.42958
 30
0.0
 10
-4.80465
 20
-4.34298
 30
0.0
 10
-4.80465
 20
-4.34298
 30
0.0
 10
-4.88199
 20
-4.29044
 30
0.0
 10
-4.94352
 20
-4.23959
 30
0.0
 10
-5.01665
 20
-4.18186
 30
0.0
 10
-5.01665
 20
-4.18186
 30
0.0
 10
-5.21661
 20
-4.02693
 30
0.0
 10
-5.42337
 20
-4.32499
 30
0.0
 10
-5.53478
 20
-4.4634
 30
0.0
 10
-5.53478
 20
-4.4634
 30
0.0
 10
-5.65844
 20
-4.59713
 30
0.0
 10
-5.92743
 20
-5.29529
 30
0.0
 10
-5.98421
 20
-5.43859
 30
0.0
 10
-5.98421
 20
-5.43859
 30
0.0
 10
-6.13857
 20
-5.85274
 30
0.0
 10
-6.27272
 20
-6.27282
 30
0.0
 10
-6.46757
 20
-6.66819
 30
0.0
 10
-6.46757
 20
-6.66819
 30
0.0
 10
-6.55673
 20
-6.83762
 30
0.0
 10
-6.71135
 20
-6.80949
 30
0.0
 10
-6.88225
 20
-6.78352
 30
0.0
 10
-6.88225
 20
-6.78352
 30
0.0
 10
-7.05382
 20
-6.74921
 30
0.0
 10
-7.33306
 20
-6.54781
 30
0.0
 10
-7.4326
 20
-6.40362
 30
0.0
 10
-7.4326
 20
-6.40362
 30
0.0
 10
-7.48489
 20
-6.34234
 30
0.0
 10
-7.51735
 20
-6.27443
 30
0.0
 10
-7.52333
 20
-6.19331
 30
0.0
 10
-7.52333
 20
-6.19331
 30
0.0
 10
-7.50628
 20
-5.97623
 30
0.0
 10
-7.59418
 20
-5.82698
 30
0.0
 10
-7.81674
 20
-5.72946
 30
0.0
 10
-7.81674
 20
-5.72946
 30
0.0
 10
-7.94336
 20
-5.65475
 30
0.0
 10
-8.07326
 20
-5.55358
 30
0.0
 10
-8.02789
 20
-5.39619
 30
0.0
 10
-8.02789
 20
-5.39619
 30
0.0
 10
-7.96354
 20
-5.21693
 30
0.0
 10
-7.85507
 20
-5.15623
 30
0.0
 10
-7.70565
 20
-5.05699
 30
0.0
 10
-7.70565
 20
-5.05699
 30
0.0
 10
-7.69483
 20
-5.02994
 30
0.0
 10
-7.68562
 20
-5.02382
 30
0.0
 10
-7.69463
 20
-4.99679
 30
0.0
 10
-7.69463
 20
-4.99679
 30
0.0
 10
-7.77349
 20
-4.66013
 30
0.0
 10
-7.85236
 20
-4.32348
 30
0.0
 10
-7.93122
 20
-3.98682
 30
0.0
 10
-7.93122
 20
-3.98682
 30
0.0
 10
-7.93461
 20
-3.97862
 30
0.0
 10
-7.93801
 20
-3.97043
 30
0.0
 10
-7.9414
 20
-3.96223
 30
0.0
 10
-7.9414
 20
-3.96223
 30
0.0
 10
-7.96461
 20
-3.89224
 30
0.0
 10
-8.0738
 20
-3.85532
 30
0.0
 10
-8.17968
 20
-3.93085
 30
0.0
 10
-8.17968
 20
-3.93085
 30
0.0
 10
-8.45074
 20
-4.12798
 30
0.0
 10
-8.59604
 20
-4.27423
 30
0.0
 10
-8.71477
 20
-4.59908
 30
0.0
 10
-8.71477
 20
-4.59908
 30
0.0
 10
-8.71477
 20
-4.62734
 30
0.0
 10
-8.71477
 20
-4.65561
 30
0.0
 10
-8.71477
 20
-4.68387
 30
0.0
 10
-8.71477
 20
-4.68387
 30
0.0
 10
-8.70799
 20
-4.70903
 30
0.0
 10
-8.7012
 20
-4.73419
 30
0.0
 10
-8.69442
 20
-4.75935
 30
0.0
 10
-8.69442
 20
-4.75935
 30
0.0
 10
-8.64299
 20
-4.95162
 30
0.0
 10
-8.64908
 20
-5.15056
 30
0.0
 10
-8.68594
 20
-5.34616
 30
0.0
 10
-8.68594
 20
-5.34616
 30
0.0
 10
-8.71241
 20
-5.49554
 30
0.0
 10
-8.75339
 20
-5.62465
 30
0.0
 10
-8.79448
 20
-5.76847
 30
0.0
 10
-8.79448
 20
-5.76847
 30
0.0
 10
-8.80743
 20
-5.83404
 30
0.0
 10
-8.81211
 20
-5.89962
 30
0.0
 10
-8.79364
 20
-5.9652
 30
0.0
 10
-8.79364
 20
-5.9652
 30
0.0
 10
-8.75654
 20
-6.11563
 30
0.0
 10
-8.56277
 20
-6.32559
 30
0.0
 10
-8.45189
 20
-6.44771
 30
0.0
 10
-8.45189
 20
-6.44771
 30
0.0
 10
-7.99216
 20
-6.88829
 30
0.0
 10
-7.74862
 20
-7.13331
 30
0.0
 10
-7.33084
 20
-7.5993
 30
0.0
 10
-7.33084
 20
-7.5993
 30
0.0
 10
-7.18408
 20
-7.75888
 30
0.0
 10
-7.0687
 20
-7.88783
 30
0.0
 10
-6.88394
 20
-8.00973
 30
0.0
 10
-6.88394
 20
-8.00973
 30
0.0
 10
-6.72114
 20
-8.11379
 30
0.0
 10
-6.41727
 20
-8.2581
 30
0.0
 10
-6.14449
 20
-8.13693
 30
0.0
  0
SPLINE
  5
53
330
1F
100
AcDbEntity
  8
Livello 1
 62
   250
370
    20
100
AcDbSpline
210
0.0
220
0.0
230
1.0
 70
    11
 71
     3
 72
    36
 73
    32
 74
     0
 42
0.0000000001
 43
0.0000000001
 40
0.0
 40
0.0
 40
0.0
 40
0.0
 40
0.1111111111111111
 40
0.1111111111111111
 40
0.1111111111111111
 40
0.1111111111111111
 40
0.2222222222222222
 40
0.2222222222222222
 40
0.2222222222222222
 40
0.2222222222222222
 40
0.3333333333333333
 40
0.3333333333333333
 40
0.3333333333333333
 40
0.3333333333333333
 40
0.4444444444444444
 40
0.4444444444444444
 40
0.4444444444444444
 40
0.4444444444444444
 40
0.5555555555555556
 40
0.5555555555555556
 40
0.5555555555555556
 40
0.5555555555555556
 40
0.6666666666666666
 40
0.6666666666666666
 40
0.6666666666666666
 40
0.6666666666666666
 40
0.7777777777777778
 40
0.7777777777777778
 40
0.7777777777777778
 40
0.7777777777777778
 40
1.0
 40
1.0
 40
1.0
 40
1.0
 10
3.26795
 20
4.52319
 30
0.0
 10
3.26795
 20
4.52319
 30
0.0
 10
4.8751
 20
3.92513
 30
0.0
 10
4.8751
 20
3.92513
 30
0.0
 10
4.8751
 20
3.92513
 30
0.0
 10
4.92185
 20
3.90773
 30
0.0
 10
4.94658
 20
3.85719
 30
0.0
 10
4.93006
 20
3.8128
 30
0.0
 10
4.93006
 20
3.8128
 30
0.0
 10
4.93006
 20
3.8128
 30
0.0
 10
4.58334
 20
2.88106
 30
0.0
 10
4.58334
 20
2.88106
 30
0.0
 10
4.58334
 20
2.88106
 30
0.0
 10
4.56682
 20
2.83667
 30
0.0
 10
4.51506
 20
2.81459
 30
0.0
 10
4.46832
 20
2.83198
 30
0.0
 10
4.46832
 20
2.83198
 30
0.0
 10
4.46832
 20
2.83198
 30
0.0
 10
2.86116
 20
3.43005
 30
0.0
 10
2.86116
 20
3.43005
 30
0.0
 10
2.86116
 20
3.43005
 30
0.0
 10
2.81442
 20
3.44744
 30
0.0
 10
2.78969
 20
3.49799
 30
0.0
 10
2.8062
 20
3.54237
 30
0.0
 10
2.8062
 20
3.54237
 30
0.0
 10
2.8062
 20
3.54237
 30
0.0
 10
3.15293
 20
4.47412
 30
0.0
 10
3.15293
 20
4.47412
 30
0.0
 10
3.15293
 20
4.47412
 30
0.0
 10
3.16945
 20
4.51851
 30
0.0
 10
3.22121
 20
4.54059
 30
0.0
 10
3.26795
 20
4.52319
 30
0.0
  0
SPLINE
  5
54
330
1F
100
AcDbEntity
  8
Livello 1
 62
   250
370
    20
100
AcDbSpline
210
0.0
220
0.0
230
1.0
 70
    11
 71
     3
 72
    20
 73
    16
 74
     0
 42
0.0000000001
 43
0.0000000001
 40
0.0
 40
0.0
 40
0.0
 40
0.0
 40
0.2
 40
0.2
 40
0.2
 40
0.2
 40
0.4
 40
0.4
 40
0.4
 40
0.4
 40
0.6
 40
0.6
 40
0.6
 40
0.6
 40
1.0
 40
1.0
 40
1.0
 40
1.0
 10
-2.01531
 20
2.02027
 30
0.0
 10
-2.01531
 20
2.02027
 30
0.0
 10
-2.21519
 20
2.01329
 30
0.0
 10
-2.21519
 20
2.01329
 30
0.0
 10
-2.21519
 20
2.01329
 30
0.0
 10
-2.21519
 20
2.01329
 30
0.0
 10
-2.14135
 20
-0.10101
 30
0.0
 10
-2.14135
 20
-0.10101
 30
0.0
 10
-2.14135
 20
-0.10101
 30
0.0
 10
-2.14135
 20
-0.10101
 30
0.0
 10
-1.94147
 20
-0.09403
 30
0.0
 10
-1.94147
 20
-0.09403
 30
0.0
 10
-1.94147
 20
-0.09403
 30
0.0
 10
-1.94147
 20
-0.09403
 30
0.0
 10
-2.01531
 20
2.02027
 30
0.0
 10
-2.01531
 20
2.02027
 30
0.0
  0
SPLINE
  5
55
330
1F
100
AcDbEntity
  8
Livello 1
 62
   250
370
    20
100
AcDbSpline
210
0.0
220
0.0
230
1.0
 70
    11
 71
     3
 72
    20
 73
    16
 74
     0
 42
0.0000000001
 43
0.0000000001
 40
0.0
 40
0.0
 40
0.0
 40
0.0
 40
0.2
 40
0.2
 40
0.2
 40
0.2
 40
0.4
 40
0.4
 40
0.4
 40
0.4
 40
0.6
 40
0.6
 40
0.6
 40
0.6
 40
1.0
 40
1.0
 40
1.0
 40
1.0
 10
-4.24714
 20
3.66393
 30
0.0
 10
-4.24714
 20
3.66393
 30
0.0
 10
-4.43269
 20
3.76145
 30
0.0
 10
-4.43269
 20
3.76145
 30
0.0
 10
-4.43269
 20
3.76145
 30
0.0
 10
-4.43269
 20
3.76145
 30
0.0
 10
-5.46418
 20
1.79874
 30
0.0
 10
-5.46418
 20
1.79874
 30
0.0
 10
-5.46418
 20
1.79874
 30
0.0
 10
-5.46418
 20
1.79874
 30
0.0
 10
-5.27863
 20
1.70123
 30
0.0
 10
-5.27863
 20
1.70123
 30
0.0
 10
-5.27863
 20
1.70123
 30
0.0
 10
-5.27863
 20
1.70123
 30
0.0
 10
-4.24714
 20
3.66393
 30
0.0
 10
-4.24714
 20
3.66393
 30
0.0
  0
SPLINE
  5
56
330
1F
100
AcDbEntity
  8
Livello 1
 62
   250
370
    20
100
AcDbSpline
210
0.0
220
0.0
230
1.0
 70
    11
 71
     3
 72
    52
 73
    48
 74
     0
 42
0.0000000001
 43
0.0000000001
 40
0.0
 40
0.0
 40
0.0
 40
0.0
 40
0.0769230769230769
 40
0.0769230769230769
 40
0.0769230769230769
 40
0.0769230769230769
 40
0.1538461538461539
 40
0.1538461538461539
 40
0.1538461538461539
 40
0.1538461538461539
 40
0.2307692307692308
 40
0.2307692307692308
 40
0.2307692307692308
 40
0.2307692307692308
 40
0.3076923076923077
 40
0.3076923076923077
 40
0.3076923076923077
 40
0.3076923076923077
 40
0.3846153846153846
 40
0.3846153846153846
 40
0.3846153846153846
 40
0.3846153846153846
 40
0.4615384615384616
 40
0.4615384615384616
 40
0.4615384615384616
 40
0.4615384615384616
 40
0.5384615384615384
 40
0.5384615384615384
 40
0.5384615384615384
 40
0.5384615384615384
 40
0.6153846153846154
 40
0.6153846153846154
 40
0.6153846153846154
 40
0.6153846153846154
 40
0.6923076923076923
 40
0.6923076923076923
 40
0.6923076923076923
 40
0.6923076923076923
 40
0.7692307692307693
 40
0.7692307692307693
 40
0.7692307692307693
 40
0.7692307692307693
 40
0.8461538461538461
 40
0.8461538461538461
 40
0.8461538461538461
 40
0.8461538461538461
 40
1.0
 40
1.0
 40
1.0
 40
1.0
 10
13.58536
 20
6.04049
 30
0.0
 10
13.44994
 20
5.93382
 30
0.0
 10
12.13272
 20
3.87526
 30
0.0
 10
12.11428
 20
3.67062
 30
0.0
 10
12.11428
 20
3.67062
 30
0.0
 10
12.04995
 20
2.95668
 30
0.0
 10
12.33994
 20
1.89285
 30
0.0
 10
12.76621
 20
1.37616
 30
0.0
 10
12.76621
 20
1.37616
 30
0.0
 10
12.86243
 20
1.25953
 30
0.0
 10
13.02952
 20
1.21758
 30
0.0
 10
13.16415
 20
1.19836
 30
0.0
 10
13.16415
 20
1.19836
 30
0.0
 10
13.19825
 20
1.1921
 30
0.0
 10
13.21676
 20
1.23046
 30
0.0
 10
13.22366
 20
1.26611
 30
0.0
 10
13.22366
 20
1.26611
 30
0.0
 10
13.22366
 20
1.26611
 30
0.0
 10
13.31116
 20
2.43275
 30
0.0
 10
13.31116
 20
2.43275
 30
0.0
 10
13.31116
 20
2.43275
 30
0.0
 10
13.37773
 20
2.42775
 30
0.0
 10
13.44386
 20
2.4228
 30
0.0
 10
13.5106
 20
2.41779
 30
0.0
 10
13.5106
 20
2.41779
 30
0.0
 10
13.5106
 20
2.41779
 30
0.0
 10
13.42604
 20
1.29039
 30
0.0
 10
13.42604
 20
1.29039
 30
0.0
 10
13.42604
 20
1.29039
 30
0.0
 10
13.41907
 20
1.19744
 30
0.0
 10
13.45882
 20
1.14371
 30
0.0
 10
13.52484
 20
1.12394
 30
0.0
 10
13.52484
 20
1.12394
 30
0.0
 10
13.70962
 20
1.06179
 30
0.0
 10
14.08701
 20
1.24433
 30
0.0
 10
14.08701
 20
1.41002
 30
0.0
 10
14.08701
 20
1.41002
 30
0.0
 10
14.08701
 20
1.57354
 30
0.0
 10
14.04377
 20
2.56039
 30
0.0
 10
14.03621
 20
2.60382
 30
0.0
 10
14.03621
 20
2.60382
 30
0.0
 10
14.00412
 20
2.7881
 30
0.0
 10
14.04206
 20
4.42661
 30
0.0
 10
14.10395
 20
4.71202
 30
0.0
 10
14.10395
 20
4.71202
 30
0.0
 10
14.20157
 20
5.16218
 30
0.0
 10
14.22809
 20
6.02175
 30
0.0
 10
13.58536
 20
6.04049
 30
0.0
  0
SPLINE
  5
57
330
1F
100
AcDbEntity
  8
Livello 1
 62
   250
370
    20
100
AcDbSpline
210
0.0
220
0.0
230
1.0
 70
    11
 71
     3
 72
    20
 73
    16
 74
     0
 42
0.0000000001
 43
0.0000000001
 40
0.0
 40
0.0
 40
0.0
 40
0.0
 40
0.2
 40
0.2
 40
0.2
 40
0.2
 40
0.4
 40
0.4
 40
0.4
 40
0.4
 40
0.6
 40
0.6
 40
0.6
 40
0.6
 40
1.0
 40
1.0
 40
1.0
 40
1.0
 10
-2.0014
 20
-7.47276
 30
0.0
 10
-2.0014
 20
-7.47276
 30
0.0
 10
-1.865
 20
-7.32649
 30
0.0
 10
-1.865
 20
-7.32649
 30
0.0
 10
-1.865
 20
-7.32649
 30
0.0
 10
-1.865
 20
-7.32649
 30
0.0
 10
-3.51296
 20
-5.78974
 30
0.0
 10
-3.51296
 20
-5.78974
 30
0.0
 10
-3.51296
 20
-5.78974
 30
0.0
 10
-3.51296
 20
-5.78974
 30
0.0
 10
-3.64936
 20
-5.93601
 30
0.0
 10
-3.64936
 20
-5.93601
 30
0.0
 10
-3.64936
 20
-5.93601
 30
0.0
 10
-3.64936
 20
-5.93601
 30
0.0
 10
-2.0014
 20
-7.47276
 30
0.0
 10
-2.0014
 20
-7.47276
 30
0.0
  0
SPLINE
  5
58
330
1F
100
AcDbEntity
  8
Livello 1
 62
   250
370
    20
100
AcDbSpline
210
0.0
220
0.0
230
1.0
 70
    11
 71
     3
 72
    60
 73
    56
 74
     0
 42
0.0000000001
 43
0.0000000001
 40
0.0
 40
0.0
 40
0.0
 40
0.0
 40
0.0666666666666667
 40
0.0666666666666667
 40
0.0666666666666667
 40
0.0666666666666667
 40
0.1333333333333333
 40
0.1333333333333333
 40
0.1333333333333333
 40
0.1333333333333333
 40
0.2
 40
0.2
 40
0.2
 40
0.2
 40
0.2666666666666667
 40
0.2666666666666667
 40
0.2666666666666667
 40
0.2666666666666667
 40
0.3333333333333333
 40
0.3333333333333333
 40
0.3333333333333333
 40
0.3333333333333333
 40
0.4
 40
0.4
 40
0.4
 40
0.4
 40
0.4666666666666667
 40
0.4666666666666667
 40
0.4666666666666667
 40
0.4666666666666667
 40
0.5333333333333333
 40
0.5333333333333333
 40
0.5333333333333333
 40
0.5333333333333333
 40
0.6
 40
0.6
 40
0.6
 40
0.6
 40
0.6666666666666666
 40
0.6666666666666666
 40
0.6666666666666666
 40
0.6666666666666666
 40
0.7333333333333333
 40
0.7333333333333333
 40
0.7333333333333333
 40
0.7333333333333333
 40
0.8
 40
0.8
 40
0.8
 40
0.8
 40
0.8666666666666667
 40
0.8666666666666667
 40
0.8666666666666667
 40
0.8666666666666667
 40
1.0
 40
1.0
 40
1.0
 40
1.0
 10
9.39648
 20
8.23415
 30
0.0
 10
8.90943
 20
8.23002
 30
0.0
 10
9.08728
 20
7.82524
 30
0.0
 10
9.20175
 20
7.45522
 30
0.0
 10
9.20175
 20
7.45522
 30
0.0
 10
9.44479
 20
6.66966
 30
0.0
 10
9.34399
 20
7.16945
 30
0.0
 10
9.47268
 20
6.34609
 30
0.0
 10
9.47268
 20
6.34609
 30
0.0
 10
9.60495
 20
5.49979
 30
0.0
 10
9.17389
 20
4.54444
 30
0.0
 10
8.68528
 20
3.90769
 30
0.0
 10
8.68528
 20
3.90769
 30
0.0
 10
8.65357
 20
3.86636
 30
0.0
 10
8.61408
 20
3.81178
 30
0.0
 10
8.64769
 20
3.76866
 30
0.0
 10
8.64769
 20
3.76866
 30
0.0
 10
8.74876
 20
3.64149
 30
0.0
 10
9.03124
 20
3.4855
 30
0.0
 10
9.04966
 20
3.51085
 30
0.0
 10
9.04966
 20
3.51085
 30
0.0
 10
9.22037
 20
3.7457
 30
0.0
 10
9.39107
 20
3.98054
 30
0.0
 10
9.56178
 20
4.21539
 30
0.0
 10
9.56178
 20
4.21539
 30
0.0
 10
9.61571
 20
4.17619
 30
0.0
 10
9.66963
 20
4.137
 30
0.0
 10
9.72356
 20
4.0978
 30
0.0
 10
9.72356
 20
4.0978
 30
0.0
 10
9.54742
 20
3.84838
 30
0.0
 10
9.37128
 20
3.59897
 30
0.0
 10
9.19514
 20
3.34955
 30
0.0
 10
9.19514
 20
3.34955
 30
0.0
 10
9.08787
 20
3.20125
 30
0.0
 10
9.35711
 20
3.05105
 30
0.0
 10
9.81981
 20
3.23603
 30
0.0
 10
9.81981
 20
3.23603
 30
0.0
 10
11.08851
 20
3.74325
 30
0.0
 10
12.40027
 20
5.16518
 30
0.0
 10
13.15568
 20
6.28682
 30
0.0
 10
13.15568
 20
6.28682
 30
0.0
 10
13.5503
 20
6.87275
 30
0.0
 10
13.64744
 20
7.49345
 30
0.0
 10
14.03621
 20
7.93782
 30
0.0
 10
14.03621
 20
7.93782
 30
0.0
 10
14.15879
 20
8.07793
 30
0.0
 10
14.17807
 20
8.12049
 30
0.0
 10
14.21071
 20
8.16414
 30
0.0
 10
14.21071
 20
8.16414
 30
0.0
 10
14.27927
 20
8.26412
 30
0.0
 10
14.25131
 20
8.28966
 30
0.0
 10
14.12495
 20
8.29111
 30
0.0
 10
14.12495
 20
8.29111
 30
0.0
 10
14.12495
 20
8.29111
 30
0.0
 10
9.39648
 20
8.23415
 30
0.0
 10
9.39648
 20
8.23415
 30
0.0
  0
SPLINE
  5
59
330
1F
100
AcDbEntity
  8
Livello 1
 62
   250
370
    20
100
AcDbSpline
210
0.0
220
0.0
230
1.0
 70
    11
 71
     3
 72
    52
 73
    48
 74
     0
 42
0.0000000001
 43
0.0000000001
 40
0.0
 40
0.0
 40
0.0
 40
0.0
 40
0.0769230769230769
 40
0.0769230769230769
 40
0.0769230769230769
 40
0.0769230769230769
 40
0.1538461538461539
 40
0.1538461538461539
 40
0.1538461538461539
 40
0.1538461538461539
 40
0.2307692307692308
 40
0.2307692307692308
 40
0.2307692307692308
 40
0.2307692307692308
 40
0.3076923076923077
 40
0.3076923076923077
 40
0.3076923076923077
 40
0.3076923076923077
 40
0.3846153846153846
 40
0.3846153846153846
 40
0.3846153846153846
 40
0.3846153846153846
 40
0.4615384615384616
 40
0.4615384615384616
 40
0.4615384615384616
 40
0.4615384615384616
 40
0.5384615384615384
 40
0.5384615384615384
 40
0.5384615384615384
 40
0.5384615384615384
 40
0.6153846153846154
 40
0.6153846153846154
 40
0.6153846153846154
 40
0.6153846153846154
 40
0.6923076923076923
 40
0.6923076923076923
 40
0.6923076923076923
 40
0.6923076923076923
 40
0.7692307692307693
 40
0.7692307692307693
 40
0.7692307692307693
 40
0.7692307692307693
 40
0.8461538461538461
 40
0.8461538461538461
 40
0.8461538461538461
 40
0.8461538461538461
 40
1.0
 40
1.0
 40
1.0
 40
1.0
 10
9.33721
 20
-0.66431
 30
0.0
 10
9.2876
 20
-0.6719
 30
0.0
 10
8.99102
 20
-0.69163
 30
0.0
 10
8.9631
 20
-0.7898
 30
0.0
 10
8.9631
 20
-0.7898
 30
0.0
 10
8.9631
 20
-0.7898
 30
0.0
 10
9.81864
 20
-1.59506
 30
0.0
 10
9.81864
 20
-1.59506
 30
0.0
 10
9.81864
 20
-1.59506
 30
0.0
 10
9.81864
 20
-1.59506
 30
0.0
 10
9.68253
 20
-1.7416
 30
0.0
 10
9.68253
 20
-1.7416
 30
0.0
 10
9.68253
 20
-1.7416
 30
0.0
 10
9.40479
 20
-1.48366
 30
0.0
 10
9.12596
 20
-1.22466
 30
0.0
 10
8.84736
 20
-0.96591
 30
0.0
 10
8.84736
 20
-0.96591
 30
0.0
 10
8.82924
 20
-0.95844
 30
0.0
 10
8.80189
 20
-0.94891
 30
0.0
 10
8.78444
 20
-0.95978
 30
0.0
 10
8.78444
 20
-0.95978
 30
0.0
 10
8.70933
 20
-0.99687
 30
0.0
 10
8.63263
 20
-1.09587
 30
0.0
 10
8.55828
 20
-1.34164
 30
0.0
 10
8.55828
 20
-1.34164
 30
0.0
 10
8.46177
 20
-1.66069
 30
0.0
 10
8.98412
 20
-2.03514
 30
0.0
 10
9.20175
 20
-2.20524
 30
0.0
 10
9.20175
 20
-2.20524
 30
0.0
 10
9.49699
 20
-2.43155
 30
0.0
 10
10.25016
 20
-2.99018
 30
0.0
 10
10.46328
 20
-3.25511
 30
0.0
 10
10.46328
 20
-3.25511
 30
0.0
 10
10.62513
 20
-3.45631
 30
0.0
 10
10.99721
 20
-3.45645
 30
0.0
 10
11.21681
 20
-3.43291
 30
0.0
 10
11.21681
 20
-3.43291
 30
0.0
 10
11.46594
 20
-3.40621
 30
0.0
 10
12.06892
 20
-3.29907
 30
0.0
 10
11.76715
 20
-2.93337
 30
0.0
 10
11.76715
 20
-2.93337
 30
0.0
 10
10.88866
 20
-1.86877
 30
0.0
 10
11.02498
 20
-1.49575
 30
0.0
 10
10.75115
 20
-1.16384
 30
0.0
 10
10.75115
 20
-1.16384
 30
0.0
 10
10.34678
 20
-0.6737
 30
0.0
 10
9.83616
 20
-0.66431
 30
0.0
 10
9.33721
 20
-0.66431
 30
0.0
  0
SPLINE
  5
5A
330
1F
100
AcDbEntity
  8
Livello 1
 62
   250
370
    20
100
AcDbSpline
210
0.0
220
0.0
230
1.0
 70
    11
 71
     3
 72
    20
 73
    16
 74
     0
 42
0.0000000001
 43
0.0000000001
 40
0.0
 40
0.0
 40
0.0
 40
0.0
 40
0.2
 40
0.2
 40
0.2
 40
0.2
 40
0.4
 40
0.4
 40
0.4
 40
0.4
 40
0.6
 40
0.6
 40
0.6
 40
0.6
 40
1.0
 40
1.0
 40
1.0
 40
1.0
 10
1.67301
 20
5.46987
 30
0.0
 10
1.67301
 20
5.46987
 30
0.0
 10
1.47756
 20
5.5123
 30
0.0
 10
1.47756
 20
5.5123
 30
0.0
 10
1.47756
 20
5.5123
 30
0.0
 10
1.47756
 20
5.5123
 30
0.0
 10
1.88495
 20
7.38895
 30
0.0
 10
1.88495
 20
7.38895
 30
0.0
 10
1.88495
 20
7.38895
 30
0.0
 10
1.88495
 20
7.38895
 30
0.0
 10
2.0804
 20
7.34652
 30
0.0
 10
2.0804
 20
7.34652
 30
0.0
 10
2.0804
 20
7.34652
 30
0.0
 10
2.0804
 20
7.34652
 30
0.0
 10
1.67301
 20
5.46987
 30
0.0
 10
1.67301
 20
5.46987
 30
0.0
  0
SPLINE
  5
5B
330
1F
100
AcDbEntity
  8
Livello 1
 62
   250
370
    20
100
AcDbSpline
210
0.0
220
0.0
230
1.0
 70
    11
 71
     3
 72
    20
 73
    16
 74
     0
 42
0.0000000001
 43
0.0000000001
 40
0.0
 40
0.0
 40
0.0
 40
0.0
 40
0.2
 40
0.2
 40
0.2
 40
0.2
 40
0.4
 40
0.4
 40
0.4
 40
0.4
 40
0.6
 40
0.6
 40
0.6
 40
0.6
 40
1.0
 40
1.0
 40
1.0
 40
1.0
 10
10.80452
 20
5.49993
 30
0.0
 10
10.80452
 20
5.49993
 30
0.0
 10
10.60907
 20
5.54236
 30
0.0
 10
10.60907
 20
5.54236
 30
0.0
 10
10.60907
 20
5.54236
 30
0.0
 10
10.60907
 20
5.54236
 30
0.0
 10
11.01646
 20
7.41901
 30
0.0
 10
11.01646
 20
7.41901
 30
0.0
 10
11.01646
 20
7.41901
 30
0.0
 10
11.01646
 20
7.41901
 30
0.0
 10
11.21191
 20
7.37658
 30
0.0
 10
11.21191
 20
7.37658
 30
0.0
 10
11.21191
 20
7.37658
 30
0.0
 10
11.21191
 20
7.37658
 30
0.0
 10
10.80452
 20
5.49993
 30
0.0
 10
10.80452
 20
5.49993
 30
0.0
  0
SPLINE
  5
5C
330
1F
100
AcDbEntity
  8
Livello 1
 62
   250
370
    20
100
AcDbSpline
210
0.0
220
0.0
230
1.0
 70
    11
 71
     3
 72
    20
 73
    16
 74
     0
 42
0.0000000001
 43
0.0000000001
 40
0.0
 40
0.0
 40
0.0
 40
0.0
 40
0.2
 40
0.2
 40
0.2
 40
0.2
 40
0.4
 40
0.4
 40
0.4
 40
0.4
 40
0.6
 40
0.6
 40
0.6
 40
0.6
 40
1.0
 40
1.0
 40
1.0
 40
1.0
 10
5.99842
 20
-6.17193
 30
0.0
 10
5.99842
 20
-6.17193
 30
0.0
 10
5.8084
 20
-6.10956
 30
0.0
 10
5.8084
 20
-6.10956
 30
0.0
 10
5.8084
 20
-6.10956
 30
0.0
 10
5.8084
 20
-6.10956
 30
0.0
 10
6.40726
 20
-4.28497
 30
0.0
 10
6.40726
 20
-4.28497
 30
0.0
 10
6.40726
 20
-4.28497
 30
0.0
 10
6.40726
 20
-4.28497
 30
0.0
 10
6.59728
 20
-4.34733
 30
0.0
 10
6.59728
 20
-4.34733
 30
0.0
 10
6.59728
 20
-4.34733
 30
0.0
 10
6.59728
 20
-4.34733
 30
0.0
 10
5.99842
 20
-6.17193
 30
0.0
 10
5.99842
 20
-6.17193
 30
0.0
  0
SPLINE
  5
5D
330
1F
100
AcDbEntity
  8
Livello 1
 62
   250
370
    20
100
AcDbSpline
210
0.0
220
0.0
230
1.0
 70
    11
 71
     3
 72
    20
 73
    16
 74
     0
 42
0.0000000001
 43
0.0000000001
 40
0.0
 40
0.0
 40
0.0
 40
0.0
 40
0.2
 40
0.2
 40
0.2
 40
0.2
 40
0.4
 40
0.4
 40
0.4
 40
0.4
 40
0.6
 40
0.6
 40
0.6
 40
0.6
 40
1.0
 40
1.0
 40
1.0
 40
1.0
 10
1.90102
 20
-7.74992
 30
0.0
 10
1.90102
 20
-7.74992
 30
0.0
 10
2.09636
 20
-7.70699
 30
0.0
 10
2.09636
 20
-7.70699
 30
0.0
 10
2.09636
 20
-7.70699
 30
0.0
 10
2.09636
 20
-7.70699
 30
0.0
 10
1.68424
 20
-5.83138
 30
0.0
 10
1.68424
 20
-5.83138
 30
0.0
 10
1.68424
 20
-5.83138
 30
0.0
 10
1.68424
 20
-5.83138
 30
0.0
 10
1.4889
 20
-5.8743
 30
0.0
 10
1.4889
 20
-5.8743
 30
0.0
 10
1.4889
 20
-5.8743
 30
0.0
 10
1.4889
 20
-5.8743
 30
0.0
 10
1.90102
 20
-7.74992
 30
0.0
 10
1.90102
 20
-7.74992
 30
0.0
  0
SPLINE
  5
5E
330
1F
100
AcDbEntity
  8
Livello 1
 62
   250
370
    20
100
AcDbSpline
210
0.0
220
0.0
230
1.0
 70
    11
 71
     3
 72
    20
 73
    16
 74
     0
 42
0.0000000001
 43
0.0000000001
 40
0.0
 40
0.0
 40
0.0
 40
0.0
 40
0.2
 40
0.2
 40
0.2
 40
0.2
 40
0.4
 40
0.4
 40
0.4
 40
0.4
 40
0.6
 40
0.6
 40
0.6
 40
0.6
 40
1.0
 40
1.0
 40
1.0
 40
1.0
 10
10.9617
 20
-7.82023
 30
0.0
 10
10.9617
 20
-7.82023
 30
0.0
 10
11.15704
 20
-7.7773
 30
0.0
 10
11.15704
 20
-7.7773
 30
0.0
 10
11.15704
 20
-7.7773
 30
0.0
 10
11.15704
 20
-7.7773
 30
0.0
 10
10.74492
 20
-5.90169
 30
0.0
 10
10.74492
 20
-5.90169
 30
0.0
 10
10.74492
 20
-5.90169
 30
0.0
 10
10.74492
 20
-5.90169
 30
0.0
 10
10.54958
 20
-5.94461
 30
0.0
 10
10.54958
 20
-5.94461
 30
0.0
 10
10.54958
 20
-5.94461
 30
0.0
 10
10.54958
 20
-5.94461
 30
0.0
 10
10.9617
 20
-7.82023
 30
0.0
 10
10.9617
 20
-7.82023
 30
0.0
  0
SPLINE
  5
5F
330
1F
100
AcDbEntity
  8
Livello 1
 62
   250
370
    20
100
AcDbSpline
210
0.0
220
0.0
230
1.0
 70
    11
 71
     3
 72
    80
 73
    76
 74
     0
 42
0.0000000001
 43
0.0000000001
 40
0.0
 40
0.0
 40
0.0
 40
0.0
 40
0.05
 40
0.05
 40
0.05
 40
0.05
 40
0.1
 40
0.1
 40
0.1
 40
0.1
 40
0.15
 40
0.15
 40
0.15
 40
0.15
 40
0.2
 40
0.2
 40
0.2
 40
0.2
 40
0.25
 40
0.25
 40
0.25
 40
0.25
 40
0.3
 40
0.3
 40
0.3
 40
0.3
 40
0.35
 40
0.35
 40
0.35
 40
0.35
 40
0.4
 40
0.4
 40
0.4
 40
0.4
 40
0.45
 40
0.45
 40
0.45
 40
0.45
 40
0.5
 40
0.5
 40
0.5
 40
0.5
 40
0.55
 40
0.55
 40
0.55
 40
0.55
 40
0.6
 40
0.6
 40
0.6
 40
0.6
 40
0.65
 40
0.65
 40
0.65
 40
0.65
 40
0.7
 40
0.7
 40
0.7
 40
0.7
 40
0.75
 40
0.75
 40
0.75
 40
0.75
 40
0.8
 40
0.8
 40
0.8
 40
0.8
 40
0.85
 40
0.85
 40
0.85
 40
0.85
 40
0.9
 40
0.9
 40
0.9
 40
0.9
 40
1.0
 40
1.0
 40
1.0
 40
1.0
 10
8.4755
 20
7.98837
 30
0.0
 10
8.45529
 20
8.03874
 30
0.0
 10
7.72947
 20
8.39544
 30
0.0
 10
7.17822
 20
8.29342
 30
0.0
 10
7.17822
 20
8.29342
 30
0.0
 10
6.50074
 20
8.16805
 30
0.0
 10
5.97877
 20
7.66823
 30
0.0
 10
4.90915
 20
7.48909
 30
0.0
 10
4.90915
 20
7.48909
 30
0.0
 10
4.20089
 20
7.35028
 30
0.0
 10
4.81207
 20
6.66993
 30
0.0
 10
4.21488
 20
6.28682
 30
0.0
 10
4.21488
 20
6.28682
 30
0.0
 10
4.03648
 20
6.15341
 30
0.0
 10
3.91353
 20
5.77699
 30
0.0
 10
4.05373
 20
5.63675
 30
0.0
 10
4.05373
 20
5.63675
 30
0.0
 10
4.05373
 20
5.63675
 30
0.0
 10
4.66514
 20
5.803
 30
0.0
 10
4.66514
 20
5.803
 30
0.0
 10
4.66514
 20
5.803
 30
0.0
 10
4.68504
 20
5.72986
 30
0.0
 10
4.69824
 20
5.68126
 30
0.0
 10
4.71762
 20
5.61001
 30
0.0
 10
4.71762
 20
5.61001
 30
0.0
 10
4.71762
 20
5.61001
 30
0.0
 10
4.08368
 20
5.43764
 30
0.0
 10
4.08368
 20
5.43764
 30
0.0
 10
4.08368
 20
5.43764
 30
0.0
 10
4.09144
 20
5.08145
 30
0.0
 10
4.71529
 20
5.0135
 30
0.0
 10
4.92608
 20
4.77975
 30
0.0
 10
4.92608
 20
4.77975
 30
0.0
 10
5.21021
 20
4.43802
 30
0.0
 10
5.2824
 20
4.13957
 30
0.0
 10
5.90822
 20
4.43262
 30
0.0
 10
5.90822
 20
4.43262
 30
0.0
 10
6.71795
 20
4.86765
 30
0.0
 10
8.2376
 20
4.33936
 30
0.0
 10
8.98161
 20
5.57562
 30
0.0
 10
8.98161
 20
5.57562
 30
0.0
 10
9.00178
 20
5.61623
 30
0.0
 10
9.08536
 20
5.77734
 30
0.0
 10
9.08536
 20
5.8258
 30
0.0
 10
9.08536
 20
5.8258
 30
0.0
 10
9.08536
 20
5.8258
 30
0.0
 10
7.19466
 20
5.28227
 30
0.0
 10
7.19466
 20
5.28227
 30
0.0
 10
7.19466
 20
5.28227
 30
0.0
 10
7.17575
 20
5.34804
 30
0.0
 10
7.15783
 20
5.41043
 30
0.0
 10
7.13941
 20
5.47449
 30
0.0
 10
7.13941
 20
5.47449
 30
0.0
 10
7.33964
 20
5.53207
 30
0.0
 10
9.03665
 20
6.01876
 30
0.0
 10
9.0376
 20
6.02016
 30
0.0
 10
9.0376
 20
6.02016
 30
0.0
 10
9.02892
 20
6.03884
 30
0.0
 10
8.19285
 20
6.76469
 30
0.0
 10
8.49901
 20
7.70922
 30
0.0
 10
8.49901
 20
7.70922
 30
0.0
 10
8.51247
 20
7.74002
 30
0.0
 10
8.51705
 20
7.76847
 30
0.0
 10
8.51236
 20
7.79087
 30
0.0
 10
8.51236
 20
7.79087
 30
0.0
 10
8.51236
 20
7.79087
 30
0.0
 10
6.63601
 20
7.25147
 30
0.0
 10
6.63601
 20
7.25147
 30
0.0
 10
6.63601
 20
7.25147
 30
0.0
 10
6.63601
 20
7.25147
 30
0.0
 10
6.58076
 20
7.44369
 30
0.0
 10
6.58076
 20
7.44369
 30
0.0
 10
6.58076
 20
7.44369
 30
0.0
 10
6.58076
 20
7.44369
 30
0.0
 10
8.4755
 20
7.98837
 30
0.0
 10
8.4755
 20
7.98837
 30
0.0
  0
SPLINE
  5
60
330
1F
100
AcDbEntity
  8
Livello 1
 62
   250
370
    20
100
AcDbSpline
210
0.0
220
0.0
230
1.0
 70
    11
 71
     3
 72
   148
 73
   144
 74
     0
 42
0.0000000001
 43
0.0000000001
 40
0.0
 40
0.0
 40
0.0
 40
0.0
 40
0.027027027027027
 40
0.027027027027027
 40
0.027027027027027
 40
0.027027027027027
 40
0.0540540540540541
 40
0.0540540540540541
 40
0.0540540540540541
 40
0.0540540540540541
 40
0.0810810810810811
 40
0.0810810810810811
 40
0.0810810810810811
 40
0.0810810810810811
 40
0.1081081081081081
 40
0.1081081081081081
 40
0.1081081081081081
 40
0.1081081081081081
 40
0.1351351351351351
 40
0.1351351351351351
 40
0.1351351351351351
 40
0.1351351351351351
 40
0.1621621621621622
 40
0.1621621621621622
 40
0.1621621621621622
 40
0.1621621621621622
 40
0.1891891891891892
 40
0.1891891891891892
 40
0.1891891891891892
 40
0.1891891891891892
 40
0.2162162162162162
 40
0.2162162162162162
 40
0.2162162162162162
 40
0.2162162162162162
 40
0.2432432432432433
 40
0.2432432432432433
 40
0.2432432432432433
 40
0.2432432432432433
 40
0.2702702702702703
 40
0.2702702702702703
 40
0.2702702702702703
 40
0.2702702702702703
 40
0.2972972972972973
 40
0.2972972972972973
 40
0.2972972972972973
 40
0.2972972972972973
 40
0.3243243243243243
 40
0.3243243243243243
 40
0.3243243243243243
 40
0.3243243243243243
 40
0.3513513513513514
 40
0.3513513513513514
 40
0.3513513513513514
 40
0.3513513513513514
 40
0.3783783783783784
 40
0.3783783783783784
 40
0.3783783783783784
 40
0.3783783783783784
 40
0.4054054054054054
 40
0.4054054054054054
 40
0.4054054054054054
 40
0.4054054054054054
 40
0.4324324324324325
 40
0.4324324324324325
 40
0.4324324324324325
 40
0.4324324324324325
 40
0.4594594594594595
 40
0.4594594594594595
 40
0.4594594594594595
 40
0.4594594594594595
 40
0.4864864864864865
 40
0.4864864864864865
 40
0.4864864864864865
 40
0.4864864864864865
 40
0.5135135135135135
 40
0.5135135135135135
 40
0.5135135135135135
 40
0.5135135135135135
 40
0.5405405405405406
 40
0.5405405405405406
 40
0.5405405405405406
 40
0.5405405405405406
 40
0.5675675675675675
 40
0.5675675675675675
 40
0.5675675675675675
 40
0.5675675675675675
 40
0.5945945945945946
 40
0.5945945945945946
 40
0.5945945945945946
 40
0.5945945945945946
 40
0.6216216216216216
 40
0.6216216216216216
 40
0.6216216216216216
 40
0.6216216216216216
 40
0.6486486486486487
 40
0.6486486486486487
 40
0.6486486486486487
 40
0.6486486486486487
 40
0.6756756756756757
 40
0.6756756756756757
 40
0.6756756756756757
 40
0.6756756756756757
 40
0.7027027027027027
 40
0.7027027027027027
 40
0.7027027027027027
 40
0.7027027027027027
 40
0.7297297297297297
 40
0.7297297297297297
 40
0.7297297297297297
 40
0.7297297297297297
 40
0.7567567567567568
 40
0.7567567567567568
 40
0.7567567567567568
 40
0.7567567567567568
 40
0.7837837837837838
 40
0.7837837837837838
 40
0.7837837837837838
 40
0.7837837837837838
 40
0.8108108108108109
 40
0.8108108108108109
 40
0.8108108108108109
 40
0.8108108108108109
 40
0.8378378378378378
 40
0.8378378378378378
 40
0.8378378378378378
 40
0.8378378378378378
 40
0.8648648648648649
 40
0.8648648648648649
 40
0.8648648648648649
 40
0.8648648648648649
 40
0.8918918918918919
 40
0.8918918918918919
 40
0.8918918918918919
 40
0.8918918918918919
 40
0.918918918918919
 40
0.918918918918919
 40
0.918918918918919
 40
0.918918918918919
 40
0.9459459459459459
 40
0.9459459459459459
 40
0.9459459459459459
 40
0.9459459459459459
 40
1.0
 40
1.0
 40
1.0
 40
1.0
 10
13.54515
 20
0.37709
 30
0.0
 10
13.47732
 20
0.32236
 30
0.0
 10
13.19453
 20
0.09292
 30
0.0
 10
13.16415
 20
0.04689
 30
0.0
 10
13.16415
 20
0.04689
 30
0.0
 10
13.13235
 20
-0.00127
 30
0.0
 10
13.12672
 20
-0.09239
 30
0.0
 10
13.13875
 20
-0.14784
 30
0.0
 10
13.13875
 20
-0.14784
 30
0.0
 10
13.16892
 20
-0.3727
 30
0.0
 10
13.23244
 20
-0.65702
 30
0.0
 10
13.27421
 20
-0.88444
 30
0.0
 10
13.27421
 20
-0.88444
 30
0.0
 10
13.29614
 20
-1.03112
 30
0.0
 10
13.25202
 20
-1.2858
 30
0.0
 10
13.11335
 20
-1.26544
 30
0.0
 10
13.11335
 20
-1.26544
 30
0.0
 10
13.11335
 20
-1.26544
 30
0.0
 10
12.30055
 20
-1.12151
 30
0.0
 10
12.30055
 20
-1.12151
 30
0.0
 10
12.30055
 20
-1.12151
 30
0.0
 10
12.28917
 20
-1.11953
 30
0.0
 10
12.21768
 20
-1.09482
 30
0.0
 10
12.18201
 20
-1.13844
 30
0.0
 10
12.18201
 20
-1.13844
 30
0.0
 10
12.15389
 20
-1.17285
 30
0.0
 10
12.07432
 20
-1.5882
 30
0.0
 10
12.08888
 20
-1.63798
 30
0.0
 10
12.08888
 20
-1.63798
 30
0.0
 10
12.088
 20
-1.70068
 30
0.0
 10
12.1907
 20
-1.72169
 30
0.0
 10
12.21097
 20
-1.72489
 30
0.0
 10
12.21097
 20
-1.72489
 30
0.0
 10
12.51197
 20
-1.78416
 30
0.0
 10
12.81297
 20
-1.84342
 30
0.0
 10
13.11397
 20
-1.90269
 30
0.0
 10
13.11397
 20
-1.90269
 30
0.0
 10
13.101
 20
-1.96858
 30
0.0
 10
13.08776
 20
-2.03574
 30
0.0
 10
13.07533
 20
-2.09892
 30
0.0
 10
13.07533
 20
-2.09892
 30
0.0
 10
12.75791
 20
-2.03642
 30
0.0
 10
12.4405
 20
-1.97392
 30
0.0
 10
12.12308
 20
-1.91142
 30
0.0
 10
12.12308
 20
-1.91142
 30
0.0
 10
12.12264
 20
-1.91134
 30
0.0
 10
12.03747
 20
-1.89457
 30
0.0
 10
12.02115
 20
-1.95124
 30
0.0
 10
12.02115
 20
-1.95124
 30
0.0
 10
11.98884
 20
-2.03179
 30
0.0
 10
11.94579
 20
-2.26006
 30
0.0
 10
11.93648
 20
-2.35764
 30
0.0
 10
11.93648
 20
-2.35764
 30
0.0
 10
11.93206
 20
-2.383
 30
0.0
 10
11.92342
 20
-2.43194
 30
0.0
 10
11.96188
 20
-2.46771
 30
0.0
 10
11.96188
 20
-2.46771
 30
0.0
 10
12.02135
 20
-2.52429
 30
0.0
 10
12.59857
 20
-2.60181
 30
0.0
 10
12.83395
 20
-2.66244
 30
0.0
 10
12.83395
 20
-2.66244
 30
0.0
 10
12.93263
 20
-2.68973
 30
0.0
 10
13.01045
 20
-2.69004
 30
0.0
 10
13.01175
 20
-2.79791
 30
0.0
 10
13.01175
 20
-2.79791
 30
0.0
 10
13.01175
 20
-3.70957
 30
0.0
 10
12.96674
 20
-4.67154
 30
0.0
 10
13.07101
 20
-5.57497
 30
0.0
 10
13.07101
 20
-5.57497
 30
0.0
 10
13.10202
 20
-5.86582
 30
0.0
 10
13.36885
 20
-6.7089
 30
0.0
 10
13.3864
 20
-6.96642
 30
0.0
 10
13.3864
 20
-6.96642
 30
0.0
 10
13.56689
 20
-7.03274
 30
0.0
 10
13.73094
 20
-7.04577
 30
0.0
 10
13.91768
 20
-7.09051
 30
0.0
 10
13.91768
 20
-7.09051
 30
0.0
 10
14.15076
 20
-7.12734
 30
0.0
 10
14.18015
 20
-7.05646
 30
0.0
 10
14.18015
 20
-6.86191
 30
0.0
 10
14.18015
 20
-6.86191
 30
0.0
 10
14.1495
 20
-6.76738
 30
0.0
 10
14.10395
 20
-6.42032
 30
0.0
 10
14.10395
 20
-6.31501
 30
0.0
 10
14.10395
 20
-6.31501
 30
0.0
 10
14.10395
 20
-6.31501
 30
0.0
 10
14.30661
 20
-6.25548
 30
0.0
 10
14.30661
 20
-6.25548
 30
0.0
 10
14.30661
 20
-6.25548
 30
0.0
 10
14.30661
 20
-6.25548
 30
0.0
 10
14.114
 20
-5.31886
 30
0.0
 10
14.114
 20
-5.31886
 30
0.0
 10
14.114
 20
-5.31886
 30
0.0
 10
14.114
 20
-5.31886
 30
0.0
 10
13.94519
 20
-5.32997
 30
0.0
 10
13.94519
 20
-5.32997
 30
0.0
 10
13.94519
 20
-5.32997
 30
0.0
 10
13.8631
 20
-5.19292
 30
0.0
 10
13.83014
 20
-4.92956
 30
0.0
 10
13.80761
 20
-4.76217
 30
0.0
 10
13.80761
 20
-4.76217
 30
0.0
 10
13.83933
 20
-4.58299
 30
0.0
 10
13.86275
 20
-4.02855
 30
0.0
 10
13.95001
 20
-3.9733
 30
0.0
 10
13.95001
 20
-3.9733
 30
0.0
 10
13.95001
 20
-3.9733
 30
0.0
 10
14.17566
 20
-3.98006
 30
0.0
 10
14.17566
 20
-3.98006
 30
0.0
 10
14.17566
 20
-3.98006
 30
0.0
 10
14.17566
 20
-3.98006
 30
0.0
 10
14.29154
 20
-2.85346
 30
0.0
 10
14.29154
 20
-2.85346
 30
0.0
 10
14.29154
 20
-2.85346
 30
0.0
 10
14.29154
 20
-2.85346
 30
0.0
 10
14.07855
 20
-2.78706
 30
0.0
 10
14.07855
 20
-2.78706
 30
0.0
 10
14.07855
 20
-2.78706
 30
0.0
 10
14.15263
 20
-2.38262
 30
0.0
 10
14.13834
 20
-1.948
 30
0.0
 10
14.04838
 20
-1.56336
 30
0.0
 10
14.04838
 20
-1.56336
 30
0.0
 10
14.04838
 20
-1.56336
 30
0.0
 10
14.27857
 20
-1.48928
 30
0.0
 10
14.27857
 20
-1.48928
 30
0.0
 10
14.27857
 20
-1.48928
 30
0.0
 10
14.27857
 20
-1.48928
 30
0.0
 10
14.09215
 20
-0.40292
 30
0.0
 10
14.09215
 20
-0.40292
 30
0.0
 10
14.09215
 20
-0.40292
 30
0.0
 10
14.09215
 20
-0.40292
 30
0.0
 10
13.91451
 20
-0.39166
 30
0.0
 10
13.91451
 20
-0.39166
 30
0.0
 10
13.91451
 20
-0.39166
 30
0.0
 10
13.81482
 20
-0.17402
 30
0.0
 10
13.8062
 20
0.2159
 30
0.0
 10
13.73988
 20
0.36016
 30
0.0
 10
13.73988
 20
0.36016
 30
0.0
 10
13.72776
 20
0.39213
 30
0.0
 10
13.70373
 20
0.43202
 30
0.0
 10
13.67903
 20
0.44217
 30
0.0
 10
13.67903
 20
0.44217
 30
0.0
 10
13.63085
 20
0.45044
 30
0.0
 10
13.62647
 20
0.43266
 30
0.0
 10
13.54515
 20
0.37709
 30
0.0
  0
SPLINE
  5
61
330
1F
100
AcDbEntity
  8
Livello 1
 62
   250
370
    20
100
AcDbSpline
210
0.0
220
0.0
230
1.0
 70
    11
 71
     3
 72
   104
 73
   100
 74
     0
 42
0.0000000001
 43
0.0000000001
 40
0.0
 40
0.0
 40
0.0
 40
0.0
 40
0.0384615384615385
 40
0.0384615384615385
 40
0.0384615384615385
 40
0.0384615384615385
 40
0.0769230769230769
 40
0.0769230769230769
 40
0.0769230769230769
 40
0.0769230769230769
 40
0.1153846153846154
 40
0.1153846153846154
 40
0.1153846153846154
 40
0.1153846153846154
 40
0.1538461538461539
 40
0.1538461538461539
 40
0.1538461538461539
 40
0.1538461538461539
 40
0.1923076923076923
 40
0.1923076923076923
 40
0.1923076923076923
 40
0.1923076923076923
 40
0.2307692307692308
 40
0.2307692307692308
 40
0.2307692307692308
 40
0.2307692307692308
 40
0.2692307692307692
 40
0.2692307692307692
 40
0.2692307692307692
 40
0.2692307692307692
 40
0.3076923076923077
 40
0.3076923076923077
 40
0.3076923076923077
 40
0.3076923076923077
 40
0.3461538461538461
 40
0.3461538461538461
 40
0.3461538461538461
 40
0.3461538461538461
 40
0.3846153846153846
 40
0.3846153846153846
 40
0.3846153846153846
 40
0.3846153846153846
 40
0.4230769230769231
 40
0.4230769230769231
 40
0.4230769230769231
 40
0.4230769230769231
 40
0.4615384615384616
 40
0.4615384615384616
 40
0.4615384615384616
 40
0.4615384615384616
 40
0.5
 40
0.5
 40
0.5
 40
0.5
 40
0.5384615384615384
 40
0.5384615384615384
 40
0.5384615384615384
 40
0.5384615384615384
 40
0.5769230769230769
 40
0.5769230769230769
 40
0.5769230769230769
 40
0.5769230769230769
 40
0.6153846153846154
 40
0.6153846153846154
 40
0.6153846153846154
 40
0.6153846153846154
 40
0.6538461538461539
 40
0.6538461538461539
 40
0.6538461538461539
 40
0.6538461538461539
 40
0.6923076923076923
 40
0.6923076923076923
 40
0.6923076923076923
 40
0.6923076923076923
 40
0.7307692307692307
 40
0.7307692307692307
 40
0.7307692307692307
 40
0.7307692307692307
 40
0.7692307692307693
 40
0.7692307692307693
 40
0.7692307692307693
 40
0.7692307692307693
 40
0.8076923076923077
 40
0.8076923076923077
 40
0.8076923076923077
 40
0.8076923076923077
 40
0.8461538461538461
 40
0.8461538461538461
 40
0.8461538461538461
 40
0.8461538461538461
 40
0.8846153846153846
 40
0.8846153846153846
 40
0.8846153846153846
 40
0.8846153846153846
 40
0.9230769230769231
 40
0.9230769230769231
 40
0.9230769230769231
 40
0.9230769230769231
 40
1.0
 40
1.0
 40
1.0
 40
1.0
 10
8.55458
 20
-8.68938
 30
0.0
 10
8.55458
 20
-8.16023
 30
0.0
 10
8.37024
 20
-8.3032
 30
0.0
 10
8.48208
 20
-7.25984
 30
0.0
 10
8.48208
 20
-7.25984
 30
0.0
 10
8.63634
 20
-5.82084
 30
0.0
 10
8.19176
 20
-3.88491
 30
0.0
 10
7.54228
 20
-2.62858
 30
0.0
 10
7.54228
 20
-2.62858
 30
0.0
 10
7.39267
 20
-2.33918
 30
0.0
 10
6.77203
 20
-1.31577
 30
0.0
 10
6.49242
 20
-1.26544
 30
0.0
 10
6.49242
 20
-1.26544
 30
0.0
 10
6.42637
 20
-1.25355
 30
0.0
 10
6.37369
 20
-1.2438
 30
0.0
 10
6.33348
 20
-1.24627
 30
0.0
 10
6.33348
 20
-1.24627
 30
0.0
 10
6.27053
 20
-1.24388
 30
0.0
 10
6.23527
 20
-1.24108
 30
0.0
 10
6.24214
 20
-1.32157
 30
0.0
 10
6.24214
 20
-1.32157
 30
0.0
 10
6.26278
 20
-1.59677
 30
0.0
 10
6.28343
 20
-1.8719
 30
0.0
 10
6.30401
 20
-2.14652
 30
0.0
 10
6.30401
 20
-2.14652
 30
0.0
 10
6.23977
 20
-2.15134
 30
0.0
 10
6.1719
 20
-2.15643
 30
0.0
 10
6.10457
 20
-2.16148
 30
0.0
 10
6.10457
 20
-2.16148
 30
0.0
 10
6.09736
 20
-2.06534
 30
0.0
 10
6.06485
 20
-1.63192
 30
0.0
 10
6.0586
 20
-1.54862
 30
0.0
 10
6.0586
 20
-1.54862
 30
0.0
 10
6.05612
 20
-1.5155
 30
0.0
 10
5.95952
 20
-1.49143
 30
0.0
 10
5.92367
 20
-1.4946
 30
0.0
 10
5.92367
 20
-1.4946
 30
0.0
 10
5.62796
 20
-1.51156
 30
0.0
 10
5.51688
 20
-1.535
 30
0.0
 10
5.39049
 20
-1.55209
 30
0.0
 10
5.39049
 20
-1.55209
 30
0.0
 10
5.30961
 20
-1.56806
 30
0.0
 10
5.26781
 20
-1.62168
 30
0.0
 10
5.23255
 20
-1.71156
 30
0.0
 10
5.23255
 20
-1.71156
 30
0.0
 10
5.17902
 20
-1.82796
 30
0.0
 10
5.16484
 20
-1.9983
 30
0.0
 10
5.06797
 20
-2.23911
 30
0.0
 10
5.06797
 20
-2.23911
 30
0.0
 10
4.84389
 20
-2.79613
 30
0.0
 10
5.34705
 20
-2.98367
 30
0.0
 10
4.66362
 20
-3.42444
 30
0.0
 10
4.66362
 20
-3.42444
 30
0.0
 10
3.76293
 20
-3.96164
 30
0.0
 10
5.06921
 20
-4.06765
 30
0.0
 10
3.68148
 20
-4.463
 30
0.0
 10
3.68148
 20
-4.463
 30
0.0
 10
3.0849
 20
-4.63296
 30
0.0
 10
2.46619
 20
-4.92572
 30
0.0
 10
3.19888
 20
-5.49031
 30
0.0
 10
3.19888
 20
-5.49031
 30
0.0
 10
3.37331
 20
-5.62473
 30
0.0
 10
3.59667
 20
-5.76144
 30
0.0
 10
3.83527
 20
-5.90438
 30
0.0
 10
3.83527
 20
-5.90438
 30
0.0
 10
3.83527
 20
-5.90438
 30
0.0
 10
5.65007
 20
-6.99167
 30
0.0
 10
5.65007
 20
-6.99167
 30
0.0
 10
5.65007
 20
-6.99167
 30
0.0
 10
5.61403
 20
-7.05182
 30
0.0
 10
5.58254
 20
-7.1044
 30
0.0
 10
5.54728
 20
-7.16323
 30
0.0
 10
5.54728
 20
-7.16323
 30
0.0
 10
5.54728
 20
-7.16323
 30
0.0
 10
5.5057
 20
-7.13832
 30
0.0
 10
5.5057
 20
-7.13832
 30
0.0
 10
5.5057
 20
-7.13832
 30
0.0
 10
5.5057
 20
-7.13832
 30
0.0
 10
4.76393
 20
-6.6939
 30
0.0
 10
4.76393
 20
-6.6939
 30
0.0
 10
4.76393
 20
-6.6939
 30
0.0
 10
4.76393
 20
-6.6939
 30
0.0
 10
4.4419
 20
-7.29026
 30
0.0
 10
4.4419
 20
-7.29026
 30
0.0
 10
4.4419
 20
-7.29026
 30
0.0
 10
4.4419
 20
-7.29026
 30
0.0
 10
5.99645
 20
-8.21763
 30
0.0
 10
5.99645
 20
-8.21763
 30
0.0
 10
5.99645
 20
-8.21763
 30
0.0
 10
5.99645
 20
-8.21763
 30
0.0
 10
6.48528
 20
-7.49466
 30
0.0
 10
6.48528
 20
-7.49466
 30
0.0
 10
6.48528
 20
-7.49466
 30
0.0
 10
6.48528
 20
-7.49466
 30
0.0
 10
8.42397
 20
-8.63942
 30
0.0
 10
8.42397
 20
-8.63942
 30
0.0
 10
8.42397
 20
-8.63942
 30
0.0
 10
8.46807
 20
-8.66577
 30
0.0
 10
8.55387
 20
-8.71114
 30
0.0
 10
8.55458
 20
-8.68938
 30
0.0
  0
SPLINE
  5
62
330
1F
100
AcDbEntity
  8
Livello 1
 62
   250
370
    20
100
AcDbSpline
210
0.0
220
0.0
230
1.0
 70
    11
 71
     3
 72
    68
 73
    64
 74
     0
 42
0.0000000001
 43
0.0000000001
 40
0.0
 40
0.0
 40
0.0
 40
0.0
 40
0.0588235294117647
 40
0.0588235294117647
 40
0.0588235294117647
 40
0.0588235294117647
 40
0.1176470588235294
 40
0.1176470588235294
 40
0.1176470588235294
 40
0.1176470588235294
 40
0.1764705882352941
 40
0.1764705882352941
 40
0.1764705882352941
 40
0.1764705882352941
 40
0.2352941176470588
 40
0.2352941176470588
 40
0.2352941176470588
 40
0.2352941176470588
 40
0.2941176470588235
 40
0.2941176470588235
 40
0.2941176470588235
 40
0.2941176470588235
 40
0.3529411764705883
 40
0.3529411764705883
 40
0.3529411764705883
 40
0.3529411764705883
 40
0.4117647058823529
 40
0.4117647058823529
 40
0.4117647058823529
 40
0.4117647058823529
 40
0.4705882352941176
 40
0.4705882352941176
 40
0.4705882352941176
 40
0.4705882352941176
 40
0.5294117647058824
 40
0.5294117647058824
 40
0.5294117647058824
 40
0.5294117647058824
 40
0.5882352941176471
 40
0.5882352941176471
 40
0.5882352941176471
 40
0.5882352941176471
 40
0.6470588235294118
 40
0.6470588235294118
 40
0.6470588235294118
 40
0.6470588235294118
 40
0.7058823529411765
 40
0.7058823529411765
 40
0.7058823529411765
 40
0.7058823529411765
 40
0.7647058823529411
 40
0.7647058823529411
 40
0.7647058823529411
 40
0.7647058823529411
 40
0.8235294117647058
 40
0.8235294117647058
 40
0.8235294117647058
 40
0.8235294117647058
 40
0.8823529411764706
 40
0.8823529411764706
 40
0.8823529411764706
 40
0.8823529411764706
 40
1.0
 40
1.0
 40
1.0
 40
1.0
 10
14.24841
 20
-8.64453
 30
0.0
 10
14.2656
 20
-8.65313
 30
0.0
 10
14.23042
 20
-8.66411
 30
0.0
 10
14.15602
 20
-8.66153
 30
0.0
 10
14.15602
 20
-8.66153
 30
0.0
 10
14.15602
 20
-8.66153
 30
0.0
 10
9.33655
 20
-8.64343
 30
0.0
 10
9.33655
 20
-8.64343
 30
0.0
 10
9.33655
 20
-8.64343
 30
0.0
 10
9.2569
 20
-8.6348
 30
0.0
 10
9.19917
 20
-8.62532
 30
0.0
 10
9.16788
 20
-8.6145
 30
0.0
 10
9.16788
 20
-8.6145
 30
0.0
 10
8.97785
 20
-8.54878
 30
0.0
 10
8.98065
 20
-8.37679
 30
0.0
 10
9.0503
 20
-8.13085
 30
0.0
 10
9.0503
 20
-8.13085
 30
0.0
 10
9.29252
 20
-7.42495
 30
0.0
 10
9.59274
 20
-6.48897
 30
0.0
 10
9.32028
 20
-5.67657
 30
0.0
 10
9.32028
 20
-5.67657
 30
0.0
 10
9.17534
 20
-5.2444
 30
0.0
 10
9.12498
 20
-5.09374
 30
0.0
 10
8.88001
 20
-4.70291
 30
0.0
 10
8.88001
 20
-4.70291
 30
0.0
 10
8.7274
 20
-4.45943
 30
0.0
 10
8.58589
 20
-4.32388
 30
0.0
 10
8.55336
 20
-4.2071
 30
0.0
 10
8.55336
 20
-4.2071
 30
0.0
 10
8.68481
 20
-4.10703
 30
0.0
 10
8.81626
 20
-4.00696
 30
0.0
 10
8.94771
 20
-3.90689
 30
0.0
 10
8.94771
 20
-3.90689
 30
0.0
 10
8.952
 20
-3.90893
 30
0.0
 10
9.43278
 20
-4.53731
 30
0.0
 10
9.48087
 20
-4.59979
 30
0.0
 10
9.48087
 20
-4.59979
 30
0.0
 10
9.53411
 20
-4.55883
 30
0.0
 10
9.58477
 20
-4.51983
 30
0.0
 10
9.63937
 20
-4.47782
 30
0.0
 10
9.63937
 20
-4.47782
 30
0.0
 10
9.63937
 20
-4.47782
 30
0.0
 10
9.04566
 20
-3.70622
 30
0.0
 10
9.04566
 20
-3.70622
 30
0.0
 10
9.04566
 20
-3.70622
 30
0.0
 10
9.06675
 20
-3.64499
 30
0.0
 10
9.18515
 20
-3.568
 30
0.0
 10
9.32875
 20
-3.54297
 30
0.0
 10
9.32875
 20
-3.54297
 30
0.0
 10
9.77175
 20
-3.46573
 30
0.0
 10
10.9266
 20
-4.33388
 30
0.0
 10
11.31841
 20
-4.66904
 30
0.0
 10
11.31841
 20
-4.66904
 30
0.0
 10
12.21262
 20
-5.43396
 30
0.0
 10
12.8921
 20
-6.2685
 30
0.0
 10
13.42661
 20
-7.30217
 30
0.0
 10
13.42661
 20
-7.30217
 30
0.0
 10
13.65387
 20
-7.74167
 30
0.0
 10
13.54238
 20
-7.7483
 30
0.0
 10
13.93461
 20
-8.2843
 30
0.0
 10
13.93461
 20
-8.2843
 30
0.0
 10
13.96338
 20
-8.32068
 30
0.0
 10
14.24841
 20
-8.61397
 30
0.0
 10
14.24841
 20
-8.64453
 30
0.0
  0
SPLINE
  5
63
330
1F
100
AcDbEntity
  8
Livello 1
 62
   250
370
    20
100
AcDbSpline
210
0.0
220
0.0
230
1.0
 70
    11
 71
     3
 72
    92
 73
    88
 74
     0
 42
0.0000000001
 43
0.0000000001
 40
0.0
 40
0.0
 40
0.0
 40
0.0
 40
0.0434782608695652
 40
0.0434782608695652
 40
0.0434782608695652
 40
0.0434782608695652
 40
0.0869565217391304
 40
0.0869565217391304
 40
0.0869565217391304
 40
0.0869565217391304
 40
0.1304347826086956
 40
0.1304347826086956
 40
0.1304347826086956
 40
0.1304347826086956
 40
0.1739130434782609
 40
0.1739130434782609
 40
0.1739130434782609
 40
0.1739130434782609
 40
0.2173913043478261
 40
0.2173913043478261
 40
0.2173913043478261
 40
0.2173913043478261
 40
0.2608695652173913
 40
0.2608695652173913
 40
0.2608695652173913
 40
0.2608695652173913
 40
0.3043478260869565
 40
0.3043478260869565
 40
0.3043478260869565
 40
0.3043478260869565
 40
0.3478260869565217
 40
0.3478260869565217
 40
0.3478260869565217
 40
0.3478260869565217
 40
0.391304347826087
 40
0.391304347826087
 40
0.391304347826087
 40
0.391304347826087
 40
0.4347826086956522
 40
0.4347826086956522
 40
0.4347826086956522
 40
0.4347826086956522
 40
0.4782608695652174
 40
0.4782608695652174
 40
0.4782608695652174
 40
0.4782608695652174
 40
0.5217391304347826
 40
0.5217391304347826
 40
0.5217391304347826
 40
0.5217391304347826
 40
0.5652173913043478
 40
0.5652173913043478
 40
0.5652173913043478
 40
0.5652173913043478
 40
0.6086956521739131
 40
0.6086956521739131
 40
0.6086956521739131
 40
0.6086956521739131
 40
0.6521739130434783
 40
0.6521739130434783
 40
0.6521739130434783
 40
0.6521739130434783
 40
0.6956521739130435
 40
0.6956521739130435
 40
0.6956521739130435
 40
0.6956521739130435
 40
0.7391304347826086
 40
0.7391304347826086
 40
0.7391304347826086
 40
0.7391304347826086
 40
0.782608695652174
 40
0.782608695652174
 40
0.782608695652174
 40
0.782608695652174
 40
0.8260869565217391
 40
0.8260869565217391
 40
0.8260869565217391
 40
0.8260869565217391
 40
0.8695652173913043
 40
0.8695652173913043
 40
0.8695652173913043
 40
0.8695652173913043
 40
0.9130434782608695
 40
0.9130434782608695
 40
0.9130434782608695
 40
0.9130434782608695
 40
1.0
 40
1.0
 40
1.0
 40
1.0
 10
-8.93737
 20
-2.03011
 30
0.0
 10
-8.93266
 20
-2.03011
 30
0.0
 10
-8.35292
 20
-2.58716
 30
0.0
 10
-8.22568
 20
-2.70841
 30
0.0
 10
-8.22568
 20
-2.70841
 30
0.0
 10
-8.22568
 20
-2.70841
 30
0.0
 10
-8.0877
 20
-2.56363
 30
0.0
 10
-8.0877
 20
-2.56363
 30
0.0
 10
-8.0877
 20
-2.56363
 30
0.0
 10
-8.0877
 20
-2.56363
 30
0.0
 10
-8.9071
 20
-1.77435
 30
0.0
 10
-8.9071
 20
-1.77435
 30
0.0
 10
-8.9071
 20
-1.77435
 30
0.0
 10
-8.90703
 20
-1.7737
 30
0.0
 10
-7.85908
 20
-0.89753
 30
0.0
 10
-7.79263
 20
-0.89243
 30
0.0
 10
-7.79263
 20
-0.89243
 30
0.0
 10
-7.79263
 20
-0.89243
 30
0.0
 10
-7.20675
 20
-1.85641
 30
0.0
 10
-7.20675
 20
-1.85641
 30
0.0
 10
-7.20675
 20
-1.85641
 30
0.0
 10
-7.20675
 20
-1.85641
 30
0.0
 10
-7.03584
 20
-1.75254
 30
0.0
 10
-7.03584
 20
-1.75254
 30
0.0
 10
-7.03584
 20
-1.75254
 30
0.0
 10
-7.03584
 20
-1.75254
 30
0.0
 10
-7.54402
 20
-0.91641
 30
0.0
 10
-7.54402
 20
-0.91641
 30
0.0
 10
-7.54402
 20
-0.91641
 30
0.0
 10
-7.46447
 20
-0.90948
 30
0.0
 10
-7.23859
 20
-0.98281
 30
0.0
 10
-7.16432
 20
-1.01991
 30
0.0
 10
-7.16432
 20
-1.01991
 30
0.0
 10
-7.02169
 20
-1.09115
 30
0.0
 10
-7.00781
 20
-1.19628
 30
0.0
 10
-6.90185
 20
-1.32471
 30
0.0
 10
-6.90185
 20
-1.32471
 30
0.0
 10
-6.79197
 20
-1.4579
 30
0.0
 10
-6.32071
 20
-1.84393
 30
0.0
 10
-6.36845
 20
-2.14598
 30
0.0
 10
-6.36845
 20
-2.14598
 30
0.0
 10
-6.39684
 20
-2.32559
 30
0.0
 10
-6.4396
 20
-2.35625
 30
0.0
 10
-6.44883
 20
-2.3866
 30
0.0
 10
-6.44883
 20
-2.3866
 30
0.0
 10
-6.45867
 20
-2.41894
 30
0.0
 10
-6.43047
 20
-2.45096
 30
0.0
 10
-6.30632
 20
-2.66244
 30
0.0
 10
-6.30632
 20
-2.66244
 30
0.0
 10
-6.14532
 20
-2.93672
 30
0.0
 10
-6.12117
 20
-3.33074
 30
0.0
 10
-5.97898
 20
-3.60224
 30
0.0
 10
-5.97898
 20
-3.60224
 30
0.0
 10
-5.90233
 20
-3.74859
 30
0.0
 10
-5.63264
 20
-3.53348
 30
0.0
 10
-5.54718
 20
-3.89011
 30
0.0
 10
-5.54718
 20
-3.89011
 30
0.0
 10
-5.50069
 20
-4.08412
 30
0.0
 10
-6.17723
 20
-4.76823
 30
0.0
 10
-6.47005
 20
-4.56744
 30
0.0
 10
-6.47005
 20
-4.56744
 30
0.0
 10
-6.62998
 20
-4.45777
 30
0.0
 10
-6.56816
 20
-4.21225
 30
0.0
 10
-6.60552
 20
-4.15257
 30
0.0
 10
-6.60552
 20
-4.15257
 30
0.0
 10
-6.67243
 20
-4.04568
 30
0.0
 10
-7.23472
 20
-3.80156
 30
0.0
 10
-7.37598
 20
-3.71231
 30
0.0
 10
-7.37598
 20
-3.71231
 30
0.0
 10
-7.57641
 20
-3.58568
 30
0.0
 10
-7.65898
 20
-3.38008
 30
0.0
 10
-7.71539
 20
-3.39688
 30
0.0
 10
-7.71539
 20
-3.39688
 30
0.0
 10
-7.79427
 20
-3.42038
 30
0.0
 10
-8.05692
 20
-3.61173
 30
0.0
 10
-8.35811
 20
-3.24664
 30
0.0
 10
-8.35811
 20
-3.24664
 30
0.0
 10
-8.53256
 20
-3.03518
 30
0.0
 10
-8.64001
 20
-2.80983
 30
0.0
 10
-8.73911
 20
-2.68784
 30
0.0
 10
-8.73911
 20
-2.68784
 30
0.0
 10
-8.79556
 20
-2.6314
 30
0.0
 10
-8.852
 20
-2.57495
 30
0.0
 10
-8.90845
 20
-2.51851
 30
0.0
 10
-8.90845
 20
-2.51851
 30
0.0
 10
-8.94653
 20
-2.46081
 30
0.0
 10
-8.99266
 20
-2.0843
 30
0.0
 10
-8.93737
 20
-2.03011
 30
0.0
  0
SPLINE
  5
64
330
1F
100
AcDbEntity
  8
Livello 1
 62
   250
370
    20
100
AcDbSpline
210
0.0
220
0.0
230
1.0
 70
    11
 71
     3
 72
    52
 73
    48
 74
     0
 42
0.0000000001
 43
0.0000000001
 40
0.0
 40
0.0
 40
0.0
 40
0.0
 40
0.0769230769230769
 40
0.0769230769230769
 40
0.0769230769230769
 40
0.0769230769230769
 40
0.1538461538461539
 40
0.1538461538461539
 40
0.1538461538461539
 40
0.1538461538461539
 40
0.2307692307692308
 40
0.2307692307692308
 40
0.2307692307692308
 40
0.2307692307692308
 40
0.3076923076923077
 40
0.3076923076923077
 40
0.3076923076923077
 40
0.3076923076923077
 40
0.3846153846153846
 40
0.3846153846153846
 40
0.3846153846153846
 40
0.3846153846153846
 40
0.4615384615384616
 40
0.4615384615384616
 40
0.4615384615384616
 40
0.4615384615384616
 40
0.5384615384615384
 40
0.5384615384615384
 40
0.5384615384615384
 40
0.5384615384615384
 40
0.6153846153846154
 40
0.6153846153846154
 40
0.6153846153846154
 40
0.6153846153846154
 40
0.6923076923076923
 40
0.6923076923076923
 40
0.6923076923076923
 40
0.6923076923076923
 40
0.7692307692307693
 40
0.7692307692307693
 40
0.7692307692307693
 40
0.7692307692307693
 40
0.8461538461538461
 40
0.8461538461538461
 40
0.8461538461538461
 40
0.8461538461538461
 40
1.0
 40
1.0
 40
1.0
 40
1.0
 10
-5.39789
 20
-1.28891
 30
0.0
 10
-5.12128
 20
-1.61619
 30
0.0
 10
-4.84467
 20
-1.94348
 30
0.0
 10
-4.56806
 20
-2.27076
 30
0.0
 10
-4.56806
 20
-2.27076
 30
0.0
 10
-4.61992
 20
-2.31458
 30
0.0
 10
-4.66901
 20
-2.35609
 30
0.0
 10
-4.72081
 20
-2.39986
 30
0.0
 10
-4.72081
 20
-2.39986
 30
0.0
 10
-4.78815
 20
-2.32024
 30
0.0
 10
-5.52741
 20
-1.44518
 30
0.0
 10
-5.52767
 20
-1.44518
 30
0.0
 10
-5.52767
 20
-1.44518
 30
0.0
 10
-5.57625
 20
-1.44518
 30
0.0
 10
-5.76837
 20
-1.77439
 30
0.0
 10
-5.75038
 20
-2.02744
 30
0.0
 10
-5.75038
 20
-2.02744
 30
0.0
 10
-5.70531
 20
-2.66144
 30
0.0
 10
-5.35168
 20
-3.09849
 30
0.0
 10
-4.97145
 20
-3.54297
 30
0.0
 10
-4.97145
 20
-3.54297
 30
0.0
 10
-4.70844
 20
-3.85042
 30
0.0
 10
-4.74718
 20
-3.83218
 30
0.0
 10
-4.28565
 20
-3.88164
 30
0.0
 10
-4.28565
 20
-3.88164
 30
0.0
 10
-3.81568
 20
-3.93201
 30
0.0
 10
-3.1346
 20
-3.84226
 30
0.0
 10
-2.84632
 20
-3.87317
 30
0.0
 10
-2.84632
 20
-3.87317
 30
0.0
 10
-2.50176
 20
-3.91012
 30
0.0
 10
-2.50859
 20
-3.83041
 30
0.0
 10
-2.26504
 20
-3.52604
 30
0.0
 10
-2.26504
 20
-3.52604
 30
0.0
 10
-2.14097
 20
-3.37099
 30
0.0
 10
-1.66189
 20
-2.74897
 30
0.0
 10
-2.07585
 20
-2.67938
 30
0.0
 10
-2.07585
 20
-2.67938
 30
0.0
 10
-2.29359
 20
-2.64277
 30
0.0
 10
-2.5993
 20
-2.83434
 30
0.0
 10
-2.77012
 20
-2.81484
 30
0.0
 10
-2.77012
 20
-2.81484
 30
0.0
 10
-3.2397
 20
-2.76125
 30
0.0
 10
-3.92184
 20
-1.59916
 30
0.0
 10
-4.18405
 20
-1.41784
 30
0.0
 10
-4.18405
 20
-1.41784
 30
0.0
 10
-4.36082
 20
-1.29561
 30
0.0
 10
-5.32193
 20
-1.11243
 30
0.0
 10
-5.39789
 20
-1.28891
 30
0.0
  0
SPLINE
  5
65
330
1F
100
AcDbEntity
  8
Livello 1
 62
   250
370
    20
100
AcDbSpline
210
0.0
220
0.0
230
1.0
 70
    11
 71
     3
 72
    44
 73
    40
 74
     0
 42
0.0000000001
 43
0.0000000001
 40
0.0
 40
0.0
 40
0.0
 40
0.0
 40
0.0909090909090909
 40
0.0909090909090909
 40
0.0909090909090909
 40
0.0909090909090909
 40
0.1818181818181818
 40
0.1818181818181818
 40
0.1818181818181818
 40
0.1818181818181818
 40
0.2727272727272727
 40
0.2727272727272727
 40
0.2727272727272727
 40
0.2727272727272727
 40
0.3636363636363636
 40
0.3636363636363636
 40
0.3636363636363636
 40
0.3636363636363636
 40
0.4545454545454545
 40
0.4545454545454545
 40
0.4545454545454545
 40
0.4545454545454545
 40
0.5454545454545454
 40
0.5454545454545454
 40
0.5454545454545454
 40
0.5454545454545454
 40
0.6363636363636364
 40
0.6363636363636364
 40
0.6363636363636364
 40
0.6363636363636364
 40
0.7272727272727273
 40
0.7272727272727273
 40
0.7272727272727273
 40
0.7272727272727273
 40
0.8181818181818182
 40
0.8181818181818182
 40
0.8181818181818182
 40
0.8181818181818182
 40
1.0
 40
1.0
 40
1.0
 40
1.0
 10
-8.76451
 20
2.22282
 30
0.0
 10
-8.97584
 20
2.23405
 30
0.0
 10
-9.07416
 20
2.18759
 30
0.0
 10
-8.92221
 20
1.75716
 30
0.0
 10
-8.92221
 20
1.75716
 30
0.0
 10
-8.60443
 20
0.39444
 30
0.0
 10
-9.47146
 20
-0.39278
 30
0.0
 10
-8.66291
 20
-0.52884
 30
0.0
 10
-8.66291
 20
-0.52884
 30
0.0
 10
-8.42202
 20
-0.56938
 30
0.0
 10
-8.26541
 20
-0.4838
 30
0.0
 10
-8.21932
 20
-0.40506
 30
0.0
 10
-8.21932
 20
-0.40506
 30
0.0
 10
-8.21932
 20
-0.40506
 30
0.0
 10
-8.29693
 20
0.35604
 30
0.0
 10
-8.29693
 20
0.35604
 30
0.0
 10
-8.29693
 20
0.35604
 30
0.0
 10
-8.29693
 20
0.35604
 30
0.0
 10
-8.09796
 20
0.37633
 30
0.0
 10
-8.09796
 20
0.37633
 30
0.0
 10
-8.09796
 20
0.37633
 30
0.0
 10
-8.09796
 20
0.37633
 30
0.0
 10
-8.01671
 20
-0.4204
 30
0.0
 10
-8.01671
 20
-0.4204
 30
0.0
 10
-8.01671
 20
-0.4204
 30
0.0
 10
-7.75543
 20
-0.39453
 30
0.0
 10
-7.22996
 20
-0.24161
 30
0.0
 10
-7.02038
 20
-0.08858
 30
0.0
 10
-7.02038
 20
-0.08858
 30
0.0
 10
-6.68075
 20
0.12797
 30
0.0
 10
-7.05023
 20
1.07562
 30
0.0
 10
-7.19859
 20
1.32194
 30
0.0
 10
-7.19859
 20
1.32194
 30
0.0
 10
-7.32852
 20
1.44327
 30
0.0
 10
-7.29836
 20
1.67846
 30
0.0
 10
-7.43525
 20
1.76562
 30
0.0
 10
-7.43525
 20
1.76562
 30
0.0
 10
-7.88006
 20
2.13262
 30
0.0
 10
-8.67314
 20
2.20592
 30
0.0
 10
-8.76451
 20
2.22282
 30
0.0
  0
SPLINE
  5
66
330
1F
100
AcDbEntity
  8
Livello 1
 62
   250
370
    20
100
AcDbSpline
210
0.0
220
0.0
230
1.0
 70
    11
 71
     3
 72
    48
 73
    44
 74
     0
 42
0.0000000001
 43
0.0000000001
 40
0.0
 40
0.0
 40
0.0
 40
0.0
 40
0.0833333333333333
 40
0.0833333333333333
 40
0.0833333333333333
 40
0.0833333333333333
 40
0.1666666666666667
 40
0.1666666666666667
 40
0.1666666666666667
 40
0.1666666666666667
 40
0.25
 40
0.25
 40
0.25
 40
0.25
 40
0.3333333333333333
 40
0.3333333333333333
 40
0.3333333333333333
 40
0.3333333333333333
 40
0.4166666666666667
 40
0.4166666666666667
 40
0.4166666666666667
 40
0.4166666666666667
 40
0.5
 40
0.5
 40
0.5
 40
0.5
 40
0.5833333333333334
 40
0.5833333333333334
 40
0.5833333333333334
 40
0.5833333333333334
 40
0.6666666666666666
 40
0.6666666666666666
 40
0.6666666666666666
 40
0.6666666666666666
 40
0.75
 40
0.75
 40
0.75
 40
0.75
 40
0.8333333333333334
 40
0.8333333333333334
 40
0.8333333333333334
 40
0.8333333333333334
 40
1.0
 40
1.0
 40
1.0
 40
1.0
 10
-13.02325
 20
-0.85058
 30
0.0
 10
-13.40153
 20
-0.88898
 30
0.0
 10
-14.12397
 20
-1.34974
 30
0.0
 10
-14.25091
 20
-2.08671
 30
0.0
 10
-14.25091
 20
-2.08671
 30
0.0
 10
-14.27654
 20
-2.23552
 30
0.0
 10
-14.18845
 20
-2.7981
 30
0.0
 10
-14.15778
 20
-2.96724
 30
0.0
 10
-14.15778
 20
-2.96724
 30
0.0
 10
-14.0048
 20
-3.81085
 30
0.0
 10
-14.44605
 20
-4.34808
 30
0.0
 10
-14.02231
 20
-4.41504
 30
0.0
 10
-14.02231
 20
-4.41504
 30
0.0
 10
-13.77542
 20
-4.45405
 30
0.0
 10
-13.09953
 20
-4.14145
 30
0.0
 10
-12.93858
 20
-3.83084
 30
0.0
 10
-12.93858
 20
-3.83084
 30
0.0
 10
-12.93775
 20
-3.82924
 30
0.0
 10
-12.87556
 20
-3.53674
 30
0.0
 10
-12.85391
 20
-3.46677
 30
0.0
 10
-12.85391
 20
-3.46677
 30
0.0
 10
-12.68369
 20
-2.86306
 30
0.0
 10
-12.61769
 20
-2.76125
 30
0.0
 10
-12.47291
 20
-2.38304
 30
0.0
 10
-12.47291
 20
-2.38304
 30
0.0
 10
-12.17616
 20
-1.60784
 30
0.0
 10
-11.9157
 20
-1.14713
 30
0.0
 10
-12.717
 20
-0.88743
 30
0.0
 10
-12.717
 20
-0.88743
 30
0.0
 10
-12.80847
 20
-1.26551
 30
0.0
 10
-12.89994
 20
-1.64358
 30
0.0
 10
-12.99141
 20
-2.02166
 30
0.0
 10
-12.99141
 20
-2.02166
 30
0.0
 10
-13.05621
 20
-2.00598
 30
0.0
 10
-13.12101
 20
-1.99031
 30
0.0
 10
-13.18581
 20
-1.97463
 30
0.0
 10
-13.18581
 20
-1.97463
 30
0.0
 10
-13.09762
 20
-1.61012
 30
0.0
 10
-13.00944
 20
-1.24562
 30
0.0
 10
-12.92125
 20
-0.88111
 30
0.0
 10
-12.92125
 20
-0.88111
 30
0.0
 10
-12.94502
 20
-0.86235
 30
0.0
 10
-12.99236
 20
-0.83805
 30
0.0
 10
-13.02325
 20
-0.85058
 30
0.0
  0
SPLINE
  5
67
330
1F
100
AcDbEntity
  8
Livello 1
 62
   250
370
    20
100
AcDbSpline
210
0.0
220
0.0
230
1.0
 70
    11
 71
     3
 72
   200
 73
   196
 74
     0
 42
0.0000000001
 43
0.0000000001
 40
0.0
 40
0.0
 40
0.0
 40
0.0
 40
0.02
 40
0.02
 40
0.02
 40
0.02
 40
0.04
 40
0.04
 40
0.04
 40
0.04
 40
0.06
 40
0.06
 40
0.06
 40
0.06
 40
0.08
 40
0.08
 40
0.08
 40
0.08
 40
0.1
 40
0.1
 40
0.1
 40
0.1
 40
0.12
 40
0.12
 40
0.12
 40
0.12
 40
0.14
 40
0.14
 40
0.14
 40
0.14
 40
0.16
 40
0.16
 40
0.16
 40
0.16
 40
0.18
 40
0.18
 40
0.18
 40
0.18
 40
0.2
 40
0.2
 40
0.2
 40
0.2
 40
0.22
 40
0.22
 40
0.22
 40
0.22
 40
0.24
 40
0.24
 40
0.24
 40
0.24
 40
0.26
 40
0.26
 40
0.26
 40
0.26
 40
0.28
 40
0.28
 40
0.28
 40
0.28
 40
0.3
 40
0.3
 40
0.3
 40
0.3
 40
0.32
 40
0.32
 40
0.32
 40
0.32
 40
0.34
 40
0.34
 40
0.34
 40
0.34
 40
0.36
 40
0.36
 40
0.36
 40
0.36
 40
0.38
 40
0.38
 40
0.38
 40
0.38
 40
0.4
 40
0.4
 40
0.4
 40
0.4
 40
0.42
 40
0.42
 40
0.42
 40
0.42
 40
0.44
 40
0.44
 40
0.44
 40
0.44
 40
0.46
 40
0.46
 40
0.46
 40
0.46
 40
0.48
 40
0.48
 40
0.48
 40
0.48
 40
0.5
 40
0.5
 40
0.5
 40
0.5
 40
0.52
 40
0.52
 40
0.52
 40
0.52
 40
0.54
 40
0.54
 40
0.54
 40
0.54
 40
0.56
 40
0.56
 40
0.56
 40
0.56
 40
0.58
 40
0.58
 40
0.58
 40
0.58
 40
0.6
 40
0.6
 40
0.6
 40
0.6
 40
0.62
 40
0.62
 40
0.62
 40
0.62
 40
0.64
 40
0.64
 40
0.64
 40
0.64
 40
0.66
 40
0.66
 40
0.66
 40
0.66
 40
0.68
 40
0.68
 40
0.68
 40
0.68
 40
0.7
 40
0.7
 40
0.7
 40
0.7
 40
0.72
 40
0.72
 40
0.72
 40
0.72
 40
0.74
 40
0.74
 40
0.74
 40
0.74
 40
0.76
 40
0.76
 40
0.76
 40
0.76
 40
0.78
 40
0.78
 40
0.78
 40
0.78
 40
0.8
 40
0.8
 40
0.8
 40
0.8
 40
0.82
 40
0.82
 40
0.82
 40
0.82
 40
0.84
 40
0.84
 40
0.84
 40
0.84
 40
0.86
 40
0.86
 40
0.86
 40
0.86
 40
0.88
 40
0.88
 40
0.88
 40
0.88
 40
0.9
 40
0.9
 40
0.9
 40
0.9
 40
0.92
 40
0.92
 40
0.92
 40
0.92
 40
0.94
 40
0.94
 40
0.94
 40
0.94
 40
0.96
 40
0.96
 40
0.96
 40
0.96
 40
1.0
 40
1.0
 40
1.0
 40
1.0
 10
6.61971
 20
-0.02942
 30
0.0
 10
6.4599
 20
0.01284
 30
0.0
 10
6.23219
 20
0.23351
 30
0.0
 10
6.17545
 20
0.22099
 30
0.0
 10
6.17545
 20
0.22099
 30
0.0
 10
6.14122
 20
0.21759
 30
0.0
 10
6.06727
 20
0.18636
 30
0.0
 10
6.00982
 20
0.16257
 30
0.0
 10
6.00982
 20
0.16257
 30
0.0
 10
5.85255
 20
0.09745
 30
0.0
 10
5.68895
 20
-0.00002
 30
0.0
 10
5.56108
 20
-0.10551
 30
0.0
 10
5.56108
 20
-0.10551
 30
0.0
 10
5.38406
 20
-0.25156
 30
0.0
 10
5.26608
 20
-0.49241
 30
0.0
 10
5.23088
 20
-0.71511
 30
0.0
 10
5.23088
 20
-0.71511
 30
0.0
 10
5.21406
 20
-0.92933
 30
0.0
 10
5.20799
 20
-1.11188
 30
0.0
 10
5.11007
 20
-1.30778
 30
0.0
 10
5.11007
 20
-1.30778
 30
0.0
 10
5.04778
 20
-1.43241
 30
0.0
 10
4.819
 20
-1.71516
 30
0.0
 10
4.69748
 20
-1.75651
 30
0.0
 10
4.69748
 20
-1.75651
 30
0.0
 10
4.66149
 20
-1.77912
 30
0.0
 10
4.44963
 20
-1.87277
 30
0.0
 10
4.41014
 20
-1.82662
 30
0.0
 10
4.41014
 20
-1.82662
 30
0.0
 10
4.39528
 20
-1.8018
 30
0.0
 10
4.44412
 20
-1.77482
 30
0.0
 10
4.46808
 20
-1.75281
 30
0.0
 10
4.46808
 20
-1.75281
 30
0.0
 10
4.50129
 20
-1.70891
 30
0.0
 10
4.69736
 20
-1.49439
 30
0.0
 10
4.74828
 20
-1.39244
 30
0.0
 10
4.74828
 20
-1.39244
 30
0.0
 10
4.84454
 20
-1.19975
 30
0.0
 10
4.84564
 20
-1.02741
 30
0.0
 10
4.82448
 20
-0.94371
 30
0.0
 10
4.82448
 20
-0.94371
 30
0.0
 10
4.78164
 20
-0.81151
 30
0.0
 10
4.71403
 20
-0.4767
 30
0.0
 10
4.74828
 20
-0.34258
 30
0.0
 10
4.74828
 20
-0.34258
 30
0.0
 10
4.90631
 20
0.2761
 30
0.0
 10
5.20411
 20
0.3475
 30
0.0
 10
5.44944
 20
0.62739
 30
0.0
 10
5.44944
 20
0.62739
 30
0.0
 10
5.4859
 20
0.66899
 30
0.0
 10
5.44212
 20
0.76737
 30
0.0
 10
5.41715
 20
0.81445
 30
0.0
 10
5.41715
 20
0.81445
 30
0.0
 10
5.08129
 20
0.67225
 30
0.0
 10
4.79166
 20
0.75565
 30
0.0
 10
4.46888
 20
0.88509
 30
0.0
 10
4.46888
 20
0.88509
 30
0.0
 10
4.43587
 20
0.90688
 30
0.0
 10
4.39066
 20
0.93076
 30
0.0
 10
4.3858
 20
0.96208
 30
0.0
 10
4.3858
 20
0.96208
 30
0.0
 10
4.38667
 20
1.00206
 30
0.0
 10
4.40504
 20
1.03193
 30
0.0
 10
4.42655
 20
1.06289
 30
0.0
 10
4.42655
 20
1.06289
 30
0.0
 10
4.59884
 20
1.3561
 30
0.0
 10
5.31217
 20
1.37756
 30
0.0
 10
5.56955
 20
1.20894
 30
0.0
 10
5.56955
 20
1.20894
 30
0.0
 10
5.63491
 20
1.24809
 30
0.0
 10
5.7199
 20
1.50223
 30
0.0
 10
5.89128
 20
1.58782
 30
0.0
 10
5.89128
 20
1.58782
 30
0.0
 10
5.93336
 20
1.60884
 30
0.0
 10
6.10663
 20
1.67582
 30
0.0
 10
6.12076
 20
1.59502
 30
0.0
 10
6.12076
 20
1.59502
 30
0.0
 10
6.12076
 20
1.59502
 30
0.0
 10
5.92713
 20
1.01435
 30
0.0
 10
5.92713
 20
1.01435
 30
0.0
 10
5.92713
 20
1.01435
 30
0.0
 10
5.99076
 20
0.99314
 30
0.0
 10
6.05374
 20
0.97214
 30
0.0
 10
6.11686
 20
0.95109
 30
0.0
 10
6.11686
 20
0.95109
 30
0.0
 10
6.11686
 20
0.95109
 30
0.0
 10
6.17814
 20
1.13487
 30
0.0
 10
6.17814
 20
1.13487
 30
0.0
 10
6.17814
 20
1.13487
 30
0.0
 10
6.21684
 20
1.25092
 30
0.0
 10
6.76726
 20
1.14926
 30
0.0
 10
6.73136
 20
1.00087
 30
0.0
 10
6.73136
 20
1.00087
 30
0.0
 10
6.73136
 20
1.00087
 30
0.0
 10
6.67393
 20
0.76348
 30
0.0
 10
6.67393
 20
0.76348
 30
0.0
 10
6.67393
 20
0.76348
 30
0.0
 10
6.67393
 20
0.76348
 30
0.0
 10
6.86833
 20
0.71645
 30
0.0
 10
6.86833
 20
0.71645
 30
0.0
 10
6.86833
 20
0.71645
 30
0.0
 10
6.86833
 20
0.71645
 30
0.0
 10
6.92715
 20
0.9596
 30
0.0
 10
6.92715
 20
0.9596
 30
0.0
 10
6.92715
 20
0.9596
 30
0.0
 10
6.96305
 20
1.108
 30
0.0
 10
7.49141
 20
0.9879
 30
0.0
 10
7.48155
 20
0.86599
 30
0.0
 10
7.48155
 20
0.86599
 30
0.0
 10
7.48155
 20
0.86599
 30
0.0
 10
7.46592
 20
0.67289
 30
0.0
 10
7.46592
 20
0.67289
 30
0.0
 10
7.46592
 20
0.67289
 30
0.0
 10
7.53225
 20
0.66753
 30
0.0
 10
7.59842
 20
0.66217
 30
0.0
 10
7.66527
 20
0.65676
 30
0.0
 10
7.66527
 20
0.65676
 30
0.0
 10
7.66527
 20
0.65676
 30
0.0
 10
7.71462
 20
1.26687
 30
0.0
 10
7.71462
 20
1.26687
 30
0.0
 10
7.71462
 20
1.26687
 30
0.0
 10
7.75927
 20
1.33568
 30
0.0
 10
7.89246
 20
1.20617
 30
0.0
 10
7.92293
 20
1.17034
 30
0.0
 10
7.92293
 20
1.17034
 30
0.0
 10
8.04708
 20
1.02445
 30
0.0
 10
8.02571
 20
0.75733
 30
0.0
 10
8.0705
 20
0.6957
 30
0.0
 10
8.0705
 20
0.6957
 30
0.0
 10
8.37338
 20
0.75001
 30
0.0
 10
9.02128
 20
0.45079
 30
0.0
 10
9.06492
 20
0.11353
 30
0.0
 10
9.06492
 20
0.11353
 30
0.0
 10
9.07258
 20
0.07662
 30
0.0
 10
9.07778
 20
0.04194
 30
0.0
 10
9.06292
 20
0.00481
 30
0.0
 10
9.06292
 20
0.00481
 30
0.0
 10
9.04617
 20
-0.0221
 30
0.0
 10
8.99522
 20
-0.02636
 30
0.0
 10
8.95631
 20
-0.03347
 30
0.0
 10
8.95631
 20
-0.03347
 30
0.0
 10
8.60862
 20
-0.02611
 30
0.0
 10
8.30947
 20
0.01063
 30
0.0
 10
8.05617
 20
0.27304
 30
0.0
 10
8.05617
 20
0.27304
 30
0.0
 10
8.01475
 20
0.23951
 30
0.0
 10
7.93593
 20
0.16615
 30
0.0
 10
7.95317
 20
0.11359
 30
0.0
 10
7.95317
 20
0.11359
 30
0.0
 10
8.06924
 20
-0.24005
 30
0.0
 10
8.31526
 20
-0.42241
 30
0.0
 10
8.21827
 20
-1.05354
 30
0.0
 10
8.21827
 20
-1.05354
 30
0.0
 10
8.19724
 20
-1.19036
 30
0.0
 10
8.00386
 20
-1.47192
 30
0.0
 10
7.91265
 20
-1.57676
 30
0.0
 10
7.91265
 20
-1.57676
 30
0.0
 10
7.8604
 20
-1.64549
 30
0.0
 10
7.79389
 20
-1.80448
 30
0.0
 10
7.80696
 20
-2.01948
 30
0.0
 10
7.80696
 20
-2.01948
 30
0.0
 10
7.81387
 20
-2.13322
 30
0.0
 10
7.91022
 20
-2.40741
 30
0.0
 10
7.92358
 20
-2.46081
 30
0.0
 10
7.92358
 20
-2.46081
 30
0.0
 10
7.93699
 20
-2.49046
 30
0.0
 10
7.97136
 20
-2.53441
 30
0.0
 10
7.94797
 20
-2.55143
 30
0.0
 10
7.94797
 20
-2.55143
 30
0.0
 10
7.89356
 20
-2.57841
 30
0.0
 10
7.73532
 20
-2.40925
 30
0.0
 10
7.71106
 20
-2.37434
 30
0.0
 10
7.71106
 20
-2.37434
 30
0.0
 10
7.61546
 20
-2.28869
 30
0.0
 10
7.51574
 20
-1.93891
 30
0.0
 10
7.50726
 20
-1.79985
 30
0.0
 10
7.50726
 20
-1.79985
 30
0.0
 10
7.49391
 20
-1.58124
 30
0.0
 10
7.55985
 20
-1.41091
 30
0.0
 10
7.6283
 20
-1.20722
 30
0.0
 10
7.6283
 20
-1.20722
 30
0.0
 10
7.68316
 20
-0.98853
 30
0.0
 10
7.66898
 20
-0.72072
 30
0.0
 10
7.56332
 20
-0.51698
 30
0.0
 10
7.56332
 20
-0.51698
 30
0.0
 10
7.487
 20
-0.36983
 30
0.0
 10
7.37467
 20
-0.21606
 30
0.0
 10
7.25549
 20
-0.09453
 30
0.0
 10
7.25549
 20
-0.09453
 30
0.0
 10
7.21195
 20
-0.05014
 30
0.0
 10
7.15615
 20
0.00757
 30
0.0
 10
7.12598
 20
0.02411
 30
0.0
 10
7.12598
 20
0.02411
 30
0.0
 10
7.07869
 20
0.05786
 30
0.0
 10
6.78273
 20
-0.05596
 30
0.0
 10
6.61971
 20
-0.02942
 30
0.0
  0
SPLINE
  5
68
330
1F
100
AcDbEntity
  8
Livello 1
 62
   250
370
    20
100
AcDbSpline
210
0.0
220
0.0
230
1.0
 70
    11
 71
     3
 72
    20
 73
    16
 74
     0
 42
0.0000000001
 43
0.0000000001
 40
0.0
 40
0.0
 40
0.0
 40
0.0
 40
0.2
 40
0.2
 40
0.2
 40
0.2
 40
0.4
 40
0.4
 40
0.4
 40
0.4
 40
0.6
 40
0.6
 40
0.6
 40
0.6
 40
1.0
 40
1.0
 40
1.0
 40
1.0
 10
10.70751
 20
1.21684
 30
0.0
 10
10.70751
 20
1.21684
 30
0.0
 10
11.7348
 20
0.76375
 30
0.0
 10
11.7348
 20
0.76375
 30
0.0
 10
11.7348
 20
0.76375
 30
0.0
 10
11.7348
 20
0.76375
 30
0.0
 10
11.65409
 20
0.58076
 30
0.0
 10
11.65409
 20
0.58076
 30
0.0
 10
11.65409
 20
0.58076
 30
0.0
 10
11.65409
 20
0.58076
 30
0.0
 10
10.6268
 20
1.03385
 30
0.0
 10
10.6268
 20
1.03385
 30
0.0
 10
10.6268
 20
1.03385
 30
0.0
 10
10.6268
 20
1.03385
 30
0.0
 10
10.70751
 20
1.21684
 30
0.0
 10
10.70751
 20
1.21684
 30
0.0
  0
SPLINE
  5
69
330
1F
100
AcDbEntity
  8
Livello 1
 62
   250
370
    20
100
AcDbSpline
210
0.0
220
0.0
230
1.0
 70
    11
 71
     3
 72
    20
 73
    16
 74
     0
 42
0.0000000001
 43
0.0000000001
 40
0.0
 40
0.0
 40
0.0
 40
0.0
 40
0.2
 40
0.2
 40
0.2
 40
0.2
 40
0.4
 40
0.4
 40
0.4
 40
0.4
 40
0.6
 40
0.6
 40
0.6
 40
0.6
 40
1.0
 40
1.0
 40
1.0
 40
1.0
 10
8.58552
 20
2.11147
 30
0.0
 10
8.58552
 20
2.11147
 30
0.0
 10
9.61281
 20
1.65838
 30
0.0
 10
9.61281
 20
1.65838
 30
0.0
 10
9.61281
 20
1.65838
 30
0.0
 10
9.61281
 20
1.65838
 30
0.0
 10
9.5321
 20
1.47539
 30
0.0
 10
9.5321
 20
1.47539
 30
0.0
 10
9.5321
 20
1.47539
 30
0.0
 10
9.5321
 20
1.47539
 30
0.0
 10
8.50481
 20
1.92848
 30
0.0
 10
8.50481
 20
1.92848
 30
0.0
 10
8.50481
 20
1.92848
 30
0.0
 10
8.50481
 20
1.92848
 30
0.0
 10
8.58552
 20
2.11147
 30
0.0
 10
8.58552
 20
2.11147
 30
0.0
  0
SPLINE
  5
6A
330
1F
100
AcDbEntity
  8
Livello 1
 62
   250
370
    20
100
AcDbSpline
210
0.0
220
0.0
230
1.0
 70
    11
 71
     3
 72
    20
 73
    16
 74
     0
 42
0.0000000001
 43
0.0000000001
 40
0.0
 40
0.0
 40
0.0
 40
0.0
 40
0.2
 40
0.2
 40
0.2
 40
0.2
 40
0.4
 40
0.4
 40
0.4
 40
0.4
 40
0.6
 40
0.6
 40
0.6
 40
0.6
 40
1.0
 40
1.0
 40
1.0
 40
1.0
 10
6.46353
 20
3.0061
 30
0.0
 10
6.46353
 20
3.0061
 30
0.0
 10
7.49082
 20
2.55301
 30
0.0
 10
7.49082
 20
2.55301
 30
0.0
 10
7.49082
 20
2.55301
 30
0.0
 10
7.49082
 20
2.55301
 30
0.0
 10
7.41011
 20
2.37002
 30
0.0
 10
7.41011
 20
2.37002
 30
0.0
 10
7.41011
 20
2.37002
 30
0.0
 10
7.41011
 20
2.37002
 30
0.0
 10
6.38282
 20
2.82311
 30
0.0
 10
6.38282
 20
2.82311
 30
0.0
 10
6.38282
 20
2.82311
 30
0.0
 10
6.38282
 20
2.82311
 30
0.0
 10
6.46353
 20
3.0061
 30
0.0
 10
6.46353
 20
3.0061
 30
0.0
  0
SPLINE
  5
6B
330
1F
100
AcDbEntity
  8
Livello 1
 62
   250
370
    20
100
AcDbSpline
210
0.0
220
0.0
230
1.0
 70
    11
 71
     3
 72
    20
 73
    16
 74
     0
 42
0.0000000001
 43
0.0000000001
 40
0.0
 40
0.0
 40
0.0
 40
0.0
 40
0.2
 40
0.2
 40
0.2
 40
0.2
 40
0.4
 40
0.4
 40
0.4
 40
0.4
 40
0.6
 40
0.6
 40
0.6
 40
0.6
 40
1.0
 40
1.0
 40
1.0
 40
1.0
 10
-12.29417
 20
-6.37101
 30
0.0
 10
-12.29417
 20
-6.37101
 30
0.0
 10
-10.45773
 20
-6.17059
 30
0.0
 10
-10.45773
 20
-6.17059
 30
0.0
 10
-10.45773
 20
-6.17059
 30
0.0
 10
-10.45773
 20
-6.17059
 30
0.0
 10
-10.43604
 20
-6.36941
 30
0.0
 10
-10.43604
 20
-6.36941
 30
0.0
 10
-10.43604
 20
-6.36941
 30
0.0
 10
-10.43604
 20
-6.36941
 30
0.0
 10
-12.27247
 20
-6.56983
 30
0.0
 10
-12.27247
 20
-6.56983
 30
0.0
 10
-12.27247
 20
-6.56983
 30
0.0
 10
-12.27247
 20
-6.56983
 30
0.0
 10
-12.29417
 20
-6.37101
 30
0.0
 10
-12.29417
 20
-6.37101
 30
0.0
  0
SPLINE
  5
6C
330
1F
100
AcDbEntity
  8
Livello 1
 62
   250
370
    20
100
AcDbSpline
210
0.0
220
0.0
230
1.0
 70
    11
 71
     3
 72
    80
 73
    76
 74
     0
 42
0.0000000001
 43
0.0000000001
 40
0.0
 40
0.0
 40
0.0
 40
0.0
 40
0.05
 40
0.05
 40
0.05
 40
0.05
 40
0.1
 40
0.1
 40
0.1
 40
0.1
 40
0.15
 40
0.15
 40
0.15
 40
0.15
 40
0.2
 40
0.2
 40
0.2
 40
0.2
 40
0.25
 40
0.25
 40
0.25
 40
0.25
 40
0.3
 40
0.3
 40
0.3
 40
0.3
 40
0.35
 40
0.35
 40
0.35
 40
0.35
 40
0.4
 40
0.4
 40
0.4
 40
0.4
 40
0.45
 40
0.45
 40
0.45
 40
0.45
 40
0.5
 40
0.5
 40
0.5
 40
0.5
 40
0.55
 40
0.55
 40
0.55
 40
0.55
 40
0.6
 40
0.6
 40
0.6
 40
0.6
 40
0.65
 40
0.65
 40
0.65
 40
0.65
 40
0.7
 40
0.7
 40
0.7
 40
0.7
 40
0.75
 40
0.75
 40
0.75
 40
0.75
 40
0.8
 40
0.8
 40
0.8
 40
0.8
 40
0.85
 40
0.85
 40
0.85
 40
0.85
 40
0.9
 40
0.9
 40
0.9
 40
0.9
 40
1.0
 40
1.0
 40
1.0
 40
1.0
 10
2.80813
 20
-4.42724
 30
0.0
 10
2.80813
 20
-4.5068
 30
0.0
 10
2.25397
 20
-4.56592
 30
0.0
 10
2.18288
 20
-4.55051
 30
0.0
 10
2.18288
 20
-4.55051
 30
0.0
 10
1.69275
 20
-4.53904
 30
0.0
 10
0.92522
 20
-4.11875
 30
0.0
 10
0.92135
 20
-3.35671
 30
0.0
 10
0.92135
 20
-3.35671
 30
0.0
 10
0.91941
 20
-2.97434
 30
0.0
 10
1.3004
 20
-2.40643
 30
0.0
 10
1.72568
 20
-2.11211
 30
0.0
 10
1.72568
 20
-2.11211
 30
0.0
 10
1.76434
 20
-2.08769
 30
0.0
 10
1.93456
 20
-2.03317
 30
0.0
 10
2.00508
 20
-1.94278
 30
0.0
 10
2.00508
 20
-1.94278
 30
0.0
 10
2.24424
 20
-1.54573
 30
0.0
 10
2.38143
 20
-1.32188
 30
0.0
 10
2.80942
 20
-0.97758
 30
0.0
 10
2.80942
 20
-0.97758
 30
0.0
 10
2.86503
 20
-0.91745
 30
0.0
 10
2.90391
 20
-0.87026
 30
0.0
 10
2.86868
 20
-0.75744
 30
0.0
 10
2.86868
 20
-0.75744
 30
0.0
 10
2.84143
 20
-0.58492
 30
0.0
 10
2.84276
 20
-0.44989
 30
0.0
 10
2.99568
 20
-0.32564
 30
0.0
 10
2.99568
 20
-0.32564
 30
0.0
 10
3.21186
 20
-0.13304
 30
0.0
 10
3.95452
 20
-0.12492
 30
0.0
 10
4.12175
 20
-0.35951
 30
0.0
 10
4.12175
 20
-0.35951
 30
0.0
 10
4.15498
 20
-0.40613
 30
0.0
 10
4.15624
 20
-0.45781
 30
0.0
 10
4.14715
 20
-0.51191
 30
0.0
 10
4.14715
 20
-0.51191
 30
0.0
 10
4.14715
 20
-0.51191
 30
0.0
 10
3.30873
 20
-3.13865
 30
0.0
 10
3.30873
 20
-3.13865
 30
0.0
 10
3.30873
 20
-3.13865
 30
0.0
 10
3.30873
 20
-3.13865
 30
0.0
 10
3.49903
 20
-3.20019
 30
0.0
 10
3.49903
 20
-3.20019
 30
0.0
 10
3.49903
 20
-3.20019
 30
0.0
 10
3.49903
 20
-3.20019
 30
0.0
 10
3.7449
 20
-2.43978
 30
0.0
 10
3.7449
 20
-2.43978
 30
0.0
 10
3.7449
 20
-2.43978
 30
0.0
 10
3.91578
 20
-2.50828
 30
0.0
 10
4.12311
 20
-2.8447
 30
0.0
 10
4.15562
 20
-3.01804
 30
0.0
 10
4.15562
 20
-3.01804
 30
0.0
 10
4.16354
 20
-3.0612
 30
0.0
 10
4.12524
 20
-3.13162
 30
0.0
 10
4.08788
 20
-3.16197
 30
0.0
 10
4.08788
 20
-3.16197
 30
0.0
 10
4.01928
 20
-3.21771
 30
0.0
 10
3.97517
 20
-3.23347
 30
0.0
 10
3.91008
 20
-3.31437
 30
0.0
 10
3.91008
 20
-3.31437
 30
0.0
 10
3.7034
 20
-3.5399
 30
0.0
 10
3.24197
 20
-4.24024
 30
0.0
 10
3.04014
 20
-4.32086
 30
0.0
 10
3.04014
 20
-4.32086
 30
0.0
 10
3.04014
 20
-4.32086
 30
0.0
 10
2.37372
 20
-3.98193
 30
0.0
 10
2.37372
 20
-3.98193
 30
0.0
 10
2.37372
 20
-3.98193
 30
0.0
 10
2.34267
 20
-4.04298
 30
0.0
 10
2.31442
 20
-4.09854
 30
0.0
 10
2.28305
 20
-4.1602
 30
0.0
 10
2.28305
 20
-4.1602
 30
0.0
 10
2.28305
 20
-4.1602
 30
0.0
 10
2.80813
 20
-4.42724
 30
0.0
 10
2.80813
 20
-4.42724
 30
0.0
  0
ELLIPSE
  5
6D
330
1F
100
AcDbEntity
  8
Livello 1
 62
   250
370
    20
100
AcDbEllipse
 10
3.83765
 20
-2.87496
 30
0.0
 11
0.0
 21
0.10451
 31
0.0
210
0.0
220
0.0
230
1.0
 40
1.0
 41
0.0
 42
6.283185307179586
  0
SPLINE
  5
6E
330
1F
100
AcDbEntity
  8
Livello 1
 62
   250
370
    20
100
AcDbSpline
210
0.0
220
0.0
230
1.0
 70
    11
 71
     3
 72
    20
 73
    16
 74
     0
 42
0.0000000001
 43
0.0000000001
 40
0.0
 40
0.0
 40
0.0
 40
0.0
 40
0.2
 40
0.2
 40
0.2
 40
0.2
 40
0.4
 40
0.4
 40
0.4
 40
0.4
 40
0.6
 40
0.6
 40
0.6
 40
0.6
 40
1.0
 40
1.0
 40
1.0
 40
1.0
 10
3.64023
 20
-0.44303
 30
0.0
 10
3.70946
 20
-0.39432
 30
0.0
 10
3.78594
 20
-0.38379
 30
0.0
 10
3.81108
 20
-0.41952
 30
0.0
 10
3.81108
 20
-0.41952
 30
0.0
 10
3.83622
 20
-0.45524
 30
0.0
 10
3.80049
 20
-0.52368
 30
0.0
 10
3.73127
 20
-0.57239
 30
0.0
 10
3.73127
 20
-0.57239
 30
0.0
 10
3.66205
 20
-0.6211
 30
0.0
 10
3.58556
 20
-0.63163
 30
0.0
 10
3.56042
 20
-0.59591
 30
0.0
 10
3.56042
 20
-0.59591
 30
0.0
 10
3.53528
 20
-0.56018
 30
0.0
 10
3.57101
 20
-0.49174
 30
0.0
 10
3.64023
 20
-0.44303
 30
0.0
  0
SPLINE
  5
6F
330
1F
100
AcDbEntity
  8
Livello 1
 62
   250
370
    20
100
AcDbSpline
210
0.0
220
0.0
230
1.0
 70
    11
 71
     3
 72
    80
 73
    76
 74
     0
 42
0.0000000001
 43
0.0000000001
 40
0.0
 40
0.0
 40
0.0
 40
0.0
 40
0.05
 40
0.05
 40
0.05
 40
0.05
 40
0.1
 40
0.1
 40
0.1
 40
0.1
 40
0.15
 40
0.15
 40
0.15
 40
0.15
 40
0.2
 40
0.2
 40
0.2
 40
0.2
 40
0.25
 40
0.25
 40
0.25
 40
0.25
 40
0.3
 40
0.3
 40
0.3
 40
0.3
 40
0.35
 40
0.35
 40
0.35
 40
0.35
 40
0.4
 40
0.4
 40
0.4
 40
0.4
 40
0.45
 40
0.45
 40
0.45
 40
0.45
 40
0.5
 40
0.5
 40
0.5
 40
0.5
 40
0.55
 40
0.55
 40
0.55
 40
0.55
 40
0.6
 40
0.6
 40
0.6
 40
0.6
 40
0.65
 40
0.65
 40
0.65
 40
0.65
 40
0.7
 40
0.7
 40
0.7
 40
0.7
 40
0.75
 40
0.75
 40
0.75
 40
0.75
 40
0.8
 40
0.8
 40
0.8
 40
0.8
 40
0.85
 40
0.85
 40
0.85
 40
0.85
 40
0.9
 40
0.9
 40
0.9
 40
0.9
 40
1.0
 40
1.0
 40
1.0
 40
1.0
 10
3.10993
 20
2.54592
 30
0.0
 10
3.15841
 20
2.60901
 30
0.0
 10
2.755
 20
2.99352
 30
0.0
 10
2.68924
 20
3.02462
 30
0.0
 10
2.68924
 20
3.02462
 30
0.0
 10
2.2936
 20
3.31414
 30
0.0
 10
1.4289
 20
3.44851
 30
0.0
 10
0.96154
 20
2.8466
 30
0.0
 10
0.96154
 20
2.8466
 30
0.0
 10
0.72704
 20
2.54457
 30
0.0
 10
0.68314
 20
1.86212
 30
0.0
 10
0.84105
 20
1.36962
 30
0.0
 10
0.84105
 20
1.36962
 30
0.0
 10
0.85682
 20
1.3267
 30
0.0
 10
0.95858
 20
1.17976
 30
0.0
 10
0.95943
 20
1.06512
 30
0.0
 10
0.95943
 20
1.06512
 30
0.0
 10
0.90716
 20
0.60456
 30
0.0
 10
0.87956
 20
0.34347
 30
0.0
 10
1.00917
 20
-0.19031
 30
0.0
 10
1.00917
 20
-0.19031
 30
0.0
 10
1.01663
 20
-0.27187
 30
0.0
 10
1.01871
 20
-0.33298
 30
0.0
 10
0.92204
 20
-0.40098
 30
0.0
 10
0.92204
 20
-0.40098
 30
0.0
 10
0.79532
 20
-0.52118
 30
0.0
 10
0.7141
 20
-0.62906
 30
0.0
 10
0.75966
 20
-0.82076
 30
0.0
 10
0.75966
 20
-0.82076
 30
0.0
 10
0.81374
 20
-1.10519
 30
0.0
 10
1.39769
 20
-1.56411
 30
0.0
 10
1.67322
 20
-1.47998
 30
0.0
 10
1.67322
 20
-1.47998
 30
0.0
 10
1.72798
 20
-1.46326
 30
0.0
 10
1.76047
 20
-1.42305
 30
0.0
 10
1.78622
 20
-1.37461
 30
0.0
 10
1.78622
 20
-1.37461
 30
0.0
 10
1.78622
 20
-1.37461
 30
0.0
 10
2.72179
 20
1.21912
 30
0.0
 10
2.72179
 20
1.21912
 30
0.0
 10
2.72179
 20
1.21912
 30
0.0
 10
2.72179
 20
1.21912
 30
0.0
 10
2.91018
 20
1.15197
 30
0.0
 10
2.91018
 20
1.15197
 30
0.0
 10
2.91018
 20
1.15197
 30
0.0
 10
2.91018
 20
1.15197
 30
0.0
 10
2.64185
 20
0.39919
 30
0.0
 10
2.64185
 20
0.39919
 30
0.0
 10
2.64185
 20
0.39919
 30
0.0
 10
2.81909
 20
0.3494
 30
0.0
 10
3.18846
 20
0.48985
 30
0.0
 10
3.31985
 20
0.60749
 30
0.0
 10
3.31985
 20
0.60749
 30
0.0
 10
3.35243
 20
0.63689
 30
0.0
 10
3.36496
 20
0.71607
 30
0.0
 10
3.35383
 20
0.76289
 30
0.0
 10
3.35383
 20
0.76289
 30
0.0
 10
3.33339
 20
0.84889
 30
0.0
 10
3.30802
 20
0.88826
 30
0.0
 10
3.30569
 20
0.99207
 30
0.0
 10
3.30569
 20
0.99207
 30
0.0
 10
3.27921
 20
1.29683
 30
0.0
 10
3.34002
 20
2.13331
 30
0.0
 10
3.22909
 20
2.32021
 30
0.0
 10
3.22909
 20
2.32021
 30
0.0
 10
3.22909
 20
2.32021
 30
0.0
 10
2.49415
 20
2.45748
 30
0.0
 10
2.49415
 20
2.45748
 30
0.0
 10
2.49415
 20
2.45748
 30
0.0
 10
2.50672
 20
2.52481
 30
0.0
 10
2.51817
 20
2.58608
 30
0.0
 10
2.53086
 20
2.65408
 30
0.0
 10
2.53086
 20
2.65408
 30
0.0
 10
2.53086
 20
2.65408
 30
0.0
 10
3.10993
 20
2.54592
 30
0.0
 10
3.10993
 20
2.54592
 30
0.0
  0
SPLINE
  5
70
330
1F
100
AcDbEntity
  8
Livello 1
 62
   250
370
    20
100
AcDbSpline
210
0.0
220
0.0
230
1.0
 70
    11
 71
     3
 72
    20
 73
    16
 74
     0
 42
0.0000000001
 43
0.0000000001
 40
0.0
 40
0.0
 40
0.0
 40
0.0
 40
0.2
 40
0.2
 40
0.2
 40
0.2
 40
0.4
 40
0.4
 40
0.4
 40
0.4
 40
0.6
 40
0.6
 40
0.6
 40
0.6
 40
1.0
 40
1.0
 40
1.0
 40
1.0
 10
2.91686
 20
0.60489
 30
0.0
 10
2.96263
 20
0.56973
 30
0.0
 10
3.02824
 20
0.57832
 30
0.0
 10
3.06341
 20
0.62409
 30
0.0
 10
3.06341
 20
0.62409
 30
0.0
 10
3.09858
 20
0.66986
 30
0.0
 10
3.08998
 20
0.73547
 30
0.0
 10
3.04421
 20
0.77064
 30
0.0
 10
3.04421
 20
0.77064
 30
0.0
 10
2.99844
 20
0.8058
 30
0.0
 10
2.93283
 20
0.79721
 30
0.0
 10
2.89767
 20
0.75144
 30
0.0
 10
2.89767
 20
0.75144
 30
0.0
 10
2.8625
 20
0.70567
 30
0.0
 10
2.87109
 20
0.64006
 30
0.0
 10
2.91686
 20
0.60489
 30
0.0
  0
SPLINE
  5
71
330
1F
100
AcDbEntity
  8
Livello 1
 62
   250
370
    20
100
AcDbSpline
210
0.0
220
0.0
230
1.0
 70
    11
 71
     3
 72
    20
 73
    16
 74
     0
 42
0.0000000001
 43
0.0000000001
 40
0.0
 40
0.0
 40
0.0
 40
0.0
 40
0.2
 40
0.2
 40
0.2
 40
0.2
 40
0.4
 40
0.4
 40
0.4
 40
0.4
 40
0.6
 40
0.6
 40
0.6
 40
0.6
 40
1.0
 40
1.0
 40
1.0
 40
1.0
 10
1.34228
 20
-1.12038
 30
0.0
 10
1.3675
 20
-1.20118
 30
0.0
 10
1.42173
 20
-1.25613
 30
0.0
 10
1.46344
 20
-1.24311
 30
0.0
 10
1.46344
 20
-1.24311
 30
0.0
 10
1.50514
 20
-1.23011
 30
0.0
 10
1.5185
 20
-1.15407
 30
0.0
 10
1.49329
 20
-1.07327
 30
0.0
 10
1.49329
 20
-1.07327
 30
0.0
 10
1.46808
 20
-0.99247
 30
0.0
 10
1.41384
 20
-0.93752
 30
0.0
 10
1.37214
 20
-0.95052
 30
0.0
 10
1.37214
 20
-0.95052
 30
0.0
 10
1.33044
 20
-0.96354
 30
0.0
 10
1.31707
 20
-1.03958
 30
0.0
 10
1.34228
 20
-1.12038
 30
0.0
  0
ENDSEC
  0
SECTION
  2
OBJECTS
  0
DICTIONARY
  5
C
330
0
100
AcDbDictionary
281
     1
  3
ACAD_GROUP
350
D
  3
ACAD_LAYOUT
350
1A
  3
ACAD_MATERIAL
350
3B
  3
ACAD_MLEADERSTYLE
350
93
  3
ACAD_MLINESTYLE
350
17
  3
ACAD_PLOTSETTINGS
350
19
  3
ACAD_PLOTSTYLENAME
350
E
  3
ACAD_TABLESTYLE
350
92
  3
ACAD_VISUALSTYLE
350
2A
  0
DICTIONARY
  5
D
102
{ACAD_REACTORS
330
C
102
}
330
C
100
AcDbDictionary
281
     1
  0
DICTIONARY
  5
1A
102
{ACAD_REACTORS
330
C
102
}
330
C
100
AcDbDictionary
281
     1
  3
Layout1
350
1E
  3
Layout2
350
26
  3
Model
350
22
  0
DICTIONARY
  5
3B
102
{ACAD_REACTORS
330
C
102
}
330
C
100
AcDbDictionary
281
     1
  3
ByBlock
350
3D
  3
ByLayer
350
3C
  3
Global
350
3E
  0
DICTIONARY
  5
93
102
{ACAD_REACTORS
330
C
102
}
330
C
100
AcDbDictionary
281
     1
  0
DICTIONARY
  5
17
102
{ACAD_REACTORS
330
C
102
}
330
C
100
AcDbDictionary
281
     1
  3
Standard
350
18
  0
DICTIONARY
  5
19
102
{ACAD_REACTORS
330
C
102
}
330
C
100
AcDbDictionary
281
     1
  0
ACDBDICTIONARYWDFLT
  5
E
102
{ACAD_REACTORS
330
C
102
}
330
C
100
AcDbDictionary
281
     1
  3
Normal
350
F
100
AcDbDictionaryWithDefault
340
F
  0
DICTIONARY
  5
92
102
{ACAD_REACTORS
330
C
102
}
330
C
100
AcDbDictionary
281
     1
  0
DICTIONARY
  5
2A
102
{ACAD_REACTORS
330
C
102
}
330
C
100
AcDbDictionary
281
     1
  3
2dWireframe
350
2F
  3
3D Hidden
350
31
  3
3dWireframe
350
30
  3
Basic
350
32
  3
Brighten
350
36
  3
ColorChange
350
3A
  3
Conceptual
350
34
  3
Dim
350
35
  3
Facepattern
350
39
  3
Flat
350
2B
  3
FlatWithEdges
350
2C
  3
Gouraud
350
2D
  3
GouraudWithEdges
350
2E
  3
Linepattern
350
38
  3
Realistic
350
33
  3
Thicken
350
37
  0
LAYOUT
  5
1E
102
{ACAD_REACTORS
330
1A
102
}
330
1A
100
AcDbPlotSettings
  1

  2
none_device
  4

  6

 40
0.0
 41
0.0
 42
0.0
 43
0.0
 44
0.0
 45
0.0
 46
0.0
 47
0.0
 48
0.0
 49
0.0
140
0.0
141
0.0
142
1.0
143
1.0
 70
   688
 72
     0
 73
     0
 74
     5
  7

 75
    16
 76
     0
 77
     2
 78
   300
147
1.0
148
0.0
149
0.0
100
AcDbLayout
  1
Layout1
 70
     1
 71
     1
 10
0.0
 20
0.0
 11
12.0
 21
9.0
 12
0.0
 22
0.0
 32
0.0
 14
1.000000000000000E+20
 24
1.000000000000000E+20
 34
1.000000000000000E+20
 15
-1.000000000000000E+20
 25
-1.000000000000000E+20
 35
-1.000000000000000E+20
146
0.0
 13
0.0
 23
0.0
 33
0.0
 16
1.0
 26
0.0
 36
0.0
 17
0.0
 27
1.0
 37
0.0
 76
     0
330
1B
  0
LAYOUT
  5
26
102
{ACAD_REACTORS
330
1A
102
}
330
1A
100
AcDbPlotSettings
  1

  2
none_device
  4

  6

 40
0.0
 41
0.0
 42
0.0
 43
0.0
 44
0.0
 45
0.0
 46
0.0
 47
0.0
 48
0.0
 49
0.0
140
0.0
141
0.0
142
1.0
143
1.0
 70
   688
 72
     0
 73
     0
 74
     5
  7

 75
    16
 76
     0
 77
     2
 78
   300
147
1.0
148
0.0
149
0.0
100
AcDbLayout
  1
Layout2
 70
     1
 71
     2
 10
0.0
 20
0.0
 11
0.0
 21
0.0
 12
0.0
 22
0.0
 32
0.0
 14
0.0
 24
0.0
 34
0.0
 15
0.0
 25
0.0
 35
0.0
146
0.0
 13
0.0
 23
0.0
 33
0.0
 16
1.0
 26
0.0
 36
0.0
 17
0.0
 27
1.0
 37
0.0
 76
     0
330
23
  0
LAYOUT
  5
22
102
{ACAD_REACTORS
330
1A
102
}
330
1A
100
AcDbPlotSettings
  1

  2
none_device
  4

  6

 40
0.0
 41
0.0
 42
0.0
 43
0.0
 44
0.0
 45
0.0
 46
0.0
 47
0.0
 48
0.0
 49
0.0
140
0.0
141
0.0
142
1.0
143
1.0
 70
  1712
 72
     0
 73
     0
 74
     0
  7

 75
     0
 76
     0
 77
     2
 78
   300
147
1.0
148
0.0
149
0.0
100
AcDbLayout
  1
Model
 70
     1
 71
     0
 10
0.0
 20
0.0
 11
12.0
 21
9.0
 12
0.0
 22
0.0
 32
0.0
 14
-14.31657
 24
-8.70511
 34
0.0
 15
14.31826
 25
8.70491
 35
0.0
146
0.0
 13
0.0
 23
0.0
 33
0.0
 16
1.0
 26
0.0
 36
0.0
 17
0.0
 27
1.0
 37
0.0
 76
     0
330
1F
331
29
  0
MATERIAL
  5
3D
102
{ACAD_REACTORS
330
3B
102
}
330
3B
100
AcDbMaterial
  1
ByBlock
 72
     1
 94
      127
  0
MATERIAL
  5
3C
102
{ACAD_REACTORS
330
3B
102
}
330
3B
100
AcDbMaterial
  1
ByLayer
 72
     1
 94
      127
  0
MATERIAL
  5
3E
102
{ACAD_REACTORS
330
3B
102
}
330
3B
100
AcDbMaterial
  1
Global
 72
     1
 94
      127
  0
MLINESTYLE
  5
18
102
{ACAD_REACTORS
330
17
102
}
330
17
100
AcDbMlineStyle
  2
Standard
 70
     0
  3

 62
   256
 51
90.0
 52
90.0
 71
     2
 49
0.5
 62
   256
  6
BYLAYER
 49
-0.5
 62
   256
  6
BYLAYER
  0
ACDBPLACEHOLDER
  5
F
102
{ACAD_REACTORS
330
E
102
}
330
E
  0
VISUALSTYLE
  5
2F
102
{ACAD_REACTORS
330
2A
102
}
102
{ACAD_XDICTIONARY
360
7A
102
}
330
2A
100
AcDbVisualStyle
  2
2dWireframe
 70
     4
 71
     0
 72
     2
 73
     0
 90
        0
 40
-0.6
 41
-30.0
 62
     5
 63
     7
421
 16777215
 74
     1
 91
        4
 64
     7
 65
   257
 75
     1
175
     1
 42
1.0
 92
        0
 66
   257
 43
1.0
 76
     1
 77
     6
 78
     2
 67
     7
 79
     5
170
     0
171
     0
290
     0
174
     0
 93
        1
 44
0.0
173
     0
291
     0
 45
0.0
  0
VISUALSTYLE
  5
31
102
{ACAD_REACTORS
330
2A
102
}
102
{ACAD_XDICTIONARY
360
7E
102
}
330
2A
100
AcDbVisualStyle
  2
3D Hidden
 70
     6
 71
     1
 72
     2
 73
     2
 90
        0
 40
-0.6
 41
-30.0
 62
     5
 63
     7
421
 16777215
 74
     2
 91
        2
 64
     7
 65
   257
 75
     2
175
     1
 42
40.0
 92
        0
 66
   257
 43
1.0
 76
     1
 77
     6
 78
     2
 67
     7
 79
     3
170
     0
171
     0
290
     0
174
     0
 93
        1
 44
0.0
173
     0
291
     0
 45
0.0
  0
VISUALSTYLE
  5
30
102
{ACAD_REACTORS
330
2A
102
}
102
{ACAD_XDICTIONARY
360
7C
102
}
330
2A
100
AcDbVisualStyle
  2
3dWireframe
 70
     5
 71
     0
 72
     2
 73
     0
 90
        0
 40
-0.6
 41
-30.0
 62
     5
 63
     7
421
 16777215
 74
     1
 91
        4
 64
     7
 65
   257
 75
     1
175
     1
 42
1.0
 92
        0
 66
   257
 43
1.0
 76
     1
 77
     6
 78
     2
 67
     7
 79
     5
170
     0
171
     0
290
     0
174
     0
 93
        1
 44
0.0
173
     0
291
     0
 45
0.0
  0
VISUALSTYLE
  5
32
102
{ACAD_REACTORS
330
2A
102
}
102
{ACAD_XDICTIONARY
360
80
102
}
330
2A
100
AcDbVisualStyle
  2
Basic
 70
     7
 71
     1
 72
     0
 73
     1
 90
        0
 40
-0.6
 41
-30.0
 62
     5
 63
     7
421
 16777215
 74
     0
 91
        4
 64
     7
 65
   257
 75
     1
175
     1
 42
1.0
 92
        8
 66
     7
 43
1.0
 76
     1
 77
     6
 78
     2
 67
     7
 79
     5
170
     0
171
     0
290
     0
174
     0
 93
        1
 44
0.0
173
     0
291
     1
 45
0.0
  0
VISUALSTYLE
  5
36
102
{ACAD_REACTORS
330
2A
102
}
102
{ACAD_XDICTIONARY
360
88
102
}
330
2A
100
AcDbVisualStyle
  2
Brighten
 70
    12
 71
     2
 72
     2
 73
     0
 90
        0
 40
-0.6
 41
-30.0
 62
     5
 63
     7
421
 16777215
 74
     1
 91
        4
 64
     7
 65
   257
 75
     1
175
     1
 42
1.0
 92
        8
 66
     7
 43
1.0
 76
     1
 77
     6
 78
     2
 67
     7
 79
     5
170
     0
171
     0
290
     0
174
     0
 93
        1
 44
50.0
173
     0
291
     1
 45
0.0
  0
VISUALSTYLE
  5
3A
102
{ACAD_REACTORS
330
2A
102
}
102
{ACAD_XDICTIONARY
360
90
102
}
330
2A
100
AcDbVisualStyle
  2
ColorChange
 70
    16
 71
     2
 72
     2
 73
     3
 90
        0
 40
-0.6
 41
-30.0
 62
     5
 63
     8
421
  8421504
 74
     1
 91
        4
 64
     7
 65
   257
 75
     1
175
     1
 42
1.0
 92
        8
 66
     8
424
  8421504
 43
1.0
 76
     1
 77
     6
 78
     2
 67
     7
 79
     5
170
     0
171
     0
290
     0
174
     0
 93
        1
 44
0.0
173
     0
291
     1
 45
0.0
  0
VISUALSTYLE
  5
34
102
{ACAD_REACTORS
330
2A
102
}
102
{ACAD_XDICTIONARY
360
84
102
}
330
2A
100
AcDbVisualStyle
  2
Conceptual
 70
     9
 71
     3
 72
     2
 73
     0
 90
        0
 40
-0.6
 41
-30.0
 62
     5
 63
     7
421
 16777215
 74
     2
 91
        2
 64
     7
 65
   257
 75
     1
175
     1
 42
40.0
 92
        8
 66
     7
 43
1.0
 76
     1
 77
     6
 78
     2
 67
     7
 79
     3
170
     0
171
     0
290
     0
174
     0
 93
        1
 44
0.0
173
     0
291
     0
 45
0.0
  0
VISUALSTYLE
  5
35
102
{ACAD_REACTORS
330
2A
102
}
102
{ACAD_XDICTIONARY
360
86
102
}
330
2A
100
AcDbVisualStyle
  2
Dim
 70
    11
 71
     2
 72
     2
 73
     0
 90
        0
 40
-0.6
 41
-30.0
 62
     5
 63
     7
421
 16777215
 74
     1
 91
        4
 64
     7
 65
   257
 75
     1
175
     1
 42
1.0
 92
        8
 66
     7
 43
1.0
 76
     1
 77
     6
 78
     2
 67
     7
 79
     5
170
     0
171
     0
290
     0
174
     0
 93
        1
 44
-50.0
173
     0
291
     1
 45
0.0
  0
VISUALSTYLE
  5
39
102
{ACAD_REACTORS
330
2A
102
}
102
{ACAD_XDICTIONARY
360
8E
102
}
330
2A
100
AcDbVisualStyle
  2
Facepattern
 70
    15
 71
     2
 72
     2
 73
     0
 90
        0
 40
-0.6
 41
-30.0
 62
     5
 63
     7
421
 16777215
 74
     1
 91
        4
 64
     7
 65
   257
 75
     1
175
     1
 42
1.0
 92
        8
 66
     7
 43
1.0
 76
     1
 77
     6
 78
     2
 67
     7
 79
     5
170
     0
171
     0
290
     0
174
     0
 93
        1
 44
0.0
173
     0
291
     1
 45
0.0
  0
VISUALSTYLE
  5
2B
102
{ACAD_REACTORS
330
2A
102
}
102
{ACAD_XDICTIONARY
360
72
102
}
330
2A
100
AcDbVisualStyle
  2
Flat
 70
     0
 71
     2
 72
     1
 73
     1
 90
        2
 40
-0.6
 41
30.0
 62
     5
 63
     7
421
 16777215
 74
     0
 91
        4
 64
     7
 65
   257
 75
     1
175
     1
 42
1.0
 92
        8
 66
     7
 43
1.0
 76
     1
 77
     6
 78
     2
 67
     7
 79
     5
170
     0
171
     0
290
     0
174
     0
 93
       13
 44
0.0
173
     0
291
     1
 45
0.0
  0
VISUALSTYLE
  5
2C
102
{ACAD_REACTORS
330
2A
102
}
102
{ACAD_XDICTIONARY
360
74
102
}
330
2A
100
AcDbVisualStyle
  2
FlatWithEdges
 70
     1
 71
     2
 72
     1
 73
     1
 90
        2
 40
-0.6
 41
30.0
 62
     5
 63
     7
421
 16777215
 74
     1
 91
        4
 64
     7
 65
   257
 75
     1
175
     1
 42
1.0
 92
        0
 66
   257
 43
1.0
 76
     1
 77
     6
 78
     2
 67
     7
 79
     5
170
     0
171
     0
290
     0
174
     0
 93
       13
 44
0.0
173
     0
291
     1
 45
0.0
  0
VISUALSTYLE
  5
2D
102
{ACAD_REACTORS
330
2A
102
}
102
{ACAD_XDICTIONARY
360
76
102
}
330
2A
100
AcDbVisualStyle
  2
Gouraud
 70
     2
 71
     2
 72
     2
 73
     1
 90
        2
 40
-0.6
 41
30.0
 62
     5
 63
     7
421
 16777215
 74
     0
 91
        4
 64
     7
 65
   257
 75
     1
175
     1
 42
1.0
 92
        0
 66
     7
 43
1.0
 76
     1
 77
     6
 78
     2
 67
     7
 79
     5
170
     0
171
     0
290
     0
174
     0
 93
       13
 44
0.0
173
     0
291
     1
 45
0.0
  0
VISUALSTYLE
  5
2E
102
{ACAD_REACTORS
330
2A
102
}
102
{ACAD_XDICTIONARY
360
78
102
}
330
2A
100
AcDbVisualStyle
  2
GouraudWithEdges
 70
     3
 71
     2
 72
     2
 73
     1
 90
        2
 40
-0.6
 41
30.0
 62
     5
 63
     7
421
 16777215
 74
     1
 91
        4
 64
     7
 65
   257
 75
     1
175
     1
 42
1.0
 92
        0
 66
   257
 43
1.0
 76
     1
 77
     6
 78
     2
 67
     7
 79
     5
170
     0
171
     0
290
     0
174
     0
 93
       13
 44
0.0
173
     0
291
     1
 45
0.0
  0
VISUALSTYLE
  5
38
102
{ACAD_REACTORS
330
2A
102
}
102
{ACAD_XDICTIONARY
360
8C
102
}
330
2A
100
AcDbVisualStyle
  2
Linepattern
 70
    14
 71
     2
 72
     2
 73
     0
 90
        0
 40
-0.6
 41
-30.0
 62
     5
 63
     7
421
 16777215
 74
     1
 91
        4
 64
     7
 65
   257
 75
     7
175
     7
 42
1.0
 92
        8
 66
     7
 43
1.0
 76
     1
 77
     6
 78
     2
 67
     7
 79
     5
170
     0
171
     0
290
     0
174
     0
 93
        1
 44
0.0
173
     0
291
     1
 45
0.0
  0
VISUALSTYLE
  5
33
102
{ACAD_REACTORS
330
2A
102
}
102
{ACAD_XDICTIONARY
360
82
102
}
330
2A
100
AcDbVisualStyle
  2
Realistic
 70
     8
 71
     2
 72
     2
 73
     0
 90
        0
 40
-0.6
 41
-30.0
 62
     5
 63
     7
421
 16777215
 74
     1
 91
        0
 64
     7
 65
   257
 75
     1
175
     1
 42
1.0
 92
        8
 66
     8
424
  7895160
 43
1.0
 76
     1
 77
     6
 78
     2
 67
     7
 79
     5
170
     0
171
     0
290
     0
174
     0
 93
       13
 44
0.0
173
     0
291
     0
 45
0.0
  0
VISUALSTYLE
  5
37
102
{ACAD_REACTORS
330
2A
102
}
102
{ACAD_XDICTIONARY
360
8A
102
}
330
2A
100
AcDbVisualStyle
  2
Thicken
 70
    13
 71
     2
 72
     2
 73
     0
 90
        0
 40
-0.6
 41
-30.0
 62
     5
 63
     7
421
 16777215
 74
     1
 91
        4
 64
     7
 65
   257
 75
     1
175
     1
 42
1.0
 92
       12
 66
     7
 43
1.0
 76
     1
 77
     6
 78
     2
 67
     7
 79
     5
170
     0
171
     0
290
     0
174
     0
 93
        1
 44
0.0
173
     0
291
     1
 45
0.0
  0
DICTIONARY
  5
7A
330
2F
100
AcDbDictionary
280
     1
281
     1
  3
ACAD_XREC_ROUNDTRIP
360
7B
  0
DICTIONARY
  5
7E
330
31
100
AcDbDictionary
280
     1
281
     1
  3
ACAD_XREC_ROUNDTRIP
360
7F
  0
DICTIONARY
  5
7C
330
30
100
AcDbDictionary
280
     1
281
     1
  3
ACAD_XREC_ROUNDTRIP
360
7D
  0
DICTIONARY
  5
80
330
32
100
AcDbDictionary
280
     1
281
     1
  3
ACAD_XREC_ROUNDTRIP
360
81
  0
DICTIONARY
  5
88
330
36
100
AcDbDictionary
280
     1
281
     1
  3
ACAD_XREC_ROUNDTRIP
360
89
  0
DICTIONARY
  5
90
330
3A
100
AcDbDictionary
280
     1
281
     1
  3
ACAD_XREC_ROUNDTRIP
360
91
  0
DICTIONARY
  5
84
330
34
100
AcDbDictionary
280
     1
281
     1
  3
ACAD_XREC_ROUNDTRIP
360
85
  0
DICTIONARY
  5
86
330
35
100
AcDbDictionary
280
     1
281
     1
  3
ACAD_XREC_ROUNDTRIP
360
87
  0
DICTIONARY
  5
8E
330
39
100
AcDbDictionary
280
     1
281
     1
  3
ACAD_XREC_ROUNDTRIP
360
8F
  0
DICTIONARY
  5
72
330
2B
100
AcDbDictionary
280
     1
281
     1
  3
ACAD_XREC_ROUNDTRIP
360
73
  0
DICTIONARY
  5
74
330
2C
100
AcDbDictionary
280
     1
281
     1
  3
ACAD_XREC_ROUNDTRIP
360
75
  0
DICTIONARY
  5
76
330
2D
100
AcDbDictionary
280
     1
281
     1
  3
ACAD_XREC_ROUNDTRIP
360
77
  0
DICTIONARY
  5
78
330
2E
100
AcDbDictionary
280
     1
281
     1
  3
ACAD_XREC_ROUNDTRIP
360
79
  0
DICTIONARY
  5
8C
330
38
100
AcDbDictionary
280
     1
281
     1
  3
ACAD_XREC_ROUNDTRIP
360
8D
  0
DICTIONARY
  5
82
330
33
100
AcDbDictionary
280
     1
281
     1
  3
ACAD_XREC_ROUNDTRIP
360
83
  0
DICTIONARY
  5
8A
330
37
100
AcDbDictionary
280
     1
281
     1
  3
ACAD_XREC_ROUNDTRIP
360
8B
  0
XRECORD
  5
7B
102
{ACAD_REACTORS
330
7A
102
}
330
7A
100
AcDbXrecord
280
     1
102
RTVSPropertyOp0
 70
     1
102
RTVSPropertyOp1
 70
     1
102
RTVSPropertyOp2
 70
     1
102
RTVSPropertyOp3
 70
     1
102
RTVSPropertyOp4
 70
     1
102
RTVSPropertyOp5
 70
     1
102
RTVSPropertyOp6
 70
     1
102
RTVSPropertyOp7
 70
     1
102
RTVSPropertyOp8
 70
     1
102
RTVSPropertyOp9
 70
     1
102
RTVSPropertyOp10
 70
     1
102
RTVSPropertyOp11
 70
     1
102
RTVSPropertyOp12
 70
     1
102
RTVSPropertyOp13
 70
     1
102
RTVSPropertyOp14
 70
     1
102
RTVSPropertyOp15
 70
     1
102
RTVSPropertyOp16
 70
     1
102
RTVSPropertyOp17
 70
     1
102
RTVSPropertyOp18
 70
     1
102
RTVSPropertyOp19
 70
     1
102
RTVSPropertyOp20
 70
     1
102
RTVSPropertyOp21
 70
     1
102
RTVSPropertyOp22
 70
     1
102
RTVSPropertyOp23
 70
     1
102
RTVSPropertyOp24
 70
     1
102
RTVSPropertyOp25
 70
     1
102
RTVSPropertyOp26
 70
     1
102
RTVSPropertyOp27
 70
     1
  0
XRECORD
  5
7F
102
{ACAD_REACTORS
330
7E
102
}
330
7E
100
AcDbXrecord
280
     1
102
RTVSPropertyOp0
 70
     1
102
RTVSPropertyOp1
 70
     1
102
RTVSPropertyOp2
 70
     1
102
RTVSPropertyOp3
 70
     1
102
RTVSPropertyOp4
 70
     1
102
RTVSPropertyOp5
 70
     1
102
RTVSPropertyOp6
 70
     1
102
RTVSPropertyOp7
 70
     1
102
RTVSPropertyOp8
 70
     1
102
RTVSPropertyOp9
 70
     1
102
RTVSPropertyOp10
 70
     1
102
RTVSPropertyOp11
 70
     1
102
RTVSPropertyOp12
 70
     1
102
RTVSPropertyOp13
 70
     1
102
RTVSPropertyOp14
 70
     1
102
RTVSPropertyOp15
 70
     1
102
RTVSPropertyOp16
 70
     1
102
RTVSPropertyOp17
 70
     1
102
RTVSPropertyOp18
 70
     1
102
RTVSPropertyOp19
 70
     1
102
RTVSPropertyOp20
 70
     1
102
RTVSPropertyOp21
 70
     1
102
RTVSPropertyOp22
 70
     1
102
RTVSPropertyOp23
 70
     1
102
RTVSPropertyOp24
 70
     1
102
RTVSPropertyOp25
 70
     1
102
RTVSPropertyOp26
 70
     1
102
RTVSPropertyOp27
 70
     1
  0
XRECORD
  5
7D
102
{ACAD_REACTORS
330
7C
102
}
330
7C
100
AcDbXrecord
280
     1
102
RTVSPropertyOp0
 70
     1
102
RTVSPropertyOp1
 70
     1
102
RTVSPropertyOp2
 70
     1
102
RTVSPropertyOp3
 70
     1
102
RTVSPropertyOp4
 70
     1
102
RTVSPropertyOp5
 70
     1
102
RTVSPropertyOp6
 70
     1
102
RTVSPropertyOp7
 70
     1
102
RTVSPropertyOp8
 70
     1
102
RTVSPropertyOp9
 70
     1
102
RTVSPropertyOp10
 70
     1
102
RTVSPropertyOp11
 70
     1
102
RTVSPropertyOp12
 70
     1
102
RTVSPropertyOp13
 70
     1
102
RTVSPropertyOp14
 70
     1
102
RTVSPropertyOp15
 70
     1
102
RTVSPropertyOp16
 70
     1
102
RTVSPropertyOp17
 70
     1
102
RTVSPropertyOp18
 70
     1
102
RTVSPropertyOp19
 70
     1
102
RTVSPropertyOp20
 70
     1
102
RTVSPropertyOp21
 70
     1
102
RTVSPropertyOp22
 70
     1
102
RTVSPropertyOp23
 70
     1
102
RTVSPropertyOp24
 70
     1
102
RTVSPropertyOp25
 70
     1
102
RTVSPropertyOp26
 70
     1
102
RTVSPropertyOp27
 70
     1
  0
XRECORD
  5
81
102
{ACAD_REACTORS
330
80
102
}
330
80
100
AcDbXrecord
280
     1
102
RTVSPropertyOp0
 70
     1
102
RTVSPropertyOp1
 70
     1
102
RTVSPropertyOp2
 70
     1
102
RTVSPropertyOp3
 70
     1
102
RTVSPropertyOp4
 70
     1
102
RTVSPropertyOp5
 70
     1
102
RTVSPropertyOp6
 70
     1
102
RTVSPropertyOp7
 70
     1
102
RTVSPropertyOp8
 70
     1
102
RTVSPropertyOp9
 70
     1
102
RTVSPropertyOp10
 70
     1
102
RTVSPropertyOp11
 70
     1
102
RTVSPropertyOp12
 70
     1
102
RTVSPropertyOp13
 70
     1
102
RTVSPropertyOp14
 70
     1
102
RTVSPropertyOp15
 70
     1
102
RTVSPropertyOp16
 70
     1
102
RTVSPropertyOp17
 70
     1
102
RTVSPropertyOp18
 70
     1
102
RTVSPropertyOp19
 70
     1
102
RTVSPropertyOp20
 70
     1
102
RTVSPropertyOp21
 70
     1
102
RTVSPropertyOp22
 70
     1
102
RTVSPropertyOp23
 70
     1
102
RTVSPropertyOp24
 70
     1
102
RTVSPropertyOp25
 70
     1
102
RTVSPropertyOp26
 70
     1
102
RTVSPropertyOp27
 70
     1
  0
XRECORD
  5
89
102
{ACAD_REACTORS
330
88
102
}
330
88
100
AcDbXrecord
280
     1
102
RTVSPropertyOp0
 70
     1
102
RTVSPropertyOp1
 70
     1
102
RTVSPropertyOp2
 70
     1
102
RTVSPropertyOp3
 70
     1
102
RTVSPropertyOp4
 70
     1
102
RTVSPropertyOp5
 70
     1
102
RTVSPropertyOp6
 70
     1
102
RTVSPropertyOp7
 70
     1
102
RTVSPropertyOp8
 70
     1
102
RTVSPropertyOp9
 70
     1
102
RTVSPropertyOp10
 70
     1
102
RTVSPropertyOp11
 70
     1
102
RTVSPropertyOp12
 70
     1
102
RTVSPropertyOp13
 70
     1
102
RTVSPropertyOp14
 70
     1
102
RTVSPropertyOp15
 70
     1
102
RTVSPropertyOp16
 70
     1
102
RTVSPropertyOp17
 70
     1
102
RTVSPropertyOp18
 70
     1
102
RTVSPropertyOp19
 70
     1
102
RTVSPropertyOp20
 70
     1
102
RTVSPropertyOp21
 70
     1
102
RTVSPropertyOp22
 70
     1
102
RTVSPropertyOp23
 70
     1
102
RTVSPropertyOp24
 70
     1
102
RTVSPropertyOp25
 70
     1
102
RTVSPropertyOp26
 70
     1
102
RTVSPropertyOp27
 70
     1
  0
XRECORD
  5
91
102
{ACAD_REACTORS
330
90
102
}
330
90
100
AcDbXrecord
280
     1
102
RTVSPropertyOp0
 70
     1
102
RTVSPropertyOp1
 70
     1
102
RTVSPropertyOp2
 70
     1
102
RTVSPropertyOp3
 70
     1
102
RTVSPropertyOp4
 70
     1
102
RTVSPropertyOp5
 70
     1
102
RTVSPropertyOp6
 70
     1
102
RTVSPropertyOp7
 70
     1
102
RTVSPropertyOp8
 70
     1
102
RTVSPropertyOp9
 70
     1
102
RTVSPropertyOp10
 70
     1
102
RTVSPropertyOp11
 70
     1
102
RTVSPropertyOp12
 70
     1
102
RTVSPropertyOp13
 70
     1
102
RTVSPropertyOp14
 70
     1
102
RTVSPropertyOp15
 70
     1
102
RTVSPropertyOp16
 70
     1
102
RTVSPropertyOp17
 70
     1
102
RTVSPropertyOp18
 70
     1
102
RTVSPropertyOp19
 70
     1
102
RTVSPropertyOp20
 70
     1
102
RTVSPropertyOp21
 70
     1
102
RTVSPropertyOp22
 70
     1
102
RTVSPropertyOp23
 70
     1
102
RTVSPropertyOp24
 70
     1
102
RTVSPropertyOp25
 70
     1
102
RTVSPropertyOp26
 70
     1
102
RTVSPropertyOp27
 70
     1
  0
XRECORD
  5
85
102
{ACAD_REACTORS
330
84
102
}
330
84
100
AcDbXrecord
280
     1
102
RTVSPropertyOp0
 70
     1
102
RTVSPropertyOp1
 70
     1
102
RTVSPropertyOp2
 70
     1
102
RTVSPropertyOp3
 70
     1
102
RTVSPropertyOp4
 70
     1
102
RTVSPropertyOp5
 70
     1
102
RTVSPropertyOp6
 70
     1
102
RTVSPropertyOp7
 70
     1
102
RTVSPropertyOp8
 70
     1
102
RTVSPropertyOp9
 70
     1
102
RTVSPropertyOp10
 70
     1
102
RTVSPropertyOp11
 70
     1
102
RTVSPropertyOp12
 70
     1
102
RTVSPropertyOp13
 70
     1
102
RTVSPropertyOp14
 70
     1
102
RTVSPropertyOp15
 70
     1
102
RTVSPropertyOp16
 70
     1
102
RTVSPropertyOp17
 70
     1
102
RTVSPropertyOp18
 70
     1
102
RTVSPropertyOp19
 70
     1
102
RTVSPropertyOp20
 70
     1
102
RTVSPropertyOp21
 70
     1
102
RTVSPropertyOp22
 70
     1
102
RTVSPropertyOp23
 70
     1
102
RTVSPropertyOp24
 70
     1
102
RTVSPropertyOp25
 70
     1
102
RTVSPropertyOp26
 70
     1
102
RTVSPropertyOp27
 70
     1
  0
XRECORD
  5
87
102
{ACAD_REACTORS
330
86
102
}
330
86
100
AcDbXrecord
280
     1
102
RTVSPropertyOp0
 70
     1
102
RTVSPropertyOp1
 70
     1
102
RTVSPropertyOp2
 70
     1
102
RTVSPropertyOp3
 70
     1
102
RTVSPropertyOp4
 70
     1
102
RTVSPropertyOp5
 70
     1
102
RTVSPropertyOp6
 70
     1
102
RTVSPropertyOp7
 70
     1
102
RTVSPropertyOp8
 70
     1
102
RTVSPropertyOp9
 70
     1
102
RTVSPropertyOp10
 70
     1
102
RTVSPropertyOp11
 70
     1
102
RTVSPropertyOp12
 70
     1
102
RTVSPropertyOp13
 70
     1
102
RTVSPropertyOp14
 70
     1
102
RTVSPropertyOp15
 70
     1
102
RTVSPropertyOp16
 70
     1
102
RTVSPropertyOp17
 70
     1
102
RTVSPropertyOp18
 70
     1
102
RTVSPropertyOp19
 70
     1
102
RTVSPropertyOp20
 70
     1
102
RTVSPropertyOp21
 70
     1
102
RTVSPropertyOp22
 70
     1
102
RTVSPropertyOp23
 70
     1
102
RTVSPropertyOp24
 70
     1
102
RTVSPropertyOp25
 70
     1
102
RTVSPropertyOp26
 70
     1
102
RTVSPropertyOp27
 70
     1
  0
XRECORD
  5
8F
102
{ACAD_REACTORS
330
8E
102
}
330
8E
100
AcDbXrecord
280
     1
102
RTVSPropertyOp0
 70
     1
102
RTVSPropertyOp1
 70
     1
102
RTVSPropertyOp2
 70
     1
102
RTVSPropertyOp3
 70
     1
102
RTVSPropertyOp4
 70
     1
102
RTVSPropertyOp5
 70
     1
102
RTVSPropertyOp6
 70
     1
102
RTVSPropertyOp7
 70
     1
102
RTVSPropertyOp8
 70
     1
102
RTVSPropertyOp9
 70
     1
102
RTVSPropertyOp10
 70
     1
102
RTVSPropertyOp11
 70
     1
102
RTVSPropertyOp12
 70
     1
102
RTVSPropertyOp13
 70
     1
102
RTVSPropertyOp14
 70
     1
102
RTVSPropertyOp15
 70
     1
102
RTVSPropertyOp16
 70
     1
102
RTVSPropertyOp17
 70
     1
102
RTVSPropertyOp18
 70
     1
102
RTVSPropertyOp19
 70
     1
102
RTVSPropertyOp20
 70
     1
102
RTVSPropertyOp21
 70
     1
102
RTVSPropertyOp22
 70
     1
102
RTVSPropertyOp23
 70
     1
102
RTVSPropertyOp24
 70
     1
102
RTVSPropertyOp25
 70
     1
102
RTVSPropertyOp26
 70
     1
102
RTVSPropertyOp27
 70
     1
  0
XRECORD
  5
73
102
{ACAD_REACTORS
330
72
102
}
330
72
100
AcDbXrecord
280
     1
102
RTVSPropertyOp0
 70
     1
102
RTVSPropertyOp1
 70
     1
102
RTVSPropertyOp2
 70
     1
102
RTVSPropertyOp3
 70
     1
102
RTVSPropertyOp4
 70
     1
102
RTVSPropertyOp5
 70
     1
102
RTVSPropertyOp6
 70
     1
102
RTVSPropertyOp7
 70
     1
102
RTVSPropertyOp8
 70
     1
102
RTVSPropertyOp9
 70
     1
102
RTVSPropertyOp10
 70
     1
102
RTVSPropertyOp11
 70
     1
102
RTVSPropertyOp12
 70
     1
102
RTVSPropertyOp13
 70
     1
102
RTVSPropertyOp14
 70
     1
102
RTVSPropertyOp15
 70
     1
102
RTVSPropertyOp16
 70
     1
102
RTVSPropertyOp17
 70
     1
102
RTVSPropertyOp18
 70
     1
102
RTVSPropertyOp19
 70
     1
102
RTVSPropertyOp20
 70
     1
102
RTVSPropertyOp21
 70
     1
102
RTVSPropertyOp22
 70
     1
102
RTVSPropertyOp23
 70
     1
102
RTVSPropertyOp24
 70
     1
102
RTVSPropertyOp25
 70
     1
102
RTVSPropertyOp26
 70
     1
102
RTVSPropertyOp27
 70
     1
  0
XRECORD
  5
75
102
{ACAD_REACTORS
330
74
102
}
330
74
100
AcDbXrecord
280
     1
102
RTVSPropertyOp0
 70
     1
102
RTVSPropertyOp1
 70
     1
102
RTVSPropertyOp2
 70
     1
102
RTVSPropertyOp3
 70
     1
102
RTVSPropertyOp4
 70
     1
102
RTVSPropertyOp5
 70
     1
102
RTVSPropertyOp6
 70
     1
102
RTVSPropertyOp7
 70
     1
102
RTVSPropertyOp8
 70
     1
102
RTVSPropertyOp9
 70
     1
102
RTVSPropertyOp10
 70
     1
102
RTVSPropertyOp11
 70
     1
102
RTVSPropertyOp12
 70
     1
102
RTVSPropertyOp13
 70
     1
102
RTVSPropertyOp14
 70
     1
102
RTVSPropertyOp15
 70
     1
102
RTVSPropertyOp16
 70
     1
102
RTVSPropertyOp17
 70
     1
102
RTVSPropertyOp18
 70
     1
102
RTVSPropertyOp19
 70
     1
102
RTVSPropertyOp20
 70
     1
102
RTVSPropertyOp21
 70
     1
102
RTVSPropertyOp22
 70
     1
102
RTVSPropertyOp23
 70
     1
102
RTVSPropertyOp24
 70
     1
102
RTVSPropertyOp25
 70
     1
102
RTVSPropertyOp26
 70
     1
102
RTVSPropertyOp27
 70
     1
  0
XRECORD
  5
77
102
{ACAD_REACTORS
330
76
102
}
330
76
100
AcDbXrecord
280
     1
102
RTVSPropertyOp0
 70
     1
102
RTVSPropertyOp1
 70
     1
102
RTVSPropertyOp2
 70
     1
102
RTVSPropertyOp3
 70
     1
102
RTVSPropertyOp4
 70
     1
102
RTVSPropertyOp5
 70
     1
102
RTVSPropertyOp6
 70
     1
102
RTVSPropertyOp7
 70
     1
102
RTVSPropertyOp8
 70
     1
102
RTVSPropertyOp9
 70
     1
102
RTVSPropertyOp10
 70
     1
102
RTVSPropertyOp11
 70
     1
102
RTVSPropertyOp12
 70
     1
102
RTVSPropertyOp13
 70
     1
102
RTVSPropertyOp14
 70
     1
102
RTVSPropertyOp15
 70
     1
102
RTVSPropertyOp16
 70
     1
102
RTVSPropertyOp17
 70
     1
102
RTVSPropertyOp18
 70
     1
102
RTVSPropertyOp19
 70
     1
102
RTVSPropertyOp20
 70
     1
102
RTVSPropertyOp21
 70
     1
102
RTVSPropertyOp22
 70
     1
102
RTVSPropertyOp23
 70
     1
102
RTVSPropertyOp24
 70
     1
102
RTVSPropertyOp25
 70
     1
102
RTVSPropertyOp26
 70
     1
102
RTVSPropertyOp27
 70
     1
  0
XRECORD
  5
79
102
{ACAD_REACTORS
330
78
102
}
330
78
100
AcDbXrecord
280
     1
102
RTVSPropertyOp0
 70
     1
102
RTVSPropertyOp1
 70
     1
102
RTVSPropertyOp2
 70
     1
102
RTVSPropertyOp3
 70
     1
102
RTVSPropertyOp4
 70
     1
102
RTVSPropertyOp5
 70
     1
102
RTVSPropertyOp6
 70
     1
102
RTVSPropertyOp7
 70
     1
102
RTVSPropertyOp8
 70
     1
102
RTVSPropertyOp9
 70
     1
102
RTVSPropertyOp10
 70
     1
102
RTVSPropertyOp11
 70
     1
102
RTVSPropertyOp12
 70
     1
102
RTVSPropertyOp13
 70
     1
102
RTVSPropertyOp14
 70
     1
102
RTVSPropertyOp15
 70
     1
102
RTVSPropertyOp16
 70
     1
102
RTVSPropertyOp17
 70
     1
102
RTVSPropertyOp18
 70
     1
102
RTVSPropertyOp19
 70
     1
102
RTVSPropertyOp20
 70
     1
102
RTVSPropertyOp21
 70
     1
102
RTVSPropertyOp22
 70
     1
102
RTVSPropertyOp23
 70
     1
102
RTVSPropertyOp24
 70
     1
102
RTVSPropertyOp25
 70
     1
102
RTVSPropertyOp26
 70
     1
102
RTVSPropertyOp27
 70
     1
  0
XRECORD
  5
8D
102
{ACAD_REACTORS
330
8C
102
}
330
8C
100
AcDbXrecord
280
     1
102
RTVSPropertyOp0
 70
     1
102
RTVSPropertyOp1
 70
     1
102
RTVSPropertyOp2
 70
     1
102
RTVSPropertyOp3
 70
     1
102
RTVSPropertyOp4
 70
     1
102
RTVSPropertyOp5
 70
     1
102
RTVSPropertyOp6
 70
     1
102
RTVSPropertyOp7
 70
     1
102
RTVSPropertyOp8
 70
     1
102
RTVSPropertyOp9
 70
     1
102
RTVSPropertyOp10
 70
     1
102
RTVSPropertyOp11
 70
     1
102
RTVSPropertyOp12
 70
     1
102
RTVSPropertyOp13
 70
     1
102
RTVSPropertyOp14
 70
     1
102
RTVSPropertyOp15
 70
     1
102
RTVSPropertyOp16
 70
     1
102
RTVSPropertyOp17
 70
     1
102
RTVSPropertyOp18
 70
     1
102
RTVSPropertyOp19
 70
     1
102
RTVSPropertyOp20
 70
     1
102
RTVSPropertyOp21
 70
     1
102
RTVSPropertyOp22
 70
     1
102
RTVSPropertyOp23
 70
     1
102
RTVSPropertyOp24
 70
     1
102
RTVSPropertyOp25
 70
     1
102
RTVSPropertyOp26
 70
     1
102
RTVSPropertyOp27
 70
     1
  0
XRECORD
  5
83
102
{ACAD_REACTORS
330
82
102
}
330
82
100
AcDbXrecord
280
     1
102
RTVSPropertyOp0
 70
     1
102
RTVSPropertyOp1
 70
     1
102
RTVSPropertyOp2
 70
     1
102
RTVSPropertyOp3
 70
     1
102
RTVSPropertyOp4
 70
     1
102
RTVSPropertyOp5
 70
     1
102
RTVSPropertyOp6
 70
     1
102
RTVSPropertyOp7
 70
     1
102
RTVSPropertyOp8
 70
     1
102
RTVSPropertyOp9
 70
     1
102
RTVSPropertyOp10
 70
     1
102
RTVSPropertyOp11
 70
     1
102
RTVSPropertyOp12
 70
     1
102
RTVSPropertyOp13
 70
     1
102
RTVSPropertyOp14
 70
     1
102
RTVSPropertyOp15
 70
     1
102
RTVSPropertyOp16
 70
     1
102
RTVSPropertyOp17
 70
     1
102
RTVSPropertyOp18
 70
     1
102
RTVSPropertyOp19
 70
     1
102
RTVSPropertyOp20
 70
     1
102
RTVSPropertyOp21
 70
     1
102
RTVSPropertyOp22
 70
     1
102
RTVSPropertyOp23
 70
     1
102
RTVSPropertyOp24
 70
     1
102
RTVSPropertyOp25
 70
     1
102
RTVSPropertyOp26
 70
     1
102
RTVSPropertyOp27
 70
     1
  0
XRECORD
  5
8B
102
{ACAD_REACTORS
330
8A
102
}
330
8A
100
AcDbXrecord
280
     1
102
RTVSPropertyOp0
 70
     1
102
RTVSPropertyOp1
 70
     1
102
RTVSPropertyOp2
 70
     1
102
RTVSPropertyOp3
 70
     1
102
RTVSPropertyOp4
 70
     1
102
RTVSPropertyOp5
 70
     1
102
RTVSPropertyOp6
 70
     1
102
RTVSPropertyOp7
 70
     1
102
RTVSPropertyOp8
 70
     1
102
RTVSPropertyOp9
 70
     1
102
RTVSPropertyOp10
 70
     1
102
RTVSPropertyOp11
 70
     1
102
RTVSPropertyOp12
 70
     1
102
RTVSPropertyOp13
 70
     1
102
RTVSPropertyOp14
 70
     1
102
RTVSPropertyOp15
 70
     1
102
RTVSPropertyOp16
 70
     1
102
RTVSPropertyOp17
 70
     1
102
RTVSPropertyOp18
 70
     1
102
RTVSPropertyOp19
 70
     1
102
RTVSPropertyOp20
 70
     1
102
RTVSPropertyOp21
 70
     1
102
RTVSPropertyOp22
 70
     1
102
RTVSPropertyOp23
 70
     1
102
RTVSPropertyOp24
 70
     1
102
RTVSPropertyOp25
 70
     1
102
RTVSPropertyOp26
 70
     1
102
RTVSPropertyOp27
 70
     1
  0
ENDSEC
  0
EOF
