<?xml version="1.0" encoding="UTF-8" standalone="no"?>
<svg
   xmlns:dc="http://purl.org/dc/elements/1.1/"
   xmlns:cc="http://creativecommons.org/ns#"
   xmlns:rdf="http://www.w3.org/1999/02/22-rdf-syntax-ns#"
   xmlns:svg="http://www.w3.org/2000/svg"
   xmlns="http://www.w3.org/2000/svg"
   xmlns:sodipodi="http://sodipodi.sourceforge.net/DTD/sodipodi-0.dtd"
   xmlns:inkscape="http://www.inkscape.org/namespaces/inkscape"
   version="1.1"
   width="120cm"
   height="80cm"
   id="svg130"
   viewBox="0 0 4535.4329 3023.6221"
   sodipodi:docname="هلال 1بقاعدة.svg"
   inkscape:version="0.92.4 (5da689c313, 2019-01-14)">
  <metadata
     id="metadata136">
    <rdf:RDF>
      <cc:Work
         rdf:about="">
        <dc:format>image/svg+xml</dc:format>
        <dc:type
           rdf:resource="http://purl.org/dc/dcmitype/StillImage" />
        <dc:title></dc:title>
      </cc:Work>
    </rdf:RDF>
  </metadata>
  <defs
     id="defs134" />
  <sodipodi:namedview
     pagecolor="#ffffff"
     bordercolor="#666666"
     borderopacity="1"
     objecttolerance="10"
     gridtolerance="10"
     guidetolerance="10"
     inkscape:pageopacity="0"
     inkscape:pageshadow="2"
     inkscape:window-width="1600"
     inkscape:window-height="847"
     id="namedview132"
     showgrid="false"
     units="cm"
     inkscape:zoom="0.080634386"
     inkscape:cx="-2687.2895"
     inkscape:cy="1901.1209"
     inkscape:window-x="-8"
     inkscape:window-y="-8"
     inkscape:window-maximized="1"
     inkscape:current-layer="svg130" />
  <path
     d="m 787.87193,368.71943 c -5.468,-3.4214 -11.2104,-6.2878 -17.1292,-8.5941 l 5.7912,31.604 30.2023,-7.8556 c -5.6191,-5.7297 -11.9355,-10.8284 -18.8643,-15.1543 z m -102.1538,906.27497 h 0.047 c -57.748,-11.186 -114.4151,-33.1523 -167.0876,-66.5682 -225.7158,-143.1964 -292.6109,-442.25754 -149.4148,-667.97291 143.1961,-225.71546 442.2575,-292.61056 667.97317,-149.41416 32.6293,20.7003 61.9172,44.6749 87.7539,71.1975 -1.5549,-1.0185 -3.0969,-2.0486 -4.6715,-3.0472 -175.57597,-111.3874 -408.20517,-59.3521 -519.59257,116.22376 -111.3868,175.57567 -59.3518,408.20487 116.2245,519.59201 164.0347,104.0655 377.85597,65.4712 496.09297,-83.2294 -7.8395,16.0355 -16.6082,31.8121 -26.3937,47.2362 -74.6217,117.6239 -191.57717,192.0901 -318.41597,216.1964 v 8.5856 13.0516 h -32.1406 v -13.0516 h -43.0467 v 13.0516 h -32.1406 v -13.0516 h -43.0467 v 13.0516 h -32.1406 v -13.0516 z m 75.0801,-900.00017 -17.8579,14.4921 3.8134,22.9946 17.9793,-17.8174 z m -2.1486,-18.732 c -14.1806,-3.5776 -29.0461,-4.1042 -43.5971,-1.4255 l 19.6069,25.6258 z m -71.5663,45.5965 -22.3115,-5.5956 4.7398,19.4887 23.8224,8.5612 z m 10.6475,-43.1853 c -14.3172,3.7176 -27.5783,10.4717 -38.9166,19.6994 l 31.9601,11.8125 z m -48.9198,99.1222 c -13.4368,-10.4976 -21.8449,-18.0632 -25.2266,-22.7041 -3.1927,14.0215 -3.4257,28.6767 -0.5397,42.99586 8.778,-9.2656 17.3715,-16.03016 25.7663,-20.29176 z m -11.2337,-55.791 c -4.4501,6.8457 -8.026,14.1373 -10.6991,21.7038 l 30.6967,-5.6325 -8.094,-31.0937 c -4.3946,4.5878 -8.3846,9.6122 -11.9036,15.0224 z m -45.2026,122.48196 -30.695,5.6375 8.0966,31.0932 c 4.3937,-4.5927 8.384,-9.6162 11.8993,-15.0259 4.4538,-6.8462 8.0274,-14.1346 10.6991,-21.7048 z m -32.2719,-62.01466 -19.8576,14.61056 24.1713,4.8611 13.364,-13.1723 z m 0.3401,107.35366 -31.9629,-11.8109 -6.9525,31.5111 c 14.3192,-3.7219 27.5743,-10.4712 38.9154,-19.7002 z m -10.7007,-37.3825 -23.8187,-8.5566 6.2504,22.4543 22.3117,5.5942 z m -21.405,-43.7853 c -0.8124,7.5172 -2.8293,13.4637 -6.0554,17.835 16.0214,11.5092 34.5614,14.178 55.6203,8.0076 -9.6446,-16.9617 -26.1675,-25.5776 -49.5649,-25.8426 z m 30.2428,-61.39556 c -21.6938,3.3023 -37.3765,13.5479 -47.037,30.7417 4.7716,2.6028 9.1109,7.1445 13.019,13.61506 21.0966,-10.11996 32.4368,-24.90686 34.018,-44.35676 z m -51.5784,93.36436 c -4.3361,1.5106 -14.1559,3.687 -18.7239,4.1471 -1.3187,26.1363 5.809,43.5328 21.3828,52.2017 10.4568,-14.4315 9.5698,-33.213 -2.6589,-56.3488 z m -21.0237,-50.5743 c -25.8726,5.324 -17.6573,42.4199 8.0433,36.3155 25.8747,-5.3172 17.6587,-42.41586 -8.0433,-36.3155 z m -1.3844,97.6813 -23.9851,24.2022 c 14.1769,3.5785 29.0498,4.1009 43.5972,1.4256 z m -12.0901,-32.015 -17.9781,17.8166 3.9294,19.6656 17.8622,-14.4916 z m -29.7788,20.7513 -30.2071,7.8525 c 5.6197,5.7325 11.939,10.8318 18.8637,15.1571 5.4726,3.4181 11.2108,6.289 17.1335,8.5944 z m 12.7163,-51.6694 c -21.0997,10.1237 -32.44,24.9114 -34.0212,44.3565 21.6975,-3.2983 37.3768,-13.547 47.0373,-30.7408 -4.7687,-2.6034 -9.1063,-7.1425 -13.0161,-13.6157 z m 140.7673,-34.6918 c -8.7777,9.2696 -17.3661,16.0333 -25.7663,20.2918 13.4407,10.497 21.8497,18.0666 25.2283,22.7081 3.1952,-14.0236 3.4254,-28.677 0.538,-42.9999 z m -2.2889,-10.33536 c -3.4291,-14.2024 -9.8266,-27.3878 -18.6435,-38.7502 -1.1027,5.6333 -5.5301,16.047 -13.2806,31.2353 9.4104,0.314 20.0534,2.8196 31.9241,7.5149 z m -239.554,498.71333 c 8.9541,-2.9257 18.4788,-8.2931 28.5718,-16.1113 0.6622,14.5987 -1.8141,29.0455 -7.1135,42.4128 -2.6323,-5.1066 -9.7807,-13.8716 -21.4583,-26.3015 z m -2.5047,-38.9891 c 9.9822,-13.8243 15.9506,-23.4321 17.9065,-28.8312 6.971,12.5781 11.2756,26.5887 12.4914,41.1451 -11.0109,-6.4545 -21.1484,-10.5585 -30.3979,-12.3139 z m -4.7469,-56.7125 c 6.1804,5.3359 11.6456,11.3431 16.3199,17.8656 l -31.0509,3.1388 -0.885,-32.1176 c 5.4983,3.1824 10.7297,6.8972 15.616,11.1132 z m 31.5825,154.22514 c 2.1722,-2.0684 4.2789,-4.2284 6.3046,-6.4684 11.817,-13.07964 20.4814,-28.45074 25.5923,-44.94584 7.1833,15.7079 17.746,29.84 31.1405,41.29344 3.2641,2.7921 6.6626,5.3929 10.1716,7.7978 -12.4778,-3.4548 -25.486,-5.0201 -38.4576,-4.7338 -11.5285,1.2305 -23.9528,2.912 -34.7514,7.0568 z m 102.0697,-248.41104 -31.114,-2.4276 -0.1527,32.1295 c 5.4252,-3.3111 10.5706,-7.143 15.3564,-11.4692 6.0616,-5.4746 11.3856,-11.6017 15.9103,-18.2327 z m -15.2791,-68.2195 -22.9416,9.0261 22.1148,10.9006 16.2961,-9.3021 z m 5.7144,-66.28137 c -4.4073,-4.71 -9.2219,-8.9538 -14.3507,-12.7014 l -2.5123,32.0317 31.2072,0.1571 c -3.9609,-6.9798 -8.7574,-13.5284 -14.3442,-19.4874 z m -32.9315,170.12807 -27.862,-19.6169 -14.8056,28.6722 c 14.7948,0.077 29.338,-3.0453 42.6676,-9.0553 z m -0.7509,-38.8763 -20.8256,-14.3822 0.2798,23.3065 20.1291,11.1319 z m -9.453,-47.8117 c -2.7141,7.0569 -6.1894,12.2865 -10.4289,15.6841 12.532,15.2345 29.766,22.5711 51.7034,22.0107 -4.9695,-18.8682 -18.7285,-31.4353 -41.2745,-37.6948 z m 44.9842,-51.5801 c -21.8152,-2.37477 -39.6015,3.5034 -53.3503,17.6429 3.9438,3.7403 6.9723,9.2432 9.0893,16.4999 22.9869,-4.3682 37.7418,-15.7499 44.261,-34.1428 z m -29.6263,-32.74237 -20.9787,9.4246 -2.2141,23.20357 21.9489,-12.60767 z m -44.1822,109.74617 c -4.5783,0.3472 -14.6279,-0.069 -19.1611,-0.796 -7.981,24.9225 -5.5556,43.5654 7.2726,55.9403 13.8095,-11.2652 17.7715,-29.6453 11.8885,-55.1443 z m 46.9119,-128.40207 c -12.7876,-7.0966 -27.0204,-11.42 -41.7716,-12.5646 l 12.3752,29.7989 z m -62.3455,218.91287 c -11.5401,-0.053 -22.8965,-1.7725 -33.7481,-5.0174 1.8771,1.7351 3.7054,3.528 5.476,5.3986 14.1159,14.9281 24.0224,33.0642 29.042,52.5892 6.6192,-19.0383 17.9966,-36.2948 33.3054,-49.9972 3.0104,-2.6963 6.1495,-5.2112 9.3929,-7.5481 -13.9496,4.1338 -28.6713,5.7348 -43.4682,4.5749 z m 8.091,-144.7864 c -26.3724,-1.493 -27.9508,36.4689 -1.5443,37.1634 26.3724,1.5001 27.9513,-36.4649 1.5443,-37.1634 z m 10.2733,-16.3119 c 7.9809,-24.92307 5.5573,-43.56967 -7.2712,-55.94057 -13.8095,11.2651 -17.7726,29.6447 -11.8848,55.14457 4.5777,-0.3473 14.6231,0.068 19.156,0.796 z m -36.6758,110.3675 -29.3921,17.2374 c 12.7839,7.0963 27.0249,11.4177 41.7716,12.5649 z m -3.4704,-34.0456 -21.9478,12.6071 -1.2484,20.0155 20.9826,-9.4232 z m 136.3983,-31.6712 c -10.8624,6.7068 -20.899,11.0404 -30.1107,13.0009 10.2974,13.5946 16.4823,23.0683 18.557,28.4212 6.6866,-12.734 10.669,-26.8375 11.5537,-41.4221 z m 0.4394,-10.5766 c 0.3299,-14.6066 -2.4701,-28.9925 -8.0759,-42.23677 -2.5115,5.16187 -9.4629,14.09077 -20.8511,26.78197 9.015,2.7179 18.6585,7.8707 28.927,15.4548 z m 4.1071,-97.68497 c 9.7665,-1.1778 19.2818,-3.5413 28.3447,-6.9951 l -0.4569,0.5423 c -11.2249,13.5882 -19.1979,29.3253 -23.5707,46.0315 -7.8737,-15.3691 -19.0542,-29.0177 -32.9436,-39.8647 l -0.5664,-0.4295 c 9.5998,1.4148 19.3969,1.673 29.1929,0.7155 z m -66.4909,364.61787 30.8809,-4.5102 2.3088,32.04684 c -5.6349,-2.93954 -11.0262,-6.41734 -16.0914,-10.41284 -6.4154,-5.055 -12.1388,-10.811 -17.0983,-17.1238 z m 10.6654,-69.0908 23.4958,7.4656 -21.333,12.3605 -16.8843,-8.187 z m -10.1503,-65.7485 c 4.081,-4.9952 8.6,-9.5524 13.4654,-13.636 l 4.6567,31.7908 -31.1261,2.2516 c 3.4835,-7.2298 7.8296,-14.0857 13.004,-20.4064 z m 44.2766,167.53414 26.4826,-21.44294 16.6967,27.61374 c -14.7566,1.0698 -29.4764,-1.069 -43.1793,-6.1708 z m -1.8604,-38.83944 19.8133,-15.7474 1.2852,23.2725 -19.3365,12.4583 z m 6.2226,-48.3384 c 3.1816,6.859 6.9999,11.8437 11.4582,14.9488 -11.4812,16.0415 -28.184,24.5185 -50.1094,25.4319 3.6918,-19.1594 16.5761,-32.6217 38.6512,-40.3807 z m -48.3449,-48.4441 c 21.6063,-3.8336 39.7471,0.8376 54.4142,14.0221 -3.6839,3.9963 -6.3363,9.6903 -7.9617,17.0728 -23.2279,-2.8151 -38.7136,-13.1811 -46.4525,-31.0949 z m 27.3617,-34.6569 21.5637,7.9954 3.767,23.0023 -22.7458,-11.1062 z m 51.4488,106.533 c 4.5916,0.039 14.5905,-1.0505 19.0645,-2.0806 9.6358,24.3309 8.4673,43.0945 -3.5011,56.3026 -14.5344,-10.313 -19.7212,-28.3859 -15.5634,-54.222 z m -55.4249,-124.9636 c 12.2828,-7.939 26.1929,-13.2081 40.8339,-15.3403 l -10.3468,30.5626 z m -45.2747,105.7427 c 11.2878,5.9624 21.5926,9.6126 30.9152,10.9503 -9.3617,14.2551 -14.8969,24.1225 -16.6073,29.6027 -7.5266,-12.2564 -12.4467,-26.0611 -14.3079,-40.553 z m -1.1486,-10.5236 c -1.3096,-14.5516 0.5182,-29.0925 5.2228,-42.6832 2.852,4.9816 10.387,13.4237 22.6015,25.3219 -8.8121,3.3171 -18.0882,9.1054 -27.8243,17.3613 z m 38.1736,149.73484 19.336,-12.4594 1.7645,19.9791 -19.8153,15.7527 z m 29.8687,63.0045 21.3369,-12.3602 16.8803,8.1882 -14.7175,11.6382 z m -26.449,-22.0941 c 11.4783,-16.0412 28.1818,-24.5151 50.1095,-25.433 -3.6899,19.1642 -16.5762,32.6228 -38.6544,40.3864 -3.1808,-6.8593 -6.9959,-11.8483 -11.4551,-14.9534 z m -27.362,-78.3952 c 14.7529,-1.0732 29.4801,1.0684 43.1799,6.1696 l -26.4793,21.4433 z m 82.3751,117.0215 c 8.8155,-3.3207 18.0921,-9.1063 27.8277,-17.3653 1.3102,14.5548 -0.5213,29.0974 -5.2211,42.6872 -2.8568,-4.985 -10.3878,-13.4231 -22.6066,-25.3219 z m -4.2349,-38.8391 c 9.3577,-14.2543 14.8932,-24.1181 16.607,-29.5988 7.5232,12.2558 12.4464,26.0611 14.3082,40.5493 -11.287,-5.9587 -21.5969,-9.6083 -30.9152,-10.9505 z m -7.263,-56.4455 c 6.4114,5.0556 12.138,10.8142 17.0978,17.1227 l -30.881,4.5159 -2.3116,-32.0468 c 5.6341,2.935 11.0256,6.4134 16.0948,10.4082 z m 235.6472,176.6999 c 4.0811,-4.9952 8.6001,-9.5525 13.4657,-13.636 l 4.6565,31.7908 -31.1261,2.2513 c 3.4835,-7.2295 7.8299,-14.0857 13.0039,-20.4061 z m 27.6557,-2.7448 21.564,7.9952 3.7667,23.0023 -22.7458,-11.1059 z m -3.9762,-18.4308 c 12.2828,-7.9387 26.193,-13.2078 40.8342,-15.34 l -10.347,30.5623 z m 47.763,54.7319 c -9.6358,-24.3309 -8.4691,-43.0983 3.4999,-56.3023 14.5346,10.3127 19.7223,28.3847 15.5594,54.2225 -4.5905,-0.039 -14.5854,1.0497 -19.0593,2.0798 z m 34.6501,-34.5116 19.3363,-12.4594 1.7645,19.9792 -19.8153,15.7527 z m -23.942,-37.4847 c 14.7529,-1.0732 29.4801,1.0683 43.1796,6.1696 l -26.4793,21.4432 z m 70.8769,21.7369 c 6.4114,5.0556 12.1383,10.8141 17.0978,17.1226 l -30.8807,4.5159 -2.3116,-32.0468 c 5.6341,2.935 11.0253,6.4134 16.0945,10.4083 z m -303.5369,-34.475 30.8806,-4.5102 2.3088,32.0468 c -5.635,-2.9395 -11.0262,-6.4173 -16.0914,-10.4128 -6.4154,-5.055 -12.1385,-10.811 -17.098,-17.1238 z m 10.665,-69.0908 23.4958,7.4656 -21.3329,12.3605 -16.884,-8.187 z m -10.1503,-65.7485 c 4.0811,-4.9952 8.6001,-9.5524 13.4657,-13.636 l 4.6568,31.7908 -31.1261,2.2516 c 3.4835,-7.2298 7.8296,-14.0857 13.0036,-20.4064 z m 44.2769,167.5341 26.4827,-21.4429 16.6963,27.6137 c -14.7563,1.0698 -29.476,-1.069 -43.179,-6.1708 z m -1.8604,-38.8394 19.8131,-15.7474 1.2855,23.2725 -19.3366,12.4583 z m 6.2224,-48.3384 c 3.1816,6.859 7.0001,11.8437 11.4585,14.9488 -11.4812,16.0415 -28.1844,24.5185 -50.1095,25.4318 3.6916,-19.1593 16.5762,-32.6216 38.651,-40.3806 z m -48.3449,-48.4441 c 21.6065,-3.8336 39.7474,0.8376 54.4144,14.0221 -3.6839,3.9963 -6.3366,9.6903 -7.9617,17.0728 -23.2279,-2.8151 -38.7136,-13.1811 -46.4527,-31.0949 z m 78.8108,71.8761 c 4.5915,0.039 14.5905,-1.0508 19.0644,-2.0806 9.6358,24.3306 8.4674,43.0945 -3.5011,56.3026 -14.5346,-10.313 -19.7215,-28.3859 -15.5633,-54.222 z m 36.3393,37.425 30.4826,15.2257 c -12.2788,7.9385 -26.1972,13.2058 -40.8339,15.3403 z m 1.1772,-34.2014 22.7447,11.1053 2.5888,19.8864 -21.5677,-7.9934 z m 34.863,10.0981 31.1293,-2.2561 c -3.483,7.2329 -7.8319,14.0902 -13.0023,20.4089 -4.0864,4.9932 -8.5997,9.5536 -13.4696,13.6381 z m -173.0795,-32.5426 c 11.2882,5.9624 21.5927,9.6126 30.9155,10.9503 -9.3619,14.2551 -14.8969,24.1225 -16.6076,29.6027 -7.5262,-12.2564 -12.4463,-26.0611 -14.3079,-40.553 z m -1.1483,-10.5236 c -1.3096,-14.5516 0.5182,-29.0925 5.2229,-42.6832 2.8519,4.9816 10.387,13.4237 22.6014,25.3219 -8.812,3.3171 -18.0881,9.1054 -27.8243,17.3613 z m -17.3639,-77.0184 c 9.7665,-1.1778 19.2816,-3.5414 28.3448,-6.9954 l -0.4572,0.5426 c -11.2247,13.5881 -19.198,29.3252 -23.5704,46.0315 -7.8741,-15.3692 -19.0542,-29.0177 -32.944,-39.8648 l -0.5663,-0.4294 c 9.6001,1.4148 19.3972,1.673 29.1931,0.7155 z m 181.3147,-610.13137 c 1.6067,-0.8742 3.2176,-1.7394 4.8351,-2.5912 0.8904,-25.0979 -6.262,-41.8771 -21.4608,-50.3337 -10.4565,14.4315 -9.5709,33.2122 2.6631,56.348 3.1385,-1.0936 9.1497,-2.5356 13.9626,-3.4231 z m -51.7609,33.58 c 7.3318,-5.6069 14.8346,-10.9377 22.4895,-15.9939 l 0.024,-0.033 c -16.0185,-11.5095 -34.5577,-14.1752 -55.6202,-8.0082 7.2005,12.6675 18.2372,20.6771 33.1069,24.0347 z m -27.9621,23.48786 c 5.0531,-4.6559 10.2099,-9.1667 15.4636,-13.5292 l -7.1232,-1.43176 -13.3599,13.17146 z m -18.0269,17.6944 c 2.253,-2.3556 4.5309,-4.6794 6.8329,-6.9712 -3.2204,-0.9902 -6.5429,-2.1623 -9.968,-3.5178 0.8609,3.5645 1.9088,7.0651 3.1351,10.489 z m -26.8608,31.1369 c 2.8162,-3.6224 5.6829,-7.1881 8.602,-10.6911 -1.2966,-2.5337 -2.5038,-5.114 -3.6184,-7.7366 -1.1696,6.2676 -2.8372,12.4296 -4.9836,18.4277 z m -57.5039,101.0812 c 3.8925,-9.9516 8.2071,-19.8082 12.9489,-29.5469 l -0.5099,-3.4807 c -4.8657,4.0836 -9.3844,8.6409 -13.4657,13.6361 -5.1741,6.3207 -9.5202,13.1765 -13.0037,20.4063 z m -15.3788,48.06567 c 1.9967,-7.9359 4.2435,-15.83747 6.7442,-23.69367 -4.9281,-5.334 -8.233,-9.4691 -9.9128,-12.403 -4.7046,13.5907 -6.5324,28.13187 -5.2228,42.68347 2.836,-2.4052 5.6333,-4.6003 8.3914,-6.5868 z m -5.6614,26.1774 c 0.4544,-2.5073 0.9363,-5.0123 1.4398,-7.515 -0.9993,-0.4989 -2.0061,-1.0159 -3.0215,-1.5522 0.3926,3.0557 0.9215,6.0809 1.5817,9.0672 z m -6.389,75.2714 c -0.1332,-13.9416 0.455,-27.9207 1.7844,-41.8796 -0.5621,-1.0222 -1.1092,-2.0526 -1.6412,-3.0906 -4.3727,16.7062 -12.3452,32.447 -23.5693,46.0392 -1.9241,2.3278 -3.9327,4.5793 -6.0108,6.7422 9.0864,-3.9597 19.4459,-6.1651 29.4369,-7.8112 z m 10.8573,89.1423 c -0.3946,-1.6634 -0.7801,-3.3293 -1.1531,-4.9975 -3.1142,-13.9224 -5.4879,-28.0109 -7.1125,-42.2014 -2.0999,-2.5489 -4.5422,-4.8135 -7.3301,-6.7915 -11.969,13.2041 -13.1357,31.9717 -3.4999,56.3026 4.4739,-1.0301 14.4686,-2.1192 19.059,-2.0798 z m 12.8387,43.2323 c -2.7131,-7.5614 -5.1959,-15.1991 -7.4518,-22.9003 -3.4268,-2.071 -7.8292,-3.0946 -13.1374,-2.4344 -26.3004,2.4696 -22.1771,40.2429 4.0354,36.976 8.8832,-0.8328 14.2911,-5.6945 16.5538,-11.6413 z m 26.774,59.1522 c -4.8242,-8.7072 -9.3112,-17.5768 -13.4617,-26.5841 l -0.068,-0.033 3.7655,22.9983 z m 14.2674,23.7663 c -0.5443,-0.8402 -1.0899,-1.679 -1.628,-2.5226 l -27.3464,-13.6593 -10.3512,30.56604 c 14.0408,-2.0475 27.4201,-6.9786 39.3256,-14.38414 z m 56.4667,68.84414 c -8.6777,-8.4489 -16.9129,-17.2354 -24.6994,-26.3256 l 2.0724,15.9463 22.7458,11.1061 z m 51.6056,42.4843 c -9.1523,-6.3411 -17.9623,-13.0022 -26.428,-19.9576 -20.9256,6.2989 -15.7306,39.1195 8.7778,36.0652 11.0335,-1.0344 16.7102,-8.2823 17.6502,-16.1076 z m 59.347,34.1365 c -14.7788,-6.91 -29.295,-14.8002 -43.4719,-23.6775 -1.4567,3.5436 -3.272,6.4959 -5.4468,8.8566 13.4059,12.0509 29.7131,16.9917 48.9187,14.8209 z m 62.757,23.1772 c -7.5356,-2.0852 -15.0361,-4.3982 -22.4912,-6.9432 -2.0681,3.0351 -4.2826,5.9865 -6.641,8.8427 -1.9242,2.3278 -3.9328,4.5794 -6.0109,6.7422 10.6039,-4.6208 22.9411,-6.8528 34.4033,-8.5946 0.2466,-0.017 0.4932,-0.032 0.7398,-0.047 z m 244.31327,0.044 c 3.3279,-2.5336 6.6266,-5.1145 9.8924,-7.7462 -4.828,-0.3371 -9.6948,-0.3334 -14.5644,0.021 z m -13.5388,9.9218 c 0.7344,-0.5173 1.4666,-1.0391 2.1985,-1.5613 -0.1791,-0.1318 -0.358,-0.2627 -0.54,-0.3917 -0.5782,0.6381 -1.1307,1.2892 -1.6585,1.953 z m -20.9594,13.9199 c 0.9148,-0.5715 1.8269,-1.1475 2.738,-1.7258 l 8.185,-24.1772 c -11.3816,3.3548 -22.9045,6.2073 -34.53277,8.5478 -1.7061,0.9686 -3.3854,1.9866 -5.0351,3.053 z m -23.42607,13.6921 c 3.27457,-1.7861 6.52987,-3.6141 9.76477,-5.4824 l -11.00747,-4.0814 z m -24.2597,12.3112 c 4.2667,-2.0084 8.5056,-4.0842 12.7145,-6.2263 l -3.8874,-26.5399 c -4.8657,4.0836 -9.3847,8.6408 -13.4657,13.636 -5.1741,6.3207 -9.5205,13.1766 -13.004,20.4064 z m -43.0793,17.6709 c 1.2663,-0.4459 2.5308,-0.8975 3.7934,-1.3544 4.2636,-17.3792 12.401,-33.7589 24.025,-47.8352 1.641,-1.9854 3.3449,-3.8968 5.1012,-5.7543 -10.6092,3.9659 -21.8245,6.4437 -33.3351,7.2714 -14.6857,2.1506 -29.4817,1.5415 -43.6771,-1.6467 3.3928,2.1136 6.6935,4.4125 9.8785,6.9007 14.6548,11.4423 26.2924,26.005 34.2141,42.4185 z m -21.0432,6.8493 c 1.574,-0.4708 3.1456,-0.9504 4.7148,-1.4383 -0.7699,-1.3963 -1.5721,-2.7748 -2.4063,-4.1343 -0.4754,1.5202 -1.2453,3.3781 -2.3085,5.5726 z m -54.4476,12.7455 c 7.6873,-1.3147 15.3411,-2.8185 22.9507,-4.5207 5.0482,-1.1294 10.0766,-2.346 15.0843,-3.6451 0.5799,-1.8635 1.063,-3.7874 1.4451,-5.7736 -15.9112,0.6661 -29.0707,5.3121 -39.4801,13.9394 z m -119.2791,4.7188 c 12.2426,1.1157 24.4993,1.73 36.739,1.8592 -11.0075,-4.545 -23.4442,-5.5873 -37.3076,-3.1277 0.1848,0.4275 0.375,0.8495 0.5686,1.2685 z m -72.085,-12.4563 c 10.1395,2.6051 20.3318,4.8439 30.5572,6.7337 4.3497,-9.6321 9.9901,-18.731 16.8426,-27.0295 1.641,-1.9851 3.3449,-3.8965 5.1012,-5.754 -10.6092,3.9659 -21.8248,6.4437 -33.3351,7.2714 -14.6858,2.1507 -29.4818,1.5415 -43.6774,-1.6466 3.3931,2.1135 6.6937,4.4124 9.8788,6.9004 5.2803,4.1229 10.1684,8.6507 14.6327,13.5246 z m -119.3599,-49.5915 c 6.4548,3.8242 12.9674,7.4744 19.5333,10.9476 12.8214,-0.818 25.7533,0.1761 38.2484,3.0445 -3.6124,-2.2465 -7.1231,-4.6934 -10.5083,-7.3378 -13.8903,-10.8468 -25.0707,-24.4956 -32.9451,-39.8685 -3.0566,11.6777 -7.8724,22.8836 -14.3283,33.2142 z m -24.5732,-15.6164 c 2.1537,1.4658 4.3239,2.9157 6.5089,4.3518 0.9088,-1.6481 1.7708,-3.3191 2.5852,-5.0108 z m -51.3329,-40.5102 c 11.3703,10.3703 23.3563,20.2487 35.945,29.5827 3.6187,-0.1449 7.3466,-0.5562 11.1841,-1.2382 -7.7372,-17.9093 -23.2231,-28.2762 -46.4553,-31.0938 -0.2078,0.9442 -0.4326,1.8606 -0.6738,2.7493 z m -56.5237,-62.0141 c 4.9037,6.4928 9.9927,12.8716 15.2674,19.1265 3.6309,-0.3963 7.2768,-0.6582 9.5715,-0.6387 4.1632,-25.8378 -1.0247,-43.9098 -15.5591,-54.2225 -8.3455,9.2064 -11.4378,21.119 -9.2798,35.7347 z m -28.0326,-41.7198 c 4.2706,7.1802 8.7417,14.2589 13.4189,21.2213 l 3.1175,1.5565 10.347,-30.5623 c -9.3356,1.3595 -18.3741,3.9952 -26.8834,7.7845 z m -20.6246,-38.80884 c 1.0834,2.2975 2.1832,4.58874 3.3051,6.87004 1.4908,-2.3074 2.8849,-4.66894 4.18,-7.07894 z m -8.6063,-19.4071 c 0.9944,2.3893 2.0015,4.7738 3.0367,7.1473 l 0.2815,-0.035 c -0.9533,-2.5069 -2.0599,-4.877 -3.3182,-7.1118 z m -15.243,-42.3658 c 1.332,4.3603 2.7243,8.7032 4.1859,13.0241 l 6.0347,2.2172 15.22,-10.9729 -16.4996,-8.93 z m -9.5488,-36.5513 c 0.1788,0.8209 0.352,1.6435 0.5354,2.4636 1.5761,7.046 3.3191,14.055 5.2249,21.0206 8.473,-6.8687 14.0122,-15.742 16.6138,-26.6233 -8.1283,-0.021 -15.5857,1.0256 -22.3741,3.1391 z m -8.9989,-136.336 c -0.7631,9.1293 -1.2484,18.2645 -1.4632,27.3932 1.9227,1.6344 3.9004,3.1935 5.9289,4.6746 l 2.5129,-32.0315 z m 4.2679,-34.8636 c -1.2263,7.5824 -2.2567,15.1801 -3.0963,22.7863 16.0305,-0.8008 29.512,-6.8224 40.4427,-18.0635 -3.9413,-3.7397 -6.969,-9.2398 -9.087,-16.4996 -11.4698,2.1807 -20.8894,6.107 -28.2594,11.7768 z m 4.9359,-25.793 c -0.6814,3.0776 -1.3294,6.1586 -1.946,9.2435 l 11.5129,-4.5289 z m 9.8286,-36.96147 c -2.5081,8.04727 -4.7772,16.13707 -6.8224,24.25827 5.8609,3.9218 12.8741,7.0178 21.0413,9.2863 2.7133,-7.0571 6.1849,-12.291 10.4255,-15.6883 -6.8202,-8.2931 -15.0355,-14.2441 -24.6444,-17.85627 z m 10.9542,-31.1318 c -2.1796,5.5418 -4.2395,11.1104 -6.1886,16.7015 v 0.1581 l 20.8281,14.387 -0.2798,-23.3065 z m 12.3389,-28.491 c -2.3904,5.0451 -4.68,10.1177 -6.8714,15.215 l 15.4519,10.8807 14.809,-28.6715 c -7.9157,-0.0431 -15.7623,0.8319 -23.3895,2.5758 z m 24.4738,-45.0128 c -6.533,10.5767 -12.5833,21.3186 -18.1576,32.1996 15.4358,-3.4889 31.4966,-4.2837 47.1676,-2.245 l -1.0114,-0.7413 c -11.0307,-8.164 -20.4607,-18.0694 -27.9986,-29.2133 z m 24.0179,-35.1671 c -5.0224,6.6753 -9.8934,13.519 -14.5998,20.535 2.2734,3.8999 4.8007,7.645 7.5659,11.2107 1.1061,-5.6378 5.5313,-16.0469 13.2855,-31.2369 -2.0268,-0.0683 -4.1108,-0.2378 -6.2516,-0.5088 z m 20.8576,-25.7511 c -4.5068,5.1678 -8.9098,10.4621 -13.212,15.872 l 0.4936,0.1761 19.8612,-14.6123 z m 22.9088,-24.3995 c -4.4921,4.447 -8.9022,9.0043 -13.2318,13.663 2.9919,0.3611 6.1166,0.5604 9.375,0.5978 0.6086,-5.6364 1.8921,-10.3912 3.8568,-14.2608 z m 36.2574,-32.24576 c -5.5948,4.4654 -11.0971,9.0746 -16.5033,13.824 4.877,-1.4085 12.5583,-3.0413 16.4438,-3.4325 0.1831,-3.6328 0.2026,-7.0962 0.06,-10.3915 z m 32.6214,-23.7515 c -6.2918,4.1675 -12.4926,8.5 -18.595,12.9946 l 1.692,10.203 17.9793,-17.8174 z m 44.1215,-35.6479 c 0.9062,0.5207 1.8989,1.8292 2.7924,2.3808 15.759,9.7461 28.4981,22.4887 37.3918,38.3468 1.3643,-18.1273 7.2885,-35.8019 17.4615,-51.2884 2.0001,-3.0469 4.1541,-5.9658 6.4408,-8.7531 -11.2028,6.8312 -23.665,11.6337 -36.8314,14.0468 -7.901,2.0585 -15.9406,3.1975 -23.968,3.439 -0.9797,0.5392 -2.3111,1.2807 -3.2871,1.8281 z m -11.9154,12.8877 c 5.1684,3.6238 9.9555,7.6949 14.322,12.147 l -30.2023,7.856 -1.7572,-9.5899 c 5.6807,-3.53 11.8242,-7.1448 17.6375,-10.4131 z m 225.0076,-53.6128 c -5.1338,-0.036 -10.2645,0.018 -15.3898,0.1551 7.6357,2.5849 15.2135,5.6701 21.8653,9.7217 -1.7651,-2.4245 -3.4498,-4.9281 -5.0403,-7.4954 -0.4884,-0.7892 -0.9666,-1.5834 -1.4352,-2.3814 z m 46.8465,2.7295 c -8.2304,-0.9043 -16.4701,-1.5877 -24.7102,-2.0429 1.7649,3.9208 3.7843,7.7482 6.0554,11.4553 3.3713,5.5015 7.2241,10.6322 11.4942,15.3394 z m 32.7019,4.7925 c -6.7935,-1.2489 -13.6026,-2.3386 -20.4208,-3.2748 l -3.907,14.3631 22.4527,-4.9924 z m 85.4155,27.413 c 2.9245,0.2019 5.8485,0.4349 8.7719,0.7016 -2.7301,-1.1483 -5.4669,-2.2686 -8.2106,-3.3593 z m -24.1914,-0.9388 c 3.9107,0.033 7.8233,0.1244 11.7369,0.2727 l 1.4601,-6.406 c -6.4925,-2.3808 -13.0178,-4.6097 -19.5715,-6.6807 l -1.2212,6.3057 z m -45.8447,2.2241 c 5.5154,-0.584 11.046,-1.0545 16.5869,-1.4106 3.8256,-4.8574 6.6209,-10.8391 8.3857,-17.9461 -8.4704,-2.3703 -16.9806,-4.4881 -25.5208,-6.3539 -2.3786,9.4743 -2.196,18.044 0.5482,25.7106 z m -38.624,5.9933 c 8.9756,-1.8417 18.0153,-3.3784 27.102,-4.6058 l -2.355,-12.2199 -32.2671,10.9483 c 2.4154,2.0761 4.9246,4.0374 7.5201,5.8774 z m -67.8059,-57.0011 h 17.0079 v -5.6693 h -17.0079 z m -61.7165,5.1599 16.8622,-2.2198 -0.7398,-5.6208 -16.8622,2.2198 z m -60.5148,13.1715 16.4281,-4.4019 -1.4675,-5.4763 -16.4281,4.4019 z m -58.2781,20.9574 15.713,-6.5087 -2.1696,-5.2378 -15.713,6.5086 z m -51.9228,25.2802 14.7975,-8.3843 -2.7947,-4.9323 -14.7974,8.384 z m -49.2678,56.575 13.4932,-10.3538 -3.4512,-4.4978 -13.4932,10.3538 z m -4.7217,-18.1435 13.4932,-10.3538 -3.4512,-4.4977 -13.4932,10.3538 z m -45.8217,41.66416 12.0262,-12.02616 -4.0087,-4.0088 -12.0263,12.02626 z m -39.9918,47.2887 10.3538,-13.4932 -4.4977,-3.4511 -10.3538,13.4931 z m -33.4769,52.1042 8.504,-14.7291 -4.9099,-2.8346 -8.504,14.7291 z m -26.3897,56.0279 6.5087,-15.713 -5.2379,-2.1696 -6.5086,15.713 z m -18.8506,58.99327 4.4019,-16.4282 -5.4763,-1.4675 -4.4019,16.4282 z m -10.9894,60.9488 2.2198,-16.8622 -5.6208,-0.7398 -2.2198,16.8622 z m -2.9401,61.8622 v -17.0079 h -5.6693 v 17.0079 z m 5.1599,61.7164 -2.2198,-16.8621 -5.6208,0.7398 2.2198,16.8622 z m 13.1715,60.5149 -4.4019,-16.4282 -5.4763,1.4675 4.4019,16.4282 z m 20.9574,58.2781 -6.5087,-15.713 -5.2378,2.1696 6.5086,15.713 z m 28.385,55.04404 -8.504,-14.7291 -4.9099,2.8346 8.504,14.7291 z m 35.3267,50.8682 -10.3538,-13.4932 -4.4977,3.4512 10.3538,13.4932 z m 41.6642,45.8218 -12.0262,-12.0263 -4.0088,4.0088 12.0263,12.0263 z m 47.2887,39.9918 -13.4932,-10.3539 -3.4512,4.4978 13.4932,10.3538 z m 52.1042,33.4768 -14.7291,-8.5039 -2.8346,4.9099 14.7291,8.5039 z m 56.0279,26.3897 -15.713,-6.5086 -2.1696,5.2379 15.713,6.5086 z m 58.9932,18.8507 -16.4281,-4.4019 -1.4675,5.4762 16.4281,4.402 z m 245.0424,-4.4019 -16.4282,4.4019 1.4675,5.4763 16.4282,-4.402 z m 58.2781,-20.9574 -15.7131,6.5086 2.1697,5.2379 15.713,-6.5086 z m 55.04397,-28.385 -14.7292,8.5039 2.8347,4.9099 14.7291,-8.5039 z m 50.8682,-35.3268 -13.4932,10.3539 3.4512,4.4977 13.4932,-10.3538 z m 45.8218,-41.6642 -12.0263,12.0263 4.0088,4.0088 12.0263,-12.0263 z m 39.9917,-47.2887 -10.3538,13.4932 4.4978,3.4512 10.3538,-13.4932 z m -151.4109,-695.64837 14.7292,8.504 2.8346,-4.9099 -14.7291,-8.504 z m -56.02787,-26.3897 15.7131,6.5087 2.1696,-5.2379 -15.713,-6.5086 z m -58.9932,-18.8506 16.4282,4.4019 1.4675,-5.4763 -16.4282,-4.4019 z m -60.9488,-10.9894 16.8621,2.2198 0.7399,-5.6208 -16.8622,-2.2198 z m 82.0088,65.505 17.007,0.1377 0.046,-5.669 -17.0071,-0.1377 z m -49.2916,3.9444 16.8797,-2.0835 -0.6945,-5.6265 -16.8797,2.0832 z m 148.41687,7.6819 16.3919,4.5348 1.5117,-5.464 -16.3919,-4.5349 z m -48.62207,-9.0936 16.8437,2.3565 0.7855,-5.6146 -16.8437,-2.3567 z m 150.72657,708.10607 -14.7974,8.3844 2.7947,4.9325 14.7977,-8.3843 z m -91.658,39.494 -16.4633,4.2687 1.4227,5.4879 16.4633,-4.2687 z m 47.683,-16.7754 -15.7651,6.3811 2.1268,5.2551 15.7654,-6.3811 z m -163.44707,31.0632 17.0071,0.1377 -0.046,5.6691 -17.007,-0.1378 z m 50.5384,-1.7875 16.8797,-2.0832 0.6945,5.6265 -16.8797,2.0834 z m -149.0485,-14.2359 16.3919,4.5348 -1.5118,5.4641 -16.3919,-4.5349 z m 49.2896,11.2079 16.8438,2.3564 -0.7855,5.6146 -16.8438,-2.3564 z m -140.2959,-52.1816 14.6596,8.6227 -2.8743,4.8867 -14.6597,-8.6227 z m 44.7199,23.4371 15.66,6.6357 -2.2119,5.22 -15.66,-6.6357 z m -122.0207,-86.5689 11.9284,12.1232 -4.041,3.9762 -11.9285,-12.1232 z m 37.1412,34.0671 13.4087,10.4626 -3.4874,4.4694 -13.409,-10.4624 z m -95.4683,-115.05464 8.3843,14.7977 -4.9326,2.7946 -8.3843,-14.7974 z m 27.0692,42.37314 10.2441,13.5765 -4.5255,3.4147 -10.2442,-13.5766 z m -62.4476,-135.69704 4.2687,16.4633 -5.4879,1.4227 -4.2687,-16.463 z m 15.1906,47.7893 6.3811,15.7651 -5.2552,2.1271 -6.381,-15.7651 z m -25.2096,-147.0901 -0.1378,17.007 -5.669,-0.046 0.1378,-17.007 z m 2.315,49.9465 2.0832,16.8797 -5.6265,0.6945 -2.0832,-16.8797 z m 13.7084,-148.4567 -4.5349,16.3919 -5.4641,-1.5114 4.5349,-16.3922 z m -10.6804,48.6978 -2.3564,16.8438 -5.6146,-0.7855 2.3564,-16.8437 z m 51.654,-139.70407 -8.6227,14.6597 -4.8866,-2.8743 8.6227,-14.6597 z m -22.9096,44.1281 -6.6356,15.66 -5.22,-2.2119 6.6356,-15.66 z m 86.0415,-121.4288 -12.1233,11.9284 -3.9761,-4.041 12.1232,-11.9285 z m -33.5396,36.5493 -10.4624,13.4087 -4.4696,-3.4874 10.4626,-13.409 z m 114.5271,-94.87636 -14.7974,8.3843 -2.795,-4.9326 14.7974,-8.3843 z m -41.8456,26.4773 -13.5766,10.24406 -3.4146,-4.5255 13.5766,-10.24416 z m 135.1695,-61.8557 -16.4634,4.2687 -1.4227,-5.4879 16.4634,-4.2687 z m -47.2618,14.5987 -15.7651,6.3811 -2.1272,-5.2552 15.7655,-6.381 z"
     style="fill:none;stroke:#1b1918;stroke-width:0.56690001;stroke-linecap:butt;stroke-linejoin:miter;stroke-dasharray:none"
     id="path2"
     inkscape:connector-curvature="0" />
  <path
     d="m 1312.0732,1303.9321 h 43.27 v -7.0866 h 70.8661 v 7.0866 h 152.6653 v -7.0866 h 70.8661 v 7.0866 h 152.6655 v -7.0866 h 70.8662 v 7.0866 h 152.6652 v -7.0866 h 70.8661 v 7.0866 h 43.2698 v 41.749 h 7.0866 v 42.7274 h -7.0866 v 92.047 h 7.0866 v 42.7275 h -7.0866 v 41.7492 h -43.2698 v 7.0866 h -70.8661 v -7.0866 h -152.6652 v 7.0866 h -70.8662 v -7.0866 h -152.6655 v 7.0866 h -70.8661 v -7.0866 h -152.6653 v 7.0866 h -70.8661 v -7.0866 h -43.27 v -41.7492 h -7.0866 v -42.7275 h 7.0866 v -92.047 h -7.0866 v -42.7274 h 7.0866 z m 354.8832,31.2874 h -32.1407 v 7.0867 h 32.1407 z m 43.0466,0 h 32.1406 v 7.0867 h -32.1406 z m 75.1873,0 h 32.1406 v 7.0867 h -32.1406 z m -118.2339,191.3387 h -32.1407 v 7.0866 h 32.1407 z m 43.0466,0 h 32.1406 v 7.0866 h -32.1406 z m 75.1873,0 h 32.1406 v 7.0866 h -32.1406 z M 1658.976,1384.7779 h 28.5001 v -7.37 h -28.5001 z m 134.1949,0 h -28.5 v -7.37 h 28.5 z m -134.1949,106.6769 h 28.5001 v -7.3701 h -28.5001 z m 134.1949,0 h -28.5 v -7.3701 h 28.5 z m -67.0974,-79.5227 c 12.4265,0 22.5,10.0736 22.5,22.5001 0,12.4266 -10.0735,22.5 -22.5,22.5 -12.4266,0 -22.5,-10.0734 -22.5,-22.5 0,-12.4265 10.0734,-22.5001 22.5,-22.5001 z"
     style="fill:none;stroke:#1b1918;stroke-width:0.5;stroke-linecap:butt;stroke-linejoin:miter;stroke-dasharray:none"
     id="path4"
     inkscape:connector-curvature="0" />
  <path
     d="m 447.20383,1382.9904 h 7.8046 v -43.0724 h 7.0866 v 43.0724 h 828.00027 v -43.0724 h 7.0866 v 43.0724 h 7.8047 v -86.1449 H 447.20383 Z m 58.1613,-71.9717 h 70.8661 v -7.0866 h -70.8661 z m 223.5313,0 h 70.8662 v -7.0866 h -70.8662 z m 223.5317,0 h 70.86607 v -7.0866 h -70.86607 z m 294.39747,0 h -70.8661 v -7.0866 h 70.8661 z"
     style="fill:none;stroke:#1b1918;stroke-width:0.5;stroke-linecap:butt;stroke-linejoin:miter;stroke-dasharray:none"
     id="path6"
     inkscape:connector-curvature="0" />
  <path
     d="m 1304.9866,1469.1354 h -7.8047 v 43.0724 h -7.0866 v -43.0724 h -261 v 43.0724 h -7.0866 v -43.0724 h -7.8046 v 86.1449 h 290.7825 z m -234.142,7.0866 v 7.0866 h 42.7274 v -7.0866 z m 134.7743,0 v 7.0866 h 42.7275 v -7.0866 z"
     style="fill:none;stroke:#1b1918;stroke-width:0.5;stroke-linecap:butt;stroke-linejoin:miter;stroke-dasharray:none"
     id="path8"
     inkscape:connector-curvature="0" />
  <path
     d="M 1261.8254,494.84059 V 361.10863 H 1128.0933 V 494.84059 Z M 1214.802,370.10863 v 9 h -39.685 v -9 z m 0,115.73196 v -9 h -39.685 v 9 z m -22.0929,-74.07286 c 8.219,0 14.8819,6.6628 14.8819,14.8819 0,8.219 -6.6629,14.8818 -14.8819,14.8818 -8.2191,0 -14.8819,-6.6628 -14.8819,-14.8818 0,-8.2191 6.6628,-14.8819 14.8819,-14.8819 z"
     style="fill:none;stroke:#1b1918;stroke-width:0.5;stroke-linecap:butt;stroke-linejoin:miter;stroke-dasharray:none"
     id="path10"
     inkscape:connector-curvature="0" />
  <path
     d="m 992.39293,464.37843 v -8.3931 h -5.6693 v -22.172 h -184.252 v 22.172 h -5.6693 v 8.3931 8.39306 h 5.6693 v 22.172 h 184.252 v -22.172 h 5.6693 z"
     style="fill:none;stroke:#1b1918;stroke-width:0.5;stroke-linecap:butt;stroke-linejoin:miter;stroke-dasharray:none"
     id="path12"
     inkscape:connector-curvature="0" />
  <path
     d="m 992.39293,525.50869 v 8.3931 h 5.6693 v 22.172 h 184.25197 v -22.172 h 5.6693 v -8.3931 -8.3931 h -5.6693 v -22.1721 H 998.06223 v 22.1721 h -5.6693 z m 97.79527,11.2498 c 2.071,0 3.7499,-1.6789 3.7499,-3.7499 0,-2.071 -1.6789,-3.75 -3.7499,-3.75 -2.071,0 -3.75,1.679 -3.75,3.75 0,2.071 1.679,3.7499 3.75,3.7499 z m 0,-14.9998 c 2.071,0 3.7499,-1.6789 3.7499,-3.7499 0,-2.071 -1.6789,-3.75 -3.7499,-3.75 -2.071,0 -3.75,1.679 -3.75,3.75 0,2.071 1.679,3.7499 3.75,3.7499 z"
     style="fill:none;stroke:#1b1918;stroke-width:0.5;stroke-linecap:butt;stroke-linejoin:miter;stroke-dasharray:none"
     id="path14"
     inkscape:connector-curvature="0" />
  <path
     d="m 992.39293,525.50869 v 8.3931 h -5.6693 v 22.172 h -184.252 v -22.172 h -5.6693 v -8.3931 -8.3931 h 5.6693 v -22.1721 h 184.252 v 22.1721 h 5.6693 z"
     style="fill:none;stroke:#1b1918;stroke-width:0.5;stroke-linecap:butt;stroke-linejoin:miter;stroke-dasharray:none"
     id="path16"
     inkscape:connector-curvature="0" />
  <path
     d="m 992.39293,647.76919 v 8.3931 h 5.6693 v 22.17197 h 184.25197 v -22.17197 h 5.6693 v -8.3931 -8.3931 h -5.6693 v -22.172 H 998.06223 v 22.172 h -5.6693 z"
     style="fill:none;stroke:#1b1918;stroke-width:0.5;stroke-linecap:butt;stroke-linejoin:miter;stroke-dasharray:none"
     id="path18"
     inkscape:connector-curvature="0" />
  <path
     d="m 992.39293,647.76919 v 8.3931 h -5.6693 v 22.17197 h -184.252 v -22.17197 h -5.6693 v -8.3931 -8.3931 h 5.6693 v -22.172 h 184.252 v 22.172 h 5.6693 z"
     style="fill:none;stroke:#1b1918;stroke-width:0.5;stroke-linecap:butt;stroke-linejoin:miter;stroke-dasharray:none"
     id="path20"
     inkscape:connector-curvature="0" />
  <path
     d="m 601.21183,642.66679 v 8.3931 h 5.6693 v 22.17207 h 184.252 v -22.17207 h 5.6692 v -8.3931 -8.3931 h -5.6692 v -22.172 h -184.252 v 22.172 h -5.6693 z"
     style="fill:none;stroke:#1b1918;stroke-width:0.5;stroke-linecap:butt;stroke-linejoin:miter;stroke-dasharray:none"
     id="path22"
     inkscape:connector-curvature="0" />
  <path
     d="m 992.39293,586.63889 v -8.3931 h 5.6693 v -22.172 h 184.25197 v 22.172 h 5.6693 v 8.3931 8.3931 h -5.6693 v 22.1721 H 998.06223 v -22.1721 h -5.6693 z"
     style="fill:none;stroke:#1b1918;stroke-width:0.5;stroke-linecap:butt;stroke-linejoin:miter;stroke-dasharray:none"
     id="path24"
     inkscape:connector-curvature="0" />
  <path
     d="m 992.39293,586.63889 v -8.3931 h -5.6693 v -22.172 h -184.252 v 22.172 h -5.6693 v 8.3931 8.3931 h 5.6693 v 22.1721 h 184.252 v -22.1721 h 5.6693 z"
     style="fill:none;stroke:#1b1918;stroke-width:0.5;stroke-linecap:butt;stroke-linejoin:miter;stroke-dasharray:none"
     id="path26"
     inkscape:connector-curvature="0" />
  <path
     d="m 992.39293,892.29026 v 8.3931 h 5.6693 v 22.172 h 184.25197 v -22.172 h 5.6693 v -8.3931 -8.3931 h -5.6693 v -22.1721 H 998.06223 v 22.1721 h -5.6693 z"
     style="fill:none;stroke:#1b1918;stroke-width:0.5;stroke-linecap:butt;stroke-linejoin:miter;stroke-dasharray:none"
     id="path28"
     inkscape:connector-curvature="0" />
  <path
     d="m 992.39293,892.29026 v 8.3931 h -5.6693 v 22.172 h -184.252 v -22.172 h -5.6693 v -8.3931 -8.3931 h 5.6693 v -22.1721 h 184.252 v 22.1721 h 5.6693 z"
     style="fill:none;stroke:#1b1918;stroke-width:0.5;stroke-linecap:butt;stroke-linejoin:miter;stroke-dasharray:none"
     id="path30"
     inkscape:connector-curvature="0" />
  <path
     d="m 601.21183,887.18786 v 8.3931 h 5.6693 v 22.172 h 184.252 v -22.172 h 5.6692 v -8.3931 -8.3931 h -5.6692 v -22.172 h -184.252 v 22.172 h -5.6693 z"
     style="fill:none;stroke:#1b1918;stroke-width:0.5;stroke-linecap:butt;stroke-linejoin:miter;stroke-dasharray:none"
     id="path32"
     inkscape:connector-curvature="0" />
  <path
     d="m 992.39293,831.15996 v -8.3931 h 5.6693 v -22.172 h 184.25197 v 22.172 h 5.6693 v 8.3931 8.3931 h -5.6693 v 22.172 H 998.06223 v -22.172 h -5.6693 z"
     style="fill:none;stroke:#1b1918;stroke-width:0.5;stroke-linecap:butt;stroke-linejoin:miter;stroke-dasharray:none"
     id="path34"
     inkscape:connector-curvature="0" />
  <path
     d="m 992.39293,831.15996 v -8.3931 h -5.6693 v -22.172 h -184.252 v 22.172 h -5.6693 v 8.3931 8.3931 h 5.6693 v 22.172 h 184.252 v -22.172 h 5.6693 z"
     style="fill:none;stroke:#1b1918;stroke-width:0.5;stroke-linecap:butt;stroke-linejoin:miter;stroke-dasharray:none"
     id="path36"
     inkscape:connector-curvature="0" />
  <path
     d="m 601.21183,826.05756 v -8.3931 h 5.6693 v -22.172 h 184.252 v 22.172 h 5.6692 v 8.3931 8.3931 h -5.6692 v 22.1721 h -184.252 v -22.1721 h -5.6693 z"
     style="fill:none;stroke:#1b1918;stroke-width:0.5;stroke-linecap:butt;stroke-linejoin:miter;stroke-dasharray:none"
     id="path38"
     inkscape:connector-curvature="0" />
  <path
     d="m 992.39293,708.89946 v -8.3931 h 5.6693 v -22.1721 h 184.25197 v 22.1721 h 5.6693 v 8.3931 8.3931 h -5.6693 v 22.172 H 998.06223 v -22.172 h -5.6693 z"
     style="fill:none;stroke:#1b1918;stroke-width:0.5;stroke-linecap:butt;stroke-linejoin:miter;stroke-dasharray:none"
     id="path40"
     inkscape:connector-curvature="0" />
  <path
     d="m 992.39293,708.89946 v -8.3931 h -5.6693 v -22.1721 h -184.252 v 22.1721 h -5.6693 v 8.3931 8.3931 h 5.6693 v 22.172 h 184.252 v -22.172 h 5.6693 z"
     style="fill:none;stroke:#1b1918;stroke-width:0.5;stroke-linecap:butt;stroke-linejoin:miter;stroke-dasharray:none"
     id="path42"
     inkscape:connector-curvature="0" />
  <path
     d="m 601.21183,703.79706 v -8.3931 h 5.6693 v -22.172 h 184.252 v 22.172 h 5.6692 v 8.3931 8.3931 h -5.6692 v 22.172 h -184.252 v -22.172 h -5.6693 z"
     style="fill:none;stroke:#1b1918;stroke-width:0.5;stroke-linecap:butt;stroke-linejoin:miter;stroke-dasharray:none"
     id="path44"
     inkscape:connector-curvature="0" />
  <path
     d="m 992.39293,770.02966 v 8.3931 h 5.6693 v 22.1721 h 184.25197 v -22.1721 h 5.6693 v -8.3931 -8.3931 h -5.6693 v -22.172 H 998.06223 v 22.172 h -5.6693 z"
     style="fill:none;stroke:#1b1918;stroke-width:0.5;stroke-linecap:butt;stroke-linejoin:miter;stroke-dasharray:none"
     id="path46"
     inkscape:connector-curvature="0" />
  <path
     d="m 992.39293,770.02966 v 8.3931 h -5.6693 v 22.1721 h -184.252 v -22.1721 h -5.6693 v -8.3931 -8.3931 h 5.6693 v -22.172 h 184.252 v 22.172 h 5.6693 z"
     style="fill:none;stroke:#1b1918;stroke-width:0.5;stroke-linecap:butt;stroke-linejoin:miter;stroke-dasharray:none"
     id="path48"
     inkscape:connector-curvature="0" />
  <path
     d="m 601.21183,764.92736 v 8.3931 h 5.6693 v 22.172 h 184.252 v -22.172 h 5.6692 v -8.3931 -8.3931 h -5.6692 v -22.1721 h -184.252 v 22.1721 h -5.6693 z"
     style="fill:none;stroke:#1b1918;stroke-width:0.5;stroke-linecap:butt;stroke-linejoin:miter;stroke-dasharray:none"
     id="path50"
     inkscape:connector-curvature="0" />
  <path
     d="m 992.39293,953.42046 v -8.3931 h 5.6693 v -22.172 h 184.25197 v 22.172 h 5.6693 v 8.3931 8.3931 h -5.6693 v 22.1721 H 998.06223 v -22.1721 h -5.6693 z"
     style="fill:none;stroke:#1b1918;stroke-width:0.5;stroke-linecap:butt;stroke-linejoin:miter;stroke-dasharray:none"
     id="path52"
     inkscape:connector-curvature="0" />
  <path
     d="m 992.39293,953.42046 v -8.3931 h -5.6693 v -22.172 h -184.252 v 22.172 h -5.6693 v 8.3931 8.3931 h 5.6693 v 22.1721 h 184.252 v -22.1721 h 5.6693 z"
     style="fill:none;stroke:#1b1918;stroke-width:0.5;stroke-linecap:butt;stroke-linejoin:miter;stroke-dasharray:none"
     id="path54"
     inkscape:connector-curvature="0" />
  <path
     d="m 601.21183,948.31816 v -8.3931 h 5.6693 v -22.1721 h 184.252 v 22.1721 h 5.6692 v 8.3931 8.3931 h -5.6692 v 22.172 h -184.252 v -22.172 h -5.6693 z"
     style="fill:none;stroke:#1b1918;stroke-width:0.5;stroke-linecap:butt;stroke-linejoin:miter;stroke-dasharray:none"
     id="path56"
     inkscape:connector-curvature="0" />
  <path
     d="m 992.39293,1014.5508 v 8.3931 h 5.6693 v 22.172 h 184.25197 v -22.172 h 5.6693 v -8.3931 -8.3931 h -5.6693 V 983.98566 H 998.06223 v 22.17204 h -5.6693 z"
     style="fill:none;stroke:#1b1918;stroke-width:0.5;stroke-linecap:butt;stroke-linejoin:miter;stroke-dasharray:none"
     id="path58"
     inkscape:connector-curvature="0" />
  <path
     d="m 992.39293,1014.5508 v 8.3931 h -5.6693 v 22.172 h -184.252 v -22.172 h -5.6693 v -8.3931 -8.3931 h 5.6693 v -22.17204 h 184.252 v 22.17204 h 5.6693 z"
     style="fill:none;stroke:#1b1918;stroke-width:0.5;stroke-linecap:butt;stroke-linejoin:miter;stroke-dasharray:none"
     id="path60"
     inkscape:connector-curvature="0" />
  <path
     d="m 992.39293,1075.6811 v -8.3931 h -5.6693 v -22.1721 h -184.252 v 22.1721 h -5.6693 v 8.3931 8.3931 h 5.6693 v 22.172 h 184.252 v -22.172 h 5.6693 z"
     style="fill:none;stroke:#1b1918;stroke-width:0.5;stroke-linecap:butt;stroke-linejoin:miter;stroke-dasharray:none"
     id="path62"
     inkscape:connector-curvature="0" />
  <path
     d="m 1638.2138,368.71943 c 5.468,-3.4214 11.2104,-6.2878 17.1292,-8.5941 l -5.7912,31.604 -30.2023,-7.8556 c 5.6191,-5.7297 11.9355,-10.8284 18.8643,-15.1543 z m 102.1538,906.27497 h -0.047 c 57.748,-11.186 114.4151,-33.1523 167.0876,-66.5682 225.7158,-143.1964 292.6109,-442.25754 149.4148,-667.97291 -143.1961,-225.71546 -442.2575,-292.61056 -667.9732,-149.41416 -32.6293,20.7003 -61.9172,44.6749 -87.7538,71.1975 1.5548,-1.0185 3.0968,-2.0486 4.6714,-3.0472 175.576,-111.3874 408.2052,-59.3521 519.5926,116.22376 111.3868,175.57567 59.3518,408.20487 -116.2245,519.59201 -164.0347,104.0655 -377.856,65.4712 -496.093,-83.2294 7.8395,16.0355 16.6082,31.8121 26.3937,47.2362 74.6217,117.6239 191.5772,192.0901 318.416,216.1964 v 8.5856 13.0516 h 32.1406 v -13.0516 h 43.0467 v 13.0516 h 32.1406 v -13.0516 h 43.0467 v 13.0516 h 32.1406 v -13.0516 z m -75.0801,-900.00017 17.8579,14.4921 -3.8134,22.9946 -17.9793,-17.8174 z m 2.1486,-18.732 c 14.1806,-3.5776 29.0461,-4.1042 43.5972,-1.4255 l -19.607,25.6258 z m 71.5663,45.5965 22.3115,-5.5956 -4.7398,19.4887 -23.8224,8.5612 z m -10.6475,-43.1853 c 14.3173,3.7176 27.5783,10.4717 38.9166,19.6994 l -31.9601,11.8125 z m 48.9198,99.1222 c 13.4368,-10.4976 21.8449,-18.0632 25.2266,-22.7041 3.1927,14.0215 3.4257,28.6767 0.5397,42.99586 -8.778,-9.2656 -17.3715,-16.03016 -25.7663,-20.29176 z m 11.2337,-55.791 c 4.4501,6.8457 8.026,14.1373 10.6991,21.7038 l -30.6967,-5.6325 8.094,-31.0937 c 4.3946,4.5878 8.3846,9.6122 11.9036,15.0224 z m 45.2026,122.48196 30.695,5.6375 -8.0966,31.0932 c -4.3937,-4.5927 -8.384,-9.6162 -11.8993,-15.0259 -4.4538,-6.8462 -8.0274,-14.1346 -10.6991,-21.7048 z m 32.2719,-62.01466 19.8576,14.61056 -24.1713,4.8611 -13.364,-13.1723 z m -0.3401,107.35366 31.9629,-11.8109 6.9525,31.5111 c -14.3192,-3.7219 -27.5743,-10.4712 -38.9154,-19.7002 z m 10.7008,-37.3825 23.8186,-8.5566 -6.2504,22.4543 -22.3117,5.5942 z m 21.4049,-43.7853 c 0.8124,7.5172 2.8293,13.4637 6.0554,17.835 -16.0214,11.5092 -34.5614,14.178 -55.6203,8.0076 9.6446,-16.9617 26.1675,-25.5776 49.5649,-25.8426 z m -30.2428,-61.39556 c 21.6938,3.3023 37.3765,13.5479 47.037,30.7417 -4.7716,2.6028 -9.1109,7.1445 -13.019,13.61506 -21.0966,-10.11996 -32.4368,-24.90686 -34.018,-44.35676 z m 51.5784,93.36436 c 4.3361,1.5106 14.1559,3.687 18.7239,4.1471 1.3187,26.1363 -5.809,43.5328 -21.3828,52.2017 -10.4568,-14.4315 -9.5698,-33.213 2.6589,-56.3488 z m 21.0237,-50.5743 c 25.8726,5.324 17.6573,42.4199 -8.0433,36.3155 -25.8747,-5.3172 -17.6587,-42.41586 8.0433,-36.3155 z m 1.3844,97.6813 23.9851,24.2022 c -14.1769,3.5785 -29.0497,4.1009 -43.5971,1.4256 z m 12.0901,-32.015 17.9781,17.8166 -3.9294,19.6656 -17.8622,-14.4916 z m 29.7788,20.7513 30.2071,7.8525 c -5.6197,5.7325 -11.939,10.8318 -18.8637,15.1571 -5.4726,3.4181 -11.2108,6.289 -17.1335,8.5944 z m -12.7163,-51.6694 c 21.0997,10.1237 32.44,24.9114 34.0212,44.3565 -21.6975,-3.2983 -37.3768,-13.547 -47.0373,-30.7408 4.7687,-2.6034 9.1063,-7.1425 13.0161,-13.6157 z m -140.7673,-34.6918 c 8.7777,9.2696 17.3661,16.0333 25.7663,20.2918 -13.4407,10.497 -21.8497,18.0666 -25.2283,22.7081 -3.1952,-14.0236 -3.4254,-28.677 -0.538,-42.9999 z m 2.289,-10.33536 c 3.429,-14.2024 9.8265,-27.3878 18.6434,-38.7502 1.1027,5.6333 5.5301,16.047 13.2806,31.2353 -9.4104,0.314 -20.0534,2.8196 -31.924,7.5149 z m 239.5539,498.71333 c -8.9541,-2.9257 -18.4788,-8.2931 -28.5718,-16.1113 -0.6622,14.5987 1.8141,29.0455 7.1135,42.4128 2.6323,-5.1066 9.7807,-13.8716 21.4583,-26.3015 z m 2.5047,-38.9891 c -9.9822,-13.8243 -15.9506,-23.4321 -17.9065,-28.8312 -6.971,12.5781 -11.2756,26.5887 -12.4914,41.1451 11.0109,-6.4545 21.1484,-10.5585 30.3979,-12.3139 z m 4.7469,-56.7125 c -6.1804,5.3359 -11.6456,11.3431 -16.3199,17.8656 l 31.0509,3.1388 0.885,-32.1176 c -5.4983,3.1824 -10.7297,6.8972 -15.616,11.1132 z m -31.5825,154.22514 c -2.1722,-2.0684 -4.2789,-4.2284 -6.3046,-6.4684 -11.817,-13.07964 -20.4814,-28.45074 -25.5923,-44.94584 -7.1833,15.7079 -17.746,29.84 -31.1405,41.29344 -3.2641,2.7921 -6.6626,5.3929 -10.1716,7.7978 12.4778,-3.4548 25.486,-5.0201 38.4576,-4.7338 11.5285,1.2305 23.9528,2.912 34.7514,7.0568 z m -102.0697,-248.41104 31.114,-2.4276 0.1527,32.1295 c -5.4252,-3.3111 -10.5706,-7.143 -15.3564,-11.4692 -6.0616,-5.4746 -11.3856,-11.6017 -15.9103,-18.2327 z m 15.2791,-68.2195 22.9416,9.0261 -22.1148,10.9006 -16.2961,-9.3021 z m -5.7144,-66.28137 c 4.4073,-4.71 9.222,-8.9538 14.3507,-12.7014 l 2.5123,32.0317 -31.2072,0.1571 c 3.9609,-6.9798 8.7574,-13.5284 14.3442,-19.4874 z m 32.9315,170.12807 27.862,-19.6169 14.8056,28.6722 c -14.7948,0.077 -29.338,-3.0453 -42.6676,-9.0553 z m 0.7509,-38.8763 20.8256,-14.3822 -0.2798,23.3065 -20.1291,11.1319 z m 9.453,-47.8117 c 2.7141,7.0569 6.1894,12.2865 10.4289,15.6841 -12.532,15.2345 -29.766,22.5711 -51.7034,22.0107 4.9695,-18.8682 18.7285,-31.4353 41.2745,-37.6948 z m -44.9842,-51.5801 c 21.8152,-2.37477 39.6015,3.5034 53.3503,17.6429 -3.9438,3.7403 -6.9723,9.2432 -9.0893,16.4999 -22.9869,-4.3682 -37.7418,-15.7499 -44.261,-34.1428 z m 29.6263,-32.74237 20.9787,9.4246 2.2141,23.20357 -21.9489,-12.60767 z m 44.1822,109.74617 c 4.5783,0.3472 14.628,-0.069 19.1611,-0.796 7.981,24.9225 5.5556,43.5654 -7.2726,55.9403 -13.8095,-11.2652 -17.7715,-29.6453 -11.8885,-55.1443 z m -46.9119,-128.40207 c 12.7876,-7.0966 27.0204,-11.42 41.7716,-12.5646 l -12.3752,29.7989 z m 62.3455,218.91287 c 11.5401,-0.053 22.8965,-1.7725 33.7481,-5.0174 -1.8771,1.7351 -3.7054,3.528 -5.476,5.3986 -14.1159,14.9281 -24.0224,33.0642 -29.042,52.5892 -6.6192,-19.0383 -17.9966,-36.2948 -33.3054,-49.9972 -3.0104,-2.6963 -6.1495,-5.2112 -9.3929,-7.5481 13.9496,4.1338 28.6713,5.7348 43.4682,4.5749 z m -8.091,-144.7864 c 26.3724,-1.493 27.9508,36.4689 1.5443,37.1634 -26.3724,1.5001 -27.9513,-36.4649 -1.5443,-37.1634 z m -10.2733,-16.3119 c -7.9809,-24.92307 -5.5573,-43.56967 7.2712,-55.94057 13.8095,11.2651 17.7726,29.6447 11.8848,55.14457 -4.5777,-0.3473 -14.6231,0.068 -19.156,0.796 z m 36.6758,110.3675 29.3921,17.2374 c -12.7839,7.0963 -27.0249,11.4177 -41.7716,12.5649 z m 3.4704,-34.0456 21.9479,12.6071 1.2483,20.0155 -20.9826,-9.4232 z m -136.3983,-31.6712 c 10.8624,6.7068 20.899,11.0404 30.1108,13.0009 -10.2975,13.5946 -16.4824,23.0683 -18.5571,28.4212 -6.6866,-12.734 -10.669,-26.8375 -11.5537,-41.4221 z m -0.4394,-10.5766 c -0.3299,-14.6066 2.4702,-28.9925 8.0759,-42.23677 2.5115,5.16187 9.4629,14.09077 20.8511,26.78197 -9.015,2.7179 -18.6585,7.8707 -28.927,15.4548 z m -4.1071,-97.68497 c -9.7665,-1.1778 -19.2818,-3.5413 -28.3447,-6.9951 l 0.4569,0.5423 c 11.2249,13.5882 19.1979,29.3253 23.5707,46.0315 7.8738,-15.3691 19.0542,-29.0177 32.9436,-39.8647 l 0.5664,-0.4295 c -9.5998,1.4148 -19.3969,1.673 -29.1929,0.7155 z m 66.4909,364.61787 -30.8809,-4.5102 -2.3088,32.04684 c 5.6349,-2.93954 11.0262,-6.41734 16.0914,-10.41284 6.4154,-5.055 12.1388,-10.811 17.0983,-17.1238 z m -10.6654,-69.0908 -23.4958,7.4656 21.333,12.3605 16.8843,-8.187 z m 10.1503,-65.7485 c -4.081,-4.9952 -8.6,-9.5524 -13.4654,-13.636 l -4.6567,31.7908 31.1261,2.2516 c -3.4835,-7.2298 -7.8296,-14.0857 -13.004,-20.4064 z m -44.2766,167.53414 -26.4826,-21.44294 -16.6967,27.61374 c 14.7566,1.0698 29.4764,-1.069 43.1793,-6.1708 z m 1.8604,-38.83944 -19.8133,-15.7474 -1.2852,23.2725 19.3365,12.4583 z m -6.2226,-48.3384 c -3.1816,6.859 -6.9999,11.8437 -11.4582,14.9488 11.4812,16.0415 28.184,24.5185 50.1094,25.4319 -3.6918,-19.1594 -16.5761,-32.6217 -38.6512,-40.3807 z m 48.3449,-48.4441 c -21.6063,-3.8336 -39.7471,0.8376 -54.4142,14.0221 3.6839,3.9963 6.3363,9.6903 7.9617,17.0728 23.2279,-2.8151 38.7136,-13.1811 46.4525,-31.0949 z m -27.3617,-34.6569 -21.5637,7.9954 -3.767,23.0023 22.7458,-11.1062 z m -51.4488,106.533 c -4.5916,0.039 -14.5905,-1.0505 -19.0644,-2.0806 -9.6359,24.3309 -8.4674,43.0945 3.501,56.3026 14.5344,-10.313 19.7212,-28.3859 15.5634,-54.222 z m 55.4249,-124.9636 c -12.2828,-7.939 -26.1929,-13.2081 -40.8339,-15.3403 l 10.3468,30.5626 z m 45.2747,105.7427 c -11.2878,5.9624 -21.5926,9.6126 -30.9152,10.9503 9.3617,14.2551 14.8969,24.1225 16.6073,29.6027 7.5266,-12.2564 12.4467,-26.0611 14.3079,-40.553 z m 1.1486,-10.5236 c 1.3096,-14.5516 -0.5182,-29.0925 -5.2228,-42.6832 -2.852,4.9816 -10.387,13.4237 -22.6015,25.3219 8.8121,3.3171 18.0882,9.1054 27.8243,17.3613 z m -38.1736,149.73484 -19.336,-12.4594 -1.7645,19.9791 19.8153,15.7527 z m -29.8687,63.0045 -21.3369,-12.3602 -16.8803,8.1882 14.7175,11.6382 z m 26.449,-22.0941 c -11.4783,-16.0412 -28.1818,-24.5151 -50.1095,-25.433 3.6899,19.1642 16.5762,32.6228 38.6544,40.3864 3.1808,-6.8593 6.9959,-11.8483 11.4551,-14.9534 z m 27.362,-78.3952 c -14.7529,-1.0732 -29.4801,1.0684 -43.1799,6.1696 l 26.4793,21.4433 z m -82.3751,117.0215 c -8.8155,-3.3207 -18.0921,-9.1063 -27.8277,-17.3653 -1.3102,14.5548 0.5213,29.0974 5.2211,42.6872 2.8568,-4.985 10.3878,-13.4231 22.6066,-25.3219 z m 4.2349,-38.8391 c -9.3577,-14.2543 -14.8932,-24.1181 -16.607,-29.5988 -7.5232,12.2558 -12.4464,26.0611 -14.3082,40.5493 11.287,-5.9587 21.5969,-9.6083 30.9152,-10.9505 z m 7.263,-56.4455 c -6.4114,5.0556 -12.138,10.8142 -17.0978,17.1227 l 30.881,4.5159 2.3116,-32.0468 c -5.6341,2.935 -11.0256,6.4134 -16.0948,10.4082 z m -235.6472,176.6999 c -4.0811,-4.9952 -8.6001,-9.5525 -13.4657,-13.636 l -4.6565,31.7908 31.1261,2.2513 c -3.4835,-7.2295 -7.8299,-14.0857 -13.0039,-20.4061 z m -27.6557,-2.7448 -21.564,7.9952 -3.7667,23.0023 22.7458,-11.1059 z m 3.9762,-18.4308 c -12.2828,-7.9387 -26.193,-13.2078 -40.8342,-15.34 l 10.347,30.5623 z m -47.763,54.7319 c 9.6359,-24.3309 8.4691,-43.0983 -3.4999,-56.3023 -14.5346,10.3127 -19.7223,28.3847 -15.5594,54.2225 4.5905,-0.039 14.5854,1.0497 19.0593,2.0798 z m -34.6501,-34.5116 -19.3363,-12.4594 -1.7645,19.9792 19.8153,15.7527 z m 23.942,-37.4847 c -14.7529,-1.0732 -29.48,1.0683 -43.1796,6.1696 l 26.4793,21.4432 z m -70.8769,21.7369 c -6.4114,5.0556 -12.1383,10.8141 -17.0978,17.1226 l 30.8807,4.5159 2.3116,-32.0468 c -5.6341,2.935 -11.0253,6.4134 -16.0945,10.4083 z m 303.5369,-34.475 -30.8806,-4.5102 -2.3088,32.0468 c 5.635,-2.9395 11.0262,-6.4173 16.0914,-10.4128 6.4154,-5.055 12.1385,-10.811 17.098,-17.1238 z m -10.665,-69.0908 -23.4958,7.4656 21.3329,12.3605 16.884,-8.187 z m 10.1503,-65.7485 c -4.0811,-4.9952 -8.6001,-9.5524 -13.4657,-13.636 l -4.6568,31.7908 31.1261,2.2516 c -3.4835,-7.2298 -7.8295,-14.0857 -13.0036,-20.4064 z m -44.2769,167.5341 -26.4827,-21.4429 -16.6963,27.6137 c 14.7563,1.0698 29.476,-1.069 43.179,-6.1708 z m 1.8604,-38.8394 -19.8131,-15.7474 -1.2855,23.2725 19.3366,12.4583 z m -6.2224,-48.3384 c -3.1816,6.859 -7.0001,11.8437 -11.4584,14.9488 11.4811,16.0415 28.1843,24.5185 50.1094,25.4318 -3.6916,-19.1593 -16.5762,-32.6216 -38.651,-40.3806 z m 48.3449,-48.4441 c -21.6065,-3.8336 -39.7474,0.8376 -54.4144,14.0221 3.6839,3.9963 6.3366,9.6903 7.9617,17.0728 23.2279,-2.8151 38.7136,-13.1811 46.4527,-31.0949 z m -78.8108,71.8761 c -4.5915,0.039 -14.5905,-1.0508 -19.0644,-2.0806 -9.6358,24.3306 -8.4674,43.0945 3.5011,56.3026 14.5346,-10.313 19.7215,-28.3859 15.5633,-54.222 z m -36.3393,37.425 -30.4826,15.2257 c 12.2788,7.9385 26.1972,13.2058 40.8339,15.3403 z m -1.1772,-34.2014 -22.7446,11.1053 -2.5889,19.8864 21.5677,-7.9934 z m -34.863,10.0981 -31.1293,-2.2561 c 3.483,7.2329 7.8319,14.0902 13.0023,20.4089 4.0864,4.9932 8.5997,9.5536 13.4696,13.6381 z m 173.0795,-32.5426 c -11.2882,5.9624 -21.5927,9.6126 -30.9155,10.9503 9.3619,14.2551 14.8969,24.1225 16.6076,29.6027 7.5262,-12.2564 12.4463,-26.0611 14.3079,-40.553 z m 1.1483,-10.5236 c 1.3096,-14.5516 -0.5182,-29.0925 -5.2229,-42.6832 -2.8519,4.9816 -10.387,13.4237 -22.6014,25.3219 8.812,3.3171 18.0881,9.1054 27.8243,17.3613 z m 17.3639,-77.0184 c -9.7665,-1.1778 -19.2816,-3.5414 -28.3448,-6.9954 l 0.4572,0.5426 c 11.2247,13.5881 19.198,29.3252 23.5704,46.0315 7.8741,-15.3692 19.0542,-29.0177 32.944,-39.8648 l 0.5663,-0.4294 c -9.6001,1.4148 -19.3972,1.673 -29.1931,0.7155 z M 1699.8662,424.14953 c -1.6067,-0.8742 -3.2176,-1.7394 -4.8351,-2.5912 -0.8904,-25.0979 6.262,-41.8771 21.4608,-50.3337 10.4565,14.4315 9.5709,33.2122 -2.6631,56.348 -3.1385,-1.0936 -9.1497,-2.5356 -13.9626,-3.4231 z m 51.7609,33.58 c -7.3318,-5.6069 -14.8346,-10.9377 -22.4895,-15.9939 l -0.024,-0.033 c 16.0185,-11.5095 34.5577,-14.1752 55.6202,-8.0082 -7.2005,12.6675 -18.2372,20.6771 -33.1069,24.0347 z m 27.9621,23.48786 c -5.0531,-4.6559 -10.2099,-9.1667 -15.4636,-13.5292 l 7.1232,-1.43176 13.3599,13.17146 z m 18.0269,17.6944 c -2.253,-2.3556 -4.5309,-4.6794 -6.8329,-6.9712 3.2204,-0.9902 6.5429,-2.1623 9.968,-3.5178 -0.8609,3.5645 -1.9088,7.0651 -3.1351,10.489 z m 26.8608,31.1369 c -2.8162,-3.6224 -5.6829,-7.1881 -8.602,-10.6911 1.2966,-2.5337 2.5038,-5.114 3.6184,-7.7366 1.1696,6.2676 2.8372,12.4296 4.9836,18.4277 z m 57.5039,101.0812 c -3.8925,-9.9516 -8.2071,-19.8082 -12.9489,-29.5469 l 0.5099,-3.4807 c 4.8657,4.0836 9.3844,8.6409 13.4657,13.6361 5.1741,6.3207 9.5202,13.1765 13.0037,20.4063 z m 15.3788,48.06567 c -1.9967,-7.9359 -4.2434,-15.83747 -6.7442,-23.69367 4.9281,-5.334 8.233,-9.4691 9.9128,-12.403 4.7046,13.5907 6.5324,28.13187 5.2228,42.68347 -2.836,-2.4052 -5.6333,-4.6003 -8.3914,-6.5868 z m 5.6614,26.1774 c -0.4544,-2.5073 -0.9363,-5.0123 -1.4397,-7.515 0.9992,-0.4989 2.006,-1.0159 3.0214,-1.5522 -0.3926,3.0557 -0.9215,6.0809 -1.5817,9.0672 z m 6.389,75.2714 c 0.1332,-13.9416 -0.455,-27.9207 -1.7844,-41.8796 0.5621,-1.0222 1.1092,-2.0526 1.6412,-3.0906 4.3728,16.7062 12.3452,32.447 23.5693,46.0392 1.9241,2.3278 3.9327,4.5793 6.0108,6.7422 -9.0864,-3.9597 -19.4459,-6.1651 -29.4369,-7.8112 z m -10.8573,89.1423 c 0.3946,-1.6634 0.7801,-3.3293 1.1532,-4.9975 3.1141,-13.9224 5.4878,-28.0109 7.1124,-42.2014 2.0999,-2.5489 4.5422,-4.8135 7.3301,-6.7915 11.969,13.2041 13.1357,31.9717 3.4999,56.3026 -4.4739,-1.0301 -14.4686,-2.1192 -19.059,-2.0798 z m -12.8387,43.2323 c 2.7131,-7.5614 5.1959,-15.1991 7.4518,-22.9003 3.4268,-2.071 7.8292,-3.0946 13.1374,-2.4344 26.3004,2.4696 22.1771,40.2429 -4.0354,36.976 -8.8832,-0.8328 -14.2911,-5.6945 -16.5538,-11.6413 z m -26.774,59.1522 c 4.8242,-8.7072 9.3112,-17.5768 13.4617,-26.5841 l 0.068,-0.033 -3.7655,22.9983 z m -14.2674,23.7663 c 0.5443,-0.8402 1.0899,-1.679 1.628,-2.5226 l 27.3464,-13.6593 10.3512,30.56604 c -14.0408,-2.0475 -27.4201,-6.9786 -39.3256,-14.38414 z m -56.4667,68.84414 c 8.6777,-8.4489 16.9129,-17.2354 24.6994,-26.3256 l -2.0724,15.9463 -22.7458,11.1061 z m -51.6056,42.4843 c 9.1523,-6.3411 17.9623,-13.0022 26.428,-19.9576 20.9256,6.2989 15.7306,39.1195 -8.7778,36.0652 -11.0335,-1.0344 -16.7102,-8.2823 -17.6502,-16.1076 z m -59.347,34.1365 c 14.7788,-6.91 29.295,-14.8002 43.4719,-23.6775 1.4567,3.5436 3.272,6.4959 5.4468,8.8566 -13.4059,12.0509 -29.7131,16.9917 -48.9187,14.8209 z m -62.757,23.1772 c 7.5356,-2.0852 15.0361,-4.3982 22.4912,-6.9432 2.0681,3.0351 4.2826,5.9865 6.641,8.8427 1.9242,2.3278 3.9328,4.5794 6.0109,6.7422 -10.6039,-4.6208 -22.9411,-6.8528 -34.4033,-8.5946 -0.2466,-0.017 -0.4932,-0.032 -0.7398,-0.047 z m -244.3133,0.044 c -3.3279,-2.5336 -6.6266,-5.1145 -9.8924,-7.7462 4.828,-0.3371 9.6948,-0.3334 14.5644,0.021 z m 13.5388,9.9218 c -0.7344,-0.5173 -1.4666,-1.0391 -2.1985,-1.5613 0.1791,-0.1318 0.358,-0.2627 0.54,-0.3917 0.5782,0.6381 1.1307,1.2892 1.6585,1.953 z m 20.9594,13.9199 c -0.9147,-0.5715 -1.8269,-1.1475 -2.738,-1.7258 l -8.185,-24.1772 c 11.3816,3.3548 22.9045,6.2073 34.5328,8.5478 1.7061,0.9686 3.3854,1.9866 5.0351,3.053 z m 23.4261,13.6921 c -3.2746,-1.7861 -6.5299,-3.6141 -9.7648,-5.4824 l 11.0075,-4.0814 z m 24.2597,12.3112 c -4.2667,-2.0084 -8.5056,-4.0842 -12.7145,-6.2263 l 3.8874,-26.5399 c 4.8657,4.0836 9.3847,8.6408 13.4657,13.636 5.1741,6.3207 9.5205,13.1766 13.004,20.4064 z m 43.0793,17.6709 c -1.2663,-0.4459 -2.5308,-0.8975 -3.7934,-1.3544 -4.2636,-17.3792 -12.401,-33.7589 -24.025,-47.8352 -1.641,-1.9854 -3.3449,-3.8968 -5.1012,-5.7543 10.6092,3.9659 21.8245,6.4437 33.3351,7.2714 14.6858,2.1506 29.4818,1.5415 43.6771,-1.6467 -3.3928,2.1136 -6.6935,4.4125 -9.8785,6.9007 -14.6548,11.4423 -26.2924,26.005 -34.2141,42.4185 z m 21.0432,6.8493 c -1.574,-0.4708 -3.1456,-0.9504 -4.7148,-1.4383 0.7699,-1.3963 1.5721,-2.7748 2.4063,-4.1343 0.4754,1.5202 1.2453,3.3781 2.3085,5.5726 z m 54.4476,12.7455 c -7.6872,-1.3147 -15.3411,-2.8185 -22.9507,-4.5207 -5.0482,-1.1294 -10.0766,-2.346 -15.0843,-3.6451 -0.5799,-1.8635 -1.063,-3.7874 -1.4451,-5.7736 15.9112,0.6661 29.0707,5.3121 39.4801,13.9394 z m 119.2791,4.7188 c -12.2426,1.1157 -24.4993,1.73 -36.739,1.8592 11.0075,-4.545 23.4442,-5.5873 37.3076,-3.1277 -0.1848,0.4275 -0.375,0.8495 -0.5686,1.2685 z m 72.085,-12.4563 c -10.1395,2.6051 -20.3318,4.8439 -30.5572,6.7337 -4.3497,-9.6321 -9.9901,-18.731 -16.8426,-27.0295 -1.641,-1.9851 -3.3449,-3.8965 -5.1012,-5.754 10.6092,3.9659 21.8248,6.4437 33.3351,7.2714 14.6858,2.1507 29.4818,1.5415 43.6774,-1.6466 -3.3931,2.1135 -6.6937,4.4124 -9.8788,6.9004 -5.2803,4.1229 -10.1684,8.6507 -14.6327,13.5246 z m 119.3599,-49.5915 c -6.4548,3.8242 -12.9674,7.4744 -19.5333,10.9476 -12.8214,-0.818 -25.7533,0.1761 -38.2484,3.0445 3.6124,-2.2465 7.1231,-4.6934 10.5083,-7.3378 13.8903,-10.8468 25.0707,-24.4956 32.9451,-39.8685 3.0566,11.6777 7.8724,22.8836 14.3283,33.2142 z m 24.5732,-15.6164 c -2.1537,1.4658 -4.3239,2.9157 -6.5089,4.3518 -0.9088,-1.6481 -1.7708,-3.3191 -2.5852,-5.0108 z m 51.3329,-40.5102 c -11.3703,10.3703 -23.3563,20.2487 -35.945,29.5827 -3.6187,-0.1449 -7.3466,-0.5562 -11.1841,-1.2382 7.7372,-17.9093 23.2231,-28.2762 46.4553,-31.0938 0.2078,0.9442 0.4326,1.8606 0.6738,2.7493 z m 56.5237,-62.0141 c -4.9037,6.4928 -9.9927,12.8716 -15.2674,19.1265 -3.6309,-0.3963 -7.2768,-0.6582 -9.5715,-0.6387 -4.1632,-25.8378 1.0247,-43.9098 15.5591,-54.2225 8.3455,9.2064 11.4378,21.119 9.2798,35.7347 z m 28.0327,-41.7198 c -4.2707,7.1802 -8.7418,14.2589 -13.419,21.2213 l -3.1175,1.5565 -10.347,-30.5623 c 9.3356,1.3595 18.3741,3.9952 26.8835,7.7845 z m 20.6246,-38.80884 c -1.0835,2.2975 -2.1833,4.58874 -3.3052,6.87004 -1.4908,-2.3074 -2.8849,-4.66894 -4.18,-7.07894 z m 8.6062,-19.4071 c -0.9944,2.3893 -2.0015,4.7738 -3.0367,7.1473 l -0.2815,-0.035 c 0.9533,-2.5069 2.0599,-4.877 3.3182,-7.1118 z m 15.243,-42.3658 c -1.332,4.3603 -2.7243,8.7032 -4.1859,13.0241 l -6.0347,2.2172 -15.22,-10.9729 16.4996,-8.93 z m 9.5488,-36.5513 c -0.1788,0.8209 -0.352,1.6435 -0.5354,2.4636 -1.5761,7.046 -3.3191,14.055 -5.2249,21.0206 -8.473,-6.8687 -14.0122,-15.742 -16.6138,-26.6233 8.1283,-0.021 15.5857,1.0256 22.3741,3.1391 z m 8.9989,-136.336 c 0.7631,9.1293 1.2484,18.2645 1.4632,27.3932 -1.9227,1.6344 -3.9004,3.1935 -5.9289,4.6746 l -2.5129,-32.0315 z m -4.2678,-34.8636 c 1.2262,7.5824 2.2566,15.1801 3.0962,22.7863 -16.0305,-0.8008 -29.512,-6.8224 -40.4427,-18.0635 3.9413,-3.7397 6.969,-9.2398 9.087,-16.4996 11.4698,2.1807 20.8894,6.107 28.2595,11.7768 z m -4.936,-25.793 c 0.6814,3.0776 1.3294,6.1586 1.946,9.2435 l -11.5129,-4.5289 z m -9.8286,-36.96147 c 2.5081,8.04727 4.7772,16.13707 6.8224,24.25827 -5.8609,3.9218 -12.8741,7.0178 -21.0412,9.2863 -2.7134,-7.0571 -6.185,-12.291 -10.4256,-15.6883 6.8202,-8.2931 15.0355,-14.2441 24.6444,-17.85627 z m -10.9542,-31.1318 c 2.1796,5.5418 4.2395,11.1104 6.1886,16.7015 v 0.1581 l -20.8281,14.387 0.2798,-23.3065 z m -12.3389,-28.491 c 2.3904,5.0451 4.68,10.1177 6.8714,15.215 l -15.4519,10.8807 -14.809,-28.6715 c 7.9157,-0.0431 15.7623,0.8319 23.3895,2.5758 z m -24.4738,-45.0128 c 6.533,10.5767 12.5833,21.3186 18.1576,32.1996 -15.4358,-3.4889 -31.4966,-4.2837 -47.1676,-2.245 l 1.0114,-0.7413 c 11.0307,-8.164 20.4607,-18.0694 27.9986,-29.2133 z m -24.0179,-35.1671 c 5.0224,6.6753 9.8934,13.519 14.5998,20.535 -2.2734,3.8999 -4.8007,7.645 -7.5659,11.2107 -1.1061,-5.6378 -5.5313,-16.0469 -13.2855,-31.2369 2.0268,-0.0683 4.1108,-0.2378 6.2516,-0.5088 z m -20.8576,-25.7511 c 4.5068,5.1678 8.9098,10.4621 13.212,15.872 l -0.4936,0.1761 -19.8612,-14.6123 z m -22.9088,-24.3995 c 4.4921,4.447 8.9022,9.0043 13.2318,13.663 -2.9919,0.3611 -6.1166,0.5604 -9.375,0.5978 -0.6086,-5.6364 -1.8921,-10.3912 -3.8568,-14.2608 z m -36.2574,-32.24576 c 5.5948,4.4654 11.0971,9.0746 16.5033,13.824 -4.877,-1.4085 -12.5583,-3.0413 -16.4438,-3.4325 -0.1831,-3.6328 -0.2026,-7.0962 -0.06,-10.3915 z m -32.6214,-23.7515 c 6.2918,4.1675 12.4926,8.5 18.595,12.9946 l -1.692,10.203 -17.9793,-17.8174 z m -44.1215,-35.6479 c -0.9062,0.5207 -1.8989,1.8292 -2.7924,2.3808 -15.7589,9.7461 -28.4981,22.4887 -37.3918,38.3468 -1.3643,-18.1273 -7.2885,-35.8019 -17.4614,-51.2884 -2.0002,-3.0469 -4.1542,-5.9658 -6.4409,-8.7531 11.2028,6.8312 23.665,11.6337 36.8314,14.0468 7.901,2.0585 15.9406,3.1975 23.968,3.439 0.9797,0.5392 2.3111,1.2807 3.2871,1.8281 z m 11.9154,12.8877 c -5.1684,3.6238 -9.9555,7.6949 -14.322,12.147 l 30.2023,7.856 1.7572,-9.5899 c -5.6807,-3.53 -11.8242,-7.1448 -17.6375,-10.4131 z m -225.0076,-53.6128 c 5.1338,-0.036 10.2645,0.018 15.3898,0.1551 -7.6357,2.5849 -15.2135,5.6701 -21.8653,9.7217 1.7651,-2.4245 3.4498,-4.9281 5.0403,-7.4954 0.4884,-0.7892 0.9666,-1.5834 1.4352,-2.3814 z m -46.8465,2.7295 c 8.2304,-0.9043 16.4701,-1.5877 24.7102,-2.0429 -1.7649,3.9208 -3.7843,7.7482 -6.0554,11.4553 -3.3713,5.5015 -7.2241,10.6322 -11.4942,15.3394 z m -32.7019,4.7925 c 6.7935,-1.2489 13.6026,-2.3386 20.4208,-3.2748 l 3.907,14.3631 -22.4527,-4.9924 z m -85.4155,27.413 c -2.9245,0.2019 -5.8485,0.4349 -8.7718,0.7016 2.73,-1.1483 5.4669,-2.2686 8.2105,-3.3593 z m 24.1914,-0.9388 c -3.9107,0.033 -7.8233,0.1244 -11.7369,0.2727 l -1.4601,-6.406 c 6.4925,-2.3808 13.0178,-4.6097 19.5715,-6.6807 l 1.2212,6.3057 z m 45.8447,2.2241 c -5.5153,-0.584 -11.046,-1.0545 -16.5869,-1.4106 -3.8256,-4.8574 -6.6209,-10.8391 -8.3857,-17.9461 8.4704,-2.3703 16.9806,-4.4881 25.5208,-6.3539 2.3786,9.4743 2.196,18.044 -0.5482,25.7106 z m 38.6241,5.9933 c -8.9757,-1.8417 -18.0154,-3.3784 -27.1021,-4.6058 l 2.355,-12.2199 32.2671,10.9483 c -2.4154,2.0761 -4.9246,4.0374 -7.52,5.8774 z m 67.8058,-57.0011 h -17.0079 v -5.6693 h 17.0079 z m 61.7165,5.1599 -16.8622,-2.2198 0.7399,-5.6208 16.8621,2.2198 z m 60.5149,13.1715 -16.4282,-4.4019 1.4675,-5.4763 16.4281,4.4019 z m 58.278,20.9574 -15.713,-6.5087 2.1696,-5.2378 15.713,6.5086 z m 51.9228,25.2802 -14.7974,-8.3843 2.7946,-4.9323 14.7974,8.384 z m 49.2678,56.575 -13.4932,-10.3538 3.4512,-4.4978 13.4932,10.3538 z m 4.7217,-18.1435 -13.4932,-10.3538 3.4512,-4.4977 13.4932,10.3538 z m 45.8217,41.66416 -12.0262,-12.02616 4.0087,-4.0088 12.0263,12.02626 z m 39.9918,47.2887 -10.3538,-13.4932 4.4977,-3.4511 10.3538,13.4931 z m 33.4769,52.1042 -8.504,-14.7291 4.9099,-2.8346 8.504,14.7291 z m 26.3897,56.0279 -6.5087,-15.713 5.2379,-2.1696 6.5086,15.713 z m 18.8507,58.99327 -4.402,-16.4282 5.4763,-1.4675 4.4019,16.4282 z m 10.9893,60.9488 -2.2198,-16.8622 5.6208,-0.7398 2.2198,16.8622 z m 2.9401,61.8622 v -17.0079 h 5.6693 v 17.0079 z m -5.1599,61.7164 2.2198,-16.8621 5.6208,0.7398 -2.2198,16.8622 z m -13.1715,60.5149 4.402,-16.4282 5.4762,1.4675 -4.4019,16.4282 z m -20.9574,58.2781 6.5087,-15.713 5.2378,2.1696 -6.5086,15.713 z m -28.385,55.04404 8.504,-14.7291 4.9099,2.8346 -8.504,14.7291 z m -35.3267,50.8682 10.3538,-13.4932 4.4977,3.4512 -10.3538,13.4932 z m -41.6642,45.8218 12.0262,-12.0263 4.0088,4.0088 -12.0263,12.0263 z m -47.2887,39.9918 13.4932,-10.3539 3.4512,4.4978 -13.4932,10.3538 z m -52.1042,33.4768 14.7291,-8.5039 2.8346,4.9099 -14.7291,8.5039 z m -56.0279,26.3897 15.713,-6.5086 2.1696,5.2379 -15.713,6.5086 z m -58.9932,18.8507 16.4282,-4.4019 1.4674,5.4762 -16.4281,4.402 z m -245.0424,-4.4019 16.4282,4.4019 -1.4675,5.4763 -16.4282,-4.402 z m -58.278,-20.9574 15.713,6.5086 -2.1697,5.2379 -15.713,-6.5086 z m -55.044,-28.385 14.7291,8.5039 -2.8347,4.9099 -14.7291,-8.5039 z m -50.8683,-35.3268 13.4932,10.3539 -3.4512,4.4977 -13.4932,-10.3538 z m -45.8218,-41.6642 12.0263,12.0263 -4.0088,4.0088 -12.0263,-12.0263 z m -39.9917,-47.2887 10.3538,13.4932 -4.4977,3.4512 -10.3539,-13.4932 z m 151.4109,-695.64837 -14.7291,8.504 -2.8347,-4.9099 14.7291,-8.504 z m 56.0279,-26.3897 -15.713,6.5087 -2.1697,-5.2379 15.713,-6.5086 z m 58.9932,-18.8506 -16.4282,4.4019 -1.4675,-5.4763 16.4282,-4.4019 z m 60.9488,-10.9894 -16.8621,2.2198 -0.7399,-5.6208 16.8622,-2.2198 z m -82.0088,65.505 -17.007,0.1377 -0.046,-5.669 17.0071,-0.1377 z m 49.2916,3.9444 -16.8797,-2.0835 0.6945,-5.6265 16.8797,2.0832 z m -148.4169,7.6819 -16.3919,4.5348 -1.5117,-5.464 16.3919,-4.5349 z m 48.6221,-9.0936 -16.8437,2.3565 -0.7855,-5.6146 16.8437,-2.3567 z m -150.7266,708.10607 14.7974,8.3844 -2.7947,4.9325 -14.7977,-8.3843 z m 91.658,39.494 16.4633,4.2687 -1.4227,5.4879 -16.4633,-4.2687 z m -47.683,-16.7754 15.7652,6.3811 -2.1269,5.2551 -15.7654,-6.3811 z m 163.4471,31.0632 -17.0071,0.1377 0.046,5.6691 17.007,-0.1378 z m -50.5384,-1.7875 -16.8797,-2.0832 -0.6945,5.6265 16.8798,2.0834 z m 149.0485,-14.2359 -16.3919,4.5348 1.5118,5.4641 16.3919,-4.5349 z m -49.2896,11.2079 -16.8438,2.3564 0.7855,5.6146 16.8438,-2.3564 z m 140.2959,-52.1816 -14.6596,8.6227 2.8743,4.8867 14.6597,-8.6227 z m -44.7199,23.4371 -15.66,6.6357 2.2119,5.22 15.66,-6.6357 z m 122.0207,-86.5689 -11.9284,12.1232 4.041,3.9762 11.9285,-12.1232 z m -37.1412,34.0671 -13.4087,10.4626 3.4874,4.4694 13.4091,-10.4624 z m 95.4683,-115.05464 -8.3843,14.7977 4.9326,2.7946 8.3843,-14.7974 z m -27.0691,42.37314 -10.2442,13.5765 4.5255,3.4147 10.2442,-13.5766 z m 62.4475,-135.69704 -4.2687,16.4633 5.4879,1.4227 4.2687,-16.463 z m -15.1906,47.7893 -6.3811,15.7651 5.2552,2.1271 6.381,-15.7651 z m 25.2096,-147.0901 0.1378,17.007 5.669,-0.046 -0.1378,-17.007 z m -2.315,49.9465 -2.0832,16.8797 5.6265,0.6945 2.0832,-16.8797 z m -13.7084,-148.4567 4.5349,16.3919 5.4641,-1.5114 -4.5349,-16.3922 z m 10.6804,48.6978 2.3565,16.8438 5.6145,-0.7855 -2.3564,-16.8437 z m -51.654,-139.70407 8.6227,14.6597 4.8866,-2.8743 -8.6227,-14.6597 z m 22.9096,44.1281 6.6356,15.66 5.22,-2.2119 -6.6356,-15.66 z m -86.0414,-121.4288 12.1232,11.9284 3.9761,-4.041 -12.1232,-11.9285 z m 33.5395,36.5493 10.4624,13.4087 4.4696,-3.4874 -10.4626,-13.409 z m -114.5271,-94.87636 14.7974,8.3843 2.795,-4.9326 -14.7974,-8.3843 z m 41.8456,26.4773 13.5766,10.24406 3.4146,-4.5255 -13.5766,-10.24416 z m -135.1695,-61.8557 16.4634,4.2687 1.4227,-5.4879 -16.4634,-4.2687 z m 47.2618,14.5987 15.7651,6.3811 2.1272,-5.2552 -15.7655,-6.381 z"
     style="fill:none;stroke:#1b1918;stroke-width:0.56690001;stroke-linecap:butt;stroke-linejoin:miter;stroke-dasharray:none"
     id="path64"
     inkscape:connector-curvature="0" />
  <path
     d="m 1433.6928,464.37843 v 8.39306 h 5.6693 v 22.172 h 184.252 v -22.172 h 5.6693 v -8.39306 -8.3931 h -5.6693 v -22.172 h -184.252 v 22.172 h -5.6693 z"
     style="fill:none;stroke:#1b1918;stroke-width:0.5;stroke-linecap:butt;stroke-linejoin:miter;stroke-dasharray:none"
     id="path66"
     inkscape:connector-curvature="0" />
  <path
     d="m 1433.6928,525.50869 v 8.3931 h -5.6693 v 22.172 h -184.252 v -22.172 h -5.6692 v -8.3931 -8.3931 h 5.6692 v -22.1721 h 184.252 v 22.1721 h 5.6693 z m -97.7953,11.2498 c -2.071,0 -3.7499,-1.6789 -3.7499,-3.7499 0,-2.071 1.6789,-3.75 3.7499,-3.75 2.071,0 3.75,1.679 3.75,3.75 0,2.071 -1.679,3.7499 -3.75,3.7499 z m 0,-14.9998 c -2.071,0 -3.7499,-1.6789 -3.7499,-3.7499 0,-2.071 1.6789,-3.75 3.7499,-3.75 2.071,0 3.75,1.679 3.75,3.75 0,2.071 -1.679,3.7499 -3.75,3.7499 z"
     style="fill:none;stroke:#1b1918;stroke-width:0.5;stroke-linecap:butt;stroke-linejoin:miter;stroke-dasharray:none"
     id="path68"
     inkscape:connector-curvature="0" />
  <path
     d="m 1433.6928,525.50869 v 8.3931 h 5.6693 v 22.172 h 184.252 v -22.172 h 5.6693 v -8.3931 -8.3931 h -5.6693 v -22.1721 h -184.252 v 22.1721 h -5.6693 z"
     style="fill:none;stroke:#1b1918;stroke-width:0.5;stroke-linecap:butt;stroke-linejoin:miter;stroke-dasharray:none"
     id="path70"
     inkscape:connector-curvature="0" />
  <path
     d="m 1433.6928,647.76919 v 8.3931 h -5.6693 v 22.17197 h -184.252 v -22.17197 h -5.6692 v -8.3931 -8.3931 h 5.6692 v -22.172 h 184.252 v 22.172 h 5.6693 z"
     style="fill:none;stroke:#1b1918;stroke-width:0.5;stroke-linecap:butt;stroke-linejoin:miter;stroke-dasharray:none"
     id="path72"
     inkscape:connector-curvature="0" />
  <path
     d="m 1433.6928,647.76919 v 8.3931 h 5.6693 v 22.17197 h 184.252 v -22.17197 h 5.6693 v -8.3931 -8.3931 h -5.6693 v -22.172 h -184.252 v 22.172 h -5.6693 z"
     style="fill:none;stroke:#1b1918;stroke-width:0.5;stroke-linecap:butt;stroke-linejoin:miter;stroke-dasharray:none"
     id="path74"
     inkscape:connector-curvature="0" />
  <path
     d="m 1824.8739,643.23379 v 8.3931 h -5.6693 v 22.17197 h -184.252 v -22.17197 h -5.6692 v -8.3931 -8.3931 h 5.6692 v -22.1721 h 184.252 v 22.1721 h 5.6693 z"
     style="fill:none;stroke:#1b1918;stroke-width:0.5;stroke-linecap:butt;stroke-linejoin:miter;stroke-dasharray:none"
     id="path76"
     inkscape:connector-curvature="0" />
  <path
     d="m 1433.6928,586.63889 v -8.3931 h -5.6693 v -22.172 h -184.252 v 22.172 h -5.6692 v 8.3931 8.3931 h 5.6692 v 22.1721 h 184.252 v -22.1721 h 5.6693 z"
     style="fill:none;stroke:#1b1918;stroke-width:0.5;stroke-linecap:butt;stroke-linejoin:miter;stroke-dasharray:none"
     id="path78"
     inkscape:connector-curvature="0" />
  <path
     d="m 1433.6928,586.63889 v -8.3931 h 5.6693 v -22.172 h 184.252 v 22.172 h 5.6693 v 8.3931 8.3931 h -5.6693 v 22.1721 h -184.252 v -22.1721 h -5.6693 z"
     style="fill:none;stroke:#1b1918;stroke-width:0.5;stroke-linecap:butt;stroke-linejoin:miter;stroke-dasharray:none"
     id="path80"
     inkscape:connector-curvature="0" />
  <path
     d="m 1433.6928,892.29026 v 8.3931 h -5.6693 v 22.172 h -184.252 v -22.172 h -5.6692 v -8.3931 -8.3931 h 5.6692 v -22.1721 h 184.252 v 22.1721 h 5.6693 z"
     style="fill:none;stroke:#1b1918;stroke-width:0.5;stroke-linecap:butt;stroke-linejoin:miter;stroke-dasharray:none"
     id="path82"
     inkscape:connector-curvature="0" />
  <path
     d="m 1433.6928,892.29026 v 8.3931 h 5.6693 v 22.172 h 184.252 v -22.172 h 5.6693 v -8.3931 -8.3931 h -5.6693 v -22.1721 h -184.252 v 22.1721 h -5.6693 z"
     style="fill:none;stroke:#1b1918;stroke-width:0.5;stroke-linecap:butt;stroke-linejoin:miter;stroke-dasharray:none"
     id="path84"
     inkscape:connector-curvature="0" />
  <path
     d="m 1824.8739,887.75476 v 8.3931 h -5.6693 v 22.1721 h -184.252 v -22.1721 h -5.6692 v -8.3931 -8.3931 h 5.6692 v -22.172 h 184.252 v 22.172 h 5.6693 z"
     style="fill:none;stroke:#1b1918;stroke-width:0.5;stroke-linecap:butt;stroke-linejoin:miter;stroke-dasharray:none"
     id="path86"
     inkscape:connector-curvature="0" />
  <path
     d="m 1433.6928,831.15996 v -8.3931 h -5.6693 v -22.172 h -184.252 v 22.172 h -5.6692 v 8.3931 8.3931 h 5.6692 v 22.172 h 184.252 v -22.172 h 5.6693 z"
     style="fill:none;stroke:#1b1918;stroke-width:0.5;stroke-linecap:butt;stroke-linejoin:miter;stroke-dasharray:none"
     id="path88"
     inkscape:connector-curvature="0" />
  <path
     d="m 1433.6928,831.15996 v -8.3931 h 5.6693 v -22.172 h 184.252 v 22.172 h 5.6693 v 8.3931 8.3931 h -5.6693 v 22.172 h -184.252 v -22.172 h -5.6693 z"
     style="fill:none;stroke:#1b1918;stroke-width:0.5;stroke-linecap:butt;stroke-linejoin:miter;stroke-dasharray:none"
     id="path90"
     inkscape:connector-curvature="0" />
  <path
     d="m 1824.8739,826.62456 v -8.3931 h -5.6693 v -22.1721 h -184.252 v 22.1721 h -5.6692 v 8.3931 8.3931 h 5.6692 v 22.172 h 184.252 v -22.172 h 5.6693 z"
     style="fill:none;stroke:#1b1918;stroke-width:0.5;stroke-linecap:butt;stroke-linejoin:miter;stroke-dasharray:none"
     id="path92"
     inkscape:connector-curvature="0" />
  <path
     d="m 1433.6928,708.89946 v -8.3931 h -5.6693 v -22.1721 h -184.252 v 22.1721 h -5.6692 v 8.3931 8.3931 h 5.6692 v 22.172 h 184.252 v -22.172 h 5.6693 z"
     style="fill:none;stroke:#1b1918;stroke-width:0.5;stroke-linecap:butt;stroke-linejoin:miter;stroke-dasharray:none"
     id="path94"
     inkscape:connector-curvature="0" />
  <path
     d="m 1433.6928,708.89946 v -8.3931 h 5.6693 v -22.1721 h 184.252 v 22.1721 h 5.6693 v 8.3931 8.3931 h -5.6693 v 22.172 h -184.252 v -22.172 h -5.6693 z"
     style="fill:none;stroke:#1b1918;stroke-width:0.5;stroke-linecap:butt;stroke-linejoin:miter;stroke-dasharray:none"
     id="path96"
     inkscape:connector-curvature="0" />
  <path
     d="m 1824.8739,704.36396 v -8.3931 h -5.6693 v -22.172 h -184.252 v 22.172 h -5.6692 v 8.3931 8.3931 h 5.6692 v 22.1721 h 184.252 v -22.1721 h 5.6693 z"
     style="fill:none;stroke:#1b1918;stroke-width:0.5;stroke-linecap:butt;stroke-linejoin:miter;stroke-dasharray:none"
     id="path98"
     inkscape:connector-curvature="0" />
  <path
     d="m 1433.6928,770.02966 v 8.3931 h -5.6693 v 22.1721 h -184.252 v -22.1721 h -5.6692 v -8.3931 -8.3931 h 5.6692 v -22.172 h 184.252 v 22.172 h 5.6693 z"
     style="fill:none;stroke:#1b1918;stroke-width:0.5;stroke-linecap:butt;stroke-linejoin:miter;stroke-dasharray:none"
     id="path100"
     inkscape:connector-curvature="0" />
  <path
     d="m 1433.6928,770.02966 v 8.3931 h 5.6693 v 22.1721 h 184.252 v -22.1721 h 5.6693 v -8.3931 -8.3931 h -5.6693 v -22.172 h -184.252 v 22.172 h -5.6693 z"
     style="fill:none;stroke:#1b1918;stroke-width:0.5;stroke-linecap:butt;stroke-linejoin:miter;stroke-dasharray:none"
     id="path102"
     inkscape:connector-curvature="0" />
  <path
     d="m 1824.8739,765.49426 v 8.3931 h -5.6693 v 22.172 h -184.252 v -22.172 h -5.6692 v -8.3931 -8.3931 h 5.6692 v -22.172 h 184.252 v 22.172 h 5.6693 z"
     style="fill:none;stroke:#1b1918;stroke-width:0.5;stroke-linecap:butt;stroke-linejoin:miter;stroke-dasharray:none"
     id="path104"
     inkscape:connector-curvature="0" />
  <path
     d="m 1433.6928,953.42046 v -8.3931 h -5.6693 v -22.172 h -184.252 v 22.172 h -5.6692 v 8.3931 8.3931 h 5.6692 v 22.1721 h 184.252 v -22.1721 h 5.6693 z"
     style="fill:none;stroke:#1b1918;stroke-width:0.5;stroke-linecap:butt;stroke-linejoin:miter;stroke-dasharray:none"
     id="path106"
     inkscape:connector-curvature="0" />
  <path
     d="m 1433.6928,953.42046 v -8.3931 h 5.6693 v -22.172 h 184.252 v 22.172 h 5.6693 v 8.3931 8.3931 h -5.6693 v 22.1721 h -184.252 v -22.1721 h -5.6693 z"
     style="fill:none;stroke:#1b1918;stroke-width:0.5;stroke-linecap:butt;stroke-linejoin:miter;stroke-dasharray:none"
     id="path108"
     inkscape:connector-curvature="0" />
  <path
     d="m 1824.8739,948.88506 v -8.3931 h -5.6693 v -22.172 h -184.252 v 22.172 h -5.6692 v 8.3931 8.3931 h 5.6692 v 22.172 h 184.252 v -22.172 h 5.6693 z"
     style="fill:none;stroke:#1b1918;stroke-width:0.5;stroke-linecap:butt;stroke-linejoin:miter;stroke-dasharray:none"
     id="path110"
     inkscape:connector-curvature="0" />
  <path
     d="m 1433.6928,1014.5508 v 8.3931 h -5.6693 v 22.172 h -184.252 v -22.172 h -5.6692 v -8.3931 -8.3931 h 5.6692 v -22.17204 h 184.252 v 22.17204 h 5.6693 z"
     style="fill:none;stroke:#1b1918;stroke-width:0.5;stroke-linecap:butt;stroke-linejoin:miter;stroke-dasharray:none"
     id="path112"
     inkscape:connector-curvature="0" />
  <path
     d="m 1433.6928,1014.5508 v 8.3931 h 5.6693 v 22.172 h 184.252 v -22.172 h 5.6693 v -8.3931 -8.3931 h -5.6693 v -22.17204 h -184.252 v 22.17204 h -5.6693 z"
     style="fill:none;stroke:#1b1918;stroke-width:0.5;stroke-linecap:butt;stroke-linejoin:miter;stroke-dasharray:none"
     id="path114"
     inkscape:connector-curvature="0" />
  <path
     d="m 1433.6928,1075.6811 v -8.3931 h 5.6693 v -22.1721 h 184.252 v 22.1721 h 5.6693 v 8.3931 8.3931 h -5.6693 v 22.172 h -184.252 v -22.172 h -5.6693 z"
     style="fill:none;stroke:#1b1918;stroke-width:0.5;stroke-linecap:butt;stroke-linejoin:miter;stroke-dasharray:none"
     id="path116"
     inkscape:connector-curvature="0" />
  <path
     d="m 1773.1612,556.85699 v 55.8116 h -134.195 -9.6828 v -28.5001 h 9.6828 v -77.1947 h -9.6828 v -28.5001 h 9.6828 25.8137 l 42.6816,30.8681 4.8866,-6.9454 31.8963,22.4416 -5.1786,7.3604 z"
     style="fill:none;stroke:#1b1918;stroke-width:0.5;stroke-linecap:butt;stroke-linejoin:miter;stroke-dasharray:none"
     id="path118"
     inkscape:connector-curvature="0" />
  <path
     d="m 652.92453,556.29009 v 55.8116 h 134.195 9.6828 v -28.5001 h -9.6828 v -77.1948 h 9.6828 v -28.5001 h -9.6828 -25.8137 l -42.6816,30.8682 -4.8866,-6.9454 -31.8963,22.4416 5.1786,7.3604 z"
     style="fill:none;stroke:#1b1918;stroke-width:0.5;stroke-linecap:butt;stroke-linejoin:miter;stroke-dasharray:none"
     id="path120"
     inkscape:connector-curvature="0" />
  <path
     d="m 1773.1612,1035.2619 v -55.81174 h -134.195 -9.6828 v 28.50014 h 9.6828 v 77.1948 h -9.6828 v 28.5001 h 9.6828 25.8137 l 42.6816,-30.8682 4.8866,6.9455 31.8963,-22.4416 -5.1786,-7.3605 z"
     style="fill:none;stroke:#1b1918;stroke-width:0.5;stroke-linecap:butt;stroke-linejoin:miter;stroke-dasharray:none"
     id="path122"
     inkscape:connector-curvature="0" />
  <path
     d="m 652.92453,1034.6949 v -55.81164 h 134.195 9.6828 v 28.50014 h -9.6828 v 77.1948 h 9.6828 v 28.5001 h -9.6828 -25.8137 l -42.6816,-30.8682 -4.8866,6.9455 -31.8963,-22.4416 5.1786,-7.3605 z"
     style="fill:none;stroke:#1b1918;stroke-width:0.5;stroke-linecap:butt;stroke-linejoin:miter;stroke-dasharray:none"
     id="path124"
     inkscape:connector-curvature="0" />
  <path
     d="m 447.20383,1382.9904 h 7.8046 v 43.0725 h 7.0866 v -43.0725 h 828.00027 v 43.0725 h 7.0866 v -43.0725 h 7.8047 v 86.145 H 447.20383 Z m 58.1613,71.9718 h 70.8661 v 7.0866 h -70.8661 z m 223.5313,0 h 70.8662 v 7.0866 h -70.8662 z m 223.5317,0 h 70.86607 v 7.0866 h -70.86607 z m 294.39747,0 h -70.8661 v 7.0866 h 70.8661 z"
     style="fill:none;stroke:#1b1918;stroke-width:0.5;stroke-linecap:butt;stroke-linejoin:miter;stroke-dasharray:none"
     id="path126"
     inkscape:connector-curvature="0" />
  <path
     d="m 723.42163,1469.1354 h 7.8046 v 43.0724 h 7.0866 v -43.0724 h 261 v 43.0724 h 7.08667 v -43.0724 h 7.8046 v 86.1449 H 723.42163 Z m 234.142,7.0866 v 7.0866 h -42.7275 v -7.0866 z m -134.7744,0 v 7.0866 h -42.7274 v -7.0866 z"
     style="fill:none;stroke:#1b1918;stroke-width:0.5;stroke-linecap:butt;stroke-linejoin:miter;stroke-dasharray:none"
     id="path128"
     inkscape:connector-curvature="0" />
</svg>
