999
dxflib 2.2.0.0
  0
SECTION
  2
HEADER
  9
$ACADVER
  1
AC1015
  9
$HANDSEED
  5
FFFF
  9
$DIMASZ
 40
2.5
  9
$PLIMMIN
 10
0.0
 20
0.0
  9
$DIMEXE
 40
1.25
  9
$DIMGAP
 40
0.625
  9
$PLIMMAX
 10
210.0
 20
297.0
  9
$INSUNITS
 70
4
  9
$DIMSTYLE
  2
Standard
  9
$DIMEXO
 40
0.625
  9
$DIMTXT
 40
2.5
  9
$CLAYER
  8
0
  0
ENDSEC
  0
SECTION
  2
TABLES
  0
TABLE
  2
VPORT
  5
8
100
AcDbSymbolTable
 70
1
  0
VPORT
  5
30
100
AcDbSymbolTableRecord
100
AcDbViewportTableRecord
  2
*Active
 70
0
 10
0.0
 20
0.0
 11
1.0
 21
1.0
 12
286.30555555555549
 22
148.5
 13
0.0
 23
0.0
 14
10.0
 24
10.0
 15
10.0
 25
10.0
 16
0.0
 26
0.0
 36
1.0
 17
0.0
 27
0.0
 37
0.0
 40
297.0
 41
1.92798353909465
 42
50.0
 43
0.0
 44
0.0
 50
0.0
 51
0.0
 71
0
 72
100
 73
1
 74
3
 75
1
 76
1
 77
0
 78
0
281
0
 65
1
110
0.0
120
0.0
130
0.0
111
1.0
121
0.0
131
0.0
112
0.0
122
1.0
132
0.0
 79
0
146
0.0
  0
ENDTAB
  0
TABLE
  2
LTYPE
  5
5
100
AcDbSymbolTable
 70
21
  0
LTYPE
  5
14
100
AcDbSymbolTableRecord
100
AcDbLinetypeTableRecord
  2
ByBlock
 70
0
  3

 72
65
 73
0
 40
0.0
  0
LTYPE
  5
15
100
AcDbSymbolTableRecord
100
AcDbLinetypeTableRecord
  2
ByLayer
 70
0
  3

 72
65
 73
0
 40
0.0
  0
LTYPE
  5
16
100
AcDbSymbolTableRecord
100
AcDbLinetypeTableRecord
  2
CONTINUOUS
 70
0
  3
Solid line
 72
65
 73
0
 40
0.0
  0
LTYPE
  5
31
100
AcDbSymbolTableRecord
100
AcDbLinetypeTableRecord
  2
DOT
 70
0
  3
Dot . . . . . . . . . . . . . . . . . . . . . .
 72
65
 73
2
 40
6.3499999999999996
 49
0.0
 74
0
 49
-6.3499999999999996
 74
0
  0
LTYPE
  5
32
100
AcDbSymbolTableRecord
100
AcDbLinetypeTableRecord
  2
DOT2
 70
0
  3
Dot (.5x) .....................................
 72
65
 73
2
 40
3.1749999999999998
 49
0.0
 74
0
 49
-3.1749999999999998
 74
0
  0
LTYPE
  5
33
100
AcDbSymbolTableRecord
100
AcDbLinetypeTableRecord
  2
DOTX2
 70
0
  3
Dot (2x) .  .  .  .  .  .  .  .  .  .  .  .  .
 72
65
 73
2
 40
12.699999999999999
 49
0.0
 74
0
 49
-12.699999999999999
 74
0
  0
LTYPE
  5
34
100
AcDbSymbolTableRecord
100
AcDbLinetypeTableRecord
  2
DASHED
 70
0
  3
Dashed __ __ __ __ __ __ __ __ __ __ __ __ __ _
 72
65
 73
2
 40
19.050000000000001
 49
12.699999999999999
 74
0
 49
-6.3499999999999996
 74
0
  0
LTYPE
  5
35
100
AcDbSymbolTableRecord
100
AcDbLinetypeTableRecord
  2
DASHED2
 70
0
  3
Dashed (.5x) _ _ _ _ _ _ _ _ _ _ _ _ _ _ _ _ _
 72
65
 73
2
 40
9.5250000000000004
 49
6.3499999999999996
 74
0
 49
-3.1749999999999998
 74
0
  0
LTYPE
  5
36
100
AcDbSymbolTableRecord
100
AcDbLinetypeTableRecord
  2
DASHEDX2
 70
0
  3
Dashed (2x) ____  ____  ____  ____  ____  ___
 72
65
 73
2
 40
38.100000000000001
 49
25.399999999999999
 74
0
 49
-12.699999999999999
 74
0
  0
LTYPE
  5
37
100
AcDbSymbolTableRecord
100
AcDbLinetypeTableRecord
  2
DASHDOT
 70
0
  3
Dash dot __ . __ . __ . __ . __ . __ . __ . __
 72
65
 73
4
 40
25.399999999999999
 49
12.699999999999999
 74
0
 49
-6.3499999999999996
 74
0
 49
0.0
 74
0
 49
-6.3499999999999996
 74
0
  0
LTYPE
  5
38
100
AcDbSymbolTableRecord
100
AcDbLinetypeTableRecord
  2
DASHDOT2
 70
0
  3
Dash dot (.5x) _._._._._._._._._._._._._._._.
 72
65
 73
4
 40
12.699999999999999
 49
6.3499999999999996
 74
0
 49
-3.1749999999999998
 74
0
 49
0.0
 74
0
 49
-3.1749999999999998
 74
0
  0
LTYPE
  5
39
100
AcDbSymbolTableRecord
100
AcDbLinetypeTableRecord
  2
DASHDOTX2
 70
0
  3
Dash dot (2x) ____  .  ____  .  ____  .  ___
 72
65
 73
4
 40
50.799999999999997
 49
25.399999999999999
 74
0
 49
-12.699999999999999
 74
0
 49
0.0
 74
0
 49
-12.699999999999999
 74
0
  0
LTYPE
  5
3A
100
AcDbSymbolTableRecord
100
AcDbLinetypeTableRecord
  2
DIVIDE
 70
0
  3
Divide ____ . . ____ . . ____ . . ____ . . ____
 72
65
 73
6
 40
31.75
 49
12.699999999999999
 74
0
 49
-6.3499999999999996
 74
0
 49
0.0
 74
0
 49
-6.3499999999999996
 74
0
 49
0.0
 74
0
 49
-6.3499999999999996
 74
0
  0
LTYPE
  5
3B
100
AcDbSymbolTableRecord
100
AcDbLinetypeTableRecord
  2
DIVIDE2
 70
0
  3
Divide (.5x) __..__..__..__..__..__..__..__.._
 72
65
 73
6
 40
15.875
 49
6.3499999999999996
 74
0
 49
-3.1749999999999998
 74
0
 49
0.0
 74
0
 49
-3.1749999999999998
 74
0
 49
0.0
 74
0
 49
-3.1749999999999998
 74
0
  0
LTYPE
  5
3C
100
AcDbSymbolTableRecord
100
AcDbLinetypeTableRecord
  2
DIVIDEX2
 70
0
  3
Divide (2x) ________  .  .  ________  .  .  _
 72
65
 73
6
 40
63.5
 49
25.399999999999999
 74
0
 49
-12.699999999999999
 74
0
 49
0.0
 74
0
 49
-12.699999999999999
 74
0
 49
0.0
 74
0
 49
-12.699999999999999
 74
0
  0
LTYPE
  5
3D
100
AcDbSymbolTableRecord
100
AcDbLinetypeTableRecord
  2
CENTER
 70
0
  3
Center ____ _ ____ _ ____ _ ____ _ ____ _ ____
 72
65
 73
4
 40
50.799999999999997
 49
31.75
 74
0
 49
-6.3499999999999996
 74
0
 49
6.3499999999999996
 74
0
 49
-6.3499999999999996
 74
0
  0
LTYPE
  5
3E
100
AcDbSymbolTableRecord
100
AcDbLinetypeTableRecord
  2
CENTER2
 70
0
  3
Center (.5x) ___ _ ___ _ ___ _ ___ _ ___ _ ___
 72
65
 73
4
 40
28.574999999999999
 49
19.050000000000001
 74
0
 49
-3.1749999999999998
 74
0
 49
3.1749999999999998
 74
0
 49
-3.1749999999999998
 74
0
  0
LTYPE
  5
3F
100
AcDbSymbolTableRecord
100
AcDbLinetypeTableRecord
  2
CENTERX2
 70
0
  3
Center (2x) ________  __  ________  __  _____
 72
65
 73
4
 40
101.59999999999999
 49
63.5
 74
0
 49
-12.699999999999999
 74
0
 49
12.699999999999999
 74
0
 49
-12.699999999999999
 74
0
  0
LTYPE
  5
40
100
AcDbSymbolTableRecord
100
AcDbLinetypeTableRecord
  2
BORDER
 70
0
  3
Border __ __ . __ __ . __ __ . __ __ . __ __ .
 72
65
 73
6
 40
44.450000000000003
 49
12.699999999999999
 74
0
 49
-6.3499999999999996
 74
0
 49
12.699999999999999
 74
0
 49
-6.3499999999999996
 74
0
 49
0.0
 74
0
 49
-6.3499999999999996
 74
0
  0
LTYPE
  5
41
100
AcDbSymbolTableRecord
100
AcDbLinetypeTableRecord
  2
BORDER2
 70
0
  3
Border (.5x) __.__.__.__.__.__.__.__.__.__.__.
 72
65
 73
6
 40
22.225000000000001
 49
6.3499999999999996
 74
0
 49
-3.1749999999999998
 74
0
 49
6.3499999999999996
 74
0
 49
-3.1749999999999998
 74
0
 49
0.0
 74
0
 49
-3.1749999999999998
 74
0
  0
LTYPE
  5
42
100
AcDbSymbolTableRecord
100
AcDbLinetypeTableRecord
  2
BORDERX2
 70
0
  3
Border (2x) ____  ____  .  ____  ____  .  ___
 72
65
 73
6
 40
88.900000000000006
 49
25.399999999999999
 74
0
 49
-12.699999999999999
 74
0
 49
25.399999999999999
 74
0
 49
-12.699999999999999
 74
0
 49
0.0
 74
0
 49
-12.699999999999999
 74
0
  0
ENDTAB
  0
TABLE
  2
LAYER
  5
2
100
AcDbSymbolTable
 70
2
  0
LAYER
  5
10
100
AcDbSymbolTableRecord
100
AcDbLayerTableRecord
  2
0
 70
0
 62
7
420
0
  6
CONTINUOUS
370
25
390
F
  0
LAYER
  5
43
100
AcDbSymbolTableRecord
100
AcDbLayerTableRecord
  2
DEFAULT
 70
0
 62
7
  6
ByLayer
390
F
  0
ENDTAB
  0
TABLE
  2
STYLE
  5
3
100
AcDbSymbolTable
 70
1
  0
STYLE
  5
11
100
AcDbSymbolTableRecord
100
AcDbTextStyleTableRecord
  2
Standard
 70
0
 40
0.0
 41
0.75
 50
0.0
 71
0
 42
2.5
  3
txt
  4

  0
ENDTAB
  0
TABLE
  2
VIEW
  5
6
100
AcDbSymbolTable
 70
0
  0
ENDTAB
  0
TABLE
  2
UCS
  5
7
100
AcDbSymbolTable
 70
0
  0
ENDTAB
  0
TABLE
  2
APPID
  5
9
100
AcDbSymbolTable
 70
1
  0
APPID
  5
12
100
AcDbSymbolTableRecord
100
AcDbRegAppTableRecord
  2
ACAD
 70
0
  0
ENDTAB
  0
TABLE
  2
DIMSTYLE
  5
A
100
AcDbSymbolTable
 70
1
100
AcDbDimStyleTable
 71
0
  0
DIMSTYLE
105
27
100
AcDbSymbolTableRecord
100
AcDbDimStyleTableRecord
  2
Standard
 41
2.5
 42
0.625
 43
3.75
 44
1.25
 70
0
 73
0
 74
0
 77
1
 78
8
140
2.5
141
2.5
143
0.03937007874016
147
0.625
171
3
172
1
271
2
272
2
274
3
278
44
283
0
284
8
340
11
  0
ENDTAB
  0
TABLE
  2
BLOCK_RECORD
  5
1
100
AcDbSymbolTable
 70
1
  0
BLOCK_RECORD
  5
1F
100
AcDbSymbolTableRecord
100
AcDbBlockTableRecord
  2
*Model_Space
340
22
  0
BLOCK_RECORD
  5
1B
100
AcDbSymbolTableRecord
100
AcDbBlockTableRecord
  2
*Paper_Space
340
1E
  0
BLOCK_RECORD
  5
23
100
AcDbSymbolTableRecord
100
AcDbBlockTableRecord
  2
*Paper_Space0
340
26
  0
ENDTAB
  0
ENDSEC
  0
SECTION
  2
BLOCKS
  0
BLOCK
  5
20
100
AcDbEntity
  8
0
100
AcDbBlockBegin
  2
*Model_Space
 70
0
 10
0.0
 20
0.0
 30
0.0
  3
*Model_Space
  1

  0
ENDBLK
  5
21
100
AcDbEntity
  8
0
100
AcDbBlockEnd
  0
BLOCK
  5
1C
100
AcDbEntity
 67
1
  8
0
100
AcDbBlockBegin
  2
*Paper_Space
 70
0
 10
0.0
 20
0.0
 30
0.0
  3
*Paper_Space
  1

  0
ENDBLK
  5
1D
100
AcDbEntity
 67
1
  8
0
100
AcDbBlockEnd
  0
BLOCK
  5
24
100
AcDbEntity
  8
0
100
AcDbBlockBegin
  2
*Paper_Space0
 70
0
 10
0.0
 20
0.0
 30
0.0
  3
*Paper_Space0
  1

  0
ENDBLK
  5
25
100
AcDbEntity
  8
0
100
AcDbBlockEnd
  0
ENDSEC
  0
SECTION
  2
ENTITIES
  0
LWPOLYLINE
  5
44
  8
DEFAULT
 62
256
370
-1
  6
ByLayer
100
AcDbEntity
100
AcDbPolyline
 90
93
 70
0
 10
560.21801762856057
 20
-359.43199830728639
 10
568.11451713073018
 20
-358.44199830728638
 10
576.01101663289978
 20
-359.43199830728639
 10
576.84580241062861
 20
-359.7731560120464
 10
578.0044557304434
 20
-360.24830131542836
 10
579.94534288839418
 20
-360.9629017506
 10
582.04549342077303
 20
-361.88790537460324
 10
584.03764682790302
 20
-363.66814813067464
 10
584.76072825225356
 20
-364.3142999952978
 10
585.22987711724227
 20
-365.44358347369916
 10
586.02364860412627
 20
-366.53580780528057
 10
588.08566334187719
 20
-369.37310049899639
 10
589.90112388010982
 20
-371.1493425157704
 10
592.25269014269816
 20
-373.81103142601501
 10
593.2204632393175
 20
-375.57467534325957
 10
595.28273396986617
 20
-379.33301611245781
 10
597.12898327826213
 20
-384.8722614643878
 10
597.14760899419559
 20
-384.95675380587301
 10
598.0837687902864
 20
-389.4763337246286
 10
598.12709658299991
 20
-389.68551107094419
 10
598.18352366261331
 20
-390.90977767223819
 10
598.44849251681887
 20
-394.16248052145897
 10
598.5050187957371
 20
-394.85634068590923
 10
598.68421045286402
 20
-400.25113364833379
 10
598.70636667739439
 20
-400.9223596332078
 10
598.91106159316621
 20
-405.80004603691805
 10
598.97926249066984
 20
-407.42518515068519
 10
598.10156175593886
 20
-410.41970138211298
 10
598.0199571108667
 20
-410.81043022678978
 10
597.95034452356322
 20
-411.00800011512121
 10
597.36522583623969
 20
-411.72767621487719
 10
596.95456566935695
 20
-412.2327751190154
 10
596.2061415684492
 20
-413.10529701841619
 10
595.36274729671084
 20
-415.29487524428521
 10
593.78418439673044
 20
-417.22503159460501
 10
592.50061469294099
 20
-418.6362106087866
 10
589.21959935775055
 20
-420.66881691084899
 10
587.69494053185701
 20
-421.63581922433281
 10
587.55816424950126
 20
-421.76092228040341
 10
583.59465167866551
 20
-423.38057476799884
 10
583.290480524553
 20
-423.50488358315044
 10
578.69129123929611
 20
-424.17783992167381
 10
578.31302196127444
 20
-424.21801111900743
 10
577.9910166329106
 20
-424.25999999999999
 10
577.9910166329106
 20
-391.97510663110739
 10
574.03101663291056
 20
-391.97510663110739
 10
574.03101663291056
 20
-424.25999999999999
 10
568.11451713073018
 20
-425.25
 10
562.19801762854979
 20
-424.25999999999999
 10
562.19801762854979
 20
-391.97510663110739
 10
558.23801762854987
 20
-391.97510663110739
 10
558.23801762854987
 20
-424.25999999999999
 10
557.91601230018603
 20
-424.21801111900743
 10
557.53774302216243
 20
-424.17783992167381
 10
552.93855373690735
 20
-423.50488358315044
 10
552.63438258279484
 20
-423.38057476799884
 10
548.67087001195921
 20
-421.76092228040341
 10
548.53409372960334
 20
-421.63581922433281
 10
547.00943490370798
 20
-420.66881691084899
 10
543.72841956851937
 20
-418.6362106087866
 10
542.44484986473003
 20
-417.22503159460501
 10
540.86628696474963
 20
-415.29487524428521
 10
540.02289269300945
 20
-413.10529701841619
 10
539.2744685921034
 20
-412.2327751190154
 10
538.86380842522078
 20
-411.72767621487719
 10
538.27868973789725
 20
-411.00800011512121
 10
538.20907715059377
 20
-410.81043022678978
 10
538.12747250552161
 20
-410.41970138211298
 10
537.24977177078881
 20
-407.42518515068519
 10
537.31797266829415
 20
-405.80004603691805
 10
537.52266758406597
 20
-400.9223596332078
 10
537.54482380859645
 20
-400.25113364833379
 10
537.72401546572144
 20
-394.85634068590923
 10
537.7805417446416
 20
-394.16248052145897
 10
538.04551059884523
 20
-390.90977767223819
 10
538.10193767846044
 20
-389.68551107094419
 10
538.14526547117396
 20
-389.4763337246286
 10
539.08142526726294
 20
-384.95675380587301
 10
539.10005098319823
 20
-384.8722614643878
 10
540.94630029159418
 20
-379.33301611245781
 10
543.00857102214297
 20
-375.57467534325957
 10
543.9763441187622
 20
-373.81103142601501
 10
546.32791038135065
 20
-371.1493425157704
 10
548.14337091958316
 20
-369.37310049899639
 10
550.20538565733239
 20
-366.53580780528057
 10
550.9991571442182
 20
-365.44358347369916
 10
551.46830600920498
 20
-364.3142999952978
 10
552.19138743355734
 20
-363.66814813067464
 10
554.18354084068562
 20
-361.88790537460324
 10
556.28369137306447
 20
-360.9629017506
 10
558.22457853101525
 20
-360.24830131542836
 10
559.38323185083175
 20
-359.7731560120464
 10
560.21801762856057
 20
-359.43199830728639
  0
LWPOLYLINE
  5
45
  8
DEFAULT
 62
256
370
-1
  6
ByLayer
100
AcDbEntity
100
AcDbPolyline
 90
172
 70
0
 10
407.96253418838222
 20
-92.903431931134378
 10
411.35586433618676
 20
-95.601227373358739
 10
412.6280997561858
 20
-96.354151621418694
 10
413.86069912512784
 20
-97.170348094638669
 10
415.05051851238954
 20
-98.047734960797285
 10
416.19452310414903
 20
-98.984074312340638
 10
417.28979494412459
 20
-99.976977874511093
 10
418.33354037627157
 20
-101.02391309699928
 10
419.32309717042199
 20
-102.12220961359398
 10
420.25594131270361
 20
-103.26906605335644
 10
421.12969344341462
 20
-104.46155718594083
 10
421.942124925945
 20
-105.69664138283154
 10
422.69116353124684
 20
-106.97116837547647
 10
423.3748987233684
 20
-108.28188729052577
 10
427.84589829452761
 20
-113.23687187574971
 10
433.0109510804574
 20
-119.65653654233148
 10
437.80472353489324
 20
-126.35799984282889
 10
442.2118747395258
 20
-133.3198159113789
 10
445.23128378264039
 20
-138.7459515171499
 10
434.17954157054038
 20
-143.16633303026219
 10
435.65015819930943
 20
-146.84313690471492
 10
446.94118631808362
 20
-142.32704785717715
 10
447.84789868244701
 20
-144.59399049136806
 10
447.01784358271919
 20
-145.67547326129602
 10
446.13832908204904
 20
-146.71713092739805
 10
445.21126330902837
 20
-147.71670358745394
 10
444.23865755591578
 20
-148.67202264371082
 10
443.22262191508679
 20
-149.58101550770999
 10
442.16536070114103
 20
-150.44171009681935
 10
441.06916766858461
 20
-151.25223911271624
 10
439.9364210354712
 20
-152.01084409253639
 10
438.76957832380265
 20
-152.71587922390415
 10
437.57117102786935
 20
-153.36581491556228
 10
436.34379912211443
 20
-153.95924111585887
 10
435.09012542041864
 20
-154.49487037188948
 10
434.28678976458366
 20
-154.78032884149079
 10
433.46362840864742
 20
-155.00222993634085
 10
432.62566139847598
 20
-155.15922039359958
 10
431.7779990721582
 20
-155.25034280766181
 10
430.92581089461839
 20
-155.27504146889015
 10
430.38257094809819
 20
-155.24905508743609
 10
429.84283434933957
 20
-155.18220199865729
 10
429.3096710042862
 20
-155.074862448576
 10
428.78611343162879
 20
-154.92764696151619
 10
428.27513951447645
 20
-154.74139286757568
 10
427.77965556281703
 20
-154.51715954006929
 10
427.30247978302862
 20
-154.256222370042
 10
426.8463262485426
 20
-153.96006551211792
 10
426.413789462772
 20
-153.63037344294827
 10
426.00732960212821
 20
-153.26902138026782
 10
425.62925852306762
 20
-152.87806461706111
 10
425.22432637035604
 20
-152.55326255094397
 10
424.46264861157476
 20
-151.86726279036719
 10
423.75759924097622
 20
-151.12318345000688
 10
423.11359342781998
 20
-150.32568411310697
 10
422.5346640736218
 20
-149.47975889030087
 10
422.02443655724579
 20
-148.59070514543106
 10
421.58610603202857
 20
-147.66409032232679
 10
421.22241741704039
 20
-146.70571708028538
 10
420.9356482078158
 20
-145.72158695658487
 10
420.72759421419778
 20
-144.71786278358081
 10
419.26154132674799
 20
-138.97074030397198
 10
417.34494622928514
 20
-133.35777396728099
 10
414.98984861182441
 20
-127.91422337261885
 10
412.2110427547662
 20
-122.67428388124949
 10
409.0259845939986
 20
-117.67087180778113
 10
407.21512159738984
 20
-115.26971462595287
 10
405.86451330572282
 20
-114.71565473748612
 10
404.56031430586319
 20
-114.05976596162677
 10
403.31018834865898
 20
-113.30590244038848
 10
402.12148144024798
 20
-112.4584940362374
 10
401.0011786753704
 20
-111.5225203012767
 10
400.50205712156696
 20
-111.03594531096078
 10
408.92472588079619
 20
-107.66711815594344
 10
408.1894175664126
 20
-105.82871621871709
 10
407.45410925202719
 20
-103.99031428149071
 10
397.8526063263318
 20
-107.83064146396697
 10
397.32884841533223
 20
-107.01007952984406
 10
396.63997619009399
 20
-105.72299749095696
 10
396.05171859965162
 20
-104.38692933221047
 10
395.56753237078203
 20
-103.00972607440794
 10
392.65892243769605
 20
-100.62474920009873
 10
387.78904901625117
 20
-97.239034988363329
 10
382.66633766362315
 20
-94.249627645417732
 10
379.64896862149078
 20
-93.244963668951058
 10
376.4983086232902
 20
-92.812289174931962
 10
373.32181250432279
 20
-92.966360743416772
 10
370.22781625370999
 20
-93.701923686489963
 10
367.3218421612944
 20
-94.993891262026736
 10
364.70299992715798
 20
-96.798200269580093
 10
362.460606475725
 20
-99.053313847873383
 10
360.67113975737522
 20
-101.68232022024011
 10
359.39563042968359
 20
-104.59555580923794
 10
358.677580376322
 20
-107.69366325781044
 10
354.39368775765661
 20
-124.85199772147951
 10
352.65389148169197
 20
-127.92498117605371
 10
350.95707415134001
 20
-131.02190373584844
 10
349.30356509442601
 20
-134.14216433276323
 10
347.69368523326324
 20
-137.28515736911851
 10
346.1277470223672
 20
-140.45027283519642
 10
344.60605438780681
 20
-143.6368964276331
 10
343.12890266822518
 20
-146.84440966864867
 10
341.69657855751177
 20
-150.07219002608076
 10
340.30936004916782
 20
-153.31961103421287
 10
340.16901241471919
 20
-150.00077381987896
 10
340.1389832899734
 20
-146.6791061415262
 10
340.21930581682921
 20
-143.3582739859624
 10
340.40989134664562
 20
-140.041942417863
 10
340.7105295380826
 20
-136.7337715347924
 10
341.12088858923823
 20
-133.43741242770474
 10
341.64051560385479
 20
-130.15650315138731
 10
342.26883709115401
 20
-126.89466470928973
 10
343.00515959877782
 20
-123.65549705717369
 10
343.84867047812338
 20
-120.44257512999084
 10
344.79843878122745
 20
-117.25944489637433
 10
345.85341628822016
 20
-114.10961944510152
 10
346.06249344894781
 20
-113.50461858904873
 10
346.14184987597861
 20
-112.86944786203776
 10
346.0880502149094
 20
-112.23160392232259
 10
345.90342346301878
 20
-111.6186991520283
 10
345.59596214654397
 20
-111.05726631202477
 10
345.17897632274577
 20
-110.57160993379739
 10
344.67051738505859
 20
-110.18275417178694
 10
344.09259661494059
 20
-109.90753266385315
 10
343.47023230942261
 20
-109.75785979997988
 10
341.51237534698743
 20
-110.50341786884574
 10
338.07266290663921
 20
-112.49523557937918
 10
333.42954810993899
 20
-115.43927521685562
 10
328.90852773780841
 20
-118.56757494628674
 10
324.51690982341779
 20
-121.87507800696227
 10
320.26179322648261
 20
-125.35643796376716
 10
316.15005615825777
 20
-129.00602734946099
 10
312.18834506322418
 20
-132.81794676123388
 10
308.38306387538159
 20
-136.78603439683661
 10
304.74036366658015
 20
-140.90387601486546
 10
301.26613270357257
 20
-145.16481530310423
 10
297.9659869298946
 20
-149.5619646381657
 10
294.84526088792154
 20
-154.08821621903471
 10
297.12616808576939
 20
-148.37165211357629
 10
299.64566568617823
 20
-142.75615795379497
 10
302.39928819210058
 20
-137.25168650669772
 10
305.38215514912679
 20
-131.86799376530598
 10
308.58897979548539
 20
-126.61462165736232
 10
312.01407843217561
 20
-121.500881133444
 10
315.65138049661857
 20
-116.53583566446576
 10
319.49443932197579
 20
-111.72828517779743
 10
323.53644356306279
 20
-107.08675046047836
 10
327.77022926861821
 20
-102.6194580571959
 10
332.18829257852161
 20
-98.334325689729468
 10
336.78280302344638
 20
-94.238948223794694
 10
339.30788110123319
 20
-91.963705143655986
 10
341.97563279161977
 20
-89.857559068219089
 10
344.77475470290358
 20
-87.929433839295186
 10
347.69338682145661
 20
-86.187499015836238
 10
350.71916276319121
 20
-84.639135259135969
 10
353.83926217049816
 20
-83.290903060599533
 10
357.04046503272599
 20
-82.148514944637242
 10
359.47561723200903
 20
-80.489547931798981
 10
362.07311326192257
 20
-79.098450466505753
 10
364.80360098145599
 20
-77.990942183548327
 10
367.63622542119782
 20
-77.179538112366956
 10
370.53897744965224
 20
-76.673407255120068
 10
373.4790554818062
 20
-76.478268975429245
 10
376.42323614254019
 20
-76.596328368595437
 10
379.33824969634321
 20
-77.026251343669372
 10
382.19115600090902
 20
-77.763179698886702
 10
384.94971673626605
 20
-78.798786020176138
 10
387.58275970321137
 20
-80.121367782327241
 10
390.0605310743814
 20
-81.715979589496214
 10
396.23577851745358
 20
-85.105341260645588
 10
402.2094851941734
 20
-88.838474269456796
 10
407.96253418838222
 20
-92.903431931134378
  0
LWPOLYLINE
  5
46
  8
DEFAULT
 62
256
370
-1
  6
ByLayer
100
AcDbEntity
100
AcDbPolyline
 90
87
 70
0
 10
460.62729209732402
 20
-119.01272863785911
 10
560.78126237012577
 20
-119.01272863788792
 10
560.78126237012759
 20
-115.05272863788792
 10
460.27207404719644
 20
-115.05272863785912
 10
460.27207404720002
 20
-103.21972963345206
 10
560.78126237013123
 20
-103.21972963348087
 10
560.78126237013123
 20
-99.259729633480873
 10
460.62729209733124
 20
-99.259729633452238
 10
461.15123758486016
 20
-96.339235967807042
 10
461.7576905785578
 20
-94.485068690281011
 10
464.14007662587301
 20
-85.061132833342683
 10
465.1226974627092
 20
-81.174202918712098
 10
468.79974397611721
 20
-76.242991736723582
 10
473.28968391813544
 20
-68.3883038063817
 10
483.16968217503177
 20
-59.89225920650172
 10
487.09134609935586
 20
-56.612589069102661
 10
492.74505033105243
 20
-54.142721067039844
 10
504.02259839002323
 20
-49.21603906329792
 10
509.20242138155879
 20
-48.109838182918736
 10
521.04094044190015
 20
-46.258366910386854
 10
522.61061665419368
 20
-45.893390702080502
 10
523.57983423892563
 20
-45.668039667403676
 10
538.26282062944563
 20
-44.331097594197963
 10
544.36457422855619
 20
-43.430162356785601
 10
554.74177493369336
 20
-42.85877834964996
 10
569.77863919443723
 20
-42.030882368872199
 10
573.27683088865501
 20
-42.734051471901779
 10
591.36880424682772
 20
-43.39801610661366
 10
592.33503080569142
 20
-44.166435392730058
 10
596.39239724600156
 20
-47.393176253639581
 10
599.76802965004197
 20
-49.320093132700741
 10
601.30715133264846
 20
-49.861385545031098
 10
606.11558533814878
 20
-52.91011144277136
 10
608.47016715058317
 20
-54.403008745512956
 10
612.3109630688748
 20
-59.193380974778101
 10
614.50509447535137
 20
-63.712565498418478
 10
620.2592971820784
 20
-67.919035701685146
 10
623.90001099805204
 20
-70.373909334810065
 10
625.3191200789712
 20
-71.330788513408137
 10
632.29963190442299
 20
-73.446446961478074
 10
643.83368236889214
 20
-77.087891638994037
 10
644.72404927019045
 20
-77.608969608806092
 10
646.54478660171333
 20
-78.674518941087783
 10
654.5005545150558
 20
-85.322935809727738
 10
656.24786442069126
 20
-89.59066359764671
 10
658.82018407210558
 20
-95.873505289527955
 10
660.33349951661285
 20
-99.291495430185478
 10
660.33349951660739
 20
-118.98096284124072
 10
658.82018407209648
 20
-122.39895298189735
 10
656.24786442067864
 20
-128.68179467377698
 10
654.50055451504147
 20
-132.94952246169487
 10
646.54478660169548
 20
-139.59793933033032
 10
644.72404927017237
 20
-140.66348866261092
 10
643.83368236887418
 20
-141.18456663242245
 10
632.29963190440139
 20
-144.82601130993174
 10
625.3191200789496
 20
-146.94166975799789
 10
623.90001099802862
 20
-147.89854893659526
 10
620.25929718205509
 20
-150.35342256971802
 10
614.50509447532431
 20
-154.55989277298127
 10
612.31096306884592
 20
-159.07907729662037
 10
608.4701671505527
 20
-163.86944952588334
 10
606.11558533811819
 20
-165.36234682862371
 10
601.30715133261413
 20
-168.41107272636108
 10
599.76802965000786
 20
-168.95236513869071
 10
596.39239724596735
 20
-170.87928201774992
 10
592.33503080565538
 20
-174.10602287865709
 10
591.36880424678998
 20
-174.87444216477274
 10
573.27683088861716
 20
-175.53840679947419
 10
569.77863919439756
 20
-176.24157590250198
 10
554.74177493365562
 20
-175.41367992171558
 10
544.36457422851834
 20
-174.84229591457381
 10
538.26282062940959
 20
-173.94136067715803
 10
523.57983423888959
 20
-172.60441860394386
 10
522.61061665415582
 20
-172.37906756926651
 10
521.04094044186422
 20
-172.01409136095924
 10
509.20242138152281
 20
-170.16262008842051
 10
504.02259838998901
 20
-169.05641920803845
 10
492.74505033101997
 20
-164.12973720429005
 10
487.09134609932522
 20
-161.659869202224
 10
483.169682175003
 20
-158.38019906482259
 10
473.28968391811202
 20
-149.88415446493704
 10
468.79974397609925
 20
-142.02946653459247
 10
465.122697462693
 20
-137.09825535260197
 10
464.14007662585857
 20
-133.21132543797066
 10
461.75769057855058
 20
-123.78738958103088
 10
461.15123758485299
 20
-121.93322230350451
 10
460.62729209732402
 20
-119.01272863785911
  0
LWPOLYLINE
  5
47
  8
DEFAULT
 62
256
370
-1
  6
ByLayer
100
AcDbEntity
100
AcDbPolyline
 90
112
 70
0
 10
485.21851909647302
 20
-367.02500289938644
 10
485.8840708129602
 20
-367.0320093720876
 10
486.54962252944915
 20
-367.02500289938644
 10
487.21514530350419
 20
-367.03436319819355
 10
487.88023671603719
 20
-367.06008460865576
 10
488.54449460878561
 20
-367.10215157790719
 10
489.20751732749039
 20
-367.16053866947277
 10
489.8689039647594
 20
-367.23521057865844
 10
490.52825460248579
 20
-367.32612215388775
 10
491.18517055365839
 20
-367.43321842400883
 10
491.8392546034446
 20
-367.55643463153018
 10
492.49011124936078
 20
-367.69569627178618
 10
493.13734694042938
 20
-367.85091913797601
 10
493.78057031513703
 20
-368.02200937208755
 10
494.310119691843
 20
-368.17599972349439
 10
495.32520893337721
 20
-368.59779549396717
 10
497.0451570280668
 20
-369.17336268509405
 10
497.97545549103
 20
-369.48467774055422
 10
499.30852087618382
 20
-370.18466615355658
 10
501.20693570884504
 20
-371.51252020529819
 10
504.15905635659004
 20
-373.77546192560885
 10
505.25231185219138
 20
-374.61351910052161
 10
505.76827910303342
 20
-375.38797389925685
 10
508.19018306886721
 20
-378.2513335636998
 10
508.53842079234659
 20
-378.92234400438599
 10
511.00014094401058
 20
-383.32562454047337
 10
512.26459210253154
 20
-386.13393872337235
 10
513.33747927040258
 20
-388.51679237841904
 10
513.46929783243604
 20
-389.82844444090142
 10
514.36422908438033
 20
-394.29910193511415
 10
514.3915101357594
 20
-395.67808661235841
 10
514.46293339478575
 20
-399.28806857647976
 10
514.31412303861657
 20
-400.3195850539434
 10
513.61076121338522
 20
-403.36370322474778
 10
513.39213840506761
 20
-403.67027536984079
 10
511.91879788469697
 20
-405.73643082056282
 10
509.25684465437041
 20
-406.29956472380877
 10
507.76106178268435
 20
-407.03332956674222
 10
507.71711802523498
 20
-407.15296428224883
 10
507.41663018468222
 20
-407.86033939069318
 10
507.40241065442819
 20
-407.93984736772859
 10
507.08242525865398
 20
-409.7295209858562
 10
507.06903659453457
 20
-409.94965015974543
 10
506.63802096801538
 20
-412.44273848397063
 10
506.54004210062465
 20
-412.62834843874805
 10
505.24742367037982
 20
-415.01070214228798
 10
505.20209930724775
 20
-415.14014372717702
 10
504.99025825214704
 20
-415.3914232014564
 10
503.02460354914979
 20
-417.72308880965403
 10
500.2823245638366
 20
-419.02017985809721
 10
499.86575030199782
 20
-419.18202963647997
 10
498.18928460899861
 20
-419.43077256437101
 10
495.82771516919161
 20
-419.625
 10
495.76057031514603
 20
-419.625
 10
495.76057031514603
 20
-393.94754133001743
 10
491.80057031514599
 20
-393.94754133001743
 10
491.80057031514599
 20
-419.625
 10
479.96757131077618
 20
-419.625
 10
479.96757131077618
 20
-393.94754133001743
 10
476.0075713107762
 20
-393.94754133001743
 10
476.0075713107762
 20
-419.625
 10
475.9404264567288
 20
-419.625
 10
473.57885701692362
 20
-419.43077256437101
 10
471.90239132392259
 20
-419.18202963647997
 10
471.48581706208563
 20
-419.02017985809721
 10
468.74353807677244
 20
-417.72308880965403
 10
466.77788337377518
 20
-415.3914232014564
 10
466.56604231867442
 20
-415.14014372717702
 10
466.52071795554059
 20
-415.01070214228798
 10
465.22809952529758
 20
-412.62834843874805
 10
465.13012065790679
 20
-412.44273848397063
 10
464.6991050313876
 20
-409.94965015974543
 10
464.68571636726818
 20
-409.7295209858562
 10
464.36573097149221
 20
-407.93984736772859
 10
464.35151144123995
 20
-407.86033939069318
 10
464.05102360068543
 20
-407.15296428224883
 10
464.00707984323782
 20
-407.03332956674222
 10
462.51129697155181
 20
-406.29956472380877
 10
459.8493437412252
 20
-405.73643082056282
 10
458.37600322085461
 20
-403.67027536984079
 10
458.15738041253701
 20
-403.36370322474778
 10
457.4540185873056
 20
-400.3195850539434
 10
457.30520823113642
 20
-399.28806857647976
 10
457.37663149016282
 20
-395.67808661235841
 10
457.40391254154184
 20
-394.29910193511415
 10
458.29884379348442
 20
-389.82844444090142
 10
458.43066235551782
 20
-388.51679237841904
 10
459.50354952339063
 20
-386.13393872337235
 10
460.76800068190977
 20
-383.32562454047337
 10
463.22972083357558
 20
-378.92234400438599
 10
463.57795855705501
 20
-378.2513335636998
 10
465.99986252288699
 20
-375.38797389925685
 10
466.51582977373084
 20
-374.61351910052161
 10
467.60908526933042
 20
-373.77546192560885
 10
470.56120591707719
 20
-371.51252020529819
 10
472.45962074973841
 20
-370.18466615355658
 10
473.79268613489222
 20
-369.48467774055422
 10
474.72298459785361
 20
-369.17336268509405
 10
476.4429326925432
 20
-368.59779549396717
 10
477.45802193407923
 20
-368.17599972349439
 10
477.9875713107852
 20
-368.02200937208755
 10
478.63079468549279
 20
-367.85091913797601
 10
479.27803037656145
 20
-367.69569627178618
 10
479.92888702247762
 20
-367.55643463153018
 10
480.58297107226201
 20
-367.43321842400883
 10
481.23988702343644
 20
-367.32612215388775
 10
481.89923766116283
 20
-367.23521057865844
 10
482.56062429843178
 20
-367.16053866947277
 10
483.22364701713661
 20
-367.10215157790719
 10
483.88790490988498
 20
-367.06008460865576
 10
484.55299632241804
 20
-367.03436319819355
 10
485.21851909647302
 20
-367.02500289938644
  0
LWPOLYLINE
  5
48
  8
DEFAULT
 62
256
370
-1
  6
ByLayer
100
AcDbEntity
100
AcDbPolyline
 90
101
 70
0
 10
381.06472493836259
 20
433.125
 10
369.23172593398198
 20
433.125
 10
369.23172593398198
 20
521.58693677076542
 10
367.25172593398202
 20
521.58693677076542
 10
365.271725933982
 20
521.58693677076542
 10
365.271725933982
 20
433.125
 10
365.20170621735417
 20
433.15774739188561
 10
360.9987642580104
 20
435.60701899333736
 10
354.56711540658841
 20
439.42236183120781
 10
346.28686213906258
 20
444.33435718126799
 10
339.05628943605535
 20
450.16009788998156
 10
336.37468002097319
 20
452.62591083424979
 10
335.24940932579341
 20
454.24215622960742
 10
329.25371815034998
 20
465.24880806646678
 10
328.89876038768517
 20
465.88788742562463
 10
328.77423112742997
 20
466.09966351139582
 10
322.17562973397236
 20
477.32133994039083
 10
318.09834426378421
 20
486.01267534864797
 10
315.29842348855681
 20
491.89325969899255
 10
314.13245056523999
 20
496.08654147013863
 10
310.47654888084605
 20
509.23475728487102
 10
310.16220651383941
 20
510.54206823127259
 10
310.03250054922722
 20
510.9719357938086
 10
307.5502934500218
 20
527.1568936893126
 10
306.76216998284281
 20
532.29593546757008
 10
307.08398815591858
 20
543.99463264733947
 10
307.02627714734996
 20
552.90368079253983
 10
308.34943874627942
 20
559.42336690294326
 10
311.17714001165876
 20
573.3565279338726
 10
313.3442829251826
 20
578.24924983568815
 10
317.93658956269019
 20
588.36077909263793
 10
319.84649043830098
 20
590.71030468774563
 10
328.15400128226639
 20
598.12085221292159
 10
335.65158589888438
 20
601.9351696112202
 10
340.63131703159439
 20
604.46853729978659
 10
355.25012936019124
 20
608.46713980965535
 10
358.72449397261022
 20
609.00774864903531
 10
365.57844459968521
 20
610.58935505515501
 10
367.25172593401442
 20
610.97489608279852
 10
367.47746037008824
 20
611.28718754891042
 10
367.7295595052916
 20
611.5786116753402
 10
368.00610385457702
 20
611.84694955621865
 10
368.30498780682723
 20
612.09015806454659
 10
368.62393565698738
 20
612.30638540859479
 10
368.9605189333098
 20
612.49398523145101
 10
369.3121748877528
 20
612.6515291464093
 10
369.67622600877297
 20
612.7778176127083
 10
370.04990040791637
 20
612.87188906884853
 10
370.43035292500741
 20
612.93302725393437
 10
370.81468679121718
 20
612.96076666128249
 10
371.19997568509376
 20
612.95489608279854
 10
379.0964751872508
 20
612.95489608279854
 10
379.48176408112744
 20
612.96076666128249
 10
379.86609794733721
 20
612.93302725393437
 10
380.2465504644282
 20
612.87188906884853
 10
380.62022486357165
 20
612.7778176127083
 10
380.98427598459176
 20
612.6515291464093
 10
381.33593193903482
 20
612.49398523145101
 10
381.67251521535718
 20
612.30638540859479
 10
381.99146306551739
 20
612.09015806454659
 10
382.2903470177676
 20
611.84694955621865
 10
382.56689136705302
 20
611.5786116753402
 10
382.81899050225638
 20
611.28718754891042
 10
383.04472493833021
 20
610.97489608279852
 10
384.71800627265941
 20
610.58935505515501
 10
391.5719568997344
 20
609.00774864903531
 10
395.04632151215338
 20
608.46713980965535
 10
409.66513384075017
 20
604.46853729978659
 10
414.64486497346024
 20
601.9351696112202
 10
422.14244959007823
 20
598.12085221292159
 10
430.44996043404359
 20
590.71030468774563
 10
432.35986130965438
 20
588.36077909263793
 10
436.95216794716197
 20
578.24924983568815
 10
439.1193108606858
 20
573.3565279338726
 10
441.9470121260652
 20
559.42336690294326
 10
443.27017372499461
 20
552.90368079253983
 10
443.21246271642599
 20
543.99463264733947
 10
443.53428088950358
 20
532.29593546757008
 10
442.74615742232282
 20
527.1568936893126
 10
440.2639503231174
 20
510.9719357938086
 10
440.13424435850521
 20
510.54206823127259
 10
439.81990199149857
 20
509.23475728487102
 10
436.16400030710457
 20
496.08654147013863
 10
434.99802738378781
 20
491.89325969899255
 10
432.19810660856041
 20
486.01267534864797
 10
428.12082113837221
 20
477.32133994039083
 10
421.52221974491465
 20
466.09966351139582
 10
421.39769048465939
 20
465.88788742562463
 10
421.04273272199464
 20
465.24880806646678
 10
415.04704154655121
 20
454.24215622960742
 10
413.92177085137138
 20
452.62591083424979
 10
411.24016143628921
 20
450.16009788998156
 10
404.00958873328199
 20
444.33435718126799
 10
395.72933546575621
 20
439.42236183120781
 10
389.29768661433422
 20
435.60701899333736
 10
385.09474465499045
 20
433.15774739188561
 10
385.02472493836262
 20
433.125
 10
385.02472493836262
 20
521.58693677076542
 10
383.04472493836255
 20
521.58693677076542
 10
381.06472493836259
 20
521.58693677076542
 10
381.06472493836259
 20
433.125
  0
LWPOLYLINE
  5
49
  8
DEFAULT
 62
256
370
-1
  6
ByLayer
100
AcDbEntity
100
AcDbPolyline
 90
12
 70
0
 10
374.38834020810663
 20
581.98254252185166
 10
374.38834020810663
 20
583.8470093226565
 10
377.76669030871017
 20
583.8470093226565
 10
377.76669030871017
 20
584.72346807517135
 10
374.21304845760363
 20
589.76974574116741
 10
373.43220338717998
 20
589.76974574116741
 10
373.43220338717998
 20
584.72346807517135
 10
372.38045288416197
 20
584.72346807517135
 10
372.38045288416197
 20
583.8470093226565
 10
373.43220338717998
 20
583.8470093226565
 10
373.43220338717998
 20
581.98254252185166
 10
374.38834020810663
 20
581.98254252185166
  0
LWPOLYLINE
  5
4A
  8
DEFAULT
 62
256
370
-1
  6
ByLayer
100
AcDbEntity
100
AcDbPolyline
 90
4
 70
0
 10
374.38834020810663
 20
584.72346807517135
 10
374.38834020810663
 20
588.23461495645915
 10
376.82648910146702
 20
584.72346807517135
 10
374.38834020810663
 20
584.72346807517135
  0
LWPOLYLINE
  5
4B
  8
DEFAULT
 62
256
370
-1
  6
ByLayer
100
AcDbEntity
100
AcDbPolyline
 90
48
 70
0
 10
249.47229086165879
 20
-94.955330347778514
 10
246.34899629870759
 20
-97.389797655258718
 10
251.58873257116019
 20
-104.11210595809729
 10
249.74996807372219
 20
-104.64905947794625
 10
242.62405459437241
 20
-104.00207585745204
 10
233.35976615104619
 20
-101.99986680478733
 10
224.41069640211842
 20
-98.877362668592937
 10
215.9117673158502
 20
-94.681640342424956
 10
207.99111424850102
 20
-89.475957251950859
 10
200.7681540927444
 20
-83.338797645082806
 10
194.35178487130918
 20
-76.3626893126346
 10
188.8387439198832
 20
-68.652808579462857
 10
184.31214941244241
 20
-60.32539459809162
 10
180.84024721784522
 20
-51.505996852032119
 10
178.47538198090146
 20
-42.327582290539738
 10
182.23974384520321
 20
-48.542207467944962
 10
186.48301825185121
 20
-54.440224817101736
 10
191.17871304263639
 20
-59.984811075142083
 10
196.2975114500166
 20
-65.141349565803665
 10
201.80745513136799
 20
-69.877646322701395
 10
207.67414369542661
 20
-74.164131086864771
 10
213.8609494752516
 20
-77.974041923588146
 10
220.32924620679898
 20
-81.283592305995484
 10
227.03865018540301
 20
-84.072119622156009
 10
233.94727239452101
 20
-86.322214178558824
 10
235.439983444446
 20
-85.818499592623738
 10
236.97115433707322
 20
-85.447783582417983
 10
238.52895986815918
 20
-85.212929180772008
 10
240.10136913464279
 20
-85.115750163847551
 10
241.67623844908618
 20
-85.156997043383825
 10
243.24140512515419
 20
-85.33635127049574
 10
244.78478140979701
 20
-85.652427695834163
 10
246.2944478367564
 20
-86.102785267060852
 10
247.75874528037841
 20
-86.683945881053532
 10
249.166364998815
 20
-87.39142124523265
 10
250.50643597123741
 20
-88.219747540554124
 10
251.7686088545214
 20
-89.162527618491836
 10
252.93708996259861
 20
-90.105740878001399
 10
253.94657683913999
 20
-91.217467282716896
 10
254.7730406249658
 20
-92.471244361614723
 10
255.39680896733702
 20
-93.837228405409803
 10
255.8030342817942
 20
-95.282904837654542
 10
255.98204716985461
 20
-96.773862160567987
 10
255.92958658010519
 20
-98.274611053412642
 10
255.6469012342032
 20
-99.749429126283246
 10
255.14071990349581
 20
-101.16321122168874
 10
254.79967798804321
 20
-101.79009012519829
 10
249.47229086165879
 20
-94.955330347778514
  0
LWPOLYLINE
  5
4C
  8
DEFAULT
 62
256
370
-1
  6
ByLayer
100
AcDbEntity
100
AcDbPolyline
 90
132
 70
0
 10
221.65952028071578
 20
433.36346396949
 10
221.19487163757361
 20
433.125
 10
220.73022299443141
 20
433.36346396949
 10
220.25919430148579
 20
433.58906405091784
 10
219.78214161411961
 20
433.80162971088299
 10
219.29942554131961
 20
434.0010002688378
 10
218.81141097307921
 20
434.18702501854915
 10
218.31846680458261
 20
434.35956334201381
 10
217.8209656573452
 20
434.5184848157532
 10
217.3192835975496
 20
434.66366930941257
 10
216.81379985177523
 20
434.79500707654915
 10
216.30489652033199
 20
434.9123988376104
 10
215.79295828843078
 20
435.01575585496857
 10
215.27837213539502
 20
435.10500000000002
 10
215.27837213539502
 20
518.28680403814144
 10
211.31837213539501
 20
518.28680403814144
 10
211.31837213539501
 20
435.10500000000002
 10
206.66963145475262
 20
437.41335815133476
 10
197.61332300873102
 20
440.43476698058583
 10
193.79242021634821
 20
441.70951457296979
 10
190.11260640498659
 20
443.9840098118616
 10
184.0029677237502
 20
449.07903841660919
 10
178.72685355705678
 20
455.06095081768439
 10
177.00320553957272
 20
457.01519142344398
 10
173.52391756893769
 20
463.02576702536703
 10
170.12662734881502
 20
469.98562376195281
 10
167.17301999941535
 20
477.26938733928841
 10
163.59025376168316
 20
487.47392851915259
 10
162.75506312119123
 20
490.73359037136481
 10
160.48641361122577
 20
499.5881591457096
 10
159.78575868585713
 20
503.94891616762499
 10
159.42792529056149
 20
505.71786412880277
 10
158.22931760801441
 20
517.66965084555
 10
157.54933219984505
 20
524.45001111366776
 10
156.97884172965442
 20
529.76139792553442
 10
157.60117362642171
 20
538.84938616426621
 10
157.29698800597086
 20
545.10219555477306
 10
158.69228189621634
 20
552.34874529482579
 10
161.50976688480733
 20
563.12831551939917
 10
164.71159607732778
 20
568.95940063038779
 10
166.7894724751813
 20
572.74361097313863
 10
169.27667310672649
 20
575.62718151382387
 10
169.31201238467548
 20
576.80549728343465
 10
172.44157028369636
 20
579.35835672748021
 10
173.52912829729806
 20
580.34768962334033
 10
174.31452879992443
 20
581.06216993224325
 10
174.4490599641297
 20
581.72558872789978
 10
172.69671320179236
 20
584.05333505686917
 10
172.0458715507956
 20
584.91782858600095
 10
168.54412105520839
 20
587.81215231947181
 10
164.16002427592048
 20
593.25629656092656
 10
163.79980748606502
 20
593.55613192071598
 10
162.0401323148289
 20
594.38817914654874
 10
160.6258588703499
 20
597.03954429734631
 10
169.83160554113982
 20
599.03011544534093
 10
170.93231650080361
 20
599.07521290350064
 10
180.93045413782622
 20
596.59800014898713
 10
183.43855342193399
 20
597.07788297409979
 10
184.62652263722521
 20
597.31308028929232
 10
193.26175578112861
 20
597.48241528755364
 10
194.08939491113279
 20
597.49238230176422
 10
202.39308953035561
 20
599.90688376365233
 10
208.1310411669354
 20
600.42940713569169
 10
208.56395098705141
 20
600.46882633081259
 10
208.92220633281602
 20
600.5603691825354
 10
210.95969606719919
 20
601.34106356818927
 10
213.29837213542379
 20
602.2370743392313
 10
229.09137113972523
 20
602.2370743392313
 10
231.4300472079498
 20
601.34106356818927
 10
233.467536942333
 20
600.5603691825354
 10
233.8257922880976
 20
600.46882633081259
 10
234.25870210821361
 20
600.42940713569169
 10
239.99665374479338
 20
599.90688376365233
 10
248.3003483640162
 20
597.49238230176422
 10
249.1279874940204
 20
597.48241528755364
 10
257.76322063792384
 20
597.31308028929232
 10
258.951189853215
 20
597.07788297409979
 10
261.4592891373228
 20
596.59800014898713
 10
271.45742677434538
 20
599.07521290350064
 10
272.55813773400899
 20
599.03011544534093
 10
281.7638844047982
 20
597.03954429734631
 10
280.34961096031918
 20
594.38817914654874
 10
278.58993578908382
 20
593.55613192071598
 10
278.2297189992276
 20
593.25629656092656
 10
273.84562221994082
 20
587.81215231947181
 10
270.34387172435339
 20
584.91782858600095
 10
269.69303007335702
 20
584.05333505686917
 10
267.94068331102022
 20
581.72558872789978
 10
268.07521447522441
 20
581.06216993224325
 10
268.86061497785039
 20
580.34768962334033
 10
269.94817299145319
 20
579.35835672748021
 10
273.07773089047259
 20
576.80549728343465
 10
273.11307016842181
 20
575.62718151382387
 10
275.60027079996843
 20
572.74361097313863
 10
277.67814719782137
 20
568.95940063038779
 10
280.87997639034239
 20
563.12831551939917
 10
283.69746137893321
 20
552.34874529482579
 10
285.09275526917759
 20
545.10219555477306
 10
284.78856964872779
 20
538.84938616426621
 10
285.4109015454942
 20
529.76139792553442
 10
284.84041107530339
 20
524.45001111366776
 10
284.1604256671344
 20
517.66965084555
 10
282.96181798458838
 20
505.71786412880277
 10
282.60398458929239
 20
503.94891616762499
 10
281.90332966392361
 20
499.5881591457096
 10
279.63468015395762
 20
490.73359037136481
 10
278.7994895134662
 20
487.47392851915259
 10
275.21672327573401
 20
477.26938733928841
 10
272.2631159263338
 20
469.98562376195281
 10
268.86582570621061
 20
463.02576702536703
 10
265.38653773557724
 20
457.01519142344398
 10
263.6628897180924
 20
455.06095081768439
 10
258.38677555139878
 20
449.07903841660919
 10
252.27713687016242
 20
443.9840098118616
 10
248.59732305880081
 20
441.70951457296979
 10
244.77642026641803
 20
440.43476698058583
 10
235.72011182039643
 20
437.41335815133476
 10
231.07137113975401
 20
435.10500000000002
 10
231.07137113975401
 20
518.28680403814144
 10
227.111371139754
 20
518.28680403814144
 10
227.111371139754
 20
435.10500000000002
 10
226.59678498671818
 20
435.01575585496857
 10
226.08484675481699
 20
434.9123988376104
 10
225.57594342337381
 20
434.79500707654915
 10
225.07045967759939
 20
434.66366930941257
 10
224.56877761780379
 20
434.5184848157532
 10
224.0712764705664
 20
434.35956334201381
 10
223.57833230206799
 20
434.18702501854915
 10
223.09031773382941
 20
434.0010002688378
 10
222.60760166102938
 20
433.80162971088299
 10
222.1305489736632
 20
433.58906405091784
 10
221.65952028071578
 20
433.36346396949
  0
LWPOLYLINE
  5
4D
  8
DEFAULT
 62
256
370
-1
  6
ByLayer
100
AcDbEntity
100
AcDbPolyline
 90
109
 70
0
 10
32.863870427961423
 20
250.95436461626218
 10
11.880005293692323
 20
273.75883288710122
 10
11.880005293692323
 20
175.4014334213405
 10
7.9200052936923235
 20
175.4014334213405
 10
0.0
 20
175.4014334213405
 10
0.0
 20
159.56143342134047
 10
9.9000052936923062
 20
159.56143342133939
 10
9.900005293692324
 20
90.732245098410004
 10
0.0000002544137541
 20
90.732245098410004
 10
0.0000002544137541
 20
74.892245098410172
 10
9.9000052936923062
 20
74.892245098409106
 10
30.883870427961597
 20
65.358324422041136
 10
30.883870427961597
 20
157.70654266381126
 10
34.843870427961598
 20
157.70654266381126
 10
34.843870427961598
 20
63.367677767136598
 10
53.84773556223066
 20
52.89594394504968
 10
53.84773556223066
 20
141.92543966676408
 10
57.807735562230661
 20
141.92543966676408
 10
57.807735562230661
 20
50.539660823554016
 10
76.811600696499895
 20
38.39599734308586
 10
76.811600696499895
 20
126.51871647784806
 10
80.771600696499902
 20
126.51871647784806
 10
80.771600696499902
 20
35.908534203326461
 10
99.775465830768965
 20
24.177746151244261
 10
99.775465830768965
 20
110.17807704308393
 10
103.73546583076896
 20
110.17807704308393
 10
103.73546583076896
 20
21.748757131979822
 10
122.73933096503821
 20
10.166323095816281
 10
122.73933096503821
 20
92.909827340128615
 10
126.6993309650382
 20
92.909827340128615
 10
126.6993309650382
 20
8.4350541072131087
 10
145.70319609930726
 20
3.4009212895601402
 10
145.70319609930726
 20
78.214771494058326
 10
149.66319609930724
 20
78.214771494058326
 10
149.66319609930724
 20
2.605401317471526
 10
157.18512866644207
 20
1.5758195490880236
 10
157.18512866644207
 20
32.504726248947541
 10
159.16512866644206
 20
32.504726248947541
 10
161.14512866644191
 20
32.504726248947541
 10
161.14512866644191
 20
1.0337854685629968
 10
168.6670612335765
 20
0.0042037001795983
 10
168.6670612335765
 20
62.543021947202341
 10
172.62706123357651
 20
62.543021947202341
 10
172.62706123357651
 20
0.0
 10
191.63092636784521
 20
2.5608508742224259
 10
191.63092636784521
 20
56.048778590357344
 10
195.59092636784519
 20
56.048778590357344
 10
195.59092636784519
 20
5.0643961729742166
 10
214.59479150211479
 20
26.532351973001699
 10
214.59479150211479
 20
69.577265535645054
 10
218.5547915021148
 20
69.577265535645054
 10
218.5547915021148
 20
30.234581088064381
 10
237.5586566363844
 20
44.300293368245818
 10
237.5586566363844
 20
78.308898848460359
 10
241.51865663638441
 20
78.308898848460359
 10
241.51865663638441
 20
47.168095798058218
 10
260.52252177065401
 20
60.627297966301619
 10
260.52252177065401
 20
87.955135197649753
 10
264.48252177065399
 20
87.955135197649753
 10
264.48252177065399
 20
63.753491305709638
 10
283.4863869049218
 20
80.299216716133145
 10
283.4863869049218
 20
91.930842704847251
 10
287.44638690492184
 20
91.930842704847251
 10
287.44617490922883
 20
83.416852845437759
 10
289.15465382518681
 20
85.132426801790515
 10
290.54018524784942
 20
87.117973800176514
 10
291.56089179026338
 20
89.31348111290886
 10
292.18592281840739
 20
91.652590007305548
 10
292.39638690492183
 20
94.064601424002475
 10
292.18592281840739
 20
96.476612840699218
 10
291.56089179026338
 20
98.815721735096105
 10
290.54018524784942
 20
101.01122904782844
 10
289.15465382518681
 20
102.99677604621444
 10
287.44617490922883
 20
104.71235000256719
 10
285.46638690492182
 20
106.10609806588283
 10
284.13525905995141
 20
106.45704777282462
 10
282.79582329921482
 20
106.77481951373497
 10
281.448906438042
 20
107.05921713247662
 10
280.09533990973858
 20
107.31006507429882
 10
278.73595925236083
 20
107.52720849420696
 10
277.37160359294882
 20
107.71051335254515
 10
276.00311512954079
 20
107.85986649773946
 10
274.63133861130063
 20
107.97517573614019
 10
273.25712081705939
 20
108.05636988893502
 10
271.8813100326156
 20
108.10339883608896
 10
270.50475552710219
 20
108.11623354727723
 10
269.12830702873862
 20
108.09486609980796
 10
268.91551043415899
 20
108.84900748696164
 10
268.62478656505562
 20
109.57666898409967
 10
268.25934271957203
 20
110.26982294844085
 10
267.82321051496518
 20
110.92082242815468
 10
267.3212014103508
 20
111.52248552438589
 10
266.7588536261502
 20
112.06817462276317
 10
266.14237104582844
 20
112.55186962030122
 10
265.47855477395939
 20
112.96823433984954
 10
264.77472810567599
 20
113.31267539939046
 10
264.03865573527179
 20
113.58139288674654
 10
263.27845809522
 20
113.77142228063107
 10
262.50252177065403
 20
113.88066715557972
 10
239.53865663638439
 20
110.85200717228118
 10
216.57479150211481
 20
110.38544713961929
 10
193.6109263678452
 20
109.26989296640964
 10
170.64706123357649
 20
125.35285723448779
 10
147.68319609930745
 20
153.55312463038285
 10
124.7193309650382
 20
176.86009764121789
 10
101.75546583076897
 20
197.40063089741042
 10
78.791600696499899
 20
215.9066757898818
 10
55.827735562230664
 20
232.04597833270259
 10
32.863870427961423
 20
250.95436461626218
  0
LWPOLYLINE
  5
4E
  8
DEFAULT
 62
256
370
-1
  6
ByLayer
100
AcDbEntity
100
AcDbPolyline
 90
48
 70
0
 10
306.2767083174648
 20
-74.749768168647591
 10
309.86505290691537
 20
-67.089565928384999
 10
306.27900831326764
 20
-65.4097194555291
 10
302.19907296452038
 20
-74.119342826605859
 10
301.80185506466285
 20
-73.954314925716417
 10
301.04619156125284
 20
-73.548897806978459
 10
299.73343984928283
 20
-72.677922718143236
 10
298.50222511049037
 20
-71.695057045921928
 10
297.36205599334141
 20
-70.607891443564611
 10
296.321738002659
 20
-69.424822070745293
 10
295.38930549488038
 20
-68.154985750160876
 10
294.57195962887079
 20
-66.808189404029889
 10
286.69826000614137
 20
-62.920296681573056
 10
278.54217844054381
 20
-59.66619326194968
 10
270.15463603277999
 20
-57.066195583452959
 10
261.5879989697346
 20
-55.13653628703252
 10
252.89575158515581
 20
-53.889262870564977
 10
244.132162439355
 20
-53.33216247236394
 10
235.3519455027336
 20
-53.468713253510998
 10
226.609918558461
 20
-54.298062682548839
 10
217.96066095701579
 20
-55.815032858127303
 10
209.45817285934862
 20
-58.010152836309302
 10
218.7441168693714
 20
-52.256826665324105
 10
228.66516149874121
 20
-47.684913318586794
 10
239.0717306567376
 20
-44.363341921175994
 10
249.8069281705686
 20
-42.34219063352586
 10
260.70890325363177
 20
-41.651931640728421
 10
271.61329067273522
 20
-42.302971734169496
 10
282.35568882474001
 20
-44.285495411983675
 10
292.77413836156074
 20
-47.56961286392454
 10
302.7115639941282
 20
-52.105810609468797
 10
312.01814266111262
 20
-57.825697995131222
 10
314.769367720665
 20
-60.020604590004176
 10
314.97885110325961
 20
-61.583488044417358
 10
315.01809913969441
 20
-63.159859692011878
 10
314.88665152152601
 20
-64.731231545999037
 10
314.58604989144601
 20
-66.279174258119042
 10
314.11981976260142
 20
-67.78553326155162
 10
313.49342917069919
 20
-69.232641691124883
 10
312.71422454385663
 20
-70.603527583679934
 10
311.79134454227818
 20
-71.882112928481646
 10
310.73561287831984
 20
-73.053402233191733
 10
310.02524741770918
 20
-73.533788830388687
 10
309.27095257324322
 20
-73.941746742466918
 10
308.48008851395645
 20
-74.27329524595531
 10
307.66037223964497
 20
-74.525199196073402
 10
306.81980228083319
 20
-74.69500059424567
 10
306.2767083174648
 20
-74.749768168647591
  0
LWPOLYLINE
  5
4F
  8
DEFAULT
 62
256
370
-1
  6
ByLayer
100
AcDbEntity
100
AcDbPolyline
 90
48
 70
0
 10
24.842722534920721
 20
-97.389797655184381
 10
21.719427971975822
 20
-94.955330347696616
 10
16.392040845574897
 20
-101.79009012510342
 10
16.050998930123683
 20
-101.16321122159297
 10
15.544817599418639
 20
-99.749429126186214
 10
15.262132253520024
 20
-98.274611053314729
 10
15.209671663775737
 20
-96.77386216047006
 10
15.388684551838855
 20
-95.282904837557155
 10
15.794909866300591
 20
-93.837228405313326
 10
16.418678208673754
 20
-92.471244361519865
 10
17.24514199450342
 20
-91.217467282624014
 10
18.254628871047721
 20
-90.105740877910861
 10
19.423109979126721
 20
-89.162527618404354
 10
20.685282862413239
 20
-88.219747540469712
 10
22.025353834838338
 20
-87.391421245151463
 10
23.432973553276923
 20
-86.68394588097577
 10
24.89727099689982
 20
-86.1027852669867
 10
26.406937423860843
 20
-85.652427695763592
 10
27.950313708504179
 20
-85.336351270429134
 10
29.51548038457128
 20
-85.156997043320999
 10
31.090349699016119
 20
-85.115750163788704
 10
32.662758965499904
 20
-85.212929180716912
 10
34.220564496583918
 20
-85.447783582366682
 10
35.751735389210218
 20
-85.818499592576401
 10
37.244446439134855
 20
-86.322214178514912
 10
44.153068648258795
 20
-84.072119622129179
 10
50.862472626868382
 20
-81.283592305985039
 10
57.330769358424419
 20
-77.974041923593731
 10
63.517575138258962
 20
-74.164131086885277
 10
69.384263702328539
 20
-69.877646322736496
 10
74.894207383691636
 20
-65.141349565852266
 10
80.013005791083543
 20
-59.984811075203282
 10
84.708700581881516
 20
-54.44022481717446
 10
88.95197498854553
 20
-48.542207468027939
 10
92.716336852861858
 20
-42.32758229063208
 10
90.351471615895093
 20
-51.505996852118699
 10
86.879569421276997
 20
-60.325394598169559
 10
82.352974913816567
 20
-68.652808579529818
 10
76.839933962370424
 20
-76.362689312687877
 10
70.423564740917584
 20
-83.338797645120422
 10
63.200604585146934
 20
-89.475957251970669
 10
55.279951517784959
 20
-94.68164034242551
 10
46.781022431506322
 20
-98.877362668572601
 10
37.831952682569877
 20
-101.99986680474485
 10
28.567664239239182
 20
-104.00207585738688
 10
21.441750759887757
 20
-104.64905947786363
 10
19.602986262451381
 20
-104.11210595801015
 10
24.842722534920721
 20
-97.389797655184381
  0
LWPOLYLINE
  5
50
  8
DEFAULT
 62
256
370
-1
  6
ByLayer
100
AcDbEntity
100
AcDbPolyline
 90
75
 70
0
 10
58.636100817226257
 20
606.33165945876658
 10
59.628133480850643
 20
606.59681355406087
 10
75.421132485159958
 20
606.59681355406087
 10
76.41316514878433
 20
606.33165945876658
 10
82.220182338377711
 20
604.78098046331218
 10
102.22883723451905
 20
599.41748159145004
 10
102.68356737340656
 20
599.28165558244086
 10
112.13759758264578
 20
595.00394198796778
 10
117.78422574176568
 20
590.47974377450464
 10
121.1872157065656
 20
586.63066947776099
 10
124.56766211679756
 20
582.80707976363465
 10
131.04978426695681
 20
569.61437022370615
 10
131.26838246999012
 20
569.09747647135077
 10
131.49075524075405
 20
567.94256779881061
 10
133.09353249185662
 20
554.94284254478282
 10
134.5070758136913
 20
548.94939627301915
 10
134.76516481860389
 20
539.32390111552866
 10
135.04926596601078
 20
528.72827153277422
 10
134.24752401452369
 20
523.72362199648683
 10
132.23529903816811
 20
507.63896813935258
 10
132.08404781260674
 20
507.04863262341837
 10
131.67318067977115
 20
505.44506111016062
 10
128.07567177760765
 20
493.5223065352356
 10
127.04298421994586
 20
489.22748696891335
 10
122.41991635170822
 20
477.72225191830142
 10
119.96816786827902
 20
471.62063242079279
 10
117.17503958455362
 20
466.15209424005423
 10
113.3303706895356
 20
459.61380012339544
 10
111.88629239500673
 20
457.01382703331876
 10
106.31560574121966
 20
450.9626781609108
 10
101.32790343737112
 20
446.90791897858503
 10
96.190081045609688
 20
442.73115160435617
 10
86.246342490315413
 20
436.85059626925022
 10
82.318963059062995
 20
435.54448230689701
 10
80.501184698318454
 20
434.64887004950458
 10
77.401132485190914
 20
433.125
 10
77.401132485190914
 20
519.37425969973378
 10
73.44113248519092
 20
519.37425969973378
 10
73.44113248519092
 20
433.125
 10
61.608133480819859
 20
433.125
 10
61.608133480819859
 20
519.37425969973378
 10
57.648133480819858
 20
519.37425969973378
 10
57.648133480819858
 20
433.125
 10
54.54808126769214
 20
434.64887004950458
 10
52.7303029069476
 20
435.54448230689701
 10
48.802923475695181
 20
436.85059626925022
 10
38.859184920400921
 20
442.73115160435617
 10
33.721362528639659
 20
446.90791897858503
 10
28.733660224791119
 20
450.9626781609108
 10
23.16297357100386
 20
457.01382703331876
 10
21.71889527647518
 20
459.61380012339544
 10
17.874226381457124
 20
466.15209424005423
 10
15.081098097731687
 20
471.62063242079279
 10
12.629349614302541
 20
477.72225191830142
 10
8.006281746064758
 20
489.22748696891335
 10
6.9735941884029788
 20
493.5223065352356
 10
3.3760852862395683
 20
505.44506111016062
 10
2.9652181534040403
 20
507.04863262341837
 10
2.8139669278426442
 20
507.63896813935258
 10
0.8017419514869216
 20
523.72362199648683
 10
0.0
 20
528.72827153277422
 10
0.2841011474068368
 20
539.32390111552866
 10
0.542190152319435
 20
548.94939627301915
 10
1.9557334741540502
 20
554.94284254478282
 10
3.5585107252566299
 20
567.94256779881061
 10
3.7808834960206621
 20
569.09747647135077
 10
3.9994816990537982
 20
569.61437022370615
 10
10.48160384921322
 20
582.80707976363465
 10
13.862050259445054
 20
586.63066947776099
 10
17.26504022424508
 20
590.47974377450464
 10
22.91166838336482
 20
595.00394198796778
 10
32.365698592604218
 20
599.28165558244086
 10
32.820428731491717
 20
599.41748159145004
 10
52.829083627632897
 20
604.78098046331218
 10
58.636100817226257
 20
606.33165945876658
  0
LWPOLYLINE
  5
51
  8
DEFAULT
 62
256
370
-1
  6
ByLayer
100
AcDbEntity
100
AcDbPolyline
 90
119
 70
0
 10
643.85756708957638
 20
-340.60845896251197
 10
659.65056609390115
 20
-340.60845896251197
 10
659.85873606814675
 20
-340.66571558696637
 10
661.02018929121596
 20
-340.9841129807628
 10
662.77184217065098
 20
-341.44985977788235
 10
666.26207248789444
 20
-342.55605408498536
 10
668.20156954246806
 20
-343.45035021405783
 10
669.32919536426812
 20
-343.65681200313901
 10
671.23180513387445
 20
-343.87322475177905
 10
674.07459627477249
 20
-344.33253143514719
 10
675.46186027131591
 20
-344.55667230506702
 10
676.53721327015262
 20
-344.58336897805805
 10
679.11627319367585
 20
-345.97320671885944
 10
679.29956513407444
 20
-346.07763194836502
 10
682.59680111585158
 20
-347.749067539512
 10
683.86221626397298
 20
-350.39910636814676
 10
683.96883164691837
 20
-350.60859411540838
 10
685.12199043003841
 20
-352.7617206043962
 10
685.11136153637528
 20
-353.52522137380504
 10
685.02443628939841
 20
-354.71705076761225
 10
684.86164598617734
 20
-356.13469101537362
 10
684.61356284937892
 20
-358.29565566321241
 10
684.6350732126316
 20
-358.6433391462474
 10
684.56713202113508
 20
-360.57678438088442
 10
684.42061960885144
 20
-361.78654262907781
 10
684.5012258132449
 20
-363.0242071530738
 10
684.21928077656821
 20
-365.54315189781062
 10
684.69755031523437
 20
-367.00284589592218
 10
685.09658556511386
 20
-368.22052312211156
 10
685.15620236836207
 20
-368.723365789833
 10
685.16279844528424
 20
-369.19122170590435
 10
685.2289043090592
 20
-369.59728406491439
 10
685.2443245254774
 20
-369.69205995605523
 10
684.86710560476581
 20
-370.65507906365997
 10
685.8945386080145
 20
-372.16890650179255
 10
686.45868218793726
 20
-373.00012531162378
 10
686.86853562561237
 20
-373.4694080363106
 10
687.13553599362535
 20
-374.24345530760098
 10
688.64544504179094
 20
-378.6207525401274
 10
689.53447394662862
 20
-382.72660194512702
 10
690.51237052512602
 20
-389.87024292007555
 10
690.54373247799595
 20
-390.20622487220339
 10
690.51486778617607
 20
-390.56868910670221
 10
689.45479607580478
 20
-397.34630556035222
 10
688.64728528596777
 20
-399.96228048834064
 10
687.07254039357235
 20
-405.06371213173378
 10
685.52936429367776
 20
-407.76188469098042
 10
683.77765395770098
 20
-410.78009442803216
 10
678.99979154117523
 20
-414.99249668410681
 10
677.70766506317045
 20
-416.13168596579641
 10
676.39987552404057
 20
-416.81129853892321
 10
670.14154023569097
 20
-420.19835359715637
 10
668.8203608050992
 20
-420.45642037021321
 10
662.88416350980606
 20
-421.6159513713942
 10
662.02965051165904
 20
-421.80449061756957
 10
661.6305660939156
 20
-421.875
 10
661.6305660939156
 20
-381.41664056648636
 10
659.65056609391559
 20
-381.41664056648636
 10
657.67056609391557
 20
-381.41664056648636
 10
657.67056609391557
 20
-421.875
 10
645.83756708956196
 20
-421.875
 10
645.83756708956196
 20
-381.41664056648636
 10
643.85756708956194
 20
-381.41664056648636
 10
641.87756708956192
 20
-381.41664056648636
 10
641.87756708956192
 20
-421.875
 10
641.47848267181678
 20
-421.80449061756957
 10
640.62396967367158
 20
-421.6159513713942
 10
634.68777237837833
 20
-420.45642037021321
 10
633.36659294778474
 20
-420.19835359715637
 10
627.10825765943525
 20
-416.81129853892321
 10
625.80046812030537
 20
-416.13168596579641
 10
624.50834164230059
 20
-414.99249668410681
 10
619.73047922577655
 20
-410.78009442803216
 10
617.97876888979977
 20
-407.76188469098042
 10
616.43559278990517
 20
-405.06371213173378
 10
614.86084789750976
 20
-399.96228048834064
 10
614.05333710767275
 20
-397.34630556035222
 10
612.99326539730157
 20
-390.56868910670221
 10
612.96440070547976
 20
-390.20622487220339
 10
612.99576265835162
 20
-389.87024292007555
 10
613.97365923684902
 20
-382.72660194512702
 10
614.86268814168477
 20
-378.6207525401274
 10
616.37259718985035
 20
-374.24345530760098
 10
616.63959755786516
 20
-373.4694080363106
 10
617.04945099554038
 20
-373.00012531162378
 10
617.61359457546121
 20
-372.16890650179255
 10
618.64102757871183
 20
-370.65507906365997
 10
618.26380865800024
 20
-369.69205995605523
 10
618.27922887441844
 20
-369.59728406491439
 10
618.3453347381934
 20
-369.19122170590435
 10
618.35193081511557
 20
-368.723365789833
 10
618.41154761836378
 20
-368.22052312211156
 10
618.81058286824145
 20
-367.00284589592218
 10
619.28885240690761
 20
-365.54315189781062
 10
619.00690737023285
 20
-363.0242071530738
 10
619.0875135746262
 20
-361.78654262907781
 10
618.94100116234267
 20
-360.57678438088442
 10
618.87305997084593
 20
-358.6433391462474
 10
618.89457033409678
 20
-358.29565566321241
 10
618.64648719730019
 20
-356.13469101537362
 10
618.48369689407923
 20
-354.71705076761225
 10
618.39677164710065
 20
-353.52522137380504
 10
618.3861427534373
 20
-352.7617206043962
 10
619.53930153655915
 20
-350.60859411540838
 10
619.64591691950454
 20
-350.39910636814676
 10
620.91133206762595
 20
-347.749067539512
 10
624.20856804940308
 20
-346.07763194836502
 10
624.39185998980008
 20
-345.97320671885944
 10
626.9709199133232
 20
-344.58336897805805
 10
628.04627291216161
 20
-344.55667230506702
 10
629.43353690870345
 20
-344.33253143514719
 10
632.27632804960319
 20
-343.87322475177905
 10
634.17893781920941
 20
-343.65681200313901
 10
635.30656364100969
 20
-343.45035021405783
 10
637.24606069558308
 20
-342.55605408498536
 10
640.73629101282665
 20
-341.44985977788235
 10
642.48794389225986
 20
-340.9841129807628
 10
643.64939711533088
 20
-340.66571558696637
 10
643.85756708957638
 20
-340.60845896251197
  0
LWPOLYLINE
  5
52
  8
DEFAULT
 62
256
370
-1
  6
ByLayer
100
AcDbEntity
100
AcDbPolyline
 90
109
 70
0
 10
136.8108228107117
 20
-427.50000004559757
 10
135.28087271209765
 20
-427.65493211897581
 10
133.75092261810116
 20
-427.5
 10
130.50924421588346
 20
-426.99540202903444
 10
126.99470825348939
 20
-426.28476051929516
 10
123.16410243876223
 20
-425.36373745648137
 10
118.97797045538556
 20
-424.23143737438977
 10
114.3986759678394
 20
-422.88985443211919
 10
109.38928069550539
 20
-421.34331645681664
 10
91.614778942444374
 20
-415.60331948307544
 10
85.286708279893446
 20
-413.36683242467399
 10
79.67069262873737
 20
-411.0058525299732
 10
74.463447334159625
 20
-408.39805187966698
 10
69.555201086443503
 20
-405.48054182963216
 10
64.836158044976642
 20
-402.18032658125526
 10
60.20844143774346
 20
-398.42165868444363
 10
55.588118196559677
 20
-394.1325155243448
 10
50.902242683076366
 20
-389.24882454729959
 10
46.083747734120699
 20
-383.71497882598078
 10
41.066537451163022
 20
-377.48085940532877
 10
35.770849824776938
 20
-370.48312623645182
 10
30.584513246187779
 20
-363.33788482571578
 10
24.982309361719619
 20
-353.57703178237739
 10
20.422558053501483
 20
-341.88172896204003
 10
16.455613313027591
 20
-327.76337886641824
 10
13.077169872296274
 20
-311.55814397070543
 10
10.235219540720113
 20
-293.52245440629235
 10
7.8675236671420796
 20
-273.89591080797959
 10
5.908150692513054
 20
-252.91027288033379
 10
4.2898075036011178
 20
-230.79390434195759
 10
2.9445826146191463
 20
-207.77373088742701
 10
1.8043218943623178
 20
-184.07537136756002
 10
0.8008781163794334
 20
-159.92777923602191
 10
0.000000000000002
 20
-138.83522073578334
 10
5.4196138457557925
 20
-137.97005249162808
 10
11.122189891033932
 20
-136.96877708477405
 10
16.988604945415524
 20
-135.80088108829091
 10
23.04388433207664
 20
-134.41388119846002
 10
29.311866513540359
 20
-132.75655336604626
 10
35.816407196634543
 20
-130.77874564730047
 10
42.581809013396224
 20
-128.43163757970413
 10
49.634387533279977
 20
-125.66774064124117
 10
57.003085261855617
 20
-122.43996115204608
 10
64.719446080085106
 20
-118.70141906010564
 10
72.845874980914857
 20
-114.38933543798274
 10
80.846592673502158
 20
-109.74396628570645
 10
88.242708519710092
 20
-104.96310850410426
 10
95.084185512986991
 20
-99.974336826551763
 10
101.42080829147881
 20
-94.70988826110198
 10
107.3031592790565
 20
-89.108537415698521
 10
112.78803373028028
 20
-83.112122399820478
 10
117.94209679578185
 20
-76.660289977915795
 10
122.84118247782547
 20
-69.685532600141883
 10
127.56595026903588
 20
-62.113828716678057
 10
132.19935312923695
 20
-53.864687037447176
 10
135.28087837162849
 20
-47.860270956333359
 10
138.36240343507086
 20
-53.864687129286416
 10
142.99580604942182
 20
-62.113828946607178
 10
147.72057361497181
 20
-69.685532970883742
 10
152.61965908914598
 20
-76.660290494665745
 10
157.77372196236294
 20
-83.11212307017739
 10
163.2585962348748
 20
-89.108538249521871
 10
169.14094705551474
 20
-94.709889270237596
 10
175.47756967710973
 20
-99.974338024538341
 10
182.31904652170499
 20
-104.96310990598818
 10
189.71516222542979
 20
-109.74396790801764
 10
197.71587977956921
 20
-114.3893372987403
 10
205.84230855188579
 20
-118.7014211630559
 10
213.558669258696
 20
-122.43996348496793
 10
220.92736689107278
 20
-125.66774319377328
 10
227.97994532858459
 20
-128.43164034242497
 10
234.74534707539542
 20
-130.77874861165117
 10
241.24988769954481
 20
-132.75655652425283
 10
247.51786983161401
 20
-134.41388454347182
 10
253.57314917693878
 20
-135.80088461376877
 10
259.439564196513
 20
-136.96878078508951
 10
265.14214021195022
 20
-137.97005636189789
 10
270.56175403192202
 20
-138.83522476757454
 10
269.76087528691858
 20
-159.92778324394459
 10
268.7574307892616
 20
-184.07537534557798
 10
267.61716936271978
 20
-207.77373483146098
 10
266.27194378766518
 20
-230.79390824589842
 10
264.65359993961761
 20
-252.91027673604361
 10
262.69422633955077
 20
-273.8959146052938
 10
260.32652988103979
 20
-293.5224581330412
 10
257.48457901194422
 20
-311.55814761275525
 10
254.10613508824682
 20
-327.76338240778136
 10
250.13918992700158
 20
-341.88173238517561
 10
245.57943827022839
 20
-353.57703506961656
 10
239.97723409485542
 20
-363.33788794599241
 10
234.7908973033158
 20
-370.48312920216063
 10
229.49520946837558
 20
-377.48086221321
 10
224.47799899962121
 20
-383.71498148433238
 10
219.65950388573998
 20
-389.24882706204545
 10
214.97362822670758
 20
-394.13251789943581
 10
210.35330485769521
 20
-398.42166092183641
 10
205.725588138441
 20
-402.18032868072663
 10
201.00654499861801
 20
-405.48054378846064
 10
196.09829866395
 20
-408.39805369221483
 10
190.89105329165221
 20
-411.00585418733039
 10
185.27503757013181
 20
-413.36683391465641
 10
178.94696684092648
 20
-415.60332078446095
 10
161.17246491679566
 20
-421.34331722846758
 10
156.16306959837013
 20
-422.88985505447459
 10
151.58377507084057
 20
-424.23143786026742
 10
147.39764305371787
 20
-425.36373781759738
 10
143.56703721154122
 20
-426.28476076624798
 10
140.05250122796801
 20
-426.99540217124343
 10
136.8108228107117
 20
-427.50000004559757
  0
LWPOLYLINE
  5
53
  8
DEFAULT
 62
256
370
-1
  6
ByLayer
100
AcDbEntity
100
AcDbPolyline
 90
7
 70
0
 10
141.1973748632351
 20
-249.89269506066
 10
141.19737462719442
 20
-265.73269506065998
 10
143.17737462719441
 20
-265.73269509016558
 10
145.15737462719443
 20
-265.73269511967118
 10
145.15737486323511
 20
-249.8926951196712
 10
143.17737486323506
 20
-249.8926950901656
 10
141.1973748632351
 20
-249.89269506066
  0
LWPOLYLINE
  5
54
  8
DEFAULT
 62
256
370
-1
  6
ByLayer
100
AcDbEntity
100
AcDbPolyline
 90
7
 70
0
 10
125.40437585882802
 20
-249.8926948253208
 10
125.40437562278737
 20
-265.73269482532078
 10
127.38437562278736
 20
-265.73269485482638
 10
129.36437562278735
 20
-265.73269488433021
 10
129.36437585882803
 20
-249.89269488433021
 10
127.38437585882801
 20
-249.89269485482458
 10
125.40437585882802
 20
-249.8926948253208
  0
LWPOLYLINE
  5
55
  8
DEFAULT
 62
256
370
-1
  6
ByLayer
100
AcDbEntity
100
AcDbPolyline
 90
7
 70
0
 10
125.40437712054828
 20
-165.22350650238994
 10
125.40437688450761
 20
-181.0635065023896
 10
127.38437688450762
 20
-181.0635065318952
 10
129.36437688450764
 20
-181.0635065614008
 10
129.36437712054828
 20
-165.22350656140009
 10
127.38437712054828
 20
-165.22350653189503
 10
125.40437712054828
 20
-165.22350650238994
  0
LWPOLYLINE
  5
56
  8
DEFAULT
 62
256
370
-1
  6
ByLayer
100
AcDbEntity
100
AcDbPolyline
 90
7
 70
0
 10
141.19737612495535
 20
-165.22350673773025
 10
141.19737588891468
 20
-181.06350673773059
 10
143.17737588891467
 20
-181.06350676723619
 10
145.15737588891466
 20
-181.06350679674
 10
145.15737612495533
 20
-165.22350679674034
 10
143.17737612495534
 20
-165.22350676723531
 10
141.19737612495535
 20
-165.22350673773025
  0
LWPOLYLINE
  5
57
  8
DEFAULT
 62
256
370
-1
  6
ByLayer
100
AcDbEntity
100
AcDbPolyline
 90
59
 70
0
 10
70.150100430312179
 20
577.46766946216508
 10
69.146156768340418
 20
577.55265940180266
 10
68.960905259286051
 20
576.91058696719563
 10
68.628249323672406
 20
576.45044612212496
 10
68.18006018886355
 20
576.17356483439812
 10
67.648209082223573
 20
576.0812710718227
 10
67.316217130513436
 20
576.11380628309041
 10
67.010784534939958
 20
576.21141191689378
 10
66.731911295503323
 20
576.3740879732311
 10
66.479597412203518
 20
576.60183445210373
 10
66.270442482626038
 20
576.88336362715563
 10
66.121046104356367
 20
577.20738777202439
 10
66.031408277394661
 20
577.57390688671205
 10
66.001529001740764
 20
577.98292097122021
 10
66.030246305563679
 20
578.37035557886588
 10
66.11639821703244
 20
578.71463123278795
 10
66.259984736147217
 20
579.01574793299039
 10
66.461005862907655
 20
579.27370567946934
 10
66.708505862907657
 20
579.48053666538419
 10
66.991529001740759
 20
579.62827308389581
 10
67.310075279406789
 20
579.71691493500236
 10
67.664144695905719
 20
579.74646221870398
 10
68.103702039970074
 20
579.69400749033412
 10
68.498108478601921
 20
579.53664330522304
 10
68.830100430312243
 20
579.29561714828162
 10
69.082414313612034
 20
578.99217650441938
 10
69.980120551036435
 20
579.1090376714202
 10
69.225834836750764
 20
583.10887670562602
 10
65.353480712002266
 20
583.10887670562602
 10
65.353480712002266
 20
582.19523485451998
 10
68.46092538001038
 20
582.19523485451998
 10
68.880563206972198
 20
580.1023575909378
 10
68.162132623471194
 20
580.46887670562535
 10
67.789969645603861
 20
580.56050648429812
 10
67.409174876992196
 20
580.59104974385582
 10
66.919154756267886
 20
580.54689481427818
 10
66.46897366974882
 20
580.41443002554547
 10
66.058631617434841
 20
580.19365537765736
 10
65.688128599326305
 20
579.88457087061602
 10
65.381368035945968
 20
579.50610004566533
 10
65.162253347817114
 20
579.07716644405696
 10
65.030784534939968
 20
578.59777006578724
 10
64.986961597314121
 20
578.06791091085779
 10
65.02547266371252
 20
577.55730728912772
 10
65.141005862907718
 20
577.08255879818103
 10
65.333561194899715
 20
576.64366543801975
 10
65.603138659688341
 20
576.24062720864401
 10
66.011820752243707
 20
575.82696523681261
 10
66.488893186851357
 20
575.5314923997912
 10
67.034355963511331
 20
575.35420869757797
 10
67.648209082223573
 20
575.29511413017303
 10
68.154994796509442
 20
575.33229722876399
 10
68.612977693893598
 20
575.4438465245388
 10
69.022157774376595
 20
575.62976201749746
 10
69.382535037958078
 20
575.89004370763791
 10
69.682489766328246
 20
576.21174390884528
 10
69.91040224117728
 20
576.58191493500181
 10
70.066272462505381
 20
577.00055678610966
 10
70.150100430312179
 20
577.46766946216508
  0
LWPOLYLINE
  5
58
  8
DEFAULT
 62
256
370
-1
  6
ByLayer
100
AcDbEntity
100
AcDbPolyline
 90
54
 70
0
 10
218.68769680708141
 20
577.26948737049293
 10
219.6385217567784
 20
577.19512117330919
 10
219.792566022372
 20
577.68115739061238
 10
219.99972900024
 20
578.0131493423238
 10
220.43264650527061
 20
578.31990990570353
 10
220.95586582116479
 20
578.42216342683025
 10
221.38479942277499
 20
578.35842097210195
 10
221.75795837649781
 20
578.1671936079174
 10
222.1616605897764
 20
577.7621634268296
 10
222.4697491209636
 20
577.20574491576485
 10
222.66761632418337
 20
576.43950749121723
 10
222.74065455355981
 20
575.40502056968819
 10
222.3568718573832
 20
575.86316946304862
 10
221.89606702840979
 20
576.18586564011002
 10
221.38479942277499
 20
576.37709300429458
 10
220.84962839661782
 20
576.44083545902276
 10
220.38932155557239
 20
576.39684652542178
 10
219.96453785335919
 20
576.264879724617
 10
219.5752772899782
 20
576.04493505660832
 10
219.2215398654312
 20
575.73701252139779
 10
218.92756099219201
 20
575.35937167632846
 10
218.71757608273438
 20
574.93027207874161
 10
218.59158513706018
 20
574.44971372864097
 10
218.5495881551694
 20
573.91769662602474
 10
218.62860223967641
 20
573.21055376888216
 10
218.86564449319738
 20
572.55520165620658
 10
219.24079539863041
 20
571.9994471290446
 10
219.73413543887162
 20
571.59109702844103
 10
220.32375314510881
 20
571.34011111294683
 10
220.98773704852979
 20
571.2564491411166
 10
221.55776722961639
 20
571.31139380912464
 10
222.0726867467184
 20
571.47622781314863
 10
222.5324955998376
 20
571.75095115318857
 10
222.93719378897219
 20
572.13556382924457
 10
223.26719378897161
 20
572.64633344695142
 10
223.50290807468701
 20
573.29952761194204
 10
223.64433664611479
 20
574.09514632421462
 10
223.69147950325862
 20
575.03318958377281
 10
223.63935676684019
 20
576.08494008679088
 10
223.48298855758321
 20
576.98264632421524
 10
223.22237487549123
 20
577.726308296046
 10
222.85751572056239
 20
578.31592600228328
 10
222.46211330607417
 20
578.70634853749493
 10
222.00363242076239
 20
578.98522177693201
 10
221.482073064627
 20
579.15254572059234
 10
220.89743523766441
 20
579.2083203684798
 10
220.45870787347982
 20
579.17611714916518
 10
220.061479503258
 20
579.07950749121778
 10
219.70575012700078
 20
578.91849139463761
 10
219.39151974470639
 20
578.69306885942638
 10
219.127420147122
 20
578.41087570047182
 10
218.92208312498758
 20
578.07954773266511
 10
218.7755086783086
 20
577.699084956006
 10
218.68769680708141
 20
577.26948737049293
  0
LWPOLYLINE
  5
59
  8
DEFAULT
 62
256
370
-1
  6
ByLayer
100
AcDbEntity
100
AcDbPolyline
 90
31
 70
0
 10
222.59192215919398
 20
573.91238475479872
 10
222.5394674308242
 20
573.42900447310865
 10
222.38210324571298
 20
572.96687167632774
 10
222.13045334631602
 20
572.56914531817802
 10
221.7951414750888
 20
572.27898435238444
 10
221.40870284329739
 20
572.10170065017121
 10
221.00367266221139
 20
572.04260608276616
 10
220.71151974470763
 20
572.07314934232386
 10
220.44061431211142
 20
572.16477912099481
 10
220.19095636442461
 20
572.31749541878287
 10
219.96254590164901
 20
572.53129823568418
 10
219.77198252136722
 20
572.79755578095535
 10
219.6358658211654
 20
573.10763626385278
 10
219.55419580104541
 20
573.46153968437636
 10
219.52697246100541
 20
573.85926604252438
 10
219.55386380909221
 20
574.24155477491877
 10
219.63453785335798
 20
574.58101654554298
 10
219.76899459380101
 20
574.8776513543952
 10
219.9572340304212
 20
575.13145920147895
 10
220.18630847710139
 20
575.33480427190136
 10
220.4432702477244
 20
575.48005075077481
 10
220.72811934229202
 20
575.56719863809735
 10
221.04085576080419
 20
575.59624793387286
 10
221.35259620345857
 20
575.56719863809735
 10
221.63976924168782
 20
575.48005075077481
 10
221.9023748754918
 20
575.33480427190136
 10
222.14041310486698
 20
575.13145920147895
 10
222.3379483161354
 20
574.88097127391279
 10
222.47904489561179
 20
574.59429622361165
 10
222.56370284329799
 20
574.27143405057359
 10
222.59192215919398
 20
573.91238475479872
  0
LWPOLYLINE
  5
5A
  8
DEFAULT
 62
256
370
-1
  6
ByLayer
100
AcDbEntity
100
AcDbPolyline
 90
103
 70
0
 10
375.83478685029422
 20
-129.57885717228018
 10
377.80696294815959
 20
-125.73603085097898
 10
379.77913904602502
 20
-129.57885717228018
 10
382.744516797882
 20
-134.85830789117682
 10
385.76836811204458
 20
-139.70419842165373
 10
388.90378288203482
 20
-144.16804319015125
 10
392.20238318242502
 20
-148.29721598932488
 10
395.71270277402158
 20
-152.13492165179628
 10
399.47740735265097
 20
-155.71978624895419
 10
403.5328458806772
 20
-159.08903339127426
 10
407.9113911087984
 20
-162.28184733015496
 10
412.64490520477625
 20
-165.34159638091739
 10
417.7653644837286
 20
-168.31463271467686
 10
422.96627893913643
 20
-171.07436631033735
 10
427.90474982714761
 20
-173.46703332277008
 10
432.620716342653
 20
-175.53281226613001
 10
437.13436656901865
 20
-177.30170637400693
 10
441.46422370936261
 20
-178.80385560178988
 10
445.62712972768202
 20
-180.06965260382159
 10
449.63863830801176
 20
-181.1303424763434
 10
453.51401710224599
 20
-182.018022463584
 10
457.26852272591339
 20
-182.76547595728141
 10
460.91817138534117
 20
-183.40629227205298
 10
464.386724238375
 20
-183.96000000000001
 10
467.41087591166519
 20
-199.77937953269941
 10
469.60372927691458
 20
-215.73524542149181
 10
470.9592849260718
 20
-231.78394415455739
 10
471.47383420646759
 20
-247.88156823951661
 10
471.14596936729799
 20
-263.98407632955838
 10
469.97658741106261
 20
-280.04741371576438
 10
467.96888763947516
 20
-296.0276328559944
 10
465.12836290051558
 20
-311.88101361058443
 10
461.46278456059684
 20
-327.56418285588001
 10
456.9821812429542
 20
-343.03423314838142
 10
451.69881139042559
 20
-358.24884011484835
 10
445.62712972768202
 20
-373.166378247159
 10
441.46422370936261
 20
-374.43217524919021
 10
437.13436656901865
 20
-375.93432447697256
 10
432.620716342653
 20
-377.70321858484857
 10
427.90474982714761
 20
-379.76899752820981
 10
422.96627893913643
 20
-382.1616645406416
 10
417.7653644837286
 20
-384.92139813630297
 10
412.64490520477625
 20
-387.89443447006141
 10
407.9113911087984
 20
-390.95418352082396
 10
403.5328458806772
 20
-394.1469974597058
 10
399.47740735265097
 20
-397.51624460202481
 10
395.71270277402158
 20
-401.10110919918361
 10
392.20238318242502
 20
-404.93881486165503
 10
388.90378288203482
 20
-409.06798766082721
 10
385.76836811204458
 20
-413.53183242932579
 10
382.744516797882
 20
-418.37772295980182
 10
379.77913904602502
 20
-423.65717367869883
 10
377.80696294815959
 20
-427.5
 10
375.83478685029422
 20
-423.65717367869883
 10
372.86940909843719
 20
-418.37772295980182
 10
369.8455577842746
 20
-413.53183242932579
 10
366.71014301428437
 20
-409.06798766082721
 10
363.41154271389422
 20
-404.93881486165503
 10
359.90122312229755
 20
-401.10110919918361
 10
356.13651854366816
 20
-397.51624460202481
 10
352.08108001564023
 20
-394.1469974597058
 10
347.70253478752079
 20
-390.95418352082396
 10
342.96902069154299
 20
-387.89443447006141
 10
337.84856141259058
 20
-384.92139813630297
 10
332.64764695718281
 20
-382.1616645406416
 10
327.70917606917158
 20
-379.76899752820981
 10
322.99320955366619
 20
-377.70321858484857
 10
318.47955932729883
 20
-375.93432447697256
 10
314.14970218695481
 20
-374.43217524919021
 10
309.98679616863717
 20
-373.16637824715718
 10
303.83607460275903
 20
-358.27109507055417
 10
298.48660185435841
 20
-343.06964849444762
 10
293.95353304614599
 20
-327.60510440572079
 10
290.24971041833999
 20
-311.9212740497814
 10
287.38562694642718
 20
-296.0625899127528
 10
285.36939661444381
 20
-280.07397984368879
 10
284.206731427953
 20
-264.0007397734272
 10
283.90092523186502
 20
-247.8884053906458
 10
284.45284437892923
 20
-231.78262313869561
 10
285.86092527534959
 20
-215.7290208986598
 10
288.12117881046419
 20
-199.77307872500162
 10
291.22720165794419
 20
-183.96000000000001
 10
294.6957545109762
 20
-183.40629227205298
 10
298.3454031704058
 20
-182.76547595728141
 10
302.09990879407138
 20
-182.018022463584
 10
305.97528758830737
 20
-181.1303424763434
 10
309.98679616863717
 20
-180.06965260382159
 10
314.14970218695481
 20
-178.80385560178988
 10
318.47955932729883
 20
-177.30170637400693
 10
322.99320955366619
 20
-175.53281226613001
 10
327.70917606917158
 20
-173.46703332277008
 10
332.64764695718281
 20
-171.07436631033735
 10
337.84856141259058
 20
-168.31463271467686
 10
342.96902069154299
 20
-165.34159638091739
 10
347.70253478752079
 20
-162.28184733015496
 10
352.08108001564023
 20
-159.08903339127426
 10
356.13651854366816
 20
-155.71978624895419
 10
359.90122312229755
 20
-152.13492165179628
 10
363.41154271389422
 20
-148.29721598932488
 10
366.71014301428437
 20
-144.16804319015125
 10
369.8455577842746
 20
-139.70419842165373
 10
372.86940909843719
 20
-134.85830789117682
 10
375.83478685029422
 20
-129.57885717228018
  0
LWPOLYLINE
  5
5B
  8
DEFAULT
 62
256
370
-1
  6
ByLayer
100
AcDbEntity
100
AcDbPolyline
 90
7
 70
0
 10
383.7234624503634
 20
-270.52776285351837
 10
383.7234624503634
 20
-286.3677628535184
 10
385.70346245036342
 20
-286.3677628535184
 10
387.68346245036338
 20
-286.3677628535184
 10
387.68346245036338
 20
-270.52776285351837
 10
385.70346245036342
 20
-270.52776285351837
 10
383.7234624503634
 20
-270.52776285351837
  0
LWPOLYLINE
  5
5C
  8
DEFAULT
 62
256
370
-1
  6
ByLayer
100
AcDbEntity
100
AcDbPolyline
 90
7
 70
0
 10
367.93046344595575
 20
-270.52776285351837
 10
367.93046344595575
 20
-286.3677628535184
 10
369.91046344595577
 20
-286.3677628535184
 10
371.89046344595585
 20
-286.3677628535184
 10
371.89046344595585
 20
-270.52776285351837
 10
369.91046344595577
 20
-270.52776285351837
 10
367.93046344595575
 20
-270.52776285351837
  0
LWPOLYLINE
  5
5D
  8
DEFAULT
 62
256
370
-1
  6
ByLayer
100
AcDbEntity
100
AcDbPolyline
 90
7
 70
0
 10
367.93046344599179
 20
-185.85857453058901
 10
367.93046344599179
 20
-201.69857453058901
 10
369.91046344599175
 20
-201.69857453058901
 10
371.89046344599183
 20
-201.69857453058901
 10
371.89046344599183
 20
-185.85857453058901
 10
369.91046344599175
 20
-185.85857453058901
 10
367.93046344599179
 20
-185.85857453058901
  0
LWPOLYLINE
  5
5E
  8
DEFAULT
 62
256
370
-1
  6
ByLayer
100
AcDbEntity
100
AcDbPolyline
 90
7
 70
0
 10
383.72346245032742
 20
-185.85857453058901
 10
383.72346245032742
 20
-201.69857453058901
 10
385.70346245032738
 20
-201.69857453058901
 10
387.6834624503274
 20
-201.69857453058901
 10
387.6834624503274
 20
-185.85857453058901
 10
385.70346245032738
 20
-185.85857453058901
 10
383.72346245032742
 20
-185.85857453058901
  0
LWPOLYLINE
  5
5F
  8
DEFAULT
 62
256
370
-1
  6
ByLayer
100
AcDbEntity
100
AcDbPolyline
 90
109
 70
0
 10
714.64677810865192
 20
250.95436461626218
 10
735.63064324292156
 20
273.75883288710122
 10
735.63064324292156
 20
175.4014334213405
 10
739.59064324292149
 20
175.4014334213405
 10
747.51064853661364
 20
175.4014334213405
 10
747.51064853661364
 20
159.56143342134047
 10
737.61064324292158
 20
159.56143342133939
 10
737.61064324292158
 20
90.732245098410004
 10
747.51064828219978
 20
90.732245098410004
 10
747.51064828219978
 20
74.892245098410172
 10
737.61064324292158
 20
74.892245098409106
 10
716.62677810865205
 20
65.358324422041136
 10
716.62677810865205
 20
157.70654266381126
 10
712.6667781086519
 20
157.70654266381126
 10
712.6667781086519
 20
63.367677767136598
 10
693.66291297438249
 20
52.89594394504968
 10
693.66291297438249
 20
141.92543966676408
 10
689.70291297438234
 20
141.92543966676408
 10
689.70291297438234
 20
50.539660823554016
 10
670.69904784011283
 20
38.39599734308586
 10
670.69904784011283
 20
126.51871647784806
 10
666.7390478401129
 20
126.51871647784806
 10
666.7390478401129
 20
35.908534203326461
 10
647.73518270584498
 20
24.177746151244261
 10
647.73518270584498
 20
110.17807704308393
 10
643.77518270584505
 20
110.17807704308393
 10
643.77518270584505
 20
21.748757131979822
 10
624.77131757157542
 20
10.166323095816281
 10
624.77131757157542
 20
92.909827340128615
 10
620.81131757157539
 20
92.909827340128615
 10
620.81131757157539
 20
8.4350541072131087
 10
601.80745243730576
 20
3.4009212895601402
 10
601.80745243730576
 20
78.214771494058326
 10
597.84745243730583
 20
78.214771494058326
 10
597.84745243730583
 20
2.605401317471526
 10
590.32551987017098
 20
1.5758195490880236
 10
590.32551987017098
 20
32.504726248947541
 10
588.34551987017096
 20
32.504726248947541
 10
586.36551987017106
 20
32.504726248947541
 10
586.36551987017106
 20
1.0337854685629968
 10
578.8435873030362
 20
0.0042037001795983
 10
578.8435873030362
 20
62.543021947202341
 10
574.88358730303617
 20
62.543021947202341
 10
574.88358730303617
 20
0.0
 10
555.87972216876847
 20
2.5608508742224259
 10
555.87972216876847
 20
56.048778590357344
 10
551.91972216876843
 20
56.048778590357344
 10
551.91972216876843
 20
5.0643961729742166
 10
532.9158570344988
 20
26.532351973001699
 10
532.9158570344988
 20
69.577265535645054
 10
528.95585703449876
 20
69.577265535645054
 10
528.95585703449876
 20
30.234581088064381
 10
509.95199190022919
 20
44.300293368245818
 10
509.95199190022919
 20
78.308898848460359
 10
505.99199190022921
 20
78.308898848460359
 10
505.99199190022921
 20
47.168095798058218
 10
486.98812676595958
 20
60.627297966301619
 10
486.98812676595958
 20
87.955135197649753
 10
483.0281267659596
 20
87.955135197649753
 10
483.0281267659596
 20
63.753491305709638
 10
464.02426163169179
 20
80.299216716133145
 10
464.02426163169179
 20
91.930842704847251
 10
460.06426163169181
 20
91.930842704847251
 10
460.06447362738481
 20
83.416852845437759
 10
458.35599471142677
 20
85.132426801790515
 10
456.97046328876417
 20
87.117973800176514
 10
455.9497567463502
 20
89.31348111290886
 10
455.3247257182062
 20
91.652590007305548
 10
455.11426163169182
 20
94.064601424002475
 10
455.3247257182062
 20
96.476612840699218
 10
455.9497567463502
 20
98.815721735096105
 10
456.97046328876417
 20
101.01122904782844
 10
458.35599471142677
 20
102.99677604621444
 10
460.06447362738481
 20
104.71235000256719
 10
462.04426163169177
 20
106.10609806588283
 10
463.37538947666224
 20
106.45704777282462
 10
464.71482523739877
 20
106.77481951373497
 10
466.06174209857159
 20
107.05921713247662
 10
467.415308626875
 20
107.31006507429882
 10
468.77468928425282
 20
107.52720849420696
 10
470.13904494366483
 20
107.71051335254515
 10
471.5075334070728
 20
107.85986649773946
 10
472.87930992531301
 20
107.97517573614019
 10
474.2535277195542
 20
108.05636988893502
 10
475.62933850399799
 20
108.10339883608896
 10
477.0058930095114
 20
108.11623354727723
 10
478.38234150787497
 20
108.09486609980796
 10
478.5951381024546
 20
108.84900748696164
 10
478.88586197155797
 20
109.57666898409967
 10
479.25130581704155
 20
110.26982294844085
 10
479.6874380216484
 20
110.92082242815468
 10
480.18944712626285
 20
111.52248552438589
 10
480.75179491046339
 20
112.06817462276317
 10
481.3682774907852
 20
112.55186962030122
 10
482.0320937626542
 20
112.96823433984954
 10
482.7359204309376
 20
113.31267539939046
 10
483.47199280134004
 20
113.58139288674654
 10
484.23219044139358
 20
113.77142228063107
 10
485.00812676595962
 20
113.88066715557972
 10
507.97199190022923
 20
110.85200717228118
 10
530.93585703449878
 20
110.38544713961929
 10
553.89972216876833
 20
109.26989296640964
 10
576.86358730303618
 20
125.35285723448779
 10
599.82745243730585
 20
153.55312463038285
 10
622.79131757157541
 20
176.86009764121789
 10
645.75518270584507
 20
197.40063089741042
 10
668.71904784011281
 20
215.9066757898818
 10
691.68291297438248
 20
232.04597833270259
 10
714.64677810865192
 20
250.95436461626218
  0
LWPOLYLINE
  5
60
  8
DEFAULT
 62
256
370
-1
  6
ByLayer
100
AcDbEntity
100
AcDbPolyline
 90
81
 70
0
 10
169.7760741890086
 20
206.93925079463341
 10
157.94307518461957
 20
206.93925079462619
 10
157.94307518457418
 20
295.95627854582222
 10
153.98307518457437
 20
295.9562785458204
 10
153.98307518461957
 20
206.9392507946244
 10
150.05639848291509
 20
209.123247892248
 10
143.15297604967404
 20
213.0502096184436
 10
138.05057861584703
 20
215.87606479624321
 10
129.57135378581376
 20
223.03581132475978
 10
128.69660089041119
 20
223.77444341437081
 10
128.33066157567032
 20
224.3018563044462
 10
128.11748406369443
 20
224.61334613663581
 10
123.26744842317053
 20
231.70022183994661
 10
122.86651364950914
 20
232.1916070637628
 10
121.24962729615815
 20
235.11182575419181
 10
116.93840046877223
 20
243.02624263683842
 10
115.33866738791545
 20
245.81447007497641
 10
110.42859870934002
 20
253.39376025335878
 10
106.92598269299724
 20
261.22414823156697
 10
104.74562123213418
 20
266.0985283370706
 10
103.96417704050647
 20
269.62800387282539
 10
101.44895533089479
 20
278.9960221902636
 10
100.20447233849411
 20
283.47165600830999
 10
99.807587344805398
 20
284.89902742065243
 10
97.416401222487423
 20
303.36554429499245
 10
96.524645026208404
 20
308.23326357840722
 10
96.584690420335974
 20
319.8274276057362
 10
96.630708850548473
 20
328.71316555104841
 10
98.078887077363362
 20
335.48633935996685
 10
100.36334195303471
 20
348.29861323960444
 10
101.44141858651139
 20
350.52594264949863
 10
104.38061559095537
 20
356.59838644320422
 10
108.32918708565632
 20
364.47883084105194
 10
111.55798855749168
 20
367.2092001130344
 10
121.26028966219549
 20
375.41375109382858
 10
129.17917182131873
 20
379.41886771528135
 10
134.3362952853567
 20
382.41178677024482
 10
144.42417239880925
 20
383.84380911186901
 10
147.82914497291256
 20
384.32716028094421
 10
154.6366988428756
 20
385.81439333651457
 10
155.96307518456015
 20
386.07681721175999
 10
171.75607418888569
 20
386.07681721176721
 10
173.08245053057055
 20
385.81439333652361
 10
179.89000440053508
 20
384.32716028096036
 10
183.29497697463842
 20
383.84380911188879
 10
193.38285408809222
 20
382.4117867702754
 10
198.53997755213342
 20
379.41886771531739
 10
206.4588597112608
 20
375.41375109387184
 10
216.1611608159736
 20
367.20920011308664
 10
219.38996228781241
 20
364.47883084110782
 10
223.33853378251979
 20
356.59838644326362
 10
226.27773078697081
 20
350.52594264956161
 10
227.35580742044999
 20
348.29861323966918
 10
229.64026229613361
 20
335.48633936003341
 10
231.0884405229564
 20
328.71316555111679
 10
231.13445895317699
 20
319.82742760580459
 10
231.19450434731701
 20
308.2332635784756
 10
230.3027481510432
 20
303.36554429505901
 10
227.91156202874342
 20
284.89902742071718
 10
227.5146770350554
 20
283.47165600837479
 10
226.2701940426594
 20
278.9960221903284
 10
223.75497233305799
 20
269.62800387288661
 10
222.9735281414346
 20
266.09852833713001
 10
220.79316668057641
 20
261.22414823162461
 10
217.29055066424101
 20
253.39376025341281
 10
212.38048198567259
 20
245.8144700750268
 10
210.7807489048194
 20
243.02624263688517
 10
206.46952207744141
 20
235.11182575423501
 10
204.8526357240942
 20
232.19160706380421
 10
204.45170095043281
 20
231.70022183998799
 10
199.60166530991521
 20
224.61334613667182
 10
199.38848779794063
 20
224.30185630448401
 10
199.02254848320061
 20
223.774443414405
 10
198.14779558779841
 20
223.03581132479579
 10
189.66857075777159
 20
215.87606479627019
 10
184.56617332394819
 20
213.05020961846341
 10
177.66275089071095
 20
209.12324789226241
 10
173.7360741890086
 20
206.9392507946352
 10
173.73607418896324
 20
295.95627854582943
 10
169.77607418896326
 20
295.95627854582762
 10
169.7760741890086
 20
206.93925079463341
  0
LWPOLYLINE
  5
61
  8
DEFAULT
 62
256
370
-1
  6
ByLayer
100
AcDbEntity
100
AcDbPolyline
 90
166
 70
0
 10
22.675658502106078
 20
-415.67838313036862
 10
23.17107371495814
 20
-415.69650938973598
 10
23.21807471058888
 20
-415.69650938973598
 10
23.71348992344112
 20
-415.67838313036862
 10
24.208547389762138
 20
-415.65225078558717
 10
24.703117736844064
 20
-415.61811918452162
 10
25.197071719276622
 20
-415.57599724673702
 10
25.690280252724719
 20
-415.52589597990482
 10
26.18261444765826
 20
-415.46782847691895
 10
26.67394564303914
 20
-415.40180991248701
 10
27.164145439940039
 20
-415.32785753914976
 10
27.65308573510146
 20
-415.24599068278383
 10
28.14063875440776
 20
-415.15623073754284
 10
28.626677086277521
 20
-415.05860116027804
 10
29.111073714961741
 20
-414.74565552633476
 10
29.111073714961741
 20
-406.01026535216761
 10
31.091073714961741
 20
-406.01026535216761
 10
33.071073714961742
 20
-406.01026535216761
 10
33.071073714961742
 20
-414.57691752264003
 10
33.843085694706602
 20
-414.57691752264003
 10
35.782817985932581
 20
-413.48214203705459
 10
37.069989762559317
 20
-411.75
 10
37.321950219493679
 20
-411.50597250802861
 10
37.567209219172916
 20
-411.2552106453528
 10
37.805586831799019
 20
-410.99789837884498
 10
38.036908175977977
 20
-410.73422448096358
 10
38.261003547019143
 20
-410.46438239126098
 10
38.477708541434517
 20
-410.18857007447343
 10
38.686864177552323
 20
-409.90698987528242
 10
39.105948574063262
 20
-409.37272465872417
 10
39.344845656858837
 20
-409.06816929293763
 10
39.441999867736506
 20
-408.84066500364537
 10
39.464833230196746
 20
-408.59434046183935
 10
39.447404789989321
 20
-408.47150522672644
 10
39.411152672572435
 20
-408.35285435443319
 10
39.356952642110521
 20
-408.24125416531439
 10
39.286114041279596
 20
-408.1394006521416
 10
39.200348160690844
 20
-408.04975435138556
 10
39.099862572247801
 20
-407.9598779217834
 10
38.65400866951164
 20
-407.43314542210499
 10
38.28522601347084
 20
-406.84985117269918
 10
38.00059177607892
 20
-406.22118895838884
 10
37.805568268024082
 20
-405.55922320390857
 10
37.703898113531224
 20
-404.87665744994217
 10
37.69753242704148
 20
-404.18659056417476
 10
37.786593370106701
 20
-403.50226536574019
 10
37.969371807002823
 20
-402.83681448716101
 10
38.242360104151864
 20
-402.20300835085141
 10
38.600319443807159
 20
-401.61301009666198
 10
39.036380360282095
 20
-401.07814216350482
 10
39.976547893203417
 20
-400.07560062492541
 10
40.204763394684662
 20
-399.7611144599598
 10
40.287578571433436
 20
-399.58494195799079
 10
40.347681433847455
 20
-399.39978594302102
 10
40.384125829974963
 20
-399.20856118013518
 10
40.39071317073666
 20
-399.07321564636982
 10
40.386871833962218
 20
-398.93776436102939
 10
40.372624574298364
 20
-398.80300968704518
 10
40.348055787201716
 20
-398.66974986088258
 10
40.313311009009922
 20
-398.53877426408343
 10
40.268596054839477
 20
-398.41085874726718
 10
40.214175799413781
 20
-398.28676103428319
 10
40.150372608042474
 20
-398.16721623373019
 10
40.07756442705174
 20
-398.05293248445065
 10
39.996182544969422
 20
-397.94458676078341
 10
39.906709037734146
 20
-397.8428208624108
 10
39.809673913055036
 20
-397.74823761258898
 10
39.533339309285338
 20
-397.49888745277377
 10
38.4764058489897
 20
-396.54519650511662
 10
37.916118653513763
 20
-396.21118974267057
 10
37.613834253971099
 20
-396.0309410544096
 10
37.26268321857426
 20
-395.93581355985845
 10
34.391602771874098
 20
-394.69282503222962
 10
33.485739534015302
 20
-394.41798221492519
 10
32.57244074886372
 20
-394.16895990875338
 10
31.652442237619802
 20
-393.94595874454382
 10
30.726485219279162
 20
-393.74915838856379
 10
29.795315713450378
 20
-393.57871739776618
 10
28.85968393931034
 20
-393.43477309205036
 10
27.920343711169078
 20
-393.3174414436146
 10
26.97805183114134
 20
-393.22681698353404
 10
26.03356747941492
 20
-393.162972725592
 10
25.087651602590157
 20
-393.12596010745443
 10
24.141066300616139
 20
-393.11580894922798
 10
23.194574212772881
 20
-393.13252742944138
 10
22.248082124931059
 20
-393.11580894922798
 10
21.30149682295686
 20
-393.12596010745443
 10
20.3555809461321
 20
-393.162972725592
 10
19.411096594405681
 20
-393.22681698353404
 10
18.468804714377942
 20
-393.3174414436146
 10
17.529464486236844
 20
-393.43477309205036
 10
16.593832712096621
 20
-393.57871739776618
 10
15.662663206267986
 20
-393.74915838856379
 10
14.73670618792724
 20
-393.94595874454382
 10
13.816707676683389
 20
-394.16895990875338
 10
12.903408891531791
 20
-394.41798221492519
 10
11.997545653672976
 20
-394.69282503222962
 10
9.1264652069728314
 20
-395.93581355985845
 10
8.7753141715759018
 20
-396.0309410544096
 10
8.4730297720332608
 20
-396.21118974267057
 10
7.912742576557374
 20
-396.54519650511662
 10
6.8558091162616979
 20
-397.49888745277377
 10
6.579474512492034
 20
-397.74823761258898
 10
6.4824393878129154
 20
-397.8428208624108
 10
6.3929658805775817
 20
-397.94458676078341
 10
6.3115839984954238
 20
-398.05293248445065
 10
6.2387758175046661
 20
-398.16721623373019
 10
6.1749726261333837
 20
-398.28676103428319
 10
6.1205523707075402
 20
-398.41085874726718
 10
6.0758374165370999
 20
-398.53877426408343
 10
6.041092638345372
 20
-398.66974986088258
 10
6.0165238512487678
 20
-398.80300968704518
 10
6.0022765915849261
 20
-398.93776436102939
 10
5.9984352548103965
 20
-399.07321564636982
 10
6.0050225955720595
 20
-399.20856118013518
 10
6.0414669916997212
 20
-399.39978594302102
 10
6.1015698541136159
 20
-399.58494195799079
 10
6.184385030862396
 20
-399.7611144599598
 10
6.4126005323436539
 20
-400.07560062492541
 10
7.3527680652649554
 20
-401.07814216350482
 10
7.7888289817398775
 20
-401.61301009666198
 10
8.1467883213952863
 20
-402.20300835085141
 10
8.4197766185442191
 20
-402.83681448716101
 10
8.602555055440428
 20
-403.50226536574019
 10
8.6916159985055401
 20
-404.18659056417476
 10
8.6852503120159081
 20
-404.87665744994217
 10
8.5835801575229951
 20
-405.55922320390857
 10
8.3885566494681356
 20
-406.22118895838884
 10
8.1039224120762512
 20
-406.84985117269918
 10
7.7351397560355064
 20
-407.43314542210499
 10
7.2892858532993463
 20
-407.9598779217834
 10
7.1888002648561624
 20
-408.04975435138556
 10
7.1030343842675636
 20
-408.1394006521416
 10
7.0321957834366078
 20
-408.24125416531439
 10
6.9779957529747243
 20
-408.35285435443319
 10
6.941743635557736
 20
-408.47150522672644
 10
6.9243151953503341
 20
-408.59434046183935
 10
6.9471485578106638
 20
-408.84066500364537
 10
7.044302768688306
 20
-409.06816929293763
 10
7.2831998514837419
 20
-409.37272465872417
 10
7.7022842479947897
 20
-409.90698987528242
 10
7.9114398841125544
 20
-410.18857007447343
 10
8.1281448785279711
 20
-410.46438239126098
 10
8.3522402495690216
 20
-410.73422448096358
 10
8.5835615937480547
 20
-410.99789837884498
 10
8.8219392063740809
 20
-411.2552106453528
 10
9.0671982060534297
 20
-411.50597250802861
 10
9.3191586629878262
 20
-411.75
 10
10.606330439614476
 20
-413.48214203705459
 10
12.546062730840527
 20
-414.57691752264003
 10
13.318074710585336
 20
-414.57691752264003
 10
13.318074710585336
 20
-406.01026535216761
 10
15.298074710585334
 20
-406.01026535216761
 10
17.278074710585333
 20
-406.01026535216761
 10
17.278074710585333
 20
-414.74565552633476
 10
17.762471339269499
 20
-415.05860116027804
 10
18.248509671139438
 20
-415.15623073754284
 10
18.736062690445561
 20
-415.24599068278383
 10
19.225002985607162
 20
-415.32785753914976
 10
19.71520278250788
 20
-415.40180991248701
 10
20.20653397788876
 20
-415.46782847691895
 10
20.698868172822483
 20
-415.52589597990482
 10
21.192076706270399
 20
-415.57599724673702
 10
21.686030688703141
 20
-415.61811918452162
 10
22.180601035784878
 20
-415.65225078558717
 10
22.675658502106078
 20
-415.67838313036862
  0
LWPOLYLINE
  5
62
  8
DEFAULT
 62
256
370
-1
  6
ByLayer
100
AcDbEntity
100
AcDbPolyline
 90
147
 70
0
 10
528.91470296276941
 20
-234.49333044408661
 10
529.58264528148845
 20
-234.58268819585518
 10
530.25058760020738
 20
-234.49333044408661
 10
530.92197842216046
 20
-234.43531223029558
 10
531.59534812544757
 20
-234.4087605518028
 10
532.26922275655022
 20
-234.41373352815302
 10
532.942127256699
 20
-234.45022027388941
 10
533.61258869067126
 20
-234.5181409223874
 10
534.27913947091986
 20
-234.61734680066701
 10
534.94032057001561
 20
-234.7476207548346
 10
535.59468471434036
 20
-234.90867762541441
 10
536.24079955205093
 20
-235.10016487153081
 10
536.87725078839662
 20
-235.3216633426116
 10
537.50264528148841
 20
-235.57268819585519
 10
540.00449691560459
 20
-236.00747314659779
 10
545.95473344802895
 20
-237.45774452809681
 10
546.284065196646
 20
-237.5173393171992
 10
550.56424288230357
 20
-237.09509567019902
 10
551.2947387682824
 20
-237.31722275280839
 10
552.44199215677861
 20
-237.2740576129566
 10
556.25992762197598
 20
-237.13044665447339
 10
559.66697598966482
 20
-237.49660844569442
 10
561.27999549187439
 20
-238.5431686961154
 10
563.13649389234592
 20
-240.58726842881879
 10
564.14334884601965
 20
-241.84154982677398
 10
565.08549454770662
 20
-242.95484004636421
 10
566.99623647222302
 20
-245.21274533727723
 10
567.97776458965075
 20
-246.95031698357042
 10
568.78316302813562
 20
-249.2940464028882
 10
569.12227859356744
 20
-250.28083920082318
 10
568.71350463005092
 20
-253.20251102428261
 10
568.77338598969243
 20
-254.643893975997
 10
569.41016008578663
 20
-255.81479612680079
 10
570.89873588095975
 20
-258.55213749689159
 10
571.13750378257566
 20
-258.71344269136739
 10
571.3114337634222
 20
-259.04711881737899
 10
572.38969408740002
 20
-261.30189234730858
 10
572.80291729597616
 20
-262.1660596955802
 10
574.07443309798384
 20
-264.2136406601274
 10
574.63470050534636
 20
-266.13990456457861
 10
575.90484579237238
 20
-270.02627588289602
 10
576.25246015981384
 20
-271.49419411767718
 10
576.34655849957164
 20
-272.02431020818858
 10
576.77387929721465
 20
-274.43163826635299
 10
576.96552600051234
 20
-276.06299074408798
 10
576.91963193060337
 20
-277.43158004598723
 10
576.81370315191236
 20
-278.64509717231999
 10
576.79202065328457
 20
-279.31541177443137
 10
576.72111212713617
 20
-281.50756298414461
 10
576.61870763448178
 20
-281.769356927871
 10
576.55808785468616
 20
-282.67622044660442
 10
575.79826471467834
 20
-286.34985339935582
 10
574.4003389394328
 20
-292.15269377136002
 10
574.26755037193982
 20
-293.42426180115058
 10
573.31884725777161
 20
-298.66712121441185
 10
572.50253676891782
 20
-302.59147728861001
 10
572.36118948325975
 20
-303.58906490863978
 10
571.59072528266165
 20
-308.07064346947379
 10
570.50754722664124
 20
-312.785593808454
 10
569.18703692473559
 20
-319.20785708178238
 10
568.65418091922243
 20
-322.03559923816681
 10
567.56667317476672
 20
-323.90186272580701
 10
564.48793118548076
 20
-328.791556908117
 10
560.4137167513644
 20
-332.4532284596304
 10
557.48669477766487
 20
-335.1369630848202
 10
550.83712808298242
 20
-338.61305707390079
 10
550.24459203617107
 20
-338.92281808100461
 10
543.59415063514803
 20
-340.43620075977424
 10
541.51623081162006
 20
-341.021538464895
 10
541.3257905499612
 20
-341.06011921492558
 10
539.45914478365978
 20
-341.52147754790576
 10
539.45914478365978
 20
-288.7897380258222
 10
535.49914478365986
 20
-288.7897380258222
 10
535.49914478365986
 20
-341.52147754790576
 10
529.58264528148845
 20
-342.51147754790577
 10
523.66614577931705
 20
-341.52147754790576
 10
523.66614577931705
 20
-288.7897380258222
 10
519.70614577931701
 20
-288.7897380258222
 10
519.70614577931701
 20
-341.52147754790576
 10
517.83950001301559
 20
-341.06011921492558
 10
517.64905975135503
 20
-341.021538464895
 10
515.57113992782877
 20
-340.43620075977424
 10
508.92069852680584
 20
-338.92281808100461
 10
508.32816247999261
 20
-338.61305707390079
 10
501.67859578531022
 20
-335.1369630848202
 10
498.75157381161063
 20
-332.4532284596304
 10
494.67735937749597
 20
-328.791556908117
 10
491.59861738821002
 20
-323.90186272580701
 10
490.51110964375437
 20
-322.03559923816681
 10
489.9782536382412
 20
-319.20785708178238
 10
488.65774333633556
 20
-312.785593808454
 10
487.5745652803152
 20
-308.07064346947379
 10
486.80410107971517
 20
-303.58906490863978
 10
486.66275379405897
 20
-302.59147728861001
 10
485.84644330520518
 20
-298.66712121441185
 10
484.89774019103515
 20
-293.42426180115058
 10
484.76495162354223
 20
-292.15269377136002
 10
483.3670258482984
 20
-286.34985339935582
 10
482.60720270829057
 20
-282.67622044660442
 10
482.54658292849325
 20
-281.769356927871
 10
482.44417843584063
 20
-281.50756298414461
 10
482.37326990969217
 20
-279.31541177443137
 10
482.35158741106261
 20
-278.64509717231999
 10
482.24565863237342
 20
-277.43158004598723
 10
482.19976456246263
 20
-276.06299074408798
 10
482.3914112657622
 20
-274.43163826635299
 10
482.81873206340521
 20
-272.02431020818858
 10
482.91283040316296
 20
-271.49419411767718
 10
483.26044477060259
 20
-270.02627588289602
 10
484.53059005763038
 20
-266.13990456457861
 10
485.09085746499119
 20
-264.2136406601274
 10
486.36237326699882
 20
-262.1660596955802
 10
486.77559647557501
 20
-261.30189234730858
 10
487.85385679955459
 20
-259.04711881737899
 10
488.02778678040119
 20
-258.71344269136739
 10
488.26655468201704
 20
-258.55213749689159
 10
489.7551304771884
 20
-255.81479612680079
 10
490.39190457328436
 20
-254.643893975997
 10
490.45178593292582
 20
-253.20251102428261
 10
490.04301196940941
 20
-250.28083920082318
 10
490.38212753484123
 20
-249.2940464028882
 10
491.18752597332599
 20
-246.95031698357042
 10
492.16905409075201
 20
-245.21274533727723
 10
494.07979601527018
 20
-242.95484004636421
 10
495.02194171695544
 20
-241.84154982677398
 10
496.02879667063081
 20
-240.58726842881879
 10
497.88529507110064
 20
-238.5431686961154
 10
499.49831457331197
 20
-237.49660844569442
 10
502.90536294100082
 20
-237.13044665447339
 10
506.72329840619818
 20
-237.2740576129566
 10
507.87055179469263
 20
-237.31722275280839
 10
508.60104768067316
 20
-237.09509567019902
 10
512.8812253663308
 20
-237.5173393171992
 10
513.21055711494773
 20
-237.45774452809681
 10
519.16079364737038
 20
-236.00747314659779
 10
521.66264528148838
 20
-235.57268819585519
 10
522.28803977458017
 20
-235.3216633426116
 10
522.92449101092575
 20
-235.10016487153081
 10
523.57060584863632
 20
-234.90867762541441
 10
524.22496999295936
 20
-234.7476207548346
 10
524.88615109205523
 20
-234.61734680066701
 10
525.55270187230565
 20
-234.5181409223874
 10
526.22316330627598
 20
-234.45022027388941
 10
526.89606780642657
 20
-234.41373352815302
 10
527.5699424375274
 20
-234.4087605518028
 10
528.24331214081462
 20
-234.43531223029558
 10
528.91470296276941
 20
-234.49333044408661
  0
LWPOLYLINE
  5
63
  8
DEFAULT
 62
256
370
-1
  6
ByLayer
100
AcDbEntity
100
AcDbPolyline
 90
263
 70
0
 10
384.75595484561518
 20
202.82653958902921
 10
372.92295584126339
 20
202.82653958902921
 10
372.92295584126339
 20
277.58276677863722
 10
370.94295584126337
 20
277.58276677863722
 10
368.96295584126341
 20
277.58276677863722
 10
368.96295584126341
 20
202.82653958902921
 10
368.172865833066
 20
203.05882842439141
 10
365.16541429547635
 20
203.94436403506862
 10
360.0037892680632
 20
205.83884462492881
 10
354.01920283469696
 20
206.94616305846299
 10
346.39674668608683
 20
212.10215684138458
 10
345.02715382722664
 20
213.02858667527818
 10
342.13380257245501
 20
216.5556818988648
 10
339.045109908462
 20
220.63647286270259
 10
337.89772050079318
 20
222.15238158878998
 10
335.91879563486043
 20
226.95178310639642
 10
332.80054071767097
 20
234.59863640461919
 10
331.92822163744438
 20
237.19336666774203
 10
330.41131689298322
 20
241.70546428589699
 10
329.7883784887656
 20
246.95446208884559
 10
329.5863254592108
 20
249.21859623363181
 10
329.49038533630858
 20
254.45754294564779
 10
329.34088990959657
 20
262.61740574474942
 10
329.37074447319895
 20
263.73527064288896
 10
329.4613966661334
 20
265.37037342556499
 10
329.00445879340316
 20
275.61512000894402
 10
328.71060002658777
 20
280.09869636733379
 10
328.20392530790099
 20
284.86190056701599
 10
327.7510833964842
 20
288.54499768084622
 10
326.17485848885042
 20
292.85268300682378
 10
323.79393379689895
 20
299.3595194776446
 10
323.53723682535781
 20
300.32205836403415
 10
323.98328266897676
 20
305.84749552363616
 10
324.1294819272216
 20
309.56572106319237
 10
325.40221873207804
 20
314.60826834828362
 10
324.05839679086381
 20
314.65677499388283
 10
322.72263050769357
 20
314.8114964891742
 10
321.40330179255182
 20
315.07146195949258
 10
320.10868940996522
 20
315.43504012607036
 10
318.84691702991398
 20
315.89994954229923
 10
317.62590225193617
 20
316.46327290974722
 10
316.45330692232864
 20
317.12147538417543
 10
315.33648905620799
 20
317.8704267566082
 10
314.2824566660766
 20
318.70542737032923
 10
313.29782378668619
 20
319.62123761114157
 10
312.38876897206922
 20
320.61211078586223
 10
311.56099652523244
 20
321.67182918270959
 10
307.51921448597881
 20
321.20719180692117
 10
303.45211706360396
 20
321.1041942305514
 10
299.3919975539406
 20
321.36365426808777
 10
295.37109384726421
 20
321.98351177223719
 10
291.42133245514083
 20
322.95884499176759
 10
287.57407500967861
 20
324.28190965086537
 10
283.85986924797663
 20
325.94220043972382
 10
280.30820645903043
 20
327.92653442809797
 10
276.94728731894941
 20
330.21915573953697
 10
273.80379797384762
 20
332.80186065513482
 10
270.90269814826621
 20
335.6541421534854
 10
268.26702296165098
 20
338.75335273917955
 10
266.53958243629017
 20
341.1091760785776
 10
264.94413145866361
 20
343.55631533760896
 10
263.48548591560603
 20
346.0873837987188
 10
262.16804874520437
 20
348.69474140310541
 10
260.9957966464728
 20
351.3705178123206
 10
259.97226807563823
 20
354.10663616498641
 10
259.10055256527897
 20
356.89483745687699
 10
258.38328139853218
 20
359.72670547083237
 10
257.82261966653579
 20
362.59369218119161
 10
257.42025973307341
 20
365.48714355611583
 10
257.17741612615981
 20
368.39832567987236
 10
257.09482187197023
 20
371.31845111626677
 10
257.09454811416418
 20
371.69036105519342
 10
257.09432413049637
 20
372.06227102742719
 10
257.0941499209722
 20
372.43418102630642
 10
257.09402548559518
 20
372.806091045171
 10
257.09395082436902
 20
373.17800107735923
 10
257.09392593729359
 20
373.54991111620745
 10
257.09395082436902
 20
373.92182115505562
 10
257.09402548559518
 20
374.29373118724203
 10
257.0941499209722
 20
374.66564120610656
 10
257.09432413049461
 20
375.03755120498579
 10
257.09454811416418
 20
375.40946117721955
 10
257.09482187197023
 20
375.7813711161462
 10
258.53137827319438
 20
376.0139542950144
 10
259.9776066784284
 20
376.1758574416296
 10
261.43003168669981
 20
376.26669148995001
 10
262.88516300611144
 20
376.28623815859441
 10
264.33950384128502
 20
376.23445047537479
 10
265.78955929644002
 20
376.11145289017981
 10
267.23184477389998
 20
375.91754097590996
 10
268.66289434786023
 20
375.65318071819979
 10
270.07926909327716
 20
375.31900739560319
 10
271.47756534987781
 20
374.91582405298681
 10
272.85442290142561
 20
374.44459957173365
 10
274.20653305058397
 20
373.90646634145378
 10
277.96840394792042
 20
372.66327288602457
 10
281.68323452892361
 20
371.28587084947259
 10
285.3462384973044
 20
369.77603491683897
 10
288.95269633169943
 20
368.13571040486522
 10
292.49796136643283
 20
366.36701075558818
 10
295.97746577842258
 20
364.47221481333122
 10
299.38672647249484
 20
362.45376388855976
 10
302.72135085753297
 20
360.31425861243599
 10
305.97704250602402
 20
358.0564555860858
 10
309.14960668970042
 20
355.68326382891479
 10
312.23495578414679
 20
353.19774103053658
 10
315.2291145354198
 20
350.60308961117045
 10
327.81816608411521
 20
352.63012748558219
 10
329.53394870854919
 20
352.63012748558219
 10
331.25220989461258
 20
352.18205837931055
 10
336.1012697557926
 20
350.91755676697142
 10
341.22489552039963
 20
351.32558150767318
 10
345.83923923621842
 20
352.85322654789655
 10
347.16037149828719
 20
352.96451738694179
 10
348.10288616052361
 20
352.73273088327483
 10
348.78409604766722
 20
353.04206487417895
 10
350.48630411428138
 20
353.8150262876664
 10
353.0737870931556
 20
354.51209214717124
 10
358.15092815980256
 20
354.70668420446759
 10
358.73302940522461
 20
354.67309249948983
 10
359.73849897680395
 20
354.86386497565019
 10
360.74935004907059
 20
355.02368771098259
 10
361.76463017748722
 20
355.15241011724402
 10
362.78338274437141
 20
355.24991090954882
 10
363.80464786023481
 20
355.3160982206598
 10
364.82746326821643
 20
355.35090968754116
 10
365.85086525073899
 20
355.35431251011602
 10
366.87388953754078
 20
355.32630348217378
 10
367.89557221423439
 20
355.2669089943966
 10
368.91495063052201
 20
355.17618500948277
 10
369.9310643072298
 20
355.05421700942338
 10
370.94295584128861
 20
354.90111991496281
 10
386.73595484559002
 20
354.90111991496281
 10
387.74784637964876
 20
355.05421700942338
 10
388.76396005635661
 20
355.17618500948277
 10
389.78333847264417
 20
355.2669089943966
 10
390.80502114933779
 20
355.32630348217378
 10
391.82804543613963
 20
355.35431251011602
 10
392.85144741866225
 20
355.35090968754116
 10
393.87426282664381
 20
355.3160982206598
 10
394.89552794250721
 20
355.24991090954882
 10
395.91428050939135
 20
355.15241011724402
 10
396.92956063780798
 20
355.02368771098259
 10
397.94041171007638
 20
354.86386497565019
 10
398.94588128165583
 20
354.67309249948983
 10
399.52798252707601
 20
354.70668420446759
 10
404.60512359372296
 20
354.51209214717124
 10
407.19260657259719
 20
353.8150262876664
 10
408.8948146392114
 20
353.04206487417895
 10
409.57602452635501
 20
352.73273088327483
 10
410.51853918859143
 20
352.96451738694179
 10
411.83967145066021
 20
352.85322654789655
 10
416.454015166479
 20
351.32558150767318
 10
421.57764093108597
 20
350.91755676697142
 10
426.42670079226599
 20
352.18205837931055
 10
428.14496197833125
 20
352.63012748558219
 10
429.86074460276336
 20
352.63012748558219
 10
442.44979615145883
 20
350.60308961117045
 10
445.44395490273183
 20
353.19774103053658
 10
448.5293039971782
 20
355.68326382891479
 10
451.7018681808546
 20
358.0564555860858
 10
454.9575598293456
 20
360.31425861243599
 10
458.29218421438384
 20
362.45376388855976
 10
461.70144490845604
 20
364.47221481333122
 10
465.18094932044579
 20
366.36701075558818
 10
468.72621435517925
 20
368.13571040486522
 10
472.33267218957417
 20
369.77603491683897
 10
475.99567615795502
 20
371.28587084947259
 10
479.7105067389582
 20
372.66327288602457
 10
483.4723776362946
 20
373.90646634145378
 10
484.82448778545302
 20
374.44459957173365
 10
486.20134533700082
 20
374.91582405298681
 10
487.59964159360322
 20
375.31900739560319
 10
489.01601633901839
 20
375.65318071819979
 10
490.44706591297859
 20
375.91754097590996
 10
491.88935139043861
 20
376.11145289017981
 10
493.33940684559354
 20
376.23445047537479
 10
494.79374768076718
 20
376.28623815859441
 10
496.24887900017882
 20
376.26669148995001
 10
497.70130400845017
 20
376.1758574416296
 10
499.14753241368419
 20
376.0139542950144
 10
500.5840888149084
 20
375.7813711161462
 10
500.58436257271438
 20
375.40946117721955
 10
500.58458655638401
 20
375.03755120498579
 10
500.58476076590819
 20
374.66564120610656
 10
500.58488520128344
 20
374.29373118724203
 10
500.58495986251137
 20
373.92182115505562
 10
500.58498474958679
 20
373.54991111620745
 10
500.58495986251137
 20
373.17800107735923
 10
500.58488520128344
 20
372.806091045171
 10
500.58476076590642
 20
372.43418102630642
 10
500.58458655638219
 20
372.06227102742719
 10
500.58436257271615
 20
371.69036105519342
 10
500.5840888149084
 20
371.31845111626677
 10
500.50149456071881
 20
368.39832567987236
 10
500.25865095380516
 20
365.48714355611583
 10
499.85629102034284
 20
362.59369218119161
 10
499.29562928834639
 20
359.72670547083237
 10
498.57835812160135
 20
356.89483745687699
 10
497.70664261124045
 20
354.10663616498641
 10
496.68311404040765
 20
351.3705178123206
 10
495.51086194167419
 20
348.69474140310541
 10
494.19342477127265
 20
346.0873837987188
 10
492.73477922821684
 20
343.55631533760896
 10
491.13932825058839
 20
341.1091760785776
 10
489.41188772522759
 20
338.75335273917955
 10
486.77621253861241
 20
335.6541421534854
 10
483.87511271303282
 20
332.80186065513482
 10
480.73162336792922
 20
330.21915573953697
 10
477.37070422784825
 20
327.92653442809797
 10
473.81904143890199
 20
325.94220043972382
 10
470.10483567719996
 20
324.28190965086537
 10
466.25757823173785
 20
322.95884499176759
 10
462.30781683961436
 20
321.98351177223719
 10
458.28691313293797
 20
321.36365426808777
 10
454.2267936232746
 20
321.1041942305514
 10
450.15969620090158
 20
321.20719180692117
 10
446.11791416164624
 20
321.67182918270959
 10
445.29014171480941
 20
320.61211078586223
 10
444.38108690019419
 20
319.62123761114157
 10
443.39645402080197
 20
318.70542737032923
 10
442.34242163067239
 20
317.8704267566082
 10
441.22560376455004
 20
317.12147538417543
 10
440.0530084349424
 20
316.46327290974722
 10
438.83199365696458
 20
315.89994954229923
 10
437.5702212769134
 20
315.43504012607036
 10
436.27560889432675
 20
315.07146195949258
 10
434.956280179185
 20
314.8114964891742
 10
433.62051389601481
 20
314.65677499388283
 10
432.27669195480064
 20
314.60826834828362
 10
433.54942875965696
 20
309.56572106319237
 10
433.69562801790357
 20
305.84749552363616
 10
434.14167386152081
 20
300.32205836403415
 10
433.88497688997961
 20
299.3595194776446
 10
431.50405219802821
 20
292.85268300682378
 10
429.92782729039436
 20
288.54499768084622
 10
429.4749853789794
 20
284.86190056701599
 10
428.96831066029256
 20
280.09869636733379
 10
428.67445189347541
 20
275.61512000894402
 10
428.21751402074699
 20
265.37037342556499
 10
428.30816621367961
 20
263.73527064288896
 10
428.338020777282
 20
262.61740574474942
 10
428.18852535056999
 20
254.45754294564779
 10
428.09258522766777
 20
249.21859623363181
 10
427.89053219811302
 20
246.95446208884559
 10
427.2675937938954
 20
241.70546428589699
 10
425.75068904943424
 20
237.19336666774203
 10
424.8783699692076
 20
234.59863640461919
 10
421.76011505201819
 20
226.95178310639642
 10
419.78119018608538
 20
222.15238158878998
 10
418.63380077841657
 20
220.63647286270259
 10
415.54510811442537
 20
216.5556818988648
 10
412.6517568596538
 20
213.02858667527818
 10
411.28216400079185
 20
212.10215684138458
 10
403.65970785218337
 20
206.94616305846299
 10
397.67512141881542
 20
205.83884462492881
 10
392.51349639140221
 20
203.94436403506862
 10
389.50604485381257
 20
203.05882842439141
 10
388.71595484561516
 20
202.82653958902921
 10
388.71595484561516
 20
277.58276677863722
 10
386.7359548456152
 20
277.58276677863722
 10
384.75595484561518
 20
277.58276677863722
 10
384.75595484561518
 20
202.82653958902921
  0
LWPOLYLINE
  5
64
  8
DEFAULT
 62
256
370
-1
  6
ByLayer
100
AcDbEntity
100
AcDbPolyline
 90
48
 70
0
 10
310.25117578868281
 20
-401.4032662044234
 10
311.73879456995576
 20
-405.0732240188604
 10
319.76982704591279
 20
-401.81784198605095
 10
319.75173855669419
 20
-402.5312559993132
 10
319.48321340030577
 20
-404.00871787470419
 10
318.99061705469762
 20
-405.42729046472158
 10
318.28567481169301
 20
-406.75320742550042
 10
317.38516644157022
 20
-407.9549078990712
 10
316.31052678346617
 20
-409.00378775781599
 10
315.08733553099921
 20
-409.87488046972135
 10
313.74470835771479
 20
-410.54745137781418
 10
312.31460387548623
 20
-411.00549124808344
 10
310.83106292229422
 20
-411.23809733796537
 10
309.26659910243217
 20
-411.42348239399814
 10
307.69190044977961
 20
-411.47079852215518
 10
306.11912833265581
 20
-411.37968030086699
 10
304.56042924078719
 20
-411.15083143445099
 10
303.02784097818659
 20
-410.78601931843798
 10
301.53319969541758
 20
-410.28806138999579
 10
300.08804847923341
 20
-409.66080336891542
 10
298.7035482055158
 20
-408.90908955719698
 10
297.3903913440576
 20
-408.0387254265828
 10
296.15871938080676
 20
-407.05643278302301
 10
295.01804449535945
 20
-405.96979785427982
 10
293.97717609858358
 20
-404.78721270163919
 10
286.86908648213819
 20
-403.28154064383483
 10
279.66430853433542
 20
-402.34177414946879
 10
272.40782405439603
 20
-401.97378048995517
 10
265.1449376624256
 20
-402.17985717079137
 10
257.92099394777642
 20
-402.9587175874554
 10
250.7810943678534
 20
-404.30549905810739
 10
243.76981566487859
 20
-406.21179318291541
 10
236.93093155861922
 20
-408.66569834045225
 10
230.3071394526504
 20
-411.65189399345218
 10
223.93979386042139
 20
-415.15173633992583
 10
230.57703451289521
 20
-408.38542878168721
 10
237.993488885907
 20
-402.48355738482724
 10
246.07734171267239
 20
-397.535102582859
 10
254.7067155953022
 20
-393.61467048350579
 10
263.75150850735241
 20
-390.7813680587808
 10
273.07535529619622
 20
-389.07791201004125
 10
282.53768361232142
 20
-388.52998474332423
 10
291.99583326907617
 20
-389.1458471647806
 10
301.30720707998159
 20
-390.91621413388862
 10
310.33142074621804
 20
-393.81439445226715
 10
316.82613465474839
 20
-396.8170469407674
 10
318.15007466118118
 20
-398.20144457832839
 10
310.25117578868281
 20
-401.4032662044234
  0
LWPOLYLINE
  5
65
  8
DEFAULT
 62
256
370
-1
  6
ByLayer
100
AcDbEntity
100
AcDbPolyline
 90
18
 70
0
 10
380.80150242258242
 20
332.67499254006299
 10
380.80150242258242
 20
333.59394626239856
 10
375.76053662781419
 20
333.59394626239856
 10
375.76053662781419
 20
332.85028429056604
 10
376.50087868012741
 20
331.92867463261922
 10
377.23458089340716
 20
330.74678328453001
 10
377.88196519924196
 20
329.41615954207504
 10
378.36335352922197
 20
328.04835270102899
 10
378.59840383103278
 20
327.02448952195562
 10
378.72987264391139
 20
325.907668596402
 10
379.71256882097339
 20
325.907668596402
 10
379.61429920326719
 20
326.922236000829
 10
379.3513615775118
 20
328.12803076944061
 10
378.93105976664702
 20
329.40619978352402
 10
378.36069759360896
 20
330.63788992437003
 10
377.69472173847782
 20
331.75139093040605
 10
376.9875788813352
 20
332.67499254006299
 10
380.80150242258242
 20
332.67499254006299
  0
LWPOLYLINE
  5
66
  8
DEFAULT
 62
256
370
-1
  6
ByLayer
100
AcDbEntity
100
AcDbPolyline
 90
79
 70
0
 10
595.18585309242599
 20
196.99424734955761
 10
581.37285408802916
 20
196.99424734956122
 10
581.37285408804541
 20
289.16396481782522
 10
578.40285408804539
 20
289.16396481782522
 10
578.40285408802924
 20
196.99424734956122
 10
575.25380608057014
 20
198.63006256058219
 10
573.38763636351064
 20
199.82250441593823
 10
566.17654797848877
 20
204.43032149731198
 10
560.91027807002524
 20
210.63590653812301
 10
558.30164540407918
 20
213.73078720505401
 10
556.25452883934122
 20
217.8806008187052
 10
551.88035030236142
 20
224.1849197343636
 10
547.67144569475158
 20
230.33486950051318
 10
546.81707428070217
 20
231.5832776493624
 10
542.0591925135642
 20
237.41453238361379
 10
541.27213476789416
 20
238.83601802766842
 10
539.99958739653903
 20
240.72485553488158
 10
534.70567527295862
 20
248.58262953089817
 10
531.29851879966202
 20
255.66154271122321
 10
527.94803144228763
 20
259.57107177605099
 10
527.07010281294595
 20
264.46817777553719
 10
524.62478582839981
 20
278.10816226975982
 10
524.10983193429479
 20
283.76988291308339
 10
522.21716127660238
 20
298.90882899455755
 10
521.79462563896084
 20
302.28858257025422
 10
522.77634436892936
 20
317.15176912764122
 10
522.79608919384623
 20
323.94142178715418
 10
524.5234571254698
 20
332.19349238329016
 10
526.48713273734825
 20
341.57480468860257
 10
533.36630658053696
 20
355.3669310319504
 10
534.17952212429884
 20
357.04705175895236
 10
534.47780382313863
 20
357.663308120181
 10
535.50648284677015
 20
358.59037225174023
 10
546.85022778337134
 20
371.40659219783703
 10
555.35872584511981
 20
376.22510832421443
 10
560.03652543707642
 20
378.87423054629397
 10
570.65380487695438
 20
380.36908189688222
 10
573.58024095048847
 20
381.11492600233379
 10
579.04016823678239
 20
382.15620809122322
 10
580.38285408809224
 20
382.4117867702754
 10
596.17585309242418
 20
382.41178677027358
 10
597.51853894373573
 20
382.15620809121958
 10
602.97846623002977
 20
381.11492600232839
 10
605.90490230356386
 20
380.36908189687495
 10
616.52218174344011
 20
378.87423054628499
 10
621.19998133539661
 20
376.22510832420363
 10
629.70847939714326
 20
371.40659219782265
 10
641.05222433374081
 20
358.59037225172221
 10
642.08090335737052
 20
357.66330812016298
 10
642.37918505621042
 20
357.0470517589344
 10
643.19240059997048
 20
355.36693103193244
 10
650.07157444315555
 20
341.57480468858097
 10
652.03525005503218
 20
332.19349238327044
 10
653.76261798665223
 20
323.94142178713264
 10
653.78236281156717
 20
317.15176912762138
 10
654.76408154153035
 20
302.2885825702308
 10
654.34154590388698
 20
298.90882899453601
 10
652.44887524619105
 20
283.76988291306179
 10
651.9339213520841
 20
278.10816226973998
 10
649.48860436753262
 20
264.4681777755174
 10
648.61067573818923
 20
259.57107177602938
 10
645.26018838081484
 20
255.66154271120521
 10
641.85303190751461
 20
248.582629530882
 10
636.55911978393237
 20
240.72485553486541
 10
635.28657241257542
 20
238.83601802765219
 10
634.4995146669055
 20
237.41453238359762
 10
629.74163289976559
 20
231.58327764934799
 10
628.88726148571618
 20
230.3348695004988
 10
624.67835687810464
 20
224.18491973435101
 10
620.3041783411212
 20
217.88060081869438
 10
618.25706177638324
 20
213.73078720504319
 10
615.64842911043536
 20
210.635906538114
 10
610.38215920197001
 20
204.43032149730479
 10
603.17107081694633
 20
199.8225044159328
 10
601.30490109988682
 20
198.63006256057861
 10
598.1558530924259
 20
196.99424734955761
 10
598.15585309244216
 20
289.16396481782164
 10
595.18585309244224
 20
289.1639648178234
 10
595.18585309242599
 20
196.99424734955761
  0
LWPOLYLINE
  5
67
  8
DEFAULT
 62
256
370
-1
  6
ByLayer
100
AcDbEntity
100
AcDbPolyline
 90
13
 70
0
 10
25.174185000182639
 20
-403.74674005330621
 10
26.130321821108158
 20
-403.74674005330621
 10
26.130321821108158
 20
-397.65402375551997
 10
26.529376147063921
 20
-397.98335977161662
 10
27.035995865373899
 20
-398.31269578771321
 10
28.04259546295938
 20
-398.80669981185724
 10
28.04259546295938
 20
-397.8824342182956
 10
27.29096568428724
 20
-397.46545232694842
 10
26.6402614589352
 20
-396.96879236718962
 10
26.127665885494622
 20
-396.44026118006758
 10
25.790362062556859
 20
-395.9276656066254
 10
25.174185000182639
 20
-395.9276656066254
 10
25.174185000182639
 20
-403.74674005330621
  0
LWPOLYLINE
  5
68
  8
DEFAULT
 62
256
370
-1
  6
ByLayer
100
AcDbEntity
100
AcDbPolyline
 90
76
 70
0
 10
22.72010049314046
 20
-401.69104588831681
 10
21.763963672214938
 20
-401.56356097886044
 10
21.54152906456904
 20
-402.26273602916223
 10
21.203561257727941
 20
-402.73482858449398
 10
20.76466789756692
 20
-403.00374206537822
 10
20.239456629961261
 20
-403.09337989234075
 10
19.91526648911622
 20
-403.06416460059063
 10
19.617303712456259
 20
-402.97651872533817
 10
19.34556829998138
 20
-402.83044226658541
 10
19.100060251691758
 20
-402.62593522433218
 10
18.89671518126918
 20
-402.37826922835745
 10
18.751468702395957
 20
-402.10271590843797
 10
18.664320815072102
 20
-401.79927526457396
 10
18.635271519297422
 20
-401.46794729676719
 10
18.742836911651462
 20
-400.8670418641716
 10
18.877293652094099
 20
-400.60991409757202
 10
19.065533088713938
 20
-400.38166963077123
 10
19.295271519297302
 20
-400.19459216598182
 10
19.5542252416314
 20
-400.06096540541819
 10
20.159778561550922
 20
-399.95406399696839
 10
20.834386207426082
 20
-400.06030142151542
 10
20.7281487828789
 20
-399.22102576759136
 10
20.574104517285299
 20
-399.23164951004696
 10
19.993782585695762
 20
-399.15197144163722
 10
19.474547173220881
 20
-398.91293723640422
 10
19.260744356319478
 20
-398.73200162272201
 10
19.108028058532742
 20
-398.50790705531824
 10
19.01639827986066
 20
-398.24065353419104
 10
18.985855020303422
 20
-397.93024105934222
 10
19.07482886336178
 20
-397.4495167132668
 10
19.341750392536859
 20
-397.05909417805498
 10
19.74943650923694
 20
-396.80014045572
 10
20.260704114870837
 20
-396.71382254827677
 10
20.77197172050456
 20
-396.80146842352741
 10
21.190281579659519
 20
-397.06440604928275
 10
21.495714175232997
 20
-397.50263542553944
 10
21.66834999012228
 20
-398.11615655230077
 10
22.624486811047802
 20
-397.94617667302379
 10
22.508953611852778
 20
-397.49250967101182
 10
22.33764576477018
 20
-397.09295735713022
 10
22.110563269800362
 20
-396.74751973137541
 10
21.827706126943319
 20
-396.4561967937492
 10
21.498038118894961
 20
-396.2249643993822
 10
21.130523028351718
 20
-396.05979840340683
 10
20.725160855313419
 20
-395.96069880582121
 10
20.281951599780243
 20
-395.9276656066254
 10
19.669758440826602
 20
-395.99605594867865
 10
19.108028058532742
 20
-396.2012269748364
 10
18.634607535393901
 20
-396.52458713580063
 10
18.287343953904958
 20
-396.94754488228017
 10
18.074205120907081
 20
-397.43490906739078
 10
18.00315884324106
 20
-397.95148854425156
 10
18.070885201389839
 20
-398.43354085813621
 10
18.27406427583654
 20
-398.87044226658537
 10
18.610040130967441
 20
-399.24227325250081
 10
19.076156831168639
 20
-399.52911429877861
 10
18.462635704407958
 20
-399.77412435914221
 10
18.00315884324106
 20
-400.19044226658662
 10
17.71631779696337
 20
-400.75549256839679
 10
17.620704114870815
 20
-401.4466998118578
 10
17.667182988110248
 20
-401.9372179205094
 10
17.806619607828551
 20
-402.38889297081118
 10
18.039013974025739
 20
-402.80172496276322
 10
18.364366086701761
 20
-403.17571389636538
 10
18.7607644770438
 20
-403.4859603752376
 10
19.20629767623894
 20
-403.70756500300502
 10
19.700965684287361
 20
-403.840527779664
 10
20.244768501188698
 20
-403.88484870521819
 10
20.735618601792417
 20
-403.8466696307712
 10
21.182977756721883
 20
-403.73213240743195
 10
21.586845965977442
 20
-403.54123703519701
 10
21.947223229558919
 20
-403.27398351407157
 10
22.249501901591039
 20
-402.94597546578063
 10
22.4790743361987
 20
-402.5728165120596
 10
22.635940533381902
 20
-402.15450665290319
 10
22.72010049314046
 20
-401.69104588831681
  0
LWPOLYLINE
  5
69
  8
DEFAULT
 62
256
370
-1
  6
ByLayer
100
AcDbEntity
100
AcDbPolyline
 90
59
 70
0
 10
533.54944335044888
 20
-257.03323172479622
 10
532.6304896281132
 20
-256.94824178515859
 10
532.46050974883804
 20
-257.50731623183822
 10
532.18429244501579
 20
-257.88844299240179
 10
531.80847755567993
 20
-258.10755768052923
 10
531.33970491986395
 20
-258.18059590990561
 10
530.92604294803255
 20
-258.13013313324598
 10
530.56682765628307
 20
-257.9787448032672
 10
530.26471498022647
 20
-257.7430305175518
 10
530.02236085547759
 20
-257.43958987368961
 10
529.82714958787255
 20
-257.04319148334719
 10
529.66646548324559
 20
-256.52860395819658
 10
529.55890009089126
 20
-255.94960999441321
 10
529.52304496010584
 20
-255.35999228817599
 10
529.52835683133355
 20
-255.1687649239914
 10
529.86765260598122
 20
-255.58242689582099
 10
530.31185783737021
 20
-255.9097709602074
 10
530.82910129813376
 20
-256.12290979320602
 10
531.38751176091057
 20
-256.19395607087216
 10
531.85230049330437
 20
-256.15013313324602
 10
532.27990612710721
 20
-256.01866432036917
 10
532.67032866231898
 20
-255.79954963224
 10
533.02356809893979
 20
-255.49278906886019
 10
533.31638500034819
 20
-255.11431824390959
 10
533.52553992992466
 20
-254.68007277107338
 10
533.65103288767079
 20
-254.1900526503498
 10
533.69286387358682
 20
-253.64425788173702
 10
533.64920693193721
 20
-253.08086753968561
 10
533.51823610698659
 20
-252.57524379723
 10
533.29995139873859
 20
-252.12738665437382
 10
532.99435280718785
 20
-251.73729611111341
 10
532.6230198092004
 20
-251.4212397730854
 10
532.20753188163542
 20
-251.19548524592278
 10
531.74788902449279
 20
-251.06003252962381
 10
531.24409123777264
 20
-251.01488162419199
 10
530.51702886352621
 20
-251.1171351453186
 10
529.85503691181543
 20
-251.42389570869838
 10
529.30127433636358
 20
-251.91989168455441
 10
528.89890009089061
 20
-252.589851443106
 10
528.75597755567878
 20
-253.01065124189881
 10
528.65389003052883
 20
-253.51610898837779
 10
528.57222001040702
 20
-254.78099832439261
 10
528.65322604662424
 20
-256.12158182539861
 10
528.8962441552776
 20
-257.15806069863777
 10
529.29928238465334
 20
-257.93691381735118
 10
529.56006206272195
 20
-258.2471602962234
 10
529.86034878304326
 20
-258.50462005477624
 10
530.19416669048826
 20
-258.70680315336779
 10
530.55553992992463
 20
-258.85121965236181
 10
530.94446850135421
 20
-258.93786955175818
 10
531.36095240477346
 20
-258.96675285155703
 10
531.79685783737023
 20
-258.93504762016858
 10
532.19093228404927
 20
-258.83993192600337
 10
532.54317574481399
 20
-258.68140576906143
 10
532.85358821966281
 20
-258.45946914934262
 10
533.11420190175659
 20
-258.18009792197938
 10
533.31704898425107
 20
-257.84926794209883
 10
533.46212946714775
 20
-257.46697920970439
 10
533.54944335044888
 20
-257.03323172479622
  0
LWPOLYLINE
  5
6A
  8
DEFAULT
 62
256
370
-1
  6
ByLayer
100
AcDbEntity
100
AcDbPolyline
 90
32
 70
0
 10
529.63459425588053
 20
-253.5964510406904
 10
529.66198359189718
 20
-253.20602850548042
 10
529.74415159994521
 20
-252.85810094008738
 10
529.88109828002462
 20
-252.55266834451322
 10
530.07282363213903
 20
-252.28973071875961
 10
530.30306005065006
 20
-252.07825184551979
 10
530.55553992992463
 20
-251.9271955074924
 10
530.83026326996458
 20
-251.83656170467557
 10
531.12723007077
 20
-251.8063504370694
 10
531.43565059390858
 20
-251.8388856483372
 10
531.72348761604246
 20
-251.9364912821388
 10
531.99074113716779
 20
-252.0991673384778
 10
532.23741115728842
 20
-252.3269138173506
 10
532.44424214320497
 20
-252.60645104069039
 10
532.59197856171477
 20
-252.9244993304286
 10
532.68062041282144
 20
-253.28105868656701
 10
532.71016769652476
 20
-253.67612910910202
 10
532.68211437660534
 20
-254.0305305175518
 10
532.59795441684719
 20
-254.35007277107403
 10
532.45768781724837
 20
-254.63475586966499
 10
532.26131457781264
 20
-254.88457981332658
 10
532.02377433636366
 20
-255.087924883749
 10
531.76000673072883
 20
-255.23317136262239
 10
531.47001176090998
 20
-255.32031924994681
 10
531.15378942690722
 20
-255.34936854572038
 10
530.83657111704838
 20
-255.32031924994681
 10
530.54890009089127
 20
-255.23317136262239
 10
530.29077634843554
 20
-255.087924883749
 10
530.06219988968337
 20
-254.88457981332658
 10
529.87512242489402
 20
-254.62977599038859
 10
529.74149566433039
 20
-254.3301532539702
 10
529.63459425588053
 20
-253.5964510406904
  0
LWPOLYLINE
  5
6B
  8
DEFAULT
 62
256
370
-1
  6
ByLayer
100
AcDbEntity
100
AcDbPolyline
 90
13
 70
0
 10
487.98416886214136
 20
-384.53639863264021
 10
488.94030568306619
 20
-384.53639863264021
 10
488.94030568306619
 20
-378.44368233485221
 10
489.33936000902156
 20
-378.7730183509488
 10
489.84597972733138
 20
-379.10235436704545
 10
490.8525793249176
 20
-379.59635839119119
 10
490.8525793249176
 20
-378.6720927976296
 10
490.100949546246
 20
-378.25511090628061
 10
489.4502453208936
 20
-377.75845094652362
 10
488.93764974745318
 20
-377.22991975939982
 10
488.60034592451581
 20
-376.7173241859594
 10
487.98416886214136
 20
-376.7173241859594
 10
487.98416886214136
 20
-384.53639863264021
  0
LWPOLYLINE
  5
6C
  8
DEFAULT
 62
256
370
-1
  6
ByLayer
100
AcDbEntity
100
AcDbPolyline
 90
49
 70
0
 10
480.51036604523881
 20
-383.61744491030458
 10
480.51036604523881
 20
-384.53639863264021
 10
485.65756926455578
 20
-384.53639863264021
 10
485.63499381183902
 20
-384.19776684189543
 10
485.54601996878102
 20
-383.8724147292192
 10
485.29038616596358
 20
-383.35052338113059
 10
484.91656322833802
 20
-382.83659983988281
 10
484.38736805731139
 20
-382.28682116785137
 10
483.66561755429279
 20
-381.65736442740842
 10
482.60191534101358
 20
-380.72446704310141
 10
481.94988314785564
 20
-380.00802841131241
 10
481.61523526053116
 20
-379.41641875336319
 10
481.50368596475641
 20
-378.85800829058644
 10
481.60527550198015
 20
-378.33412499078764
 10
481.9100441136498
 20
-377.89921553404861
 10
482.3781527655612
 20
-377.60639863264021
 10
482.9697624235086
 20
-377.50879299883684
 10
483.59125135711076
 20
-377.61237448777081
 10
483.85020507944398
 20
-377.74185134893742
 10
484.07463163880101
 20
-377.92311895457101
 10
484.25623123638604
 20
-378.15020144954099
 10
484.38670407340862
 20
-378.41712297871499
 10
484.49426946576301
 20
-379.07048313968221
 10
485.47696564282501
 20
-378.96955758636119
 10
485.39164371123599
 20
-378.45248012157242
 10
485.23660346978636
 20
-378.00080507127058
 10
485.011844918478
 20
-377.61453243545577
 10
484.71736805731081
 20
-377.29366221412795
 10
484.35981272532001
 20
-377.04151432680482
 10
483.94581876153717
 20
-376.86140869300198
 10
483.47538616596421
 20
-376.7533453127196
 10
482.94851493859915
 20
-376.7173241859594
 10
482.41732781586239
 20
-376.75616724430921
 10
481.94457127662781
 20
-376.87269641936041
 10
481.53024532089364
 20
-377.06691171110941
 10
481.17434994865982
 20
-377.33881311956162
 10
480.888504878238
 20
-377.66814913565821
 10
480.68432982793621
 20
-378.03466825034582
 10
480.56182479775441
 20
-378.4383704636262
 10
480.52098978769442
 20
-378.87925577549578
 10
480.56879662874098
 20
-379.34271654008398
 10
480.71221715187903
 20
-379.79820949783141
 10
480.966522986889
 20
-380.26167026241779
 10
481.34698576354981
 20
-380.7490344475284
 10
481.9372674536898
 20
-381.34130808938039
 10
482.82103002914283
 20
-382.11949722418922
 10
483.92589924443519
 20
-383.09953746563815
 10
484.32960145771381
 20
-383.61744491030458
 10
480.51036604523881
 20
-383.61744491030458
  0
LWPOLYLINE
  5
6D
  8
DEFAULT
 62
256
370
-1
  6
ByLayer
100
AcDbEntity
100
AcDbPolyline
 90
13
 70
0
 10
569.22381813641402
 20
-377.78229013271937
 10
570.17995495734056
 20
-377.78229013271937
 10
570.17995495734056
 20
-371.68957383493319
 10
570.57900928329593
 20
-372.01890985102983
 10
571.08562900160587
 20
-372.34824586712642
 10
572.09222859919021
 20
-372.8422498912704
 10
572.09222859919021
 20
-371.91798429770881
 10
571.34059882051861
 20
-371.50100240636158
 10
570.68989459516615
 20
-371.00434244660278
 10
570.17729902172584
 20
-370.47581125948079
 10
569.83999519878842
 20
-369.96321568604043
 10
569.22381813641402
 20
-369.96321568604043
 10
569.22381813641402
 20
-377.78229013271937
  0
LWPOLYLINE
  5
6E
  8
DEFAULT
 62
256
370
-1
  6
ByLayer
100
AcDbEntity
100
AcDbPolyline
 90
13
 70
0
 10
563.17359680844663
 20
-377.78229013271937
 10
564.12973362937134
 20
-377.78229013271937
 10
564.12973362937134
 20
-371.68957383493319
 10
564.52878795532865
 20
-372.01890985102983
 10
565.03540767363836
 20
-372.34824586712642
 10
566.04200727122281
 20
-372.8422498912704
 10
566.04200727122281
 20
-371.91798429770881
 10
565.29037749255122
 20
-371.50100240636158
 10
564.63967326719876
 20
-371.00434244660278
 10
564.12707769375845
 20
-370.47581125948079
 10
563.78977387082102
 20
-369.96321568604043
 10
563.17359680844663
 20
-369.96321568604043
 10
563.17359680844663
 20
-377.78229013271937
  0
LWPOLYLINE
  5
6F
  8
DEFAULT
 62
256
370
-1
  6
ByLayer
100
AcDbEntity
100
AcDbPolyline
 90
13
 70
0
 10
649.6507488877271
 20
-362.66826399324304
 10
648.69461206680057
 20
-362.66826399324304
 10
648.69461206680057
 20
-356.57554769545681
 10
648.2955577408452
 20
-356.9048837115534
 10
647.78893802253538
 20
-357.23421972764999
 10
646.78233842495104
 20
-357.72822375179578
 10
646.78233842495104
 20
-356.8039581582342
 10
647.53396820362252
 20
-356.3869762668852
 10
648.18467242897498
 20
-355.8903163071264
 10
648.69726800241529
 20
-355.36178512000436
 10
649.03457182535283
 20
-354.84918954656399
 10
649.6507488877271
 20
-354.84918954656399
 10
649.6507488877271
 20
-362.66826399324304
  0
LWPOLYLINE
  5
70
  8
DEFAULT
 62
256
370
-1
  6
ByLayer
100
AcDbEntity
100
AcDbPolyline
 90
33
 70
0
 10
652.0995215235414
 20
-358.8277810958586
 10
652.17056780120754
 20
-357.58148330913838
 10
652.38370663420619
 20
-356.60476298720698
 10
652.73694607082518
 20
-355.85910906366598
 10
653.22829415935621
 20
-355.30601047211695
 10
653.52658892796899
 20
-355.10615131718703
 10
653.86107081931686
 20
-354.96339477795181
 10
654.23173983340132
 20
-354.8777408544114
 10
654.6385959702211
 20
-354.84918954656399
 10
655.22688570865262
 20
-354.91226801738941
 10
655.73815331428557
 20
-355.10150342986378
 10
656.16974285150889
 20
-355.40959196105104
 10
656.51899838470922
 20
-355.82922978801304
 10
656.793887720724
 20
-356.35643300732755
 10
657.0023786663993
 20
-356.98721771557803
 10
657.13384747927614
 20
-357.78864628700637
 10
657.1776704169024
 20
-358.8277810958586
 10
657.10728812313903
 20
-360.06611107573798
 10
656.89614124185232
 20
-361.04017546205637
 10
656.54489375694186
 20
-361.78649336950201
 10
656.0542096523136
 20
-362.34158391276117
 10
655.75558289175126
 20
-362.54260503952202
 10
655.4201050245473
 20
-362.68619155863655
 10
655.04777605070399
 20
-362.77234347010506
 10
654.6385959702211
 20
-362.80106077392719
 10
654.10574888772726
 20
-362.75059799726762
 10
653.63332434044219
 20
-362.59920966728703
 10
653.22132232837146
 20
-362.34689578398718
 10
652.86974285150939
 20
-361.99365634736819
 10
652.53277102052346
 20
-361.43126198117102
 10
652.29207685553342
 20
-360.71615131718761
 10
652.1476603565394
 20
-359.8483243554162
 10
652.0995215235414
 20
-358.8277810958586
  0
LWPOLYLINE
  5
71
  8
DEFAULT
 62
256
370
-1
  6
ByLayer
100
AcDbEntity
100
AcDbPolyline
 90
33
 70
0
 10
653.08221770060345
 20
-358.8277810958586
 10
653.11027102052276
 20
-359.7063977960604
 10
653.19443098028285
 20
-360.4246623835848
 10
653.33469757987973
 20
-360.98257485843544
 10
653.53107081931557
 20
-361.38013522060862
 10
653.76861106076456
 20
-361.65784648821301
 10
654.03237866639938
 20
-361.85621167936074
 10
654.32237363621823
 20
-361.9752307940484
 10
654.6385959702211
 20
-362.01490383227764
 10
654.95481830422568
 20
-361.9750647980718
 10
655.24481327404442
 20
-361.85554769545615
 10
655.50858087967924
 20
-361.65635252443082
 10
655.74612112112641
 20
-361.3774792849938
 10
655.94249436056407
 20
-360.97908894294119
 10
656.08276096016107
 20
-360.42134246406897
 10
656.16692091991922
 20
-359.70423984837362
 10
656.19497423983853
 20
-358.8277810958586
 10
656.16692091991922
 20
-357.94700644797183
 10
656.08276096016107
 20
-357.22757988861662
 10
655.94249436056407
 20
-356.66950141779125
 10
655.74612112112641
 20
-356.27277103549739
 10
655.50791689577454
 20
-355.99622173972199
 10
655.24215733843141
 20
-355.79868652845539
 10
654.94884244909497
 20
-355.68016540169396
 10
654.62797222776726
 20
-355.64065835944143
 10
654.31523580925682
 20
-355.67551751437082
 10
654.03569858591527
 20
-355.780094979159
 10
653.78936055774591
 20
-355.95439075380779
 10
653.57622172474919
 20
-356.19840483831359
 10
653.36009496418626
 20
-356.62966238358536
 10
653.20571870664116
 20
-357.21164427493324
 10
653.11309295211242
 20
-357.94435051235882
 10
653.08221770060345
 20
-358.8277810958586
  0
LWPOLYLINE
  5
72
  8
DEFAULT
 62
256
370
-1
  6
ByLayer
100
AcDbEntity
100
AcDbPolyline
 90
13
 70
0
 10
479.58607866467696
 20
-110.93150650863599
 10
479.58607866467696
 20
-109.97536968771048
 10
473.49336236689084
 20
-109.97536968770868
 10
473.82269838298743
 20
-109.57631536175309
 10
474.15203439908396
 20
-109.0696956434433
 10
474.64603842322981
 20
-108.063096045858
 10
473.72177282966823
 20
-108.06309604585763
 10
473.30479093831923
 20
-108.81472582452959
 10
472.80813097856037
 20
-109.46543004988165
 10
472.27959979143839
 20
-109.97802562332203
 10
471.76700421799796
 20
-110.31532944625963
 10
471.76700421799796
 20
-110.93150650863383
 10
479.58607866467696
 20
-110.93150650863599
  0
LWPOLYLINE
  5
73
  8
DEFAULT
 62
256
370
-1
  6
ByLayer
100
AcDbEntity
100
AcDbPolyline
 90
131
 70
0
 10
593.29211136831361
 20
-280.46885500751398
 10
593.29211136831191
 20
-268.63585600316941
 10
655.59721918164655
 20
-268.63585600316043
 10
655.59721918164655
 20
-264.67585600316039
 10
593.29211136831191
 20
-264.67585600316937
 10
594.05009304344401
 20
-261.70422812597343
 10
594.40082856465608
 20
-260.14985084262958
 10
596.8102602608443
 20
-251.97671677621321
 10
596.82759446084583
 20
-251.95684961142899
 10
596.86996388794921
 20
-251.9082904766976
 10
602.49309474397319
 20
-244.94215024387981
 10
607.727593688247
 20
-243.5393991403044
 10
609.77827304813889
 20
-242.75283372683998
 10
611.06913359051578
 20
-242.15297097657958
 10
614.39419605133071
 20
-240.6077682585192
 10
620.47806828348234
 20
-236.16547396408802
 10
620.51610622143949
 20
-236.12800904252998
 10
620.5838620723722
 20
-236.0941257977712
 10
627.84602366907779
 20
-232.76505366537299
 10
631.11251308421697
 20
-232.03840464251999
 10
634.84450694751956
 20
-231.157881999594
 10
639.23539806659517
 20
-230.48616311122319
 10
644.89884309990896
 20
-229.6197976098978
 10
648.77047487726941
 20
-229.07228801800858
 10
653.01292209418023
 20
-229.37785132739401
 10
655.39891896525717
 20
-229.33176936420958
 10
664.45684775268296
 20
-229.23073650758039
 10
665.18357751304734
 20
-229.21013902459319
 10
667.16261840694244
 20
-229.2668792117226
 10
674.93965940000817
 20
-229.3414164318726
 10
678.25768466236866
 20
-229.53358038434399
 10
681.62359212879483
 20
-229.72851450555299
 10
686.08574208087668
 20
-229.94262101582461
 10
688.86689274341632
 20
-229.738778154774
 10
690.31572820928284
 20
-229.50251850192481
 10
691.51393414340828
 20
-230.08758499672021
 10
694.49657915578507
 20
-230.98734858406681
 10
698.27263953518707
 20
-233.8997452941222
 10
699.84744255193129
 20
-235.11435767814598
 10
701.835639781194
 20
-236.4660436638672
 10
703.76484165598617
 20
-236.958020421561
 10
703.93048143882118
 20
-238.25079899919001
 10
704.28498457279863
 20
-239.5050081190866
 10
704.82059679815279
 20
-240.69321371261159
 10
705.52560234729776
 20
-241.7894254458576
 10
706.3845802108325
 20
-242.7696652218246
 10
707.37874145053559
 20
-243.6124916677212
 10
708.4863401810868
 20
-244.2994691349744
 10
709.68314923085882
 20
-244.81557095323859
 10
710.94299007738778
 20
-245.14950811776299
 10
712.23830546589352
 20
-245.293976220579
 10
713.5407621856566
 20
-245.2458152241864
 10
714.82187081933466
 20
-245.00607858295922
 10
716.13600363085322
 20
-246.24546316208821
 10
716.30239771495269
 20
-246.40239880794059
 10
716.4614626078536
 20
-246.4749367549812
 10
716.98491487849867
 20
-246.373174345905
 10
717.95025087776457
 20
-246.15470789485562
 10
718.93166603830025
 20
-248.86726338288781
 10
719.00728746754316
 20
-249.4305347572836
 10
718.8866969973642
 20
-251.13149244483299
 10
718.7653486607976
 20
-258.41213520509336
 10
718.39527461433545
 20
-262.29371993717041
 10
718.4737522775124
 20
-263.21611698273603
 10
718.45604121887277
 20
-264.12850896974822
 10
718.4070544689323
 20
-266.65585600317479
 10
718.40705446893423
 20
-282.44885500747438
 10
718.45604121887459
 20
-284.97620204090282
 10
718.47375227751422
 20
-285.8885940279132
 10
718.39527461433897
 20
-286.81099107347882
 10
718.76534866080124
 20
-290.6925758055558
 10
718.88669699736954
 20
-297.97321856581624
 10
719.00728746755033
 20
-299.6741762533656
 10
718.93166603830741
 20
-300.23744762776136
 10
717.95025087777185
 20
-302.95000311579361
 10
716.98491487850583
 20
-302.73153666474423
 10
716.46146260786077
 20
-302.629774255668
 10
716.30239771495985
 20
-302.70231220270858
 10
716.13600363086039
 20
-302.85924784856098
 10
714.82187081934353
 20
-304.09863242768995
 10
713.54076218566559
 20
-303.85889578646459
 10
712.23830546590079
 20
-303.81073479007199
 10
710.94299007739494
 20
-303.955202892888
 10
709.6831492308678
 20
-304.28914005741422
 10
708.48634018109396
 20
-304.80524187567664
 10
707.37874145054468
 20
-305.49221934293161
 10
706.38458021083989
 20
-306.33504578882821
 10
705.52560234730674
 20
-307.31528556479515
 10
704.82059679816189
 20
-308.41149729804124
 10
704.28498457280762
 20
-309.59970289156621
 10
703.93048143883209
 20
-310.85391201146285
 10
703.76484165599697
 20
-312.1466905890918
 10
701.8356397812048
 20
-312.63866734678743
 10
699.84744255194221
 20
-313.99035333250862
 10
698.27263953519775
 20
-315.2049657165324
 10
694.49657915579576
 20
-318.11736242658958
 10
691.51393414341896
 20
-319.01712601393621
 10
690.31572820929534
 20
-319.6021925087316
 10
688.86689274342905
 20
-319.36593285588242
 10
686.08574208088737
 20
-319.16208999483359
 10
681.62359212880551
 20
-319.37619650510698
 10
678.25768466237935
 20
-319.57113062631601
 10
674.9396594000209
 20
-319.7632945787874
 10
667.16261840695495
 20
-319.83783179894095
 10
665.18357751305996
 20
-319.89457198607221
 10
664.45684775269558
 20
-319.87397450308322
 10
655.3989189652699
 20
-319.77294164645764
 10
653.01292209419273
 20
-319.72685968327323
 10
648.77047487728191
 20
-320.03242299265861
 10
644.89884309992158
 20
-319.48491340077118
 10
639.23539806660597
 20
-318.61854789944761
 10
634.84450694753218
 20
-317.94682901107683
 10
631.11251308422959
 20
-317.0663063681526
 10
627.84602366908859
 20
-316.33965734529966
 10
620.58386207238118
 20
-313.01058521290497
 10
620.5161062214504
 20
-312.97670196814619
 10
620.47806828349326
 20
-312.93923704658818
 10
614.3941960513398
 20
-308.49694275215882
 10
611.06913359052487
 20
-306.95174003410023
 10
609.77827304814775
 20
-306.35187728383795
 10
607.72759368825598
 20
-305.56531187037541
 10
602.49309474398217
 20
-304.16256076680179
 10
596.86996388795455
 20
-297.196420533984
 10
596.82759446085117
 20
-297.1478613992544
 10
596.81026026085146
 20
-297.12799423446842
 10
594.40082856466142
 20
-288.95486016805381
 10
594.05009304344753
 20
-287.40048288471002
 10
593.29211136831543
 20
-284.42885500751402
 10
655.59721918164837
 20
-284.42885500750498
 10
655.59721918164837
 20
-280.468855007505
 10
593.29211136831361
 20
-280.46885500751398
  0
LWPOLYLINE
  5
74
  8
DEFAULT
 62
256
370
-1
  6
ByLayer
100
AcDbEntity
100
AcDbPolyline
 90
172
 70
0
 10
729.48610488437816
 20
-110.85486457992103
 10
731.21371670749681
 20
-114.83081064704916
 10
733.65116564857328
 20
-121.43991771083971
 10
735.71098617696418
 20
-128.17628118914021
 10
737.38658650327557
 20
-135.01834352936172
 10
738.28556881045563
 20
-137.82440279365613
 10
738.88160302547828
 20
-140.71003634590667
 10
739.16795386169827
 20
-143.64263604275405
 10
739.14138550661221
 20
-146.58906301552298
 10
738.80219818709463
 20
-149.51602214500033
 10
738.15422477677021
 20
-152.39043830186893
 10
737.2047874839102
 20
-155.17983010121819
 10
735.96461510923928
 20
-157.85267694764599
 10
734.44772180870098
 20
-160.37877522327463
 10
732.67124873112903
 20
-162.72957959370035
 10
730.65527032039734
 20
-164.8785255750648
 10
728.42256747083877
 20
-166.80132971717671
 10
726.49057301800372
 20
-169.59778243568388
 10
724.380739568379
 20
-172.26261886358881
 10
722.10200658735789
 20
-174.78454796129409
 10
719.66402917573669
 20
-177.15288419440344
 10
717.0771371605955
 20
-179.35759280885543
 10
714.35229132731752
 20
-181.3893323486364
 10
711.50103697822374
 20
-183.23949423598918
 10
706.35605930940778
 20
-186.6174888488292
 10
701.07346035953287
 20
-189.77593643455862
 10
695.66260288013643
 20
-192.7092390365178
 10
690.13307694508205
 20
-195.4121977396062
 10
684.49468295336942
 20
-197.88002188472521
 10
678.75741425911508
 20
-200.10833755961397
 10
672.93143945959139
 20
-202.0931953510788
 10
667.02708437263925
 20
-203.83107734483099
 10
661.05481373543887
 20
-205.31890336055397
 10
655.02521265706196
 20
-206.55403641114299
 10
648.94896785767673
 20
-207.53428737643921
 10
642.83684872766401
 20
-208.2579188831676
 10
648.01657536011635
 20
-206.415009114507
 10
653.11803604274576
 20
-204.36537907326419
 10
658.13298448581543
 20
-202.11234189742621
 10
663.05331424287351
 20
-199.6595395237764
 10
667.87107181446606
 20
-197.0109368008776
 10
672.57846950461737
 20
-194.1708150800514
 10
677.16789800932077
 20
-191.14376529476522
 10
681.63193871662509
 20
-187.9346805395904
 10
685.96337569852074
 20
-184.54874816072521
 10
690.1552073751534
 20
-180.99144137087279
 10
694.20065783259417
 20
-177.2685104020297
 10
697.01486908969798
 20
-174.461523678747
 10
698.24175355287719
 20
-172.76334370200343
 10
698.25826040342758
 20
-172.12344775823789
 10
698.14199374283157
 20
-171.4939865929577
 10
697.89798677633041
 20
-170.90220969643192
 10
697.5368026106346
 20
-170.37373519996706
 10
697.07407697508415
 20
-169.93144086226056
 10
696.52984134802682
 20
-169.59447368699958
 10
695.92765579041782
 20
-169.37742104552609
 10
695.29358902642912
 20
-169.28967918683503
 10
694.65508992354773
 20
-169.33504647221855
 10
691.33954390089662
 20
-169.5388416768389
 10
688.01905807452715
 20
-169.63239268229722
 10
684.69729712688525
 20
-169.61559624023005
 10
681.37792714771558
 20
-169.48847088817416
 10
678.06461158795082
 20
-169.25115692910654
 10
674.76100721651096
 20
-168.90391627659773
 10
671.47076008448289
 20
-168.44713216574974
 10
668.19750150111838
 20
-167.88130873023439
 10
664.94484402611579
 20
-167.20707044590327
 10
661.71637748258456
 20
-166.42516144157764
 10
658.51566499510557
 20
-165.53644467778548
 10
655.34623905726176
 20
-164.54190099434851
 10
658.84204544752799
 20
-164.04244521480251
 10
662.33055461497202
 20
-163.49433739456015
 10
665.811089490168
 20
-162.89768391346206
 10
669.28297455138068
 20
-162.25260057336223
 10
672.7455359556858
 20
-161.55921257565336
 10
676.19810166974457
 20
-160.81765449696718
 10
679.64000160023465
 20
-160.02807026305572
 10
683.07056772391263
 20
-159.19061312085643
 10
686.4891342172632
 20
-158.30544560874802
 10
704.17156560871149
 20
-158.60842683276672
 10
707.34995263505334
 20
-158.71669295312142
 10
710.49404823474424
 20
-158.23864640513429
 10
713.49662145457796
 20
-157.19059120545901
 10
716.25526803290882
 20
-155.60827180095077
 10
718.67590294822378
 20
-153.54565398642654
 10
720.67596923585529
 20
-151.07308437423924
 10
722.18725363456565
 20
-148.27489118786951
 10
723.15821303394478
 20
-145.24650820568448
 10
723.55573237797171
 20
-142.0912199441853
 10
723.36625407056704
 20
-138.9166390879065
 10
721.80456357333969
 20
-133.19476433785513
 10
719.79463076450043
 20
-127.61454051005094
 10
718.24372365195904
 20
-124.18776161988245
 10
717.03876407460666
 20
-123.36362720458668
 10
715.90047360222252
 20
-122.44961412042895
 10
714.83554107184318
 20
-121.45109330278531
 10
714.17849762999333
 20
-120.73280495359032
 10
720.37302065572499
 20
-112.45241512071991
 10
718.7875725412423
 20
-111.2663483956638
 10
717.2021244267612
 20
-110.08028167060752
 10
711.76814018794789
 20
-117.34403832404749
 10
711.42732700232045
 20
-116.73598905040751
 10
710.81320149082444
 20
-115.41161184822539
 10
710.30232781478276
 20
-114.04408371152869
 10
709.89770797662243
 20
-112.64144052664656
 10
709.60171960861373
 20
-111.21192452340144
 10
709.41610200139019
 20
-109.76393584201716
 10
707.56544809807554
 20
-107.39331129677994
 10
703.5568768685124
 20
-103.02180302595114
 10
699.21469186405568
 20
-98.981486546824428
 10
694.56616987443488
 20
-95.297742367809661
 10
689.64051204070745
 20
-91.99371107717657
 10
684.46866041920623
 20
-89.09014797822438
 10
683.55298565398982
 20
-88.629400320521754
 10
682.67661028397458
 20
-88.097690916275212
 10
681.84502235830792
 20
-87.49834944297335
 10
681.06342945762538
 20
-86.835129104521982
 10
680.3367260830704
 20
-86.112183127879803
 10
679.66946300588768
 20
-85.334038754667304
 10
679.06581876952919
 20
-84.505568890613759
 10
678.52957352271483
 20
-83.631961590390716
 10
678.06408534734874
 20
-82.718687568900961
 10
677.85515479635114
 20
-82.243488184101537
 10
677.57537155746957
 20
-81.777112508535296
 10
677.33153182074966
 20
-81.29097763598034
 10
677.12502249428042
 20
-80.787848597263448
 10
676.95701815879386
 20
-80.270587082383557
 10
676.8284743868976
 20
-79.742135163828053
 10
676.74012230797553
 20
-79.205498562701507
 10
676.69246444969622
 20
-78.66372955282506
 10
676.68577187972755
 20
-78.119909600059813
 10
676.7200826639712
 20
-77.577131835589313
 10
676.79520165005044
 20
-77.038483462855567
 10
676.91070157729314
 20
-76.507028198204765
 10
677.15512118240576
 20
-75.690270112576144
 10
677.4625298293704
 20
-74.895075395808107
 10
677.83105278791641
 20
-74.126293539344104
 10
678.25844262242276
 20
-73.388612955917694
 10
678.74209289788314
 20
-72.686532387285908
 10
679.58394565994274
 20
-71.61420763365426
 10
680.4748185774389
 20
-70.582247413922872
 10
681.41277887941624
 20
-69.592890591460986
 10
682.39579163766302
 20
-68.648283600507355
 10
683.42172418154871
 20
-67.750475789428378
 10
684.48835072489499
 20
-66.901414974606354
 10
685.5933571948799
 20
-66.102943214600813
 10
686.73434625247864
 20
-65.356792813758773
 10
687.90884249354588
 20
-64.664582563937699
 10
689.1142978192662
 20
-64.027814232495246
 10
690.34809696432296
 20
-63.44786930416722
 10
691.6075631707771
 20
-62.926005983903821
 10
693.56258717953142
 20
-64.388550801541314
 10
686.27804701876562
 20
-74.125996611941162
 10
689.44894324773122
 20
-76.498130062053349
 10
696.57910527935155
 20
-66.967045756109826
 10
701.03886923259893
 20
-71.287958167067515
 10
706.62281250468061
 20
-77.346789923024104
 10
711.85520937146407
 20
-83.711684874341159
 10
716.71931523907199
 20
-90.362274233300099
 10
720.34828297914237
 20
-95.963372567255348
 10
721.4373765406674
 20
-96.963049065658851
 10
722.47460962259515
 20
-98.01643665860189
 10
723.45733660549445
 20
-99.120848522127474
 10
724.38305089595224
 20
-100.27346768718535
 10
725.24939132002862
 20
-101.47135422472685
 10
726.05414814579547
 20
-102.71145274444079
 10
726.79526871957
 20
-103.99060018799118
 10
727.47086270153397
 20
-105.30553389687108
 10
728.07920688732838
 20
-106.65289993430233
 10
728.61874960334228
 20
-108.02926163996297
 10
729.08811466448765
 20
-109.43110839570714
 10
729.48610488437816
 20
-110.85486457992103
  0
LWPOLYLINE
  5
75
  8
DEFAULT
 62
256
370
-1
  6
ByLayer
100
AcDbEntity
100
AcDbPolyline
 90
76
 70
0
 10
166.20443378290423
 20
362.02385434961877
 10
165.2482969619787
 20
362.1513392590752
 10
165.02586235433316
 20
361.45216420877341
 10
164.68789454749225
 20
360.9800716534416
 10
164.2490011873316
 20
360.71115817255554
 10
163.72378991972593
 20
360.62152034559301
 10
163.39959977888088
 20
360.65073563734319
 10
163.10163700222074
 20
360.73838151259559
 10
162.82990158974584
 20
360.88445797134659
 10
162.58439354145605
 20
361.08896501360158
 10
162.3810484710333
 20
361.33663100957642
 10
162.23580199216011
 20
361.61218432949579
 10
162.14865410483588
 20
361.9156249733598
 10
162.119604809061
 20
362.24695294116657
 10
162.22717020141485
 20
362.84785837376222
 10
162.36162694185751
 20
363.1049861403618
 10
162.54986637847699
 20
363.33323060716265
 10
162.77960480906054
 20
363.52030807195018
 10
163.03855853139444
 20
363.65393483251381
 10
163.64411185131377
 20
363.76083624096538
 10
164.31871949718914
 20
363.6545988164184
 10
164.21248207264139
 20
364.4938744703424
 10
164.0584378070478
 20
364.4832507278868
 10
163.47811587545826
 20
364.56292879629666
 10
162.95888046298339
 20
364.80196300152778
 10
162.7450776460818
 20
364.98289861520999
 10
162.59236134829507
 20
365.20699318261563
 10
162.50073156962281
 20
365.47424670374096
 10
162.47018831006537
 20
365.78465917858983
 10
162.55916215312337
 20
366.26538352466696
 10
162.82608368229828
 20
366.65580605987884
 10
163.23376979899837
 20
366.914759782212
 10
163.74503740463206
 20
367.001077689657
 10
164.25630501026598
 20
366.91343181440635
 10
164.67461486942094
 20
366.65049418865283
 10
164.98004746499461
 20
366.21226481239438
 10
165.15268327988426
 20
365.59874368563482
 10
166.10882010080974
 20
365.76872356490998
 10
165.9932869016144
 20
366.22239056692206
 10
165.82197905453179
 20
366.62194288080536
 10
165.59489655956176
 20
366.96738050656023
 10
165.31203941670438
 20
367.25870344418644
 10
164.98237140865604
 20
367.48993583855162
 10
164.6148563181126
 20
367.65510183452704
 10
164.2094941450743
 20
367.75420143211261
 10
163.76628488954111
 20
367.78723463130842
 10
163.15409173058748
 20
367.71884428925523
 10
162.59236134829379
 20
367.51367326309742
 10
162.11894082515514
 20
367.19031310213143
 10
161.77167724366637
 20
366.76735535565183
 10
161.55853841066866
 20
366.27999117054117
 10
161.48749213300303
 20
365.76341169368038
 10
161.55521849115215
 20
365.28135937979761
 10
161.75839756559904
 20
364.84445797134663
 10
162.09437342072994
 20
364.47262698543119
 10
162.56049012093132
 20
364.18578593915339
 10
161.94696899417082
 20
363.94077587879161
 10
161.48749213300408
 20
363.5244579713472
 10
161.20065108672665
 20
362.95940766953521
 10
161.10503740463452
 20
362.2682004260742
 10
161.15151627787429
 20
361.7776823174226
 10
161.29095289759277
 20
361.32600726712081
 10
161.52334726379024
 20
360.91317527516878
 10
161.84869937646644
 20
360.53918634156838
 10
162.24509776680867
 20
360.2289398626944
 10
162.69063096600397
 20
360.00733523492875
 10
163.18529897405222
 20
359.87437245826976
 10
163.72910179095371
 20
359.83005153271557
 10
164.21995189155726
 20
359.86823060716256
 10
164.6673110464867
 20
359.98276783050358
 10
165.07117925574227
 20
360.1736632027368
 10
165.43155651932358
 20
360.44091672386401
 10
165.73383519135552
 20
360.76892477215318
 10
165.96340762596301
 20
361.14208372587598
 10
166.12027382314602
 20
361.56039358503062
 10
166.20443378290423
 20
362.02385434961877
  0
LWPOLYLINE
  5
76
  8
DEFAULT
 62
256
370
-1
  6
ByLayer
100
AcDbEntity
100
AcDbPolyline
 90
561
 70
0
 10
386.73595484559002
 20
118.45153958902704
 10
387.92511743110742
 20
118.42316495401698
 10
389.11371489239582
 20
118.37680926690888
 10
390.30147535769277
 20
118.31248313078976
 10
391.48812714668225
 20
118.23020125918578
 10
392.67339883264441
 20
118.12998247269697
 10
393.85701930453115
 20
118.01184969469249
 10
395.03871782898301
 20
117.87582994606655
 10
396.21822411225418
 20
117.72195433905887
 10
397.39526836203783
 20
117.55025807013703
 10
398.56958134917301
 20
117.36078041194722
 10
399.74089446923222
 20
117.15356470433022
 10
400.90893980395862
 20
116.92865834440883
 10
401.44003328096096
 20
117.32401051242965
 10
401.98955142040739
 20
117.6933253273137
 10
402.55621882831798
 20
118.03574563466147
 10
403.13872030843805
 20
118.35047670038369
 10
403.73570391471361
 20
118.63678805522549
 10
404.3457840890664
 20
118.89401519013425
 10
404.9675448771834
 20
119.12156109854153
 10
405.59954321484361
 20
119.31889766197357
 10
406.24031227717802
 20
119.4855668757765
 10
406.88836488305998
 20
119.62118191211711
 10
407.5421969467638
 20
119.72542801778046
 10
408.200290968834
 20
119.798063244693
 10
409.18453620710216
 20
121.71336004132417
 10
410.21746748448658
 20
123.60284501994792
 10
411.29840839149
 20
125.4652808614767
 10
412.42665107976666
 20
127.29944795980609
 10
413.60145672565261
 20
129.10414522046671
 10
414.82205601398641
 20
130.87819084715281
 10
416.08764964187822
 20
132.620423115618
 10
417.39740884214098
 20
134.32970113442244
 10
418.7504759260014
 20
136.00490559203737
 10
419.67381278474818
 20
141.05333716528426
 10
420.40553506771676
 20
146.13308074198926
 10
420.94459553657219
 20
151.23686621116698
 10
421.29022268988177
 20
156.35738905315901
 10
421.44192186729117
 20
161.48732079383998
 10
421.3994759574768
 20
166.61931949310039
 10
421.16294570887078
 20
171.74604025260794
 10
420.73266964273017
 20
176.86014572779848
 10
420.10926356863263
 20
181.9543166290602
 10
419.29361970313681
 20
187.02126219706739
 10
418.2869053928556
 20
192.05373063729959
 10
417.09056144373363
 20
197.0445194987814
 10
420.06756915169194
 20
193.72961658583981
 10
422.79022079558098
 20
190.20281573499662
 10
425.2434846828894
 20
186.48358832668862
 10
427.41381640425658
 20
182.592468123624
 10
429.28923361182478
 20
178.55093790438409
 10
430.85938217349059
 20
174.38131085753969
 10
432.11559333780536
 20
170.10660739108482
 10
433.05093159394141
 20
165.75042803733001
 10
433.66023296247602
 20
161.33682315494752
 10
433.9401335055972
 20
156.89016014754219
 10
433.88908789931281
 20
152.43498893180214
 10
433.88958450824458
 20
150.98531720767326
 10
434.17388719521
 20
149.56379677639495
 10
434.7309923012034
 20
148.22544620377457
 10
435.5393376149064
 20
147.02206504712834
 10
436.56763691709898
 20
146.00022900378841
 10
437.77609088335015
 20
145.19948724403758
 10
439.11792747816656
 20
144.65083169893393
 10
440.54121222113218
 20
144.37549754776242
 10
441.99085826046962
 20
144.38414133107079
 10
443.41075845606417
 20
144.67642849963224
 10
452.4996518057286
 20
147.68911096537374
 10
454.65770960200263
 20
148.33323750750208
 10
456.80041618943579
 20
149.0267221392717
 10
458.92664283591535
 20
149.76919954777537
 10
461.03526949060438
 20
150.56027861175485
 10
463.12518537397079
 20
151.39954260763739
 10
465.19528956291538
 20
152.28654942905459
 10
467.24449157071922
 20
153.22083181973966
 10
469.27171192148461
 20
154.20189761966051
 10
471.27588271878062
 20
155.22923002428684
 10
472.47893596227783
 20
155.83476274544017
 10
473.64485397570002
 20
156.50903432948633
 10
474.76971349436701
 20
157.24977588113435
 10
475.84972941369301
 20
158.05449483647021
 10
476.88126752590199
 20
158.92048335032931
 10
477.860856748983
 20
159.84482740808005
 10
478.78520080673337
 20
160.82441663116015
 10
479.65118932059301
 20
161.85595474336822
 10
480.4559082759294
 20
162.93597066269371
 10
481.19664982757939
 20
164.0608301813607
 10
481.87092141162543
 20
165.22674819478272
 10
482.47645413277797
 20
166.42980143827904
 10
483.148994543181
 20
167.64389245282104
 10
483.98119423247704
 20
168.75464502308509
 10
484.95742730413917
 20
169.74120297121056
 10
486.05936340168182
 20
170.58504207444372
 10
486.70548699175379
 20
170.95189523550047
 10
494.2547024057838
 20
160.86065071177998
 10
497.42559863474759
 20
163.23278416189271
 10
490.7153756831184
 20
172.20252431366083
 10
491.2833308736744
 20
172.26236953954458
 10
492.67053555020095
 20
172.21775137465625
 10
494.03861715745262
 20
171.98391315896768
 10
495.36188774827201
 20
171.56524558357225
 10
496.61550077488738
 20
170.96960981003761
 10
499.16733280702204
 20
172.18666772450189
 10
501.61476411509403
 20
173.60199690164478
 10
503.94242039581798
 20
175.20670650970331
 10
506.13567975011881
 20
176.9907160646577
 10
508.18076453513515
 20
178.94281875393654
 10
510.06482791279018
 20
181.050751835505
 10
511.7760345512142
 20
183.30127367010482
 10
513.30363497206565
 20
185.68024690274279
 10
514.63803307673879
 20
188.17272727089841
 10
515.77084642725185
 20
190.76305748156642
 10
516.69495890314192
 20
193.43496556742758
 10
517.40456540360037
 20
196.1716671042966
 10
517.62922143529499
 20
198.42180772223881
 10
517.55326186894206
 20
200.68185933168661
 10
517.17803055295133
 20
202.9118379397884
 10
516.51016594026476
 20
205.07229159404937
 10
515.56148364331443
 20
207.1249983516114
 10
514.34876739661024
 20
209.03364248765939
 10
512.89347212513098
 20
210.76445697971218
 10
511.22134437178681
 20
212.28682090124701
 10
509.36196679914423
 20
213.57380115573119
 10
507.34823482394819
 20
214.60262896696682
 10
489.57514208703179
 20
222.6720566970414
 10
486.51769083857221
 20
224.43900611828579
 10
483.43592070379083
 20
226.16319033997561
 10
480.33042980992383
 20
227.8442747227644
 10
477.201820888062
 20
229.4819329923684
 10
474.05070115617423
 20
231.07584730288141
 10
470.877682201254
 20
232.62570829847701
 10
467.68337986061698
 20
234.1312151734368
 10
464.46841410237721
 20
235.59207573054238
 10
461.233408905126
 20
237.0080064377826
 10
464.55335914456077
 20
237.11894931238379
 10
467.87516250258602
 20
237.1195529325864
 10
471.19515284265123
 20
237.0098166321996
 10
474.50966602915622
 20
236.7898615226286
 10
477.81504397141202
 20
236.45993035919938
 10
481.1076386609148
 20
236.02038727324862
 10
484.38381619750862
 20
235.47171737024641
 10
487.63996079996883
 20
234.81452619439921
 10
490.87247879658958
 20
234.04953906034558
 10
494.07780259136882
 20
233.1776002526442
 10
497.25239460141415
 20
232.19967209398561
 10
500.3927511612336
 20
231.1168338831024
 10
500.99587621171565
 20
230.90240564698678
 10
501.63031905450475
 20
230.817425801166
 10
502.26861454159143
 20
230.8655731388796
 10
502.88313074327823
 20
231.04476335297338
 10
503.44726513953418
 20
231.34723926593759
 10
503.93659624800301
 20
231.75990663955199
 10
504.32994083449438
 20
232.26490102688823
 10
504.61027093910343
 20
232.8403611275136
 10
504.76545101975404
 20
233.46137516723641
 10
504.03726548611382
 20
235.42575968865961
 10
502.0759959277122
 20
238.8829812875118
 10
499.17320190147598
 20
243.5519930934114
 10
496.08507346387199
 20
248.10054749621099
 10
492.81660244046162
 20
252.52129195517878
 10
489.37307217276424
 20
256.80708052880397
 10
485.76004897796997
 20
260.95098542590978
 10
481.98337315123138
 20
264.94630820412118
 10
478.04914952506977
 20
268.78659059760838
 10
473.96373760118877
 20
272.4656249565918
 10
469.733741270613
 20
275.97746428174258
 10
465.36599813877899
 20
279.31643183724299
 10
460.86756847285142
 20
282.47713032698823
 10
466.56370332750242
 20
280.14567358609798
 10
472.15665869682061
 20
277.57653111168662
 10
477.636521761008
 20
274.77425639018338
 10
482.99358014235179
 20
271.74381610601699
 10
488.21833911921124
 20
268.49058133878003
 10
493.30153845423177
 20
265.02031804365902
 10
498.23416880697243
 20
261.33917683199041
 10
503.00748770183282
 20
257.45368207006084
 10
507.61303502302979
 20
253.370720315493
 10
512.04264800906878
 20
249.09752811165839
 10
516.28847572026541
 20
244.64167916181299
 10
520.34299295353742
 20
240.01107090564059
 10
523.38250036485363
 20
236.27617436471579
 10
526.17258313716786
 20
232.35144563542678
 10
528.70141955611973
 20
228.25351398140282
 10
530.95829482067404
 20
223.9997425353684
 10
532.9336464422172
 20
219.60815473069741
 10
534.61910476130936
 20
215.09735793528779
 10
536.00752841031363
 20
210.48646461123781
 10
536.64978013882376
 20
208.5645757618116
 10
537.18345153989821
 20
206.60975125101538
 10
537.60686933485624
 20
204.62812025528518
 10
537.91870593528904
 20
202.62589600037398
 10
538.11798360558123
 20
200.6093562803442
 10
538.20407752851963
 20
198.5848237741194
 10
538.17671776435566
 20
196.55864622127979
 10
538.03599009716697
 20
194.53717651930199
 10
537.78233576589844
 20
192.52675280461858
 10
537.41655008088833
 20
190.53367857996841
 10
536.97097317942178
 20
188.69305821518878
 10
530.51327778072778
 20
194.13093914930158
 10
527.96254917489478
 20
191.10184958651399
 10
535.55338839907085
 20
185.17812199615261
 10
534.10222373330339
 20
182.55488644166761
 10
531.62440314956461
 20
178.61908871366711
 10
528.9279878960856
 20
174.82970309304852
 10
526.02160697779868
 20
171.19885628290194
 10
522.91456132683061
 20
167.73816763413126
 10
519.61679403788526
 20
164.45871196147851
 10
516.13885854858597
 20
161.37098410216123
 10
512.49188486660933
 20
158.48486533053952
 10
508.68754395169685
 20
155.80959173629523
 10
504.73801036652401
 20
153.35372466731212
 10
500.6559233159424
 20
151.12512333185185
 10
496.45434619930501
 20
149.13091964770021
 10
491.95967006981158
 20
146.38075576599692
 10
487.39721889529261
 20
143.74455505941131
 10
482.76988160964123
 20
141.22398676434281
 10
478.08058823249576
 20
138.82064689900619
 10
473.33230801394404
 20
136.53605725283609
 10
468.52804755441718
 20
134.37166442289407
 10
463.67084890090985
 20
132.3288388978857
 10
458.7637876207578
 20
130.40887419037117
 10
453.80997085420438
 20
128.61298601771418
 10
448.81253534696219
 20
126.94231153229543
 10
443.77464546403382
 20
125.39790860146721
 10
438.69949118603819
 20
123.9807551377158
 10
437.10444255167459
 20
122.56538703801246
 10
435.5431232850126
 20
121.112896366377
 10
434.01639714491699
 20
119.62408667511654
 10
432.52510875251943
 20
118.09978160908085
 10
431.07008312394726
 20
116.54082445000392
 10
429.65212521390299
 20
114.94807764997951
 10
428.2720194703536
 20
113.32242235433431
 10
426.93052940054281
 20
111.6647579141532
 10
425.62839714861241
 20
109.97600138874054
 10
424.36634308502221
 20
108.25708703828039
 10
423.14506540803001
 20
106.5089658069801
 10
422.97035581051017
 20
106.22322371453075
 10
422.8246012091418
 20
105.9216817057776
 10
422.70921537273358
 20
105.60726463305582
 10
422.62531750365838
 20
105.28302223233072
 10
422.57372138199719
 20
104.952099541824
 10
422.55492747213242
 20
104.61770639623799
 10
422.5691180684376
 20
104.28308629247952
 10
422.61615552707815
 20
103.9514849288703
 10
422.69558360110739
 20
103.62611872300536
 10
422.80663186590482
 20
103.31014361362399
 10
422.94822319202223
 20
103.00662444910409
 10
423.11898419297398
 20
102.71850525950202
 10
423.54365674177444
 20
101.63694086171101
 10
423.86117313320818
 20
100.51921474971211
 10
424.0685254531158
 20
99.375915429453968
 10
424.16374939982279
 20
98.217873668442422
 10
424.1459428924752
 20
97.056059893102628
 10
424.01527461667979
 20
95.90148026311843
 10
423.7729824265092
 20
94.765072407260931
 10
423.42136161798061
 20
93.657601808426335
 10
422.96374318513858
 20
92.589559819459012
 10
422.40446226469442
 20
91.5710642758755
 10
421.32422585203915
 20
88.588419263498693
 10
421.9092923468346
 20
87.390213329374561
 10
421.67303269398542
 20
85.941377863508336
 10
421.46918983293477
 20
83.160227200966915
 10
421.68329634320639
 20
78.698077248885298
 10
421.8782304644136
 20
75.332169782458919
 10
422.07039441688505
 20
72.014144520099421
 10
421.06365908350199
 20
68.228011468680123
 10
419.56303108388761
 20
64.609111757261886
 10
417.59509418732159
 20
61.221554542147679
 10
415.1947105851246
 20
58.12535072507832
 10
412.40440330357859
 20
55.375349854337458
 10
409.2736029044292
 20
53.020268459731618
 10
405.85777181773921
 20
51.10182703457982
 10
402.21742181960343
 20
49.654010953165134
 10
398.417042060217
 20
48.702468416560563
 10
394.52395663237684
 20
48.264056092282139
 10
390.60713191871702
 20
48.346540496802355
 10
388.71595484558281
 20
48.64059502337826
 10
388.7159548455918
 20
82.709999999995858
 10
384.75595484559182
 20
82.709999999996938
 10
384.75595484557743
 20
29.249999999996938
 10
372.92295584125441
 20
29.25
 10
372.92295584126879
 20
82.709999999999994
 10
368.96295584126881
 20
82.710000000001088
 10
368.96295584125983
 20
48.640595023383476
 10
367.07177876812563
 20
48.346540496808664
 10
363.15495405446404
 20
48.26405609229024
 10
359.26186862662558
 20
48.702468416570817
 10
355.46148886723921
 20
49.654010953177384
 10
351.82113886910338
 20
51.101827034594038
 10
348.40530778241521
 20
53.020268459747463
 10
345.27450738326763
 20
55.3753498543551
 10
342.48420010172163
 20
58.125350725097405
 10
340.08381649952639
 20
61.221554542168015
 10
338.11587960296401
 20
64.609111757283117
 10
336.6152516033514
 20
68.228011468702263
 10
335.60851626997021
 20
72.014144520122102
 10
335.80068022244166
 20
75.332169782481429
 10
335.99561434365239
 20
78.698077248907794
 10
336.20972085392583
 20
83.16022720098924
 10
336.00587799287695
 20
85.941377863530647
 10
335.76961834002776
 20
87.390213329397071
 10
336.35468483482322
 20
88.588419263521033
 10
335.27444842217164
 20
91.571064275898365
 10
334.71516750172742
 20
92.589559819482247
 10
334.25754906888545
 20
93.657601808449741
 10
333.90592826035856
 20
94.765072407284336
 10
333.66363607018621
 20
95.90148026314219
 10
333.53296779439262
 20
97.056059893126388
 10
333.51516128704679
 20
98.217873668466183
 10
333.61038523375385
 20
99.375915429477715
 10
333.81773755366135
 20
100.51921474973568
 10
334.13525394509696
 20
101.6369408617344
 10
334.5599264938956
 20
102.71850525952523
 10
334.73068749484742
 20
103.00662444912713
 10
334.87227882096664
 20
103.31014361364703
 10
334.98332708576402
 20
103.6261187230284
 10
335.0627551597932
 20
103.95148492889317
 10
335.1097926184338
 20
104.28308629250238
 10
335.12398321474075
 20
104.61770639626103
 10
335.10518930487598
 20
104.95209954184703
 10
335.05359318321302
 20
105.28302223235376
 10
334.96969531413959
 20
105.60726463307867
 10
334.8543094777296
 20
105.92168170580064
 10
334.70855487636118
 20
106.22322371455381
 10
334.5338452788414
 20
106.50896580700332
 10
333.31256760185101
 20
108.25708703830435
 10
332.05051353826263
 20
109.97600138876501
 10
330.74838128633218
 20
111.6647579141784
 10
329.40689121652321
 20
113.32242235436021
 10
328.02678547297381
 20
114.94807765000614
 10
326.60882756293142
 20
116.54082445003128
 10
325.15380193435925
 20
118.09978160910912
 10
323.66251354196157
 20
119.62408667514552
 10
322.13578740186779
 20
121.1128963664067
 10
320.57446813520579
 20
122.56538703804306
 10
318.97941950084396
 20
123.98075513774712
 10
313.90426522284838
 20
125.39790860150123
 10
308.86637533991995
 20
126.94231153233216
 10
303.86893983267964
 20
128.6129860177536
 10
298.91512306612799
 20
130.40887419041292
 10
294.008061785976
 20
132.32883889793015
 10
289.1508631324686
 20
134.37166442294105
 10
284.34660267294362
 20
136.5360572528856
 10
279.59832245439361
 20
138.8206468990582
 10
274.90902907724819
 20
141.22398676439735
 10
270.28169179160039
 20
143.74455505946821
 10
265.71924061708319
 20
146.3807557660563
 10
261.22456448758976
 20
149.13091964776174
 10
257.02298737095236
 20
151.12512333191574
 10
252.9409003203744
 20
153.35372466737803
 10
248.99136673520161
 20
155.80959173636327
 10
245.18702582029078
 20
158.48486533060955
 10
241.54005213831599
 20
161.37098410223319
 10
238.06211664901861
 20
164.45871196155252
 10
234.7643493600732
 20
167.73816763420686
 10
231.657303709107
 20
171.19885628297916
 10
228.75092279082182
 20
174.82970309312716
 10
226.05450753734638
 20
178.6190887137472
 10
223.5766869536094
 20
182.55488644174858
 10
222.12552228784202
 20
185.1781219962354
 10
229.71636151202159
 20
191.10184958659141
 10
227.16563290619041
 20
194.13093914938079
 10
220.70793750749462
 20
188.69305821527161
 10
220.26236060602798
 20
190.5336785800512
 10
219.89657492101981
 20
192.52675280470319
 10
219.64292058975118
 20
194.53717651938481
 10
219.5021929225644
 20
196.55864622136261
 10
219.4748331584004
 20
198.58482377420401
 10
219.56092708134059
 20
200.60935628042881
 10
219.7602047516346
 20
202.62589600045681
 10
220.0720413520674
 20
204.628120255368
 10
220.49545914702719
 20
206.60975125109999
 10
221.02913054810159
 20
208.56457576189439
 10
221.6713822766136
 20
210.4864646113206
 10
223.0598059256196
 20
215.09735793536882
 10
224.74526424471361
 20
219.60815473077662
 10
226.7206158662604
 20
223.99974253544761
 10
228.97749113081642
 20
228.253513981482
 10
231.50632754977201
 20
232.35144563550421
 10
234.29641032208801
 20
236.27617436479142
 10
237.33591773340601
 20
240.0110709057144
 10
241.39043496667981
 20
244.64167916188501
 10
245.63626267787819
 20
249.09752811172862
 10
250.06587566392079
 20
253.37072031556139
 10
254.6714229851178
 20
257.45368207012558
 10
259.44474187998179
 20
261.33917683205158
 10
264.37737223272239
 20
265.02031804371836
 10
269.46057156774663
 20
268.49058133883761
 10
274.68533054460602
 20
271.74381610607099
 10
280.04238892595339
 20
274.77425639023562
 10
285.52225199014259
 20
277.57653111173522
 10
291.11520735946084
 20
280.14567358614477
 10
296.81134221411361
 20
282.47713032703143
 10
292.31291254818422
 20
279.31643183728801
 10
287.94516941634839
 20
275.97746428178942
 10
283.7151730857708
 20
272.46562495664222
 10
279.62976116188798
 20
268.78659059766062
 10
275.69553753572461
 20
264.94630820417518
 10
271.91886170898243
 20
260.9509854259656
 10
268.30583851418822
 20
256.8070805288616
 10
264.8623082464872
 20
252.52129195523821
 10
261.59383722307501
 20
248.10054749627218
 10
258.50570878546739
 20
243.55199309347441
 10
255.60291475922938
 20
238.88298128757663
 10
253.64164520082602
 20
235.42575968872438
 10
252.9134596671858
 20
233.46137516730298
 10
253.0686397478346
 20
232.84036112758019
 10
253.34896985244541
 20
232.26490102695479
 10
253.74231443893501
 20
231.75990663961682
 10
254.23164554740382
 20
231.34723926600239
 10
254.7957799436598
 20
231.04476335303821
 10
255.41029614534659
 20
230.86557313894261
 10
256.04859163243322
 20
230.8174258012308
 10
256.68303447522237
 20
230.90240564705161
 10
257.28615952570442
 20
231.11683388316541
 10
260.42651608552382
 20
232.1996720940468
 10
263.6011080955692
 20
233.17760025270539
 10
266.80643189034839
 20
234.04953906040322
 10
270.03894988697101
 20
234.81452619445679
 10
273.29509448943122
 20
235.47171737030041
 10
276.5712720260268
 20
236.02038727330262
 10
279.86386671552958
 20
236.45993035924982
 10
283.16924465778357
 20
236.78986152267899
 10
286.48375784429038
 20
237.0098166322482
 10
289.80374818435564
 20
237.11955293263321
 10
293.12555154238078
 20
237.11894931242878
 10
296.44550178181379
 20
237.0080064378258
 10
293.21049658456263
 20
235.5920757305874
 10
289.99553082632281
 20
234.13121517348358
 10
286.80122848568578
 20
232.62570829852558
 10
283.6282095307638
 20
231.07584730293178
 10
280.4770897988742
 20
229.48193299242058
 10
277.34848087701238
 20
227.8442747228184
 10
274.24298998314362
 20
226.16319034002959
 10
271.16121984836224
 20
224.43900611834158
 10
268.10376859990083
 20
222.67205669709898
 10
250.3306758629808
 20
214.60262896703338
 10
248.31694388778482
 20
213.5738011557996
 10
246.45756631514041
 20
212.28682090131539
 10
244.78543856179618
 20
210.76445697978241
 10
243.33014329031701
 20
209.03364248772962
 10
242.11742704361097
 20
207.12499835168339
 10
241.16874474666059
 20
205.0722915941214
 10
240.5008801339722
 20
202.91183793986039
 10
240.12564881797979
 20
200.6818593317586
 10
240.0496892516268
 20
198.4218077223108
 10
240.2743452833196
 20
196.17166710436859
 10
240.98395178377618
 20
193.4349655674996
 10
241.9080642596646
 20
190.76305748163659
 10
243.0408776101776
 20
188.1727272709704
 10
244.37527571484901
 20
185.68024690281479
 10
245.90287613569859
 20
183.30127367017499
 10
247.61408277412079
 20
181.05075183557338
 10
249.49814615177581
 20
178.94281875400441
 10
251.54323093679039
 20
176.9907160647245
 10
253.7364902910912
 20
175.20670650976882
 10
256.06414657181517
 20
173.60199690170904
 10
258.51157787988359
 20
172.1866677245649
 10
261.06340991202001
 20
170.96960981009934
 10
262.31702293863538
 20
171.56524558363324
 10
263.64029352945477
 20
171.98391315902813
 10
265.00837513670643
 20
172.21775137471602
 10
266.39557981323122
 20
172.26236953960361
 10
266.96353500378899
 20
172.20252431371949
 10
260.2533120521544
 20
163.23278416195481
 10
263.42420828111642
 20
160.86065071184046
 10
270.97342369515178
 20
170.951895235557
 10
271.6195472852238
 20
170.58504207449988
 10
272.72148338276821
 20
169.74120297126618
 10
273.69771645442859
 20
168.75464502314017
 10
274.52991614372462
 20
167.64389245287575
 10
275.20245655412577
 20
166.42980143833339
 10
275.80798927527843
 20
165.22674819483672
 10
276.48226085932436
 20
164.06083018141453
 10
277.22300241097258
 20
162.93597066274697
 10
278.02772136630898
 20
161.85595474342114
 10
278.8937098801668
 20
160.8244166312125
 10
279.81805393791899
 20
159.84482740813186
 10
280.79764316099823
 20
158.92048335038078
 10
281.82918127320721
 20
158.05449483652114
 10
282.90919719253139
 20
157.24977588118477
 10
284.03405671119839
 20
156.50903432953604
 10
285.19997472462057
 20
155.83476274548929
 10
286.40302796811784
 20
155.22923002433527
 10
288.4071987654138
 20
154.20189761970806
 10
290.43441911617742
 20
153.22083181978587
 10
292.48362112398121
 20
152.28654942909998
 10
294.55372531292585
 20
151.3995426076815
 10
296.64364119629221
 20
150.56027861179805
 10
298.75226785098118
 20
149.76919954781749
 10
300.87849449745903
 20
149.02672213931257
 10
303.0212010848922
 20
148.33323750754187
 10
305.17925888116616
 20
147.68911096541245
 10
314.26815223082878
 20
144.67642849966606
 10
315.68805242642344
 20
144.38414133110393
 10
317.13769846576076
 20
144.37549754779482
 10
318.56098320872638
 20
144.65083169896562
 10
319.90281980354098
 20
145.19948724406856
 10
321.11127376979397
 20
146.00022900381865
 10
322.13957307198655
 20
147.02206504715804
 10
322.94791838569142
 20
148.22544620380393
 10
323.50502349168664
 20
149.56379677642391
 10
323.78932617865195
 20
150.98531720770205
 10
323.78982278758383
 20
152.43498893183096
 10
323.73877718130296
 20
156.89016014757101
 10
324.01867772442597
 20
161.33682315497634
 10
324.62797909296239
 20
165.75042803735826
 10
325.5633173491002
 20
170.10660739111273
 10
326.8195285134168
 20
174.38131085756689
 10
328.38967707508442
 20
178.55093790441055
 10
330.26509428265621
 20
182.59246812364918
 10
332.4354260040252
 20
186.4835883267138
 10
334.88868989133539
 20
190.20281573501998
 10
337.61134153522619
 20
193.72961658586138
 10
340.58834924318637
 20
197.04451949880121
 10
339.39200529406259
 20
192.05373063732119
 10
338.38529098377779
 20
187.0212621970872
 10
337.56964711828022
 20
181.9543166290818
 10
336.94624104417898
 20
176.86014572782045
 10
336.51596497803479
 20
171.74604025263025
 10
336.27943472942877
 20
166.6193194931227
 10
336.23698881961081
 20
161.48732079386232
 10
336.38868799701663
 20
156.35738905318118
 10
336.73431515032439
 20
151.23686621118912
 10
337.27337561917619
 20
146.13308074201103
 10
338.00509790214119
 20
141.05333716530569
 10
338.9284347608862
 20
136.00490559205824
 10
340.28150184474657
 20
134.32970113444259
 10
341.59126104500939
 20
132.62042311563764
 10
342.85685467289943
 20
130.87819084717171
 10
344.07745396123141
 20
129.1041452204849
 10
345.25225960711737
 20
127.29944795982372
 10
346.3805022953922
 20
125.46528086149362
 10
347.46144320239563
 20
123.60284501996429
 10
348.49437447977817
 20
121.71336004134018
 10
349.47861971804639
 20
119.79806324470849
 10
350.13671374011659
 20
119.72542801779539
 10
350.79054580382035
 20
119.62118191213169
 10
351.43859840970242
 20
119.48556687579091
 10
352.07936747203502
 20
119.31889766198761
 10
352.71136580969522
 20
119.12156109855522
 10
353.33312659781222
 20
118.89401519014757
 10
353.94320677216501
 20
118.63678805523847
 10
354.54019037844063
 20
118.35047670039648
 10
355.12269185856059
 20
118.0357456346739
 10
355.68935926647117
 20
117.69332532732577
 10
356.23887740591761
 20
117.32401051244136
 10
356.76997088291819
 20
116.92865834442037
 10
357.93801621764459
 20
117.15356470434102
 10
359.10932933770562
 20
117.36078041195748
 10
360.2836423248408
 20
117.55025807014675
 10
361.46068657462439
 20
117.72195433906788
 10
362.64019285789556
 20
117.8758299460752
 10
363.82189138234742
 20
118.0118496947004
 10
365.00551185423421
 20
118.12998247270434
 10
366.19078354019643
 20
118.23020125919243
 10
367.37743532918756
 20
118.3124831307957
 10
368.5651957944828
 20
118.37680926691428
 10
369.7537932557712
 20
118.42316495402184
 10
370.94295584128861
 20
118.45153958903117
 10
386.73595484559002
 20
118.45153958902704
  0
LWPOLYLINE
  5
77
  8
DEFAULT
 62
256
370
-1
  6
ByLayer
100
AcDbEntity
100
AcDbPolyline
 90
49
 70
0
 10
584.47438721499248
 20
355.12532911133462
 10
584.47438721499248
 20
354.20637538899899
 10
589.62159043430768
 20
354.20637538899899
 10
589.59901498159263
 20
354.54500717974378
 10
589.51004113853276
 20
354.87035929242001
 10
589.25440733571713
 20
355.39225064050862
 10
588.88058439809163
 20
355.9061741817564
 10
588.35138922706506
 20
356.45595285378784
 10
587.62963872404646
 20
357.08540959423078
 10
586.56593651076719
 20
358.01830697853597
 10
585.91390431760919
 20
358.7347456103268
 10
585.57925643028477
 20
359.32635526827602
 10
585.46770713450996
 20
359.88476573105277
 10
585.56929667173381
 20
360.40864903085156
 10
585.87406528340341
 20
360.8435584875906
 10
586.3421739353148
 20
361.136375388999
 10
586.93378359326221
 20
361.23398102280237
 10
587.55527252686443
 20
361.1303995338684
 10
587.81422624919935
 20
361.00092267270179
 10
588.03865280855462
 20
360.8196550670682
 10
588.22025240613959
 20
360.59257257209822
 10
588.35072524316217
 20
360.3256510429224
 10
588.45829063551662
 20
359.672290881957
 10
589.44098681257856
 20
359.7732164352762
 10
589.35566488098971
 20
360.29029390006502
 10
589.20062463954002
 20
360.74196895036675
 10
588.97586608823337
 20
361.12824158618162
 10
588.68138922706623
 20
361.44911180750938
 10
588.32383389507356
 20
361.70125969483439
 10
587.90983993129078
 20
361.88136532863717
 10
587.43940733571776
 20
361.9894287089196
 10
586.91253610835463
 20
362.02544983567981
 10
586.38134898561771
 20
361.98660677733
 10
585.90859244638136
 20
361.8700776022788
 10
585.49426649064719
 20
361.67586231052798
 10
585.13837111841337
 20
361.40396090207759
 10
584.85252604799155
 20
361.074624885981
 10
584.64835099768982
 20
360.70810577129339
 10
584.52584596750808
 20
360.30440355801477
 10
584.48501095744791
 20
359.86351824614343
 10
584.53281779849453
 20
359.40005748155522
 10
584.67623832163258
 20
358.9445645238078
 10
584.93054415664255
 20
358.48110375922136
 10
585.31100693330336
 20
357.9937395741108
 10
585.90128862344341
 20
357.40146593225882
 10
586.78505119889644
 20
356.62327679744999
 10
587.88992041418692
 20
355.643236556001
 10
588.29362262746736
 20
355.1253291113328
 10
584.47438721499248
 20
355.12532911133462
  0
LWPOLYLINE
  5
78
  8
DEFAULT
 62
256
370
-1
  6
ByLayer
100
AcDbEntity
100
AcDbPolyline
 90
49
 70
0
 10
697.62034790911082
 20
-275.80024096355879
 10
697.88461350267187
 20
-276.31814840822699
 10
698.24183684271304
 20
-276.68201158729977
 10
698.68537809019745
 20
-276.8971423720086
 10
699.2085974060916
 20
-276.96885263357757
 10
699.61661551474378
 20
-276.93067355913058
 10
699.99077044432261
 20
-276.81613633579138
 10
700.33106219482443
 20
-276.62524096355821
 10
700.63749076625277
 20
-276.35798744243101
 10
700.8908006254087
 20
-276.02732345852701
 10
701.0717362390908
 20
-275.64619669796343
 10
701.18029760729939
 20
-275.21460716074017
 10
701.2164847300362
 20
-274.7325548468574
 10
701.17946762741997
 20
-274.24751460540841
 10
701.0684163195732
 20
-273.81227315671617
 10
700.88333080649409
 20
-273.4268305007808
 10
700.62421108818421
 20
-273.09118663760222
 10
700.31197265760181
 20
-272.81928522915177
 10
699.96753100770115
 20
-272.62506993740101
 10
699.59088613848598
 20
-272.50854076235157
 10
699.18203804995437
 20
-272.469697704
 10
698.67541833164455
 20
-272.5407439816662
 10
698.23918090709822
 20
-272.75388281466479
 10
697.88394951876899
 20
-273.11177013860879
 10
697.62034790911082
 20
-273.6170618891112
 10
697.31491531353652
 20
-272.98561319695801
 10
696.86606219482439
 20
-272.52547235188922
 10
696.2950360378818
 20
-272.24460716074202
 10
695.62308432762177
 20
-272.15098543035901
 10
695.14368794935194
 20
-272.1951403599366
 10
694.7041306052862
 20
-272.32760514866936
 10
694.30441229542794
 20
-272.54837979655741
 10
693.94453301977376
 20
-272.85746430359882
 10
693.64706823104223
 20
-273.23859106416239
 10
693.43459338194646
 20
-273.67549247261337
 10
693.30710847249009
 20
-274.16816852895181
 10
693.26461350267118
 20
-274.71661923317578
 10
693.30727446846652
 20
-275.26506993740162
 10
693.43525736585093
 20
-275.75774599374
 10
693.64856219482431
 20
-276.19464740219098
 10
693.94718895538858
 20
-276.57577416275461
 10
694.30955817067911
 20
-276.88485866979596
 10
694.71409036383898
 20
-277.10563331768401
 10
695.16078553486432
 20
-277.23809810641501
 10
695.649643683759
 20
-277.2822530359926
 10
696.34749076625337
 20
-277.18597536999658
 10
696.92183684271185
 20
-276.8971423720086
 10
697.35276239603229
 20
-276.43036168790462
 10
697.62034790911082
 20
-275.80024096355879
  0
LWPOLYLINE
  5
79
  8
DEFAULT
 62
256
370
-1
  6
ByLayer
100
AcDbEntity
100
AcDbPolyline
 90
17
 70
0
 10
699.24046863345666
 20
-275.99146832774341
 10
698.73849680246997
 20
-275.90249448468541
 10
698.33745052480447
 20
-275.63557295550959
 10
698.07451289905077
 20
-275.22655887100319
 10
697.98686702379848
 20
-274.711307361948
 10
698.07384891514619
 20
-274.2086715470586
 10
698.33479458919146
 20
-273.8056333176828
 10
698.72189720488564
 20
-273.54070374021723
 10
699.1873499211822
 20
-273.45239388106381
 10
699.67139418677698
 20
-273.54335967583199
 10
700.07177648053801
 20
-273.81625706013659
 10
700.340689961424
 20
-274.22460716074022
 10
700.43032778838665
 20
-274.72193110440361
 10
700.34268191313424
 20
-275.22257496758277
 10
700.07974428738066
 20
-275.63026108428181
 10
699.69463362339661
 20
-275.90116651687799
 10
699.24046863345666
 20
-275.99146832774341
  0
LWPOLYLINE
  5
7A
  8
DEFAULT
 62
256
370
-1
  6
ByLayer
100
AcDbEntity
100
AcDbPolyline
 90
31
 70
0
 10
695.64433181253128
 20
-276.2995568589306
 10
695.24195756705819
 20
-276.25108603398121
 10
694.85286299965378
 20
-276.10567355913298
 10
694.51356722500623
 20
-275.8646474021898
 10
694.2605893578019
 20
-275.52933553096261
 10
694.10322517269231
 20
-275.13227315671736
 10
694.05077044432073
 20
-274.70599549072199
 10
694.07832577631405
 20
-274.3783194343842
 10
694.16099177228989
 20
-274.0805226536994
 10
694.29876843224883
 20
-273.81260514866943
 10
694.49165575619224
 20
-273.57456691929241
 10
694.72703804995444
 20
-273.37935565168738
 10
694.99229961937135
 20
-273.23991903196981
 10
695.28744046444137
 20
-273.15625706013782
 10
695.61246058516622
 20
-273.128369736195
 10
695.94279257711878
 20
-273.15708704001719
 10
696.24324529341663
 20
-273.24323895148558
 10
696.51381873405956
 20
-273.38682547060017
 10
696.75451289904959
 20
-273.58784659736102
 10
696.95204811031795
 20
-273.83202667784337
 10
697.09314468979437
 20
-274.10509005812639
 10
697.17780263748057
 20
-274.40703673820639
 10
697.20602195337653
 20
-274.73786671808523
 10
697.17813462943207
 20
-275.06072889112318
 10
697.09447265760173
 20
-275.35470776436239
 10
696.95503603788234
 20
-275.61980333780457
 10
696.75982477027742
 20
-275.8560156114462
 10
696.52278251675648
 20
-276.05006490722036
 10
696.25785293929073
 20
-276.18867154705862
 10
695.96503603788233
 20
-276.27183553096262
 10
695.64433181253128
 20
-276.2995568589306
  0
ENDSEC
  0
SECTION
  2
OBJECTS
  0
DICTIONARY
  5
C
100
AcDbDictionary
280
0
281
1
  3
ACAD_GROUP
350
D
  3
ACAD_LAYOUT
350
1A
  3
ACAD_MLINESTYLE
350
17
  3
ACAD_PLOTSETTINGS
350
19
  3
ACAD_PLOTSTYLENAME
350
E
  3
AcDbVariableDictionary
350
7B
  0
DICTIONARY
  5
D
100
AcDbDictionary
280
0
281
1
  0
ACDBDICTIONARYWDFLT
  5
E
100
AcDbDictionary
281
1
  3
Normal
350
F
100
AcDbDictionaryWithDefault
340
F
  0
ACDBPLACEHOLDER
  5
F
  0
DICTIONARY
  5
17
100
AcDbDictionary
280
0
281
1
  3
Standard
350
18
  0
MLINESTYLE
  5
18
100
AcDbMlineStyle
  2
STANDARD
 70
0
  3

 62
256
 51
90.0
 52
90.0
 71
2
 49
0.5
 62
256
  6
BYLAYER
 49
-0.5
 62
256
  6
BYLAYER
  0
DICTIONARY
  5
19
100
AcDbDictionary
280
0
281
1
  0
DICTIONARY
  5
1A
100
AcDbDictionary
281
1
  3
Layout1
350
1E
  3
Layout2
350
26
  3
Model
350
22
  0
LAYOUT
  5
1E
100
AcDbPlotSettings
  1

  2
C:\Program Files\AutoCAD 2002\plotters\DWF ePlot (optimized for plotting).pc3
  4

  6

 40
0.0
 41
0.0
 42
0.0
 43
0.0
 44
0.0
 45
0.0
 46
0.0
 47
0.0
 48
0.0
 49
0.0
140
0.0
141
0.0
142
1.0
143
1.0
 70
688
 72
0
 73
0
 74
5
  7

 75
16
147
1.0
148
0.0
149
0.0
100
AcDbLayout
  1
Layout1
 70
1
 71
1
 10
0.0
 20
0.0
 11
420.0
 21
297.0
 12
0.0
 22
0.0
 32
0.0
 14
100000000000000000000.0
 24
100000000000000000000.0
 34
100000000000000000000.0
 15
-100000000000000000000.0
 25
-100000000000000000000.0
 35
-100000000000000000000.0
146
0.0
 13
0.0
 23
0.0
 33
0.0
 16
1.0
 26
0.0
 36
0.0
 17
0.0
 27
1.0
 37
0.0
 76
0
330
1B
  0
LAYOUT
  5
22
100
AcDbPlotSettings
  1

  2
C:\Program Files\AutoCAD 2002\plotters\DWF ePlot (optimized for plotting).pc3
  4

  6

 40
0.0
 41
0.0
 42
0.0
 43
0.0
 44
0.0
 45
0.0
 46
0.0
 47
0.0
 48
0.0
 49
0.0
140
0.0
141
0.0
142
1.0
143
1.0
 70
1712
 72
0
 73
0
 74
0
  7

 75
0
147
1.0
148
0.0
149
0.0
100
AcDbLayout
  1
Model
 70
1
 71
0
 10
0.0
 20
0.0
 11
12.0
 21
9.0
 12
0.0
 22
0.0
 32
0.0
 14
0.0
 24
0.0
 34
0.0
 15
0.0
 25
0.0
 35
0.0
146
0.0
 13
0.0
 23
0.0
 33
0.0
 16
1.0
 26
0.0
 36
0.0
 17
0.0
 27
1.0
 37
0.0
 76
0
330
1F
  0
LAYOUT
  5
26
100
AcDbPlotSettings
  1

  2
C:\Program Files\AutoCAD 2002\plotters\DWF ePlot (optimized for plotting).pc3
  4

  6

 40
0.0
 41
0.0
 42
0.0
 43
0.0
 44
0.0
 45
0.0
 46
0.0
 47
0.0
 48
0.0
 49
0.0
140
0.0
141
0.0
142
1.0
143
1.0
 70
688
 72
0
 73
0
 74
5
  7

 75
16
147
1.0
148
0.0
149
0.0
100
AcDbLayout
  1
Layout2
 70
1
 71
2
 10
0.0
 20
0.0
 11
12.0
 21
9.0
 12
0.0
 22
0.0
 32
0.0
 14
0.0
 24
0.0
 34
0.0
 15
0.0
 25
0.0
 35
0.0
146
0.0
 13
0.0
 23
0.0
 33
0.0
 16
1.0
 26
0.0
 36
0.0
 17
0.0
 27
1.0
 37
0.0
 76
0
330
23
  0
DICTIONARY
  5
7B
100
AcDbDictionary
281
1
  3
DIMASSOC
350
7D
  3
HIDETEXT
350
7C
  0
DICTIONARYVAR
  5
7C
100
DictionaryVariables
280
0
  1
2
  0
DICTIONARYVAR
  5
7D
100
DictionaryVariables
280
0
  1
1
  0
ENDSEC
  0
EOF
