  0
SECTION
  2
HEADER
  9
$ACADVER
  1
AC1014
  9
$ACADMAINTVER
 70
     0
  9
$DWGCODEPAGE
  3
ANSI_1252
  9
$INSBASE
 10
0.0
 20
0.0
 30
0.0
  9
$EXTMIN
 10
212.055985
 20
-56.449929
 30
0.0
  9
$EXTMAX
 10
1301.672561
 20
480.710381
 30
0.0
  9
$LIMMIN
 10
0.0
 20
0.0
  9
$LIMMAX
 10
420.0
 20
297.0
  9
$ORTHOMODE
 70
     0
  9
$REGENMODE
 70
     1
  9
$FILLMODE
 70
     1
  9
$QTEXTMODE
 70
     0
  9
$MIRRTEXT
 70
     1
  9
$DRAGMODE
 70
     2
  9
$LTSCALE
 40
1.0
  9
$OSMODE
 70
    39
  9
$ATTMODE
 70
     1
  9
$TEXTSIZE
 40
2.5
  9
$TRACEWID
 40
1.0
  9
$TEXTSTYLE
  7
STANDARD
  9
$CLAYER
  8
0
  9
$CELTYPE
  6
BYLAYER
  9
$CECOLOR
 62
   256
  9
$CELTSCALE
 40
1.0
  9
$DELOBJ
 70
     1
  9
$DISPSILH
 70
     0
  9
$DIMSCALE
 40
1.0
  9
$DIMASZ
 40
2.5
  9
$DIMEXO
 40
0.625
  9
$DIMDLI
 40
3.75
  9
$DIMRND
 40
0.0
  9
$DIMDLE
 40
0.0
  9
$DIMEXE
 40
1.25
  9
$DIMTP
 40
0.0
  9
$DIMTM
 40
0.0
  9
$DIMTXT
 40
2.5
  9
$DIMCEN
 40
2.5
  9
$DIMTSZ
 40
0.0
  9
$DIMTOL
 70
     0
  9
$DIMLIM
 70
     0
  9
$DIMTIH
 70
     0
  9
$DIMTOH
 70
     0
  9
$DIMSE1
 70
     0
  9
$DIMSE2
 70
     0
  9
$DIMTAD
 70
     1
  9
$DIMZIN
 70
     8
  9
$DIMBLK
  1

  9
$DIMASO
 70
     1
  9
$DIMSHO
 70
     1
  9
$DIMPOST
  1

  9
$DIMAPOST
  1

  9
$DIMALT
 70
     0
  9
$DIMALTD
 70
     4
  9
$DIMALTF
 40
0.0394
  9
$DIMLFAC
 40
1.0
  9
$DIMTOFL
 70
     1
  9
$DIMTVP
 40
0.0
  9
$DIMTIX
 70
     0
  9
$DIMSOXD
 70
     0
  9
$DIMSAH
 70
     0
  9
$DIMBLK1
  1

  9
$DIMBLK2
  1

  9
$DIMSTYLE
  2
STANDARD
  9
$DIMCLRD
 70
     0
  9
$DIMCLRE
 70
     0
  9
$DIMCLRT
 70
     0
  9
$DIMTFAC
 40
1.0
  9
$DIMGAP
 40
0.625
  9
$DIMJUST
 70
     0
  9
$DIMSD1
 70
     0
  9
$DIMSD2
 70
     0
  9
$DIMTOLJ
 70
     1
  9
$DIMTZIN
 70
     0
  9
$DIMALTZ
 70
     0
  9
$DIMALTTZ
 70
     0
  9
$DIMFIT
 70
     3
  9
$DIMUPT
 70
     0
  9
$DIMUNIT
 70
     8
  9
$DIMDEC
 70
     4
  9
$DIMTDEC
 70
     4
  9
$DIMALTU
 70
     8
  9
$DIMALTTD
 70
     4
  9
$DIMTXSTY
  7
STANDARD
  9
$DIMAUNIT
 70
     0
  9
$LUNITS
 70
     2
  9
$LUPREC
 70
     4
  9
$SKETCHINC
 40
1.0
  9
$FILLETRAD
 40
10.0
  9
$AUNITS
 70
     0
  9
$AUPREC
 70
     0
  9
$MENU
  1
.
  9
$ELEVATION
 40
0.0
  9
$PELEVATION
 40
0.0
  9
$THICKNESS
 40
0.0
  9
$LIMCHECK
 70
     0
  9
$BLIPMODE
 70
     0
  9
$CHAMFERA
 40
10.0
  9
$CHAMFERB
 40
10.0
  9
$CHAMFERC
 40
20.0
  9
$CHAMFERD
 40
0.0
  9
$SKPOLY
 70
     0
  9
$TDCREATE
 40
2454314.267405417
  9
$TDUPDATE
 40
2454589.369848993
  9
$TDINDWG
 40
0.5924453819
  9
$TDUSRTIMER
 40
0.5924453819
  9
$USRTIMER
 70
     1
  9
$ANGBASE
 50
0.0
  9
$ANGDIR
 70
     0
  9
$PDMODE
 70
     0
  9
$PDSIZE
 40
0.0
  9
$PLINEWID
 40
0.0
  9
$COORDS
 70
     1
  9
$SPLFRAME
 70
     0
  9
$SPLINETYPE
 70
     6
  9
$SPLINESEGS
 70
     8
  9
$ATTDIA
 70
     0
  9
$ATTREQ
 70
     1
  9
$HANDLING
 70
     1
  9
$HANDSEED
  5
B89
  9
$SURFTAB1
 70
     6
  9
$SURFTAB2
 70
     6
  9
$SURFTYPE
 70
     6
  9
$SURFU
 70
     6
  9
$SURFV
 70
     6
  9
$UCSNAME
  2

  9
$UCSORG
 10
0.0
 20
0.0
 30
0.0
  9
$UCSXDIR
 10
1.0
 20
0.0
 30
0.0
  9
$UCSYDIR
 10
0.0
 20
1.0
 30
0.0
  9
$PUCSNAME
  2

  9
$PUCSORG
 10
0.0
 20
0.0
 30
0.0
  9
$PUCSXDIR
 10
1.0
 20
0.0
 30
0.0
  9
$PUCSYDIR
 10
0.0
 20
1.0
 30
0.0
  9
$USERI1
 70
     0
  9
$USERI2
 70
     0
  9
$USERI3
 70
     0
  9
$USERI4
 70
     0
  9
$USERI5
 70
     0
  9
$USERR1
 40
0.0
  9
$USERR2
 40
0.0
  9
$USERR3
 40
0.0
  9
$USERR4
 40
0.0
  9
$USERR5
 40
0.0
  9
$WORLDVIEW
 70
     1
  9
$SHADEDGE
 70
     3
  9
$SHADEDIF
 70
    70
  9
$TILEMODE
 70
     1
  9
$MAXACTVP
 70
    48
  9
$PINSBASE
 10
0.0
 20
0.0
 30
0.0
  9
$PLIMCHECK
 70
     0
  9
$PEXTMIN
 10
1.000000E+20
 20
1.000000E+20
 30
1.000000E+20
  9
$PEXTMAX
 10
-1.000000E+20
 20
-1.000000E+20
 30
-1.000000E+20
  9
$PLIMMIN
 10
0.0
 20
0.0
  9
$PLIMMAX
 10
420.0
 20
297.0
  9
$UNITMODE
 70
     0
  9
$VISRETAIN
 70
     1
  9
$PLINEGEN
 70
     0
  9
$PSLTSCALE
 70
     1
  9
$TREEDEPTH
 70
  3020
  9
$PICKSTYLE
 70
     1
  9
$CMLSTYLE
  2
STANDARD
  9
$CMLJUST
 70
     0
  9
$CMLSCALE
 40
20.0
  9
$PROXYGRAPHICS
 70
     1
  9
$MEASUREMENT
 70
     1
  0
ENDSEC
  0
SECTION
  2
CLASSES
  0
CLASS
  1
LWPOLYLINE
  2
AcDbPolyline
  3
"AutoCAD"
 90
        0
280
     0
281
     1
  0
ENDSEC
  0
SECTION
  2
TABLES
  0
TABLE
  2
VPORT
  5
8
100
AcDbSymbolTable
 70
     2
  0
VPORT
  5
B88
100
AcDbSymbolTableRecord
100
AcDbViewportTableRecord
  2
*ACTIVE
 70
     0
 10
0.0
 20
0.0
 11
1.0
 21
1.0
 12
596.698248
 22
95.158803
 13
0.0
 23
0.0
 14
10.0
 24
10.0
 15
10.0
 25
10.0
 16
0.0
 26
0.0
 36
1.0
 17
0.0
 27
0.0
 37
0.0
 40
293.570241
 41
1.929496
 42
50.0
 43
0.0
 44
0.0
 50
0.0
 51
0.0
 71
     0
 72
   100
 73
     1
 74
     1
 75
     0
 76
     0
 77
     0
 78
     0
  0
ENDTAB
  0
TABLE
  2
LTYPE
  5
5
100
AcDbSymbolTable
 70
     1
  0
LTYPE
  5
12
100
AcDbSymbolTableRecord
100
AcDbLinetypeTableRecord
  2
BYBLOCK
 70
     0
  3

 72
    65
 73
     0
 40
0.0
  0
LTYPE
  5
13
100
AcDbSymbolTableRecord
100
AcDbLinetypeTableRecord
  2
BYLAYER
 70
     0
  3

 72
    65
 73
     0
 40
0.0
  0
LTYPE
  5
14
100
AcDbSymbolTableRecord
100
AcDbLinetypeTableRecord
  2
CONTINUOUS
 70
     0
  3
Solid line
 72
    65
 73
     0
 40
0.0
  0
ENDTAB
  0
TABLE
  2
LAYER
  5
2
100
AcDbSymbolTable
 70
     1
  0
LAYER
  5
E
100
AcDbSymbolTableRecord
100
AcDbLayerTableRecord
  2
0
 70
     0
 62
     7
  6
CONTINUOUS
  0
ENDTAB
  0
TABLE
  2
STYLE
  5
3
100
AcDbSymbolTable
 70
     1
  0
STYLE
  5
F
100
AcDbSymbolTableRecord
100
AcDbTextStyleTableRecord
  2
STANDARD
 70
     0
 40
0.0
 41
1.0
 50
0.0
 71
     0
 42
2.5
  3
txt
  4

  0
ENDTAB
  0
TABLE
  2
VIEW
  5
6
100
AcDbSymbolTable
 70
     0
  0
ENDTAB
  0
TABLE
  2
UCS
  5
7
100
AcDbSymbolTable
 70
     0
  0
ENDTAB
  0
TABLE
  2
APPID
  5
9
100
AcDbSymbolTable
 70
     1
  0
APPID
  5
10
100
AcDbSymbolTableRecord
100
AcDbRegAppTableRecord
  2
ACAD
 70
     0
  0
ENDTAB
  0
TABLE
  2
DIMSTYLE
  5
A
100
AcDbSymbolTable
 70
     1
  0
DIMSTYLE
105
1D
100
AcDbSymbolTableRecord
100
AcDbDimStyleTableRecord
  2
STANDARD
 70
     0
  3

  4

  5

  6

  7

 40
1.0
 41
0.18
 42
0.0625
 43
0.38
 44
0.18
 45
0.0
 46
0.0
 47
0.0
 48
0.0
140
0.18
141
0.09
142
0.0
143
25.4
144
1.0
145
0.0
146
1.0
147
0.09
 71
     0
 72
     0
 73
     1
 74
     1
 75
     0
 76
     0
 77
     0
 78
     0
170
     0
171
     2
172
     0
173
     0
174
     0
175
     0
176
     0
177
     0
178
     0
270
     2
271
     4
272
     4
273
     2
274
     2
340
F
275
     0
280
     0
281
     0
282
     0
283
     1
284
     0
285
     0
286
     0
287
     3
288
     0
  0
ENDTAB
  0
TABLE
  2
BLOCK_RECORD
  5
1
100
AcDbSymbolTable
 70
     0
  0
BLOCK_RECORD
  5
18
100
AcDbSymbolTableRecord
100
AcDbBlockTableRecord
  2
*MODEL_SPACE
  0
BLOCK_RECORD
  5
15
100
AcDbSymbolTableRecord
100
AcDbBlockTableRecord
  2
*PAPER_SPACE
  0
ENDTAB
  0
ENDSEC
  0
SECTION
  2
BLOCKS
  0
BLOCK
  5
19
100
AcDbEntity
  8
0
100
AcDbBlockBegin
  2
*MODEL_SPACE
 70
     0
 10
0.0
 20
0.0
 30
0.0
  3
*MODEL_SPACE
  1

  0
ENDBLK
  5
1A
100
AcDbEntity
  8
0
100
AcDbBlockEnd
  0
BLOCK
  5
16
100
AcDbEntity
 67
     1
  8
0
100
AcDbBlockBegin
  2
*PAPER_SPACE
 70
     0
 10
0.0
 20
0.0
 30
0.0
  3
*PAPER_SPACE
  1

  0
ENDBLK
  5
17
100
AcDbEntity
 67
     1
  8
0
100
AcDbBlockEnd
  0
ENDSEC
  0
SECTION
  2
ENTITIES
  0
ARC
  5
1E0
100
AcDbEntity
  8
0
100
AcDbCircle
 10
359.875664
 20
168.757091
 30
0.0
 40
35.135748
100
AcDbArc
 50
92.05512
 51
118.45737
  0
LINE
  5
1E1
100
AcDbEntity
  8
0
100
AcDbLine
 10
347.426864
 20
187.489516
 30
0.0
 11
358.615664
 21
187.489516
 31
0.0
  0
ARC
  5
1E2
100
AcDbEntity
  8
0
100
AcDbCircle
 10
350.308604
 20
201.707093
 30
0.0
 40
3.156368
100
AcDbArc
 50
220.733029
 51
319.266971
  0
ARC
  5
1E3
100
AcDbEntity
  8
0
100
AcDbCircle
 10
356.318864
 20
181.416152
 30
0.0
 40
8.892
100
AcDbArc
 50
180.0
 51
270.0
  0
LINE
  5
1E4
100
AcDbEntity
  8
0
100
AcDbLine
 10
347.426864
 20
187.489516
 30
0.0
 11
347.426864
 21
181.416152
 31
0.0
  0
ARC
  5
1E5
100
AcDbEntity
  8
0
100
AcDbCircle
 10
345.525077
 20
201.707093
 30
0.0
 40
3.156368
100
AcDbArc
 50
220.732998
 51
319.266971
  0
ARC
  5
1E6
100
AcDbEntity
  8
0
100
AcDbCircle
 10
359.875664
 20
168.757091
 30
0.0
 40
35.135748
100
AcDbArc
 50
61.54263
 51
87.94488
  0
ARC
  5
1E7
100
AcDbEntity
  8
0
100
AcDbCircle
 10
374.226242
 20
201.707093
 30
0.0
 40
3.156368
100
AcDbArc
 50
220.733029
 51
319.267082
  0
ARC
  5
1E8
100
AcDbEntity
  8
0
100
AcDbCircle
 10
363.432464
 20
181.416152
 30
0.0
 40
8.892
100
AcDbArc
 50
270.0
 51
0.0
  0
LINE
  5
1E9
100
AcDbEntity
  8
0
100
AcDbLine
 10
356.318864
 20
172.524152
 30
0.0
 11
363.432464
 21
172.524152
 31
0.0
  0
LINE
  5
1EA
100
AcDbEntity
  8
0
100
AcDbLine
 10
361.135664
 20
187.489516
 30
0.0
 11
372.324464
 21
187.489516
 31
0.0
  0
ARC
  5
1EB
100
AcDbEntity
  8
0
100
AcDbCircle
 10
364.659187
 20
201.707093
 30
0.0
 40
3.156368
100
AcDbArc
 50
220.733029
 51
319.266971
  0
ARC
  5
1EE
100
AcDbEntity
  8
0
100
AcDbCircle
 10
355.092132
 20
201.707093
 30
0.0
 40
3.156368
100
AcDbArc
 50
220.733029
 51
319.266971
  0
ARC
  5
1EF
100
AcDbEntity
  8
0
100
AcDbCircle
 10
359.87566
 20
201.707093
 30
0.0
 40
3.156368
100
AcDbArc
 50
220.733029
 51
246.472349
  0
ARC
  5
1F0
100
AcDbEntity
  8
0
100
AcDbCircle
 10
359.87566
 20
201.707093
 30
0.0
 40
3.156368
100
AcDbArc
 50
293.527831
 51
319.266971
  0
LINE
  5
1F1
100
AcDbEntity
  8
0
100
AcDbLine
 10
372.324464
 20
181.416152
 30
0.0
 11
372.324464
 21
187.489516
 31
0.0
  0
ARC
  5
1F2
100
AcDbEntity
  8
0
100
AcDbCircle
 10
369.442715
 20
201.707093
 30
0.0
 40
3.156368
100
AcDbArc
 50
220.733029
 51
319.266971
  0
ARC
  5
1F3
100
AcDbEntity
  8
0
100
AcDbCircle
 10
359.875664
 20
207.602395
 30
0.0
 40
3.04
100
AcDbArc
 50
294.486176
 51
245.513824
  0
LINE
  5
273
100
AcDbEntity
  8
0
100
AcDbLine
 10
634.610104
 20
-26.884757
 30
0.0
 11
791.686817
 21
-26.859769
 31
0.0
  0
LINE
  5
274
100
AcDbEntity
  8
0
100
AcDbLine
 10
657.558351
 20
-10.884757
 30
0.0
 11
768.733484
 21
-10.884757
 31
0.0
  0
LINE
  5
275
100
AcDbEntity
  8
0
100
AcDbLine
 10
710.299744
 20
105.748029
 30
0.0
 11
650.362723
 21
-10.884757
 31
0.0
  0
LINE
  5
276
100
AcDbEntity
  8
0
100
AcDbLine
 10
713.145917
 20
97.284329
 30
0.0
 11
657.558351
 21
-10.884757
 31
0.0
  0
ARC
  5
277
100
AcDbEntity
  8
0
100
AcDbCircle
 10
539.621927
 20
112.060206
 30
0.0
 40
42.605186
100
AcDbArc
 50
97.69956
 51
127.269392
  0
LINE
  5
278
100
AcDbEntity
  8
0
100
AcDbLine
 10
512.121778
 20
136.436042
 30
0.0
 11
529.282732
 21
122.405005
 31
0.0
  0
LINE
  5
279
100
AcDbEntity
  8
0
100
AcDbLine
 10
510.268157
 20
134.168933
 30
0.0
 11
534.929772
 21
114.00525
 31
0.0
  0
LINE
  5
27A
100
AcDbEntity
  8
0
100
AcDbLine
 10
512.108573
 20
87.699276
 30
0.0
 11
529.277128
 21
101.721011
 31
0.0
  0
LINE
  5
27B
100
AcDbEntity
  8
0
100
AcDbLine
 10
510.256181
 20
89.96739
 30
0.0
 11
534.928718
 21
110.117705
 31
0.0
  0
ARC
  5
27C
100
AcDbEntity
  8
0
100
AcDbCircle
 10
539.621927
 20
112.060206
 30
0.0
 40
36.748327
100
AcDbArc
 50
131.522387
 51
138.446565
  0
ARC
  5
27D
100
AcDbEntity
  8
0
100
AcDbCircle
 10
539.621927
 20
112.060206
 30
0.0
 40
80.00003
100
AcDbArc
 50
91.819966
 51
133.148986
  0
ARC
  5
27E
100
AcDbEntity
  8
0
100
AcDbCircle
 10
539.621927
 20
112.060206
 30
0.0
 40
77.071601
100
AcDbArc
 50
96.818662
 51
128.15029
  0
LINE
  5
27F
100
AcDbEntity
  8
0
100
AcDbLine
 10
503.232447
 20
106.937187
 30
0.0
 11
534.928718
 21
110.117705
 31
0.0
  0
LINE
  5
280
100
AcDbEntity
  8
0
100
AcDbLine
 10
502.940066
 20
109.850984
 30
0.0
 11
524.996134
 21
112.064169
 31
0.0
  0
LINE
  5
281
100
AcDbEntity
  8
0
100
AcDbLine
 10
502.941269
 20
114.289306
 30
0.0
 11
524.996134
 21
112.064169
 31
0.0
  0
LINE
  5
282
100
AcDbEntity
  8
0
100
AcDbLine
 10
503.235229
 20
117.202944
 30
0.0
 11
534.929772
 21
114.00525
 31
0.0
  0
ARC
  5
283
100
AcDbEntity
  8
0
100
AcDbCircle
 10
539.621927
 20
112.060206
 30
0.0
 40
42.605186
100
AcDbArc
 50
232.69956
 51
262.269392
  0
ARC
  5
284
100
AcDbEntity
  8
0
100
AcDbCircle
 10
539.621927
 20
112.060206
 30
0.0
 40
80.00003
100
AcDbArc
 50
226.819966
 51
268.148986
  0
ARC
  5
285
100
AcDbEntity
  8
0
100
AcDbCircle
 10
539.621927
 20
112.060206
 30
0.0
 40
77.071601
100
AcDbArc
 50
231.818662
 51
263.15029
  0
ARC
  5
286
100
AcDbEntity
  8
0
100
AcDbCircle
 10
539.621927
 20
112.060206
 30
0.0
 40
36.748327
100
AcDbArc
 50
221.522387
 51
228.446565
  0
ARC
  5
287
100
AcDbEntity
  8
0
100
AcDbCircle
 10
539.621927
 20
112.060206
 30
0.0
 40
42.605186
100
AcDbArc
 50
142.69956
 51
172.269392
  0
ARC
  5
288
100
AcDbEntity
  8
0
100
AcDbCircle
 10
539.621927
 20
112.060206
 30
0.0
 40
36.748327
100
AcDbArc
 50
143.013604
 51
171.955347
  0
ARC
  5
289
100
AcDbEntity
  8
0
100
AcDbCircle
 10
539.621927
 20
112.060206
 30
0.0
 40
77.071601
100
AcDbArc
 50
141.818662
 51
173.15029
  0
ARC
  5
28A
100
AcDbEntity
  8
0
100
AcDbCircle
 10
539.621927
 20
112.060206
 30
0.0
 40
80.00003
100
AcDbArc
 50
136.819966
 51
178.148986
  0
LINE
  5
28B
100
AcDbEntity
  8
0
100
AcDbLine
 10
634.610104
 20
-10.884757
 30
0.0
 11
650.362723
 21
-10.884757
 31
0.0
  0
LINE
  5
28C
100
AcDbEntity
  8
0
100
AcDbLine
 10
634.610104
 20
-10.884757
 30
0.0
 11
634.610104
 21
-26.884757
 31
0.0
  0
ARC
  5
28D
100
AcDbEntity
  8
0
100
AcDbCircle
 10
539.621927
 20
112.060206
 30
0.0
 40
80.00003
100
AcDbArc
 50
181.819966
 51
223.148986
  0
ARC
  5
28E
100
AcDbEntity
  8
0
100
AcDbCircle
 10
539.621927
 20
112.060206
 30
0.0
 40
77.071601
100
AcDbArc
 50
186.818662
 51
218.15029
  0
ARC
  5
28F
100
AcDbEntity
  8
0
100
AcDbCircle
 10
461.086114
 20
112.081485
 30
0.0
 40
2.931084
100
AcDbArc
 50
119.03254
 51
240.936412
  0
ARC
  5
291
100
AcDbEntity
  8
0
100
AcDbCircle
 10
539.621927
 20
112.060206
 30
0.0
 40
42.605186
100
AcDbArc
 50
187.69956
 51
217.269392
  0
ARC
  5
292
100
AcDbEntity
  8
0
100
AcDbCircle
 10
539.621927
 20
112.060206
 30
0.0
 40
77.071601
100
AcDbArc
 50
226.854515
 51
229.641508
  0
LINE
  5
293
100
AcDbEntity
  8
0
100
AcDbLine
 10
480.865741
 20
62.182933
 30
0.0
 11
507.569236
 21
83.991953
 31
0.0
  0
LINE
  5
294
100
AcDbEntity
  8
0
100
AcDbLine
 10
479.013349
 20
64.451047
 30
0.0
 11
505.716844
 21
86.260067
 31
0.0
  0
ARC
  5
296
100
AcDbEntity
  8
0
100
AcDbCircle
 10
484.073675
 20
56.542047
 30
0.0
 40
2.931084
100
AcDbArc
 50
164.03254
 51
285.936412
  0
ARC
  5
297
100
AcDbEntity
  8
0
100
AcDbCircle
 10
484.073675
 20
56.542047
 30
0.0
 40
2.931084
100
AcDbArc
 50
345.885144
 51
104.083808
  0
ARC
  5
298
100
AcDbEntity
  8
0
100
AcDbCircle
 10
539.621927
 20
112.060206
 30
0.0
 40
77.071601
100
AcDbArc
 50
220.327444
 51
223.114437
  0
LINE
  5
299
100
AcDbEntity
  8
0
100
AcDbLine
 10
489.712822
 20
53.331057
 30
0.0
 11
511.536308
 21
80.02273
 31
0.0
  0
LINE
  5
29A
100
AcDbEntity
  8
0
100
AcDbLine
 10
491.979931
 20
51.477437
 30
0.0
 11
513.803418
 21
78.169109
 31
0.0
  0
ARC
  5
29B
100
AcDbEntity
  8
0
100
AcDbCircle
 10
539.621927
 20
112.060206
 30
0.0
 40
42.605186
100
AcDbArc
 50
221.208342
 51
228.76061
  0
LINE
  5
29C
100
AcDbEntity
  8
0
100
AcDbLine
 10
463.100431
 20
121.252183
 30
0.0
 11
497.403959
 21
117.791266
 31
0.0
  0
LINE
  5
29D
100
AcDbEntity
  8
0
100
AcDbLine
 10
462.803081
 20
105.823494
 30
0.0
 11
497.108479
 21
109.265821
 31
0.0
  0
LINE
  5
29E
100
AcDbEntity
  8
0
100
AcDbLine
 10
463.095462
 20
102.909697
 30
0.0
 11
497.40086
 21
106.352025
 31
0.0
  0
LINE
  5
29F
100
AcDbEntity
  8
0
100
AcDbLine
 10
462.806472
 20
118.338545
 30
0.0
 11
497.109999
 21
114.877629
 31
0.0
  0
ARC
  5
2A0
100
AcDbEntity
  8
0
100
AcDbCircle
 10
539.621927
 20
112.060206
 30
0.0
 40
77.071601
100
AcDbArc
 50
181.854515
 51
184.641508
  0
ARC
  5
2A1
100
AcDbEntity
  8
0
100
AcDbCircle
 10
539.621927
 20
112.060206
 30
0.0
 40
77.071601
100
AcDbArc
 50
175.327444
 51
178.114437
  0
ARC
  5
2A2
100
AcDbEntity
  8
0
100
AcDbCircle
 10
461.086114
 20
112.081485
 30
0.0
 40
2.931084
100
AcDbArc
 50
300.885144
 51
59.083808
  0
ARC
  5
2A3
100
AcDbEntity
  8
0
100
AcDbCircle
 10
539.621927
 20
112.060206
 30
0.0
 40
36.748327
100
AcDbArc
 50
188.013604
 51
216.955347
  0
ARC
  5
2A4
100
AcDbEntity
  8
0
100
AcDbCircle
 10
539.621927
 20
112.060206
 30
0.0
 40
42.605186
100
AcDbArc
 50
176.208342
 51
183.76061
  0
ARC
  5
2A5
100
AcDbEntity
  8
0
100
AcDbCircle
 10
539.621927
 20
112.060206
 30
0.0
 40
36.748327
100
AcDbArc
 50
176.522387
 51
183.446565
  0
ARC
  5
2A6
100
AcDbEntity
  8
0
100
AcDbCircle
 10
484.103768
 20
167.608459
 30
0.0
 40
2.931084
100
AcDbArc
 50
74.03254
 51
195.936412
  0
ARC
  5
2A7
100
AcDbEntity
  8
0
100
AcDbCircle
 10
539.621927
 20
112.060206
 30
0.0
 40
77.071601
100
AcDbArc
 50
130.327444
 51
133.114437
  0
LINE
  5
2A8
100
AcDbEntity
  8
0
100
AcDbLine
 10
489.744654
 20
170.816392
 30
0.0
 11
511.553673
 21
144.112897
 31
0.0
  0
LINE
  5
2A9
100
AcDbEntity
  8
0
100
AcDbLine
 10
492.012768
 20
172.668784
 30
0.0
 11
513.821787
 21
145.965289
 31
0.0
  0
LINE
  5
2AA
100
AcDbEntity
  8
0
100
AcDbLine
 10
479.039157
 20
159.702202
 30
0.0
 11
505.73083
 21
137.878715
 31
0.0
  0
LINE
  5
2AB
100
AcDbEntity
  8
0
100
AcDbLine
 10
480.892778
 20
161.969312
 30
0.0
 11
507.584451
 21
140.145825
 31
0.0
  0
ARC
  5
2AC
100
AcDbEntity
  8
0
100
AcDbCircle
 10
539.621927
 20
112.060206
 30
0.0
 40
77.071601
100
AcDbArc
 50
136.854515
 51
139.641508
  0
ARC
  5
2AD
100
AcDbEntity
  8
0
100
AcDbCircle
 10
484.103768
 20
167.608459
 30
0.0
 40
2.931084
100
AcDbArc
 50
255.885144
 51
14.083808
  0
ARC
  5
2AF
100
AcDbEntity
  8
0
100
AcDbCircle
 10
539.621927
 20
112.060206
 30
0.0
 40
42.605186
100
AcDbArc
 50
131.208342
 51
138.76061
  0
ARC
  5
2B0
100
AcDbEntity
  8
0
100
AcDbCircle
 10
539.621927
 20
112.060206
 30
0.0
 40
36.748327
100
AcDbArc
 50
8.013604
 51
36.955347
  0
ARC
  5
2B1
100
AcDbEntity
  8
0
100
AcDbCircle
 10
539.621927
 20
112.060206
 30
0.0
 40
42.605186
100
AcDbArc
 50
7.69956
 51
37.269392
  0
ARC
  5
2B2
100
AcDbEntity
  8
0
100
AcDbCircle
 10
539.621927
 20
112.060206
 30
0.0
 40
77.071601
100
AcDbArc
 50
6.818662
 51
38.15029
  0
LINE
  5
2B3
100
AcDbEntity
  8
0
100
AcDbLine
 10
563.997763
 20
139.560355
 30
0.0
 11
549.966726
 21
122.399401
 31
0.0
  0
LINE
  5
2B4
100
AcDbEntity
  8
0
100
AcDbLine
 10
567.135281
 20
136.421137
 30
0.0
 11
549.966726
 21
122.399401
 31
0.0
  0
LINE
  5
2B5
100
AcDbEntity
  8
0
100
AcDbLine
 10
561.730653
 20
141.413976
 30
0.0
 11
541.566971
 21
116.752362
 31
0.0
  0
LINE
  5
2B6
100
AcDbEntity
  8
0
100
AcDbLine
 10
544.764665
 20
148.446905
 30
0.0
 11
541.566971
 21
116.752362
 31
0.0
  0
LINE
  5
2B7
100
AcDbEntity
  8
0
100
AcDbLine
 10
515.260996
 20
139.57356
 30
0.0
 11
529.282732
 21
122.405005
 31
0.0
  0
LINE
  5
2B8
100
AcDbEntity
  8
0
100
AcDbLine
 10
517.52911
 20
141.425952
 30
0.0
 11
537.679426
 21
116.753415
 31
0.0
  0
LINE
  5
2B9
100
AcDbEntity
  8
0
100
AcDbLine
 10
534.498908
 20
148.449686
 30
0.0
 11
537.679426
 21
116.753415
 31
0.0
  0
LINE
  5
2BA
100
AcDbEntity
  8
0
100
AcDbLine
 10
537.412704
 20
148.742067
 30
0.0
 11
539.62589
 21
126.685999
 31
0.0
  0
LINE
  5
2BB
100
AcDbEntity
  8
0
100
AcDbLine
 10
541.851027
 20
148.740864
 30
0.0
 11
539.62589
 21
126.685999
 31
0.0
  0
LINE
  5
2BC
100
AcDbEntity
  8
0
100
AcDbLine
 10
568.987673
 20
134.153023
 30
0.0
 11
544.315136
 21
114.002707
 31
0.0
  0
ARC
  5
2BD
100
AcDbEntity
  8
0
100
AcDbCircle
 10
539.621927
 20
112.060206
 30
0.0
 40
80.00003
100
AcDbArc
 50
1.819966
 51
43.148986
  0
ARC
  5
2BE
100
AcDbEntity
  8
0
100
AcDbCircle
 10
618.15774
 20
112.038927
 30
0.0
 40
2.931084
100
AcDbArc
 50
299.03254
 51
60.936412
  0
LINE
  5
2BF
100
AcDbEntity
  8
0
100
AcDbLine
 10
715.99209
 20
105.748029
 30
0.0
 11
775.918847
 21
-10.864785
 31
0.0
  0
LINE
  5
2C0
100
AcDbEntity
  8
0
100
AcDbLine
 10
713.145917
 20
97.284329
 30
0.0
 11
768.733484
 21
-10.884757
 31
0.0
  0
ARC
  5
2C1
100
AcDbEntity
  8
0
100
AcDbCircle
 10
539.621927
 20
112.060206
 30
0.0
 40
77.071601
100
AcDbArc
 50
276.818662
 51
308.15029
  0
LINE
  5
2C2
100
AcDbEntity
  8
0
100
AcDbLine
 10
548.772436
 20
35.533741
 30
0.0
 11
545.330109
 21
69.839139
 31
0.0
  0
LINE
  5
2C3
100
AcDbEntity
  8
0
100
AcDbLine
 10
545.858639
 20
35.24136
 30
0.0
 11
542.416312
 21
69.546758
 31
0.0
  0
LINE
  5
2C4
100
AcDbEntity
  8
0
100
AcDbLine
 10
533.343588
 20
35.244751
 30
0.0
 11
536.804504
 21
69.548279
 31
0.0
  0
LINE
  5
2C5
100
AcDbEntity
  8
0
100
AcDbLine
 10
530.42995
 20
35.538711
 30
0.0
 11
533.890867
 21
69.842239
 31
0.0
  0
ARC
  5
2C6
100
AcDbEntity
  8
0
100
AcDbCircle
 10
539.621927
 20
112.060206
 30
0.0
 40
80.00003
100
AcDbArc
 50
271.819966
 51
313.148986
  0
ARC
  5
2C7
100
AcDbEntity
  8
0
100
AcDbCircle
 10
539.600648
 20
33.524393
 30
0.0
 40
2.931084
100
AcDbArc
 50
209.03254
 51
330.936412
  0
ARC
  5
2C8
100
AcDbEntity
  8
0
100
AcDbCircle
 10
539.600648
 20
33.524393
 30
0.0
 40
2.931084
100
AcDbArc
 50
30.885144
 51
149.083808
  0
ARC
  5
2C9
100
AcDbEntity
  8
0
100
AcDbCircle
 10
539.621927
 20
112.060206
 30
0.0
 40
77.071601
100
AcDbArc
 50
265.327444
 51
268.114437
  0
ARC
  5
2CB
100
AcDbEntity
  8
0
100
AcDbCircle
 10
539.621927
 20
112.060206
 30
0.0
 40
77.071601
100
AcDbArc
 50
271.854515
 51
274.641508
  0
LINE
  5
2CC
100
AcDbEntity
  8
0
100
AcDbLine
 10
791.681726
 20
-10.85977
 30
0.0
 11
791.686817
 21
-26.859769
 31
0.0
  0
LINE
  5
2CD
100
AcDbEntity
  8
0
100
AcDbLine
 10
791.681726
 20
-10.85977
 30
0.0
 11
775.918847
 21
-10.864785
 31
0.0
  0
LINE
  5
2CE
100
AcDbEntity
  8
0
100
AcDbLine
 10
576.302585
 20
109.831106
 30
0.0
 11
554.247719
 21
112.056243
 31
0.0
  0
LINE
  5
2CF
100
AcDbEntity
  8
0
100
AcDbLine
 10
576.303788
 20
114.269429
 30
0.0
 11
554.247719
 21
112.056243
 31
0.0
  0
LINE
  5
2D0
100
AcDbEntity
  8
0
100
AcDbLine
 10
576.008625
 20
106.917469
 30
0.0
 11
544.314082
 21
110.115162
 31
0.0
  0
LINE
  5
2D1
100
AcDbEntity
  8
0
100
AcDbLine
 10
568.975696
 20
89.95148
 30
0.0
 11
544.314082
 21
110.115162
 31
0.0
  0
LINE
  5
2D2
100
AcDbEntity
  8
0
100
AcDbLine
 10
587.231086
 20
51.451629
 30
0.0
 11
565.422067
 21
78.155124
 31
0.0
  0
LINE
  5
2D3
100
AcDbEntity
  8
0
100
AcDbLine
 10
576.011407
 20
117.183226
 30
0.0
 11
544.315136
 21
114.002707
 31
0.0
  0
ARC
  5
2D4
100
AcDbEntity
  8
0
100
AcDbCircle
 10
539.621927
 20
112.060206
 30
0.0
 40
36.748327
100
AcDbArc
 50
311.522387
 51
318.446565
  0
LINE
  5
2D5
100
AcDbEntity
  8
0
100
AcDbLine
 10
563.982857
 20
84.546853
 30
0.0
 11
549.961122
 21
101.715407
 31
0.0
  0
LINE
  5
2D6
100
AcDbEntity
  8
0
100
AcDbLine
 10
561.714743
 20
82.69446
 30
0.0
 11
541.564428
 21
107.366998
 31
0.0
  0
LINE
  5
2D7
100
AcDbEntity
  8
0
100
AcDbLine
 10
517.513201
 20
82.706437
 30
0.0
 11
537.676883
 21
107.368051
 31
0.0
  0
LINE
  5
2D8
100
AcDbEntity
  8
0
100
AcDbLine
 10
515.246091
 20
84.560058
 30
0.0
 11
529.277128
 21
101.721011
 31
0.0
  0
LINE
  5
2D9
100
AcDbEntity
  8
0
100
AcDbLine
 10
537.392827
 20
75.379548
 30
0.0
 11
539.617964
 21
97.434414
 31
0.0
  0
LINE
  5
2DA
100
AcDbEntity
  8
0
100
AcDbLine
 10
541.83115
 20
75.378346
 30
0.0
 11
539.617964
 21
97.434414
 31
0.0
  0
LINE
  5
2DB
100
AcDbEntity
  8
0
100
AcDbLine
 10
544.744946
 20
75.670726
 30
0.0
 11
541.564428
 21
107.366998
 31
0.0
  0
LINE
  5
2DC
100
AcDbEntity
  8
0
100
AcDbLine
 10
534.479189
 20
75.673508
 30
0.0
 11
537.676883
 21
107.368051
 31
0.0
  0
ARC
  5
2DD
100
AcDbEntity
  8
0
100
AcDbCircle
 10
539.621927
 20
112.060206
 30
0.0
 40
36.748327
100
AcDbArc
 50
266.522387
 51
273.446565
  0
ARC
  5
2DE
100
AcDbEntity
  8
0
100
AcDbCircle
 10
539.621927
 20
112.060206
 30
0.0
 40
42.605186
100
AcDbArc
 50
266.208342
 51
273.76061
  0
ARC
  5
2DF
100
AcDbEntity
  8
0
100
AcDbCircle
 10
539.621927
 20
112.060206
 30
0.0
 40
36.748327
100
AcDbArc
 50
233.013604
 51
261.955347
  0
ARC
  5
2E0
100
AcDbEntity
  8
0
100
AcDbCircle
 10
539.621927
 20
112.060206
 30
0.0
 40
36.748327
100
AcDbArc
 50
278.013604
 51
306.955347
  0
ARC
  5
2E1
100
AcDbEntity
  8
0
100
AcDbCircle
 10
539.621927
 20
112.060206
 30
0.0
 40
42.605186
100
AcDbArc
 50
277.69956
 51
307.269392
  0
ARC
  5
2E3
100
AcDbEntity
  8
0
100
AcDbCircle
 10
713.145917
 20
104.285395
 30
0.0
 40
3.2
100
AcDbArc
 50
27.198411
 51
152.801589
  0
LINE
  5
2E5
100
AcDbEntity
  8
0
100
AcDbLine
 10
567.122076
 20
87.68437
 30
0.0
 11
549.961122
 21
101.715407
 31
0.0
  0
ARC
  5
2E6
100
AcDbEntity
  8
0
100
AcDbCircle
 10
539.621927
 20
112.060206
 30
0.0
 40
42.605186
100
AcDbArc
 50
322.69956
 51
352.269392
  0
ARC
  5
2E7
100
AcDbEntity
  8
0
100
AcDbCircle
 10
539.621927
 20
112.060206
 30
0.0
 40
77.071601
100
AcDbArc
 50
321.818662
 51
353.15029
  0
ARC
  5
2E8
100
AcDbEntity
  8
0
100
AcDbCircle
 10
539.621927
 20
112.060206
 30
0.0
 40
80.00003
100
AcDbArc
 50
316.819966
 51
358.148986
  0
ARC
  5
2E9
100
AcDbEntity
  8
0
100
AcDbCircle
 10
595.140086
 20
56.511954
 30
0.0
 40
2.931084
100
AcDbArc
 50
75.885144
 51
194.083808
  0
LINE
  5
2EA
100
AcDbEntity
  8
0
100
AcDbLine
 10
600.204697
 20
64.418211
 30
0.0
 11
573.513024
 21
86.241697
 31
0.0
  0
LINE
  5
2EB
100
AcDbEntity
  8
0
100
AcDbLine
 10
598.351076
 20
62.151101
 30
0.0
 11
571.659403
 21
83.974588
 31
0.0
  0
LINE
  5
2EC
100
AcDbEntity
  8
0
100
AcDbLine
 10
589.4992
 20
53.304021
 30
0.0
 11
567.690181
 21
80.007516
 31
0.0
  0
ARC
  5
2ED
100
AcDbEntity
  8
0
100
AcDbCircle
 10
539.621927
 20
112.060206
 30
0.0
 40
77.071601
100
AcDbArc
 50
310.327444
 51
313.114437
  0
ARC
  5
2EE
100
AcDbEntity
  8
0
100
AcDbCircle
 10
539.621927
 20
112.060206
 30
0.0
 40
42.605186
100
AcDbArc
 50
311.208342
 51
318.76061
  0
ARC
  5
2F0
100
AcDbEntity
  8
0
100
AcDbCircle
 10
595.140086
 20
56.511954
 30
0.0
 40
2.931084
100
AcDbArc
 50
254.03254
 51
15.936412
  0
ARC
  5
2F1
100
AcDbEntity
  8
0
100
AcDbCircle
 10
539.621927
 20
112.060206
 30
0.0
 40
77.071601
100
AcDbArc
 50
316.854515
 51
319.641508
  0
LINE
  5
2F2
100
AcDbEntity
  8
0
100
AcDbLine
 10
616.148392
 20
121.210715
 30
0.0
 11
581.842994
 21
117.768388
 31
0.0
  0
LINE
  5
2F3
100
AcDbEntity
  8
0
100
AcDbLine
 10
616.437382
 20
105.781867
 30
0.0
 11
582.133854
 21
109.242784
 31
0.0
  0
LINE
  5
2F4
100
AcDbEntity
  8
0
100
AcDbLine
 10
616.143422
 20
102.868229
 30
0.0
 11
581.839895
 21
106.329146
 31
0.0
  0
LINE
  5
2F5
100
AcDbEntity
  8
0
100
AcDbLine
 10
616.440773
 20
118.296919
 30
0.0
 11
582.135375
 21
114.854591
 31
0.0
  0
ARC
  5
2F6
100
AcDbEntity
  8
0
100
AcDbCircle
 10
539.621927
 20
112.060206
 30
0.0
 40
36.748327
100
AcDbArc
 50
323.013604
 51
351.955347
  0
ARC
  5
2F7
100
AcDbEntity
  8
0
100
AcDbCircle
 10
539.621927
 20
112.060206
 30
0.0
 40
36.748327
100
AcDbArc
 50
356.522387
 51
3.446565
  0
ARC
  5
2F8
100
AcDbEntity
  8
0
100
AcDbCircle
 10
539.621927
 20
112.060206
 30
0.0
 40
42.605186
100
AcDbArc
 50
356.208342
 51
3.76061
  0
ARC
  5
2F9
100
AcDbEntity
  8
0
100
AcDbCircle
 10
539.621927
 20
112.060206
 30
0.0
 40
77.071601
100
AcDbArc
 50
355.327444
 51
358.114437
  0
ARC
  5
2FA
100
AcDbEntity
  8
0
100
AcDbCircle
 10
539.621927
 20
112.060206
 30
0.0
 40
77.071601
100
AcDbArc
 50
1.854515
 51
4.641508
  0
ARC
  5
2FB
100
AcDbEntity
  8
0
100
AcDbCircle
 10
618.15774
 20
112.038927
 30
0.0
 40
2.931084
100
AcDbArc
 50
120.885144
 51
239.083808
  0
LINE
  5
2FD
100
AcDbEntity
  8
0
100
AcDbLine
 10
587.263922
 20
172.642976
 30
0.0
 11
565.440436
 21
145.951303
 31
0.0
  0
ARC
  5
2FE
100
AcDbEntity
  8
0
100
AcDbCircle
 10
539.621927
 20
112.060206
 30
0.0
 40
77.071601
100
AcDbArc
 50
51.818662
 51
83.15029
  0
ARC
  5
2FF
100
AcDbEntity
  8
0
100
AcDbCircle
 10
539.621927
 20
112.060206
 30
0.0
 40
80.00003
100
AcDbArc
 50
46.819966
 51
88.148986
  0
LINE
  5
300
100
AcDbEntity
  8
0
100
AcDbLine
 10
545.900266
 20
188.875662
 30
0.0
 11
542.439349
 21
154.572134
 31
0.0
  0
LINE
  5
301
100
AcDbEntity
  8
0
100
AcDbLine
 10
548.813904
 20
188.581702
 30
0.0
 11
545.352987
 21
154.278174
 31
0.0
  0
LINE
  5
302
100
AcDbEntity
  8
0
100
AcDbLine
 10
530.471418
 20
188.586672
 30
0.0
 11
533.913745
 21
154.281273
 31
0.0
  0
LINE
  5
303
100
AcDbEntity
  8
0
100
AcDbLine
 10
533.385214
 20
188.879053
 30
0.0
 11
536.827542
 21
154.573654
 31
0.0
  0
ARC
  5
304
100
AcDbEntity
  8
0
100
AcDbCircle
 10
539.621927
 20
112.060206
 30
0.0
 40
42.605186
100
AcDbArc
 50
86.208342
 51
93.76061
  0
ARC
  5
305
100
AcDbEntity
  8
0
100
AcDbCircle
 10
539.621927
 20
112.060206
 30
0.0
 40
36.748327
100
AcDbArc
 50
86.522387
 51
93.446565
  0
ARC
  5
306
100
AcDbEntity
  8
0
100
AcDbCircle
 10
539.621927
 20
112.060206
 30
0.0
 40
36.748327
100
AcDbArc
 50
98.013604
 51
126.955347
  0
ARC
  5
307
100
AcDbEntity
  8
0
100
AcDbCircle
 10
539.621927
 20
112.060206
 30
0.0
 40
36.748327
100
AcDbArc
 50
53.013604
 51
81.955347
  0
ARC
  5
308
100
AcDbEntity
  8
0
100
AcDbCircle
 10
539.621927
 20
112.060206
 30
0.0
 40
42.605186
100
AcDbArc
 50
52.69956
 51
82.269392
  0
ARC
  5
309
100
AcDbEntity
  8
0
100
AcDbCircle
 10
539.621927
 20
112.060206
 30
0.0
 40
36.748327
100
AcDbArc
 50
41.522387
 51
48.446565
  0
ARC
  5
30A
100
AcDbEntity
  8
0
100
AcDbCircle
 10
539.643206
 20
190.596019
 30
0.0
 40
2.931084
100
AcDbArc
 50
29.03254
 51
150.936412
  0
ARC
  5
30B
100
AcDbEntity
  8
0
100
AcDbCircle
 10
539.643206
 20
190.596019
 30
0.0
 40
2.931084
100
AcDbArc
 50
210.885144
 51
329.083808
  0
ARC
  5
30D
100
AcDbEntity
  8
0
100
AcDbCircle
 10
539.621927
 20
112.060206
 30
0.0
 40
77.071601
100
AcDbArc
 50
91.854515
 51
94.641508
  0
ARC
  5
30E
100
AcDbEntity
  8
0
100
AcDbCircle
 10
539.621927
 20
112.060206
 30
0.0
 40
77.071601
100
AcDbArc
 50
85.327444
 51
88.114437
  0
ARC
  5
30F
100
AcDbEntity
  8
0
100
AcDbCircle
 10
595.170179
 20
167.578366
 30
0.0
 40
2.931084
100
AcDbArc
 50
344.03254
 51
105.936412
  0
ARC
  5
310
100
AcDbEntity
  8
0
100
AcDbCircle
 10
539.621927
 20
112.060206
 30
0.0
 40
77.071601
100
AcDbArc
 50
46.854515
 51
49.641508
  0
LINE
  5
311
100
AcDbEntity
  8
0
100
AcDbLine
 10
589.531032
 20
170.789355
 30
0.0
 11
567.707546
 21
144.097682
 31
0.0
  0
ARC
  5
312
100
AcDbEntity
  8
0
100
AcDbCircle
 10
595.170179
 20
167.578366
 30
0.0
 40
2.931084
100
AcDbArc
 50
165.885144
 51
284.083808
  0
LINE
  5
313
100
AcDbEntity
  8
0
100
AcDbLine
 10
598.378112
 20
161.937479
 30
0.0
 11
571.674618
 21
140.12846
 31
0.0
  0
LINE
  5
314
100
AcDbEntity
  8
0
100
AcDbLine
 10
600.230505
 20
159.669366
 30
0.0
 11
573.52701
 21
137.860346
 31
0.0
  0
ARC
  5
315
100
AcDbEntity
  8
0
100
AcDbCircle
 10
539.621927
 20
112.060206
 30
0.0
 40
42.605186
100
AcDbArc
 50
41.208342
 51
48.76061
  0
ARC
  5
316
100
AcDbEntity
  8
0
100
AcDbCircle
 10
539.621927
 20
112.060206
 30
0.0
 40
77.071601
100
AcDbArc
 50
40.327444
 51
43.114437
  0
CIRCLE
  5
318
100
AcDbEntity
  8
0
100
AcDbCircle
 10
663.128345
 20
105.44237
 30
0.0
 40
5.39281
  0
CIRCLE
  5
3D3
100
AcDbEntity
  8
0
100
AcDbCircle
 10
386.923988
 20
104.73806
 30
0.0
 40
36.748327
  0
CIRCLE
  5
3D4
100
AcDbEntity
  8
0
100
AcDbCircle
 10
386.923988
 20
104.73806
 30
0.0
 40
42.605186
  0
CIRCLE
  5
3D8
100
AcDbEntity
  8
0
100
AcDbCircle
 10
386.923988
 20
144.414817
 30
0.0
 40
1.6
  0
CIRCLE
  5
3F1
100
AcDbEntity
  8
0
100
AcDbCircle
 10
378.674727
 20
143.547784
 30
0.0
 40
1.6
  0
CIRCLE
  5
3F2
100
AcDbEntity
  8
0
100
AcDbCircle
 10
370.785997
 20
140.984581
 30
0.0
 40
1.6
  0
CIRCLE
  5
3F3
100
AcDbEntity
  8
0
100
AcDbCircle
 10
363.602576
 20
136.83723
 30
0.0
 40
1.6
  0
CIRCLE
  5
3F4
100
AcDbEntity
  8
0
100
AcDbCircle
 10
357.438412
 20
131.286992
 30
0.0
 40
1.6
  0
CIRCLE
  5
3F5
100
AcDbEntity
  8
0
100
AcDbCircle
 10
352.562909
 20
124.576438
 30
0.0
 40
1.6
  0
CIRCLE
  5
3F6
100
AcDbEntity
  8
0
100
AcDbCircle
 10
349.18915
 20
116.998852
 30
0.0
 40
1.6
  0
CIRCLE
  5
3F7
100
AcDbEntity
  8
0
100
AcDbCircle
 10
347.464585
 20
108.88541
 30
0.0
 40
1.6
  0
CIRCLE
  5
3F8
100
AcDbEntity
  8
0
100
AcDbCircle
 10
347.464585
 20
100.59071
 30
0.0
 40
1.6
  0
CIRCLE
  5
3F9
100
AcDbEntity
  8
0
100
AcDbCircle
 10
349.18915
 20
92.477268
 30
0.0
 40
1.6
  0
CIRCLE
  5
3FA
100
AcDbEntity
  8
0
100
AcDbCircle
 10
352.562909
 20
84.899682
 30
0.0
 40
1.6
  0
CIRCLE
  5
3FB
100
AcDbEntity
  8
0
100
AcDbCircle
 10
357.438412
 20
78.189128
 30
0.0
 40
1.6
  0
CIRCLE
  5
3FC
100
AcDbEntity
  8
0
100
AcDbCircle
 10
363.602576
 20
72.63889
 30
0.0
 40
1.6
  0
CIRCLE
  5
3FD
100
AcDbEntity
  8
0
100
AcDbCircle
 10
370.785997
 20
68.491539
 30
0.0
 40
1.6
  0
CIRCLE
  5
3FE
100
AcDbEntity
  8
0
100
AcDbCircle
 10
378.674727
 20
65.928336
 30
0.0
 40
1.6
  0
CIRCLE
  5
3FF
100
AcDbEntity
  8
0
100
AcDbCircle
 10
386.923988
 20
65.061303
 30
0.0
 40
1.6
  0
CIRCLE
  5
400
100
AcDbEntity
  8
0
100
AcDbCircle
 10
395.17325
 20
65.928336
 30
0.0
 40
1.6
  0
CIRCLE
  5
401
100
AcDbEntity
  8
0
100
AcDbCircle
 10
403.061979
 20
68.491539
 30
0.0
 40
1.6
  0
CIRCLE
  5
402
100
AcDbEntity
  8
0
100
AcDbCircle
 10
410.2454
 20
72.63889
 30
0.0
 40
1.6
  0
CIRCLE
  5
403
100
AcDbEntity
  8
0
100
AcDbCircle
 10
416.409564
 20
78.189128
 30
0.0
 40
1.6
  0
CIRCLE
  5
404
100
AcDbEntity
  8
0
100
AcDbCircle
 10
421.285067
 20
84.899682
 30
0.0
 40
1.6
  0
CIRCLE
  5
405
100
AcDbEntity
  8
0
100
AcDbCircle
 10
424.658826
 20
92.477268
 30
0.0
 40
1.6
  0
CIRCLE
  5
406
100
AcDbEntity
  8
0
100
AcDbCircle
 10
426.383391
 20
100.59071
 30
0.0
 40
1.6
  0
CIRCLE
  5
407
100
AcDbEntity
  8
0
100
AcDbCircle
 10
426.383391
 20
108.88541
 30
0.0
 40
1.6
  0
CIRCLE
  5
408
100
AcDbEntity
  8
0
100
AcDbCircle
 10
424.658826
 20
116.998852
 30
0.0
 40
1.6
  0
CIRCLE
  5
409
100
AcDbEntity
  8
0
100
AcDbCircle
 10
421.285067
 20
124.576438
 30
0.0
 40
1.6
  0
CIRCLE
  5
40A
100
AcDbEntity
  8
0
100
AcDbCircle
 10
416.409564
 20
131.286992
 30
0.0
 40
1.6
  0
CIRCLE
  5
40B
100
AcDbEntity
  8
0
100
AcDbCircle
 10
410.2454
 20
136.83723
 30
0.0
 40
1.6
  0
CIRCLE
  5
40C
100
AcDbEntity
  8
0
100
AcDbCircle
 10
403.061979
 20
140.984581
 30
0.0
 40
1.6
  0
CIRCLE
  5
40D
100
AcDbEntity
  8
0
100
AcDbCircle
 10
395.17325
 20
143.547784
 30
0.0
 40
1.6
  0
LINE
  5
42E
100
AcDbEntity
  8
0
100
AcDbLine
 10
614.337721
 20
-10.634596
 30
0.0
 11
614.342811
 21
-26.634595
 31
0.0
  0
LINE
  5
42F
100
AcDbEntity
  8
0
100
AcDbLine
 10
457.266099
 20
-26.659583
 30
0.0
 11
614.342811
 21
-26.634595
 31
0.0
  0
LINE
  5
430
100
AcDbEntity
  8
0
100
AcDbLine
 10
457.266099
 20
-10.659583
 30
0.0
 11
457.266099
 21
-26.659583
 31
0.0
  0
LINE
  5
431
100
AcDbEntity
  8
0
100
AcDbLine
 10
457.266099
 20
-10.659583
 30
0.0
 11
614.337721
 21
-10.634596
 31
0.0
  0
CIRCLE
  5
444
100
AcDbEntity
  8
0
100
AcDbCircle
 10
465.403183
 20
-18.647089
 30
0.0
 40
3.2
  0
CIRCLE
  5
456
100
AcDbEntity
  8
0
100
AcDbCircle
 10
478.203183
 20
-18.647089
 30
0.0
 40
3.2
  0
CIRCLE
  5
457
100
AcDbEntity
  8
0
100
AcDbCircle
 10
491.003183
 20
-18.647089
 30
0.0
 40
3.2
  0
CIRCLE
  5
458
100
AcDbEntity
  8
0
100
AcDbCircle
 10
503.803183
 20
-18.647089
 30
0.0
 40
3.2
  0
CIRCLE
  5
459
100
AcDbEntity
  8
0
100
AcDbCircle
 10
516.603183
 20
-18.647089
 30
0.0
 40
3.2
  0
CIRCLE
  5
45A
100
AcDbEntity
  8
0
100
AcDbCircle
 10
529.403183
 20
-18.647089
 30
0.0
 40
3.2
  0
CIRCLE
  5
45B
100
AcDbEntity
  8
0
100
AcDbCircle
 10
542.203183
 20
-18.647089
 30
0.0
 40
3.2
  0
CIRCLE
  5
45C
100
AcDbEntity
  8
0
100
AcDbCircle
 10
555.003183
 20
-18.647089
 30
0.0
 40
3.2
  0
CIRCLE
  5
45D
100
AcDbEntity
  8
0
100
AcDbCircle
 10
567.803183
 20
-18.647089
 30
0.0
 40
3.2
  0
CIRCLE
  5
45E
100
AcDbEntity
  8
0
100
AcDbCircle
 10
580.603183
 20
-18.647089
 30
0.0
 40
3.2
  0
CIRCLE
  5
45F
100
AcDbEntity
  8
0
100
AcDbCircle
 10
593.403183
 20
-18.647089
 30
0.0
 40
3.2
  0
CIRCLE
  5
460
100
AcDbEntity
  8
0
100
AcDbCircle
 10
606.203183
 20
-18.647089
 30
0.0
 40
3.2
  0
ARC
  5
47D
100
AcDbEntity
  8
0
100
AcDbCircle
 10
407.557811
 20
195.461712
 30
0.0
 40
2.206683
100
AcDbArc
 50
199.909002
 51
340.090998
  0
ARC
  5
47E
100
AcDbEntity
  8
0
100
AcDbCircle
 10
411.707411
 20
195.461712
 30
0.0
 40
2.206683
100
AcDbArc
 50
199.909002
 51
340.090998
  0
ARC
  5
47F
100
AcDbEntity
  8
0
100
AcDbCircle
 10
403.408211
 20
195.461712
 30
0.0
 40
2.206683
100
AcDbArc
 50
199.909002
 51
340.090998
  0
ARC
  5
480
100
AcDbEntity
  8
0
100
AcDbCircle
 10
415.857011
 20
195.461712
 30
0.0
 40
2.206683
100
AcDbArc
 50
199.909002
 51
340.090998
  0
ARC
  5
481
100
AcDbEntity
  8
0
100
AcDbCircle
 10
399.258611
 20
195.461712
 30
0.0
 40
2.206683
100
AcDbArc
 50
199.909002
 51
340.090998
  0
ARC
  5
482
100
AcDbEntity
  8
0
100
AcDbCircle
 10
395.109011
 20
195.461712
 30
0.0
 40
2.206683
100
AcDbArc
 50
199.909002
 51
340.090998
  0
LINE
  5
48A
100
AcDbEntity
  8
0
100
AcDbLine
 10
393.034211
 20
194.710276
 30
0.0
 11
393.034211
 21
196.310276
 31
0.0
  0
LINE
  5
48B
100
AcDbEntity
  8
0
100
AcDbLine
 10
393.034211
 20
196.310276
 30
0.0
 11
417.931811
 21
196.310276
 31
0.0
  0
LINE
  5
48C
100
AcDbEntity
  8
0
100
AcDbLine
 10
417.931811
 20
194.710276
 30
0.0
 11
417.931811
 21
196.310276
 31
0.0
  0
LINE
  5
B5C
100
AcDbEntity
  8
0
100
AcDbLine
 10
361.135664
 20
187.489516
 30
0.0
 11
361.135664
 21
198.813126
 31
0.0
  0
LINE
  5
B5D
100
AcDbEntity
  8
0
100
AcDbLine
 10
358.615664
 20
198.813122
 30
0.0
 11
358.615664
 21
187.489516
 31
0.0
  0
LINE
  5
B5E
100
AcDbEntity
  8
0
100
AcDbLine
 10
358.615664
 20
204.835808
 30
0.0
 11
358.615664
 21
203.870239
 31
0.0
  0
LINE
  5
B5F
100
AcDbEntity
  8
0
100
AcDbLine
 10
361.135664
 20
203.870239
 30
0.0
 11
361.135664
 21
204.835808
 31
0.0
  0
CIRCLE
  5
B60
100
AcDbEntity
  8
0
100
AcDbCircle
 10
359.875664
 20
207.602395
 30
0.0
 40
1.5
  0
CIRCLE
  5
B61
100
AcDbEntity
  8
0
100
AcDbCircle
 10
539.643206
 20
190.596019
 30
0.0
 40
1.5
  0
CIRCLE
  5
B62
100
AcDbEntity
  8
0
100
AcDbCircle
 10
484.103768
 20
167.608459
 30
0.0
 40
1.5
  0
CIRCLE
  5
B63
100
AcDbEntity
  8
0
100
AcDbCircle
 10
461.086114
 20
112.081485
 30
0.0
 40
1.5
  0
CIRCLE
  5
B64
100
AcDbEntity
  8
0
100
AcDbCircle
 10
484.073675
 20
56.542047
 30
0.0
 40
1.5
  0
CIRCLE
  5
B65
100
AcDbEntity
  8
0
100
AcDbCircle
 10
539.600648
 20
33.524393
 30
0.0
 40
1.5
  0
CIRCLE
  5
B66
100
AcDbEntity
  8
0
100
AcDbCircle
 10
595.140086
 20
56.511954
 30
0.0
 40
1.5
  0
CIRCLE
  5
B67
100
AcDbEntity
  8
0
100
AcDbCircle
 10
618.15774
 20
112.038927
 30
0.0
 40
1.5
  0
CIRCLE
  5
B68
100
AcDbEntity
  8
0
100
AcDbCircle
 10
595.170179
 20
167.578366
 30
0.0
 40
1.5
  0
CIRCLE
  5
B69
100
AcDbEntity
  8
0
100
AcDbCircle
 10
663.128345
 20
105.44237
 30
0.0
 40
1.5
  0
CIRCLE
  5
B6A
100
AcDbEntity
  8
0
100
AcDbCircle
 10
713.145917
 20
102.284963
 30
0.0
 40
1.5
  0
CIRCLE
  5
B6B
100
AcDbEntity
  8
0
100
AcDbCircle
 10
539.621927
 20
112.060206
 30
0.0
 40
1.5
  0
ENDSEC
  0
SECTION
  2
OBJECTS
  0
DICTIONARY
  5
C
100
AcDbDictionary
  3
ACAD_GROUP
350
D
  3
ACAD_MLINESTYLE
350
1B
  0
DICTIONARY
  5
D
102
{ACAD_REACTORS
330
C
102
}
100
AcDbDictionary
  0
DICTIONARY
  5
1B
102
{ACAD_REACTORS
330
C
102
}
100
AcDbDictionary
  3
STANDARD
350
1C
  0
MLINESTYLE
  5
1C
102
{ACAD_REACTORS
330
1B
102
}
100
AcDbMlineStyle
  2
STANDARD
 70
     0
  3

 62
   256
 51
90.0
 52
90.0
 71
     2
 49
0.5
 62
   256
  6
BYLAYER
 49
-0.5
 62
   256
  6
BYLAYER
  0
ENDSEC
  0
EOF
