  0
SECTION
  2
HEADER
  9
$ACADVER
  1
AC1006
  9
$DWGCODEPAGE
  3
ansi_1252
  9
$INSBASE
 10
0.0
 20
0.0
 30
0.0
  9
$EXTMIN
 10
0.0005200844067907
 20
-0.2153053801443789
  9
$EXTMAX
 10
18.33904369025786
 20
18.16167726883274
  9
$LIMMIN
 10
0.0
 20
0.0
  9
$LIMMAX
 10
12.0
 20
9.0
  9
$ORTHOMODE
 70
     0
  9
$REGENMODE
 70
     1
  9
$FILLMODE
 70
     1
  9
$QTEXTMODE
 70
     0
  9
$MIRRTEXT
 70
     1
  9
$DRAGMODE
 70
     2
  9
$LTSCALE
 40
0.000394
  9
$OSMODE
 70
    37
  9
$ATTMODE
 70
     1
  9
$TEXTSIZE
 40
0.2
  9
$TRACEWID
 40
0.05
  9
$TEXTSTYLE
  7
STANDARD
  9
$CLAYER
  8
1
  9
$CELTYPE
  6
BYBLOCK
  9
$CECOLOR
 62
   256
  9
$DIMSCALE
 40
1.0
  9
$DIMASZ
 40
0.18
  9
$DIMEXO
 40
0.0625
  9
$DIMDLI
 40
0.38
  9
$DIMRND
 40
0.0
  9
$DIMDLE
 40
0.0
  9
$DIMEXE
 40
0.18
  9
$DIMTP
 40
0.0
  9
$DIMTM
 40
0.0
  9
$DIMTXT
 40
0.18
  9
$DIMCEN
 40
0.09
  9
$DIMTSZ
 40
0.0
  9
$DIMTOL
 70
     0
  9
$DIMLIM
 70
     0
  9
$DIMTIH
 70
     1
  9
$DIMTOH
 70
     1
  9
$DIMSE1
 70
     0
  9
$DIMSE2
 70
     0
  9
$DIMTAD
 70
     0
  9
$DIMZIN
 70
     0
  9
$DIMBLK
  1

  9
$DIMASO
 70
     1
  9
$DIMSHO
 70
     1
  9
$DIMPOST
  1

  9
$DIMAPOST
  1

  9
$DIMALT
 70
     0
  9
$DIMALTD
 70
     2
  9
$DIMALTF
 40
25.4
  9
$DIMLFAC
 40
1.0
  9
$DIMTOFL
 70
     0
  9
$DIMTVP
 40
0.0
  9
$DIMTIX
 70
     0
  9
$DIMSOXD
 70
     0
  9
$DIMSAH
 70
     0
  9
$DIMBLK1
  1

  9
$DIMBLK2
  1

  9
$LUNITS
 70
     2
  9
$LUPREC
 70
     4
  9
$SKETCHINC
 40
0.1
  9
$FILLETRAD
 40
0.5
  9
$AUNITS
 70
     0
  9
$AUPREC
 70
     0
  9
$MENU
  1
.
  9
$ELEVATION
 40
0.0
  9
$THICKNESS
 40
0.0
  9
$LIMCHECK
 70
     0
  9
$CHAMFERA
 40
0.5
  9
$CHAMFERB
 40
0.5
  9
$SKPOLY
 70
     0
  9
$TDCREATE
 40
2453353.508792488
  9
$TDUPDATE
 40
4881465.859576296
  9
$TDINDWG
 40
4881704.058228148
  9
$TDUSRTIMER
 40
4881704.058228148
  9
$USRTIMER
 70
     1
  9
$ANGBASE
 50
0.0
  9
$ANGDIR
 70
     0
  9
$PDMODE
 70
    35
  9
$PDSIZE
 40
0.000315
  9
$PLINEWID
 40
0.0
  9
$COORDS
 70
     1
  9
$SPLFRAME
 70
     0
  9
$SPLINETYPE
 70
     6
  9
$SPLINESEGS
 70
     8
  9
$ATTDIA
 70
     0
  9
$ATTREQ
 70
     1
  9
$HANDLING
 70
     1
  9
$HANDSEED
  5
2C2
  9
$SURFTAB1
 70
     6
  9
$SURFTAB2
 70
     6
  9
$SURFTYPE
 70
     6
  9
$SURFU
 70
     6
  9
$SURFV
 70
     6
  9
$UCSNAME
  2

  9
$UCSORG
 10
0.0
 20
0.0
 30
0.0
  9
$UCSXDIR
 10
1.0
 20
0.0
 30
0.0
  9
$UCSYDIR
 10
0.0
 20
1.0
 30
0.0
  9
$USERI1
 70
     0
  9
$USERI2
 70
     0
  9
$USERI3
 70
     0
  9
$USERI4
 70
     0
  9
$USERI5
 70
     0
  9
$USERR1
 40
0.0
  9
$USERR2
 40
0.0
  9
$USERR3
 40
0.0
  9
$USERR4
 40
0.0
  9
$USERR5
 40
0.0
  9
$WORLDVIEW
 70
     1
  0
ENDSEC
  0
SECTION
  2
TABLES
  0
TABLE
  2
VPORT
 70
     1
  0
VPORT
  2
*ACTIVE
 70
     0
 10
0.0
 20
0.0
 11
1.0
 21
1.0
 12
10.40047126736639
 22
8.877038336529024
 13
0.0
 23
0.0
 14
0.5
 24
0.5
 15
0.75
 25
0.75
 16
0.0
 26
0.0
 36
1.0
 17
0.0
 27
0.0
 37
0.0
 40
18.8064720886459
 41
1.972972972850329
 42
50.0
 43
0.0
 44
0.0
 50
0.0
 51
0.0
 71
    16
 72
   100
 73
     1
 74
     3
 75
     0
 76
     0
 77
     0
 78
     0
  0
ENDTAB
  0
TABLE
  2
LTYPE
 70
    10
  0
LTYPE
  2
CONTINUOUS
 70
     0
  3
Solid line
 72
    65
 73
     0
 40
0.0
  0
LTYPE
  2
DASHED
 70
     0
  3
__ __ __ __ __ __ __ __ __ __ __ __ __ __ __
 72
    65
 73
     2
 40
0.000003
 49
0.000002
 49
-0.000001
  0
LTYPE
  2
HIDDEN
 70
     0
  3
 _ _ _ _ _ _ _ _ _ _ _ _ _ _ _ _ _ _ _ _ _ _
 72
    65
 73
     2
 40
0.000001
 49
0.000001
 49
0.0
  0
LTYPE
  2
CENTER
 70
     0
  3
____ _ ____ _ ____ _ ____ _ ____ _ ____ _ ____
 72
    65
 73
     4
 40
0.000008
 49
0.000005
 49
-0.000001
 49
0.000001
 49
-0.000001
  0
LTYPE
  2
PHANTOM
 70
     0
  3
_____ _ _ _____ _ _ _____ _ _ _____ _ _ ____
 72
    65
 73
     6
 40
0.00001
 49
0.000005
 49
-0.000001
 49
0.000001
 49
-0.000001
 49
0.000001
 49
-0.000001
  0
LTYPE
  2
DOT
 70
     0
  3
...............................................
 72
    65
 73
     2
 40
0.000001
 49
0.0
 49
-0.000001
  0
LTYPE
  2
DASHDOT
 70
     0
  3
__ . __ . __ . __ . __ . __ . __ . __ . __ . __
 72
    65
 73
     4
 40
0.000004
 49
0.000002
 49
-0.000001
 49
0.0
 49
-0.000001
  0
LTYPE
  2
BORDER
 70
     0
  3
__ __ . __ __ . __ __ . __ __ . __ __ . __ __
 72
    65
 73
     6
 40
0.000007
 49
0.000002
 49
-0.000001
 49
0.000002
 49
-0.000001
 49
0.0
 49
-0.000001
  0
LTYPE
  2
DIVIDE
 70
     0
  3
__ . . __ . . __ . . __ . . __ . . __ . . __
 72
    65
 73
     6
 40
0.000005
 49
0.000002
 49
-0.000001
 49
0.0
 49
-0.000001
 49
0.0
 49
-0.000001
  0
LTYPE
  2
DOTDOT
 70
     0
  3
 . .  . .  . .  . .  . .  . . 
 72
    65
 73
     5
 40
0.000003
 49
-0.000001
 49
0.0
 49
-0.000001
 49
0.0
 49
-0.000001
  0
ENDTAB
  0
TABLE
  2
LAYER
 70
     6
  0
LAYER
  2
0
 70
     0
 62
     7
  6
CONTINUOUS
  0
LAYER
  2
FOREGROUND
 70
     0
 62
     7
  6
CONTINUOUS
  0
LAYER
  2
BACKGROUND
 70
     1
 62
    -7
  6
CONTINUOUS
  0
LAYER
  2
LAYER_1
 70
     0
 62
     7
  6
CONTINUOUS
  0
LAYER
  2
2
 70
     0
 62
     7
  6
CONTINUOUS
  0
LAYER
  2
1
 70
     0
 62
     7
  6
CONTINUOUS
  0
ENDTAB
  0
TABLE
  2
STYLE
 70
     1
  0
STYLE
  2
STANDARD
 70
     0
 40
0.0
 41
1.0
 50
0.0
 71
     0
 42
0.2
  3
txt
  4

  0
ENDTAB
  0
TABLE
  2
VIEW
 70
     0
  0
ENDTAB
  0
TABLE
  2
UCS
 70
     0
  0
ENDTAB
  0
ENDSEC
  0
SECTION
  2
BLOCKS
  0
ENDSEC
  0
SECTION
  2
ENTITIES
  0
CIRCLE
  5
236
  8
2
  6
BYBLOCK
 62
     4
 10
9.01594571482806
 20
9.069333552159348
 30
0.0
 40
9.015425630421273
  0
CIRCLE
  5
238
  8
1
  6
BYBLOCK
 62
     2
 10
2.006927107057435
 20
13.10593691651528
 30
0.0
 40
0.2468895114028045
  0
CIRCLE
  5
239
  8
1
  6
BYBLOCK
 62
     2
 10
3.157771859999957
 20
13.12942354412635
 30
0.0
 40
0.2468895114028045
  0
CIRCLE
  5
23A
  8
1
  6
BYBLOCK
 62
     2
 10
5.494691307301612
 20
13.10593691651528
 30
0.0
 40
0.2468895114028049
  0
CIRCLE
  5
23B
  8
1
  6
BYBLOCK
 62
     2
 10
4.332103240553552
 20
13.11768023032081
 30
0.0
 40
0.2468895114028049
  0
CIRCLE
  5
23C
  8
1
  6
BYBLOCK
 10
10.14504357429387
 20
13.10593691651527
 30
0.0
 40
0.2468895114028058
  0
CIRCLE
  5
23D
  8
1
  6
BYBLOCK
 10
8.98245550754579
 20
13.10593691651528
 30
0.0
 40
0.2468895114028058
  0
CIRCLE
  5
23E
  8
1
  6
BYBLOCK
 10
7.819867440797728
 20
13.11768023032081
 30
0.0
 40
0.2468895114028067
  0
CIRCLE
  5
23F
  8
1
  6
BYBLOCK
 10
6.657279374049671
 20
13.11768023032081
 30
0.0
 40
0.2468895114028058
  0
CIRCLE
  5
240
  8
1
  6
BYBLOCK
 62
     1
 10
12.45847639398445
 20
13.09419360270974
 30
0.0
 40
0.2468895114028058
  0
CIRCLE
  5
241
  8
1
  6
BYBLOCK
 10
11.30763164104193
 20
13.09419360270974
 30
0.0
 40
0.2468895114028058
  0
CIRCLE
  5
242
  8
1
  6
BYBLOCK
 62
     1
 10
13.63280777453805
 20
13.08245028890419
 30
0.0
 40
0.2468895114028058
  0
CIRCLE
  5
243
  8
1
  6
BYBLOCK
 62
     1
 10
15.95798390803416
 20
13.09419360270974
 30
0.0
 40
0.2468895114028058
  0
CIRCLE
  5
244
  8
1
  6
BYBLOCK
 62
     1
 10
14.7953958412861
 20
13.10593691651527
 30
0.0
 40
0.2468895114028058
  0
CIRCLE
  5
245
  8
1
  6
BYBLOCK
 62
     2
 10
15.95798390803416
 20
5.054665024096242
 30
0.0
 40
0.2468895114028058
  0
CIRCLE
  5
246
  8
1
  6
BYBLOCK
 62
     2
 10
14.7953958412861
 20
5.066408337901779
 30
0.0
 40
0.2468895114028058
  0
CIRCLE
  5
247
  8
1
  6
BYBLOCK
 62
     2
 10
13.63280777453805
 20
5.042921710290702
 30
0.0
 40
0.2468895114028058
  0
CIRCLE
  5
248
  8
1
  6
BYBLOCK
 62
     2
 10
12.45847639398445
 20
5.054665024096242
 30
0.0
 40
0.2468895114028058
  0
CIRCLE
  5
249
  8
1
  6
BYBLOCK
 10
11.30763164104193
 20
5.054665024096242
 30
0.0
 40
0.2468895114028058
  0
CIRCLE
  5
24A
  8
1
  6
BYBLOCK
 10
10.14504357429387
 20
5.066408337901776
 30
0.0
 40
0.2468895114028058
  0
CIRCLE
  5
24B
  8
1
  6
BYBLOCK
 10
8.98245550754579
 20
5.066408337901784
 30
0.0
 40
0.2468895114028058
  0
CIRCLE
  5
24C
  8
1
  6
BYBLOCK
 10
7.819867440797728
 20
5.07815165170732
 30
0.0
 40
0.2468895114028067
  0
CIRCLE
  5
24D
  8
1
  6
BYBLOCK
 10
6.657279374049671
 20
5.07815165170732
 30
0.0
 40
0.2468895114028058
  0
CIRCLE
  5
24E
  8
1
  6
BYBLOCK
 62
     1
 10
5.494691307301612
 20
5.066408337901784
 30
0.0
 40
0.2468895114028049
  0
CIRCLE
  5
24F
  8
1
  6
BYBLOCK
 62
     1
 10
4.332103240553552
 20
5.07815165170732
 30
0.0
 40
0.2468895114028049
  0
CIRCLE
  5
250
  8
1
  6
BYBLOCK
 62
     1
 10
3.157771859999957
 20
5.089894965512857
 30
0.0
 40
0.2468895114028045
  0
CIRCLE
  5
251
  8
1
  6
BYBLOCK
 62
     1
 10
2.006927107057435
 20
5.066408337901784
 30
0.0
 40
0.2468895114028045
  0
CIRCLE
  5
252
  8
1
  6
BYBLOCK
 10
4.332103240553552
 20
9.095718057804239
 30
0.0
 40
0.2468895114028049
  0
CIRCLE
  5
253
  8
1
  6
BYBLOCK
 10
5.494691307301612
 20
9.0839747439987
 30
0.0
 40
0.2468895114028049
  0
CIRCLE
  5
254
  8
1
  6
BYBLOCK
 10
6.657279374049671
 20
9.095718057804239
 30
0.0
 40
0.2468895114028058
  0
CIRCLE
  5
255
  8
1
  6
BYBLOCK
 10
7.819867440797728
 20
9.095718057804239
 30
0.0
 40
0.2468895114028067
  0
CIRCLE
  5
256
  8
1
  6
BYBLOCK
 10
8.98245550754579
 20
9.0839747439987
 30
0.0
 40
0.2468895114028058
  0
CIRCLE
  5
257
  8
1
  6
BYBLOCK
 10
10.14504357429387
 20
9.083974743998695
 30
0.0
 40
0.2468895114028058
  0
CIRCLE
  5
258
  8
1
  6
BYBLOCK
 10
11.30763164104193
 20
9.07223143019316
 30
0.0
 40
0.2468895114028058
  0
CIRCLE
  5
259
  8
1
  6
BYBLOCK
 10
12.45847639398445
 20
9.07223143019316
 30
0.0
 40
0.2468895114028058
  0
CIRCLE
  5
25A
  8
1
  6
BYBLOCK
 10
13.63280777453805
 20
9.060488116387617
 30
0.0
 40
0.2468895114028058
  0
CIRCLE
  5
25B
  8
1
  6
BYBLOCK
 62
     1
 10
2.59396238961306
 20
6.056425486176113
 30
0.0
 40
0.2468895114028049
  0
CIRCLE
  5
25C
  8
1
  6
BYBLOCK
 62
     1
 10
3.768293770166655
 20
6.044682172370574
 30
0.0
 40
0.2468895114028036
  0
CIRCLE
  5
25D
  8
1
  6
BYBLOCK
 62
     1
 10
4.930881836914715
 20
6.032938858565039
 30
0.0
 40
0.246889511402804
  0
CIRCLE
  5
25E
  8
1
  6
BYBLOCK
 10
6.093469903662773
 20
6.044682172370574
 30
0.0
 40
0.2468895114028058
  0
CIRCLE
  5
25F
  8
1
  6
BYBLOCK
 10
7.256057970410832
 20
6.044682172370574
 30
0.0
 40
0.246889511402804
  0
CIRCLE
  5
260
  8
1
  6
BYBLOCK
 10
8.418646037158894
 20
6.032938858565039
 30
0.0
 40
0.246889511402804
  0
CIRCLE
  5
261
  8
1
  6
BYBLOCK
 10
9.581234103906972
 20
6.032938858565031
 30
0.0
 40
0.2468895114028058
  0
CIRCLE
  5
262
  8
1
  6
BYBLOCK
 10
10.74382217065503
 20
6.021195544759497
 30
0.0
 40
0.2468895114028058
  0
CIRCLE
  5
263
  8
1
  6
BYBLOCK
 10
11.89466692359755
 20
6.021195544759497
 30
0.0
 40
0.2468895114028058
  0
CIRCLE
  5
264
  8
1
  6
BYBLOCK
 62
     2
 10
13.06899830415115
 20
6.009452230953955
 30
0.0
 40
0.2468895114028058
  0
CIRCLE
  5
265
  8
1
  6
BYBLOCK
 62
     2
 10
14.23158637089921
 20
6.032938858565033
 30
0.0
 40
0.2468895114028058
  0
CIRCLE
  5
266
  8
1
  6
BYBLOCK
 62
     2
 10
15.39417443764726
 20
6.021195544759497
 30
0.0
 40
0.2468895114028058
  0
CIRCLE
  5
267
  8
1
  6
BYBLOCK
 62
     2
 10
2.567114319594637
 20
12.1509373803583
 30
0.0
 40
0.2468895114028049
  0
CIRCLE
  5
268
  8
1
  6
BYBLOCK
 62
     2
 10
3.741445700148232
 20
12.13919406655277
 30
0.0
 40
0.2468895114028036
  0
CIRCLE
  5
269
  8
1
  6
BYBLOCK
 62
     2
 10
4.904033766896291
 20
12.12745075274723
 30
0.0
 40
0.2468895114028049
  0
CIRCLE
  5
26A
  8
1
  6
BYBLOCK
 10
6.06662183364435
 20
12.13919406655277
 30
0.0
 40
0.2468895114028058
  0
CIRCLE
  5
26B
  8
1
  6
BYBLOCK
 10
7.229209900392408
 20
12.13919406655277
 30
0.0
 40
0.2468895114028049
  0
CIRCLE
  5
26C
  8
1
  6
BYBLOCK
 10
8.391797967140469
 20
12.12745075274723
 30
0.0
 40
0.246889511402804
  0
CIRCLE
  5
26D
  8
1
  6
BYBLOCK
 10
9.554386033888548
 20
12.12745075274722
 30
0.0
 40
0.2468895114028058
  0
CIRCLE
  5
26E
  8
1
  6
BYBLOCK
 10
10.71697410063661
 20
12.11570743894169
 30
0.0
 40
0.2468895114028058
  0
CIRCLE
  5
26F
  8
1
  6
BYBLOCK
 10
11.86781885357913
 20
12.11570743894169
 30
0.0
 40
0.246889511402804
  0
CIRCLE
  5
270
  8
1
  6
BYBLOCK
 62
     1
 10
13.04215023413273
 20
12.10396412513615
 30
0.0
 40
0.2468895114028058
  0
CIRCLE
  5
271
  8
1
  6
BYBLOCK
 62
     1
 10
14.20473830088078
 20
12.12745075274723
 30
0.0
 40
0.2468895114028058
  0
CIRCLE
  5
272
  8
1
  6
BYBLOCK
 62
     1
 10
15.36732636762883
 20
12.11570743894169
 30
0.0
 40
0.2468895114028058
  0
CIRCLE
  5
273
  8
1
  6
BYBLOCK
 62
     1
 10
3.157771859999957
 20
7.078313599851449
 30
0.0
 40
0.2468895114028045
  0
CIRCLE
  5
274
  8
1
  6
BYBLOCK
 62
     1
 10
4.332103240553552
 20
7.066570286045913
 30
0.0
 40
0.2468895114028049
  0
CIRCLE
  5
275
  8
1
  6
BYBLOCK
 10
5.494691307301612
 20
7.054826972240377
 30
0.0
 40
0.2468895114028049
  0
CIRCLE
  5
276
  8
1
  6
BYBLOCK
 10
6.657279374049671
 20
7.066570286045913
 30
0.0
 40
0.2468895114028058
  0
CIRCLE
  5
277
  8
1
  6
BYBLOCK
 10
7.819867440797728
 20
7.066570286045913
 30
0.0
 40
0.2468895114028067
  0
CIRCLE
  5
278
  8
1
  6
BYBLOCK
 10
8.98245550754579
 20
7.054826972240377
 30
0.0
 40
0.2468895114028058
  0
CIRCLE
  5
279
  8
1
  6
BYBLOCK
 10
10.14504357429387
 20
7.054826972240369
 30
0.0
 40
0.2468895114028058
  0
CIRCLE
  5
27A
  8
1
  6
BYBLOCK
 10
11.30763164104193
 20
7.043083658434835
 30
0.0
 40
0.2468895114028058
  0
CIRCLE
  5
27B
  8
1
  6
BYBLOCK
 10
12.45847639398445
 20
7.043083658434835
 30
0.0
 40
0.2468895114028058
  0
CIRCLE
  5
27C
  8
1
  6
BYBLOCK
 62
     2
 10
13.63280777453805
 20
7.031340344629293
 30
0.0
 40
0.2468895114028058
  0
CIRCLE
  5
27D
  8
1
  6
BYBLOCK
 62
     2
 10
14.7953958412861
 20
7.054826972240371
 30
0.0
 40
0.2468895114028058
  0
CIRCLE
  5
27E
  8
1
  6
BYBLOCK
 62
     2
 10
3.157771859999957
 20
11.08584063149284
 30
0.0
 40
0.2468895114028045
  0
CIRCLE
  5
27F
  8
1
  6
BYBLOCK
 62
     2
 10
4.332103240553552
 20
11.0740973176873
 30
0.0
 40
0.2468895114028049
  0
CIRCLE
  5
280
  8
1
  6
BYBLOCK
 10
5.494691307301612
 20
11.06235400388176
 30
0.0
 40
0.2468895114028049
  0
CIRCLE
  5
281
  8
1
  6
BYBLOCK
 10
6.657279374049671
 20
11.0740973176873
 30
0.0
 40
0.2468895114028058
  0
CIRCLE
  5
282
  8
1
  6
BYBLOCK
 10
7.819867440797728
 20
11.0740973176873
 30
0.0
 40
0.2468895114028067
  0
CIRCLE
  5
283
  8
1
  6
BYBLOCK
 10
8.98245550754579
 20
11.06235400388176
 30
0.0
 40
0.2468895114028058
  0
CIRCLE
  5
284
  8
1
  6
BYBLOCK
 10
10.14504357429387
 20
11.06235400388176
 30
0.0
 40
0.2468895114028058
  0
CIRCLE
  5
285
  8
1
  6
BYBLOCK
 10
11.30763164104193
 20
11.05061069007622
 30
0.0
 40
0.2468895114028058
  0
CIRCLE
  5
286
  8
1
  6
BYBLOCK
 10
12.45847639398445
 20
11.05061069007622
 30
0.0
 40
0.2468895114028058
  0
CIRCLE
  5
287
  8
1
  6
BYBLOCK
 62
     1
 10
13.63280777453805
 20
11.03886737627068
 30
0.0
 40
0.2468895114028058
  0
CIRCLE
  5
288
  8
1
  6
BYBLOCK
 62
     1
 10
14.7953958412861
 20
11.06235400388176
 30
0.0
 40
0.2468895114028058
  0
CIRCLE
  5
289
  8
1
  6
BYBLOCK
 62
     1
 10
3.754423934767207
 20
8.055808305290617
 30
0.0
 40
0.2468895114028036
  0
CIRCLE
  5
28A
  8
1
  6
BYBLOCK
 10
4.917012001515266
 20
8.044064991485085
 30
0.0
 40
0.2468895114028049
  0
CIRCLE
  5
28B
  8
1
  6
BYBLOCK
 10
6.079600068263325
 20
8.055808305290617
 30
0.0
 40
0.2468895114028058
  0
CIRCLE
  5
28C
  8
1
  6
BYBLOCK
 10
7.242188135011383
 20
8.055808305290617
 30
0.0
 40
0.2468895114028049
  0
CIRCLE
  5
28D
  8
1
  6
BYBLOCK
 10
8.404776201759445
 20
8.044064991485085
 30
0.0
 40
0.2468895114028058
  0
CIRCLE
  5
28E
  8
1
  6
BYBLOCK
 10
9.567364268507523
 20
8.044064991485074
 30
0.0
 40
0.2468895114028058
  0
CIRCLE
  5
28F
  8
1
  6
BYBLOCK
 10
10.72995233525558
 20
8.032321677679539
 30
0.0
 40
0.2468895114028058
  0
CIRCLE
  5
290
  8
1
  6
BYBLOCK
 10
11.8807970881981
 20
8.032321677679539
 30
0.0
 40
0.2468895114028058
  0
CIRCLE
  5
291
  8
1
  6
BYBLOCK
 10
13.05512846875171
 20
8.020578363874
 30
0.0
 40
0.2468895114028058
  0
CIRCLE
  5
292
  8
1
  6
BYBLOCK
 62
     2
 10
14.21771653549976
 20
8.044064991485078
 30
0.0
 40
0.2468895114028058
  0
CIRCLE
  5
293
  8
1
  6
BYBLOCK
 62
     1
 10
14.21771653549976
 20
10.06906095980457
 30
0.0
 40
0.2468895114028058
  0
CIRCLE
  5
294
  8
1
  6
BYBLOCK
 10
13.05512846875171
 20
10.04557433219349
 30
0.0
 40
0.2468895114028058
  0
CIRCLE
  5
295
  8
1
  6
BYBLOCK
 10
11.8807970881981
 20
10.05731764599903
 30
0.0
 40
0.2468895114028058
  0
CIRCLE
  5
296
  8
1
  6
BYBLOCK
 10
10.72995233525558
 20
10.05731764599903
 30
0.0
 40
0.2468895114028058
  0
CIRCLE
  5
297
  8
1
  6
BYBLOCK
 10
9.567364268507523
 20
10.06906095980457
 30
0.0
 40
0.2468895114028058
  0
CIRCLE
  5
298
  8
1
  6
BYBLOCK
 10
8.404776201759445
 20
10.06906095980458
 30
0.0
 40
0.2468895114028058
  0
CIRCLE
  5
299
  8
1
  6
BYBLOCK
 10
7.242188135011383
 20
10.08080427361011
 30
0.0
 40
0.2468895114028049
  0
CIRCLE
  5
29A
  8
1
  6
BYBLOCK
 10
6.079600068263325
 20
10.08080427361011
 30
0.0
 40
0.2468895114028058
  0
CIRCLE
  5
29B
  8
1
  6
BYBLOCK
 10
4.917012001515266
 20
10.06906095980458
 30
0.0
 40
0.2468895114028049
  0
CIRCLE
  5
29C
  8
1
  6
BYBLOCK
 62
     2
 10
3.754423934767207
 20
10.08080427361011
 30
0.0
 40
0.2468895114028036
  0
CIRCLE
  5
29D
  8
1
  6
BYBLOCK
 62
     3
 10
7.240302109770513
 20
14.05296335069008
 30
0.0
 40
0.2468895114028058
  0
CIRCLE
  5
29E
  8
1
  6
BYBLOCK
 62
     3
 10
7.830959650175839
 20
15.03144951445813
 30
0.0
 40
0.2468895114028067
  0
CIRCLE
  5
29F
  8
1
  6
BYBLOCK
 62
     3
 10
8.402890176518568
 20
14.04122003688455
 30
0.0
 40
0.2468895114028058
  0
CIRCLE
  5
2A0
  8
1
  6
BYBLOCK
 62
     3
 10
9.565478243266622
 20
14.06470666449563
 30
0.0
 40
0.2468895114028058
  0
CIRCLE
  5
2A1
  8
1
  6
BYBLOCK
 62
     3
 10
10.73980962382022
 20
14.05296335069008
 30
0.0
 40
0.2468895114028058
  0
CIRCLE
  5
2A2
  8
1
  6
BYBLOCK
 62
     3
 10
10.15613578367195
 20
15.04319282826367
 30
0.0
 40
0.2468895114028058
  0
CIRCLE
  5
2A3
  8
1
  6
BYBLOCK
 62
     3
 10
8.99354771692389
 20
15.01970620065259
 30
0.0
 40
0.2468895114028058
  0
CIRCLE
  5
2A4
  8
1
  6
BYBLOCK
 62
     3
 10
9.565478243266622
 20
16.10828957712914
 30
0.0
 40
0.2468895114028058
  0
CIRCLE
  5
2A5
  8
1
  6
BYBLOCK
 62
     3
 10
8.402890176518568
 20
16.08480294951806
 30
0.0
 40
0.2468895114028058
  0
CIRCLE
  5
2A6
  8
1
  6
BYBLOCK
 62
     3
 10
8.980569482304913
 20
17.07809599359525
 30
0.0
 40
0.2468895114028058
  0
CIRCLE
  5
2A7
  8
1
  6
BYBLOCK
 62
     3
 10
8.98245550754579
 20
1.065290871720976
 30
0.0
 40
0.2468895114028058
  0
CIRCLE
  5
2A8
  8
1
  6
BYBLOCK
 62
     3
 10
9.581234103906972
 20
2.031821392384223
 30
0.0
 40
0.2468895114028058
  0
CIRCLE
  5
2A9
  8
1
  6
BYBLOCK
 62
     3
 10
8.418646037158894
 20
2.031821392384232
 30
0.0
 40
0.246889511402804
  0
CIRCLE
  5
2AA
  8
1
  6
BYBLOCK
 62
     3
 10
7.819867440797728
 20
3.065452819865105
 30
0.0
 40
0.2468895114028067
  0
CIRCLE
  5
2AB
  8
1
  6
BYBLOCK
 62
     3
 10
8.98245550754579
 20
3.053709506059569
 30
0.0
 40
0.2468895114028058
  0
CIRCLE
  5
2AC
  8
1
  6
BYBLOCK
 62
     3
 10
10.14504357429387
 20
3.053709506059561
 30
0.0
 40
0.2468895114028058
  0
CIRCLE
  5
2AD
  8
1
  6
BYBLOCK
 62
     3
 10
7.242188135011383
 20
4.05469083910981
 30
0.0
 40
0.2468895114028049
  0
CIRCLE
  5
2AE
  8
1
  6
BYBLOCK
 62
     3
 10
8.404776201759445
 20
4.042947525304276
 30
0.0
 40
0.2468895114028058
  0
CIRCLE
  5
2AF
  8
1
  6
BYBLOCK
 62
     3
 10
9.567364268507523
 20
4.042947525304267
 30
0.0
 40
0.2468895114028058
  0
CIRCLE
  5
2B0
  8
1
  6
BYBLOCK
 62
     3
 10
10.72995233525558
 20
4.031204211498732
 30
0.0
 40
0.2468895114028058
  0
ENDSEC
  0
EOF
