  0
SECTION
  2
HEADER
  9
$ACADVER
  1
AC1024
  9
$ACADMAINTVER
 70
     6
  9
$DWGCODEPAGE
  3
ANSI_1252
  9
$LASTSAVEDBY
  1
Work Computer
  9
$INSBASE
 10
0.0
 20
0.0
 30
0.0
  9
$EXTMIN
 10
1.000000000000000E+20
 20
1.000000000000000E+20
 30
1.000000000000000E+20
  9
$EXTMAX
 10
-1.000000000000000E+20
 20
-1.000000000000000E+20
 30
-1.000000000000000E+20
  9
$LIMMIN
 10
0.0
 20
0.0
  9
$LIMMAX
 10
12.0
 20
9.0
  9
$ORTHOMODE
 70
     0
  9
$REGENMODE
 70
     1
  9
$FILLMODE
 70
     1
  9
$QTEXTMODE
 70
     0
  9
$MIRRTEXT
 70
     0
  9
$LTSCALE
 40
1.0
  9
$ATTMODE
 70
     1
  9
$TEXTSIZE
 40
0.8252278760091158
  9
$TRACEWID
 40
0.05
  9
$TEXTSTYLE
  7
Standard
  9
$CLAYER
  8
0
  9
$CELTYPE
  6
ByLayer
  9
$CECOLOR
 62
     5
  9
$CELTSCALE
 40
1.0
  9
$DISPSILH
 70
     0
  9
$DIMSCALE
 40
1.0
  9
$DIMASZ
 40
0.18
  9
$DIMEXO
 40
0.0625
  9
$DIMDLI
 40
0.38
  9
$DIMRND
 40
0.0
  9
$DIMDLE
 40
0.0
  9
$DIMEXE
 40
0.18
  9
$DIMTP
 40
0.0
  9
$DIMTM
 40
0.0
  9
$DIMTXT
 40
0.18
  9
$DIMCEN
 40
0.09
  9
$DIMTSZ
 40
0.0
  9
$DIMTOL
 70
     0
  9
$DIMLIM
 70
     0
  9
$DIMTIH
 70
     1
  9
$DIMTOH
 70
     1
  9
$DIMSE1
 70
     0
  9
$DIMSE2
 70
     0
  9
$DIMTAD
 70
     0
  9
$DIMZIN
 70
     0
  9
$DIMBLK
  1

  9
$DIMASO
 70
     1
  9
$DIMSHO
 70
     1
  9
$DIMPOST
  1

  9
$DIMAPOST
  1

  9
$DIMALT
 70
     0
  9
$DIMALTD
 70
     2
  9
$DIMALTF
 40
25.4
  9
$DIMLFAC
 40
1.0
  9
$DIMTOFL
 70
     0
  9
$DIMTVP
 40
0.0
  9
$DIMTIX
 70
     0
  9
$DIMSOXD
 70
     0
  9
$DIMSAH
 70
     0
  9
$DIMBLK1
  1

  9
$DIMBLK2
  1

  9
$DIMSTYLE
  2
Standard
  9
$DIMCLRD
 70
     0
  9
$DIMCLRE
 70
     0
  9
$DIMCLRT
 70
     0
  9
$DIMTFAC
 40
1.0
  9
$DIMGAP
 40
0.09
  9
$DIMJUST
 70
     0
  9
$DIMSD1
 70
     0
  9
$DIMSD2
 70
     0
  9
$DIMTOLJ
 70
     1
  9
$DIMTZIN
 70
     0
  9
$DIMALTZ
 70
     0
  9
$DIMALTTZ
 70
     0
  9
$DIMUPT
 70
     0
  9
$DIMDEC
 70
     4
  9
$DIMTDEC
 70
     4
  9
$DIMALTU
 70
     2
  9
$DIMALTTD
 70
     2
  9
$DIMTXSTY
  7
Standard
  9
$DIMAUNIT
 70
     0
  9
$DIMADEC
 70
     0
  9
$DIMALTRND
 40
0.0
  9
$DIMAZIN
 70
     0
  9
$DIMDSEP
 70
    46
  9
$DIMATFIT
 70
     3
  9
$DIMFRAC
 70
     0
  9
$DIMLDRBLK
  1

  9
$DIMLUNIT
 70
     2
  9
$DIMLWD
 70
    -2
  9
$DIMLWE
 70
    -2
  9
$DIMTMOVE
 70
     0
  9
$DIMFXL
 40
1.0
  9
$DIMFXLON
 70
     0
  9
$DIMJOGANG
 40
0.7853981633974483
  9
$DIMTFILL
 70
     0
  9
$DIMTFILLCLR
 70
     0
  9
$DIMARCSYM
 70
     0
  9
$DIMLTYPE
  6

  9
$DIMLTEX1
  6

  9
$DIMLTEX2
  6

  9
$DIMTXTDIRECTION
 70
     0
  9
$LUNITS
 70
     2
  9
$LUPREC
 70
     4
  9
$SKETCHINC
 40
0.1
  9
$FILLETRAD
 40
0.25
  9
$AUNITS
 70
     0
  9
$AUPREC
 70
     0
  9
$MENU
  1
.
  9
$ELEVATION
 40
0.0
  9
$PELEVATION
 40
0.0
  9
$THICKNESS
 40
0.0
  9
$LIMCHECK
 70
     0
  9
$CHAMFERA
 40
0.0
  9
$CHAMFERB
 40
0.0
  9
$CHAMFERC
 40
0.0
  9
$CHAMFERD
 40
0.0
  9
$SKPOLY
 70
     0
  9
$TDCREATE
 40
2452642.813384271
  9
$TDUCREATE
 40
2452643.063384271
  9
$TDUPDATE
 40
2456260.542139144
  9
$TDUUPDATE
 40
2456260.792139144
  9
$TDINDWG
 40
0.0280174769
  9
$TDUSRTIMER
 40
2456260.782183484
  9
$USRTIMER
 70
     1
  9
$ANGBASE
 50
0.0
  9
$ANGDIR
 70
     0
  9
$PDMODE
 70
     0
  9
$PDSIZE
 40
0.0
  9
$PLINEWID
 40
0.0
  9
$SPLFRAME
 70
     0
  9
$SPLINETYPE
 70
     6
  9
$SPLINESEGS
 70
     8
  9
$HANDSEED
  5
558
  9
$SURFTAB1
 70
     6
  9
$SURFTAB2
 70
     6
  9
$SURFTYPE
 70
     6
  9
$SURFU
 70
     6
  9
$SURFV
 70
     6
  9
$UCSBASE
  2

  9
$UCSNAME
  2

  9
$UCSORG
 10
0.0
 20
0.0
 30
0.0
  9
$UCSXDIR
 10
1.0
 20
0.0
 30
0.0
  9
$UCSYDIR
 10
0.0
 20
1.0
 30
0.0
  9
$UCSORTHOREF
  2

  9
$UCSORTHOVIEW
 70
     0
  9
$UCSORGTOP
 10
0.0
 20
0.0
 30
0.0
  9
$UCSORGBOTTOM
 10
0.0
 20
0.0
 30
0.0
  9
$UCSORGLEFT
 10
0.0
 20
0.0
 30
0.0
  9
$UCSORGRIGHT
 10
0.0
 20
0.0
 30
0.0
  9
$UCSORGFRONT
 10
0.0
 20
0.0
 30
0.0
  9
$UCSORGBACK
 10
0.0
 20
0.0
 30
0.0
  9
$PUCSBASE
  2

  9
$PUCSNAME
  2

  9
$PUCSORG
 10
0.0
 20
0.0
 30
0.0
  9
$PUCSXDIR
 10
1.0
 20
0.0
 30
0.0
  9
$PUCSYDIR
 10
0.0
 20
1.0
 30
0.0
  9
$PUCSORTHOREF
  2

  9
$PUCSORTHOVIEW
 70
     0
  9
$PUCSORGTOP
 10
0.0
 20
0.0
 30
0.0
  9
$PUCSORGBOTTOM
 10
0.0
 20
0.0
 30
0.0
  9
$PUCSORGLEFT
 10
0.0
 20
0.0
 30
0.0
  9
$PUCSORGRIGHT
 10
0.0
 20
0.0
 30
0.0
  9
$PUCSORGFRONT
 10
0.0
 20
0.0
 30
0.0
  9
$PUCSORGBACK
 10
0.0
 20
0.0
 30
0.0
  9
$USERI1
 70
     0
  9
$USERI2
 70
     0
  9
$USERI3
 70
     0
  9
$USERI4
 70
     0
  9
$USERI5
 70
     0
  9
$USERR1
 40
0.0
  9
$USERR2
 40
0.0
  9
$USERR3
 40
0.0
  9
$USERR4
 40
0.0
  9
$USERR5
 40
0.0
  9
$WORLDVIEW
 70
     1
  9
$SHADEDGE
 70
     3
  9
$SHADEDIF
 70
    70
  9
$TILEMODE
 70
     1
  9
$MAXACTVP
 70
    64
  9
$PINSBASE
 10
0.0
 20
0.0
 30
0.0
  9
$PLIMCHECK
 70
     0
  9
$PEXTMIN
 10
0.0
 20
0.0
 30
0.0
  9
$PEXTMAX
 10
0.0
 20
0.0
 30
0.0
  9
$PLIMMIN
 10
0.0
 20
0.0
  9
$PLIMMAX
 10
0.0
 20
0.0
  9
$UNITMODE
 70
     0
  9
$VISRETAIN
 70
     1
  9
$PLINEGEN
 70
     0
  9
$PSLTSCALE
 70
     1
  9
$TREEDEPTH
 70
  3020
  9
$CMLSTYLE
  2
Standard
  9
$CMLJUST
 70
     0
  9
$CMLSCALE
 40
1.0
  9
$PROXYGRAPHICS
 70
     1
  9
$MEASUREMENT
 70
     0
  9
$CELWEIGHT
370
    -1
  9
$ENDCAPS
280
     0
  9
$JOINSTYLE
280
     0
  9
$LWDISPLAY
290
     0
  9
$INSUNITS
 70
     1
  9
$HYPERLINKBASE
  1

  9
$STYLESHEET
  1

  9
$XEDIT
290
     1
  9
$CEPSNTYPE
380
     0
  9
$PSTYLEMODE
290
     1
  9
$FINGERPRINTGUID
  2
{FDEAD576-A652-11D2-9A35-0060089B3A3F}
  9
$VERSIONGUID
  2
{FBC2AE19-5C5C-49EC-81BC-71B1A3362A02}
  9
$EXTNAMES
290
     1
  9
$PSVPSCALE
 40
0.0
  9
$OLESTARTUP
290
     0
  9
$SORTENTS
280
   127
  9
$INDEXCTL
280
     0
  9
$HIDETEXT
280
     1
  9
$XCLIPFRAME
280
     0
  9
$HALOGAP
280
     0
  9
$OBSCOLOR
 70
   257
  9
$OBSLTYPE
280
     0
  9
$INTERSECTIONDISPLAY
280
     0
  9
$INTERSECTIONCOLOR
 70
   257
  9
$DIMASSOC
280
     2
  9
$PROJECTNAME
  1

  9
$CAMERADISPLAY
290
     0
  9
$LENSLENGTH
 40
50.0
  9
$CAMERAHEIGHT
 40
0.0
  9
$STEPSPERSEC
 40
2.0
  9
$STEPSIZE
 40
6.0
  9
$3DDWFPREC
 40
2.0
  9
$PSOLWIDTH
 40
0.25
  9
$PSOLHEIGHT
 40
4.0
  9
$LOFTANG1
 40
1.570796326794897
  9
$LOFTANG2
 40
1.570796326794897
  9
$LOFTMAG1
 40
0.0
  9
$LOFTMAG2
 40
0.0
  9
$LOFTPARAM
 70
     7
  9
$LOFTNORMALS
280
     1
  9
$LATITUDE
 40
37.795
  9
$LONGITUDE
 40
-122.394
  9
$NORTHDIRECTION
 40
0.0
  9
$TIMEZONE
 70
 -8000
  9
$LIGHTGLYPHDISPLAY
280
     1
  9
$TILEMODELIGHTSYNCH
280
     1
  9
$CMATERIAL
347
96
  9
$SOLIDHIST
280
     1
  9
$SHOWHIST
280
     1
  9
$DWFFRAME
280
     2
  9
$DGNFRAME
280
     0
  9
$REALWORLDSCALE
290
     1
  9
$INTERFERECOLOR
 62
     1
  9
$CSHADOW
280
     0
  9
$SHADOWPLANELOCATION
 40
0.0
  0
ENDSEC
  0
SECTION
  2
CLASSES
  0
CLASS
  1
ACDBDICTIONARYWDFLT
  2
AcDbDictionaryWithDefault
  3
ObjectDBX Classes
 90
        0
 91
        4
280
     0
281
     0
  0
CLASS
  1
ACDBPLACEHOLDER
  2
AcDbPlaceHolder
  3
ObjectDBX Classes
 90
        0
 91
        1
280
     0
281
     0
  0
CLASS
  1
LAYOUT
  2
AcDbLayout
  3
ObjectDBX Classes
 90
        0
 91
        1
280
     0
281
     0
  0
CLASS
  1
DICTIONARYVAR
  2
AcDbDictionaryVar
  3
ObjectDBX Classes
 90
        0
 91
        4
280
     0
281
     0
  0
CLASS
  1
TABLESTYLE
  2
AcDbTableStyle
  3
ObjectDBX Classes
 90
     4095
 91
        4
280
     0
281
     0
  0
CLASS
  1
MATERIAL
  2
AcDbMaterial
  3
ObjectDBX Classes
 90
     1153
 91
        4
280
     0
281
     0
  0
CLASS
  1
VISUALSTYLE
  2
AcDbVisualStyle
  3
ObjectDBX Classes
 90
     4095
 91
        4
280
     0
281
     0
  0
CLASS
  1
SCALE
  2
AcDbScale
  3
ObjectDBX Classes
 90
     1153
 91
        4
280
     0
281
     0
  0
CLASS
  1
CELLSTYLEMAP
  2
AcDbCellStyleMap
  3
ObjectDBX Classes
 90
     1152
 91
        4
280
     0
281
     0
  0
CLASS
  1
RASTERVARIABLES
  2
AcDbRasterVariables
  3
ISM
 90
        0
 91
        4
280
     0
281
     0
  0
ENDSEC
  0
SECTION
  2
TABLES
  0
TABLE
  2
VPORT
  5
8
330
0
100
AcDbSymbolTable
 70
     1
  0
VPORT
  5
94
330
8
100
AcDbSymbolTableRecord
100
AcDbViewportTableRecord
  2
*Active
 70
     0
 10
0.0
 20
0.0
 11
1.0
 21
1.0
 12
21.76564122224197
 22
9.644432421602364
 13
0.0
 23
0.0
 14
0.5
 24
0.5
 15
0.5
 25
0.5
 16
0.0
 26
0.0
 36
1.0
 17
-27.66959356597987
 27
-19.53870295786203
 37
0.0
 40
65.59916904994319
 41
2.363636363636364
 42
50.0
 43
0.0
 44
0.0
 50
0.0
 51
0.0
 71
    16
 72
  1000
 73
     1
 74
     3
 75
     0
 76
     0
 77
     0
 78
     0
281
     0
 65
     1
110
0.0
120
0.0
130
0.0
111
1.0
121
0.0
131
0.0
112
0.0
122
1.0
132
0.0
 79
     0
146
0.0
348
9F
 60
     2
 61
     5
292
     1
282
     1
141
0.0
142
0.0
 63
   250
421
  3355443
  0
ENDTAB
  0
TABLE
  2
LTYPE
  5
5
330
0
100
AcDbSymbolTable
 70
     1
  0
LTYPE
  5
14
330
5
100
AcDbSymbolTableRecord
100
AcDbLinetypeTableRecord
  2
ByBlock
 70
     0
  3

 72
    65
 73
     0
 40
0.0
  0
LTYPE
  5
15
330
5
100
AcDbSymbolTableRecord
100
AcDbLinetypeTableRecord
  2
ByLayer
 70
     0
  3

 72
    65
 73
     0
 40
0.0
  0
LTYPE
  5
16
330
5
100
AcDbSymbolTableRecord
100
AcDbLinetypeTableRecord
  2
Continuous
 70
     0
  3
Solid line
 72
    65
 73
     0
 40
0.0
  0
ENDTAB
  0
TABLE
  2
LAYER
  5
2
330
0
100
AcDbSymbolTable
 70
     3
  0
LAYER
  5
10
330
2
100
AcDbSymbolTableRecord
100
AcDbLayerTableRecord
  2
0
 70
     0
 62
     7
  6
Continuous
370
    -3
390
F
347
98
  0
LAYER
  5
E4
330
2
100
AcDbSymbolTableRecord
100
AcDbLayerTableRecord
  2
DEFAULT
 70
     0
 62
     7
  6
Continuous
370
    -3
390
F
347
98
  0
LAYER
  5
1F6
330
2
100
AcDbSymbolTableRecord
100
AcDbLayerTableRecord
  2
Defpoints
 70
     0
 62
     7
  6
Continuous
290
     0
370
    -3
390
F
347
98
  0
ENDTAB
  0
TABLE
  2
STYLE
  5
3
330
0
100
AcDbSymbolTable
 70
     1
  0
STYLE
  5
11
330
3
100
AcDbSymbolTableRecord
100
AcDbTextStyleTableRecord
  2
Standard
 70
     0
 40
0.0
 41
1.0
 50
0.0
 71
     0
 42
0.8252278760091158
  3
txt
  4

  0
ENDTAB
  0
TABLE
  2
VIEW
  5
6
330
0
100
AcDbSymbolTable
 70
     0
  0
ENDTAB
  0
TABLE
  2
UCS
  5
7
330
0
100
AcDbSymbolTable
 70
     0
  0
ENDTAB
  0
TABLE
  2
APPID
  5
9
330
0
100
AcDbSymbolTable
 70
     2
  0
APPID
  5
12
330
9
100
AcDbSymbolTableRecord
100
AcDbRegAppTableRecord
  2
ACAD
 70
     0
  0
APPID
  5
554
330
9
100
AcDbSymbolTableRecord
100
AcDbRegAppTableRecord
  2
ACAD_DSTYLE_DIMRADIAL_EXTENSION
 70
     0
  0
ENDTAB
  0
TABLE
  2
DIMSTYLE
  5
A
330
0
100
AcDbSymbolTable
 70
     1
100
AcDbDimStyleTable
  0
DIMSTYLE
105
27
330
A
100
AcDbSymbolTableRecord
100
AcDbDimStyleTableRecord
  2
Standard
 70
     0
178
     0
340
11
  0
ENDTAB
  0
TABLE
  2
BLOCK_RECORD
  5
1
330
0
100
AcDbSymbolTable
 70
     1
  0
BLOCK_RECORD
  5
1F
330
1
100
AcDbSymbolTableRecord
100
AcDbBlockTableRecord
  2
*Model_Space
340
22
 70
     0
280
     1
281
     0
  0
BLOCK_RECORD
  5
58
330
1
100
AcDbSymbolTableRecord
100
AcDbBlockTableRecord
  2
*Paper_Space
340
59
 70
     0
280
     1
281
     0
  0
BLOCK_RECORD
  5
5D
330
1
100
AcDbSymbolTableRecord
100
AcDbBlockTableRecord
  2
*Paper_Space0
340
5E
 70
     0
280
     1
281
     0
  0
ENDTAB
  0
ENDSEC
  0
SECTION
  2
BLOCKS
  0
BLOCK
  5
20
330
1F
100
AcDbEntity
  8
0
100
AcDbBlockBegin
  2
*Model_Space
 70
     0
 10
0.0
 20
0.0
 30
0.0
  3
*Model_Space
  1

  0
ENDBLK
  5
21
330
1F
100
AcDbEntity
  8
0
100
AcDbBlockEnd
  0
BLOCK
  5
5A
330
58
100
AcDbEntity
 67
     1
  8
0
100
AcDbBlockBegin
  2
*Paper_Space
 70
     0
 10
0.0
 20
0.0
 30
0.0
  3
*Paper_Space
  1

  0
ENDBLK
  5
5B
330
58
100
AcDbEntity
 67
     1
  8
0
100
AcDbBlockEnd
  0
BLOCK
  5
5F
330
5D
100
AcDbEntity
  8
0
100
AcDbBlockBegin
  2
*Paper_Space0
 70
     0
 10
0.0
 20
0.0
 30
0.0
  3
*Paper_Space0
  1

  0
ENDBLK
  5
60
330
5D
100
AcDbEntity
  8
0
100
AcDbBlockEnd
  0
ENDSEC
  0
SECTION
  2
ENTITIES
  0
CIRCLE
  5
179
330
1F
100
AcDbEntity
  8
DEFAULT
100
AcDbCircle
 10
0.5119313794313785
 20
2.497915935415936
 30
0.0
 40
0.0625
  0
CIRCLE
  5
17A
330
1F
100
AcDbEntity
  8
DEFAULT
100
AcDbCircle
 10
-0.2380686205686215
 20
2.497915935415936
 30
0.0
 40
0.0625
  0
CIRCLE
  5
17B
330
1F
100
AcDbEntity
  8
DEFAULT
100
AcDbCircle
 10
1.261931379431378
 20
2.497915935415936
 30
0.0
 40
0.0625
  0
CIRCLE
  5
17C
330
1F
100
AcDbEntity
  8
DEFAULT
100
AcDbCircle
 10
2.011931379431378
 20
2.497915935415936
 30
0.0
 40
0.0625
  0
CIRCLE
  5
17D
330
1F
100
AcDbEntity
  8
DEFAULT
100
AcDbCircle
 10
2.761931379431378
 20
2.497915935415936
 30
0.0
 40
0.0625
  0
CIRCLE
  5
17E
330
1F
100
AcDbEntity
  8
DEFAULT
100
AcDbCircle
 10
3.511931379431378
 20
2.497915935415936
 30
0.0
 40
0.0625
  0
CIRCLE
  5
17F
330
1F
100
AcDbEntity
  8
DEFAULT
100
AcDbCircle
 10
4.261931379431378
 20
2.497915935415936
 30
0.0
 40
0.0625
  0
CIRCLE
  5
180
330
1F
100
AcDbEntity
  8
DEFAULT
100
AcDbCircle
 10
5.011931379431378
 20
2.497915935415936
 30
0.0
 40
0.0625
  0
CIRCLE
  5
181
330
1F
100
AcDbEntity
  8
DEFAULT
100
AcDbCircle
 10
5.761931379431378
 20
2.497915935415936
 30
0.0
 40
0.0625
  0
CIRCLE
  5
183
330
1F
100
AcDbEntity
  8
DEFAULT
100
AcDbCircle
 10
7.261931379431378
 20
2.497915935415936
 30
0.0
 40
0.0625
  0
CIRCLE
  5
184
330
1F
100
AcDbEntity
  8
DEFAULT
100
AcDbCircle
 10
6.511931379431378
 20
2.497915935415936
 30
0.0
 40
0.0625
  0
CIRCLE
  5
185
330
1F
100
AcDbEntity
  8
DEFAULT
100
AcDbCircle
 10
8.761931379431378
 20
2.497915935415936
 30
0.0
 40
0.0625
  0
CIRCLE
  5
186
330
1F
100
AcDbEntity
  8
DEFAULT
100
AcDbCircle
 10
5.386931379431378
 20
1.847915935415936
 30
0.0
 40
0.0625
  0
CIRCLE
  5
187
330
1F
100
AcDbEntity
  8
DEFAULT
100
AcDbCircle
 10
4.636931379431378
 20
1.847915935415936
 30
0.0
 40
0.0625
  0
CIRCLE
  5
188
330
1F
100
AcDbEntity
  8
DEFAULT
100
AcDbCircle
 10
3.886931379431378
 20
1.847915935415936
 30
0.0
 40
0.0625
  0
CIRCLE
  5
189
330
1F
100
AcDbEntity
  8
DEFAULT
100
AcDbCircle
 10
4.261931379431378
 20
1.197915935415936
 30
0.0
 40
0.0625
  0
CIRCLE
  5
18A
330
1F
100
AcDbEntity
  8
DEFAULT
100
AcDbCircle
 10
5.011931379431378
 20
1.197915935415936
 30
0.0
 40
0.0625
  0
CIRCLE
  5
18B
330
1F
100
AcDbEntity
  8
DEFAULT
100
AcDbCircle
 10
3.511931379431378
 20
1.197915935415936
 30
0.0
 40
0.0625
  0
CIRCLE
  5
18C
330
1F
100
AcDbEntity
  8
DEFAULT
100
AcDbCircle
 10
3.136931379431378
 20
1.847915935415936
 30
0.0
 40
0.0625
  0
CIRCLE
  5
18D
330
1F
100
AcDbEntity
  8
DEFAULT
100
AcDbCircle
 10
4.636931379431378
 20
0.5479159354159355
 30
0.0
 40
0.0625
  0
CIRCLE
  5
18E
330
1F
100
AcDbEntity
  8
DEFAULT
100
AcDbCircle
 10
3.886931379431378
 20
0.5479159354159355
 30
0.0
 40
0.0625
  0
CIRCLE
  5
18F
330
1F
100
AcDbEntity
  8
DEFAULT
100
AcDbCircle
 10
4.261931379431378
 20
-0.1020840645840648
 30
0.0
 40
0.0625
  0
CIRCLE
  5
190
330
1F
100
AcDbEntity
  8
DEFAULT
100
AcDbCircle
 10
0.8869313794313785
 20
3.147915935415936
 30
0.0
 40
0.0625
  0
CIRCLE
  5
191
330
1F
100
AcDbEntity
  8
DEFAULT
100
AcDbCircle
 10
0.1369313794313785
 20
3.147915935415936
 30
0.0
 40
0.0625
  0
CIRCLE
  5
192
330
1F
100
AcDbEntity
  8
DEFAULT
100
AcDbCircle
 10
1.636931379431378
 20
3.147915935415936
 30
0.0
 40
0.0625
  0
CIRCLE
  5
193
330
1F
100
AcDbEntity
  8
DEFAULT
100
AcDbCircle
 10
2.386931379431378
 20
3.147915935415936
 30
0.0
 40
0.0625
  0
CIRCLE
  5
194
330
1F
100
AcDbEntity
  8
DEFAULT
100
AcDbCircle
 10
3.136931379431378
 20
3.147915935415936
 30
0.0
 40
0.0625
  0
CIRCLE
  5
195
330
1F
100
AcDbEntity
  8
DEFAULT
100
AcDbCircle
 10
3.886931379431378
 20
3.147915935415936
 30
0.0
 40
0.0625
  0
CIRCLE
  5
196
330
1F
100
AcDbEntity
  8
DEFAULT
100
AcDbCircle
 10
4.636931379431378
 20
3.147915935415936
 30
0.0
 40
0.0625
  0
CIRCLE
  5
197
330
1F
100
AcDbEntity
  8
DEFAULT
100
AcDbCircle
 10
5.386931379431378
 20
3.147915935415936
 30
0.0
 40
0.0625
  0
CIRCLE
  5
198
330
1F
100
AcDbEntity
  8
DEFAULT
100
AcDbCircle
 10
6.136931379431378
 20
3.147915935415936
 30
0.0
 40
0.0625
  0
CIRCLE
  5
199
330
1F
100
AcDbEntity
  8
DEFAULT
100
AcDbCircle
 10
8.386931379431378
 20
3.147915935415936
 30
0.0
 40
0.0625
  0
CIRCLE
  5
19A
330
1F
100
AcDbEntity
  8
DEFAULT
100
AcDbCircle
 10
7.636931379431378
 20
3.147915935415936
 30
0.0
 40
0.0625
  0
CIRCLE
  5
19B
330
1F
100
AcDbEntity
  8
DEFAULT
100
AcDbCircle
 10
6.886931379431378
 20
3.147915935415936
 30
0.0
 40
0.0625
  0
CIRCLE
  5
19C
330
1F
100
AcDbEntity
  8
DEFAULT
100
AcDbCircle
 10
1.261931379431378
 20
3.797915935415936
 30
0.0
 40
0.0625
  0
CIRCLE
  5
19D
330
1F
100
AcDbEntity
  8
DEFAULT
100
AcDbCircle
 10
0.5119313794313785
 20
3.797915935415936
 30
0.0
 40
0.0625
  0
CIRCLE
  5
19E
330
1F
100
AcDbEntity
  8
DEFAULT
100
AcDbCircle
 10
2.011931379431378
 20
3.797915935415936
 30
0.0
 40
0.0625
  0
CIRCLE
  5
19F
330
1F
100
AcDbEntity
  8
DEFAULT
100
AcDbCircle
 10
2.761931379431378
 20
3.797915935415936
 30
0.0
 40
0.0625
  0
CIRCLE
  5
1A0
330
1F
100
AcDbEntity
  8
DEFAULT
100
AcDbCircle
 10
3.511931379431378
 20
3.797915935415936
 30
0.0
 40
0.0625
  0
CIRCLE
  5
1A1
330
1F
100
AcDbEntity
  8
DEFAULT
100
AcDbCircle
 10
4.261931379431378
 20
3.797915935415936
 30
0.0
 40
0.0625
  0
CIRCLE
  5
1A2
330
1F
100
AcDbEntity
  8
DEFAULT
100
AcDbCircle
 10
5.011931379431378
 20
3.797915935415936
 30
0.0
 40
0.0625
  0
CIRCLE
  5
1A3
330
1F
100
AcDbEntity
  8
DEFAULT
100
AcDbCircle
 10
5.761931379431378
 20
3.797915935415936
 30
0.0
 40
0.0625
  0
CIRCLE
  5
1A4
330
1F
100
AcDbEntity
  8
DEFAULT
100
AcDbCircle
 10
6.511931379431378
 20
3.797915935415936
 30
0.0
 40
0.0625
  0
CIRCLE
  5
1A5
330
1F
100
AcDbEntity
  8
DEFAULT
100
AcDbCircle
 10
8.011931379431378
 20
3.797915935415936
 30
0.0
 40
0.0625
  0
CIRCLE
  5
1A6
330
1F
100
AcDbEntity
  8
DEFAULT
100
AcDbCircle
 10
7.261931379431378
 20
3.797915935415936
 30
0.0
 40
0.0625
  0
CIRCLE
  5
1A7
330
1F
100
AcDbEntity
  8
DEFAULT
100
AcDbCircle
 10
1.636931379431378
 20
4.447915935415936
 30
0.0
 40
0.0625
  0
CIRCLE
  5
1A8
330
1F
100
AcDbEntity
  8
DEFAULT
100
AcDbCircle
 10
0.8869313794313785
 20
4.447915935415936
 30
0.0
 40
0.0625
  0
CIRCLE
  5
1A9
330
1F
100
AcDbEntity
  8
DEFAULT
100
AcDbCircle
 10
2.386931379431378
 20
4.447915935415936
 30
0.0
 40
0.0625
  0
CIRCLE
  5
1AA
330
1F
100
AcDbEntity
  8
DEFAULT
100
AcDbCircle
 10
3.136931379431378
 20
4.447915935415936
 30
0.0
 40
0.0625
  0
CIRCLE
  5
1AB
330
1F
100
AcDbEntity
  8
DEFAULT
100
AcDbCircle
 10
3.886931379431378
 20
4.447915935415936
 30
0.0
 40
0.0625
  0
CIRCLE
  5
1AC
330
1F
100
AcDbEntity
  8
DEFAULT
100
AcDbCircle
 10
4.636931379431378
 20
4.447915935415936
 30
0.0
 40
0.0625
  0
CIRCLE
  5
1AD
330
1F
100
AcDbEntity
  8
DEFAULT
100
AcDbCircle
 10
5.386931379431378
 20
4.447915935415936
 30
0.0
 40
0.0625
  0
CIRCLE
  5
1AE
330
1F
100
AcDbEntity
  8
DEFAULT
100
AcDbCircle
 10
6.136931379431378
 20
4.447915935415936
 30
0.0
 40
0.0625
  0
CIRCLE
  5
1AF
330
1F
100
AcDbEntity
  8
DEFAULT
100
AcDbCircle
 10
6.886931379431378
 20
4.447915935415936
 30
0.0
 40
0.0625
  0
CIRCLE
  5
1B0
330
1F
100
AcDbEntity
  8
DEFAULT
100
AcDbCircle
 10
7.636931379431378
 20
4.447915935415936
 30
0.0
 40
0.0625
  0
CIRCLE
  5
1B1
330
1F
100
AcDbEntity
  8
DEFAULT
100
AcDbCircle
 10
2.011931379431378
 20
5.097915935415936
 30
0.0
 40
0.0625
  0
CIRCLE
  5
1B2
330
1F
100
AcDbEntity
  8
DEFAULT
100
AcDbCircle
 10
1.261931379431378
 20
5.097915935415936
 30
0.0
 40
0.0625
  0
CIRCLE
  5
1B3
330
1F
100
AcDbEntity
  8
DEFAULT
100
AcDbCircle
 10
2.761931379431378
 20
5.097915935415936
 30
0.0
 40
0.0625
  0
CIRCLE
  5
1B4
330
1F
100
AcDbEntity
  8
DEFAULT
100
AcDbCircle
 10
3.511931379431378
 20
5.097915935415936
 30
0.0
 40
0.0625
  0
CIRCLE
  5
1B5
330
1F
100
AcDbEntity
  8
DEFAULT
100
AcDbCircle
 10
4.261931379431378
 20
5.097915935415936
 30
0.0
 40
0.0625
  0
CIRCLE
  5
1B6
330
1F
100
AcDbEntity
  8
DEFAULT
100
AcDbCircle
 10
5.011931379431378
 20
5.097915935415936
 30
0.0
 40
0.0625
  0
CIRCLE
  5
1B7
330
1F
100
AcDbEntity
  8
DEFAULT
100
AcDbCircle
 10
5.761931379431378
 20
5.097915935415936
 30
0.0
 40
0.0625
  0
CIRCLE
  5
1B8
330
1F
100
AcDbEntity
  8
DEFAULT
100
AcDbCircle
 10
6.511931379431378
 20
5.097915935415936
 30
0.0
 40
0.0625
  0
CIRCLE
  5
1B9
330
1F
100
AcDbEntity
  8
DEFAULT
100
AcDbCircle
 10
7.261931379431378
 20
5.097915935415936
 30
0.0
 40
0.0625
  0
CIRCLE
  5
1BA
330
1F
100
AcDbEntity
  8
DEFAULT
100
AcDbCircle
 10
1.636931379431378
 20
5.747915935415937
 30
0.0
 40
0.0625
  0
CIRCLE
  5
1BB
330
1F
100
AcDbEntity
  8
DEFAULT
100
AcDbCircle
 10
0.8869313794313785
 20
5.747915935415937
 30
0.0
 40
0.0625
  0
CIRCLE
  5
1BC
330
1F
100
AcDbEntity
  8
DEFAULT
100
AcDbCircle
 10
2.386931379431378
 20
5.747915935415937
 30
0.0
 40
0.0625
  0
CIRCLE
  5
1BD
330
1F
100
AcDbEntity
  8
DEFAULT
100
AcDbCircle
 10
3.136931379431378
 20
5.747915935415937
 30
0.0
 40
0.0625
  0
CIRCLE
  5
1BE
330
1F
100
AcDbEntity
  8
DEFAULT
100
AcDbCircle
 10
3.886931379431378
 20
5.747915935415937
 30
0.0
 40
0.0625
  0
CIRCLE
  5
1BF
330
1F
100
AcDbEntity
  8
DEFAULT
100
AcDbCircle
 10
4.636931379431378
 20
5.747915935415937
 30
0.0
 40
0.0625
  0
CIRCLE
  5
1C0
330
1F
100
AcDbEntity
  8
DEFAULT
100
AcDbCircle
 10
5.386931379431378
 20
5.747915935415937
 30
0.0
 40
0.0625
  0
CIRCLE
  5
1C1
330
1F
100
AcDbEntity
  8
DEFAULT
100
AcDbCircle
 10
6.136931379431378
 20
5.747915935415937
 30
0.0
 40
0.0625
  0
CIRCLE
  5
1C2
330
1F
100
AcDbEntity
  8
DEFAULT
100
AcDbCircle
 10
6.886931379431378
 20
5.747915935415937
 30
0.0
 40
0.0625
  0
CIRCLE
  5
1C3
330
1F
100
AcDbEntity
  8
DEFAULT
100
AcDbCircle
 10
7.636931379431378
 20
5.747915935415937
 30
0.0
 40
0.0625
  0
CIRCLE
  5
1C4
330
1F
100
AcDbEntity
  8
DEFAULT
100
AcDbCircle
 10
1.261931379431378
 20
6.397915935415936
 30
0.0
 40
0.0625
  0
CIRCLE
  5
1C5
330
1F
100
AcDbEntity
  8
DEFAULT
100
AcDbCircle
 10
0.5119313794313785
 20
6.397915935415936
 30
0.0
 40
0.0625
  0
CIRCLE
  5
1C6
330
1F
100
AcDbEntity
  8
DEFAULT
100
AcDbCircle
 10
2.011931379431378
 20
6.397915935415936
 30
0.0
 40
0.0625
  0
CIRCLE
  5
1C7
330
1F
100
AcDbEntity
  8
DEFAULT
100
AcDbCircle
 10
2.761931379431378
 20
6.397915935415936
 30
0.0
 40
0.0625
  0
CIRCLE
  5
1C8
330
1F
100
AcDbEntity
  8
DEFAULT
100
AcDbCircle
 10
3.511931379431378
 20
6.397915935415936
 30
0.0
 40
0.0625
  0
CIRCLE
  5
1C9
330
1F
100
AcDbEntity
  8
DEFAULT
100
AcDbCircle
 10
4.261931379431378
 20
6.397915935415936
 30
0.0
 40
0.0625
  0
CIRCLE
  5
1CA
330
1F
100
AcDbEntity
  8
DEFAULT
100
AcDbCircle
 10
5.011931379431378
 20
6.397915935415936
 30
0.0
 40
0.0625
  0
CIRCLE
  5
1CB
330
1F
100
AcDbEntity
  8
DEFAULT
100
AcDbCircle
 10
5.761931379431378
 20
6.397915935415936
 30
0.0
 40
0.0625
  0
CIRCLE
  5
1CC
330
1F
100
AcDbEntity
  8
DEFAULT
100
AcDbCircle
 10
6.511931379431378
 20
6.397915935415936
 30
0.0
 40
0.0625
  0
CIRCLE
  5
1CD
330
1F
100
AcDbEntity
  8
DEFAULT
100
AcDbCircle
 10
8.011931379431378
 20
6.397915935415936
 30
0.0
 40
0.0625
  0
CIRCLE
  5
1CE
330
1F
100
AcDbEntity
  8
DEFAULT
100
AcDbCircle
 10
7.261931379431378
 20
6.397915935415936
 30
0.0
 40
0.0625
  0
CIRCLE
  5
1CF
330
1F
100
AcDbEntity
  8
DEFAULT
100
AcDbCircle
 10
0.8869313794313785
 20
7.047915935415936
 30
0.0
 40
0.0625
  0
CIRCLE
  5
1D0
330
1F
100
AcDbEntity
  8
DEFAULT
100
AcDbCircle
 10
0.1369313794313785
 20
7.047915935415936
 30
0.0
 40
0.0625
  0
CIRCLE
  5
1D1
330
1F
100
AcDbEntity
  8
DEFAULT
100
AcDbCircle
 10
1.636931379431378
 20
7.047915935415936
 30
0.0
 40
0.0625
  0
CIRCLE
  5
1D2
330
1F
100
AcDbEntity
  8
DEFAULT
100
AcDbCircle
 10
2.386931379431378
 20
7.047915935415936
 30
0.0
 40
0.0625
  0
CIRCLE
  5
1D3
330
1F
100
AcDbEntity
  8
DEFAULT
100
AcDbCircle
 10
3.136931379431378
 20
7.047915935415936
 30
0.0
 40
0.0625
  0
CIRCLE
  5
1D4
330
1F
100
AcDbEntity
  8
DEFAULT
100
AcDbCircle
 10
3.886931379431378
 20
7.047915935415936
 30
0.0
 40
0.0625
  0
CIRCLE
  5
1D5
330
1F
100
AcDbEntity
  8
DEFAULT
100
AcDbCircle
 10
4.636931379431378
 20
7.047915935415936
 30
0.0
 40
0.0625
  0
CIRCLE
  5
1D6
330
1F
100
AcDbEntity
  8
DEFAULT
100
AcDbCircle
 10
5.386931379431378
 20
7.047915935415936
 30
0.0
 40
0.0625
  0
CIRCLE
  5
1D7
330
1F
100
AcDbEntity
  8
DEFAULT
100
AcDbCircle
 10
6.136931379431378
 20
7.047915935415936
 30
0.0
 40
0.0625
  0
CIRCLE
  5
1D8
330
1F
100
AcDbEntity
  8
DEFAULT
100
AcDbCircle
 10
8.386931379431378
 20
7.047915935415936
 30
0.0
 40
0.0625
  0
CIRCLE
  5
1D9
330
1F
100
AcDbEntity
  8
DEFAULT
100
AcDbCircle
 10
7.636931379431378
 20
7.047915935415936
 30
0.0
 40
0.0625
  0
CIRCLE
  5
1DA
330
1F
100
AcDbEntity
  8
DEFAULT
100
AcDbCircle
 10
6.886931379431378
 20
7.047915935415936
 30
0.0
 40
0.0625
  0
CIRCLE
  5
1DB
330
1F
100
AcDbEntity
  8
DEFAULT
100
AcDbCircle
 10
0.5119313794313785
 20
7.697915935415937
 30
0.0
 40
0.0625
  0
CIRCLE
  5
1DC
330
1F
100
AcDbEntity
  8
DEFAULT
100
AcDbCircle
 10
-0.2380686205686215
 20
7.697915935415937
 30
0.0
 40
0.0625
  0
CIRCLE
  5
1DD
330
1F
100
AcDbEntity
  8
DEFAULT
100
AcDbCircle
 10
1.261931379431378
 20
7.697915935415937
 30
0.0
 40
0.0625
  0
CIRCLE
  5
1DE
330
1F
100
AcDbEntity
  8
DEFAULT
100
AcDbCircle
 10
2.011931379431378
 20
7.697915935415937
 30
0.0
 40
0.0625
  0
CIRCLE
  5
1DF
330
1F
100
AcDbEntity
  8
DEFAULT
100
AcDbCircle
 10
2.761931379431378
 20
7.697915935415937
 30
0.0
 40
0.0625
  0
CIRCLE
  5
1E0
330
1F
100
AcDbEntity
  8
DEFAULT
100
AcDbCircle
 10
3.511931379431378
 20
7.697915935415937
 30
0.0
 40
0.0625
  0
CIRCLE
  5
1E1
330
1F
100
AcDbEntity
  8
DEFAULT
100
AcDbCircle
 10
4.261931379431378
 20
7.697915935415937
 30
0.0
 40
0.0625
  0
CIRCLE
  5
1E2
330
1F
100
AcDbEntity
  8
DEFAULT
100
AcDbCircle
 10
5.011931379431378
 20
7.697915935415937
 30
0.0
 40
0.0625
  0
CIRCLE
  5
1E3
330
1F
100
AcDbEntity
  8
DEFAULT
100
AcDbCircle
 10
5.761931379431378
 20
7.697915935415937
 30
0.0
 40
0.0625
  0
CIRCLE
  5
1E4
330
1F
100
AcDbEntity
  8
DEFAULT
100
AcDbCircle
 10
8.011931379431378
 20
7.697915935415937
 30
0.0
 40
0.0625
  0
CIRCLE
  5
1E5
330
1F
100
AcDbEntity
  8
DEFAULT
100
AcDbCircle
 10
7.261931379431378
 20
7.697915935415937
 30
0.0
 40
0.0625
  0
CIRCLE
  5
1E6
330
1F
100
AcDbEntity
  8
DEFAULT
100
AcDbCircle
 10
6.511931379431378
 20
7.697915935415937
 30
0.0
 40
0.0625
  0
CIRCLE
  5
1E7
330
1F
100
AcDbEntity
  8
DEFAULT
100
AcDbCircle
 10
8.761931379431378
 20
7.697915935415937
 30
0.0
 40
0.0625
  0
CIRCLE
  5
1E8
330
1F
100
AcDbEntity
  8
DEFAULT
100
AcDbCircle
 10
3.886931379431378
 20
8.347915935415934
 30
0.0
 40
0.0625
  0
CIRCLE
  5
1E9
330
1F
100
AcDbEntity
  8
DEFAULT
100
AcDbCircle
 10
3.136931379431378
 20
8.347915935415934
 30
0.0
 40
0.0625
  0
CIRCLE
  5
1EA
330
1F
100
AcDbEntity
  8
DEFAULT
100
AcDbCircle
 10
4.636931379431378
 20
8.347915935415934
 30
0.0
 40
0.0625
  0
CIRCLE
  5
1EB
330
1F
100
AcDbEntity
  8
DEFAULT
100
AcDbCircle
 10
5.386931379431378
 20
8.347915935415934
 30
0.0
 40
0.0625
  0
CIRCLE
  5
1EC
330
1F
100
AcDbEntity
  8
DEFAULT
100
AcDbCircle
 10
3.886931379431378
 20
9.647915935415934
 30
0.0
 40
0.0625
  0
CIRCLE
  5
1ED
330
1F
100
AcDbEntity
  8
DEFAULT
100
AcDbCircle
 10
4.636931379431378
 20
9.647915935415934
 30
0.0
 40
0.0625
  0
CIRCLE
  5
1EE
330
1F
100
AcDbEntity
  8
DEFAULT
100
AcDbCircle
 10
4.261931379431378
 20
8.997915935415936
 30
0.0
 40
0.0625
  0
CIRCLE
  5
1EF
330
1F
100
AcDbEntity
  8
DEFAULT
100
AcDbCircle
 10
3.511931379431378
 20
8.997915935415936
 30
0.0
 40
0.0625
  0
CIRCLE
  5
1F0
330
1F
100
AcDbEntity
  8
DEFAULT
100
AcDbCircle
 10
5.011931379431378
 20
8.997915935415936
 30
0.0
 40
0.0625
  0
CIRCLE
  5
1F1
330
1F
100
AcDbEntity
  8
DEFAULT
100
AcDbCircle
 10
4.261931379431378
 20
10.29791593541594
 30
0.0
 40
0.0625
  0
RAY
  5
204
330
1F
100
AcDbEntity
  8
0
100
AcDbRay
 10
7518626533875384
 20
-1.303228599205066E+16
 30
0.0
 11
0.4997224534895768
 21
-0.8661855860486005
 31
0.0
  0
LINE
  5
205
330
1F
100
AcDbEntity
  8
0
100
AcDbLine
 10
-0.8003603450735302
 20
2.172915935415936
 30
0.0
 11
2.574639654926469
 21
2.172915935415936
 31
0.0
  0
LINE
  5
206
330
1F
100
AcDbEntity
  8
0
100
AcDbLine
 10
2.574639654926469
 20
2.172915935415936
 30
0.0
 11
5.949223103936284
 21
2.172915935415936
 31
0.0
  0
LINE
  5
207
330
1F
100
AcDbEntity
  8
0
100
AcDbLine
 10
5.949223103936284
 20
2.172915935415936
 30
0.0
 11
9.324223103936285
 21
2.172915935415936
 31
0.0
  0
LINE
  5
208
330
1F
100
AcDbEntity
  8
0
100
AcDbLine
 10
0.887139654926469
 20
5.097915935415935
 30
0.0
 11
2.574639654926469
 21
2.172915935415936
 31
0.0
  0
LINE
  5
209
330
1F
100
AcDbEntity
  8
0
100
AcDbLine
 10
2.574639654926469
 20
2.172915935415936
 30
0.0
 11
4.261931379431374
 21
-0.7517230537258989
 31
0.0
  0
LINE
  5
20A
330
1F
100
AcDbEntity
  8
0
100
AcDbLine
 10
0.887139654926469
 20
5.097915935415935
 30
0.0
 11
-0.8003603450735319
 21
8.022915935415934
 31
0.0
  0
LINE
  5
20B
330
1F
100
AcDbEntity
  8
0
100
AcDbLine
 10
-0.8003603450735319
 20
8.022915935415934
 30
0.0
 11
2.574639654926468
 21
8.022915935415934
 31
0.0
  0
LINE
  5
20C
330
1F
100
AcDbEntity
  8
0
100
AcDbLine
 10
2.574639654926468
 20
8.022915935415934
 30
0.0
 11
5.94922310393629
 21
8.022915935415934
 31
0.0
  0
LINE
  5
20D
330
1F
100
AcDbEntity
  8
0
100
AcDbLine
 10
5.94922310393629
 20
8.022915935415934
 30
0.0
 11
9.324223103936292
 21
8.022915935415934
 31
0.0
  0
LINE
  5
20E
330
1F
100
AcDbEntity
  8
0
100
AcDbLine
 10
9.324223103936292
 20
8.022915935415934
 30
0.0
 11
7.636723103936288
 21
5.097915935415935
 31
0.0
  0
LINE
  5
20F
330
1F
100
AcDbEntity
  8
0
100
AcDbLine
 10
7.636723103936288
 20
5.097915935415935
 30
0.0
 11
5.949223103936284
 21
2.172915935415936
 31
0.0
  0
LINE
  5
210
330
1F
100
AcDbEntity
  8
0
100
AcDbLine
 10
5.949223103936285
 20
2.172915935415936
 30
0.0
 11
4.261931379431374
 21
-0.7517230537258989
 31
0.0
  0
LINE
  5
211
330
1F
100
AcDbEntity
  8
0
100
AcDbLine
 10
-0.8003603450735302
 20
2.172915935415936
 30
0.0
 11
0.887139654926469
 21
5.097915935415935
 31
0.0
  0
LINE
  5
212
330
1F
100
AcDbEntity
  8
0
100
AcDbLine
 10
0.887139654926469
 20
5.097915935415935
 30
0.0
 11
2.574639654926468
 21
8.022915935415934
 31
0.0
  0
LINE
  5
213
330
1F
100
AcDbEntity
  8
0
100
AcDbLine
 10
2.574639654926468
 20
8.022915935415934
 30
0.0
 11
4.261931379431379
 21
10.94755492455778
 31
0.0
  0
LINE
  5
214
330
1F
100
AcDbEntity
  8
0
100
AcDbLine
 10
4.261931379431379
 20
10.94755492455778
 30
0.0
 11
5.94922310393629
 21
8.022915935415934
 31
0.0
  0
LINE
  5
215
330
1F
100
AcDbEntity
  8
0
100
AcDbLine
 10
5.94922310393629
 20
8.022915935415934
 30
0.0
 11
7.636723103936287
 21
5.097915935415934
 31
0.0
  0
LINE
  5
216
330
1F
100
AcDbEntity
  8
0
100
AcDbLine
 10
7.636723103936288
 20
5.097915935415935
 30
0.0
 11
9.324223103936285
 21
2.172915935415936
 31
0.0
  0
LWPOLYLINE
  5
243
330
1F
100
AcDbEntity
  8
0
100
AcDbPolyline
 90
        4
 70
     1
 43
0.0
 10
-1.088976887123879
 20
7.522629206982955
 10
-2.489109882453185
 20
5.095631425275259
 10
-1.089201668284119
 20
2.672813043171157
 10
0.3098961541647908
 20
5.097915935415935
  0
LWPOLYLINE
  5
251
330
1F
100
AcDbEntity
  8
0
100
AcDbPolyline
 90
        4
 70
     1
 43
0.0
 10
3.682806499575148
 20
10.94429386746055
 10
0.8844323046720661
 20
10.94334691513458
 10
-0.511912308068694
 20
8.522915935415934
 10
2.285857692626328
 20
8.522915935415934
  0
LWPOLYLINE
  5
260
330
1F
100
AcDbEntity
  8
0
100
AcDbPolyline
 90
        4
 70
     1
 43
0.0
 10
9.03532232942728
 20
8.522915935415933
 10
7.635473566556628
 20
10.94563142527526
 10
4.840830181611752
 20
10.94468573543205
 10
6.238005066236429
 20
8.522915935415934
  0
LWPOLYLINE
  5
26F
330
1F
100
AcDbEntity
  8
0
100
AcDbPolyline
 90
        4
 70
     1
 43
0.0
 10
9.61283964598663
 20
2.67320266384891
 10
11.01297264131594
 20
5.100200445556614
 10
9.61306442714688
 20
7.523018827660708
 10
8.213966604697966
 20
5.097915935415934
  0
LWPOLYLINE
  5
27E
330
1F
100
AcDbEntity
  8
0
100
AcDbPolyline
 90
        4
 70
     1
 43
0.0
 10
6.238005066236425
 20
1.672915935415936
 10
9.03577506693145
 20
1.672915935415936
 10
7.639430454190691
 20
-0.7475150443027081
 10
4.841056259287603
 20
-0.7484619966286804
  0
LWPOLYLINE
  5
28D
330
1F
100
AcDbEntity
  8
0
100
AcDbPolyline
 90
        4
 70
     1
 43
0.0
 10
3.683032577251009
 20
-0.7488538646001737
 10
0.8883891923061298
 20
-0.7497995544433893
 10
-0.511459570564522
 20
1.672915935415936
 10
2.28585769262633
 20
1.672915935415936
  0
LWPOLYLINE
  5
29C
330
1F
100
AcDbEntity
  8
0
100
AcDbPolyline
 90
        6
 70
     1
 43
0.0
 10
0.3113773498992136
 20
-1.749994868897276
 10
8.217119084050465
 20
-1.747319615338504
 10
12.16767311358263
 20
5.100591188974707
 10
8.212485408963547
 20
11.94582673972915
 10
0.306743674812294
 20
11.94315148617038
 10
-3.643810354719874
 20
5.095240681857168
  0
CIRCLE
  5
2A5
330
1F
100
AcDbEntity
  8
0
100
AcDbCircle
 10
-3.06646011858653
 20
5.095436053566214
 30
0.0
 40
0.125
  0
CIRCLE
  5
2A6
330
1F
100
AcDbEntity
  8
0
100
AcDbCircle
 10
11.59032287744929
 20
5.100395817265659
 30
0.0
 40
0.125
  0
CIRCLE
  5
2A8
330
1F
100
AcDbEntity
  8
0
100
AcDbCircle
 10
4.263089798203106
 20
-1.250190147921894
 30
0.0
 40
0.125
  0
CIRCLE
  5
2A9
330
1F
100
AcDbEntity
  8
0
100
AcDbCircle
 10
4.260772960659646
 20
11.44602201875378
 30
0.0
 40
0.125
  0
CIRCLE
  5
2AC
330
1F
100
AcDbEntity
  8
DEFAULT
100
AcDbCircle
 10
8.011931379431378
 20
2.497915935415936
 30
0.0
 40
0.0625
  0
CIRCLE
  5
2AD
330
1F
100
AcDbEntity
  8
DEFAULT
100
AcDbCircle
 10
-16.43098718848703
 20
2.371160933660935
 30
0.0
 40
0.0625
  0
CIRCLE
  5
2AE
330
1F
100
AcDbEntity
  8
DEFAULT
100
AcDbCircle
 10
-17.18098718848703
 20
2.371160933660935
 30
0.0
 40
0.0625
  0
CIRCLE
  5
2AF
330
1F
100
AcDbEntity
  8
DEFAULT
100
AcDbCircle
 10
-15.68098718848703
 20
2.371160933660935
 30
0.0
 40
0.0625
  0
CIRCLE
  5
2B0
330
1F
100
AcDbEntity
  8
DEFAULT
100
AcDbCircle
 10
-14.93098718848703
 20
2.371160933660935
 30
0.0
 40
0.0625
  0
CIRCLE
  5
2B1
330
1F
100
AcDbEntity
  8
DEFAULT
100
AcDbCircle
 10
-14.18098718848703
 20
2.371160933660935
 30
0.0
 40
0.0625
  0
CIRCLE
  5
2B2
330
1F
100
AcDbEntity
  8
DEFAULT
100
AcDbCircle
 10
-13.43098718848703
 20
2.371160933660935
 30
0.0
 40
0.0625
  0
CIRCLE
  5
2B3
330
1F
100
AcDbEntity
  8
DEFAULT
100
AcDbCircle
 10
-12.68098718848703
 20
2.371160933660935
 30
0.0
 40
0.0625
  0
CIRCLE
  5
2B4
330
1F
100
AcDbEntity
  8
DEFAULT
100
AcDbCircle
 10
-11.93098718848703
 20
2.371160933660935
 30
0.0
 40
0.0625
  0
CIRCLE
  5
2B5
330
1F
100
AcDbEntity
  8
DEFAULT
100
AcDbCircle
 10
-11.18098718848703
 20
2.371160933660935
 30
0.0
 40
0.0625
  0
CIRCLE
  5
2B6
330
1F
100
AcDbEntity
  8
DEFAULT
100
AcDbCircle
 10
-9.680987188487034
 20
2.371160933660935
 30
0.0
 40
0.0625
  0
CIRCLE
  5
2B7
330
1F
100
AcDbEntity
  8
DEFAULT
100
AcDbCircle
 10
-10.43098718848703
 20
2.371160933660935
 30
0.0
 40
0.0625
  0
CIRCLE
  5
2B8
330
1F
100
AcDbEntity
  8
DEFAULT
100
AcDbCircle
 10
-8.180987188487034
 20
2.371160933660935
 30
0.0
 40
0.0625
  0
CIRCLE
  5
2B9
330
1F
100
AcDbEntity
  8
DEFAULT
100
AcDbCircle
 10
-11.55598718848703
 20
1.721160933660935
 30
0.0
 40
0.0625
  0
CIRCLE
  5
2BA
330
1F
100
AcDbEntity
  8
DEFAULT
100
AcDbCircle
 10
-12.30598718848703
 20
1.721160933660935
 30
0.0
 40
0.0625
  0
CIRCLE
  5
2BB
330
1F
100
AcDbEntity
  8
DEFAULT
100
AcDbCircle
 10
-13.05598718848703
 20
1.721160933660935
 30
0.0
 40
0.0625
  0
CIRCLE
  5
2BC
330
1F
100
AcDbEntity
  8
DEFAULT
100
AcDbCircle
 10
-12.68098718848703
 20
1.071160933660935
 30
0.0
 40
0.0625
  0
CIRCLE
  5
2BD
330
1F
100
AcDbEntity
  8
DEFAULT
100
AcDbCircle
 10
-11.93098718848703
 20
1.071160933660935
 30
0.0
 40
0.0625
  0
CIRCLE
  5
2BE
330
1F
100
AcDbEntity
  8
DEFAULT
100
AcDbCircle
 10
-13.43098718848703
 20
1.071160933660935
 30
0.0
 40
0.0625
  0
CIRCLE
  5
2BF
330
1F
100
AcDbEntity
  8
DEFAULT
100
AcDbCircle
 10
-13.80598718848703
 20
1.721160933660935
 30
0.0
 40
0.0625
  0
CIRCLE
  5
2C0
330
1F
100
AcDbEntity
  8
DEFAULT
100
AcDbCircle
 10
-12.30598718848703
 20
0.4211609336609348
 30
0.0
 40
0.0625
  0
CIRCLE
  5
2C1
330
1F
100
AcDbEntity
  8
DEFAULT
100
AcDbCircle
 10
-13.05598718848703
 20
0.4211609336609348
 30
0.0
 40
0.0625
  0
CIRCLE
  5
2C2
330
1F
100
AcDbEntity
  8
DEFAULT
100
AcDbCircle
 10
-12.68098718848703
 20
-0.2288390663390656
 30
0.0
 40
0.0625
  0
CIRCLE
  5
2C3
330
1F
100
AcDbEntity
  8
DEFAULT
100
AcDbCircle
 10
-16.05598718848703
 20
3.021160933660935
 30
0.0
 40
0.0625
  0
CIRCLE
  5
2C4
330
1F
100
AcDbEntity
  8
DEFAULT
100
AcDbCircle
 10
-16.80598718848703
 20
3.021160933660935
 30
0.0
 40
0.0625
  0
CIRCLE
  5
2C5
330
1F
100
AcDbEntity
  8
DEFAULT
100
AcDbCircle
 10
-15.30598718848703
 20
3.021160933660935
 30
0.0
 40
0.0625
  0
CIRCLE
  5
2C6
330
1F
100
AcDbEntity
  8
DEFAULT
100
AcDbCircle
 10
-14.55598718848703
 20
3.021160933660935
 30
0.0
 40
0.0625
  0
CIRCLE
  5
2C7
330
1F
100
AcDbEntity
  8
DEFAULT
100
AcDbCircle
 10
-13.80598718848703
 20
3.021160933660935
 30
0.0
 40
0.0625
  0
CIRCLE
  5
2C8
330
1F
100
AcDbEntity
  8
DEFAULT
100
AcDbCircle
 10
-13.05598718848703
 20
3.021160933660935
 30
0.0
 40
0.0625
  0
CIRCLE
  5
2C9
330
1F
100
AcDbEntity
  8
DEFAULT
100
AcDbCircle
 10
-12.30598718848703
 20
3.021160933660935
 30
0.0
 40
0.0625
  0
CIRCLE
  5
2CA
330
1F
100
AcDbEntity
  8
DEFAULT
100
AcDbCircle
 10
-11.55598718848703
 20
3.021160933660935
 30
0.0
 40
0.0625
  0
CIRCLE
  5
2CB
330
1F
100
AcDbEntity
  8
DEFAULT
100
AcDbCircle
 10
-10.80598718848703
 20
3.021160933660935
 30
0.0
 40
0.0625
  0
CIRCLE
  5
2CC
330
1F
100
AcDbEntity
  8
DEFAULT
100
AcDbCircle
 10
-8.555987188487034
 20
3.021160933660935
 30
0.0
 40
0.0625
  0
CIRCLE
  5
2CD
330
1F
100
AcDbEntity
  8
DEFAULT
100
AcDbCircle
 10
-9.305987188487034
 20
3.021160933660935
 30
0.0
 40
0.0625
  0
CIRCLE
  5
2CE
330
1F
100
AcDbEntity
  8
DEFAULT
100
AcDbCircle
 10
-10.05598718848703
 20
3.021160933660935
 30
0.0
 40
0.0625
  0
CIRCLE
  5
2CF
330
1F
100
AcDbEntity
  8
DEFAULT
100
AcDbCircle
 10
-15.68098718848703
 20
3.671160933660935
 30
0.0
 40
0.0625
  0
CIRCLE
  5
2D0
330
1F
100
AcDbEntity
  8
DEFAULT
100
AcDbCircle
 10
-16.43098718848703
 20
3.671160933660935
 30
0.0
 40
0.0625
  0
CIRCLE
  5
2D1
330
1F
100
AcDbEntity
  8
DEFAULT
100
AcDbCircle
 10
-14.93098718848703
 20
3.671160933660935
 30
0.0
 40
0.0625
  0
CIRCLE
  5
2D2
330
1F
100
AcDbEntity
  8
DEFAULT
100
AcDbCircle
 10
-14.18098718848703
 20
3.671160933660935
 30
0.0
 40
0.0625
  0
CIRCLE
  5
2D3
330
1F
100
AcDbEntity
  8
DEFAULT
100
AcDbCircle
 10
-13.43098718848703
 20
3.671160933660935
 30
0.0
 40
0.0625
  0
CIRCLE
  5
2D4
330
1F
100
AcDbEntity
  8
DEFAULT
100
AcDbCircle
 10
-12.68098718848703
 20
3.671160933660935
 30
0.0
 40
0.0625
  0
CIRCLE
  5
2D5
330
1F
100
AcDbEntity
  8
DEFAULT
100
AcDbCircle
 10
-11.93098718848703
 20
3.671160933660935
 30
0.0
 40
0.0625
  0
CIRCLE
  5
2D6
330
1F
100
AcDbEntity
  8
DEFAULT
100
AcDbCircle
 10
-11.18098718848703
 20
3.671160933660935
 30
0.0
 40
0.0625
  0
CIRCLE
  5
2D7
330
1F
100
AcDbEntity
  8
DEFAULT
100
AcDbCircle
 10
-10.43098718848703
 20
3.671160933660935
 30
0.0
 40
0.0625
  0
CIRCLE
  5
2D8
330
1F
100
AcDbEntity
  8
DEFAULT
100
AcDbCircle
 10
-8.930987188487034
 20
3.671160933660935
 30
0.0
 40
0.0625
  0
CIRCLE
  5
2D9
330
1F
100
AcDbEntity
  8
DEFAULT
100
AcDbCircle
 10
-9.680987188487034
 20
3.671160933660935
 30
0.0
 40
0.0625
  0
CIRCLE
  5
2DA
330
1F
100
AcDbEntity
  8
DEFAULT
100
AcDbCircle
 10
-15.30598718848703
 20
4.321160933660935
 30
0.0
 40
0.0625
  0
CIRCLE
  5
2DB
330
1F
100
AcDbEntity
  8
DEFAULT
100
AcDbCircle
 10
-16.05598718848703
 20
4.321160933660935
 30
0.0
 40
0.0625
  0
CIRCLE
  5
2DC
330
1F
100
AcDbEntity
  8
DEFAULT
100
AcDbCircle
 10
-14.55598718848703
 20
4.321160933660935
 30
0.0
 40
0.0625
  0
CIRCLE
  5
2DD
330
1F
100
AcDbEntity
  8
DEFAULT
100
AcDbCircle
 10
-13.80598718848703
 20
4.321160933660935
 30
0.0
 40
0.0625
  0
CIRCLE
  5
2DE
330
1F
100
AcDbEntity
  8
DEFAULT
100
AcDbCircle
 10
-13.05598718848703
 20
4.321160933660935
 30
0.0
 40
0.0625
  0
CIRCLE
  5
2DF
330
1F
100
AcDbEntity
  8
DEFAULT
100
AcDbCircle
 10
-12.30598718848703
 20
4.321160933660935
 30
0.0
 40
0.0625
  0
CIRCLE
  5
2E0
330
1F
100
AcDbEntity
  8
DEFAULT
100
AcDbCircle
 10
-11.55598718848703
 20
4.321160933660935
 30
0.0
 40
0.0625
  0
CIRCLE
  5
2E1
330
1F
100
AcDbEntity
  8
DEFAULT
100
AcDbCircle
 10
-10.80598718848703
 20
4.321160933660935
 30
0.0
 40
0.0625
  0
CIRCLE
  5
2E2
330
1F
100
AcDbEntity
  8
DEFAULT
100
AcDbCircle
 10
-10.05598718848703
 20
4.321160933660935
 30
0.0
 40
0.0625
  0
CIRCLE
  5
2E3
330
1F
100
AcDbEntity
  8
DEFAULT
100
AcDbCircle
 10
-9.305987188487034
 20
4.321160933660935
 30
0.0
 40
0.0625
  0
CIRCLE
  5
2E4
330
1F
100
AcDbEntity
  8
DEFAULT
100
AcDbCircle
 10
-14.93098718848703
 20
4.971160933660935
 30
0.0
 40
0.0625
  0
CIRCLE
  5
2E5
330
1F
100
AcDbEntity
  8
DEFAULT
100
AcDbCircle
 10
-15.68098718848703
 20
4.971160933660935
 30
0.0
 40
0.0625
  0
CIRCLE
  5
2E6
330
1F
100
AcDbEntity
  8
DEFAULT
100
AcDbCircle
 10
-14.18098718848703
 20
4.971160933660935
 30
0.0
 40
0.0625
  0
CIRCLE
  5
2E7
330
1F
100
AcDbEntity
  8
DEFAULT
100
AcDbCircle
 10
-13.43098718848703
 20
4.971160933660935
 30
0.0
 40
0.0625
  0
CIRCLE
  5
2E8
330
1F
100
AcDbEntity
  8
DEFAULT
100
AcDbCircle
 10
-12.68098718848703
 20
4.971160933660935
 30
0.0
 40
0.0625
  0
CIRCLE
  5
2E9
330
1F
100
AcDbEntity
  8
DEFAULT
100
AcDbCircle
 10
-11.93098718848703
 20
4.971160933660935
 30
0.0
 40
0.0625
  0
CIRCLE
  5
2EA
330
1F
100
AcDbEntity
  8
DEFAULT
100
AcDbCircle
 10
-11.18098718848703
 20
4.971160933660935
 30
0.0
 40
0.0625
  0
CIRCLE
  5
2EB
330
1F
100
AcDbEntity
  8
DEFAULT
100
AcDbCircle
 10
-10.43098718848703
 20
4.971160933660935
 30
0.0
 40
0.0625
  0
CIRCLE
  5
2EC
330
1F
100
AcDbEntity
  8
DEFAULT
100
AcDbCircle
 10
-9.680987188487034
 20
4.971160933660935
 30
0.0
 40
0.0625
  0
CIRCLE
  5
2ED
330
1F
100
AcDbEntity
  8
DEFAULT
100
AcDbCircle
 10
-15.30598718848703
 20
5.621160933660936
 30
0.0
 40
0.0625
  0
CIRCLE
  5
2EE
330
1F
100
AcDbEntity
  8
DEFAULT
100
AcDbCircle
 10
-16.05598718848703
 20
5.621160933660936
 30
0.0
 40
0.0625
  0
CIRCLE
  5
2EF
330
1F
100
AcDbEntity
  8
DEFAULT
100
AcDbCircle
 10
-14.55598718848703
 20
5.621160933660936
 30
0.0
 40
0.0625
  0
CIRCLE
  5
2F0
330
1F
100
AcDbEntity
  8
DEFAULT
100
AcDbCircle
 10
-13.80598718848703
 20
5.621160933660936
 30
0.0
 40
0.0625
  0
CIRCLE
  5
2F1
330
1F
100
AcDbEntity
  8
DEFAULT
100
AcDbCircle
 10
-13.05598718848703
 20
5.621160933660936
 30
0.0
 40
0.0625
  0
CIRCLE
  5
2F2
330
1F
100
AcDbEntity
  8
DEFAULT
100
AcDbCircle
 10
-12.30598718848703
 20
5.621160933660936
 30
0.0
 40
0.0625
  0
CIRCLE
  5
2F3
330
1F
100
AcDbEntity
  8
DEFAULT
100
AcDbCircle
 10
-11.55598718848703
 20
5.621160933660936
 30
0.0
 40
0.0625
  0
CIRCLE
  5
2F4
330
1F
100
AcDbEntity
  8
DEFAULT
100
AcDbCircle
 10
-10.80598718848703
 20
5.621160933660936
 30
0.0
 40
0.0625
  0
CIRCLE
  5
2F5
330
1F
100
AcDbEntity
  8
DEFAULT
100
AcDbCircle
 10
-10.05598718848703
 20
5.621160933660936
 30
0.0
 40
0.0625
  0
CIRCLE
  5
2F6
330
1F
100
AcDbEntity
  8
DEFAULT
100
AcDbCircle
 10
-9.305987188487034
 20
5.621160933660936
 30
0.0
 40
0.0625
  0
CIRCLE
  5
2F7
330
1F
100
AcDbEntity
  8
DEFAULT
100
AcDbCircle
 10
-15.68098718848703
 20
6.271160933660935
 30
0.0
 40
0.0625
  0
CIRCLE
  5
2F8
330
1F
100
AcDbEntity
  8
DEFAULT
100
AcDbCircle
 10
-16.43098718848703
 20
6.271160933660935
 30
0.0
 40
0.0625
  0
CIRCLE
  5
2F9
330
1F
100
AcDbEntity
  8
DEFAULT
100
AcDbCircle
 10
-14.93098718848703
 20
6.271160933660935
 30
0.0
 40
0.0625
  0
CIRCLE
  5
2FA
330
1F
100
AcDbEntity
  8
DEFAULT
100
AcDbCircle
 10
-14.18098718848703
 20
6.271160933660935
 30
0.0
 40
0.0625
  0
CIRCLE
  5
2FB
330
1F
100
AcDbEntity
  8
DEFAULT
100
AcDbCircle
 10
-13.43098718848703
 20
6.271160933660935
 30
0.0
 40
0.0625
  0
CIRCLE
  5
2FC
330
1F
100
AcDbEntity
  8
DEFAULT
100
AcDbCircle
 10
-12.68098718848703
 20
6.271160933660935
 30
0.0
 40
0.0625
  0
CIRCLE
  5
2FD
330
1F
100
AcDbEntity
  8
DEFAULT
100
AcDbCircle
 10
-11.93098718848703
 20
6.271160933660935
 30
0.0
 40
0.0625
  0
CIRCLE
  5
2FE
330
1F
100
AcDbEntity
  8
DEFAULT
100
AcDbCircle
 10
-11.18098718848703
 20
6.271160933660935
 30
0.0
 40
0.0625
  0
CIRCLE
  5
2FF
330
1F
100
AcDbEntity
  8
DEFAULT
100
AcDbCircle
 10
-10.43098718848703
 20
6.271160933660935
 30
0.0
 40
0.0625
  0
CIRCLE
  5
300
330
1F
100
AcDbEntity
  8
DEFAULT
100
AcDbCircle
 10
-8.930987188487034
 20
6.271160933660935
 30
0.0
 40
0.0625
  0
CIRCLE
  5
301
330
1F
100
AcDbEntity
  8
DEFAULT
100
AcDbCircle
 10
-9.680987188487034
 20
6.271160933660935
 30
0.0
 40
0.0625
  0
CIRCLE
  5
302
330
1F
100
AcDbEntity
  8
DEFAULT
100
AcDbCircle
 10
-16.05598718848703
 20
6.921160933660936
 30
0.0
 40
0.0625
  0
CIRCLE
  5
303
330
1F
100
AcDbEntity
  8
DEFAULT
100
AcDbCircle
 10
-16.80598718848703
 20
6.921160933660936
 30
0.0
 40
0.0625
  0
CIRCLE
  5
304
330
1F
100
AcDbEntity
  8
DEFAULT
100
AcDbCircle
 10
-15.30598718848703
 20
6.921160933660936
 30
0.0
 40
0.0625
  0
CIRCLE
  5
305
330
1F
100
AcDbEntity
  8
DEFAULT
100
AcDbCircle
 10
-14.55598718848703
 20
6.921160933660936
 30
0.0
 40
0.0625
  0
CIRCLE
  5
306
330
1F
100
AcDbEntity
  8
DEFAULT
100
AcDbCircle
 10
-13.80598718848703
 20
6.921160933660936
 30
0.0
 40
0.0625
  0
CIRCLE
  5
307
330
1F
100
AcDbEntity
  8
DEFAULT
100
AcDbCircle
 10
-13.05598718848703
 20
6.921160933660936
 30
0.0
 40
0.0625
  0
CIRCLE
  5
308
330
1F
100
AcDbEntity
  8
DEFAULT
100
AcDbCircle
 10
-12.30598718848703
 20
6.921160933660936
 30
0.0
 40
0.0625
  0
CIRCLE
  5
309
330
1F
100
AcDbEntity
  8
DEFAULT
100
AcDbCircle
 10
-11.55598718848703
 20
6.921160933660936
 30
0.0
 40
0.0625
  0
CIRCLE
  5
30A
330
1F
100
AcDbEntity
  8
DEFAULT
100
AcDbCircle
 10
-10.80598718848703
 20
6.921160933660936
 30
0.0
 40
0.0625
  0
CIRCLE
  5
30B
330
1F
100
AcDbEntity
  8
DEFAULT
100
AcDbCircle
 10
-8.555987188487034
 20
6.921160933660936
 30
0.0
 40
0.0625
  0
CIRCLE
  5
30C
330
1F
100
AcDbEntity
  8
DEFAULT
100
AcDbCircle
 10
-9.305987188487034
 20
6.921160933660936
 30
0.0
 40
0.0625
  0
CIRCLE
  5
30D
330
1F
100
AcDbEntity
  8
DEFAULT
100
AcDbCircle
 10
-10.05598718848703
 20
6.921160933660936
 30
0.0
 40
0.0625
  0
CIRCLE
  5
30E
330
1F
100
AcDbEntity
  8
DEFAULT
100
AcDbCircle
 10
-16.43098718848703
 20
7.571160933660936
 30
0.0
 40
0.0625
  0
CIRCLE
  5
30F
330
1F
100
AcDbEntity
  8
DEFAULT
100
AcDbCircle
 10
-17.18098718848703
 20
7.571160933660936
 30
0.0
 40
0.0625
  0
CIRCLE
  5
310
330
1F
100
AcDbEntity
  8
DEFAULT
100
AcDbCircle
 10
-15.68098718848703
 20
7.571160933660936
 30
0.0
 40
0.0625
  0
CIRCLE
  5
311
330
1F
100
AcDbEntity
  8
DEFAULT
100
AcDbCircle
 10
-14.93098718848703
 20
7.571160933660936
 30
0.0
 40
0.0625
  0
CIRCLE
  5
312
330
1F
100
AcDbEntity
  8
DEFAULT
100
AcDbCircle
 10
-14.18098718848703
 20
7.571160933660936
 30
0.0
 40
0.0625
  0
CIRCLE
  5
313
330
1F
100
AcDbEntity
  8
DEFAULT
100
AcDbCircle
 10
-13.43098718848703
 20
7.571160933660936
 30
0.0
 40
0.0625
  0
CIRCLE
  5
314
330
1F
100
AcDbEntity
  8
DEFAULT
100
AcDbCircle
 10
-12.68098718848703
 20
7.571160933660936
 30
0.0
 40
0.0625
  0
CIRCLE
  5
315
330
1F
100
AcDbEntity
  8
DEFAULT
100
AcDbCircle
 10
-11.93098718848703
 20
7.571160933660936
 30
0.0
 40
0.0625
  0
CIRCLE
  5
316
330
1F
100
AcDbEntity
  8
DEFAULT
100
AcDbCircle
 10
-11.18098718848703
 20
7.571160933660936
 30
0.0
 40
0.0625
  0
CIRCLE
  5
317
330
1F
100
AcDbEntity
  8
DEFAULT
100
AcDbCircle
 10
-8.930987188487034
 20
7.571160933660936
 30
0.0
 40
0.0625
  0
CIRCLE
  5
318
330
1F
100
AcDbEntity
  8
DEFAULT
100
AcDbCircle
 10
-9.680987188487034
 20
7.571160933660936
 30
0.0
 40
0.0625
  0
CIRCLE
  5
319
330
1F
100
AcDbEntity
  8
DEFAULT
100
AcDbCircle
 10
-10.43098718848703
 20
7.571160933660936
 30
0.0
 40
0.0625
  0
CIRCLE
  5
31A
330
1F
100
AcDbEntity
  8
DEFAULT
100
AcDbCircle
 10
-8.180987188487034
 20
7.571160933660936
 30
0.0
 40
0.0625
  0
CIRCLE
  5
31B
330
1F
100
AcDbEntity
  8
DEFAULT
100
AcDbCircle
 10
-13.05598718848703
 20
8.221160933660933
 30
0.0
 40
0.0625
  0
CIRCLE
  5
31C
330
1F
100
AcDbEntity
  8
DEFAULT
100
AcDbCircle
 10
-13.80598718848703
 20
8.221160933660933
 30
0.0
 40
0.0625
  0
CIRCLE
  5
31D
330
1F
100
AcDbEntity
  8
DEFAULT
100
AcDbCircle
 10
-12.30598718848703
 20
8.221160933660933
 30
0.0
 40
0.0625
  0
CIRCLE
  5
31E
330
1F
100
AcDbEntity
  8
DEFAULT
100
AcDbCircle
 10
-11.55598718848703
 20
8.221160933660933
 30
0.0
 40
0.0625
  0
CIRCLE
  5
31F
330
1F
100
AcDbEntity
  8
DEFAULT
100
AcDbCircle
 10
-13.05598718848703
 20
9.521160933660934
 30
0.0
 40
0.0625
  0
CIRCLE
  5
320
330
1F
100
AcDbEntity
  8
DEFAULT
100
AcDbCircle
 10
-12.30598718848703
 20
9.521160933660934
 30
0.0
 40
0.0625
  0
CIRCLE
  5
321
330
1F
100
AcDbEntity
  8
DEFAULT
100
AcDbCircle
 10
-12.68098718848703
 20
8.871160933660935
 30
0.0
 40
0.0625
  0
CIRCLE
  5
322
330
1F
100
AcDbEntity
  8
DEFAULT
100
AcDbCircle
 10
-13.43098718848703
 20
8.871160933660935
 30
0.0
 40
0.0625
  0
CIRCLE
  5
323
330
1F
100
AcDbEntity
  8
DEFAULT
100
AcDbCircle
 10
-11.93098718848703
 20
8.871160933660935
 30
0.0
 40
0.0625
  0
CIRCLE
  5
324
330
1F
100
AcDbEntity
  8
DEFAULT
100
AcDbCircle
 10
-12.68098718848703
 20
10.17116093366094
 30
0.0
 40
0.0625
  0
LINE
  5
325
330
1F
100
AcDbEntity
  8
0
100
AcDbLine
 10
-17.74327891299194
 20
2.046160933660935
 30
0.0
 11
-14.36827891299194
 21
2.046160933660935
 31
0.0
  0
LINE
  5
326
330
1F
100
AcDbEntity
  8
0
100
AcDbLine
 10
-14.36827891299194
 20
2.046160933660935
 30
0.0
 11
-10.99369546398213
 21
2.046160933660935
 31
0.0
  0
LINE
  5
327
330
1F
100
AcDbEntity
  8
0
100
AcDbLine
 10
-10.99369546398213
 20
2.046160933660935
 30
0.0
 11
-7.618695463982126
 21
2.046160933660935
 31
0.0
  0
LINE
  5
328
330
1F
100
AcDbEntity
  8
0
100
AcDbLine
 10
-16.05577891299194
 20
4.971160933660935
 30
0.0
 11
-14.36827891299194
 21
2.046160933660935
 31
0.0
  0
LINE
  5
329
330
1F
100
AcDbEntity
  8
0
100
AcDbLine
 10
-14.36827891299194
 20
2.046160933660935
 30
0.0
 11
-12.68098718848704
 21
-0.8784780554808996
 31
0.0
  0
LINE
  5
32A
330
1F
100
AcDbEntity
  8
0
100
AcDbLine
 10
-16.05577891299194
 20
4.971160933660935
 30
0.0
 11
-17.74327891299194
 21
7.896160933660934
 31
0.0
  0
LINE
  5
32B
330
1F
100
AcDbEntity
  8
0
100
AcDbLine
 10
-17.74327891299194
 20
7.896160933660934
 30
0.0
 11
-14.36827891299194
 21
7.896160933660934
 31
0.0
  0
LINE
  5
32C
330
1F
100
AcDbEntity
  8
0
100
AcDbLine
 10
-14.36827891299194
 20
7.896160933660934
 30
0.0
 11
-10.99369546398212
 21
7.896160933660934
 31
0.0
  0
LINE
  5
32D
330
1F
100
AcDbEntity
  8
0
100
AcDbLine
 10
-10.99369546398212
 20
7.896160933660934
 30
0.0
 11
-7.618695463982119
 21
7.896160933660934
 31
0.0
  0
LINE
  5
32E
330
1F
100
AcDbEntity
  8
0
100
AcDbLine
 10
-7.618695463982119
 20
7.896160933660934
 30
0.0
 11
-9.306195463982124
 21
4.971160933660935
 31
0.0
  0
LINE
  5
32F
330
1F
100
AcDbEntity
  8
0
100
AcDbLine
 10
-9.306195463982124
 20
4.971160933660935
 30
0.0
 11
-10.99369546398213
 21
2.046160933660935
 31
0.0
  0
LINE
  5
330
330
1F
100
AcDbEntity
  8
0
100
AcDbLine
 10
-10.99369546398213
 20
2.046160933660935
 30
0.0
 11
-12.68098718848704
 21
-0.8784780554808996
 31
0.0
  0
LINE
  5
331
330
1F
100
AcDbEntity
  8
0
100
AcDbLine
 10
-17.74327891299194
 20
2.046160933660935
 30
0.0
 11
-16.05577891299194
 21
4.971160933660935
 31
0.0
  0
LINE
  5
332
330
1F
100
AcDbEntity
  8
0
100
AcDbLine
 10
-16.05577891299194
 20
4.971160933660935
 30
0.0
 11
-14.36827891299194
 21
7.896160933660934
 31
0.0
  0
LINE
  5
333
330
1F
100
AcDbEntity
  8
0
100
AcDbLine
 10
-14.36827891299194
 20
7.896160933660934
 30
0.0
 11
-12.68098718848703
 21
10.82079992280278
 31
0.0
  0
LINE
  5
334
330
1F
100
AcDbEntity
  8
0
100
AcDbLine
 10
-12.68098718848703
 20
10.82079992280278
 30
0.0
 11
-10.99369546398212
 21
7.896160933660934
 31
0.0
  0
LINE
  5
335
330
1F
100
AcDbEntity
  8
0
100
AcDbLine
 10
-10.99369546398212
 20
7.896160933660934
 30
0.0
 11
-9.306195463982124
 21
4.971160933660933
 31
0.0
  0
LINE
  5
336
330
1F
100
AcDbEntity
  8
0
100
AcDbLine
 10
-9.306195463982124
 20
4.971160933660935
 30
0.0
 11
-7.618695463982126
 21
2.046160933660935
 31
0.0
  0
CIRCLE
  5
342
330
1F
100
AcDbEntity
  8
DEFAULT
100
AcDbCircle
 10
-8.930987188487034
 20
2.371160933660935
 30
0.0
 40
0.0625
  0
LWPOLYLINE
  5
344
330
1F
100
AcDbEntity
  8
0
100
AcDbPolyline
 90
        6
 70
     1
 43
0.0
 10
-12.68316100401311
 20
11.39508440458327
 10
-18.24535501403592
 20
8.181240089653384
 10
-18.24318119850985
 20
1.757316618731052
 10
-12.67881337296096
 20
-1.452762537261399
 10
-7.116619362938152
 20
1.761081777668486
 10
-7.11879317846422
 20
8.18500524859082
  0
CIRCLE
  5
345
330
1F
100
AcDbEntity
  8
DEFAULT
100
AcDbCircle
 10
-9.512276676026593
 20
-10.30433924183911
 30
0.0
 40
0.0625
  0
CIRCLE
  5
346
330
1F
100
AcDbEntity
  8
DEFAULT
100
AcDbCircle
 10
-10.26227667602659
 20
-10.30433924183911
 30
0.0
 40
0.0625
  0
CIRCLE
  5
347
330
1F
100
AcDbEntity
  8
DEFAULT
100
AcDbCircle
 10
-8.762276676026593
 20
-10.30433924183911
 30
0.0
 40
0.0625
  0
CIRCLE
  5
348
330
1F
100
AcDbEntity
  8
DEFAULT
100
AcDbCircle
 10
-8.012276676026593
 20
-10.30433924183911
 30
0.0
 40
0.0625
  0
CIRCLE
  5
349
330
1F
100
AcDbEntity
  8
DEFAULT
100
AcDbCircle
 10
-7.262276676026593
 20
-10.30433924183911
 30
0.0
 40
0.0625
  0
CIRCLE
  5
34A
330
1F
100
AcDbEntity
  8
DEFAULT
100
AcDbCircle
 10
-6.512276676026593
 20
-10.30433924183911
 30
0.0
 40
0.0625
  0
CIRCLE
  5
34B
330
1F
100
AcDbEntity
  8
DEFAULT
100
AcDbCircle
 10
-5.762276676026593
 20
-10.30433924183911
 30
0.0
 40
0.0625
  0
CIRCLE
  5
34C
330
1F
100
AcDbEntity
  8
DEFAULT
100
AcDbCircle
 10
-5.012276676026593
 20
-10.30433924183911
 30
0.0
 40
0.0625
  0
CIRCLE
  5
34D
330
1F
100
AcDbEntity
  8
DEFAULT
100
AcDbCircle
 10
-4.262276676026593
 20
-10.30433924183911
 30
0.0
 40
0.0625
  0
CIRCLE
  5
34E
330
1F
100
AcDbEntity
  8
DEFAULT
100
AcDbCircle
 10
-2.762276676026593
 20
-10.30433924183911
 30
0.0
 40
0.0625
  0
CIRCLE
  5
34F
330
1F
100
AcDbEntity
  8
DEFAULT
100
AcDbCircle
 10
-3.512276676026593
 20
-10.30433924183911
 30
0.0
 40
0.0625
  0
CIRCLE
  5
350
330
1F
100
AcDbEntity
  8
DEFAULT
100
AcDbCircle
 10
-1.262276676026593
 20
-10.30433924183911
 30
0.0
 40
0.0625
  0
CIRCLE
  5
351
330
1F
100
AcDbEntity
  8
DEFAULT
100
AcDbCircle
 10
-4.637276676026593
 20
-10.95433924183911
 30
0.0
 40
0.0625
  0
CIRCLE
  5
352
330
1F
100
AcDbEntity
  8
DEFAULT
100
AcDbCircle
 10
-5.387276676026593
 20
-10.95433924183911
 30
0.0
 40
0.0625
  0
CIRCLE
  5
353
330
1F
100
AcDbEntity
  8
DEFAULT
100
AcDbCircle
 10
-6.137276676026593
 20
-10.95433924183911
 30
0.0
 40
0.0625
  0
CIRCLE
  5
354
330
1F
100
AcDbEntity
  8
DEFAULT
100
AcDbCircle
 10
-5.762276676026593
 20
-11.60433924183911
 30
0.0
 40
0.0625
  0
CIRCLE
  5
355
330
1F
100
AcDbEntity
  8
DEFAULT
100
AcDbCircle
 10
-5.012276676026593
 20
-11.60433924183911
 30
0.0
 40
0.0625
  0
CIRCLE
  5
356
330
1F
100
AcDbEntity
  8
DEFAULT
100
AcDbCircle
 10
-6.512276676026593
 20
-11.60433924183911
 30
0.0
 40
0.0625
  0
CIRCLE
  5
357
330
1F
100
AcDbEntity
  8
DEFAULT
100
AcDbCircle
 10
-6.887276676026593
 20
-10.95433924183911
 30
0.0
 40
0.0625
  0
CIRCLE
  5
358
330
1F
100
AcDbEntity
  8
DEFAULT
100
AcDbCircle
 10
-5.387276676026593
 20
-12.25433924183911
 30
0.0
 40
0.0625
  0
CIRCLE
  5
359
330
1F
100
AcDbEntity
  8
DEFAULT
100
AcDbCircle
 10
-6.137276676026593
 20
-12.25433924183911
 30
0.0
 40
0.0625
  0
CIRCLE
  5
35A
330
1F
100
AcDbEntity
  8
DEFAULT
100
AcDbCircle
 10
-5.762276676026593
 20
-12.90433924183911
 30
0.0
 40
0.0625
  0
CIRCLE
  5
35B
330
1F
100
AcDbEntity
  8
DEFAULT
100
AcDbCircle
 10
-9.137276676026593
 20
-9.654339241839107
 30
0.0
 40
0.0625
  0
CIRCLE
  5
35C
330
1F
100
AcDbEntity
  8
DEFAULT
100
AcDbCircle
 10
-9.887276676026593
 20
-9.654339241839107
 30
0.0
 40
0.0625
  0
CIRCLE
  5
35D
330
1F
100
AcDbEntity
  8
DEFAULT
100
AcDbCircle
 10
-8.387276676026593
 20
-9.654339241839107
 30
0.0
 40
0.0625
  0
CIRCLE
  5
35E
330
1F
100
AcDbEntity
  8
DEFAULT
100
AcDbCircle
 10
-7.637276676026593
 20
-9.654339241839107
 30
0.0
 40
0.0625
  0
CIRCLE
  5
35F
330
1F
100
AcDbEntity
  8
DEFAULT
100
AcDbCircle
 10
-6.887276676026593
 20
-9.654339241839107
 30
0.0
 40
0.0625
  0
CIRCLE
  5
360
330
1F
100
AcDbEntity
  8
DEFAULT
100
AcDbCircle
 10
-6.137276676026593
 20
-9.654339241839107
 30
0.0
 40
0.0625
  0
CIRCLE
  5
361
330
1F
100
AcDbEntity
  8
DEFAULT
100
AcDbCircle
 10
-5.387276676026593
 20
-9.654339241839107
 30
0.0
 40
0.0625
  0
CIRCLE
  5
362
330
1F
100
AcDbEntity
  8
DEFAULT
100
AcDbCircle
 10
-4.637276676026593
 20
-9.654339241839107
 30
0.0
 40
0.0625
  0
CIRCLE
  5
363
330
1F
100
AcDbEntity
  8
DEFAULT
100
AcDbCircle
 10
-3.887276676026593
 20
-9.654339241839107
 30
0.0
 40
0.0625
  0
CIRCLE
  5
364
330
1F
100
AcDbEntity
  8
DEFAULT
100
AcDbCircle
 10
-1.637276676026593
 20
-9.654339241839107
 30
0.0
 40
0.0625
  0
CIRCLE
  5
365
330
1F
100
AcDbEntity
  8
DEFAULT
100
AcDbCircle
 10
-2.387276676026593
 20
-9.654339241839107
 30
0.0
 40
0.0625
  0
CIRCLE
  5
366
330
1F
100
AcDbEntity
  8
DEFAULT
100
AcDbCircle
 10
-3.137276676026593
 20
-9.654339241839107
 30
0.0
 40
0.0625
  0
CIRCLE
  5
367
330
1F
100
AcDbEntity
  8
DEFAULT
100
AcDbCircle
 10
-8.762276676026593
 20
-9.004339241839107
 30
0.0
 40
0.0625
  0
CIRCLE
  5
368
330
1F
100
AcDbEntity
  8
DEFAULT
100
AcDbCircle
 10
-9.512276676026593
 20
-9.004339241839107
 30
0.0
 40
0.0625
  0
CIRCLE
  5
369
330
1F
100
AcDbEntity
  8
DEFAULT
100
AcDbCircle
 10
-8.012276676026593
 20
-9.004339241839107
 30
0.0
 40
0.0625
  0
CIRCLE
  5
36A
330
1F
100
AcDbEntity
  8
DEFAULT
100
AcDbCircle
 10
-7.262276676026593
 20
-9.004339241839107
 30
0.0
 40
0.0625
  0
CIRCLE
  5
36B
330
1F
100
AcDbEntity
  8
DEFAULT
100
AcDbCircle
 10
-6.512276676026593
 20
-9.004339241839107
 30
0.0
 40
0.0625
  0
CIRCLE
  5
36C
330
1F
100
AcDbEntity
  8
DEFAULT
100
AcDbCircle
 10
-5.762276676026593
 20
-9.004339241839107
 30
0.0
 40
0.0625
  0
CIRCLE
  5
36D
330
1F
100
AcDbEntity
  8
DEFAULT
100
AcDbCircle
 10
-5.012276676026593
 20
-9.004339241839107
 30
0.0
 40
0.0625
  0
CIRCLE
  5
36E
330
1F
100
AcDbEntity
  8
DEFAULT
100
AcDbCircle
 10
-4.262276676026593
 20
-9.004339241839107
 30
0.0
 40
0.0625
  0
CIRCLE
  5
36F
330
1F
100
AcDbEntity
  8
DEFAULT
100
AcDbCircle
 10
-3.512276676026593
 20
-9.004339241839107
 30
0.0
 40
0.0625
  0
CIRCLE
  5
370
330
1F
100
AcDbEntity
  8
DEFAULT
100
AcDbCircle
 10
-2.012276676026593
 20
-9.004339241839107
 30
0.0
 40
0.0625
  0
CIRCLE
  5
371
330
1F
100
AcDbEntity
  8
DEFAULT
100
AcDbCircle
 10
-2.762276676026593
 20
-9.004339241839107
 30
0.0
 40
0.0625
  0
CIRCLE
  5
372
330
1F
100
AcDbEntity
  8
DEFAULT
100
AcDbCircle
 10
-8.387276676026593
 20
-8.354339241839106
 30
0.0
 40
0.0625
  0
CIRCLE
  5
373
330
1F
100
AcDbEntity
  8
DEFAULT
100
AcDbCircle
 10
-9.137276676026593
 20
-8.354339241839106
 30
0.0
 40
0.0625
  0
CIRCLE
  5
374
330
1F
100
AcDbEntity
  8
DEFAULT
100
AcDbCircle
 10
-7.637276676026593
 20
-8.354339241839106
 30
0.0
 40
0.0625
  0
CIRCLE
  5
375
330
1F
100
AcDbEntity
  8
DEFAULT
100
AcDbCircle
 10
-6.887276676026593
 20
-8.354339241839106
 30
0.0
 40
0.0625
  0
CIRCLE
  5
376
330
1F
100
AcDbEntity
  8
DEFAULT
100
AcDbCircle
 10
-6.137276676026593
 20
-8.354339241839106
 30
0.0
 40
0.0625
  0
CIRCLE
  5
377
330
1F
100
AcDbEntity
  8
DEFAULT
100
AcDbCircle
 10
-5.387276676026593
 20
-8.354339241839106
 30
0.0
 40
0.0625
  0
CIRCLE
  5
378
330
1F
100
AcDbEntity
  8
DEFAULT
100
AcDbCircle
 10
-4.637276676026593
 20
-8.354339241839106
 30
0.0
 40
0.0625
  0
CIRCLE
  5
379
330
1F
100
AcDbEntity
  8
DEFAULT
100
AcDbCircle
 10
-3.887276676026593
 20
-8.354339241839106
 30
0.0
 40
0.0625
  0
CIRCLE
  5
37A
330
1F
100
AcDbEntity
  8
DEFAULT
100
AcDbCircle
 10
-3.137276676026593
 20
-8.354339241839106
 30
0.0
 40
0.0625
  0
CIRCLE
  5
37B
330
1F
100
AcDbEntity
  8
DEFAULT
100
AcDbCircle
 10
-2.387276676026593
 20
-8.354339241839106
 30
0.0
 40
0.0625
  0
CIRCLE
  5
37C
330
1F
100
AcDbEntity
  8
DEFAULT
100
AcDbCircle
 10
-8.012276676026593
 20
-7.704339241839107
 30
0.0
 40
0.0625
  0
CIRCLE
  5
37D
330
1F
100
AcDbEntity
  8
DEFAULT
100
AcDbCircle
 10
-8.762276676026593
 20
-7.704339241839107
 30
0.0
 40
0.0625
  0
CIRCLE
  5
37E
330
1F
100
AcDbEntity
  8
DEFAULT
100
AcDbCircle
 10
-7.262276676026593
 20
-7.704339241839107
 30
0.0
 40
0.0625
  0
CIRCLE
  5
37F
330
1F
100
AcDbEntity
  8
DEFAULT
100
AcDbCircle
 10
-6.512276676026593
 20
-7.704339241839107
 30
0.0
 40
0.0625
  0
CIRCLE
  5
380
330
1F
100
AcDbEntity
  8
DEFAULT
100
AcDbCircle
 10
-5.762276676026593
 20
-7.704339241839107
 30
0.0
 40
0.0625
  0
CIRCLE
  5
381
330
1F
100
AcDbEntity
  8
DEFAULT
100
AcDbCircle
 10
-5.012276676026593
 20
-7.704339241839107
 30
0.0
 40
0.0625
  0
CIRCLE
  5
382
330
1F
100
AcDbEntity
  8
DEFAULT
100
AcDbCircle
 10
-4.262276676026593
 20
-7.704339241839107
 30
0.0
 40
0.0625
  0
CIRCLE
  5
383
330
1F
100
AcDbEntity
  8
DEFAULT
100
AcDbCircle
 10
-3.512276676026593
 20
-7.704339241839107
 30
0.0
 40
0.0625
  0
CIRCLE
  5
384
330
1F
100
AcDbEntity
  8
DEFAULT
100
AcDbCircle
 10
-2.762276676026593
 20
-7.704339241839107
 30
0.0
 40
0.0625
  0
CIRCLE
  5
385
330
1F
100
AcDbEntity
  8
DEFAULT
100
AcDbCircle
 10
-8.387276676026593
 20
-7.054339241839107
 30
0.0
 40
0.0625
  0
CIRCLE
  5
386
330
1F
100
AcDbEntity
  8
DEFAULT
100
AcDbCircle
 10
-9.137276676026593
 20
-7.054339241839107
 30
0.0
 40
0.0625
  0
CIRCLE
  5
387
330
1F
100
AcDbEntity
  8
DEFAULT
100
AcDbCircle
 10
-7.637276676026593
 20
-7.054339241839107
 30
0.0
 40
0.0625
  0
CIRCLE
  5
388
330
1F
100
AcDbEntity
  8
DEFAULT
100
AcDbCircle
 10
-6.887276676026593
 20
-7.054339241839107
 30
0.0
 40
0.0625
  0
CIRCLE
  5
389
330
1F
100
AcDbEntity
  8
DEFAULT
100
AcDbCircle
 10
-6.137276676026593
 20
-7.054339241839107
 30
0.0
 40
0.0625
  0
CIRCLE
  5
38A
330
1F
100
AcDbEntity
  8
DEFAULT
100
AcDbCircle
 10
-5.387276676026593
 20
-7.054339241839107
 30
0.0
 40
0.0625
  0
CIRCLE
  5
38B
330
1F
100
AcDbEntity
  8
DEFAULT
100
AcDbCircle
 10
-4.637276676026593
 20
-7.054339241839107
 30
0.0
 40
0.0625
  0
CIRCLE
  5
38C
330
1F
100
AcDbEntity
  8
DEFAULT
100
AcDbCircle
 10
-3.887276676026593
 20
-7.054339241839107
 30
0.0
 40
0.0625
  0
CIRCLE
  5
38D
330
1F
100
AcDbEntity
  8
DEFAULT
100
AcDbCircle
 10
-3.137276676026593
 20
-7.054339241839107
 30
0.0
 40
0.0625
  0
CIRCLE
  5
38E
330
1F
100
AcDbEntity
  8
DEFAULT
100
AcDbCircle
 10
-2.387276676026593
 20
-7.054339241839107
 30
0.0
 40
0.0625
  0
CIRCLE
  5
38F
330
1F
100
AcDbEntity
  8
DEFAULT
100
AcDbCircle
 10
-8.762276676026593
 20
-6.404339241839107
 30
0.0
 40
0.0625
  0
CIRCLE
  5
390
330
1F
100
AcDbEntity
  8
DEFAULT
100
AcDbCircle
 10
-9.512276676026593
 20
-6.404339241839107
 30
0.0
 40
0.0625
  0
CIRCLE
  5
391
330
1F
100
AcDbEntity
  8
DEFAULT
100
AcDbCircle
 10
-8.012276676026593
 20
-6.404339241839107
 30
0.0
 40
0.0625
  0
CIRCLE
  5
392
330
1F
100
AcDbEntity
  8
DEFAULT
100
AcDbCircle
 10
-7.262276676026593
 20
-6.404339241839107
 30
0.0
 40
0.0625
  0
CIRCLE
  5
393
330
1F
100
AcDbEntity
  8
DEFAULT
100
AcDbCircle
 10
-6.512276676026593
 20
-6.404339241839107
 30
0.0
 40
0.0625
  0
CIRCLE
  5
394
330
1F
100
AcDbEntity
  8
DEFAULT
100
AcDbCircle
 10
-5.762276676026593
 20
-6.404339241839107
 30
0.0
 40
0.0625
  0
CIRCLE
  5
395
330
1F
100
AcDbEntity
  8
DEFAULT
100
AcDbCircle
 10
-5.012276676026593
 20
-6.404339241839107
 30
0.0
 40
0.0625
  0
CIRCLE
  5
396
330
1F
100
AcDbEntity
  8
DEFAULT
100
AcDbCircle
 10
-4.262276676026593
 20
-6.404339241839107
 30
0.0
 40
0.0625
  0
CIRCLE
  5
397
330
1F
100
AcDbEntity
  8
DEFAULT
100
AcDbCircle
 10
-3.512276676026593
 20
-6.404339241839107
 30
0.0
 40
0.0625
  0
CIRCLE
  5
398
330
1F
100
AcDbEntity
  8
DEFAULT
100
AcDbCircle
 10
-2.012276676026593
 20
-6.404339241839107
 30
0.0
 40
0.0625
  0
CIRCLE
  5
399
330
1F
100
AcDbEntity
  8
DEFAULT
100
AcDbCircle
 10
-2.762276676026593
 20
-6.404339241839107
 30
0.0
 40
0.0625
  0
CIRCLE
  5
39A
330
1F
100
AcDbEntity
  8
DEFAULT
100
AcDbCircle
 10
-9.137276676026593
 20
-5.754339241839107
 30
0.0
 40
0.0625
  0
CIRCLE
  5
39B
330
1F
100
AcDbEntity
  8
DEFAULT
100
AcDbCircle
 10
-9.887276676026593
 20
-5.754339241839107
 30
0.0
 40
0.0625
  0
CIRCLE
  5
39C
330
1F
100
AcDbEntity
  8
DEFAULT
100
AcDbCircle
 10
-8.387276676026593
 20
-5.754339241839107
 30
0.0
 40
0.0625
  0
CIRCLE
  5
39D
330
1F
100
AcDbEntity
  8
DEFAULT
100
AcDbCircle
 10
-7.637276676026593
 20
-5.754339241839107
 30
0.0
 40
0.0625
  0
CIRCLE
  5
39E
330
1F
100
AcDbEntity
  8
DEFAULT
100
AcDbCircle
 10
-6.887276676026593
 20
-5.754339241839107
 30
0.0
 40
0.0625
  0
CIRCLE
  5
39F
330
1F
100
AcDbEntity
  8
DEFAULT
100
AcDbCircle
 10
-6.137276676026593
 20
-5.754339241839107
 30
0.0
 40
0.0625
  0
CIRCLE
  5
3A0
330
1F
100
AcDbEntity
  8
DEFAULT
100
AcDbCircle
 10
-5.387276676026593
 20
-5.754339241839107
 30
0.0
 40
0.0625
  0
CIRCLE
  5
3A1
330
1F
100
AcDbEntity
  8
DEFAULT
100
AcDbCircle
 10
-4.637276676026593
 20
-5.754339241839107
 30
0.0
 40
0.0625
  0
CIRCLE
  5
3A2
330
1F
100
AcDbEntity
  8
DEFAULT
100
AcDbCircle
 10
-3.887276676026593
 20
-5.754339241839107
 30
0.0
 40
0.0625
  0
CIRCLE
  5
3A3
330
1F
100
AcDbEntity
  8
DEFAULT
100
AcDbCircle
 10
-1.637276676026593
 20
-5.754339241839107
 30
0.0
 40
0.0625
  0
CIRCLE
  5
3A4
330
1F
100
AcDbEntity
  8
DEFAULT
100
AcDbCircle
 10
-2.387276676026593
 20
-5.754339241839107
 30
0.0
 40
0.0625
  0
CIRCLE
  5
3A5
330
1F
100
AcDbEntity
  8
DEFAULT
100
AcDbCircle
 10
-3.137276676026593
 20
-5.754339241839107
 30
0.0
 40
0.0625
  0
CIRCLE
  5
3A6
330
1F
100
AcDbEntity
  8
DEFAULT
100
AcDbCircle
 10
-9.512276676026593
 20
-5.104339241839106
 30
0.0
 40
0.0625
  0
CIRCLE
  5
3A7
330
1F
100
AcDbEntity
  8
DEFAULT
100
AcDbCircle
 10
-10.26227667602659
 20
-5.104339241839106
 30
0.0
 40
0.0625
  0
CIRCLE
  5
3A8
330
1F
100
AcDbEntity
  8
DEFAULT
100
AcDbCircle
 10
-8.762276676026593
 20
-5.104339241839106
 30
0.0
 40
0.0625
  0
CIRCLE
  5
3A9
330
1F
100
AcDbEntity
  8
DEFAULT
100
AcDbCircle
 10
-8.012276676026593
 20
-5.104339241839106
 30
0.0
 40
0.0625
  0
CIRCLE
  5
3AA
330
1F
100
AcDbEntity
  8
DEFAULT
100
AcDbCircle
 10
-7.262276676026593
 20
-5.104339241839106
 30
0.0
 40
0.0625
  0
CIRCLE
  5
3AB
330
1F
100
AcDbEntity
  8
DEFAULT
100
AcDbCircle
 10
-6.512276676026593
 20
-5.104339241839106
 30
0.0
 40
0.0625
  0
CIRCLE
  5
3AC
330
1F
100
AcDbEntity
  8
DEFAULT
100
AcDbCircle
 10
-5.762276676026593
 20
-5.104339241839106
 30
0.0
 40
0.0625
  0
CIRCLE
  5
3AD
330
1F
100
AcDbEntity
  8
DEFAULT
100
AcDbCircle
 10
-5.012276676026593
 20
-5.104339241839106
 30
0.0
 40
0.0625
  0
CIRCLE
  5
3AE
330
1F
100
AcDbEntity
  8
DEFAULT
100
AcDbCircle
 10
-4.262276676026593
 20
-5.104339241839106
 30
0.0
 40
0.0625
  0
CIRCLE
  5
3AF
330
1F
100
AcDbEntity
  8
DEFAULT
100
AcDbCircle
 10
-2.012276676026593
 20
-5.104339241839106
 30
0.0
 40
0.0625
  0
CIRCLE
  5
3B0
330
1F
100
AcDbEntity
  8
DEFAULT
100
AcDbCircle
 10
-2.762276676026593
 20
-5.104339241839106
 30
0.0
 40
0.0625
  0
CIRCLE
  5
3B1
330
1F
100
AcDbEntity
  8
DEFAULT
100
AcDbCircle
 10
-3.512276676026593
 20
-5.104339241839106
 30
0.0
 40
0.0625
  0
CIRCLE
  5
3B2
330
1F
100
AcDbEntity
  8
DEFAULT
100
AcDbCircle
 10
-1.262276676026593
 20
-5.104339241839106
 30
0.0
 40
0.0625
  0
CIRCLE
  5
3B3
330
1F
100
AcDbEntity
  8
DEFAULT
100
AcDbCircle
 10
-6.137276676026593
 20
-4.45433924183911
 30
0.0
 40
0.0625
  0
CIRCLE
  5
3B4
330
1F
100
AcDbEntity
  8
DEFAULT
100
AcDbCircle
 10
-6.887276676026593
 20
-4.45433924183911
 30
0.0
 40
0.0625
  0
CIRCLE
  5
3B5
330
1F
100
AcDbEntity
  8
DEFAULT
100
AcDbCircle
 10
-5.387276676026593
 20
-4.45433924183911
 30
0.0
 40
0.0625
  0
CIRCLE
  5
3B6
330
1F
100
AcDbEntity
  8
DEFAULT
100
AcDbCircle
 10
-4.637276676026593
 20
-4.45433924183911
 30
0.0
 40
0.0625
  0
CIRCLE
  5
3B7
330
1F
100
AcDbEntity
  8
DEFAULT
100
AcDbCircle
 10
-6.137276676026593
 20
-3.154339241839109
 30
0.0
 40
0.0625
  0
CIRCLE
  5
3B8
330
1F
100
AcDbEntity
  8
DEFAULT
100
AcDbCircle
 10
-5.387276676026593
 20
-3.154339241839109
 30
0.0
 40
0.0625
  0
CIRCLE
  5
3B9
330
1F
100
AcDbEntity
  8
DEFAULT
100
AcDbCircle
 10
-5.762276676026593
 20
-3.804339241839108
 30
0.0
 40
0.0625
  0
CIRCLE
  5
3BA
330
1F
100
AcDbEntity
  8
DEFAULT
100
AcDbCircle
 10
-6.512276676026593
 20
-3.804339241839108
 30
0.0
 40
0.0625
  0
CIRCLE
  5
3BB
330
1F
100
AcDbEntity
  8
DEFAULT
100
AcDbCircle
 10
-5.012276676026593
 20
-3.804339241839108
 30
0.0
 40
0.0625
  0
CIRCLE
  5
3BC
330
1F
100
AcDbEntity
  8
DEFAULT
100
AcDbCircle
 10
-5.762276676026593
 20
-2.504339241839103
 30
0.0
 40
0.0625
  0
LINE
  5
3BD
330
1F
100
AcDbEntity
  8
0
100
AcDbLine
 10
-10.8245684005315
 20
-10.62933924183911
 30
0.0
 11
-7.449568400531502
 21
-10.62933924183911
 31
0.0
  0
LINE
  5
3BE
330
1F
100
AcDbEntity
  8
0
100
AcDbLine
 10
-7.449568400531502
 20
-10.62933924183911
 30
0.0
 11
-4.074984951521687
 21
-10.62933924183911
 31
0.0
  0
LINE
  5
3BF
330
1F
100
AcDbEntity
  8
0
100
AcDbLine
 10
-4.074984951521687
 20
-10.62933924183911
 30
0.0
 11
-0.6999849515216852
 21
-10.62933924183911
 31
0.0
  0
LINE
  5
3C0
330
1F
100
AcDbEntity
  8
0
100
AcDbLine
 10
-9.137068400531502
 20
-7.704339241839108
 30
0.0
 11
-7.449568400531502
 21
-10.62933924183911
 31
0.0
  0
LINE
  5
3C1
330
1F
100
AcDbEntity
  8
0
100
AcDbLine
 10
-7.449568400531502
 20
-10.62933924183911
 30
0.0
 11
-5.762276676026596
 21
-13.55397823098094
 31
0.0
  0
LINE
  5
3C2
330
1F
100
AcDbEntity
  8
0
100
AcDbLine
 10
-9.137068400531502
 20
-7.704339241839108
 30
0.0
 11
-10.8245684005315
 21
-4.779339241839109
 31
0.0
  0
LINE
  5
3C3
330
1F
100
AcDbEntity
  8
0
100
AcDbLine
 10
-10.8245684005315
 20
-4.779339241839109
 30
0.0
 11
-7.449568400531502
 21
-4.779339241839109
 31
0.0
  0
LINE
  5
3C4
330
1F
100
AcDbEntity
  8
0
100
AcDbLine
 10
-7.449568400531502
 20
-4.779339241839109
 30
0.0
 11
-4.07498495152168
 21
-4.779339241839109
 31
0.0
  0
LINE
  5
3C5
330
1F
100
AcDbEntity
  8
0
100
AcDbLine
 10
-4.07498495152168
 20
-4.779339241839109
 30
0.0
 11
-0.6999849515216781
 21
-4.779339241839109
 31
0.0
  0
LINE
  5
3C6
330
1F
100
AcDbEntity
  8
0
100
AcDbLine
 10
-0.6999849515216781
 20
-4.779339241839109
 30
0.0
 11
-2.387484951521683
 21
-7.704339241839108
 31
0.0
  0
LINE
  5
3C7
330
1F
100
AcDbEntity
  8
0
100
AcDbLine
 10
-2.387484951521683
 20
-7.704339241839108
 30
0.0
 11
-4.074984951521687
 21
-10.62933924183911
 31
0.0
  0
LINE
  5
3C8
330
1F
100
AcDbEntity
  8
0
100
AcDbLine
 10
-4.074984951521685
 20
-10.62933924183911
 30
0.0
 11
-5.762276676026596
 21
-13.55397823098094
 31
0.0
  0
LINE
  5
3C9
330
1F
100
AcDbEntity
  8
0
100
AcDbLine
 10
-10.8245684005315
 20
-10.62933924183911
 30
0.0
 11
-9.137068400531502
 21
-7.704339241839108
 31
0.0
  0
LINE
  5
3CA
330
1F
100
AcDbEntity
  8
0
100
AcDbLine
 10
-9.137068400531502
 20
-7.704339241839108
 30
0.0
 11
-7.449568400531502
 21
-4.779339241839109
 31
0.0
  0
LINE
  5
3CB
330
1F
100
AcDbEntity
  8
0
100
AcDbLine
 10
-7.449568400531502
 20
-4.779339241839109
 30
0.0
 11
-5.762276676026591
 21
-1.854700252697263
 31
0.0
  0
LINE
  5
3CC
330
1F
100
AcDbEntity
  8
0
100
AcDbLine
 10
-5.762276676026591
 20
-1.854700252697263
 30
0.0
 11
-4.07498495152168
 21
-4.779339241839109
 31
0.0
  0
LINE
  5
3CD
330
1F
100
AcDbEntity
  8
0
100
AcDbLine
 10
-4.07498495152168
 20
-4.779339241839109
 30
0.0
 11
-2.387484951521683
 21
-7.70433924183911
 31
0.0
  0
LINE
  5
3CE
330
1F
100
AcDbEntity
  8
0
100
AcDbLine
 10
-2.387484951521683
 20
-7.704339241839108
 30
0.0
 11
-0.6999849515216852
 21
-10.62933924183911
 31
0.0
  0
CIRCLE
  5
3CF
330
1F
100
AcDbEntity
  8
DEFAULT
100
AcDbCircle
 10
-2.012276676026593
 20
-10.30433924183911
 30
0.0
 40
0.0625
  0
CIRCLE
  5
3D1
330
1F
100
AcDbEntity
  8
0
100
AcDbCircle
 10
-5.762276676026593
 20
-7.704339241839107
 30
0.0
 40
7.0
  0
CIRCLE
  5
3D2
330
1F
100
AcDbEntity
  8
DEFAULT
100
AcDbCircle
 10
11.65250770555445
 20
-11.9435718947436
 30
0.0
 40
0.0625
  0
CIRCLE
  5
3D3
330
1F
100
AcDbEntity
  8
DEFAULT
100
AcDbCircle
 10
10.90250770555445
 20
-11.9435718947436
 30
0.0
 40
0.0625
  0
CIRCLE
  5
3D4
330
1F
100
AcDbEntity
  8
DEFAULT
100
AcDbCircle
 10
12.40250770555445
 20
-11.9435718947436
 30
0.0
 40
0.0625
  0
CIRCLE
  5
3D5
330
1F
100
AcDbEntity
  8
DEFAULT
100
AcDbCircle
 10
13.15250770555445
 20
-11.9435718947436
 30
0.0
 40
0.0625
  0
CIRCLE
  5
3D6
330
1F
100
AcDbEntity
  8
DEFAULT
100
AcDbCircle
 10
13.90250770555445
 20
-11.9435718947436
 30
0.0
 40
0.0625
  0
CIRCLE
  5
3D7
330
1F
100
AcDbEntity
  8
DEFAULT
100
AcDbCircle
 10
14.65250770555445
 20
-11.9435718947436
 30
0.0
 40
0.0625
  0
CIRCLE
  5
3D8
330
1F
100
AcDbEntity
  8
DEFAULT
100
AcDbCircle
 10
15.40250770555445
 20
-11.9435718947436
 30
0.0
 40
0.0625
  0
CIRCLE
  5
3D9
330
1F
100
AcDbEntity
  8
DEFAULT
100
AcDbCircle
 10
16.15250770555445
 20
-11.9435718947436
 30
0.0
 40
0.0625
  0
CIRCLE
  5
3DA
330
1F
100
AcDbEntity
  8
DEFAULT
100
AcDbCircle
 10
16.90250770555445
 20
-11.9435718947436
 30
0.0
 40
0.0625
  0
CIRCLE
  5
3DB
330
1F
100
AcDbEntity
  8
DEFAULT
100
AcDbCircle
 10
18.40250770555445
 20
-11.9435718947436
 30
0.0
 40
0.0625
  0
CIRCLE
  5
3DC
330
1F
100
AcDbEntity
  8
DEFAULT
100
AcDbCircle
 10
17.65250770555445
 20
-11.9435718947436
 30
0.0
 40
0.0625
  0
CIRCLE
  5
3DD
330
1F
100
AcDbEntity
  8
DEFAULT
100
AcDbCircle
 10
19.90250770555445
 20
-11.9435718947436
 30
0.0
 40
0.0625
  0
CIRCLE
  5
3DE
330
1F
100
AcDbEntity
  8
DEFAULT
100
AcDbCircle
 10
16.52750770555445
 20
-12.5935718947436
 30
0.0
 40
0.0625
  0
CIRCLE
  5
3DF
330
1F
100
AcDbEntity
  8
DEFAULT
100
AcDbCircle
 10
15.77750770555445
 20
-12.5935718947436
 30
0.0
 40
0.0625
  0
CIRCLE
  5
3E0
330
1F
100
AcDbEntity
  8
DEFAULT
100
AcDbCircle
 10
15.02750770555445
 20
-12.5935718947436
 30
0.0
 40
0.0625
  0
CIRCLE
  5
3E1
330
1F
100
AcDbEntity
  8
DEFAULT
100
AcDbCircle
 10
15.40250770555445
 20
-13.2435718947436
 30
0.0
 40
0.0625
  0
CIRCLE
  5
3E2
330
1F
100
AcDbEntity
  8
DEFAULT
100
AcDbCircle
 10
16.15250770555445
 20
-13.2435718947436
 30
0.0
 40
0.0625
  0
CIRCLE
  5
3E3
330
1F
100
AcDbEntity
  8
DEFAULT
100
AcDbCircle
 10
14.65250770555445
 20
-13.2435718947436
 30
0.0
 40
0.0625
  0
CIRCLE
  5
3E4
330
1F
100
AcDbEntity
  8
DEFAULT
100
AcDbCircle
 10
14.27750770555445
 20
-12.5935718947436
 30
0.0
 40
0.0625
  0
CIRCLE
  5
3E5
330
1F
100
AcDbEntity
  8
DEFAULT
100
AcDbCircle
 10
15.77750770555445
 20
-13.8935718947436
 30
0.0
 40
0.0625
  0
CIRCLE
  5
3E6
330
1F
100
AcDbEntity
  8
DEFAULT
100
AcDbCircle
 10
15.02750770555445
 20
-13.8935718947436
 30
0.0
 40
0.0625
  0
CIRCLE
  5
3E7
330
1F
100
AcDbEntity
  8
DEFAULT
100
AcDbCircle
 10
15.40250770555445
 20
-14.5435718947436
 30
0.0
 40
0.0625
  0
CIRCLE
  5
3E8
330
1F
100
AcDbEntity
  8
DEFAULT
100
AcDbCircle
 10
12.02750770555445
 20
-11.2935718947436
 30
0.0
 40
0.0625
  0
CIRCLE
  5
3E9
330
1F
100
AcDbEntity
  8
DEFAULT
100
AcDbCircle
 10
11.27750770555445
 20
-11.2935718947436
 30
0.0
 40
0.0625
  0
CIRCLE
  5
3EA
330
1F
100
AcDbEntity
  8
DEFAULT
100
AcDbCircle
 10
12.77750770555445
 20
-11.2935718947436
 30
0.0
 40
0.0625
  0
CIRCLE
  5
3EB
330
1F
100
AcDbEntity
  8
DEFAULT
100
AcDbCircle
 10
13.52750770555445
 20
-11.2935718947436
 30
0.0
 40
0.0625
  0
CIRCLE
  5
3EC
330
1F
100
AcDbEntity
  8
DEFAULT
100
AcDbCircle
 10
14.27750770555445
 20
-11.2935718947436
 30
0.0
 40
0.0625
  0
CIRCLE
  5
3ED
330
1F
100
AcDbEntity
  8
DEFAULT
100
AcDbCircle
 10
15.02750770555445
 20
-11.2935718947436
 30
0.0
 40
0.0625
  0
CIRCLE
  5
3EE
330
1F
100
AcDbEntity
  8
DEFAULT
100
AcDbCircle
 10
15.77750770555445
 20
-11.2935718947436
 30
0.0
 40
0.0625
  0
CIRCLE
  5
3EF
330
1F
100
AcDbEntity
  8
DEFAULT
100
AcDbCircle
 10
16.52750770555445
 20
-11.2935718947436
 30
0.0
 40
0.0625
  0
CIRCLE
  5
3F0
330
1F
100
AcDbEntity
  8
DEFAULT
100
AcDbCircle
 10
17.27750770555445
 20
-11.2935718947436
 30
0.0
 40
0.0625
  0
CIRCLE
  5
3F1
330
1F
100
AcDbEntity
  8
DEFAULT
100
AcDbCircle
 10
19.52750770555445
 20
-11.2935718947436
 30
0.0
 40
0.0625
  0
CIRCLE
  5
3F2
330
1F
100
AcDbEntity
  8
DEFAULT
100
AcDbCircle
 10
18.77750770555445
 20
-11.2935718947436
 30
0.0
 40
0.0625
  0
CIRCLE
  5
3F3
330
1F
100
AcDbEntity
  8
DEFAULT
100
AcDbCircle
 10
18.02750770555445
 20
-11.2935718947436
 30
0.0
 40
0.0625
  0
CIRCLE
  5
3F4
330
1F
100
AcDbEntity
  8
DEFAULT
100
AcDbCircle
 10
12.40250770555445
 20
-10.6435718947436
 30
0.0
 40
0.0625
  0
CIRCLE
  5
3F5
330
1F
100
AcDbEntity
  8
DEFAULT
100
AcDbCircle
 10
11.65250770555445
 20
-10.6435718947436
 30
0.0
 40
0.0625
  0
CIRCLE
  5
3F6
330
1F
100
AcDbEntity
  8
DEFAULT
100
AcDbCircle
 10
13.15250770555445
 20
-10.6435718947436
 30
0.0
 40
0.0625
  0
CIRCLE
  5
3F7
330
1F
100
AcDbEntity
  8
DEFAULT
100
AcDbCircle
 10
13.90250770555445
 20
-10.6435718947436
 30
0.0
 40
0.0625
  0
CIRCLE
  5
3F8
330
1F
100
AcDbEntity
  8
DEFAULT
100
AcDbCircle
 10
14.65250770555445
 20
-10.6435718947436
 30
0.0
 40
0.0625
  0
CIRCLE
  5
3F9
330
1F
100
AcDbEntity
  8
DEFAULT
100
AcDbCircle
 10
15.40250770555445
 20
-10.6435718947436
 30
0.0
 40
0.0625
  0
CIRCLE
  5
3FA
330
1F
100
AcDbEntity
  8
DEFAULT
100
AcDbCircle
 10
16.15250770555445
 20
-10.6435718947436
 30
0.0
 40
0.0625
  0
CIRCLE
  5
3FB
330
1F
100
AcDbEntity
  8
DEFAULT
100
AcDbCircle
 10
16.90250770555445
 20
-10.6435718947436
 30
0.0
 40
0.0625
  0
CIRCLE
  5
3FC
330
1F
100
AcDbEntity
  8
DEFAULT
100
AcDbCircle
 10
17.65250770555445
 20
-10.6435718947436
 30
0.0
 40
0.0625
  0
CIRCLE
  5
3FD
330
1F
100
AcDbEntity
  8
DEFAULT
100
AcDbCircle
 10
19.15250770555445
 20
-10.6435718947436
 30
0.0
 40
0.0625
  0
CIRCLE
  5
3FE
330
1F
100
AcDbEntity
  8
DEFAULT
100
AcDbCircle
 10
18.40250770555445
 20
-10.6435718947436
 30
0.0
 40
0.0625
  0
CIRCLE
  5
3FF
330
1F
100
AcDbEntity
  8
DEFAULT
100
AcDbCircle
 10
12.77750770555445
 20
-9.9935718947436
 30
0.0
 40
0.0625
  0
CIRCLE
  5
400
330
1F
100
AcDbEntity
  8
DEFAULT
100
AcDbCircle
 10
12.02750770555445
 20
-9.9935718947436
 30
0.0
 40
0.0625
  0
CIRCLE
  5
401
330
1F
100
AcDbEntity
  8
DEFAULT
100
AcDbCircle
 10
13.52750770555445
 20
-9.9935718947436
 30
0.0
 40
0.0625
  0
CIRCLE
  5
402
330
1F
100
AcDbEntity
  8
DEFAULT
100
AcDbCircle
 10
14.27750770555445
 20
-9.9935718947436
 30
0.0
 40
0.0625
  0
CIRCLE
  5
403
330
1F
100
AcDbEntity
  8
DEFAULT
100
AcDbCircle
 10
15.02750770555445
 20
-9.9935718947436
 30
0.0
 40
0.0625
  0
CIRCLE
  5
404
330
1F
100
AcDbEntity
  8
DEFAULT
100
AcDbCircle
 10
15.77750770555445
 20
-9.9935718947436
 30
0.0
 40
0.0625
  0
CIRCLE
  5
405
330
1F
100
AcDbEntity
  8
DEFAULT
100
AcDbCircle
 10
16.52750770555445
 20
-9.9935718947436
 30
0.0
 40
0.0625
  0
CIRCLE
  5
406
330
1F
100
AcDbEntity
  8
DEFAULT
100
AcDbCircle
 10
17.27750770555445
 20
-9.9935718947436
 30
0.0
 40
0.0625
  0
CIRCLE
  5
407
330
1F
100
AcDbEntity
  8
DEFAULT
100
AcDbCircle
 10
18.02750770555445
 20
-9.9935718947436
 30
0.0
 40
0.0625
  0
CIRCLE
  5
408
330
1F
100
AcDbEntity
  8
DEFAULT
100
AcDbCircle
 10
18.77750770555445
 20
-9.9935718947436
 30
0.0
 40
0.0625
  0
CIRCLE
  5
409
330
1F
100
AcDbEntity
  8
DEFAULT
100
AcDbCircle
 10
13.15250770555445
 20
-9.343571894743597
 30
0.0
 40
0.0625
  0
CIRCLE
  5
40A
330
1F
100
AcDbEntity
  8
DEFAULT
100
AcDbCircle
 10
12.40250770555445
 20
-9.343571894743597
 30
0.0
 40
0.0625
  0
CIRCLE
  5
40B
330
1F
100
AcDbEntity
  8
DEFAULT
100
AcDbCircle
 10
13.90250770555445
 20
-9.343571894743597
 30
0.0
 40
0.0625
  0
CIRCLE
  5
40C
330
1F
100
AcDbEntity
  8
DEFAULT
100
AcDbCircle
 10
14.65250770555445
 20
-9.343571894743597
 30
0.0
 40
0.0625
  0
CIRCLE
  5
40D
330
1F
100
AcDbEntity
  8
DEFAULT
100
AcDbCircle
 10
15.40250770555445
 20
-9.343571894743597
 30
0.0
 40
0.0625
  0
CIRCLE
  5
40E
330
1F
100
AcDbEntity
  8
DEFAULT
100
AcDbCircle
 10
16.15250770555445
 20
-9.343571894743597
 30
0.0
 40
0.0625
  0
CIRCLE
  5
40F
330
1F
100
AcDbEntity
  8
DEFAULT
100
AcDbCircle
 10
16.90250770555445
 20
-9.343571894743597
 30
0.0
 40
0.0625
  0
CIRCLE
  5
410
330
1F
100
AcDbEntity
  8
DEFAULT
100
AcDbCircle
 10
17.65250770555445
 20
-9.343571894743597
 30
0.0
 40
0.0625
  0
CIRCLE
  5
411
330
1F
100
AcDbEntity
  8
DEFAULT
100
AcDbCircle
 10
18.40250770555445
 20
-9.343571894743597
 30
0.0
 40
0.0625
  0
CIRCLE
  5
412
330
1F
100
AcDbEntity
  8
DEFAULT
100
AcDbCircle
 10
12.77750770555445
 20
-8.693571894743599
 30
0.0
 40
0.0625
  0
CIRCLE
  5
413
330
1F
100
AcDbEntity
  8
DEFAULT
100
AcDbCircle
 10
12.02750770555445
 20
-8.693571894743599
 30
0.0
 40
0.0625
  0
CIRCLE
  5
414
330
1F
100
AcDbEntity
  8
DEFAULT
100
AcDbCircle
 10
13.52750770555445
 20
-8.693571894743599
 30
0.0
 40
0.0625
  0
CIRCLE
  5
415
330
1F
100
AcDbEntity
  8
DEFAULT
100
AcDbCircle
 10
14.27750770555445
 20
-8.693571894743599
 30
0.0
 40
0.0625
  0
CIRCLE
  5
416
330
1F
100
AcDbEntity
  8
DEFAULT
100
AcDbCircle
 10
15.02750770555445
 20
-8.693571894743599
 30
0.0
 40
0.0625
  0
CIRCLE
  5
417
330
1F
100
AcDbEntity
  8
DEFAULT
100
AcDbCircle
 10
15.77750770555445
 20
-8.693571894743599
 30
0.0
 40
0.0625
  0
CIRCLE
  5
418
330
1F
100
AcDbEntity
  8
DEFAULT
100
AcDbCircle
 10
16.52750770555445
 20
-8.693571894743599
 30
0.0
 40
0.0625
  0
CIRCLE
  5
419
330
1F
100
AcDbEntity
  8
DEFAULT
100
AcDbCircle
 10
17.27750770555445
 20
-8.693571894743599
 30
0.0
 40
0.0625
  0
CIRCLE
  5
41A
330
1F
100
AcDbEntity
  8
DEFAULT
100
AcDbCircle
 10
18.02750770555445
 20
-8.693571894743599
 30
0.0
 40
0.0625
  0
CIRCLE
  5
41B
330
1F
100
AcDbEntity
  8
DEFAULT
100
AcDbCircle
 10
18.77750770555445
 20
-8.693571894743599
 30
0.0
 40
0.0625
  0
CIRCLE
  5
41C
330
1F
100
AcDbEntity
  8
DEFAULT
100
AcDbCircle
 10
12.40250770555445
 20
-8.043571894743598
 30
0.0
 40
0.0625
  0
CIRCLE
  5
41D
330
1F
100
AcDbEntity
  8
DEFAULT
100
AcDbCircle
 10
11.65250770555445
 20
-8.043571894743598
 30
0.0
 40
0.0625
  0
CIRCLE
  5
41E
330
1F
100
AcDbEntity
  8
DEFAULT
100
AcDbCircle
 10
13.15250770555445
 20
-8.043571894743598
 30
0.0
 40
0.0625
  0
CIRCLE
  5
41F
330
1F
100
AcDbEntity
  8
DEFAULT
100
AcDbCircle
 10
13.90250770555445
 20
-8.043571894743598
 30
0.0
 40
0.0625
  0
CIRCLE
  5
420
330
1F
100
AcDbEntity
  8
DEFAULT
100
AcDbCircle
 10
14.65250770555445
 20
-8.043571894743598
 30
0.0
 40
0.0625
  0
CIRCLE
  5
421
330
1F
100
AcDbEntity
  8
DEFAULT
100
AcDbCircle
 10
15.40250770555445
 20
-8.043571894743598
 30
0.0
 40
0.0625
  0
CIRCLE
  5
422
330
1F
100
AcDbEntity
  8
DEFAULT
100
AcDbCircle
 10
16.15250770555445
 20
-8.043571894743598
 30
0.0
 40
0.0625
  0
CIRCLE
  5
423
330
1F
100
AcDbEntity
  8
DEFAULT
100
AcDbCircle
 10
16.90250770555445
 20
-8.043571894743598
 30
0.0
 40
0.0625
  0
CIRCLE
  5
424
330
1F
100
AcDbEntity
  8
DEFAULT
100
AcDbCircle
 10
17.65250770555445
 20
-8.043571894743598
 30
0.0
 40
0.0625
  0
CIRCLE
  5
425
330
1F
100
AcDbEntity
  8
DEFAULT
100
AcDbCircle
 10
19.15250770555445
 20
-8.043571894743598
 30
0.0
 40
0.0625
  0
CIRCLE
  5
426
330
1F
100
AcDbEntity
  8
DEFAULT
100
AcDbCircle
 10
18.40250770555445
 20
-8.043571894743598
 30
0.0
 40
0.0625
  0
CIRCLE
  5
427
330
1F
100
AcDbEntity
  8
DEFAULT
100
AcDbCircle
 10
12.02750770555445
 20
-7.393571894743598
 30
0.0
 40
0.0625
  0
CIRCLE
  5
428
330
1F
100
AcDbEntity
  8
DEFAULT
100
AcDbCircle
 10
11.27750770555445
 20
-7.393571894743598
 30
0.0
 40
0.0625
  0
CIRCLE
  5
429
330
1F
100
AcDbEntity
  8
DEFAULT
100
AcDbCircle
 10
12.77750770555445
 20
-7.393571894743598
 30
0.0
 40
0.0625
  0
CIRCLE
  5
42A
330
1F
100
AcDbEntity
  8
DEFAULT
100
AcDbCircle
 10
13.52750770555445
 20
-7.393571894743598
 30
0.0
 40
0.0625
  0
CIRCLE
  5
42B
330
1F
100
AcDbEntity
  8
DEFAULT
100
AcDbCircle
 10
14.27750770555445
 20
-7.393571894743598
 30
0.0
 40
0.0625
  0
CIRCLE
  5
42C
330
1F
100
AcDbEntity
  8
DEFAULT
100
AcDbCircle
 10
15.02750770555445
 20
-7.393571894743598
 30
0.0
 40
0.0625
  0
CIRCLE
  5
42D
330
1F
100
AcDbEntity
  8
DEFAULT
100
AcDbCircle
 10
15.77750770555445
 20
-7.393571894743598
 30
0.0
 40
0.0625
  0
CIRCLE
  5
42E
330
1F
100
AcDbEntity
  8
DEFAULT
100
AcDbCircle
 10
16.52750770555445
 20
-7.393571894743598
 30
0.0
 40
0.0625
  0
CIRCLE
  5
42F
330
1F
100
AcDbEntity
  8
DEFAULT
100
AcDbCircle
 10
17.27750770555445
 20
-7.393571894743598
 30
0.0
 40
0.0625
  0
CIRCLE
  5
430
330
1F
100
AcDbEntity
  8
DEFAULT
100
AcDbCircle
 10
19.52750770555445
 20
-7.393571894743598
 30
0.0
 40
0.0625
  0
CIRCLE
  5
431
330
1F
100
AcDbEntity
  8
DEFAULT
100
AcDbCircle
 10
18.77750770555445
 20
-7.393571894743598
 30
0.0
 40
0.0625
  0
CIRCLE
  5
432
330
1F
100
AcDbEntity
  8
DEFAULT
100
AcDbCircle
 10
18.02750770555445
 20
-7.393571894743598
 30
0.0
 40
0.0625
  0
CIRCLE
  5
433
330
1F
100
AcDbEntity
  8
DEFAULT
100
AcDbCircle
 10
11.65250770555445
 20
-6.743571894743598
 30
0.0
 40
0.0625
  0
CIRCLE
  5
434
330
1F
100
AcDbEntity
  8
DEFAULT
100
AcDbCircle
 10
10.90250770555445
 20
-6.743571894743598
 30
0.0
 40
0.0625
  0
CIRCLE
  5
435
330
1F
100
AcDbEntity
  8
DEFAULT
100
AcDbCircle
 10
12.40250770555445
 20
-6.743571894743598
 30
0.0
 40
0.0625
  0
CIRCLE
  5
436
330
1F
100
AcDbEntity
  8
DEFAULT
100
AcDbCircle
 10
13.15250770555445
 20
-6.743571894743598
 30
0.0
 40
0.0625
  0
CIRCLE
  5
437
330
1F
100
AcDbEntity
  8
DEFAULT
100
AcDbCircle
 10
13.90250770555445
 20
-6.743571894743598
 30
0.0
 40
0.0625
  0
CIRCLE
  5
438
330
1F
100
AcDbEntity
  8
DEFAULT
100
AcDbCircle
 10
14.65250770555445
 20
-6.743571894743598
 30
0.0
 40
0.0625
  0
CIRCLE
  5
439
330
1F
100
AcDbEntity
  8
DEFAULT
100
AcDbCircle
 10
15.40250770555445
 20
-6.743571894743598
 30
0.0
 40
0.0625
  0
CIRCLE
  5
43A
330
1F
100
AcDbEntity
  8
DEFAULT
100
AcDbCircle
 10
16.15250770555445
 20
-6.743571894743598
 30
0.0
 40
0.0625
  0
CIRCLE
  5
43B
330
1F
100
AcDbEntity
  8
DEFAULT
100
AcDbCircle
 10
16.90250770555445
 20
-6.743571894743598
 30
0.0
 40
0.0625
  0
CIRCLE
  5
43C
330
1F
100
AcDbEntity
  8
DEFAULT
100
AcDbCircle
 10
19.15250770555445
 20
-6.743571894743598
 30
0.0
 40
0.0625
  0
CIRCLE
  5
43D
330
1F
100
AcDbEntity
  8
DEFAULT
100
AcDbCircle
 10
18.40250770555445
 20
-6.743571894743598
 30
0.0
 40
0.0625
  0
CIRCLE
  5
43E
330
1F
100
AcDbEntity
  8
DEFAULT
100
AcDbCircle
 10
17.65250770555445
 20
-6.743571894743598
 30
0.0
 40
0.0625
  0
CIRCLE
  5
43F
330
1F
100
AcDbEntity
  8
DEFAULT
100
AcDbCircle
 10
19.90250770555445
 20
-6.743571894743598
 30
0.0
 40
0.0625
  0
CIRCLE
  5
440
330
1F
100
AcDbEntity
  8
DEFAULT
100
AcDbCircle
 10
15.02750770555445
 20
-6.093571894743601
 30
0.0
 40
0.0625
  0
CIRCLE
  5
441
330
1F
100
AcDbEntity
  8
DEFAULT
100
AcDbCircle
 10
14.27750770555445
 20
-6.093571894743601
 30
0.0
 40
0.0625
  0
CIRCLE
  5
442
330
1F
100
AcDbEntity
  8
DEFAULT
100
AcDbCircle
 10
15.77750770555445
 20
-6.093571894743601
 30
0.0
 40
0.0625
  0
CIRCLE
  5
443
330
1F
100
AcDbEntity
  8
DEFAULT
100
AcDbCircle
 10
16.52750770555445
 20
-6.093571894743601
 30
0.0
 40
0.0625
  0
CIRCLE
  5
444
330
1F
100
AcDbEntity
  8
DEFAULT
100
AcDbCircle
 10
15.02750770555445
 20
-4.7935718947436
 30
0.0
 40
0.0625
  0
CIRCLE
  5
445
330
1F
100
AcDbEntity
  8
DEFAULT
100
AcDbCircle
 10
15.77750770555445
 20
-4.7935718947436
 30
0.0
 40
0.0625
  0
CIRCLE
  5
446
330
1F
100
AcDbEntity
  8
DEFAULT
100
AcDbCircle
 10
15.40250770555445
 20
-5.443571894743599
 30
0.0
 40
0.0625
  0
CIRCLE
  5
447
330
1F
100
AcDbEntity
  8
DEFAULT
100
AcDbCircle
 10
14.65250770555445
 20
-5.443571894743599
 30
0.0
 40
0.0625
  0
CIRCLE
  5
448
330
1F
100
AcDbEntity
  8
DEFAULT
100
AcDbCircle
 10
16.15250770555445
 20
-5.443571894743599
 30
0.0
 40
0.0625
  0
CIRCLE
  5
449
330
1F
100
AcDbEntity
  8
DEFAULT
100
AcDbCircle
 10
15.40250770555445
 20
-4.143571894743594
 30
0.0
 40
0.0625
  0
LINE
  5
44A
330
1F
100
AcDbEntity
  8
0
100
AcDbLine
 10
10.34021598104954
 20
-12.2685718947436
 30
0.0
 11
13.71521598104954
 21
-12.2685718947436
 31
0.0
  0
LINE
  5
44B
330
1F
100
AcDbEntity
  8
0
100
AcDbLine
 10
13.71521598104954
 20
-12.2685718947436
 30
0.0
 11
17.08979943005935
 21
-12.2685718947436
 31
0.0
  0
LINE
  5
44C
330
1F
100
AcDbEntity
  8
0
100
AcDbLine
 10
17.08979943005935
 20
-12.2685718947436
 30
0.0
 11
20.46479943005935
 21
-12.2685718947436
 31
0.0
  0
LINE
  5
44D
330
1F
100
AcDbEntity
  8
0
100
AcDbLine
 10
12.02771598104954
 20
-9.343571894743599
 30
0.0
 11
13.71521598104954
 21
-12.2685718947436
 31
0.0
  0
LINE
  5
44E
330
1F
100
AcDbEntity
  8
0
100
AcDbLine
 10
13.71521598104954
 20
-12.2685718947436
 30
0.0
 11
15.40250770555444
 21
-15.19321088388543
 31
0.0
  0
LINE
  5
44F
330
1F
100
AcDbEntity
  8
0
100
AcDbLine
 10
12.02771598104954
 20
-9.343571894743599
 30
0.0
 11
10.34021598104954
 21
-6.4185718947436
 31
0.0
  0
LINE
  5
450
330
1F
100
AcDbEntity
  8
0
100
AcDbLine
 10
10.34021598104954
 20
-6.4185718947436
 30
0.0
 11
13.71521598104954
 21
-6.4185718947436
 31
0.0
  0
LINE
  5
451
330
1F
100
AcDbEntity
  8
0
100
AcDbLine
 10
13.71521598104954
 20
-6.4185718947436
 30
0.0
 11
17.08979943005936
 21
-6.4185718947436
 31
0.0
  0
LINE
  5
452
330
1F
100
AcDbEntity
  8
0
100
AcDbLine
 10
17.08979943005936
 20
-6.4185718947436
 30
0.0
 11
20.46479943005936
 21
-6.4185718947436
 31
0.0
  0
LINE
  5
453
330
1F
100
AcDbEntity
  8
0
100
AcDbLine
 10
20.46479943005936
 20
-6.4185718947436
 30
0.0
 11
18.77729943005935
 21
-9.343571894743599
 31
0.0
  0
LINE
  5
454
330
1F
100
AcDbEntity
  8
0
100
AcDbLine
 10
18.77729943005935
 20
-9.343571894743599
 30
0.0
 11
17.08979943005935
 21
-12.2685718947436
 31
0.0
  0
LINE
  5
455
330
1F
100
AcDbEntity
  8
0
100
AcDbLine
 10
17.08979943005935
 20
-12.2685718947436
 30
0.0
 11
15.40250770555444
 21
-15.19321088388543
 31
0.0
  0
LINE
  5
456
330
1F
100
AcDbEntity
  8
0
100
AcDbLine
 10
10.34021598104954
 20
-12.2685718947436
 30
0.0
 11
12.02771598104954
 21
-9.343571894743599
 31
0.0
  0
LINE
  5
457
330
1F
100
AcDbEntity
  8
0
100
AcDbLine
 10
12.02771598104954
 20
-9.343571894743599
 30
0.0
 11
13.71521598104954
 21
-6.4185718947436
 31
0.0
  0
LINE
  5
458
330
1F
100
AcDbEntity
  8
0
100
AcDbLine
 10
13.71521598104954
 20
-6.4185718947436
 30
0.0
 11
15.40250770555445
 21
-3.493932905601755
 31
0.0
  0
LINE
  5
459
330
1F
100
AcDbEntity
  8
0
100
AcDbLine
 10
15.40250770555445
 20
-3.493932905601755
 30
0.0
 11
17.08979943005936
 21
-6.4185718947436
 31
0.0
  0
LINE
  5
45A
330
1F
100
AcDbEntity
  8
0
100
AcDbLine
 10
17.08979943005936
 20
-6.4185718947436
 30
0.0
 11
18.77729943005935
 21
-9.3435718947436
 31
0.0
  0
LINE
  5
45B
330
1F
100
AcDbEntity
  8
0
100
AcDbLine
 10
18.77729943005935
 20
-9.343571894743599
 30
0.0
 11
20.46479943005935
 21
-12.2685718947436
 31
0.0
  0
CIRCLE
  5
466
330
1F
100
AcDbEntity
  8
DEFAULT
100
AcDbCircle
 10
19.15250770555445
 20
-11.9435718947436
 30
0.0
 40
0.0625
  0
CIRCLE
  5
469
330
1F
100
AcDbEntity
  8
0
100
AcDbCircle
 10
12.72572132477226
 20
-4.708356404884277
 30
0.0
 40
1.25
  0
CIRCLE
  5
46D
330
1F
100
AcDbEntity
  8
0
100
AcDbCircle
 10
18.07731564251959
 20
-4.707214149813938
 30
0.0
 40
1.25
  0
CIRCLE
  5
46E
330
1F
100
AcDbEntity
  8
0
100
AcDbCircle
 10
20.75404594913002
 20
-9.342429639673261
 30
0.0
 40
1.25
  0
CIRCLE
  5
46F
330
1F
100
AcDbEntity
  8
0
100
AcDbCircle
 10
10.05096946197887
 20
-9.344714149813939
 30
0.0
 40
1.25
  0
CIRCLE
  5
470
330
1F
100
AcDbEntity
  8
0
100
AcDbCircle
 10
18.07929408633662
 20
-13.97878738460292
 30
0.0
 40
1.25
  0
CIRCLE
  5
471
330
1F
100
AcDbEntity
  8
0
100
AcDbCircle
 10
12.7276997685893
 20
-13.97992963967326
 30
0.0
 40
1.25
  0
CIRCLE
  5
473
330
1F
100
AcDbEntity
  8
0
100
AcDbCircle
 10
15.40250770555445
 20
-9.343571894743597
 30
0.0
 40
7.0
  0
CIRCLE
  5
474
330
1F
100
AcDbEntity
  8
DEFAULT
100
AcDbCircle
 10
-25.88044699455744
 20
-10.75679378600679
 30
0.0
 40
0.0625
  0
CIRCLE
  5
475
330
1F
100
AcDbEntity
  8
DEFAULT
100
AcDbCircle
 10
-26.63044699455744
 20
-10.75679378600679
 30
0.0
 40
0.0625
  0
CIRCLE
  5
476
330
1F
100
AcDbEntity
  8
DEFAULT
100
AcDbCircle
 10
-25.13044699455744
 20
-10.75679378600679
 30
0.0
 40
0.0625
  0
CIRCLE
  5
477
330
1F
100
AcDbEntity
  8
DEFAULT
100
AcDbCircle
 10
-24.38044699455744
 20
-10.75679378600679
 30
0.0
 40
0.0625
  0
CIRCLE
  5
478
330
1F
100
AcDbEntity
  8
DEFAULT
100
AcDbCircle
 10
-23.63044699455744
 20
-10.75679378600679
 30
0.0
 40
0.0625
  0
CIRCLE
  5
479
330
1F
100
AcDbEntity
  8
DEFAULT
100
AcDbCircle
 10
-22.88044699455744
 20
-10.75679378600679
 30
0.0
 40
0.0625
  0
CIRCLE
  5
47A
330
1F
100
AcDbEntity
  8
DEFAULT
100
AcDbCircle
 10
-22.13044699455744
 20
-10.75679378600679
 30
0.0
 40
0.0625
  0
CIRCLE
  5
47B
330
1F
100
AcDbEntity
  8
DEFAULT
100
AcDbCircle
 10
-21.38044699455744
 20
-10.75679378600679
 30
0.0
 40
0.0625
  0
CIRCLE
  5
47C
330
1F
100
AcDbEntity
  8
DEFAULT
100
AcDbCircle
 10
-20.63044699455744
 20
-10.75679378600679
 30
0.0
 40
0.0625
  0
CIRCLE
  5
47D
330
1F
100
AcDbEntity
  8
DEFAULT
100
AcDbCircle
 10
-19.13044699455744
 20
-10.75679378600679
 30
0.0
 40
0.0625
  0
CIRCLE
  5
47E
330
1F
100
AcDbEntity
  8
DEFAULT
100
AcDbCircle
 10
-19.88044699455744
 20
-10.75679378600679
 30
0.0
 40
0.0625
  0
CIRCLE
  5
47F
330
1F
100
AcDbEntity
  8
DEFAULT
100
AcDbCircle
 10
-17.63044699455744
 20
-10.75679378600679
 30
0.0
 40
0.0625
  0
CIRCLE
  5
480
330
1F
100
AcDbEntity
  8
DEFAULT
100
AcDbCircle
 10
-21.00544699455744
 20
-11.40679378600679
 30
0.0
 40
0.0625
  0
CIRCLE
  5
481
330
1F
100
AcDbEntity
  8
DEFAULT
100
AcDbCircle
 10
-21.75544699455744
 20
-11.40679378600679
 30
0.0
 40
0.0625
  0
CIRCLE
  5
482
330
1F
100
AcDbEntity
  8
DEFAULT
100
AcDbCircle
 10
-22.50544699455744
 20
-11.40679378600679
 30
0.0
 40
0.0625
  0
CIRCLE
  5
483
330
1F
100
AcDbEntity
  8
DEFAULT
100
AcDbCircle
 10
-22.13044699455744
 20
-12.05679378600679
 30
0.0
 40
0.0625
  0
CIRCLE
  5
484
330
1F
100
AcDbEntity
  8
DEFAULT
100
AcDbCircle
 10
-21.38044699455744
 20
-12.05679378600679
 30
0.0
 40
0.0625
  0
CIRCLE
  5
485
330
1F
100
AcDbEntity
  8
DEFAULT
100
AcDbCircle
 10
-22.88044699455744
 20
-12.05679378600679
 30
0.0
 40
0.0625
  0
CIRCLE
  5
486
330
1F
100
AcDbEntity
  8
DEFAULT
100
AcDbCircle
 10
-23.25544699455744
 20
-11.40679378600679
 30
0.0
 40
0.0625
  0
CIRCLE
  5
487
330
1F
100
AcDbEntity
  8
DEFAULT
100
AcDbCircle
 10
-21.75544699455744
 20
-12.70679378600679
 30
0.0
 40
0.0625
  0
CIRCLE
  5
488
330
1F
100
AcDbEntity
  8
DEFAULT
100
AcDbCircle
 10
-22.50544699455744
 20
-12.70679378600679
 30
0.0
 40
0.0625
  0
CIRCLE
  5
489
330
1F
100
AcDbEntity
  8
DEFAULT
100
AcDbCircle
 10
-22.13044699455744
 20
-13.35679378600679
 30
0.0
 40
0.0625
  0
CIRCLE
  5
48A
330
1F
100
AcDbEntity
  8
DEFAULT
100
AcDbCircle
 10
-25.50544699455744
 20
-10.10679378600679
 30
0.0
 40
0.0625
  0
CIRCLE
  5
48B
330
1F
100
AcDbEntity
  8
DEFAULT
100
AcDbCircle
 10
-26.25544699455744
 20
-10.10679378600679
 30
0.0
 40
0.0625
  0
CIRCLE
  5
48C
330
1F
100
AcDbEntity
  8
DEFAULT
100
AcDbCircle
 10
-24.75544699455744
 20
-10.10679378600679
 30
0.0
 40
0.0625
  0
CIRCLE
  5
48D
330
1F
100
AcDbEntity
  8
DEFAULT
100
AcDbCircle
 10
-24.00544699455744
 20
-10.10679378600679
 30
0.0
 40
0.0625
  0
CIRCLE
  5
48E
330
1F
100
AcDbEntity
  8
DEFAULT
100
AcDbCircle
 10
-23.25544699455744
 20
-10.10679378600679
 30
0.0
 40
0.0625
  0
CIRCLE
  5
48F
330
1F
100
AcDbEntity
  8
DEFAULT
100
AcDbCircle
 10
-22.50544699455744
 20
-10.10679378600679
 30
0.0
 40
0.0625
  0
CIRCLE
  5
490
330
1F
100
AcDbEntity
  8
DEFAULT
100
AcDbCircle
 10
-21.75544699455744
 20
-10.10679378600679
 30
0.0
 40
0.0625
  0
CIRCLE
  5
491
330
1F
100
AcDbEntity
  8
DEFAULT
100
AcDbCircle
 10
-21.00544699455744
 20
-10.10679378600679
 30
0.0
 40
0.0625
  0
CIRCLE
  5
492
330
1F
100
AcDbEntity
  8
DEFAULT
100
AcDbCircle
 10
-20.25544699455744
 20
-10.10679378600679
 30
0.0
 40
0.0625
  0
CIRCLE
  5
493
330
1F
100
AcDbEntity
  8
DEFAULT
100
AcDbCircle
 10
-18.00544699455744
 20
-10.10679378600679
 30
0.0
 40
0.0625
  0
CIRCLE
  5
494
330
1F
100
AcDbEntity
  8
DEFAULT
100
AcDbCircle
 10
-18.75544699455744
 20
-10.10679378600679
 30
0.0
 40
0.0625
  0
CIRCLE
  5
495
330
1F
100
AcDbEntity
  8
DEFAULT
100
AcDbCircle
 10
-19.50544699455744
 20
-10.10679378600679
 30
0.0
 40
0.0625
  0
CIRCLE
  5
496
330
1F
100
AcDbEntity
  8
DEFAULT
100
AcDbCircle
 10
-25.13044699455744
 20
-9.456793786006791
 30
0.0
 40
0.0625
  0
CIRCLE
  5
497
330
1F
100
AcDbEntity
  8
DEFAULT
100
AcDbCircle
 10
-25.88044699455744
 20
-9.456793786006791
 30
0.0
 40
0.0625
  0
CIRCLE
  5
498
330
1F
100
AcDbEntity
  8
DEFAULT
100
AcDbCircle
 10
-24.38044699455744
 20
-9.456793786006791
 30
0.0
 40
0.0625
  0
CIRCLE
  5
499
330
1F
100
AcDbEntity
  8
DEFAULT
100
AcDbCircle
 10
-23.63044699455744
 20
-9.456793786006791
 30
0.0
 40
0.0625
  0
CIRCLE
  5
49A
330
1F
100
AcDbEntity
  8
DEFAULT
100
AcDbCircle
 10
-22.88044699455744
 20
-9.456793786006791
 30
0.0
 40
0.0625
  0
CIRCLE
  5
49B
330
1F
100
AcDbEntity
  8
DEFAULT
100
AcDbCircle
 10
-22.13044699455744
 20
-9.456793786006791
 30
0.0
 40
0.0625
  0
CIRCLE
  5
49C
330
1F
100
AcDbEntity
  8
DEFAULT
100
AcDbCircle
 10
-21.38044699455744
 20
-9.456793786006791
 30
0.0
 40
0.0625
  0
CIRCLE
  5
49D
330
1F
100
AcDbEntity
  8
DEFAULT
100
AcDbCircle
 10
-20.63044699455744
 20
-9.456793786006791
 30
0.0
 40
0.0625
  0
CIRCLE
  5
49E
330
1F
100
AcDbEntity
  8
DEFAULT
100
AcDbCircle
 10
-19.88044699455744
 20
-9.456793786006791
 30
0.0
 40
0.0625
  0
CIRCLE
  5
49F
330
1F
100
AcDbEntity
  8
DEFAULT
100
AcDbCircle
 10
-18.38044699455744
 20
-9.456793786006791
 30
0.0
 40
0.0625
  0
CIRCLE
  5
4A0
330
1F
100
AcDbEntity
  8
DEFAULT
100
AcDbCircle
 10
-19.13044699455744
 20
-9.456793786006791
 30
0.0
 40
0.0625
  0
CIRCLE
  5
4A1
330
1F
100
AcDbEntity
  8
DEFAULT
100
AcDbCircle
 10
-24.75544699455744
 20
-8.806793786006793
 30
0.0
 40
0.0625
  0
CIRCLE
  5
4A2
330
1F
100
AcDbEntity
  8
DEFAULT
100
AcDbCircle
 10
-25.50544699455744
 20
-8.806793786006793
 30
0.0
 40
0.0625
  0
CIRCLE
  5
4A3
330
1F
100
AcDbEntity
  8
DEFAULT
100
AcDbCircle
 10
-24.00544699455744
 20
-8.806793786006793
 30
0.0
 40
0.0625
  0
CIRCLE
  5
4A4
330
1F
100
AcDbEntity
  8
DEFAULT
100
AcDbCircle
 10
-23.25544699455744
 20
-8.806793786006793
 30
0.0
 40
0.0625
  0
CIRCLE
  5
4A5
330
1F
100
AcDbEntity
  8
DEFAULT
100
AcDbCircle
 10
-22.50544699455744
 20
-8.806793786006793
 30
0.0
 40
0.0625
  0
CIRCLE
  5
4A6
330
1F
100
AcDbEntity
  8
DEFAULT
100
AcDbCircle
 10
-21.75544699455744
 20
-8.806793786006793
 30
0.0
 40
0.0625
  0
CIRCLE
  5
4A7
330
1F
100
AcDbEntity
  8
DEFAULT
100
AcDbCircle
 10
-21.00544699455744
 20
-8.806793786006793
 30
0.0
 40
0.0625
  0
CIRCLE
  5
4A8
330
1F
100
AcDbEntity
  8
DEFAULT
100
AcDbCircle
 10
-20.25544699455744
 20
-8.806793786006793
 30
0.0
 40
0.0625
  0
CIRCLE
  5
4A9
330
1F
100
AcDbEntity
  8
DEFAULT
100
AcDbCircle
 10
-19.50544699455744
 20
-8.806793786006793
 30
0.0
 40
0.0625
  0
CIRCLE
  5
4AA
330
1F
100
AcDbEntity
  8
DEFAULT
100
AcDbCircle
 10
-18.75544699455744
 20
-8.806793786006793
 30
0.0
 40
0.0625
  0
CIRCLE
  5
4AB
330
1F
100
AcDbEntity
  8
DEFAULT
100
AcDbCircle
 10
-24.38044699455744
 20
-8.156793786006793
 30
0.0
 40
0.0625
  0
CIRCLE
  5
4AC
330
1F
100
AcDbEntity
  8
DEFAULT
100
AcDbCircle
 10
-25.13044699455744
 20
-8.156793786006793
 30
0.0
 40
0.0625
  0
CIRCLE
  5
4AD
330
1F
100
AcDbEntity
  8
DEFAULT
100
AcDbCircle
 10
-23.63044699455744
 20
-8.156793786006793
 30
0.0
 40
0.0625
  0
CIRCLE
  5
4AE
330
1F
100
AcDbEntity
  8
DEFAULT
100
AcDbCircle
 10
-22.88044699455744
 20
-8.156793786006793
 30
0.0
 40
0.0625
  0
CIRCLE
  5
4AF
330
1F
100
AcDbEntity
  8
DEFAULT
100
AcDbCircle
 10
-22.13044699455744
 20
-8.156793786006793
 30
0.0
 40
0.0625
  0
CIRCLE
  5
4B0
330
1F
100
AcDbEntity
  8
DEFAULT
100
AcDbCircle
 10
-21.38044699455744
 20
-8.156793786006793
 30
0.0
 40
0.0625
  0
CIRCLE
  5
4B1
330
1F
100
AcDbEntity
  8
DEFAULT
100
AcDbCircle
 10
-20.63044699455744
 20
-8.156793786006793
 30
0.0
 40
0.0625
  0
CIRCLE
  5
4B2
330
1F
100
AcDbEntity
  8
DEFAULT
100
AcDbCircle
 10
-19.88044699455744
 20
-8.156793786006793
 30
0.0
 40
0.0625
  0
CIRCLE
  5
4B3
330
1F
100
AcDbEntity
  8
DEFAULT
100
AcDbCircle
 10
-19.13044699455744
 20
-8.156793786006793
 30
0.0
 40
0.0625
  0
CIRCLE
  5
4B4
330
1F
100
AcDbEntity
  8
DEFAULT
100
AcDbCircle
 10
-24.75544699455744
 20
-7.506793786006792
 30
0.0
 40
0.0625
  0
CIRCLE
  5
4B5
330
1F
100
AcDbEntity
  8
DEFAULT
100
AcDbCircle
 10
-25.50544699455744
 20
-7.506793786006792
 30
0.0
 40
0.0625
  0
CIRCLE
  5
4B6
330
1F
100
AcDbEntity
  8
DEFAULT
100
AcDbCircle
 10
-24.00544699455744
 20
-7.506793786006792
 30
0.0
 40
0.0625
  0
CIRCLE
  5
4B7
330
1F
100
AcDbEntity
  8
DEFAULT
100
AcDbCircle
 10
-23.25544699455744
 20
-7.506793786006792
 30
0.0
 40
0.0625
  0
CIRCLE
  5
4B8
330
1F
100
AcDbEntity
  8
DEFAULT
100
AcDbCircle
 10
-22.50544699455744
 20
-7.506793786006792
 30
0.0
 40
0.0625
  0
CIRCLE
  5
4B9
330
1F
100
AcDbEntity
  8
DEFAULT
100
AcDbCircle
 10
-21.75544699455744
 20
-7.506793786006792
 30
0.0
 40
0.0625
  0
CIRCLE
  5
4BA
330
1F
100
AcDbEntity
  8
DEFAULT
100
AcDbCircle
 10
-21.00544699455744
 20
-7.506793786006792
 30
0.0
 40
0.0625
  0
CIRCLE
  5
4BB
330
1F
100
AcDbEntity
  8
DEFAULT
100
AcDbCircle
 10
-20.25544699455744
 20
-7.506793786006792
 30
0.0
 40
0.0625
  0
CIRCLE
  5
4BC
330
1F
100
AcDbEntity
  8
DEFAULT
100
AcDbCircle
 10
-19.50544699455744
 20
-7.506793786006792
 30
0.0
 40
0.0625
  0
CIRCLE
  5
4BD
330
1F
100
AcDbEntity
  8
DEFAULT
100
AcDbCircle
 10
-18.75544699455744
 20
-7.506793786006792
 30
0.0
 40
0.0625
  0
CIRCLE
  5
4BE
330
1F
100
AcDbEntity
  8
DEFAULT
100
AcDbCircle
 10
-25.13044699455744
 20
-6.856793786006793
 30
0.0
 40
0.0625
  0
CIRCLE
  5
4BF
330
1F
100
AcDbEntity
  8
DEFAULT
100
AcDbCircle
 10
-25.88044699455744
 20
-6.856793786006793
 30
0.0
 40
0.0625
  0
CIRCLE
  5
4C0
330
1F
100
AcDbEntity
  8
DEFAULT
100
AcDbCircle
 10
-24.38044699455744
 20
-6.856793786006793
 30
0.0
 40
0.0625
  0
CIRCLE
  5
4C1
330
1F
100
AcDbEntity
  8
DEFAULT
100
AcDbCircle
 10
-23.63044699455744
 20
-6.856793786006793
 30
0.0
 40
0.0625
  0
CIRCLE
  5
4C2
330
1F
100
AcDbEntity
  8
DEFAULT
100
AcDbCircle
 10
-22.88044699455744
 20
-6.856793786006793
 30
0.0
 40
0.0625
  0
CIRCLE
  5
4C3
330
1F
100
AcDbEntity
  8
DEFAULT
100
AcDbCircle
 10
-22.13044699455744
 20
-6.856793786006793
 30
0.0
 40
0.0625
  0
CIRCLE
  5
4C4
330
1F
100
AcDbEntity
  8
DEFAULT
100
AcDbCircle
 10
-21.38044699455744
 20
-6.856793786006793
 30
0.0
 40
0.0625
  0
CIRCLE
  5
4C5
330
1F
100
AcDbEntity
  8
DEFAULT
100
AcDbCircle
 10
-20.63044699455744
 20
-6.856793786006793
 30
0.0
 40
0.0625
  0
CIRCLE
  5
4C6
330
1F
100
AcDbEntity
  8
DEFAULT
100
AcDbCircle
 10
-19.88044699455744
 20
-6.856793786006793
 30
0.0
 40
0.0625
  0
CIRCLE
  5
4C7
330
1F
100
AcDbEntity
  8
DEFAULT
100
AcDbCircle
 10
-18.38044699455744
 20
-6.856793786006793
 30
0.0
 40
0.0625
  0
CIRCLE
  5
4C8
330
1F
100
AcDbEntity
  8
DEFAULT
100
AcDbCircle
 10
-19.13044699455744
 20
-6.856793786006793
 30
0.0
 40
0.0625
  0
CIRCLE
  5
4C9
330
1F
100
AcDbEntity
  8
DEFAULT
100
AcDbCircle
 10
-25.50544699455744
 20
-6.206793786006792
 30
0.0
 40
0.0625
  0
CIRCLE
  5
4CA
330
1F
100
AcDbEntity
  8
DEFAULT
100
AcDbCircle
 10
-26.25544699455744
 20
-6.206793786006792
 30
0.0
 40
0.0625
  0
CIRCLE
  5
4CB
330
1F
100
AcDbEntity
  8
DEFAULT
100
AcDbCircle
 10
-24.75544699455744
 20
-6.206793786006792
 30
0.0
 40
0.0625
  0
CIRCLE
  5
4CC
330
1F
100
AcDbEntity
  8
DEFAULT
100
AcDbCircle
 10
-24.00544699455744
 20
-6.206793786006792
 30
0.0
 40
0.0625
  0
CIRCLE
  5
4CD
330
1F
100
AcDbEntity
  8
DEFAULT
100
AcDbCircle
 10
-23.25544699455744
 20
-6.206793786006792
 30
0.0
 40
0.0625
  0
CIRCLE
  5
4CE
330
1F
100
AcDbEntity
  8
DEFAULT
100
AcDbCircle
 10
-22.50544699455744
 20
-6.206793786006792
 30
0.0
 40
0.0625
  0
CIRCLE
  5
4CF
330
1F
100
AcDbEntity
  8
DEFAULT
100
AcDbCircle
 10
-21.75544699455744
 20
-6.206793786006792
 30
0.0
 40
0.0625
  0
CIRCLE
  5
4D0
330
1F
100
AcDbEntity
  8
DEFAULT
100
AcDbCircle
 10
-21.00544699455744
 20
-6.206793786006792
 30
0.0
 40
0.0625
  0
CIRCLE
  5
4D1
330
1F
100
AcDbEntity
  8
DEFAULT
100
AcDbCircle
 10
-20.25544699455744
 20
-6.206793786006792
 30
0.0
 40
0.0625
  0
CIRCLE
  5
4D2
330
1F
100
AcDbEntity
  8
DEFAULT
100
AcDbCircle
 10
-18.00544699455744
 20
-6.206793786006792
 30
0.0
 40
0.0625
  0
CIRCLE
  5
4D3
330
1F
100
AcDbEntity
  8
DEFAULT
100
AcDbCircle
 10
-18.75544699455744
 20
-6.206793786006792
 30
0.0
 40
0.0625
  0
CIRCLE
  5
4D4
330
1F
100
AcDbEntity
  8
DEFAULT
100
AcDbCircle
 10
-19.50544699455744
 20
-6.206793786006792
 30
0.0
 40
0.0625
  0
CIRCLE
  5
4D5
330
1F
100
AcDbEntity
  8
DEFAULT
100
AcDbCircle
 10
-25.88044699455744
 20
-5.556793786006792
 30
0.0
 40
0.0625
  0
CIRCLE
  5
4D6
330
1F
100
AcDbEntity
  8
DEFAULT
100
AcDbCircle
 10
-26.63044699455744
 20
-5.556793786006792
 30
0.0
 40
0.0625
  0
CIRCLE
  5
4D7
330
1F
100
AcDbEntity
  8
DEFAULT
100
AcDbCircle
 10
-25.13044699455744
 20
-5.556793786006792
 30
0.0
 40
0.0625
  0
CIRCLE
  5
4D8
330
1F
100
AcDbEntity
  8
DEFAULT
100
AcDbCircle
 10
-24.38044699455744
 20
-5.556793786006792
 30
0.0
 40
0.0625
  0
CIRCLE
  5
4D9
330
1F
100
AcDbEntity
  8
DEFAULT
100
AcDbCircle
 10
-23.63044699455744
 20
-5.556793786006792
 30
0.0
 40
0.0625
  0
CIRCLE
  5
4DA
330
1F
100
AcDbEntity
  8
DEFAULT
100
AcDbCircle
 10
-22.88044699455744
 20
-5.556793786006792
 30
0.0
 40
0.0625
  0
CIRCLE
  5
4DB
330
1F
100
AcDbEntity
  8
DEFAULT
100
AcDbCircle
 10
-22.13044699455744
 20
-5.556793786006792
 30
0.0
 40
0.0625
  0
CIRCLE
  5
4DC
330
1F
100
AcDbEntity
  8
DEFAULT
100
AcDbCircle
 10
-21.38044699455744
 20
-5.556793786006792
 30
0.0
 40
0.0625
  0
CIRCLE
  5
4DD
330
1F
100
AcDbEntity
  8
DEFAULT
100
AcDbCircle
 10
-20.63044699455744
 20
-5.556793786006792
 30
0.0
 40
0.0625
  0
CIRCLE
  5
4DE
330
1F
100
AcDbEntity
  8
DEFAULT
100
AcDbCircle
 10
-18.38044699455744
 20
-5.556793786006792
 30
0.0
 40
0.0625
  0
CIRCLE
  5
4DF
330
1F
100
AcDbEntity
  8
DEFAULT
100
AcDbCircle
 10
-19.13044699455744
 20
-5.556793786006792
 30
0.0
 40
0.0625
  0
CIRCLE
  5
4E0
330
1F
100
AcDbEntity
  8
DEFAULT
100
AcDbCircle
 10
-19.88044699455744
 20
-5.556793786006792
 30
0.0
 40
0.0625
  0
CIRCLE
  5
4E1
330
1F
100
AcDbEntity
  8
DEFAULT
100
AcDbCircle
 10
-17.63044699455744
 20
-5.556793786006792
 30
0.0
 40
0.0625
  0
CIRCLE
  5
4E2
330
1F
100
AcDbEntity
  8
DEFAULT
100
AcDbCircle
 10
-22.50544699455744
 20
-4.906793786006795
 30
0.0
 40
0.0625
  0
CIRCLE
  5
4E3
330
1F
100
AcDbEntity
  8
DEFAULT
100
AcDbCircle
 10
-23.25544699455744
 20
-4.906793786006795
 30
0.0
 40
0.0625
  0
CIRCLE
  5
4E4
330
1F
100
AcDbEntity
  8
DEFAULT
100
AcDbCircle
 10
-21.75544699455744
 20
-4.906793786006795
 30
0.0
 40
0.0625
  0
CIRCLE
  5
4E5
330
1F
100
AcDbEntity
  8
DEFAULT
100
AcDbCircle
 10
-21.00544699455744
 20
-4.906793786006795
 30
0.0
 40
0.0625
  0
CIRCLE
  5
4E6
330
1F
100
AcDbEntity
  8
DEFAULT
100
AcDbCircle
 10
-22.50544699455744
 20
-3.606793786006794
 30
0.0
 40
0.0625
  0
CIRCLE
  5
4E7
330
1F
100
AcDbEntity
  8
DEFAULT
100
AcDbCircle
 10
-21.75544699455744
 20
-3.606793786006794
 30
0.0
 40
0.0625
  0
CIRCLE
  5
4E8
330
1F
100
AcDbEntity
  8
DEFAULT
100
AcDbCircle
 10
-22.13044699455744
 20
-4.256793786006793
 30
0.0
 40
0.0625
  0
CIRCLE
  5
4E9
330
1F
100
AcDbEntity
  8
DEFAULT
100
AcDbCircle
 10
-22.88044699455744
 20
-4.256793786006793
 30
0.0
 40
0.0625
  0
CIRCLE
  5
4EA
330
1F
100
AcDbEntity
  8
DEFAULT
100
AcDbCircle
 10
-21.38044699455744
 20
-4.256793786006793
 30
0.0
 40
0.0625
  0
CIRCLE
  5
4EB
330
1F
100
AcDbEntity
  8
DEFAULT
100
AcDbCircle
 10
-22.13044699455744
 20
-2.956793786006789
 30
0.0
 40
0.0625
  0
LINE
  5
4EC
330
1F
100
AcDbEntity
  8
0
100
AcDbLine
 10
-26.75988619945073
 20
-11.08179378600679
 30
0.0
 11
-23.81773871906235
 21
-11.08179378600679
 31
0.0
  0
LINE
  5
4ED
330
1F
100
AcDbEntity
  8
0
100
AcDbLine
 10
-23.81773871906235
 20
-11.08179378600679
 30
0.0
 11
-20.44315527005253
 21
-11.08179378600679
 31
0.0
  0
LINE
  5
4EE
330
1F
100
AcDbEntity
  8
0
100
AcDbLine
 10
-20.44315527005253
 20
-11.08179378600679
 30
0.0
 11
-17.50100778966414
 21
-11.08179378600679
 31
0.0
  0
LINE
  5
4EF
330
1F
100
AcDbEntity
  8
0
100
AcDbLine
 10
-25.50523871906235
 20
-8.156793786006794
 30
0.0
 11
-23.81773871906235
 21
-11.08179378600679
 31
0.0
  0
LINE
  5
4F0
330
1F
100
AcDbEntity
  8
0
100
AcDbLine
 10
-23.81773871906235
 20
-11.08179378600679
 30
0.0
 11
-22.34699339106959
 21
-13.6310856878609
 31
0.0
  0
LINE
  5
4F1
330
1F
100
AcDbEntity
  8
0
100
AcDbLine
 10
-25.50523871906235
 20
-8.156793786006794
 30
0.0
 11
-26.97643259596289
 21
-5.606724399379189
 31
0.0
  0
LINE
  5
4F2
330
1F
100
AcDbEntity
  8
0
100
AcDbLine
 10
-26.75988619945074
 20
-5.231793786006794
 30
0.0
 11
-23.81773871906235
 21
-5.231793786006794
 31
0.0
  0
LINE
  5
4F3
330
1F
100
AcDbEntity
  8
0
100
AcDbLine
 10
-23.81773871906235
 20
-5.231793786006794
 30
0.0
 11
-20.44315527005252
 21
-5.231793786006794
 31
0.0
  0
LINE
  5
4F4
330
1F
100
AcDbEntity
  8
0
100
AcDbLine
 10
-20.44315527005252
 20
-5.231793786006794
 30
0.0
 11
-17.50100778966413
 21
-5.231793786006794
 31
0.0
  0
LINE
  5
4F5
330
1F
100
AcDbEntity
  8
0
100
AcDbLine
 10
-17.28446139315198
 20
-5.606724399379189
 30
0.0
 11
-18.75565527005253
 21
-8.156793786006794
 31
0.0
  0
LINE
  5
4F6
330
1F
100
AcDbEntity
  8
0
100
AcDbLine
 10
-18.75565527005253
 20
-8.156793786006794
 30
0.0
 11
-20.44315527005253
 21
-11.08179378600679
 31
0.0
  0
LINE
  5
4F7
330
1F
100
AcDbEntity
  8
0
100
AcDbLine
 10
-20.44315527005253
 20
-11.08179378600679
 30
0.0
 11
-21.91390059804529
 21
-13.6310856878609
 31
0.0
  0
LINE
  5
4F8
330
1F
100
AcDbEntity
  8
0
100
AcDbLine
 10
-26.97643259596288
 20
-10.7068631726344
 30
0.0
 11
-25.50523871906235
 21
-8.156793786006794
 31
0.0
  0
LINE
  5
4F9
330
1F
100
AcDbEntity
  8
0
100
AcDbLine
 10
-25.50523871906235
 20
-8.156793786006794
 30
0.0
 11
-23.81773871906235
 21
-5.231793786006794
 31
0.0
  0
LINE
  5
4FA
330
1F
100
AcDbEntity
  8
0
100
AcDbLine
 10
-23.81773871906235
 20
-5.231793786006794
 30
0.0
 11
-22.34699339106959
 21
-2.682501884152675
 31
0.0
  0
LINE
  5
4FB
330
1F
100
AcDbEntity
  8
0
100
AcDbLine
 10
-21.91390059804528
 20
-2.682501884152675
 30
0.0
 11
-20.44315527005252
 21
-5.231793786006794
 31
0.0
  0
LINE
  5
4FC
330
1F
100
AcDbEntity
  8
0
100
AcDbLine
 10
-20.44315527005252
 20
-5.231793786006794
 30
0.0
 11
-18.75565527005253
 21
-8.156793786006794
 31
0.0
  0
LINE
  5
4FD
330
1F
100
AcDbEntity
  8
0
100
AcDbLine
 10
-18.75565527005253
 20
-8.156793786006794
 30
0.0
 11
-17.28446139315199
 21
-10.7068631726344
 31
0.0
  0
CIRCLE
  5
4FE
330
1F
100
AcDbEntity
  8
DEFAULT
100
AcDbCircle
 10
-18.38044699455744
 20
-10.75679378600679
 30
0.0
 40
0.0625
  0
ARC
  5
4FF
330
1F
100
AcDbEntity
  8
0
100
AcDbCircle
 10
-26.75988619945073
 20
-10.83179378600679
 30
0.0
 40
0.2499999999999999
100
AcDbArc
 50
150.0183606311506
 51
270.0
  0
ARC
  5
512
330
1F
100
AcDbEntity
  8
0
100
AcDbCircle
 10
-22.13044699455744
 20
-13.50615507448851
 30
0.0
 40
0.25
100
AcDbArc
 50
209.9816393688494
 51
330.0183606311506
  0
ARC
  5
513
330
1F
100
AcDbEntity
  8
0
100
AcDbCircle
 10
-17.50100778966414
 20
-10.83179378600679
 30
0.0
 40
0.25
100
AcDbArc
 50
270.0
 51
29.98163936884939
  0
ARC
  5
514
330
1F
100
AcDbEntity
  8
0
100
AcDbCircle
 10
-17.50100778966413
 20
-5.481793786006794
 30
0.0
 40
0.2499999999999999
100
AcDbArc
 50
330.0183606311506
 51
90.0
  0
ARC
  5
515
330
1F
100
AcDbEntity
  8
0
100
AcDbCircle
 10
-22.13044699455743
 20
-2.80743249752507
 30
0.0
 40
0.25
100
AcDbArc
 50
29.98163936884934
 51
150.0183606311506
  0
ARC
  5
516
330
1F
100
AcDbEntity
  8
0
100
AcDbCircle
 10
-26.75988619945074
 20
-5.481793786006794
 30
0.0
 40
0.25
100
AcDbArc
 50
90.0
 51
209.9816393688494
  0
LWPOLYLINE
  5
521
330
1F
100
AcDbEntity
  8
0
100
AcDbPolyline
 90
        4
 70
     1
 43
0.0
 10
-33.40483622067373
 20
-12.78190349932449
 10
-30.46268874028534
 20
-12.78190349932449
 42
0.5772434563077554
 10
-30.24614234377319
 20
-12.4069728859521
 10
-31.71733622067373
 20
-9.856903499324492
  0
LWPOLYLINE
  5
534
330
1F
100
AcDbEntity
  8
0
100
AcDbPolyline
 90
        6
 70
     1
 43
0.0
 10
-30.77151756377112
 20
-1.909541889096744
 10
-34.14610101278095
 20
-1.909541889096744
 10
-35.83360101278095
 20
-4.834541889096744
 10
-34.14610101278095
 20
-7.759541889096741
 10
-30.77151756377113
 20
-7.759541889096741
 10
-29.08401756377113
 20
-4.834541889096744
  0
LWPOLYLINE
  5
551
330
1F
100
AcDbEntity
  8
0
 62
     5
100
AcDbPolyline
 90
        4
 70
     1
 43
0.0
 10
-37.71348444488246
 20
-0.8863556017701057
 10
-37.71348444488246
 20
-17.00408755507312
 10
-15.14865971025824
 20
-17.00408755507312
 10
-15.14865971025824
 20
-0.8863556017701057
  0
TEXT
  5
552
330
1F
100
AcDbEntity
  8
0
100
AcDbText
 10
-36.51863700320887
 20
-14.50637034275634
 30
0.0
 40
1.039562474604131
  1
.25 radius
 50
360.0
100
AcDbText
  0
TEXT
  5
553
330
1F
100
AcDbEntity
  8
0
100
AcDbText
 10
-36.51863700320887
 20
-16.23897446709656
 30
0.0
 40
1.039562474604131
  1
for inlaying
 50
360.0
100
AcDbText
  0
TEXT
  5
555
330
1F
100
AcDbEntity
  8
0
100
AcDbText
 10
-22.62126392570378
 20
-22.27591222278703
 30
0.0
 40
0.8252278760091158
  1
All marble holes are drawn at .125.
100
AcDbText
  0
ENDSEC
  0
SECTION
  2
OBJECTS
  0
DICTIONARY
  5
C
330
0
100
AcDbDictionary
281
     1
  3
ACAD_COLOR
350
73
  3
ACAD_GROUP
350
D
  3
ACAD_IMAGE_VARS
350
DC
  3
ACAD_LAYOUT
350
1A
  3
ACAD_MATERIAL
350
72
  3
ACAD_MLEADERSTYLE
350
B5
  3
ACAD_MLINESTYLE
350
17
  3
ACAD_PLOTSETTINGS
350
19
  3
ACAD_PLOTSTYLENAME
350
E
  3
ACAD_SCALELIST
350
B6
  3
ACAD_TABLESTYLE
350
86
  3
ACAD_VISUALSTYLE
350
99
  3
ACDB_RECOMPOSE_DATA
350
557
  3
AcDbVariableDictionary
350
66
  3
APPDATA
350
E1
  0
DICTIONARY
  5
73
102
{ACAD_REACTORS
330
C
102
}
330
C
100
AcDbDictionary
281
     1
  0
DICTIONARY
  5
D
102
{ACAD_REACTORS
330
C
102
}
330
C
100
AcDbDictionary
281
     1
  0
RASTERVARIABLES
  5
DC
102
{ACAD_REACTORS
330
C
102
}
330
C
100
AcDbRasterVariables
 90
        0
 70
     1
 71
     1
 72
     5
  0
DICTIONARY
  5
1A
102
{ACAD_REACTORS
330
C
102
}
330
C
100
AcDbDictionary
281
     1
  3
Model
350
22
  3
Sheet1
350
59
  3
Sheet2
350
5E
  0
DICTIONARY
  5
72
102
{ACAD_REACTORS
330
C
102
}
330
C
100
AcDbDictionary
281
     1
  3
ByBlock
350
E2
  3
ByLayer
350
96
  3
Global
350
98
  0
DICTIONARY
  5
B5
102
{ACAD_REACTORS
330
C
102
}
330
C
100
AcDbDictionary
281
     1
  0
DICTIONARY
  5
17
102
{ACAD_REACTORS
330
C
102
}
330
C
100
AcDbDictionary
281
     1
  3
Standard
350
18
  0
DICTIONARY
  5
19
102
{ACAD_REACTORS
330
C
102
}
330
C
100
AcDbDictionary
281
     1
  0
ACDBDICTIONARYWDFLT
  5
E
102
{ACAD_REACTORS
330
C
102
}
330
C
100
AcDbDictionary
281
     1
  3
Normal
350
F
100
AcDbDictionaryWithDefault
340
F
  0
DICTIONARY
  5
B6
102
{ACAD_REACTORS
330
C
102
}
330
C
100
AcDbDictionary
281
     1
  3
A0
350
B7
  3
A1
350
B8
  3
A2
350
B9
  3
A3
350
BA
  3
A4
350
BB
  3
A5
350
BC
  3
A6
350
BD
  3
A7
350
BE
  3
A8
350
BF
  3
A9
350
C0
  3
B0
350
C1
  3
B1
350
C2
  3
B2
350
C3
  3
B3
350
C4
  3
B4
350
C5
  3
B5
350
C6
  3
B6
350
C7
  3
B7
350
C8
  3
B8
350
C9
  3
B9
350
CA
  3
C0
350
CB
  3
C1
350
CC
  3
C2
350
CD
  3
C3
350
CE
  3
C4
350
CF
  3
C5
350
D0
  3
C6
350
D1
  3
C7
350
D2
  3
C8
350
D3
  3
C9
350
D4
  3
D0
350
D5
  3
D1
350
D6
  3
D2
350
D7
  0
DICTIONARY
  5
86
102
{ACAD_REACTORS
330
C
102
}
330
C
100
AcDbDictionary
281
     1
  3
Standard
350
87
  0
DICTIONARY
  5
99
102
{ACAD_REACTORS
330
C
102
}
330
C
100
AcDbDictionary
281
     1
  3
2dWireframe
350
9F
  3
3D Hidden
350
A1
  3
3dWireframe
350
A0
  3
Basic
350
9E
  3
Brighten
350
A5
  3
ColorChange
350
A9
  3
Conceptual
350
A2
  3
Dim
350
A4
  3
Facepattern
350
A8
  3
Flat
350
9A
  3
FlatWithEdges
350
9B
  3
Gouraud
350
9C
  3
GouraudWithEdges
350
9D
  3
Linepattern
350
A7
  3
Realistic
350
A3
  3
Thicken
350
A6
  0
XRECORD
  5
557
102
{ACAD_REACTORS
330
C
102
}
330
C
100
AcDbXrecord
280
     1
 90
        1
330
87
  0
DICTIONARY
  5
66
102
{ACAD_REACTORS
330
C
102
}
330
C
100
AcDbDictionary
281
     1
  3
CANNOSCALE
350
D8
  3
CTABLESTYLE
350
89
  3
DIMASSOC
350
67
  3
HIDETEXT
350
6B
  3
LIGHTSINBLOCKS
350
DF
  3
XCLIPFRAME
350
E0
  0
DICTIONARY
  5
E1
102
{ACAD_REACTORS
330
C
102
}
330
C
100
AcDbDictionary
281
     1
  0
LAYOUT
  5
22
102
{ACAD_REACTORS
330
1A
102
}
330
1A
100
AcDbPlotSettings
  1

  2
none_device
  4
ANSI_A_(8.50_x_11.00_Inches)
  6

 40
6.35
 41
19.05
 42
6.35
 43
19.05
 44
215.9
 45
279.4
 46
11.11250000000003
 47
0.0000000000000142
 48
0.0
 49
0.0
140
0.0
141
0.0
142
1.0
143
1.263157894736842
 70
 11444
 72
     0
 73
     1
 74
     1
  7
monochrome.ctb
 75
     0
 76
     0
 77
     2
 78
   300
147
0.7916666666666665
148
-702.8076765758875
149
-496.2830551296954
100
AcDbLayout
  1
Model
 70
     1
 71
     0
 10
0.0
 20
0.0
 11
12.0
 21
9.0
 12
0.0
 22
0.0
 32
0.0
 14
1.000000000000000E+20
 24
1.000000000000000E+20
 34
1.000000000000000E+20
 15
-1.000000000000000E+20
 25
-1.000000000000000E+20
 35
-1.000000000000000E+20
146
0.0
 13
0.0
 23
0.0
 33
0.0
 16
1.0
 26
0.0
 36
0.0
 17
0.0
 27
1.0
 37
0.0
 76
     0
330
1F
331
94
  0
LAYOUT
  5
59
102
{ACAD_REACTORS
330
1A
102
}
330
1A
100
AcDbPlotSettings
  1

  2
None
  4

  6

 40
0.0
 41
0.0
 42
0.0
 43
0.0
 44
0.0
 45
0.0
 46
0.0
 47
0.0
 48
0.0
 49
0.0
140
0.0
141
0.0
142
1.0
143
1.0
 70
   688
 72
     0
 73
     0
 74
     5
  7

 75
    16
 76
     0
 77
     2
 78
   300
147
1.0
148
0.0
149
0.0
100
AcDbLayout
  1
Sheet1
 70
     1
 71
     1
 10
0.0
 20
0.0
 11
12.0
 21
9.0
 12
0.0
 22
0.0
 32
0.0
 14
0.0
 24
0.0
 34
0.0
 15
0.0
 25
0.0
 35
0.0
146
0.0
 13
0.0
 23
0.0
 33
0.0
 16
1.0
 26
0.0
 36
0.0
 17
0.0
 27
1.0
 37
0.0
 76
     0
330
58
  0
LAYOUT
  5
5E
102
{ACAD_REACTORS
330
1A
102
}
330
1A
100
AcDbPlotSettings
  1

  2
None
  4

  6

 40
0.0
 41
0.0
 42
0.0
 43
0.0
 44
0.0
 45
0.0
 46
0.0
 47
0.0
 48
0.0
 49
0.0
140
0.0
141
0.0
142
1.0
143
1.0
 70
   688
 72
     0
 73
     0
 74
     5
  7

 75
    16
 76
     0
 77
     2
 78
   300
147
1.0
148
0.0
149
0.0
100
AcDbLayout
  1
Sheet2
 70
     1
 71
     2
 10
0.0
 20
0.0
 11
12.0
 21
9.0
 12
0.0
 22
0.0
 32
0.0
 14
0.0
 24
0.0
 34
0.0
 15
0.0
 25
0.0
 35
0.0
146
0.0
 13
0.0
 23
0.0
 33
0.0
 16
1.0
 26
0.0
 36
0.0
 17
0.0
 27
1.0
 37
0.0
 76
     0
330
5D
  0
MATERIAL
  5
E2
102
{ACAD_REACTORS
330
72
102
}
330
72
100
AcDbMaterial
  1
ByBlock
 72
     1
 94
      127
  0
MATERIAL
  5
96
102
{ACAD_REACTORS
330
72
102
}
330
72
100
AcDbMaterial
  1
ByLayer
 72
     1
 94
       63
  0
MATERIAL
  5
98
102
{ACAD_REACTORS
330
72
102
}
330
72
100
AcDbMaterial
  1
Global
 72
     1
 94
       63
  0
MLINESTYLE
  5
18
102
{ACAD_REACTORS
330
17
102
}
330
17
100
AcDbMlineStyle
  2
STANDARD
 70
     0
  3

 62
   256
 51
90.0
 52
90.0
 71
     2
 49
0.5
 62
   256
  6
BYLAYER
 49
-0.5
 62
   256
  6
BYLAYER
  0
ACDBPLACEHOLDER
  5
F
102
{ACAD_REACTORS
330
E
102
}
330
E
  0
SCALE
  5
B7
102
{ACAD_REACTORS
330
B6
102
}
330
B6
100
AcDbScale
 70
     0
300
1:1
140
1.0
141
1.0
290
     1
  0
SCALE
  5
B8
102
{ACAD_REACTORS
330
B6
102
}
330
B6
100
AcDbScale
 70
     0
300
1:2
140
1.0
141
2.0
290
     0
  0
SCALE
  5
B9
102
{ACAD_REACTORS
330
B6
102
}
330
B6
100
AcDbScale
 70
     0
300
1:4
140
1.0
141
4.0
290
     0
  0
SCALE
  5
BA
102
{ACAD_REACTORS
330
B6
102
}
330
B6
100
AcDbScale
 70
     0
300
1:5
140
1.0
141
5.0
290
     0
  0
SCALE
  5
BB
102
{ACAD_REACTORS
330
B6
102
}
330
B6
100
AcDbScale
 70
     0
300
1:8
140
1.0
141
8.0
290
     0
  0
SCALE
  5
BC
102
{ACAD_REACTORS
330
B6
102
}
330
B6
100
AcDbScale
 70
     0
300
1:10
140
1.0
141
10.0
290
     0
  0
SCALE
  5
BD
102
{ACAD_REACTORS
330
B6
102
}
330
B6
100
AcDbScale
 70
     0
300
1:16
140
1.0
141
16.0
290
     0
  0
SCALE
  5
BE
102
{ACAD_REACTORS
330
B6
102
}
330
B6
100
AcDbScale
 70
     0
300
1:20
140
1.0
141
20.0
290
     0
  0
SCALE
  5
BF
102
{ACAD_REACTORS
330
B6
102
}
330
B6
100
AcDbScale
 70
     0
300
1:30
140
1.0
141
30.0
290
     0
  0
SCALE
  5
C0
102
{ACAD_REACTORS
330
B6
102
}
330
B6
100
AcDbScale
 70
     0
300
1:40
140
1.0
141
40.0
290
     0
  0
SCALE
  5
C1
102
{ACAD_REACTORS
330
B6
102
}
330
B6
100
AcDbScale
 70
     0
300
1:50
140
1.0
141
50.0
290
     0
  0
SCALE
  5
C2
102
{ACAD_REACTORS
330
B6
102
}
330
B6
100
AcDbScale
 70
     0
300
1:100
140
1.0
141
100.0
290
     0
  0
SCALE
  5
C3
102
{ACAD_REACTORS
330
B6
102
}
330
B6
100
AcDbScale
 70
     0
300
2:1
140
2.0
141
1.0
290
     0
  0
SCALE
  5
C4
102
{ACAD_REACTORS
330
B6
102
}
330
B6
100
AcDbScale
 70
     0
300
4:1
140
4.0
141
1.0
290
     0
  0
SCALE
  5
C5
102
{ACAD_REACTORS
330
B6
102
}
330
B6
100
AcDbScale
 70
     0
300
8:1
140
8.0
141
1.0
290
     0
  0
SCALE
  5
C6
102
{ACAD_REACTORS
330
B6
102
}
330
B6
100
AcDbScale
 70
     0
300
10:1
140
10.0
141
1.0
290
     0
  0
SCALE
  5
C7
102
{ACAD_REACTORS
330
B6
102
}
330
B6
100
AcDbScale
 70
     0
300
100:1
140
100.0
141
1.0
290
     0
  0
SCALE
  5
C8
102
{ACAD_REACTORS
330
B6
102
}
330
B6
100
AcDbScale
 70
     0
300
1/128\" = 1\'-0\"
140
0.0078125
141
12.0
290
     0
  0
SCALE
  5
C9
102
{ACAD_REACTORS
330
B6
102
}
330
B6
100
AcDbScale
 70
     0
300
1/64\" = 1\'-0\"
140
0.015625
141
12.0
290
     0
  0
SCALE
  5
CA
102
{ACAD_REACTORS
330
B6
102
}
330
B6
100
AcDbScale
 70
     0
300
1/32\" = 1\'-0\"
140
0.03125
141
12.0
290
     0
  0
SCALE
  5
CB
102
{ACAD_REACTORS
330
B6
102
}
330
B6
100
AcDbScale
 70
     0
300
1/16\" = 1\'-0\"
140
0.0625
141
12.0
290
     0
  0
SCALE
  5
CC
102
{ACAD_REACTORS
330
B6
102
}
330
B6
100
AcDbScale
 70
     0
300
3/32\" = 1\'-0\"
140
0.09375
141
12.0
290
     0
  0
SCALE
  5
CD
102
{ACAD_REACTORS
330
B6
102
}
330
B6
100
AcDbScale
 70
     0
300
1/8\" = 1\'-0\"
140
0.125
141
12.0
290
     0
  0
SCALE
  5
CE
102
{ACAD_REACTORS
330
B6
102
}
330
B6
100
AcDbScale
 70
     0
300
3/16\" = 1\'-0\"
140
0.1875
141
12.0
290
     0
  0
SCALE
  5
CF
102
{ACAD_REACTORS
330
B6
102
}
330
B6
100
AcDbScale
 70
     0
300
1/4\" = 1\'-0\"
140
0.25
141
12.0
290
     0
  0
SCALE
  5
D0
102
{ACAD_REACTORS
330
B6
102
}
330
B6
100
AcDbScale
 70
     0
300
3/8\" = 1\'-0\"
140
0.375
141
12.0
290
     0
  0
SCALE
  5
D1
102
{ACAD_REACTORS
330
B6
102
}
330
B6
100
AcDbScale
 70
     0
300
1/2\" = 1\'-0\"
140
0.5
141
12.0
290
     0
  0
SCALE
  5
D2
102
{ACAD_REACTORS
330
B6
102
}
330
B6
100
AcDbScale
 70
     0
300
3/4\" = 1\'-0\"
140
0.75
141
12.0
290
     0
  0
SCALE
  5
D3
102
{ACAD_REACTORS
330
B6
102
}
330
B6
100
AcDbScale
 70
     0
300
1\" = 1\'-0\"
140
1.0
141
12.0
290
     0
  0
SCALE
  5
D4
102
{ACAD_REACTORS
330
B6
102
}
330
B6
100
AcDbScale
 70
     0
300
1-1/2\" = 1\'-0\"
140
1.5
141
12.0
290
     0
  0
SCALE
  5
D5
102
{ACAD_REACTORS
330
B6
102
}
330
B6
100
AcDbScale
 70
     0
300
3\" = 1\'-0\"
140
3.0
141
12.0
290
     0
  0
SCALE
  5
D6
102
{ACAD_REACTORS
330
B6
102
}
330
B6
100
AcDbScale
 70
     0
300
6\" = 1\'-0\"
140
6.0
141
12.0
290
     0
  0
SCALE
  5
D7
102
{ACAD_REACTORS
330
B6
102
}
330
B6
100
AcDbScale
 70
     0
300
1\'-0\" = 1\'-0\"
140
12.0
141
12.0
290
     0
  0
TABLESTYLE
  5
87
102
{ACAD_REACTORS
330
86
102
}
102
{ACAD_XDICTIONARY
360
1F2
102
}
330
86
100
AcDbTableStyle
  3
Standard
 70
     0
 71
     0
 40
0.06
 41
0.06
280
     0
281
     0
  7
Standard
140
0.18
170
     2
 62
     0
 63
   257
283
     0
 90
      512
 91
        0
  1

274
    -2
284
     1
 64
     0
275
    -2
285
     1
 65
     0
276
    -2
286
     1
 66
     0
277
    -2
287
     1
 67
     0
278
    -2
288
     1
 68
     0
279
    -2
289
     1
 69
     0
  7
Standard
140
0.25
170
     5
 62
     0
 63
   257
283
     0
 90
      512
 91
        0
  1

274
    -2
284
     1
 64
     0
275
    -2
285
     1
 65
     0
276
    -2
286
     1
 66
     0
277
    -2
287
     1
 67
     0
278
    -2
288
     1
 68
     0
279
    -2
289
     1
 69
     0
  7
Standard
140
0.18
170
     5
 62
     0
 63
   257
283
     0
 90
      512
 91
        0
  1

274
    -2
284
     1
 64
     0
275
    -2
285
     1
 65
     0
276
    -2
286
     1
 66
     0
277
    -2
287
     1
 67
     0
278
    -2
288
     1
 68
     0
279
    -2
289
     1
 69
     0
  0
VISUALSTYLE
  5
9F
102
{ACAD_REACTORS
330
99
102
}
330
99
100
AcDbVisualStyle
  2
2dWireframe
 70
     4
177
     2
291
     0
 71
     0
176
     1
 72
     2
176
     1
 73
     1
176
     1
 90
        0
176
     1
 40
-0.6
176
     1
 41
-30.0
176
     1
 62
     5
 63
     7
421
 16777215
176
     1
 74
     1
176
     1
 91
        4
176
     1
 64
     7
176
     1
 65
   257
176
     1
 75
     1
176
     1
175
     1
176
     1
 42
1.0
176
     1
 92
        0
176
     1
 66
   257
176
     1
 43
1.0
176
     1
 76
     1
176
     1
 77
     6
176
     1
 78
     2
176
     1
 67
     7
176
     1
 79
     5
176
     1
170
     0
176
     1
171
     0
176
     1
290
     0
176
     1
 93
        1
176
     1
 44
0.0
176
     1
173
     0
176
     1
  0
VISUALSTYLE
  5
A1
102
{ACAD_REACTORS
330
99
102
}
330
99
100
AcDbVisualStyle
  2
3D Hidden
 70
     6
177
     2
291
     0
 71
     1
176
     1
 72
     2
176
     1
 73
     2
176
     1
 90
        0
176
     1
 40
-0.6
176
     1
 41
-30.0
176
     1
 62
     5
 63
     7
421
 16777215
176
     1
 74
     2
176
     1
 91
        2
176
     1
 64
     7
176
     1
 65
   257
176
     1
 75
     2
176
     1
175
     1
176
     1
 42
40.0
176
     1
 92
        0
176
     1
 66
   257
176
     1
 43
1.0
176
     1
 76
     1
176
     1
 77
     6
176
     1
 78
     2
176
     1
 67
     7
176
     1
 79
     3
176
     1
170
     0
176
     1
171
     0
176
     1
290
     0
176
     1
 93
        1
176
     1
 44
0.0
176
     1
173
     0
176
     1
  0
VISUALSTYLE
  5
A0
102
{ACAD_REACTORS
330
99
102
}
330
99
100
AcDbVisualStyle
  2
3dWireframe
 70
     5
177
     2
291
     0
 71
     0
176
     1
 72
     2
176
     1
 73
     1
176
     1
 90
        0
176
     1
 40
-0.6
176
     1
 41
-30.0
176
     1
 62
     5
 63
     7
421
 16777215
176
     1
 74
     1
176
     1
 91
        4
176
     1
 64
     7
176
     1
 65
   257
176
     1
 75
     1
176
     1
175
     1
176
     1
 42
1.0
176
     1
 92
        0
176
     1
 66
   257
176
     1
 43
1.0
176
     1
 76
     1
176
     1
 77
     6
176
     1
 78
     2
176
     1
 67
     7
176
     1
 79
     5
176
     1
170
     0
176
     1
171
     0
176
     1
290
     0
176
     1
 93
        1
176
     1
 44
0.0
176
     1
173
     0
176
     1
  0
VISUALSTYLE
  5
9E
102
{ACAD_REACTORS
330
99
102
}
330
99
100
AcDbVisualStyle
  2
Basic
 70
     7
177
     2
291
     1
 71
     1
176
     1
 72
     0
176
     1
 73
     1
176
     1
 90
        0
176
     1
 40
-0.6
176
     1
 41
-30.0
176
     1
 62
     5
 63
     7
421
 16777215
176
     1
 74
     0
176
     1
 91
        4
176
     1
 64
     7
176
     1
 65
   257
176
     1
 75
     1
176
     1
175
     1
176
     1
 42
1.0
176
     1
 92
        8
176
     1
 66
     7
176
     1
 43
1.0
176
     1
 76
     1
176
     1
 77
     6
176
     1
 78
     2
176
     1
 67
     7
176
     1
 79
     5
176
     1
170
     0
176
     1
171
     0
176
     1
290
     0
176
     1
 93
        1
176
     1
 44
0.0
176
     1
173
     0
176
     1
  0
VISUALSTYLE
  5
A5
102
{ACAD_REACTORS
330
99
102
}
330
99
100
AcDbVisualStyle
  2
Brighten
 70
    12
177
     2
291
     1
 71
     2
176
     1
 72
     2
176
     1
 73
     1
176
     1
 90
        0
176
     1
 40
-0.6
176
     1
 41
-30.0
176
     1
 62
     5
 63
     7
421
 16777215
176
     1
 74
     1
176
     1
 91
        4
176
     1
 64
     7
176
     1
 65
   257
176
     1
 75
     1
176
     1
175
     1
176
     1
 42
1.0
176
     1
 92
        8
176
     1
 66
     7
176
     1
 43
1.0
176
     1
 76
     1
176
     1
 77
     6
176
     1
 78
     2
176
     1
 67
     7
176
     1
 79
     5
176
     1
170
     0
176
     1
171
     0
176
     1
290
     0
176
     1
 93
        1
176
     1
 44
50.0
176
     1
173
     0
176
     1
  0
VISUALSTYLE
  5
A9
102
{ACAD_REACTORS
330
99
102
}
330
99
100
AcDbVisualStyle
  2
ColorChange
 70
    16
177
     2
291
     1
 71
     2
176
     1
 72
     2
176
     1
 73
     3
176
     1
 90
        0
176
     1
 40
-0.6
176
     1
 41
-30.0
176
     1
 62
     5
 63
     8
421
  8421504
176
     1
 74
     1
176
     1
 91
        4
176
     1
 64
     7
176
     1
 65
   257
176
     1
 75
     1
176
     1
175
     1
176
     1
 42
1.0
176
     1
 92
        8
176
     1
 66
     8
424
  8421504
176
     1
 43
1.0
176
     1
 76
     1
176
     1
 77
     6
176
     1
 78
     2
176
     1
 67
     7
176
     1
 79
     5
176
     1
170
     0
176
     1
171
     0
176
     1
290
     0
176
     1
 93
        1
176
     1
 44
0.0
176
     1
173
     0
176
     1
  0
VISUALSTYLE
  5
A2
102
{ACAD_REACTORS
330
99
102
}
330
99
100
AcDbVisualStyle
  2
Conceptual
 70
     9
177
     2
291
     0
 71
     3
176
     1
 72
     2
176
     1
 73
     1
176
     1
 90
        0
176
     1
 40
-0.6
176
     1
 41
-30.0
176
     1
 62
     5
 63
     7
421
 16777215
176
     1
 74
     2
176
     1
 91
        2
176
     1
 64
     7
176
     1
 65
   257
176
     1
 75
     1
176
     1
175
     1
176
     1
 42
40.0
176
     1
 92
        8
176
     1
 66
     7
176
     1
 43
1.0
176
     1
 76
     1
176
     1
 77
     6
176
     1
 78
     2
176
     1
 67
     7
176
     1
 79
     3
176
     1
170
     0
176
     1
171
     0
176
     1
290
     0
176
     1
 93
        1
176
     1
 44
0.0
176
     1
173
     0
176
     1
  0
VISUALSTYLE
  5
A4
102
{ACAD_REACTORS
330
99
102
}
330
99
100
AcDbVisualStyle
  2
Dim
 70
    11
177
     2
291
     1
 71
     2
176
     1
 72
     2
176
     1
 73
     1
176
     1
 90
        0
176
     1
 40
-0.6
176
     1
 41
-30.0
176
     1
 62
     5
 63
     7
421
 16777215
176
     1
 74
     1
176
     1
 91
        4
176
     1
 64
     7
176
     1
 65
   257
176
     1
 75
     1
176
     1
175
     1
176
     1
 42
1.0
176
     1
 92
        8
176
     1
 66
     7
176
     1
 43
1.0
176
     1
 76
     1
176
     1
 77
     6
176
     1
 78
     2
176
     1
 67
     7
176
     1
 79
     5
176
     1
170
     0
176
     1
171
     0
176
     1
290
     0
176
     1
 93
        1
176
     1
 44
-50.0
176
     1
173
     0
176
     1
  0
VISUALSTYLE
  5
A8
102
{ACAD_REACTORS
330
99
102
}
330
99
100
AcDbVisualStyle
  2
Facepattern
 70
    15
177
     2
291
     1
 71
     2
176
     1
 72
     2
176
     1
 73
     1
176
     1
 90
        0
176
     1
 40
-0.6
176
     1
 41
-30.0
176
     1
 62
     5
 63
     7
421
 16777215
176
     1
 74
     1
176
     1
 91
        4
176
     1
 64
     7
176
     1
 65
   257
176
     1
 75
     1
176
     1
175
     1
176
     1
 42
1.0
176
     1
 92
        8
176
     1
 66
     7
176
     1
 43
1.0
176
     1
 76
     1
176
     1
 77
     6
176
     1
 78
     2
176
     1
 67
     7
176
     1
 79
     5
176
     1
170
     0
176
     1
171
     0
176
     1
290
     0
176
     1
 93
        1
176
     1
 44
0.0
176
     1
173
     0
176
     1
  0
VISUALSTYLE
  5
9A
102
{ACAD_REACTORS
330
99
102
}
330
99
100
AcDbVisualStyle
  2
Flat
 70
     0
177
     2
291
     1
 71
     2
176
     1
 72
     1
176
     1
 73
     1
176
     1
 90
        2
176
     1
 40
-0.6
176
     1
 41
30.0
176
     1
 62
     5
 63
     7
421
 16777215
176
     1
 74
     0
176
     1
 91
        4
176
     1
 64
     7
176
     1
 65
   257
176
     1
 75
     1
176
     1
175
     1
176
     1
 42
1.0
176
     1
 92
        8
176
     1
 66
     7
176
     1
 43
1.0
176
     1
 76
     1
176
     1
 77
     6
176
     1
 78
     2
176
     1
 67
     7
176
     1
 79
     5
176
     1
170
     0
176
     1
171
     0
176
     1
290
     0
176
     1
 93
        1
176
     1
 44
0.0
176
     1
173
     0
176
     1
  0
VISUALSTYLE
  5
9B
102
{ACAD_REACTORS
330
99
102
}
330
99
100
AcDbVisualStyle
  2
FlatWithEdges
 70
     1
177
     2
291
     1
 71
     2
176
     1
 72
     1
176
     1
 73
     1
176
     1
 90
        2
176
     1
 40
-0.6
176
     1
 41
30.0
176
     1
 62
     5
 63
     7
421
 16777215
176
     1
 74
     1
176
     1
 91
        4
176
     1
 64
     7
176
     1
 65
   257
176
     1
 75
     1
176
     1
175
     1
176
     1
 42
1.0
176
     1
 92
        0
176
     1
 66
   257
176
     1
 43
1.0
176
     1
 76
     1
176
     1
 77
     6
176
     1
 78
     2
176
     1
 67
     7
176
     1
 79
     5
176
     1
170
     0
176
     1
171
     0
176
     1
290
     0
176
     1
 93
        1
176
     1
 44
0.0
176
     1
173
     0
176
     1
  0
VISUALSTYLE
  5
9C
102
{ACAD_REACTORS
330
99
102
}
330
99
100
AcDbVisualStyle
  2
Gouraud
 70
     2
177
     2
291
     1
 71
     2
176
     1
 72
     2
176
     1
 73
     1
176
     1
 90
        2
176
     1
 40
-0.6
176
     1
 41
30.0
176
     1
 62
     5
 63
     7
421
 16777215
176
     1
 74
     0
176
     1
 91
        4
176
     1
 64
     7
176
     1
 65
   257
176
     1
 75
     1
176
     1
175
     1
176
     1
 42
1.0
176
     1
 92
        0
176
     1
 66
     7
176
     1
 43
1.0
176
     1
 76
     1
176
     1
 77
     6
176
     1
 78
     2
176
     1
 67
     7
176
     1
 79
     5
176
     1
170
     0
176
     1
171
     0
176
     1
290
     0
176
     1
 93
        1
176
     1
 44
0.0
176
     1
173
     0
176
     1
  0
VISUALSTYLE
  5
9D
102
{ACAD_REACTORS
330
99
102
}
330
99
100
AcDbVisualStyle
  2
GouraudWithEdges
 70
     3
177
     2
291
     1
 71
     2
176
     1
 72
     2
176
     1
 73
     1
176
     1
 90
        2
176
     1
 40
-0.6
176
     1
 41
30.0
176
     1
 62
     5
 63
     7
421
 16777215
176
     1
 74
     1
176
     1
 91
        4
176
     1
 64
     7
176
     1
 65
   257
176
     1
 75
     1
176
     1
175
     1
176
     1
 42
1.0
176
     1
 92
        0
176
     1
 66
   257
176
     1
 43
1.0
176
     1
 76
     1
176
     1
 77
     6
176
     1
 78
     2
176
     1
 67
     7
176
     1
 79
     5
176
     1
170
     0
176
     1
171
     0
176
     1
290
     0
176
     1
 93
        1
176
     1
 44
0.0
176
     1
173
     0
176
     1
  0
VISUALSTYLE
  5
A7
102
{ACAD_REACTORS
330
99
102
}
330
99
100
AcDbVisualStyle
  2
Linepattern
 70
    14
177
     2
291
     1
 71
     2
176
     1
 72
     2
176
     1
 73
     1
176
     1
 90
        0
176
     1
 40
-0.6
176
     1
 41
-30.0
176
     1
 62
     5
 63
     7
421
 16777215
176
     1
 74
     1
176
     1
 91
        4
176
     1
 64
     7
176
     1
 65
   257
176
     1
 75
     7
176
     1
175
     7
176
     1
 42
1.0
176
     1
 92
        8
176
     1
 66
     7
176
     1
 43
1.0
176
     1
 76
     1
176
     1
 77
     6
176
     1
 78
     2
176
     1
 67
     7
176
     1
 79
     5
176
     1
170
     0
176
     1
171
     0
176
     1
290
     0
176
     1
 93
        1
176
     1
 44
0.0
176
     1
173
     0
176
     1
  0
VISUALSTYLE
  5
A3
102
{ACAD_REACTORS
330
99
102
}
330
99
100
AcDbVisualStyle
  2
Realistic
 70
     8
177
     2
291
     0
 71
     2
176
     1
 72
     2
176
     1
 73
     1
176
     1
 90
        0
176
     1
 40
-0.6
176
     1
 41
-30.0
176
     1
 62
     5
 63
     7
421
 16777215
176
     1
 74
     1
176
     1
 91
        0
176
     1
 64
     7
176
     1
 65
   257
176
     1
 75
     1
176
     1
175
     1
176
     1
 42
1.0
176
     1
 92
        8
176
     1
 66
     8
424
  7895160
176
     1
 43
1.0
176
     1
 76
     1
176
     1
 77
     6
176
     1
 78
     2
176
     1
 67
     7
176
     1
 79
     5
176
     1
170
     0
176
     1
171
     0
176
     1
290
     0
176
     1
 93
       13
176
     1
 44
0.0
176
     1
173
     0
176
     1
  0
VISUALSTYLE
  5
A6
102
{ACAD_REACTORS
330
99
102
}
330
99
100
AcDbVisualStyle
  2
Thicken
 70
    13
177
     2
291
     1
 71
     2
176
     1
 72
     2
176
     1
 73
     1
176
     1
 90
        0
176
     1
 40
-0.6
176
     1
 41
-30.0
176
     1
 62
     5
 63
     7
421
 16777215
176
     1
 74
     1
176
     1
 91
        4
176
     1
 64
     7
176
     1
 65
   257
176
     1
 75
     1
176
     1
175
     1
176
     1
 42
1.0
176
     1
 92
       12
176
     1
 66
     7
176
     1
 43
1.0
176
     1
 76
     1
176
     1
 77
     6
176
     1
 78
     2
176
     1
 67
     7
176
     1
 79
     5
176
     1
170
     0
176
     1
171
     0
176
     1
290
     0
176
     1
 93
        1
176
     1
 44
0.0
176
     1
173
     0
176
     1
  0
DICTIONARYVAR
  5
D8
102
{ACAD_REACTORS
330
66
102
}
330
66
100
DictionaryVariables
280
     0
  1
1:1
  0
DICTIONARYVAR
  5
89
102
{ACAD_REACTORS
330
66
102
}
330
66
100
DictionaryVariables
280
     0
  1
Standard
  0
DICTIONARYVAR
  5
67
102
{ACAD_REACTORS
330
66
102
}
330
66
100
DictionaryVariables
280
     0
  1
2
  0
DICTIONARYVAR
  5
6B
102
{ACAD_REACTORS
330
66
102
}
330
66
100
DictionaryVariables
280
     0
  1
1
  0
DICTIONARYVAR
  5
DF
102
{ACAD_REACTORS
330
66
102
}
330
66
100
DictionaryVariables
280
     0
  1
0
  0
DICTIONARYVAR
  5
E0
102
{ACAD_REACTORS
330
66
102
}
330
66
100
DictionaryVariables
280
     0
  1
0
  0
DICTIONARY
  5
1F2
330
87
100
AcDbDictionary
280
     1
281
     1
  3
ACAD_ROUNDTRIP_2008_TABLESTYLE_CELLSTYLEMAP
360
556
  0
CELLSTYLEMAP
  5
556
102
{ACAD_REACTORS
330
1F2
102
}
330
1F2
100
AcDbCellStyleMap
 90
        3
300
CELLSTYLE
  1
TABLEFORMAT_BEGIN
 90
        5
170
     1
 91
        0
 92
    32768
 62
   257
 93
        1
300
CONTENTFORMAT
  1
CONTENTFORMAT_BEGIN
 90
        0
 91
        0
 92
      512
 93
        0
300

 40
0.0
140
1.0
 94
        5
 62
     0
340
11
144
0.25
309
CONTENTFORMAT_END
171
     1
301
MARGIN
  1
CELLMARGIN_BEGIN
 40
0.06
 40
0.06
 40
0.06
 40
0.06
 40
0.06
 40
0.06
309
CELLMARGIN_END
 94
        6
 95
        1
302
GRIDFORMAT
  1
GRIDFORMAT_BEGIN
 90
        0
 91
        1
 62
     0
 92
       -2
340
0
 93
        0
 40
0.045
309
GRIDFORMAT_END
 95
        2
302
GRIDFORMAT
  1
GRIDFORMAT_BEGIN
 90
        0
 91
        1
 62
     0
 92
       -2
340
0
 93
        0
 40
0.045
309
GRIDFORMAT_END
 95
        4
302
GRIDFORMAT
  1
GRIDFORMAT_BEGIN
 90
        0
 91
        1
 62
     0
 92
       -2
340
0
 93
        0
 40
0.045
309
GRIDFORMAT_END
 95
        8
302
GRIDFORMAT
  1
GRIDFORMAT_BEGIN
 90
        0
 91
        1
 62
     0
 92
       -2
340
0
 93
        0
 40
0.045
309
GRIDFORMAT_END
 95
       16
302
GRIDFORMAT
  1
GRIDFORMAT_BEGIN
 90
        0
 91
        1
 62
     0
 92
       -2
340
0
 93
        0
 40
0.045
309
GRIDFORMAT_END
 95
       32
302
GRIDFORMAT
  1
GRIDFORMAT_BEGIN
 90
        0
 91
        1
 62
     0
 92
       -2
340
0
 93
        0
 40
0.045
309
GRIDFORMAT_END
309
TABLEFORMAT_END
  1
CELLSTYLE_BEGIN
 90
        1
 91
        1
300
_TITLE
309
CELLSTYLE_END
300
CELLSTYLE
  1
TABLEFORMAT_BEGIN
 90
        5
170
     1
 91
        0
 92
        0
 62
   257
 93
        1
300
CONTENTFORMAT
  1
CONTENTFORMAT_BEGIN
 90
        0
 91
        0
 92
      512
 93
        0
300

 40
0.0
140
1.0
 94
        5
 62
     0
340
11
144
0.18
309
CONTENTFORMAT_END
171
     1
301
MARGIN
  1
CELLMARGIN_BEGIN
 40
0.06
 40
0.06
 40
0.06
 40
0.06
 40
0.06
 40
0.06
309
CELLMARGIN_END
 94
        6
 95
        1
302
GRIDFORMAT
  1
GRIDFORMAT_BEGIN
 90
        0
 91
        1
 62
     0
 92
       -2
340
0
 93
        0
 40
0.045
309
GRIDFORMAT_END
 95
        2
302
GRIDFORMAT
  1
GRIDFORMAT_BEGIN
 90
        0
 91
        1
 62
     0
 92
       -2
340
0
 93
        0
 40
0.045
309
GRIDFORMAT_END
 95
        4
302
GRIDFORMAT
  1
GRIDFORMAT_BEGIN
 90
        0
 91
        1
 62
     0
 92
       -2
340
0
 93
        0
 40
0.045
309
GRIDFORMAT_END
 95
        8
302
GRIDFORMAT
  1
GRIDFORMAT_BEGIN
 90
        0
 91
        1
 62
     0
 92
       -2
340
0
 93
        0
 40
0.045
309
GRIDFORMAT_END
 95
       16
302
GRIDFORMAT
  1
GRIDFORMAT_BEGIN
 90
        0
 91
        1
 62
     0
 92
       -2
340
0
 93
        0
 40
0.045
309
GRIDFORMAT_END
 95
       32
302
GRIDFORMAT
  1
GRIDFORMAT_BEGIN
 90
        0
 91
        1
 62
     0
 92
       -2
340
0
 93
        0
 40
0.045
309
GRIDFORMAT_END
309
TABLEFORMAT_END
  1
CELLSTYLE_BEGIN
 90
        2
 91
        1
300
_HEADER
309
CELLSTYLE_END
300
CELLSTYLE
  1
TABLEFORMAT_BEGIN
 90
        5
170
     1
 91
        0
 92
        0
 62
   257
 93
        1
300
CONTENTFORMAT
  1
CONTENTFORMAT_BEGIN
 90
        0
 91
        0
 92
      512
 93
        0
300

 40
0.0
140
1.0
 94
        2
 62
     0
340
11
144
0.18
309
CONTENTFORMAT_END
171
     1
301
MARGIN
  1
CELLMARGIN_BEGIN
 40
0.06
 40
0.06
 40
0.06
 40
0.06
 40
0.06
 40
0.06
309
CELLMARGIN_END
 94
        6
 95
        1
302
GRIDFORMAT
  1
GRIDFORMAT_BEGIN
 90
        0
 91
        1
 62
     0
 92
       -2
340
0
 93
        0
 40
0.045
309
GRIDFORMAT_END
 95
        2
302
GRIDFORMAT
  1
GRIDFORMAT_BEGIN
 90
        0
 91
        1
 62
     0
 92
       -2
340
0
 93
        0
 40
0.045
309
GRIDFORMAT_END
 95
        4
302
GRIDFORMAT
  1
GRIDFORMAT_BEGIN
 90
        0
 91
        1
 62
     0
 92
       -2
340
0
 93
        0
 40
0.045
309
GRIDFORMAT_END
 95
        8
302
GRIDFORMAT
  1
GRIDFORMAT_BEGIN
 90
        0
 91
        1
 62
     0
 92
       -2
340
0
 93
        0
 40
0.045
309
GRIDFORMAT_END
 95
       16
302
GRIDFORMAT
  1
GRIDFORMAT_BEGIN
 90
        0
 91
        1
 62
     0
 92
       -2
340
0
 93
        0
 40
0.045
309
GRIDFORMAT_END
 95
       32
302
GRIDFORMAT
  1
GRIDFORMAT_BEGIN
 90
        0
 91
        1
 62
     0
 92
       -2
340
0
 93
        0
 40
0.045
309
GRIDFORMAT_END
309
TABLEFORMAT_END
  1
CELLSTYLE_BEGIN
 90
        3
 91
        2
300
_DATA
309
CELLSTYLE_END
  0
ENDSEC
  0
EOF
