<?xml version="1.0" encoding="UTF-8" standalone="no"?>
<svg
   xmlns:dc="http://purl.org/dc/elements/1.1/"
   xmlns:cc="http://creativecommons.org/ns#"
   xmlns:rdf="http://www.w3.org/1999/02/22-rdf-syntax-ns#"
   xmlns:svg="http://www.w3.org/2000/svg"
   xmlns="http://www.w3.org/2000/svg"
   id="svg1913"
   version="1.1"
   viewBox="0 0 210 297"
   height="297mm"
   width="210mm">
  <defs
     id="defs1907" />
  <metadata
     id="metadata1910">
    <rdf:RDF>
      <cc:Work
         rdf:about="">
        <dc:format>image/svg+xml</dc:format>
        <dc:type
           rdf:resource="http://purl.org/dc/dcmitype/StillImage" />
        <dc:title></dc:title>
      </cc:Work>
    </rdf:RDF>
  </metadata>
  <g
     id="layer1">
    <g
       transform="matrix(0.26458333,0,0,0.26458333,-91.184516,30.124955)"
       id="g2022">
      <path
         d="m 816.3533,881.0073 h 8.5039 v 56.6929 h -8.5039 l 10e-4,88.441 h -71.4345 v 8.5045 H 703.534 v -8.5045 h -43.6535 v 8.5045 H 618.495 v -8.5045 h -43.6535 v 8.5045 h -41.3858 v -8.5045 H 476.1958 V 792.5664 h 57.2599 v -8.5034 h 41.3858 v 8.5034 h 43.6535 v -8.5034 h 41.3859 v 8.5034 h 43.6535 v -8.5034 h 41.3858 v 8.5034 h 71.4345 z m -229.8901,0 h 28.3465 v 56.6929 h -28.3465 c -15.6551,0 -28.3464,-12.691 -28.3464,-28.3464 0,-15.6555 12.6913,-28.3465 28.3464,-28.3465 z m 102.0479,56.6929 v -56.6929 h 56.6929 v 56.6929 z m -65.1972,0 v -56.6929 h 56.6929 v 56.6929 z"
         style="fill:none;stroke:#1b1918;stroke-width:0.21600001;stroke-linecap:round;stroke-linejoin:round;stroke-dasharray:none"
         id="path1915" />
      <path
         d="M 1123.7902,785.1969 H 830.9906 v 249.4488 h 22.5819 v -8.5045 l 30.4118,5e-4 v -5e-4 8.5045 h 31.7945 v -8.5045 l 30.412,5e-4 v -5e-4 8.5045 h 31.7934 v -8.5045 l 30.4121,5e-4 v -5e-4 8.5045 h 31.7948 v -8.5045 l 30.4118,5e-4 v -5e-4 8.5045 h 31.7939 v -8.5045 l 21.3934,2e-4 z m -21.3602,217.8428 h 8.5045 v -47.3386 h -8.5045 z m -259.0872,0 h 8.5045 v -47.3386 h -8.5045 z"
         style="fill:none;stroke:#1b1918;stroke-width:0.21600001;stroke-linecap:round;stroke-linejoin:round;stroke-dasharray:none"
         id="path1917" />
      <path
         d="m 1123.7902,531.798 h -22.0842 v 8.5047 l -30.4118,-5e-4 v 5e-4 -8.5047 h -31.7945 v 8.5047 l -30.412,-5e-4 v 5e-4 -8.5047 h -31.794 v 8.5047 l -30.4118,-5e-4 v 5e-4 -8.5047 h -31.7945 v 8.5047 l -30.4115,-5e-4 v 5e-4 -8.5047 h -31.7942 v 8.5047 l -22.4915,-2e-4 v 240.9446 h 293.4 z m -271.9429,31.6063 h -8.5045 v 47.3385 h 8.5045 z m 259.0872,0 h -8.5045 v 47.3385 h 8.5045 z"
         style="fill:none;stroke:#1b1918;stroke-width:0.21600001;stroke-linecap:round;stroke-linejoin:round;stroke-dasharray:none"
         id="path1919" />
      <path
         d="m 1492.9645,1028.0945 -92.4191,-103.9966 c -14.9318,7.3329 -32.5545,7.3327 -47.4863,-3e-4 l -92.419,103.9966 -36.1931,-36.193 103.9967,-92.4191 c -7.3327,-14.9318 -7.3327,-32.5542 0,-47.486 l -103.9964,-92.4193 36.193,-36.1931 92.4191,103.9969 c 14.9318,-7.3323 32.5548,-7.3329 47.486,-3e-4 l 92.4194,-103.9963 36.193,36.193 -103.9966,92.4191 c 7.3327,14.9318 7.3327,32.5545 0,47.486 l 51.9335,46.1523 52.0628,46.2671 z M 1376.8024,856.6053 c 10.5673,0 19.1339,8.5665 19.1339,19.1338 0,10.5673 -8.5666,19.1339 -19.1339,19.1339 -10.5673,0 -19.1338,-8.5666 -19.1338,-19.1339 0,-10.5673 8.5665,-19.1338 19.1338,-19.1338 z m 101.3468,144.5723 10.205,11.4828 9.8785,-9.8787 -10.8437,-10.8437 z m -16.6368,-18.7206 10.978,12.3531 8.8855,-8.8852 -11.6657,-11.6657 z m -17.4101,-19.5911 11.7513,13.2236 7.8435,-7.8434 -12.4875,-12.4875 z m -18.1837,-20.461 12.5249,14.0936 6.753,-6.753 -13.3093,-13.3092 z m -18.957,-21.3313 13.2982,14.9638 5.6143,-5.6143 -14.131,-14.131 z m -1.2316,-10.7946 -11.7258,-11.7258 -3.7364,3.7361 11.035,12.4168 z m 87.2714,76.0467 10.8436,10.8437 9.8787,-9.8785 -11.4828,-10.205 z m -17.6789,-17.6788 11.6657,11.6657 8.8852,-8.8855 -12.3531,-10.978 z m -18.5006,-18.5006 12.4875,12.4875 7.8435,-7.8435 -13.2237,-11.7513 z m -19.3223,-19.3224 13.3092,13.3093 6.753,-6.753 -14.0936,-12.5249 z m -20.1442,-20.1441 14.131,14.131 5.6143,-5.6143 -14.9638,-13.2982 z m -1.586,-10.4403 -12.4168,-11.035 -3.7361,3.7364 11.7258,11.7258 z m 86.4715,-125.8472 11.4828,-10.205 -9.8787,-9.8784 -10.8436,10.8436 z m -18.7206,16.6368 12.3531,-10.978 -8.8852,-8.8855 -11.6657,11.6657 z m -19.5911,17.4101 13.2237,-11.7513 -7.8435,-7.8434 -12.4875,12.4874 z m -20.461,18.1837 14.0936,-12.5249 -6.753,-6.7529 -13.3092,13.3092 z m -21.3313,18.957 14.9638,-13.2982 -5.6143,-5.6143 -14.131,14.131 z m -10.7946,1.2317 -11.7258,11.7258 3.7361,3.7363 12.4168,-11.035 z m 76.0467,-87.2714 10.8437,-10.8437 -9.8785,-9.8787 -10.205,11.4829 z m -17.6788,17.6788 11.6657,-11.6657 -8.8855,-8.8852 -10.978,12.3531 z m -18.5006,18.5006 12.4875,-12.4874 -7.8435,-7.8435 -11.7513,13.2236 z m -19.3224,19.3224 13.3093,-13.3092 -6.753,-6.753 -12.5249,14.0936 z m -20.1441,20.1441 14.131,-14.131 -5.6143,-5.6143 -13.2982,14.9638 z m -10.4403,1.586 -11.035,12.4169 3.7364,3.736 11.7258,-11.7258 z m -125.8472,-86.4714 -10.205,-11.4829 -9.8784,9.8787 10.8436,10.8437 z m 16.6368,18.7205 -10.978,-12.3531 -8.8855,8.8852 11.6657,11.6657 z m 17.4102,19.5911 -11.7514,-13.2236 -7.8434,7.8435 12.4874,12.4874 z m 18.1836,20.4611 -12.5248,-14.0936 -6.753,6.753 13.3092,13.3092 z m 18.957,21.3312 -13.2982,-14.9638 -5.6143,5.6143 14.131,14.131 z m 1.2317,10.7946 11.7258,11.7258 3.7363,-3.736 -11.035,-12.4169 z m -87.2714,-76.0467 -10.8437,-10.8436 -9.8787,9.8784 11.4829,10.205 z m 17.6788,17.6788 -11.6657,-11.6657 -8.8852,8.8855 12.3531,10.978 z m 18.5006,18.5006 -12.4874,-12.4874 -7.8435,7.8434 13.2236,11.7513 z m 19.3224,19.3224 -13.3092,-13.3092 -6.753,6.7529 14.0936,12.5249 z m 20.1441,20.1441 -14.131,-14.131 -5.6143,5.6143 14.9638,13.2982 z m 1.586,10.4403 12.4169,11.035 3.736,-3.7363 -11.7257,-11.7258 z m -86.4714,125.8472 -11.4829,10.205 9.8787,9.8785 10.8437,-10.8437 z m 18.7205,-16.6368 -12.3531,10.978 8.8852,8.8855 11.6657,-11.6657 z m 19.5911,-17.4101 -13.2236,11.7513 7.8435,7.8435 12.4874,-12.4875 z m 20.4611,-18.1837 -14.0936,12.5249 6.753,6.753 13.3092,-13.3093 z m 21.3312,-18.957 -14.9638,13.2982 5.6143,5.6143 14.131,-14.131 z m 10.7947,-1.2316 11.7257,-11.7258 -3.736,-3.7364 -12.4169,11.035 z m -76.0468,87.2713 -10.8436,10.8437 9.8784,9.8787 10.205,-11.4828 z m 17.6788,-17.6788 -11.6657,11.6657 8.8855,8.8852 10.978,-12.3531 z m 18.5006,-18.5006 -12.4874,12.4875 7.8434,7.8434 11.7514,-13.2236 z m 19.3224,-19.3223 -13.3092,13.3092 6.753,6.753 12.5248,-14.0936 z m 20.1441,-20.1442 -14.131,14.131 5.6143,5.6143 13.2982,-14.9638 z m 10.4403,-1.586 11.035,-12.4168 -3.7363,-3.7361 -11.7258,11.7258 z"
         style="fill:none;stroke:#1b1918;stroke-width:0.21600001;stroke-linecap:round;stroke-linejoin:round;stroke-dasharray:none"
         id="path1921" />
      <path
         d="m 1144.4562,915.4369 c 0,15.6552 12.6909,28.3465 28.3464,28.3465 15.6555,0 28.3465,-12.6913 28.3465,-28.3465 v -28.3464 h -56.6929 z m 0,-36.8504 h 56.6929 v -56.6929 h -56.6929 z m 0,-65.1968 h 56.6929 v -56.6929 h -56.6929 z m -11.3386,92.126 v 9.9212 c 0,21.9175 17.7675,39.6851 39.685,39.6851 21.9175,0 39.6851,-17.7676 39.6851,-39.6851 v -9.9212 h 4.2519 v -11.3386 h -4.2519 v -38.2677 h 4.2519 v -11.3386 h -4.2519 v -38.2677 h 4.2519 v -11.3386 h -4.2519 v -38.2677 h 4.2519 v -11.3386 h -4.2519 -79.3701 -4.252 v 11.3386 h 4.252 v 38.2677 h -4.252 v 11.3386 h 4.252 v 38.2677 h -4.252 v 11.3386 h 4.252 v 38.2677 h -4.252 v 11.3386 z"
         style="fill:none;stroke:#e30016;stroke-width:0.21600001;stroke-linecap:round;stroke-linejoin:round;stroke-dasharray:none"
         id="path1923" />
      <path
         d="m 34.937,731.2433 c 15.6552,0 28.3465,12.691 28.3465,28.3465 0,15.6555 -12.6913,28.3465 -28.3465,28.3465 -15.6552,0 -28.3464,-12.691 -28.3464,-28.3465 0,-15.6555 12.6912,-28.3465 28.3464,-28.3465 z M 30.6856,763.842 H 21.189 v -8.5042 h 9.4966 v -9.496 h 8.5034 v 9.496 h 9.496 v 8.5042 h -9.496 v 9.4958 h -8.5034 z"
         style="fill:none;stroke:#1b1918;stroke-width:0.21600001;stroke-linecap:round;stroke-linejoin:round;stroke-dasharray:none"
         id="path1925" />
      <path
         d="m 467.716,623.5464 h 8.5045 v 56.6929 h -8.5045 l 5e-4,99.2126 h -71.433 v -8.5045 h -41.3861 l 2e-4,8.5045 h -43.6535 v -8.5045 h -41.3858 v 8.5045 h -43.6536 v -8.5045 h -41.3858 v 8.5045 H 127.5591 L 0,651.8928 127.5591,524.3338 h 57.2598 l -3e-4,8.5033 h 41.3858 l 3e-4,-8.5033 h 43.6536 l -3e-4,8.5033 h 41.3858 l 3e-4,-8.5033 h 43.6535 l -2e-4,8.5033 h 41.3858 l 3e-4,-8.5033 h 71.433 z"
         style="fill:none;stroke:#1b1918;stroke-width:0.21600001;stroke-linecap:round;stroke-linejoin:round;stroke-dasharray:none"
         id="path1927" />
      <path
         d="m 147.119,911.2632 h -9.4967 v -8.5042 h 9.4967 v -9.4961 h 8.5033 v 9.4961 h 9.4961 v 8.5042 h -9.4961 v 9.4958 h -8.5033 z"
         style="fill:none;stroke:#1b1918;stroke-width:0.21600001;stroke-linecap:round;stroke-linejoin:round;stroke-dasharray:none"
         id="path1929" />
      <path
         d="m 476.2205,779.4519 v 19.8425 h -36.8499 c -53.2281,0 -96.3779,48.2261 -96.3779,107.7165 0,59.4905 43.1498,107.7166 96.3779,107.7166 h 36.8499 v 19.8425 c -27.4017,0 -52.5354,0 -79.937,0 v -8.5045 h -41.3859 v 8.5045 h -43.6535 v -8.5045 h -41.3858 v 8.5045 h -43.6536 v -8.5045 h -41.3858 v 8.5045 H 127.5591 L 0,907.0109 127.5591,779.4519 h 57.2598 v 8.5033 h 41.3858 v -8.5033 h 43.6536 v 8.5033 h 41.3858 v -8.5033 h 43.6535 v 8.5033 h 41.3859 v -8.5033 c 27.4016,0 52.5353,0 79.937,0 z"
         style="fill:none;stroke:#1b1918;stroke-width:0.21600001;stroke-linecap:round;stroke-linejoin:round;stroke-dasharray:none"
         id="path1931" />
      <path
         d="m 816.3533,630.4246 h 8.5039 v 56.6929 h -8.5039 l 10e-4,88.441 h -71.4345 v 8.5045 H 703.534 v -8.5045 h -43.6535 v 8.5045 H 618.495 v -8.5045 h -43.6535 v 8.5045 h -41.3858 v -8.5045 H 476.1958 V 541.9837 h 57.2599 v -8.5034 h 41.3858 v 8.5034 h 43.6535 v -8.5034 h 41.3859 v 8.5034 h 43.6535 v -8.5034 h 41.3858 v 8.5034 h 71.4345 z m -229.8901,0 h 28.3465 v 56.6929 h -28.3465 c -15.6551,0 -28.3464,-12.6909 -28.3464,-28.3464 0,-15.6555 12.6913,-28.3465 28.3464,-28.3465 z m 102.0479,56.6929 v -56.6929 h 56.6929 v 56.6929 z m -65.1972,0 v -56.6929 h 56.6929 v 56.6929 z"
         style="fill:none;stroke:#1b1918;stroke-width:0.21600001;stroke-linecap:round;stroke-linejoin:round;stroke-dasharray:none"
         id="path1933" />
      <path
         d="m 34.937,792.0366 c 15.6552,0 28.3465,12.691 28.3465,28.3464 0,15.6555 -12.6913,28.3465 -28.3465,28.3465 -15.6552,0 -28.3464,-12.691 -28.3464,-28.3465 0,-15.6554 12.6912,-28.3464 28.3464,-28.3464 z m -4.2514,32.5987 H 21.189 v -8.5042 h 9.4966 v -9.4961 h 8.5034 v 9.4961 h 9.496 v 8.5042 h -9.496 v 9.4958 h -8.5034 z"
         style="fill:none;stroke:#1b1918;stroke-width:0.21600001;stroke-linecap:round;stroke-linejoin:round;stroke-dasharray:none"
         id="path1935" />
      <path
         d="m 34.937,962.2857 c 15.6552,0 28.3465,12.691 28.3465,28.3464 0,15.6555 -12.6913,28.3465 -28.3465,28.3465 -15.6552,0 -28.3464,-12.691 -28.3464,-28.3465 0,-15.6554 12.6912,-28.3464 28.3464,-28.3464 z m -4.2514,32.5987 H 21.189 v -8.5042 h 9.4966 v -9.4961 h 8.5034 v 9.4961 h 9.496 v 8.5042 h -9.496 v 9.4958 h -8.5034 z"
         style="fill:none;stroke:#1b1918;stroke-width:0.21600001;stroke-linecap:round;stroke-linejoin:round;stroke-dasharray:none"
         id="path1937" />
      <path
         d="m 1242.8362,576.5668 125.1266,125.1263 c -18.0876,0 -36.6001,0 -54.6871,0 v 8.5045 h -47.3386 v -8.5045 h -14.5978 l -8.504,-8.5039 v -14.5979 h -8.5045 v -47.3385 h 8.5045 c 0,0 9e-4,-36.5996 9e-4,-54.686 z"
         style="fill:none;stroke:#1b1918;stroke-width:0.21600001;stroke-linecap:round;stroke-linejoin:round;stroke-dasharray:none"
         id="path1939" />
      <path
         d="M 1368.5664,699.5014 1243.4397,574.375 c 18.0876,0 36.6001,0 54.6872,0 v -8.5045 h 47.3385 v 8.5045 h 14.5979 l 8.5039,8.504 v 14.5978 h 8.5045 v 47.3386 h -8.5045 c 0,0 -8e-4,36.5996 -8e-4,54.686 z"
         style="fill:none;stroke:#1b1918;stroke-width:0.21600001;stroke-linecap:round;stroke-linejoin:round;stroke-dasharray:none"
         id="path1941" />
      <path
         d="m 404.4404,887.1687 c 15.6552,0 28.3465,12.691 28.3465,28.3464 0,15.6555 -12.6913,28.3465 -28.3465,28.3465 -15.6551,0 -28.3464,-12.691 -28.3464,-28.3465 0,-15.6554 12.6913,-28.3464 28.3464,-28.3464 z m -4.2514,32.5987 h -9.4966 v -8.5042 h 9.4966 v -9.4961 h 8.5034 v 9.4961 h 9.4961 v 8.5042 h -9.4961 v 9.4958 h -8.5034 z"
         style="fill:none;stroke:#1b1918;stroke-width:0.21600001;stroke-linecap:round;stroke-linejoin:round;stroke-dasharray:none"
         id="path1943" />
      <path
         d="m 1171.6024,966.1927 c 15.6552,0 28.3465,12.691 28.3465,28.3464 0,15.6555 -12.6913,28.3465 -28.3465,28.3465 -15.6552,0 -28.3464,-12.691 -28.3464,-28.3465 0,-15.6554 12.6912,-28.3464 28.3464,-28.3464 z m -4.2514,32.5987 h -9.4966 v -8.5043 h 9.4966 v -9.496 h 8.5034 v 9.496 h 9.4961 v 8.5043 h -9.4961 v 9.4957 h -8.5034 z"
         style="fill:none;stroke:#1b1918;stroke-width:0.21600001;stroke-linecap:round;stroke-linejoin:round;stroke-dasharray:none"
         id="path1945" />
      <path
         d="m 1143.256,703.0369 c 0,15.6552 12.691,28.3465 28.3464,28.3465 15.6555,0 28.3465,-12.6913 28.3465,-28.3465 v -28.3464 h -56.6929 z m 0,-36.8504 h 56.6929 v -56.6929 h -56.6929 z m 0,-65.1968 h 56.6929 v -56.6929 h -56.6929 z m -11.3386,92.126 v 9.9212 c 0,21.9175 17.7675,39.6851 39.685,39.6851 21.9175,0 39.6851,-17.7676 39.6851,-39.6851 v -9.9212 h 4.2519 v -11.3386 h -4.2519 v -38.2677 h 4.2519 v -11.3386 h -4.2519 v -38.2677 h 4.2519 v -11.3386 h -4.2519 v -38.2677 h 4.2519 v -11.3386 h -4.2519 -79.3701 -4.252 v 11.3386 h 4.252 v 38.2677 h -4.252 v 11.3386 h 4.252 v 38.2677 h -4.252 v 11.3386 h 4.252 v 38.2677 h -4.252 v 11.3386 z"
         style="fill:none;stroke:#e30016;stroke-width:0.21600001;stroke-linecap:round;stroke-linejoin:round;stroke-dasharray:none"
         id="path1947" />
      <path
         d="m 1014.8496,502.0184 5.6141,-5.6141 20.0293,20.0293 0.1993,-0.1716 c 3.654,-3.1437 6.6598,-7.0053 8.8001,-11.3256 1.1531,-2.3281 0.7117,-5.0144 -1.1251,-6.8516 l -14.9604,-14.9633 0.01,-14.3432 -28.8695,-28.8696 5.6143,-5.6143 23.2554,23.2554 0.01,-34.8376 -28.8695,-28.8695 5.6141,-5.6141 23.2554,23.2554 v -34.8404 l -28.8667,-28.8668 5.6141,-5.6141 23.2524,23.2524 0.017,-45.5635 -42.8329,-42.8358 h -2.1784 c -3.663,-2e-4 -6.6552,2.9928 -6.6556,6.6556 l -0.0341,205.5373 c -0.003,19.5958 16.1248,35.7137 35.7138,35.7137 h 0.01 c 5.5576,2e-4 11.0093,-1.2964 15.9704,-3.8005 l 0.3498,-0.1766 z"
         style="fill:none;stroke:#1b1918;stroke-width:0.21600001;stroke-linecap:butt;stroke-linejoin:miter;stroke-dasharray:none"
         id="path1949" />
      <path
         d="m 929.41,211.9068 v -7.937 H 905.3184 V 109.8595 H 929.41 v -7.937 h -24.0916 v -9.0708 h 57.2598 v 128.1259 h -57.2598 v -9.0708 z"
         style="fill:none;stroke:#1b1918;stroke-width:0.21600001;stroke-linecap:butt;stroke-linejoin:miter;stroke-dasharray:none"
         id="path1951" />
      <path
         d="m 858.6099,211.9068 v -7.937 h -24.0916 v -94.1103 h 24.0916 v -7.937 h -24.0916 v -9.0708 h 57.2598 v 128.1259 h -57.2598 v -9.0708 z"
         style="fill:none;stroke:#1b1918;stroke-width:0.21600001;stroke-linecap:butt;stroke-linejoin:miter;stroke-dasharray:none"
         id="path1953" />
      <path
         d="m 1004.2674,79.8672 -5.6142,5.6142 -20.0293,-20.0294 -0.1992,0.1716 c -3.6541,3.1437 -6.6598,7.0054 -8.8001,11.3256 -1.1532,2.3281 -0.7118,5.0144 1.125,6.8517 l 14.9604,14.9632 -0.005,14.3433 28.8696,28.8695 -5.6144,5.6143 -23.2554,-23.2554 -0.006,34.8376 28.8696,28.8696 -5.6142,5.6141 -23.2554,-23.2554 -0.003,34.8404 28.8667,28.8667 -5.6141,5.6141 -23.2524,-23.2524 -0.0172,45.5636 42.8329,42.8357 h 2.1784 c 3.6631,2e-4 6.6552,-2.9927 6.6556,-6.6556 l 0.034,-205.5373 c 0,-19.5957 -16.1248,-35.7137 -35.7138,-35.7137 h -0.01 c -5.5576,-2e-4 -11.0093,1.2964 -15.9704,3.8005 l -0.3498,0.1766 z"
         style="fill:none;stroke:#1b1918;stroke-width:0.21600001;stroke-linecap:butt;stroke-linejoin:miter;stroke-dasharray:none"
         id="path1955" />
      <path
         d="m 787.8098,211.9068 v -7.937 h -24.0916 v -94.1103 h 24.0916 v -7.937 h -24.0916 v -9.0708 h 57.2598 v 128.1259 h -57.2598 v -9.0708 z"
         style="fill:none;stroke:#1b1918;stroke-width:0.21600001;stroke-linecap:butt;stroke-linejoin:miter;stroke-dasharray:none"
         id="path1957" />
      <path
         d="m 1331.9022,454.568 v -84.4724 h 8.5039 v -28.9134 h -8.5039 v -84.4724 h 8.5039 v -28.9134 h -8.5039 v -84.4725 h 8.5039 v -28.9133 h -8.5039 v -6.2286 h -66.6142 v -8.5034 h 66.6142 V 71.8911 h -133.7953 v 64.0781 h 62.6454 c 15.4347,0 28.0633,12.6303 28.0633,28.0644 v 269.8248 c 0,15.4329 -12.6301,28.0644 -28.0633,28.0644 h -62.6454 v 64.078 h 133.7953 v -27.7872 h -66.6142 v -8.5033 h 66.6142 v -6.2289 h 8.5039 V 454.568 Z"
         style="fill:none;stroke:#1b1918;stroke-width:0.21600001;stroke-linecap:butt;stroke-linejoin:miter;stroke-dasharray:none"
         id="path1959" />
      <path
         d="m 1595.0506,404.5408 v 122.2679 h 8.5039 v 28.9134 h -8.5039 v 122.2676 h 8.5039 v 28.9134 h -8.5039 v 122.2676 h 8.5039 v 28.9134 h -8.5039 v 42.5194 H 1461.2553 V 872.816 h 66.6142 v -8.5033 h -66.6142 v -27.7872 h 62.6454 c 15.4346,0 28.0633,-12.6304 28.0633,-28.0644 V 425.2504 c 0,-15.4341 -12.6287,-28.0644 -28.0633,-28.0644 h -62.6454 v -27.7874 h 66.6142 v -8.5034 h -66.6142 V 333.108 h 133.7953 v 42.5194 h 8.5039 v 28.9134 z"
         style="fill:none;stroke:#1b1918;stroke-width:0.21600001;stroke-linecap:butt;stroke-linejoin:miter;stroke-dasharray:none"
         id="path1961" />
      <path
         d="m 1054.6126,482.8192 v 6.2289 h 66.6142 v 8.5034 h -66.6142 v 27.7871 h 133.7953 v -64.078 h -62.6454 c -15.4332,0 -28.0633,-12.6314 -28.0633,-28.0644 V 163.3714 c 0,-15.4341 12.6287,-28.0644 28.0633,-28.0644 h 62.6454 V 71.229 h -133.7953 v 27.7874 h 66.6142 v 8.5034 h -66.6142 v 6.2286 h -8.5039 v 28.9134 h 8.5039 v 84.4724 h -8.5039 v 28.9134 h 8.5039 V 340.52 h -8.5039 v 28.9134 h 8.5039 v 84.4725 h -8.5039 v 28.9133 z"
         style="fill:none;stroke:#1b1918;stroke-width:0.21600001;stroke-linecap:butt;stroke-linejoin:miter;stroke-dasharray:none"
         id="path1963" />
      <path
         d="m 1401.5863,175.0691 v -42.5194 h 133.7953 v 27.7872 h -66.6142 v 8.5034 h 66.6142 v 27.7874 h -62.6454 c -15.4347,0 -28.0633,12.6304 -28.0633,28.0645 v 383.2106 c 0,15.4341 12.6286,28.0644 28.0633,28.0644 h 62.6454 v 27.7872 h -66.6142 v 8.5034 h 66.6142 v 27.7874 h -133.7953 v -42.5194 h -8.5039 v -28.9134 h 8.5039 V 506.3448 h -8.5039 v -28.9134 h 8.5039 V 355.1638 h -8.5039 v -28.9134 h 8.5039 V 203.9825 h -8.5039 v -28.9134 z"
         style="fill:none;stroke:#1b1918;stroke-width:0.21600001;stroke-linecap:butt;stroke-linejoin:miter;stroke-dasharray:none"
         id="path1965" />
      <path
         d="M 28.4984,62.2474 H 560.41 c 15.5911,0 28.3468,12.7556 28.3468,28.3465 v 401.6219 c 0,15.5906 -12.7557,28.3468 -28.3468,28.3468 H 28.4984 c -15.5911,0 -28.3467,-12.7562 -28.3467,-28.3468 V 90.5939 c 0,-15.5909 12.7556,-28.3465 28.3467,-28.3465 z M 541.9565,409.322 h 8.4129 v 16.8313 h -8.4129 z m 0,-112.208 h 8.4129 v 16.8312 h -8.4129 z m 0,-28.0523 h 8.4129 v 16.8313 h -8.4129 z m 0,-112.208 h 8.4129 v 16.8313 h -8.4129 z M 472.9243,482.169 h 17.0079 v 8.5033 h -17.0079 z m -28.3464,0 h 17.0079 v 8.5033 h -17.0079 z m -56.6929,0 h 17.0079 v 8.5033 H 387.885 Z m -56.6929,0 h 17.0078 v 8.5033 H 331.1921 Z M 472.9243,92.1373 h 17.0079 v 8.5034 h -17.0079 z m -28.3464,0 h 17.0079 v 8.5034 h -17.0079 z m -56.6929,0 h 17.0079 v 8.5034 H 387.885 Z m -56.6929,0 h 17.0078 v 8.5034 H 331.1921 Z M 70.9055,218.3522 H 79.41 v 56.6929 h -8.5045 z m 246.6148,0 h 8.5034 v 56.6929 h -8.5034 z M 70.9055,363.486 h 19.8426 v 8.5046 H 70.9055 Z m 235.2756,0 h 19.8426 v 8.5046 H 306.1811 Z M 170.1181,129.9112 v -8.5033 h 56.693 v 8.5033 z m 380.2513,232.6431 v -28.9134 h -8.4129 v 28.9134 z m -503.4175,0 V 333.6409 H 38.539 v 28.9134 z M 550.3694,249.1685 v -28.9131 h -8.4129 v 28.9131 z m -503.4175,0 V 220.2554 H 38.539 v 28.9131 z M 550.3694,135.7826 v -28.9133 h -8.4129 v 28.9133 z m -503.4175,0 V 106.8693 H 38.539 v 28.9133 z m 503.4175,340.1575 v -28.9134 h -8.4129 v 28.9134 z m -503.4175,0 V 447.0267 H 38.539 v 28.9134 z M 204.4525,100.6407 h 28.9134 v -8.5034 h -28.9134 z m 0,390.0316 h 28.9134 v -8.5033 h -28.9134 z m 151.181,-390.0316 h 28.9134 v -8.5034 h -28.9134 z m 0,390.0316 h 28.9134 v -8.5033 h -28.9134 z m 151.181,-390.0316 h 28.9134 v -8.5034 h -28.9134 z m 0,390.0316 h 28.9134 V 482.169 H 506.8145 Z M 53.2712,100.6407 H 82.1846 V 92.1373 H 53.2712 Z m 0,390.0316 28.9134,-0.089 V 482.169 H 53.2712 Z"
         style="fill:none;stroke:#1b1918;stroke-width:0.21600001;stroke-linecap:butt;stroke-linejoin:miter;stroke-dasharray:none"
         id="path1967" />
      <path
         d="m 756.9074,410.4615 v -22.0252 c 0,-4.6772 3.8267,-8.5039 8.5039,-8.5039 v 0 c 4.6772,0 8.5039,3.8267 8.5039,8.5039 v 22.0252 h 11.3386 v -22.0252 c 0,-4.6772 3.8268,-8.5039 8.504,-8.5039 v 0 c 4.6771,0 8.5039,3.8267 8.5039,8.5039 v 22.0252 h 11.3386 v -22.0252 c 0,-4.6772 3.8268,-8.5039 8.5039,-8.5039 v 0 c 4.6772,0 8.504,3.8267 8.504,8.5039 v 22.0252 h 11.3385 v -22.0252 c 0,-4.6772 3.8268,-8.5039 8.504,-8.5039 v 0 c 4.6771,0 8.5039,3.8267 8.5039,8.5039 v 22.0252 h 11.3386 v -22.0252 c 0,-4.6772 3.8268,-8.5039 8.5039,-8.5039 v 0 c 4.6772,0 8.504,3.8267 8.504,8.5039 v 22.0252 h 11.3386 v -22.0252 c 0,-4.6772 3.8267,-8.5039 8.5039,-8.5039 v 0 c 4.6772,0 8.5039,3.8267 8.5039,8.5039 v 22.0252 h 11.3386 v -22.0252 c 0,-4.6772 3.8268,-8.5039 8.5039,-8.5039 v 0 c 4.6772,0 8.504,3.8267 8.504,8.5039 v 22.0252 h 11.3386 v -22.0252 c 0,-4.6772 3.8267,-8.5039 8.5039,-8.5039 v 0 c 4.6772,0 12.2221,0.212 12.2482,0 v 30.5291 h -8.4129 v 17.0079 h 8.4129 v 55.9559 h -8.4129 v 17.0079 h 8.4129 v 21.2315 H 955.3326 V 500.4332 H 943.994 v 21.2315 h -17.0079 v -21.2315 h -11.3386 v 29.7348 h -17.0078 v -29.7348 h -11.3386 v 29.7348 h -17.0079 v -29.7348 h -11.3386 v 21.2315 h -17.0079 v -21.2315 h -11.3385 v 29.7348 h -17.0079 v -29.7348 h -11.3386 v 21.2315 h -17.0079 v -21.2315 h -11.3386 v 29.7348 h -17.0078 c 0,-9.9116 0,-19.8232 0,-29.7348 -5.1682,0 -5.1682,0 -5.1684,-5.1682 0,-2.2237 0,-4.4475 0,-6.6713 2e-4,-5.1684 2e-4,-5.1684 5.1684,-5.1684 0,-18.652 0,-37.3039 0,-55.9559 -5.1682,0 -5.1682,0 -5.1869,-5.1866 -0.006,-1.8056 0.0187,-4.8685 0.0187,-6.6532 0,-5.1681 0,-5.1681 5.1682,-5.1681 z m 198.4252,17.0079 H 943.994 v 55.9559 h 11.3386 z m -28.3465,0 h -11.3386 v 55.9559 h 11.3386 z m -28.3464,0 h -11.3386 v 55.9559 h 11.3386 z m -28.3465,0 h -11.3386 v 55.9559 h 11.3386 z m -28.3465,0 h -11.3385 v 55.9559 h 11.3385 z m -28.3464,0 h -11.3386 v 55.9559 h 11.3386 z m -28.3465,0 h -11.3386 v 55.9559 h 11.3386 z"
         style="fill:none;stroke:#1b1918;stroke-width:0.21600001;stroke-linecap:butt;stroke-linejoin:miter;stroke-dasharray:none"
         id="path1969" />
      <path
         d="m 756.4839,347.1208 v 22.0252 c 0,4.6771 3.8267,8.5039 8.5039,8.5039 v 0 c 4.6772,0 8.5039,-3.8268 8.5039,-8.5039 v -22.0252 h 11.3386 v 22.0252 c 0,4.6771 3.8268,8.5039 8.504,8.5039 v 0 c 4.6771,0 8.5039,-3.8268 8.5039,-8.5039 v -22.0252 h 11.3386 v 22.0252 c 0,4.6771 3.8268,8.5039 8.5039,8.5039 v 0 c 4.6772,0 8.504,-3.8268 8.504,-8.5039 v -22.0252 h 11.3385 v 22.0252 c 0,4.6771 3.8268,8.5039 8.504,8.5039 v 0 c 4.6771,0 8.5039,-3.8268 8.5039,-8.5039 v -22.0252 h 11.3386 v 22.0252 c 0,4.6771 3.8268,8.5039 8.5039,8.5039 v 0 c 4.6772,0 8.504,-3.8268 8.504,-8.5039 v -22.0252 h 11.3386 v 22.0252 c 0,4.6771 3.8267,8.5039 8.5039,8.5039 v 0 c 4.6772,0 8.5039,-3.8268 8.5039,-8.5039 v -22.0252 h 11.3386 v 22.0252 c 0,4.6771 3.8268,8.5039 8.504,8.5039 v 0 c 4.6771,0 8.5039,-3.8268 8.5039,-8.5039 v -22.0252 h 11.3386 v 22.0252 c 0,4.6771 3.8267,8.5039 8.5039,8.5039 v 0 c 4.6772,0 12.2221,-0.212 12.2482,0 v -30.5291 h -8.4129 v -17.0079 h 8.4129 V 274.157 h -8.4129 v -17.0079 h 8.4129 v -21.2315 h -20.7521 v 21.2315 h -11.3386 v -21.2315 h -17.0079 v 21.2315 H 915.224 v -29.7348 h -17.0078 v 29.7348 h -11.3386 v -29.7348 h -17.0079 v 29.7348 h -11.3386 v -21.2315 h -17.0079 v 21.2315 h -11.3385 v -29.7348 h -17.0079 v 29.7348 h -11.3386 v -21.2315 h -17.0079 v 21.2315 h -11.3386 v -29.7348 h -17.0078 c 0,9.9116 0,19.8232 0,29.7348 -5.1682,0 -5.1682,0 -5.1684,5.1682 0,2.2237 0,4.4475 0,6.6713 2e-4,5.1684 2e-4,5.1684 5.1684,5.1684 0,18.652 0,37.3039 0,55.9559 -5.1682,0 -5.1682,0 -5.1869,5.1866 -0.007,1.8056 0.0187,4.8685 0.0187,6.6532 0,5.1681 0,5.1681 5.1682,5.1681 z M 954.9091,330.1129 H 943.5705 V 274.157 h 11.3386 z m -28.3465,0 H 915.224 V 274.157 h 11.3386 z m -28.3464,0 H 886.8776 V 274.157 h 11.3386 z m -28.3465,0 H 858.5311 V 274.157 h 11.3386 z m -28.3465,0 H 830.1847 V 274.157 h 11.3385 z m -28.3464,0 H 801.8382 V 274.157 h 11.3386 z m -28.3465,0 H 773.4917 V 274.157 h 11.3386 z"
         style="fill:none;stroke:#1b1918;stroke-width:0.21600001;stroke-linecap:butt;stroke-linejoin:miter;stroke-dasharray:none"
         id="path1971" />
      <path
         d="m 719.0563,504.5932 h 22.0252 l 8.504,3e-4 v -8.4159 c 0,-4.6283 -3.8271,-8.4156 -8.504,-8.4156 h -22.0252 v -11.2209 h 22.0252 c 4.6772,0 8.504,-3.787 8.504,-8.4156 v 0 c 0,-4.6286 -3.8268,-8.4156 -8.504,-8.4156 h -22.0252 v -11.2208 h 22.0252 c 4.6772,0 8.504,-3.787 8.504,-8.4156 v 0 c 0,-4.6286 -3.8268,-8.4156 -8.504,-8.4156 h -22.0252 v -11.2208 h 22.0252 c 4.6772,0 8.504,-3.787 8.504,-8.4156 v 0 c 0,-4.6286 -3.8268,-8.4156 -8.504,-8.4156 H 719.0563 V 392.385 h 22.0252 c 4.6772,0 8.504,-3.787 8.504,-8.4156 v 0 c 0,-4.6285 -3.8268,-8.4156 -8.504,-8.4156 H 719.0563 V 364.333 h 22.0252 c 4.6772,0 8.504,-3.787 8.504,-8.4156 v 0 c 0,-4.6286 -3.8268,-8.4156 -8.504,-8.4156 H 719.0563 V 336.281 h 22.0252 c 4.6772,0 8.504,-3.787 8.504,-8.4156 v 0 c 0,-4.6286 -3.8268,-8.4156 -8.504,-8.4156 H 719.0563 V 308.229 h 22.0252 c 4.6772,0 8.504,-3.7871 8.504,-8.4157 v 0 c 0,-4.6285 -3.8268,-8.4156 -8.504,-8.4156 h -22.0252 v -11.2208 h 22.0252 c 4.6772,0 8.504,-3.787 8.504,-8.4153 v 0 c 0,-4.6289 -3.8268,-8.4159 -8.504,-8.4159 h -22.0252 v -11.2208 h 22.0252 c 4.6772,0 8.504,-3.787 8.504,-8.4156 v 0 c 0,-4.6286 -3.8268,-8.4156 -8.504,-8.4156 h -22.0252 v -11.2208 h 22.0252 c 4.6772,0 8.504,-3.7871 8.504,-8.4157 v 0 c 0,-4.6285 -3.8268,-8.4156 -8.504,-8.4156 h -22.0252 v -11.2208 h 22.0252 c 4.6772,0 8.504,-3.787 8.504,-8.4159 v 0 c 0,-4.6283 -3.8268,-8.4153 -8.504,-8.4153 h -22.0252 v -11.2208 h 22.0252 c 4.6772,0 8.504,-3.787 8.504,-8.4156 v 0 c 0,-4.6286 -3.8268,-8.4156 -8.504,-8.4156 h -22.0252 v -11.2208 h 22.0252 c 4.6769,0 8.504,-3.7873 8.504,-8.4157 v -8.4158 l -8.504,2e-4 h -22.0252 v -8.6122 h -17.0078 v 8.6122 c -18.652,0 -37.304,0 -55.9559,0 l 0.009,-8.6122 h -17.0254 l 0.008,8.6122 c -9.9116,0 -11.3199,0 -21.2315,0 v 16.8313 h 21.2315 v 11.2208 h -21.2315 v 16.8312 h 21.2315 v 11.2208 h -29.6444 v 16.8312 h 29.6444 v 11.2208 h -21.2315 v 16.8313 h 21.2315 v 11.2208 h -21.2315 v 16.8312 h 21.2315 v 11.2208 h -21.2315 v 16.8312 h 21.2315 v 11.2208 h -29.6444 v 16.8313 h 29.6444 v 11.2208 h -29.6444 v 16.8312 h 29.6444 v 11.2208 h -21.2315 v 16.8312 h 21.2315 v 11.2208 h -21.2315 v 16.8312 h 21.2315 v 11.2209 h -21.2315 v 16.8312 h 21.2315 v 11.2208 h -29.6444 v 16.8312 h 29.6444 v 11.2208 h -21.2315 v 16.8312 h 21.2315 v 11.2209 h -21.2315 v 16.8312 c 9.9116,0 11.3199,0 21.2315,0 l 10e-4,8.4153 h 17.0068 v -8.4153 c 18.6519,0 37.3039,0 55.9559,0 v 8.4153 h 17.0078 z M 702.0485,308.229 v 11.2208 H 646.0926 V 308.229 Z m 0,-16.8313 v -11.2208 h -55.9559 v 11.2208 z m 0,-28.052 v -11.2208 h -55.9559 v 11.2208 z m 0,-28.052 v -11.2208 h -55.9559 v 11.2208 z m 0,-28.0521 v -11.2208 h -55.9559 v 11.2208 z m 0,-28.052 v -11.2208 h -55.9559 v 11.2208 z m 0,-28.052 v -11.2208 h -55.9559 v 11.2208 z m 0,185.1434 v 11.2208 H 646.0926 V 336.281 Z m 0,28.052 v 11.2208 H 646.0926 V 364.333 Z m 0,28.052 v 11.2209 H 646.0926 V 392.385 Z m 0,28.0521 v 11.2208 h -55.9559 v -11.2208 z m 0,28.052 v 11.2208 h -55.9559 v -11.2208 z m 0,28.052 v 11.2209 h -55.9559 v -11.2209 z"
         style="fill:none;stroke:#1b1918;stroke-width:0.21600001;stroke-linecap:butt;stroke-linejoin:miter;stroke-dasharray:none"
         id="path1973" />
      <path
         d="m 398.9052,839.8276 v 34.0146 h 27.4961 v -34.0146 h 3.2598 v -8.5034 h -3.2598 v -17.0068 h -9.4961 v 34.0147 h -8.5045 v -34.0147 h -9.4955 v 17.0068 h -3.2598 v 8.5034 z"
         style="fill:none;stroke:#1b1918;stroke-width:0.21600001;stroke-linecap:round;stroke-linejoin:round;stroke-dasharray:none"
         id="path1975" />
      <path
         d="M 464.8011,831.3242 V 814.3174 H 437.305 v 17.0068 h -3.2598 v 8.5034 h 3.2598 v 34.0146 h 9.4955 v -25.5101 h 8.5045 v 25.5101 h 9.4961 v -34.0146 h 3.2598 v -8.5034 z"
         style="fill:none;stroke:#1b1918;stroke-width:0.21600001;stroke-linecap:round;stroke-linejoin:round;stroke-dasharray:none"
         id="path1977" />
      <path
         d="m 38.0452,541.0936 c 10.5673,0 19.1339,8.5666 19.1339,19.1339 0,10.5672 -8.5666,19.1338 -19.1339,19.1338 -10.5673,0 -19.1339,-8.5666 -19.1339,-19.1338 0,-10.5673 8.5666,-19.1339 19.1339,-19.1339 z m -4.2514,23.3861 h -9.4966 v -8.5042 h 9.4966 v -9.4961 h 8.5034 v 9.4961 h 9.496 v 8.5042 h -9.496 v 9.4958 h -8.5034 z"
         style="fill:none;stroke:#1b1918;stroke-width:0.21600001;stroke-linecap:butt;stroke-linejoin:miter;stroke-dasharray:none"
         id="path1979" />
    </g>
  </g>
</svg>
