  0
SECTION
  2
HEADER
  9
$ACADVER
  1
AC1018
  9
$ACADMAINTVER
 70
     0
  9
$DWGCODEPAGE
  3
ANSI_1256
  9
$INSBASE
 10
0.0
 20
0.0
 30
0.0
  9
$EXTMIN
 10
1.000000000000000E+20
 20
1.000000000000000E+20
 30
1.000000000000000E+20
  9
$EXTMAX
 10
-1.000000000000000E+20
 20
-1.000000000000000E+20
 30
-1.000000000000000E+20
  9
$LIMMIN
 10
0.0
 20
0.0
  9
$LIMMAX
 10
12.0
 20
9.0
  9
$ORTHOMODE
 70
     0
  9
$REGENMODE
 70
     1
  9
$FILLMODE
 70
     1
  9
$QTEXTMODE
 70
     0
  9
$MIRRTEXT
 70
     1
  9
$LTSCALE
 40
1.0
  9
$ATTMODE
 70
     1
  9
$TEXTSIZE
 40
0.2
  9
$TRACEWID
 40
0.05
  9
$TEXTSTYLE
  7
Standard
  9
$CLAYER
  8
0
  9
$CELTYPE
  6
ByLayer
  9
$CECOLOR
 62
   256
  9
$CELTSCALE
 40
1.0
  9
$DISPSILH
 70
     0
  9
$DIMSCALE
 40
1.0
  9
$DIMASZ
 40
0.18
  9
$DIMEXO
 40
0.0625
  9
$DIMDLI
 40
0.38
  9
$DIMRND
 40
0.0
  9
$DIMDLE
 40
0.0
  9
$DIMEXE
 40
0.18
  9
$DIMTP
 40
0.0
  9
$DIMTM
 40
0.0
  9
$DIMTXT
 40
0.18
  9
$DIMCEN
 40
0.09
  9
$DIMTSZ
 40
0.0
  9
$DIMTOL
 70
     0
  9
$DIMLIM
 70
     0
  9
$DIMTIH
 70
     1
  9
$DIMTOH
 70
     1
  9
$DIMSE1
 70
     0
  9
$DIMSE2
 70
     0
  9
$DIMTAD
 70
     0
  9
$DIMZIN
 70
     0
  9
$DIMBLK
  1

  9
$DIMASO
 70
     1
  9
$DIMSHO
 70
     1
  9
$DIMPOST
  1

  9
$DIMAPOST
  1

  9
$DIMALT
 70
     0
  9
$DIMALTD
 70
     2
  9
$DIMALTF
 40
25.4
  9
$DIMLFAC
 40
1.0
  9
$DIMTOFL
 70
     0
  9
$DIMTVP
 40
0.0
  9
$DIMTIX
 70
     0
  9
$DIMSOXD
 70
     0
  9
$DIMSAH
 70
     0
  9
$DIMBLK1
  1

  9
$DIMBLK2
  1

  9
$DIMSTYLE
  2
Standard
  9
$DIMCLRD
 70
     0
  9
$DIMCLRE
 70
     0
  9
$DIMCLRT
 70
     0
  9
$DIMTFAC
 40
1.0
  9
$DIMGAP
 40
0.09
  9
$DIMJUST
 70
     0
  9
$DIMSD1
 70
     0
  9
$DIMSD2
 70
     0
  9
$DIMTOLJ
 70
     1
  9
$DIMTZIN
 70
     0
  9
$DIMALTZ
 70
     0
  9
$DIMALTTZ
 70
     0
  9
$DIMUPT
 70
     0
  9
$DIMDEC
 70
     4
  9
$DIMTDEC
 70
     4
  9
$DIMALTU
 70
     2
  9
$DIMALTTD
 70
     2
  9
$DIMTXSTY
  7
Standard
  9
$DIMAUNIT
 70
     0
  9
$DIMADEC
 70
     0
  9
$DIMALTRND
 40
0.0
  9
$DIMAZIN
 70
     0
  9
$DIMDSEP
 70
    46
  9
$DIMATFIT
 70
     3
  9
$DIMFRAC
 70
     0
  9
$DIMLDRBLK
  1

  9
$DIMLUNIT
 70
     2
  9
$DIMLWD
 70
    -2
  9
$DIMLWE
 70
    -2
  9
$DIMTMOVE
 70
     0
  9
$LUNITS
 70
     2
  9
$LUPREC
 70
     4
  9
$SKETCHINC
 40
0.1
  9
$FILLETRAD
 40
0.5
  9
$AUNITS
 70
     0
  9
$AUPREC
 70
     0
  9
$MENU
  1
.
  9
$ELEVATION
 40
0.0
  9
$PELEVATION
 40
0.0
  9
$THICKNESS
 40
0.0
  9
$LIMCHECK
 70
     0
  9
$CHAMFERA
 40
0.5
  9
$CHAMFERB
 40
0.5
  9
$CHAMFERC
 40
1.0
  9
$CHAMFERD
 40
0.0
  9
$SKPOLY
 70
     0
  9
$TDCREATE
 40
2458191.862224873
  9
$TDUCREATE
 40
2458191.778891539
  9
$TDUPDATE
 40
2458191.862224884
  9
$TDUUPDATE
 40
2458191.778891551
  9
$TDINDWG
 40
0.0000000116
  9
$TDUSRTIMER
 40
0.0000000116
  9
$USRTIMER
 70
     1
  9
$ANGBASE
 50
0.0
  9
$ANGDIR
 70
     0
  9
$PDMODE
 70
     0
  9
$PDSIZE
 40
0.0
  9
$PLINEWID
 40
0.0
  9
$SPLFRAME
 70
     0
  9
$SPLINETYPE
 70
     6
  9
$SPLINESEGS
 70
     8
  9
$HANDSEED
  5
249
  9
$SURFTAB1
 70
     6
  9
$SURFTAB2
 70
     6
  9
$SURFTYPE
 70
     6
  9
$SURFU
 70
     6
  9
$SURFV
 70
     6
  9
$UCSBASE
  2

  9
$UCSNAME
  2

  9
$UCSORG
 10
0.0
 20
0.0
 30
0.0
  9
$UCSXDIR
 10
1.0
 20
0.0
 30
0.0
  9
$UCSYDIR
 10
0.0
 20
1.0
 30
0.0
  9
$UCSORTHOREF
  2

  9
$UCSORTHOVIEW
 70
     0
  9
$UCSORGTOP
 10
0.0
 20
0.0
 30
0.0
  9
$UCSORGBOTTOM
 10
0.0
 20
0.0
 30
0.0
  9
$UCSORGLEFT
 10
0.0
 20
0.0
 30
0.0
  9
$UCSORGRIGHT
 10
0.0
 20
0.0
 30
0.0
  9
$UCSORGFRONT
 10
0.0
 20
0.0
 30
0.0
  9
$UCSORGBACK
 10
0.0
 20
0.0
 30
0.0
  9
$PUCSBASE
  2

  9
$PUCSNAME
  2

  9
$PUCSORG
 10
0.0
 20
0.0
 30
0.0
  9
$PUCSXDIR
 10
1.0
 20
0.0
 30
0.0
  9
$PUCSYDIR
 10
0.0
 20
1.0
 30
0.0
  9
$PUCSORTHOREF
  2

  9
$PUCSORTHOVIEW
 70
     0
  9
$PUCSORGTOP
 10
0.0
 20
0.0
 30
0.0
  9
$PUCSORGBOTTOM
 10
0.0
 20
0.0
 30
0.0
  9
$PUCSORGLEFT
 10
0.0
 20
0.0
 30
0.0
  9
$PUCSORGRIGHT
 10
0.0
 20
0.0
 30
0.0
  9
$PUCSORGFRONT
 10
0.0
 20
0.0
 30
0.0
  9
$PUCSORGBACK
 10
0.0
 20
0.0
 30
0.0
  9
$USERI1
 70
     0
  9
$USERI2
 70
     0
  9
$USERI3
 70
     0
  9
$USERI4
 70
     0
  9
$USERI5
 70
     0
  9
$USERR1
 40
0.0
  9
$USERR2
 40
0.0
  9
$USERR3
 40
0.0
  9
$USERR4
 40
0.0
  9
$USERR5
 40
0.0
  9
$WORLDVIEW
 70
     1
  9
$SHADEDGE
 70
     3
  9
$SHADEDIF
 70
    70
  9
$TILEMODE
 70
     1
  9
$MAXACTVP
 70
    64
  9
$PINSBASE
 10
0.0
 20
0.0
 30
0.0
  9
$PLIMCHECK
 70
     0
  9
$PEXTMIN
 10
1.000000000000000E+20
 20
1.000000000000000E+20
 30
1.000000000000000E+20
  9
$PEXTMAX
 10
-1.000000000000000E+20
 20
-1.000000000000000E+20
 30
-1.000000000000000E+20
  9
$PLIMMIN
 10
0.0
 20
0.0
  9
$PLIMMAX
 10
12.0
 20
9.0
  9
$UNITMODE
 70
     0
  9
$VISRETAIN
 70
     1
  9
$PLINEGEN
 70
     0
  9
$PSLTSCALE
 70
     1
  9
$TREEDEPTH
 70
  3020
  9
$CMLSTYLE
  2
Standard
  9
$CMLJUST
 70
     0
  9
$CMLSCALE
 40
1.0
  9
$PROXYGRAPHICS
 70
     1
  9
$MEASUREMENT
 70
     0
  9
$CELWEIGHT
370
    -1
  9
$ENDCAPS
280
     0
  9
$JOINSTYLE
280
     0
  9
$LWDISPLAY
290
     1
  9
$INSUNITS
 70
     1
  9
$HYPERLINKBASE
  1

  9
$STYLESHEET
  1

  9
$XEDIT
290
     1
  9
$CEPSNTYPE
380
     0
  9
$PSTYLEMODE
290
     1
  9
$FINGERPRINTGUID
  2
{954E50C9-432F-42C2-BF75-64DEFF87F8B6}
  9
$VERSIONGUID
  2
{FAEB1C32-E019-11D5-929B-00C0DF256EC4}
  9
$EXTNAMES
290
     1
  9
$PSVPSCALE
 40
0.0
  9
$OLESTARTUP
290
     0
  9
$SORTENTS
280
   127
  9
$INDEXCTL
280
     0
  9
$HIDETEXT
280
     1
  9
$XCLIPFRAME
290
     0
  9
$HALOGAP
280
     0
  9
$OBSCOLOR
 70
   257
  9
$OBSLTYPE
280
     0
  9
$INTERSECTIONDISPLAY
280
     0
  9
$INTERSECTIONCOLOR
 70
   257
  9
$DIMASSOC
280
     2
  9
$PROJECTNAME
  1

  0
ENDSEC
  0
SECTION
  2
CLASSES
  0
CLASS
  1
ACDBDICTIONARYWDFLT
  2
AcDbDictionaryWithDefault
  3
ObjectDBX Classes
 90
        0
 91
        3
280
     0
281
     0
  0
CLASS
  1
VISUALSTYLE
  2
AcDbVisualStyle
  3
ObjectDBX Classes
 90
     4095
 91
        3
280
     0
281
     0
  0
ENDSEC
  0
SECTION
  2
TABLES
  0
TABLE
  2
VPORT
  5
8
330
0
100
AcDbSymbolTable
 70
     1
  0
VPORT
  5
29
330
8
100
AcDbSymbolTableRecord
100
AcDbViewportTableRecord
  2
*Active
 70
     0
 10
0.0
 20
0.0
 11
1.0
 21
1.0
 12
0.0
 22
0.0
 13
0.0
 23
0.0
 14
0.5
 24
0.5
 15
0.5
 25
0.5
 16
0.0
 26
0.0
 36
1.0
 17
597.2531716330639
 27
389.8197015088809
 37
0.0
 40
296.3335287488326
 41
1.161904761904762
 42
50.0
 43
0.0
 44
0.0
 50
0.0
 51
0.0
 71
     0
 72
   100
 73
     1
 74
     3
 75
     0
 76
     0
 77
     0
 78
     0
281
     0
 65
     1
110
0.0
120
0.0
130
0.0
111
1.0
121
0.0
131
0.0
112
0.0
122
1.0
132
0.0
 79
     0
146
0.0
  0
ENDTAB
  0
TABLE
  2
LTYPE
  5
5
330
0
100
AcDbSymbolTable
 70
     1
  0
LTYPE
  5
14
330
5
100
AcDbSymbolTableRecord
100
AcDbLinetypeTableRecord
  2
ByBlock
 70
     0
  3

 72
    65
 73
     0
 40
0.0
  0
LTYPE
  5
15
330
5
100
AcDbSymbolTableRecord
100
AcDbLinetypeTableRecord
  2
ByLayer
 70
     0
  3

 72
    65
 73
     0
 40
0.0
  0
LTYPE
  5
16
330
5
100
AcDbSymbolTableRecord
100
AcDbLinetypeTableRecord
  2
Continuous
 70
     0
  3
Solid line
 72
    65
 73
     0
 40
0.0
  0
ENDTAB
  0
TABLE
  2
LAYER
  5
2
330
0
100
AcDbSymbolTable
 70
     2
  0
LAYER
  5
10
330
2
100
AcDbSymbolTableRecord
100
AcDbLayerTableRecord
  2
0
 70
     0
 62
     7
  6
Continuous
370
    -3
390
F
  0
LAYER
  5
3B
330
2
100
AcDbSymbolTableRecord
100
AcDbLayerTableRecord
  2
Layer 1
 70
     0
 62
     7
  6
Continuous
370
    -3
390
F
  0
ENDTAB
  0
TABLE
  2
STYLE
  5
3
330
0
100
AcDbSymbolTable
 70
     1
  0
STYLE
  5
11
330
3
100
AcDbSymbolTableRecord
100
AcDbTextStyleTableRecord
  2
Standard
 70
     0
 40
0.0
 41
1.0
 50
0.0
 71
     0
 42
0.2
  3
txt
  4

  0
ENDTAB
  0
TABLE
  2
VIEW
  5
6
330
0
100
AcDbSymbolTable
 70
     0
  0
ENDTAB
  0
TABLE
  2
UCS
  5
7
330
0
100
AcDbSymbolTable
 70
     0
  0
ENDTAB
  0
TABLE
  2
APPID
  5
9
330
0
100
AcDbSymbolTable
 70
     1
  0
APPID
  5
12
330
9
100
AcDbSymbolTableRecord
100
AcDbRegAppTableRecord
  2
ACAD
 70
     0
  0
ENDTAB
  0
TABLE
  2
DIMSTYLE
  5
A
330
0
100
AcDbSymbolTable
 70
     1
100
AcDbDimStyleTable
  0
DIMSTYLE
105
27
330
A
100
AcDbSymbolTableRecord
100
AcDbDimStyleTableRecord
  2
Standard
 70
     0
340
11
  0
ENDTAB
  0
TABLE
  2
BLOCK_RECORD
  5
1
330
0
100
AcDbSymbolTable
 70
     1
  0
BLOCK_RECORD
  5
1F
330
1
100
AcDbSymbolTableRecord
100
AcDbBlockTableRecord
  2
*Model_Space
340
22
  0
BLOCK_RECORD
  5
1B
330
1
100
AcDbSymbolTableRecord
100
AcDbBlockTableRecord
  2
*Paper_Space
340
1E
  0
BLOCK_RECORD
  5
23
330
1
100
AcDbSymbolTableRecord
100
AcDbBlockTableRecord
  2
*Paper_Space0
340
26
  0
ENDTAB
  0
ENDSEC
  0
SECTION
  2
BLOCKS
  0
BLOCK
  5
20
330
1F
100
AcDbEntity
  8
0
100
AcDbBlockBegin
  2
*Model_Space
 70
     0
 71
     0
 10
0.0
 20
0.0
 30
0.0
  3
*Model_Space
  1

  0
ENDBLK
  5
21
330
1F
100
AcDbEntity
  8
0
100
AcDbBlockEnd
  0
BLOCK
  5
1C
330
1B
100
AcDbEntity
 67
     1
  8
0
100
AcDbBlockBegin
  2
*Paper_Space
 70
     0
 71
     0
 10
0.0
 20
0.0
 30
0.0
  3
*Paper_Space
  1

  0
ENDBLK
  5
1D
330
1B
100
AcDbEntity
 67
     1
  8
0
100
AcDbBlockEnd
  0
BLOCK
  5
24
330
23
100
AcDbEntity
  8
0
100
AcDbBlockBegin
  2
*Paper_Space0
 70
     0
 71
     0
 10
0.0
 20
0.0
 30
0.0
  3
*Paper_Space0
  1

  0
ENDBLK
  5
25
330
23
100
AcDbEntity
  8
0
100
AcDbBlockEnd
  0
ENDSEC
  0
SECTION
  2
ENTITIES
  0
SPLINE
  5
3C
330
1F
100
AcDbEntity
  8
Layer 1
 62
     7
420
 16777215
370
    70
100
AcDbSpline
210
0.0
220
0.0
230
1.0
 70
    11
 71
     3
 72
   104
 73
   100
 74
     0
 42
0.0000000001
 43
0.0000000001
 40
0.0
 40
0.0
 40
0.0
 40
0.0
 40
1.0
 40
1.0
 40
1.0
 40
2.0
 40
2.0
 40
2.0
 40
3.0
 40
3.0
 40
3.0
 40
4.0
 40
4.0
 40
4.0
 40
5.0
 40
5.0
 40
5.0
 40
6.0
 40
6.0
 40
6.0
 40
7.0
 40
7.0
 40
7.0
 40
8.0
 40
8.0
 40
8.0
 40
9.0
 40
9.0
 40
9.0
 40
10.0
 40
10.0
 40
10.0
 40
11.0
 40
11.0
 40
11.0
 40
12.0
 40
12.0
 40
12.0
 40
13.0
 40
13.0
 40
13.0
 40
14.0
 40
14.0
 40
14.0
 40
15.0
 40
15.0
 40
15.0
 40
16.0
 40
16.0
 40
16.0
 40
17.0
 40
17.0
 40
17.0
 40
18.0
 40
18.0
 40
18.0
 40
19.0
 40
19.0
 40
19.0
 40
20.0
 40
20.0
 40
20.0
 40
21.0
 40
21.0
 40
21.0
 40
22.0
 40
22.0
 40
22.0
 40
23.0
 40
23.0
 40
23.0
 40
24.0
 40
24.0
 40
24.0
 40
25.0
 40
25.0
 40
25.0
 40
26.0
 40
26.0
 40
26.0
 40
27.0
 40
27.0
 40
27.0
 40
28.0
 40
28.0
 40
28.0
 40
29.0
 40
29.0
 40
29.0
 40
30.0
 40
30.0
 40
30.0
 40
31.0
 40
31.0
 40
31.0
 40
32.0
 40
32.0
 40
32.0
 40
33.0
 40
33.0
 40
33.0
 40
33.0
 10
692.2793030909211
 20
329.7061907302075
 30
0.0
 10
692.2793030909211
 20
329.7061907302075
 30
0.0
 10
692.2793030909211
 20
353.2182939087444
 30
0.0
 10
692.2793030909211
 20
353.2182939087444
 30
0.0
 10
692.2793030909211
 20
353.2182939087444
 30
0.0
 10
710.1538482983294
 20
353.2182939087444
 30
0.0
 10
710.1538482983294
 20
353.2182939087444
 30
0.0
 10
710.1538482983294
 20
353.2182939087444
 30
0.0
 10
712.8003723959956
 20
353.1934892048871
 30
0.0
 10
712.8003723959956
 20
353.1934892048871
 30
0.0
 10
712.8003723959956
 20
353.1934892048871
 30
0.0
 10
712.8003723959956
 20
361.7387096837352
 30
0.0
 10
712.8003723959956
 20
361.7387096837352
 30
0.0
 10
712.8003723959956
 20
361.7387096837352
 30
0.0
 10
727.7479625482398
 20
361.6925453737786
 30
0.0
 10
727.7479625482398
 20
361.6925453737786
 30
0.0
 10
727.7479625482398
 20
361.6925453737786
 30
0.0
 10
727.7479625482398
 20
353.1466358753788
 30
0.0
 10
727.7479625482398
 20
353.1466358753788
 30
0.0
 10
727.7479625482398
 20
353.1466358753788
 30
0.0
 10
738.4153632459924
 20
353.0915143112514
 30
0.0
 10
738.4153632459924
 20
353.0915143112514
 30
0.0
 10
745.8671096964636
 20
317.2621531186741
 30
0.0
 10
715.776247839323
 20
333.1561116250303
 30
0.0
 10
715.776247839323
 20
333.1561116250303
 30
0.0
 10
736.4440783088867
 20
312.487592135915
 30
0.0
 10
712.8010614155472
 20
305.7203866099508
 30
0.0
 10
704.4391201374226
 20
311.1050744056449
 30
0.0
 10
702.8660885011373
 20
312.1179331464857
 30
0.0
 10
701.2882337279908
 20
308.0640866146921
 30
0.0
 10
701.2806545129233
 20
306.1613591229699
 30
0.0
 10
701.2737643174074
 20
304.29859476524
 30
0.0
 10
702.7220834148545
 20
302.0468788706362
 30
0.0
 10
703.9333797865538
 20
300.7039797645828
 30
0.0
 10
704.9951589155577
 20
299.5271343704631
 30
0.0
 10
706.150644703578
 20
298.6431222857701
 30
0.0
 10
706.5750807473588
 20
297.0549322193498
 30
0.0
 10
707.3667642121385
 20
294.0918036377269
 30
0.0
 10
707.0587724725767
 20
290.5826270614671
 30
0.0
 10
704.964153035736
 20
288.2499513695513
 30
0.0
 10
702.9294782998838
 20
285.9844550839157
 30
0.0
 10
699.9136397225642
 20
284.4176246235947
 30
0.0
 10
697.0011540779833
 20
283.6452337062597
 30
0.0
 10
695.1263318781006
 20
283.1484506095616
 30
0.0
 10
693.0241332261924
 20
282.8187547541247
 30
0.0
 10
691.081098090702
 20
282.8246114203132
 30
0.0
 10
691.081098090702
 20
282.8246114203132
 30
0.0
 10
691.0783420124956
 20
282.8246114203132
 30
0.0
 10
691.0783420124956
 20
282.8246114203132
 30
0.0
 10
689.1353068770052
 20
282.8187547541247
 30
0.0
 10
687.033108225097
 20
283.1484506095616
 30
0.0
 10
685.1582860252142
 20
283.6452337062597
 30
0.0
 10
682.2458003806335
 20
284.4176246235947
 30
0.0
 10
679.2299618033138
 20
285.9844550839157
 30
0.0
 10
677.1952870674615
 20
288.2499513695513
 30
0.0
 10
675.1006676306209
 20
290.5826270614671
 30
0.0
 10
674.7926758910592
 20
294.0918036377269
 30
0.0
 10
675.5843593558387
 20
297.0549322193498
 30
0.0
 10
676.0087953996195
 20
298.6431222857701
 30
0.0
 10
677.16428118764
 20
299.5271343704631
 30
0.0
 10
678.2253712970921
 20
300.7039797645828
 30
0.0
 10
679.437356688343
 20
302.0468788706362
 30
0.0
 10
680.8856757857901
 20
304.29859476524
 30
0.0
 10
680.8787855902742
 20
306.1613591229699
 30
0.0
 10
680.8712063752067
 20
308.0640866146921
 30
0.0
 10
679.2933516020603
 20
312.1179331464857
 30
0.0
 10
677.7203199657749
 20
311.1050744056449
 30
0.0
 10
669.3583786876503
 20
305.7203866099508
 30
0.0
 10
645.7153617943109
 20
312.487592135915
 30
0.0
 10
666.3831922638747
 20
333.1561116250303
 30
0.0
 10
666.3831922638747
 20
333.1561116250303
 30
0.0
 10
636.2916413871825
 20
317.2621531186741
 30
0.0
 10
643.7440768572052
 20
353.0915143112514
 30
0.0
 10
643.7440768572052
 20
353.0915143112514
 30
0.0
 10
654.4114775549577
 20
353.1466358753788
 30
0.0
 10
654.4114775549577
 20
353.1466358753788
 30
0.0
 10
654.4114775549577
 20
353.1466358753788
 30
0.0
 10
654.4114775549577
 20
361.6925453737786
 30
0.0
 10
654.4114775549577
 20
361.6925453737786
 30
0.0
 10
654.4114775549577
 20
361.6925453737786
 30
0.0
 10
669.3590677072019
 20
361.7387096837352
 30
0.0
 10
669.3590677072019
 20
361.7387096837352
 30
0.0
 10
669.3590677072019
 20
361.7387096837352
 30
0.0
 10
669.3590677072019
 20
353.1934892048871
 30
0.0
 10
669.3590677072019
 20
353.1934892048871
 30
0.0
 10
669.3590677072019
 20
353.1934892048871
 30
0.0
 10
672.0055918048681
 20
353.2182939087444
 30
0.0
 10
672.0055918048681
 20
353.2182939087444
 30
0.0
 10
672.0055918048681
 20
353.2182939087444
 30
0.0
 10
689.8801370122766
 20
353.2182939087444
 30
0.0
 10
689.8801370122766
 20
353.2182939087444
 30
0.0
 10
689.8801370122766
 20
353.2182939087444
 30
0.0
 10
689.8801370122766
 20
329.7061907302075
 30
0.0
 10
689.8801370122766
 20
329.7061907302075
 30
0.0
 10
689.8801370122766
 20
329.7061907302075
 30
0.0
 10
692.2758579931631
 20
329.7117028866202
 30
0.0
 10
692.2758579931631
 20
329.7117028866202
 30
0.0
 10
692.2758579931631
 20
329.7117028866202
 30
0.0
 10
692.2793030909211
 20
329.7061907302075
 30
0.0
 10
692.2793030909211
 20
329.7061907302075
 30
0.0
  0
POLYLINE
  5
3D
330
1F
100
AcDbEntity
  8
Layer 1
 62
     7
420
 16777215
370
    70
100
AcDb2dPolyline
 66
     1
 10
0.0
 20
0.0
 30
0.0
  0
VERTEX
  5
3E
330
3D
100
AcDbEntity
  8
Layer 1
 62
     7
420
 16777215
370
    70
100
AcDbVertex
100
AcDb2dVertex
 10
453.8607959865187
 20
321.457248658544
 30
0.0
  0
VERTEX
  5
3F
330
3D
100
AcDbEntity
  8
Layer 1
 62
     7
420
 16777215
370
    70
100
AcDbVertex
100
AcDb2dVertex
 10
452.0302432928257
 20
319.6265237099632
 30
0.0
  0
VERTEX
  5
40
330
3D
100
AcDbEntity
  8
Layer 1
 62
     7
420
 16777215
370
    70
100
AcDbVertex
100
AcDb2dVertex
 10
462.6003199789159
 20
309.0569637885367
 30
0.0
  0
VERTEX
  5
41
330
3D
100
AcDbEntity
  8
Layer 1
 62
     7
420
 16777215
370
    70
100
AcDbVertex
100
AcDb2dVertex
 10
464.4319062019362
 20
310.8873442273418
 30
0.0
  0
VERTEX
  5
42
330
3D
100
AcDbEntity
  8
Layer 1
 62
     7
420
 16777215
370
    70
100
AcDbVertex
100
AcDb2dVertex
 10
453.8607959865187
 20
321.457248658544
 30
0.0
  0
SEQEND
  5
43
330
3D
100
AcDbEntity
  8
Layer 1
370
    70
  0
POLYLINE
  5
44
330
1F
100
AcDbEntity
  8
Layer 1
 62
     7
420
 16777215
370
    70
100
AcDb2dPolyline
 66
     1
 10
0.0
 20
0.0
 30
0.0
  0
VERTEX
  5
45
330
44
100
AcDbEntity
  8
Layer 1
 62
     7
420
 16777215
370
    70
100
AcDbVertex
100
AcDb2dVertex
 10
495.1475365374832
 20
280.1711971271311
 30
0.0
  0
VERTEX
  5
46
330
44
100
AcDbEntity
  8
Layer 1
 62
     7
420
 16777215
370
    70
100
AcDbVertex
100
AcDb2dVertex
 10
493.3162948242386
 20
278.3404721785503
 30
0.0
  0
VERTEX
  5
47
330
44
100
AcDbEntity
  8
Layer 1
 62
     7
420
 16777215
370
    70
100
AcDbVertex
100
AcDb2dVertex
 10
503.884304451674
 20
267.7698787277964
 30
0.0
  0
VERTEX
  5
48
330
44
100
AcDbEntity
  8
Layer 1
 62
     7
420
 16777215
370
    70
100
AcDbVertex
100
AcDb2dVertex
 10
505.7160629295822
 20
269.6023262252563
 30
0.0
  0
VERTEX
  5
49
330
44
100
AcDbEntity
  8
Layer 1
 62
     7
420
 16777215
370
    70
100
AcDbVertex
100
AcDb2dVertex
 10
495.1475365374832
 20
280.1711971271311
 30
0.0
  0
SEQEND
  5
4A
330
44
100
AcDbEntity
  8
Layer 1
370
    70
  0
POLYLINE
  5
4B
330
1F
100
AcDbEntity
  8
Layer 1
 62
     7
420
 16777215
370
    70
100
AcDb2dPolyline
 66
     1
 10
0.0
 20
0.0
 30
0.0
  0
VERTEX
  5
4C
330
4B
100
AcDbEntity
  8
Layer 1
 62
     7
420
 16777215
370
    70
100
AcDbVertex
100
AcDb2dVertex
 10
452.0309323123773
 20
269.6030152448079
 30
0.0
  0
VERTEX
  5
4D
330
4B
100
AcDbEntity
  8
Layer 1
 62
     7
420
 16777215
370
    70
100
AcDbVertex
100
AcDb2dVertex
 10
453.8628630451735
 20
267.770567747348
 30
0.0
  0
VERTEX
  5
4E
330
4B
100
AcDbEntity
  8
Layer 1
 62
     7
420
 16777215
370
    70
100
AcDbVertex
100
AcDb2dVertex
 10
464.4319062019362
 20
278.3397831589987
 30
0.0
  0
VERTEX
  5
4F
330
4B
100
AcDbEntity
  8
Layer 1
 62
     7
420
 16777215
370
    70
100
AcDbVertex
100
AcDb2dVertex
 10
462.5989419398127
 20
280.1725751662343
 30
0.0
  0
VERTEX
  5
50
330
4B
100
AcDbEntity
  8
Layer 1
 62
     7
420
 16777215
370
    70
100
AcDbVertex
100
AcDb2dVertex
 10
452.0309323123773
 20
269.6030152448079
 30
0.0
  0
SEQEND
  5
51
330
4B
100
AcDbEntity
  8
Layer 1
370
    70
  0
POLYLINE
  5
52
330
1F
100
AcDbEntity
  8
Layer 1
 62
     7
420
 16777215
370
    70
100
AcDb2dPolyline
 66
     1
 10
0.0
 20
0.0
 30
0.0
  0
VERTEX
  5
53
330
52
100
AcDbEntity
  8
Layer 1
 62
     7
420
 16777215
370
    70
100
AcDbVertex
100
AcDb2dVertex
 10
493.3162948242386
 20
310.8866552077902
 30
0.0
  0
VERTEX
  5
54
330
52
100
AcDbEntity
  8
Layer 1
 62
     7
420
 16777215
370
    70
100
AcDbVertex
100
AcDb2dVertex
 10
495.1475365374832
 20
309.0562747689851
 30
0.0
  0
VERTEX
  5
55
330
52
100
AcDbEntity
  8
Layer 1
 62
     7
420
 16777215
370
    70
100
AcDbVertex
100
AcDb2dVertex
 10
505.7170964589096
 20
319.6258346904116
 30
0.0
  0
VERTEX
  5
56
330
52
100
AcDbEntity
  8
Layer 1
 62
     7
420
 16777215
370
    70
100
AcDbVertex
100
AcDb2dVertex
 10
503.8846489614498
 20
321.4579376780956
 30
0.0
  0
VERTEX
  5
57
330
52
100
AcDbEntity
  8
Layer 1
 62
     7
420
 16777215
370
    70
100
AcDbVertex
100
AcDb2dVertex
 10
493.3162948242386
 20
310.8866552077902
 30
0.0
  0
SEQEND
  5
58
330
52
100
AcDbEntity
  8
Layer 1
370
    70
  0
POLYLINE
  5
59
330
1F
100
AcDbEntity
  8
Layer 1
 62
     7
420
 16777215
370
    70
100
AcDb2dPolyline
 66
     1
 10
0.0
 20
0.0
 30
0.0
  0
VERTEX
  5
5A
330
59
100
AcDbEntity
  8
Layer 1
 62
     7
420
 16777215
370
    70
100
AcDbVertex
100
AcDb2dVertex
 10
489.0962223256234
 20
255.5566626660465
 30
0.0
  0
VERTEX
  5
5B
330
59
100
AcDbEntity
  8
Layer 1
 62
     7
420
 16777215
370
    70
100
AcDbVertex
100
AcDb2dVertex
 10
517.7776946899819
 20
255.5566626660465
 30
0.0
  0
VERTEX
  5
5C
330
59
100
AcDbEntity
  8
Layer 1
 62
     7
420
 16777215
370
    70
100
AcDbVertex
100
AcDb2dVertex
 10
517.7776946899819
 20
284.5547395143616
 30
0.0
  0
VERTEX
  5
5D
330
59
100
AcDbEntity
  8
Layer 1
 62
     7
420
 16777215
370
    70
100
AcDbVertex
100
AcDb2dVertex
 10
522.7599950675461
 20
284.5547395143616
 30
0.0
  0
VERTEX
  5
5E
330
59
100
AcDbEntity
  8
Layer 1
 62
     7
420
 16777215
370
    70
100
AcDbVertex
100
AcDb2dVertex
 10
522.7599950675461
 20
304.8367190350336
 30
0.0
  0
VERTEX
  5
5F
330
59
100
AcDbEntity
  8
Layer 1
 62
     7
420
 16777215
370
    70
100
AcDbVertex
100
AcDb2dVertex
 10
517.7776946899819
 20
304.8367190350336
 30
0.0
  0
VERTEX
  5
60
330
59
100
AcDbEntity
  8
Layer 1
 62
     7
420
 16777215
370
    70
100
AcDbVertex
100
AcDb2dVertex
 10
517.7776946899819
 20
333.6708092300698
 30
0.0
  0
VERTEX
  5
61
330
59
100
AcDbEntity
  8
Layer 1
 62
     7
420
 16777215
370
    70
100
AcDbVertex
100
AcDb2dVertex
 10
489.0962223256234
 20
333.6708092300698
 30
0.0
  0
VERTEX
  5
62
330
59
100
AcDbEntity
  8
Layer 1
 62
     7
420
 16777215
370
    70
100
AcDbVertex
100
AcDb2dVertex
 10
489.0962223256234
 20
338.6541431369614
 30
0.0
  0
VERTEX
  5
63
330
59
100
AcDbEntity
  8
Layer 1
 62
     7
420
 16777215
370
    70
100
AcDbVertex
100
AcDb2dVertex
 10
468.8145873147272
 20
338.6541431369614
 30
0.0
  0
VERTEX
  5
64
330
59
100
AcDbEntity
  8
Layer 1
 62
     7
420
 16777215
370
    70
100
AcDbVertex
100
AcDb2dVertex
 10
468.8145873147272
 20
333.6708092300698
 30
0.0
  0
VERTEX
  5
65
330
59
100
AcDbEntity
  8
Layer 1
 62
     7
420
 16777215
370
    70
100
AcDbVertex
100
AcDb2dVertex
 10
440.1663601437331
 20
333.6708092300698
 30
0.0
  0
VERTEX
  5
66
330
59
100
AcDbEntity
  8
Layer 1
 62
     7
420
 16777215
370
    70
100
AcDbVertex
100
AcDb2dVertex
 10
440.1663601437331
 20
304.8367190350336
 30
0.0
  0
VERTEX
  5
67
330
59
100
AcDbEntity
  8
Layer 1
 62
     7
420
 16777215
370
    70
100
AcDbVertex
100
AcDb2dVertex
 10
435.183887511281
 20
304.8367190350336
 30
0.0
  0
VERTEX
  5
68
330
59
100
AcDbEntity
  8
Layer 1
 62
     7
420
 16777215
370
    70
100
AcDbVertex
100
AcDb2dVertex
 10
435.183887511281
 20
284.5543950045858
 30
0.0
  0
VERTEX
  5
69
330
59
100
AcDbEntity
  8
Layer 1
 62
     7
420
 16777215
370
    70
100
AcDbVertex
100
AcDb2dVertex
 10
440.1663601437331
 20
284.5543950045858
 30
0.0
  0
VERTEX
  5
6A
330
59
100
AcDbEntity
  8
Layer 1
 62
     7
420
 16777215
370
    70
100
AcDbVertex
100
AcDb2dVertex
 10
440.1663601437331
 20
255.5566626660465
 30
0.0
  0
VERTEX
  5
6B
330
59
100
AcDbEntity
  8
Layer 1
 62
     7
420
 16777215
370
    70
100
AcDbVertex
100
AcDb2dVertex
 10
468.8145873147272
 20
255.5566626660465
 30
0.0
  0
VERTEX
  5
6C
330
59
100
AcDbEntity
  8
Layer 1
 62
     7
420
 16777215
370
    70
100
AcDbVertex
100
AcDb2dVertex
 10
468.8145873147272
 20
250.5736732689307
 30
0.0
  0
VERTEX
  5
6D
330
59
100
AcDbEntity
  8
Layer 1
 62
     7
420
 16777215
370
    70
100
AcDbVertex
100
AcDb2dVertex
 10
489.0962223256234
 20
250.5736732689307
 30
0.0
  0
VERTEX
  5
6E
330
59
100
AcDbEntity
  8
Layer 1
 62
     7
420
 16777215
370
    70
100
AcDbVertex
100
AcDb2dVertex
 10
489.0962223256234
 20
254.659903719649
 30
0.0
  0
SEQEND
  5
6F
330
59
100
AcDbEntity
  8
Layer 1
370
    70
  0
POLYLINE
  5
70
330
1F
100
AcDbEntity
  8
Layer 1
 62
     7
420
 16777215
370
    70
100
AcDb2dPolyline
 66
     1
 10
0.0
 20
0.0
 30
0.0
  0
VERTEX
  5
71
330
70
100
AcDbEntity
  8
Layer 1
 62
     7
420
 16777215
370
    70
100
AcDbVertex
100
AcDb2dVertex
 10
594.2673054062384
 20
311.5718851518487
 30
0.0
  0
VERTEX
  5
72
330
70
100
AcDbEntity
  8
Layer 1
 62
     7
420
 16777215
370
    70
100
AcDbVertex
100
AcDb2dVertex
 10
594.2673054062384
 20
335.2166245940672
 30
0.0
  0
VERTEX
  5
73
330
70
100
AcDbEntity
  8
Layer 1
 62
     7
420
 16777215
370
    70
100
AcDbVertex
100
AcDb2dVertex
 10
571.0051440700416
 20
335.2166245940672
 30
0.0
  0
VERTEX
  5
74
330
70
100
AcDbEntity
  8
Layer 1
 62
     7
420
 16777215
370
    70
100
AcDbVertex
100
AcDb2dVertex
 10
571.0051440700416
 20
339.8678510770912
 30
0.0
  0
VERTEX
  5
75
330
70
100
AcDbEntity
  8
Layer 1
 62
     7
420
 16777215
370
    70
100
AcDbVertex
100
AcDb2dVertex
 10
555.7581749226306
 20
339.8678510770912
 30
0.0
  0
VERTEX
  5
76
330
70
100
AcDbEntity
  8
Layer 1
 62
     7
420
 16777215
370
    70
100
AcDbVertex
100
AcDb2dVertex
 10
555.7581749226306
 20
335.2166245940672
 30
0.0
  0
VERTEX
  5
77
330
70
100
AcDbEntity
  8
Layer 1
 62
     7
420
 16777215
370
    70
100
AcDbVertex
100
AcDb2dVertex
 10
532.9201051204388
 20
335.2166245940672
 30
0.0
  0
VERTEX
  5
78
330
70
100
AcDbEntity
  8
Layer 1
 62
     7
420
 16777215
370
    70
100
AcDbVertex
100
AcDb2dVertex
 10
532.9201051204388
 20
311.5718851518487
 30
0.0
  0
VERTEX
  5
79
330
70
100
AcDbEntity
  8
Layer 1
 62
     7
420
 16777215
370
    70
100
AcDbVertex
100
AcDb2dVertex
 10
528.2690508923026
 20
311.5718851518487
 30
0.0
  0
VERTEX
  5
7A
330
70
100
AcDbEntity
  8
Layer 1
 62
     7
420
 16777215
370
    70
100
AcDbVertex
100
AcDb2dVertex
 10
528.2690508923026
 20
296.3249160044377
 30
0.0
  0
VERTEX
  5
7B
330
70
100
AcDbEntity
  8
Layer 1
 62
     7
420
 16777215
370
    70
100
AcDbVertex
100
AcDb2dVertex
 10
532.9201051204388
 20
296.3249160044377
 30
0.0
  0
VERTEX
  5
7C
330
70
100
AcDbEntity
  8
Layer 1
 62
     7
420
 16777215
370
    70
100
AcDbVertex
100
AcDb2dVertex
 10
532.9201051204388
 20
272.9158212488638
 30
0.0
  0
VERTEX
  5
7D
330
70
100
AcDbEntity
  8
Layer 1
 62
     7
420
 16777215
370
    70
100
AcDbVertex
100
AcDb2dVertex
 10
555.7581749226306
 20
272.9158212488638
 30
0.0
  0
VERTEX
  5
7E
330
70
100
AcDbEntity
  8
Layer 1
 62
     7
420
 16777215
370
    70
100
AcDbVertex
100
AcDb2dVertex
 10
555.7581749226306
 20
268.2645947658397
 30
0.0
  0
VERTEX
  5
7F
330
70
100
AcDbEntity
  8
Layer 1
 62
     7
420
 16777215
370
    70
100
AcDbVertex
100
AcDb2dVertex
 10
571.0051440700416
 20
268.2645947658397
 30
0.0
  0
VERTEX
  5
80
330
70
100
AcDbEntity
  8
Layer 1
 62
     7
420
 16777215
370
    70
100
AcDbVertex
100
AcDb2dVertex
 10
571.0051440700416
 20
272.9158212488638
 30
0.0
  0
VERTEX
  5
81
330
70
100
AcDbEntity
  8
Layer 1
 62
     7
420
 16777215
370
    70
100
AcDbVertex
100
AcDb2dVertex
 10
594.2673054062384
 20
272.9158212488638
 30
0.0
  0
VERTEX
  5
82
330
70
100
AcDbEntity
  8
Layer 1
 62
     7
420
 16777215
370
    70
100
AcDbVertex
100
AcDb2dVertex
 10
594.2673054062384
 20
296.3249160044377
 30
0.0
  0
VERTEX
  5
83
330
70
100
AcDbEntity
  8
Layer 1
 62
     7
420
 16777215
370
    70
100
AcDbVertex
100
AcDb2dVertex
 10
598.9187041441504
 20
296.3249160044377
 30
0.0
  0
VERTEX
  5
84
330
70
100
AcDbEntity
  8
Layer 1
 62
     7
420
 16777215
370
    70
100
AcDbVertex
100
AcDb2dVertex
 10
598.9187041441504
 20
311.5718851518487
 30
0.0
  0
VERTEX
  5
85
330
70
100
AcDbEntity
  8
Layer 1
 62
     7
420
 16777215
370
    70
100
AcDbVertex
100
AcDb2dVertex
 10
594.2673054062384
 20
311.5718851518487
 30
0.0
  0
SEQEND
  5
86
330
70
100
AcDbEntity
  8
Layer 1
370
    70
  0
POLYLINE
  5
87
330
1F
100
AcDbEntity
  8
Layer 1
 62
     7
420
 16777215
370
    70
100
AcDb2dPolyline
 66
     1
 10
0.0
 20
0.0
 30
0.0
  0
VERTEX
  5
88
330
87
100
AcDbEntity
  8
Layer 1
 62
     7
420
 16777215
370
    70
100
AcDbVertex
100
AcDb2dVertex
 10
578.6039961947777
 20
283.0712804197833
 30
0.0
  0
VERTEX
  5
89
330
87
100
AcDbEntity
  8
Layer 1
 62
     7
420
 16777215
370
    70
100
AcDbVertex
100
AcDb2dVertex
 10
542.5041948282003
 20
283.0712804197833
 30
0.0
  0
VERTEX
  5
8A
330
87
100
AcDbEntity
  8
Layer 1
 62
     7
420
 16777215
370
    70
100
AcDbVertex
100
AcDb2dVertex
 10
542.5041948282003
 20
324.825865246279
 30
0.0
  0
VERTEX
  5
8B
330
87
100
AcDbEntity
  8
Layer 1
 62
     7
420
 16777215
370
    70
100
AcDbVertex
100
AcDb2dVertex
 10
584.2591241644718
 20
324.825865246279
 30
0.0
  0
VERTEX
  5
8C
330
87
100
AcDbEntity
  8
Layer 1
 62
     7
420
 16777215
370
    70
100
AcDbVertex
100
AcDb2dVertex
 10
584.2591241644718
 20
283.0712804197833
 30
0.0
  0
SEQEND
  5
8D
330
87
100
AcDbEntity
  8
Layer 1
370
    70
  0
POLYLINE
  5
8E
330
1F
100
AcDbEntity
  8
Layer 1
 62
     7
420
 16777215
370
    70
100
AcDb2dPolyline
 66
     1
 10
0.0
 20
0.0
 30
0.0
  0
VERTEX
  5
8F
330
8E
100
AcDbEntity
  8
Layer 1
 62
     7
420
 16777215
370
    70
100
AcDbVertex
100
AcDb2dVertex
 10
584.2591241644718
 20
283.0712804197833
 30
0.0
  0
VERTEX
  5
90
330
8E
100
AcDbEntity
  8
Layer 1
 62
     7
420
 16777215
370
    70
100
AcDbVertex
100
AcDb2dVertex
 10
578.6039961947777
 20
283.0712804197833
 30
0.0
  0
SEQEND
  5
91
330
8E
100
AcDbEntity
  8
Layer 1
370
    70
  0
POLYLINE
  5
92
330
1F
100
AcDbEntity
  8
Layer 1
 62
     7
420
 16777215
370
    70
100
AcDb2dPolyline
 66
     1
 10
0.0
 20
0.0
 30
0.0
  0
VERTEX
  5
93
330
92
100
AcDbEntity
  8
Layer 1
 62
     7
420
 16777215
370
    70
100
AcDbVertex
100
AcDb2dVertex
 10
644.4117368026982
 20
309.5830302161775
 30
0.0
  0
VERTEX
  5
94
330
92
100
AcDbEntity
  8
Layer 1
 62
     7
420
 16777215
370
    70
100
AcDbVertex
100
AcDb2dVertex
 10
640.4250696771849
 20
309.5830302161775
 30
0.0
  0
VERTEX
  5
95
330
92
100
AcDbEntity
  8
Layer 1
 62
     7
420
 16777215
370
    70
100
AcDbVertex
100
AcDb2dVertex
 10
640.4250696771849
 20
297.60890393883
 30
0.0
  0
VERTEX
  5
96
330
92
100
AcDbEntity
  8
Layer 1
 62
     7
420
 16777215
370
    70
100
AcDbVertex
100
AcDb2dVertex
 10
644.4117368026982
 20
297.60890393883
 30
0.0
  0
VERTEX
  5
97
330
92
100
AcDbEntity
  8
Layer 1
 62
     7
420
 16777215
370
    70
100
AcDbVertex
100
AcDb2dVertex
 10
644.4117368026982
 20
309.5830302161775
 30
0.0
  0
SEQEND
  5
98
330
92
100
AcDbEntity
  8
Layer 1
370
    70
  0
POLYLINE
  5
99
330
1F
100
AcDbEntity
  8
Layer 1
 62
     7
420
 16777215
370
    70
100
AcDb2dPolyline
 66
     1
 10
0.0
 20
0.0
 30
0.0
  0
VERTEX
  5
9A
330
99
100
AcDbEntity
  8
Layer 1
 62
     7
420
 16777215
370
    70
100
AcDbVertex
100
AcDb2dVertex
 10
614.6626286431474
 20
309.5830302161775
 30
0.0
  0
VERTEX
  5
9B
330
99
100
AcDbEntity
  8
Layer 1
 62
     7
420
 16777215
370
    70
100
AcDbVertex
100
AcDb2dVertex
 10
610.6752724980826
 20
309.5830302161775
 30
0.0
  0
VERTEX
  5
9C
330
99
100
AcDbEntity
  8
Layer 1
 62
     7
420
 16777215
370
    70
100
AcDbVertex
100
AcDb2dVertex
 10
610.6752724980826
 20
297.60890393883
 30
0.0
  0
VERTEX
  5
9D
330
99
100
AcDbEntity
  8
Layer 1
 62
     7
420
 16777215
370
    70
100
AcDbVertex
100
AcDb2dVertex
 10
614.6626286431474
 20
297.60890393883
 30
0.0
  0
VERTEX
  5
9E
330
99
100
AcDbEntity
  8
Layer 1
 62
     7
420
 16777215
370
    70
100
AcDbVertex
100
AcDb2dVertex
 10
614.6626286431474
 20
309.5830302161775
 30
0.0
  0
SEQEND
  5
9F
330
99
100
AcDbEntity
  8
Layer 1
370
    70
  0
POLYLINE
  5
A0
330
1F
100
AcDbEntity
  8
Layer 1
 62
     7
420
 16777215
370
    70
100
AcDb2dPolyline
 66
     1
 10
0.0
 20
0.0
 30
0.0
  0
VERTEX
  5
A1
330
A0
100
AcDbEntity
  8
Layer 1
 62
     7
420
 16777215
370
    70
100
AcDbVertex
100
AcDb2dVertex
 10
621.5569582763803
 20
320.4643714846994
 30
0.0
  0
VERTEX
  5
A2
330
A0
100
AcDbEntity
  8
Layer 1
 62
     7
420
 16777215
370
    70
100
AcDbVertex
100
AcDb2dVertex
 10
621.5569582763803
 20
316.4777043591862
 30
0.0
  0
VERTEX
  5
A3
330
A0
100
AcDbEntity
  8
Layer 1
 62
     7
420
 16777215
370
    70
100
AcDbVertex
100
AcDb2dVertex
 10
633.5307400439519
 20
316.4777043591862
 30
0.0
  0
VERTEX
  5
A4
330
A0
100
AcDbEntity
  8
Layer 1
 62
     7
420
 16777215
370
    70
100
AcDbVertex
100
AcDb2dVertex
 10
633.5307400439519
 20
320.4643714846994
 30
0.0
  0
VERTEX
  5
A5
330
A0
100
AcDbEntity
  8
Layer 1
 62
     7
420
 16777215
370
    70
100
AcDbVertex
100
AcDb2dVertex
 10
621.5569582763803
 20
320.4643714846994
 30
0.0
  0
SEQEND
  5
A6
330
A0
100
AcDbEntity
  8
Layer 1
370
    70
  0
POLYLINE
  5
A7
330
1F
100
AcDbEntity
  8
Layer 1
 62
     7
420
 16777215
370
    70
100
AcDb2dPolyline
 66
     1
 10
0.0
 20
0.0
 30
0.0
  0
VERTEX
  5
A8
330
A7
100
AcDbEntity
  8
Layer 1
 62
     7
420
 16777215
370
    70
100
AcDbVertex
100
AcDb2dVertex
 10
621.5569582763803
 20
290.7149188153729
 30
0.0
  0
VERTEX
  5
A9
330
A7
100
AcDbEntity
  8
Layer 1
 62
     7
420
 16777215
370
    70
100
AcDbVertex
100
AcDb2dVertex
 10
621.5569582763803
 20
286.7282516898596
 30
0.0
  0
VERTEX
  5
AA
330
A7
100
AcDbEntity
  8
Layer 1
 62
     7
420
 16777215
370
    70
100
AcDbVertex
100
AcDb2dVertex
 10
633.5307400439519
 20
286.7282516898596
 30
0.0
  0
VERTEX
  5
AB
330
A7
100
AcDbEntity
  8
Layer 1
 62
     7
420
 16777215
370
    70
100
AcDbVertex
100
AcDb2dVertex
 10
633.5307400439519
 20
290.7149188153729
 30
0.0
  0
VERTEX
  5
AC
330
A7
100
AcDbEntity
  8
Layer 1
 62
     7
420
 16777215
370
    70
100
AcDbVertex
100
AcDb2dVertex
 10
621.5569582763803
 20
290.7149188153729
 30
0.0
  0
SEQEND
  5
AD
330
A7
100
AcDbEntity
  8
Layer 1
370
    70
  0
POLYLINE
  5
AE
330
1F
100
AcDbEntity
  8
Layer 1
 62
     7
420
 16777215
370
    70
100
AcDb2dPolyline
 66
     1
 10
0.0
 20
0.0
 30
0.0
  0
VERTEX
  5
AF
330
AE
100
AcDbEntity
  8
Layer 1
 62
     7
420
 16777215
370
    70
100
AcDbVertex
100
AcDb2dVertex
 10
655.2245206258367
 20
316.0536128251811
 30
0.0
  0
VERTEX
  5
B0
330
AE
100
AcDbEntity
  8
Layer 1
 62
     7
420
 16777215
370
    70
100
AcDbVertex
100
AcDb2dVertex
 10
650.5943092391362
 20
316.0536128251811
 30
0.0
  0
VERTEX
  5
B1
330
AE
100
AcDbEntity
  8
Layer 1
 62
     7
420
 16777215
370
    70
100
AcDbVertex
100
AcDb2dVertex
 10
650.5943092391362
 20
326.6472884309133
 30
0.0
  0
VERTEX
  5
B2
330
AE
100
AcDbEntity
  8
Layer 1
 62
     7
420
 16777215
370
    70
100
AcDbVertex
100
AcDb2dVertex
 10
640.000633633404
 20
326.6472884309133
 30
0.0
  0
VERTEX
  5
B3
330
AE
100
AcDbEntity
  8
Layer 1
 62
     7
420
 16777215
370
    70
100
AcDbVertex
100
AcDb2dVertex
 10
640.000633633404
 20
331.277155307838
 30
0.0
  0
VERTEX
  5
B4
330
AE
100
AcDbEntity
  8
Layer 1
 62
     7
420
 16777215
370
    70
100
AcDbVertex
100
AcDb2dVertex
 10
615.0856866478251
 20
331.277155307838
 30
0.0
  0
VERTEX
  5
B5
330
AE
100
AcDbEntity
  8
Layer 1
 62
     7
420
 16777215
370
    70
100
AcDbVertex
100
AcDb2dVertex
 10
615.0856866478251
 20
326.6472884309133
 30
0.0
  0
VERTEX
  5
B6
330
AE
100
AcDbEntity
  8
Layer 1
 62
     7
420
 16777215
370
    70
100
AcDbVertex
100
AcDb2dVertex
 10
604.4920110420929
 20
326.6472884309133
 30
0.0
  0
VERTEX
  5
B7
330
AE
100
AcDbEntity
  8
Layer 1
 62
     7
420
 16777215
370
    70
100
AcDbVertex
100
AcDb2dVertex
 10
604.4920110420929
 20
316.0536128251811
 30
0.0
  0
VERTEX
  5
B8
330
AE
100
AcDbEntity
  8
Layer 1
 62
     7
420
 16777215
370
    70
100
AcDbVertex
100
AcDb2dVertex
 10
599.8626609298319
 20
316.0536128251811
 30
0.0
  0
VERTEX
  5
B9
330
AE
100
AcDbEntity
  8
Layer 1
 62
     7
420
 16777215
370
    70
100
AcDbVertex
100
AcDb2dVertex
 10
599.8626609298319
 20
291.1390103493779
 30
0.0
  0
VERTEX
  5
BA
330
AE
100
AcDbEntity
  8
Layer 1
 62
     7
420
 16777215
370
    70
100
AcDbVertex
100
AcDb2dVertex
 10
604.4920110420929
 20
291.1390103493779
 30
0.0
  0
VERTEX
  5
BB
330
AE
100
AcDbEntity
  8
Layer 1
 62
     7
420
 16777215
370
    70
100
AcDbVertex
100
AcDb2dVertex
 10
604.4920110420929
 20
280.5460237631974
 30
0.0
  0
VERTEX
  5
BC
330
AE
100
AcDbEntity
  8
Layer 1
 62
     7
420
 16777215
370
    70
100
AcDbVertex
100
AcDb2dVertex
 10
615.0856866478251
 20
280.5460237631974
 30
0.0
  0
VERTEX
  5
BD
330
AE
100
AcDbEntity
  8
Layer 1
 62
     7
420
 16777215
370
    70
100
AcDbVertex
100
AcDb2dVertex
 10
615.0856866478251
 20
275.9158123764968
 30
0.0
  0
VERTEX
  5
BE
330
AE
100
AcDbEntity
  8
Layer 1
 62
     7
420
 16777215
370
    70
100
AcDbVertex
100
AcDb2dVertex
 10
640.000633633404
 20
275.9158123764968
 30
0.0
  0
VERTEX
  5
BF
330
AE
100
AcDbEntity
  8
Layer 1
 62
     7
420
 16777215
370
    70
100
AcDbVertex
100
AcDb2dVertex
 10
640.000633633404
 20
280.5460237631974
 30
0.0
  0
VERTEX
  5
C0
330
AE
100
AcDbEntity
  8
Layer 1
 62
     7
420
 16777215
370
    70
100
AcDbVertex
100
AcDb2dVertex
 10
650.5943092391362
 20
280.5460237631974
 30
0.0
  0
VERTEX
  5
C1
330
AE
100
AcDbEntity
  8
Layer 1
 62
     7
420
 16777215
370
    70
100
AcDbVertex
100
AcDb2dVertex
 10
650.5943092391362
 20
291.1390103493779
 30
0.0
  0
VERTEX
  5
C2
330
AE
100
AcDbEntity
  8
Layer 1
 62
     7
420
 16777215
370
    70
100
AcDbVertex
100
AcDb2dVertex
 10
655.2245206258367
 20
291.1390103493779
 30
0.0
  0
VERTEX
  5
C3
330
AE
100
AcDbEntity
  8
Layer 1
 62
     7
420
 16777215
370
    70
100
AcDbVertex
100
AcDb2dVertex
 10
655.2245206258367
 20
316.0536128251811
 30
0.0
  0
SEQEND
  5
C4
330
AE
100
AcDbEntity
  8
Layer 1
370
    70
  0
POLYLINE
  5
C5
330
1F
100
AcDbEntity
  8
Layer 1
 62
     7
420
 16777215
370
    70
100
AcDb2dPolyline
 66
     1
 10
0.0
 20
0.0
 30
0.0
  0
VERTEX
  5
C6
330
C5
100
AcDbEntity
  8
Layer 1
 62
     7
420
 16777215
370
    70
100
AcDbVertex
100
AcDb2dVertex
 10
622.3031664507548
 20
297.4087437590924
 30
0.0
  0
VERTEX
  5
C7
330
C5
100
AcDbEntity
  8
Layer 1
 62
     7
420
 16777215
370
    70
100
AcDbVertex
100
AcDb2dVertex
 10
622.3031664507548
 20
309.784912944794
 30
0.0
  0
VERTEX
  5
C8
330
C5
100
AcDbEntity
  8
Layer 1
 62
     7
420
 16777215
370
    70
100
AcDbVertex
100
AcDb2dVertex
 10
632.7824648109226
 20
309.784912944794
 30
0.0
  0
VERTEX
  5
C9
330
C5
100
AcDbEntity
  8
Layer 1
 62
     7
420
 16777215
370
    70
100
AcDbVertex
100
AcDb2dVertex
 10
632.7824648109226
 20
297.4087437590924
 30
0.0
  0
VERTEX
  5
CA
330
C5
100
AcDbEntity
  8
Layer 1
 62
     7
420
 16777215
370
    70
100
AcDbVertex
100
AcDb2dVertex
 10
622.3031664507548
 20
297.4087437590924
 30
0.0
  0
SEQEND
  5
CB
330
C5
100
AcDbEntity
  8
Layer 1
370
    70
  0
SPLINE
  5
CC
330
1F
100
AcDbEntity
  8
Layer 1
 62
     7
420
 16777215
370
    70
100
AcDbSpline
210
0.0
220
0.0
230
1.0
 70
    11
 71
     3
 72
    50
 73
    46
 74
     0
 42
0.0000000001
 43
0.0000000001
 40
0.0
 40
0.0
 40
0.0
 40
0.0
 40
1.0
 40
1.0
 40
1.0
 40
2.0
 40
2.0
 40
2.0
 40
3.0
 40
3.0
 40
3.0
 40
4.0
 40
4.0
 40
4.0
 40
5.0
 40
5.0
 40
5.0
 40
6.0
 40
6.0
 40
6.0
 40
7.0
 40
7.0
 40
7.0
 40
8.0
 40
8.0
 40
8.0
 40
9.0
 40
9.0
 40
9.0
 40
10.0
 40
10.0
 40
10.0
 40
11.0
 40
11.0
 40
11.0
 40
12.0
 40
12.0
 40
12.0
 40
13.0
 40
13.0
 40
13.0
 40
14.0
 40
14.0
 40
14.0
 40
15.0
 40
15.0
 40
15.0
 40
15.0
 10
488.0182512371572
 20
408.2048102040193
 30
0.0
 10
488.0182512371572
 20
408.2048102040193
 30
0.0
 10
479.4284167423435
 20
408.2048102040193
 30
0.0
 10
479.4284167423435
 20
408.2048102040193
 30
0.0
 10
479.4284167423435
 20
408.2048102040193
 30
0.0
 10
479.1319660802708
 20
408.2048102040193
 30
0.0
 10
479.1319660802708
 20
408.2048102040193
 30
0.0
 10
479.1319660802708
 20
408.2048102040193
 30
0.0
 10
479.1319660802708
 20
414.4828118483529
 30
0.0
 10
479.1319660802708
 20
414.4828118483529
 30
0.0
 10
479.1319660802708
 20
414.4828118483529
 30
0.0
 10
466.9351142328712
 20
414.4828118483529
 30
0.0
 10
466.9351142328712
 20
414.4828118483529
 30
0.0
 10
466.9351142328712
 20
414.4828118483529
 30
0.0
 10
466.9351142328712
 20
408.2048102040193
 30
0.0
 10
466.9351142328712
 20
408.2048102040193
 30
0.0
 10
466.9351142328712
 20
408.2048102040193
 30
0.0
 10
466.6378022963591
 20
408.2048102040193
 30
0.0
 10
466.6378022963591
 20
408.2048102040193
 30
0.0
 10
466.6378022963591
 20
408.2048102040193
 30
0.0
 10
458.0495180955364
 20
408.2048102040193
 30
0.0
 10
458.0495180955364
 20
408.2048102040193
 30
0.0
 10
458.0495180955364
 20
408.2048102040193
 30
0.0
 10
437.8035398464351
 20
341.4632758488033
 30
0.0
 10
437.8035398464351
 20
341.4632758488033
 30
0.0
 10
437.8035398464351
 20
341.4632758488033
 30
0.0
 10
446.8948083199202
 20
341.4632758488033
 30
0.0
 10
446.8948083199202
 20
341.4632758488033
 30
0.0
 10
446.8948083199202
 20
341.4632758488033
 30
0.0
 10
450.686138402557
 20
348.1433204014911
 30
0.0
 10
452.9791954702563
 20
348.7617154490451
 30
0.0
 10
458.1304778928485
 20
350.1507788650553
 30
0.0
 10
461.9385166996115
 20
341.4632758488033
 30
0.0
 10
473.0331095193513
 20
341.4632758488033
 30
0.0
 10
484.1277023390911
 20
341.4632758488033
 30
0.0
 10
487.9355688909662
 20
350.1507788650553
 30
0.0
 10
493.0870235684463
 20
348.7617154490451
 30
0.0
 10
495.3809419105851
 20
348.1433204014911
 30
0.0
 10
499.1722719932219
 20
341.4632758488033
 30
0.0
 10
499.1722719932219
 20
341.4632758488033
 30
0.0
 10
499.1722719932219
 20
341.4632758488033
 30
0.0
 10
508.2638849764828
 20
341.4632758488033
 30
0.0
 10
508.2638849764828
 20
341.4632758488033
 30
0.0
 10
508.2638849764828
 20
341.4632758488033
 30
0.0
 10
488.0182512371572
 20
408.2048102040193
 30
0.0
 10
488.0182512371572
 20
408.2048102040193
 30
0.0
  0
POLYLINE
  5
CD
330
1F
100
AcDbEntity
  8
Layer 1
 62
     7
420
 16777215
370
    70
100
AcDb2dPolyline
 66
     1
 10
0.0
 20
0.0
 30
0.0
  0
VERTEX
  5
CE
330
CD
100
AcDbEntity
  8
Layer 1
 62
     7
420
 16777215
370
    70
100
AcDbVertex
100
AcDb2dVertex
 10
480.507593615025
 20
356.0081340731418
 30
0.0
  0
VERTEX
  5
CF
330
CD
100
AcDbEntity
  8
Layer 1
 62
     7
420
 16777215
370
    70
100
AcDbVertex
100
AcDb2dVertex
 10
480.507593615025
 20
352.0207779280769
 30
0.0
  0
VERTEX
  5
D0
330
CD
100
AcDbEntity
  8
Layer 1
 62
     7
420
 16777215
370
    70
100
AcDbVertex
100
AcDb2dVertex
 10
465.559658953005
 20
352.0207779280769
 30
0.0
  0
VERTEX
  5
D1
330
CD
100
AcDbEntity
  8
Layer 1
 62
     7
420
 16777215
370
    70
100
AcDbVertex
100
AcDb2dVertex
 10
465.559658953005
 20
356.0081340731418
 30
0.0
  0
VERTEX
  5
D2
330
CD
100
AcDbEntity
  8
Layer 1
 62
     7
420
 16777215
370
    70
100
AcDbVertex
100
AcDb2dVertex
 10
480.507593615025
 20
356.0081340731418
 30
0.0
  0
SEQEND
  5
D3
330
CD
100
AcDbEntity
  8
Layer 1
370
    70
  0
POLYLINE
  5
D4
330
1F
100
AcDbEntity
  8
Layer 1
 62
     7
420
 16777215
370
    70
100
AcDb2dPolyline
 66
     1
 10
0.0
 20
0.0
 30
0.0
  0
VERTEX
  5
D5
330
D4
100
AcDbEntity
  8
Layer 1
 62
     7
420
 16777215
370
    70
100
AcDbVertex
100
AcDb2dVertex
 10
478.0992980273219
 20
372.3596015617553
 30
0.0
  0
VERTEX
  5
D6
330
D4
100
AcDbEntity
  8
Layer 1
 62
     7
420
 16777215
370
    70
100
AcDbVertex
100
AcDb2dVertex
 10
478.0951639100123
 20
369.400607097442
 30
0.0
  0
VERTEX
  5
D7
330
D4
100
AcDbEntity
  8
Layer 1
 62
     7
420
 16777215
370
    70
100
AcDbVertex
100
AcDb2dVertex
 10
475.1301405246226
 20
369.3985400387872
 30
0.0
  0
VERTEX
  5
D8
330
D4
100
AcDbEntity
  8
Layer 1
 62
     7
420
 16777215
370
    70
100
AcDbVertex
100
AcDb2dVertex
 10
473.0344875584545
 20
367.3073656997045
 30
0.0
  0
VERTEX
  5
D9
330
D4
100
AcDbEntity
  8
Layer 1
 62
     7
420
 16777215
370
    70
100
AcDbVertex
100
AcDb2dVertex
 10
470.9372842982953
 20
369.3985400387872
 30
0.0
  0
VERTEX
  5
DA
330
D4
100
AcDbEntity
  8
Layer 1
 62
     7
420
 16777215
370
    70
100
AcDbVertex
100
AcDb2dVertex
 10
467.9741557166724
 20
369.400607097442
 30
0.0
  0
VERTEX
  5
DB
330
D4
100
AcDbEntity
  8
Layer 1
 62
     7
420
 16777215
370
    70
100
AcDbVertex
100
AcDb2dVertex
 10
467.968126795596
 20
372.3596015617553
 30
0.0
  0
VERTEX
  5
DC
330
D4
100
AcDbEntity
  8
Layer 1
 62
     7
420
 16777215
370
    70
100
AcDbVertex
100
AcDb2dVertex
 10
465.8786750053923
 20
374.4549100181476
 30
0.0
  0
VERTEX
  5
DD
330
D4
100
AcDbEntity
  8
Layer 1
 62
     7
420
 16777215
370
    70
100
AcDbVertex
100
AcDb2dVertex
 10
467.968126795596
 20
376.548495925661
 30
0.0
  0
VERTEX
  5
DE
330
D4
100
AcDbEntity
  8
Layer 1
 62
     7
420
 16777215
370
    70
100
AcDbVertex
100
AcDb2dVertex
 10
467.9741557166724
 20
379.509557448629
 30
0.0
  0
VERTEX
  5
DF
330
D4
100
AcDbEntity
  8
Layer 1
 62
     7
420
 16777215
370
    70
100
AcDbVertex
100
AcDb2dVertex
 10
470.9372842982953
 20
379.5136915659386
 30
0.0
  0
VERTEX
  5
E0
330
D4
100
AcDbEntity
  8
Layer 1
 62
     7
420
 16777215
370
    70
100
AcDbVertex
100
AcDb2dVertex
 10
473.0344875584545
 20
381.6024543365908
 30
0.0
  0
VERTEX
  5
E1
330
D4
100
AcDbEntity
  8
Layer 1
 62
     7
420
 16777215
370
    70
100
AcDbVertex
100
AcDb2dVertex
 10
475.1301405246226
 20
379.5136915659386
 30
0.0
  0
VERTEX
  5
E2
330
D4
100
AcDbEntity
  8
Layer 1
 62
     7
420
 16777215
370
    70
100
AcDbVertex
100
AcDb2dVertex
 10
478.0951639100123
 20
379.509557448629
 30
0.0
  0
VERTEX
  5
E3
330
D4
100
AcDbEntity
  8
Layer 1
 62
     7
420
 16777215
370
    70
100
AcDbVertex
100
AcDb2dVertex
 10
478.0992980273219
 20
376.548495925661
 30
0.0
  0
VERTEX
  5
E4
330
D4
100
AcDbEntity
  8
Layer 1
 62
     7
420
 16777215
370
    70
100
AcDbVertex
100
AcDb2dVertex
 10
480.1885775626377
 20
374.4549100181476
 30
0.0
  0
VERTEX
  5
E5
330
D4
100
AcDbEntity
  8
Layer 1
 62
     7
420
 16777215
370
    70
100
AcDbVertex
100
AcDb2dVertex
 10
478.0992980273219
 20
372.3596015617553
 30
0.0
  0
SEQEND
  5
E6
330
D4
100
AcDbEntity
  8
Layer 1
370
    70
  0
SPLINE
  5
E7
330
1F
100
AcDbEntity
  8
Layer 1
 62
     7
420
 16777215
370
    70
100
AcDbSpline
210
0.0
220
0.0
230
1.0
 70
    11
 71
     3
 72
    14
 73
    10
 74
     0
 42
0.0000000001
 43
0.0000000001
 40
0.0
 40
0.0
 40
0.0
 40
0.0
 40
1.0
 40
1.0
 40
1.0
 40
2.0
 40
2.0
 40
2.0
 40
3.0
 40
3.0
 40
3.0
 40
3.0
 10
479.2136148971346
 20
385.6649136127792
 30
0.0
 10
479.2136148971346
 20
385.6649136127792
 30
0.0
 10
484.71784758503
 20
387.9221416637957
 30
0.0
 10
484.7209481730121
 20
387.9235197028989
 30
0.0
 10
484.7209481730121
 20
387.9235197028989
 30
0.0
 10
501.3621483830702
 20
376.0083045972125
 30
0.0
 10
480.6350622320696
 20
365.6571638736409
 30
0.0
 10
480.6350622320696
 20
365.6571638736409
 30
0.0
 10
490.0818647941763
 20
377.1369186227208
 30
0.0
 10
479.2136148971346
 20
385.6649136127792
 30
0.0
  0
SPLINE
  5
E8
330
1F
100
AcDbEntity
  8
Layer 1
 62
     7
420
 16777215
370
    70
100
AcDbSpline
210
0.0
220
0.0
230
1.0
 70
    11
 71
     3
 72
    14
 73
    10
 74
     0
 42
0.0000000001
 43
0.0000000001
 40
0.0
 40
0.0
 40
0.0
 40
0.0
 40
1.0
 40
1.0
 40
1.0
 40
2.0
 40
2.0
 40
2.0
 40
3.0
 40
3.0
 40
3.0
 40
3.0
 10
466.8539821806712
 20
385.6649136127792
 30
0.0
 10
466.8539821806712
 20
385.6649136127792
 30
0.0
 10
461.3495772378879
 20
387.9221416637957
 30
0.0
 10
461.3466489047937
 20
387.9235197028989
 30
0.0
 10
461.3466489047937
 20
387.9235197028989
 30
0.0
 10
444.7051041849597
 20
376.0083045972125
 30
0.0
 10
465.4325348457362
 20
365.6571638736409
 30
0.0
 10
465.4325348457362
 20
365.6571638736409
 30
0.0
 10
455.9857322836295
 20
377.1369186227208
 30
0.0
 10
466.8539821806712
 20
385.6649136127792
 30
0.0
  0
SPLINE
  5
E9
330
1F
100
AcDbEntity
  8
Layer 1
 62
     7
420
 16777215
370
    70
100
AcDbSpline
210
0.0
220
0.0
230
1.0
 70
     8
 71
     3
 72
    47
 73
    43
 74
     0
 42
0.0000000001
 43
0.0000000001
 40
0.0
 40
0.0
 40
0.0
 40
0.0
 40
1.0
 40
1.0
 40
1.0
 40
2.0
 40
2.0
 40
2.0
 40
3.0
 40
3.0
 40
3.0
 40
4.0
 40
4.0
 40
4.0
 40
5.0
 40
5.0
 40
5.0
 40
6.0
 40
6.0
 40
6.0
 40
7.0
 40
7.0
 40
7.0
 40
8.0
 40
8.0
 40
8.0
 40
9.0
 40
9.0
 40
9.0
 40
10.0
 40
10.0
 40
10.0
 40
11.0
 40
11.0
 40
11.0
 40
12.0
 40
12.0
 40
12.0
 40
13.0
 40
13.0
 40
13.0
 40
14.0
 40
14.0
 40
14.0
 40
14.0
 10
508.2852445825822
 20
341.457074672839
 30
0.0
 10
508.2852445825822
 20
341.457074672839
 30
0.0
 10
516.874906822508
 20
341.457074672839
 30
0.0
 10
516.874906822508
 20
341.457074672839
 30
0.0
 10
516.874906822508
 20
341.457074672839
 30
0.0
 10
517.1713574845807
 20
341.457074672839
 30
0.0
 10
517.1713574845807
 20
341.457074672839
 30
0.0
 10
517.1713574845807
 20
341.457074672839
 30
0.0
 10
517.1713574845807
 20
335.1794175382812
 30
0.0
 10
517.1713574845807
 20
335.1794175382812
 30
0.0
 10
517.1713574845807
 20
335.1794175382812
 30
0.0
 10
529.3683815868682
 20
335.1794175382812
 30
0.0
 10
529.3683815868682
 20
335.1794175382812
 30
0.0
 10
529.3683815868682
 20
335.1794175382812
 30
0.0
 10
529.3683815868682
 20
341.457074672839
 30
0.0
 10
529.3683815868682
 20
341.457074672839
 30
0.0
 10
529.3683815868682
 20
341.457074672839
 30
0.0
 10
529.6655212684924
 20
341.457074672839
 30
0.0
 10
529.6655212684924
 20
341.457074672839
 30
0.0
 10
529.6655212684924
 20
341.457074672839
 30
0.0
 10
538.2538054693151
 20
341.457074672839
 30
0.0
 10
538.2538054693151
 20
341.457074672839
 30
0.0
 10
538.2538054693151
 20
341.457074672839
 30
0.0
 10
558.4997837184164
 20
408.198609028055
 30
0.0
 10
558.4997837184164
 20
408.198609028055
 30
0.0
 10
558.4997837184164
 20
408.198609028055
 30
0.0
 10
549.4085152449313
 20
408.198609028055
 30
0.0
 10
549.4085152449313
 20
408.198609028055
 30
0.0
 10
549.4085152449313
 20
408.198609028055
 30
0.0
 10
545.6171851622945
 20
401.5187367302552
 30
0.0
 10
543.3239558397073
 20
400.900341682701
 30
0.0
 10
538.1730179268909
 20
399.5112782666909
 30
0.0
 10
534.3648068652401
 20
408.198609028055
 30
0.0
 10
523.2702140455002
 20
408.198609028055
 30
0.0
 10
512.1757934806483
 20
408.198609028055
 30
0.0
 10
508.3675824189975
 20
399.5112782666909
 30
0.0
 10
503.2162999964052
 20
400.900341682701
 30
0.0
 10
500.9223816542665
 20
401.5187367302552
 30
0.0
 10
497.1310515716296
 20
408.198609028055
 30
0.0
 10
497.1310515716296
 20
408.198609028055
 30
0.0
 10
497.1310515716296
 20
408.198609028055
 30
0.0
 10
488.0396108432566
 20
408.198609028055
 30
0.0
 10
488.0396108432566
 20
408.198609028055
 30
0.0
  0
POLYLINE
  5
EA
330
1F
100
AcDbEntity
  8
Layer 1
 62
     7
420
 16777215
370
    70
100
AcDb2dPolyline
 66
     1
 10
0.0
 20
0.0
 30
0.0
  0
VERTEX
  5
EB
330
EA
100
AcDbEntity
  8
Layer 1
 62
     7
420
 16777215
370
    70
100
AcDbVertex
100
AcDb2dVertex
 10
515.7957299498265
 20
393.6540953134923
 30
0.0
  0
VERTEX
  5
EC
330
EA
100
AcDbEntity
  8
Layer 1
 62
     7
420
 16777215
370
    70
100
AcDbVertex
100
AcDb2dVertex
 10
515.7957299498265
 20
397.6416237134451
 30
0.0
  0
VERTEX
  5
ED
330
EA
100
AcDbEntity
  8
Layer 1
 62
     7
420
 16777215
370
    70
100
AcDbVertex
100
AcDb2dVertex
 10
530.7438368667345
 20
397.6416237134451
 30
0.0
  0
VERTEX
  5
EE
330
EA
100
AcDbEntity
  8
Layer 1
 62
     7
420
 16777215
370
    70
100
AcDbVertex
100
AcDb2dVertex
 10
530.7438368667345
 20
393.6540953134923
 30
0.0
  0
VERTEX
  5
EF
330
EA
100
AcDbEntity
  8
Layer 1
 62
     7
420
 16777215
370
    70
100
AcDbVertex
100
AcDb2dVertex
 10
515.7957299498265
 20
393.6540953134923
 30
0.0
  0
SEQEND
  5
F0
330
EA
100
AcDbEntity
  8
Layer 1
370
    70
  0
POLYLINE
  5
F1
330
1F
100
AcDbEntity
  8
Layer 1
 62
     7
420
 16777215
370
    70
100
AcDb2dPolyline
 66
     1
 10
0.0
 20
0.0
 30
0.0
  0
VERTEX
  5
F2
330
F1
100
AcDbEntity
  8
Layer 1
 62
     7
420
 16777215
370
    70
100
AcDbVertex
100
AcDb2dVertex
 10
518.2041977924175
 20
377.3026278248788
 30
0.0
  0
VERTEX
  5
F3
330
F1
100
AcDbEntity
  8
Layer 1
 62
     7
420
 16777215
370
    70
100
AcDbVertex
100
AcDb2dVertex
 10
518.2083319097271
 20
380.2616222891921
 30
0.0
  0
VERTEX
  5
F4
330
F1
100
AcDbEntity
  8
Layer 1
 62
     7
420
 16777215
370
    70
100
AcDbVertex
100
AcDb2dVertex
 10
521.1733552951168
 20
380.2636893478468
 30
0.0
  0
VERTEX
  5
F5
330
F1
100
AcDbEntity
  8
Layer 1
 62
     7
420
 16777215
370
    70
100
AcDbVertex
100
AcDb2dVertex
 10
523.268836006397
 20
382.3548636869296
 30
0.0
  0
VERTEX
  5
F6
330
F1
100
AcDbEntity
  8
Layer 1
 62
     7
420
 16777215
370
    70
100
AcDbVertex
100
AcDb2dVertex
 10
525.3660392665562
 20
380.2636893478468
 30
0.0
  0
VERTEX
  5
F7
330
F1
100
AcDbEntity
  8
Layer 1
 62
     7
420
 16777215
370
    70
100
AcDbVertex
100
AcDb2dVertex
 10
528.329167848179
 20
380.2616222891921
 30
0.0
  0
VERTEX
  5
F8
330
F1
100
AcDbEntity
  8
Layer 1
 62
     7
420
 16777215
370
    70
100
AcDbVertex
100
AcDb2dVertex
 10
528.3351967692555
 20
377.3026278248788
 30
0.0
  0
VERTEX
  5
F9
330
F1
100
AcDbEntity
  8
Layer 1
 62
     7
420
 16777215
370
    70
100
AcDbVertex
100
AcDb2dVertex
 10
530.4248208143472
 20
375.2073193684865
 30
0.0
  0
VERTEX
  5
FA
330
F1
100
AcDbEntity
  8
Layer 1
 62
     7
420
 16777215
370
    70
100
AcDbVertex
100
AcDb2dVertex
 10
528.3351967692555
 20
373.1137334609732
 30
0.0
  0
VERTEX
  5
FB
330
F1
100
AcDbEntity
  8
Layer 1
 62
     7
420
 16777215
370
    70
100
AcDbVertex
100
AcDb2dVertex
 10
528.329167848179
 20
370.1530164477809
 30
0.0
  0
VERTEX
  5
FC
330
F1
100
AcDbEntity
  8
Layer 1
 62
     7
420
 16777215
370
    70
100
AcDbVertex
100
AcDb2dVertex
 10
525.3660392665562
 20
370.1488823304713
 30
0.0
  0
VERTEX
  5
FD
330
F1
100
AcDbEntity
  8
Layer 1
 62
     7
420
 16777215
370
    70
100
AcDbVertex
100
AcDb2dVertex
 10
523.268836006397
 20
368.0597750500434
 30
0.0
  0
VERTEX
  5
FE
330
F1
100
AcDbEntity
  8
Layer 1
 62
     7
420
 16777215
370
    70
100
AcDbVertex
100
AcDb2dVertex
 10
521.1733552951168
 20
370.1488823304713
 30
0.0
  0
VERTEX
  5
FF
330
F1
100
AcDbEntity
  8
Layer 1
 62
     7
420
 16777215
370
    70
100
AcDbVertex
100
AcDb2dVertex
 10
518.2083319097271
 20
370.1530164477809
 30
0.0
  0
VERTEX
  5
100
330
F1
100
AcDbEntity
  8
Layer 1
 62
     7
420
 16777215
370
    70
100
AcDbVertex
100
AcDb2dVertex
 10
518.2041977924175
 20
373.1137334609732
 30
0.0
  0
VERTEX
  5
101
330
F1
100
AcDbEntity
  8
Layer 1
 62
     7
420
 16777215
370
    70
100
AcDbVertex
100
AcDb2dVertex
 10
516.1147460022138
 20
375.2073193684865
 30
0.0
  0
VERTEX
  5
102
330
F1
100
AcDbEntity
  8
Layer 1
 62
     7
420
 16777215
370
    70
100
AcDbVertex
100
AcDb2dVertex
 10
518.2041977924175
 20
377.3026278248788
 30
0.0
  0
SEQEND
  5
103
330
F1
100
AcDbEntity
  8
Layer 1
370
    70
  0
SPLINE
  5
104
330
1F
100
AcDbEntity
  8
Layer 1
 62
     7
420
 16777215
370
    70
100
AcDbSpline
210
0.0
220
0.0
230
1.0
 70
    11
 71
     3
 72
    14
 73
    10
 74
     0
 42
0.0000000001
 43
0.0000000001
 40
0.0
 40
0.0
 40
0.0
 40
0.0
 40
1.0
 40
1.0
 40
1.0
 40
2.0
 40
2.0
 40
2.0
 40
3.0
 40
3.0
 40
3.0
 40
3.0
 10
517.0898809226048
 20
363.997315773855
 30
0.0
 10
517.0898809226048
 20
363.997315773855
 30
0.0
 10
511.5856482347095
 20
361.7400877228384
 30
0.0
 10
511.5825476467273
 20
361.7387096837352
 30
0.0
 10
511.5825476467273
 20
361.7387096837352
 30
0.0
 10
494.9413474366692
 20
373.6539247894215
 30
0.0
 10
515.6684335876698
 20
384.0050655129932
 30
0.0
 10
515.6684335876698
 20
384.0050655129932
 30
0.0
 10
506.2216310255631
 20
372.5249662541375
 30
0.0
 10
517.0898809226048
 20
363.997315773855
 30
0.0
  0
SPLINE
  5
105
330
1F
100
AcDbEntity
  8
Layer 1
 62
     7
420
 16777215
370
    70
100
AcDbSpline
210
0.0
220
0.0
230
1.0
 70
    11
 71
     3
 72
    14
 73
    10
 74
     0
 42
0.0000000001
 43
0.0000000001
 40
0.0
 40
0.0
 40
0.0
 40
0.0
 40
1.0
 40
1.0
 40
1.0
 40
2.0
 40
2.0
 40
2.0
 40
3.0
 40
3.0
 40
3.0
 40
3.0
 10
529.4493413841803
 20
363.997315773855
 30
0.0
 10
529.4493413841803
 20
363.997315773855
 30
0.0
 10
534.9537463269636
 20
361.7400877228384
 30
0.0
 10
534.9568469149458
 20
361.7387096837352
 30
0.0
 10
534.9568469149458
 20
361.7387096837352
 30
0.0
 10
551.5980471250039
 20
373.6539247894215
 30
0.0
 10
530.8709609740032
 20
384.0050655129932
 30
0.0
 10
530.8709609740032
 20
384.0050655129932
 30
0.0
 10
540.317591281222
 20
372.5249662541375
 30
0.0
 10
529.4493413841803
 20
363.997315773855
 30
0.0
  0
SPLINE
  5
106
330
1F
100
AcDbEntity
  8
Layer 1
 62
     7
420
 16777215
370
    70
100
AcDbSpline
210
0.0
220
0.0
230
1.0
 70
     8
 71
     3
 72
    47
 73
    43
 74
     0
 42
0.0000000001
 43
0.0000000001
 40
0.0
 40
0.0
 40
0.0
 40
0.0
 40
1.0
 40
1.0
 40
1.0
 40
2.0
 40
2.0
 40
2.0
 40
3.0
 40
3.0
 40
3.0
 40
4.0
 40
4.0
 40
4.0
 40
5.0
 40
5.0
 40
5.0
 40
6.0
 40
6.0
 40
6.0
 40
7.0
 40
7.0
 40
7.0
 40
8.0
 40
8.0
 40
8.0
 40
9.0
 40
9.0
 40
9.0
 40
10.0
 40
10.0
 40
10.0
 40
11.0
 40
11.0
 40
11.0
 40
12.0
 40
12.0
 40
12.0
 40
13.0
 40
13.0
 40
13.0
 40
14.0
 40
14.0
 40
14.0
 40
14.0
 10
538.2527719399877
 20
341.4515625164262
 30
0.0
 10
538.2527719399877
 20
341.4515625164262
 30
0.0
 10
547.3440404134728
 20
341.4515625164262
 30
0.0
 10
547.3440404134728
 20
341.4515625164262
 30
0.0
 10
547.3440404134728
 20
341.4515625164262
 30
0.0
 10
551.1353704961097
 20
348.131607069114
 30
0.0
 10
553.4285998186969
 20
348.7500021166681
 30
0.0
 10
558.5797099864012
 20
350.1390655326783
 30
0.0
 10
562.3877487931641
 20
341.4515625164262
 30
0.0
 10
573.482341612904
 20
341.4515625164262
 30
0.0
 10
584.5767621777559
 20
341.4515625164262
 30
0.0
 10
588.3848009845188
 20
350.1390655326783
 30
0.0
 10
593.5364279168869
 20
348.7500021166681
 30
0.0
 10
595.8301740041377
 20
348.131607069114
 30
0.0
 10
599.6211595769987
 20
341.4515625164262
 30
0.0
 10
599.6211595769987
 20
341.4515625164262
 30
0.0
 10
599.6211595769987
 20
341.4515625164262
 30
0.0
 10
608.7129448151476
 20
341.4515625164262
 30
0.0
 10
608.7129448151476
 20
341.4515625164262
 30
0.0
 10
608.7129448151476
 20
341.4515625164262
 30
0.0
 10
588.4674833307099
 20
408.1932691265301
 30
0.0
 10
588.4674833307099
 20
408.1932691265301
 30
0.0
 10
588.4674833307099
 20
408.1932691265301
 30
0.0
 10
579.8776488358961
 20
408.1932691265301
 30
0.0
 10
579.8776488358961
 20
408.1932691265301
 30
0.0
 10
579.8776488358961
 20
408.1932691265301
 30
0.0
 10
579.5811981738235
 20
408.1932691265301
 30
0.0
 10
579.5811981738235
 20
408.1932691265301
 30
0.0
 10
579.5811981738235
 20
408.1932691265301
 30
0.0
 10
579.5811981738235
 20
414.4710985159758
 30
0.0
 10
579.5811981738235
 20
414.4710985159758
 30
0.0
 10
579.5811981738235
 20
414.4710985159758
 30
0.0
 10
567.3843463264238
 20
414.4710985159758
 30
0.0
 10
567.3843463264238
 20
414.4710985159758
 30
0.0
 10
567.3843463264238
 20
414.4710985159758
 30
0.0
 10
567.3843463264238
 20
408.1932691265301
 30
0.0
 10
567.3843463264238
 20
408.1932691265301
 30
0.0
 10
567.3843463264238
 20
408.1932691265301
 30
0.0
 10
567.0870343899118
 20
408.1932691265301
 30
0.0
 10
567.0870343899118
 20
408.1932691265301
 30
0.0
 10
567.0870343899118
 20
408.1932691265301
 30
0.0
 10
558.498750189089
 20
408.1932691265301
 30
0.0
 10
558.498750189089
 20
408.1932691265301
 30
0.0
  0
POLYLINE
  5
107
330
1F
100
AcDbEntity
  8
Layer 1
 62
     7
420
 16777215
370
    70
100
AcDb2dPolyline
 66
     1
 10
0.0
 20
0.0
 30
0.0
  0
VERTEX
  5
108
330
107
100
AcDbEntity
  8
Layer 1
 62
     7
420
 16777215
370
    70
100
AcDbVertex
100
AcDb2dVertex
 10
580.9566534536897
 20
355.9964207407647
 30
0.0
  0
VERTEX
  5
109
330
107
100
AcDbEntity
  8
Layer 1
 62
     7
420
 16777215
370
    70
100
AcDbVertex
100
AcDb2dVertex
 10
580.9566534536897
 20
352.0090645956998
 30
0.0
  0
VERTEX
  5
10A
330
107
100
AcDbEntity
  8
Layer 1
 62
     7
420
 16777215
370
    70
100
AcDbVertex
100
AcDb2dVertex
 10
566.0087187916697
 20
352.0090645956998
 30
0.0
  0
VERTEX
  5
10B
330
107
100
AcDbEntity
  8
Layer 1
 62
     7
420
 16777215
370
    70
100
AcDbVertex
100
AcDb2dVertex
 10
566.0087187916697
 20
355.9964207407647
 30
0.0
  0
VERTEX
  5
10C
330
107
100
AcDbEntity
  8
Layer 1
 62
     7
420
 16777215
370
    70
100
AcDbVertex
100
AcDb2dVertex
 10
580.9566534536897
 20
355.9964207407647
 30
0.0
  0
SEQEND
  5
10D
330
107
100
AcDbEntity
  8
Layer 1
370
    70
  0
POLYLINE
  5
10E
330
1F
100
AcDbEntity
  8
Layer 1
 62
     7
420
 16777215
370
    70
100
AcDb2dPolyline
 66
     1
 10
0.0
 20
0.0
 30
0.0
  0
VERTEX
  5
10F
330
10E
100
AcDbEntity
  8
Layer 1
 62
     7
420
 16777215
370
    70
100
AcDbVertex
100
AcDb2dVertex
 10
578.4327748362069
 20
372.3596015617553
 30
0.0
  0
VERTEX
  5
110
330
10E
100
AcDbEntity
  8
Layer 1
 62
     7
420
 16777215
370
    70
100
AcDbVertex
100
AcDb2dVertex
 10
578.4286407188974
 20
369.400607097442
 30
0.0
  0
VERTEX
  5
111
330
10E
100
AcDbEntity
  8
Layer 1
 62
     7
420
 16777215
370
    70
100
AcDbVertex
100
AcDb2dVertex
 10
575.4637895883956
 20
369.3985400387872
 30
0.0
  0
VERTEX
  5
112
330
10E
100
AcDbEntity
  8
Layer 1
 62
     7
420
 16777215
370
    70
100
AcDbVertex
100
AcDb2dVertex
 10
573.3683088771154
 20
367.3073656997045
 30
0.0
  0
VERTEX
  5
113
330
10E
100
AcDbEntity
  8
Layer 1
 62
     7
420
 16777215
370
    70
100
AcDbVertex
100
AcDb2dVertex
 10
571.2709333620684
 20
369.3985400387872
 30
0.0
  0
VERTEX
  5
114
330
10E
100
AcDbEntity
  8
Layer 1
 62
     7
420
 16777215
370
    70
100
AcDbVertex
100
AcDb2dVertex
 10
568.3078047804455
 20
369.400607097442
 30
0.0
  0
VERTEX
  5
115
330
10E
100
AcDbEntity
  8
Layer 1
 62
     7
420
 16777215
370
    70
100
AcDbVertex
100
AcDb2dVertex
 10
568.3017758593691
 20
372.3596015617553
 30
0.0
  0
VERTEX
  5
116
330
10E
100
AcDbEntity
  8
Layer 1
 62
     7
420
 16777215
370
    70
100
AcDbVertex
100
AcDb2dVertex
 10
566.2121518142774
 20
374.4549100181476
 30
0.0
  0
VERTEX
  5
117
330
10E
100
AcDbEntity
  8
Layer 1
 62
     7
420
 16777215
370
    70
100
AcDbVertex
100
AcDb2dVertex
 10
568.3017758593691
 20
376.548495925661
 30
0.0
  0
VERTEX
  5
118
330
10E
100
AcDbEntity
  8
Layer 1
 62
     7
420
 16777215
370
    70
100
AcDbVertex
100
AcDb2dVertex
 10
568.3078047804455
 20
379.509557448629
 30
0.0
  0
VERTEX
  5
119
330
10E
100
AcDbEntity
  8
Layer 1
 62
     7
420
 16777215
370
    70
100
AcDbVertex
100
AcDb2dVertex
 10
571.2709333620684
 20
379.5136915659386
 30
0.0
  0
VERTEX
  5
11A
330
10E
100
AcDbEntity
  8
Layer 1
 62
     7
420
 16777215
370
    70
100
AcDbVertex
100
AcDb2dVertex
 10
573.3683088771154
 20
381.6024543365908
 30
0.0
  0
VERTEX
  5
11B
330
10E
100
AcDbEntity
  8
Layer 1
 62
     7
420
 16777215
370
    70
100
AcDbVertex
100
AcDb2dVertex
 10
575.4637895883956
 20
379.5136915659386
 30
0.0
  0
VERTEX
  5
11C
330
10E
100
AcDbEntity
  8
Layer 1
 62
     7
420
 16777215
370
    70
100
AcDbVertex
100
AcDb2dVertex
 10
578.4286407188974
 20
379.509557448629
 30
0.0
  0
VERTEX
  5
11D
330
10E
100
AcDbEntity
  8
Layer 1
 62
     7
420
 16777215
370
    70
100
AcDbVertex
100
AcDb2dVertex
 10
578.4327748362069
 20
376.548495925661
 30
0.0
  0
VERTEX
  5
11E
330
10E
100
AcDbEntity
  8
Layer 1
 62
     7
420
 16777215
370
    70
100
AcDbVertex
100
AcDb2dVertex
 10
580.5222266264108
 20
374.4549100181476
 30
0.0
  0
VERTEX
  5
11F
330
10E
100
AcDbEntity
  8
Layer 1
 62
     7
420
 16777215
370
    70
100
AcDbVertex
100
AcDb2dVertex
 10
578.4327748362069
 20
372.3596015617553
 30
0.0
  0
SEQEND
  5
120
330
10E
100
AcDbEntity
  8
Layer 1
370
    70
  0
SPLINE
  5
121
330
1F
100
AcDbEntity
  8
Layer 1
 62
     7
420
 16777215
370
    70
100
AcDbSpline
210
0.0
220
0.0
230
1.0
 70
    11
 71
     3
 72
    14
 73
    10
 74
     0
 42
0.0000000001
 43
0.0000000001
 40
0.0
 40
0.0
 40
0.0
 40
0.0
 40
1.0
 40
1.0
 40
1.0
 40
2.0
 40
2.0
 40
2.0
 40
3.0
 40
3.0
 40
3.0
 40
3.0
 10
579.5472639609076
 20
385.6649136127792
 30
0.0
 10
579.5472639609076
 20
385.6649136127792
 30
0.0
 10
585.051496648803
 20
387.9221416637957
 30
0.0
 10
585.0545972367852
 20
387.9235197028989
 30
0.0
 10
585.0545972367852
 20
387.9235197028989
 30
0.0
 10
601.6959697017312
 20
376.0083045972125
 30
0.0
 10
580.9687112958426
 20
365.6571638736409
 30
0.0
 10
580.9687112958426
 20
365.6571638736409
 30
0.0
 10
590.4153416030614
 20
377.1369186227208
 30
0.0
 10
579.5472639609076
 20
385.6649136127792
 30
0.0
  0
SPLINE
  5
122
330
1F
100
AcDbEntity
  8
Layer 1
 62
     7
420
 16777215
370
    70
100
AcDbSpline
210
0.0
220
0.0
230
1.0
 70
    11
 71
     3
 72
    14
 73
    10
 74
     0
 42
0.0000000001
 43
0.0000000001
 40
0.0
 40
0.0
 40
0.0
 40
0.0
 40
1.0
 40
1.0
 40
1.0
 40
2.0
 40
2.0
 40
2.0
 40
3.0
 40
3.0
 40
3.0
 40
3.0
 10
567.1876312444442
 20
385.6649136127792
 30
0.0
 10
567.1876312444442
 20
385.6649136127792
 30
0.0
 10
561.683226301661
 20
387.9221416637957
 30
0.0
 10
561.6801257136788
 20
387.9235197028989
 30
0.0
 10
561.6801257136788
 20
387.9235197028989
 30
0.0
 10
545.0389255036206
 20
376.0083045972125
 30
0.0
 10
565.7660116546214
 20
365.6571638736409
 30
0.0
 10
565.7660116546214
 20
365.6571638736409
 30
0.0
 10
556.3193813474026
 20
377.1369186227208
 30
0.0
 10
567.1876312444442
 20
385.6649136127792
 30
0.0
  0
SPLINE
  5
123
330
1F
100
AcDbEntity
  8
Layer 1
 62
     7
420
 16777215
370
    70
100
AcDbSpline
210
0.0
220
0.0
230
1.0
 70
     8
 71
     3
 72
    47
 73
    43
 74
     0
 42
0.0000000001
 43
0.0000000001
 40
0.0
 40
0.0
 40
0.0
 40
0.0
 40
1.0
 40
1.0
 40
1.0
 40
2.0
 40
2.0
 40
2.0
 40
3.0
 40
3.0
 40
3.0
 40
4.0
 40
4.0
 40
4.0
 40
5.0
 40
5.0
 40
5.0
 40
6.0
 40
6.0
 40
6.0
 40
7.0
 40
7.0
 40
7.0
 40
8.0
 40
8.0
 40
8.0
 40
9.0
 40
9.0
 40
9.0
 40
10.0
 40
10.0
 40
10.0
 40
11.0
 40
11.0
 40
11.0
 40
12.0
 40
12.0
 40
12.0
 40
13.0
 40
13.0
 40
13.0
 40
14.0
 40
14.0
 40
14.0
 40
14.0
 10
608.7177679520087
 20
341.457074672839
 30
0.0
 10
608.7177679520087
 20
341.457074672839
 30
0.0
 10
617.3070856821588
 20
341.457074672839
 30
0.0
 10
617.3070856821588
 20
341.457074672839
 30
0.0
 10
617.3070856821588
 20
341.457074672839
 30
0.0
 10
617.6040531088951
 20
341.457074672839
 30
0.0
 10
617.6040531088951
 20
341.457074672839
 30
0.0
 10
617.6040531088951
 20
341.457074672839
 30
0.0
 10
617.6040531088951
 20
335.1794175382812
 30
0.0
 10
617.6040531088951
 20
335.1794175382812
 30
0.0
 10
617.6040531088951
 20
335.1794175382812
 30
0.0
 10
629.8010772111826
 20
335.1794175382812
 30
0.0
 10
629.8010772111826
 20
335.1794175382812
 30
0.0
 10
629.8010772111826
 20
335.1794175382812
 30
0.0
 10
629.8010772111826
 20
341.457074672839
 30
0.0
 10
629.8010772111826
 20
341.457074672839
 30
0.0
 10
629.8010772111826
 20
341.457074672839
 30
0.0
 10
630.0987336574706
 20
341.457074672839
 30
0.0
 10
630.0987336574706
 20
341.457074672839
 30
0.0
 10
630.0987336574706
 20
341.457074672839
 30
0.0
 10
638.6866733485174
 20
341.457074672839
 30
0.0
 10
638.6866733485174
 20
341.457074672839
 30
0.0
 10
638.6866733485174
 20
341.457074672839
 30
0.0
 10
658.9321348329551
 20
408.198609028055
 30
0.0
 10
658.9321348329551
 20
408.198609028055
 30
0.0
 10
658.9321348329551
 20
408.198609028055
 30
0.0
 10
649.8412108692457
 20
408.198609028055
 30
0.0
 10
649.8412108692457
 20
408.198609028055
 30
0.0
 10
649.8412108692457
 20
408.198609028055
 30
0.0
 10
646.0502252963847
 20
401.5187367302552
 30
0.0
 10
643.7571682286855
 20
400.900341682701
 30
0.0
 10
638.6053690414295
 20
399.5112782666909
 30
0.0
 10
634.7978469993303
 20
408.198609028055
 30
0.0
 10
623.7032541795904
 20
408.198609028055
 30
0.0
 10
612.6086613598507
 20
408.198609028055
 30
0.0
 10
608.8004502981997
 20
399.5112782666909
 30
0.0
 10
603.6493401304955
 20
400.900341682701
 30
0.0
 10
601.3549050236929
 20
401.5187367302552
 30
0.0
 10
597.5637471959441
 20
408.198609028055
 30
0.0
 10
597.5637471959441
 20
408.198609028055
 30
0.0
 10
597.5637471959441
 20
408.198609028055
 30
0.0
 10
588.472306467571
 20
408.198609028055
 30
0.0
 10
588.472306467571
 20
408.198609028055
 30
0.0
  0
POLYLINE
  5
124
330
1F
100
AcDbEntity
  8
Layer 1
 62
     7
420
 16777215
370
    70
100
AcDb2dPolyline
 66
     1
 10
0.0
 20
0.0
 30
0.0
  0
VERTEX
  5
125
330
124
100
AcDbEntity
  8
Layer 1
 62
     7
420
 16777215
370
    70
100
AcDbVertex
100
AcDb2dVertex
 10
616.2287700839167
 20
393.6540953134923
 30
0.0
  0
VERTEX
  5
126
330
124
100
AcDbEntity
  8
Layer 1
 62
     7
420
 16777215
370
    70
100
AcDbVertex
100
AcDb2dVertex
 10
616.2287700839167
 20
397.6416237134451
 30
0.0
  0
VERTEX
  5
127
330
124
100
AcDbEntity
  8
Layer 1
 62
     7
420
 16777215
370
    70
100
AcDbVertex
100
AcDb2dVertex
 10
631.1763602361609
 20
397.6416237134451
 30
0.0
  0
VERTEX
  5
128
330
124
100
AcDbEntity
  8
Layer 1
 62
     7
420
 16777215
370
    70
100
AcDbVertex
100
AcDb2dVertex
 10
631.1763602361609
 20
393.6540953134923
 30
0.0
  0
VERTEX
  5
129
330
124
100
AcDbEntity
  8
Layer 1
 62
     7
420
 16777215
370
    70
100
AcDbVertex
100
AcDb2dVertex
 10
616.2287700839167
 20
393.6540953134923
 30
0.0
  0
SEQEND
  5
12A
330
124
100
AcDbEntity
  8
Layer 1
370
    70
  0
POLYLINE
  5
12B
330
1F
100
AcDbEntity
  8
Layer 1
 62
     7
420
 16777215
370
    70
100
AcDb2dPolyline
 66
     1
 10
0.0
 20
0.0
 30
0.0
  0
VERTEX
  5
12C
330
12B
100
AcDbEntity
  8
Layer 1
 62
     7
420
 16777215
370
    70
100
AcDbVertex
100
AcDb2dVertex
 10
618.6375824362835
 20
377.3026278248788
 30
0.0
  0
VERTEX
  5
12D
330
12B
100
AcDbEntity
  8
Layer 1
 62
     7
420
 16777215
370
    70
100
AcDbVertex
100
AcDb2dVertex
 10
618.6417165535931
 20
380.2616222891921
 30
0.0
  0
VERTEX
  5
12E
330
12B
100
AcDbEntity
  8
Layer 1
 62
     7
420
 16777215
370
    70
100
AcDbVertex
100
AcDb2dVertex
 10
621.606567684095
 20
380.2636893478468
 30
0.0
  0
VERTEX
  5
12F
330
12B
100
AcDbEntity
  8
Layer 1
 62
     7
420
 16777215
370
    70
100
AcDbVertex
100
AcDb2dVertex
 10
623.7018761404872
 20
382.3548636869296
 30
0.0
  0
VERTEX
  5
130
330
12B
100
AcDbEntity
  8
Layer 1
 62
     7
420
 16777215
370
    70
100
AcDbVertex
100
AcDb2dVertex
 10
625.7985626359828
 20
380.2636893478468
 30
0.0
  0
VERTEX
  5
131
330
12B
100
AcDbEntity
  8
Layer 1
 62
     7
420
 16777215
370
    70
100
AcDbVertex
100
AcDb2dVertex
 10
628.7620357273814
 20
380.2616222891921
 30
0.0
  0
VERTEX
  5
132
330
12B
100
AcDbEntity
  8
Layer 1
 62
     7
420
 16777215
370
    70
100
AcDbVertex
100
AcDb2dVertex
 10
628.7682369033457
 20
377.3026278248788
 30
0.0
  0
VERTEX
  5
133
330
12B
100
AcDbEntity
  8
Layer 1
 62
     7
420
 16777215
370
    70
100
AcDbVertex
100
AcDb2dVertex
 10
630.8580332033252
 20
375.2073193684865
 30
0.0
  0
VERTEX
  5
134
330
12B
100
AcDbEntity
  8
Layer 1
 62
     7
420
 16777215
370
    70
100
AcDbVertex
100
AcDb2dVertex
 10
628.7682369033457
 20
373.1137334609732
 30
0.0
  0
VERTEX
  5
135
330
12B
100
AcDbEntity
  8
Layer 1
 62
     7
420
 16777215
370
    70
100
AcDbVertex
100
AcDb2dVertex
 10
628.7620357273814
 20
370.1530164477809
 30
0.0
  0
VERTEX
  5
136
330
12B
100
AcDbEntity
  8
Layer 1
 62
     7
420
 16777215
370
    70
100
AcDbVertex
100
AcDb2dVertex
 10
625.7985626359828
 20
370.1488823304713
 30
0.0
  0
VERTEX
  5
137
330
12B
100
AcDbEntity
  8
Layer 1
 62
     7
420
 16777215
370
    70
100
AcDbVertex
100
AcDb2dVertex
 10
623.7018761404872
 20
368.0597750500434
 30
0.0
  0
VERTEX
  5
138
330
12B
100
AcDbEntity
  8
Layer 1
 62
     7
420
 16777215
370
    70
100
AcDbVertex
100
AcDb2dVertex
 10
621.606567684095
 20
370.1488823304713
 30
0.0
  0
VERTEX
  5
139
330
12B
100
AcDbEntity
  8
Layer 1
 62
     7
420
 16777215
370
    70
100
AcDbVertex
100
AcDb2dVertex
 10
618.6417165535931
 20
370.1530164477809
 30
0.0
  0
VERTEX
  5
13A
330
12B
100
AcDbEntity
  8
Layer 1
 62
     7
420
 16777215
370
    70
100
AcDbVertex
100
AcDb2dVertex
 10
618.6375824362835
 20
373.1137334609732
 30
0.0
  0
VERTEX
  5
13B
330
12B
100
AcDbEntity
  8
Layer 1
 62
     7
420
 16777215
370
    70
100
AcDbVertex
100
AcDb2dVertex
 10
616.5470971167524
 20
375.2073193684865
 30
0.0
  0
VERTEX
  5
13C
330
12B
100
AcDbEntity
  8
Layer 1
 62
     7
420
 16777215
370
    70
100
AcDbVertex
100
AcDb2dVertex
 10
618.6375824362835
 20
377.3026278248788
 30
0.0
  0
SEQEND
  5
13D
330
12B
100
AcDbEntity
  8
Layer 1
370
    70
  0
SPLINE
  5
13E
330
1F
100
AcDbEntity
  8
Layer 1
 62
     7
420
 16777215
370
    70
100
AcDbSpline
210
0.0
220
0.0
230
1.0
 70
    11
 71
     3
 72
    14
 73
    10
 74
     0
 42
0.0000000001
 43
0.0000000001
 40
0.0
 40
0.0
 40
0.0
 40
0.0
 40
1.0
 40
1.0
 40
1.0
 40
2.0
 40
2.0
 40
2.0
 40
3.0
 40
3.0
 40
3.0
 40
3.0
 10
617.5227488018072
 20
363.997315773855
 30
0.0
 10
617.5227488018072
 20
363.997315773855
 30
0.0
 10
612.018171604136
 20
361.7400877228384
 30
0.0
 10
612.014726506378
 20
361.7387096837352
 30
0.0
 10
612.014726506378
 20
361.7387096837352
 30
0.0
 10
595.3740430609836
 20
373.6539247894215
 30
0.0
 10
616.1013014668722
 20
384.0050655129932
 30
0.0
 10
616.1013014668722
 20
384.0050655129932
 30
0.0
 10
606.6541543949896
 20
372.5249662541375
 30
0.0
 10
617.5227488018072
 20
363.997315773855
 30
0.0
  0
SPLINE
  5
13F
330
1F
100
AcDbEntity
  8
Layer 1
 62
     7
420
 16777215
370
    70
100
AcDbSpline
210
0.0
220
0.0
230
1.0
 70
    11
 71
     3
 72
    14
 73
    10
 74
     0
 42
0.0000000001
 43
0.0000000001
 40
0.0
 40
0.0
 40
0.0
 40
0.0
 40
1.0
 40
1.0
 40
1.0
 40
2.0
 40
2.0
 40
2.0
 40
3.0
 40
3.0
 40
3.0
 40
3.0
 10
629.8823815182706
 20
363.997315773855
 30
0.0
 10
629.8823815182706
 20
363.997315773855
 30
0.0
 10
635.3869587159418
 20
361.7400877228384
 30
0.0
 10
635.3897147941481
 20
361.7387096837352
 30
0.0
 10
635.3897147941481
 20
361.7387096837352
 30
0.0
 10
652.0309150042062
 20
373.6539247894215
 30
0.0
 10
631.3038288532056
 20
384.0050655129932
 30
0.0
 10
631.3038288532056
 20
384.0050655129932
 30
0.0
 10
640.750975925088
 20
372.5249662541375
 30
0.0
 10
629.8823815182706
 20
363.997315773855
 30
0.0
  0
POLYLINE
  5
140
330
1F
100
AcDbEntity
  8
Layer 1
 62
     7
420
 16777215
370
    70
100
AcDb2dPolyline
 66
     1
 10
0.0
 20
0.0
 30
0.0
  0
VERTEX
  5
141
330
140
100
AcDbEntity
  8
Layer 1
 62
     7
420
 16777215
370
    70
100
AcDbVertex
100
AcDb2dVertex
 10
661.4670377632633
 20
439.1240458170618
 30
0.0
  0
VERTEX
  5
142
330
140
100
AcDbEntity
  8
Layer 1
 62
     7
420
 16777215
370
    70
100
AcDbVertex
100
AcDb2dVertex
 10
663.6905038562518
 20
440.2934842510019
 30
0.0
  0
VERTEX
  5
143
330
140
100
AcDbEntity
  8
Layer 1
 62
     7
420
 16777215
370
    70
100
AcDbVertex
100
AcDb2dVertex
 10
663.2653787929193
 20
437.817147982579
 30
0.0
  0
VERTEX
  5
144
330
140
100
AcDbEntity
  8
Layer 1
 62
     7
420
 16777215
370
    70
100
AcDbVertex
100
AcDb2dVertex
 10
665.0650978616785
 20
436.0647990079918
 30
0.0
  0
VERTEX
  5
145
330
140
100
AcDbEntity
  8
Layer 1
 62
     7
420
 16777215
370
    70
100
AcDbVertex
100
AcDb2dVertex
 10
662.5791153195333
 20
435.7028914885179
 30
0.0
  0
VERTEX
  5
146
330
140
100
AcDbEntity
  8
Layer 1
 62
     7
420
 16777215
370
    70
100
AcDbVertex
100
AcDb2dVertex
 10
661.4670377632633
 20
433.449797554811
 30
0.0
  0
VERTEX
  5
147
330
140
100
AcDbEntity
  8
Layer 1
 62
     7
420
 16777215
370
    70
100
AcDbVertex
100
AcDb2dVertex
 10
660.3556492265449
 20
435.7028914885179
 30
0.0
  0
VERTEX
  5
148
330
140
100
AcDbEntity
  8
Layer 1
 62
     7
420
 16777215
370
    70
100
AcDbVertex
100
AcDb2dVertex
 10
657.8696666843997
 20
436.0647990079918
 30
0.0
  0
VERTEX
  5
149
330
140
100
AcDbEntity
  8
Layer 1
 62
     7
420
 16777215
370
    70
100
AcDbVertex
100
AcDb2dVertex
 10
659.6680077140556
 20
437.8173202374669
 30
0.0
  0
VERTEX
  5
14A
330
140
100
AcDbEntity
  8
Layer 1
 62
     7
420
 16777215
370
    70
100
AcDbVertex
100
AcDb2dVertex
 10
659.2435716702748
 20
440.2934842510019
 30
0.0
  0
VERTEX
  5
14B
330
140
100
AcDbEntity
  8
Layer 1
 62
     7
420
 16777215
370
    70
100
AcDbVertex
100
AcDb2dVertex
 10
661.4670377632633
 20
439.1240458170618
 30
0.0
  0
SEQEND
  5
14C
330
140
100
AcDbEntity
  8
Layer 1
370
    70
  0
POLYLINE
  5
14D
330
1F
100
AcDbEntity
  8
Layer 1
 62
     7
420
 16777215
370
    70
100
AcDb2dPolyline
 66
     1
 10
0.0
 20
0.0
 30
0.0
  0
VERTEX
  5
14E
330
14D
100
AcDbEntity
  8
Layer 1
 62
     7
420
 16777215
370
    70
100
AcDbVertex
100
AcDb2dVertex
 10
691.0797200515988
 20
298.9600712795026
 30
0.0
  0
VERTEX
  5
14F
330
14D
100
AcDbEntity
  8
Layer 1
 62
     7
420
 16777215
370
    70
100
AcDbVertex
100
AcDb2dVertex
 10
693.3024971250356
 20
300.1300264781064
 30
0.0
  0
VERTEX
  5
150
330
14D
100
AcDbEntity
  8
Layer 1
 62
     7
420
 16777215
370
    70
100
AcDbVertex
100
AcDb2dVertex
 10
692.8780610812548
 20
297.6533456999077
 30
0.0
  0
VERTEX
  5
151
330
14D
100
AcDbEntity
  8
Layer 1
 62
     7
420
 16777215
370
    70
100
AcDbVertex
100
AcDb2dVertex
 10
694.6770911304624
 20
295.9011689802084
 30
0.0
  0
VERTEX
  5
152
330
14D
100
AcDbEntity
  8
Layer 1
 62
     7
420
 16777215
370
    70
100
AcDbVertex
100
AcDb2dVertex
 10
692.1911085883172
 20
295.5390892058466
 30
0.0
  0
VERTEX
  5
153
330
14D
100
AcDbEntity
  8
Layer 1
 62
     7
420
 16777215
370
    70
100
AcDbVertex
100
AcDb2dVertex
 10
691.0797200515988
 20
293.2859952721397
 30
0.0
  0
VERTEX
  5
154
330
14D
100
AcDbEntity
  8
Layer 1
 62
     7
420
 16777215
370
    70
100
AcDbVertex
100
AcDb2dVertex
 10
689.9676424953287
 20
295.5390892058466
 30
0.0
  0
VERTEX
  5
155
330
14D
100
AcDbEntity
  8
Layer 1
 62
     7
420
 16777215
370
    70
100
AcDbVertex
100
AcDb2dVertex
 10
687.4816599531836
 20
295.9011689802084
 30
0.0
  0
VERTEX
  5
156
330
14D
100
AcDbEntity
  8
Layer 1
 62
     7
420
 16777215
370
    70
100
AcDbVertex
100
AcDb2dVertex
 10
689.2800009828396
 20
297.6536902096835
 30
0.0
  0
VERTEX
  5
157
330
14D
100
AcDbEntity
  8
Layer 1
 62
     7
420
 16777215
370
    70
100
AcDbVertex
100
AcDb2dVertex
 10
688.8555649390587
 20
300.1300264781064
 30
0.0
  0
VERTEX
  5
158
330
14D
100
AcDbEntity
  8
Layer 1
 62
     7
420
 16777215
370
    70
100
AcDbVertex
100
AcDb2dVertex
 10
691.0797200515988
 20
298.9600712795026
 30
0.0
  0
SEQEND
  5
159
330
14D
100
AcDbEntity
  8
Layer 1
370
    70
  0
POLYLINE
  5
15A
330
1F
100
AcDbEntity
  8
Layer 1
 62
     7
420
 16777215
370
    70
100
AcDb2dPolyline
 66
     1
 10
0.0
 20
0.0
 30
0.0
  0
VERTEX
  5
15B
330
15A
100
AcDbEntity
  8
Layer 1
 62
     7
420
 16777215
370
    70
100
AcDbVertex
100
AcDb2dVertex
 10
635.190588143738
 20
445.1202384647941
 30
0.0
  0
VERTEX
  5
15C
330
15A
100
AcDbEntity
  8
Layer 1
 62
     7
420
 16777215
370
    70
100
AcDbVertex
100
AcDb2dVertex
 10
637.4133652171748
 20
446.2895046438463
 30
0.0
  0
VERTEX
  5
15D
330
15A
100
AcDbEntity
  8
Layer 1
 62
     7
420
 16777215
370
    70
100
AcDbVertex
100
AcDb2dVertex
 10
636.9889291733939
 20
443.8129961205356
 30
0.0
  0
VERTEX
  5
15E
330
15A
100
AcDbEntity
  8
Layer 1
 62
     7
420
 16777215
370
    70
100
AcDbVertex
100
AcDb2dVertex
 10
638.7879592226014
 20
442.0608194008362
 30
0.0
  0
VERTEX
  5
15F
330
15A
100
AcDbEntity
  8
Layer 1
 62
     7
420
 16777215
370
    70
100
AcDbVertex
100
AcDb2dVertex
 10
636.3019766804564
 20
441.6990841362502
 30
0.0
  0
VERTEX
  5
160
330
15A
100
AcDbEntity
  8
Layer 1
 62
     7
420
 16777215
370
    70
100
AcDbVertex
100
AcDb2dVertex
 10
635.190588143738
 20
439.4459902025433
 30
0.0
  0
VERTEX
  5
161
330
15A
100
AcDbEntity
  8
Layer 1
 62
     7
420
 16777215
370
    70
100
AcDbVertex
100
AcDb2dVertex
 10
634.0785105874679
 20
441.6990841362502
 30
0.0
  0
VERTEX
  5
162
330
15A
100
AcDbEntity
  8
Layer 1
 62
     7
420
 16777215
370
    70
100
AcDbVertex
100
AcDb2dVertex
 10
631.5925280453228
 20
442.0608194008362
 30
0.0
  0
VERTEX
  5
163
330
15A
100
AcDbEntity
  8
Layer 1
 62
     7
420
 16777215
370
    70
100
AcDbVertex
100
AcDb2dVertex
 10
633.3915580945303
 20
443.8133406303114
 30
0.0
  0
VERTEX
  5
164
330
15A
100
AcDbEntity
  8
Layer 1
 62
     7
420
 16777215
370
    70
100
AcDbVertex
100
AcDb2dVertex
 10
632.9664330311979
 20
446.2895046438463
 30
0.0
  0
VERTEX
  5
165
330
15A
100
AcDbEntity
  8
Layer 1
 62
     7
420
 16777215
370
    70
100
AcDbVertex
100
AcDb2dVertex
 10
635.190588143738
 20
445.1202384647941
 30
0.0
  0
SEQEND
  5
166
330
15A
100
AcDbEntity
  8
Layer 1
370
    70
  0
POLYLINE
  5
167
330
1F
100
AcDbEntity
  8
Layer 1
 62
     7
420
 16777215
370
    70
100
AcDb2dPolyline
 66
     1
 10
0.0
 20
0.0
 30
0.0
  0
VERTEX
  5
168
330
167
100
AcDbEntity
  8
Layer 1
 62
     7
420
 16777215
370
    70
100
AcDbVertex
100
AcDb2dVertex
 10
687.7627799302333
 20
445.1202384647941
 30
0.0
  0
VERTEX
  5
169
330
167
100
AcDbEntity
  8
Layer 1
 62
     7
420
 16777215
370
    70
100
AcDbVertex
100
AcDb2dVertex
 10
689.9862460232217
 20
446.2895046438463
 30
0.0
  0
VERTEX
  5
16A
330
167
100
AcDbEntity
  8
Layer 1
 62
     7
420
 16777215
370
    70
100
AcDbVertex
100
AcDb2dVertex
 10
689.5618099794409
 20
443.8131683754235
 30
0.0
  0
VERTEX
  5
16B
330
167
100
AcDbEntity
  8
Layer 1
 62
     7
420
 16777215
370
    70
100
AcDbVertex
100
AcDb2dVertex
 10
691.3608400286485
 20
442.0608194008362
 30
0.0
  0
VERTEX
  5
16C
330
167
100
AcDbEntity
  8
Layer 1
 62
     7
420
 16777215
370
    70
100
AcDbVertex
100
AcDb2dVertex
 10
688.8748574865033
 20
441.6990841362502
 30
0.0
  0
VERTEX
  5
16D
330
167
100
AcDbEntity
  8
Layer 1
 62
     7
420
 16777215
370
    70
100
AcDbVertex
100
AcDb2dVertex
 10
687.7627799302333
 20
439.4459902025433
 30
0.0
  0
VERTEX
  5
16E
330
167
100
AcDbEntity
  8
Layer 1
 62
     7
420
 16777215
370
    70
100
AcDbVertex
100
AcDb2dVertex
 10
686.6513913935148
 20
441.6990841362502
 30
0.0
  0
VERTEX
  5
16F
330
167
100
AcDbEntity
  8
Layer 1
 62
     7
420
 16777215
370
    70
100
AcDbVertex
100
AcDb2dVertex
 10
684.1654088513696
 20
442.0608194008362
 30
0.0
  0
VERTEX
  5
170
330
167
100
AcDbEntity
  8
Layer 1
 62
     7
420
 16777215
370
    70
100
AcDbVertex
100
AcDb2dVertex
 10
685.9637498810257
 20
443.8133406303114
 30
0.0
  0
VERTEX
  5
171
330
167
100
AcDbEntity
  8
Layer 1
 62
     7
420
 16777215
370
    70
100
AcDbVertex
100
AcDb2dVertex
 10
685.5393138372448
 20
446.2895046438463
 30
0.0
  0
VERTEX
  5
172
330
167
100
AcDbEntity
  8
Layer 1
 62
     7
420
 16777215
370
    70
100
AcDbVertex
100
AcDb2dVertex
 10
687.7627799302333
 20
445.1202384647941
 30
0.0
  0
SEQEND
  5
173
330
167
100
AcDbEntity
  8
Layer 1
370
    70
  0
POLYLINE
  5
174
330
1F
100
AcDbEntity
  8
Layer 1
 62
     7
420
 16777215
370
    70
100
AcDb2dPolyline
 66
     1
 10
0.0
 20
0.0
 30
0.0
  0
VERTEX
  5
175
330
174
100
AcDbEntity
  8
Layer 1
 62
     7
420
 16777215
370
    70
100
AcDbVertex
100
AcDb2dVertex
 10
673.5758673629471
 20
510.056886104614
 30
0.0
  0
VERTEX
  5
176
330
174
100
AcDbEntity
  8
Layer 1
 62
     7
420
 16777215
370
    70
100
AcDbVertex
100
AcDb2dVertex
 10
673.5758673629471
 20
514.0437254850151
 30
0.0
  0
VERTEX
  5
177
330
174
100
AcDbEntity
  8
Layer 1
 62
     7
420
 16777215
370
    70
100
AcDbVertex
100
AcDb2dVertex
 10
649.1604595522725
 20
514.0437254850151
 30
0.0
  0
VERTEX
  5
178
330
174
100
AcDbEntity
  8
Layer 1
 62
     7
420
 16777215
370
    70
100
AcDbVertex
100
AcDb2dVertex
 10
649.1604595522725
 20
510.056886104614
 30
0.0
  0
VERTEX
  5
179
330
174
100
AcDbEntity
  8
Layer 1
 62
     7
420
 16777215
370
    70
100
AcDbVertex
100
AcDb2dVertex
 10
673.5758673629471
 20
510.056886104614
 30
0.0
  0
SEQEND
  5
17A
330
174
100
AcDbEntity
  8
Layer 1
370
    70
  0
POLYLINE
  5
17B
330
1F
100
AcDbEntity
  8
Layer 1
 62
     7
420
 16777215
370
    70
100
AcDb2dPolyline
 66
     1
 10
0.0
 20
0.0
 30
0.0
  0
VERTEX
  5
17C
330
17B
100
AcDbEntity
  8
Layer 1
 62
     7
420
 16777215
370
    70
100
AcDbVertex
100
AcDb2dVertex
 10
651.4032181927056
 20
427.407440597122
 30
0.0
  0
VERTEX
  5
17D
330
17B
100
AcDbEntity
  8
Layer 1
 62
     7
420
 16777215
370
    70
100
AcDbVertex
100
AcDb2dVertex
 10
671.3337977420656
 20
427.407440597122
 30
0.0
  0
VERTEX
  5
17E
330
17B
100
AcDbEntity
  8
Layer 1
 62
     7
420
 16777215
370
    70
100
AcDbVertex
100
AcDb2dVertex
 10
671.3337977420656
 20
423.4211179813845
 30
0.0
  0
VERTEX
  5
17F
330
17B
100
AcDbEntity
  8
Layer 1
 62
     7
420
 16777215
370
    70
100
AcDbVertex
100
AcDb2dVertex
 10
651.4032181927056
 20
423.4211179813845
 30
0.0
  0
VERTEX
  5
180
330
17B
100
AcDbEntity
  8
Layer 1
 62
     7
420
 16777215
370
    70
100
AcDbVertex
100
AcDb2dVertex
 10
651.4032181927056
 20
427.407440597122
 30
0.0
  0
SEQEND
  5
181
330
17B
100
AcDbEntity
  8
Layer 1
370
    70
  0
SPLINE
  5
182
330
1F
100
AcDbEntity
  8
Layer 1
 62
     7
420
 16777215
370
    70
100
AcDbSpline
210
0.0
220
0.0
230
1.0
 70
    11
 71
     3
 72
    65
 73
    61
 74
     0
 42
0.0000000001
 43
0.0000000001
 40
0.0
 40
0.0
 40
0.0
 40
0.0
 40
1.0
 40
1.0
 40
1.0
 40
2.0
 40
2.0
 40
2.0
 40
3.0
 40
3.0
 40
3.0
 40
4.0
 40
4.0
 40
4.0
 40
5.0
 40
5.0
 40
5.0
 40
6.0
 40
6.0
 40
6.0
 40
7.0
 40
7.0
 40
7.0
 40
8.0
 40
8.0
 40
8.0
 40
9.0
 40
9.0
 40
9.0
 40
10.0
 40
10.0
 40
10.0
 40
11.0
 40
11.0
 40
11.0
 40
12.0
 40
12.0
 40
12.0
 40
13.0
 40
13.0
 40
13.0
 40
14.0
 40
14.0
 40
14.0
 40
15.0
 40
15.0
 40
15.0
 40
16.0
 40
16.0
 40
16.0
 40
17.0
 40
17.0
 40
17.0
 40
18.0
 40
18.0
 40
18.0
 40
19.0
 40
19.0
 40
19.0
 40
20.0
 40
20.0
 40
20.0
 40
20.0
 10
627.1635103676872
 20
422.4172164947145
 30
0.0
 10
627.1635103676872
 20
422.4172164947145
 30
0.0
 10
627.1635103676872
 20
420.8483189757387
 30
0.0
 10
627.1635103676872
 20
420.8483189757387
 30
0.0
 10
627.1635103676872
 20
420.8483189757387
 30
0.0
 10
625.5670520666478
 20
419.9097020915821
 30
0.0
 10
625.5670520666478
 20
419.9097020915821
 30
0.0
 10
625.5670520666478
 20
419.9097020915821
 30
0.0
 10
627.2255221273305
 20
418.9705684427617
 30
0.0
 10
627.2255221273305
 20
418.9705684427617
 30
0.0
 10
627.2255221273305
 20
418.9705684427617
 30
0.0
 10
627.2255221273305
 20
412.5768115137606
 30
0.0
 10
627.2255221273305
 20
412.5768115137606
 30
0.0
 10
627.2255221273305
 20
412.5768115137606
 30
0.0
 10
632.8031353974704
 20
410.2667012121594
 30
0.0
 10
632.8031353974704
 20
410.2667012121594
 30
0.0
 10
632.8031353974704
 20
410.2667012121594
 30
0.0
 10
638.3807486676104
 20
412.5768115137606
 30
0.0
 10
638.3807486676104
 20
412.5768115137606
 30
0.0
 10
638.3807486676104
 20
412.5768115137606
 30
0.0
 10
638.3807486676104
 20
418.9705684427617
 30
0.0
 10
638.3807486676104
 20
418.9705684427617
 30
0.0
 10
638.3807486676104
 20
418.9705684427617
 30
0.0
 10
640.0392187282932
 20
419.9097020915821
 30
0.0
 10
640.0392187282932
 20
419.9097020915821
 30
0.0
 10
640.0392187282932
 20
419.9097020915821
 30
0.0
 10
638.4434494468053
 20
420.8483189757387
 30
0.0
 10
638.4434494468053
 20
420.8483189757387
 30
0.0
 10
638.4434494468053
 20
420.8483189757387
 30
0.0
 10
638.4434494468053
 20
422.4172164947145
 30
0.0
 10
638.4434494468053
 20
422.4172164947145
 30
0.0
 10
638.4434494468053
 20
422.4172164947145
 30
0.0
 10
643.4877615840128
 20
422.4172164947145
 30
0.0
 10
643.4877615840128
 20
422.4172164947145
 30
0.0
 10
643.4877615840128
 20
422.4172164947145
 30
0.0
 10
646.9411275765937
 20
416.4480678643822
 30
0.0
 10
652.7330259272788
 20
414.7740948637885
 30
0.0
 10
652.7330259272788
 20
414.7740948637885
 30
0.0
 10
658.6248321129449
 20
413.3572984108268
 30
0.0
 10
661.3685079673855
 20
410.2667012121594
 30
0.0
 10
664.1114948022747
 20
413.3572984108268
 30
0.0
 10
670.0053680465955
 20
414.7740948637885
 30
0.0
 10
670.0053680465955
 20
414.7740948637885
 30
0.0
 10
675.7951993386259
 20
416.4480678643822
 30
0.0
 10
679.2499433703099
 20
422.4172164947145
 30
0.0
 10
679.2499433703099
 20
422.4172164947145
 30
0.0
 10
679.2499433703099
 20
422.4172164947145
 30
0.0
 10
701.228978046554
 20
422.4172164947145
 30
0.0
 10
701.228978046554
 20
422.4172164947145
 30
0.0
 10
701.228978046554
 20
422.4172164947145
 30
0.0
 10
683.8140088800576
 20
516.9117693685182
 30
0.0
 10
683.8140088800576
 20
516.9117693685182
 30
0.0
 10
683.8140088800576
 20
516.9117693685182
 30
0.0
 10
638.9216290156104
 20
516.9117693685182
 30
0.0
 10
638.9216290156104
 20
516.9117693685182
 30
0.0
 10
638.9216290156104
 20
516.9117693685182
 30
0.0
 10
621.5073488686656
 20
422.4172164947145
 30
0.0
 10
621.5073488686656
 20
422.4172164947145
 30
0.0
 10
621.5073488686656
 20
422.4172164947145
 30
0.0
 10
627.1635103676872
 20
422.4172164947145
 30
0.0
 10
627.1635103676872
 20
422.4172164947145
 30
0.0
  0
POLYLINE
  5
183
330
1F
100
AcDbEntity
  8
Layer 1
 62
     7
420
 16777215
370
    70
100
AcDb2dPolyline
 66
     1
 10
0.0
 20
0.0
 30
0.0
  0
VERTEX
  5
184
330
183
100
AcDbEntity
  8
Layer 1
 62
     7
420
 16777215
370
    70
100
AcDbVertex
100
AcDb2dVertex
 10
666.0724444461065
 20
449.0366255960449
 30
0.0
  0
VERTEX
  5
185
330
183
100
AcDbEntity
  8
Layer 1
 62
     7
420
 16777215
370
    70
100
AcDbVertex
100
AcDb2dVertex
 10
661.6544510812964
 20
440.9790587048362
 30
0.0
  0
VERTEX
  5
186
330
183
100
AcDbEntity
  8
Layer 1
 62
     7
420
 16777215
370
    70
100
AcDbVertex
100
AcDb2dVertex
 10
656.8616310804201
 20
448.8457671802539
 30
0.0
  0
VERTEX
  5
187
330
183
100
AcDbEntity
  8
Layer 1
 62
     7
420
 16777215
370
    70
100
AcDbVertex
100
AcDb2dVertex
 10
661.3416362048735
 20
457.0826514097645
 30
0.0
  0
VERTEX
  5
188
330
183
100
AcDbEntity
  8
Layer 1
 62
     7
420
 16777215
370
    70
100
AcDbVertex
100
AcDb2dVertex
 10
666.0724444461065
 20
449.0366255960449
 30
0.0
  0
SEQEND
  5
189
330
183
100
AcDbEntity
  8
Layer 1
370
    70
  0
SPLINE
  5
18A
330
1F
100
AcDbEntity
  8
Layer 1
 62
     7
420
 16777215
370
    70
100
AcDbSpline
210
0.0
220
0.0
230
1.0
 70
    11
 71
     3
 72
    14
 73
    10
 74
     0
 42
0.0000000001
 43
0.0000000001
 40
0.0
 40
0.0
 40
0.0
 40
0.0
 40
1.0
 40
1.0
 40
1.0
 40
2.0
 40
2.0
 40
2.0
 40
3.0
 40
3.0
 40
3.0
 40
3.0
 10
655.4394947259335
 20
432.7747306491384
 30
0.0
 10
655.4394947259335
 20
432.7747306491384
 30
0.0
 10
650.0699653603745
 20
430.5726241622493
 30
0.0
 10
650.067209282168
 20
430.5712461231461
 30
0.0
 10
650.067209282168
 20
430.5712461231461
 30
0.0
 10
633.8345976662042
 20
442.1938001742935
 30
0.0
 10
654.0524983685782
 20
452.2908649382156
 30
0.0
 10
654.0524983685782
 20
452.2908649382156
 30
0.0
 10
644.8382399051338
 20
441.0930914406248
 30
0.0
 10
655.4394947259335
 20
432.7747306491384
 30
0.0
  0
SPLINE
  5
18B
330
1F
100
AcDbEntity
  8
Layer 1
 62
     7
420
 16777215
370
    70
100
AcDbSpline
210
0.0
220
0.0
230
1.0
 70
    11
 71
     3
 72
    14
 73
    10
 74
     0
 42
0.0000000001
 43
0.0000000001
 40
0.0
 40
0.0
 40
0.0
 40
0.0
 40
1.0
 40
1.0
 40
1.0
 40
2.0
 40
2.0
 40
2.0
 40
3.0
 40
3.0
 40
3.0
 40
3.0
 10
642.272331095004
 20
483.4609036680376
 30
0.0
 10
642.272331095004
 20
483.4609036680376
 30
0.0
 10
637.9921416405124
 20
473.9588072869156
 30
0.0
 10
637.8887887077735
 20
467.4739275222164
 30
0.0
 10
637.8887887077735
 20
467.4739275222164
 30
0.0
 10
651.2495668327006
 20
467.4739275222164
 30
0.0
 10
651.2495668327006
 20
467.4739275222164
 30
0.0
 10
651.2495668327006
 20
467.4739275222164
 30
0.0
 10
643.4209266875084
 20
474.561527139671
 30
0.0
 10
642.272331095004
 20
483.4609036680376
 30
0.0
  0
SPLINE
  5
18C
330
1F
100
AcDbEntity
  8
Layer 1
 62
     7
420
 16777215
370
    70
100
AcDbSpline
210
0.0
220
0.0
230
1.0
 70
    11
 71
     3
 72
    14
 73
    10
 74
     0
 42
0.0000000001
 43
0.0000000001
 40
0.0
 40
0.0
 40
0.0
 40
0.0
 40
1.0
 40
1.0
 40
1.0
 40
2.0
 40
2.0
 40
2.0
 40
3.0
 40
3.0
 40
3.0
 40
3.0
 10
642.272331095004
 20
444.1904065799202
 30
0.0
 10
642.272331095004
 20
444.1904065799202
 30
0.0
 10
637.9921416405124
 20
456.089601981032
 30
0.0
 10
637.8887887077735
 20
462.574826255507
 30
0.0
 10
637.8887887077735
 20
462.574826255507
 30
0.0
 10
651.2495668327006
 20
462.574826255507
 30
0.0
 10
651.2495668327006
 20
462.574826255507
 30
0.0
 10
651.2495668327006
 20
462.574826255507
 30
0.0
 10
642.846973401032
 20
457.5015752971326
 30
0.0
 10
642.272331095004
 20
444.1904065799202
 30
0.0
  0
SPLINE
  5
18D
330
1F
100
AcDbEntity
  8
Layer 1
 62
     7
420
 16777215
370
    70
100
AcDbSpline
210
0.0
220
0.0
230
1.0
 70
    11
 71
     3
 72
    14
 73
    10
 74
     0
 42
0.0000000001
 43
0.0000000001
 40
0.0
 40
0.0
 40
0.0
 40
0.0
 40
1.0
 40
1.0
 40
1.0
 40
2.0
 40
2.0
 40
2.0
 40
3.0
 40
3.0
 40
3.0
 40
3.0
 10
667.4952698201447
 20
432.7747306491384
 30
0.0
 10
667.4952698201447
 20
432.7747306491384
 30
0.0
 10
672.8641101661522
 20
430.5726241622493
 30
0.0
 10
672.8675552639102
 20
430.5712461231461
 30
0.0
 10
672.8675552639102
 20
430.5712461231461
 30
0.0
 10
689.100166879874
 20
442.1938001742935
 30
0.0
 10
668.8815771579484
 20
452.2908649382156
 30
0.0
 10
668.8815771579484
 20
452.2908649382156
 30
0.0
 10
678.0965246409444
 20
441.0930914406248
 30
0.0
 10
667.4952698201447
 20
432.7747306491384
 30
0.0
  0
SPLINE
  5
18E
330
1F
100
AcDbEntity
  8
Layer 1
 62
     7
420
 16777215
370
    70
100
AcDbSpline
210
0.0
220
0.0
230
1.0
 70
    11
 71
     3
 72
    14
 73
    10
 74
     0
 42
0.0000000001
 43
0.0000000001
 40
0.0
 40
0.0
 40
0.0
 40
0.0
 40
1.0
 40
1.0
 40
1.0
 40
2.0
 40
2.0
 40
2.0
 40
3.0
 40
3.0
 40
3.0
 40
3.0
 10
680.6617444315226
 20
483.4609036680376
 30
0.0
 10
680.6617444315226
 20
483.4609036680376
 30
0.0
 10
684.9419338860142
 20
473.9588072869156
 30
0.0
 10
685.0459758383047
 20
467.4739275222164
 30
0.0
 10
685.0459758383047
 20
467.4739275222164
 30
0.0
 10
671.684508693826
 20
467.4739275222164
 30
0.0
 10
671.684508693826
 20
467.4739275222164
 30
0.0
 10
671.684508693826
 20
467.4739275222164
 30
0.0
 10
679.5138378585698
 20
474.561527139671
 30
0.0
 10
680.6617444315226
 20
483.4609036680376
 30
0.0
  0
SPLINE
  5
18F
330
1F
100
AcDbEntity
  8
Layer 1
 62
     7
420
 16777215
370
    70
100
AcDbSpline
210
0.0
220
0.0
230
1.0
 70
    11
 71
     3
 72
    14
 73
    10
 74
     0
 42
0.0000000001
 43
0.0000000001
 40
0.0
 40
0.0
 40
0.0
 40
0.0
 40
1.0
 40
1.0
 40
1.0
 40
2.0
 40
2.0
 40
2.0
 40
3.0
 40
3.0
 40
3.0
 40
3.0
 10
680.6617444315226
 20
444.1904065799202
 30
0.0
 10
680.6617444315226
 20
444.1904065799202
 30
0.0
 10
684.9419338860142
 20
456.089601981032
 30
0.0
 10
685.0459758383047
 20
462.574826255507
 30
0.0
 10
685.0459758383047
 20
462.574826255507
 30
0.0
 10
671.684508693826
 20
462.574826255507
 30
0.0
 10
671.684508693826
 20
462.574826255507
 30
0.0
 10
671.684508693826
 20
462.574826255507
 30
0.0
 10
680.0877911450463
 20
457.5015752971326
 30
0.0
 10
680.6617444315226
 20
444.1904065799202
 30
0.0
  0
POLYLINE
  5
190
330
1F
100
AcDbEntity
  8
Layer 1
 62
     7
420
 16777215
370
    70
100
AcDb2dPolyline
 66
     1
 10
0.0
 20
0.0
 30
0.0
  0
VERTEX
  5
191
330
190
100
AcDbEntity
  8
Layer 1
 62
     7
420
 16777215
370
    70
100
AcDbVertex
100
AcDb2dVertex
 10
656.4447742517067
 20
468.9706502431629
 30
0.0
  0
VERTEX
  5
192
330
190
100
AcDbEntity
  8
Layer 1
 62
     7
420
 16777215
370
    70
100
AcDbVertex
100
AcDb2dVertex
 10
656.4489083690163
 20
471.9043232389552
 30
0.0
  0
VERTEX
  5
193
330
190
100
AcDbEntity
  8
Layer 1
 62
     7
420
 16777215
370
    70
100
AcDbVertex
100
AcDb2dVertex
 10
659.3882657761092
 20
471.906218042722
 30
0.0
  0
VERTEX
  5
194
330
190
100
AcDbEntity
  8
Layer 1
 62
     7
420
 16777215
370
    70
100
AcDbVertex
100
AcDb2dVertex
 10
661.4663487437117
 20
473.9798223832391
 30
0.0
  0
VERTEX
  5
195
330
190
100
AcDbEntity
  8
Layer 1
 62
     7
420
 16777215
370
    70
100
AcDbVertex
100
AcDb2dVertex
 10
663.5458097504173
 20
471.906218042722
 30
0.0
  0
VERTEX
  5
196
330
190
100
AcDbEntity
  8
Layer 1
 62
     7
420
 16777215
370
    70
100
AcDbVertex
100
AcDb2dVertex
 10
666.4837891184071
 20
471.9043232389552
 30
0.0
  0
VERTEX
  5
197
330
190
100
AcDbEntity
  8
Layer 1
 62
     7
420
 16777215
370
    70
100
AcDbVertex
100
AcDb2dVertex
 10
666.4899902943714
 20
468.9706502431629
 30
0.0
  0
VERTEX
  5
198
330
190
100
AcDbEntity
  8
Layer 1
 62
     7
420
 16777215
370
    70
100
AcDbVertex
100
AcDb2dVertex
 10
668.5618720860095
 20
466.8927395304483
 30
0.0
  0
VERTEX
  5
199
330
190
100
AcDbEntity
  8
Layer 1
 62
     7
420
 16777215
370
    70
100
AcDbVertex
100
AcDb2dVertex
 10
666.4899902943714
 20
464.8170681312764
 30
0.0
  0
VERTEX
  5
19A
330
190
100
AcDbEntity
  8
Layer 1
 62
     7
420
 16777215
370
    70
100
AcDbVertex
100
AcDb2dVertex
 10
666.4837891184071
 20
461.8811558219414
 30
0.0
  0
VERTEX
  5
19B
330
190
100
AcDbEntity
  8
Layer 1
 62
     7
420
 16777215
370
    70
100
AcDbVertex
100
AcDb2dVertex
 10
663.5458097504173
 20
461.8771939595197
 30
0.0
  0
VERTEX
  5
19C
330
190
100
AcDbEntity
  8
Layer 1
 62
     7
420
 16777215
370
    70
100
AcDbVertex
100
AcDb2dVertex
 10
661.4663487437117
 20
459.8060011874332
 30
0.0
  0
VERTEX
  5
19D
330
190
100
AcDbEntity
  8
Layer 1
 62
     7
420
 16777215
370
    70
100
AcDbVertex
100
AcDb2dVertex
 10
659.3882657761092
 20
461.8771939595197
 30
0.0
  0
VERTEX
  5
19E
330
190
100
AcDbEntity
  8
Layer 1
 62
     7
420
 16777215
370
    70
100
AcDbVertex
100
AcDb2dVertex
 10
656.4489083690163
 20
461.8811558219414
 30
0.0
  0
VERTEX
  5
19F
330
190
100
AcDbEntity
  8
Layer 1
 62
     7
420
 16777215
370
    70
100
AcDbVertex
100
AcDb2dVertex
 10
656.4447742517067
 20
464.8170681312764
 30
0.0
  0
VERTEX
  5
1A0
330
190
100
AcDbEntity
  8
Layer 1
 62
     7
420
 16777215
370
    70
100
AcDbVertex
100
AcDb2dVertex
 10
654.3728924600686
 20
466.8927395304483
 30
0.0
  0
VERTEX
  5
1A1
330
190
100
AcDbEntity
  8
Layer 1
 62
     7
420
 16777215
370
    70
100
AcDbVertex
100
AcDb2dVertex
 10
656.4447742517067
 20
468.9706502431629
 30
0.0
  0
SEQEND
  5
1A2
330
190
100
AcDbEntity
  8
Layer 1
370
    70
  0
SPLINE
  5
1A3
330
1F
100
AcDbEntity
  8
Layer 1
 62
     7
420
 16777215
370
    70
100
AcDbSpline
210
0.0
220
0.0
230
1.0
 70
    11
 71
     3
 72
    14
 73
    10
 74
     0
 42
0.0000000001
 43
0.0000000001
 40
0.0
 40
0.0
 40
0.0
 40
0.0
 40
1.0
 40
1.0
 40
1.0
 40
2.0
 40
2.0
 40
2.0
 40
3.0
 40
3.0
 40
3.0
 40
3.0
 10
657.5761443554213
 20
479.4415081138237
 30
0.0
 10
657.5761443554213
 20
479.4415081138237
 30
0.0
 10
654.3921850075131
 20
484.2706738960465
 30
0.0
 10
656.0430758531284
 20
493.5443602958157
 30
0.0
 10
656.0430758531284
 20
493.5443602958157
 30
0.0
 10
650.1471355501528
 20
487.7490168473726
 30
0.0
 10
645.8428304113554
 20
489.2941431918184
 30
0.0
 10
645.8428304113554
 20
489.2941431918184
 30
0.0
 10
649.675157157312
 20
480.9869789680453
 30
0.0
 10
657.5761443554213
 20
479.4415081138237
 30
0.0
  0
POLYLINE
  5
1A4
330
1F
100
AcDbEntity
  8
Layer 1
 62
     7
420
 16777215
370
    70
100
AcDb2dPolyline
 66
     1
 10
0.0
 20
0.0
 30
0.0
  0
VERTEX
  5
1A5
330
1A4
100
AcDbEntity
  8
Layer 1
 62
     7
420
 16777215
370
    70
100
AcDbVertex
100
AcDb2dVertex
 10
649.675157157312
 20
495.0901756598131
 30
0.0
  0
VERTEX
  5
1A6
330
1A4
100
AcDbEntity
  8
Layer 1
 62
     7
420
 16777215
370
    70
100
AcDbVertex
100
AcDb2dVertex
 10
644.1333729038548
 20
495.0901756598131
 30
0.0
  0
VERTEX
  5
1A7
330
1A4
100
AcDbEntity
  8
Layer 1
 62
     7
420
 16777215
370
    70
100
AcDbVertex
100
AcDb2dVertex
 10
646.9039205208077
 20
502.9785882511059
 30
0.0
  0
VERTEX
  5
1A8
330
1A4
100
AcDbEntity
  8
Layer 1
 62
     7
420
 16777215
370
    70
100
AcDbVertex
100
AcDb2dVertex
 10
652.5587039807259
 20
503.0101108955913
 30
0.0
  0
VERTEX
  5
1A9
330
1A4
100
AcDbEntity
  8
Layer 1
 62
     7
420
 16777215
370
    70
100
AcDbVertex
100
AcDb2dVertex
 10
649.675157157312
 20
495.0901756598131
 30
0.0
  0
SEQEND
  5
1AA
330
1A4
100
AcDbEntity
  8
Layer 1
370
    70
  0
POLYLINE
  5
1AB
330
1F
100
AcDbEntity
  8
Layer 1
 62
     7
420
 16777215
370
    70
100
AcDb2dPolyline
 66
     1
 10
0.0
 20
0.0
 30
0.0
  0
VERTEX
  5
1AC
330
1AB
100
AcDbEntity
  8
Layer 1
 62
     7
420
 16777215
370
    70
100
AcDbVertex
100
AcDb2dVertex
 10
664.4876994774442
 20
486.4994798905598
 30
0.0
  0
VERTEX
  5
1AD
330
1AB
100
AcDbEntity
  8
Layer 1
 62
     7
420
 16777215
370
    70
100
AcDbVertex
100
AcDb2dVertex
 10
661.8232608714366
 20
478.5373422072467
 30
0.0
  0
VERTEX
  5
1AE
330
1AB
100
AcDbEntity
  8
Layer 1
 62
     7
420
 16777215
370
    70
100
AcDbVertex
100
AcDb2dVertex
 10
658.9328238525067
 20
486.3101717687599
 30
0.0
  0
VERTEX
  5
1AF
330
1AB
100
AcDbEntity
  8
Layer 1
 62
     7
420
 16777215
370
    70
100
AcDbVertex
100
AcDb2dVertex
 10
661.6351585338518
 20
494.4493874768322
 30
0.0
  0
VERTEX
  5
1B0
330
1AB
100
AcDbEntity
  8
Layer 1
 62
     7
420
 16777215
370
    70
100
AcDbVertex
100
AcDb2dVertex
 10
664.4876994774442
 20
486.4994798905598
 30
0.0
  0
SEQEND
  5
1B1
330
1AB
100
AcDbEntity
  8
Layer 1
370
    70
  0
SPLINE
  5
1B2
330
1F
100
AcDbEntity
  8
Layer 1
 62
     7
420
 16777215
370
    70
100
AcDbSpline
210
0.0
220
0.0
230
1.0
 70
    11
 71
     3
 72
    14
 73
    10
 74
     0
 42
0.0000000001
 43
0.0000000001
 40
0.0
 40
0.0
 40
0.0
 40
0.0
 40
1.0
 40
1.0
 40
1.0
 40
2.0
 40
2.0
 40
2.0
 40
3.0
 40
3.0
 40
3.0
 40
3.0
 10
665.3586201906568
 20
479.4415081138237
 30
0.0
 10
665.3586201906568
 20
479.4415081138237
 30
0.0
 10
668.5418905190135
 20
484.2706738960465
 30
0.0
 10
666.8916886929497
 20
493.5443602958157
 30
0.0
 10
666.8916886929497
 20
493.5443602958157
 30
0.0
 10
672.7876289959254
 20
487.7490168473726
 30
0.0
 10
677.0912451151711
 20
489.2941431918184
 30
0.0
 10
677.0912451151711
 20
489.2941431918184
 30
0.0
 10
673.2589183692146
 20
480.9869789680453
 30
0.0
 10
665.3586201906568
 20
479.4415081138237
 30
0.0
  0
POLYLINE
  5
1B3
330
1F
100
AcDbEntity
  8
Layer 1
 62
     7
420
 16777215
370
    70
100
AcDb2dPolyline
 66
     1
 10
0.0
 20
0.0
 30
0.0
  0
VERTEX
  5
1B4
330
1B3
100
AcDbEntity
  8
Layer 1
 62
     7
420
 16777215
370
    70
100
AcDbVertex
100
AcDb2dVertex
 10
673.2589183692146
 20
495.0901756598131
 30
0.0
  0
VERTEX
  5
1B5
330
1B3
100
AcDbEntity
  8
Layer 1
 62
     7
420
 16777215
370
    70
100
AcDbVertex
100
AcDb2dVertex
 10
678.8013916422233
 20
495.0901756598131
 30
0.0
  0
VERTEX
  5
1B6
330
1B3
100
AcDbEntity
  8
Layer 1
 62
     7
420
 16777215
370
    70
100
AcDbVertex
100
AcDb2dVertex
 10
676.0301550057189
 20
502.9785882511059
 30
0.0
  0
VERTEX
  5
1B7
330
1B3
100
AcDbEntity
  8
Layer 1
 62
     7
420
 16777215
370
    70
100
AcDbVertex
100
AcDb2dVertex
 10
670.3753715458006
 20
503.0101108955913
 30
0.0
  0
VERTEX
  5
1B8
330
1B3
100
AcDbEntity
  8
Layer 1
 62
     7
420
 16777215
370
    70
100
AcDbVertex
100
AcDb2dVertex
 10
673.2589183692146
 20
495.0901756598131
 30
0.0
  0
SEQEND
  5
1B9
330
1B3
100
AcDbEntity
  8
Layer 1
370
    70
  0
POLYLINE
  5
1BA
330
1F
100
AcDbEntity
  8
Layer 1
 62
     7
420
 16777215
370
    70
100
AcDb2dPolyline
 66
     1
 10
0.0
 20
0.0
 30
0.0
  0
VERTEX
  5
1BB
330
1BA
100
AcDbEntity
  8
Layer 1
 62
     7
420
 16777215
370
    70
100
AcDbVertex
100
AcDb2dVertex
 10
536.9057387166247
 20
439.1240458170618
 30
0.0
  0
VERTEX
  5
1BC
330
1BA
100
AcDbEntity
  8
Layer 1
 62
     7
420
 16777215
370
    70
100
AcDbVertex
100
AcDb2dVertex
 10
539.1286880449495
 20
440.2934842510019
 30
0.0
  0
VERTEX
  5
1BD
330
1BA
100
AcDbEntity
  8
Layer 1
 62
     7
420
 16777215
370
    70
100
AcDbVertex
100
AcDb2dVertex
 10
538.7040797462807
 20
437.817147982579
 30
0.0
  0
VERTEX
  5
1BE
330
1BA
100
AcDbEntity
  8
Layer 1
 62
     7
420
 16777215
370
    70
100
AcDbVertex
100
AcDb2dVertex
 10
540.5036265601519
 20
436.0647990079918
 30
0.0
  0
VERTEX
  5
1BF
330
1BA
100
AcDbEntity
  8
Layer 1
 62
     7
420
 16777215
370
    70
100
AcDbVertex
100
AcDb2dVertex
 10
538.0172995082311
 20
435.7028914885179
 30
0.0
  0
VERTEX
  5
1C0
330
1BA
100
AcDbEntity
  8
Layer 1
 62
     7
420
 16777215
370
    70
100
AcDbVertex
100
AcDb2dVertex
 10
536.9057387166247
 20
433.449797554811
 30
0.0
  0
VERTEX
  5
1C1
330
1BA
100
AcDbEntity
  8
Layer 1
 62
     7
420
 16777215
370
    70
100
AcDbVertex
100
AcDb2dVertex
 10
535.7941779250184
 20
435.7028914885179
 30
0.0
  0
VERTEX
  5
1C2
330
1BA
100
AcDbEntity
  8
Layer 1
 62
     7
420
 16777215
370
    70
100
AcDbVertex
100
AcDb2dVertex
 10
533.3081953828732
 20
436.0647990079918
 30
0.0
  0
VERTEX
  5
1C3
330
1BA
100
AcDbEntity
  8
Layer 1
 62
     7
420
 16777215
370
    70
100
AcDbVertex
100
AcDb2dVertex
 10
535.1065364125292
 20
437.8173202374669
 30
0.0
  0
VERTEX
  5
1C4
330
1BA
100
AcDbEntity
  8
Layer 1
 62
     7
420
 16777215
370
    70
100
AcDbVertex
100
AcDb2dVertex
 10
534.6819281138604
 20
440.2934842510019
 30
0.0
  0
VERTEX
  5
1C5
330
1BA
100
AcDbEntity
  8
Layer 1
 62
     7
420
 16777215
370
    70
100
AcDbVertex
100
AcDb2dVertex
 10
536.9057387166247
 20
439.1240458170618
 30
0.0
  0
SEQEND
  5
1C6
330
1BA
100
AcDbEntity
  8
Layer 1
370
    70
  0
POLYLINE
  5
1C7
330
1F
100
AcDbEntity
  8
Layer 1
 62
     7
420
 16777215
370
    70
100
AcDb2dPolyline
 66
     1
 10
0.0
 20
0.0
 30
0.0
  0
VERTEX
  5
1C8
330
1C7
100
AcDbEntity
  8
Layer 1
 62
     7
420
 16777215
370
    70
100
AcDbVertex
100
AcDb2dVertex
 10
510.6291168422114
 20
445.1202384647941
 30
0.0
  0
VERTEX
  5
1C9
330
1C7
100
AcDbEntity
  8
Layer 1
 62
     7
420
 16777215
370
    70
100
AcDbVertex
100
AcDb2dVertex
 10
512.8518939156482
 20
446.2895046438463
 30
0.0
  0
VERTEX
  5
1CA
330
1C7
100
AcDbEntity
  8
Layer 1
 62
     7
420
 16777215
370
    70
100
AcDbVertex
100
AcDb2dVertex
 10
512.4274578718674
 20
443.8129961205356
 30
0.0
  0
VERTEX
  5
1CB
330
1C7
100
AcDbEntity
  8
Layer 1
 62
     7
420
 16777215
370
    70
100
AcDbVertex
100
AcDb2dVertex
 10
514.2266601759629
 20
442.0608194008362
 30
0.0
  0
VERTEX
  5
1CC
330
1C7
100
AcDbEntity
  8
Layer 1
 62
     7
420
 16777215
370
    70
100
AcDbVertex
100
AcDb2dVertex
 10
511.7406776338178
 20
441.6990841362502
 30
0.0
  0
VERTEX
  5
1CD
330
1C7
100
AcDbEntity
  8
Layer 1
 62
     7
420
 16777215
370
    70
100
AcDbVertex
100
AcDb2dVertex
 10
510.6291168422114
 20
439.4459902025433
 30
0.0
  0
VERTEX
  5
1CE
330
1C7
100
AcDbEntity
  8
Layer 1
 62
     7
420
 16777215
370
    70
100
AcDbVertex
100
AcDb2dVertex
 10
509.5172115408293
 20
441.6990841362502
 30
0.0
  0
VERTEX
  5
1CF
330
1C7
100
AcDbEntity
  8
Layer 1
 62
     7
420
 16777215
370
    70
100
AcDbVertex
100
AcDb2dVertex
 10
507.0312289986841
 20
442.0608194008362
 30
0.0
  0
VERTEX
  5
1D0
330
1C7
100
AcDbEntity
  8
Layer 1
 62
     7
420
 16777215
370
    70
100
AcDbVertex
100
AcDb2dVertex
 10
508.8299145381159
 20
443.8133406303114
 30
0.0
  0
VERTEX
  5
1D1
330
1C7
100
AcDbEntity
  8
Layer 1
 62
     7
420
 16777215
370
    70
100
AcDbVertex
100
AcDb2dVertex
 10
508.4049617296714
 20
446.2895046438463
 30
0.0
  0
VERTEX
  5
1D2
330
1C7
100
AcDbEntity
  8
Layer 1
 62
     7
420
 16777215
370
    70
100
AcDbVertex
100
AcDb2dVertex
 10
510.6291168422114
 20
445.1202384647941
 30
0.0
  0
SEQEND
  5
1D3
330
1C7
100
AcDbEntity
  8
Layer 1
370
    70
  0
POLYLINE
  5
1D4
330
1F
100
AcDbEntity
  8
Layer 1
 62
     7
420
 16777215
370
    70
100
AcDb2dPolyline
 66
     1
 10
0.0
 20
0.0
 30
0.0
  0
VERTEX
  5
1D5
330
1D4
100
AcDbEntity
  8
Layer 1
 62
     7
420
 16777215
370
    70
100
AcDbVertex
100
AcDb2dVertex
 10
563.2016531384826
 20
445.1202384647941
 30
0.0
  0
VERTEX
  5
1D6
330
1D4
100
AcDbEntity
  8
Layer 1
 62
     7
420
 16777215
370
    70
100
AcDbVertex
100
AcDb2dVertex
 10
565.4246024668073
 20
446.2895046438463
 30
0.0
  0
VERTEX
  5
1D7
330
1D4
100
AcDbEntity
  8
Layer 1
 62
     7
420
 16777215
370
    70
100
AcDbVertex
100
AcDb2dVertex
 10
565.0001664230265
 20
443.8131683754235
 30
0.0
  0
VERTEX
  5
1D8
330
1D4
100
AcDbEntity
  8
Layer 1
 62
     7
420
 16777215
370
    70
100
AcDbVertex
100
AcDb2dVertex
 10
566.799368727122
 20
442.0608194008362
 30
0.0
  0
VERTEX
  5
1D9
330
1D4
100
AcDbEntity
  8
Layer 1
 62
     7
420
 16777215
370
    70
100
AcDbVertex
100
AcDb2dVertex
 10
564.3133861849768
 20
441.6990841362502
 30
0.0
  0
VERTEX
  5
1DA
330
1D4
100
AcDbEntity
  8
Layer 1
 62
     7
420
 16777215
370
    70
100
AcDbVertex
100
AcDb2dVertex
 10
563.2016531384826
 20
439.4459902025433
 30
0.0
  0
VERTEX
  5
1DB
330
1D4
100
AcDbEntity
  8
Layer 1
 62
     7
420
 16777215
370
    70
100
AcDbVertex
100
AcDb2dVertex
 10
562.0899200919883
 20
441.6990841362502
 30
0.0
  0
VERTEX
  5
1DC
330
1D4
100
AcDbEntity
  8
Layer 1
 62
     7
420
 16777215
370
    70
100
AcDbVertex
100
AcDb2dVertex
 10
559.6037652949552
 20
442.0608194008362
 30
0.0
  0
VERTEX
  5
1DD
330
1D4
100
AcDbEntity
  8
Layer 1
 62
     7
420
 16777215
370
    70
100
AcDbVertex
100
AcDb2dVertex
 10
561.4024508343871
 20
443.8133406303114
 30
0.0
  0
VERTEX
  5
1DE
330
1D4
100
AcDbEntity
  8
Layer 1
 62
     7
420
 16777215
370
    70
100
AcDbVertex
100
AcDb2dVertex
 10
560.9778425357183
 20
446.2895046438463
 30
0.0
  0
VERTEX
  5
1DF
330
1D4
100
AcDbEntity
  8
Layer 1
 62
     7
420
 16777215
370
    70
100
AcDbVertex
100
AcDb2dVertex
 10
563.2016531384826
 20
445.1202384647941
 30
0.0
  0
SEQEND
  5
1E0
330
1D4
100
AcDbEntity
  8
Layer 1
370
    70
  0
POLYLINE
  5
1E1
330
1F
100
AcDbEntity
  8
Layer 1
 62
     7
420
 16777215
370
    70
100
AcDb2dPolyline
 66
     1
 10
0.0
 20
0.0
 30
0.0
  0
VERTEX
  5
1E2
330
1E1
100
AcDbEntity
  8
Layer 1
 62
     7
420
 16777215
370
    70
100
AcDbVertex
100
AcDb2dVertex
 10
541.51097314458
 20
449.0366255960449
 30
0.0
  0
VERTEX
  5
1E3
330
1E1
100
AcDbEntity
  8
Layer 1
 62
     7
420
 16777215
370
    70
100
AcDbVertex
100
AcDb2dVertex
 10
537.09297977977
 20
440.9790587048362
 30
0.0
  0
VERTEX
  5
1E4
330
1E1
100
AcDbEntity
  8
Layer 1
 62
     7
420
 16777215
370
    70
100
AcDbVertex
100
AcDb2dVertex
 10
532.3005042886695
 20
448.8457671802539
 30
0.0
  0
VERTEX
  5
1E5
330
1E1
100
AcDbEntity
  8
Layer 1
 62
     7
420
 16777215
370
    70
100
AcDbVertex
100
AcDb2dVertex
 10
536.780164903347
 20
457.0826514097645
 30
0.0
  0
VERTEX
  5
1E6
330
1E1
100
AcDbEntity
  8
Layer 1
 62
     7
420
 16777215
370
    70
100
AcDbVertex
100
AcDb2dVertex
 10
541.51097314458
 20
449.0366255960449
 30
0.0
  0
SEQEND
  5
1E7
330
1E1
100
AcDbEntity
  8
Layer 1
370
    70
  0
SPLINE
  5
1E8
330
1F
100
AcDbEntity
  8
Layer 1
 62
     7
420
 16777215
370
    70
100
AcDbSpline
210
0.0
220
0.0
230
1.0
 70
    11
 71
     3
 72
    14
 73
    10
 74
     0
 42
0.0000000001
 43
0.0000000001
 40
0.0
 40
0.0
 40
0.0
 40
0.0
 40
1.0
 40
1.0
 40
1.0
 40
2.0
 40
2.0
 40
2.0
 40
3.0
 40
3.0
 40
3.0
 40
3.0
 10
530.8778511695191
 20
432.7747306491384
 30
0.0
 10
530.8778511695191
 20
432.7747306491384
 30
0.0
 10
525.5086663137358
 20
430.5726241622493
 30
0.0
 10
525.5055657257536
 20
430.5712461231461
 30
0.0
 10
525.5055657257536
 20
430.5712461231461
 30
0.0
 10
509.2731263646777
 20
442.1938001742935
 30
0.0
 10
529.4910270670516
 20
452.2908649382156
 30
0.0
 10
529.4910270670516
 20
452.2908649382156
 30
0.0
 10
520.2764240938316
 20
441.0930914406248
 30
0.0
 10
530.8778511695191
 20
432.7747306491384
 30
0.0
  0
SPLINE
  5
1E9
330
1F
100
AcDbEntity
  8
Layer 1
 62
     7
420
 16777215
370
    70
100
AcDbSpline
210
0.0
220
0.0
230
1.0
 70
    11
 71
     3
 72
    14
 73
    10
 74
     0
 42
0.0000000001
 43
0.0000000001
 40
0.0
 40
0.0
 40
0.0
 40
0.0
 40
1.0
 40
1.0
 40
1.0
 40
2.0
 40
2.0
 40
2.0
 40
3.0
 40
3.0
 40
3.0
 40
3.0
 10
517.7110320483654
 20
483.4609036680376
 30
0.0
 10
517.7110320483654
 20
483.4609036680376
 30
0.0
 10
513.4310148487616
 20
473.9588072869156
 30
0.0
 10
513.3271451513591
 20
467.4739275222164
 30
0.0
 10
513.3271451513591
 20
467.4739275222164
 30
0.0
 10
526.6884400409498
 20
467.4739275222164
 30
0.0
 10
526.6884400409498
 20
467.4739275222164
 30
0.0
 10
526.6884400409498
 20
467.4739275222164
 30
0.0
 10
518.8594553859818
 20
474.561527139671
 30
0.0
 10
517.7110320483654
 20
483.4609036680376
 30
0.0
  0
SPLINE
  5
1EA
330
1F
100
AcDbEntity
  8
Layer 1
 62
     7
420
 16777215
370
    70
100
AcDbSpline
210
0.0
220
0.0
230
1.0
 70
    11
 71
     3
 72
    14
 73
    10
 74
     0
 42
0.0000000001
 43
0.0000000001
 40
0.0
 40
0.0
 40
0.0
 40
0.0
 40
1.0
 40
1.0
 40
1.0
 40
2.0
 40
2.0
 40
2.0
 40
3.0
 40
3.0
 40
3.0
 40
3.0
 10
517.7110320483654
 20
444.1904065799202
 30
0.0
 10
517.7110320483654
 20
444.1904065799202
 30
0.0
 10
513.4310148487616
 20
456.089601981032
 30
0.0
 10
513.3271451513591
 20
462.574826255507
 30
0.0
 10
513.3271451513591
 20
462.574826255507
 30
0.0
 10
526.6884400409498
 20
462.574826255507
 30
0.0
 10
526.6884400409498
 20
462.574826255507
 30
0.0
 10
526.6884400409498
 20
462.574826255507
 30
0.0
 10
518.2853298446175
 20
457.5015752971326
 30
0.0
 10
517.7110320483654
 20
444.1904065799202
 30
0.0
  0
SPLINE
  5
1EB
330
1F
100
AcDbEntity
  8
Layer 1
 62
     7
420
 16777215
370
    70
100
AcDbSpline
210
0.0
220
0.0
230
1.0
 70
    11
 71
     3
 72
    14
 73
    10
 74
     0
 42
0.0000000001
 43
0.0000000001
 40
0.0
 40
0.0
 40
0.0
 40
0.0
 40
1.0
 40
1.0
 40
1.0
 40
2.0
 40
2.0
 40
2.0
 40
3.0
 40
3.0
 40
3.0
 40
3.0
 10
542.9337985186181
 20
432.7747306491384
 30
0.0
 10
542.9337985186181
 20
432.7747306491384
 30
0.0
 10
548.3026388646257
 20
430.5726241622493
 30
0.0
 10
548.3057394526078
 20
430.5712461231461
 30
0.0
 10
548.3057394526078
 20
430.5712461231461
 30
0.0
 10
564.5383510685717
 20
442.1938001742935
 30
0.0
 10
544.320105856422
 20
452.2908649382156
 30
0.0
 10
544.320105856422
 20
452.2908649382156
 30
0.0
 10
553.53488108453
 20
441.0930914406248
 30
0.0
 10
542.9337985186181
 20
432.7747306491384
 30
0.0
  0
SPLINE
  5
1EC
330
1F
100
AcDbEntity
  8
Layer 1
 62
     7
420
 16777215
370
    70
100
AcDbSpline
210
0.0
220
0.0
230
1.0
 70
    11
 71
     3
 72
    14
 73
    10
 74
     0
 42
0.0000000001
 43
0.0000000001
 40
0.0
 40
0.0
 40
0.0
 40
0.0
 40
1.0
 40
1.0
 40
1.0
 40
2.0
 40
2.0
 40
2.0
 40
3.0
 40
3.0
 40
3.0
 40
3.0
 10
556.100445384884
 20
483.4609036680376
 30
0.0
 10
556.100445384884
 20
483.4609036680376
 30
0.0
 10
560.3804625844878
 20
473.9588072869156
 30
0.0
 10
560.4846767916661
 20
467.4739275222164
 30
0.0
 10
560.4846767916661
 20
467.4739275222164
 30
0.0
 10
547.1233819020754
 20
467.4739275222164
 30
0.0
 10
547.1233819020754
 20
467.4739275222164
 30
0.0
 10
547.1233819020754
 20
467.4739275222164
 30
0.0
 10
554.9521943021554
 20
474.561527139671
 30
0.0
 10
556.100445384884
 20
483.4609036680376
 30
0.0
  0
SPLINE
  5
1ED
330
1F
100
AcDbEntity
  8
Layer 1
 62
     7
420
 16777215
370
    70
100
AcDbSpline
210
0.0
220
0.0
230
1.0
 70
    11
 71
     3
 72
    14
 73
    10
 74
     0
 42
0.0000000001
 43
0.0000000001
 40
0.0
 40
0.0
 40
0.0
 40
0.0
 40
1.0
 40
1.0
 40
1.0
 40
2.0
 40
2.0
 40
2.0
 40
3.0
 40
3.0
 40
3.0
 40
3.0
 10
556.100445384884
 20
444.1904065799202
 30
0.0
 10
556.100445384884
 20
444.1904065799202
 30
0.0
 10
560.3804625844878
 20
456.089601981032
 30
0.0
 10
560.4846767916661
 20
462.574826255507
 30
0.0
 10
560.4846767916661
 20
462.574826255507
 30
0.0
 10
547.1233819020754
 20
462.574826255507
 30
0.0
 10
547.1233819020754
 20
462.574826255507
 30
0.0
 10
547.1233819020754
 20
462.574826255507
 30
0.0
 10
555.5261475886318
 20
457.5015752971326
 30
0.0
 10
556.100445384884
 20
444.1904065799202
 30
0.0
  0
POLYLINE
  5
1EE
330
1F
100
AcDbEntity
  8
Layer 1
 62
     7
420
 16777215
370
    70
100
AcDb2dPolyline
 66
     1
 10
0.0
 20
0.0
 30
0.0
  0
VERTEX
  5
1EF
330
1EE
100
AcDbEntity
  8
Layer 1
 62
     7
420
 16777215
370
    70
100
AcDbVertex
100
AcDb2dVertex
 10
531.8831306952924
 20
468.9706502431629
 30
0.0
  0
VERTEX
  5
1F0
330
1EE
100
AcDbEntity
  8
Layer 1
 62
     7
420
 16777215
370
    70
100
AcDbVertex
100
AcDb2dVertex
 10
531.8876093223777
 20
471.9043232389552
 30
0.0
  0
VERTEX
  5
1F1
330
1EE
100
AcDbEntity
  8
Layer 1
 62
     7
420
 16777215
370
    70
100
AcDbVertex
100
AcDb2dVertex
 10
534.8271389843585
 20
471.906218042722
 30
0.0
  0
VERTEX
  5
1F2
330
1EE
100
AcDbEntity
  8
Layer 1
 62
     7
420
 16777215
370
    70
100
AcDbVertex
100
AcDb2dVertex
 10
536.9050496970731
 20
473.9798223832391
 30
0.0
  0
VERTEX
  5
1F3
330
1EE
100
AcDbEntity
  8
Layer 1
 62
     7
420
 16777215
370
    70
100
AcDbVertex
100
AcDb2dVertex
 10
538.9843384488909
 20
471.906218042722
 30
0.0
  0
VERTEX
  5
1F4
330
1EE
100
AcDbEntity
  8
Layer 1
 62
     7
420
 16777215
370
    70
100
AcDbVertex
100
AcDb2dVertex
 10
541.9221455619927
 20
471.9043232389552
 30
0.0
  0
VERTEX
  5
1F5
330
1EE
100
AcDbEntity
  8
Layer 1
 62
     7
420
 16777215
370
    70
100
AcDbVertex
100
AcDb2dVertex
 10
541.928346737957
 20
468.9706502431629
 30
0.0
  0
VERTEX
  5
1F6
330
1EE
100
AcDbEntity
  8
Layer 1
 62
     7
420
 16777215
370
    70
100
AcDbVertex
100
AcDb2dVertex
 10
544.0000562747073
 20
466.8927395304483
 30
0.0
  0
VERTEX
  5
1F7
330
1EE
100
AcDbEntity
  8
Layer 1
 62
     7
420
 16777215
370
    70
100
AcDbVertex
100
AcDb2dVertex
 10
541.928346737957
 20
464.8170681312764
 30
0.0
  0
VERTEX
  5
1F8
330
1EE
100
AcDbEntity
  8
Layer 1
 62
     7
420
 16777215
370
    70
100
AcDbVertex
100
AcDb2dVertex
 10
541.9221455619927
 20
461.8811558219414
 30
0.0
  0
VERTEX
  5
1F9
330
1EE
100
AcDbEntity
  8
Layer 1
 62
     7
420
 16777215
370
    70
100
AcDbVertex
100
AcDb2dVertex
 10
538.9843384488909
 20
461.8771939595197
 30
0.0
  0
VERTEX
  5
1FA
330
1EE
100
AcDbEntity
  8
Layer 1
 62
     7
420
 16777215
370
    70
100
AcDbVertex
100
AcDb2dVertex
 10
536.9050496970731
 20
459.8060011874332
 30
0.0
  0
VERTEX
  5
1FB
330
1EE
100
AcDbEntity
  8
Layer 1
 62
     7
420
 16777215
370
    70
100
AcDbVertex
100
AcDb2dVertex
 10
534.8271389843585
 20
461.8771939595197
 30
0.0
  0
VERTEX
  5
1FC
330
1EE
100
AcDbEntity
  8
Layer 1
 62
     7
420
 16777215
370
    70
100
AcDbVertex
100
AcDb2dVertex
 10
531.8876093223777
 20
461.8811558219414
 30
0.0
  0
VERTEX
  5
1FD
330
1EE
100
AcDbEntity
  8
Layer 1
 62
     7
420
 16777215
370
    70
100
AcDbVertex
100
AcDb2dVertex
 10
531.8831306952924
 20
464.8170681312764
 30
0.0
  0
VERTEX
  5
1FE
330
1EE
100
AcDbEntity
  8
Layer 1
 62
     7
420
 16777215
370
    70
100
AcDbVertex
100
AcDb2dVertex
 10
529.8117656683179
 20
466.8927395304483
 30
0.0
  0
VERTEX
  5
1FF
330
1EE
100
AcDbEntity
  8
Layer 1
 62
     7
420
 16777215
370
    70
100
AcDbVertex
100
AcDb2dVertex
 10
531.8831306952924
 20
468.9706502431629
 30
0.0
  0
SEQEND
  5
200
330
1EE
100
AcDbEntity
  8
Layer 1
370
    70
  0
SPLINE
  5
201
330
1F
100
AcDbEntity
  8
Layer 1
 62
     7
420
 16777215
370
    70
100
AcDbSpline
210
0.0
220
0.0
230
1.0
 70
    11
 71
     3
 72
    14
 73
    10
 74
     0
 42
0.0000000001
 43
0.0000000001
 40
0.0
 40
0.0
 40
0.0
 40
0.0
 40
1.0
 40
1.0
 40
1.0
 40
2.0
 40
2.0
 40
2.0
 40
3.0
 40
3.0
 40
3.0
 40
3.0
 10
533.014328544119
 20
479.4415081138237
 30
0.0
 10
533.014328544119
 20
479.4415081138237
 30
0.0
 10
529.8307137059867
 20
484.2706738960465
 30
0.0
 10
531.481432296714
 20
493.5443602958157
 30
0.0
 10
531.481432296714
 20
493.5443602958157
 30
0.0
 10
525.5854919937384
 20
487.7490168473726
 30
0.0
 10
521.2813591098289
 20
489.2941431918184
 30
0.0
 10
521.2813591098289
 20
489.2941431918184
 30
0.0
 10
525.1136858557855
 20
480.9869789680453
 30
0.0
 10
533.014328544119
 20
479.4415081138237
 30
0.0
  0
POLYLINE
  5
202
330
1F
100
AcDbEntity
  8
Layer 1
 62
     7
420
 16777215
370
    70
100
AcDb2dPolyline
 66
     1
 10
0.0
 20
0.0
 30
0.0
  0
VERTEX
  5
203
330
202
100
AcDbEntity
  8
Layer 1
 62
     7
420
 16777215
370
    70
100
AcDbVertex
100
AcDb2dVertex
 10
525.1136858557855
 20
495.0901756598131
 30
0.0
  0
VERTEX
  5
204
330
202
100
AcDbEntity
  8
Layer 1
 62
     7
420
 16777215
370
    70
100
AcDbVertex
100
AcDb2dVertex
 10
519.5717293474405
 20
495.0901756598131
 30
0.0
  0
VERTEX
  5
205
330
202
100
AcDbEntity
  8
Layer 1
 62
     7
420
 16777215
370
    70
100
AcDbVertex
100
AcDb2dVertex
 10
522.3424492192811
 20
502.9785882511059
 30
0.0
  0
VERTEX
  5
206
330
202
100
AcDbEntity
  8
Layer 1
 62
     7
420
 16777215
370
    70
100
AcDbVertex
100
AcDb2dVertex
 10
527.9975771889752
 20
503.0101108955913
 30
0.0
  0
VERTEX
  5
207
330
202
100
AcDbEntity
  8
Layer 1
 62
     7
420
 16777215
370
    70
100
AcDbVertex
100
AcDb2dVertex
 10
525.1136858557855
 20
495.0901756598131
 30
0.0
  0
SEQEND
  5
208
330
202
100
AcDbEntity
  8
Layer 1
370
    70
  0
POLYLINE
  5
209
330
1F
100
AcDbEntity
  8
Layer 1
 62
     7
420
 16777215
370
    70
100
AcDb2dPolyline
 66
     1
 10
0.0
 20
0.0
 30
0.0
  0
VERTEX
  5
20A
330
209
100
AcDbEntity
  8
Layer 1
 62
     7
420
 16777215
370
    70
100
AcDbVertex
100
AcDb2dVertex
 10
539.9262281759176
 20
486.4994798905598
 30
0.0
  0
VERTEX
  5
20B
330
209
100
AcDbEntity
  8
Layer 1
 62
     7
420
 16777215
370
    70
100
AcDbVertex
100
AcDb2dVertex
 10
537.2614450601342
 20
478.5373422072467
 30
0.0
  0
VERTEX
  5
20C
330
209
100
AcDbEntity
  8
Layer 1
 62
     7
420
 16777215
370
    70
100
AcDbVertex
100
AcDb2dVertex
 10
534.371524805868
 20
486.3101717687599
 30
0.0
  0
VERTEX
  5
20D
330
209
100
AcDbEntity
  8
Layer 1
 62
     7
420
 16777215
370
    70
100
AcDbVertex
100
AcDb2dVertex
 10
537.0736872323254
 20
494.4493874768322
 30
0.0
  0
VERTEX
  5
20E
330
209
100
AcDbEntity
  8
Layer 1
 62
     7
420
 16777215
370
    70
100
AcDbVertex
100
AcDb2dVertex
 10
539.9262281759176
 20
486.4994798905598
 30
0.0
  0
SEQEND
  5
20F
330
209
100
AcDbEntity
  8
Layer 1
370
    70
  0
SPLINE
  5
210
330
1F
100
AcDbEntity
  8
Layer 1
 62
     7
420
 16777215
370
    70
100
AcDbSpline
210
0.0
220
0.0
230
1.0
 70
    11
 71
     3
 72
    14
 73
    10
 74
     0
 42
0.0000000001
 43
0.0000000001
 40
0.0
 40
0.0
 40
0.0
 40
0.0
 40
1.0
 40
1.0
 40
1.0
 40
2.0
 40
2.0
 40
2.0
 40
3.0
 40
3.0
 40
3.0
 40
3.0
 10
540.7969766342425
 20
479.4415081138237
 30
0.0
 10
540.7969766342425
 20
479.4415081138237
 30
0.0
 10
543.9807637272627
 20
484.2706738960465
 30
0.0
 10
542.3298728816475
 20
493.5443602958157
 30
0.0
 10
542.3298728816475
 20
493.5443602958157
 30
0.0
 10
548.2261576943989
 20
487.7490168473726
 30
0.0
 10
552.5299460685326
 20
489.2941431918184
 30
0.0
 10
552.5299460685326
 20
489.2941431918184
 30
0.0
 10
548.697447067688
 20
480.9869789680453
 30
0.0
 10
540.7969766342425
 20
479.4415081138237
 30
0.0
  0
POLYLINE
  5
211
330
1F
100
AcDbEntity
  8
Layer 1
 62
     7
420
 16777215
370
    70
100
AcDb2dPolyline
 66
     1
 10
0.0
 20
0.0
 30
0.0
  0
VERTEX
  5
212
330
211
100
AcDbEntity
  8
Layer 1
 62
     7
420
 16777215
370
    70
100
AcDbVertex
100
AcDb2dVertex
 10
548.697447067688
 20
495.0901756598131
 30
0.0
  0
VERTEX
  5
213
330
211
100
AcDbEntity
  8
Layer 1
 62
     7
420
 16777215
370
    70
100
AcDbVertex
100
AcDb2dVertex
 10
554.239575830921
 20
495.0901756598131
 30
0.0
  0
VERTEX
  5
214
330
211
100
AcDbEntity
  8
Layer 1
 62
     7
420
 16777215
370
    70
100
AcDbVertex
100
AcDb2dVertex
 10
551.4690282139683
 20
502.9785882511059
 30
0.0
  0
VERTEX
  5
215
330
211
100
AcDbEntity
  8
Layer 1
 62
     7
420
 16777215
370
    70
100
AcDbVertex
100
AcDb2dVertex
 10
545.8140724991621
 20
503.0101108955913
 30
0.0
  0
VERTEX
  5
216
330
211
100
AcDbEntity
  8
Layer 1
 62
     7
420
 16777215
370
    70
100
AcDbVertex
100
AcDb2dVertex
 10
548.697447067688
 20
495.0901756598131
 30
0.0
  0
SEQEND
  5
217
330
211
100
AcDbEntity
  8
Layer 1
370
    70
  0
POLYLINE
  5
218
330
1F
100
AcDbEntity
  8
Layer 1
 62
     7
420
 16777215
370
    70
100
AcDb2dPolyline
 66
     1
 10
0.0
 20
0.0
 30
0.0
  0
VERTEX
  5
219
330
218
100
AcDbEntity
  8
Layer 1
 62
     7
420
 16777215
370
    70
100
AcDbVertex
100
AcDb2dVertex
 10
586.8641348341545
 20
429.2739945623856
 30
0.0
  0
VERTEX
  5
21A
330
218
100
AcDbEntity
  8
Layer 1
 62
     7
420
 16777215
370
    70
100
AcDbVertex
100
AcDb2dVertex
 10
586.8641348341545
 20
425.2869829270966
 30
0.0
  0
VERTEX
  5
21B
330
218
100
AcDbEntity
  8
Layer 1
 62
     7
420
 16777215
370
    70
100
AcDbVertex
100
AcDb2dVertex
 10
611.2788536252774
 20
425.2869829270966
 30
0.0
  0
VERTEX
  5
21C
330
218
100
AcDbEntity
  8
Layer 1
 62
     7
420
 16777215
370
    70
100
AcDbVertex
100
AcDb2dVertex
 10
611.2788536252774
 20
429.2739945623856
 30
0.0
  0
VERTEX
  5
21D
330
218
100
AcDbEntity
  8
Layer 1
 62
     7
420
 16777215
370
    70
100
AcDbVertex
100
AcDb2dVertex
 10
586.8641348341545
 20
429.2739945623856
 30
0.0
  0
SEQEND
  5
21E
330
218
100
AcDbEntity
  8
Layer 1
370
    70
  0
POLYLINE
  5
21F
330
1F
100
AcDbEntity
  8
Layer 1
 62
     7
420
 16777215
370
    70
100
AcDb2dPolyline
 66
     1
 10
0.0
 20
0.0
 30
0.0
  0
VERTEX
  5
220
330
21F
100
AcDbEntity
  8
Layer 1
 62
     7
420
 16777215
370
    70
100
AcDbVertex
100
AcDb2dVertex
 10
609.0367840043959
 20
511.9230955601018
 30
0.0
  0
VERTEX
  5
221
330
21F
100
AcDbEntity
  8
Layer 1
 62
     7
420
 16777215
370
    70
100
AcDbVertex
100
AcDb2dVertex
 10
589.1060322001481
 20
511.9230955601018
 30
0.0
  0
VERTEX
  5
222
330
21F
100
AcDbEntity
  8
Layer 1
 62
     7
420
 16777215
370
    70
100
AcDbVertex
100
AcDb2dVertex
 10
589.1060322001481
 20
515.9095904307272
 30
0.0
  0
VERTEX
  5
223
330
21F
100
AcDbEntity
  8
Layer 1
 62
     7
420
 16777215
370
    70
100
AcDbVertex
100
AcDb2dVertex
 10
609.0367840043959
 20
515.9095904307272
 30
0.0
  0
VERTEX
  5
224
330
21F
100
AcDbEntity
  8
Layer 1
 62
     7
420
 16777215
370
    70
100
AcDbVertex
100
AcDb2dVertex
 10
609.0367840043959
 20
511.9230955601018
 30
0.0
  0
SEQEND
  5
225
330
21F
100
AcDbEntity
  8
Layer 1
370
    70
  0
SPLINE
  5
226
330
1F
100
AcDbEntity
  8
Layer 1
 62
     7
420
 16777215
370
    70
100
AcDbSpline
210
0.0
220
0.0
230
1.0
 70
     8
 71
     3
 72
    62
 73
    58
 74
     0
 42
0.0000000001
 43
0.0000000001
 40
0.0
 40
0.0
 40
0.0
 40
0.0
 40
1.0
 40
1.0
 40
1.0
 40
2.0
 40
2.0
 40
2.0
 40
3.0
 40
3.0
 40
3.0
 40
4.0
 40
4.0
 40
4.0
 40
5.0
 40
5.0
 40
5.0
 40
6.0
 40
6.0
 40
6.0
 40
7.0
 40
7.0
 40
7.0
 40
8.0
 40
8.0
 40
8.0
 40
9.0
 40
9.0
 40
9.0
 40
10.0
 40
10.0
 40
10.0
 40
11.0
 40
11.0
 40
11.0
 40
12.0
 40
12.0
 40
12.0
 40
13.0
 40
13.0
 40
13.0
 40
14.0
 40
14.0
 40
14.0
 40
15.0
 40
15.0
 40
15.0
 40
16.0
 40
16.0
 40
16.0
 40
17.0
 40
17.0
 40
17.0
 40
18.0
 40
18.0
 40
18.0
 40
19.0
 40
19.0
 40
19.0
 40
19.0
 10
638.9319643088843
 20
516.9131474076214
 30
0.0
 10
638.9319643088843
 20
516.9131474076214
 30
0.0
 10
633.2764918294143
 20
516.9131474076214
 30
0.0
 10
633.2764918294143
 20
516.9131474076214
 30
0.0
 10
633.2764918294143
 20
516.9131474076214
 30
0.0
 10
633.2764918294143
 20
518.4820449265972
 30
0.0
 10
633.2764918294143
 20
518.4820449265972
 30
0.0
 10
633.2764918294143
 20
518.4820449265972
 30
0.0
 10
634.8722611109023
 20
519.4206618107538
 30
0.0
 10
634.8722611109023
 20
519.4206618107538
 30
0.0
 10
634.8722611109023
 20
519.4206618107538
 30
0.0
 10
633.2144800697711
 20
520.3597954595742
 30
0.0
 10
633.2144800697711
 20
520.3597954595742
 30
0.0
 10
633.2144800697711
 20
520.3597954595742
 30
0.0
 10
633.2144800697711
 20
526.7537246434632
 30
0.0
 10
633.2144800697711
 20
526.7537246434632
 30
0.0
 10
633.2144800697711
 20
526.7537246434632
 30
0.0
 10
627.6361777800795
 20
529.0640071999522
 30
0.0
 10
627.6361777800795
 20
529.0640071999522
 30
0.0
 10
627.6361777800795
 20
529.0640071999522
 30
0.0
 10
622.0585645099395
 20
526.7537246434632
 30
0.0
 10
622.0585645099395
 20
526.7537246434632
 30
0.0
 10
622.0585645099395
 20
526.7537246434632
 30
0.0
 10
622.0585645099395
 20
520.3597954595742
 30
0.0
 10
622.0585645099395
 20
520.3597954595742
 30
0.0
 10
622.0585645099395
 20
520.3597954595742
 30
0.0
 10
620.4000944492568
 20
519.4206618107538
 30
0.0
 10
620.4000944492568
 20
519.4206618107538
 30
0.0
 10
620.4000944492568
 20
519.4206618107538
 30
0.0
 10
621.9958637307446
 20
518.4820449265972
 30
0.0
 10
621.9958637307446
 20
518.4820449265972
 30
0.0
 10
621.9958637307446
 20
518.4820449265972
 30
0.0
 10
621.9958637307446
 20
516.9131474076214
 30
0.0
 10
621.9958637307446
 20
516.9131474076214
 30
0.0
 10
621.9958637307446
 20
516.9131474076214
 30
0.0
 10
616.9522406130887
 20
516.9131474076214
 30
0.0
 10
616.9522406130887
 20
516.9131474076214
 30
0.0
 10
616.9522406130887
 20
516.9131474076214
 30
0.0
 10
613.4981856009564
 20
522.8824682928416
 30
0.0
 10
607.7069762698227
 20
524.5564412934352
 30
0.0
 10
607.7069762698227
 20
524.5564412934352
 30
0.0
 10
601.814481064605
 20
525.9734100012848
 30
0.0
 10
599.0709774650522
 20
529.0640071999522
 30
0.0
 10
596.3279906301632
 20
525.9734100012848
 30
0.0
 10
590.4344618956181
 20
524.5564412934352
 30
0.0
 10
590.4344618956181
 20
524.5564412934352
 30
0.0
 10
584.644286093812
 20
522.8824682928416
 30
0.0
 10
581.18936980724
 20
516.9131474076214
 30
0.0
 10
581.18936980724
 20
516.9131474076214
 30
0.0
 10
581.18936980724
 20
516.9131474076214
 30
0.0
 10
559.210507385884
 20
516.9131474076214
 30
0.0
 10
559.210507385884
 20
516.9131474076214
 30
0.0
 10
559.210507385884
 20
516.9131474076214
 30
0.0
 10
576.6259933170439
 20
422.4187667887056
 30
0.0
 10
576.6259933170439
 20
422.4187667887056
 30
0.0
 10
576.6259933170439
 20
422.4187667887056
 30
0.0
 10
621.5176841619395
 20
422.4187667887056
 30
0.0
 10
621.5176841619395
 20
422.4187667887056
 30
0.0
  0
POLYLINE
  5
227
330
1F
100
AcDbEntity
  8
Layer 1
 62
     7
420
 16777215
370
    70
100
AcDb2dPolyline
 66
     1
 10
0.0
 20
0.0
 30
0.0
  0
VERTEX
  5
228
330
227
100
AcDbEntity
  8
Layer 1
 62
     7
420
 16777215
370
    70
100
AcDbVertex
100
AcDb2dVertex
 10
548.969609790567
 20
510.0582641437172
 30
0.0
  0
VERTEX
  5
229
330
227
100
AcDbEntity
  8
Layer 1
 62
     7
420
 16777215
370
    70
100
AcDbVertex
100
AcDb2dVertex
 10
548.969609790567
 20
514.0452757790063
 30
0.0
  0
VERTEX
  5
22A
330
227
100
AcDbEntity
  8
Layer 1
 62
     7
420
 16777215
370
    70
100
AcDbVertex
100
AcDb2dVertex
 10
524.5547187445562
 20
514.0452757790063
 30
0.0
  0
VERTEX
  5
22B
330
227
100
AcDbEntity
  8
Layer 1
 62
     7
420
 16777215
370
    70
100
AcDbVertex
100
AcDb2dVertex
 10
524.5547187445562
 20
510.0582641437172
 30
0.0
  0
VERTEX
  5
22C
330
227
100
AcDbEntity
  8
Layer 1
 62
     7
420
 16777215
370
    70
100
AcDbVertex
100
AcDb2dVertex
 10
548.969609790567
 20
510.0582641437172
 30
0.0
  0
SEQEND
  5
22D
330
227
100
AcDbEntity
  8
Layer 1
370
    70
  0
POLYLINE
  5
22E
330
1F
100
AcDbEntity
  8
Layer 1
 62
     7
420
 16777215
370
    70
100
AcDb2dPolyline
 66
     1
 10
0.0
 20
0.0
 30
0.0
  0
VERTEX
  5
22F
330
22E
100
AcDbEntity
  8
Layer 1
 62
     7
420
 16777215
370
    70
100
AcDbVertex
100
AcDb2dVertex
 10
526.7967883654377
 20
427.4091631460009
 30
0.0
  0
VERTEX
  5
230
330
22E
100
AcDbEntity
  8
Layer 1
 62
     7
420
 16777215
370
    70
100
AcDbVertex
100
AcDb2dVertex
 10
546.7275401696855
 20
427.4091631460009
 30
0.0
  0
VERTEX
  5
231
330
22E
100
AcDbEntity
  8
Layer 1
 62
     7
420
 16777215
370
    70
100
AcDbVertex
100
AcDb2dVertex
 10
546.7275401696855
 20
423.4228405302635
 30
0.0
  0
VERTEX
  5
232
330
22E
100
AcDbEntity
  8
Layer 1
 62
     7
420
 16777215
370
    70
100
AcDbVertex
100
AcDb2dVertex
 10
526.7967883654377
 20
423.4228405302635
 30
0.0
  0
VERTEX
  5
233
330
22E
100
AcDbEntity
  8
Layer 1
 62
     7
420
 16777215
370
    70
100
AcDbVertex
100
AcDb2dVertex
 10
526.7967883654377
 20
427.4091631460009
 30
0.0
  0
SEQEND
  5
234
330
22E
100
AcDbEntity
  8
Layer 1
370
    70
  0
SPLINE
  5
235
330
1F
100
AcDbEntity
  8
Layer 1
 62
     7
420
 16777215
370
    70
100
AcDbSpline
210
0.0
220
0.0
230
1.0
 70
     8
 71
     3
 72
    62
 73
    58
 74
     0
 42
0.0000000001
 43
0.0000000001
 40
0.0
 40
0.0
 40
0.0
 40
0.0
 40
1.0
 40
1.0
 40
1.0
 40
2.0
 40
2.0
 40
2.0
 40
3.0
 40
3.0
 40
3.0
 40
4.0
 40
4.0
 40
4.0
 40
5.0
 40
5.0
 40
5.0
 40
6.0
 40
6.0
 40
6.0
 40
7.0
 40
7.0
 40
7.0
 40
8.0
 40
8.0
 40
8.0
 40
9.0
 40
9.0
 40
9.0
 40
10.0
 40
10.0
 40
10.0
 40
11.0
 40
11.0
 40
11.0
 40
12.0
 40
12.0
 40
12.0
 40
13.0
 40
13.0
 40
13.0
 40
14.0
 40
14.0
 40
14.0
 40
15.0
 40
15.0
 40
15.0
 40
16.0
 40
16.0
 40
16.0
 40
17.0
 40
17.0
 40
17.0
 40
18.0
 40
18.0
 40
18.0
 40
19.0
 40
19.0
 40
19.0
 40
19.0
 10
559.2075790527897
 20
516.9133196625094
 30
0.0
 10
559.2075790527897
 20
516.9133196625094
 30
0.0
 10
514.3157159530062
 20
516.9133196625094
 30
0.0
 10
514.3157159530062
 20
516.9133196625094
 30
0.0
 10
514.3157159530062
 20
516.9133196625094
 30
0.0
 10
496.9012635511735
 20
422.4187667887056
 30
0.0
 10
496.9012635511735
 20
422.4187667887056
 30
0.0
 10
496.9012635511735
 20
422.4187667887056
 30
0.0
 10
502.5570805404193
 20
422.4187667887056
 30
0.0
 10
502.5570805404193
 20
422.4187667887056
 30
0.0
 10
502.5570805404193
 20
422.4187667887056
 30
0.0
 10
502.5570805404193
 20
420.8498692697298
 30
0.0
 10
502.5570805404193
 20
420.8498692697298
 30
0.0
 10
502.5570805404193
 20
420.8498692697298
 30
0.0
 10
500.9611390040435
 20
419.9112523855732
 30
0.0
 10
500.9611390040435
 20
419.9112523855732
 30
0.0
 10
500.9611390040435
 20
419.9112523855732
 30
0.0
 10
502.6190923000626
 20
418.9721187367528
 30
0.0
 10
502.6190923000626
 20
418.9721187367528
 30
0.0
 10
502.6190923000626
 20
418.9721187367528
 30
0.0
 10
502.6190923000626
 20
412.5785340626396
 30
0.0
 10
502.6190923000626
 20
412.5785340626396
 30
0.0
 10
502.6190923000626
 20
412.5785340626396
 30
0.0
 10
508.1970500799783
 20
410.2680792512626
 30
0.0
 10
508.1970500799783
 20
410.2680792512626
 30
0.0
 10
508.1970500799783
 20
410.2680792512626
 30
0.0
 10
513.7748356050063
 20
412.5785340626396
 30
0.0
 10
513.7748356050063
 20
412.5785340626396
 30
0.0
 10
513.7748356050063
 20
412.5785340626396
 30
0.0
 10
513.7748356050063
 20
418.9721187367528
 30
0.0
 10
513.7748356050063
 20
418.9721187367528
 30
0.0
 10
513.7748356050063
 20
418.9721187367528
 30
0.0
 10
515.4327889010253
 20
419.9112523855732
 30
0.0
 10
515.4327889010253
 20
419.9112523855732
 30
0.0
 10
515.4327889010253
 20
419.9112523855732
 30
0.0
 10
513.8375363842011
 20
420.8498692697298
 30
0.0
 10
513.8375363842011
 20
420.8498692697298
 30
0.0
 10
513.8375363842011
 20
420.8498692697298
 30
0.0
 10
513.8375363842011
 20
422.4187667887056
 30
0.0
 10
513.8375363842011
 20
422.4187667887056
 30
0.0
 10
513.8375363842011
 20
422.4187667887056
 30
0.0
 10
518.8815040116328
 20
422.4187667887056
 30
0.0
 10
518.8815040116328
 20
422.4187667887056
 30
0.0
 10
518.8815040116328
 20
422.4187667887056
 30
0.0
 10
522.3352145139894
 20
416.4496181583733
 30
0.0
 10
528.126423845123
 20
414.7756451577796
 30
0.0
 10
528.126423845123
 20
414.7756451577796
 30
0.0
 10
534.0187467954528
 20
413.35867644993
 30
0.0
 10
536.7625949047814
 20
410.2680792512626
 30
0.0
 10
539.5055817396704
 20
413.35867644993
 30
0.0
 10
545.3991104742155
 20
414.7756451577796
 30
0.0
 10
545.3991104742155
 20
414.7756451577796
 30
0.0
 10
551.1892862760218
 20
416.4496181583733
 30
0.0
 10
554.6442025625936
 20
422.4187667887056
 30
0.0
 10
554.6442025625936
 20
422.4187667887056
 30
0.0
 10
554.6442025625936
 20
422.4187667887056
 30
0.0
 10
576.6230649839497
 20
422.4187667887056
 30
0.0
 10
576.6230649839497
 20
422.4187667887056
 30
0.0
  0
POLYLINE
  5
236
330
1F
100
AcDbEntity
  8
Layer 1
 62
     7
420
 16777215
370
    70
100
AcDb2dPolyline
 66
     1
 10
0.0
 20
0.0
 30
0.0
  0
VERTEX
  5
237
330
236
100
AcDbEntity
  8
Layer 1
 62
     7
420
 16777215
370
    70
100
AcDbVertex
100
AcDb2dVertex
 10
462.2578772617745
 20
429.2753726014888
 30
0.0
  0
VERTEX
  5
238
330
236
100
AcDbEntity
  8
Layer 1
 62
     7
420
 16777215
370
    70
100
AcDbVertex
100
AcDb2dVertex
 10
462.2578772617745
 20
425.2883609661997
 30
0.0
  0
VERTEX
  5
239
330
236
100
AcDbEntity
  8
Layer 1
 62
     7
420
 16777215
370
    70
100
AcDbVertex
100
AcDb2dVertex
 10
486.6725960528974
 20
425.2883609661997
 30
0.0
  0
VERTEX
  5
23A
330
236
100
AcDbEntity
  8
Layer 1
 62
     7
420
 16777215
370
    70
100
AcDbVertex
100
AcDb2dVertex
 10
486.6725960528974
 20
429.2753726014888
 30
0.0
  0
VERTEX
  5
23B
330
236
100
AcDbEntity
  8
Layer 1
 62
     7
420
 16777215
370
    70
100
AcDbVertex
100
AcDb2dVertex
 10
462.2578772617745
 20
429.2753726014888
 30
0.0
  0
SEQEND
  5
23C
330
236
100
AcDbEntity
  8
Layer 1
370
    70
  0
POLYLINE
  5
23D
330
1F
100
AcDbEntity
  8
Layer 1
 62
     7
420
 16777215
370
    70
100
AcDb2dPolyline
 66
     1
 10
0.0
 20
0.0
 30
0.0
  0
VERTEX
  5
23E
330
23D
100
AcDbEntity
  8
Layer 1
 62
     7
420
 16777215
370
    70
100
AcDbVertex
100
AcDb2dVertex
 10
484.4301819222401
 20
511.9248181089808
 30
0.0
  0
VERTEX
  5
23F
330
23D
100
AcDbEntity
  8
Layer 1
 62
     7
420
 16777215
370
    70
100
AcDbVertex
100
AcDb2dVertex
 10
464.4997746277681
 20
511.9248181089808
 30
0.0
  0
VERTEX
  5
240
330
23D
100
AcDbEntity
  8
Layer 1
 62
     7
420
 16777215
370
    70
100
AcDbVertex
100
AcDb2dVertex
 10
464.4997746277681
 20
515.9109684698303
 30
0.0
  0
VERTEX
  5
241
330
23D
100
AcDbEntity
  8
Layer 1
 62
     7
420
 16777215
370
    70
100
AcDbVertex
100
AcDb2dVertex
 10
484.4301819222401
 20
515.9109684698303
 30
0.0
  0
VERTEX
  5
242
330
23D
100
AcDbEntity
  8
Layer 1
 62
     7
420
 16777215
370
    70
100
AcDbVertex
100
AcDb2dVertex
 10
484.4301819222401
 20
511.9248181089808
 30
0.0
  0
SEQEND
  5
243
330
23D
100
AcDbEntity
  8
Layer 1
370
    70
  0
SPLINE
  5
244
330
1F
100
AcDbEntity
  8
Layer 1
 62
     7
420
 16777215
370
    70
100
AcDbSpline
210
0.0
220
0.0
230
1.0
 70
     8
 71
     3
 72
    62
 73
    58
 74
     0
 42
0.0000000001
 43
0.0000000001
 40
0.0
 40
0.0
 40
0.0
 40
0.0
 40
1.0
 40
1.0
 40
1.0
 40
2.0
 40
2.0
 40
2.0
 40
3.0
 40
3.0
 40
3.0
 40
4.0
 40
4.0
 40
4.0
 40
5.0
 40
5.0
 40
5.0
 40
6.0
 40
6.0
 40
6.0
 40
7.0
 40
7.0
 40
7.0
 40
8.0
 40
8.0
 40
8.0
 40
9.0
 40
9.0
 40
9.0
 40
10.0
 40
10.0
 40
10.0
 40
11.0
 40
11.0
 40
11.0
 40
12.0
 40
12.0
 40
12.0
 40
13.0
 40
13.0
 40
13.0
 40
14.0
 40
14.0
 40
14.0
 40
15.0
 40
15.0
 40
15.0
 40
16.0
 40
16.0
 40
16.0
 40
17.0
 40
17.0
 40
17.0
 40
18.0
 40
18.0
 40
18.0
 40
19.0
 40
19.0
 40
19.0
 40
19.0
 10
514.3260512462801
 20
516.9146977016125
 30
0.0
 10
514.3260512462801
 20
516.9146977016125
 30
0.0
 10
508.6702342570344
 20
516.9146977016125
 30
0.0
 10
508.6702342570344
 20
516.9146977016125
 30
0.0
 10
508.6702342570344
 20
516.9146977016125
 30
0.0
 10
508.6702342570344
 20
518.4835952205882
 30
0.0
 10
508.6702342570344
 20
518.4835952205882
 30
0.0
 10
508.6702342570344
 20
518.4835952205882
 30
0.0
 10
510.266348048298
 20
519.422212104745
 30
0.0
 10
510.266348048298
 20
519.422212104745
 30
0.0
 10
510.266348048298
 20
519.422212104745
 30
0.0
 10
508.608394752279
 20
520.3613457535653
 30
0.0
 10
508.608394752279
 20
520.3613457535653
 30
0.0
 10
508.608394752279
 20
520.3613457535653
 30
0.0
 10
508.608394752279
 20
526.7551026825664
 30
0.0
 10
508.608394752279
 20
526.7551026825664
 30
0.0
 10
508.608394752279
 20
526.7551026825664
 30
0.0
 10
503.0306092272511
 20
529.0657297488312
 30
0.0
 10
503.0306092272511
 20
529.0657297488312
 30
0.0
 10
503.0306092272511
 20
529.0657297488312
 30
0.0
 10
497.4526514473353
 20
526.7551026825664
 30
0.0
 10
497.4526514473353
 20
526.7551026825664
 30
0.0
 10
497.4526514473353
 20
526.7551026825664
 30
0.0
 10
497.4526514473353
 20
520.3613457535653
 30
0.0
 10
497.4526514473353
 20
520.3613457535653
 30
0.0
 10
497.4526514473353
 20
520.3613457535653
 30
0.0
 10
495.7945258964284
 20
519.422212104745
 30
0.0
 10
495.7945258964284
 20
519.422212104745
 30
0.0
 10
495.7945258964284
 20
519.422212104745
 30
0.0
 10
497.3899506681404
 20
518.4835952205882
 30
0.0
 10
497.3899506681404
 20
518.4835952205882
 30
0.0
 10
497.3899506681404
 20
518.4835952205882
 30
0.0
 10
497.3899506681404
 20
516.9146977016125
 30
0.0
 10
497.3899506681404
 20
516.9146977016125
 30
0.0
 10
497.3899506681404
 20
516.9146977016125
 30
0.0
 10
492.3459830407087
 20
516.9146977016125
 30
0.0
 10
492.3459830407087
 20
516.9146977016125
 30
0.0
 10
492.3459830407087
 20
516.9146977016125
 30
0.0
 10
488.8922725383521
 20
522.8840185868327
 30
0.0
 10
483.1005464425548
 20
524.5581638423142
 30
0.0
 10
483.1005464425548
 20
524.5581638423142
 30
0.0
 10
477.2085680020008
 20
525.9751325501638
 30
0.0
 10
474.4648921475602
 20
529.0657297488312
 30
0.0
 10
471.7222498224469
 20
525.9751325501638
 30
0.0
 10
465.8285488330139
 20
524.5581638423142
 30
0.0
 10
465.8285488330139
 20
524.5581638423142
 30
0.0
 10
460.037856266544
 20
522.8840185868327
 30
0.0
 10
456.58311223486
 20
516.9146977016125
 30
0.0
 10
456.58311223486
 20
516.9146977016125
 30
0.0
 10
456.58311223486
 20
516.9146977016125
 30
0.0
 10
434.6047665781676
 20
516.9146977016125
 30
0.0
 10
434.6047665781676
 20
516.9146977016125
 30
0.0
 10
434.6047665781676
 20
516.9146977016125
 30
0.0
 10
452.0199079995519
 20
422.4203170826966
 30
0.0
 10
452.0199079995519
 20
422.4203170826966
 30
0.0
 10
452.0199079995519
 20
422.4203170826966
 30
0.0
 10
496.9115988444474
 20
422.4203170826966
 30
0.0
 10
496.9115988444474
 20
422.4203170826966
 30
0.0
  0
SPLINE
  5
245
330
1F
100
AcDbEntity
  8
Layer 1
 62
     7
420
 16777215
370
    70
100
AcDbSpline
210
0.0
220
0.0
230
1.0
 70
    11
 71
     3
 72
    71
 73
    67
 74
     0
 42
0.0000000001
 43
0.0000000001
 40
0.0
 40
0.0
 40
0.0
 40
0.0
 40
1.0
 40
1.0
 40
1.0
 40
2.0
 40
2.0
 40
2.0
 40
3.0
 40
3.0
 40
3.0
 40
4.0
 40
4.0
 40
4.0
 40
5.0
 40
5.0
 40
5.0
 40
6.0
 40
6.0
 40
6.0
 40
7.0
 40
7.0
 40
7.0
 40
8.0
 40
8.0
 40
8.0
 40
9.0
 40
9.0
 40
9.0
 40
10.0
 40
10.0
 40
10.0
 40
11.0
 40
11.0
 40
11.0
 40
12.0
 40
12.0
 40
12.0
 40
13.0
 40
13.0
 40
13.0
 40
14.0
 40
14.0
 40
14.0
 40
15.0
 40
15.0
 40
15.0
 40
16.0
 40
16.0
 40
16.0
 40
17.0
 40
17.0
 40
17.0
 40
18.0
 40
18.0
 40
18.0
 40
19.0
 40
19.0
 40
19.0
 40
20.0
 40
20.0
 40
20.0
 40
21.0
 40
21.0
 40
21.0
 40
22.0
 40
22.0
 40
22.0
 40
22.0
 10
736.0761418683364
 20
382.8123726691869
 30
0.0
 10
756.7439723379001
 20
403.4805476485265
 30
0.0
 10
734.2805569168868
 20
407.66961426732
 30
0.0
 10
724.739014166436
 20
404.8630653787965
 30
0.0
 10
721.7872544074145
 20
403.9947284889022
 30
0.0
 10
717.2452375233178
 20
403.5275732329226
 30
0.0
 10
712.5785081003829
 20
403.4591880424271
 30
0.0
 10
712.5785081003829
 20
403.4591880424271
 30
0.0
 10
712.5785081003829
 20
382.1316213522136
 30
0.0
 10
712.5785081003829
 20
382.1316213522136
 30
0.0
 10
712.5785081003829
 20
382.1316213522136
 30
0.0
 10
710.18003104129
 20
382.1316213522136
 30
0.0
 10
710.18003104129
 20
382.1316213522136
 30
0.0
 10
710.18003104129
 20
382.1316213522136
 30
0.0
 10
710.18003104129
 20
403.4591880424271
 30
0.0
 10
710.18003104129
 20
403.4591880424271
 30
0.0
 10
705.5133016183551
 20
403.5275732329226
 30
0.0
 10
700.9712847342583
 20
403.9947284889022
 30
0.0
 10
698.0202139947884
 20
404.8630653787965
 30
0.0
 10
688.4786712443378
 20
407.66961426732
 30
0.0
 10
666.0145668037727
 20
403.4805476485265
 30
0.0
 10
686.6830862928881
 20
382.8123726691869
 30
0.0
 10
686.6830862928881
 20
382.8123726691869
 30
0.0
 10
656.5915354161959
 20
398.7059866657673
 30
0.0
 10
664.0439708862186
 20
362.87662547319
 30
0.0
 10
664.0439708862186
 20
362.87662547319
 30
0.0
 10
674.7113715839712
 20
362.8215039090626
 30
0.0
 10
674.7113715839712
 20
362.8215039090626
 30
0.0
 10
674.7113715839712
 20
362.8215039090626
 30
0.0
 10
674.7113715839712
 20
354.2755944106628
 30
0.0
 10
674.7113715839712
 20
354.2755944106628
 30
0.0
 10
674.7113715839712
 20
354.2755944106628
 30
0.0
 10
689.6589617362154
 20
354.2294301007062
 30
0.0
 10
689.6589617362154
 20
354.2294301007062
 30
0.0
 10
689.6589617362154
 20
354.2294301007062
 30
0.0
 10
689.6589617362154
 20
362.7746505795543
 30
0.0
 10
689.6589617362154
 20
362.7746505795543
 30
0.0
 10
689.6589617362154
 20
362.7746505795543
 30
0.0
 10
692.3054858338816
 20
362.749845875697
 30
0.0
 10
692.3054858338816
 20
362.749845875697
 30
0.0
 10
692.3054858338816
 20
362.749845875697
 30
0.0
 10
710.18003104129
 20
362.749845875697
 30
0.0
 10
710.18003104129
 20
362.749845875697
 30
0.0
 10
710.18003104129
 20
362.749845875697
 30
0.0
 10
712.5785081003829
 20
362.749845875697
 30
0.0
 10
712.5785081003829
 20
362.749845875697
 30
0.0
 10
712.5785081003829
 20
362.749845875697
 30
0.0
 10
730.4530533077914
 20
362.749845875697
 30
0.0
 10
730.4530533077914
 20
362.749845875697
 30
0.0
 10
730.4530533077914
 20
362.749845875697
 30
0.0
 10
733.1002664250091
 20
362.7746505795543
 30
0.0
 10
733.1002664250091
 20
362.7746505795543
 30
0.0
 10
733.1002664250091
 20
362.7746505795543
 30
0.0
 10
733.1002664250091
 20
354.2294301007062
 30
0.0
 10
733.1002664250091
 20
354.2294301007062
 30
0.0
 10
733.1002664250091
 20
354.2294301007062
 30
0.0
 10
748.0478565772532
 20
354.2755944106628
 30
0.0
 10
748.0478565772532
 20
354.2755944106628
 30
0.0
 10
748.0478565772532
 20
354.2755944106628
 30
0.0
 10
748.0478565772532
 20
362.8215039090626
 30
0.0
 10
748.0478565772532
 20
362.8215039090626
 30
0.0
 10
748.0478565772532
 20
362.8215039090626
 30
0.0
 10
758.7152572750058
 20
362.87662547319
 30
0.0
 10
758.7152572750058
 20
362.87662547319
 30
0.0
 10
766.1676927450286
 20
398.7059866657673
 30
0.0
 10
736.0761418683364
 20
382.8123726691869
 30
0.0
 10
736.0761418683364
 20
382.8123726691869
 30
0.0
  0
SPLINE
  5
246
330
1F
100
AcDbEntity
  8
Layer 1
 62
     7
420
 16777215
370
    70
100
AcDbSpline
210
0.0
220
0.0
230
1.0
 70
    11
 71
     3
 72
    26
 73
    22
 74
     0
 42
0.0000000001
 43
0.0000000001
 40
0.0
 40
0.0
 40
0.0
 40
0.0
 40
1.0
 40
1.0
 40
1.0
 40
2.0
 40
2.0
 40
2.0
 40
3.0
 40
3.0
 40
3.0
 40
4.0
 40
4.0
 40
4.0
 40
5.0
 40
5.0
 40
5.0
 40
6.0
 40
6.0
 40
6.0
 40
7.0
 40
7.0
 40
7.0
 40
7.0
 10
617.536529192839
 20
441.2925626008108
 30
0.0
 10
617.536529192839
 20
441.2925626008108
 30
0.0
 10
617.536529192839
 20
468.2416675575782
 30
0.0
 10
617.536529192839
 20
468.2416675575782
 30
0.0
 10
617.536529192839
 20
468.2416675575782
 30
0.0
 10
618.3461271659601
 20
470.6814857897667
 30
0.0
 10
616.3610618378225
 20
471.7765101121348
 30
0.0
 10
623.2298977476465
 20
495.2178165317456
 30
0.0
 10
598.9187041441504
 20
503.1429194141606
 30
0.0
 10
598.9187041441504
 20
503.1429194141606
 30
0.0
 10
598.9187041441504
 20
503.1429194141606
 30
0.0
 10
574.6075105406542
 20
495.2178165317456
 30
0.0
 10
581.4761741955904
 20
471.7765101121348
 30
0.0
 10
579.4916256321166
 20
470.6814857897667
 30
0.0
 10
580.3007068405739
 20
468.2416675575782
 30
0.0
 10
580.3007068405739
 20
468.2416675575782
 30
0.0
 10
580.3007068405739
 20
468.2416675575782
 30
0.0
 10
580.3007068405739
 20
441.2925626008108
 30
0.0
 10
580.3007068405739
 20
441.2925626008108
 30
0.0
 10
580.3007068405739
 20
441.2925626008108
 30
0.0
 10
617.536529192839
 20
441.2925626008108
 30
0.0
 10
617.536529192839
 20
441.2925626008108
 30
0.0
  0
SPLINE
  5
247
330
1F
100
AcDbEntity
  8
Layer 1
 62
     7
420
 16777215
370
    70
100
AcDbSpline
210
0.0
220
0.0
230
1.0
 70
    11
 71
     3
 72
    26
 73
    22
 74
     0
 42
0.0000000001
 43
0.0000000001
 40
0.0
 40
0.0
 40
0.0
 40
0.0
 40
1.0
 40
1.0
 40
1.0
 40
2.0
 40
2.0
 40
2.0
 40
3.0
 40
3.0
 40
3.0
 40
4.0
 40
4.0
 40
4.0
 40
5.0
 40
5.0
 40
5.0
 40
6.0
 40
6.0
 40
6.0
 40
7.0
 40
7.0
 40
7.0
 40
7.0
 10
493.0832339609125
 20
441.2925626008108
 30
0.0
 10
493.0832339609125
 20
441.2925626008108
 30
0.0
 10
493.0832339609125
 20
468.2416675575782
 30
0.0
 10
493.0832339609125
 20
468.2416675575782
 30
0.0
 10
493.0832339609125
 20
468.2416675575782
 30
0.0
 10
493.892142914482
 20
470.6814857897667
 30
0.0
 10
491.9075943510081
 20
471.7765101121348
 30
0.0
 10
498.7760857510563
 20
495.2178165317456
 30
0.0
 10
474.4648921475602
 20
503.1429194141606
 30
0.0
 10
474.4648921475602
 20
503.1429194141606
 30
0.0
 10
474.4648921475602
 20
503.1429194141606
 30
0.0
 10
450.1538707989519
 20
495.2178165317456
 30
0.0
 10
457.0225344538881
 20
471.7765101121348
 30
0.0
 10
455.0379858904142
 20
470.6814857897667
 30
0.0
 10
455.8468948439836
 20
468.2416675575782
 30
0.0
 10
455.8468948439836
 20
468.2416675575782
 30
0.0
 10
455.8468948439836
 20
468.2416675575782
 30
0.0
 10
455.8468948439836
 20
441.2925626008108
 30
0.0
 10
455.8468948439836
 20
441.2925626008108
 30
0.0
 10
455.8468948439836
 20
441.2925626008108
 30
0.0
 10
493.0832339609125
 20
441.2925626008108
 30
0.0
 10
493.0832339609125
 20
441.2925626008108
 30
0.0
  0
ENDSEC
  0
SECTION
  2
OBJECTS
  0
DICTIONARY
  5
C
330
0
100
AcDbDictionary
281
     1
  3
ACAD_GROUP
350
D
  3
ACAD_LAYOUT
350
1A
  3
ACAD_MLINESTYLE
350
17
  3
ACAD_PLOTSETTINGS
350
19
  3
ACAD_PLOTSTYLENAME
350
E
  3
ACAD_TABLESTYLE
350
248
  3
ACAD_VISUALSTYLE
350
2A
  0
DICTIONARY
  5
D
102
{ACAD_REACTORS
330
C
102
}
330
C
100
AcDbDictionary
281
     1
  0
DICTIONARY
  5
1A
102
{ACAD_REACTORS
330
C
102
}
330
C
100
AcDbDictionary
281
     1
  3
Layout1
350
1E
  3
Layout2
350
26
  3
Model
350
22
  0
DICTIONARY
  5
17
102
{ACAD_REACTORS
330
C
102
}
330
C
100
AcDbDictionary
281
     1
  3
Standard
350
18
  0
DICTIONARY
  5
19
102
{ACAD_REACTORS
330
C
102
}
330
C
100
AcDbDictionary
281
     1
  0
ACDBDICTIONARYWDFLT
  5
E
102
{ACAD_REACTORS
330
C
102
}
330
C
100
AcDbDictionary
281
     1
  3
Normal
350
F
100
AcDbDictionaryWithDefault
340
F
  0
DICTIONARY
  5
248
102
{ACAD_REACTORS
330
C
102
}
330
C
100
AcDbDictionary
281
     1
  0
DICTIONARY
  5
2A
102
{ACAD_REACTORS
330
C
102
}
330
C
100
AcDbDictionary
281
     1
  3
2dWireframe
350
2F
  3
3D Hidden
350
31
  3
3dWireframe
350
30
  3
Basic
350
32
  3
Brighten
350
36
  3
ColorChange
350
3A
  3
Conceptual
350
34
  3
Dim
350
35
  3
Facepattern
350
39
  3
Flat
350
2B
  3
FlatWithEdges
350
2C
  3
Gouraud
350
2D
  3
GouraudWithEdges
350
2E
  3
Linepattern
350
38
  3
Realistic
350
33
  3
Thicken
350
37
  0
LAYOUT
  5
1E
102
{ACAD_REACTORS
330
1A
102
}
330
1A
100
AcDbPlotSettings
  1

  2
none_device
  4

  6

 40
0.0
 41
0.0
 42
0.0
 43
0.0
 44
0.0
 45
0.0
 46
0.0
 47
0.0
 48
0.0
 49
0.0
140
0.0
141
0.0
142
1.0
143
1.0
 70
   688
 72
     0
 73
     0
 74
     5
  7

 75
    16
 76
     0
 77
     2
 78
   300
147
1.0
148
0.0
149
0.0
100
AcDbLayout
  1
Layout1
 70
     1
 71
     1
 10
0.0
 20
0.0
 11
12.0
 21
9.0
 12
0.0
 22
0.0
 32
0.0
 14
1.000000000000000E+20
 24
1.000000000000000E+20
 34
1.000000000000000E+20
 15
-1.000000000000000E+20
 25
-1.000000000000000E+20
 35
-1.000000000000000E+20
146
0.0
 13
0.0
 23
0.0
 33
0.0
 16
1.0
 26
0.0
 36
0.0
 17
0.0
 27
1.0
 37
0.0
 76
     0
330
1B
  0
LAYOUT
  5
26
102
{ACAD_REACTORS
330
1A
102
}
330
1A
100
AcDbPlotSettings
  1

  2
none_device
  4

  6

 40
0.0
 41
0.0
 42
0.0
 43
0.0
 44
0.0
 45
0.0
 46
0.0
 47
0.0
 48
0.0
 49
0.0
140
0.0
141
0.0
142
1.0
143
1.0
 70
   688
 72
     0
 73
     0
 74
     5
  7

 75
    16
 76
     0
 77
     2
 78
   300
147
1.0
148
0.0
149
0.0
100
AcDbLayout
  1
Layout2
 70
     1
 71
     2
 10
0.0
 20
0.0
 11
0.0
 21
0.0
 12
0.0
 22
0.0
 32
0.0
 14
0.0
 24
0.0
 34
0.0
 15
0.0
 25
0.0
 35
0.0
146
0.0
 13
0.0
 23
0.0
 33
0.0
 16
1.0
 26
0.0
 36
0.0
 17
0.0
 27
1.0
 37
0.0
 76
     0
330
23
  0
LAYOUT
  5
22
102
{ACAD_REACTORS
330
1A
102
}
330
1A
100
AcDbPlotSettings
  1

  2
none_device
  4

  6

 40
0.0
 41
0.0
 42
0.0
 43
0.0
 44
0.0
 45
0.0
 46
0.0
 47
0.0
 48
0.0
 49
0.0
140
0.0
141
0.0
142
1.0
143
1.0
 70
  1712
 72
     0
 73
     0
 74
     0
  7

 75
     0
 76
     0
 77
     2
 78
   300
147
1.0
148
0.0
149
0.0
100
AcDbLayout
  1
Model
 70
     1
 71
     0
 10
0.0
 20
0.0
 11
12.0
 21
9.0
 12
0.0
 22
0.0
 32
0.0
 14
1.000000000000000E+20
 24
1.000000000000000E+20
 34
1.000000000000000E+20
 15
-1.000000000000000E+20
 25
-1.000000000000000E+20
 35
-1.000000000000000E+20
146
0.0
 13
0.0
 23
0.0
 33
0.0
 16
1.0
 26
0.0
 36
0.0
 17
0.0
 27
1.0
 37
0.0
 76
     0
330
1F
331
29
  0
MLINESTYLE
  5
18
102
{ACAD_REACTORS
330
17
102
}
330
17
100
AcDbMlineStyle
  2
Standard
 70
     0
  3

 62
   256
 51
90.0
 52
90.0
 71
     2
 49
0.5
 62
   256
  6
BYLAYER
 49
-0.5
 62
   256
  6
BYLAYER
  0
ACDBPLACEHOLDER
  5
F
102
{ACAD_REACTORS
330
E
102
}
330
E
  0
VISUALSTYLE
  5
2F
102
{ACAD_REACTORS
330
2A
102
}
330
2A
100
AcDbVisualStyle
  2
2dWireframe
 70
     4
 71
     0
 72
     2
 73
     0
 90
        0
 40
-0.6
 41
-30.0
 62
     5
 63
     7
421
 16777215
 74
     1
 91
        4
 64
     7
 65
   257
 75
     1
175
     1
 42
1.0
 92
        0
 66
   257
 43
1.0
 76
     1
 77
     6
 78
     2
 67
     7
 79
     5
170
     0
171
     0
290
     0
174
     0
 93
        1
 44
0.0
173
     0
291
     0
 45
0.0
1001
ACAD
1000
AcDbSavedByObjectVersion
1070
     0
  0
VISUALSTYLE
  5
31
102
{ACAD_REACTORS
330
2A
102
}
330
2A
100
AcDbVisualStyle
  2
3D Hidden
 70
     6
 71
     1
 72
     2
 73
     2
 90
        0
 40
-0.6
 41
-30.0
 62
     5
 63
     7
421
 16777215
 74
     2
 91
        2
 64
     7
 65
   257
 75
     2
175
     1
 42
40.0
 92
        0
 66
   257
 43
1.0
 76
     1
 77
     6
 78
     2
 67
     7
 79
     3
170
     0
171
     0
290
     0
174
     0
 93
        1
 44
0.0
173
     0
291
     0
 45
0.0
1001
ACAD
1000
AcDbSavedByObjectVersion
1070
     0
  0
VISUALSTYLE
  5
30
102
{ACAD_REACTORS
330
2A
102
}
330
2A
100
AcDbVisualStyle
  2
3dWireframe
 70
     5
 71
     0
 72
     2
 73
     0
 90
        0
 40
-0.6
 41
-30.0
 62
     5
 63
     7
421
 16777215
 74
     1
 91
        4
 64
     7
 65
   257
 75
     1
175
     1
 42
1.0
 92
        0
 66
   257
 43
1.0
 76
     1
 77
     6
 78
     2
 67
     7
 79
     5
170
     0
171
     0
290
     0
174
     0
 93
        1
 44
0.0
173
     0
291
     0
 45
0.0
1001
ACAD
1000
AcDbSavedByObjectVersion
1070
     0
  0
VISUALSTYLE
  5
32
102
{ACAD_REACTORS
330
2A
102
}
330
2A
100
AcDbVisualStyle
  2
Basic
 70
     7
 71
     1
 72
     0
 73
     1
 90
        0
 40
-0.6
 41
-30.0
 62
     5
 63
     7
421
 16777215
 74
     0
 91
        4
 64
     7
 65
   257
 75
     1
175
     1
 42
1.0
 92
        8
 66
     7
 43
1.0
 76
     1
 77
     6
 78
     2
 67
     7
 79
     5
170
     0
171
     0
290
     0
174
     0
 93
        1
 44
0.0
173
     0
291
     1
 45
0.0
1001
ACAD
1000
AcDbSavedByObjectVersion
1070
     0
  0
VISUALSTYLE
  5
36
102
{ACAD_REACTORS
330
2A
102
}
330
2A
100
AcDbVisualStyle
  2
Brighten
 70
    12
 71
     2
 72
     2
 73
     0
 90
        0
 40
-0.6
 41
-30.0
 62
     5
 63
     7
421
 16777215
 74
     1
 91
        4
 64
     7
 65
   257
 75
     1
175
     1
 42
1.0
 92
        8
 66
     7
 43
1.0
 76
     1
 77
     6
 78
     2
 67
     7
 79
     5
170
     0
171
     0
290
     0
174
     0
 93
        1
 44
50.0
173
     0
291
     1
 45
0.0
1001
ACAD
1000
AcDbSavedByObjectVersion
1070
     0
  0
VISUALSTYLE
  5
3A
102
{ACAD_REACTORS
330
2A
102
}
330
2A
100
AcDbVisualStyle
  2
ColorChange
 70
    16
 71
     2
 72
     2
 73
     3
 90
        0
 40
-0.6
 41
-30.0
 62
     5
 63
     8
421
  8421504
 74
     1
 91
        4
 64
     7
 65
   257
 75
     1
175
     1
 42
1.0
 92
        8
 66
     8
424
  8421504
 43
1.0
 76
     1
 77
     6
 78
     2
 67
     7
 79
     5
170
     0
171
     0
290
     0
174
     0
 93
        1
 44
0.0
173
     0
291
     1
 45
0.0
1001
ACAD
1000
AcDbSavedByObjectVersion
1070
     0
  0
VISUALSTYLE
  5
34
102
{ACAD_REACTORS
330
2A
102
}
330
2A
100
AcDbVisualStyle
  2
Conceptual
 70
     9
 71
     3
 72
     2
 73
     0
 90
        0
 40
-0.6
 41
-30.0
 62
     5
 63
     7
421
 16777215
 74
     2
 91
        2
 64
     7
 65
   257
 75
     1
175
     1
 42
40.0
 92
        8
 66
     7
 43
1.0
 76
     1
 77
     6
 78
     2
 67
     7
 79
     3
170
     0
171
     0
290
     0
174
     0
 93
        1
 44
0.0
173
     0
291
     0
 45
0.0
1001
ACAD
1000
AcDbSavedByObjectVersion
1070
     0
  0
VISUALSTYLE
  5
35
102
{ACAD_REACTORS
330
2A
102
}
330
2A
100
AcDbVisualStyle
  2
Dim
 70
    11
 71
     2
 72
     2
 73
     0
 90
        0
 40
-0.6
 41
-30.0
 62
     5
 63
     7
421
 16777215
 74
     1
 91
        4
 64
     7
 65
   257
 75
     1
175
     1
 42
1.0
 92
        8
 66
     7
 43
1.0
 76
     1
 77
     6
 78
     2
 67
     7
 79
     5
170
     0
171
     0
290
     0
174
     0
 93
        1
 44
-50.0
173
     0
291
     1
 45
0.0
1001
ACAD
1000
AcDbSavedByObjectVersion
1070
     0
  0
VISUALSTYLE
  5
39
102
{ACAD_REACTORS
330
2A
102
}
330
2A
100
AcDbVisualStyle
  2
Facepattern
 70
    15
 71
     2
 72
     2
 73
     0
 90
        0
 40
-0.6
 41
-30.0
 62
     5
 63
     7
421
 16777215
 74
     1
 91
        4
 64
     7
 65
   257
 75
     1
175
     1
 42
1.0
 92
        8
 66
     7
 43
1.0
 76
     1
 77
     6
 78
     2
 67
     7
 79
     5
170
     0
171
     0
290
     0
174
     0
 93
        1
 44
0.0
173
     0
291
     1
 45
0.0
1001
ACAD
1000
AcDbSavedByObjectVersion
1070
     0
  0
VISUALSTYLE
  5
2B
102
{ACAD_REACTORS
330
2A
102
}
330
2A
100
AcDbVisualStyle
  2
Flat
 70
     0
 71
     2
 72
     1
 73
     1
 90
        2
 40
-0.6
 41
30.0
 62
     5
 63
     7
421
 16777215
 74
     0
 91
        4
 64
     7
 65
   257
 75
     1
175
     1
 42
1.0
 92
        8
 66
     7
 43
1.0
 76
     1
 77
     6
 78
     2
 67
     7
 79
     5
170
     0
171
     0
290
     0
174
     0
 93
       13
 44
0.0
173
     0
291
     1
 45
0.0
1001
ACAD
1000
AcDbSavedByObjectVersion
1070
     0
  0
VISUALSTYLE
  5
2C
102
{ACAD_REACTORS
330
2A
102
}
330
2A
100
AcDbVisualStyle
  2
FlatWithEdges
 70
     1
 71
     2
 72
     1
 73
     1
 90
        2
 40
-0.6
 41
30.0
 62
     5
 63
     7
421
 16777215
 74
     1
 91
        4
 64
     7
 65
   257
 75
     1
175
     1
 42
1.0
 92
        0
 66
   257
 43
1.0
 76
     1
 77
     6
 78
     2
 67
     7
 79
     5
170
     0
171
     0
290
     0
174
     0
 93
       13
 44
0.0
173
     0
291
     1
 45
0.0
1001
ACAD
1000
AcDbSavedByObjectVersion
1070
     0
  0
VISUALSTYLE
  5
2D
102
{ACAD_REACTORS
330
2A
102
}
330
2A
100
AcDbVisualStyle
  2
Gouraud
 70
     2
 71
     2
 72
     2
 73
     1
 90
        2
 40
-0.6
 41
30.0
 62
     5
 63
     7
421
 16777215
 74
     0
 91
        4
 64
     7
 65
   257
 75
     1
175
     1
 42
1.0
 92
        0
 66
     7
 43
1.0
 76
     1
 77
     6
 78
     2
 67
     7
 79
     5
170
     0
171
     0
290
     0
174
     0
 93
       13
 44
0.0
173
     0
291
     1
 45
0.0
1001
ACAD
1000
AcDbSavedByObjectVersion
1070
     0
  0
VISUALSTYLE
  5
2E
102
{ACAD_REACTORS
330
2A
102
}
330
2A
100
AcDbVisualStyle
  2
GouraudWithEdges
 70
     3
 71
     2
 72
     2
 73
     1
 90
        2
 40
-0.6
 41
30.0
 62
     5
 63
     7
421
 16777215
 74
     1
 91
        4
 64
     7
 65
   257
 75
     1
175
     1
 42
1.0
 92
        0
 66
   257
 43
1.0
 76
     1
 77
     6
 78
     2
 67
     7
 79
     5
170
     0
171
     0
290
     0
174
     0
 93
       13
 44
0.0
173
     0
291
     1
 45
0.0
1001
ACAD
1000
AcDbSavedByObjectVersion
1070
     0
  0
VISUALSTYLE
  5
38
102
{ACAD_REACTORS
330
2A
102
}
330
2A
100
AcDbVisualStyle
  2
Linepattern
 70
    14
 71
     2
 72
     2
 73
     0
 90
        0
 40
-0.6
 41
-30.0
 62
     5
 63
     7
421
 16777215
 74
     1
 91
        4
 64
     7
 65
   257
 75
     7
175
     7
 42
1.0
 92
        8
 66
     7
 43
1.0
 76
     1
 77
     6
 78
     2
 67
     7
 79
     5
170
     0
171
     0
290
     0
174
     0
 93
        1
 44
0.0
173
     0
291
     1
 45
0.0
1001
ACAD
1000
AcDbSavedByObjectVersion
1070
     0
  0
VISUALSTYLE
  5
33
102
{ACAD_REACTORS
330
2A
102
}
330
2A
100
AcDbVisualStyle
  2
Realistic
 70
     8
 71
     2
 72
     2
 73
     0
 90
        0
 40
-0.6
 41
-30.0
 62
     5
 63
     7
421
 16777215
 74
     1
 91
        0
 64
     7
 65
   257
 75
     1
175
     1
 42
1.0
 92
        8
 66
     8
424
  7895160
 43
1.0
 76
     1
 77
     6
 78
     2
 67
     7
 79
     5
170
     0
171
     0
290
     0
174
     0
 93
       13
 44
0.0
173
     0
291
     0
 45
0.0
1001
ACAD
1000
AcDbSavedByObjectVersion
1070
     0
  0
VISUALSTYLE
  5
37
102
{ACAD_REACTORS
330
2A
102
}
330
2A
100
AcDbVisualStyle
  2
Thicken
 70
    13
 71
     2
 72
     2
 73
     0
 90
        0
 40
-0.6
 41
-30.0
 62
     5
 63
     7
421
 16777215
 74
     1
 91
        4
 64
     7
 65
   257
 75
     1
175
     1
 42
1.0
 92
       12
 66
     7
 43
1.0
 76
     1
 77
     6
 78
     2
 67
     7
 79
     5
170
     0
171
     0
290
     0
174
     0
 93
        1
 44
0.0
173
     0
291
     1
 45
0.0
1001
ACAD
1000
AcDbSavedByObjectVersion
1070
     0
  0
ENDSEC
  0
EOF
