  0
SECTION
  2
HEADER
  9
$ACADVER
  1
AC1021
  9
$ACADMAINTVER
 70
    25
  9
$DWGCODEPAGE
  3
ANSI_1250
  9
$INSBASE
 10
0.0
 20
0.0
 30
0.0
  9
$EXTMIN
 10
-119.2387
 20
-109.2647
 30
0.0
  9
$EXTMAX
 10
118.8945
 20
106.1798
 30
0.0
  9
$LIMMIN
 10
0.0
 20
0.0
  9
$LIMMAX
 10
12.0
 20
9.0
  9
$ORTHOMODE
 70
     0
  9
$REGENMODE
 70
     1
  9
$FILLMODE
 70
     1
  9
$QTEXTMODE
 70
     0
  9
$MIRRTEXT
 70
     1
  9
$LTSCALE
 40
1.0
  9
$ATTMODE
 70
     1
  9
$TEXTSIZE
 40
0.2
  9
$TRACEWID
 40
0.05
  9
$TEXTSTYLE
  7
Standard
  9
$CLAYER
  8
0
  9
$CELTYPE
  6
ByLayer
  9
$CECOLOR
 62
   256
  9
$CELTSCALE
 40
1.0
  9
$DISPSILH
 70
     0
  9
$DIMSCALE
 40
1.0
  9
$DIMASZ
 40
0.18
  9
$DIMEXO
 40
0.0625
  9
$DIMDLI
 40
0.38
  9
$DIMRND
 40
0.0
  9
$DIMDLE
 40
0.0
  9
$DIMEXE
 40
0.18
  9
$DIMTP
 40
0.0
  9
$DIMTM
 40
0.0
  9
$DIMTXT
 40
0.18
  9
$DIMCEN
 40
0.09
  9
$DIMTSZ
 40
0.0
  9
$DIMTOL
 70
     0
  9
$DIMLIM
 70
     0
  9
$DIMTIH
 70
     1
  9
$DIMTOH
 70
     1
  9
$DIMSE1
 70
     0
  9
$DIMSE2
 70
     0
  9
$DIMTAD
 70
     0
  9
$DIMZIN
 70
     0
  9
$DIMBLK
  1

  9
$DIMASO
 70
     1
  9
$DIMSHO
 70
     1
  9
$DIMPOST
  1

  9
$DIMAPOST
  1

  9
$DIMALT
 70
     0
  9
$DIMALTD
 70
     2
  9
$DIMALTF
 40
25.4
  9
$DIMLFAC
 40
1.0
  9
$DIMTOFL
 70
     0
  9
$DIMTVP
 40
0.0
  9
$DIMTIX
 70
     0
  9
$DIMSOXD
 70
     0
  9
$DIMSAH
 70
     0
  9
$DIMBLK1
  1

  9
$DIMBLK2
  1

  9
$DIMSTYLE
  2
Standard
  9
$DIMCLRD
 70
     0
  9
$DIMCLRE
 70
     0
  9
$DIMCLRT
 70
     0
  9
$DIMTFAC
 40
1.0
  9
$DIMGAP
 40
0.09
  9
$DIMJUST
 70
     0
  9
$DIMSD1
 70
     0
  9
$DIMSD2
 70
     0
  9
$DIMTOLJ
 70
     1
  9
$DIMTZIN
 70
     0
  9
$DIMALTZ
 70
     0
  9
$DIMALTTZ
 70
     0
  9
$DIMUPT
 70
     0
  9
$DIMDEC
 70
     4
  9
$DIMTDEC
 70
     4
  9
$DIMALTU
 70
     2
  9
$DIMALTTD
 70
     2
  9
$DIMTXSTY
  7
Standard
  9
$DIMAUNIT
 70
     0
  9
$DIMADEC
 70
     0
  9
$DIMALTRND
 40
0.0
  9
$DIMAZIN
 70
     0
  9
$DIMDSEP
 70
    46
  9
$DIMATFIT
 70
     3
  9
$DIMFRAC
 70
     0
  9
$DIMLDRBLK
  1

  9
$DIMLUNIT
 70
     2
  9
$DIMLWD
 70
    -2
  9
$DIMLWE
 70
    -2
  9
$DIMTMOVE
 70
     0
  9
$DIMFXL
 40
1.0
  9
$DIMFXLON
 70
     0
  9
$DIMJOGANG
 40
0.7853981633974483
  9
$DIMTFILL
 70
     0
  9
$DIMTFILLCLR
 70
     0
  9
$DIMARCSYM
 70
     0
  9
$DIMLTYPE
  6

  9
$DIMLTEX1
  6

  9
$DIMLTEX2
  6

  9
$LUNITS
 70
     2
  9
$LUPREC
 70
     4
  9
$SKETCHINC
 40
0.1
  9
$FILLETRAD
 40
0.5
  9
$AUNITS
 70
     0
  9
$AUPREC
 70
     0
  9
$MENU
  1
.
  9
$ELEVATION
 40
0.0
  9
$PELEVATION
 40
0.0
  9
$THICKNESS
 40
0.0
  9
$LIMCHECK
 70
     0
  9
$CHAMFERA
 40
0.5
  9
$CHAMFERB
 40
0.5
  9
$CHAMFERC
 40
1.0
  9
$CHAMFERD
 40
0.0
  9
$SKPOLY
 70
     0
  9
$TDCREATE
 40
2457433.752150613
  9
$TDUCREATE
 40
2457433.710483947
  9
$TDUPDATE
 40
2457433.752150625
  9
$TDUUPDATE
 40
2457433.710483958
  9
$TDINDWG
 40
0.0000000116
  9
$TDUSRTIMER
 40
0.0000000116
  9
$USRTIMER
 70
     1
  9
$ANGBASE
 50
0.0
  9
$ANGDIR
 70
     0
  9
$PDMODE
 70
     0
  9
$PDSIZE
 40
0.0
  9
$PLINEWID
 40
0.0
  9
$SPLFRAME
 70
     0
  9
$SPLINETYPE
 70
     6
  9
$SPLINESEGS
 70
     8
  9
$HANDSEED
  5
C0
  9
$SURFTAB1
 70
     6
  9
$SURFTAB2
 70
     6
  9
$SURFTYPE
 70
     6
  9
$SURFU
 70
     6
  9
$SURFV
 70
     6
  9
$UCSBASE
  2

  9
$UCSNAME
  2

  9
$UCSORG
 10
0.0
 20
0.0
 30
0.0
  9
$UCSXDIR
 10
1.0
 20
0.0
 30
0.0
  9
$UCSYDIR
 10
0.0
 20
1.0
 30
0.0
  9
$UCSORTHOREF
  2

  9
$UCSORTHOVIEW
 70
     0
  9
$UCSORGTOP
 10
0.0
 20
0.0
 30
0.0
  9
$UCSORGBOTTOM
 10
0.0
 20
0.0
 30
0.0
  9
$UCSORGLEFT
 10
0.0
 20
0.0
 30
0.0
  9
$UCSORGRIGHT
 10
0.0
 20
0.0
 30
0.0
  9
$UCSORGFRONT
 10
0.0
 20
0.0
 30
0.0
  9
$UCSORGBACK
 10
0.0
 20
0.0
 30
0.0
  9
$PUCSBASE
  2

  9
$PUCSNAME
  2

  9
$PUCSORG
 10
0.0
 20
0.0
 30
0.0
  9
$PUCSXDIR
 10
1.0
 20
0.0
 30
0.0
  9
$PUCSYDIR
 10
0.0
 20
1.0
 30
0.0
  9
$PUCSORTHOREF
  2

  9
$PUCSORTHOVIEW
 70
     0
  9
$PUCSORGTOP
 10
0.0
 20
0.0
 30
0.0
  9
$PUCSORGBOTTOM
 10
0.0
 20
0.0
 30
0.0
  9
$PUCSORGLEFT
 10
0.0
 20
0.0
 30
0.0
  9
$PUCSORGRIGHT
 10
0.0
 20
0.0
 30
0.0
  9
$PUCSORGFRONT
 10
0.0
 20
0.0
 30
0.0
  9
$PUCSORGBACK
 10
0.0
 20
0.0
 30
0.0
  9
$USERI1
 70
     0
  9
$USERI2
 70
     0
  9
$USERI3
 70
     0
  9
$USERI4
 70
     0
  9
$USERI5
 70
     0
  9
$USERR1
 40
0.0
  9
$USERR2
 40
0.0
  9
$USERR3
 40
0.0
  9
$USERR4
 40
0.0
  9
$USERR5
 40
0.0
  9
$WORLDVIEW
 70
     1
  9
$SHADEDGE
 70
     3
  9
$SHADEDIF
 70
    70
  9
$TILEMODE
 70
     1
  9
$MAXACTVP
 70
    64
  9
$PINSBASE
 10
0.0
 20
0.0
 30
0.0
  9
$PLIMCHECK
 70
     0
  9
$PEXTMIN
 10
1.000000000000000E+20
 20
1.000000000000000E+20
 30
1.000000000000000E+20
  9
$PEXTMAX
 10
-1.000000000000000E+20
 20
-1.000000000000000E+20
 30
-1.000000000000000E+20
  9
$PLIMMIN
 10
0.0
 20
0.0
  9
$PLIMMAX
 10
12.0
 20
9.0
  9
$UNITMODE
 70
     0
  9
$VISRETAIN
 70
     1
  9
$PLINEGEN
 70
     0
  9
$PSLTSCALE
 70
     1
  9
$TREEDEPTH
 70
  3020
  9
$CMLSTYLE
  2
Standard
  9
$CMLJUST
 70
     0
  9
$CMLSCALE
 40
1.0
  9
$PROXYGRAPHICS
 70
     1
  9
$MEASUREMENT
 70
     0
  9
$CELWEIGHT
370
    -1
  9
$ENDCAPS
280
     0
  9
$JOINSTYLE
280
     0
  9
$LWDISPLAY
290
     0
  9
$INSUNITS
 70
     4
  9
$HYPERLINKBASE
  1

  9
$STYLESHEET
  1

  9
$XEDIT
290
     1
  9
$CEPSNTYPE
380
     0
  9
$PSTYLEMODE
290
     1
  9
$FINGERPRINTGUID
  2
{F04D7FCF-C2E0-43C8-A330-A41E3249D4E0}
  9
$VERSIONGUID
  2
{FAEB1C32-E019-11D5-929B-00C0DF256EC4}
  9
$EXTNAMES
290
     1
  9
$PSVPSCALE
 40
0.0
  9
$OLESTARTUP
290
     0
  9
$SORTENTS
280
   127
  9
$INDEXCTL
280
     0
  9
$HIDETEXT
280
     1
  9
$XCLIPFRAME
290
     0
  9
$HALOGAP
280
     0
  9
$OBSCOLOR
 70
   257
  9
$OBSLTYPE
280
     0
  9
$INTERSECTIONDISPLAY
280
     0
  9
$INTERSECTIONCOLOR
 70
   257
  9
$DIMASSOC
280
     2
  9
$PROJECTNAME
  1

  9
$CAMERADISPLAY
290
     0
  9
$LENSLENGTH
 40
50.0
  9
$CAMERAHEIGHT
 40
0.0
  9
$STEPSPERSEC
 40
2.0
  9
$STEPSIZE
 40
6.0
  9
$3DDWFPREC
 40
2.0
  9
$PSOLWIDTH
 40
0.25
  9
$PSOLHEIGHT
 40
4.0
  9
$LOFTANG1
 40
1.570796326794897
  9
$LOFTANG2
 40
1.570796326794897
  9
$LOFTMAG1
 40
0.0
  9
$LOFTMAG2
 40
0.0
  9
$LOFTPARAM
 70
     7
  9
$LOFTNORMALS
280
     1
  9
$LATITUDE
 40
37.795
  9
$LONGITUDE
 40
-122.394
  9
$NORTHDIRECTION
 40
0.0
  9
$TIMEZONE
 70
 -8000
  9
$LIGHTGLYPHDISPLAY
280
     1
  9
$TILEMODELIGHTSYNCH
280
     1
  9
$SOLIDHIST
280
     1
  9
$SHOWHIST
280
     1
  9
$DWFFRAME
280
     2
  9
$DGNFRAME
280
     2
  9
$REALWORLDSCALE
290
     1
  9
$INTERFERECOLOR
 62
   256
  9
$CSHADOW
280
     0
  9
$SHADOWPLANELOCATION
 40
0.0
  0
ENDSEC
  0
SECTION
  2
CLASSES
  0
CLASS
  1
ACDBDICTIONARYWDFLT
  2
AcDbDictionaryWithDefault
  3
ObjectDBX Classes
 90
        0
 91
        4
280
     0
281
     0
  0
CLASS
  1
VISUALSTYLE
  2
AcDbVisualStyle
  3
ObjectDBX Classes
 90
     4095
 91
        4
280
     0
281
     0
  0
CLASS
  1
MATERIAL
  2
AcDbMaterial
  3
ObjectDBX Classes
 90
     1153
 91
        4
280
     0
281
     0
  0
ENDSEC
  0
SECTION
  2
TABLES
  0
TABLE
  2
VPORT
  5
8
330
0
100
AcDbSymbolTable
 70
     1
  0
VPORT
  5
29
330
8
100
AcDbSymbolTableRecord
100
AcDbViewportTableRecord
  2
*Active
 70
     0
 10
0.0
 20
0.0
 11
1.0
 21
1.0
 12
10.42990654205607
 22
4.5
 13
0.0
 23
0.0
 14
0.5
 24
0.5
 15
0.5
 25
0.5
 16
0.0
 26
0.0
 36
1.0
 17
0.0
 27
0.0
 37
0.0
 40
9.0
 41
1.972972972850329
 42
50.0
 43
0.0
 44
0.0
 50
0.0
 51
0.0
 71
     0
 72
   100
 73
     1
 74
     3
 75
     0
 76
     0
 77
     0
 78
     0
281
     0
 65
     1
110
0.0
120
0.0
130
0.0
111
1.0
121
0.0
131
0.0
112
0.0
122
1.0
132
0.0
 79
     0
146
0.0
 60
     3
 61
     5
292
     1
282
     1
141
0.0
142
0.0
 63
   250
  0
ENDTAB
  0
TABLE
  2
LTYPE
  5
5
330
0
100
AcDbSymbolTable
 70
     1
  0
LTYPE
  5
14
330
5
100
AcDbSymbolTableRecord
100
AcDbLinetypeTableRecord
  2
ByBlock
 70
     0
  3

 72
    65
 73
     0
 40
0.0
  0
LTYPE
  5
15
330
5
100
AcDbSymbolTableRecord
100
AcDbLinetypeTableRecord
  2
ByLayer
 70
     0
  3

 72
    65
 73
     0
 40
0.0
  0
LTYPE
  5
16
330
5
100
AcDbSymbolTableRecord
100
AcDbLinetypeTableRecord
  2
Continuous
 70
     0
  3
Solid line
 72
    65
 73
     0
 40
0.0
  0
ENDTAB
  0
TABLE
  2
LAYER
  5
2
330
0
100
AcDbSymbolTable
 70
     2
  0
LAYER
  5
10
330
2
100
AcDbSymbolTableRecord
100
AcDbLayerTableRecord
  2
0
 70
     0
 62
     7
  6
Continuous
370
    -3
390
F
347
3E
  0
LAYER
  5
40
330
2
100
AcDbSymbolTableRecord
100
AcDbLayerTableRecord
  2
#Layer 1
 70
     0
 62
     7
  6
Continuous
370
    -3
390
F
347
3E
  0
ENDTAB
  0
TABLE
  2
STYLE
  5
3
330
0
100
AcDbSymbolTable
 70
     1
  0
STYLE
  5
11
330
3
100
AcDbSymbolTableRecord
100
AcDbTextStyleTableRecord
  2
Standard
 70
     0
 40
0.0
 41
1.0
 50
0.0
 71
     0
 42
0.2
  3
txt
  4

  0
ENDTAB
  0
TABLE
  2
VIEW
  5
6
330
0
100
AcDbSymbolTable
 70
     0
  0
ENDTAB
  0
TABLE
  2
UCS
  5
7
330
0
100
AcDbSymbolTable
 70
     0
  0
ENDTAB
  0
TABLE
  2
APPID
  5
9
330
0
100
AcDbSymbolTable
 70
     2
  0
APPID
  5
12
330
9
100
AcDbSymbolTableRecord
100
AcDbRegAppTableRecord
  2
ACAD
 70
     0
  0
APPID
  5
3F
330
9
100
AcDbSymbolTableRecord
100
AcDbRegAppTableRecord
  2
ODA
 70
     0
  0
ENDTAB
  0
TABLE
  2
DIMSTYLE
  5
A
330
0
100
AcDbSymbolTable
 70
     1
100
AcDbDimStyleTable
  0
DIMSTYLE
105
27
330
A
100
AcDbSymbolTableRecord
100
AcDbDimStyleTableRecord
  2
Standard
 70
     0
178
     0
340
11
  0
ENDTAB
  0
TABLE
  2
BLOCK_RECORD
  5
1
330
0
100
AcDbSymbolTable
 70
     1
  0
BLOCK_RECORD
  5
1F
330
1
100
AcDbSymbolTableRecord
100
AcDbBlockTableRecord
  2
*Model_Space
340
22
 70
     0
280
     1
281
     0
  0
BLOCK_RECORD
  5
1B
330
1
100
AcDbSymbolTableRecord
100
AcDbBlockTableRecord
  2
*Paper_Space
340
1E
 70
     0
280
     1
281
     0
  0
BLOCK_RECORD
  5
23
330
1
100
AcDbSymbolTableRecord
100
AcDbBlockTableRecord
  2
*Paper_Space0
340
26
 70
     0
280
     1
281
     0
  0
ENDTAB
  0
ENDSEC
  0
SECTION
  2
BLOCKS
  0
BLOCK
  5
20
330
1F
100
AcDbEntity
  8
0
100
AcDbBlockBegin
  2
*Model_Space
 70
     0
 10
0.0
 20
0.0
 30
0.0
  3
*Model_Space
  1

  0
ENDBLK
  5
21
330
1F
100
AcDbEntity
  8
0
100
AcDbBlockEnd
  0
BLOCK
  5
1C
330
1B
100
AcDbEntity
 67
     1
  8
0
100
AcDbBlockBegin
  2
*Paper_Space
 70
     0
 10
0.0
 20
0.0
 30
0.0
  3
*Paper_Space
  1

  0
ENDBLK
  5
1D
330
1B
100
AcDbEntity
 67
     1
  8
0
100
AcDbBlockEnd
  0
BLOCK
  5
24
330
23
100
AcDbEntity
  8
0
100
AcDbBlockBegin
  2
*Paper_Space0
 70
     0
 10
0.0
 20
0.0
 30
0.0
  3
*Paper_Space0
  1

  0
ENDBLK
  5
25
330
23
100
AcDbEntity
  8
0
100
AcDbBlockEnd
  0
ENDSEC
  0
SECTION
  2
ENTITIES
  0
SPLINE
  5
41
330
1F
100
AcDbEntity
  8
#Layer 1
 62
   254
370
     9
100
AcDbSpline
210
0.0
220
0.0
230
1.0
 70
    24
 71
     3
 72
     8
 73
     4
 74
     0
 42
0.0000000001
 43
0.0000000001
 40
0.0
 40
0.0
 40
0.0
 40
0.0
 40
1.0
 40
1.0
 40
1.0
 40
1.0
 10
103.7015
 20
4.1598
 30
0.0
 10
103.7015
 20
4.1598
 30
0.0
 10
-71.0299
 20
4.1598
 30
0.0
 10
-71.0299
 20
4.1598
 30
0.0
  0
SPLINE
  5
42
330
1F
100
AcDbEntity
  8
#Layer 1
 62
   254
370
     9
100
AcDbSpline
210
0.0
220
0.0
230
1.0
 70
     8
 71
     3
 72
   420
 73
   416
 74
     0
 42
0.0000000001
 43
0.0000000001
 40
0.0
 40
0.0
 40
0.0
 40
0.0
 40
0.0095238095238095
 40
0.0095238095238095
 40
0.0095238095238095
 40
0.0095238095238095
 40
0.019047619047619
 40
0.019047619047619
 40
0.019047619047619
 40
0.019047619047619
 40
0.0285714285714286
 40
0.0285714285714286
 40
0.0285714285714286
 40
0.0285714285714286
 40
0.0380952380952381
 40
0.0380952380952381
 40
0.0380952380952381
 40
0.0380952380952381
 40
0.0476190476190476
 40
0.0476190476190476
 40
0.0476190476190476
 40
0.0476190476190476
 40
0.0571428571428571
 40
0.0571428571428571
 40
0.0571428571428571
 40
0.0571428571428571
 40
0.0666666666666667
 40
0.0666666666666667
 40
0.0666666666666667
 40
0.0666666666666667
 40
0.0761904761904762
 40
0.0761904761904762
 40
0.0761904761904762
 40
0.0761904761904762
 40
0.0857142857142857
 40
0.0857142857142857
 40
0.0857142857142857
 40
0.0857142857142857
 40
0.0952380952380952
 40
0.0952380952380952
 40
0.0952380952380952
 40
0.0952380952380952
 40
0.1047619047619048
 40
0.1047619047619048
 40
0.1047619047619048
 40
0.1047619047619048
 40
0.1142857142857143
 40
0.1142857142857143
 40
0.1142857142857143
 40
0.1142857142857143
 40
0.1238095238095238
 40
0.1238095238095238
 40
0.1238095238095238
 40
0.1238095238095238
 40
0.1333333333333333
 40
0.1333333333333333
 40
0.1333333333333333
 40
0.1333333333333333
 40
0.1428571428571428
 40
0.1428571428571428
 40
0.1428571428571428
 40
0.1428571428571428
 40
0.1523809523809524
 40
0.1523809523809524
 40
0.1523809523809524
 40
0.1523809523809524
 40
0.1619047619047619
 40
0.1619047619047619
 40
0.1619047619047619
 40
0.1619047619047619
 40
0.1714285714285714
 40
0.1714285714285714
 40
0.1714285714285714
 40
0.1714285714285714
 40
0.1809523809523809
 40
0.1809523809523809
 40
0.1809523809523809
 40
0.1809523809523809
 40
0.1904761904761905
 40
0.1904761904761905
 40
0.1904761904761905
 40
0.1904761904761905
 40
0.2
 40
0.2
 40
0.2
 40
0.2
 40
0.2095238095238095
 40
0.2095238095238095
 40
0.2095238095238095
 40
0.2095238095238095
 40
0.219047619047619
 40
0.219047619047619
 40
0.219047619047619
 40
0.219047619047619
 40
0.2285714285714286
 40
0.2285714285714286
 40
0.2285714285714286
 40
0.2285714285714286
 40
0.2380952380952381
 40
0.2380952380952381
 40
0.2380952380952381
 40
0.2380952380952381
 40
0.2476190476190476
 40
0.2476190476190476
 40
0.2476190476190476
 40
0.2476190476190476
 40
0.2571428571428571
 40
0.2571428571428571
 40
0.2571428571428571
 40
0.2571428571428571
 40
0.2666666666666667
 40
0.2666666666666667
 40
0.2666666666666667
 40
0.2666666666666667
 40
0.2761904761904762
 40
0.2761904761904762
 40
0.2761904761904762
 40
0.2761904761904762
 40
0.2857142857142857
 40
0.2857142857142857
 40
0.2857142857142857
 40
0.2857142857142857
 40
0.2952380952380952
 40
0.2952380952380952
 40
0.2952380952380952
 40
0.2952380952380952
 40
0.3047619047619048
 40
0.3047619047619048
 40
0.3047619047619048
 40
0.3047619047619048
 40
0.3142857142857143
 40
0.3142857142857143
 40
0.3142857142857143
 40
0.3142857142857143
 40
0.3238095238095238
 40
0.3238095238095238
 40
0.3238095238095238
 40
0.3238095238095238
 40
0.3333333333333333
 40
0.3333333333333333
 40
0.3333333333333333
 40
0.3333333333333333
 40
0.3428571428571429
 40
0.3428571428571429
 40
0.3428571428571429
 40
0.3428571428571429
 40
0.3523809523809524
 40
0.3523809523809524
 40
0.3523809523809524
 40
0.3523809523809524
 40
0.3619047619047619
 40
0.3619047619047619
 40
0.3619047619047619
 40
0.3619047619047619
 40
0.3714285714285714
 40
0.3714285714285714
 40
0.3714285714285714
 40
0.3714285714285714
 40
0.3809523809523809
 40
0.3809523809523809
 40
0.3809523809523809
 40
0.3809523809523809
 40
0.3904761904761905
 40
0.3904761904761905
 40
0.3904761904761905
 40
0.3904761904761905
 40
0.4
 40
0.4
 40
0.4
 40
0.4
 40
0.4095238095238095
 40
0.4095238095238095
 40
0.4095238095238095
 40
0.4095238095238095
 40
0.4190476190476191
 40
0.4190476190476191
 40
0.4190476190476191
 40
0.4190476190476191
 40
0.4285714285714285
 40
0.4285714285714285
 40
0.4285714285714285
 40
0.4285714285714285
 40
0.4380952380952381
 40
0.4380952380952381
 40
0.4380952380952381
 40
0.4380952380952381
 40
0.4476190476190476
 40
0.4476190476190476
 40
0.4476190476190476
 40
0.4476190476190476
 40
0.4571428571428571
 40
0.4571428571428571
 40
0.4571428571428571
 40
0.4571428571428571
 40
0.4666666666666667
 40
0.4666666666666667
 40
0.4666666666666667
 40
0.4666666666666667
 40
0.4761904761904762
 40
0.4761904761904762
 40
0.4761904761904762
 40
0.4761904761904762
 40
0.4857142857142857
 40
0.4857142857142857
 40
0.4857142857142857
 40
0.4857142857142857
 40
0.4952380952380953
 40
0.4952380952380953
 40
0.4952380952380953
 40
0.4952380952380953
 40
0.5047619047619047
 40
0.5047619047619047
 40
0.5047619047619047
 40
0.5047619047619047
 40
0.5142857142857142
 40
0.5142857142857142
 40
0.5142857142857142
 40
0.5142857142857142
 40
0.5238095238095238
 40
0.5238095238095238
 40
0.5238095238095238
 40
0.5238095238095238
 40
0.5333333333333333
 40
0.5333333333333333
 40
0.5333333333333333
 40
0.5333333333333333
 40
0.5428571428571428
 40
0.5428571428571428
 40
0.5428571428571428
 40
0.5428571428571428
 40
0.5523809523809524
 40
0.5523809523809524
 40
0.5523809523809524
 40
0.5523809523809524
 40
0.5619047619047619
 40
0.5619047619047619
 40
0.5619047619047619
 40
0.5619047619047619
 40
0.5714285714285714
 40
0.5714285714285714
 40
0.5714285714285714
 40
0.5714285714285714
 40
0.580952380952381
 40
0.580952380952381
 40
0.580952380952381
 40
0.580952380952381
 40
0.5904761904761905
 40
0.5904761904761905
 40
0.5904761904761905
 40
0.5904761904761905
 40
0.6
 40
0.6
 40
0.6
 40
0.6
 40
0.6095238095238096
 40
0.6095238095238096
 40
0.6095238095238096
 40
0.6095238095238096
 40
0.6190476190476191
 40
0.6190476190476191
 40
0.6190476190476191
 40
0.6190476190476191
 40
0.6285714285714286
 40
0.6285714285714286
 40
0.6285714285714286
 40
0.6285714285714286
 40
0.638095238095238
 40
0.638095238095238
 40
0.638095238095238
 40
0.638095238095238
 40
0.6476190476190476
 40
0.6476190476190476
 40
0.6476190476190476
 40
0.6476190476190476
 40
0.6571428571428571
 40
0.6571428571428571
 40
0.6571428571428571
 40
0.6571428571428571
 40
0.6666666666666666
 40
0.6666666666666666
 40
0.6666666666666666
 40
0.6666666666666666
 40
0.6761904761904762
 40
0.6761904761904762
 40
0.6761904761904762
 40
0.6761904761904762
 40
0.6857142857142857
 40
0.6857142857142857
 40
0.6857142857142857
 40
0.6857142857142857
 40
0.6952380952380952
 40
0.6952380952380952
 40
0.6952380952380952
 40
0.6952380952380952
 40
0.7047619047619048
 40
0.7047619047619048
 40
0.7047619047619048
 40
0.7047619047619048
 40
0.7142857142857143
 40
0.7142857142857143
 40
0.7142857142857143
 40
0.7142857142857143
 40
0.7238095238095238
 40
0.7238095238095238
 40
0.7238095238095238
 40
0.7238095238095238
 40
0.7333333333333333
 40
0.7333333333333333
 40
0.7333333333333333
 40
0.7333333333333333
 40
0.7428571428571429
 40
0.7428571428571429
 40
0.7428571428571429
 40
0.7428571428571429
 40
0.7523809523809524
 40
0.7523809523809524
 40
0.7523809523809524
 40
0.7523809523809524
 40
0.7619047619047619
 40
0.7619047619047619
 40
0.7619047619047619
 40
0.7619047619047619
 40
0.7714285714285715
 40
0.7714285714285715
 40
0.7714285714285715
 40
0.7714285714285715
 40
0.780952380952381
 40
0.780952380952381
 40
0.780952380952381
 40
0.780952380952381
 40
0.7904761904761904
 40
0.7904761904761904
 40
0.7904761904761904
 40
0.7904761904761904
 40
0.8
 40
0.8
 40
0.8
 40
0.8
 40
0.8095238095238095
 40
0.8095238095238095
 40
0.8095238095238095
 40
0.8095238095238095
 40
0.819047619047619
 40
0.819047619047619
 40
0.819047619047619
 40
0.819047619047619
 40
0.8285714285714286
 40
0.8285714285714286
 40
0.8285714285714286
 40
0.8285714285714286
 40
0.8380952380952381
 40
0.8380952380952381
 40
0.8380952380952381
 40
0.8380952380952381
 40
0.8476190476190476
 40
0.8476190476190476
 40
0.8476190476190476
 40
0.8476190476190476
 40
0.8571428571428571
 40
0.8571428571428571
 40
0.8571428571428571
 40
0.8571428571428571
 40
0.8666666666666667
 40
0.8666666666666667
 40
0.8666666666666667
 40
0.8666666666666667
 40
0.8761904761904762
 40
0.8761904761904762
 40
0.8761904761904762
 40
0.8761904761904762
 40
0.8857142857142857
 40
0.8857142857142857
 40
0.8857142857142857
 40
0.8857142857142857
 40
0.8952380952380953
 40
0.8952380952380953
 40
0.8952380952380953
 40
0.8952380952380953
 40
0.9047619047619048
 40
0.9047619047619048
 40
0.9047619047619048
 40
0.9047619047619048
 40
0.9142857142857143
 40
0.9142857142857143
 40
0.9142857142857143
 40
0.9142857142857143
 40
0.9238095238095239
 40
0.9238095238095239
 40
0.9238095238095239
 40
0.9238095238095239
 40
0.9333333333333333
 40
0.9333333333333333
 40
0.9333333333333333
 40
0.9333333333333333
 40
0.9428571428571428
 40
0.9428571428571428
 40
0.9428571428571428
 40
0.9428571428571428
 40
0.9523809523809523
 40
0.9523809523809523
 40
0.9523809523809523
 40
0.9523809523809523
 40
0.9619047619047619
 40
0.9619047619047619
 40
0.9619047619047619
 40
0.9619047619047619
 40
0.9714285714285714
 40
0.9714285714285714
 40
0.9714285714285714
 40
0.9714285714285714
 40
0.9809523809523809
 40
0.9809523809523809
 40
0.9809523809523809
 40
0.9809523809523809
 40
1.0
 40
1.0
 40
1.0
 40
1.0
 10
-71.0299
 20
4.1598
 30
0.0
 10
-71.0299
 20
4.1598
 30
0.0
 10
-88.7882
 20
10.2376
 30
0.0
 10
-83.3753
 20
23.7224
 30
0.0
 10
-83.3753
 20
23.7224
 30
0.0
 10
-77.4483
 20
38.4876
 30
0.0
 10
-60.9642
 20
22.3926
 30
0.0
 10
-52.6071
 20
22.7726
 30
0.0
 10
-52.6071
 20
22.7726
 30
0.0
 10
-44.2505
 20
23.1522
 30
0.0
 10
-42.5414
 20
25.4319
 30
0.0
 10
-42.3514
 20
24.2919
 30
0.0
 10
-42.3514
 20
24.2919
 30
0.0
 10
-42.1616
 20
23.1522
 30
0.0
 10
-51.0878
 20
18.974
 30
0.0
 10
-52.0377
 20
15.7453
 30
0.0
 10
-52.0377
 20
15.7453
 30
0.0
 10
-52.9871
 20
12.5169
 30
0.0
 10
-54.8864
 20
12.8962
 30
0.0
 10
-54.8864
 20
12.8962
 30
0.0
 10
-54.8864
 20
12.8962
 30
0.0
 10
-54.8864
 20
12.8962
 30
0.0
 10
-63.623
 20
23.5323
 30
0.0
 10
-68.5614
 20
22.5831
 30
0.0
 10
-68.5614
 20
22.5831
 30
0.0
 10
-73.499
 20
21.633
 30
0.0
 10
-76.3481
 20
16.1253
 30
0.0
 10
-74.6387
 20
13.0864
 30
0.0
 10
-74.6387
 20
13.0864
 30
0.0
 10
-74.6387
 20
13.0864
 30
0.0
 10
-72.7394
 20
14.6057
 30
0.0
 10
-70.9352
 20
12.8962
 30
0.0
 10
-70.9352
 20
12.8962
 30
0.0
 10
-69.131
 20
11.1871
 30
0.0
 10
-69.4157
 20
7.5787
 30
0.0
 10
-65.5224
 20
6.9141
 30
0.0
 10
-65.5224
 20
6.9141
 30
0.0
 10
-61.629
 20
6.2492
 30
0.0
 10
-50.1382
 20
6.2492
 30
0.0
 10
-48.8087
 20
7.1036
 30
0.0
 10
-48.8087
 20
7.1036
 30
0.0
 10
-47.4794
 20
7.958
 30
0.0
 10
-46.5298
 20
10.9972
 30
0.0
 10
-45.0102
 20
10.7127
 30
0.0
 10
-45.0102
 20
10.7127
 30
0.0
 10
-43.4909
 20
10.4271
 30
0.0
 10
-42.6363
 20
7.2941
 30
0.0
 10
-40.9271
 20
7.1036
 30
0.0
 10
-40.9271
 20
7.1036
 30
0.0
 10
-39.2176
 20
6.9141
 30
0.0
 10
-37.793
 20
6.9141
 30
0.0
 10
-37.793
 20
6.9141
 30
0.0
 10
-37.793
 20
6.9141
 30
0.0
 10
-37.793
 20
6.9141
 30
0.0
 10
-43.1109
 20
9.7629
 30
0.0
 10
-42.3514
 20
13.4664
 30
0.0
 10
-42.3514
 20
13.4664
 30
0.0
 10
-41.5919
 20
17.1698
 30
0.0
 10
-37.2236
 20
16.5053
 30
0.0
 10
-36.1788
 20
15.2702
 30
0.0
 10
-36.1788
 20
15.2702
 30
0.0
 10
-35.1343
 20
14.0362
 30
0.0
 10
-35.799
 20
11.4727
 30
0.0
 10
-35.8939
 20
11.0924
 30
0.0
 10
-35.8939
 20
11.0924
 30
0.0
 10
-35.8939
 20
11.0924
 30
0.0
 10
-33.0452
 20
9.858
 30
0.0
 10
-29.5312
 20
11.4727
 30
0.0
 10
-29.5312
 20
11.4727
 30
0.0
 10
-26.0179
 20
13.0864
 30
0.0
 10
-26.7777
 20
16.1253
 30
0.0
 10
-28.107
 20
16.7895
 30
0.0
 10
-28.107
 20
16.7895
 30
0.0
 10
-28.107
 20
16.7895
 30
0.0
 10
-24.0235
 20
18.6888
 30
0.0
 10
-22.3142
 20
15.3653
 30
0.0
 10
-22.3142
 20
15.3653
 30
0.0
 10
-22.3142
 20
15.3653
 30
0.0
 10
-19.5606
 20
17.36
 30
0.0
 10
-18.6109
 20
19.7337
 30
0.0
 10
-18.6109
 20
19.7337
 30
0.0
 10
-17.6611
 20
22.1077
 30
0.0
 10
-19.9402
 20
23.627
 30
0.0
 10
-20.9848
 20
23.2477
 30
0.0
 10
-20.9848
 20
23.2477
 30
0.0
 10
-22.0293
 20
22.8673
 30
0.0
 10
-22.9793
 20
21.2526
 30
0.0
 10
-22.5993
 20
19.6393
 30
0.0
 10
-22.5993
 20
19.6393
 30
0.0
 10
-22.5993
 20
19.6393
 30
0.0
 10
-26.8726
 20
21.1582
 30
0.0
 10
-26.5873
 20
24.9568
 30
0.0
 10
-26.5873
 20
24.9568
 30
0.0
 10
-26.5873
 20
24.9568
 30
0.0
 10
-32.7599
 20
25.7164
 30
0.0
 10
-32.9501
 20
31.3192
 30
0.0
 10
-32.9501
 20
31.3192
 30
0.0
 10
-32.9501
 20
31.3192
 30
0.0
 10
-30.1012
 20
31.4146
 30
0.0
 10
-28.2017
 20
31.1294
 30
0.0
 10
-28.2017
 20
31.1294
 30
0.0
 10
-26.303
 20
30.8448
 30
0.0
 10
-25.923
 20
31.4146
 30
0.0
 10
-25.923
 20
31.4146
 30
0.0
 10
-25.923
 20
31.4146
 30
0.0
 10
-25.923
 20
31.4146
 30
0.0
 10
-27.1338
 20
31.6751
 30
0.0
 10
-28.4155
 20
32.5415
 30
0.0
 10
-28.4155
 20
32.5415
 30
0.0
 10
-29.0564
 20
32.9752
 30
0.0
 10
-29.7153
 20
33.5602
 30
0.0
 10
-30.2554
 20
34.3361
 30
0.0
 10
-30.2554
 20
34.3361
 30
0.0
 10
-32.0955
 20
36.8276
 30
0.0
 10
-32.4754
 20
40.2461
 30
0.0
 10
-30.1961
 20
42.9047
 30
0.0
 10
-30.1961
 20
42.9047
 30
0.0
 10
-28.297
 20
45.1838
 30
0.0
 10
-25.0682
 20
46.8931
 30
0.0
 10
-22.5044
 20
48.9348
 30
0.0
 10
-22.5044
 20
48.9348
 30
0.0
 10
-21.6495
 20
49.6156
 30
0.0
 10
-20.8687
 20
50.3329
 30
0.0
 10
-20.2356
 20
51.1209
 30
0.0
 10
-20.2356
 20
51.1209
 30
0.0
 10
-19.6589
 20
51.9346
 30
0.0
 10
-19.1794
 20
52.7807
 30
0.0
 10
-18.7997
 20
53.5394
 30
0.0
 10
-18.7997
 20
53.5394
 30
0.0
 10
-17.6611
 20
56.5795
 30
0.0
 10
-19.9402
 20
59.9982
 30
0.0
 10
-23.3149
 20
60.1433
 30
0.0
 10
-23.3149
 20
60.1433
 30
0.0
 10
-24.1174
 20
60.2752
 30
0.0
 10
-24.9418
 20
60.2837
 30
0.0
 10
-25.734
 20
60.1633
 30
0.0
 10
-25.734
 20
60.1633
 30
0.0
 10
-28.1114
 20
59.8013
 30
0.0
 10
-30.205
 20
58.2757
 30
0.0
 10
-30.5935
 20
55.4133
 30
0.0
 10
-30.5935
 20
55.4133
 30
0.0
 10
-30.5775
 20
54.2981
 30
0.0
 10
-30.1961
 20
53.1606
 30
0.0
 10
-29.4364
 20
52.4009
 30
0.0
 10
-29.4364
 20
52.4009
 30
0.0
 10
-28.6768
 20
51.6413
 30
0.0
 10
-26.7777
 20
52.4009
 30
0.0
 10
-26.0196
 20
51.2609
 30
0.0
 10
-26.0196
 20
51.2609
 30
0.0
 10
-25.4484
 20
50.5015
 30
0.0
 10
-25.5433
 20
49.6473
 30
0.0
 10
-25.9703
 20
48.8873
 30
0.0
 10
-25.9703
 20
48.8873
 30
0.0
 10
-26.3977
 20
48.1276
 30
0.0
 10
-27.1573
 20
47.4629
 30
0.0
 10
-27.9173
 20
47.0833
 30
0.0
 10
-27.9173
 20
47.0833
 30
0.0
 10
-28.6768
 20
46.7033
 30
0.0
 10
-29.8164
 20
46.7033
 30
0.0
 10
-30.5763
 20
46.7033
 30
0.0
 10
-30.5763
 20
46.7033
 30
0.0
 10
-30.5763
 20
43.2845
 30
0.0
 10
-31.3359
 20
39.4863
 30
0.0
 10
-33.9945
 20
37.207
 30
0.0
 10
-33.9945
 20
37.207
 30
0.0
 10
-34.4504
 20
40.5119
 30
0.0
 10
-35.3849
 20
43.9875
 30
0.0
 10
-36.1878
 20
47.4755
 30
0.0
 10
-36.1878
 20
47.4755
 30
0.0
 10
-36.4553
 20
48.6372
 30
0.0
 10
-37.9507
 20
53.5306
 30
0.0
 10
-38.2161
 20
54.8292
 30
0.0
 10
-38.2161
 20
54.8292
 30
0.0
 10
-38.5431
 20
55.9976
 30
0.0
 10
-38.7048
 20
57.1736
 30
0.0
 10
-38.7194
 20
58.333
 30
0.0
 10
-38.7194
 20
58.333
 30
0.0
 10
-39.3128
 20
66.8355
 30
0.0
 10
-31.3359
 20
73.6728
 30
0.0
 10
-23.359
 20
74.0525
 30
0.0
 10
-23.359
 20
74.0525
 30
0.0
 10
-22.4093
 20
74.0525
 30
0.0
 10
-21.4834
 20
73.9577
 30
0.0
 10
-20.575
 20
73.7903
 30
0.0
 10
-20.575
 20
73.7903
 30
0.0
 10
-10.4436
 20
72.5331
 30
0.0
 10
-6.2654
 20
62.657
 30
0.0
 10
-0.5672
 20
54.3
 30
0.0
 10
-0.5672
 20
54.3
 30
0.0
 10
1.3312
 20
51.2613
 30
0.0
 10
5.5094
 20
50.8818
 30
0.0
 10
9.4341
 20
50.9225
 30
0.0
 10
9.4341
 20
50.9225
 30
0.0
 10
10.8355
 20
50.995
 30
0.0
 10
12.3162
 20
51.2296
 30
0.0
 10
13.8665
 20
51.6413
 30
0.0
 10
13.8665
 20
51.6413
 30
0.0
 10
23.1731
 20
54.1104
 30
0.0
 10
39.221
 20
67.7852
 30
0.0
 10
43.8747
 20
68.7348
 30
0.0
 10
43.8747
 20
68.7348
 30
0.0
 10
48.5283
 20
69.6841
 30
0.0
 10
51.3767
 20
66.8355
 30
0.0
 10
51.0921
 20
64.7461
 30
0.0
 10
51.0921
 20
64.7461
 30
0.0
 10
51.0921
 20
64.7461
 30
0.0
 10
50.2371
 20
63.8915
 30
0.0
 10
48.7178
 20
63.7015
 30
0.0
 10
48.7178
 20
63.7015
 30
0.0
 10
47.1978
 20
63.5115
 30
0.0
 10
46.154
 20
61.5174
 30
0.0
 10
47.009
 20
60.1881
 30
0.0
 10
47.009
 20
60.1881
 30
0.0
 10
47.8634
 20
58.8586
 30
0.0
 10
55.8402
 20
61.8023
 30
0.0
 10
58.9738
 20
66.6454
 30
0.0
 10
58.9738
 20
66.6454
 30
0.0
 10
62.1075
 20
71.4887
 30
0.0
 10
60.7784
 20
72.0583
 30
0.0
 10
58.8788
 20
71.6783
 30
0.0
 10
58.8788
 20
71.6783
 30
0.0
 10
58.8788
 20
71.6783
 30
0.0
 10
58.404
 20
74.5274
 30
0.0
 10
60.4938
 20
74.6221
 30
0.0
 10
60.4938
 20
74.6221
 30
0.0
 10
62.5822
 20
74.7171
 30
0.0
 10
63.4373
 20
74.3374
 30
0.0
 10
63.8169
 20
73.4825
 30
0.0
 10
63.8169
 20
73.4825
 30
0.0
 10
64.1966
 20
72.6281
 30
0.0
 10
67.4254
 20
74.5274
 30
0.0
 10
65.7159
 20
76.7112
 30
0.0
 10
65.7159
 20
76.7112
 30
0.0
 10
65.7159
 20
76.7112
 30
0.0
 10
69.5151
 20
77.2812
 30
0.0
 10
69.0404
 20
81.2698
 30
0.0
 10
69.0404
 20
81.2698
 30
0.0
 10
68.5657
 20
85.2582
 30
0.0
 10
66.0969
 20
85.828
 30
0.0
 10
66.0969
 20
85.828
 30
0.0
 10
66.0969
 20
85.828
 30
0.0
 10
66.0969
 20
85.828
 30
0.0
 10
65.6215
 20
79.7502
 30
0.0
 10
61.8229
 20
80.0351
 30
0.0
 10
61.8229
 20
80.0351
 30
0.0
 10
61.8229
 20
80.0351
 30
0.0
 10
61.7272
 20
78.231
 30
0.0
 10
63.5317
 20
78.4205
 30
0.0
 10
63.5317
 20
78.4205
 30
0.0
 10
63.5317
 20
78.4205
 30
0.0
 10
62.3921
 20
74.4325
 30
0.0
 10
57.8349
 20
77.3763
 30
0.0
 10
57.8349
 20
77.3763
 30
0.0
 10
57.8349
 20
77.3763
 30
0.0
 10
54.511
 20
74.5274
 30
0.0
 10
56.41
 20
69.3045
 30
0.0
 10
56.41
 20
69.3045
 30
0.0
 10
56.41
 20
69.3045
 30
0.0
 10
51.4718
 20
68.9248
 30
0.0
 10
51.0921
 20
72.343
 30
0.0
 10
51.0921
 20
72.343
 30
0.0
 10
51.0921
 20
72.343
 30
0.0
 10
48.4332
 20
69.7792
 30
0.0
 10
45.2996
 20
71.7734
 30
0.0
 10
45.2996
 20
71.7734
 30
0.0
 10
45.2996
 20
71.7734
 30
0.0
 10
48.5283
 20
72.723
 30
0.0
 10
51.7563
 20
77.2812
 30
0.0
 10
51.7563
 20
77.2812
 30
0.0
 10
54.9851
 20
81.8393
 30
0.0
 10
55.9346
 20
92.8553
 30
0.0
 10
64.7664
 20
92.7601
 30
0.0
 10
64.7664
 20
92.7601
 30
0.0
 10
73.5983
 20
92.6652
 30
0.0
 10
72.839
 20
85.7328
 30
0.0
 10
72.839
 20
85.7328
 30
0.0
 10
72.839
 20
85.7328
 30
0.0
 10
72.839
 20
85.7328
 30
0.0
 10
74.4209
 20
92.9871
 30
0.0
 10
79.785
 20
98.3725
 30
0.0
 10
79.785
 20
98.3725
 30
0.0
 10
80.8578
 20
99.4499
 30
0.0
 10
82.0808
 20
100.4521
 30
0.0
 10
83.4719
 20
101.3065
 30
0.0
 10
83.4719
 20
101.3065
 30
0.0
 10
84.5647
 20
101.9998
 30
0.0
 10
85.756
 20
102.6349
 30
0.0
 10
87.0176
 20
103.2008
 30
0.0
 10
87.0176
 20
103.2008
 30
0.0
 10
98.1935
 20
108.9988
 30
0.0
 10
116.4263
 20
106.7198
 30
0.0
 10
118.7049
 20
91.9055
 30
0.0
 10
118.7049
 20
91.9055
 30
0.0
 10
119.4649
 20
86.9675
 30
0.0
 10
117.1856
 20
82.0294
 30
0.0
 10
113.3878
 20
78.9907
 30
0.0
 10
113.3878
 20
78.9907
 30
0.0
 10
112.4376
 20
78.3258
 30
0.0
 10
111.4647
 20
77.7797
 30
0.0
 10
110.4746
 20
77.3236
 30
0.0
 10
110.4746
 20
77.3236
 30
0.0
 10
109.7318
 20
76.9819
 30
0.0
 10
108.9801
 20
76.6904
 30
0.0
 10
108.2222
 20
76.4375
 30
0.0
 10
108.2222
 20
76.4375
 30
0.0
 10
107.4628
 20
76.1845
 30
0.0
 10
106.6981
 20
75.97
 30
0.0
 10
105.9291
 20
75.7819
 30
0.0
 10
105.9291
 20
75.7819
 30
0.0
 10
104.5304
 20
75.6767
 30
0.0
 10
103.0718
 20
75.0536
 30
0.0
 10
101.7405
 20
74.5575
 30
0.0
 10
101.7405
 20
74.5575
 30
0.0
 10
100.4087
 20
74.0578
 30
0.0
 10
99.2029
 20
73.6868
 30
0.0
 10
98.2576
 20
74.2447
 30
0.0
 10
98.2576
 20
74.2447
 30
0.0
 10
97.6878
 20
74.6242
 30
0.0
 10
97.7587
 20
75.65
 30
0.0
 10
98.1274
 20
76.7536
 30
0.0
 10
98.1274
 20
76.7536
 30
0.0
 10
98.4974
 20
77.8544
 30
0.0
 10
99.1719
 20
79.0191
 30
0.0
 10
99.77
 20
79.8074
 30
0.0
 10
99.77
 20
79.8074
 30
0.0
 10
100.2826
 20
80.7
 30
0.0
 10
100.663
 20
81.6496
 30
0.0
 10
100.4728
 20
82.7891
 30
0.0
 10
100.4728
 20
82.7891
 30
0.0
 10
100.0924
 20
83.9287
 30
0.0
 10
98.5731
 20
85.0684
 30
0.0
 10
97.4335
 20
84.6882
 30
0.0
 10
97.4335
 20
84.6882
 30
0.0
 10
96.484
 20
84.1187
 30
0.0
 10
96.0093
 20
83.3589
 30
0.0
 10
95.7027
 20
82.5245
 30
0.0
 10
95.7027
 20
82.5245
 30
0.0
 10
94.5541
 20
79.5075
 30
0.0
 10
93.6639
 20
76.3998
 30
0.0
 10
92.855
 20
73.2756
 30
0.0
 10
92.855
 20
73.2756
 30
0.0
 10
92.5849
 20
72.2332
 30
0.0
 10
92.3244
 20
71.1889
 30
0.0
 10
92.0681
 20
70.1346
 30
0.0
 10
92.0681
 20
70.1346
 30
0.0
 10
89.8371
 20
58.0989
 30
0.0
 10
86.4181
 20
44.804
 30
0.0
 10
74.7227
 20
38.342
 30
0.0
 10
74.7227
 20
38.342
 30
0.0
 10
73.5417
 20
37.6409
 30
0.0
 10
72.2905
 20
37.027
 30
0.0
 10
70.9683
 20
36.5113
 30
0.0
 10
70.9683
 20
36.5113
 30
0.0
 10
69.6447
 20
35.9952
 30
0.0
 10
68.2501
 20
35.5784
 30
0.0
 10
66.7804
 20
35.2704
 30
0.0
 10
66.7804
 20
35.2704
 30
0.0
 10
65.813
 20
34.7581
 30
0.0
 10
64.825
 20
34.2733
 30
0.0
 10
63.8094
 20
33.8331
 30
0.0
 10
63.8094
 20
33.8331
 30
0.0
 10
62.7937
 20
33.3925
 30
0.0
 10
61.7513
 20
32.997
 30
0.0
 10
60.6833
 20
32.6487
 30
0.0
 10
60.6833
 20
32.6487
 30
0.0
 10
60.6833
 20
32.6487
 30
0.0
 10
62.2977
 20
31.2238
 30
0.0
 10
63.3422
 20
31.5094
 30
0.0
 10
63.3422
 20
31.5094
 30
0.0
 10
63.3422
 20
31.5094
 30
0.0
 10
64.1022
 20
27.9957
 30
0.0
 10
59.4486
 20
25.0515
 30
0.0
 10
59.4486
 20
25.0515
 30
0.0
 10
54.7949
 20
22.1077
 30
0.0
 10
51.4718
 20
26.9512
 30
0.0
 10
48.8129
 20
25.242
 30
0.0
 10
48.8129
 20
25.242
 30
0.0
 10
46.154
 20
23.5323
 30
0.0
 10
50.0476
 20
15.1758
 30
0.0
 10
56.2198
 20
16.7895
 30
0.0
 10
56.2198
 20
16.7895
 30
0.0
 10
56.2198
 20
16.7895
 30
0.0
 10
56.9798
 20
12.0418
 30
0.0
 10
62.1075
 20
11.6618
 30
0.0
 10
62.1075
 20
11.6618
 30
0.0
 10
67.2358
 20
11.2822
 30
0.0
 10
69.325
 20
14.8902
 30
0.0
 10
66.9506
 20
16.0299
 30
0.0
 10
66.9506
 20
16.0299
 30
0.0
 10
66.9506
 20
16.0299
 30
0.0
 10
71.9839
 20
17.9292
 30
0.0
 10
74.2625
 20
15.1758
 30
0.0
 10
74.2625
 20
15.1758
 30
0.0
 10
76.5418
 20
12.4214
 30
0.0
 10
74.9274
 20
9.9527
 30
0.0
 10
73.5039
 20
8.9082
 30
0.0
 10
73.5039
 20
8.9082
 30
0.0
 10
73.5039
 20
8.9082
 30
0.0
 10
77.0165
 20
10.1422
 30
0.0
 10
79.6754
 20
9.1931
 30
0.0
 10
79.6754
 20
9.1931
 30
0.0
 10
82.3343
 20
8.2433
 30
0.0
 10
89.2672
 20
7.6734
 30
0.0
 10
91.736
 20
8.6229
 30
0.0
 10
91.736
 20
8.6229
 30
0.0
 10
94.2048
 20
9.573
 30
0.0
 10
95.5346
 20
12.2323
 30
0.0
 10
97.1489
 20
12.4214
 30
0.0
 10
97.1489
 20
12.4214
 30
0.0
 10
98.7633
 20
12.6113
 30
0.0
 10
103.2268
 20
11.3773
 30
0.0
 10
104.7461
 20
8.0541
 30
0.0
 10
104.7461
 20
8.0541
 30
0.0
 10
106.2653
 20
4.7299
 30
0.0
 10
104.9355
 20
4.0647
 30
0.0
 10
103.7015
 20
4.1598
 30
0.0
  0
SPLINE
  5
43
330
1F
100
AcDbEntity
  8
#Layer 1
 62
   254
370
     9
100
AcDbSpline
210
0.0
220
0.0
230
1.0
 70
     8
 71
     3
 72
     8
 73
     4
 74
     0
 42
0.0000000001
 43
0.0000000001
 40
0.0
 40
0.0
 40
0.0
 40
0.0
 40
1.0
 40
1.0
 40
1.0
 40
1.0
 10
-8.8864
 20
60.9654
 30
0.0
 10
-5.8854
 20
55.8197
 30
0.0
 10
-3.9861
 20
48.6025
 30
0.0
 10
2.3764
 20
46.419
 30
0.0
  0
SPLINE
  5
44
330
1F
100
AcDbEntity
  8
#Layer 1
 62
   254
370
     9
100
AcDbSpline
210
0.0
220
0.0
230
1.0
 70
    24
 71
     3
 72
     8
 73
     4
 74
     0
 42
0.0000000001
 43
0.0000000001
 40
0.0
 40
0.0
 40
0.0
 40
0.0
 40
1.0
 40
1.0
 40
1.0
 40
1.0
 10
2.3764
 20
46.419
 30
0.0
 10
2.3764
 20
46.419
 30
0.0
 10
1.5214
 20
43.7594
 30
0.0
 10
1.5214
 20
43.7594
 30
0.0
  0
SPLINE
  5
45
330
1F
100
AcDbEntity
  8
#Layer 1
 62
   254
370
     9
100
AcDbSpline
210
0.0
220
0.0
230
1.0
 70
     8
 71
     3
 72
    12
 73
     8
 74
     0
 42
0.0000000001
 43
0.0000000001
 40
0.0
 40
0.0
 40
0.0
 40
0.0
 40
0.3333333333333333
 40
0.3333333333333333
 40
0.3333333333333333
 40
0.3333333333333333
 40
1.0
 40
1.0
 40
1.0
 40
1.0
 10
1.5214
 20
43.7594
 30
0.0
 10
1.5214
 20
43.7594
 30
0.0
 10
0.5733
 20
43.973
 30
0.0
 10
-0.7371
 20
44.5804
 30
0.0
 10
-0.7371
 20
44.5804
 30
0.0
 10
-6.6454
 20
47.4629
 30
0.0
 10
-9.3043
 20
54.3
 30
0.0
 10
-11.2512
 20
60.2296
 30
0.0
  0
SPLINE
  5
46
330
1F
100
AcDbEntity
  8
#Layer 1
 62
   254
370
     9
100
AcDbSpline
210
0.0
220
0.0
230
1.0
 70
    24
 71
     3
 72
     8
 73
     4
 74
     0
 42
0.0000000001
 43
0.0000000001
 40
0.0
 40
0.0
 40
0.0
 40
0.0
 40
1.0
 40
1.0
 40
1.0
 40
1.0
 10
-11.2512
 20
60.2296
 30
0.0
 10
-11.2512
 20
60.2296
 30
0.0
 10
-8.8864
 20
60.9654
 30
0.0
 10
-8.8864
 20
60.9654
 30
0.0
  0
SPLINE
  5
47
330
1F
100
AcDbEntity
  8
#Layer 1
 62
   254
370
     9
100
AcDbSpline
210
0.0
220
0.0
230
1.0
 70
    24
 71
     3
 72
     8
 73
     4
 74
     0
 42
0.0000000001
 43
0.0000000001
 40
0.0
 40
0.0
 40
0.0
 40
0.0
 40
1.0
 40
1.0
 40
1.0
 40
1.0
 10
7.7894
 20
46.0383
 30
0.0
 10
7.7894
 20
46.0383
 30
0.0
 10
7.7894
 20
43.2845
 30
0.0
 10
7.7894
 20
43.2845
 30
0.0
  0
SPLINE
  5
48
330
1F
100
AcDbEntity
  8
#Layer 1
 62
   254
370
     9
100
AcDbSpline
210
0.0
220
0.0
230
1.0
 70
     8
 71
     3
 72
    12
 73
     8
 74
     0
 42
0.0000000001
 43
0.0000000001
 40
0.0
 40
0.0
 40
0.0
 40
0.0
 40
0.3333333333333333
 40
0.3333333333333333
 40
0.3333333333333333
 40
0.3333333333333333
 40
1.0
 40
1.0
 40
1.0
 40
1.0
 10
7.7894
 20
43.2845
 30
0.0
 10
7.7894
 20
43.2845
 30
0.0
 10
16.0507
 20
43.4744
 30
0.0
 10
20.8938
 20
46.6084
 30
0.0
 10
20.8938
 20
46.6084
 30
0.0
 10
25.7369
 20
49.742
 30
0.0
 10
28.3959
 20
50.312
 30
0.0
 10
28.3959
 20
50.312
 30
0.0
  0
SPLINE
  5
49
330
1F
100
AcDbEntity
  8
#Layer 1
 62
   254
370
     9
100
AcDbSpline
210
0.0
220
0.0
230
1.0
 70
    24
 71
     3
 72
     8
 73
     4
 74
     0
 42
0.0000000001
 43
0.0000000001
 40
0.0
 40
0.0
 40
0.0
 40
0.0
 40
1.0
 40
1.0
 40
1.0
 40
1.0
 10
28.3959
 20
50.312
 30
0.0
 10
28.3959
 20
50.312
 30
0.0
 10
26.4018
 20
53.0657
 30
0.0
 10
26.4018
 20
53.0657
 30
0.0
  0
SPLINE
  5
4A
330
1F
100
AcDbEntity
  8
#Layer 1
 62
   254
370
     9
100
AcDbSpline
210
0.0
220
0.0
230
1.0
 70
     8
 71
     3
 72
     8
 73
     4
 74
     0
 42
0.0000000001
 43
0.0000000001
 40
0.0
 40
0.0
 40
0.0
 40
0.0
 40
1.0
 40
1.0
 40
1.0
 40
1.0
 10
26.4018
 20
53.0657
 30
0.0
 10
26.4018
 20
53.0657
 30
0.0
 10
14.7216
 20
45.6587
 30
0.0
 10
7.7894
 20
46.0383
 30
0.0
  0
SPLINE
  5
4B
330
1F
100
AcDbEntity
  8
#Layer 1
 62
   254
370
     9
100
AcDbSpline
210
0.0
220
0.0
230
1.0
 70
     8
 71
     3
 72
    20
 73
    16
 74
     0
 42
0.0000000001
 43
0.0000000001
 40
0.0
 40
0.0
 40
0.0
 40
0.0
 40
0.2
 40
0.2
 40
0.2
 40
0.2
 40
0.4
 40
0.4
 40
0.4
 40
0.4
 40
0.6
 40
0.6
 40
0.6
 40
0.6
 40
1.0
 40
1.0
 40
1.0
 40
1.0
 10
31.1499
 20
55.9147
 30
0.0
 10
32.6692
 20
57.054
 30
0.0
 10
41.1214
 20
61.6124
 30
0.0
 10
41.1214
 20
61.6124
 30
0.0
 10
41.1214
 20
61.6124
 30
0.0
 10
41.1214
 20
61.6124
 30
0.0
 10
40.6459
 20
57.719
 30
0.0
 10
43.3993
 20
56.9593
 30
0.0
 10
43.3993
 20
56.9593
 30
0.0
 10
43.3993
 20
56.9593
 30
0.0
 10
39.6965
 20
56.1995
 30
0.0
 10
37.3228
 20
54.5853
 30
0.0
 10
37.3228
 20
54.5853
 30
0.0
 10
34.9478
 20
52.9707
 30
0.0
 10
33.4284
 20
52.496
 30
0.0
 10
33.4284
 20
52.496
 30
0.0
  0
SPLINE
  5
4C
330
1F
100
AcDbEntity
  8
#Layer 1
 62
   254
370
     9
100
AcDbSpline
210
0.0
220
0.0
230
1.0
 70
    24
 71
     3
 72
     8
 73
     4
 74
     0
 42
0.0000000001
 43
0.0000000001
 40
0.0
 40
0.0
 40
0.0
 40
0.0
 40
1.0
 40
1.0
 40
1.0
 40
1.0
 10
33.4284
 20
52.496
 30
0.0
 10
33.4284
 20
52.496
 30
0.0
 10
31.1499
 20
55.9147
 30
0.0
 10
31.1499
 20
55.9147
 30
0.0
  0
SPLINE
  5
4D
330
1F
100
AcDbEntity
  8
#Layer 1
 62
   254
370
     9
100
AcDbSpline
210
0.0
220
0.0
230
1.0
 70
     8
 71
     3
 72
    12
 73
     8
 74
     0
 42
0.0000000001
 43
0.0000000001
 40
0.0
 40
0.0
 40
0.0
 40
0.0
 40
0.3333333333333333
 40
0.3333333333333333
 40
0.3333333333333333
 40
0.3333333333333333
 40
1.0
 40
1.0
 40
1.0
 40
1.0
 10
53.7511
 20
58.0989
 30
0.0
 10
59.2584
 20
58.4788
 30
0.0
 10
63.1521
 20
61.9923
 30
0.0
 10
69.1348
 20
69.7792
 30
0.0
 10
69.1348
 20
69.7792
 30
0.0
 10
75.1175
 20
77.5662
 30
0.0
 10
77.3961
 20
81.7445
 30
0.0
 10
77.3961
 20
81.7445
 30
0.0
  0
SPLINE
  5
4E
330
1F
100
AcDbEntity
  8
#Layer 1
 62
   254
370
     9
100
AcDbSpline
210
0.0
220
0.0
230
1.0
 70
    24
 71
     3
 72
     8
 73
     4
 74
     0
 42
0.0000000001
 43
0.0000000001
 40
0.0
 40
0.0
 40
0.0
 40
0.0
 40
1.0
 40
1.0
 40
1.0
 40
1.0
 10
77.3961
 20
81.7445
 30
0.0
 10
77.3961
 20
81.7445
 30
0.0
 10
73.8828
 20
81.9347
 30
0.0
 10
73.8828
 20
81.9347
 30
0.0
  0
SPLINE
  5
4F
330
1F
100
AcDbEntity
  8
#Layer 1
 62
   254
370
     9
100
AcDbSpline
210
0.0
220
0.0
230
1.0
 70
     8
 71
     3
 72
     8
 73
     4
 74
     0
 42
0.0000000001
 43
0.0000000001
 40
0.0
 40
0.0
 40
0.0
 40
0.0
 40
1.0
 40
1.0
 40
1.0
 40
1.0
 10
73.8828
 20
81.9347
 30
0.0
 10
73.8828
 20
81.9347
 30
0.0
 10
65.9061
 20
64.5563
 30
0.0
 10
53.7511
 20
58.0989
 30
0.0
  0
SPLINE
  5
50
330
1F
100
AcDbEntity
  8
#Layer 1
 62
   254
370
     9
100
AcDbSpline
210
0.0
220
0.0
230
1.0
 70
    24
 71
     3
 72
     8
 73
     4
 74
     0
 42
0.0000000001
 43
0.0000000001
 40
0.0
 40
0.0
 40
0.0
 40
0.0
 40
1.0
 40
1.0
 40
1.0
 40
1.0
 10
81.0052
 20
87.2524
 30
0.0
 10
81.0052
 20
87.2524
 30
0.0
 10
77.8716
 20
87.2524
 30
0.0
 10
77.8716
 20
87.2524
 30
0.0
  0
SPLINE
  5
51
330
1F
100
AcDbEntity
  8
#Layer 1
 62
   254
370
     9
100
AcDbSpline
210
0.0
220
0.0
230
1.0
 70
     8
 71
     3
 72
    40
 73
    36
 74
     0
 42
0.0000000001
 43
0.0000000001
 40
0.0
 40
0.0
 40
0.0
 40
0.0
 40
0.1
 40
0.1
 40
0.1
 40
0.1
 40
0.2
 40
0.2
 40
0.2
 40
0.2
 40
0.3
 40
0.3
 40
0.3
 40
0.3
 40
0.4
 40
0.4
 40
0.4
 40
0.4
 40
0.5
 40
0.5
 40
0.5
 40
0.5
 40
0.6
 40
0.6
 40
0.6
 40
0.6
 40
0.7
 40
0.7
 40
0.7
 40
0.7
 40
0.8
 40
0.8
 40
0.8
 40
0.8
 40
1.0
 40
1.0
 40
1.0
 40
1.0
 10
77.8716
 20
87.2524
 30
0.0
 10
77.8716
 20
87.2524
 30
0.0
 10
78.1616
 20
87.7431
 30
0.0
 10
78.7073
 20
88.5424
 30
0.0
 10
78.7073
 20
88.5424
 30
0.0
 10
79.2517
 20
89.3418
 30
0.0
 10
80.0516
 20
90.45
 30
0.0
 10
81.0714
 20
91.6843
 30
0.0
 10
81.0714
 20
91.6843
 30
0.0
 10
81.646
 20
92.481
 30
0.0
 10
82.262
 20
93.2501
 30
0.0
 10
82.9172
 20
93.9825
 30
0.0
 10
82.9172
 20
93.9825
 30
0.0
 10
83.5739
 20
94.7155
 30
0.0
 10
84.2691
 20
95.411
 30
0.0
 10
85.0022
 20
96.0605
 30
0.0
 10
85.0022
 20
96.0605
 30
0.0
 10
87.9374
 20
98.7426
 30
0.0
 10
91.3564
 20
99.8823
 30
0.0
 10
95.1549
 20
100.6421
 30
0.0
 10
95.1549
 20
100.6421
 30
0.0
 10
92.1163
 20
98.3628
 30
0.0
 10
88.6974
 20
96.8439
 30
0.0
 10
86.1494
 20
94.2296
 30
0.0
 10
86.1494
 20
94.2296
 30
0.0
 10
85.4969
 20
93.5476
 30
0.0
 10
84.8775
 20
92.8341
 30
0.0
 10
84.2973
 20
92.0931
 30
0.0
 10
84.2973
 20
92.0931
 30
0.0
 10
83.7172
 20
91.3519
 30
0.0
 10
83.177
 20
90.5829
 30
0.0
 10
82.6809
 20
89.7866
 30
0.0
 10
82.6809
 20
89.7866
 30
0.0
 10
82.1049
 20
88.9906
 30
0.0
 10
81.5433
 20
88.1466
 30
0.0
 10
81.0052
 20
87.2524
 30
0.0
  0
SPLINE
  5
52
330
1F
100
AcDbEntity
  8
#Layer 1
 62
   254
370
     9
100
AcDbSpline
210
0.0
220
0.0
230
1.0
 70
     8
 71
     3
 72
    12
 73
     8
 74
     0
 42
0.0000000001
 43
0.0000000001
 40
0.0
 40
0.0
 40
0.0
 40
0.0
 40
0.3333333333333333
 40
0.3333333333333333
 40
0.3333333333333333
 40
0.3333333333333333
 40
1.0
 40
1.0
 40
1.0
 40
1.0
 10
-16.2362
 20
31.3192
 30
0.0
 10
-12.8183
 20
30.9392
 30
0.0
 10
-9.7794
 20
27.5206
 30
0.0
 10
-11.5833
 20
24.0073
 30
0.0
 10
-11.5833
 20
24.0073
 30
0.0
 10
-11.5833
 20
24.0073
 30
0.0
 10
-5.6012
 20
30.2746
 30
0.0
 10
0.8564
 20
30.9392
 30
0.0
  0
SPLINE
  5
53
330
1F
100
AcDbEntity
  8
#Layer 1
 62
   254
370
     9
100
AcDbSpline
210
0.0
220
0.0
230
1.0
 70
    24
 71
     3
 72
     8
 73
     4
 74
     0
 42
0.0000000001
 43
0.0000000001
 40
0.0
 40
0.0
 40
0.0
 40
0.0
 40
1.0
 40
1.0
 40
1.0
 40
1.0
 10
0.8564
 20
30.9392
 30
0.0
 10
0.8564
 20
30.9392
 30
0.0
 10
-16.2362
 20
31.3192
 30
0.0
 10
-16.2362
 20
31.3192
 30
0.0
  0
SPLINE
  5
54
330
1F
100
AcDbEntity
  8
#Layer 1
 62
   254
370
     9
100
AcDbSpline
210
0.0
220
0.0
230
1.0
 70
    24
 71
     3
 72
     8
 73
     4
 74
     0
 42
0.0000000001
 43
0.0000000001
 40
0.0
 40
0.0
 40
0.0
 40
0.0
 40
1.0
 40
1.0
 40
1.0
 40
1.0
 10
10.068
 20
31.4146
 30
0.0
 10
10.068
 20
31.4146
 30
0.0
 10
24.5022
 20
31.4146
 30
0.0
 10
24.5022
 20
31.4146
 30
0.0
  0
SPLINE
  5
55
330
1F
100
AcDbEntity
  8
#Layer 1
 62
   254
370
     9
100
AcDbSpline
210
0.0
220
0.0
230
1.0
 70
     8
 71
     3
 72
    12
 73
     8
 74
     0
 42
0.0000000001
 43
0.0000000001
 40
0.0
 40
0.0
 40
0.0
 40
0.0
 40
0.3333333333333333
 40
0.3333333333333333
 40
0.3333333333333333
 40
0.3333333333333333
 40
1.0
 40
1.0
 40
1.0
 40
1.0
 10
24.5022
 20
31.4146
 30
0.0
 10
24.5022
 20
31.4146
 30
0.0
 10
17.6651
 20
28.9455
 30
0.0
 10
18.8054
 20
24.9568
 30
0.0
 10
18.8054
 20
24.9568
 30
0.0
 10
18.8054
 20
24.9568
 30
0.0
 10
14.7216
 20
29.9897
 30
0.0
 10
10.068
 20
31.4146
 30
0.0
  0
SPLINE
  5
56
330
1F
100
AcDbEntity
  8
#Layer 1
 62
   254
370
     9
100
AcDbSpline
210
0.0
220
0.0
230
1.0
 70
    24
 71
     3
 72
     8
 73
     4
 74
     0
 42
0.0000000001
 43
0.0000000001
 40
0.0
 40
0.0
 40
0.0
 40
0.0
 40
1.0
 40
1.0
 40
1.0
 40
1.0
 10
32.5741
 20
31.3192
 30
0.0
 10
32.5741
 20
31.3192
 30
0.0
 10
49.5729
 20
31.3192
 30
0.0
 10
49.5729
 20
31.3192
 30
0.0
  0
SPLINE
  5
57
330
1F
100
AcDbEntity
  8
#Layer 1
 62
   254
370
     9
100
AcDbSpline
210
0.0
220
0.0
230
1.0
 70
     8
 71
     3
 72
    12
 73
     8
 74
     0
 42
0.0000000001
 43
0.0000000001
 40
0.0
 40
0.0
 40
0.0
 40
0.0
 40
0.3333333333333333
 40
0.3333333333333333
 40
0.3333333333333333
 40
0.3333333333333333
 40
1.0
 40
1.0
 40
1.0
 40
1.0
 10
49.5729
 20
31.3192
 30
0.0
 10
49.5729
 20
31.3192
 30
0.0
 10
43.0196
 20
29.2301
 30
0.0
 10
43.4943
 20
25.8115
 30
0.0
 10
43.4943
 20
25.8115
 30
0.0
 10
43.4943
 20
25.8115
 30
0.0
 10
39.1259
 20
30.4648
 30
0.0
 10
32.5741
 20
31.3192
 30
0.0
  0
SPLINE
  5
58
330
1F
100
AcDbEntity
  8
#Layer 1
 62
   254
370
     9
100
AcDbSpline
210
0.0
220
0.0
230
1.0
 70
     8
 71
     3
 72
    20
 73
    16
 74
     0
 42
0.0000000001
 43
0.0000000001
 40
0.0
 40
0.0
 40
0.0
 40
0.0
 40
0.2
 40
0.2
 40
0.2
 40
0.2
 40
0.4
 40
0.4
 40
0.4
 40
0.4
 40
0.6
 40
0.6
 40
0.6
 40
0.6
 40
1.0
 40
1.0
 40
1.0
 40
1.0
 10
56.9798
 20
8.718
 30
0.0
 10
52.2318
 20
9.858
 30
0.0
 10
48.3374
 20
17.1698
 30
0.0
 10
45.4897
 20
16.5053
 30
0.0
 10
45.4897
 20
16.5053
 30
0.0
 10
42.6406
 20
15.8404
 30
0.0
 10
43.8747
 20
13.6559
 30
0.0
 10
43.8747
 20
13.6559
 30
0.0
 10
43.8747
 20
13.6559
 30
0.0
 10
43.8747
 20
13.6559
 30
0.0
 10
47.6732
 20
14.226
 30
0.0
 10
47.7683
 20
11.8523
 30
0.0
 10
47.7683
 20
11.8523
 30
0.0
 10
47.8634
 20
9.4773
 30
0.0
 10
47.1034
 20
8.8134
 30
0.0
 10
47.1034
 20
8.8134
 30
0.0
  0
SPLINE
  5
59
330
1F
100
AcDbEntity
  8
#Layer 1
 62
   254
370
     9
100
AcDbSpline
210
0.0
220
0.0
230
1.0
 70
    24
 71
     3
 72
     8
 73
     4
 74
     0
 42
0.0000000001
 43
0.0000000001
 40
0.0
 40
0.0
 40
0.0
 40
0.0
 40
1.0
 40
1.0
 40
1.0
 40
1.0
 10
47.1034
 20
8.8134
 30
0.0
 10
47.1034
 20
8.8134
 30
0.0
 10
56.9798
 20
8.718
 30
0.0
 10
56.9798
 20
8.718
 30
0.0
  0
SPLINE
  5
5A
330
1F
100
AcDbEntity
  8
#Layer 1
 62
   254
370
     9
100
AcDbSpline
210
0.0
220
0.0
230
1.0
 70
    11
 71
     3
 72
    36
 73
    32
 74
     0
 42
0.0000000001
 43
0.0000000001
 40
0.0
 40
0.0
 40
0.0
 40
0.0
 40
0.1111111111111111
 40
0.1111111111111111
 40
0.1111111111111111
 40
0.1111111111111111
 40
0.2222222222222222
 40
0.2222222222222222
 40
0.2222222222222222
 40
0.2222222222222222
 40
0.3333333333333333
 40
0.3333333333333333
 40
0.3333333333333333
 40
0.3333333333333333
 40
0.4444444444444444
 40
0.4444444444444444
 40
0.4444444444444444
 40
0.4444444444444444
 40
0.5555555555555556
 40
0.5555555555555556
 40
0.5555555555555556
 40
0.5555555555555556
 40
0.6666666666666666
 40
0.6666666666666666
 40
0.6666666666666666
 40
0.6666666666666666
 40
0.7777777777777778
 40
0.7777777777777778
 40
0.7777777777777778
 40
0.7777777777777778
 40
1.0
 40
1.0
 40
1.0
 40
1.0
 10
36.6579
 20
15.4604
 30
0.0
 10
34.3786
 20
17.7396
 30
0.0
 10
35.0435
 20
21.0635
 30
0.0
 10
37.3228
 20
21.3484
 30
0.0
 10
37.3228
 20
21.3484
 30
0.0
 10
39.6014
 20
21.633
 30
0.0
 10
42.2603
 20
20.4933
 30
0.0
 10
42.2603
 20
20.4933
 30
0.0
 10
42.2603
 20
20.4933
 30
0.0
 10
42.2603
 20
20.4933
 30
0.0
 10
40.2663
 20
18.594
 30
0.0
 10
40.9312
 20
16.1253
 30
0.0
 10
40.9312
 20
16.1253
 30
0.0
 10
41.5961
 20
13.6559
 30
0.0
 10
44.3494
 20
10.9022
 30
0.0
 10
42.6406
 20
9.858
 30
0.0
 10
42.6406
 20
9.858
 30
0.0
 10
40.9312
 20
8.8134
 30
0.0
 10
28.8713
 20
9.0032
 30
0.0
 10
25.2622
 20
15.8404
 30
0.0
 10
25.2622
 20
15.8404
 30
0.0
 10
21.6538
 20
22.6775
 30
0.0
 10
27.7316
 20
29.4199
 30
0.0
 10
34.7582
 20
26.5712
 30
0.0
 10
34.7582
 20
26.5712
 30
0.0
 10
34.7582
 20
26.5712
 30
0.0
 10
28.4909
 20
25.9063
 30
0.0
 10
28.9657
 20
21.4435
 30
0.0
 10
28.9657
 20
21.4435
 30
0.0
 10
29.4404
 20
16.98
 30
0.0
 10
33.4284
 20
15.9355
 30
0.0
 10
36.6579
 20
15.4604
 30
0.0
  0
SPLINE
  5
5B
330
1F
100
AcDbEntity
  8
#Layer 1
 62
   254
370
     9
100
AcDbSpline
210
0.0
220
0.0
230
1.0
 70
    24
 71
     3
 72
     8
 73
     4
 74
     0
 42
0.0000000001
 43
0.0000000001
 40
0.0
 40
0.0
 40
0.0
 40
0.0
 40
1.0
 40
1.0
 40
1.0
 40
1.0
 10
17.8552
 20
7.7682
 30
0.0
 10
17.8552
 20
7.7682
 30
0.0
 10
4.8452
 20
7.7682
 30
0.0
 10
4.8452
 20
7.7682
 30
0.0
  0
SPLINE
  5
5C
330
1F
100
AcDbEntity
  8
#Layer 1
 62
   254
370
     9
100
AcDbSpline
210
0.0
220
0.0
230
1.0
 70
     8
 71
     3
 72
     8
 73
     4
 74
     0
 42
0.0000000001
 43
0.0000000001
 40
0.0
 40
0.0
 40
0.0
 40
0.0
 40
1.0
 40
1.0
 40
1.0
 40
1.0
 10
4.8452
 20
7.7682
 30
0.0
 10
4.8452
 20
7.7682
 30
0.0
 10
17.1903
 20
12.4214
 30
0.0
 10
15.0061
 20
22.4874
 30
0.0
  0
SPLINE
  5
5D
330
1F
100
AcDbEntity
  8
#Layer 1
 62
   254
370
     9
100
AcDbSpline
210
0.0
220
0.0
230
1.0
 70
    24
 71
     3
 72
     8
 73
     4
 74
     0
 42
0.0000000001
 43
0.0000000001
 40
0.0
 40
0.0
 40
0.0
 40
0.0
 40
1.0
 40
1.0
 40
1.0
 40
1.0
 10
15.0061
 20
22.4874
 30
0.0
 10
15.0061
 20
22.4874
 30
0.0
 10
20.7987
 20
15.1758
 30
0.0
 10
20.7987
 20
15.1758
 30
0.0
  0
SPLINE
  5
5E
330
1F
100
AcDbEntity
  8
#Layer 1
 62
   254
370
     9
100
AcDbSpline
210
0.0
220
0.0
230
1.0
 70
     8
 71
     3
 72
    16
 73
    12
 74
     0
 42
0.0000000001
 43
0.0000000001
 40
0.0
 40
0.0
 40
0.0
 40
0.0
 40
0.25
 40
0.25
 40
0.25
 40
0.25
 40
0.5
 40
0.5
 40
0.5
 40
0.5
 40
1.0
 40
1.0
 40
1.0
 40
1.0
 10
20.7987
 20
15.1758
 30
0.0
 10
20.7987
 20
15.1758
 30
0.0
 10
19.6591
 20
12.1369
 30
0.0
 10
17.7595
 20
12.5169
 30
0.0
 10
17.7595
 20
12.5169
 30
0.0
 10
15.8605
 20
12.8962
 30
0.0
 10
15.8605
 20
12.8962
 30
0.0
 10
15.8605
 20
12.8962
 30
0.0
 10
15.8605
 20
12.8962
 30
0.0
 10
15.8605
 20
12.8962
 30
0.0
 10
15.2907
 20
8.9082
 30
0.0
 10
17.8552
 20
7.7682
 30
0.0
  0
SPLINE
  5
5F
330
1F
100
AcDbEntity
  8
#Layer 1
 62
   254
370
     9
100
AcDbSpline
210
0.0
220
0.0
230
1.0
 70
    24
 71
     3
 72
     8
 73
     4
 74
     0
 42
0.0000000001
 43
0.0000000001
 40
0.0
 40
0.0
 40
0.0
 40
0.0
 40
1.0
 40
1.0
 40
1.0
 40
1.0
 10
31.8148
 20
7.7682
 30
0.0
 10
31.8148
 20
7.7682
 30
0.0
 10
19.5647
 20
7.7682
 30
0.0
 10
19.5647
 20
7.7682
 30
0.0
  0
SPLINE
  5
60
330
1F
100
AcDbEntity
  8
#Layer 1
 62
   254
370
     9
100
AcDbSpline
210
0.0
220
0.0
230
1.0
 70
     8
 71
     3
 72
    12
 73
     8
 74
     0
 42
0.0000000001
 43
0.0000000001
 40
0.0
 40
0.0
 40
0.0
 40
0.0
 40
0.3333333333333333
 40
0.3333333333333333
 40
0.3333333333333333
 40
0.3333333333333333
 40
1.0
 40
1.0
 40
1.0
 40
1.0
 10
19.5647
 20
7.7682
 30
0.0
 10
19.5647
 20
7.7682
 30
0.0
 10
23.6478
 20
9.2878
 30
0.0
 10
23.4576
 20
11.8523
 30
0.0
 10
23.4576
 20
11.8523
 30
0.0
 10
23.4576
 20
11.8523
 30
0.0
 10
27.5408
 20
8.2433
 30
0.0
 10
31.8148
 20
7.7682
 30
0.0
  0
SPLINE
  5
61
330
1F
100
AcDbEntity
  8
#Layer 1
 62
   254
370
     9
100
AcDbSpline
210
0.0
220
0.0
230
1.0
 70
    24
 71
     3
 72
     8
 73
     4
 74
     0
 42
0.0000000001
 43
0.0000000001
 40
0.0
 40
0.0
 40
0.0
 40
0.0
 40
1.0
 40
1.0
 40
1.0
 40
1.0
 10
-10.9191
 20
7.2941
 30
0.0
 10
-10.9191
 20
7.2941
 30
0.0
 10
-24.4035
 20
7.2941
 30
0.0
 10
-24.4035
 20
7.2941
 30
0.0
  0
SPLINE
  5
62
330
1F
100
AcDbEntity
  8
#Layer 1
 62
   254
370
     9
100
AcDbSpline
210
0.0
220
0.0
230
1.0
 70
     8
 71
     3
 72
    52
 73
    48
 74
     0
 42
0.0000000001
 43
0.0000000001
 40
0.0
 40
0.0
 40
0.0
 40
0.0
 40
0.0769230769230769
 40
0.0769230769230769
 40
0.0769230769230769
 40
0.0769230769230769
 40
0.1538461538461539
 40
0.1538461538461539
 40
0.1538461538461539
 40
0.1538461538461539
 40
0.2307692307692308
 40
0.2307692307692308
 40
0.2307692307692308
 40
0.2307692307692308
 40
0.3076923076923077
 40
0.3076923076923077
 40
0.3076923076923077
 40
0.3076923076923077
 40
0.3846153846153846
 40
0.3846153846153846
 40
0.3846153846153846
 40
0.3846153846153846
 40
0.4615384615384616
 40
0.4615384615384616
 40
0.4615384615384616
 40
0.4615384615384616
 40
0.5384615384615384
 40
0.5384615384615384
 40
0.5384615384615384
 40
0.5384615384615384
 40
0.6153846153846154
 40
0.6153846153846154
 40
0.6153846153846154
 40
0.6153846153846154
 40
0.6923076923076923
 40
0.6923076923076923
 40
0.6923076923076923
 40
0.6923076923076923
 40
0.7692307692307693
 40
0.7692307692307693
 40
0.7692307692307693
 40
0.7692307692307693
 40
0.8461538461538461
 40
0.8461538461538461
 40
0.8461538461538461
 40
0.8461538461538461
 40
1.0
 40
1.0
 40
1.0
 40
1.0
 10
-24.4035
 20
7.2941
 30
0.0
 10
-24.4035
 20
7.2941
 30
0.0
 10
-16.7113
 20
11.4727
 30
0.0
 10
-14.1478
 20
14.5109
 30
0.0
 10
-14.1478
 20
14.5109
 30
0.0
 10
-11.5833
 20
17.5491
 30
0.0
 10
-8.3549
 20
17.4544
 30
0.0
 10
-8.3549
 20
17.4544
 30
0.0
 10
-8.3549
 20
17.4544
 30
0.0
 10
-8.3549
 20
17.4544
 30
0.0
 10
-9.3994
 20
19.5435
 30
0.0
 10
-6.2654
 20
20.9681
 30
0.0
 10
-6.2654
 20
20.9681
 30
0.0
 10
-3.1321
 20
22.3926
 30
0.0
 10
0.0966
 20
20.5884
 30
0.0
 10
-0.7577
 20
18.7842
 30
0.0
 10
-0.7577
 20
18.7842
 30
0.0
 10
-1.6128
 20
16.98
 30
0.0
 10
-4.5563
 20
15.9355
 30
0.0
 10
-4.5563
 20
15.9355
 30
0.0
 10
-4.5563
 20
15.9355
 30
0.0
 10
-4.5563
 20
15.9355
 30
0.0
 10
0.3817
 20
12.1369
 30
0.0
 10
4.7494
 20
17.0748
 30
0.0
 10
4.7494
 20
17.0748
 30
0.0
 10
9.1185
 20
22.0129
 30
0.0
 10
3.0406
 20
27.6157
 30
0.0
 10
-0.9472
 20
26.7613
 30
0.0
 10
-0.9472
 20
26.7613
 30
0.0
 10
-0.9472
 20
26.7613
 30
0.0
 10
5.0347
 20
29.0399
 30
0.0
 10
8.2641
 20
26.8557
 30
0.0
 10
8.2641
 20
26.8557
 30
0.0
 10
11.4922
 20
24.6719
 30
0.0
 10
11.2076
 20
14.0362
 30
0.0
 10
2.661
 20
10.5229
 30
0.0
 10
2.661
 20
10.5229
 30
0.0
 10
-5.8854
 20
7.0085
 30
0.0
 10
-10.064
 20
11.1871
 30
0.0
 10
-7.6896
 20
12.2323
 30
0.0
 10
-7.6896
 20
12.2323
 30
0.0
 10
-7.6896
 20
12.2323
 30
0.0
 10
-7.4051
 20
15.7453
 30
0.0
 10
-11.0138
 20
15.1758
 30
0.0
 10
-11.0138
 20
15.1758
 30
0.0
 10
-14.6225
 20
14.6057
 30
0.0
 10
-14.0524
 20
8.4334
 30
0.0
 10
-10.9191
 20
7.2941
 30
0.0
  0
SPLINE
  5
63
330
1F
100
AcDbEntity
  8
#Layer 1
 62
   254
370
     9
100
AcDbSpline
210
0.0
220
0.0
230
1.0
 70
    11
 71
     3
 72
    20
 73
    16
 74
     0
 42
0.0000000001
 43
0.0000000001
 40
0.0
 40
0.0
 40
0.0
 40
0.0
 40
0.2
 40
0.2
 40
0.2
 40
0.2
 40
0.4
 40
0.4
 40
0.4
 40
0.4
 40
0.6
 40
0.6
 40
0.6
 40
0.6
 40
1.0
 40
1.0
 40
1.0
 40
1.0
 10
59.2922
 20
32.2204
 30
0.0
 10
59.2922
 20
32.2204
 30
0.0
 10
50.953
 20
32.2204
 30
0.0
 10
50.953
 20
32.2204
 30
0.0
 10
50.953
 20
32.2204
 30
0.0
 10
50.953
 20
32.2204
 30
0.0
 10
50.953
 20
35.2686
 30
0.0
 10
50.953
 20
35.2686
 30
0.0
 10
50.953
 20
35.2686
 30
0.0
 10
50.953
 20
35.2686
 30
0.0
 10
59.2922
 20
35.2686
 30
0.0
 10
59.2922
 20
35.2686
 30
0.0
 10
59.2922
 20
35.2686
 30
0.0
 10
59.2922
 20
35.2686
 30
0.0
 10
59.2922
 20
32.2204
 30
0.0
 10
59.2922
 20
32.2204
 30
0.0
  0
SPLINE
  5
64
330
1F
100
AcDbEntity
  8
#Layer 1
 62
   254
370
     9
100
AcDbSpline
210
0.0
220
0.0
230
1.0
 70
    11
 71
     3
 72
    20
 73
    16
 74
     0
 42
0.0000000001
 43
0.0000000001
 40
0.0
 40
0.0
 40
0.0
 40
0.0
 40
0.2
 40
0.2
 40
0.2
 40
0.2
 40
0.4
 40
0.4
 40
0.4
 40
0.4
 40
0.6
 40
0.6
 40
0.6
 40
0.6
 40
1.0
 40
1.0
 40
1.0
 40
1.0
 10
32.2171
 20
32.2204
 30
0.0
 10
32.2171
 20
32.2204
 30
0.0
 10
24.9356
 20
32.2204
 30
0.0
 10
24.9356
 20
32.2204
 30
0.0
 10
24.9356
 20
32.2204
 30
0.0
 10
24.9356
 20
32.2204
 30
0.0
 10
24.9356
 20
35.2686
 30
0.0
 10
24.9356
 20
35.2686
 30
0.0
 10
24.9356
 20
35.2686
 30
0.0
 10
24.9356
 20
35.2686
 30
0.0
 10
32.2171
 20
35.2686
 30
0.0
 10
32.2171
 20
35.2686
 30
0.0
 10
32.2171
 20
35.2686
 30
0.0
 10
32.2171
 20
35.2686
 30
0.0
 10
32.2171
 20
32.2204
 30
0.0
 10
32.2171
 20
32.2204
 30
0.0
  0
SPLINE
  5
65
330
1F
100
AcDbEntity
  8
#Layer 1
 62
   254
370
     9
100
AcDbSpline
210
0.0
220
0.0
230
1.0
 70
    11
 71
     3
 72
    20
 73
    16
 74
     0
 42
0.0000000001
 43
0.0000000001
 40
0.0
 40
0.0
 40
0.0
 40
0.0
 40
0.2
 40
0.2
 40
0.2
 40
0.2
 40
0.4
 40
0.4
 40
0.4
 40
0.4
 40
0.6
 40
0.6
 40
0.6
 40
0.6
 40
1.0
 40
1.0
 40
1.0
 40
1.0
 10
8.7568
 20
32.2204
 30
0.0
 10
8.7568
 20
32.2204
 30
0.0
 10
1.4759
 20
32.2204
 30
0.0
 10
1.4759
 20
32.2204
 30
0.0
 10
1.4759
 20
32.2204
 30
0.0
 10
1.4759
 20
32.2204
 30
0.0
 10
1.4759
 20
35.2686
 30
0.0
 10
1.4759
 20
35.2686
 30
0.0
 10
1.4759
 20
35.2686
 30
0.0
 10
1.4759
 20
35.2686
 30
0.0
 10
8.7568
 20
35.2686
 30
0.0
 10
8.7568
 20
35.2686
 30
0.0
 10
8.7568
 20
35.2686
 30
0.0
 10
8.7568
 20
35.2686
 30
0.0
 10
8.7568
 20
32.2204
 30
0.0
 10
8.7568
 20
32.2204
 30
0.0
  0
SPLINE
  5
66
330
1F
100
AcDbEntity
  8
#Layer 1
 62
   254
370
     9
100
AcDbSpline
210
0.0
220
0.0
230
1.0
 70
    11
 71
     3
 72
    20
 73
    16
 74
     0
 42
0.0000000001
 43
0.0000000001
 40
0.0
 40
0.0
 40
0.0
 40
0.0
 40
0.2
 40
0.2
 40
0.2
 40
0.2
 40
0.4
 40
0.4
 40
0.4
 40
0.4
 40
0.6
 40
0.6
 40
0.6
 40
0.6
 40
1.0
 40
1.0
 40
1.0
 40
1.0
 10
-19.1122
 20
32.2204
 30
0.0
 10
-19.1122
 20
32.2204
 30
0.0
 10
-24.0416
 20
32.2204
 30
0.0
 10
-24.0416
 20
32.2204
 30
0.0
 10
-24.0416
 20
32.2204
 30
0.0
 10
-24.0416
 20
32.2204
 30
0.0
 10
-24.0416
 20
35.2686
 30
0.0
 10
-24.0416
 20
35.2686
 30
0.0
 10
-24.0416
 20
35.2686
 30
0.0
 10
-24.0416
 20
35.2686
 30
0.0
 10
-19.1122
 20
35.2686
 30
0.0
 10
-19.1122
 20
35.2686
 30
0.0
 10
-19.1122
 20
35.2686
 30
0.0
 10
-19.1122
 20
35.2686
 30
0.0
 10
-19.1122
 20
32.2204
 30
0.0
 10
-19.1122
 20
32.2204
 30
0.0
  0
SPLINE
  5
67
330
1F
100
AcDbEntity
  8
#Layer 1
 62
   254
370
     9
100
AcDbSpline
210
0.0
220
0.0
230
1.0
 70
    11
 71
     3
 72
    20
 73
    16
 74
     0
 42
0.0000000001
 43
0.0000000001
 40
0.0
 40
0.0
 40
0.0
 40
0.0
 40
0.2
 40
0.2
 40
0.2
 40
0.2
 40
0.4
 40
0.4
 40
0.4
 40
0.4
 40
0.6
 40
0.6
 40
0.6
 40
0.6
 40
1.0
 40
1.0
 40
1.0
 40
1.0
 10
-21.0145
 20
39.7178
 30
0.0
 10
-21.0145
 20
39.7178
 30
0.0
 10
-23.3292
 20
35.3654
 30
0.0
 10
-23.3292
 20
35.3654
 30
0.0
 10
-23.3292
 20
35.3654
 30
0.0
 10
-23.3292
 20
35.3654
 30
0.0
 10
-26.0205
 20
36.7966
 30
0.0
 10
-26.0205
 20
36.7966
 30
0.0
 10
-26.0205
 20
36.7966
 30
0.0
 10
-26.0205
 20
36.7966
 30
0.0
 10
-23.7059
 20
41.1491
 30
0.0
 10
-23.7059
 20
41.1491
 30
0.0
 10
-23.7059
 20
41.1491
 30
0.0
 10
-23.7059
 20
41.1491
 30
0.0
 10
-21.0145
 20
39.7178
 30
0.0
 10
-21.0145
 20
39.7178
 30
0.0
  0
SPLINE
  5
68
330
1F
100
AcDbEntity
  8
#Layer 1
 62
   254
370
     9
100
AcDbSpline
210
0.0
220
0.0
230
1.0
 70
    11
 71
     3
 72
    20
 73
    16
 74
     0
 42
0.0000000001
 43
0.0000000001
 40
0.0
 40
0.0
 40
0.0
 40
0.0
 40
0.2
 40
0.2
 40
0.2
 40
0.2
 40
0.4
 40
0.4
 40
0.4
 40
0.4
 40
0.6
 40
0.6
 40
0.6
 40
0.6
 40
1.0
 40
1.0
 40
1.0
 40
1.0
 10
-12.8962
 20
54.9834
 30
0.0
 10
-12.8962
 20
54.9834
 30
0.0
 10
-15.521
 20
50.0478
 30
0.0
 10
-15.521
 20
50.0478
 30
0.0
 10
-15.521
 20
50.0478
 30
0.0
 10
-15.521
 20
50.0478
 30
0.0
 10
-18.2123
 20
51.4789
 30
0.0
 10
-18.2123
 20
51.4789
 30
0.0
 10
-18.2123
 20
51.4789
 30
0.0
 10
-18.2123
 20
51.4789
 30
0.0
 10
-15.5875
 20
56.4146
 30
0.0
 10
-15.5875
 20
56.4146
 30
0.0
 10
-15.5875
 20
56.4146
 30
0.0
 10
-15.5875
 20
56.4146
 30
0.0
 10
-12.8962
 20
54.9834
 30
0.0
 10
-12.8962
 20
54.9834
 30
0.0
  0
SPLINE
  5
69
330
1F
100
AcDbEntity
  8
#Layer 1
 62
   254
370
     9
100
AcDbSpline
210
0.0
220
0.0
230
1.0
 70
    11
 71
     3
 72
    20
 73
    16
 74
     0
 42
0.0000000001
 43
0.0000000001
 40
0.0
 40
0.0
 40
0.0
 40
0.0
 40
0.2
 40
0.2
 40
0.2
 40
0.2
 40
0.4
 40
0.4
 40
0.4
 40
0.4
 40
0.6
 40
0.6
 40
0.6
 40
0.6
 40
1.0
 40
1.0
 40
1.0
 40
1.0
 10
65.0599
 20
39.3128
 30
0.0
 10
65.0599
 20
39.3128
 30
0.0
 10
61.7602
 20
34.4873
 30
0.0
 10
61.7602
 20
34.4873
 30
0.0
 10
61.7602
 20
34.4873
 30
0.0
 10
61.7602
 20
34.4873
 30
0.0
 10
59.2439
 20
36.2078
 30
0.0
 10
59.2439
 20
36.2078
 30
0.0
 10
59.2439
 20
36.2078
 30
0.0
 10
59.2439
 20
36.2078
 30
0.0
 10
62.5437
 20
41.0333
 30
0.0
 10
62.5437
 20
41.0333
 30
0.0
 10
62.5437
 20
41.0333
 30
0.0
 10
62.5437
 20
41.0333
 30
0.0
 10
65.0599
 20
39.3128
 30
0.0
 10
65.0599
 20
39.3128
 30
0.0
  0
SPLINE
  5
6A
330
1F
100
AcDbEntity
  8
#Layer 1
 62
   254
370
     9
100
AcDbSpline
210
0.0
220
0.0
230
1.0
 70
    11
 71
     3
 72
    20
 73
    16
 74
     0
 42
0.0000000001
 43
0.0000000001
 40
0.0
 40
0.0
 40
0.0
 40
0.0
 40
0.2
 40
0.2
 40
0.2
 40
0.2
 40
0.4
 40
0.4
 40
0.4
 40
0.4
 40
0.6
 40
0.6
 40
0.6
 40
0.6
 40
1.0
 40
1.0
 40
1.0
 40
1.0
 10
97.4617
 20
86.6991
 30
0.0
 10
97.4617
 20
86.6991
 30
0.0
 10
93.9629
 20
81.5826
 30
0.0
 10
93.9629
 20
81.5826
 30
0.0
 10
93.9629
 20
81.5826
 30
0.0
 10
93.9629
 20
81.5826
 30
0.0
 10
91.4466
 20
83.3031
 30
0.0
 10
91.4466
 20
83.3031
 30
0.0
 10
91.4466
 20
83.3031
 30
0.0
 10
91.4466
 20
83.3031
 30
0.0
 10
94.9454
 20
88.4196
 30
0.0
 10
94.9454
 20
88.4196
 30
0.0
 10
94.9454
 20
88.4196
 30
0.0
 10
94.9454
 20
88.4196
 30
0.0
 10
97.4617
 20
86.6991
 30
0.0
 10
97.4617
 20
86.6991
 30
0.0
  0
SPLINE
  5
6B
330
1F
100
AcDbEntity
  8
#Layer 1
 62
   254
370
     9
100
AcDbSpline
210
0.0
220
0.0
230
1.0
 70
    11
 71
     3
 72
    20
 73
    16
 74
     0
 42
0.0000000001
 43
0.0000000001
 40
0.0
 40
0.0
 40
0.0
 40
0.0
 40
0.2
 40
0.2
 40
0.2
 40
0.2
 40
0.4
 40
0.4
 40
0.4
 40
0.4
 40
0.6
 40
0.6
 40
0.6
 40
0.6
 40
1.0
 40
1.0
 40
1.0
 40
1.0
 10
86.5787
 20
70.7836
 30
0.0
 10
86.5787
 20
70.7836
 30
0.0
 10
83.9081
 20
66.8776
 30
0.0
 10
83.9081
 20
66.8776
 30
0.0
 10
83.9081
 20
66.8776
 30
0.0
 10
83.9081
 20
66.8776
 30
0.0
 10
81.3918
 20
68.5981
 30
0.0
 10
81.3918
 20
68.5981
 30
0.0
 10
81.3918
 20
68.5981
 30
0.0
 10
81.3918
 20
68.5981
 30
0.0
 10
84.0624
 20
72.5043
 30
0.0
 10
84.0624
 20
72.5043
 30
0.0
 10
84.0624
 20
72.5043
 30
0.0
 10
84.0624
 20
72.5043
 30
0.0
 10
86.5787
 20
70.7836
 30
0.0
 10
86.5787
 20
70.7836
 30
0.0
  0
SPLINE
  5
6C
330
1F
100
AcDbEntity
  8
#Layer 1
 62
   254
370
     9
100
AcDbSpline
210
0.0
220
0.0
230
1.0
 70
    11
 71
     3
 72
    20
 73
    16
 74
     0
 42
0.0000000001
 43
0.0000000001
 40
0.0
 40
0.0
 40
0.0
 40
0.0
 40
0.2
 40
0.2
 40
0.2
 40
0.2
 40
0.4
 40
0.4
 40
0.4
 40
0.4
 40
0.6
 40
0.6
 40
0.6
 40
0.6
 40
1.0
 40
1.0
 40
1.0
 40
1.0
 10
74.536
 20
53.1709
 30
0.0
 10
74.536
 20
53.1709
 30
0.0
 10
71.7744
 20
49.1324
 30
0.0
 10
71.7744
 20
49.1324
 30
0.0
 10
71.7744
 20
49.1324
 30
0.0
 10
71.7744
 20
49.1324
 30
0.0
 10
69.2581
 20
50.8529
 30
0.0
 10
69.2581
 20
50.8529
 30
0.0
 10
69.2581
 20
50.8529
 30
0.0
 10
69.2581
 20
50.8529
 30
0.0
 10
72.0197
 20
54.8914
 30
0.0
 10
72.0197
 20
54.8914
 30
0.0
 10
72.0197
 20
54.8914
 30
0.0
 10
72.0197
 20
54.8914
 30
0.0
 10
74.536
 20
53.1709
 30
0.0
 10
74.536
 20
53.1709
 30
0.0
  0
SPLINE
  5
6D
330
1F
100
AcDbEntity
  8
#Layer 1
 62
   254
370
     9
100
AcDbSpline
210
0.0
220
0.0
230
1.0
 70
    11
 71
     3
 72
   136
 73
   132
 74
     0
 42
0.0000000001
 43
0.0000000001
 40
0.0
 40
0.0
 40
0.0
 40
0.0
 40
0.0294117647058824
 40
0.0294117647058824
 40
0.0294117647058824
 40
0.0294117647058824
 40
0.0588235294117647
 40
0.0588235294117647
 40
0.0588235294117647
 40
0.0588235294117647
 40
0.0882352941176471
 40
0.0882352941176471
 40
0.0882352941176471
 40
0.0882352941176471
 40
0.1176470588235294
 40
0.1176470588235294
 40
0.1176470588235294
 40
0.1176470588235294
 40
0.1470588235294118
 40
0.1470588235294118
 40
0.1470588235294118
 40
0.1470588235294118
 40
0.1764705882352941
 40
0.1764705882352941
 40
0.1764705882352941
 40
0.1764705882352941
 40
0.2058823529411765
 40
0.2058823529411765
 40
0.2058823529411765
 40
0.2058823529411765
 40
0.2352941176470588
 40
0.2352941176470588
 40
0.2352941176470588
 40
0.2352941176470588
 40
0.2647058823529412
 40
0.2647058823529412
 40
0.2647058823529412
 40
0.2647058823529412
 40
0.2941176470588235
 40
0.2941176470588235
 40
0.2941176470588235
 40
0.2941176470588235
 40
0.3235294117647059
 40
0.3235294117647059
 40
0.3235294117647059
 40
0.3235294117647059
 40
0.3529411764705883
 40
0.3529411764705883
 40
0.3529411764705883
 40
0.3529411764705883
 40
0.3823529411764706
 40
0.3823529411764706
 40
0.3823529411764706
 40
0.3823529411764706
 40
0.4117647058823529
 40
0.4117647058823529
 40
0.4117647058823529
 40
0.4117647058823529
 40
0.4411764705882353
 40
0.4411764705882353
 40
0.4411764705882353
 40
0.4411764705882353
 40
0.4705882352941176
 40
0.4705882352941176
 40
0.4705882352941176
 40
0.4705882352941176
 40
0.5
 40
0.5
 40
0.5
 40
0.5
 40
0.5294117647058824
 40
0.5294117647058824
 40
0.5294117647058824
 40
0.5294117647058824
 40
0.5588235294117647
 40
0.5588235294117647
 40
0.5588235294117647
 40
0.5588235294117647
 40
0.5882352941176471
 40
0.5882352941176471
 40
0.5882352941176471
 40
0.5882352941176471
 40
0.6176470588235294
 40
0.6176470588235294
 40
0.6176470588235294
 40
0.6176470588235294
 40
0.6470588235294118
 40
0.6470588235294118
 40
0.6470588235294118
 40
0.6470588235294118
 40
0.6764705882352942
 40
0.6764705882352942
 40
0.6764705882352942
 40
0.6764705882352942
 40
0.7058823529411765
 40
0.7058823529411765
 40
0.7058823529411765
 40
0.7058823529411765
 40
0.7352941176470589
 40
0.7352941176470589
 40
0.7352941176470589
 40
0.7352941176470589
 40
0.7647058823529411
 40
0.7647058823529411
 40
0.7647058823529411
 40
0.7647058823529411
 40
0.7941176470588235
 40
0.7941176470588235
 40
0.7941176470588235
 40
0.7941176470588235
 40
0.8235294117647058
 40
0.8235294117647058
 40
0.8235294117647058
 40
0.8235294117647058
 40
0.8529411764705882
 40
0.8529411764705882
 40
0.8529411764705882
 40
0.8529411764705882
 40
0.8823529411764706
 40
0.8823529411764706
 40
0.8823529411764706
 40
0.8823529411764706
 40
0.9117647058823529
 40
0.9117647058823529
 40
0.9117647058823529
 40
0.9117647058823529
 40
0.9411764705882353
 40
0.9411764705882353
 40
0.9411764705882353
 40
0.9411764705882353
 40
1.0
 40
1.0
 40
1.0
 40
1.0
 10
-116.1464
 20
-58.6851
 30
0.0
 10
-116.1464
 20
-58.6851
 30
0.0
 10
-116.5536
 20
-58.6851
 30
0.0
 10
-116.5536
 20
-58.6851
 30
0.0
 10
-116.5536
 20
-58.6851
 30
0.0
 10
-116.5536
 20
-58.6851
 30
0.0
 10
-119.1946
 20
-58.6851
 30
0.0
 10
-119.1946
 20
-58.6851
 30
0.0
 10
-119.1946
 20
-58.6851
 30
0.0
 10
-119.1946
 20
-58.6851
 30
0.0
 10
-119.1946
 20
-51.4043
 30
0.0
 10
-119.1946
 20
-51.4043
 30
0.0
 10
-119.1946
 20
-51.4043
 30
0.0
 10
-119.1946
 20
-51.4043
 30
0.0
 10
-116.1464
 20
-51.4043
 30
0.0
 10
-116.1464
 20
-51.4043
 30
0.0
 10
-116.1464
 20
-51.4043
 30
0.0
 10
-116.1464
 20
-51.4043
 30
0.0
 10
-116.1464
 20
-30.8164
 30
0.0
 10
-116.1464
 20
-30.8164
 30
0.0
 10
-116.1464
 20
-30.8164
 30
0.0
 10
-116.1464
 20
-30.8164
 30
0.0
 10
-119.1946
 20
-30.8164
 30
0.0
 10
-119.1946
 20
-30.8164
 30
0.0
 10
-119.1946
 20
-30.8164
 30
0.0
 10
-119.1946
 20
-30.8164
 30
0.0
 10
-119.1946
 20
-25.8872
 30
0.0
 10
-119.1946
 20
-25.8872
 30
0.0
 10
-119.1946
 20
-25.8872
 30
0.0
 10
-119.1946
 20
-25.8872
 30
0.0
 10
-116.1464
 20
-25.8872
 30
0.0
 10
-116.1464
 20
-25.8872
 30
0.0
 10
-116.1464
 20
-25.8872
 30
0.0
 10
-116.1464
 20
-25.8872
 30
0.0
 10
-44.6886
 20
-25.8872
 30
0.0
 10
-44.6886
 20
-25.8872
 30
0.0
 10
-44.6886
 20
-25.8872
 30
0.0
 10
-44.6886
 20
-25.8872
 30
0.0
 10
-41.6403
 20
-25.8872
 30
0.0
 10
-41.6403
 20
-25.8872
 30
0.0
 10
-41.6403
 20
-25.8872
 30
0.0
 10
-41.6403
 20
-25.8872
 30
0.0
 10
-41.6403
 20
-30.8164
 30
0.0
 10
-41.6403
 20
-30.8164
 30
0.0
 10
-41.6403
 20
-30.8164
 30
0.0
 10
-41.6403
 20
-30.8164
 30
0.0
 10
-44.6886
 20
-30.8164
 30
0.0
 10
-44.6886
 20
-30.8164
 30
0.0
 10
-44.6886
 20
-30.8164
 30
0.0
 10
-44.6886
 20
-30.8164
 30
0.0
 10
-44.6886
 20
-51.4043
 30
0.0
 10
-44.6886
 20
-51.4043
 30
0.0
 10
-44.6886
 20
-51.4043
 30
0.0
 10
-44.6886
 20
-51.4043
 30
0.0
 10
-41.6403
 20
-51.4043
 30
0.0
 10
-41.6403
 20
-51.4043
 30
0.0
 10
-41.6403
 20
-51.4043
 30
0.0
 10
-41.6403
 20
-51.4043
 30
0.0
 10
-41.6403
 20
-58.6851
 30
0.0
 10
-41.6403
 20
-58.6851
 30
0.0
 10
-41.6403
 20
-58.6851
 30
0.0
 10
-41.6403
 20
-58.6851
 30
0.0
 10
-44.6886
 20
-58.6851
 30
0.0
 10
-44.6886
 20
-58.6851
 30
0.0
 10
-44.6886
 20
-58.6851
 30
0.0
 10
-44.6886
 20
-58.6851
 30
0.0
 10
-44.6886
 20
-74.864
 30
0.0
 10
-44.6886
 20
-74.864
 30
0.0
 10
-44.6886
 20
-74.864
 30
0.0
 10
-44.6886
 20
-74.864
 30
0.0
 10
-41.6403
 20
-74.864
 30
0.0
 10
-41.6403
 20
-74.864
 30
0.0
 10
-41.6403
 20
-74.864
 30
0.0
 10
-41.6403
 20
-74.864
 30
0.0
 10
-41.6403
 20
-82.1455
 30
0.0
 10
-41.6403
 20
-82.1455
 30
0.0
 10
-41.6403
 20
-82.1455
 30
0.0
 10
-41.6403
 20
-82.1455
 30
0.0
 10
-44.6886
 20
-82.1455
 30
0.0
 10
-44.6886
 20
-82.1455
 30
0.0
 10
-44.6886
 20
-82.1455
 30
0.0
 10
-44.6886
 20
-82.1455
 30
0.0
 10
-44.6886
 20
-100.8814
 30
0.0
 10
-44.6886
 20
-100.8814
 30
0.0
 10
-44.6886
 20
-100.8814
 30
0.0
 10
-44.6886
 20
-100.8814
 30
0.0
 10
-41.6403
 20
-100.8814
 30
0.0
 10
-41.6403
 20
-100.8814
 30
0.0
 10
-41.6403
 20
-100.8814
 30
0.0
 10
-41.6403
 20
-100.8814
 30
0.0
 10
-41.6403
 20
-109.2206
 30
0.0
 10
-41.6403
 20
-109.2206
 30
0.0
 10
-41.6403
 20
-109.2206
 30
0.0
 10
-41.6403
 20
-109.2206
 30
0.0
 10
-44.6886
 20
-109.2206
 30
0.0
 10
-44.6886
 20
-109.2206
 30
0.0
 10
-44.6886
 20
-109.2206
 30
0.0
 10
-44.6886
 20
-109.2206
 30
0.0
 10
-116.1464
 20
-109.2206
 30
0.0
 10
-116.1464
 20
-109.2206
 30
0.0
 10
-116.1464
 20
-109.2206
 30
0.0
 10
-116.1464
 20
-109.2206
 30
0.0
 10
-119.1946
 20
-109.2206
 30
0.0
 10
-119.1946
 20
-109.2206
 30
0.0
 10
-119.1946
 20
-109.2206
 30
0.0
 10
-119.1946
 20
-109.2206
 30
0.0
 10
-119.1946
 20
-100.8814
 30
0.0
 10
-119.1946
 20
-100.8814
 30
0.0
 10
-119.1946
 20
-100.8814
 30
0.0
 10
-119.1946
 20
-100.8814
 30
0.0
 10
-116.1464
 20
-100.8814
 30
0.0
 10
-116.1464
 20
-100.8814
 30
0.0
 10
-116.1464
 20
-100.8814
 30
0.0
 10
-116.1464
 20
-100.8814
 30
0.0
 10
-116.1464
 20
-82.1455
 30
0.0
 10
-116.1464
 20
-82.1455
 30
0.0
 10
-116.1464
 20
-82.1455
 30
0.0
 10
-116.1464
 20
-82.1455
 30
0.0
 10
-119.1946
 20
-82.1455
 30
0.0
 10
-119.1946
 20
-82.1455
 30
0.0
 10
-119.1946
 20
-82.1455
 30
0.0
 10
-119.1946
 20
-82.1455
 30
0.0
 10
-119.1946
 20
-74.864
 30
0.0
 10
-119.1946
 20
-74.864
 30
0.0
 10
-119.1946
 20
-74.864
 30
0.0
 10
-119.1946
 20
-74.864
 30
0.0
 10
-116.1464
 20
-74.864
 30
0.0
 10
-116.1464
 20
-74.864
 30
0.0
 10
-116.1464
 20
-74.864
 30
0.0
 10
-116.1464
 20
-74.864
 30
0.0
 10
-116.1464
 20
-58.6851
 30
0.0
 10
-116.1464
 20
-58.6851
 30
0.0
  0
SPLINE
  5
6E
330
1F
100
AcDbEntity
  8
#Layer 1
 62
   254
370
     9
100
AcDbSpline
210
0.0
220
0.0
230
1.0
 70
    24
 71
     3
 72
     8
 73
     4
 74
     0
 42
0.0000000001
 43
0.0000000001
 40
0.0
 40
0.0
 40
0.0
 40
0.0
 40
1.0
 40
1.0
 40
1.0
 40
1.0
 10
103.3956
 20
1.9604
 30
0.0
 10
103.3956
 20
1.9604
 30
0.0
 10
-71.3357
 20
1.9604
 30
0.0
 10
-71.3357
 20
1.9604
 30
0.0
  0
SPLINE
  5
6F
330
1F
100
AcDbEntity
  8
#Layer 1
 62
   254
370
     9
100
AcDbSpline
210
0.0
220
0.0
230
1.0
 70
     8
 71
     3
 72
   420
 73
   416
 74
     0
 42
0.0000000001
 43
0.0000000001
 40
0.0
 40
0.0
 40
0.0
 40
0.0
 40
0.0095238095238095
 40
0.0095238095238095
 40
0.0095238095238095
 40
0.0095238095238095
 40
0.019047619047619
 40
0.019047619047619
 40
0.019047619047619
 40
0.019047619047619
 40
0.0285714285714286
 40
0.0285714285714286
 40
0.0285714285714286
 40
0.0285714285714286
 40
0.0380952380952381
 40
0.0380952380952381
 40
0.0380952380952381
 40
0.0380952380952381
 40
0.0476190476190476
 40
0.0476190476190476
 40
0.0476190476190476
 40
0.0476190476190476
 40
0.0571428571428571
 40
0.0571428571428571
 40
0.0571428571428571
 40
0.0571428571428571
 40
0.0666666666666667
 40
0.0666666666666667
 40
0.0666666666666667
 40
0.0666666666666667
 40
0.0761904761904762
 40
0.0761904761904762
 40
0.0761904761904762
 40
0.0761904761904762
 40
0.0857142857142857
 40
0.0857142857142857
 40
0.0857142857142857
 40
0.0857142857142857
 40
0.0952380952380952
 40
0.0952380952380952
 40
0.0952380952380952
 40
0.0952380952380952
 40
0.1047619047619048
 40
0.1047619047619048
 40
0.1047619047619048
 40
0.1047619047619048
 40
0.1142857142857143
 40
0.1142857142857143
 40
0.1142857142857143
 40
0.1142857142857143
 40
0.1238095238095238
 40
0.1238095238095238
 40
0.1238095238095238
 40
0.1238095238095238
 40
0.1333333333333333
 40
0.1333333333333333
 40
0.1333333333333333
 40
0.1333333333333333
 40
0.1428571428571428
 40
0.1428571428571428
 40
0.1428571428571428
 40
0.1428571428571428
 40
0.1523809523809524
 40
0.1523809523809524
 40
0.1523809523809524
 40
0.1523809523809524
 40
0.1619047619047619
 40
0.1619047619047619
 40
0.1619047619047619
 40
0.1619047619047619
 40
0.1714285714285714
 40
0.1714285714285714
 40
0.1714285714285714
 40
0.1714285714285714
 40
0.1809523809523809
 40
0.1809523809523809
 40
0.1809523809523809
 40
0.1809523809523809
 40
0.1904761904761905
 40
0.1904761904761905
 40
0.1904761904761905
 40
0.1904761904761905
 40
0.2
 40
0.2
 40
0.2
 40
0.2
 40
0.2095238095238095
 40
0.2095238095238095
 40
0.2095238095238095
 40
0.2095238095238095
 40
0.219047619047619
 40
0.219047619047619
 40
0.219047619047619
 40
0.219047619047619
 40
0.2285714285714286
 40
0.2285714285714286
 40
0.2285714285714286
 40
0.2285714285714286
 40
0.2380952380952381
 40
0.2380952380952381
 40
0.2380952380952381
 40
0.2380952380952381
 40
0.2476190476190476
 40
0.2476190476190476
 40
0.2476190476190476
 40
0.2476190476190476
 40
0.2571428571428571
 40
0.2571428571428571
 40
0.2571428571428571
 40
0.2571428571428571
 40
0.2666666666666667
 40
0.2666666666666667
 40
0.2666666666666667
 40
0.2666666666666667
 40
0.2761904761904762
 40
0.2761904761904762
 40
0.2761904761904762
 40
0.2761904761904762
 40
0.2857142857142857
 40
0.2857142857142857
 40
0.2857142857142857
 40
0.2857142857142857
 40
0.2952380952380952
 40
0.2952380952380952
 40
0.2952380952380952
 40
0.2952380952380952
 40
0.3047619047619048
 40
0.3047619047619048
 40
0.3047619047619048
 40
0.3047619047619048
 40
0.3142857142857143
 40
0.3142857142857143
 40
0.3142857142857143
 40
0.3142857142857143
 40
0.3238095238095238
 40
0.3238095238095238
 40
0.3238095238095238
 40
0.3238095238095238
 40
0.3333333333333333
 40
0.3333333333333333
 40
0.3333333333333333
 40
0.3333333333333333
 40
0.3428571428571429
 40
0.3428571428571429
 40
0.3428571428571429
 40
0.3428571428571429
 40
0.3523809523809524
 40
0.3523809523809524
 40
0.3523809523809524
 40
0.3523809523809524
 40
0.3619047619047619
 40
0.3619047619047619
 40
0.3619047619047619
 40
0.3619047619047619
 40
0.3714285714285714
 40
0.3714285714285714
 40
0.3714285714285714
 40
0.3714285714285714
 40
0.3809523809523809
 40
0.3809523809523809
 40
0.3809523809523809
 40
0.3809523809523809
 40
0.3904761904761905
 40
0.3904761904761905
 40
0.3904761904761905
 40
0.3904761904761905
 40
0.4
 40
0.4
 40
0.4
 40
0.4
 40
0.4095238095238095
 40
0.4095238095238095
 40
0.4095238095238095
 40
0.4095238095238095
 40
0.4190476190476191
 40
0.4190476190476191
 40
0.4190476190476191
 40
0.4190476190476191
 40
0.4285714285714285
 40
0.4285714285714285
 40
0.4285714285714285
 40
0.4285714285714285
 40
0.4380952380952381
 40
0.4380952380952381
 40
0.4380952380952381
 40
0.4380952380952381
 40
0.4476190476190476
 40
0.4476190476190476
 40
0.4476190476190476
 40
0.4476190476190476
 40
0.4571428571428571
 40
0.4571428571428571
 40
0.4571428571428571
 40
0.4571428571428571
 40
0.4666666666666667
 40
0.4666666666666667
 40
0.4666666666666667
 40
0.4666666666666667
 40
0.4761904761904762
 40
0.4761904761904762
 40
0.4761904761904762
 40
0.4761904761904762
 40
0.4857142857142857
 40
0.4857142857142857
 40
0.4857142857142857
 40
0.4857142857142857
 40
0.4952380952380953
 40
0.4952380952380953
 40
0.4952380952380953
 40
0.4952380952380953
 40
0.5047619047619047
 40
0.5047619047619047
 40
0.5047619047619047
 40
0.5047619047619047
 40
0.5142857142857142
 40
0.5142857142857142
 40
0.5142857142857142
 40
0.5142857142857142
 40
0.5238095238095238
 40
0.5238095238095238
 40
0.5238095238095238
 40
0.5238095238095238
 40
0.5333333333333333
 40
0.5333333333333333
 40
0.5333333333333333
 40
0.5333333333333333
 40
0.5428571428571428
 40
0.5428571428571428
 40
0.5428571428571428
 40
0.5428571428571428
 40
0.5523809523809524
 40
0.5523809523809524
 40
0.5523809523809524
 40
0.5523809523809524
 40
0.5619047619047619
 40
0.5619047619047619
 40
0.5619047619047619
 40
0.5619047619047619
 40
0.5714285714285714
 40
0.5714285714285714
 40
0.5714285714285714
 40
0.5714285714285714
 40
0.580952380952381
 40
0.580952380952381
 40
0.580952380952381
 40
0.580952380952381
 40
0.5904761904761905
 40
0.5904761904761905
 40
0.5904761904761905
 40
0.5904761904761905
 40
0.6
 40
0.6
 40
0.6
 40
0.6
 40
0.6095238095238096
 40
0.6095238095238096
 40
0.6095238095238096
 40
0.6095238095238096
 40
0.6190476190476191
 40
0.6190476190476191
 40
0.6190476190476191
 40
0.6190476190476191
 40
0.6285714285714286
 40
0.6285714285714286
 40
0.6285714285714286
 40
0.6285714285714286
 40
0.638095238095238
 40
0.638095238095238
 40
0.638095238095238
 40
0.638095238095238
 40
0.6476190476190476
 40
0.6476190476190476
 40
0.6476190476190476
 40
0.6476190476190476
 40
0.6571428571428571
 40
0.6571428571428571
 40
0.6571428571428571
 40
0.6571428571428571
 40
0.6666666666666666
 40
0.6666666666666666
 40
0.6666666666666666
 40
0.6666666666666666
 40
0.6761904761904762
 40
0.6761904761904762
 40
0.6761904761904762
 40
0.6761904761904762
 40
0.6857142857142857
 40
0.6857142857142857
 40
0.6857142857142857
 40
0.6857142857142857
 40
0.6952380952380952
 40
0.6952380952380952
 40
0.6952380952380952
 40
0.6952380952380952
 40
0.7047619047619048
 40
0.7047619047619048
 40
0.7047619047619048
 40
0.7047619047619048
 40
0.7142857142857143
 40
0.7142857142857143
 40
0.7142857142857143
 40
0.7142857142857143
 40
0.7238095238095238
 40
0.7238095238095238
 40
0.7238095238095238
 40
0.7238095238095238
 40
0.7333333333333333
 40
0.7333333333333333
 40
0.7333333333333333
 40
0.7333333333333333
 40
0.7428571428571429
 40
0.7428571428571429
 40
0.7428571428571429
 40
0.7428571428571429
 40
0.7523809523809524
 40
0.7523809523809524
 40
0.7523809523809524
 40
0.7523809523809524
 40
0.7619047619047619
 40
0.7619047619047619
 40
0.7619047619047619
 40
0.7619047619047619
 40
0.7714285714285715
 40
0.7714285714285715
 40
0.7714285714285715
 40
0.7714285714285715
 40
0.780952380952381
 40
0.780952380952381
 40
0.780952380952381
 40
0.780952380952381
 40
0.7904761904761904
 40
0.7904761904761904
 40
0.7904761904761904
 40
0.7904761904761904
 40
0.8
 40
0.8
 40
0.8
 40
0.8
 40
0.8095238095238095
 40
0.8095238095238095
 40
0.8095238095238095
 40
0.8095238095238095
 40
0.819047619047619
 40
0.819047619047619
 40
0.819047619047619
 40
0.819047619047619
 40
0.8285714285714286
 40
0.8285714285714286
 40
0.8285714285714286
 40
0.8285714285714286
 40
0.8380952380952381
 40
0.8380952380952381
 40
0.8380952380952381
 40
0.8380952380952381
 40
0.8476190476190476
 40
0.8476190476190476
 40
0.8476190476190476
 40
0.8476190476190476
 40
0.8571428571428571
 40
0.8571428571428571
 40
0.8571428571428571
 40
0.8571428571428571
 40
0.8666666666666667
 40
0.8666666666666667
 40
0.8666666666666667
 40
0.8666666666666667
 40
0.8761904761904762
 40
0.8761904761904762
 40
0.8761904761904762
 40
0.8761904761904762
 40
0.8857142857142857
 40
0.8857142857142857
 40
0.8857142857142857
 40
0.8857142857142857
 40
0.8952380952380953
 40
0.8952380952380953
 40
0.8952380952380953
 40
0.8952380952380953
 40
0.9047619047619048
 40
0.9047619047619048
 40
0.9047619047619048
 40
0.9047619047619048
 40
0.9142857142857143
 40
0.9142857142857143
 40
0.9142857142857143
 40
0.9142857142857143
 40
0.9238095238095239
 40
0.9238095238095239
 40
0.9238095238095239
 40
0.9238095238095239
 40
0.9333333333333333
 40
0.9333333333333333
 40
0.9333333333333333
 40
0.9333333333333333
 40
0.9428571428571428
 40
0.9428571428571428
 40
0.9428571428571428
 40
0.9428571428571428
 40
0.9523809523809523
 40
0.9523809523809523
 40
0.9523809523809523
 40
0.9523809523809523
 40
0.9619047619047619
 40
0.9619047619047619
 40
0.9619047619047619
 40
0.9619047619047619
 40
0.9714285714285714
 40
0.9714285714285714
 40
0.9714285714285714
 40
0.9714285714285714
 40
0.9809523809523809
 40
0.9809523809523809
 40
0.9809523809523809
 40
0.9809523809523809
 40
1.0
 40
1.0
 40
1.0
 40
1.0
 10
-71.3357
 20
1.9604
 30
0.0
 10
-71.3357
 20
1.9604
 30
0.0
 10
-89.0938
 20
-4.1176
 30
0.0
 10
-83.6809
 20
-17.6024
 30
0.0
 10
-83.6809
 20
-17.6024
 30
0.0
 10
-77.7539
 20
-32.3674
 30
0.0
 10
-61.2698
 20
-16.2726
 30
0.0
 10
-52.9127
 20
-16.6522
 30
0.0
 10
-52.9127
 20
-16.6522
 30
0.0
 10
-44.5563
 20
-17.0319
 30
0.0
 10
-42.8468
 20
-19.3118
 30
0.0
 10
-42.6574
 20
-18.1715
 30
0.0
 10
-42.6574
 20
-18.1715
 30
0.0
 10
-42.4672
 20
-17.0319
 30
0.0
 10
-51.3934
 20
-12.8536
 30
0.0
 10
-52.3436
 20
-9.6249
 30
0.0
 10
-52.3436
 20
-9.6249
 30
0.0
 10
-53.293
 20
-6.3968
 30
0.0
 10
-55.192
 20
-6.7758
 30
0.0
 10
-55.192
 20
-6.7758
 30
0.0
 10
-55.192
 20
-6.7758
 30
0.0
 10
-55.192
 20
-6.7758
 30
0.0
 10
-63.9287
 20
-17.4122
 30
0.0
 10
-68.8669
 20
-16.4627
 30
0.0
 10
-68.8669
 20
-16.4627
 30
0.0
 10
-73.8045
 20
-15.5126
 30
0.0
 10
-76.6535
 20
-10.0052
 30
0.0
 10
-74.9441
 20
-6.966
 30
0.0
 10
-74.9441
 20
-6.966
 30
0.0
 10
-74.9441
 20
-6.966
 30
0.0
 10
-73.0451
 20
-8.4853
 30
0.0
 10
-71.2406
 20
-6.7758
 30
0.0
 10
-71.2406
 20
-6.7758
 30
0.0
 10
-69.4368
 20
-5.0671
 30
0.0
 10
-69.7213
 20
-1.4587
 30
0.0
 10
-65.828
 20
-0.7937
 30
0.0
 10
-65.828
 20
-0.7937
 30
0.0
 10
-61.9347
 20
-0.129
 30
0.0
 10
-50.4439
 20
-0.129
 30
0.0
 10
-49.1141
 20
-0.9832
 30
0.0
 10
-49.1141
 20
-0.9832
 30
0.0
 10
-47.785
 20
-1.8376
 30
0.0
 10
-46.8356
 20
-4.8769
 30
0.0
 10
-45.3156
 20
-4.5923
 30
0.0
 10
-45.3156
 20
-4.5923
 30
0.0
 10
-43.7963
 20
-4.3071
 30
0.0
 10
-42.9419
 20
-1.1741
 30
0.0
 10
-41.2325
 20
-0.9832
 30
0.0
 10
-41.2325
 20
-0.9832
 30
0.0
 10
-39.523
 20
-0.7937
 30
0.0
 10
-38.0988
 20
-0.7937
 30
0.0
 10
-38.0988
 20
-0.7937
 30
0.0
 10
-38.0988
 20
-0.7937
 30
0.0
 10
-38.0988
 20
-0.7937
 30
0.0
 10
-43.4166
 20
-3.6429
 30
0.0
 10
-42.6574
 20
-7.3463
 30
0.0
 10
-42.6574
 20
-7.3463
 30
0.0
 10
-41.8974
 20
-11.0498
 30
0.0
 10
-37.529
 20
-10.3849
 30
0.0
 10
-36.4844
 20
-9.1502
 30
0.0
 10
-36.4844
 20
-9.1502
 30
0.0
 10
-35.4399
 20
-7.9162
 30
0.0
 10
-36.1048
 20
-5.3523
 30
0.0
 10
-36.1999
 20
-4.972
 30
0.0
 10
-36.1999
 20
-4.972
 30
0.0
 10
-36.1999
 20
-4.972
 30
0.0
 10
-33.3508
 20
-3.7379
 30
0.0
 10
-29.8368
 20
-5.3523
 30
0.0
 10
-29.8368
 20
-5.3523
 30
0.0
 10
-26.3235
 20
-6.966
 30
0.0
 10
-27.0835
 20
-10.0052
 30
0.0
 10
-28.4126
 20
-10.6694
 30
0.0
 10
-28.4126
 20
-10.6694
 30
0.0
 10
-28.4126
 20
-10.6694
 30
0.0
 10
-24.3294
 20
-12.5684
 30
0.0
 10
-22.62
 20
-9.2452
 30
0.0
 10
-22.62
 20
-9.2452
 30
0.0
 10
-22.62
 20
-9.2452
 30
0.0
 10
-19.866
 20
-11.24
 30
0.0
 10
-18.9165
 20
-13.6136
 30
0.0
 10
-18.9165
 20
-13.6136
 30
0.0
 10
-17.967
 20
-15.9873
 30
0.0
 10
-20.2456
 20
-17.5066
 30
0.0
 10
-21.2902
 20
-17.1276
 30
0.0
 10
-21.2902
 20
-17.1276
 30
0.0
 10
-22.3347
 20
-16.7473
 30
0.0
 10
-23.2849
 20
-15.1322
 30
0.0
 10
-22.9052
 20
-13.5193
 30
0.0
 10
-22.9052
 20
-13.5193
 30
0.0
 10
-22.9052
 20
-13.5193
 30
0.0
 10
-27.1785
 20
-15.0379
 30
0.0
 10
-26.8933
 20
-18.8364
 30
0.0
 10
-26.8933
 20
-18.8364
 30
0.0
 10
-26.8933
 20
-18.8364
 30
0.0
 10
-33.0655
 20
-19.5964
 30
0.0
 10
-33.2557
 20
-25.1988
 30
0.0
 10
-33.2557
 20
-25.1988
 30
0.0
 10
-33.2557
 20
-25.1988
 30
0.0
 10
-30.4066
 20
-25.2946
 30
0.0
 10
-28.5077
 20
-25.0093
 30
0.0
 10
-28.5077
 20
-25.0093
 30
0.0
 10
-26.6087
 20
-24.7247
 30
0.0
 10
-26.2284
 20
-25.2946
 30
0.0
 10
-26.2284
 20
-25.2946
 30
0.0
 10
-26.2284
 20
-25.2946
 30
0.0
 10
-26.2284
 20
-25.2946
 30
0.0
 10
-27.4397
 20
-25.555
 30
0.0
 10
-28.7213
 20
-26.4211
 30
0.0
 10
-28.7213
 20
-26.4211
 30
0.0
 10
-29.362
 20
-26.8552
 30
0.0
 10
-30.0207
 20
-27.4402
 30
0.0
 10
-30.5609
 20
-28.216
 30
0.0
 10
-30.5609
 20
-28.216
 30
0.0
 10
-32.4013
 20
-30.7075
 30
0.0
 10
-32.781
 20
-34.1257
 30
0.0
 10
-30.5017
 20
-36.7847
 30
0.0
 10
-30.5017
 20
-36.7847
 30
0.0
 10
-28.6027
 20
-39.0633
 30
0.0
 10
-25.374
 20
-40.7727
 30
0.0
 10
-22.8102
 20
-42.8143
 30
0.0
 10
-22.8102
 20
-42.8143
 30
0.0
 10
-21.9551
 20
-43.495
 30
0.0
 10
-21.1744
 20
-44.2123
 30
0.0
 10
-20.5412
 20
-45.0005
 30
0.0
 10
-20.5412
 20
-45.0005
 30
0.0
 10
-19.9645
 20
-45.8143
 30
0.0
 10
-19.4849
 20
-46.6604
 30
0.0
 10
-19.1053
 20
-47.419
 30
0.0
 10
-19.1053
 20
-47.419
 30
0.0
 10
-17.967
 20
-50.4589
 30
0.0
 10
-20.2456
 20
-53.8778
 30
0.0
 10
-23.6204
 20
-54.0232
 30
0.0
 10
-23.6204
 20
-54.0232
 30
0.0
 10
-24.4232
 20
-54.1548
 30
0.0
 10
-25.2472
 20
-54.1631
 30
0.0
 10
-26.0396
 20
-54.0432
 30
0.0
 10
-26.0396
 20
-54.0432
 30
0.0
 10
-28.4174
 20
-53.6808
 30
0.0
 10
-30.5106
 20
-52.1553
 30
0.0
 10
-30.8992
 20
-49.2931
 30
0.0
 10
-30.8992
 20
-49.2931
 30
0.0
 10
-30.8834
 20
-48.1776
 30
0.0
 10
-30.5017
 20
-47.04
 30
0.0
 10
-29.7424
 20
-46.2807
 30
0.0
 10
-29.7424
 20
-46.2807
 30
0.0
 10
-28.9824
 20
-45.5208
 30
0.0
 10
-27.0835
 20
-46.2807
 30
0.0
 10
-26.3255
 20
-45.1404
 30
0.0
 10
-26.3255
 20
-45.1404
 30
0.0
 10
-25.7543
 20
-44.3811
 30
0.0
 10
-25.8487
 20
-43.5267
 30
0.0
 10
-26.2759
 20
-42.7667
 30
0.0
 10
-26.2759
 20
-42.7667
 30
0.0
 10
-26.7031
 20
-42.0074
 30
0.0
 10
-27.4631
 20
-41.3425
 30
0.0
 10
-28.2231
 20
-40.9629
 30
0.0
 10
-28.2231
 20
-40.9629
 30
0.0
 10
-28.9824
 20
-40.5832
 30
0.0
 10
-30.122
 20
-40.5832
 30
0.0
 10
-30.882
 20
-40.5832
 30
0.0
 10
-30.882
 20
-40.5832
 30
0.0
 10
-30.882
 20
-37.1643
 30
0.0
 10
-31.6413
 20
-33.3658
 30
0.0
 10
-34.3002
 20
-31.0865
 30
0.0
 10
-34.3002
 20
-31.0865
 30
0.0
 10
-34.7564
 20
-34.3917
 30
0.0
 10
-35.6907
 20
-37.8671
 30
0.0
 10
-36.4934
 20
-41.3549
 30
0.0
 10
-36.4934
 20
-41.3549
 30
0.0
 10
-36.7607
 20
-42.5166
 30
0.0
 10
-38.2566
 20
-47.41
 30
0.0
 10
-38.5219
 20
-48.7088
 30
0.0
 10
-38.5219
 20
-48.7088
 30
0.0
 10
-38.8485
 20
-49.8774
 30
0.0
 10
-39.0104
 20
-51.0536
 30
0.0
 10
-39.0248
 20
-52.2125
 30
0.0
 10
-39.0248
 20
-52.2125
 30
0.0
 10
-39.6184
 20
-60.715
 30
0.0
 10
-31.6413
 20
-67.5528
 30
0.0
 10
-23.6645
 20
-67.9325
 30
0.0
 10
-23.6645
 20
-67.9325
 30
0.0
 10
-22.7151
 20
-67.9325
 30
0.0
 10
-21.789
 20
-67.8374
 30
0.0
 10
-20.8806
 20
-67.6699
 30
0.0
 10
-20.8806
 20
-67.6699
 30
0.0
 10
-10.7492
 20
-66.4125
 30
0.0
 10
-6.571
 20
-56.5368
 30
0.0
 10
-0.8732
 20
-48.1797
 30
0.0
 10
-0.8732
 20
-48.1797
 30
0.0
 10
1.0253
 20
-45.1411
 30
0.0
 10
5.2042
 20
-44.7614
 30
0.0
 10
9.1288
 20
-44.8021
 30
0.0
 10
9.1288
 20
-44.8021
 30
0.0
 10
10.5296
 20
-44.8744
 30
0.0
 10
12.0103
 20
-45.1094
 30
0.0
 10
13.5606
 20
-45.5208
 30
0.0
 10
13.5606
 20
-45.5208
 30
0.0
 10
22.8672
 20
-47.9902
 30
0.0
 10
38.9158
 20
-61.6651
 30
0.0
 10
43.5694
 20
-62.6146
 30
0.0
 10
43.5694
 20
-62.6146
 30
0.0
 10
48.2224
 20
-63.5641
 30
0.0
 10
51.0708
 20
-60.715
 30
0.0
 10
50.7869
 20
-58.6259
 30
0.0
 10
50.7869
 20
-58.6259
 30
0.0
 10
50.7869
 20
-58.6259
 30
0.0
 10
49.9318
 20
-57.7715
 30
0.0
 10
48.4125
 20
-57.5813
 30
0.0
 10
48.4125
 20
-57.5813
 30
0.0
 10
46.8926
 20
-57.3912
 30
0.0
 10
45.8487
 20
-55.3972
 30
0.0
 10
46.7031
 20
-54.068
 30
0.0
 10
46.7031
 20
-54.068
 30
0.0
 10
47.5575
 20
-52.7382
 30
0.0
 10
55.5342
 20
-55.6817
 30
0.0
 10
58.6679
 20
-60.5248
 30
0.0
 10
58.6679
 20
-60.5248
 30
0.0
 10
61.8016
 20
-65.3686
 30
0.0
 10
60.4725
 20
-65.9378
 30
0.0
 10
58.5735
 20
-65.5581
 30
0.0
 10
58.5735
 20
-65.5581
 30
0.0
 10
58.5735
 20
-65.5581
 30
0.0
 10
58.0981
 20
-68.4072
 30
0.0
 10
60.1879
 20
-68.5016
 30
0.0
 10
60.1879
 20
-68.5016
 30
0.0
 10
62.2763
 20
-68.5967
 30
0.0
 10
63.1321
 20
-68.217
 30
0.0
 10
63.5117
 20
-67.362
 30
0.0
 10
63.5117
 20
-67.362
 30
0.0
 10
63.8914
 20
-66.5076
 30
0.0
 10
67.1201
 20
-68.4072
 30
0.0
 10
65.41
 20
-70.5907
 30
0.0
 10
65.41
 20
-70.5907
 30
0.0
 10
65.41
 20
-70.5907
 30
0.0
 10
69.2092
 20
-71.1612
 30
0.0
 10
68.7352
 20
-75.1493
 30
0.0
 10
68.7352
 20
-75.1493
 30
0.0
 10
68.2597
 20
-79.138
 30
0.0
 10
65.791
 20
-79.7078
 30
0.0
 10
65.791
 20
-79.7078
 30
0.0
 10
65.791
 20
-79.7078
 30
0.0
 10
65.791
 20
-79.7078
 30
0.0
 10
65.3162
 20
-73.6299
 30
0.0
 10
61.5177
 20
-73.9145
 30
0.0
 10
61.5177
 20
-73.9145
 30
0.0
 10
61.5177
 20
-73.9145
 30
0.0
 10
61.4219
 20
-72.1107
 30
0.0
 10
63.2265
 20
-72.3001
 30
0.0
 10
63.2265
 20
-72.3001
 30
0.0
 10
63.2265
 20
-72.3001
 30
0.0
 10
62.0861
 20
-68.3121
 30
0.0
 10
57.529
 20
-71.2563
 30
0.0
 10
57.529
 20
-71.2563
 30
0.0
 10
57.529
 20
-71.2563
 30
0.0
 10
54.2051
 20
-68.4072
 30
0.0
 10
56.1041
 20
-63.1844
 30
0.0
 10
56.1041
 20
-63.1844
 30
0.0
 10
56.1041
 20
-63.1844
 30
0.0
 10
51.1666
 20
-62.8048
 30
0.0
 10
50.7869
 20
-66.223
 30
0.0
 10
50.7869
 20
-66.223
 30
0.0
 10
50.7869
 20
-66.223
 30
0.0
 10
48.1273
 20
-63.6592
 30
0.0
 10
44.9936
 20
-65.6532
 30
0.0
 10
44.9936
 20
-65.6532
 30
0.0
 10
44.9936
 20
-65.6532
 30
0.0
 10
48.2224
 20
-66.6026
 30
0.0
 10
51.4511
 20
-71.1612
 30
0.0
 10
51.4511
 20
-71.1612
 30
0.0
 10
54.6792
 20
-75.7191
 30
0.0
 10
55.6294
 20
-86.7351
 30
0.0
 10
64.4612
 20
-86.64
 30
0.0
 10
64.4612
 20
-86.64
 30
0.0
 10
73.2923
 20
-86.5449
 30
0.0
 10
72.5331
 20
-79.6127
 30
0.0
 10
72.5331
 20
-79.6127
 30
0.0
 10
72.5331
 20
-79.6127
 30
0.0
 10
72.5331
 20
-79.6127
 30
0.0
 10
74.1157
 20
-86.8667
 30
0.0
 10
79.479
 20
-92.2521
 30
0.0
 10
79.479
 20
-92.2521
 30
0.0
 10
80.5525
 20
-93.3297
 30
0.0
 10
81.7755
 20
-94.3315
 30
0.0
 10
83.1667
 20
-95.1859
 30
0.0
 10
83.1667
 20
-95.1859
 30
0.0
 10
84.2595
 20
-95.8798
 30
0.0
 10
85.4508
 20
-96.5144
 30
0.0
 10
86.7117
 20
-97.0807
 30
0.0
 10
86.7117
 20
-97.0807
 30
0.0
 10
97.8876
 20
-102.8788
 30
0.0
 10
116.1204
 20
-100.5996
 30
0.0
 10
118.3997
 20
-85.7849
 30
0.0
 10
118.3997
 20
-85.7849
 30
0.0
 10
119.1597
 20
-80.8474
 30
0.0
 10
116.8804
 20
-75.9092
 30
0.0
 10
113.0818
 20
-72.8707
 30
0.0
 10
113.0818
 20
-72.8707
 30
0.0
 10
112.1324
 20
-72.2057
 30
0.0
 10
111.1588
 20
-71.6594
 30
0.0
 10
110.1687
 20
-71.2032
 30
0.0
 10
110.1687
 20
-71.2032
 30
0.0
 10
109.4259
 20
-70.8615
 30
0.0
 10
108.6741
 20
-70.57
 30
0.0
 10
107.9162
 20
-70.3171
 30
0.0
 10
107.9162
 20
-70.3171
 30
0.0
 10
107.157
 20
-70.0643
 30
0.0
 10
106.3921
 20
-69.85
 30
0.0
 10
105.6239
 20
-69.6619
 30
0.0
 10
105.6239
 20
-69.6619
 30
0.0
 10
104.2252
 20
-69.5565
 30
0.0
 10
102.7658
 20
-68.9336
 30
0.0
 10
101.4347
 20
-68.4375
 30
0.0
 10
101.4347
 20
-68.4375
 30
0.0
 10
100.1034
 20
-67.9373
 30
0.0
 10
98.897
 20
-67.5666
 30
0.0
 10
97.9523
 20
-68.1247
 30
0.0
 10
97.9523
 20
-68.1247
 30
0.0
 10
97.3825
 20
-68.5037
 30
0.0
 10
97.4528
 20
-69.5296
 30
0.0
 10
97.8221
 20
-70.6334
 30
0.0
 10
97.8221
 20
-70.6334
 30
0.0
 10
98.1914
 20
-71.7338
 30
0.0
 10
98.8667
 20
-72.8989
 30
0.0
 10
99.464
 20
-73.6872
 30
0.0
 10
99.464
 20
-73.6872
 30
0.0
 10
99.9774
 20
-74.5794
 30
0.0
 10
100.357
 20
-75.5296
 30
0.0
 10
100.1668
 20
-76.6685
 30
0.0
 10
100.1668
 20
-76.6685
 30
0.0
 10
99.7872
 20
-77.8082
 30
0.0
 10
98.2679
 20
-78.9478
 30
0.0
 10
97.1283
 20
-78.5682
 30
0.0
 10
97.1283
 20
-78.5682
 30
0.0
 10
96.1788
 20
-77.9984
 30
0.0
 10
95.7034
 20
-77.2384
 30
0.0
 10
95.3968
 20
-76.4039
 30
0.0
 10
95.3968
 20
-76.4039
 30
0.0
 10
94.2482
 20
-73.3874
 30
0.0
 10
93.3579
 20
-70.2793
 30
0.0
 10
92.5491
 20
-67.1552
 30
0.0
 10
92.5491
 20
-67.1552
 30
0.0
 10
92.2789
 20
-66.1128
 30
0.0
 10
92.0185
 20
-65.0689
 30
0.0
 10
91.7629
 20
-64.014
 30
0.0
 10
91.7629
 20
-64.014
 30
0.0
 10
89.5312
 20
-51.9789
 30
0.0
 10
86.1122
 20
-38.6836
 30
0.0
 10
74.4175
 20
-32.222
 30
0.0
 10
74.4175
 20
-32.222
 30
0.0
 10
73.2365
 20
-31.5206
 30
0.0
 10
71.9853
 20
-30.9066
 30
0.0
 10
70.663
 20
-30.3912
 30
0.0
 10
70.663
 20
-30.3912
 30
0.0
 10
69.3388
 20
-29.8752
 30
0.0
 10
67.9442
 20
-29.4583
 30
0.0
 10
66.4745
 20
-29.1503
 30
0.0
 10
66.4745
 20
-29.1503
 30
0.0
 10
65.5078
 20
-28.6377
 30
0.0
 10
64.5197
 20
-28.1533
 30
0.0
 10
63.5041
 20
-27.713
 30
0.0
 10
63.5041
 20
-27.713
 30
0.0
 10
62.4885
 20
-27.2721
 30
0.0
 10
61.446
 20
-26.8766
 30
0.0
 10
60.3781
 20
-26.5286
 30
0.0
 10
60.3781
 20
-26.5286
 30
0.0
 10
60.3781
 20
-26.5286
 30
0.0
 10
61.9924
 20
-25.1037
 30
0.0
 10
63.0363
 20
-25.389
 30
0.0
 10
63.0363
 20
-25.389
 30
0.0
 10
63.0363
 20
-25.389
 30
0.0
 10
63.7963
 20
-21.8757
 30
0.0
 10
59.1426
 20
-18.9315
 30
0.0
 10
59.1426
 20
-18.9315
 30
0.0
 10
54.4897
 20
-15.9873
 30
0.0
 10
51.1666
 20
-20.8311
 30
0.0
 10
48.5076
 20
-19.1216
 30
0.0
 10
48.5076
 20
-19.1216
 30
0.0
 10
45.8487
 20
-17.4122
 30
0.0
 10
49.7417
 20
-9.0558
 30
0.0
 10
55.9146
 20
-10.6694
 30
0.0
 10
55.9146
 20
-10.6694
 30
0.0
 10
55.9146
 20
-10.6694
 30
0.0
 10
56.6739
 20
-5.9214
 30
0.0
 10
61.8016
 20
-5.5418
 30
0.0
 10
61.8016
 20
-5.5418
 30
0.0
 10
66.93
 20
-5.1621
 30
0.0
 10
69.019
 20
-8.7698
 30
0.0
 10
66.6454
 20
-9.9095
 30
0.0
 10
66.6454
 20
-9.9095
 30
0.0
 10
66.6454
 20
-9.9095
 30
0.0
 10
71.678
 20
-11.8091
 30
0.0
 10
73.9573
 20
-9.0558
 30
0.0
 10
73.9573
 20
-9.0558
 30
0.0
 10
76.2358
 20
-6.3011
 30
0.0
 10
74.6215
 20
-3.8323
 30
0.0
 10
73.1979
 20
-2.7878
 30
0.0
 10
73.1979
 20
-2.7878
 30
0.0
 10
73.1979
 20
-2.7878
 30
0.0
 10
76.7112
 20
-4.0218
 30
0.0
 10
79.3702
 20
-3.073
 30
0.0
 10
79.3702
 20
-3.073
 30
0.0
 10
82.0291
 20
-2.1229
 30
0.0
 10
88.9613
 20
-1.553
 30
0.0
 10
91.4301
 20
-2.5025
 30
0.0
 10
91.4301
 20
-2.5025
 30
0.0
 10
93.8988
 20
-3.4527
 30
0.0
 10
95.2287
 20
-6.1123
 30
0.0
 10
96.843
 20
-6.3011
 30
0.0
 10
96.843
 20
-6.3011
 30
0.0
 10
98.4581
 20
-6.4913
 30
0.0
 10
102.9208
 20
-5.2572
 30
0.0
 10
104.4408
 20
-1.9341
 30
0.0
 10
104.4408
 20
-1.9341
 30
0.0
 10
105.9601
 20
1.3903
 30
0.0
 10
104.6303
 20
2.0555
 30
0.0
 10
103.3956
 20
1.9604
 30
0.0
  0
SPLINE
  5
70
330
1F
100
AcDbEntity
  8
#Layer 1
 62
   254
370
     9
100
AcDbSpline
210
0.0
220
0.0
230
1.0
 70
     8
 71
     3
 72
     8
 73
     4
 74
     0
 42
0.0000000001
 43
0.0000000001
 40
0.0
 40
0.0
 40
0.0
 40
0.0
 40
1.0
 40
1.0
 40
1.0
 40
1.0
 10
-9.192
 20
-54.8452
 30
0.0
 10
-6.191
 20
-49.6997
 30
0.0
 10
-4.2921
 20
-42.4822
 30
0.0
 10
2.0712
 20
-40.2987
 30
0.0
  0
SPLINE
  5
71
330
1F
100
AcDbEntity
  8
#Layer 1
 62
   254
370
     9
100
AcDbSpline
210
0.0
220
0.0
230
1.0
 70
    24
 71
     3
 72
     8
 73
     4
 74
     0
 42
0.0000000001
 43
0.0000000001
 40
0.0
 40
0.0
 40
0.0
 40
0.0
 40
1.0
 40
1.0
 40
1.0
 40
1.0
 10
2.0712
 20
-40.2987
 30
0.0
 10
2.0712
 20
-40.2987
 30
0.0
 10
1.2161
 20
-37.6391
 30
0.0
 10
1.2161
 20
-37.6391
 30
0.0
  0
SPLINE
  5
72
330
1F
100
AcDbEntity
  8
#Layer 1
 62
   254
370
     9
100
AcDbSpline
210
0.0
220
0.0
230
1.0
 70
     8
 71
     3
 72
    12
 73
     8
 74
     0
 42
0.0000000001
 43
0.0000000001
 40
0.0
 40
0.0
 40
0.0
 40
0.0
 40
0.3333333333333333
 40
0.3333333333333333
 40
0.3333333333333333
 40
0.3333333333333333
 40
1.0
 40
1.0
 40
1.0
 40
1.0
 10
1.2161
 20
-37.6391
 30
0.0
 10
1.2161
 20
-37.6391
 30
0.0
 10
0.2679
 20
-37.8526
 30
0.0
 10
-1.0427
 20
-38.4604
 30
0.0
 10
-1.0427
 20
-38.4604
 30
0.0
 10
-6.951
 20
-41.3425
 30
0.0
 10
-9.6099
 20
-48.1797
 30
0.0
 10
-11.5571
 20
-54.1094
 30
0.0
  0
SPLINE
  5
73
330
1F
100
AcDbEntity
  8
#Layer 1
 62
   254
370
     9
100
AcDbSpline
210
0.0
220
0.0
230
1.0
 70
    24
 71
     3
 72
     8
 73
     4
 74
     0
 42
0.0000000001
 43
0.0000000001
 40
0.0
 40
0.0
 40
0.0
 40
0.0
 40
1.0
 40
1.0
 40
1.0
 40
1.0
 10
-11.5571
 20
-54.1094
 30
0.0
 10
-11.5571
 20
-54.1094
 30
0.0
 10
-9.192
 20
-54.8452
 30
0.0
 10
-9.192
 20
-54.8452
 30
0.0
  0
SPLINE
  5
74
330
1F
100
AcDbEntity
  8
#Layer 1
 62
   254
370
     9
100
AcDbSpline
210
0.0
220
0.0
230
1.0
 70
    24
 71
     3
 72
     8
 73
     4
 74
     0
 42
0.0000000001
 43
0.0000000001
 40
0.0
 40
0.0
 40
0.0
 40
0.0
 40
1.0
 40
1.0
 40
1.0
 40
1.0
 10
7.4834
 20
-39.9183
 30
0.0
 10
7.4834
 20
-39.9183
 30
0.0
 10
7.4834
 20
-37.1643
 30
0.0
 10
7.4834
 20
-37.1643
 30
0.0
  0
SPLINE
  5
75
330
1F
100
AcDbEntity
  8
#Layer 1
 62
   254
370
     9
100
AcDbSpline
210
0.0
220
0.0
230
1.0
 70
     8
 71
     3
 72
    12
 73
     8
 74
     0
 42
0.0000000001
 43
0.0000000001
 40
0.0
 40
0.0
 40
0.0
 40
0.0
 40
0.3333333333333333
 40
0.3333333333333333
 40
0.3333333333333333
 40
0.3333333333333333
 40
1.0
 40
1.0
 40
1.0
 40
1.0
 10
7.4834
 20
-37.1643
 30
0.0
 10
7.4834
 20
-37.1643
 30
0.0
 10
15.7448
 20
-37.3538
 30
0.0
 10
20.5879
 20
-40.4881
 30
0.0
 10
20.5879
 20
-40.4881
 30
0.0
 10
25.4317
 20
-43.6218
 30
0.0
 10
28.0906
 20
-44.1916
 30
0.0
 10
28.0906
 20
-44.1916
 30
0.0
  0
SPLINE
  5
76
330
1F
100
AcDbEntity
  8
#Layer 1
 62
   254
370
     9
100
AcDbSpline
210
0.0
220
0.0
230
1.0
 70
    24
 71
     3
 72
     8
 73
     4
 74
     0
 42
0.0000000001
 43
0.0000000001
 40
0.0
 40
0.0
 40
0.0
 40
0.0
 40
1.0
 40
1.0
 40
1.0
 40
1.0
 10
28.0906
 20
-44.1916
 30
0.0
 10
28.0906
 20
-44.1916
 30
0.0
 10
26.0966
 20
-46.9456
 30
0.0
 10
26.0966
 20
-46.9456
 30
0.0
  0
SPLINE
  5
77
330
1F
100
AcDbEntity
  8
#Layer 1
 62
   254
370
     9
100
AcDbSpline
210
0.0
220
0.0
230
1.0
 70
     8
 71
     3
 72
     8
 73
     4
 74
     0
 42
0.0000000001
 43
0.0000000001
 40
0.0
 40
0.0
 40
0.0
 40
0.0
 40
1.0
 40
1.0
 40
1.0
 40
1.0
 10
26.0966
 20
-46.9456
 30
0.0
 10
26.0966
 20
-46.9456
 30
0.0
 10
14.4157
 20
-39.5387
 30
0.0
 10
7.4834
 20
-39.9183
 30
0.0
  0
SPLINE
  5
78
330
1F
100
AcDbEntity
  8
#Layer 1
 62
   254
370
     9
100
AcDbSpline
210
0.0
220
0.0
230
1.0
 70
     8
 71
     3
 72
    20
 73
    16
 74
     0
 42
0.0000000001
 43
0.0000000001
 40
0.0
 40
0.0
 40
0.0
 40
0.0
 40
0.2
 40
0.2
 40
0.2
 40
0.2
 40
0.4
 40
0.4
 40
0.4
 40
0.4
 40
0.6
 40
0.6
 40
0.6
 40
0.6
 40
1.0
 40
1.0
 40
1.0
 40
1.0
 10
30.8439
 20
-49.7947
 30
0.0
 10
32.3632
 20
-50.9337
 30
0.0
 10
40.8154
 20
-55.4922
 30
0.0
 10
40.8154
 20
-55.4922
 30
0.0
 10
40.8154
 20
-55.4922
 30
0.0
 10
40.8154
 20
-55.4922
 30
0.0
 10
40.3407
 20
-51.5986
 30
0.0
 10
43.094
 20
-50.8393
 30
0.0
 10
43.094
 20
-50.8393
 30
0.0
 10
43.094
 20
-50.8393
 30
0.0
 10
39.3905
 20
-50.0793
 30
0.0
 10
37.0169
 20
-48.4649
 30
0.0
 10
37.0169
 20
-48.4649
 30
0.0
 10
34.6418
 20
-46.8505
 30
0.0
 10
33.1225
 20
-46.3758
 30
0.0
 10
33.1225
 20
-46.3758
 30
0.0
  0
SPLINE
  5
79
330
1F
100
AcDbEntity
  8
#Layer 1
 62
   254
370
     9
100
AcDbSpline
210
0.0
220
0.0
230
1.0
 70
    24
 71
     3
 72
     8
 73
     4
 74
     0
 42
0.0000000001
 43
0.0000000001
 40
0.0
 40
0.0
 40
0.0
 40
0.0
 40
1.0
 40
1.0
 40
1.0
 40
1.0
 10
33.1225
 20
-46.3758
 30
0.0
 10
33.1225
 20
-46.3758
 30
0.0
 10
30.8439
 20
-49.7947
 30
0.0
 10
30.8439
 20
-49.7947
 30
0.0
  0
SPLINE
  5
7A
330
1F
100
AcDbEntity
  8
#Layer 1
 62
   254
370
     9
100
AcDbSpline
210
0.0
220
0.0
230
1.0
 70
     8
 71
     3
 72
    12
 73
     8
 74
     0
 42
0.0000000001
 43
0.0000000001
 40
0.0
 40
0.0
 40
0.0
 40
0.0
 40
0.3333333333333333
 40
0.3333333333333333
 40
0.3333333333333333
 40
0.3333333333333333
 40
1.0
 40
1.0
 40
1.0
 40
1.0
 10
53.4451
 20
-51.9789
 30
0.0
 10
58.9532
 20
-52.3586
 30
0.0
 10
62.8461
 20
-55.8719
 30
0.0
 10
68.8289
 20
-63.6592
 30
0.0
 10
68.8289
 20
-63.6592
 30
0.0
 10
74.8116
 20
-71.4458
 30
0.0
 10
77.0909
 20
-75.624
 30
0.0
 10
77.0909
 20
-75.624
 30
0.0
  0
SPLINE
  5
7B
330
1F
100
AcDbEntity
  8
#Layer 1
 62
   254
370
     9
100
AcDbSpline
210
0.0
220
0.0
230
1.0
 70
    24
 71
     3
 72
     8
 73
     4
 74
     0
 42
0.0000000001
 43
0.0000000001
 40
0.0
 40
0.0
 40
0.0
 40
0.0
 40
1.0
 40
1.0
 40
1.0
 40
1.0
 10
77.0909
 20
-75.624
 30
0.0
 10
77.0909
 20
-75.624
 30
0.0
 10
73.5776
 20
-75.8142
 30
0.0
 10
73.5776
 20
-75.8142
 30
0.0
  0
SPLINE
  5
7C
330
1F
100
AcDbEntity
  8
#Layer 1
 62
   254
370
     9
100
AcDbSpline
210
0.0
220
0.0
230
1.0
 70
     8
 71
     3
 72
     8
 73
     4
 74
     0
 42
0.0000000001
 43
0.0000000001
 40
0.0
 40
0.0
 40
0.0
 40
0.0
 40
1.0
 40
1.0
 40
1.0
 40
1.0
 10
73.5776
 20
-75.8142
 30
0.0
 10
73.5776
 20
-75.8142
 30
0.0
 10
65.6008
 20
-58.4357
 30
0.0
 10
53.4451
 20
-51.9789
 30
0.0
  0
SPLINE
  5
7D
330
1F
100
AcDbEntity
  8
#Layer 1
 62
   254
370
     9
100
AcDbSpline
210
0.0
220
0.0
230
1.0
 70
    24
 71
     3
 72
     8
 73
     4
 74
     0
 42
0.0000000001
 43
0.0000000001
 40
0.0
 40
0.0
 40
0.0
 40
0.0
 40
1.0
 40
1.0
 40
1.0
 40
1.0
 10
80.6993
 20
-81.132
 30
0.0
 10
80.6993
 20
-81.132
 30
0.0
 10
77.5663
 20
-81.132
 30
0.0
 10
77.5663
 20
-81.132
 30
0.0
  0
SPLINE
  5
7E
330
1F
100
AcDbEntity
  8
#Layer 1
 62
   254
370
     9
100
AcDbSpline
210
0.0
220
0.0
230
1.0
 70
     8
 71
     3
 72
    40
 73
    36
 74
     0
 42
0.0000000001
 43
0.0000000001
 40
0.0
 40
0.0
 40
0.0
 40
0.0
 40
0.1
 40
0.1
 40
0.1
 40
0.1
 40
0.2
 40
0.2
 40
0.2
 40
0.2
 40
0.3
 40
0.3
 40
0.3
 40
0.3
 40
0.4
 40
0.4
 40
0.4
 40
0.4
 40
0.5
 40
0.5
 40
0.5
 40
0.5
 40
0.6
 40
0.6
 40
0.6
 40
0.6
 40
0.7
 40
0.7
 40
0.7
 40
0.7
 40
0.8
 40
0.8
 40
0.8
 40
0.8
 40
1.0
 40
1.0
 40
1.0
 40
1.0
 10
77.5663
 20
-81.132
 30
0.0
 10
77.5663
 20
-81.132
 30
0.0
 10
77.8557
 20
-81.6226
 30
0.0
 10
78.4021
 20
-82.4218
 30
0.0
 10
78.4021
 20
-82.4218
 30
0.0
 10
78.9464
 20
-83.2218
 30
0.0
 10
79.7464
 20
-84.3297
 30
0.0
 10
80.7654
 20
-85.5638
 30
0.0
 10
80.7654
 20
-85.5638
 30
0.0
 10
81.3401
 20
-86.361
 30
0.0
 10
81.9561
 20
-87.1299
 30
0.0
 10
82.612
 20
-87.8623
 30
0.0
 10
82.612
 20
-87.8623
 30
0.0
 10
83.268
 20
-88.5954
 30
0.0
 10
83.9632
 20
-89.2907
 30
0.0
 10
84.697
 20
-89.9404
 30
0.0
 10
84.697
 20
-89.9404
 30
0.0
 10
87.6322
 20
-92.6221
 30
0.0
 10
91.0504
 20
-93.7617
 30
0.0
 10
94.849
 20
-94.5217
 30
0.0
 10
94.849
 20
-94.5217
 30
0.0
 10
91.8104
 20
-92.2424
 30
0.0
 10
88.3922
 20
-90.7238
 30
0.0
 10
85.8435
 20
-88.109
 30
0.0
 10
85.8435
 20
-88.109
 30
0.0
 10
85.1917
 20
-87.4276
 30
0.0
 10
84.5716
 20
-86.7137
 30
0.0
 10
83.9914
 20
-85.973
 30
0.0
 10
83.9914
 20
-85.973
 30
0.0
 10
83.412
 20
-85.2317
 30
0.0
 10
82.8711
 20
-84.4627
 30
0.0
 10
82.3757
 20
-83.6662
 30
0.0
 10
82.3757
 20
-83.6662
 30
0.0
 10
81.799
 20
-82.8704
 30
0.0
 10
81.2381
 20
-82.0263
 30
0.0
 10
80.6993
 20
-81.132
 30
0.0
  0
SPLINE
  5
7F
330
1F
100
AcDbEntity
  8
#Layer 1
 62
   254
370
     9
100
AcDbSpline
210
0.0
220
0.0
230
1.0
 70
     8
 71
     3
 72
    12
 73
     8
 74
     0
 42
0.0000000001
 43
0.0000000001
 40
0.0
 40
0.0
 40
0.0
 40
0.0
 40
0.3333333333333333
 40
0.3333333333333333
 40
0.3333333333333333
 40
0.3333333333333333
 40
1.0
 40
1.0
 40
1.0
 40
1.0
 10
-16.5421
 20
-25.1988
 30
0.0
 10
-13.1239
 20
-24.8192
 30
0.0
 10
-10.0854
 20
-21.4002
 30
0.0
 10
-11.8892
 20
-17.8869
 30
0.0
 10
-11.8892
 20
-17.8869
 30
0.0
 10
-11.8892
 20
-17.8869
 30
0.0
 10
-5.9071
 20
-24.1543
 30
0.0
 10
0.5505
 20
-24.8192
 30
0.0
  0
SPLINE
  5
80
330
1F
100
AcDbEntity
  8
#Layer 1
 62
   254
370
     9
100
AcDbSpline
210
0.0
220
0.0
230
1.0
 70
    24
 71
     3
 72
     8
 73
     4
 74
     0
 42
0.0000000001
 43
0.0000000001
 40
0.0
 40
0.0
 40
0.0
 40
0.0
 40
1.0
 40
1.0
 40
1.0
 40
1.0
 10
0.5505
 20
-24.8192
 30
0.0
 10
0.5505
 20
-24.8192
 30
0.0
 10
-16.5421
 20
-25.1988
 30
0.0
 10
-16.5421
 20
-25.1988
 30
0.0
  0
SPLINE
  5
81
330
1F
100
AcDbEntity
  8
#Layer 1
 62
   254
370
     9
100
AcDbSpline
210
0.0
220
0.0
230
1.0
 70
    24
 71
     3
 72
     8
 73
     4
 74
     0
 42
0.0000000001
 43
0.0000000001
 40
0.0
 40
0.0
 40
0.0
 40
0.0
 40
1.0
 40
1.0
 40
1.0
 40
1.0
 10
9.762
 20
-25.2946
 30
0.0
 10
9.762
 20
-25.2946
 30
0.0
 10
24.197
 20
-25.2946
 30
0.0
 10
24.197
 20
-25.2946
 30
0.0
  0
SPLINE
  5
82
330
1F
100
AcDbEntity
  8
#Layer 1
 62
   254
370
     9
100
AcDbSpline
210
0.0
220
0.0
230
1.0
 70
     8
 71
     3
 72
    12
 73
     8
 74
     0
 42
0.0000000001
 43
0.0000000001
 40
0.0
 40
0.0
 40
0.0
 40
0.0
 40
0.3333333333333333
 40
0.3333333333333333
 40
0.3333333333333333
 40
0.3333333333333333
 40
1.0
 40
1.0
 40
1.0
 40
1.0
 10
24.197
 20
-25.2946
 30
0.0
 10
24.197
 20
-25.2946
 30
0.0
 10
17.3598
 20
-22.8251
 30
0.0
 10
18.4995
 20
-18.8364
 30
0.0
 10
18.4995
 20
-18.8364
 30
0.0
 10
18.4995
 20
-18.8364
 30
0.0
 10
14.4157
 20
-23.8697
 30
0.0
 10
9.762
 20
-25.2946
 30
0.0
  0
SPLINE
  5
83
330
1F
100
AcDbEntity
  8
#Layer 1
 62
   254
370
     9
100
AcDbSpline
210
0.0
220
0.0
230
1.0
 70
    24
 71
     3
 72
     8
 73
     4
 74
     0
 42
0.0000000001
 43
0.0000000001
 40
0.0
 40
0.0
 40
0.0
 40
0.0
 40
1.0
 40
1.0
 40
1.0
 40
1.0
 10
32.2688
 20
-25.1988
 30
0.0
 10
32.2688
 20
-25.1988
 30
0.0
 10
49.2669
 20
-25.1988
 30
0.0
 10
49.2669
 20
-25.1988
 30
0.0
  0
SPLINE
  5
84
330
1F
100
AcDbEntity
  8
#Layer 1
 62
   254
370
     9
100
AcDbSpline
210
0.0
220
0.0
230
1.0
 70
     8
 71
     3
 72
    12
 73
     8
 74
     0
 42
0.0000000001
 43
0.0000000001
 40
0.0
 40
0.0
 40
0.0
 40
0.0
 40
0.3333333333333333
 40
0.3333333333333333
 40
0.3333333333333333
 40
0.3333333333333333
 40
1.0
 40
1.0
 40
1.0
 40
1.0
 10
49.2669
 20
-25.1988
 30
0.0
 10
49.2669
 20
-25.1988
 30
0.0
 10
42.7137
 20
-23.1097
 30
0.0
 10
43.1891
 20
-19.6915
 30
0.0
 10
43.1891
 20
-19.6915
 30
0.0
 10
43.1891
 20
-19.6915
 30
0.0
 10
38.8207
 20
-24.3444
 30
0.0
 10
32.2688
 20
-25.1988
 30
0.0
  0
SPLINE
  5
85
330
1F
100
AcDbEntity
  8
#Layer 1
 62
   254
370
     9
100
AcDbSpline
210
0.0
220
0.0
230
1.0
 70
     8
 71
     3
 72
    20
 73
    16
 74
     0
 42
0.0000000001
 43
0.0000000001
 40
0.0
 40
0.0
 40
0.0
 40
0.0
 40
0.2
 40
0.2
 40
0.2
 40
0.2
 40
0.4
 40
0.4
 40
0.4
 40
0.4
 40
0.6
 40
0.6
 40
0.6
 40
0.6
 40
1.0
 40
1.0
 40
1.0
 40
1.0
 10
56.6739
 20
-2.5976
 30
0.0
 10
51.9259
 20
-3.7379
 30
0.0
 10
48.0322
 20
-11.0498
 30
0.0
 10
45.1838
 20
-10.3849
 30
0.0
 10
45.1838
 20
-10.3849
 30
0.0
 10
42.3347
 20
-9.72
 30
0.0
 10
43.5694
 20
-7.5358
 30
0.0
 10
43.5694
 20
-7.5358
 30
0.0
 10
43.5694
 20
-7.5358
 30
0.0
 10
43.5694
 20
-7.5358
 30
0.0
 10
47.368
 20
-8.1056
 30
0.0
 10
47.4631
 20
-5.7319
 30
0.0
 10
47.4631
 20
-5.7319
 30
0.0
 10
47.5575
 20
-3.3569
 30
0.0
 10
46.7975
 20
-2.6934
 30
0.0
 10
46.7975
 20
-2.6934
 30
0.0
  0
SPLINE
  5
86
330
1F
100
AcDbEntity
  8
#Layer 1
 62
   254
370
     9
100
AcDbSpline
210
0.0
220
0.0
230
1.0
 70
    24
 71
     3
 72
     8
 73
     4
 74
     0
 42
0.0000000001
 43
0.0000000001
 40
0.0
 40
0.0
 40
0.0
 40
0.0
 40
1.0
 40
1.0
 40
1.0
 40
1.0
 10
46.7975
 20
-2.6934
 30
0.0
 10
46.7975
 20
-2.6934
 30
0.0
 10
56.6739
 20
-2.5976
 30
0.0
 10
56.6739
 20
-2.5976
 30
0.0
  0
SPLINE
  5
87
330
1F
100
AcDbEntity
  8
#Layer 1
 62
   254
370
     9
100
AcDbSpline
210
0.0
220
0.0
230
1.0
 70
    11
 71
     3
 72
    36
 73
    32
 74
     0
 42
0.0000000001
 43
0.0000000001
 40
0.0
 40
0.0
 40
0.0
 40
0.0
 40
0.1111111111111111
 40
0.1111111111111111
 40
0.1111111111111111
 40
0.1111111111111111
 40
0.2222222222222222
 40
0.2222222222222222
 40
0.2222222222222222
 40
0.2222222222222222
 40
0.3333333333333333
 40
0.3333333333333333
 40
0.3333333333333333
 40
0.3333333333333333
 40
0.4444444444444444
 40
0.4444444444444444
 40
0.4444444444444444
 40
0.4444444444444444
 40
0.5555555555555556
 40
0.5555555555555556
 40
0.5555555555555556
 40
0.5555555555555556
 40
0.6666666666666666
 40
0.6666666666666666
 40
0.6666666666666666
 40
0.6666666666666666
 40
0.7777777777777778
 40
0.7777777777777778
 40
0.7777777777777778
 40
0.7777777777777778
 40
1.0
 40
1.0
 40
1.0
 40
1.0
 10
36.352
 20
-9.3404
 30
0.0
 10
34.0734
 20
-11.6196
 30
0.0
 10
34.7376
 20
-14.9435
 30
0.0
 10
37.0169
 20
-15.228
 30
0.0
 10
37.0169
 20
-15.228
 30
0.0
 10
39.2955
 20
-15.5126
 30
0.0
 10
41.9544
 20
-14.3729
 30
0.0
 10
41.9544
 20
-14.3729
 30
0.0
 10
41.9544
 20
-14.3729
 30
0.0
 10
41.9544
 20
-14.3729
 30
0.0
 10
39.9603
 20
-12.474
 30
0.0
 10
40.6253
 20
-10.0052
 30
0.0
 10
40.6253
 20
-10.0052
 30
0.0
 10
41.2902
 20
-7.5358
 30
0.0
 10
44.0442
 20
-4.7818
 30
0.0
 10
42.3347
 20
-3.7379
 30
0.0
 10
42.3347
 20
-3.7379
 30
0.0
 10
40.6253
 20
-2.6934
 30
0.0
 10
28.5654
 20
-2.8829
 30
0.0
 10
24.9569
 20
-9.72
 30
0.0
 10
24.9569
 20
-9.72
 30
0.0
 10
21.3479
 20
-16.5571
 30
0.0
 10
27.4257
 20
-23.2999
 30
0.0
 10
34.453
 20
-20.4508
 30
0.0
 10
34.453
 20
-20.4508
 30
0.0
 10
34.453
 20
-20.4508
 30
0.0
 10
28.185
 20
-19.7859
 30
0.0
 10
28.6597
 20
-15.3231
 30
0.0
 10
28.6597
 20
-15.3231
 30
0.0
 10
29.1352
 20
-10.8596
 30
0.0
 10
33.1225
 20
-9.8151
 30
0.0
 10
36.352
 20
-9.3404
 30
0.0
  0
SPLINE
  5
88
330
1F
100
AcDbEntity
  8
#Layer 1
 62
   254
370
     9
100
AcDbSpline
210
0.0
220
0.0
230
1.0
 70
    24
 71
     3
 72
     8
 73
     4
 74
     0
 42
0.0000000001
 43
0.0000000001
 40
0.0
 40
0.0
 40
0.0
 40
0.0
 40
1.0
 40
1.0
 40
1.0
 40
1.0
 10
17.55
 20
-1.6481
 30
0.0
 10
17.55
 20
-1.6481
 30
0.0
 10
4.5399
 20
-1.6481
 30
0.0
 10
4.5399
 20
-1.6481
 30
0.0
  0
SPLINE
  5
89
330
1F
100
AcDbEntity
  8
#Layer 1
 62
   254
370
     9
100
AcDbSpline
210
0.0
220
0.0
230
1.0
 70
     8
 71
     3
 72
     8
 73
     4
 74
     0
 42
0.0000000001
 43
0.0000000001
 40
0.0
 40
0.0
 40
0.0
 40
0.0
 40
1.0
 40
1.0
 40
1.0
 40
1.0
 10
4.5399
 20
-1.6481
 30
0.0
 10
4.5399
 20
-1.6481
 30
0.0
 10
16.8851
 20
-6.3011
 30
0.0
 10
14.7002
 20
-16.3669
 30
0.0
  0
SPLINE
  5
8A
330
1F
100
AcDbEntity
  8
#Layer 1
 62
   254
370
     9
100
AcDbSpline
210
0.0
220
0.0
230
1.0
 70
    24
 71
     3
 72
     8
 73
     4
 74
     0
 42
0.0000000001
 43
0.0000000001
 40
0.0
 40
0.0
 40
0.0
 40
0.0
 40
1.0
 40
1.0
 40
1.0
 40
1.0
 10
14.7002
 20
-16.3669
 30
0.0
 10
14.7002
 20
-16.3669
 30
0.0
 10
20.4935
 20
-9.0558
 30
0.0
 10
20.4935
 20
-9.0558
 30
0.0
  0
SPLINE
  5
8B
330
1F
100
AcDbEntity
  8
#Layer 1
 62
   254
370
     9
100
AcDbSpline
210
0.0
220
0.0
230
1.0
 70
     8
 71
     3
 72
    16
 73
    12
 74
     0
 42
0.0000000001
 43
0.0000000001
 40
0.0
 40
0.0
 40
0.0
 40
0.0
 40
0.25
 40
0.25
 40
0.25
 40
0.25
 40
0.5
 40
0.5
 40
0.5
 40
0.5
 40
1.0
 40
1.0
 40
1.0
 40
1.0
 10
20.4935
 20
-9.0558
 30
0.0
 10
20.4935
 20
-9.0558
 30
0.0
 10
19.3538
 20
-6.0165
 30
0.0
 10
17.4542
 20
-6.3968
 30
0.0
 10
17.4542
 20
-6.3968
 30
0.0
 10
15.5553
 20
-6.7758
 30
0.0
 10
15.5553
 20
-6.7758
 30
0.0
 10
15.5553
 20
-6.7758
 30
0.0
 10
15.5553
 20
-6.7758
 30
0.0
 10
15.5553
 20
-6.7758
 30
0.0
 10
14.9855
 20
-2.7878
 30
0.0
 10
17.55
 20
-1.6481
 30
0.0
  0
SPLINE
  5
8C
330
1F
100
AcDbEntity
  8
#Layer 1
 62
   254
370
     9
100
AcDbSpline
210
0.0
220
0.0
230
1.0
 70
    24
 71
     3
 72
     8
 73
     4
 74
     0
 42
0.0000000001
 43
0.0000000001
 40
0.0
 40
0.0
 40
0.0
 40
0.0
 40
1.0
 40
1.0
 40
1.0
 40
1.0
 10
31.5088
 20
-1.6481
 30
0.0
 10
31.5088
 20
-1.6481
 30
0.0
 10
19.2588
 20
-1.6481
 30
0.0
 10
19.2588
 20
-1.6481
 30
0.0
  0
SPLINE
  5
8D
330
1F
100
AcDbEntity
  8
#Layer 1
 62
   254
370
     9
100
AcDbSpline
210
0.0
220
0.0
230
1.0
 70
     8
 71
     3
 72
    12
 73
     8
 74
     0
 42
0.0000000001
 43
0.0000000001
 40
0.0
 40
0.0
 40
0.0
 40
0.0
 40
0.3333333333333333
 40
0.3333333333333333
 40
0.3333333333333333
 40
0.3333333333333333
 40
1.0
 40
1.0
 40
1.0
 40
1.0
 10
19.2588
 20
-1.6481
 30
0.0
 10
19.2588
 20
-1.6481
 30
0.0
 10
23.3419
 20
-3.1674
 30
0.0
 10
23.1524
 20
-5.7319
 30
0.0
 10
23.1524
 20
-5.7319
 30
0.0
 10
23.1524
 20
-5.7319
 30
0.0
 10
27.2355
 20
-2.1229
 30
0.0
 10
31.5088
 20
-1.6481
 30
0.0
  0
SPLINE
  5
8E
330
1F
100
AcDbEntity
  8
#Layer 1
 62
   254
370
     9
100
AcDbSpline
210
0.0
220
0.0
230
1.0
 70
    24
 71
     3
 72
     8
 73
     4
 74
     0
 42
0.0000000001
 43
0.0000000001
 40
0.0
 40
0.0
 40
0.0
 40
0.0
 40
1.0
 40
1.0
 40
1.0
 40
1.0
 10
-11.225
 20
-1.1741
 30
0.0
 10
-11.225
 20
-1.1741
 30
0.0
 10
-24.7091
 20
-1.1741
 30
0.0
 10
-24.7091
 20
-1.1741
 30
0.0
  0
SPLINE
  5
8F
330
1F
100
AcDbEntity
  8
#Layer 1
 62
   254
370
     9
100
AcDbSpline
210
0.0
220
0.0
230
1.0
 70
     8
 71
     3
 72
    52
 73
    48
 74
     0
 42
0.0000000001
 43
0.0000000001
 40
0.0
 40
0.0
 40
0.0
 40
0.0
 40
0.0769230769230769
 40
0.0769230769230769
 40
0.0769230769230769
 40
0.0769230769230769
 40
0.1538461538461539
 40
0.1538461538461539
 40
0.1538461538461539
 40
0.1538461538461539
 40
0.2307692307692308
 40
0.2307692307692308
 40
0.2307692307692308
 40
0.2307692307692308
 40
0.3076923076923077
 40
0.3076923076923077
 40
0.3076923076923077
 40
0.3076923076923077
 40
0.3846153846153846
 40
0.3846153846153846
 40
0.3846153846153846
 40
0.3846153846153846
 40
0.4615384615384616
 40
0.4615384615384616
 40
0.4615384615384616
 40
0.4615384615384616
 40
0.5384615384615384
 40
0.5384615384615384
 40
0.5384615384615384
 40
0.5384615384615384
 40
0.6153846153846154
 40
0.6153846153846154
 40
0.6153846153846154
 40
0.6153846153846154
 40
0.6923076923076923
 40
0.6923076923076923
 40
0.6923076923076923
 40
0.6923076923076923
 40
0.7692307692307693
 40
0.7692307692307693
 40
0.7692307692307693
 40
0.7692307692307693
 40
0.8461538461538461
 40
0.8461538461538461
 40
0.8461538461538461
 40
0.8461538461538461
 40
1.0
 40
1.0
 40
1.0
 40
1.0
 10
-24.7091
 20
-1.1741
 30
0.0
 10
-24.7091
 20
-1.1741
 30
0.0
 10
-17.0169
 20
-5.3523
 30
0.0
 10
-14.4537
 20
-8.3909
 30
0.0
 10
-14.4537
 20
-8.3909
 30
0.0
 10
-11.8892
 20
-11.4288
 30
0.0
 10
-8.6604
 20
-11.3344
 30
0.0
 10
-8.6604
 20
-11.3344
 30
0.0
 10
-8.6604
 20
-11.3344
 30
0.0
 10
-8.6604
 20
-11.3344
 30
0.0
 10
-9.705
 20
-13.4235
 30
0.0
 10
-6.5713
 20
-14.8477
 30
0.0
 10
-6.5713
 20
-14.8477
 30
0.0
 10
-3.4377
 20
-16.2726
 30
0.0
 10
-0.209
 20
-14.468
 30
0.0
 10
-1.0633
 20
-12.6642
 30
0.0
 10
-1.0633
 20
-12.6642
 30
0.0
 10
-1.9184
 20
-10.8596
 30
0.0
 10
-4.8619
 20
-9.8151
 30
0.0
 10
-4.8619
 20
-9.8151
 30
0.0
 10
-4.8619
 20
-9.8151
 30
0.0
 10
-4.8619
 20
-9.8151
 30
0.0
 10
0.0763
 20
-6.0165
 30
0.0
 10
4.4442
 20
-10.9547
 30
0.0
 10
4.4442
 20
-10.9547
 30
0.0
 10
8.8132
 20
-15.8929
 30
0.0
 10
2.7354
 20
-21.4953
 30
0.0
 10
-1.2528
 20
-20.641
 30
0.0
 10
-1.2528
 20
-20.641
 30
0.0
 10
-1.2528
 20
-20.641
 30
0.0
 10
4.7287
 20
-22.9195
 30
0.0
 10
7.9582
 20
-20.7353
 30
0.0
 10
7.9582
 20
-20.7353
 30
0.0
 10
11.1869
 20
-18.5518
 30
0.0
 10
10.9024
 20
-7.9162
 30
0.0
 10
2.3551
 20
-4.4028
 30
0.0
 10
2.3551
 20
-4.4028
 30
0.0
 10
-6.191
 20
-0.8882
 30
0.0
 10
-10.3699
 20
-5.0671
 30
0.0
 10
-7.9956
 20
-6.1123
 30
0.0
 10
-7.9956
 20
-6.1123
 30
0.0
 10
-7.9956
 20
-6.1123
 30
0.0
 10
-7.711
 20
-9.6249
 30
0.0
 10
-11.3194
 20
-9.0558
 30
0.0
 10
-11.3194
 20
-9.0558
 30
0.0
 10
-14.9285
 20
-8.4853
 30
0.0
 10
-14.3579
 20
-2.313
 30
0.0
 10
-11.225
 20
-1.1741
 30
0.0
  0
SPLINE
  5
90
330
1F
100
AcDbEntity
  8
#Layer 1
 62
   254
370
     9
100
AcDbSpline
210
0.0
220
0.0
230
1.0
 70
    11
 71
     3
 72
    20
 73
    16
 74
     0
 42
0.0000000001
 43
0.0000000001
 40
0.0
 40
0.0
 40
0.0
 40
0.0
 40
0.2
 40
0.2
 40
0.2
 40
0.2
 40
0.4
 40
0.4
 40
0.4
 40
0.4
 40
0.6
 40
0.6
 40
0.6
 40
0.6
 40
1.0
 40
1.0
 40
1.0
 40
1.0
 10
58.9869
 20
-26.1001
 30
0.0
 10
58.9869
 20
-26.1001
 30
0.0
 10
50.647
 20
-26.1001
 30
0.0
 10
50.647
 20
-26.1001
 30
0.0
 10
50.647
 20
-26.1001
 30
0.0
 10
50.647
 20
-26.1001
 30
0.0
 10
50.647
 20
-29.1483
 30
0.0
 10
50.647
 20
-29.1483
 30
0.0
 10
50.647
 20
-29.1483
 30
0.0
 10
50.647
 20
-29.1483
 30
0.0
 10
58.9869
 20
-29.1483
 30
0.0
 10
58.9869
 20
-29.1483
 30
0.0
 10
58.9869
 20
-29.1483
 30
0.0
 10
58.9869
 20
-29.1483
 30
0.0
 10
58.9869
 20
-26.1001
 30
0.0
 10
58.9869
 20
-26.1001
 30
0.0
  0
SPLINE
  5
91
330
1F
100
AcDbEntity
  8
#Layer 1
 62
   254
370
     9
100
AcDbSpline
210
0.0
220
0.0
230
1.0
 70
    11
 71
     3
 72
    20
 73
    16
 74
     0
 42
0.0000000001
 43
0.0000000001
 40
0.0
 40
0.0
 40
0.0
 40
0.0
 40
0.2
 40
0.2
 40
0.2
 40
0.2
 40
0.4
 40
0.4
 40
0.4
 40
0.4
 40
0.6
 40
0.6
 40
0.6
 40
0.6
 40
1.0
 40
1.0
 40
1.0
 40
1.0
 10
31.9112
 20
-26.1001
 30
0.0
 10
31.9112
 20
-26.1001
 30
0.0
 10
24.6304
 20
-26.1001
 30
0.0
 10
24.6304
 20
-26.1001
 30
0.0
 10
24.6304
 20
-26.1001
 30
0.0
 10
24.6304
 20
-26.1001
 30
0.0
 10
24.6304
 20
-29.1483
 30
0.0
 10
24.6304
 20
-29.1483
 30
0.0
 10
24.6304
 20
-29.1483
 30
0.0
 10
24.6304
 20
-29.1483
 30
0.0
 10
31.9112
 20
-29.1483
 30
0.0
 10
31.9112
 20
-29.1483
 30
0.0
 10
31.9112
 20
-29.1483
 30
0.0
 10
31.9112
 20
-29.1483
 30
0.0
 10
31.9112
 20
-26.1001
 30
0.0
 10
31.9112
 20
-26.1001
 30
0.0
  0
SPLINE
  5
92
330
1F
100
AcDbEntity
  8
#Layer 1
 62
   254
370
     9
100
AcDbSpline
210
0.0
220
0.0
230
1.0
 70
    11
 71
     3
 72
    20
 73
    16
 74
     0
 42
0.0000000001
 43
0.0000000001
 40
0.0
 40
0.0
 40
0.0
 40
0.0
 40
0.2
 40
0.2
 40
0.2
 40
0.2
 40
0.4
 40
0.4
 40
0.4
 40
0.4
 40
0.6
 40
0.6
 40
0.6
 40
0.6
 40
1.0
 40
1.0
 40
1.0
 40
1.0
 10
8.4515
 20
-26.1001
 30
0.0
 10
8.4515
 20
-26.1001
 30
0.0
 10
1.17
 20
-26.1001
 30
0.0
 10
1.17
 20
-26.1001
 30
0.0
 10
1.17
 20
-26.1001
 30
0.0
 10
1.17
 20
-26.1001
 30
0.0
 10
1.17
 20
-29.1483
 30
0.0
 10
1.17
 20
-29.1483
 30
0.0
 10
1.17
 20
-29.1483
 30
0.0
 10
1.17
 20
-29.1483
 30
0.0
 10
8.4515
 20
-29.1483
 30
0.0
 10
8.4515
 20
-29.1483
 30
0.0
 10
8.4515
 20
-29.1483
 30
0.0
 10
8.4515
 20
-29.1483
 30
0.0
 10
8.4515
 20
-26.1001
 30
0.0
 10
8.4515
 20
-26.1001
 30
0.0
  0
SPLINE
  5
93
330
1F
100
AcDbEntity
  8
#Layer 1
 62
   254
370
     9
100
AcDbSpline
210
0.0
220
0.0
230
1.0
 70
    11
 71
     3
 72
    20
 73
    16
 74
     0
 42
0.0000000001
 43
0.0000000001
 40
0.0
 40
0.0
 40
0.0
 40
0.0
 40
0.2
 40
0.2
 40
0.2
 40
0.2
 40
0.4
 40
0.4
 40
0.4
 40
0.4
 40
0.6
 40
0.6
 40
0.6
 40
0.6
 40
1.0
 40
1.0
 40
1.0
 40
1.0
 10
-19.4181
 20
-26.1001
 30
0.0
 10
-19.4181
 20
-26.1001
 30
0.0
 10
-24.3473
 20
-26.1001
 30
0.0
 10
-24.3473
 20
-26.1001
 30
0.0
 10
-24.3473
 20
-26.1001
 30
0.0
 10
-24.3473
 20
-26.1001
 30
0.0
 10
-24.3473
 20
-29.1483
 30
0.0
 10
-24.3473
 20
-29.1483
 30
0.0
 10
-24.3473
 20
-29.1483
 30
0.0
 10
-24.3473
 20
-29.1483
 30
0.0
 10
-19.4181
 20
-29.1483
 30
0.0
 10
-19.4181
 20
-29.1483
 30
0.0
 10
-19.4181
 20
-29.1483
 30
0.0
 10
-19.4181
 20
-29.1483
 30
0.0
 10
-19.4181
 20
-26.1001
 30
0.0
 10
-19.4181
 20
-26.1001
 30
0.0
  0
SPLINE
  5
94
330
1F
100
AcDbEntity
  8
#Layer 1
 62
   254
370
     9
100
AcDbSpline
210
0.0
220
0.0
230
1.0
 70
    11
 71
     3
 72
    20
 73
    16
 74
     0
 42
0.0000000001
 43
0.0000000001
 40
0.0
 40
0.0
 40
0.0
 40
0.0
 40
0.2
 40
0.2
 40
0.2
 40
0.2
 40
0.4
 40
0.4
 40
0.4
 40
0.4
 40
0.6
 40
0.6
 40
0.6
 40
0.6
 40
1.0
 40
1.0
 40
1.0
 40
1.0
 10
-21.3205
 20
-33.5973
 30
0.0
 10
-21.3205
 20
-33.5973
 30
0.0
 10
-23.6349
 20
-29.2454
 30
0.0
 10
-23.6349
 20
-29.2454
 30
0.0
 10
-23.6349
 20
-29.2454
 30
0.0
 10
-23.6349
 20
-29.2454
 30
0.0
 10
-26.3262
 20
-30.6765
 30
0.0
 10
-26.3262
 20
-30.6765
 30
0.0
 10
-26.3262
 20
-30.6765
 30
0.0
 10
-26.3262
 20
-30.6765
 30
0.0
 10
-24.0118
 20
-35.029
 30
0.0
 10
-24.0118
 20
-35.029
 30
0.0
 10
-24.0118
 20
-35.029
 30
0.0
 10
-24.0118
 20
-35.029
 30
0.0
 10
-21.3205
 20
-33.5973
 30
0.0
 10
-21.3205
 20
-33.5973
 30
0.0
  0
SPLINE
  5
95
330
1F
100
AcDbEntity
  8
#Layer 1
 62
   254
370
     9
100
AcDbSpline
210
0.0
220
0.0
230
1.0
 70
    11
 71
     3
 72
    20
 73
    16
 74
     0
 42
0.0000000001
 43
0.0000000001
 40
0.0
 40
0.0
 40
0.0
 40
0.0
 40
0.2
 40
0.2
 40
0.2
 40
0.2
 40
0.4
 40
0.4
 40
0.4
 40
0.4
 40
0.6
 40
0.6
 40
0.6
 40
0.6
 40
1.0
 40
1.0
 40
1.0
 40
1.0
 10
-13.2018
 20
-48.8632
 30
0.0
 10
-13.2018
 20
-48.8632
 30
0.0
 10
-15.827
 20
-43.9277
 30
0.0
 10
-15.827
 20
-43.9277
 30
0.0
 10
-15.827
 20
-43.9277
 30
0.0
 10
-15.827
 20
-43.9277
 30
0.0
 10
-18.5183
 20
-45.3588
 30
0.0
 10
-18.5183
 20
-45.3588
 30
0.0
 10
-18.5183
 20
-45.3588
 30
0.0
 10
-18.5183
 20
-45.3588
 30
0.0
 10
-15.8931
 20
-50.2943
 30
0.0
 10
-15.8931
 20
-50.2943
 30
0.0
 10
-15.8931
 20
-50.2943
 30
0.0
 10
-15.8931
 20
-50.2943
 30
0.0
 10
-13.2018
 20
-48.8632
 30
0.0
 10
-13.2018
 20
-48.8632
 30
0.0
  0
SPLINE
  5
96
330
1F
100
AcDbEntity
  8
#Layer 1
 62
   254
370
     9
100
AcDbSpline
210
0.0
220
0.0
230
1.0
 70
    11
 71
     3
 72
    20
 73
    16
 74
     0
 42
0.0000000001
 43
0.0000000001
 40
0.0
 40
0.0
 40
0.0
 40
0.0
 40
0.2
 40
0.2
 40
0.2
 40
0.2
 40
0.4
 40
0.4
 40
0.4
 40
0.4
 40
0.6
 40
0.6
 40
0.6
 40
0.6
 40
1.0
 40
1.0
 40
1.0
 40
1.0
 10
64.754
 20
-33.1928
 30
0.0
 10
64.754
 20
-33.1928
 30
0.0
 10
61.4543
 20
-28.3669
 30
0.0
 10
61.4543
 20
-28.3669
 30
0.0
 10
61.4543
 20
-28.3669
 30
0.0
 10
61.4543
 20
-28.3669
 30
0.0
 10
58.938
 20
-30.0874
 30
0.0
 10
58.938
 20
-30.0874
 30
0.0
 10
58.938
 20
-30.0874
 30
0.0
 10
58.938
 20
-30.0874
 30
0.0
 10
62.2377
 20
-34.9133
 30
0.0
 10
62.2377
 20
-34.9133
 30
0.0
 10
62.2377
 20
-34.9133
 30
0.0
 10
62.2377
 20
-34.9133
 30
0.0
 10
64.754
 20
-33.1928
 30
0.0
 10
64.754
 20
-33.1928
 30
0.0
  0
SPLINE
  5
97
330
1F
100
AcDbEntity
  8
#Layer 1
 62
   254
370
     9
100
AcDbSpline
210
0.0
220
0.0
230
1.0
 70
    11
 71
     3
 72
    20
 73
    16
 74
     0
 42
0.0000000001
 43
0.0000000001
 40
0.0
 40
0.0
 40
0.0
 40
0.0
 40
0.2
 40
0.2
 40
0.2
 40
0.2
 40
0.4
 40
0.4
 40
0.4
 40
0.4
 40
0.6
 40
0.6
 40
0.6
 40
0.6
 40
1.0
 40
1.0
 40
1.0
 40
1.0
 10
97.1558
 20
-80.5787
 30
0.0
 10
97.1558
 20
-80.5787
 30
0.0
 10
93.6577
 20
-75.4621
 30
0.0
 10
93.6577
 20
-75.4621
 30
0.0
 10
93.6577
 20
-75.4621
 30
0.0
 10
93.6577
 20
-75.4621
 30
0.0
 10
91.1414
 20
-77.1826
 30
0.0
 10
91.1414
 20
-77.1826
 30
0.0
 10
91.1414
 20
-77.1826
 30
0.0
 10
91.1414
 20
-77.1826
 30
0.0
 10
94.6402
 20
-82.2992
 30
0.0
 10
94.6402
 20
-82.2992
 30
0.0
 10
94.6402
 20
-82.2992
 30
0.0
 10
94.6402
 20
-82.2992
 30
0.0
 10
97.1558
 20
-80.5787
 30
0.0
 10
97.1558
 20
-80.5787
 30
0.0
  0
SPLINE
  5
98
330
1F
100
AcDbEntity
  8
#Layer 1
 62
   254
370
     9
100
AcDbSpline
210
0.0
220
0.0
230
1.0
 70
    11
 71
     3
 72
    20
 73
    16
 74
     0
 42
0.0000000001
 43
0.0000000001
 40
0.0
 40
0.0
 40
0.0
 40
0.0
 40
0.2
 40
0.2
 40
0.2
 40
0.2
 40
0.4
 40
0.4
 40
0.4
 40
0.4
 40
0.6
 40
0.6
 40
0.6
 40
0.6
 40
1.0
 40
1.0
 40
1.0
 40
1.0
 10
86.2735
 20
-64.6631
 30
0.0
 10
86.2735
 20
-64.6631
 30
0.0
 10
83.6021
 20
-60.757
 30
0.0
 10
83.6021
 20
-60.757
 30
0.0
 10
83.6021
 20
-60.757
 30
0.0
 10
83.6021
 20
-60.757
 30
0.0
 10
81.0858
 20
-62.4775
 30
0.0
 10
81.0858
 20
-62.4775
 30
0.0
 10
81.0858
 20
-62.4775
 30
0.0
 10
81.0858
 20
-62.4775
 30
0.0
 10
83.7572
 20
-66.3842
 30
0.0
 10
83.7572
 20
-66.3842
 30
0.0
 10
83.7572
 20
-66.3842
 30
0.0
 10
83.7572
 20
-66.3842
 30
0.0
 10
86.2735
 20
-64.6631
 30
0.0
 10
86.2735
 20
-64.6631
 30
0.0
  0
SPLINE
  5
99
330
1F
100
AcDbEntity
  8
#Layer 1
 62
   254
370
     9
100
AcDbSpline
210
0.0
220
0.0
230
1.0
 70
    11
 71
     3
 72
    20
 73
    16
 74
     0
 42
0.0000000001
 43
0.0000000001
 40
0.0
 40
0.0
 40
0.0
 40
0.0
 40
0.2
 40
0.2
 40
0.2
 40
0.2
 40
0.4
 40
0.4
 40
0.4
 40
0.4
 40
0.6
 40
0.6
 40
0.6
 40
0.6
 40
1.0
 40
1.0
 40
1.0
 40
1.0
 10
74.2301
 20
-47.0504
 30
0.0
 10
74.2301
 20
-47.0504
 30
0.0
 10
71.4685
 20
-43.012
 30
0.0
 10
71.4685
 20
-43.012
 30
0.0
 10
71.4685
 20
-43.012
 30
0.0
 10
71.4685
 20
-43.012
 30
0.0
 10
68.9522
 20
-44.7325
 30
0.0
 10
68.9522
 20
-44.7325
 30
0.0
 10
68.9522
 20
-44.7325
 30
0.0
 10
68.9522
 20
-44.7325
 30
0.0
 10
71.7138
 20
-48.7708
 30
0.0
 10
71.7138
 20
-48.7708
 30
0.0
 10
71.7138
 20
-48.7708
 30
0.0
 10
71.7138
 20
-48.7708
 30
0.0
 10
74.2301
 20
-47.0504
 30
0.0
 10
74.2301
 20
-47.0504
 30
0.0
  0
SPLINE
  5
9A
330
1F
100
AcDbEntity
  8
#Layer 1
 62
   254
370
     9
100
AcDbSpline
210
0.0
220
0.0
230
1.0
 70
     8
 71
     3
 72
    24
 73
    20
 74
     0
 42
0.0000000001
 43
0.0000000001
 40
0.0
 40
0.0
 40
0.0
 40
0.0
 40
0.1666666666666667
 40
0.1666666666666667
 40
0.1666666666666667
 40
0.1666666666666667
 40
0.3333333333333333
 40
0.3333333333333333
 40
0.3333333333333333
 40
0.3333333333333333
 40
0.5
 40
0.5
 40
0.5
 40
0.5
 40
0.6666666666666666
 40
0.6666666666666666
 40
0.6666666666666666
 40
0.6666666666666666
 40
1.0
 40
1.0
 40
1.0
 40
1.0
 10
47.2392
 20
98.8792
 30
0.0
 10
39.6544
 20
99.673
 30
0.0
 10
36.4208
 20
101.2605
 30
0.0
 10
29.5417
 20
102.407
 30
0.0
 10
29.5417
 20
102.407
 30
0.0
 10
22.6625
 20
103.5535
 30
0.0
 10
17.3708
 20
103.3772
 30
0.0
 10
14.4604
 20
100.9077
 30
0.0
 10
14.4604
 20
100.9077
 30
0.0
 10
14.4604
 20
103.0621
 30
0.0
 10
9.0806
 20
103.018
 30
0.0
 10
9.0806
 20
100.9077
 30
0.0
 10
9.0806
 20
100.9077
 30
0.0
 10
6.1702
 20
103.3772
 30
0.0
 10
0.8785
 20
103.5535
 30
0.0
 10
-6.0009
 20
102.407
 30
0.0
 10
-6.0009
 20
102.407
 30
0.0
 10
-12.88
 20
101.2605
 30
0.0
 10
-16.2314
 20
99.673
 30
0.0
 10
-23.8161
 20
98.8792
 30
0.0
  0
SPLINE
  5
9B
330
1F
100
AcDbEntity
  8
#Layer 1
 62
   254
370
     9
100
AcDbSpline
210
0.0
220
0.0
230
1.0
 70
     8
 71
     3
 72
    76
 73
    72
 74
     0
 42
0.0000000001
 43
0.0000000001
 40
0.0
 40
0.0
 40
0.0
 40
0.0
 40
0.0526315789473684
 40
0.0526315789473684
 40
0.0526315789473684
 40
0.0526315789473684
 40
0.1052631578947368
 40
0.1052631578947368
 40
0.1052631578947368
 40
0.1052631578947368
 40
0.1578947368421053
 40
0.1578947368421053
 40
0.1578947368421053
 40
0.1578947368421053
 40
0.2105263157894737
 40
0.2105263157894737
 40
0.2105263157894737
 40
0.2105263157894737
 40
0.2631578947368421
 40
0.2631578947368421
 40
0.2631578947368421
 40
0.2631578947368421
 40
0.3157894736842105
 40
0.3157894736842105
 40
0.3157894736842105
 40
0.3157894736842105
 40
0.3684210526315789
 40
0.3684210526315789
 40
0.3684210526315789
 40
0.3684210526315789
 40
0.4210526315789473
 40
0.4210526315789473
 40
0.4210526315789473
 40
0.4210526315789473
 40
0.4736842105263158
 40
0.4736842105263158
 40
0.4736842105263158
 40
0.4736842105263158
 40
0.5263157894736842
 40
0.5263157894736842
 40
0.5263157894736842
 40
0.5263157894736842
 40
0.5789473684210527
 40
0.5789473684210527
 40
0.5789473684210527
 40
0.5789473684210527
 40
0.631578947368421
 40
0.631578947368421
 40
0.631578947368421
 40
0.631578947368421
 40
0.6842105263157895
 40
0.6842105263157895
 40
0.6842105263157895
 40
0.6842105263157895
 40
0.7368421052631579
 40
0.7368421052631579
 40
0.7368421052631579
 40
0.7368421052631579
 40
0.7894736842105263
 40
0.7894736842105263
 40
0.7894736842105263
 40
0.7894736842105263
 40
0.8421052631578947
 40
0.8421052631578947
 40
0.8421052631578947
 40
0.8421052631578947
 40
0.8947368421052632
 40
0.8947368421052632
 40
0.8947368421052632
 40
0.8947368421052632
 40
1.0
 40
1.0
 40
1.0
 40
1.0
 10
-23.8161
 20
98.8792
 30
0.0
 10
-23.8161
 20
98.8792
 30
0.0
 10
-24.0442
 20
98.8792
 30
0.0
 10
-24.0442
 20
98.8792
 30
0.0
 10
-24.0442
 20
98.8792
 30
0.0
 10
-24.0442
 20
98.8792
 30
0.0
 10
-27.0924
 20
98.8789
 30
0.0
 10
-27.0924
 20
98.8789
 30
0.0
 10
-27.0924
 20
98.8789
 30
0.0
 10
-27.0924
 20
98.8789
 30
0.0
 10
-27.0921
 20
93.2889
 30
0.0
 10
-27.0921
 20
93.2889
 30
0.0
 10
-27.0921
 20
93.2889
 30
0.0
 10
-27.0921
 20
93.2889
 30
0.0
 10
-24.0439
 20
93.2892
 30
0.0
 10
-24.0439
 20
93.2892
 30
0.0
 10
-24.0439
 20
93.2892
 30
0.0
 10
-24.0439
 20
93.2892
 30
0.0
 10
-24.0431
 20
81.5894
 30
0.0
 10
-24.0431
 20
81.5894
 30
0.0
 10
-24.0431
 20
81.5894
 30
0.0
 10
-24.0431
 20
81.5894
 30
0.0
 10
-27.0914
 20
81.5894
 30
0.0
 10
-27.0914
 20
81.5894
 30
0.0
 10
-27.0914
 20
81.5894
 30
0.0
 10
-27.0914
 20
81.5894
 30
0.0
 10
-27.091
 20
76.6597
 30
0.0
 10
-27.091
 20
76.6597
 30
0.0
 10
-27.091
 20
76.6597
 30
0.0
 10
-27.091
 20
76.6597
 30
0.0
 10
-24.0428
 20
76.6601
 30
0.0
 10
-24.0428
 20
76.6601
 30
0.0
 10
-24.0428
 20
76.6601
 30
0.0
 10
-24.0428
 20
76.6601
 30
0.0
 10
47.0414
 20
76.6505
 30
0.0
 10
47.0414
 20
76.6505
 30
0.0
 10
47.0414
 20
76.6505
 30
0.0
 10
47.0414
 20
76.6505
 30
0.0
 10
47.3873
 20
76.6597
 30
0.0
 10
47.3873
 20
76.6597
 30
0.0
 10
47.3873
 20
76.6597
 30
0.0
 10
47.3873
 20
76.6597
 30
0.0
 10
50.4355
 20
76.6601
 30
0.0
 10
50.4355
 20
76.6601
 30
0.0
 10
50.4355
 20
76.6601
 30
0.0
 10
50.4355
 20
76.6601
 30
0.0
 10
50.4355
 20
81.5894
 30
0.0
 10
50.4355
 20
81.5894
 30
0.0
 10
50.4355
 20
81.5894
 30
0.0
 10
50.4355
 20
81.5894
 30
0.0
 10
47.3873
 20
81.5894
 30
0.0
 10
47.3873
 20
81.5894
 30
0.0
 10
47.3873
 20
81.5894
 30
0.0
 10
47.3873
 20
81.5894
 30
0.0
 10
47.3866
 20
93.2889
 30
0.0
 10
47.3866
 20
93.2889
 30
0.0
 10
47.3866
 20
93.2889
 30
0.0
 10
47.3866
 20
93.2889
 30
0.0
 10
50.4348
 20
93.2892
 30
0.0
 10
50.4348
 20
93.2892
 30
0.0
 10
50.4348
 20
93.2892
 30
0.0
 10
50.4348
 20
93.2892
 30
0.0
 10
50.4341
 20
98.8792
 30
0.0
 10
50.4341
 20
98.8792
 30
0.0
 10
50.4341
 20
98.8792
 30
0.0
 10
50.4341
 20
98.8792
 30
0.0
 10
47.3859
 20
98.8789
 30
0.0
 10
47.3859
 20
98.8789
 30
0.0
 10
47.3859
 20
98.8789
 30
0.0
 10
47.3859
 20
98.8789
 30
0.0
 10
47.2392
 20
98.8792
 30
0.0
 10
47.2392
 20
98.8792
 30
0.0
  0
SPLINE
  5
9C
330
1F
100
AcDbEntity
  8
#Layer 1
 62
   254
370
     9
100
AcDbSpline
210
0.0
220
0.0
230
1.0
 70
     8
 71
     3
 72
    24
 73
    20
 74
     0
 42
0.0000000001
 43
0.0000000001
 40
0.0
 40
0.0
 40
0.0
 40
0.0
 40
0.1666666666666667
 40
0.1666666666666667
 40
0.1666666666666667
 40
0.1666666666666667
 40
0.3333333333333333
 40
0.3333333333333333
 40
0.3333333333333333
 40
0.3333333333333333
 40
0.5
 40
0.5
 40
0.5
 40
0.5
 40
0.6666666666666666
 40
0.6666666666666666
 40
0.6666666666666666
 40
0.6666666666666666
 40
1.0
 40
1.0
 40
1.0
 40
1.0
 10
-44.3651
 20
97.674
 30
0.0
 10
-51.9498
 20
98.4677
 30
0.0
 10
-55.1837
 20
102.2599
 30
0.0
 10
-62.0629
 20
103.4064
 30
0.0
 10
-62.0629
 20
103.4064
 30
0.0
 10
-68.9421
 20
104.553
 30
0.0
 10
-74.2337
 20
104.3766
 30
0.0
 10
-77.1441
 20
101.9071
 30
0.0
 10
-77.1441
 20
101.9071
 30
0.0
 10
-77.1441
 20
104.0615
 30
0.0
 10
-82.524
 20
104.0174
 30
0.0
 10
-82.524
 20
101.9071
 30
0.0
 10
-82.524
 20
101.9071
 30
0.0
 10
-85.4344
 20
104.3766
 30
0.0
 10
-90.7261
 20
104.553
 30
0.0
 10
-97.6053
 20
103.4064
 30
0.0
 10
-97.6053
 20
103.4064
 30
0.0
 10
-104.4844
 20
102.2599
 30
0.0
 10
-107.8358
 20
98.4677
 30
0.0
 10
-115.4205
 20
97.674
 30
0.0
  0
SPLINE
  5
9D
330
1F
100
AcDbEntity
  8
#Layer 1
 62
   254
370
     9
100
AcDbSpline
210
0.0
220
0.0
230
1.0
 70
     8
 71
     3
 72
   136
 73
   132
 74
     0
 42
0.0000000001
 43
0.0000000001
 40
0.0
 40
0.0
 40
0.0
 40
0.0
 40
0.0294117647058824
 40
0.0294117647058824
 40
0.0294117647058824
 40
0.0294117647058824
 40
0.0588235294117647
 40
0.0588235294117647
 40
0.0588235294117647
 40
0.0588235294117647
 40
0.0882352941176471
 40
0.0882352941176471
 40
0.0882352941176471
 40
0.0882352941176471
 40
0.1176470588235294
 40
0.1176470588235294
 40
0.1176470588235294
 40
0.1176470588235294
 40
0.1470588235294118
 40
0.1470588235294118
 40
0.1470588235294118
 40
0.1470588235294118
 40
0.1764705882352941
 40
0.1764705882352941
 40
0.1764705882352941
 40
0.1764705882352941
 40
0.2058823529411765
 40
0.2058823529411765
 40
0.2058823529411765
 40
0.2058823529411765
 40
0.2352941176470588
 40
0.2352941176470588
 40
0.2352941176470588
 40
0.2352941176470588
 40
0.2647058823529412
 40
0.2647058823529412
 40
0.2647058823529412
 40
0.2647058823529412
 40
0.2941176470588235
 40
0.2941176470588235
 40
0.2941176470588235
 40
0.2941176470588235
 40
0.3235294117647059
 40
0.3235294117647059
 40
0.3235294117647059
 40
0.3235294117647059
 40
0.3529411764705883
 40
0.3529411764705883
 40
0.3529411764705883
 40
0.3529411764705883
 40
0.3823529411764706
 40
0.3823529411764706
 40
0.3823529411764706
 40
0.3823529411764706
 40
0.4117647058823529
 40
0.4117647058823529
 40
0.4117647058823529
 40
0.4117647058823529
 40
0.4411764705882353
 40
0.4411764705882353
 40
0.4411764705882353
 40
0.4411764705882353
 40
0.4705882352941176
 40
0.4705882352941176
 40
0.4705882352941176
 40
0.4705882352941176
 40
0.5
 40
0.5
 40
0.5
 40
0.5
 40
0.5294117647058824
 40
0.5294117647058824
 40
0.5294117647058824
 40
0.5294117647058824
 40
0.5588235294117647
 40
0.5588235294117647
 40
0.5588235294117647
 40
0.5588235294117647
 40
0.5882352941176471
 40
0.5882352941176471
 40
0.5882352941176471
 40
0.5882352941176471
 40
0.6176470588235294
 40
0.6176470588235294
 40
0.6176470588235294
 40
0.6176470588235294
 40
0.6470588235294118
 40
0.6470588235294118
 40
0.6470588235294118
 40
0.6470588235294118
 40
0.6764705882352942
 40
0.6764705882352942
 40
0.6764705882352942
 40
0.6764705882352942
 40
0.7058823529411765
 40
0.7058823529411765
 40
0.7058823529411765
 40
0.7058823529411765
 40
0.7352941176470589
 40
0.7352941176470589
 40
0.7352941176470589
 40
0.7352941176470589
 40
0.7647058823529411
 40
0.7647058823529411
 40
0.7647058823529411
 40
0.7647058823529411
 40
0.7941176470588235
 40
0.7941176470588235
 40
0.7941176470588235
 40
0.7941176470588235
 40
0.8235294117647058
 40
0.8235294117647058
 40
0.8235294117647058
 40
0.8235294117647058
 40
0.8529411764705882
 40
0.8529411764705882
 40
0.8529411764705882
 40
0.8529411764705882
 40
0.8823529411764706
 40
0.8823529411764706
 40
0.8823529411764706
 40
0.8823529411764706
 40
0.9117647058823529
 40
0.9117647058823529
 40
0.9117647058823529
 40
0.9117647058823529
 40
0.9411764705882353
 40
0.9411764705882353
 40
0.9411764705882353
 40
0.9411764705882353
 40
1.0
 40
1.0
 40
1.0
 40
1.0
 10
-115.4205
 20
97.674
 30
0.0
 10
-115.4205
 20
97.674
 30
0.0
 10
-115.6012
 20
97.6693
 30
0.0
 10
-115.6012
 20
97.6693
 30
0.0
 10
-115.6012
 20
97.6693
 30
0.0
 10
-115.6012
 20
97.6693
 30
0.0
 10
-118.6491
 20
97.6662
 30
0.0
 10
-118.6491
 20
97.6662
 30
0.0
 10
-118.6491
 20
97.6662
 30
0.0
 10
-118.6491
 20
97.6662
 30
0.0
 10
-118.6443
 20
91.4678
 30
0.0
 10
-118.6443
 20
91.4678
 30
0.0
 10
-118.6443
 20
91.4678
 30
0.0
 10
-118.6443
 20
91.4678
 30
0.0
 10
-115.596
 20
91.4713
 30
0.0
 10
-115.596
 20
91.4713
 30
0.0
 10
-115.596
 20
91.4713
 30
0.0
 10
-115.596
 20
91.4713
 30
0.0
 10
-115.5857
 20
78.3888
 30
0.0
 10
-115.5857
 20
78.3888
 30
0.0
 10
-115.5857
 20
78.3888
 30
0.0
 10
-115.5857
 20
78.3888
 30
0.0
 10
-118.6339
 20
78.3857
 30
0.0
 10
-118.6339
 20
78.3857
 30
0.0
 10
-118.6339
 20
78.3857
 30
0.0
 10
-118.6339
 20
78.3857
 30
0.0
 10
-118.6298
 20
73.6539
 30
0.0
 10
-118.6298
 20
73.6539
 30
0.0
 10
-118.6298
 20
73.6539
 30
0.0
 10
-118.6298
 20
73.6539
 30
0.0
 10
-115.5816
 20
73.6566
 30
0.0
 10
-115.5816
 20
73.6566
 30
0.0
 10
-115.5816
 20
73.6566
 30
0.0
 10
-115.5816
 20
73.6566
 30
0.0
 10
-115.5678
 20
57.0523
 30
0.0
 10
-115.5678
 20
57.0523
 30
0.0
 10
-115.5678
 20
57.0523
 30
0.0
 10
-115.5678
 20
57.0523
 30
0.0
 10
-118.616
 20
57.0496
 30
0.0
 10
-118.616
 20
57.0496
 30
0.0
 10
-118.616
 20
57.0496
 30
0.0
 10
-118.616
 20
57.0496
 30
0.0
 10
-118.6119
 20
52.1569
 30
0.0
 10
-118.6119
 20
52.1569
 30
0.0
 10
-118.6119
 20
52.1569
 30
0.0
 10
-118.6119
 20
52.1569
 30
0.0
 10
-115.5636
 20
52.16
 30
0.0
 10
-115.5636
 20
52.16
 30
0.0
 10
-115.5636
 20
52.16
 30
0.0
 10
-115.5636
 20
52.16
 30
0.0
 10
-115.5537
 20
40.2644
 30
0.0
 10
-115.5537
 20
40.2644
 30
0.0
 10
-115.5537
 20
40.2644
 30
0.0
 10
-115.5537
 20
40.2644
 30
0.0
 10
-118.6019
 20
40.2609
 30
0.0
 10
-118.6019
 20
40.2609
 30
0.0
 10
-118.6019
 20
40.2609
 30
0.0
 10
-118.6019
 20
40.2609
 30
0.0
 10
-118.5974
 20
34.4153
 30
0.0
 10
-118.5974
 20
34.4153
 30
0.0
 10
-118.5974
 20
34.4153
 30
0.0
 10
-118.5974
 20
34.4153
 30
0.0
 10
-115.5492
 20
34.4184
 30
0.0
 10
-115.5492
 20
34.4184
 30
0.0
 10
-115.5492
 20
34.4184
 30
0.0
 10
-115.5492
 20
34.4184
 30
0.0
 10
-44.0683
 20
34.4153
 30
0.0
 10
-44.0683
 20
34.4153
 30
0.0
 10
-44.0683
 20
34.4153
 30
0.0
 10
-44.0683
 20
34.4153
 30
0.0
 10
-41.02
 20
34.4184
 30
0.0
 10
-41.02
 20
34.4184
 30
0.0
 10
-41.02
 20
34.4184
 30
0.0
 10
-41.02
 20
34.4184
 30
0.0
 10
-41.0245
 20
40.2644
 30
0.0
 10
-41.0245
 20
40.2644
 30
0.0
 10
-41.0245
 20
40.2644
 30
0.0
 10
-41.0245
 20
40.2644
 30
0.0
 10
-44.0728
 20
40.2609
 30
0.0
 10
-44.0728
 20
40.2609
 30
0.0
 10
-44.0728
 20
40.2609
 30
0.0
 10
-44.0728
 20
40.2609
 30
0.0
 10
-44.0828
 20
52.1569
 30
0.0
 10
-44.0828
 20
52.1569
 30
0.0
 10
-44.0828
 20
52.1569
 30
0.0
 10
-44.0828
 20
52.1569
 30
0.0
 10
-41.0345
 20
52.16
 30
0.0
 10
-41.0345
 20
52.16
 30
0.0
 10
-41.0345
 20
52.16
 30
0.0
 10
-41.0345
 20
52.16
 30
0.0
 10
-41.0387
 20
57.0523
 30
0.0
 10
-41.0387
 20
57.0523
 30
0.0
 10
-41.0387
 20
57.0523
 30
0.0
 10
-41.0387
 20
57.0523
 30
0.0
 10
-44.0869
 20
57.0496
 30
0.0
 10
-44.0869
 20
57.0496
 30
0.0
 10
-44.0869
 20
57.0496
 30
0.0
 10
-44.0869
 20
57.0496
 30
0.0
 10
-44.1007
 20
73.6539
 30
0.0
 10
-44.1007
 20
73.6539
 30
0.0
 10
-44.1007
 20
73.6539
 30
0.0
 10
-44.1007
 20
73.6539
 30
0.0
 10
-41.0524
 20
73.6566
 30
0.0
 10
-41.0524
 20
73.6566
 30
0.0
 10
-41.0524
 20
73.6566
 30
0.0
 10
-41.0524
 20
73.6566
 30
0.0
 10
-41.0566
 20
78.3888
 30
0.0
 10
-41.0566
 20
78.3888
 30
0.0
 10
-41.0566
 20
78.3888
 30
0.0
 10
-41.0566
 20
78.3888
 30
0.0
 10
-44.1048
 20
78.3857
 30
0.0
 10
-44.1048
 20
78.3857
 30
0.0
 10
-44.1048
 20
78.3857
 30
0.0
 10
-44.1048
 20
78.3857
 30
0.0
 10
-44.1151
 20
91.4678
 30
0.0
 10
-44.1151
 20
91.4678
 30
0.0
 10
-44.1151
 20
91.4678
 30
0.0
 10
-44.1151
 20
91.4678
 30
0.0
 10
-41.0669
 20
91.4713
 30
0.0
 10
-41.0669
 20
91.4713
 30
0.0
 10
-41.0669
 20
91.4713
 30
0.0
 10
-41.0669
 20
91.4713
 30
0.0
 10
-41.0719
 20
97.6693
 30
0.0
 10
-41.0719
 20
97.6693
 30
0.0
 10
-41.0719
 20
97.6693
 30
0.0
 10
-41.0719
 20
97.6693
 30
0.0
 10
-44.1198
 20
97.6662
 30
0.0
 10
-44.1198
 20
97.6662
 30
0.0
 10
-44.1198
 20
97.6662
 30
0.0
 10
-44.1198
 20
97.6662
 30
0.0
 10
-44.3651
 20
97.674
 30
0.0
 10
-44.3651
 20
97.674
 30
0.0
  0
ENDSEC
  0
SECTION
  2
OBJECTS
  0
DICTIONARY
  5
C
330
0
100
AcDbDictionary
281
     1
  3
ACAD_GROUP
350
D
  3
ACAD_LAYOUT
350
1A
  3
ACAD_MATERIAL
350
3B
  3
ACAD_MLEADERSTYLE
350
BF
  3
ACAD_MLINESTYLE
350
17
  3
ACAD_PLOTSETTINGS
350
19
  3
ACAD_PLOTSTYLENAME
350
E
  3
ACAD_TABLESTYLE
350
BE
  3
ACAD_VISUALSTYLE
350
2A
  0
DICTIONARY
  5
D
102
{ACAD_REACTORS
330
C
102
}
330
C
100
AcDbDictionary
281
     1
  0
DICTIONARY
  5
1A
102
{ACAD_REACTORS
330
C
102
}
330
C
100
AcDbDictionary
281
     1
  3
Layout1
350
1E
  3
Layout2
350
26
  3
Model
350
22
  0
DICTIONARY
  5
3B
102
{ACAD_REACTORS
330
C
102
}
330
C
100
AcDbDictionary
281
     1
  3
ByBlock
350
3D
  3
ByLayer
350
3C
  3
Global
350
3E
  0
DICTIONARY
  5
BF
102
{ACAD_REACTORS
330
C
102
}
330
C
100
AcDbDictionary
281
     1
  0
DICTIONARY
  5
17
102
{ACAD_REACTORS
330
C
102
}
330
C
100
AcDbDictionary
281
     1
  3
Standard
350
18
  0
DICTIONARY
  5
19
102
{ACAD_REACTORS
330
C
102
}
330
C
100
AcDbDictionary
281
     1
  0
ACDBDICTIONARYWDFLT
  5
E
102
{ACAD_REACTORS
330
C
102
}
330
C
100
AcDbDictionary
281
     1
  3
Normal
350
F
100
AcDbDictionaryWithDefault
340
F
  0
DICTIONARY
  5
BE
102
{ACAD_REACTORS
330
C
102
}
330
C
100
AcDbDictionary
281
     1
  0
DICTIONARY
  5
2A
102
{ACAD_REACTORS
330
C
102
}
330
C
100
AcDbDictionary
281
     1
  3
2dWireframe
350
2F
  3
3D Hidden
350
31
  3
3dWireframe
350
30
  3
Basic
350
32
  3
Brighten
350
36
  3
ColorChange
350
3A
  3
Conceptual
350
34
  3
Dim
350
35
  3
Facepattern
350
39
  3
Flat
350
2B
  3
FlatWithEdges
350
2C
  3
Gouraud
350
2D
  3
GouraudWithEdges
350
2E
  3
Linepattern
350
38
  3
Realistic
350
33
  3
Thicken
350
37
  0
LAYOUT
  5
1E
102
{ACAD_REACTORS
330
1A
102
}
330
1A
100
AcDbPlotSettings
  1

  2
none_device
  4

  6

 40
0.0
 41
0.0
 42
0.0
 43
0.0
 44
0.0
 45
0.0
 46
0.0
 47
0.0
 48
0.0
 49
0.0
140
0.0
141
0.0
142
1.0
143
1.0
 70
   688
 72
     0
 73
     0
 74
     5
  7

 75
    16
 76
     0
 77
     2
 78
   300
147
1.0
148
0.0
149
0.0
100
AcDbLayout
  1
Layout1
 70
     1
 71
     1
 10
0.0
 20
0.0
 11
12.0
 21
9.0
 12
0.0
 22
0.0
 32
0.0
 14
1.000000000000000E+20
 24
1.000000000000000E+20
 34
1.000000000000000E+20
 15
-1.000000000000000E+20
 25
-1.000000000000000E+20
 35
-1.000000000000000E+20
146
0.0
 13
0.0
 23
0.0
 33
0.0
 16
1.0
 26
0.0
 36
0.0
 17
0.0
 27
1.0
 37
0.0
 76
     0
330
1B
  0
LAYOUT
  5
26
102
{ACAD_REACTORS
330
1A
102
}
330
1A
100
AcDbPlotSettings
  1

  2
none_device
  4

  6

 40
0.0
 41
0.0
 42
0.0
 43
0.0
 44
0.0
 45
0.0
 46
0.0
 47
0.0
 48
0.0
 49
0.0
140
0.0
141
0.0
142
1.0
143
1.0
 70
   688
 72
     0
 73
     0
 74
     5
  7

 75
    16
 76
     0
 77
     2
 78
   300
147
1.0
148
0.0
149
0.0
100
AcDbLayout
  1
Layout2
 70
     1
 71
     2
 10
0.0
 20
0.0
 11
0.0
 21
0.0
 12
0.0
 22
0.0
 32
0.0
 14
0.0
 24
0.0
 34
0.0
 15
0.0
 25
0.0
 35
0.0
146
0.0
 13
0.0
 23
0.0
 33
0.0
 16
1.0
 26
0.0
 36
0.0
 17
0.0
 27
1.0
 37
0.0
 76
     0
330
23
  0
LAYOUT
  5
22
102
{ACAD_REACTORS
330
1A
102
}
330
1A
100
AcDbPlotSettings
  1

  2
none_device
  4

  6

 40
0.0
 41
0.0
 42
0.0
 43
0.0
 44
0.0
 45
0.0
 46
0.0
 47
0.0
 48
0.0
 49
0.0
140
0.0
141
0.0
142
1.0
143
1.0
 70
  1712
 72
     0
 73
     0
 74
     0
  7

 75
     0
 76
     0
 77
     2
 78
   300
147
1.0
148
0.0
149
0.0
100
AcDbLayout
  1
Model
 70
     1
 71
     0
 10
0.0
 20
0.0
 11
12.0
 21
9.0
 12
0.0
 22
0.0
 32
0.0
 14
-119.2387
 24
-109.2647
 34
0.0
 15
118.8945
 25
106.1798
 35
0.0
146
0.0
 13
0.0
 23
0.0
 33
0.0
 16
1.0
 26
0.0
 36
0.0
 17
0.0
 27
1.0
 37
0.0
 76
     0
330
1F
331
29
  0
MATERIAL
  5
3D
102
{ACAD_REACTORS
330
3B
102
}
330
3B
100
AcDbMaterial
  1
ByBlock
 72
     1
 94
      127
  0
MATERIAL
  5
3C
102
{ACAD_REACTORS
330
3B
102
}
330
3B
100
AcDbMaterial
  1
ByLayer
 72
     1
 94
      127
  0
MATERIAL
  5
3E
102
{ACAD_REACTORS
330
3B
102
}
330
3B
100
AcDbMaterial
  1
Global
 72
     1
 94
      127
  0
MLINESTYLE
  5
18
102
{ACAD_REACTORS
330
17
102
}
330
17
100
AcDbMlineStyle
  2
Standard
 70
     0
  3

 62
   256
 51
90.0
 52
90.0
 71
     2
 49
0.5
 62
   256
  6
BYLAYER
 49
-0.5
 62
   256
  6
BYLAYER
  0
ACDBPLACEHOLDER
  5
F
102
{ACAD_REACTORS
330
E
102
}
330
E
  0
VISUALSTYLE
  5
2F
102
{ACAD_REACTORS
330
2A
102
}
102
{ACAD_XDICTIONARY
360
A6
102
}
330
2A
100
AcDbVisualStyle
  2
2dWireframe
 70
     4
 71
     0
 72
     2
 73
     0
 90
        0
 40
-0.6
 41
-30.0
 62
     5
 63
     7
421
 16777215
 74
     1
 91
        4
 64
     7
 65
   257
 75
     1
175
     1
 42
1.0
 92
        0
 66
   257
 43
1.0
 76
     1
 77
     6
 78
     2
 67
     7
 79
     5
170
     0
171
     0
290
     0
174
     0
 93
        1
 44
0.0
173
     0
291
     0
 45
0.0
  0
VISUALSTYLE
  5
31
102
{ACAD_REACTORS
330
2A
102
}
102
{ACAD_XDICTIONARY
360
AA
102
}
330
2A
100
AcDbVisualStyle
  2
3D Hidden
 70
     6
 71
     1
 72
     2
 73
     2
 90
        0
 40
-0.6
 41
-30.0
 62
     5
 63
     7
421
 16777215
 74
     2
 91
        2
 64
     7
 65
   257
 75
     2
175
     1
 42
40.0
 92
        0
 66
   257
 43
1.0
 76
     1
 77
     6
 78
     2
 67
     7
 79
     3
170
     0
171
     0
290
     0
174
     0
 93
        1
 44
0.0
173
     0
291
     0
 45
0.0
  0
VISUALSTYLE
  5
30
102
{ACAD_REACTORS
330
2A
102
}
102
{ACAD_XDICTIONARY
360
A8
102
}
330
2A
100
AcDbVisualStyle
  2
3dWireframe
 70
     5
 71
     0
 72
     2
 73
     0
 90
        0
 40
-0.6
 41
-30.0
 62
     5
 63
     7
421
 16777215
 74
     1
 91
        4
 64
     7
 65
   257
 75
     1
175
     1
 42
1.0
 92
        0
 66
   257
 43
1.0
 76
     1
 77
     6
 78
     2
 67
     7
 79
     5
170
     0
171
     0
290
     0
174
     0
 93
        1
 44
0.0
173
     0
291
     0
 45
0.0
  0
VISUALSTYLE
  5
32
102
{ACAD_REACTORS
330
2A
102
}
102
{ACAD_XDICTIONARY
360
AC
102
}
330
2A
100
AcDbVisualStyle
  2
Basic
 70
     7
 71
     1
 72
     0
 73
     1
 90
        0
 40
-0.6
 41
-30.0
 62
     5
 63
     7
421
 16777215
 74
     0
 91
        4
 64
     7
 65
   257
 75
     1
175
     1
 42
1.0
 92
        8
 66
     7
 43
1.0
 76
     1
 77
     6
 78
     2
 67
     7
 79
     5
170
     0
171
     0
290
     0
174
     0
 93
        1
 44
0.0
173
     0
291
     1
 45
0.0
  0
VISUALSTYLE
  5
36
102
{ACAD_REACTORS
330
2A
102
}
102
{ACAD_XDICTIONARY
360
B4
102
}
330
2A
100
AcDbVisualStyle
  2
Brighten
 70
    12
 71
     2
 72
     2
 73
     0
 90
        0
 40
-0.6
 41
-30.0
 62
     5
 63
     7
421
 16777215
 74
     1
 91
        4
 64
     7
 65
   257
 75
     1
175
     1
 42
1.0
 92
        8
 66
     7
 43
1.0
 76
     1
 77
     6
 78
     2
 67
     7
 79
     5
170
     0
171
     0
290
     0
174
     0
 93
        1
 44
50.0
173
     0
291
     1
 45
0.0
  0
VISUALSTYLE
  5
3A
102
{ACAD_REACTORS
330
2A
102
}
102
{ACAD_XDICTIONARY
360
BC
102
}
330
2A
100
AcDbVisualStyle
  2
ColorChange
 70
    16
 71
     2
 72
     2
 73
     3
 90
        0
 40
-0.6
 41
-30.0
 62
     5
 63
     8
421
  8421504
 74
     1
 91
        4
 64
     7
 65
   257
 75
     1
175
     1
 42
1.0
 92
        8
 66
     8
424
  8421504
 43
1.0
 76
     1
 77
     6
 78
     2
 67
     7
 79
     5
170
     0
171
     0
290
     0
174
     0
 93
        1
 44
0.0
173
     0
291
     1
 45
0.0
  0
VISUALSTYLE
  5
34
102
{ACAD_REACTORS
330
2A
102
}
102
{ACAD_XDICTIONARY
360
B0
102
}
330
2A
100
AcDbVisualStyle
  2
Conceptual
 70
     9
 71
     3
 72
     2
 73
     0
 90
        0
 40
-0.6
 41
-30.0
 62
     5
 63
     7
421
 16777215
 74
     2
 91
        2
 64
     7
 65
   257
 75
     1
175
     1
 42
40.0
 92
        8
 66
     7
 43
1.0
 76
     1
 77
     6
 78
     2
 67
     7
 79
     3
170
     0
171
     0
290
     0
174
     0
 93
        1
 44
0.0
173
     0
291
     0
 45
0.0
  0
VISUALSTYLE
  5
35
102
{ACAD_REACTORS
330
2A
102
}
102
{ACAD_XDICTIONARY
360
B2
102
}
330
2A
100
AcDbVisualStyle
  2
Dim
 70
    11
 71
     2
 72
     2
 73
     0
 90
        0
 40
-0.6
 41
-30.0
 62
     5
 63
     7
421
 16777215
 74
     1
 91
        4
 64
     7
 65
   257
 75
     1
175
     1
 42
1.0
 92
        8
 66
     7
 43
1.0
 76
     1
 77
     6
 78
     2
 67
     7
 79
     5
170
     0
171
     0
290
     0
174
     0
 93
        1
 44
-50.0
173
     0
291
     1
 45
0.0
  0
VISUALSTYLE
  5
39
102
{ACAD_REACTORS
330
2A
102
}
102
{ACAD_XDICTIONARY
360
BA
102
}
330
2A
100
AcDbVisualStyle
  2
Facepattern
 70
    15
 71
     2
 72
     2
 73
     0
 90
        0
 40
-0.6
 41
-30.0
 62
     5
 63
     7
421
 16777215
 74
     1
 91
        4
 64
     7
 65
   257
 75
     1
175
     1
 42
1.0
 92
        8
 66
     7
 43
1.0
 76
     1
 77
     6
 78
     2
 67
     7
 79
     5
170
     0
171
     0
290
     0
174
     0
 93
        1
 44
0.0
173
     0
291
     1
 45
0.0
  0
VISUALSTYLE
  5
2B
102
{ACAD_REACTORS
330
2A
102
}
102
{ACAD_XDICTIONARY
360
9E
102
}
330
2A
100
AcDbVisualStyle
  2
Flat
 70
     0
 71
     2
 72
     1
 73
     1
 90
        2
 40
-0.6
 41
30.0
 62
     5
 63
     7
421
 16777215
 74
     0
 91
        4
 64
     7
 65
   257
 75
     1
175
     1
 42
1.0
 92
        8
 66
     7
 43
1.0
 76
     1
 77
     6
 78
     2
 67
     7
 79
     5
170
     0
171
     0
290
     0
174
     0
 93
       13
 44
0.0
173
     0
291
     1
 45
0.0
  0
VISUALSTYLE
  5
2C
102
{ACAD_REACTORS
330
2A
102
}
102
{ACAD_XDICTIONARY
360
A0
102
}
330
2A
100
AcDbVisualStyle
  2
FlatWithEdges
 70
     1
 71
     2
 72
     1
 73
     1
 90
        2
 40
-0.6
 41
30.0
 62
     5
 63
     7
421
 16777215
 74
     1
 91
        4
 64
     7
 65
   257
 75
     1
175
     1
 42
1.0
 92
        0
 66
   257
 43
1.0
 76
     1
 77
     6
 78
     2
 67
     7
 79
     5
170
     0
171
     0
290
     0
174
     0
 93
       13
 44
0.0
173
     0
291
     1
 45
0.0
  0
VISUALSTYLE
  5
2D
102
{ACAD_REACTORS
330
2A
102
}
102
{ACAD_XDICTIONARY
360
A2
102
}
330
2A
100
AcDbVisualStyle
  2
Gouraud
 70
     2
 71
     2
 72
     2
 73
     1
 90
        2
 40
-0.6
 41
30.0
 62
     5
 63
     7
421
 16777215
 74
     0
 91
        4
 64
     7
 65
   257
 75
     1
175
     1
 42
1.0
 92
        0
 66
     7
 43
1.0
 76
     1
 77
     6
 78
     2
 67
     7
 79
     5
170
     0
171
     0
290
     0
174
     0
 93
       13
 44
0.0
173
     0
291
     1
 45
0.0
  0
VISUALSTYLE
  5
2E
102
{ACAD_REACTORS
330
2A
102
}
102
{ACAD_XDICTIONARY
360
A4
102
}
330
2A
100
AcDbVisualStyle
  2
GouraudWithEdges
 70
     3
 71
     2
 72
     2
 73
     1
 90
        2
 40
-0.6
 41
30.0
 62
     5
 63
     7
421
 16777215
 74
     1
 91
        4
 64
     7
 65
   257
 75
     1
175
     1
 42
1.0
 92
        0
 66
   257
 43
1.0
 76
     1
 77
     6
 78
     2
 67
     7
 79
     5
170
     0
171
     0
290
     0
174
     0
 93
       13
 44
0.0
173
     0
291
     1
 45
0.0
  0
VISUALSTYLE
  5
38
102
{ACAD_REACTORS
330
2A
102
}
102
{ACAD_XDICTIONARY
360
B8
102
}
330
2A
100
AcDbVisualStyle
  2
Linepattern
 70
    14
 71
     2
 72
     2
 73
     0
 90
        0
 40
-0.6
 41
-30.0
 62
     5
 63
     7
421
 16777215
 74
     1
 91
        4
 64
     7
 65
   257
 75
     7
175
     7
 42
1.0
 92
        8
 66
     7
 43
1.0
 76
     1
 77
     6
 78
     2
 67
     7
 79
     5
170
     0
171
     0
290
     0
174
     0
 93
        1
 44
0.0
173
     0
291
     1
 45
0.0
  0
VISUALSTYLE
  5
33
102
{ACAD_REACTORS
330
2A
102
}
102
{ACAD_XDICTIONARY
360
AE
102
}
330
2A
100
AcDbVisualStyle
  2
Realistic
 70
     8
 71
     2
 72
     2
 73
     0
 90
        0
 40
-0.6
 41
-30.0
 62
     5
 63
     7
421
 16777215
 74
     1
 91
        0
 64
     7
 65
   257
 75
     1
175
     1
 42
1.0
 92
        8
 66
     8
424
  7895160
 43
1.0
 76
     1
 77
     6
 78
     2
 67
     7
 79
     5
170
     0
171
     0
290
     0
174
     0
 93
       13
 44
0.0
173
     0
291
     0
 45
0.0
  0
VISUALSTYLE
  5
37
102
{ACAD_REACTORS
330
2A
102
}
102
{ACAD_XDICTIONARY
360
B6
102
}
330
2A
100
AcDbVisualStyle
  2
Thicken
 70
    13
 71
     2
 72
     2
 73
     0
 90
        0
 40
-0.6
 41
-30.0
 62
     5
 63
     7
421
 16777215
 74
     1
 91
        4
 64
     7
 65
   257
 75
     1
175
     1
 42
1.0
 92
       12
 66
     7
 43
1.0
 76
     1
 77
     6
 78
     2
 67
     7
 79
     5
170
     0
171
     0
290
     0
174
     0
 93
        1
 44
0.0
173
     0
291
     1
 45
0.0
  0
DICTIONARY
  5
A6
330
2F
100
AcDbDictionary
280
     1
281
     1
  3
ACAD_XREC_ROUNDTRIP
360
A7
  0
DICTIONARY
  5
AA
330
31
100
AcDbDictionary
280
     1
281
     1
  3
ACAD_XREC_ROUNDTRIP
360
AB
  0
DICTIONARY
  5
A8
330
30
100
AcDbDictionary
280
     1
281
     1
  3
ACAD_XREC_ROUNDTRIP
360
A9
  0
DICTIONARY
  5
AC
330
32
100
AcDbDictionary
280
     1
281
     1
  3
ACAD_XREC_ROUNDTRIP
360
AD
  0
DICTIONARY
  5
B4
330
36
100
AcDbDictionary
280
     1
281
     1
  3
ACAD_XREC_ROUNDTRIP
360
B5
  0
DICTIONARY
  5
BC
330
3A
100
AcDbDictionary
280
     1
281
     1
  3
ACAD_XREC_ROUNDTRIP
360
BD
  0
DICTIONARY
  5
B0
330
34
100
AcDbDictionary
280
     1
281
     1
  3
ACAD_XREC_ROUNDTRIP
360
B1
  0
DICTIONARY
  5
B2
330
35
100
AcDbDictionary
280
     1
281
     1
  3
ACAD_XREC_ROUNDTRIP
360
B3
  0
DICTIONARY
  5
BA
330
39
100
AcDbDictionary
280
     1
281
     1
  3
ACAD_XREC_ROUNDTRIP
360
BB
  0
DICTIONARY
  5
9E
330
2B
100
AcDbDictionary
280
     1
281
     1
  3
ACAD_XREC_ROUNDTRIP
360
9F
  0
DICTIONARY
  5
A0
330
2C
100
AcDbDictionary
280
     1
281
     1
  3
ACAD_XREC_ROUNDTRIP
360
A1
  0
DICTIONARY
  5
A2
330
2D
100
AcDbDictionary
280
     1
281
     1
  3
ACAD_XREC_ROUNDTRIP
360
A3
  0
DICTIONARY
  5
A4
330
2E
100
AcDbDictionary
280
     1
281
     1
  3
ACAD_XREC_ROUNDTRIP
360
A5
  0
DICTIONARY
  5
B8
330
38
100
AcDbDictionary
280
     1
281
     1
  3
ACAD_XREC_ROUNDTRIP
360
B9
  0
DICTIONARY
  5
AE
330
33
100
AcDbDictionary
280
     1
281
     1
  3
ACAD_XREC_ROUNDTRIP
360
AF
  0
DICTIONARY
  5
B6
330
37
100
AcDbDictionary
280
     1
281
     1
  3
ACAD_XREC_ROUNDTRIP
360
B7
  0
XRECORD
  5
A7
102
{ACAD_REACTORS
330
A6
102
}
330
A6
100
AcDbXrecord
280
     1
102
RTVSPropertyOp0
 70
     1
102
RTVSPropertyOp1
 70
     1
102
RTVSPropertyOp2
 70
     1
102
RTVSPropertyOp3
 70
     1
102
RTVSPropertyOp4
 70
     1
102
RTVSPropertyOp5
 70
     1
102
RTVSPropertyOp6
 70
     1
102
RTVSPropertyOp7
 70
     1
102
RTVSPropertyOp8
 70
     1
102
RTVSPropertyOp9
 70
     1
102
RTVSPropertyOp10
 70
     1
102
RTVSPropertyOp11
 70
     1
102
RTVSPropertyOp12
 70
     1
102
RTVSPropertyOp13
 70
     1
102
RTVSPropertyOp14
 70
     1
102
RTVSPropertyOp15
 70
     1
102
RTVSPropertyOp16
 70
     1
102
RTVSPropertyOp17
 70
     1
102
RTVSPropertyOp18
 70
     1
102
RTVSPropertyOp19
 70
     1
102
RTVSPropertyOp20
 70
     1
102
RTVSPropertyOp21
 70
     1
102
RTVSPropertyOp22
 70
     1
102
RTVSPropertyOp23
 70
     1
102
RTVSPropertyOp24
 70
     1
102
RTVSPropertyOp25
 70
     1
102
RTVSPropertyOp26
 70
     1
102
RTVSPropertyOp27
 70
     1
  0
XRECORD
  5
AB
102
{ACAD_REACTORS
330
AA
102
}
330
AA
100
AcDbXrecord
280
     1
102
RTVSPropertyOp0
 70
     1
102
RTVSPropertyOp1
 70
     1
102
RTVSPropertyOp2
 70
     1
102
RTVSPropertyOp3
 70
     1
102
RTVSPropertyOp4
 70
     1
102
RTVSPropertyOp5
 70
     1
102
RTVSPropertyOp6
 70
     1
102
RTVSPropertyOp7
 70
     1
102
RTVSPropertyOp8
 70
     1
102
RTVSPropertyOp9
 70
     1
102
RTVSPropertyOp10
 70
     1
102
RTVSPropertyOp11
 70
     1
102
RTVSPropertyOp12
 70
     1
102
RTVSPropertyOp13
 70
     1
102
RTVSPropertyOp14
 70
     1
102
RTVSPropertyOp15
 70
     1
102
RTVSPropertyOp16
 70
     1
102
RTVSPropertyOp17
 70
     1
102
RTVSPropertyOp18
 70
     1
102
RTVSPropertyOp19
 70
     1
102
RTVSPropertyOp20
 70
     1
102
RTVSPropertyOp21
 70
     1
102
RTVSPropertyOp22
 70
     1
102
RTVSPropertyOp23
 70
     1
102
RTVSPropertyOp24
 70
     1
102
RTVSPropertyOp25
 70
     1
102
RTVSPropertyOp26
 70
     1
102
RTVSPropertyOp27
 70
     1
  0
XRECORD
  5
A9
102
{ACAD_REACTORS
330
A8
102
}
330
A8
100
AcDbXrecord
280
     1
102
RTVSPropertyOp0
 70
     1
102
RTVSPropertyOp1
 70
     1
102
RTVSPropertyOp2
 70
     1
102
RTVSPropertyOp3
 70
     1
102
RTVSPropertyOp4
 70
     1
102
RTVSPropertyOp5
 70
     1
102
RTVSPropertyOp6
 70
     1
102
RTVSPropertyOp7
 70
     1
102
RTVSPropertyOp8
 70
     1
102
RTVSPropertyOp9
 70
     1
102
RTVSPropertyOp10
 70
     1
102
RTVSPropertyOp11
 70
     1
102
RTVSPropertyOp12
 70
     1
102
RTVSPropertyOp13
 70
     1
102
RTVSPropertyOp14
 70
     1
102
RTVSPropertyOp15
 70
     1
102
RTVSPropertyOp16
 70
     1
102
RTVSPropertyOp17
 70
     1
102
RTVSPropertyOp18
 70
     1
102
RTVSPropertyOp19
 70
     1
102
RTVSPropertyOp20
 70
     1
102
RTVSPropertyOp21
 70
     1
102
RTVSPropertyOp22
 70
     1
102
RTVSPropertyOp23
 70
     1
102
RTVSPropertyOp24
 70
     1
102
RTVSPropertyOp25
 70
     1
102
RTVSPropertyOp26
 70
     1
102
RTVSPropertyOp27
 70
     1
  0
XRECORD
  5
AD
102
{ACAD_REACTORS
330
AC
102
}
330
AC
100
AcDbXrecord
280
     1
102
RTVSPropertyOp0
 70
     1
102
RTVSPropertyOp1
 70
     1
102
RTVSPropertyOp2
 70
     1
102
RTVSPropertyOp3
 70
     1
102
RTVSPropertyOp4
 70
     1
102
RTVSPropertyOp5
 70
     1
102
RTVSPropertyOp6
 70
     1
102
RTVSPropertyOp7
 70
     1
102
RTVSPropertyOp8
 70
     1
102
RTVSPropertyOp9
 70
     1
102
RTVSPropertyOp10
 70
     1
102
RTVSPropertyOp11
 70
     1
102
RTVSPropertyOp12
 70
     1
102
RTVSPropertyOp13
 70
     1
102
RTVSPropertyOp14
 70
     1
102
RTVSPropertyOp15
 70
     1
102
RTVSPropertyOp16
 70
     1
102
RTVSPropertyOp17
 70
     1
102
RTVSPropertyOp18
 70
     1
102
RTVSPropertyOp19
 70
     1
102
RTVSPropertyOp20
 70
     1
102
RTVSPropertyOp21
 70
     1
102
RTVSPropertyOp22
 70
     1
102
RTVSPropertyOp23
 70
     1
102
RTVSPropertyOp24
 70
     1
102
RTVSPropertyOp25
 70
     1
102
RTVSPropertyOp26
 70
     1
102
RTVSPropertyOp27
 70
     1
  0
XRECORD
  5
B5
102
{ACAD_REACTORS
330
B4
102
}
330
B4
100
AcDbXrecord
280
     1
102
RTVSPropertyOp0
 70
     1
102
RTVSPropertyOp1
 70
     1
102
RTVSPropertyOp2
 70
     1
102
RTVSPropertyOp3
 70
     1
102
RTVSPropertyOp4
 70
     1
102
RTVSPropertyOp5
 70
     1
102
RTVSPropertyOp6
 70
     1
102
RTVSPropertyOp7
 70
     1
102
RTVSPropertyOp8
 70
     1
102
RTVSPropertyOp9
 70
     1
102
RTVSPropertyOp10
 70
     1
102
RTVSPropertyOp11
 70
     1
102
RTVSPropertyOp12
 70
     1
102
RTVSPropertyOp13
 70
     1
102
RTVSPropertyOp14
 70
     1
102
RTVSPropertyOp15
 70
     1
102
RTVSPropertyOp16
 70
     1
102
RTVSPropertyOp17
 70
     1
102
RTVSPropertyOp18
 70
     1
102
RTVSPropertyOp19
 70
     1
102
RTVSPropertyOp20
 70
     1
102
RTVSPropertyOp21
 70
     1
102
RTVSPropertyOp22
 70
     1
102
RTVSPropertyOp23
 70
     1
102
RTVSPropertyOp24
 70
     1
102
RTVSPropertyOp25
 70
     1
102
RTVSPropertyOp26
 70
     1
102
RTVSPropertyOp27
 70
     1
  0
XRECORD
  5
BD
102
{ACAD_REACTORS
330
BC
102
}
330
BC
100
AcDbXrecord
280
     1
102
RTVSPropertyOp0
 70
     1
102
RTVSPropertyOp1
 70
     1
102
RTVSPropertyOp2
 70
     1
102
RTVSPropertyOp3
 70
     1
102
RTVSPropertyOp4
 70
     1
102
RTVSPropertyOp5
 70
     1
102
RTVSPropertyOp6
 70
     1
102
RTVSPropertyOp7
 70
     1
102
RTVSPropertyOp8
 70
     1
102
RTVSPropertyOp9
 70
     1
102
RTVSPropertyOp10
 70
     1
102
RTVSPropertyOp11
 70
     1
102
RTVSPropertyOp12
 70
     1
102
RTVSPropertyOp13
 70
     1
102
RTVSPropertyOp14
 70
     1
102
RTVSPropertyOp15
 70
     1
102
RTVSPropertyOp16
 70
     1
102
RTVSPropertyOp17
 70
     1
102
RTVSPropertyOp18
 70
     1
102
RTVSPropertyOp19
 70
     1
102
RTVSPropertyOp20
 70
     1
102
RTVSPropertyOp21
 70
     1
102
RTVSPropertyOp22
 70
     1
102
RTVSPropertyOp23
 70
     1
102
RTVSPropertyOp24
 70
     1
102
RTVSPropertyOp25
 70
     1
102
RTVSPropertyOp26
 70
     1
102
RTVSPropertyOp27
 70
     1
  0
XRECORD
  5
B1
102
{ACAD_REACTORS
330
B0
102
}
330
B0
100
AcDbXrecord
280
     1
102
RTVSPropertyOp0
 70
     1
102
RTVSPropertyOp1
 70
     1
102
RTVSPropertyOp2
 70
     1
102
RTVSPropertyOp3
 70
     1
102
RTVSPropertyOp4
 70
     1
102
RTVSPropertyOp5
 70
     1
102
RTVSPropertyOp6
 70
     1
102
RTVSPropertyOp7
 70
     1
102
RTVSPropertyOp8
 70
     1
102
RTVSPropertyOp9
 70
     1
102
RTVSPropertyOp10
 70
     1
102
RTVSPropertyOp11
 70
     1
102
RTVSPropertyOp12
 70
     1
102
RTVSPropertyOp13
 70
     1
102
RTVSPropertyOp14
 70
     1
102
RTVSPropertyOp15
 70
     1
102
RTVSPropertyOp16
 70
     1
102
RTVSPropertyOp17
 70
     1
102
RTVSPropertyOp18
 70
     1
102
RTVSPropertyOp19
 70
     1
102
RTVSPropertyOp20
 70
     1
102
RTVSPropertyOp21
 70
     1
102
RTVSPropertyOp22
 70
     1
102
RTVSPropertyOp23
 70
     1
102
RTVSPropertyOp24
 70
     1
102
RTVSPropertyOp25
 70
     1
102
RTVSPropertyOp26
 70
     1
102
RTVSPropertyOp27
 70
     1
  0
XRECORD
  5
B3
102
{ACAD_REACTORS
330
B2
102
}
330
B2
100
AcDbXrecord
280
     1
102
RTVSPropertyOp0
 70
     1
102
RTVSPropertyOp1
 70
     1
102
RTVSPropertyOp2
 70
     1
102
RTVSPropertyOp3
 70
     1
102
RTVSPropertyOp4
 70
     1
102
RTVSPropertyOp5
 70
     1
102
RTVSPropertyOp6
 70
     1
102
RTVSPropertyOp7
 70
     1
102
RTVSPropertyOp8
 70
     1
102
RTVSPropertyOp9
 70
     1
102
RTVSPropertyOp10
 70
     1
102
RTVSPropertyOp11
 70
     1
102
RTVSPropertyOp12
 70
     1
102
RTVSPropertyOp13
 70
     1
102
RTVSPropertyOp14
 70
     1
102
RTVSPropertyOp15
 70
     1
102
RTVSPropertyOp16
 70
     1
102
RTVSPropertyOp17
 70
     1
102
RTVSPropertyOp18
 70
     1
102
RTVSPropertyOp19
 70
     1
102
RTVSPropertyOp20
 70
     1
102
RTVSPropertyOp21
 70
     1
102
RTVSPropertyOp22
 70
     1
102
RTVSPropertyOp23
 70
     1
102
RTVSPropertyOp24
 70
     1
102
RTVSPropertyOp25
 70
     1
102
RTVSPropertyOp26
 70
     1
102
RTVSPropertyOp27
 70
     1
  0
XRECORD
  5
BB
102
{ACAD_REACTORS
330
BA
102
}
330
BA
100
AcDbXrecord
280
     1
102
RTVSPropertyOp0
 70
     1
102
RTVSPropertyOp1
 70
     1
102
RTVSPropertyOp2
 70
     1
102
RTVSPropertyOp3
 70
     1
102
RTVSPropertyOp4
 70
     1
102
RTVSPropertyOp5
 70
     1
102
RTVSPropertyOp6
 70
     1
102
RTVSPropertyOp7
 70
     1
102
RTVSPropertyOp8
 70
     1
102
RTVSPropertyOp9
 70
     1
102
RTVSPropertyOp10
 70
     1
102
RTVSPropertyOp11
 70
     1
102
RTVSPropertyOp12
 70
     1
102
RTVSPropertyOp13
 70
     1
102
RTVSPropertyOp14
 70
     1
102
RTVSPropertyOp15
 70
     1
102
RTVSPropertyOp16
 70
     1
102
RTVSPropertyOp17
 70
     1
102
RTVSPropertyOp18
 70
     1
102
RTVSPropertyOp19
 70
     1
102
RTVSPropertyOp20
 70
     1
102
RTVSPropertyOp21
 70
     1
102
RTVSPropertyOp22
 70
     1
102
RTVSPropertyOp23
 70
     1
102
RTVSPropertyOp24
 70
     1
102
RTVSPropertyOp25
 70
     1
102
RTVSPropertyOp26
 70
     1
102
RTVSPropertyOp27
 70
     1
  0
XRECORD
  5
9F
102
{ACAD_REACTORS
330
9E
102
}
330
9E
100
AcDbXrecord
280
     1
102
RTVSPropertyOp0
 70
     1
102
RTVSPropertyOp1
 70
     1
102
RTVSPropertyOp2
 70
     1
102
RTVSPropertyOp3
 70
     1
102
RTVSPropertyOp4
 70
     1
102
RTVSPropertyOp5
 70
     1
102
RTVSPropertyOp6
 70
     1
102
RTVSPropertyOp7
 70
     1
102
RTVSPropertyOp8
 70
     1
102
RTVSPropertyOp9
 70
     1
102
RTVSPropertyOp10
 70
     1
102
RTVSPropertyOp11
 70
     1
102
RTVSPropertyOp12
 70
     1
102
RTVSPropertyOp13
 70
     1
102
RTVSPropertyOp14
 70
     1
102
RTVSPropertyOp15
 70
     1
102
RTVSPropertyOp16
 70
     1
102
RTVSPropertyOp17
 70
     1
102
RTVSPropertyOp18
 70
     1
102
RTVSPropertyOp19
 70
     1
102
RTVSPropertyOp20
 70
     1
102
RTVSPropertyOp21
 70
     1
102
RTVSPropertyOp22
 70
     1
102
RTVSPropertyOp23
 70
     1
102
RTVSPropertyOp24
 70
     1
102
RTVSPropertyOp25
 70
     1
102
RTVSPropertyOp26
 70
     1
102
RTVSPropertyOp27
 70
     1
  0
XRECORD
  5
A1
102
{ACAD_REACTORS
330
A0
102
}
330
A0
100
AcDbXrecord
280
     1
102
RTVSPropertyOp0
 70
     1
102
RTVSPropertyOp1
 70
     1
102
RTVSPropertyOp2
 70
     1
102
RTVSPropertyOp3
 70
     1
102
RTVSPropertyOp4
 70
     1
102
RTVSPropertyOp5
 70
     1
102
RTVSPropertyOp6
 70
     1
102
RTVSPropertyOp7
 70
     1
102
RTVSPropertyOp8
 70
     1
102
RTVSPropertyOp9
 70
     1
102
RTVSPropertyOp10
 70
     1
102
RTVSPropertyOp11
 70
     1
102
RTVSPropertyOp12
 70
     1
102
RTVSPropertyOp13
 70
     1
102
RTVSPropertyOp14
 70
     1
102
RTVSPropertyOp15
 70
     1
102
RTVSPropertyOp16
 70
     1
102
RTVSPropertyOp17
 70
     1
102
RTVSPropertyOp18
 70
     1
102
RTVSPropertyOp19
 70
     1
102
RTVSPropertyOp20
 70
     1
102
RTVSPropertyOp21
 70
     1
102
RTVSPropertyOp22
 70
     1
102
RTVSPropertyOp23
 70
     1
102
RTVSPropertyOp24
 70
     1
102
RTVSPropertyOp25
 70
     1
102
RTVSPropertyOp26
 70
     1
102
RTVSPropertyOp27
 70
     1
  0
XRECORD
  5
A3
102
{ACAD_REACTORS
330
A2
102
}
330
A2
100
AcDbXrecord
280
     1
102
RTVSPropertyOp0
 70
     1
102
RTVSPropertyOp1
 70
     1
102
RTVSPropertyOp2
 70
     1
102
RTVSPropertyOp3
 70
     1
102
RTVSPropertyOp4
 70
     1
102
RTVSPropertyOp5
 70
     1
102
RTVSPropertyOp6
 70
     1
102
RTVSPropertyOp7
 70
     1
102
RTVSPropertyOp8
 70
     1
102
RTVSPropertyOp9
 70
     1
102
RTVSPropertyOp10
 70
     1
102
RTVSPropertyOp11
 70
     1
102
RTVSPropertyOp12
 70
     1
102
RTVSPropertyOp13
 70
     1
102
RTVSPropertyOp14
 70
     1
102
RTVSPropertyOp15
 70
     1
102
RTVSPropertyOp16
 70
     1
102
RTVSPropertyOp17
 70
     1
102
RTVSPropertyOp18
 70
     1
102
RTVSPropertyOp19
 70
     1
102
RTVSPropertyOp20
 70
     1
102
RTVSPropertyOp21
 70
     1
102
RTVSPropertyOp22
 70
     1
102
RTVSPropertyOp23
 70
     1
102
RTVSPropertyOp24
 70
     1
102
RTVSPropertyOp25
 70
     1
102
RTVSPropertyOp26
 70
     1
102
RTVSPropertyOp27
 70
     1
  0
XRECORD
  5
A5
102
{ACAD_REACTORS
330
A4
102
}
330
A4
100
AcDbXrecord
280
     1
102
RTVSPropertyOp0
 70
     1
102
RTVSPropertyOp1
 70
     1
102
RTVSPropertyOp2
 70
     1
102
RTVSPropertyOp3
 70
     1
102
RTVSPropertyOp4
 70
     1
102
RTVSPropertyOp5
 70
     1
102
RTVSPropertyOp6
 70
     1
102
RTVSPropertyOp7
 70
     1
102
RTVSPropertyOp8
 70
     1
102
RTVSPropertyOp9
 70
     1
102
RTVSPropertyOp10
 70
     1
102
RTVSPropertyOp11
 70
     1
102
RTVSPropertyOp12
 70
     1
102
RTVSPropertyOp13
 70
     1
102
RTVSPropertyOp14
 70
     1
102
RTVSPropertyOp15
 70
     1
102
RTVSPropertyOp16
 70
     1
102
RTVSPropertyOp17
 70
     1
102
RTVSPropertyOp18
 70
     1
102
RTVSPropertyOp19
 70
     1
102
RTVSPropertyOp20
 70
     1
102
RTVSPropertyOp21
 70
     1
102
RTVSPropertyOp22
 70
     1
102
RTVSPropertyOp23
 70
     1
102
RTVSPropertyOp24
 70
     1
102
RTVSPropertyOp25
 70
     1
102
RTVSPropertyOp26
 70
     1
102
RTVSPropertyOp27
 70
     1
  0
XRECORD
  5
B9
102
{ACAD_REACTORS
330
B8
102
}
330
B8
100
AcDbXrecord
280
     1
102
RTVSPropertyOp0
 70
     1
102
RTVSPropertyOp1
 70
     1
102
RTVSPropertyOp2
 70
     1
102
RTVSPropertyOp3
 70
     1
102
RTVSPropertyOp4
 70
     1
102
RTVSPropertyOp5
 70
     1
102
RTVSPropertyOp6
 70
     1
102
RTVSPropertyOp7
 70
     1
102
RTVSPropertyOp8
 70
     1
102
RTVSPropertyOp9
 70
     1
102
RTVSPropertyOp10
 70
     1
102
RTVSPropertyOp11
 70
     1
102
RTVSPropertyOp12
 70
     1
102
RTVSPropertyOp13
 70
     1
102
RTVSPropertyOp14
 70
     1
102
RTVSPropertyOp15
 70
     1
102
RTVSPropertyOp16
 70
     1
102
RTVSPropertyOp17
 70
     1
102
RTVSPropertyOp18
 70
     1
102
RTVSPropertyOp19
 70
     1
102
RTVSPropertyOp20
 70
     1
102
RTVSPropertyOp21
 70
     1
102
RTVSPropertyOp22
 70
     1
102
RTVSPropertyOp23
 70
     1
102
RTVSPropertyOp24
 70
     1
102
RTVSPropertyOp25
 70
     1
102
RTVSPropertyOp26
 70
     1
102
RTVSPropertyOp27
 70
     1
  0
XRECORD
  5
AF
102
{ACAD_REACTORS
330
AE
102
}
330
AE
100
AcDbXrecord
280
     1
102
RTVSPropertyOp0
 70
     1
102
RTVSPropertyOp1
 70
     1
102
RTVSPropertyOp2
 70
     1
102
RTVSPropertyOp3
 70
     1
102
RTVSPropertyOp4
 70
     1
102
RTVSPropertyOp5
 70
     1
102
RTVSPropertyOp6
 70
     1
102
RTVSPropertyOp7
 70
     1
102
RTVSPropertyOp8
 70
     1
102
RTVSPropertyOp9
 70
     1
102
RTVSPropertyOp10
 70
     1
102
RTVSPropertyOp11
 70
     1
102
RTVSPropertyOp12
 70
     1
102
RTVSPropertyOp13
 70
     1
102
RTVSPropertyOp14
 70
     1
102
RTVSPropertyOp15
 70
     1
102
RTVSPropertyOp16
 70
     1
102
RTVSPropertyOp17
 70
     1
102
RTVSPropertyOp18
 70
     1
102
RTVSPropertyOp19
 70
     1
102
RTVSPropertyOp20
 70
     1
102
RTVSPropertyOp21
 70
     1
102
RTVSPropertyOp22
 70
     1
102
RTVSPropertyOp23
 70
     1
102
RTVSPropertyOp24
 70
     1
102
RTVSPropertyOp25
 70
     1
102
RTVSPropertyOp26
 70
     1
102
RTVSPropertyOp27
 70
     1
  0
XRECORD
  5
B7
102
{ACAD_REACTORS
330
B6
102
}
330
B6
100
AcDbXrecord
280
     1
102
RTVSPropertyOp0
 70
     1
102
RTVSPropertyOp1
 70
     1
102
RTVSPropertyOp2
 70
     1
102
RTVSPropertyOp3
 70
     1
102
RTVSPropertyOp4
 70
     1
102
RTVSPropertyOp5
 70
     1
102
RTVSPropertyOp6
 70
     1
102
RTVSPropertyOp7
 70
     1
102
RTVSPropertyOp8
 70
     1
102
RTVSPropertyOp9
 70
     1
102
RTVSPropertyOp10
 70
     1
102
RTVSPropertyOp11
 70
     1
102
RTVSPropertyOp12
 70
     1
102
RTVSPropertyOp13
 70
     1
102
RTVSPropertyOp14
 70
     1
102
RTVSPropertyOp15
 70
     1
102
RTVSPropertyOp16
 70
     1
102
RTVSPropertyOp17
 70
     1
102
RTVSPropertyOp18
 70
     1
102
RTVSPropertyOp19
 70
     1
102
RTVSPropertyOp20
 70
     1
102
RTVSPropertyOp21
 70
     1
102
RTVSPropertyOp22
 70
     1
102
RTVSPropertyOp23
 70
     1
102
RTVSPropertyOp24
 70
     1
102
RTVSPropertyOp25
 70
     1
102
RTVSPropertyOp26
 70
     1
102
RTVSPropertyOp27
 70
     1
  0
ENDSEC
  0
EOF
