<?xml version="1.0" encoding="utf-8"?>
<!-- Generator: Adobe Illustrator 16.0.0, SVG Export Plug-In . SVG Version: 6.00 Build 0)  -->
<!DOCTYPE svg PUBLIC "-//W3C//DTD SVG 1.1//EN" "http://www.w3.org/Graphics/SVG/1.1/DTD/svg11.dtd">
<svg version="1.1" id="Layer_1" xmlns="http://www.w3.org/2000/svg" xmlns:xlink="http://www.w3.org/1999/xlink" x="0px" y="0px"
	 width="675.024px" height="610.727px" viewBox="0 0 675.024 610.727" enable-background="new 0 0 675.024 610.727"
	 xml:space="preserve">
<path fill="none" stroke="#ED1F24" stroke-width="0.25" stroke-miterlimit="10" d="M631.957,289.208H136.655
	c0,0-50.338-17.229-34.995-55.453c16.801-41.854,63.527,3.77,87.217,2.692c23.688-1.076,28.533-7.538,29.071-4.307
	c0.538,3.23-24.765,15.074-27.457,24.227c-2.691,9.151-8.075,8.076-8.075,8.076s-24.765-30.149-38.764-27.459
	c-13.997,2.693-22.073,18.306-17.227,26.92c0,0,5.384-4.307,10.498,0.539c5.114,4.845,4.307,15.073,15.343,16.957
	c11.037,1.885,43.609,1.885,47.377-0.537c3.768-2.422,6.46-11.037,10.768-10.23c4.307,0.81,6.729,9.69,11.574,10.23
	c4.846,0.537,8.884,0.537,8.884,0.537s-15.074-8.075-12.921-18.573s14.536-8.614,17.497-5.113
	c2.961,3.498,1.077,10.765,0.808,11.843c0,0,8.075,3.499,18.036-1.078c9.959-4.574,7.805-13.188,4.037-15.071
	c0,0,11.575-5.384,16.42,4.037c0,0,7.806-5.654,10.498-12.383c2.692-6.729-3.768-11.036-6.729-9.961
	c-2.961,1.078-5.654,5.655-4.577,10.229c0,0-12.113-4.306-11.305-15.073c0,0-17.497-2.153-18.036-18.035
	c0,0,8.076-0.271,13.46,0.538c5.382,0.807,6.459-0.809,6.459-0.809s-3.432-0.738-7.065-3.194c-1.817-1.229-3.685-2.888-5.215-5.087
	c-5.216-7.062-6.293-16.753,0.168-24.289c5.383-6.46,14.536-11.306,21.803-17.093c2.423-1.93,4.637-3.963,6.431-6.197
	c1.635-2.307,2.994-4.705,4.07-6.855c3.228-8.618-3.233-18.309-12.799-18.72c-2.275-0.374-4.612-0.398-6.857-0.057
	c-6.739,1.026-12.674,5.351-13.775,13.464c0.045,3.161,1.126,6.386,3.28,8.539s7.537,0,9.686,3.231
	c1.619,2.153,1.35,4.574,0.14,6.729c-1.211,2.153-3.365,4.038-5.519,5.114c-2.153,1.077-5.383,1.077-7.537,1.077
	c0,9.691-2.153,20.458-9.689,26.918c-1.292-9.368-3.941-19.22-6.217-29.107c-0.758-3.293-4.997-17.164-5.75-20.845
	c-0.927-3.312-1.385-6.646-1.427-9.932c-1.682-24.102,20.93-43.483,43.542-44.559c2.692,0,5.316,0.269,7.892,0.743
	c28.719,3.564,40.562,31.559,56.715,55.248c5.381,8.614,17.225,9.689,28.35,9.574c3.973-0.206,8.17-0.871,12.564-2.038
	c26.381-6.999,71.871-45.762,85.062-48.454c13.191-2.691,21.266,5.384,20.459,11.307c0,0-2.424,2.422-6.73,2.961
	c-4.309,0.539-7.268,6.191-4.844,9.959c2.422,3.769,25.033-4.576,33.916-18.304c8.883-13.729,5.115-15.344-0.27-14.267
	c0,0-1.346-8.076,4.578-8.345c5.92-0.269,8.344,0.807,9.42,3.23c1.076,2.422,10.229-2.962,5.383-9.152c0,0,10.77-1.616,9.424-12.922
	c-1.346-11.306-8.344-12.921-8.344-12.921s-1.348,17.229-12.115,16.421c0,0-0.271,5.114,4.844,4.577c0,0-3.23,11.305-16.148,2.96
	c0,0-9.422,8.076-4.039,22.881c0,0-13.998,1.076-15.074-8.613c0,0-7.537,7.268-16.42,1.615c0,0,9.152-2.692,18.303-15.613
	c9.152-12.92,11.844-44.147,36.879-43.877c25.035,0.269,22.883,19.92,22.883,19.92s4.484-20.563,19.689-35.829
	c3.041-3.054,6.508-5.895,10.451-8.317c3.098-1.965,6.475-3.766,10.051-5.37c31.68-16.436,83.363-9.975,89.822,32.018
	c2.154,13.998-4.307,27.995-15.072,36.609c-2.693,1.885-5.451,3.433-8.258,4.726c-2.105,0.969-4.236,1.795-6.385,2.512
	c-2.152,0.717-4.32,1.325-6.5,1.858c-3.965,0.298-8.1,2.064-11.873,3.471c-3.775,1.417-7.193,2.468-9.873,0.887
	c-1.615-1.076-1.414-3.983-0.369-7.112c1.049-3.12,2.961-6.422,4.656-8.656c1.453-2.53,2.531-5.222,1.992-8.452
	c-1.078-3.23-5.385-6.461-8.615-5.383c-2.691,1.614-4.037,3.768-4.906,6.133c-3.256,8.552-5.779,17.361-8.072,26.217
	c-0.766,2.955-1.504,5.915-2.23,8.904c-6.324,34.117-16.016,71.803-49.168,90.121c-3.348,1.987-6.895,3.728-10.643,5.189
	c-3.752,1.463-7.705,2.645-11.871,3.518c-2.742,1.452-5.543,2.826-8.422,4.074c-2.879,1.249-5.834,2.37-8.861,3.357
	c0,0,4.576,4.039,7.537,3.229c0,0,2.154,9.96-11.037,18.306c-13.191,8.345-22.611-5.385-30.148-0.54
	c-7.537,4.847,3.5,28.534,20.996,23.96c0,0,2.154,13.458,16.689,14.535c14.537,1.076,20.459-9.151,13.729-12.382
	c0,0,14.268-5.384,20.727,2.421c6.461,7.808,1.885,14.806-2.15,17.767c0,0,9.957-3.498,17.494-0.808
	c7.537,2.692,27.189,4.308,34.188,1.616c6.998-2.693,10.768-10.231,15.344-10.768c4.576-0.538,17.229,2.96,21.535,12.38
	C639.224,287.592,635.455,289.478,631.957,289.208z"/>
<path fill="none" stroke="#ED1F24" stroke-width="0.25" stroke-miterlimit="10" d="M312.81,128.185
	c8.507,14.586,13.891,35.044,31.926,41.234l-2.424,7.539c0,0-2.688-0.605-6.402-2.327c-16.748-8.171-24.285-27.552-29.804-44.36
	L312.81,128.185z"/>
<path fill="none" stroke="#ED1F24" stroke-width="0.25" stroke-miterlimit="10" d="M360.08,170.498v7.806
	c0,0,23.418-0.538,37.146-9.422c13.729-8.883,21.266-10.499,21.266-10.499l-5.652-7.806
	C412.839,150.578,379.73,171.574,360.08,170.498z"/>
<path fill="none" stroke="#ED1F24" stroke-width="0.25" stroke-miterlimit="10" d="M426.298,142.501
	c4.307-3.229,28.266-16.151,28.266-16.151s-1.348,11.037,6.457,13.19c0,0-10.496,2.154-17.225,6.729
	c-6.732,4.577-11.039,5.922-11.039,5.922L426.298,142.501z"/>
<path fill="none" stroke="#ED1F24" stroke-width="0.25" stroke-miterlimit="10" d="M490.365,136.31
	c15.611-1.077,26.648-11.036,43.607-33.109s23.418-33.917,23.418-33.917l-9.959-0.539C547.431,68.744,524.82,118.006,490.365,136.31
	z"/>
<path fill="none" stroke="#ED1F24" stroke-width="0.25" stroke-miterlimit="10" d="M567.621,53.67h-8.883
	c0,0,0.822-1.391,2.369-3.657c1.543-2.266,3.811-5.407,6.701-8.906c1.629-2.258,3.375-4.438,5.232-6.515
	c1.861-2.078,3.832-4.049,5.91-5.89c8.32-7.603,18.012-10.833,28.779-12.987c-8.613,6.461-18.305,10.767-25.527,18.177
	c-1.85,1.933-3.605,3.956-5.25,6.056c-1.645,2.101-3.176,4.281-4.582,6.538C570.738,48.743,569.146,51.136,567.621,53.67z"/>
<path fill="none" stroke="#ED1F24" stroke-width="0.25" stroke-miterlimit="10" d="M291.976,212.221
	c9.688,1.077,18.303,10.768,13.189,20.727c0,0,16.957-17.766,35.262-19.649L291.976,212.221z"/>
<path fill="none" stroke="#ED1F24" stroke-width="0.25" stroke-miterlimit="10" d="M366.539,211.951h40.916
	c0,0-19.381,6.999-16.148,18.306C391.306,230.256,379.73,215.99,366.539,211.951z"/>
<path fill="none" stroke="#ED1F24" stroke-width="0.25" stroke-miterlimit="10" d="M430.335,212.221h48.186
	c0,0-18.576,5.922-17.23,15.612C461.291,227.833,448.908,214.643,430.335,212.221z"/>
<path fill="none" stroke="#ED1F24" stroke-width="0.25" stroke-miterlimit="10" d="M499.517,276.288
	c-13.459-3.231-24.498-23.958-32.57-22.074c-8.076,1.885-4.578,8.077-4.578,8.077s10.768-1.616,11.037,5.112
	c0.27,6.732-1.885,8.614-1.885,8.614L499.517,276.288z"/>
<path fill="none" stroke="#ED1F24" stroke-width="0.25" stroke-miterlimit="10" d="M441.912,257.175
	c-6.461-6.461-4.576-15.883,1.885-16.69c6.459-0.807,13.996,2.424,13.996,2.424s-5.652,5.384-3.768,12.382
	c1.885,7,9.689,14.806,4.846,17.766c-4.846,2.961-39.031,2.423-49.262-16.958c-10.229-19.381,7-38.493,26.918-30.418
	c0,0-17.766,1.885-16.42,14.535C421.453,252.868,432.757,255.829,441.912,257.175z"/>
<path fill="none" stroke="#ED1F24" stroke-width="0.25" stroke-miterlimit="10" d="M388.613,278.98h-36.879
	c0,0,34.994-13.19,28.803-41.724l16.42,20.726c0,0-3.23,8.614-8.615,7.537c-5.383-1.075-5.383-1.075-5.383-1.075
	S381.343,275.749,388.613,278.98z"/>
<path fill="none" stroke="#ED1F24" stroke-width="0.25" stroke-miterlimit="10" d="M428.183,278.98h-34.725
	c0,0,11.574-4.308,11.035-11.577C404.494,267.403,416.068,277.633,428.183,278.98z"/>
<path fill="none" stroke="#ED1F24" stroke-width="0.25" stroke-miterlimit="10" d="M307.048,280.324h-38.224
	c0,0,21.805-11.845,29.071-20.457c7.27-8.612,16.421-8.344,16.421-8.344s-2.961-5.922,5.923-9.96
	c8.882-4.038,18.034,1.076,15.612,6.19c-2.424,5.114-10.768,8.075-10.768,8.075s13.998,10.768,26.378-3.229
	c12.385-13.998-4.844-29.88-16.148-27.458c0,0,16.957-6.459,26.111-0.268c9.15,6.19,8.344,36.339-15.883,46.298
	c-24.226,9.962-36.071-1.883-29.34-4.846c0,0,0.807-9.958-9.423-8.344C296.55,259.598,298.166,277.094,307.048,280.324z"/>
<rect x="482.433" y="201.026" fill="none" stroke="#ED1F24" stroke-width="0.25" stroke-miterlimit="10" width="23.639" height="8.641"/>
<rect x="408.683" y="201.026" fill="none" stroke="#ED1F24" stroke-width="0.25" stroke-miterlimit="10" width="20.641" height="8.641"/>
<rect x="342.183" y="201.026" fill="none" stroke="#ED1F24" stroke-width="0.25" stroke-miterlimit="10" width="20.639" height="8.641"/>
<rect x="269.85" y="201.026" fill="none" stroke="#ED1F24" stroke-width="0.25" stroke-miterlimit="10" width="13.973" height="8.641"/>
<rect x="264.349" y="188.234" transform="matrix(0.4695 -0.8829 0.8829 0.4695 -26.0748 341.7097)" fill="none" stroke="#ED1F24" stroke-width="0.25" stroke-miterlimit="10" width="13.973" height="8.64"/>
<rect x="285.986" y="145.788" transform="matrix(0.4695 -0.8829 0.8829 0.4695 23.3738 339.1213)" fill="none" stroke="#ED1F24" stroke-width="0.25" stroke-miterlimit="10" width="15.846" height="8.64"/>
<rect x="505.893" y="189.643" transform="matrix(0.5645 -0.8255 0.8255 0.5645 63.8389 508.9158)" fill="none" stroke="#ED1F24" stroke-width="0.25" stroke-miterlimit="10" width="16.571" height="8.641"/>
<rect x="596.958" y="55.732" transform="matrix(0.5645 -0.8255 0.8255 0.5645 214.2473 526.166)" fill="none" stroke="#ED1F24" stroke-width="0.25" stroke-miterlimit="10" width="17.57" height="8.641"/>
<rect x="569.361" y="99.131" transform="matrix(0.5644 -0.8255 0.8255 0.5644 165.5324 520.6046)" fill="none" stroke="#ED1F24" stroke-width="0.25" stroke-miterlimit="10" width="13.413" height="8.641"/>
<rect x="534.868" y="149.244" transform="matrix(0.5645 -0.8255 0.8255 0.5645 109.2148 514.1196)" fill="none" stroke="#ED1F24" stroke-width="0.25" stroke-miterlimit="10" width="13.868" height="8.641"/>
<polygon fill="none" stroke="#ED1F24" stroke-width="0.25" stroke-miterlimit="10" points="8.766,467.352 7.611,467.352 
	0.125,467.352 0.125,446.713 8.766,446.713 8.766,388.354 0.125,388.354 0.125,374.381 8.766,374.381 211.323,374.381 
	219.964,374.381 219.964,388.354 211.323,388.354 211.323,446.713 219.964,446.713 219.964,467.352 211.323,467.352 
	211.323,513.213 219.964,513.213 219.964,533.854 211.323,533.854 211.323,586.963 219.964,586.963 219.964,610.602 
	211.323,610.602 8.766,610.602 0.125,610.602 0.125,586.963 8.766,586.963 8.766,533.854 0.125,533.854 0.125,513.213 
	8.766,513.213 "/>
<path fill="none" stroke="#ED1F24" stroke-width="0.25" stroke-miterlimit="10" d="M631.089,295.443H135.788
	c0,0-50.338,17.229-34.994,55.454c16.801,41.854,63.527-3.77,87.217-2.693c23.688,1.076,28.533,7.539,29.07,4.307
	c0.539-3.23-24.764-15.074-27.457-24.227c-2.691-9.15-8.074-8.076-8.074-8.076s-24.766,30.15-38.764,27.459
	c-13.996-2.693-22.072-18.305-17.227-26.92c0,0,5.383,4.307,10.498-0.539c5.113-4.844,4.307-15.072,15.343-16.957
	c11.036-1.884,43.608-1.884,47.378,0.537c3.768,2.422,6.459,11.037,10.768,10.23c4.307-0.809,6.729-9.689,11.574-10.23
	c4.846-0.537,8.883-0.537,8.883-0.537s-15.074,8.076-12.922,18.574c2.154,10.498,14.537,8.613,17.498,5.113
	c2.961-3.498,1.076-10.766,0.807-11.844c0,0,8.076-3.498,18.037,1.078c9.959,4.574,7.805,13.189,4.037,15.072
	c0,0,11.574,5.383,16.42-4.037c0,0,7.807,5.654,10.498,12.383s-3.768,11.035-6.729,9.961c-2.961-1.078-5.654-5.656-4.578-10.229
	c0,0-12.113,4.305-11.305,15.072c0,0-17.496,2.154-18.035,18.035c0,0,8.076,0.271,13.459-0.537c5.383-0.807,6.461,0.809,6.461,0.809
	s-3.434,0.738-7.066,3.193c-1.816,1.23-3.684,2.889-5.215,5.088c-5.217,7.062-6.293,16.752,0.168,24.289
	c5.383,6.459,14.535,11.305,21.803,17.092c2.424,1.93,4.637,3.963,6.432,6.197c1.635,2.307,2.994,4.705,4.07,6.855
	c3.227,8.617-3.232,18.309-12.799,18.721c-2.275,0.373-4.611,0.396-6.857,0.057c-6.74-1.027-12.674-5.352-13.775-13.465
	c0.045-3.162,1.127-6.387,3.279-8.539c2.154-2.154,7.537,0,9.686-3.232c1.619-2.152,1.352-4.574,0.141-6.729
	c-1.211-2.152-3.365-4.037-5.52-5.113c-2.152-1.076-5.383-1.076-7.537-1.076c0-9.691-2.152-20.459-9.689-26.92
	c-1.293,9.369-3.941,19.221-6.217,29.107c-0.758,3.293-4.998,17.164-5.75,20.846c-0.926,3.312-1.385,6.646-1.426,9.932
	c-1.683,24.102,20.93,43.484,43.541,44.561c2.691,0,5.316-0.27,7.892-0.744c28.719-3.564,40.562-31.559,56.714-55.248
	c5.381-8.613,17.227-9.689,28.352-9.574c3.971,0.205,8.168,0.871,12.562,2.037c26.381,7,71.873,45.764,85.064,48.455
	c13.189,2.691,21.264-5.385,20.459-11.307c0,0-2.424-2.422-6.73-2.961c-4.309-0.539-7.268-6.191-4.846-9.959
	c2.422-3.77,25.033,4.574,33.916,18.303c8.883,13.73,5.115,15.344-0.268,14.268c0,0-1.348,8.076,4.576,8.344
	c5.92,0.27,8.346-0.807,9.422-3.23c1.076-2.422,10.229,2.963,5.381,9.152c0,0,10.77,1.617,9.426,12.922
	c-1.348,11.307-8.346,12.922-8.346,12.922s-1.346-17.229-12.113-16.422c0,0-0.271-5.113,4.844-4.576c0,0-3.232-11.305-16.15-2.959
	c0,0-9.422-8.076-4.039-22.881c0,0-13.996-1.076-15.072,8.613c0,0-7.539-7.268-16.422-1.615c0,0,9.152,2.691,18.305,15.613
	c9.15,12.92,11.844,44.146,36.879,43.877c25.033-0.27,22.881-19.92,22.881-19.92s4.486,20.562,19.689,35.828
	c3.043,3.055,6.51,5.895,10.453,8.316c3.098,1.967,6.475,3.766,10.049,5.371c31.68,16.436,83.363,9.975,89.824-32.02
	c2.154-13.996-4.307-27.994-15.074-36.607c-2.691-1.885-5.451-3.434-8.258-4.727c-2.105-0.969-4.236-1.795-6.385-2.512
	c-2.152-0.717-4.32-1.324-6.498-1.857c-3.965-0.299-8.102-2.064-11.875-3.471c-3.773-1.418-7.193-2.469-9.871-0.887
	c-1.615,1.074-1.416,3.982-0.369,7.111c1.047,3.119,2.961,6.422,4.654,8.656c1.455,2.529,2.531,5.223,1.992,8.451
	c-1.076,3.23-5.383,6.461-8.613,5.385c-2.691-1.615-4.039-3.77-4.908-6.135c-3.256-8.551-5.779-17.361-8.072-26.217
	c-0.766-2.955-1.504-5.914-2.229-8.904c-6.326-34.115-16.018-71.803-49.168-90.119c-3.348-1.988-6.895-3.729-10.643-5.189
	c-3.754-1.463-7.707-2.645-11.873-3.518c-2.74-1.453-5.541-2.826-8.42-4.074c-2.879-1.25-5.834-2.371-8.861-3.357
	c0,0,4.576-4.039,7.535-3.23c0,0,2.154-9.959-11.037-18.305c-13.189-8.346-22.609,5.385-30.146,0.539s3.498-28.533,20.996-23.959
	c0,0,2.152-13.459,16.688-14.535c14.537-1.076,20.459,9.15,13.73,12.381c0,0,14.266,5.385,20.727-2.42
	c6.459-7.809,1.883-14.807-2.152-17.768c0,0,9.959,3.498,17.496,0.809c7.537-2.693,27.188-4.309,34.186-1.617
	c6.998,2.693,10.768,10.232,15.344,10.768c4.578,0.539,17.229-2.959,21.537-12.379C638.359,297.059,634.589,295.173,631.089,295.443
	z"/>
<path fill="none" stroke="#ED1F24" stroke-width="0.25" stroke-miterlimit="10" d="M311.943,456.467
	c8.507-14.586,13.89-35.045,31.927-41.234l-2.424-7.539c0,0-2.688,0.605-6.403,2.328c-16.748,8.17-24.285,27.551-29.805,44.359
	L311.943,456.467z"/>
<path fill="none" stroke="#ED1F24" stroke-width="0.25" stroke-miterlimit="10" d="M359.212,414.154v-7.807
	c0,0,23.418,0.537,37.146,9.422c13.73,8.883,21.268,10.498,21.268,10.498l-5.652,7.807
	C411.974,434.074,378.863,413.078,359.212,414.154z"/>
<path fill="none" stroke="#ED1F24" stroke-width="0.25" stroke-miterlimit="10" d="M425.431,442.15
	c4.307,3.229,28.266,16.15,28.266,16.15s-1.346-11.037,6.459-13.189c0,0-10.498-2.154-17.227-6.73
	c-6.732-4.576-11.039-5.922-11.039-5.922L425.431,442.15z"/>
<path fill="none" stroke="#ED1F24" stroke-width="0.25" stroke-miterlimit="10" d="M489.498,448.342
	c15.613,1.076,26.648,11.035,43.607,33.109c16.959,22.072,23.42,33.916,23.42,33.916l-9.959,0.539
	C546.566,515.906,523.955,466.645,489.498,448.342z"/>
<path fill="none" stroke="#ED1F24" stroke-width="0.25" stroke-miterlimit="10" d="M566.753,530.98h-8.881
	c0,0,0.82,1.391,2.369,3.656c1.543,2.268,3.811,5.408,6.699,8.906c1.629,2.26,3.375,4.439,5.234,6.516
	c1.859,2.078,3.83,4.049,5.91,5.891c8.32,7.602,18.01,10.832,28.777,12.986c-8.613-6.461-18.303-10.766-25.527-18.178
	c-1.848-1.932-3.605-3.955-5.25-6.055c-1.643-2.102-3.176-4.281-4.58-6.539C569.871,535.908,568.281,533.516,566.753,530.98z"/>
<path fill="none" stroke="#ED1F24" stroke-width="0.25" stroke-miterlimit="10" d="M291.108,372.43
	c9.689-1.076,18.303-10.768,13.189-20.727c0,0,16.957,17.766,35.262,19.65L291.108,372.43z"/>
<path fill="none" stroke="#ED1F24" stroke-width="0.25" stroke-miterlimit="10" d="M365.671,372.701h40.918
	c0,0-19.381-7-16.15-18.307C390.439,354.395,378.863,368.662,365.671,372.701z"/>
<path fill="none" stroke="#ED1F24" stroke-width="0.25" stroke-miterlimit="10" d="M429.47,372.43h48.184
	c0,0-18.576-5.922-17.229-15.611C460.425,356.818,448.042,370.008,429.47,372.43z"/>
<path fill="none" stroke="#ED1F24" stroke-width="0.25" stroke-miterlimit="10" d="M498.65,308.363
	c-13.459,3.232-24.496,23.959-32.57,22.074c-8.076-1.885-4.576-8.076-4.576-8.076s10.768,1.615,11.037-5.113
	c0.268-6.732-1.887-8.613-1.887-8.613L498.65,308.363z"/>
<path fill="none" stroke="#ED1F24" stroke-width="0.25" stroke-miterlimit="10" d="M441.044,327.477
	c-6.459,6.461-4.576,15.883,1.885,16.689c6.459,0.807,13.996-2.424,13.996-2.424s-5.652-5.383-3.768-12.381
	c1.885-7,9.691-14.807,4.846-17.766c-4.846-2.961-39.031-2.424-49.26,16.957c-10.23,19.381,6.998,38.494,26.918,30.418
	c0,0-17.768-1.885-16.422-14.535C420.587,331.783,431.89,328.822,441.044,327.477z"/>
<path fill="none" stroke="#ED1F24" stroke-width="0.25" stroke-miterlimit="10" d="M387.748,305.672h-36.879
	c0,0,34.994,13.189,28.801,41.723l16.422-20.725c0,0-3.23-8.615-8.615-7.537c-5.383,1.074-5.383,1.074-5.383,1.074
	S380.478,308.902,387.748,305.672z"/>
<path fill="none" stroke="#ED1F24" stroke-width="0.25" stroke-miterlimit="10" d="M427.316,305.672h-34.725
	c0,0,11.574,4.307,11.037,11.576C403.628,317.248,415.203,307.018,427.316,305.672z"/>
<path fill="none" stroke="#ED1F24" stroke-width="0.25" stroke-miterlimit="10" d="M306.181,304.328h-38.223
	c0,0,21.805,11.844,29.07,20.457c7.27,8.611,16.422,8.344,16.422,8.344s-2.961,5.922,5.922,9.959
	c8.883,4.039,18.035-1.076,15.613-6.189c-2.424-5.115-10.768-8.076-10.768-8.076s13.998-10.768,26.379,3.23
	c12.385,13.998-4.844,29.879-16.149,27.457c0,0,16.956,6.459,26.11,0.268c9.152-6.189,8.346-36.338-15.883-46.297
	c-24.225-9.963-36.071,1.883-29.34,4.846c0,0,0.807,9.957-9.422,8.344C295.683,325.053,297.3,307.557,306.181,304.328z"/>
<rect x="481.566" y="374.984" fill="none" stroke="#ED1F24" stroke-width="0.25" stroke-miterlimit="10" width="23.641" height="8.641"/>
<rect x="407.818" y="374.984" fill="none" stroke="#ED1F24" stroke-width="0.25" stroke-miterlimit="10" width="20.639" height="8.641"/>
<rect x="341.316" y="374.984" fill="none" stroke="#ED1F24" stroke-width="0.25" stroke-miterlimit="10" width="20.641" height="8.641"/>
<rect x="268.983" y="374.984" fill="none" stroke="#ED1F24" stroke-width="0.25" stroke-miterlimit="10" width="13.973" height="8.641"/>
<rect x="263.483" y="387.776" transform="matrix(0.4696 0.8829 -0.8829 0.4696 489.6544 -30.8109)" fill="none" stroke="#ED1F24" stroke-width="0.25" stroke-miterlimit="10" width="13.972" height="8.64"/>
<rect x="285.119" y="430.223" transform="matrix(0.4696 0.8829 -0.8829 0.4696 539.077 -28.2399)" fill="none" stroke="#ED1F24" stroke-width="0.25" stroke-miterlimit="10" width="15.846" height="8.64"/>
<rect x="505.025" y="386.368" transform="matrix(0.5644 0.8255 -0.8255 0.5644 546.0918 -253.5562)" fill="none" stroke="#ED1F24" stroke-width="0.25" stroke-miterlimit="10" width="16.572" height="8.641"/>
<rect x="596.093" y="520.278" transform="matrix(0.5644 0.8255 -0.8255 0.5644 696.556 -270.8104)" fill="none" stroke="#ED1F24" stroke-width="0.25" stroke-miterlimit="10" width="17.57" height="8.641"/>
<rect x="568.495" y="476.879" transform="matrix(0.5645 0.8254 -0.8254 0.5645 647.6923 -265.2288)" fill="none" stroke="#ED1F24" stroke-width="0.25" stroke-miterlimit="10" width="13.414" height="8.641"/>
<rect x="534.001" y="426.766" transform="matrix(0.5645 0.8254 -0.8254 0.5645 591.4291 -258.7664)" fill="none" stroke="#ED1F24" stroke-width="0.25" stroke-miterlimit="10" width="13.868" height="8.641"/>
<path fill="none" stroke="#ED1F24" stroke-width="0.25" stroke-miterlimit="10" d="M471.906,20.712
	c-21.5-2.25-30.666-6.75-50.166-10s-34.5-2.75-42.75,4.25c0-6.107-15.25-5.982-15.25,0c-8.25-7-23.25-7.5-42.75-4.25
	c-19.5,3.25-29,7.75-50.5,10h-0.646l-8.641,0.001l0.001,15.846l8.641-0.001l0.002,33.165h-8.641l0.001,13.974l8.641-0.001
	l201.499,0.027l0.98-0.026l8.641-0.001V69.723h-8.641l-0.002-33.164l8.641-0.001l-0.002-15.846l-8.641,0.001L471.906,20.712z"/>
<path fill="none" stroke="#ED1F24" stroke-width="0.25" stroke-miterlimit="10" d="M212.24,24.129
	c-21.5-2.25-30.667-13-50.167-16.25s-34.5-2.75-42.75,4.25c0-6.107-15.25-5.982-15.25,0c-8.25-7-23.25-7.5-42.75-4.25
	s-29,14-50.5,16.25l-0.512,0.013l-8.64,0.009l0.014,17.57l8.641-0.01l0.029,37.084l-8.641,0.009l0.012,13.413l8.641-0.008
	l0.039,47.067l-8.641,0.008l0.012,13.869l8.641-0.009l0.028,33.72l-8.641,0.01l0.013,16.57l8.641-0.009l202.623,0.009l8.641-0.009
	l-0.013-16.571l-8.641,0.01l-0.028-33.721l8.641-0.009l-0.012-13.868l-8.641,0.008l-0.039-47.067l8.641-0.008l-0.012-13.414
	l-8.641,0.009l-0.029-37.083l8.641-0.01l-0.014-17.569l-8.64,0.009L212.24,24.129z"/>
</svg>
